
CASCADE Topology V1, (c) Matra-Datavision
Locations 49
1
1.000000000000000 0.000000000000000 0.000000000000000 0.000000000000000 
0.000000000000000 1.000000000000000 0.000000000000000 0.000000000000000 
0.000000000000000 0.000000000000000 1.000000000000000 4043.333500000000186 
1
1.000000000000000 0.000000000000000 0.000000000000000 0.000000000000000 
0.000000000000000 1.000000000000000 0.000000000000000 0.000000000000000 
0.000000000000000 0.000000000000000 1.000000000000000 0.000000000000000 
1
1.000000000000000 0.000000000000000 0.000000000000000 0.000000000000000 
0.000000000000000 1.000000000000000 0.000000000000000 0.000000000000000 
0.000000000000000 0.000000000000000 1.000000000000000 0.000000000000000 
1
1.000000000000000 0.000000000000000 0.000000000000000 0.000000000000000 
0.000000000000000 1.000000000000000 0.000000000000000 0.000000000000000 
0.000000000000000 0.000000000000000 1.000000000000000 0.000000000000000 
1
1.000000000000000 0.000000000000000 0.000000000000000 0.000000000000000 
0.000000000000000 1.000000000000000 0.000000000000000 0.000000000000000 
0.000000000000000 0.000000000000000 1.000000000000000 0.000000000000000 
2  2 1 3 -1 4 1 5 -1 0
1
1.000000000000000 0.000000000000000 0.000000000000000 0.000000000000000 
0.000000000000000 1.000000000000000 0.000000000000000 0.000000000000000 
0.000000000000000 0.000000000000000 1.000000000000000 0.000000000000000 
2  7 -1 5 1 4 -1 3 1 2 -1 0
1
1.000000000000000 0.000000000000000 0.000000000000000 0.000000000000000 
0.000000000000000 1.000000000000000 0.000000000000000 0.000000000000000 
0.000000000000000 0.000000000000000 1.000000000000000 0.000000000000000 
1
1.000000000000000 0.000000000000000 0.000000000000000 0.000000000000000 
0.000000000000000 1.000000000000000 0.000000000000000 0.000000000000000 
0.000000000000000 0.000000000000000 1.000000000000000 0.000000000000000 
1
1.000000000000000 0.000000000000000 0.000000000000000 0.000000000000000 
0.000000000000000 1.000000000000000 0.000000000000000 0.000000000000000 
0.000000000000000 0.000000000000000 1.000000000000000 0.000000000000000 
2  9 1 10 1 11 -1 2 1 3 -1 4 1 5 -1 0
2  7 -1 5 1 4 -1 3 1 2 -1 11 1 10 -1 9 -1 0
1
1.000000000000000 0.000000000000000 0.000000000000000 -0.000000000000000 
0.000000000000000 1.000000000000000 0.000000000000000 -0.000000000000000 
0.000000000000000 0.000000000000000 1.000000000000000 -50.000000000000000 
2  9 1 10 1 11 -1 14 1 2 1 3 -1 4 1 5 -1 0
2  7 -1 5 1 4 -1 3 1 2 -1 14 -1 11 1 10 -1 9 -1 0
1
1.000000000000000 0.000000000000000 0.000000000000000 0.000000000000000 
0.000000000000000 1.000000000000000 0.000000000000000 0.000000000000000 
0.000000000000000 0.000000000000000 1.000000000000000 0.000000000000000 
1
-1.000000000000000 0.000000000000000 0.000000000000000 0.000000000000000 
0.000000000000000 0.000000000000000 1.000000000000000 -973.000000000000000 
0.000000000000000 1.000000000000000 -0.000000000000000 0.000000000000000 
2  17 1 18 1 5 -1 0
2  5 1 18 -1 17 -1 0
2  7 -1 5 1 18 -1 17 -1 0
2  9 1 10 1 11 -1 0
2  9 1 10 1 11 -1 14 1 0
2  11 -1 2 1 3 -1 4 1 5 -1 0
2  9 1 10 1 0
2  11 -1 14 1 2 1 3 -1 4 1 5 -1 0
2  7 -1 0
1
1.000000000000000 0.000000000000000 0.000000000000000 0.000000000000000 
0.000000000000000 1.000000000000000 0.000000000000000 -5.000000000000000 
0.000000000000000 0.000000000000000 1.000000000000000 0.000000000000001 
2  17 1 18 1 5 -1 28 1 0
2  28 -1 5 1 18 -1 17 -1 0
2  7 -1 28 -1 5 1 18 -1 17 -1 0
2  4 1 5 -1 0
2  2 1 3 -1 0
2  9 1 10 1 11 -1 2 1 3 -1 0
2  9 1 10 1 11 -1 14 1 2 1 3 -1 0
1
1.000000000000000 0.000000000000000 0.000000000000000 0.000000000000000 
0.000000000000000 1.000000000000000 0.000000000000000 0.000000000000000 
0.000000000000000 0.000000000000000 1.000000000000000 0.000000000000000 
1
1.000000000000000 0.000000000000000 0.000000000000000 0.000000000000000 
0.000000000000000 0.000000000000000 -1.000000000000000 -1843.000000000000000 
0.000000000000000 1.000000000000000 0.000000000000000 0.000000000000000 
2  36 1 37 1 3 -1 0
2  3 1 37 -1 36 -1 0
2  7 -1 5 1 4 -1 3 1 37 -1 36 -1 0
2  5 -1 28 1 0
2  17 1 18 1 0
2  7 -1 5 1 4 -1 0
1
1.000000000000000 0.000000000000000 0.000000000000000 0.000000000000000 
0.000000000000000 1.000000000000000 0.000000000000000 5.000000000000000 
0.000000000000000 0.000000000000000 1.000000000000000 -0.000000000000001 
2  36 1 37 1 3 -1 44 1 0
2  44 -1 3 1 37 -1 36 -1 0
2  7 -1 5 1 4 -1 44 -1 3 1 37 -1 36 -1 0
2  3 -1 44 1 4 1 5 -1 0
2  36 1 37 1 0
Curve2ds 16
1 0.00000000000000000 0.00000000000000000 1.00000000000000000 0.00000000000000000 
1 0.00000000000000000 0.00000000000000000 1.00000000000000000 0.00000000000000000 
1 0.00000000000000000 0.00000000000000000 0.00000000000000000 -1.00000000000000000 
1 6.28318530717958623 0.00000000000000000 0.00000000000000000 -1.00000000000000000 
1 0.00000000000000000 -5.00000000000000000 1.00000000000000000 0.00000000000000000 
1 0.00000000000000000 0.00000000000000000 0.00000000000000000 -1.00000000000000000 
1 6.28318530717958623 0.00000000000000000 0.00000000000000000 -1.00000000000000000 
1 0.00000000000000000 -5.00000000000000000 1.00000000000000000 0.00000000000000000 
1 0.00000000000000000 0.00000000000000000 1.00000000000000000 0.00000000000000000 
1 0.00000000000000000 0.00000000000000000 1.00000000000000000 0.00000000000000000 
1 0.00000000000000000 0.00000000000000000 0.00000000000000000 -1.00000000000000000 
1 6.28318530717958623 0.00000000000000000 0.00000000000000000 -1.00000000000000000 
1 0.00000000000000000 -5.00000000000000000 1.00000000000000000 0.00000000000000000 
1 0.00000000000000000 0.00000000000000000 0.00000000000000000 -1.00000000000000000 
1 6.28318530717958623 0.00000000000000000 0.00000000000000000 -1.00000000000000000 
1 0.00000000000000000 -5.00000000000000000 1.00000000000000000 0.00000000000000000 
Curves 24
1 2391.90999999999530701 -973.00000000000000000 0.00000000000000000 -0.00000000000000000 -0.00000000000000000 -1.00000000000000000 
1 2391.90999999999530701 -973.00000000000000000 0.00000000000000000 -1.00000000000000000 0.00000000000000000 0.00000000000000000 
1 2391.90999999999530701 -973.00000000000000000 0.00000000000000000 -1.00000000000000000 0.00000000000000000 0.00000000000000000 
1 2162.32780929852970075 -973.00000000000000000 0.00000000000000000 -0.00000000000000000 -0.00000000000000000 -1.00000000000000000 
2 -2311.90999999999530701 -25.00000000000000000 0.00000000000000000 0.00000000000000000 0.00000000000000000 1.00000000000000000 1.00000000000000000 0.00000000000000000 -0.00000000000000000 -0.00000000000000000 1.00000000000000000 0.00000000000000000 5.00000000000000000
2 -2242.32780929852970075 -25.00000000000000000 0.00000000000000000 0.00000000000000000 0.00000000000000000 1.00000000000000000 1.00000000000000000 0.00000000000000000 -0.00000000000000000 -0.00000000000000000 1.00000000000000000 0.00000000000000000 5.00000000000000000
1 2556.74561859705590905 -1843.00000000000000000 0.00000000000000000 -0.00000000000000000 -0.00000000000000000 -1.00000000000000000 
1 2556.74561859705590905 -1843.00000000000000000 0.00000000000000000 -0.18615445208659145 0.98252049340883518 0.00000000000000000 
1 2556.74561859705590905 -1843.00000000000000000 0.00000000000000000 -0.18615445208659145 0.98252049340883518 0.00000000000000000 
1 2162.32780929852970075 -973.00000000000000000 0.00000000000000000 0.00000000000000000 -1.00000000000000000 0.00000000000000000 
1 2162.32780929852970075 -1843.00000000000000000 0.00000000000000000 1.00000000000000000 0.00000000000000000 0.00000000000000000 
1 2162.32780929852970075 -973.00000000000000000 0.00000000000000000 0.00000000000000000 -1.00000000000000000 0.00000000000000000 
1 2162.32780929852970075 -1843.00000000000000000 0.00000000000000000 1.00000000000000000 0.00000000000000000 0.00000000000000000 
1 2162.32780929852970075 -1843.00000000000000000 0.00000000000000000 -0.00000000000000000 -0.00000000000000000 -1.00000000000000000 
1 2306.90999999999530701 -973.00000000000000000 -25.00000000000000000 0.00000000000000000 -1.00000000000000000 0.00000000000000022 
2 -2311.90999999999530701 -25.00000000000000000 0.00000000000000000 0.00000000000000000 0.00000000000000000 1.00000000000000000 1.00000000000000000 0.00000000000000000 -0.00000000000000000 -0.00000000000000000 1.00000000000000000 0.00000000000000000 5.00000000000000000
1 2237.32780929852970075 -973.00000000000000000 -25.00000000000000000 0.00000000000000000 -1.00000000000000000 0.00000000000000022 
2 -2242.32780929852970075 -25.00000000000000000 0.00000000000000000 0.00000000000000000 0.00000000000000000 1.00000000000000000 1.00000000000000000 0.00000000000000000 -0.00000000000000000 -0.00000000000000000 1.00000000000000000 0.00000000000000000 5.00000000000000000
2 2242.32780929852970075 -25.00000000000000000 0.00000000000000000 0.00000000000000000 0.00000000000000000 1.00000000000000000 1.00000000000000000 0.00000000000000000 -0.00000000000000000 -0.00000000000000000 1.00000000000000000 0.00000000000000000 5.00000000000000000
2 2476.74561859705590905 -25.00000000000000000 0.00000000000000000 0.00000000000000000 0.00000000000000000 1.00000000000000000 1.00000000000000000 0.00000000000000000 -0.00000000000000000 -0.00000000000000000 1.00000000000000000 0.00000000000000000 5.00000000000000000
1 2247.32780929852970075 -1843.00000000000000000 -25.00000000000000000 0.00000000000000000 1.00000000000000000 -0.00000000000000022 
2 2242.32780929852970075 -25.00000000000000000 0.00000000000000000 0.00000000000000000 0.00000000000000000 1.00000000000000000 1.00000000000000000 0.00000000000000000 -0.00000000000000000 -0.00000000000000000 1.00000000000000000 0.00000000000000000 5.00000000000000000
1 2481.74561859705590905 -1843.00000000000000000 -25.00000000000000000 0.00000000000000000 1.00000000000000000 -0.00000000000000022 
2 2476.74561859705590905 -25.00000000000000000 0.00000000000000000 0.00000000000000000 0.00000000000000000 1.00000000000000000 1.00000000000000000 0.00000000000000000 -0.00000000000000000 -0.00000000000000000 1.00000000000000000 0.00000000000000000 5.00000000000000000
Polygon3D 0
PolygonOnTriangulations 0
Surfaces 14
1 2391.90999999999530701 -973.00000000000000000 0.00000000000000000 0.00000000000000000 1.00000000000000000 0.00000000000000000 -1.00000000000000000 0.00000000000000000 0.00000000000000000 0.00000000000000000 -0.00000000000000000 1.00000000000000000 
2 2311.90999999999530701 -973.00000000000000000 -25.00000000000000000 0.00000000000000000 1.00000000000000000 -0.00000000000000022 -1.00000000000000000 0.00000000000000000 0.00000000000000000 0.00000000000000000 0.00000000000000022 1.00000000000000000 5.00000000000000000
2 2242.32780929852970075 -973.00000000000000000 -25.00000000000000000 0.00000000000000000 1.00000000000000000 -0.00000000000000022 -1.00000000000000000 0.00000000000000000 0.00000000000000000 0.00000000000000000 0.00000000000000022 1.00000000000000000 5.00000000000000000
1 2556.74561859705590905 -1843.00000000000000000 0.00000000000000000 0.98252049340883518 0.18615445208659145 0.00000000000000000 -0.18615445208659145 0.98252049340883518 0.00000000000000000 0.00000000000000000 -0.00000000000000000 1.00000000000000000 
1 2322.19723768102176109 -1438.13413140287366332 0.00000000000000000 0.00000000000000000 0.00000000000000000 1.00000000000000000 1.00000000000000000 0.00000000000000000 -0.00000000000000000 -0.00000000000000000 1.00000000000000000 0.00000000000000000 
1 2322.19723768102176109 -1438.13413140287366332 0.00000000000000000 0.00000000000000000 0.00000000000000000 1.00000000000000000 1.00000000000000000 0.00000000000000000 -0.00000000000000000 -0.00000000000000000 1.00000000000000000 0.00000000000000000 
1 2162.32780929852970075 -973.00000000000000000 0.00000000000000000 -1.00000000000000000 0.00000000000000000 0.00000000000000000 0.00000000000000000 -1.00000000000000000 0.00000000000000000 0.00000000000000000 0.00000000000000000 1.00000000000000000 
1 2162.32780929852970075 -1843.00000000000000000 0.00000000000000000 0.00000000000000000 -1.00000000000000000 0.00000000000000000 1.00000000000000000 0.00000000000000000 0.00000000000000000 -0.00000000000000000 0.00000000000000000 1.00000000000000000 
2 2242.32780929852970075 -1843.00000000000000000 -25.00000000000000000 0.00000000000000000 -1.00000000000000000 0.00000000000000022 1.00000000000000000 0.00000000000000000 0.00000000000000000 -0.00000000000000000 0.00000000000000022 1.00000000000000000 5.00000000000000000
2 2476.74561859705590905 -1843.00000000000000000 -25.00000000000000000 0.00000000000000000 -1.00000000000000000 0.00000000000000022 1.00000000000000000 0.00000000000000000 0.00000000000000000 -0.00000000000000000 0.00000000000000022 1.00000000000000000 5.00000000000000000
1 2311.90999999999485226 -972.99999999999988631 -24.99999999999999645 0.00000000000000000 1.00000000000000000 -0.00000000000000000 1.00000000000000000 -0.00000000000000000 0.00000000000000000 0.00000000000000000 -0.00000000000000000 -1.00000000000000000 
1 2242.32780929852970075 -972.99999999999988631 -24.99999999999999645 -0.00000000000000000 1.00000000000000000 -0.00000000000000000 0.00000000000000000 0.00000000000000000 1.00000000000000000 1.00000000000000000 0.00000000000000000 -0.00000000000000000 
1 2242.32780929852924601 -1843.00000000000000000 -24.99999999999999645 -0.00000000000000000 -1.00000000000000000 -0.00000000000000000 0.00000000000000000 0.00000000000000000 -1.00000000000000000 1.00000000000000000 -0.00000000000000000 0.00000000000000000 
1 2476.74561859705590905 -1843.00000000000000000 -24.99999999999999645 -0.00000000000000000 -1.00000000000000000 -0.00000000000000000 0.00000000000000000 0.00000000000000000 -1.00000000000000000 1.00000000000000000 -0.00000000000000000 0.00000000000000000 
Triangulations 0

TShapes 74
Ve
0.000000100000000
2391.909999999995307 -973.000000000000000 0.000000000000000
0 0

0101101
*
Ve
0.000000100000000
2391.909999999995307 -973.000000000000000 -50.000000000000000
0 0

0101101
*
Ed
 0.000000100000000 1 1 0
1  1 0 0.000000000000000 50.000000000000000
0

0101000
+74 8 -73 8 *
Ve
0.000000100000000
2162.327809298529701 -973.000000000000000 0.000000000000000
0 0

0101101
*
Ed
 0.000000100000000 1 1 0
1  2 0 0.000000000000000 229.582190701465606
0

0101000
+74 13 -71 13 *
Ve
0.000000100000000
2162.327809298529701 -973.000000000000000 -50.000000000000000
0 0

0101101
*
Ed
 0.000000100000000 1 1 0
1  3 0 0.000000000000000 229.582190701465606
0

0101000
+73 16 -69 16 *
Ed
 0.000000100000000 1 1 0
1  4 0 0.000000000000000 50.000000000000000
0

0101000
+71 8 -69 8 *
Wi

0101100
+72 6 -70 12 +68 15 -67 6 *
Ve
0.000000100000000
2306.909999999995307 -973.000000000000000 -25.000000000000000
0 0

0101101
*
Ed
 0.000000100000000 1 1 0
1  5 0 0.000000000000000 6.283185307179586
2  1 2 20 0.000000000000000 6.283185307179586
0

0101000
+65 21 -65 21 *
Wi

0101100
-64 19 *
Ve
0.000000100000000
2237.327809298529701 -973.000000000000000 -25.000000000000000
0 0

0101101
*
Ed
 0.000000100000000 1 1 0
1  6 0 0.000000000000000 6.283185307179586
2  2 3 20 0.000000000000000 6.283185307179586
0

0101000
+62 21 -62 21 *
Wi

0101100
-61 19 *
Fa
0  0.000000100000000 1 6

0111000
+66 0 +63 0 +60 0 *
Ve
0.000000100000000
2556.745618597055909 -1843.000000000000000 0.000000000000000
0 0

0101101
*
Ve
0.000000100000000
2556.745618597055909 -1843.000000000000000 -50.000000000000000
0 0

0101101
*
Ed
 0.000000100000000 1 1 0
1  7 0 0.000000000000000 50.000000000000000
0

0101000
+58 8 -57 8 *
Ed
 0.000000100000000 1 1 0
1  8 0 0.000000000000000 885.477713529976768
0

0101000
+58 13 -74 13 *
Ed
 0.000000100000000 1 1 0
1  9 0 0.000000000000000 885.477713529976768
0

0101000
+57 16 -73 16 *
Wi

0101100
+56 0 -72 0 -55 22 +54 23 *
Fa
0  0.000000100000000 4 0

0111000
+53 0 *
Ve
0.000000100000000
2162.327809298529701 -1843.000000000000000 0.000000000000000
0 0

0101101
*
Ed
 0.000000100000000 1 1 0
1  10 0 0.000000000000000 870.000000000000000
0

0101000
+71 13 -51 13 *
Ed
 0.000000100000000 1 1 0
1  11 0 0.000000000000000 394.417809298526208
0

0101000
+51 13 -58 13 *
Wi

0101100
+70 0 +50 0 +49 0 +55 0 *
Fa
0  0.000000100000000 5 0

0111000
+48 25 *
Ve
0.000000100000000
2162.327809298529701 -1843.000000000000000 -50.000000000000000
0 0

0101101
*
Ed
 0.000000100000000 1 1 0
1  12 0 0.000000000000000 870.000000000000000
0

0101000
+69 16 -46 16 *
Ed
 0.000000100000000 1 1 0
1  13 0 0.000000000000000 394.417809298526208
0

0101000
+46 16 -57 16 *
Wi

0101100
+68 0 +45 0 +44 0 +54 0 *
Fa
0  0.000000100000000 6 0

0111000
+43 25 *
Ed
 0.000000100000000 1 1 0
1  14 0 0.000000000000000 50.000000000000000
0

0101000
+51 8 -46 8 *
Wi

0101100
+67 0 -41 0 -50 22 +45 23 *
Fa
0  0.000000100000000 7 0

0111000
+40 0 *
Ve
0.000000100000000
2306.909999999995307 -978.000000000000000 -25.000000000000000
0 0

0101101
*
Ed
 0.000000100000000 1 1 0
1  15 0 0.000000000000000 5.000000000000000
3  3 4CN 2 0 0.000000000000000 5.000000000000000
0

0101000
+65 27 -38 27 *
Ed
 0.000000100000000 1 1 0
1  16 0 0.000000000000000 6.283185307179586
2  5 2 30 0.000000000000000 6.283185307179586
0

0101000
+38 31 -38 31 *
Wi

0101100
+37 0 -37 0 -64 19 +36 29 *
Fa
0  0.000000100000000 2 0

0111000
+35 0 *
Ve
0.000000100000000
2237.327809298529701 -978.000000000000000 -25.000000000000000
0 0

0101101
*
Ed
 0.000000100000000 1 1 0
1  17 0 0.000000000000000 5.000000000000000
3  6 7CN 3 0 0.000000000000000 5.000000000000000
0

0101000
+62 27 -33 27 *
Ed
 0.000000100000000 1 1 0
1  18 0 0.000000000000000 6.283185307179586
2  8 3 30 0.000000000000000 6.283185307179586
0

0101000
+33 31 -33 31 *
Wi

0101100
+32 0 -32 0 -61 19 +31 29 *
Fa
0  0.000000100000000 3 0

0111000
+30 0 *
Wi

0101100
+41 33 -49 34 +44 35 -56 33 *
Ve
0.000000100000000
2247.327809298529701 -1843.000000000000000 -25.000000000000000
0 0

0101101
*
Ed
 0.000000100000000 1 1 0
1  19 0 0.000000000000000 6.283185307179586
2  9 9 39 0.000000000000000 6.283185307179586
0

0101000
+27 40 -27 40 *
Wi

0101100
-26 38 *
Ve
0.000000100000000
2481.745618597055909 -1843.000000000000000 -25.000000000000000
0 0

0101101
*
Ed
 0.000000100000000 1 1 0
1  20 0 0.000000000000000 6.283185307179586
2  10 10 39 0.000000000000000 6.283185307179586
0

0101000
+24 40 -24 40 *
Wi

0101100
-23 38 *
Fa
0  0.000000100000000 8 33

0111000
+28 0 +25 0 +22 0 *
Wi

0101100
+36 0 *
Fa
0  0.000000100000000 11 0

0111000
+20 42 *
Wi

0101100
+31 0 *
Fa
0  0.000000100000000 12 0

0111000
+18 42 *
Ve
0.000000100000000
2247.327809298529701 -1838.000000000000000 -25.000000000000000
0 0

0101101
*
Ed
 0.000000100000000 1 1 0
1  21 0 0.000000000000000 5.000000000000000
3  11 12CN 9 0 0.000000000000000 5.000000000000000
0

0101000
+27 43 -16 43 *
Ed
 0.000000100000000 1 1 0
1  22 0 0.000000000000000 6.283185307179586
2  13 9 46 0.000000000000000 6.283185307179586
0

0101000
+16 47 -16 47 *
Wi

0101100
+15 0 -15 0 -26 38 +14 45 *
Fa
0  0.000000100000000 9 0

0111000
+13 0 *
Ve
0.000000100000000
2481.745618597055909 -1838.000000000000000 -25.000000000000000
0 0

0101101
*
Ed
 0.000000100000000 1 1 0
1  23 0 0.000000000000000 5.000000000000000
3  14 15CN 10 0 0.000000000000000 5.000000000000000
0

0101000
+24 43 -11 43 *
Ed
 0.000000100000000 1 1 0
1  24 0 0.000000000000000 6.283185307179586
2  16 10 46 0.000000000000000 6.283185307179586
0

0101000
+11 47 -11 47 *
Wi

0101100
+10 0 -10 0 -23 38 +9 45 *
Fa
0  0.000000100000000 10 0

0111000
+8 0 *
Wi

0101100
+14 0 *
Fa
0  0.000000100000000 13 0

0111000
+6 49 *
Wi

0101100
+9 0 *
Fa
0  0.000000100000000 14 0

0111000
+4 49 *
Sh

0101100
+59 0 +52 6 +47 24 -42 26 +39 6 -34 0 -29 0 +21 32 +19 41 +17 41 
-12 32 -7 32 +5 48 +3 48 *
So

0100000
+2 0 *

+1 1 