
CASCADE Topology V1, (c) Matra-Datavision
Locations 59
1
0.000000000000000 0.000000000000000 1.000000000000000 0.000000000000000 
1.000000000000000 0.000000000000000 0.000000000000000 0.000000000000000 
0.000000000000000 1.000000000000000 0.000000000000000 0.000000000000000 
1
0.000000000000000 0.000000000000000 1.000000000000000 0.000000000000000 
1.000000000000000 0.000000000000000 0.000000000000000 0.000000000000000 
0.000000000000000 1.000000000000000 0.000000000000000 0.000000000000000 
1
0.000000000000000 0.000000000000000 1.000000000000000 0.000000000000000 
1.000000000000000 0.000000000000000 0.000000000000000 0.000000000000000 
0.000000000000000 1.000000000000000 0.000000000000000 0.000000000000000 
1
0.000000000000000 0.000000000000000 1.000000000000000 0.000000000000000 
1.000000000000000 0.000000000000000 0.000000000000000 0.000000000000000 
0.000000000000000 1.000000000000000 0.000000000000000 0.000000000000000 
1
0.000000000000000 0.000000000000000 1.000000000000000 0.000000000000000 
1.000000000000000 0.000000000000000 0.000000000000000 0.000000000000000 
0.000000000000000 1.000000000000000 0.000000000000000 0.000000000000000 
2  2 1 3 -1 4 1 5 -1 0
1
1.000000000000000 0.000000000000000 0.000000000000000 0.000000000000000 
0.000000000000000 1.000000000000000 0.000000000000000 0.000000000000000 
0.000000000000000 0.000000000000000 1.000000000000000 0.000000000000000 
1
0.000000000000000 -0.000000000000000 1.000000000000000 0.000000000000000 
1.000000000000000 0.000000000000000 -0.000000000000000 0.000000000000000 
-0.000000000000000 1.000000000000000 0.000000000000000 0.000000000000000 
1
-0.000000000000000 0.000000000000000 1.000000000000000 0.000000000000000 
1.000000000000000 -0.000000000000000 0.000000000000000 0.000000000000000 
0.000000000000000 1.000000000000000 -0.000000000000000 0.000000000000000 
2  7 1 8 1 9 -1 0
1
1.000000000000000 0.000000000000000 0.000000000000000 -0.000000000000007 
0.000000000000000 1.000000000000000 0.000000000000000 0.000000000000004 
0.000000000000000 0.000000000000000 1.000000000000000 15.000000000000000 
2  7 1 8 1 9 -1 11 1 0
2  8 -1 7 -1 0
2  9 1 8 -1 7 -1 0
2  11 -1 9 1 8 -1 7 -1 0
2  9 -1 2 1 3 -1 4 1 5 -1 0
2  7 1 8 1 9 -1 2 1 3 -1 4 1 5 -1 0
1
1.000000000000000 0.000000000000000 0.000000000000000 0.000000000000000 
0.000000000000000 1.000000000000000 0.000000000000000 0.000000000000000 
0.000000000000000 0.000000000000000 1.000000000000000 0.000000000000000 
1
0.000000000000000 0.000000000000000 -1.000000000000000 -0.000000000000012 
1.000000000000000 -0.000000000000000 0.000000000000000 0.000000000000000 
0.000000000000000 -1.000000000000000 -0.000000000000000 -0.000000000000000 
2  18 1 19 1 4 -1 3 1 2 -1 9 1 8 -1 7 -1 0
2  18 1 19 1 5 -1 0
2  5 1 19 -1 18 -1 0
1
1.000000000000000 0.000000000000000 0.000000000000000 -0.000000000000003 
0.000000000000000 1.000000000000000 0.000000000000000 0.000000000000004 
0.000000000000000 0.000000000000000 1.000000000000000 15.000000000000000 
2  23 -1 5 1 19 -1 18 -1 0
2  19 -1 18 -1 0
2  2 1 3 -1 4 1 19 -1 18 -1 0
2  2 1 3 -1 4 1 5 -1 23 -1 5 1 19 -1 18 -1 0
2  9 -1 11 1 2 1 3 -1 4 1 5 -1 23 -1 5 1 19 -1 18 -1 0
2  9 -1 2 1 3 -1 4 1 19 -1 18 -1 0
1
1.000000000000000 0.000000000000000 0.000000000000000 0.000000000000000 
0.000000000000000 1.000000000000000 0.000000000000000 0.000000000000000 
0.000000000000000 0.000000000000000 1.000000000000000 0.000000000000000 
1
0.000000000000000 0.000000000000000 -1.000000000000000 0.000000000000897 
1.000000000000000 0.000000000000000 0.000000000000000 -0.000000000000000 
0.000000000000000 -1.000000000000000 -0.000000000000000 0.000000000000000 
2  30 1 31 1 2 -1 9 1 8 -1 7 -1 0
2  30 1 31 1 3 -1 4 1 5 -1 0
2  3 1 31 -1 30 -1 0
1
1.000000000000000 0.000000000000000 0.000000000000000 -0.000000000000002 
0.000000000000000 1.000000000000000 0.000000000000000 0.000000000000006 
0.000000000000000 0.000000000000000 1.000000000000000 15.000000000000000 
2  35 -1 3 1 31 -1 30 -1 0
2  31 -1 30 -1 0
2  2 1 31 -1 30 -1 0
2  2 1 3 -1 35 -1 3 1 31 -1 30 -1 0
2  9 -1 2 1 31 -1 30 -1 0
2  9 -1 11 1 2 1 3 -1 35 -1 3 1 31 -1 30 -1 0
2  9 -1 11 1 2 1 3 -1 4 1 5 -1 0
2  7 1 8 1 9 -1 11 1 2 1 3 -1 4 1 5 -1 0
2  18 1 19 1 5 -1 23 1 5 1 4 -1 3 1 2 -1 11 -1 9 1 8 -1 7 -1 0
2  18 1 19 1 5 -1 23 1 0
2  30 1 31 1 3 -1 35 1 3 1 2 -1 11 -1 9 1 8 -1 7 -1 0
2  30 1 31 1 3 -1 35 1 4 1 5 -1 0
2  4 1 5 -1 0
2  2 1 3 -1 0
2  7 1 8 1 9 -1 2 1 3 -1 0
2  7 1 8 1 9 -1 11 1 2 1 3 -1 0
2  30 1 31 1 3 -1 0
2  30 1 31 1 3 -1 35 1 0
2  5 -1 0
2  18 1 19 1 0
2  3 -1 4 1 5 -1 0
2  30 1 31 1 0
2  5 -1 23 1 0
2  3 -1 35 1 4 1 5 -1 0
Curve2ds 76
1 250.00000000000000000 0.00000000000000102 -0.00000000000000016 -1.00000000000000000 
1 515.00000000000000000 125.00000000000000000 -1.00000000000000000 -0.00000000000000022 
1 1030.00000000000022737 -0.00000000000000000 0.00000000000000022 -1.00000000000000000 
1 0.00000000000000000 0.00000000000000000 -0.00000000000000016 -1.00000000000000000 
1 515.00000000000000000 -125.00000000000000000 -0.00000000000000022 1.00000000000000000 
1 -0.00000000000090949 -0.00000000000267475 1.00000000000000000 -0.00000000000000044 
1 -0.00000000000091609 -15.00000000000267519 1.00000000000000000 -0.00000000000000044 
1 0.00000000000000000 0.00000000000000000 0.00000000000000022 -1.00000000000000000 
1 -515.00000000000000000 125.00000000000000000 0.00000000000000022 -1.00000000000000000 
1 -515.00000000000000000 -125.00000000000000000 1.00000000000000000 0.00000000000000022 
1 0.00000000000000000 0.00000000000000000 1.00000000000000000 0.00000000000000000 
1 -0.00000000000000333 -15.00000000000000000 1.00000000000000000 0.00000000000000000 
1 -0.00000000000000000 0.00000000000000000 1.00000000000000000 0.00000000000000000 
1 -0.00000000000000416 -14.99999999999999822 1.00000000000000000 0.00000000000000000 
1 110.00000000000000000 40.00000000000000000 -1.00000000000000000 0.00000000000000000 
1 60.00000000000187583 -0.00000000000154795 1.00000000000000000 0.00000000000000000 
1 60.00000000000156319 -15.00000000000186873 1.00000000000000000 0.00000000000000006 
1 -454.99999999999852207 -124.99999999999909051 1.00000000000000000 -0.00000000000000011 
1 -454.99999999999818101 -124.99999999999909051 1.00000000000000000 -0.00000000000000006 
1 0.00000000000000000 0.00000000000000000 1.00000000000000000 0.00000000000000000 
1 0.00000000000000083 -15.00000000000000000 1.00000000000000000 0.00000000000000000 
1 -40.00000000000000000 110.00000000000000000 -0.00000000000000011 -1.00000000000000000 
1 970.00000000000136424 -0.00000000000168387 -1.00000000000000000 0.00000000000000022 
1 970.00000000000113687 -15.00000000000195399 -1.00000000000000000 0.00000000000000016 
1 455.00000000000125056 -124.99999999999909051 -1.00000000000000000 0.00000000000000011 
1 455.00000000000102318 -124.99999999999909051 -1.00000000000000000 0.00000000000000017 
1 0.00000000000000000 0.00000000000000000 -0.00000000000000006 -1.00000000000000000 
1 80.00000000000000000 0.00000000000000000 0.00000000000000006 -1.00000000000000000 
1 970.00000000000113687 -0.00000000000195476 -0.00000000000000016 -1.00000000000000000 
1 80.00000000000000000 0.00000000000000000 0.00000000000000006 -1.00000000000000000 
1 -0.00000000000000000 0.00000000000000000 -0.00000000000000006 -1.00000000000000000 
1 60.00000000000156319 -0.00000000000186936 -0.00000000000000011 -1.00000000000000000 
1 -110.00000000000000000 -40.00000000000000000 1.00000000000000000 0.00000000000000000 
1 0.00000000000000000 0.00000000000000000 1.00000000000000000 0.00000000000000000 
1 -0.00000000000000333 -14.99999999999999822 1.00000000000000000 0.00000000000000000 
1 110.00000000000000000 -40.00000000000000000 0.00000000000000000 1.00000000000000000 
1 0.00000000000000000 0.00000000000000000 1.00000000000000000 -0.00000000000000000 
1 0.00000000000000333 -15.00000000000000000 1.00000000000000000 -0.00000000000000000 
1 -110.00000000000000000 40.00000000000000000 0.00000000000000000 -1.00000000000000000 
1 0.00000000000000000 0.00000000000000000 1.00000000000000000 0.00000000000000000 
1 0.00000000000000000 -15.00000000000000000 1.00000000000000000 0.00000000000000000 
2 -70.00000000000000000 0.00000000000000000 1.00000000000000000 0.00000000000000000 0.00000000000000000 -1.00000000000000000 5.00000000000000000
1 0.00000000000000000 0.00000000000000000 1.00000000000000000 0.00000000000000000 
1 0.00000000000000000 -15.00000000000000000 1.00000000000000000 0.00000000000000000 
2 70.00000000000000000 0.00000000000000000 1.00000000000000000 0.00000000000000000 0.00000000000000000 -1.00000000000000000 5.00000000000000000
1 220.00000000000000000 0.00000000000000000 -0.00000000000000006 -1.00000000000000000 
1 0.00000000000000000 0.00000000000000000 -0.00000000000000006 -1.00000000000000000 
1 750.00000000000113687 -0.00000000000191858 -0.00000000000000016 -1.00000000000000000 
1 220.00000000000000000 0.00000000000000000 -0.00000000000000006 -1.00000000000000000 
1 0.00000000000000000 0.00000000000000000 -0.00000000000000006 -1.00000000000000000 
1 280.00000000000159162 -0.00000000000185670 -0.00000000000000011 -1.00000000000000000 
1 0.00000000000000000 0.00000000000000000 1.00000000000000000 0.00000000000000000 
1 0.00000000000000500 -15.00000000000000178 1.00000000000000000 0.00000000000000000 
1 -40.00000000000000000 -110.00000000000000000 1.00000000000000000 -0.00000000000000011 
1 40.00000000000000000 -110.00000000000000000 0.00000000000000011 1.00000000000000000 
1 0.00000000000000000 0.00000000000000000 1.00000000000000000 0.00000000000000000 
1 -0.00000000000000500 -15.00000000000000000 1.00000000000000000 0.00000000000000000 
1 40.00000000000000000 110.00000000000000000 -1.00000000000000000 0.00000000000000011 
1 0.00000000000000000 0.00000000000000000 1.00000000000000000 0.00000000000000000 
1 0.00000000000000000 -15.00000000000000000 1.00000000000000000 0.00000000000000000 
2 0.00000000000000000 -70.00000000000000000 -0.00000000000000011 -1.00000000000000000 1.00000000000000000 -0.00000000000000011 5.00000000000000000
1 0.00000000000000000 0.00000000000000000 1.00000000000000000 0.00000000000000000 
1 0.00000000000000000 -15.00000000000000000 1.00000000000000000 0.00000000000000000 
2 0.00000000000000000 70.00000000000000000 -0.00000000000000011 -1.00000000000000000 1.00000000000000000 -0.00000000000000011 5.00000000000000000
1 0.00000000000000000 0.00000000000000000 0.00000000000000006 -1.00000000000000000 
1 0.00000000000000000 0.00000000000000000 0.00000000000000006 -1.00000000000000000 
1 80.00000000000000000 0.00000000000000000 -0.00000000000000006 -1.00000000000000000 
1 0.00000000000000000 0.00000000000000000 0.00000000000000000 -1.00000000000000000 
1 6.28318530717958623 0.00000000000000000 0.00000000000000000 -1.00000000000000000 
1 0.00000000000000000 0.00000000000000000 0.00000000000000000 -1.00000000000000000 
1 6.28318530717958623 0.00000000000000000 0.00000000000000000 -1.00000000000000000 
1 80.00000000000000000 0.00000000000000000 -0.00000000000000006 -1.00000000000000000 
1 0.00000000000000000 0.00000000000000000 0.00000000000000000 -1.00000000000000000 
1 6.28318530717958623 0.00000000000000000 0.00000000000000000 -1.00000000000000000 
1 0.00000000000000000 0.00000000000000000 0.00000000000000000 -1.00000000000000000 
1 6.28318530717958623 0.00000000000000000 0.00000000000000000 -1.00000000000000000 
Curves 32
1 -802.00000000000022737 5872.00050000000101136 -0.00000000000278577 -0.00000000000000044 0.00000000000000028 1.00000000000000000 
1 228.00000000000011369 5872.00050000000101136 -0.00000000000255707 -0.00000000000000044 0.00000000000000028 1.00000000000000000 
1 -802.00000000000125056 5872.00050000000010186 0.00000000000000000 1.00000000000000000 0.00000000000000000 0.00000000000000000 
1 -802.00000000000022737 5622.00050000000101136 -0.00000000000267475 -0.00000000000000044 0.00000000000000028 1.00000000000000000 
1 -802.00000000000125056 5622.00050000000010186 0.00000000000000000 0.00000000000000000 1.00000000000000000 0.00000000000000000 
1 228.00000000000005684 5622.00050000000101136 -0.00000000000244604 -0.00000000000000044 0.00000000000000028 1.00000000000000000 
1 227.99999999999874944 5872.00050000000010186 0.00000000000000000 0.00000000000000000 -1.00000000000000000 0.00000000000000000 
1 227.99999999999874944 5622.00050000000010186 0.00000000000000000 -1.00000000000000000 0.00000000000000000 0.00000000000000000 
1 167.99999999999818101 -5622.00050000000101136 0.00000000000000000 -1.00000000000000000 0.00000000000000000 0.00000000000000000 
1 -742.00000000000068212 -5622.00050000000101136 0.00000000000000000 1.00000000000000000 0.00000000000000000 0.00000000000000000 
1 -742.00000000000102318 5622.00050000000101136 -0.00000000000101676 -0.00000000000000011 0.00000000000000039 1.00000000000000000 
1 167.99999999999849365 5622.00050000000101136 -0.00000000000121405 -0.00000000000000022 0.00000000000000028 1.00000000000000000 
1 -52.00000000000182609 -5542.00050000000101136 0.00000000000000000 1.00000000000000000 0.00000000000000000 0.00000000000000000 
1 167.99999999999818101 -5542.00050000000101136 0.00000000000000000 0.00000000000000000 -1.00000000000000000 0.00000000000000000 
1 -52.00000000000182609 -5622.00050000000101136 0.00000000000000000 0.00000000000000000 1.00000000000000000 0.00000000000000000 
2 -12.00000000000182609 -5582.00050000000101136 0.00000000000000000 0.00000000000000000 0.00000000000000000 1.00000000000000000 1.00000000000000000 0.00000000000000000 -0.00000000000000000 -0.00000000000000000 1.00000000000000000 0.00000000000000000 5.00000000000000000
2 127.99999999999818101 -5582.00050000000101136 0.00000000000000000 0.00000000000000000 0.00000000000000000 1.00000000000000000 1.00000000000000000 0.00000000000000000 -0.00000000000000000 -0.00000000000000000 1.00000000000000000 0.00000000000000000 5.00000000000000000
1 -522.00000000000102318 5622.00050000000101136 -0.00000000000100455 -0.00000000000000011 0.00000000000000039 1.00000000000000000 
1 -52.00000000000150635 5622.00050000000101136 -0.00000000000127511 -0.00000000000000022 0.00000000000000028 1.00000000000000000 
1 -522.00000000000068212 -5622.00050000000101136 0.00000000000000000 0.00000000000000000 1.00000000000000000 0.00000000000000000 
1 -522.00000000000068212 -5542.00050000000101136 0.00000000000000000 -1.00000000000000000 0.00000000000000000 0.00000000000000000 
1 -742.00000000000068212 -5542.00050000000101136 0.00000000000000000 0.00000000000000000 -1.00000000000000000 0.00000000000000000 
2 -562.00000000000068212 -5582.00050000000101136 0.00000000000000000 0.00000000000000000 0.00000000000000000 1.00000000000000000 1.00000000000000000 0.00000000000000000 -0.00000000000000000 -0.00000000000000000 1.00000000000000000 0.00000000000000000 5.00000000000000000
2 -702.00000000000068212 -5582.00050000000101136 0.00000000000000000 0.00000000000000000 0.00000000000000000 1.00000000000000000 1.00000000000000000 0.00000000000000000 -0.00000000000000000 -0.00000000000000000 1.00000000000000000 0.00000000000000000 5.00000000000000000
1 -742.00000000000102318 5542.00050000000101136 -0.00000000000099011 -0.00000000000000011 0.00000000000000039 1.00000000000000000 
1 167.99999999999849365 5542.00050000000101136 -0.00000000000119628 -0.00000000000000022 0.00000000000000028 1.00000000000000000 
1 -52.00000000000152056 5542.00050000000101136 -0.00000000000125734 -0.00000000000000022 0.00000000000000028 1.00000000000000000 
1 -7.00000000000151612 5582.00050000000101136 -0.00000000000125374 -0.00000000000000022 0.00000000000000028 1.00000000000000000 
1 132.99999999999849365 5582.00050000000101136 -0.00000000000121488 -0.00000000000000022 0.00000000000000028 1.00000000000000000 
1 -522.00000000000102318 5542.00050000000101136 -0.00000000000097790 -0.00000000000000011 0.00000000000000039 1.00000000000000000 
1 -557.00000000000102318 5582.00050000000101136 -0.00000000000099317 -0.00000000000000011 0.00000000000000039 1.00000000000000000 
1 -697.00000000000102318 5582.00050000000101136 -0.00000000000100094 -0.00000000000000011 0.00000000000000039 1.00000000000000000 
Polygon3D 0
PolygonOnTriangulations 0
Surfaces 19
1 -802.00000000000022737 5872.00050000000101136 -0.00000000000278577 0.00000000000000044 1.00000000000000000 -0.00000000000000028 1.00000000000000000 -0.00000000000000044 0.00000000000000022 0.00000000000000022 -0.00000000000000028 -1.00000000000000000 
1 -802.00000000000022737 5622.00050000000101136 -0.00000000000267475 -1.00000000000000000 0.00000000000000022 -0.00000000000000044 0.00000000000000022 1.00000000000000000 -0.00000000000000044 0.00000000000000044 -0.00000000000000044 -1.00000000000000000 
1 -0.00000000000133982 -287.00000000000000000 5747.00050000000010186 -1.00000000000000000 0.00000000000000022 -0.00000000000000022 -0.00000000000000022 -1.00000000000000000 0.00000000000000000 -0.00000000000000022 0.00000000000000000 1.00000000000000000 
1 228.00000000000005684 5622.00050000000101136 -0.00000000000244604 -0.00000000000000044 -1.00000000000000000 0.00000000000000028 -1.00000000000000000 0.00000000000000044 -0.00000000000000022 0.00000000000000022 -0.00000000000000028 -1.00000000000000000 
1 228.00000000000011369 5872.00050000000101136 -0.00000000000255707 1.00000000000000000 -0.00000000000000022 0.00000000000000044 -0.00000000000000022 -1.00000000000000000 0.00000000000000044 0.00000000000000044 -0.00000000000000044 -1.00000000000000000 
1 167.99999999999849365 5622.00050000000101136 -0.00000000000121405 -0.00000000000000000 -1.00000000000000000 0.00000000000000028 -1.00000000000000000 -0.00000000000000000 -0.00000000000000028 0.00000000000000028 -0.00000000000000028 -1.00000000000000000 
1 -0.00000000000123891 57.99999999999818101 5582.00050000000101136 1.00000000000000000 -0.00000000000000022 0.00000000000000022 0.00000000000000022 1.00000000000000000 0.00000000000000000 -0.00000000000000022 0.00000000000000000 1.00000000000000000 
1 -742.00000000000102318 5622.00050000000101136 -0.00000000000101676 -0.00000000000000011 1.00000000000000000 -0.00000000000000039 1.00000000000000000 0.00000000000000011 0.00000000000000006 0.00000000000000006 -0.00000000000000039 -1.00000000000000000 
1 -0.00000000000096225 -632.00000000000125056 5582.00050000000101136 -1.00000000000000000 -0.00000000000000000 -0.00000000000000033 0.00000000000000033 0.00000000000000000 -1.00000000000000000 0.00000000000000000 -1.00000000000000000 0.00000000000000000 
1 -742.00000000000102318 5542.00050000000101136 -0.00000000000099011 -1.00000000000000000 -0.00000000000000006 -0.00000000000000011 -0.00000000000000006 1.00000000000000000 -0.00000000000000033 0.00000000000000011 -0.00000000000000033 -1.00000000000000000 
1 167.99999999999849365 5542.00050000000101136 -0.00000000000119628 -1.00000000000000000 0.00000000000000006 -0.00000000000000022 0.00000000000000006 1.00000000000000000 -0.00000000000000022 0.00000000000000022 -0.00000000000000022 -1.00000000000000000 
1 -52.00000000000151346 5622.00050000000101136 -0.00000000000127511 1.00000000000000000 -0.00000000000000006 0.00000000000000022 -0.00000000000000006 -1.00000000000000000 0.00000000000000022 0.00000000000000022 -0.00000000000000022 -1.00000000000000000 
2 -12.00000000000151701 5582.00050000000101136 -0.00000000000125512 0.00000000000000028 -0.00000000000000022 -1.00000000000000000 1.00000000000000000 0.00000000000000000 0.00000000000000028 -0.00000000000000000 -1.00000000000000000 0.00000000000000022 5.00000000000000000
2 127.99999999999849365 5582.00050000000101136 -0.00000000000121627 0.00000000000000028 -0.00000000000000022 -1.00000000000000000 1.00000000000000000 0.00000000000000000 0.00000000000000028 -0.00000000000000000 -1.00000000000000000 0.00000000000000022 5.00000000000000000
1 -522.00000000000102318 5622.00050000000101136 -0.00000000000100455 1.00000000000000000 0.00000000000000006 0.00000000000000011 0.00000000000000006 -1.00000000000000000 0.00000000000000033 0.00000000000000011 -0.00000000000000033 -1.00000000000000000 
2 -562.00000000000102318 5582.00050000000101136 -0.00000000000099344 0.00000000000000006 -0.00000000000000033 -1.00000000000000000 1.00000000000000000 0.00000000000000011 0.00000000000000006 0.00000000000000011 -1.00000000000000000 0.00000000000000033 5.00000000000000000
2 -702.00000000000102318 5582.00050000000101136 -0.00000000000100122 0.00000000000000006 -0.00000000000000033 -1.00000000000000000 1.00000000000000000 0.00000000000000011 0.00000000000000006 0.00000000000000011 -1.00000000000000000 0.00000000000000033 5.00000000000000000
1 -52.00000000000152056 5542.00050000000101136 -0.00000000000125734 0.00000000000000000 1.00000000000000000 -0.00000000000000028 1.00000000000000000 0.00000000000000000 0.00000000000000028 0.00000000000000028 -0.00000000000000028 -1.00000000000000000 
1 -522.00000000000102318 5542.00050000000101136 -0.00000000000097790 0.00000000000000011 -1.00000000000000000 0.00000000000000039 -1.00000000000000000 -0.00000000000000011 -0.00000000000000006 0.00000000000000006 -0.00000000000000039 -1.00000000000000000 
Triangulations 0

TShapes 99
Ve
0.000000100000000
-802.000000000001251 5872.000500000000102 0.000000000000000
0 0

0101101
*
Ed
 0.000000100000000 1 1 0
1  1 0 0.000000000000000 15.000000000000000
2  1 2 0 0.000000000000000 15.000000000000000
0

0101000
+99 10 -99 12 *
Ve
0.000000100000000
227.999999999998749 5872.000500000000102 0.000000000000000
0 0

0101101
*
Ed
 0.000000100000000 1 1 0
1  2 0 0.000000000000000 15.000000000000000
0

0101000
+97 10 -97 12 *
Ed
 0.000000100000000 1 1 0
1  3 0 0.000000000000000 1030.000000000000000
2  2 3 13 0.000000000000000 1030.000000000000000
0

0101000
+99 0 -97 0 *
Wi

0101100
+98 0 -96 0 -95 10 +95 12 *
Fa
0  0.000000100000000 1 0

0111000
+94 0 *
Ve
0.000000100000000
-802.000000000001251 5622.000500000000102 0.000000000000000
0 0

0101101
*
Ed
 0.000000100000000 1 1 0
1  4 0 0.000000000000000 15.000000000000000
2  3 4 0 0.000000000000000 15.000000000000000
2  4 2 0 0.000000000000000 15.000000000000000
0

0101000
+92 10 -92 12 *
Ed
 0.000000100000000 1 1 0
1  5 0 0.000000000000000 250.000000000000000
2  5 3 13 0.000000000000000 250.000000000000000
2  6 2 14 0.000000000000000 250.000000000000000
2  7 2 15 0.000000000000000 250.000000000000000
0

0101000
+92 0 -99 0 *
Wi

0101100
+91 0 -98 0 -90 10 +90 12 *
Fa
0  0.000000100000000 2 0

0111000
+89 0 *
Ve
0.000000100000000
227.999999999998749 5622.000500000000102 0.000000000000000
0 0

0101101
*
Ed
 0.000000100000000 1 1 0
1  6 0 0.000000000000000 15.000000000000000
2  8 4 0 0.000000000000000 15.000000000000000
0

0101000
+87 10 -87 12 *
Ed
 0.000000100000000 1 1 0
1  7 0 0.000000000000000 250.000000000000000
2  9 3 13 0.000000000000000 250.000000000000000
0

0101000
+97 0 -87 0 *
Wi

0101100
+96 0 -86 0 -85 10 +85 12 *
Fa
0  0.000000100000000 5 0

0111000
+84 0 *
Ve
0.000000100001561
167.999999999998181 -5622.000500000001011 0.000000000000000
0 0

0101101
*
Ed
 0.000000100000000 1 1 0
1  8 0 0.000000000000000 60.000000000000881
2  10 3 13 0.000000000000000 60.000000000000881
2  11 4 14 0.000000000000000 60.000000000000881
2  12 4 15 0.000000000000000 60.000000000000881
0

0101000
+87 0 -82 20 *
Ve
0.000000100001562
-52.000000000001819 -5622.000500000001011 0.000000000000000
0 0

0101101
*
Ed
 0.000000100001561 1 1 0
1  9 0 0.000000000000000 220.000000000000000
2  13 6 22 0.000000000000000 220.000000000000000
2  14 6 24 0.000000000000000 220.000000000000000
2  15 7 25 0.000000000000000 220.000000000000000
2  16 4 26 0.000000000000000 220.000000000000000
2  17 4 27 0.000000000000000 220.000000000000000
2  18 3 28 0.000000000000000 220.000000000000000
2  19 3 29 0.000000000000000 220.000000000000000
0

0101000
+82 0 -80 0 *
Ve
0.000000100001334
-522.000000000000682 -5622.000500000001011 0.000000000000000
0 0

0101101
*
Ed
 0.000000100000000 1 1 0
1  8 0 280.000000000000909 750.000000000000114
2  10 3 13 280.000000000000909 750.000000000000114
2  11 4 14 280.000000000000909 750.000000000000114
2  12 4 15 280.000000000000909 750.000000000000114
0

0101000
+80 20 -78 32 *
Ve
0.000000100001334
-742.000000000000682 -5622.000500000001011 0.000000000000000
0 0

0101101
*
Ed
 0.000000100001334 1 1 0
1  10 0 0.000000000000000 220.000000000000000
2  20 8 34 0.000000000000000 220.000000000000000
2  21 8 36 0.000000000000000 220.000000000000000
2  22 9 37 0.000000000000000 220.000000000000000
2  23 4 38 0.000000000000000 220.000000000000000
2  24 4 39 0.000000000000000 220.000000000000000
2  25 3 40 0.000000000000000 220.000000000000000
2  26 3 41 0.000000000000000 220.000000000000000
0

0101000
+76 0 -78 0 *
Ed
 0.000000100000000 1 1 0
1  8 0 970.000000000000114 1030.000000000000000
2  10 3 13 970.000000000000114 1030.000000000000000
2  11 4 14 970.000000000000114 1030.000000000000000
2  12 4 15 970.000000000000114 1030.000000000000000
0

0101000
+76 32 -92 0 *
Wi

0101100
+95 17 +85 17 +81 17 +79 21 +77 17 -75 33 +74 17 +90 17 *
Fa
0  0.000000100000000 3 16

0111000
+73 0 *
Ed
 0.000000100000000 1 1 0
1  8 0 0.000000000000000 60.000000000000881
2  10 3 13 0.000000000000000 60.000000000000881
2  11 4 14 0.000000000000000 60.000000000000881
2  12 4 15 0.000000000000000 60.000000000000881
0

0101000
+87 0 -82 44 *
Ed
 0.000000100000000 1 1 0
1  8 0 280.000000000000909 750.000000000000114
2  10 3 13 280.000000000000909 750.000000000000114
2  11 4 14 280.000000000000909 750.000000000000114
2  12 4 15 280.000000000000909 750.000000000000114
0

0101000
+80 44 -78 46 *
Ed
 0.000000100000000 1 1 0
1  8 0 970.000000000000114 1030.000000000000000
2  10 3 13 970.000000000000114 1030.000000000000000
2  11 4 14 970.000000000000114 1030.000000000000000
2  12 4 15 970.000000000000114 1030.000000000000000
0

0101000
+76 46 -92 0 *
Wi

0101100
+95 43 +85 43 +71 43 +79 45 +70 43 -75 47 +69 43 +90 43 *
Fa
0  0.000000100000000 3 42

0111000
+68 0 *
Ed
 0.000000100000909 1 1 0
1  11 0 0.000000000000000 15.000000000000000
2  27 8 0 0.000000000000000 15.000000000000000
2  28 10 0 0.000000000000000 15.000000000000000
2  29 4 49 0.000000000000000 15.000000000000000
0

0101000
+76 52 -76 53 *
Wi

0101100
-74 50 -91 49 +69 51 +66 0 *
Fa
0  0.000000100000000 4 49

0111000
+65 0 *
Ed
 0.000000100000000 1 1 0
1  12 0 0.000000000000000 15.000000000000000
2  30 11 0 0.000000000000000 15.000000000000000
2  31 6 0 0.000000000000000 15.000000000000000
2  32 4 6 0.000000000000000 15.000000000000000
0

0101000
+82 21 -82 45 *
Wi

0101100
-81 17 -63 0 +71 43 +86 6 *
Fa
0  0.000000100000000 4 6

0111000
+62 0 *
Ve
0.000000100000000
-52.000000000001826 -5542.000500000001011 0.000000000000000
0 0

0101101
*
Ve
0.000000100000000
167.999999999998181 -5542.000500000001011 0.000000000000000
0 0

0101101
*
Ed
 0.000000100000000 1 1 0
1  13 0 0.000000000000000 220.000000000000000
2  33 7 25 0.000000000000000 220.000000000000000
0

0101000
+60 0 -59 0 *
Ed
 0.000000100000000 1 1 0
1  14 0 0.000000000000000 80.000000000000000
2  34 11 22 0.000000000000000 80.000000000000000
2  35 11 24 0.000000000000000 80.000000000000000
2  36 7 25 0.000000000000000 80.000000000000000
0

0101000
+59 0 -82 0 *
Ed
 0.000000100000000 1 1 0
1  15 0 0.000000000000000 80.000000000000000
2  37 12 22 0.000000000000000 80.000000000000000
2  38 12 24 0.000000000000000 80.000000000000000
2  39 7 25 0.000000000000000 80.000000000000000
0

0101000
+80 0 -60 0 *
Wi

0101100
+58 55 +57 55 +79 55 +56 55 *
Ve
0.000000100000000
-7.000000000001826 -5582.000500000001011 0.000000000000000
0 0

0101101
*
Ed
 0.000000100000000 1 1 0
1  16 0 0.000000000000000 6.283185307179586
2  40 13 22 0.000000000000000 6.283185307179586
2  41 13 24 0.000000000000000 6.283185307179586
2  42 7 25 0.000000000000000 6.283185307179586
0

0101000
+54 0 -54 0 *
Wi

0101100
+53 55 *
Ve
0.000000100000000
132.999999999998181 -5582.000500000001011 0.000000000000000
0 0

0101101
*
Ed
 0.000000100000000 1 1 0
1  17 0 0.000000000000000 6.283185307179586
2  43 14 22 0.000000000000000 6.283185307179586
2  44 14 24 0.000000000000000 6.283185307179586
2  45 7 25 0.000000000000000 6.283185307179586
0

0101000
+51 0 -51 0 *
Wi

0101100
+50 55 *
Fa
0  0.000000100000000 7 0

0111000
+55 0 +52 0 +49 0 *
Ed
 0.000000100000000 1 1 0
1  18 0 0.000000000000000 15.000000000000000
2  46 8 0 0.000000000000000 15.000000000000000
2  47 15 0 0.000000000000000 15.000000000000000
2  48 4 49 0.000000000000000 15.000000000000000
0

0101000
+78 52 -78 53 *
Ed
 0.000000100000004 1 1 0
1  19 0 0.000000000000000 15.000000000000000
2  49 6 0 0.000000000000000 15.000000000000000
2  50 12 0 0.000000000000000 15.000000000000000
2  51 4 6 0.000000000000000 15.000000000000000
0

0101000
+80 21 -80 45 *
Wi

0101100
-77 17 -47 48 +70 43 +46 0 *
Fa
0  0.000000100000000 4 6

0111000
+45 0 *
Ve
0.000000100000000
-522.000000000000682 -5542.000500000001011 0.000000000000000
0 0

0101101
*
Ed
 0.000000100000000 1 1 0
1  20 0 0.000000000000000 80.000000000000000
2  52 15 34 0.000000000000000 80.000000000000000
2  53 15 36 0.000000000000000 80.000000000000000
2  54 9 37 0.000000000000000 80.000000000000000
0

0101000
+78 0 -43 0 *
Ve
0.000000100000000
-742.000000000000682 -5542.000500000001011 0.000000000000000
0 0

0101101
*
Ed
 0.000000100000000 1 1 0
1  21 0 0.000000000000000 220.000000000000000
2  55 9 37 0.000000000000000 220.000000000000000
0

0101000
+43 0 -41 0 *
Ed
 0.000000100000000 1 1 0
1  22 0 0.000000000000000 80.000000000000000
2  56 10 34 0.000000000000000 80.000000000000000
2  57 10 36 0.000000000000000 80.000000000000000
2  58 9 37 0.000000000000000 80.000000000000000
0

0101000
+41 0 -76 0 *
Wi

0101100
+75 57 +42 57 +40 57 +39 57 *
Ve
0.000000100000000
-557.000000000000682 -5582.000500000001011 0.000000000000000
0 0

0101101
*
Ed
 0.000000100000000 1 1 0
1  23 0 0.000000000000000 6.283185307179586
2  59 16 34 0.000000000000000 6.283185307179586
2  60 16 36 0.000000000000000 6.283185307179586
2  61 9 37 0.000000000000000 6.283185307179586
0

0101000
+37 0 -37 0 *
Wi

0101100
-36 57 *
Ve
0.000000100000000
-697.000000000000682 -5582.000500000001011 0.000000000000000
0 0

0101101
*
Ed
 0.000000100000000 1 1 0
1  24 0 0.000000000000000 6.283185307179586
2  62 17 34 0.000000000000000 6.283185307179586
2  63 17 36 0.000000000000000 6.283185307179586
2  64 9 37 0.000000000000000 6.283185307179586
0

0101000
+34 0 -34 0 *
Wi

0101100
-33 57 *
Fa
0  0.000000100000000 9 0

0111000
+38 0 +35 0 +32 0 *
Ed
 0.000000100000000 1 1 0
1  25 0 0.000000000000000 15.000000000000000
2  65 10 0 0.000000000000000 15.000000000000000
0

0101000
+41 52 -41 53 *
Wi

0101100
+30 0 -66 0 -39 52 +39 53 *
Fa
0  0.000000100000000 10 0

0111000
+29 0 *
Ed
 0.000000100000000 1 1 0
1  26 0 0.000000000000000 15.000000000000000
2  66 11 0 0.000000000000000 15.000000000000000
0

0101000
+59 21 -59 45 *
Wi

0101100
+27 0 -63 0 -57 21 +57 45 *
Fa
0  0.000000100000000 11 0

0111000
+26 0 *
Ed
 0.000000100000000 1 1 0
1  27 0 0.000000000000000 15.000000000000000
2  67 12 0 0.000000000000000 15.000000000000000
0

0101000
+60 21 -60 45 *
Wi

0101100
+24 0 -27 0 -58 21 +58 45 *
Fa
0  0.000000100000000 18 0

0111000
+23 0 *
Wi

0101100
+46 0 -24 0 -56 21 +56 45 *
Fa
0  0.000000100000000 12 0

0111000
+21 0 *
Ed
 0.000000100000000 1 1 0
1  28 0 0.000000000000000 15.000000000000000
3  68 69CN 13 0 0.000000000000000 15.000000000000000
0

0101000
+54 21 -54 45 *
Wi

0101100
+19 0 -19 0 -53 21 +53 45 *
Fa
0  0.000000100000000 13 0

0111000
+18 0 *
Ed
 0.000000100000000 1 1 0
1  29 0 0.000000000000000 15.000000000000000
3  70 71CN 14 0 0.000000000000000 15.000000000000000
0

0101000
+51 21 -51 45 *
Wi

0101100
+16 0 -16 0 -50 21 +50 45 *
Fa
0  0.000000100000000 14 0

0111000
+15 0 *
Ed
 0.000000100000000 1 1 0
1  30 0 0.000000000000000 15.000000000000000
2  72 15 0 0.000000000000000 15.000000000000000
0

0101000
+43 52 -43 53 *
Wi

0101100
+47 0 -13 0 -42 52 +42 53 *
Fa
0  0.000000100000000 15 0

0111000
+12 0 *
Wi

0101100
+13 0 -30 0 -40 52 +40 53 *
Fa
0  0.000000100000000 19 0

0111000
+10 0 *
Ed
 0.000000100000000 1 1 0
1  31 0 0.000000000000000 15.000000000000000
3  73 74CN 16 0 0.000000000000000 15.000000000000000
0

0101000
+37 52 -37 53 *
Wi

0101100
+8 0 -8 0 -36 52 +36 53 *
Fa
0  0.000000100000000 16 0

0111000
+7 0 *
Ed
 0.000000100000000 1 1 0
1  32 0 0.000000000000000 15.000000000000000
3  75 76CN 17 0 0.000000000000000 15.000000000000000
0

0101000
+34 52 -34 53 *
Wi

0101100
+5 0 -5 0 -33 52 +33 53 *
Fa
0  0.000000100000000 17 0

0111000
+4 0 *
Sh

0101100
+93 6 +88 6 +83 6 +72 0 -67 0 +64 48 +61 0 -48 54 +44 0 +31 56 
+48 58 -31 59 +28 48 -25 0 -22 0 -20 0 -17 0 -14 0 +11 48 +9 48 
-6 48 -3 48 *
So

0100000
+2 0 *

+1 1 