
CASCADE Topology V1, (c) Matra-Datavision
Locations 24
1
1.000000000000000 0.000000000000000 0.000000000000000 27.000000000000000 
0.000000000000000 1.000000000000000 0.000000000000000 0.000000000000000 
0.000000000000000 0.000000000000000 1.000000000000000 0.000000000000000 
1
0.000000000000000 0.000000000000000 1.000000000000000 0.000000000000000 
1.000000000000000 0.000000000000000 0.000000000000000 0.000000000000000 
0.000000000000000 1.000000000000000 0.000000000000000 0.000000000000000 
1
0.000000000000000 0.000000000000000 1.000000000000000 0.000000000000000 
1.000000000000000 0.000000000000000 0.000000000000000 0.000000000000000 
0.000000000000000 1.000000000000000 0.000000000000000 0.000000000000000 
2  2 1 3 -1 0
1
0.000000000000000 0.000000000000000 1.000000000000000 0.000000000000000 
1.000000000000000 0.000000000000000 0.000000000000000 0.000000000000000 
0.000000000000000 1.000000000000000 0.000000000000000 0.000000000000000 
2  5 -1 3 1 2 -1 0
1
1.000000000000000 0.000000000000000 0.000000000000000 0.000000000000000 
0.000000000000000 1.000000000000000 0.000000000000000 0.000000000000000 
0.000000000000000 0.000000000000000 1.000000000000000 0.000000000000000 
1
0.000000000000000 -0.000000000000000 1.000000000000000 0.000000000000000 
1.000000000000000 0.000000000000000 -0.000000000000000 0.000000000000000 
-0.000000000000000 1.000000000000000 0.000000000000000 0.000000000000000 
1
-0.000000000000000 0.000000000000000 1.000000000000000 0.000000000000000 
1.000000000000000 -0.000000000000000 0.000000000000000 0.000000000000000 
0.000000000000000 1.000000000000000 -0.000000000000000 0.000000000000000 
2  7 1 8 1 9 -1 0
2  5 -1 3 1 2 -1 9 1 8 -1 7 -1 0
1
1.000000000000000 0.000000000000000 0.000000000000000 0.000000000000007 
0.000000000000000 1.000000000000000 0.000000000000000 -0.000000000000004 
0.000000000000000 0.000000000000000 1.000000000000000 -15.000000000000000 
2  7 1 8 1 9 -1 12 1 0
2  5 -1 3 1 2 -1 12 -1 9 1 8 -1 7 -1 0
2  9 -1 2 1 3 -1 0
2  7 1 8 1 9 -1 2 1 3 -1 0
1
1.000000000000000 0.000000000000000 0.000000000000000 0.000000000000000 
0.000000000000000 1.000000000000000 0.000000000000000 0.000000000000000 
0.000000000000000 0.000000000000000 1.000000000000000 0.000000000000000 
1
0.000000000000000 -0.000000000000000 1.000000000000000 0.000000000000383 
1.000000000000000 -0.000000000000000 -0.000000000000000 -0.000000000000000 
0.000000000000000 1.000000000000000 0.000000000000000 0.000000000000000 
2  17 1 18 1 3 -1 0
2  3 1 18 -1 17 -1 0
2  5 -1 3 1 18 -1 17 -1 0
2  9 -1 12 1 2 1 3 -1 0
2  7 1 8 1 9 -1 12 1 2 1 3 -1 0
2  5 -1 0
Curve2ds 16
1 0.00000000000000000 0.00000000000000000 1.00000000000000000 0.00000000000000000 
1 0.00000000000000000 0.00000000000000000 1.00000000000000000 0.00000000000000000 
1 0.00000000000000000 0.00000000000000000 1.00000000000000000 0.00000000000000000 
1 0.00000000000000000 0.00000000000000000 1.00000000000000000 0.00000000000000000 
1 0.00000000000000000 -15.00000000000020073 1.00000000000000000 0.00000000000000000 
1 0.00000000000000000 -15.00000000000021672 1.00000000000000000 0.00000000000000000 
1 0.00000000000000000 -15.00000000000035172 1.00000000000000000 0.00000000000000000 
1 0.00000000000000000 -15.00000000000036771 1.00000000000000000 0.00000000000000000 
1 0.00000000000000000 0.00000000000000000 0.00000000000000000 -1.00000000000000000 
1 6.28318530717958623 0.00000000000000000 0.00000000000000000 -1.00000000000000000 
1 0.00000000000000000 0.00000000000000000 0.00000000000000000 -1.00000000000000000 
1 6.28318530717958623 0.00000000000000000 0.00000000000000000 -1.00000000000000000 
1 0.00000000000000000 0.00000000000000000 0.00000000000000000 -1.00000000000000000 
1 6.28318530717958623 0.00000000000000000 0.00000000000000000 -1.00000000000000000 
1 0.00000000000000000 0.00000000000000000 0.00000000000000000 -1.00000000000000000 
1 6.28318530717958623 0.00000000000000000 0.00000000000000000 -1.00000000000000000 
Curves 24
1 -0.00000000000089745 78.00000000000092371 2772.50000000000000000 -1.00000000000000000 0.00000000000000033 -0.00000000000000039 
1 -0.00000000000154227 -1857.99999999999909051 2772.50000000000090949 -1.00000000000000000 0.00000000000000033 -0.00000000000000039 
1 0.00000000000031647 78.00000000000029843 2772.49999999999954525 -0.00000000000000011 -1.00000000000000000 -0.00000000000000011 
1 -14.99999999999968558 78.00000000000031264 2787.49999999999954525 -0.00000000000000011 -1.00000000000000000 -0.00000000000000011 
1 -0.00000000000081419 78.00000000000083844 2522.50000000000000000 -1.00000000000000000 0.00000000000000033 -0.00000000000000039 
1 0.00000000000028871 78.00000000000027001 2522.49999999999954525 0.00000000000000011 0.00000000000000011 1.00000000000000000 
1 -14.99999999999971223 78.00000000000028422 2537.49999999999954525 0.00000000000000011 0.00000000000000011 1.00000000000000000 
1 -0.00000000000145900 -1857.99999999999931788 2522.50000000000090949 -1.00000000000000000 0.00000000000000033 -0.00000000000000039 
1 0.00000000000010153 -1857.99999999999931788 2772.49999999999954525 -0.00000000000000011 -0.00000000000000011 -1.00000000000000000 
1 -14.99999999999990052 -1857.99999999999931788 2787.49999999999954525 -0.00000000000000011 -0.00000000000000011 -1.00000000000000000 
1 0.00000000000007377 -1857.99999999999931788 2522.49999999999954525 0.00000000000000011 1.00000000000000000 0.00000000000000011 
2 -0.00000000000021751 -122.00000000000078160 2582.49999999999954525 1.00000000000000000 -0.00000000000000022 0.00000000000000022 0.00000000000000022 1.00000000000000000 0.00000000000000056 -0.00000000000000022 -0.00000000000000033 1.00000000000000000 5.00000000000000000
2 -0.00000000000025081 -272.00000000000073896 2582.49999999999954525 1.00000000000000000 -0.00000000000000022 0.00000000000000022 0.00000000000000022 1.00000000000000000 0.00000000000000056 -0.00000000000000022 -0.00000000000000033 1.00000000000000000 5.00000000000000000
2 -0.00000000000052526 -1508.00000000000068212 2582.49999999999863576 1.00000000000000000 -0.00000000000000022 0.00000000000000022 0.00000000000000022 1.00000000000000000 0.00000000000000056 -0.00000000000000022 -0.00000000000000033 1.00000000000000000 5.00000000000000000
2 -0.00000000000055857 -1658.00000000000045475 2582.49999999999863576 1.00000000000000000 -0.00000000000000022 0.00000000000000022 0.00000000000000022 1.00000000000000000 0.00000000000000056 -0.00000000000000022 -0.00000000000000033 1.00000000000000000 5.00000000000000000
1 -14.99999999999992717 -1857.99999999999931788 2537.49999999999954525 0.00000000000000011 1.00000000000000000 0.00000000000000011 
2 -15.00000000000069100 -121.99999999999992895 2582.50000000000000000 1.00000000000000000 -0.00000000000000011 0.00000000000000033 0.00000000000000011 1.00000000000000000 0.00000000000000011 -0.00000000000000033 -0.00000000000000011 1.00000000000000000 5.00000000000000000
2 -15.00000000000072475 -271.99999999999988631 2582.50000000000000000 1.00000000000000000 -0.00000000000000011 0.00000000000000033 0.00000000000000011 1.00000000000000000 0.00000000000000011 -0.00000000000000033 -0.00000000000000011 1.00000000000000000 5.00000000000000000
2 -15.00000000000099654 -1507.99999999999977263 2582.50000000000000000 1.00000000000000000 -0.00000000000000011 0.00000000000000033 0.00000000000000011 1.00000000000000000 0.00000000000000011 -0.00000000000000033 -0.00000000000000011 1.00000000000000000 5.00000000000000000
2 -15.00000000000102851 -1657.99999999999977263 2582.50000000000000000 1.00000000000000000 -0.00000000000000011 0.00000000000000033 0.00000000000000011 1.00000000000000000 0.00000000000000011 -0.00000000000000033 -0.00000000000000011 1.00000000000000000 5.00000000000000000
1 -0.00000000000049012 -116.99999999999992895 2582.50000000000000000 -1.00000000000000000 0.00000000000000011 -0.00000000000000044 
1 -0.00000000000050677 -266.99999999999988631 2582.50000000000000000 -1.00000000000000000 0.00000000000000011 -0.00000000000000044 
1 -0.00000000000064400 -1502.99999999999977263 2582.50000000000000000 -1.00000000000000000 0.00000000000000011 -0.00000000000000044 
1 -0.00000000000066065 -1652.99999999999977263 2582.50000000000000000 -1.00000000000000000 0.00000000000000011 -0.00000000000000044 
Polygon3D 0
PolygonOnTriangulations 0
Surfaces 10
1 -0.00000000000089745 78.00000000000092371 2772.50000000000000000 -0.00000000000000017 0.00000000000000055 1.00000000000000000 -0.00000000000000033 -1.00000000000000000 0.00000000000000033 1.00000000000000000 -0.00000000000000011 0.00000000000000039 
1 -0.00000000000081419 78.00000000000083844 2522.50000000000000000 0.00000000000000055 1.00000000000000000 -0.00000000000000011 -0.00000000000000033 0.00000000000000033 1.00000000000000000 1.00000000000000000 -0.00000000000000033 0.00000000000000055 
1 -0.00000000000154227 -1857.99999999999909051 2772.50000000000090949 -0.00000000000000055 -1.00000000000000000 0.00000000000000011 0.00000000000000033 -0.00000000000000033 -1.00000000000000000 1.00000000000000000 -0.00000000000000033 0.00000000000000055 
1 2647.49999999999954525 -0.00000000000059036 -889.99999999999886313 0.00000000000000033 1.00000000000000000 -0.00000000000000011 1.00000000000000000 -0.00000000000000011 0.00000000000000011 -0.00000000000000011 -0.00000000000000033 -1.00000000000000000 
2 -0.00000000000049068 -121.99999999999992895 2582.50000000000000000 1.00000000000000000 -0.00000000000000011 0.00000000000000033 0.00000000000000011 1.00000000000000000 0.00000000000000011 -0.00000000000000033 0.00000000000000000 1.00000000000000000 5.00000000000000000
2 -0.00000000000050733 -271.99999999999988631 2582.50000000000000000 1.00000000000000000 -0.00000000000000011 0.00000000000000033 0.00000000000000011 1.00000000000000000 0.00000000000000011 -0.00000000000000033 0.00000000000000000 1.00000000000000000 5.00000000000000000
2 -0.00000000000064455 -1507.99999999999977263 2582.50000000000000000 1.00000000000000000 -0.00000000000000011 0.00000000000000033 0.00000000000000011 1.00000000000000000 0.00000000000000011 -0.00000000000000033 0.00000000000000000 1.00000000000000000 5.00000000000000000
2 -0.00000000000066121 -1657.99999999999977263 2582.50000000000000000 1.00000000000000000 -0.00000000000000011 0.00000000000000033 0.00000000000000011 1.00000000000000000 0.00000000000000011 -0.00000000000000033 0.00000000000000000 1.00000000000000000 5.00000000000000000
1 2662.49999999999954525 -15.00000000000059153 -889.99999999999886313 0.00000000000000033 1.00000000000000000 -0.00000000000000011 1.00000000000000000 -0.00000000000000011 0.00000000000000011 -0.00000000000000011 -0.00000000000000033 -1.00000000000000000 
1 -0.00000000000145900 -1857.99999999999931788 2522.50000000000090949 0.00000000000000017 -0.00000000000000055 -1.00000000000000000 0.00000000000000033 1.00000000000000000 -0.00000000000000033 1.00000000000000000 -0.00000000000000011 0.00000000000000039 
Triangulations 0

TShapes 70
Ve
0.000000100000000
2772.499999999999545 0.000000000000009 78.000000000000298
0 0

0101101
*
Ve
0.000000100000000
2772.499999999999545 -14.999999999999989 78.000000000000298
0 0

0101101
*
Ed
 0.000000100000000 1 1 0
1  1 0 0.000000000000000 15.000000000000000
0

0101000
+70 6 -69 6 *
Ve
0.000000100000000
2772.499999999999545 -0.000000000000206 -1857.999999999999545
0 0

0101101
*
Ve
0.000000100000000
2772.499999999999545 -15.000000000000204 -1857.999999999999545
0 0

0101101
*
Ed
 0.000000100000000 1 1 0
1  2 0 0.000000000000000 15.000000000000000
0

0101000
+67 6 -66 6 *
Ed
 0.000000100000000 1 1 0
1  3 0 0.000000000000000 1936.000000000000000
0

0101000
+70 11 -67 11 *
Ed
 0.000000100000000 1 1 0
1  4 0 0.000000000000000 1936.000000000000000
0

0101000
+69 14 -66 14 *
Wi

0101100
+68 0 -65 0 -64 10 +63 13 *
Fa
0  0.000000100000000 1 0

0111000
+62 0 *
Ve
0.000000100000000
2522.499999999999545 0.000000000000009 78.000000000000270
0 0

0101101
*
Ve
0.000000100000000
2522.499999999999545 -14.999999999999989 78.000000000000270
0 0

0101101
*
Ed
 0.000000100000000 1 1 0
1  5 0 0.000000000000000 15.000000000000000
0

0101000
+60 6 -59 6 *
Ed
 0.000000100000000 1 1 0
1  6 0 0.000000000000000 250.000000000000000
0

0101000
+60 11 -70 11 *
Ed
 0.000000100000000 1 1 0
1  7 0 0.000000000000000 250.000000000000000
0

0101000
+59 14 -69 14 *
Wi

0101100
+58 0 -68 0 -57 10 +56 13 *
Fa
0  0.000000100000000 2 0

0111000
+55 0 *
Ve
0.000000100000000
2522.499999999999545 -0.000000000000206 -1857.999999999999545
0 0

0101101
*
Ve
0.000000100000000
2522.499999999999545 -15.000000000000204 -1857.999999999999545
0 0

0101101
*
Ed
 0.000000100000000 1 1 0
1  8 0 0.000000000000000 15.000000000000000
0

0101000
+53 6 -52 6 *
Ed
 0.000000100000000 1 1 0
1  9 0 0.000000000000000 250.000000000000000
0

0101000
+67 11 -53 11 *
Ed
 0.000000100000000 1 1 0
1  10 0 0.000000000000000 250.000000000000000
0

0101000
+66 14 -52 14 *
Wi

0101100
+65 0 -51 0 -50 10 +49 13 *
Fa
0  0.000000100000000 3 0

0111000
+48 0 *
Ed
 0.000000100000000 1 1 0
1  11 0 0.000000000000000 1936.000000000000000
0

0101000
+53 11 -60 11 *
Wi

0101100
+64 16 +57 16 +50 16 +46 16 *
Ve
0.000000100000204
2582.500000000000000 -0.000000000000490 -116.999999999999929
0 0

0101101
*
Ed
 0.000000100000204 1 1 0
1  12 0 0.000000000000000 6.283185307179586
2  1 5 20 0.000000000000000 6.283185307179586
0

0101100
+44 21 -44 21 *
Wi

0101100
-43 19 *
Ve
0.000000100000220
2582.500000000000000 -0.000000000000507 -266.999999999999886
0 0

0101101
*
Ed
 0.000000100000220 1 1 0
1  13 0 0.000000000000000 6.283185307179586
2  2 6 20 0.000000000000000 6.283185307179586
0

0101100
+41 21 -41 21 *
Wi

0101100
-40 19 *
Ve
0.000000100000355
2582.500000000000000 -0.000000000000644 -1502.999999999999773
0 0

0101101
*
Ed
 0.000000100000355 1 1 0
1  14 0 0.000000000000000 6.283185307179586
2  3 7 20 0.000000000000000 6.283185307179586
0

0101100
+38 21 -38 21 *
Wi

0101100
-37 19 *
Ve
0.000000100000371
2582.500000000000000 -0.000000000000661 -1652.999999999999773
0 0

0101101
*
Ed
 0.000000100000371 1 1 0
1  15 0 0.000000000000000 6.283185307179586
2  4 8 20 0.000000000000000 6.283185307179586
0

0101100
+35 21 -35 21 *
Wi

0101100
-34 19 *
Fa
0  0.000000100000000 4 15

0111000
+45 0 +42 0 +39 0 +36 0 +33 0 *
Ed
 0.000000100000000 1 1 0
1  16 0 0.000000000000000 1936.000000000000000
0

0101000
+52 14 -59 14 *
Wi

0101100
+63 23 +56 23 +49 23 +31 23 *
Ve
0.000000100000000
2582.500000000000000 -15.000000000000691 -116.999999999999929
0 0

0101101
*
Ed
 0.000000100000000 1 1 0
1  17 0 0.000000000000000 6.283185307179586
2  5 5 0 0.000000000000000 6.283185307179586
0

0101100
+29 24 -29 24 *
Wi

0101100
-28 0 *
Ve
0.000000100000062
2582.500000000000000 -15.000000000000663 -266.999999999999886
0 0

0101101
*
Ed
 0.000000100000000 1 1 0
1  18 0 0.000000000000000 6.283185307179586
2  6 6 0 0.000000000000000 6.283185307179586
0

0101100
+26 24 -26 24 *
Wi

0101100
-25 0 *
Ve
0.000000100000075
2582.500000000000000 -15.000000000001071 -1502.999999999999773
0 0

0101101
*
Ed
 0.000000100000000 1 1 0
1  19 0 0.000000000000000 6.283185307179586
2  7 7 0 0.000000000000000 6.283185307179586
0

0101100
+23 24 -23 24 *
Wi

0101100
-22 0 *
Ve
0.000000100000092
2582.500000000000000 -15.000000000001121 -1652.999999999999773
0 0

0101101
*
Ed
 0.000000100000000 1 1 0
1  20 0 0.000000000000000 6.283185307179586
2  8 8 0 0.000000000000000 6.283185307179586
0

0101100
+20 24 -20 24 *
Wi

0101100
-19 0 *
Fa
0  0.000000100000000 9 22

0111000
+30 0 +27 0 +24 0 +21 0 +18 0 *
Wi

0101100
+51 0 -58 0 -46 10 +31 13 *
Fa
0  0.000000100000000 10 0

0111000
+16 0 *
Ed
 0.000000100000000 1 1 0
1  21 0 0.000000000000000 15.000000000000201
3  9 10CN 5 0 0.000000000000000 15.000000000000201
0

0101000
+44 24 -29 24 *
Wi

0101100
-43 19 -14 0 +28 0 +14 0 *
Fa
0  0.000000100000000 5 0

0111000
+13 0 *
Ed
 0.000000100000000 1 1 0
1  22 0 0.000000000000000 15.000000000000156
3  11 12CN 6 0 0.000000000000000 15.000000000000156
0

0101000
+41 24 -26 24 *
Wi

0101100
-40 19 -11 0 +25 0 +11 0 *
Fa
0  0.000000100000000 6 0

0111000
+10 0 *
Ed
 0.000000100000000 1 1 0
1  23 0 0.000000000000000 15.000000000000426
3  13 14CN 7 0 0.000000000000000 15.000000000000426
0

0101000
+38 24 -23 24 *
Wi

0101100
-37 19 -8 0 +22 0 +8 0 *
Fa
0  0.000000100000000 7 0

0111000
+7 0 *
Ed
 0.000000100000000 1 1 0
1  24 0 0.000000000000000 15.000000000000460
3  15 16CN 8 0 0.000000000000000 15.000000000000460
0

0101000
+35 24 -20 24 *
Wi

0101100
-34 19 -5 0 +19 0 +5 0 *
Fa
0  0.000000100000000 8 0

0111000
+4 0 *
Sh

0101100
+61 4 +54 4 +47 4 +32 0 -17 0 +15 4 -12 0 -9 0 -6 0 -3 0 
*
So

1100000
+2 0 *

+1 1 