
CASCADE Topology V1, (c) Matra-Datavision
Locations 67
1
1.000000000000000 0.000000000000000 0.000000000000000 0.000000000000000 
0.000000000000000 1.000000000000000 0.000000000000000 0.000000000000000 
0.000000000000000 0.000000000000000 1.000000000000000 497.500000000000000 
1
1.000000000000000 0.000000000000000 0.000000000000000 0.000000000000000 
0.000000000000000 1.000000000000000 0.000000000000000 0.000000000000000 
0.000000000000000 0.000000000000000 1.000000000000000 0.000000000000000 
1
1.000000000000000 0.000000000000000 0.000000000000000 0.000000000000000 
0.000000000000000 1.000000000000000 0.000000000000000 0.000000000000000 
0.000000000000000 0.000000000000000 1.000000000000000 0.000000000000000 
2  2 1 3 -1 0
1
1.000000000000000 0.000000000000000 0.000000000000000 0.000000000000000 
0.000000000000000 1.000000000000000 0.000000000000000 0.000000000000000 
0.000000000000000 0.000000000000000 1.000000000000000 0.000000000000000 
1
1.000000000000000 0.000000000000000 0.000000000000000 0.000000000000000 
0.000000000000000 1.000000000000000 0.000000000000000 0.000000000000000 
0.000000000000000 0.000000000000000 1.000000000000000 0.000000000000000 
1
1.000000000000000 0.000000000000000 0.000000000000000 0.000000000000000 
0.000000000000000 1.000000000000000 0.000000000000000 0.000000000000000 
0.000000000000000 0.000000000000000 1.000000000000000 0.000000000000000 
1
1.000000000000000 0.000000000000000 0.000000000000000 0.000000000000000 
0.000000000000000 1.000000000000000 0.000000000000000 0.000000000000000 
0.000000000000000 0.000000000000000 1.000000000000000 0.000000000000000 
2  5 1 6 -1 7 1 8 -1 0
1
1.000000000000000 0.000000000000000 0.000000000000000 0.000000000000000 
0.000000000000000 1.000000000000000 0.000000000000000 0.000000000000000 
0.000000000000000 0.000000000000000 1.000000000000000 0.000000000000000 
2  10 -1 3 1 2 -1 8 1 7 -1 6 1 5 -1 0
1
1.000000000000000 0.000000000000000 0.000000000000000 0.000000000000000 
0.000000000000000 1.000000000000000 0.000000000000000 0.000000000000000 
0.000000000000000 0.000000000000000 1.000000000000000 0.000000000000000 
1
1.000000000000000 0.000000000000000 0.000000000000000 0.000000000000000 
0.000000000000000 1.000000000000000 0.000000000000000 0.000000000000000 
0.000000000000000 0.000000000000000 1.000000000000000 0.000000000000000 
1
1.000000000000000 0.000000000000000 0.000000000000000 0.000000000000000 
0.000000000000000 1.000000000000000 0.000000000000000 0.000000000000000 
0.000000000000000 0.000000000000000 1.000000000000000 0.000000000000000 
2  12 1 13 1 14 -1 5 1 6 -1 7 1 8 -1 0
2  10 -1 3 1 2 -1 8 1 7 -1 6 1 5 -1 14 1 13 -1 12 -1 0
1
1.000000000000000 0.000000000000000 0.000000000000000 -0.000000000000000 
0.000000000000000 1.000000000000000 0.000000000000000 -0.000000000000000 
0.000000000000000 0.000000000000000 1.000000000000000 -50.000000000000000 
2  12 1 13 1 14 -1 17 1 5 1 6 -1 7 1 8 -1 0
2  10 -1 3 1 2 -1 8 1 7 -1 6 1 5 -1 17 -1 14 1 13 -1 12 -1 0
1
1.000000000000000 0.000000000000000 0.000000000000000 0.000000000000000 
0.000000000000000 1.000000000000000 0.000000000000000 0.000000000000000 
0.000000000000000 0.000000000000000 1.000000000000000 0.000000000000000 
1
-1.000000000000000 0.000000000000000 0.000000000000000 0.000000000000000 
0.000000000000000 0.000000000000000 1.000000000000000 -1020.000000000000000 
0.000000000000000 1.000000000000000 -0.000000000000000 0.000000000000000 
2  20 1 21 1 8 -1 0
2  8 1 21 -1 20 -1 0
2  10 -1 3 1 2 -1 8 1 21 -1 20 -1 0
2  5 1 6 -1 7 1 8 -1 2 1 3 -1 0
2  12 1 13 1 14 -1 0
2  12 1 13 1 14 -1 17 1 0
2  14 -1 5 1 6 -1 7 1 8 -1 2 1 3 -1 0
2  12 1 13 1 0
2  14 -1 17 1 5 1 6 -1 7 1 8 -1 2 1 3 -1 0
2  10 -1 3 1 2 -1 0
1
1.000000000000000 0.000000000000000 0.000000000000000 0.000000000000000 
0.000000000000000 1.000000000000000 0.000000000000000 -5.000000000000000 
0.000000000000000 0.000000000000000 1.000000000000000 0.000000000000001 
2  20 1 21 1 8 -1 32 1 0
2  32 -1 8 1 21 -1 20 -1 0
2  10 -1 3 1 2 -1 32 -1 8 1 21 -1 20 -1 0
2  12 1 13 1 14 -1 5 1 6 -1 7 1 8 -1 2 1 3 -1 0
2  12 1 13 1 14 -1 17 1 5 1 6 -1 7 1 8 -1 2 1 3 -1 0
1
1.000000000000000 0.000000000000000 0.000000000000000 0.000000000000000 
0.000000000000000 1.000000000000000 0.000000000000000 0.000000000000000 
0.000000000000000 0.000000000000000 1.000000000000000 0.000000000000000 
1
0.000000000000000 0.000000000000000 1.000000000000000 4776.000000000000000 
1.000000000000000 0.000000000000000 0.000000000000000 0.000000000000000 
0.000000000000000 1.000000000000000 0.000000000000000 0.000000000000000 
2  38 1 39 1 3 -1 0
2  3 1 39 -1 38 -1 0
2  10 -1 3 1 39 -1 38 -1 0
2  7 1 8 -1 2 1 3 -1 0
2  5 1 6 -1 0
2  12 1 13 1 14 -1 5 1 6 -1 0
2  12 1 13 1 14 -1 17 1 5 1 6 -1 0
1
1.000000000000000 0.000000000000000 0.000000000000000 0.000000000000000 
0.000000000000000 1.000000000000000 0.000000000000000 0.000000000000000 
0.000000000000000 0.000000000000000 1.000000000000000 0.000000000000000 
1
1.000000000000000 0.000000000000000 0.000000000000000 0.000000000000000 
0.000000000000000 0.000000000000000 -1.000000000000000 -1842.999999999998408 
0.000000000000000 1.000000000000000 0.000000000000000 0.000000000000000 
2  47 1 48 1 6 -1 0
2  6 1 48 -1 47 -1 0
2  10 -1 3 1 2 -1 8 1 7 -1 6 1 48 -1 47 -1 0
2  8 -1 32 1 2 1 3 -1 0
2  20 1 21 1 0
2  10 -1 0
1
1.000000000000000 0.000000000000000 0.000000000000000 -5.000000000000000 
0.000000000000000 1.000000000000000 0.000000000000000 -0.000000000000000 
0.000000000000000 0.000000000000000 1.000000000000000 -0.000000000000000 
2  38 1 39 1 3 -1 55 1 0
2  55 -1 3 1 39 -1 38 -1 0
2  10 -1 55 -1 3 1 39 -1 38 -1 0
2  10 -1 3 1 2 -1 8 1 7 -1 0
1
1.000000000000000 0.000000000000000 0.000000000000000 0.000000000000000 
0.000000000000000 1.000000000000000 0.000000000000000 5.000000000000000 
0.000000000000000 0.000000000000000 1.000000000000000 -0.000000000000001 
2  47 1 48 1 6 -1 60 1 0
2  60 -1 6 1 48 -1 47 -1 0
2  10 -1 3 1 2 -1 8 1 7 -1 60 -1 6 1 48 -1 47 -1 0
2  3 -1 55 1 0
2  38 1 39 1 0
2  6 -1 60 1 7 1 8 -1 2 1 3 -1 0
2  47 1 48 1 0
Curve2ds 24
1 0.00000000000000000 0.00000000000000000 1.00000000000000000 0.00000000000000000 
1 0.00000000000000000 0.00000000000000000 1.00000000000000000 0.00000000000000000 
1 0.00000000000000000 0.00000000000000000 0.00000000000000000 -1.00000000000000000 
1 6.28318530717958623 0.00000000000000000 0.00000000000000000 -1.00000000000000000 
1 0.00000000000000000 -5.00000000000000000 1.00000000000000000 0.00000000000000000 
1 0.00000000000000000 0.00000000000000000 0.00000000000000000 -1.00000000000000000 
1 6.28318530717958623 0.00000000000000000 0.00000000000000000 -1.00000000000000000 
1 0.00000000000000000 -5.00000000000000000 1.00000000000000000 0.00000000000000000 
1 0.00000000000000000 0.00000000000000000 1.00000000000000000 0.00000000000000000 
1 0.00000000000000000 0.00000000000000000 1.00000000000000000 0.00000000000000000 
1 0.00000000000000000 0.00000000000000000 1.00000000000000000 0.00000000000000000 
1 0.00000000000000000 0.00000000000000000 1.00000000000000000 0.00000000000000000 
1 0.00000000000000000 0.00000000000000000 0.00000000000000000 -1.00000000000000000 
1 6.28318530717958623 0.00000000000000000 0.00000000000000000 -1.00000000000000000 
1 0.00000000000000000 -5.00000000000000000 1.00000000000000000 0.00000000000000000 
1 0.00000000000000000 0.00000000000000000 0.00000000000000000 -1.00000000000000000 
1 6.28318530717958623 0.00000000000000000 0.00000000000000000 -1.00000000000000000 
1 0.00000000000000000 -5.00000000000000000 1.00000000000000000 0.00000000000000000 
1 0.00000000000000000 0.00000000000000000 0.00000000000000000 -1.00000000000000000 
1 6.28318530717958623 0.00000000000000000 0.00000000000000000 -1.00000000000000000 
1 0.00000000000000000 -5.00000000000000000 1.00000000000000000 0.00000000000000000 
1 0.00000000000000000 0.00000000000000000 0.00000000000000000 -1.00000000000000000 
1 6.28318530717958623 0.00000000000000000 0.00000000000000000 -1.00000000000000000 
1 0.00000000000000000 -5.00000000000000000 1.00000000000000000 0.00000000000000000 
Curves 33
1 3751.74223029236964067 -1020.00000000000000000 0.00000000000000000 -0.00000000000000000 -0.00000000000000000 -1.00000000000000000 
1 3751.74223029236964067 -1020.00000000000000000 0.00000000000000000 -1.00000000000000000 0.00000000000000000 0.00000000000000000 
1 3751.74223029236964067 -1020.00000000000000000 0.00000000000000000 -1.00000000000000000 0.00000000000000000 0.00000000000000000 
1 3570.44732514419092695 -1020.00000000000000000 0.00000000000000000 -0.00000000000000000 -0.00000000000000000 -1.00000000000000000 
2 -3711.74223029236964067 -25.00000000000000000 0.00000000000000000 0.00000000000000000 0.00000000000000000 1.00000000000000000 1.00000000000000000 0.00000000000000000 -0.00000000000000000 -0.00000000000000000 1.00000000000000000 0.00000000000000000 5.00000000000000000
2 -3610.44732514419092695 -25.00000000000000000 0.00000000000000000 0.00000000000000000 0.00000000000000000 1.00000000000000000 1.00000000000000000 0.00000000000000000 -0.00000000000000000 -0.00000000000000000 1.00000000000000000 0.00000000000000000 5.00000000000000000
1 4776.00000000000000000 -1554.00000000000000000 0.00000000000000000 -0.00000000000000000 -0.00000000000000000 -1.00000000000000000 
1 4776.00000000000000000 -1554.00000000000000000 0.00000000000000000 -0.88672517215815383 0.46229694900690449 0.00000000000000000 
1 4776.00000000000000000 -1554.00000000000000000 0.00000000000000000 -0.88672517215815383 0.46229694900690449 0.00000000000000000 
1 3570.44732514419092695 -1020.00000000000000000 0.00000000000000000 0.68583398863458522 -0.72775802299498948 0.00000000000000000 
1 4346.03667601576307788 -1842.99999999999840838 0.00000000000000000 1.00000000000000000 0.00000000000000000 0.00000000000000000 
1 4776.00000000000000000 -1842.99999999999840838 0.00000000000000000 0.00000000000000000 1.00000000000000000 0.00000000000000000 
1 3570.44732514419092695 -1020.00000000000000000 0.00000000000000000 0.68583398863458522 -0.72775802299498948 0.00000000000000000 
1 4346.03667601576307788 -1842.99999999999840838 0.00000000000000000 1.00000000000000000 0.00000000000000000 0.00000000000000000 
1 4776.00000000000000000 -1842.99999999999840838 0.00000000000000000 0.00000000000000000 1.00000000000000000 0.00000000000000000 
1 4346.03667601576307788 -1842.99999999999840838 0.00000000000000000 -0.00000000000000000 -0.00000000000000000 -1.00000000000000000 
1 3706.74223029236964067 -1020.00000000000000000 -25.00000000000000000 0.00000000000000000 -1.00000000000000000 0.00000000000000022 
2 -3711.74223029236964067 -25.00000000000000000 0.00000000000000000 0.00000000000000000 0.00000000000000000 1.00000000000000000 1.00000000000000000 0.00000000000000000 -0.00000000000000000 -0.00000000000000000 1.00000000000000000 0.00000000000000000 5.00000000000000000
1 3605.44732514419092695 -1020.00000000000000000 -25.00000000000000000 0.00000000000000000 -1.00000000000000000 0.00000000000000022 
2 -3610.44732514419092695 -25.00000000000000000 0.00000000000000000 0.00000000000000000 0.00000000000000000 1.00000000000000000 1.00000000000000000 0.00000000000000000 -0.00000000000000000 -0.00000000000000000 1.00000000000000000 0.00000000000000000 5.00000000000000000
1 4776.00000000000000000 -1842.99999999999840838 0.00000000000000000 -0.00000000000000000 -0.00000000000000000 -1.00000000000000000 
2 -1762.99999999999840838 -25.00000000000000000 0.00000000000000000 0.00000000000000000 0.00000000000000000 1.00000000000000000 1.00000000000000000 0.00000000000000000 -0.00000000000000000 -0.00000000000000000 1.00000000000000000 0.00000000000000000 5.00000000000000000
2 -1634.00000000000000000 -25.00000000000000000 0.00000000000000000 0.00000000000000000 0.00000000000000000 1.00000000000000000 1.00000000000000000 0.00000000000000000 -0.00000000000000000 -0.00000000000000000 1.00000000000000000 0.00000000000000000 5.00000000000000000
2 4426.03667601576307788 -25.00000000000000000 0.00000000000000000 0.00000000000000000 0.00000000000000000 1.00000000000000000 1.00000000000000000 0.00000000000000000 -0.00000000000000000 -0.00000000000000000 1.00000000000000000 0.00000000000000000 5.00000000000000000
2 4696.00000000000000000 -25.00000000000000000 0.00000000000000000 0.00000000000000000 0.00000000000000000 1.00000000000000000 1.00000000000000000 0.00000000000000000 -0.00000000000000000 -0.00000000000000000 1.00000000000000000 0.00000000000000000 5.00000000000000000
1 4776.00000000000000000 -1757.99999999999840838 -25.00000000000000000 -1.00000000000000000 -0.00000000000000000 -0.00000000000000000 
2 -1762.99999999999840838 -25.00000000000000000 0.00000000000000000 0.00000000000000000 0.00000000000000000 1.00000000000000000 1.00000000000000000 0.00000000000000000 -0.00000000000000000 -0.00000000000000000 1.00000000000000000 0.00000000000000000 5.00000000000000000
1 4776.00000000000000000 -1629.00000000000000000 -25.00000000000000000 -1.00000000000000000 -0.00000000000000000 -0.00000000000000000 
2 -1634.00000000000000000 -25.00000000000000000 0.00000000000000000 0.00000000000000000 0.00000000000000000 1.00000000000000000 1.00000000000000000 0.00000000000000000 -0.00000000000000000 -0.00000000000000000 1.00000000000000000 0.00000000000000000 5.00000000000000000
1 4431.03667601576307788 -1842.99999999999840838 -25.00000000000000000 0.00000000000000000 1.00000000000000000 -0.00000000000000022 
2 4426.03667601576307788 -25.00000000000000000 0.00000000000000000 0.00000000000000000 0.00000000000000000 1.00000000000000000 1.00000000000000000 0.00000000000000000 -0.00000000000000000 -0.00000000000000000 1.00000000000000000 0.00000000000000000 5.00000000000000000
1 4701.00000000000000000 -1842.99999999999840838 -25.00000000000000000 0.00000000000000000 1.00000000000000000 -0.00000000000000022 
2 4696.00000000000000000 -25.00000000000000000 0.00000000000000000 0.00000000000000000 0.00000000000000000 1.00000000000000000 1.00000000000000000 0.00000000000000000 -0.00000000000000000 -0.00000000000000000 1.00000000000000000 0.00000000000000000 5.00000000000000000
Polygon3D 0
PolygonOnTriangulations 0
Surfaces 19
1 3751.74223029236964067 -1020.00000000000000000 0.00000000000000000 0.00000000000000000 1.00000000000000000 0.00000000000000000 -1.00000000000000000 0.00000000000000000 0.00000000000000000 0.00000000000000000 -0.00000000000000000 1.00000000000000000 
2 3711.74223029236964067 -1020.00000000000000000 -25.00000000000000000 0.00000000000000000 1.00000000000000000 -0.00000000000000022 -1.00000000000000000 0.00000000000000000 0.00000000000000000 0.00000000000000000 0.00000000000000022 1.00000000000000000 5.00000000000000000
2 3610.44732514419092695 -1020.00000000000000000 -25.00000000000000000 0.00000000000000000 1.00000000000000000 -0.00000000000000022 -1.00000000000000000 0.00000000000000000 0.00000000000000000 0.00000000000000000 0.00000000000000022 1.00000000000000000 5.00000000000000000
1 4776.00000000000000000 -1554.00000000000000000 0.00000000000000000 0.46229694900690449 0.88672517215815383 0.00000000000000000 -0.88672517215815383 0.46229694900690449 0.00000000000000000 0.00000000000000000 -0.00000000000000000 1.00000000000000000 
1 4207.64808014275058667 -1435.44756648862403381 0.00000000000000000 0.00000000000000000 0.00000000000000000 1.00000000000000000 1.00000000000000000 0.00000000000000000 -0.00000000000000000 -0.00000000000000000 1.00000000000000000 0.00000000000000000 
1 4207.64808014275058667 -1435.44756648862403381 0.00000000000000000 0.00000000000000000 0.00000000000000000 1.00000000000000000 1.00000000000000000 0.00000000000000000 -0.00000000000000000 -0.00000000000000000 1.00000000000000000 0.00000000000000000 
1 3570.44732514419092695 -1020.00000000000000000 0.00000000000000000 -0.72775802299498948 -0.68583398863458522 0.00000000000000000 0.68583398863458522 -0.72775802299498948 0.00000000000000000 0.00000000000000000 0.00000000000000000 1.00000000000000000 
1 4776.00000000000000000 -1842.99999999999840838 0.00000000000000000 1.00000000000000000 0.00000000000000000 0.00000000000000000 -0.00000000000000000 1.00000000000000000 0.00000000000000000 0.00000000000000000 -0.00000000000000000 1.00000000000000000 
2 4776.00000000000000000 -1762.99999999999840838 -25.00000000000000000 1.00000000000000000 0.00000000000000000 0.00000000000000000 -0.00000000000000000 1.00000000000000000 0.00000000000000000 0.00000000000000000 -0.00000000000000000 1.00000000000000000 5.00000000000000000
2 4776.00000000000000000 -1634.00000000000000000 -25.00000000000000000 1.00000000000000000 0.00000000000000000 0.00000000000000000 -0.00000000000000000 1.00000000000000000 0.00000000000000000 0.00000000000000000 -0.00000000000000000 1.00000000000000000 5.00000000000000000
1 4346.03667601576307788 -1842.99999999999840838 0.00000000000000000 0.00000000000000000 -1.00000000000000000 0.00000000000000000 1.00000000000000000 0.00000000000000000 0.00000000000000000 -0.00000000000000000 0.00000000000000000 1.00000000000000000 
2 4426.03667601576307788 -1842.99999999999840838 -25.00000000000000000 0.00000000000000000 -1.00000000000000000 0.00000000000000022 1.00000000000000000 0.00000000000000000 0.00000000000000000 -0.00000000000000000 0.00000000000000022 1.00000000000000000 5.00000000000000000
2 4696.00000000000000000 -1842.99999999999840838 -25.00000000000000000 0.00000000000000000 -1.00000000000000000 0.00000000000000022 1.00000000000000000 0.00000000000000000 0.00000000000000000 -0.00000000000000000 0.00000000000000022 1.00000000000000000 5.00000000000000000
1 3711.74223029236964067 -1020.00000000000000000 -24.99999999999999645 0.00000000000000000 1.00000000000000000 0.00000000000000000 0.00000000000000000 -0.00000000000000000 1.00000000000000000 1.00000000000000000 0.00000000000000000 -0.00000000000000000 
1 3610.44732514419047220 -1020.00000000000000000 -24.99999999999999645 0.00000000000000000 1.00000000000000000 0.00000000000000000 0.00000000000000000 -0.00000000000000000 1.00000000000000000 1.00000000000000000 0.00000000000000000 -0.00000000000000000 
1 4776.00000000000000000 -1762.99999999999818101 -24.99999999999999645 1.00000000000000000 0.00000000000000000 0.00000000000000000 0.00000000000000000 0.00000000000000000 1.00000000000000000 0.00000000000000000 -1.00000000000000000 0.00000000000000000 
1 4776.00000000000000000 -1633.99999999999977263 -24.99999999999999645 1.00000000000000000 0.00000000000000000 0.00000000000000000 0.00000000000000000 0.00000000000000000 1.00000000000000000 0.00000000000000000 -1.00000000000000000 0.00000000000000000 
1 4426.03667601576307788 -1842.99999999999818101 -24.99999999999999645 -0.00000000000000000 -1.00000000000000000 0.00000000000000000 0.00000000000000000 -0.00000000000000000 -1.00000000000000000 1.00000000000000000 0.00000000000000000 0.00000000000000000 
1 4695.99999999999909051 -1842.99999999999818101 -24.99999999999999645 -0.00000000000000000 -1.00000000000000000 0.00000000000000000 -1.00000000000000000 0.00000000000000000 0.00000000000000000 -0.00000000000000000 0.00000000000000000 -1.00000000000000000 
Triangulations 0

TShapes 101
Ve
0.000000100000000
3751.742230292369641 -1020.000000000000000 0.000000000000000
0 0

0101101
*
Ve
0.000000100000000
3751.742230292369641 -1020.000000000000000 -50.000000000000000
0 0

0101101
*
Ed
 0.000000100000000 1 1 0
1  1 0 0.000000000000000 50.000000000000000
0

0101000
+101 11 -100 11 *
Ve
0.000000100000000
3570.447325144190927 -1020.000000000000000 0.000000000000000
0 0

0101101
*
Ed
 0.000000100000000 1 1 0
1  2 0 0.000000000000000 181.294905148178714
0

0101000
+101 16 -98 16 *
Ve
0.000000100000000
3570.447325144190927 -1020.000000000000000 -50.000000000000000
0 0

0101101
*
Ed
 0.000000100000000 1 1 0
1  3 0 0.000000000000000 181.294905148178714
0

0101000
+100 19 -96 19 *
Ed
 0.000000100000000 1 1 0
1  4 0 0.000000000000000 50.000000000000000
0

0101000
+98 11 -96 11 *
Wi

0101100
+99 9 -97 15 +95 18 -94 9 *
Ve
0.000000100000000
3706.742230292369641 -1020.000000000000000 -25.000000000000000
0 0

0101101
*
Ed
 0.000000100000000 1 1 0
1  5 0 0.000000000000000 6.283185307179586
2  1 2 23 0.000000000000000 6.283185307179586
0

0101000
+92 24 -92 24 *
Wi

0101100
-91 22 *
Ve
0.000000100000000
3605.447325144190927 -1020.000000000000000 -25.000000000000000
0 0

0101101
*
Ed
 0.000000100000000 1 1 0
1  6 0 0.000000000000000 6.283185307179586
2  2 3 23 0.000000000000000 6.283185307179586
0

0101000
+89 24 -89 24 *
Wi

0101100
-88 22 *
Fa
0  0.000000100000000 1 9

0111000
+93 0 +90 0 +87 0 *
Ve
0.000000100000000
4776.000000000000000 -1554.000000000000000 0.000000000000000
0 0

0101101
*
Ve
0.000000100000000
4776.000000000000000 -1554.000000000000000 -50.000000000000000
0 0

0101101
*
Ed
 0.000000100000000 1 1 0
1  7 0 0.000000000000000 50.000000000000000
0

0101000
+85 11 -84 11 *
Ed
 0.000000100000000 1 1 0
1  8 0 0.000000000000000 1155.101717948012265
0

0101000
+85 16 -101 16 *
Ed
 0.000000100000000 1 1 0
1  9 0 0.000000000000000 1155.101717948012265
0

0101000
+84 19 -100 19 *
Wi

0101100
+83 0 -99 0 -82 26 +81 27 *
Fa
0  0.000000100000000 4 0

0111000
+80 0 *
Ve
0.000000100000000
4346.036676015763078 -1842.999999999998408 0.000000000000000
0 0

0101101
*
Ed
 0.000000100000000 1 1 0
1  10 0 0.000000000000000 1130.870390975634336
0

0101000
+98 16 -78 16 *
Ve
0.000000100000000
4776.000000000000000 -1842.999999999998408 0.000000000000000
0 0

0101101
*
Ed
 0.000000100000000 1 1 0
1  11 0 0.000000000000000 429.963323984236922
0

0101000
+78 16 -76 16 *
Ed
 0.000000100000000 1 1 0
1  12 0 0.000000000000000 288.999999999998408
0

0101000
+76 16 -85 16 *
Wi

0101100
+97 0 +77 0 +75 0 +74 0 +82 0 *
Fa
0  0.000000100000000 5 0

0111000
+73 29 *
Ve
0.000000100000000
4346.036676015763078 -1842.999999999998408 -50.000000000000000
0 0

0101101
*
Ed
 0.000000100000000 1 1 0
1  13 0 0.000000000000000 1130.870390975634336
0

0101000
+96 19 -71 19 *
Ve
0.000000100000000
4776.000000000000000 -1842.999999999998408 -50.000000000000000
0 0

0101101
*
Ed
 0.000000100000000 1 1 0
1  14 0 0.000000000000000 429.963323984236922
0

0101000
+71 19 -69 19 *
Ed
 0.000000100000000 1 1 0
1  15 0 0.000000000000000 288.999999999998408
0

0101000
+69 19 -84 19 *
Wi

0101100
+95 0 +70 0 +68 0 +67 0 +81 0 *
Fa
0  0.000000100000000 6 0

0111000
+66 29 *
Ed
 0.000000100000000 1 1 0
1  16 0 0.000000000000000 50.000000000000000
0

0101000
+78 11 -71 11 *
Wi

0101100
+94 0 -64 0 -77 26 +70 27 *
Fa
0  0.000000100000000 7 0

0111000
+63 0 *
Ve
0.000000100000000
3706.742230292369641 -1025.000000000000000 -25.000000000000000
0 0

0101101
*
Ed
 0.000000100000000 1 1 0
1  17 0 0.000000000000000 5.000000000000000
3  3 4CN 2 0 0.000000000000000 5.000000000000000
0

0101000
+92 31 -61 31 *
Ed
 0.000000100000000 1 1 0
1  18 0 0.000000000000000 6.283185307179586
2  5 2 34 0.000000000000000 6.283185307179586
0

0101000
+61 35 -61 35 *
Wi

0101100
+60 0 -60 0 -91 22 +59 33 *
Fa
0  0.000000100000000 2 0

0111000
+58 0 *
Ve
0.000000100000000
3605.447325144190927 -1025.000000000000000 -25.000000000000000
0 0

0101101
*
Ed
 0.000000100000000 1 1 0
1  19 0 0.000000000000000 5.000000000000000
3  6 7CN 3 0 0.000000000000000 5.000000000000000
0

0101000
+89 31 -56 31 *
Ed
 0.000000100000000 1 1 0
1  20 0 0.000000000000000 6.283185307179586
2  8 3 34 0.000000000000000 6.283185307179586
0

0101000
+56 35 -56 35 *
Wi

0101100
+55 0 -55 0 -88 22 +54 33 *
Fa
0  0.000000100000000 3 0

0111000
+53 0 *
Ed
 0.000000100000000 1 1 0
1  21 0 0.000000000000000 50.000000000000000
0

0101000
+76 11 -69 11 *
Wi

0101100
+51 25 -74 36 +67 37 -83 25 *
Ve
0.000000100000000
4776.000000000000000 -1757.999999999998408 -25.000000000000000
0 0

0101101
*
Ed
 0.000000100000000 1 1 0
1  22 0 0.000000000000000 6.283185307179586
2  9 9 41 0.000000000000000 6.283185307179586
0

0101000
+49 42 -49 42 *
Wi

0101100
-48 40 *
Ve
0.000000100000000
4776.000000000000000 -1629.000000000000000 -25.000000000000000
0 0

0101101
*
Ed
 0.000000100000000 1 1 0
1  23 0 0.000000000000000 6.283185307179586
2  10 10 41 0.000000000000000 6.283185307179586
0

0101000
+46 42 -46 42 *
Wi

0101100
-45 40 *
Fa
0  0.000000100000000 8 25

0111000
+50 0 +47 0 +44 0 *
Wi

0101100
+64 44 -75 45 +68 46 -51 44 *
Ve
0.000000100000000
4431.036676015763078 -1842.999999999998408 -25.000000000000000
0 0

0101101
*
Ed
 0.000000100000000 1 1 0
1  24 0 0.000000000000000 6.283185307179586
2  11 12 50 0.000000000000000 6.283185307179586
0

0101000
+41 51 -41 51 *
Wi

0101100
-40 49 *
Ve
0.000000100000000
4701.000000000000000 -1842.999999999998408 -25.000000000000000
0 0

0101101
*
Ed
 0.000000100000000 1 1 0
1  25 0 0.000000000000000 6.283185307179586
2  12 13 50 0.000000000000000 6.283185307179586
0

0101000
+38 51 -38 51 *
Wi

0101100
-37 49 *
Fa
0  0.000000100000000 11 44

0111000
+42 0 +39 0 +36 0 *
Wi

0101100
+59 0 *
Fa
0  0.000000100000000 14 0

0111000
+34 53 *
Wi

0101100
+54 0 *
Fa
0  0.000000100000000 15 0

0111000
+32 53 *
Ve
0.000000100000000
4771.000000000000000 -1757.999999999998408 -25.000000000000000
0 0

0101101
*
Ed
 0.000000100000000 1 1 0
1  26 0 0.000000000000000 5.000000000000000
3  13 14CN 9 0 0.000000000000000 5.000000000000000
0

0101000
+49 54 -30 54 *
Ed
 0.000000100000000 1 1 0
1  27 0 0.000000000000000 6.283185307179586
2  15 9 57 0.000000000000000 6.283185307179586
0

0101000
+30 58 -30 58 *
Wi

0101100
+29 0 -29 0 -48 40 +28 56 *
Fa
0  0.000000100000000 9 0

0111000
+27 0 *
Ve
0.000000100000000
4771.000000000000000 -1629.000000000000000 -25.000000000000000
0 0

0101101
*
Ed
 0.000000100000000 1 1 0
1  28 0 0.000000000000000 5.000000000000000
3  16 17CN 10 0 0.000000000000000 5.000000000000000
0

0101000
+46 54 -25 54 *
Ed
 0.000000100000000 1 1 0
1  29 0 0.000000000000000 6.283185307179586
2  18 10 57 0.000000000000000 6.283185307179586
0

0101000
+25 58 -25 58 *
Wi

0101100
+24 0 -24 0 -45 40 +23 56 *
Fa
0  0.000000100000000 10 0

0111000
+22 0 *
Ve
0.000000100000000
4431.036676015763078 -1837.999999999998408 -25.000000000000000
0 0

0101101
*
Ed
 0.000000100000000 1 1 0
1  30 0 0.000000000000000 5.000000000000000
3  19 20CN 12 0 0.000000000000000 5.000000000000000
0

0101000
+41 59 -20 59 *
Ed
 0.000000100000000 1 1 0
1  31 0 0.000000000000000 6.283185307179586
2  21 12 62 0.000000000000000 6.283185307179586
0

0101000
+20 63 -20 63 *
Wi

0101100
+19 0 -19 0 -40 49 +18 61 *
Fa
0  0.000000100000000 12 0

0111000
+17 0 *
Ve
0.000000100000000
4701.000000000000000 -1837.999999999998408 -25.000000000000000
0 0

0101101
*
Ed
 0.000000100000000 1 1 0
1  32 0 0.000000000000000 5.000000000000000
3  22 23CN 13 0 0.000000000000000 5.000000000000000
0

0101000
+38 59 -15 59 *
Ed
 0.000000100000000 1 1 0
1  33 0 0.000000000000000 6.283185307179586
2  24 13 62 0.000000000000000 6.283185307179586
0

0101000
+15 63 -15 63 *
Wi

0101100
+14 0 -14 0 -37 49 +13 61 *
Fa
0  0.000000100000000 13 0

0111000
+12 0 *
Wi

0101100
+28 0 *
Fa
0  0.000000100000000 16 0

0111000
+10 65 *
Wi

0101100
+23 0 *
Fa
0  0.000000100000000 17 0

0111000
+8 65 *
Wi

0101100
+18 0 *
Fa
0  0.000000100000000 18 0

0111000
+6 67 *
Wi

0101100
+13 0 *
Fa
0  0.000000100000000 19 0

0111000
+4 67 *
Sh

0101100
+86 4 +79 25 +72 28 -65 30 +62 25 -57 4 -52 4 +43 0 +35 43 +33 52 
+31 52 -26 0 -21 0 -16 43 -11 43 +9 64 +7 64 +5 66 +3 66 *
So

0100000
+2 0 *

+1 1 