
CASCADE Topology V1, (c) Matra-Datavision
Locations 12
1
1.000000000000000 0.000000000000000 0.000000000000000 0.000000000000000 
0.000000000000000 1.000000000000000 0.000000000000000 0.000000000000000 
0.000000000000000 0.000000000000000 1.000000000000000 0.000000000000000 
1
1.000000000000000 0.000000000000000 0.000000000000000 0.000000000000000 
0.000000000000000 -0.000000000000000 -1.000000000000000 400.000000000000000 
0.000000000000000 1.000000000000000 -0.000000000000000 0.000000000000089 
1
1.000000000000000 0.000000000000000 0.000000000000000 0.000000000000000 
0.000000000000000 -0.000000000000000 -1.000000000000000 0.000000000000000 
0.000000000000000 1.000000000000000 -0.000000000000000 0.000000000000000 
2  1 1 2 1 3 -1 0
1
1.000000000000000 0.000000000000000 0.000000000000000 0.000000000000000 
0.000000000000000 1.000000000000000 0.000000000000000 0.000000000000000 
0.000000000000000 0.000000000000000 1.000000000000000 2270.000000000000000 
2  1 1 2 1 3 -1 5 1 0
2  2 -1 1 -1 0
2  3 1 2 -1 1 -1 0
2  5 -1 3 1 2 -1 1 -1 0
2  3 -1 0
2  1 1 2 1 0
2  3 -1 5 1 0
Curve2ds 96
1 0.00000000000000000 0.00000000000000000 0.00000000000000000 -1.00000000000000000 
1 3862.69701896683545783 0.00000000000000000 0.00000000000000000 -1.00000000000000000 
1 0.00000000000000000 0.00000000000000000 0.00000000000000000 -1.00000000000000000 
1 3499.78669977848858252 -2383.57672244708055587 0.45636473489097495 0.88979280102049052 
1 0.00000000000000000 0.00000000000000000 1.00000000000000000 0.00000000000000000 
1 0.00000000000000000 -2270.00000000000000000 1.00000000000000000 0.00000000000000000 
1 3469.20952859503813670 0.00000000000000000 0.00000000000000000 -1.00000000000000000 
1 0.00000000000000000 0.00000000000000000 0.00000000000000000 -1.00000000000000000 
1 5262.58540080344755552 1053.42327755291853464 -1.00000000000000000 0.00000000000000000 
1 0.00000000000000000 0.00000000000000000 1.00000000000000000 0.00000000000000000 
1 0.00000000000000000 -2270.00000000000000000 1.00000000000000000 0.00000000000000000 
1 570.99999999999954525 0.00000000000000000 0.00000000000000000 -1.00000000000000000 
1 0.00000000000000000 0.00000000000000000 0.00000000000000000 -1.00000000000000000 
1 1793.37587220840941882 1053.42327755291853464 0.00000000000000000 1.00000000000000000 
1 0.00000000000000000 0.00000000000000000 1.00000000000000000 0.00000000000000000 
1 0.00000000000000000 -2270.00000000000000000 1.00000000000000000 0.00000000000000000 
1 2717.99999999999454303 0.00000000000000000 0.00000000000000000 -1.00000000000000000 
1 0.00000000000000000 0.00000000000000000 0.00000000000000000 -1.00000000000000000 
1 1793.37587220840941882 1624.42327755291807989 -1.00000000000000000 0.00000000000000000 
1 0.00000000000000000 0.00000000000000000 1.00000000000000000 0.00000000000000000 
1 0.00000000000000000 -2270.00000000000000000 1.00000000000000000 0.00000000000000000 
1 1095.00000000000136424 0.00000000000000000 0.00000000000000000 -1.00000000000000000 
1 0.00000000000000000 0.00000000000000000 0.00000000000000000 -1.00000000000000000 
1 -924.62412779158512421 1624.42327755291807989 0.00000000000000000 1.00000000000000000 
1 0.00000000000000000 0.00000000000000000 1.00000000000000000 0.00000000000000000 
1 0.00000000000000000 -2270.00000000000000000 1.00000000000000000 0.00000000000000000 
1 3113.00000000000000000 0.00000000000000000 0.00000000000000000 -1.00000000000000000 
1 0.00000000000000000 -0.00000000000000000 0.00000000000000000 -1.00000000000000000 
1 -924.62412779158512421 2719.42327755291944413 -1.00000000000000000 0.00000000000000000 
1 0.00000000000000000 0.00000000000000000 1.00000000000000000 0.00000000000000000 
1 0.00000000000000000 -2270.00000000000000000 1.00000000000000000 0.00000000000000000 
1 5103.00000000000000000 0.00000000000000000 0.00000000000000000 -1.00000000000000000 
1 -4037.62412779158512421 2719.42327755291944413 0.00000000000000000 -1.00000000000000000 
1 0.00000000000000000 -0.00000000000000000 1.00000000000000000 0.00000000000000000 
1 0.00000000000000000 -2270.00000000000000000 1.00000000000000000 0.00000000000000000 
1 -4037.62412779158512421 -2383.57672244708055587 1.00000000000000000 -0.00000000000000000 
1 0.00000000000000000 0.00000000000000000 0.00000000000000000 -1.00000000000000000 
1 0.00000000000000000 0.00000000000000000 0.00000000000000000 -1.00000000000000000 
1 134.86285780506477749 0.00000000000000000 0.00000000000000000 -1.00000000000000000 
1 3525.53987445416305491 0.00000000000000000 0.00000000000000000 -1.00000000000000000 
1 5020.44508455618051812 903.42327755291853464 1.00000000000000000 -0.00000000000000000 
1 0.00000000000000000 0.00000000000000000 1.00000000000000000 0.00000000000000000 
1 0.00000000000000000 -2270.00000000000000000 1.00000000000000000 0.00000000000000000 
1 134.86285780506477749 0.00000000000000000 0.00000000000000000 -1.00000000000000000 
1 0.00000000000000000 0.00000000000000000 0.00000000000000000 -1.00000000000000000 
1 3546.37587220841123781 -2233.57672244708055587 0.45636473489097457 0.88979280102049063 
1 0.00000000000000000 0.00000000000000000 1.00000000000000000 0.00000000000000000 
1 0.00000000000000000 -2270.00000000000000000 1.00000000000000000 0.00000000000000000 
1 7299.13714219493158453 0.00000000000000000 0.00000000000000000 -1.00000000000000000 
1 0.00000000000000000 0.00000000000000000 0.00000000000000000 -1.00000000000000000 
1 0.00000000000000000 0.00000000000000000 1.00000000000000000 0.00000000000000000 
1 0.00000000000000000 -2270.00000000000000000 1.00000000000000000 0.00000000000000000 
1 3411.51301440334646031 -2233.57672244708055587 1.00000000000000000 -0.00000000000000000 
1 0.00000000000000000 0.00000000000000000 0.00000000000000000 -1.00000000000000000 
1 4803.00000000000000000 0.00000000000000000 0.00000000000000000 -1.00000000000000000 
1 0.00000000000000000 0.00000000000000000 1.00000000000000000 0.00000000000000000 
1 0.00000000000000000 -2270.00000000000000000 1.00000000000000000 0.00000000000000000 
1 -3887.62412779158512421 -2233.57672244708055587 1.00000000000000000 -0.00000000000000000 
1 0.00000000000000000 -0.00000000000000000 0.00000000000000000 -1.00000000000000000 
1 2813.00000000000000000 0.00000000000000000 0.00000000000000000 -1.00000000000000000 
1 0.00000000000000000 -0.00000000000000000 1.00000000000000000 0.00000000000000000 
1 0.00000000000000000 -2270.00000000000000000 1.00000000000000000 0.00000000000000000 
1 -3887.62412779158512421 2569.42327755291944413 0.00000000000000000 -1.00000000000000000 
1 0.00000000000000000 0.00000000000000000 0.00000000000000000 -1.00000000000000000 
1 2945.00000000000000000 0.00000000000000000 0.00000000000000000 -1.00000000000000000 
1 -1074.62412779158512421 2569.42327755291944413 -1.00000000000000000 0.00000000000000000 
1 0.00000000000000000 0.00000000000000000 1.00000000000000000 0.00000000000000000 
1 0.00000000000000000 -2270.00000000000000000 1.00000000000000000 0.00000000000000000 
1 0.00000000000000000 0.00000000000000000 0.00000000000000000 -1.00000000000000000 
1 201.00000000000000000 0.00000000000000000 0.00000000000000000 -1.00000000000000000 
1 -1074.62412779158512421 -375.57672244708055587 0.00000000000000000 1.00000000000000000 
1 0.00000000000000000 0.00000000000000000 1.00000000000000000 0.00000000000000000 
1 0.00000000000000000 -2270.00000000000000000 1.00000000000000000 0.00000000000000000 
1 0.00000000000000000 0.00000000000000000 0.00000000000000000 -1.00000000000000000 
1 1849.99999999999863576 0.00000000000000000 0.00000000000000000 -1.00000000000000000 
1 -873.62412779158512421 -375.57672244708055587 -1.00000000000000000 0.00000000000000000 
1 0.00000000000000000 0.00000000000000000 1.00000000000000000 0.00000000000000000 
1 0.00000000000000000 -2270.00000000000000000 1.00000000000000000 0.00000000000000000 
1 2516.99999999999454303 0.00000000000000000 0.00000000000000000 -1.00000000000000000 
1 0.00000000000000000 -0.00000000000000000 0.00000000000000000 -1.00000000000000000 
1 -873.62412779158512421 1474.42327755291807989 0.00000000000000000 -1.00000000000000000 
1 0.00000000000000000 -0.00000000000000000 1.00000000000000000 0.00000000000000000 
1 0.00000000000000000 -2270.00000000000000000 1.00000000000000000 0.00000000000000000 
1 570.99999999999954525 0.00000000000000000 0.00000000000000000 -1.00000000000000000 
1 0.00000000000000000 0.00000000000000000 0.00000000000000000 -1.00000000000000000 
1 1643.37587220840941882 1474.42327755291807989 -1.00000000000000000 0.00000000000000000 
1 0.00000000000000000 0.00000000000000000 1.00000000000000000 0.00000000000000000 
1 0.00000000000000000 -2270.00000000000000000 1.00000000000000000 0.00000000000000000 
1 0.00000000000000000 0.00000000000000000 0.00000000000000000 -1.00000000000000000 
1 3377.06921234777109930 0.00000000000000000 0.00000000000000000 -1.00000000000000000 
1 1643.37587220840941882 903.42327755291853464 0.00000000000000000 1.00000000000000000 
1 0.00000000000000000 0.00000000000000000 1.00000000000000000 0.00000000000000000 
1 0.00000000000000000 -2270.00000000000000000 1.00000000000000000 0.00000000000000000 
1 5020.44508455618051812 903.42327755291853464 -1.00000000000000000 0.00000000000000000 
1 0.00000000000000000 0.00000000000000000 1.00000000000000000 0.00000000000000000 
1 0.00000000000000000 -2270.00000000000000000 1.00000000000000000 0.00000000000000000 
Curves 40
1 -150.00000000000000000 7387.41082757007370674 -400.00000000000000000 0.00000000000000000 0.00000000000000000 1.00000000000000000 
1 3286.99999999999909051 9150.20952859503267973 -400.00000000000000000 0.00000000000000000 0.00000000000000000 1.00000000000000000 
1 -150.00000000000000000 7387.41082757007370674 0.00000000000000000 0.88979280102049052 0.45636473489097495 0.00000000000000000 
1 3286.99999999999909051 5680.99999999999454303 -400.00000000000000000 0.00000000000000000 0.00000000000000000 1.00000000000000000 
1 3286.99999999999909051 9150.20952859503267973 0.00000000000000000 0.00000000000000000 -1.00000000000000000 0.00000000000000000 
1 3857.99999999999863576 5680.99999999999454303 -400.00000000000000000 0.00000000000000000 0.00000000000000000 1.00000000000000000 
1 3286.99999999999909051 5680.99999999999454303 0.00000000000000000 1.00000000000000000 0.00000000000000000 0.00000000000000000 
1 3857.99999999999863576 2963.00000000000000000 -400.00000000000000000 0.00000000000000000 0.00000000000000000 1.00000000000000000 
1 3857.99999999999863576 5680.99999999999454303 0.00000000000000000 0.00000000000000000 -1.00000000000000000 0.00000000000000000 
1 4953.00000000000000000 2963.00000000000000000 -400.00000000000000000 0.00000000000000000 0.00000000000000000 1.00000000000000000 
1 3857.99999999999863576 2963.00000000000000000 0.00000000000000000 1.00000000000000000 0.00000000000000000 0.00000000000000000 
1 4953.00000000000000000 -150.00000000000000000 -400.00000000000000000 0.00000000000000000 0.00000000000000000 1.00000000000000000 
1 4953.00000000000000000 2963.00000000000000000 0.00000000000000000 0.00000000000000000 -1.00000000000000000 0.00000000000000000 
1 -150.00000000000000000 -150.00000000000000000 -400.00000000000000000 0.00000000000000000 0.00000000000000000 1.00000000000000000 
1 4953.00000000000000000 -150.00000000000000000 0.00000000000000000 -1.00000000000000000 0.00000000000000000 0.00000000000000000 
1 -150.00000000000000000 -150.00000000000000000 0.00000000000000000 0.00000000000000000 1.00000000000000000 0.00000000000000000 
1 3136.99999999999909051 8908.06921234776564233 -400.00000000000000000 0.00000000000000000 0.00000000000000000 1.00000000000000000 
1 3136.99999999999909051 9042.93207015283041983 -400.00000000000000000 0.00000000000000000 0.00000000000000000 1.00000000000000000 
1 3136.99999999999909051 8908.06921234776564233 0.00000000000000000 0.00000000000000000 1.00000000000000000 0.00000000000000000 
1 0.00000000000000000 7433.99999999999636202 -400.00000000000000000 0.00000000000000000 0.00000000000000000 1.00000000000000000 
1 0.00000000000000000 7433.99999999999636202 0.00000000000000000 0.88979280102049063 0.45636473489097457 0.00000000000000000 
1 0.00000000000000000 7299.13714219493158453 -400.00000000000000000 0.00000000000000000 0.00000000000000000 1.00000000000000000 
1 0.00000000000000000 7299.13714219493158453 0.00000000000000000 0.00000000000000000 1.00000000000000000 0.00000000000000000 
1 0.00000000000000000 0.00000000000000000 -400.00000000000000000 0.00000000000000000 0.00000000000000000 1.00000000000000000 
1 0.00000000000000000 0.00000000000000000 0.00000000000000000 0.00000000000000000 1.00000000000000000 0.00000000000000000 
1 4803.00000000000000000 0.00000000000000000 -400.00000000000000000 0.00000000000000000 0.00000000000000000 1.00000000000000000 
1 4803.00000000000000000 0.00000000000000000 0.00000000000000000 -1.00000000000000000 0.00000000000000000 0.00000000000000000 
1 4803.00000000000000000 2813.00000000000000000 -400.00000000000000000 0.00000000000000000 0.00000000000000000 1.00000000000000000 
1 4803.00000000000000000 2813.00000000000000000 0.00000000000000000 0.00000000000000000 -1.00000000000000000 0.00000000000000000 
1 1858.00000000000000000 2813.00000000000000000 -400.00000000000000000 0.00000000000000000 0.00000000000000000 1.00000000000000000 
1 1858.00000000000000000 2813.00000000000000000 0.00000000000000000 1.00000000000000000 0.00000000000000000 0.00000000000000000 
1 1858.00000000000000000 3014.00000000000000000 -400.00000000000000000 0.00000000000000000 0.00000000000000000 1.00000000000000000 
1 1858.00000000000000000 3014.00000000000000000 0.00000000000000000 0.00000000000000000 -1.00000000000000000 0.00000000000000000 
1 3707.99999999999863576 3014.00000000000000000 -400.00000000000000000 0.00000000000000000 0.00000000000000000 1.00000000000000000 
1 3707.99999999999863576 3014.00000000000000000 0.00000000000000000 -1.00000000000000000 0.00000000000000000 0.00000000000000000 
1 3707.99999999999863576 5530.99999999999454303 -400.00000000000000000 0.00000000000000000 0.00000000000000000 1.00000000000000000 
1 3707.99999999999863576 5530.99999999999454303 0.00000000000000000 0.00000000000000000 -1.00000000000000000 0.00000000000000000 
1 3136.99999999999909051 5530.99999999999454303 -400.00000000000000000 0.00000000000000000 0.00000000000000000 1.00000000000000000 
1 3136.99999999999909051 5530.99999999999454303 0.00000000000000000 1.00000000000000000 0.00000000000000000 0.00000000000000000 
1 3136.99999999999909051 8908.06921234776564233 0.00000000000000000 0.00000000000000000 -1.00000000000000000 0.00000000000000000 
Polygon3D 0
PolygonOnTriangulations 0
Surfaces 21
1 -150.00000000000000000 7387.41082757007370674 -400.00000000000000000 -0.45636473489097495 0.88979280102049052 0.00000000000000000 0.88979280102049052 0.45636473489097495 0.00000000000000000 0.00000000000000000 0.00000000000000000 -1.00000000000000000 
1 3286.99999999999909051 9150.20952859503267973 -400.00000000000000000 1.00000000000000000 0.00000000000000000 -0.00000000000000000 0.00000000000000000 -1.00000000000000000 0.00000000000000000 0.00000000000000000 -0.00000000000000000 -1.00000000000000000 
1 2233.57672244708055587 399.99999999999926104 3887.62412779158512421 0.00000000000000000 1.00000000000000000 0.00000000000000023 0.00000000000000000 -0.00000000000000023 1.00000000000000000 1.00000000000000000 0.00000000000000000 -0.00000000000000000 
1 3286.99999999999909051 5680.99999999999454303 -400.00000000000000000 0.00000000000000000 1.00000000000000000 0.00000000000000000 1.00000000000000000 0.00000000000000000 0.00000000000000000 0.00000000000000000 0.00000000000000000 -1.00000000000000000 
1 3857.99999999999863576 5680.99999999999454303 -400.00000000000000000 1.00000000000000000 0.00000000000000000 -0.00000000000000000 0.00000000000000000 -1.00000000000000000 0.00000000000000000 0.00000000000000000 -0.00000000000000000 -1.00000000000000000 
1 3857.99999999999863576 2963.00000000000000000 -400.00000000000000000 0.00000000000000000 1.00000000000000000 0.00000000000000000 1.00000000000000000 0.00000000000000000 0.00000000000000000 0.00000000000000000 0.00000000000000000 -1.00000000000000000 
1 4953.00000000000000000 2963.00000000000000000 -400.00000000000000000 1.00000000000000000 0.00000000000000000 -0.00000000000000000 0.00000000000000000 -1.00000000000000000 0.00000000000000000 0.00000000000000000 -0.00000000000000000 -1.00000000000000000 
1 4953.00000000000000000 -150.00000000000000000 -400.00000000000000000 0.00000000000000000 -1.00000000000000000 0.00000000000000000 -1.00000000000000000 0.00000000000000000 0.00000000000000000 -0.00000000000000000 -0.00000000000000000 -1.00000000000000000 
1 -150.00000000000000000 -150.00000000000000000 -400.00000000000000000 -1.00000000000000000 0.00000000000000000 0.00000000000000000 0.00000000000000000 1.00000000000000000 0.00000000000000000 0.00000000000000000 0.00000000000000000 -1.00000000000000000 
1 3136.99999999999909051 8908.06921234776564233 -400.00000000000000000 -1.00000000000000000 0.00000000000000000 0.00000000000000000 0.00000000000000000 1.00000000000000000 0.00000000000000000 0.00000000000000000 0.00000000000000000 -1.00000000000000000 
1 3136.99999999999909051 8908.06921234776564233 -400.00000000000000000 1.00000000000000000 0.00000000000000000 -0.00000000000000000 0.00000000000000000 -1.00000000000000000 0.00000000000000000 0.00000000000000000 -0.00000000000000000 -1.00000000000000000 
1 0.00000000000000000 7433.99999999999636202 -400.00000000000000000 -0.45636473489097457 0.88979280102049063 0.00000000000000000 0.88979280102049063 0.45636473489097457 0.00000000000000000 0.00000000000000000 0.00000000000000000 -1.00000000000000000 
1 0.00000000000000000 7299.13714219493158453 -400.00000000000000000 -1.00000000000000000 0.00000000000000000 0.00000000000000000 0.00000000000000000 1.00000000000000000 0.00000000000000000 0.00000000000000000 0.00000000000000000 -1.00000000000000000 
1 0.00000000000000000 0.00000000000000000 -400.00000000000000000 -1.00000000000000000 0.00000000000000000 0.00000000000000000 0.00000000000000000 1.00000000000000000 0.00000000000000000 0.00000000000000000 0.00000000000000000 -1.00000000000000000 
1 4803.00000000000000000 0.00000000000000000 -400.00000000000000000 0.00000000000000000 -1.00000000000000000 0.00000000000000000 -1.00000000000000000 0.00000000000000000 0.00000000000000000 -0.00000000000000000 -0.00000000000000000 -1.00000000000000000 
1 4803.00000000000000000 2813.00000000000000000 -400.00000000000000000 1.00000000000000000 0.00000000000000000 -0.00000000000000000 0.00000000000000000 -1.00000000000000000 0.00000000000000000 0.00000000000000000 -0.00000000000000000 -1.00000000000000000 
1 1858.00000000000000000 2813.00000000000000000 -400.00000000000000000 0.00000000000000000 1.00000000000000000 0.00000000000000000 1.00000000000000000 0.00000000000000000 0.00000000000000000 0.00000000000000000 0.00000000000000000 -1.00000000000000000 
1 1858.00000000000000000 3014.00000000000000000 -400.00000000000000000 1.00000000000000000 0.00000000000000000 -0.00000000000000000 0.00000000000000000 -1.00000000000000000 0.00000000000000000 0.00000000000000000 -0.00000000000000000 -1.00000000000000000 
1 3707.99999999999863576 3014.00000000000000000 -400.00000000000000000 0.00000000000000000 -1.00000000000000000 0.00000000000000000 -1.00000000000000000 0.00000000000000000 0.00000000000000000 -0.00000000000000000 -0.00000000000000000 -1.00000000000000000 
1 3707.99999999999863576 5530.99999999999454303 -400.00000000000000000 1.00000000000000000 0.00000000000000000 -0.00000000000000000 0.00000000000000000 -1.00000000000000000 0.00000000000000000 0.00000000000000000 -0.00000000000000000 -1.00000000000000000 
1 3136.99999999999909051 5530.99999999999454303 -400.00000000000000000 0.00000000000000000 1.00000000000000000 0.00000000000000000 1.00000000000000000 0.00000000000000000 0.00000000000000000 0.00000000000000000 0.00000000000000000 -1.00000000000000000 
Triangulations 0

TShapes 105
Ve
0.000000100000000
-150.000000000000000 7387.410827570073707 0.000000000000000
0 0

0101101
*
Ed
 0.000000100000000 1 1 0
1  1 0 0.000000000000000 2270.000000000000000
2  1 1 0 0.000000000000000 2270.000000000000000
0

0101000
+105 4 -105 6 *
Ve
0.000000100000000
3286.999999999999091 9150.209528595032680 0.000000000000000
0 0

0101101
*
Ed
 0.000000100000000 1 1 0
1  2 0 0.000000000000000 2270.000000000000000
2  2 1 0 0.000000000000000 2270.000000000000000
2  3 2 0 0.000000000000000 2270.000000000000000
0

0101000
+103 4 -103 6 *
Ed
 0.000000100000000 1 1 0
1  3 0 0.000000000000000 3862.697018966835458
2  4 3 7 0.000000000000000 3862.697018966835458
2  5 1 8 0.000000000000000 3862.697018966835458
2  6 1 9 0.000000000000000 3862.697018966835458
0

0101000
+105 0 -103 0 *
Wi

0101100
+104 0 -102 0 -101 4 +101 6 *
Fa
0  0.000000100000000 1 0

0111000
+100 0 *
Ve
0.000000100000000
3286.999999999999091 5680.999999999994543 0.000000000000000
0 0

0101101
*
Ed
 0.000000100000000 1 1 0
1  4 0 0.000000000000000 2270.000000000000000
2  7 2 0 0.000000000000000 2270.000000000000000
2  8 4 0 0.000000000000000 2270.000000000000000
0

0101000
+98 4 -98 6 *
Ed
 0.000000100000000 1 1 0
1  5 0 0.000000000000000 3469.209528595038137
2  9 3 7 0.000000000000000 3469.209528595038137
2  10 2 8 0.000000000000000 3469.209528595038137
2  11 2 9 0.000000000000000 3469.209528595038137
0

0101000
+103 0 -98 0 *
Wi

0101100
+102 0 -97 0 -96 4 +96 6 *
Fa
0  0.000000100000000 2 0

0111000
+95 0 *
Ve
0.000000100000000
3857.999999999998636 5680.999999999994543 0.000000000000000
0 0

0101101
*
Ed
 0.000000100000000 1 1 0
1  6 0 0.000000000000000 2270.000000000000000
2  12 4 0 0.000000000000000 2270.000000000000000
2  13 5 0 0.000000000000000 2270.000000000000000
0

0101000
+93 4 -93 6 *
Ed
 0.000000100000000 1 1 0
1  7 0 0.000000000000000 570.999999999999545
2  14 3 7 0.000000000000000 570.999999999999545
2  15 4 8 0.000000000000000 570.999999999999545
2  16 4 9 0.000000000000000 570.999999999999545
0

0101000
+98 0 -93 0 *
Wi

0101100
+97 0 -92 0 -91 4 +91 6 *
Fa
0  0.000000100000000 4 0

0111000
+90 0 *
Ve
0.000000100000000
3857.999999999998636 2963.000000000000000 0.000000000000000
0 0

0101101
*
Ed
 0.000000100000000 1 1 0
1  8 0 0.000000000000000 2270.000000000000000
2  17 5 0 0.000000000000000 2270.000000000000000
2  18 6 0 0.000000000000000 2270.000000000000000
0

0101000
+88 4 -88 6 *
Ed
 0.000000100000000 1 1 0
1  9 0 0.000000000000000 2717.999999999994543
2  19 3 7 0.000000000000000 2717.999999999994543
2  20 5 8 0.000000000000000 2717.999999999994543
2  21 5 9 0.000000000000000 2717.999999999994543
0

0101000
+93 0 -88 0 *
Wi

0101100
+92 0 -87 0 -86 4 +86 6 *
Fa
0  0.000000100000000 5 0

0111000
+85 0 *
Ve
0.000000100000000
4953.000000000000000 2963.000000000000000 0.000000000000000
0 0

0101101
*
Ed
 0.000000100000000 1 1 0
1  10 0 0.000000000000000 2270.000000000000000
2  22 6 0 0.000000000000000 2270.000000000000000
2  23 7 0 0.000000000000000 2270.000000000000000
0

0101000
+83 4 -83 6 *
Ed
 0.000000100000000 1 1 0
1  11 0 0.000000000000000 1095.000000000001364
2  24 3 7 0.000000000000000 1095.000000000001364
2  25 6 8 0.000000000000000 1095.000000000001364
2  26 6 9 0.000000000000000 1095.000000000001364
0

0101000
+88 0 -83 0 *
Wi

0101100
+87 0 -82 0 -81 4 +81 6 *
Fa
0  0.000000100000000 6 0

0111000
+80 0 *
Ve
0.000000100000000
4953.000000000000000 -150.000000000000000 0.000000000000000
0 0

0101101
*
Ed
 0.000000100000000 1 1 0
1  12 0 0.000000000000000 2270.000000000000000
2  27 7 0 0.000000000000000 2270.000000000000000
2  28 8 0 0.000000000000000 2270.000000000000000
0

0101000
+78 4 -78 6 *
Ed
 0.000000100000000 1 1 0
1  13 0 0.000000000000000 3113.000000000000000
2  29 3 7 0.000000000000000 3113.000000000000000
2  30 7 8 0.000000000000000 3113.000000000000000
2  31 7 9 0.000000000000000 3113.000000000000000
0

0101000
+83 0 -78 0 *
Wi

0101100
+82 0 -77 0 -76 4 +76 6 *
Fa
0  0.000000100000000 7 0

0111000
+75 0 *
Ve
0.000000100000000
-150.000000000000000 -150.000000000000000 0.000000000000000
0 0

0101101
*
Ed
 0.000000100000000 1 1 0
1  14 0 0.000000000000000 2270.000000000000000
2  32 8 0 0.000000000000000 2270.000000000000000
0

0101000
+73 4 -73 6 *
Ed
 0.000000100000000 1 1 0
1  15 0 0.000000000000000 5103.000000000000000
2  33 3 7 0.000000000000000 5103.000000000000000
2  34 8 8 0.000000000000000 5103.000000000000000
2  35 8 9 0.000000000000000 5103.000000000000000
0

0101000
+78 0 -73 0 *
Wi

0101100
+77 0 -72 0 -71 4 +71 6 *
Fa
0  0.000000100000000 8 0

0111000
+70 0 *
Ed
 0.000000100000000 1 1 0
1  16 0 0.000000000000000 7537.410827570073707
2  36 3 7 0.000000000000000 7537.410827570073707
0

0101000
+73 0 -105 0 *
Wi

0101100
+72 0 -104 0 -68 4 +68 6 *
Fa
0  0.000000100000000 9 0

0111000
+67 0 *
Ve
0.000000100000000
3136.999999999999091 8908.069212347765642 0.000000000000000
0 0

0101101
*
Ed
 0.000000100000000 1 1 0
1  17 0 0.000000000000000 2270.000000000000000
4 C2 10 0 11 0
2  37 11 0 0.000000000000000 2270.000000000000000
2  38 10 0 0.000000000000000 2270.000000000000000
0

0101000
+65 4 -65 6 *
Ve
0.000000100000000
3136.999999999999091 9042.932070152830420 0.000000000000000
0 0

0101101
*
Ed
 0.000000100000000 1 1 0
1  18 0 0.000000000000000 2270.000000000000000
2  39 10 0 0.000000000000000 2270.000000000000000
2  40 12 0 0.000000000000000 2270.000000000000000
0

0101000
+63 4 -63 6 *
Ed
 0.000000100000000 1 1 0
1  19 0 0.000000000000000 134.862857805064777
2  41 3 7 0.000000000000000 134.862857805064777
2  42 10 8 0.000000000000000 134.862857805064777
2  43 10 9 0.000000000000000 134.862857805064777
0

0101000
+65 0 -63 0 *
Wi

0101100
+64 0 -62 0 -61 4 +61 6 *
Fa
0  0.000000100000000 10 0

0111000
+60 0 *
Ve
0.000000100000000
0.000000000000000 7433.999999999996362 0.000000000000000
0 0

0101101
*
Ed
 0.000000100000000 1 1 0
1  20 0 0.000000000000000 2270.000000000000000
2  44 13 0 0.000000000000000 2270.000000000000000
2  45 12 0 0.000000000000000 2270.000000000000000
0

0101000
+58 4 -58 6 *
Ed
 0.000000100000000 1 1 0
1  21 0 0.000000000000000 3525.539874454163510
2  46 3 7 0.000000000000000 3525.539874454163510
2  47 12 8 0.000000000000000 3525.539874454163510
2  48 12 9 0.000000000000000 3525.539874454163510
0

0101000
+58 0 -63 0 *
Wi

0101100
+57 0 -62 0 -56 4 +56 6 *
Fa
0  0.000000100000000 12 0

0111000
+55 0 *
Ve
0.000000100000000
0.000000000000000 7299.137142194931585 0.000000000000000
0 0

0101101
*
Ed
 0.000000100000000 1 1 0
1  22 0 0.000000000000000 2270.000000000000000
4 C2 13 0 14 0
2  49 14 0 0.000000000000000 2270.000000000000000
2  50 13 0 0.000000000000000 2270.000000000000000
0

0101000
+53 4 -53 6 *
Ed
 0.000000100000000 1 1 0
1  23 0 0.000000000000000 134.862857805064777
2  51 13 8 0.000000000000000 134.862857805064777
2  52 13 9 0.000000000000000 134.862857805064777
2  53 3 7 0.000000000000000 134.862857805064777
0

0101000
+53 0 -58 0 *
Wi

0101100
+52 0 -57 0 -51 4 +51 6 *
Fa
0  0.000000100000000 13 0

0111000
+50 0 *
Ve
0.000000100000000
0.000000000000000 0.000000000000000 0.000000000000000
0 0

0101101
*
Ed
 0.000000100000000 1 1 0
1  24 0 0.000000000000000 2270.000000000000000
2  54 14 0 0.000000000000000 2270.000000000000000
2  55 15 0 0.000000000000000 2270.000000000000000
0

0101000
+48 4 -48 6 *
Ed
 0.000000100000000 1 1 0
1  25 0 0.000000000000000 7299.137142194931585
2  56 14 8 0.000000000000000 7299.137142194931585
2  57 14 9 0.000000000000000 7299.137142194931585
2  58 3 7 0.000000000000000 7299.137142194931585
0

0101000
+48 0 -53 0 *
Wi

0101100
+47 0 -52 0 -46 4 +46 6 *
Fa
0  0.000000100000000 14 0

0111000
+45 0 *
Ve
0.000000100000000
4803.000000000000000 0.000000000000000 0.000000000000000
0 0

0101101
*
Ed
 0.000000100000000 1 1 0
1  26 0 0.000000000000000 2270.000000000000000
2  59 15 0 0.000000000000000 2270.000000000000000
2  60 16 0 0.000000000000000 2270.000000000000000
0

0101000
+43 4 -43 6 *
Ed
 0.000000100000000 1 1 0
1  27 0 0.000000000000000 4803.000000000000000
2  61 15 8 0.000000000000000 4803.000000000000000
2  62 15 9 0.000000000000000 4803.000000000000000
2  63 3 7 0.000000000000000 4803.000000000000000
0

0101000
+43 0 -48 0 *
Wi

0101100
+42 0 -47 0 -41 4 +41 6 *
Fa
0  0.000000100000000 15 0

0111000
+40 0 *
Ve
0.000000100000000
4803.000000000000000 2813.000000000000000 0.000000000000000
0 0

0101101
*
Ed
 0.000000100000000 1 1 0
1  28 0 0.000000000000000 2270.000000000000000
2  64 16 0 0.000000000000000 2270.000000000000000
2  65 17 0 0.000000000000000 2270.000000000000000
0

0101000
+38 4 -38 6 *
Ed
 0.000000100000000 1 1 0
1  29 0 0.000000000000000 2813.000000000000000
2  66 3 7 0.000000000000000 2813.000000000000000
2  67 16 8 0.000000000000000 2813.000000000000000
2  68 16 9 0.000000000000000 2813.000000000000000
0

0101000
+38 0 -43 0 *
Wi

0101100
+37 0 -42 0 -36 4 +36 6 *
Fa
0  0.000000100000000 16 0

0111000
+35 0 *
Ve
0.000000100000000
1858.000000000000000 2813.000000000000000 0.000000000000000
0 0

0101101
*
Ed
 0.000000100000000 1 1 0
1  30 0 0.000000000000000 2270.000000000000000
2  69 17 0 0.000000000000000 2270.000000000000000
2  70 18 0 0.000000000000000 2270.000000000000000
0

0101000
+33 4 -33 6 *
Ed
 0.000000100000000 1 1 0
1  31 0 0.000000000000000 2945.000000000000000
2  71 3 7 0.000000000000000 2945.000000000000000
2  72 17 8 0.000000000000000 2945.000000000000000
2  73 17 9 0.000000000000000 2945.000000000000000
0

0101000
+33 0 -38 0 *
Wi

0101100
+32 0 -37 0 -31 4 +31 6 *
Fa
0  0.000000100000000 17 0

0111000
+30 0 *
Ve
0.000000100000000
1858.000000000000000 3014.000000000000000 0.000000000000000
0 0

0101101
*
Ed
 0.000000100000000 1 1 0
1  32 0 0.000000000000000 2270.000000000000000
2  74 18 0 0.000000000000000 2270.000000000000000
2  75 19 0 0.000000000000000 2270.000000000000000
0

0101000
+28 4 -28 6 *
Ed
 0.000000100000000 1 1 0
1  33 0 0.000000000000000 201.000000000000000
2  76 3 7 0.000000000000000 201.000000000000000
2  77 18 8 0.000000000000000 201.000000000000000
2  78 18 9 0.000000000000000 201.000000000000000
0

0101000
+28 0 -33 0 *
Wi

0101100
+27 0 -32 0 -26 4 +26 6 *
Fa
0  0.000000100000000 18 0

0111000
+25 0 *
Ve
0.000000100000000
3707.999999999998636 3014.000000000000000 0.000000000000000
0 0

0101101
*
Ed
 0.000000100000000 1 1 0
1  34 0 0.000000000000000 2270.000000000000000
2  79 20 0 0.000000000000000 2270.000000000000000
2  80 19 0 0.000000000000000 2270.000000000000000
0

0101000
+23 4 -23 6 *
Ed
 0.000000100000000 1 1 0
1  35 0 0.000000000000000 1849.999999999998636
2  81 3 7 0.000000000000000 1849.999999999998636
2  82 19 8 0.000000000000000 1849.999999999998636
2  83 19 9 0.000000000000000 1849.999999999998636
0

0101000
+23 0 -28 0 *
Wi

0101100
+22 0 -27 0 -21 4 +21 6 *
Fa
0  0.000000100000000 19 0

0111000
+20 0 *
Ve
0.000000100000000
3707.999999999998636 5530.999999999994543 0.000000000000000
0 0

0101101
*
Ed
 0.000000100000000 1 1 0
1  36 0 0.000000000000000 2270.000000000000000
2  84 21 0 0.000000000000000 2270.000000000000000
2  85 20 0 0.000000000000000 2270.000000000000000
0

0101000
+18 4 -18 6 *
Ed
 0.000000100000000 1 1 0
1  37 0 0.000000000000000 2516.999999999994543
2  86 3 7 0.000000000000000 2516.999999999994543
2  87 20 8 0.000000000000000 2516.999999999994543
2  88 20 9 0.000000000000000 2516.999999999994543
0

0101000
+18 0 -23 0 *
Wi

0101100
+17 0 -22 0 -16 4 +16 6 *
Fa
0  0.000000100000000 20 0

0111000
+15 0 *
Ve
0.000000100000000
3136.999999999999091 5530.999999999994543 0.000000000000000
0 0

0101101
*
Ed
 0.000000100000000 1 1 0
1  38 0 0.000000000000000 2270.000000000000000
2  89 21 0 0.000000000000000 2270.000000000000000
2  90 11 0 0.000000000000000 2270.000000000000000
0

0101000
+13 4 -13 6 *
Ed
 0.000000100000000 1 1 0
1  39 0 0.000000000000000 570.999999999999545
2  91 3 7 0.000000000000000 570.999999999999545
2  92 21 8 0.000000000000000 570.999999999999545
2  93 21 9 0.000000000000000 570.999999999999545
0

0101000
+13 0 -18 0 *
Wi

0101100
+12 0 -17 0 -11 4 +11 6 *
Fa
0  0.000000100000000 21 0

0111000
+10 0 *
Ed
 0.000000100000000 1 1 0
1  40 0 0.000000000000000 3377.069212347771099
2  94 3 7 0.000000000000000 3377.069212347771099
2  95 11 8 0.000000000000000 3377.069212347771099
2  96 11 9 0.000000000000000 3377.069212347771099
0

0101000
+65 0 -13 0 *
Wi

0101100
+64 0 -12 0 -8 4 +8 6 *
Fa
0  0.000000100000000 11 0

0111000
+7 0 *
Wi

0101100
+101 11 +96 11 +91 11 +86 11 +81 11 +76 11 +71 11 +68 11 *
Wi

0101100
+61 11 -56 11 -51 11 -46 11 -41 11 -36 11 -31 11 -26 11 -21 11 -16 11 
-11 11 -8 11 *
Fa
0  0.000000100000000 3 0

0111000
+5 0 +4 0 *
Sh

0101100
+99 0 +94 0 +89 0 +84 0 +79 0 +74 0 +69 0 +66 0 +59 0 -54 0 
-49 0 -44 0 -39 0 -34 0 -29 0 -24 0 -19 0 -14 0 -9 0 -6 0 
+3 10 -3 12 *
So

1100000
+2 0 *

+1 0 