
CASCADE Topology V1, (c) Matra-Datavision
Locations 11
1
1.000000000000000 0.000000000000000 0.000000000000000 0.000000000000000 
0.000000000000000 1.000000000000000 0.000000000000000 0.000000000000000 
0.000000000000000 0.000000000000000 1.000000000000000 0.000000000000000 
1
1.000000000000000 0.000000000000000 0.000000000000000 0.000000000000000 
0.000000000000000 1.000000000000000 0.000000000000000 0.000000000000000 
0.000000000000000 0.000000000000000 1.000000000000000 0.000000000000000 
1
1.000000000000000 0.000000000000000 0.000000000000000 0.000000000000000 
0.000000000000000 1.000000000000000 0.000000000000000 0.000000000000000 
0.000000000000000 0.000000000000000 1.000000000000000 0.000000000000000 
2  1 1 2 1 3 -1 0
1
1.000000000000000 0.000000000000000 0.000000000000000 -0.000000000000000 
0.000000000000000 1.000000000000000 0.000000000000000 -0.000000000000000 
0.000000000000000 0.000000000000000 1.000000000000000 -50.000000000000000 
2  1 1 2 1 3 -1 5 1 0
2  3 1 2 -1 1 -1 0
2  5 -1 3 1 2 -1 1 -1 0
2  3 -1 0
2  1 1 2 1 0
2  3 -1 5 1 0
Curve2ds 16
1 0.00000000000000000 0.00000000000000000 0.00000000000000000 -1.00000000000000000 
1 166.78568583027617933 0.00000000000000000 0.00000000000000000 -1.00000000000000000 
1 0.00000000000000000 0.00000000000000000 0.00000000000000000 -1.00000000000000000 
1 0.00000000000000000 0.00000000000000000 1.00000000000000000 0.00000000000000000 
1 0.00000000000000000 -50.00000000000000000 1.00000000000000000 0.00000000000000000 
1 0.00000000000000000 0.00000000000000000 0.00000000000000000 -1.00000000000000000 
1 1250.09616680844192160 0.00000000000000000 0.00000000000000000 -1.00000000000000000 
1 0.00000000000000000 0.00000000000000000 1.00000000000000000 0.00000000000000000 
1 0.00000000000000000 -50.00000000000000000 1.00000000000000000 0.00000000000000000 
1 0.00000000000000000 0.00000000000000000 0.00000000000000000 -1.00000000000000000 
1 225.09953451169849359 0.00000000000000000 0.00000000000000000 -1.00000000000000000 
1 0.00000000000000000 0.00000000000000000 1.00000000000000000 0.00000000000000000 
1 0.00000000000000000 -50.00000000000000000 1.00000000000000000 0.00000000000000000 
1 485.84070096790878779 0.00000000000000000 0.00000000000000000 -1.00000000000000000 
1 0.00000000000000000 0.00000000000000000 1.00000000000000000 0.00000000000000000 
1 0.00000000000000000 -50.00000000000000000 1.00000000000000000 0.00000000000000000 
Curves 10
1 2724.99999999999954525 -973.00000000000000000 0.00000000000000000 -0.00000000000000000 -0.00000000000000000 -1.00000000000000000 
1 2558.21431416972336592 -973.00000000000000000 0.00000000000000000 -0.00000000000000000 -0.00000000000000000 -1.00000000000000000 
1 2724.99999999999954525 -973.00000000000000000 0.00000000000000000 -1.00000000000000000 0.00000000000000000 0.00000000000000000 
1 3455.90046548830059692 -1843.00000000000000000 0.00000000000000000 -0.00000000000000000 -0.00000000000000000 -1.00000000000000000 
1 2558.21431416972336592 -973.00000000000000000 0.00000000000000000 0.71809367563330351 -0.69594645844019642 0.00000000000000000 
1 3680.99999999999909051 -1843.00000000000000000 0.00000000000000000 -0.00000000000000000 -0.00000000000000000 -1.00000000000000000 
1 3455.90046548830059692 -1843.00000000000000000 0.00000000000000000 1.00000000000000000 0.00000000000000000 0.00000000000000000 
1 3680.99999999999909051 -1357.15929903209121221 0.00000000000000000 -0.00000000000000000 -0.00000000000000000 -1.00000000000000000 
1 3680.99999999999909051 -1843.00000000000000000 0.00000000000000000 0.00000000000000000 1.00000000000000000 0.00000000000000000 
1 3680.99999999999909051 -1357.15929903209121221 0.00000000000000000 -0.92788670916328264 0.37286224662485429 0.00000000000000000 
Polygon3D 0
PolygonOnTriangulations 0
Surfaces 6
1 2724.99999999999954525 -973.00000000000000000 0.00000000000000000 0.00000000000000000 1.00000000000000000 -0.00000000000000000 -1.00000000000000000 0.00000000000000000 0.00000000000000000 0.00000000000000000 0.00000000000000000 1.00000000000000000 
1 2558.21431416972336592 -973.00000000000000000 0.00000000000000000 -0.69594645844019642 -0.71809367563330351 0.00000000000000000 0.71809367563330351 -0.69594645844019642 0.00000000000000000 0.00000000000000000 0.00000000000000000 1.00000000000000000 
1 3455.90046548830059692 -1843.00000000000000000 0.00000000000000000 0.00000000000000000 -1.00000000000000000 0.00000000000000000 1.00000000000000000 0.00000000000000000 0.00000000000000000 -0.00000000000000000 0.00000000000000000 1.00000000000000000 
1 3680.99999999999909051 -1843.00000000000000000 0.00000000000000000 1.00000000000000000 0.00000000000000000 0.00000000000000000 -0.00000000000000000 1.00000000000000000 0.00000000000000000 0.00000000000000000 -0.00000000000000000 1.00000000000000000 
1 3680.99999999999909051 -1357.15929903209121221 0.00000000000000000 0.37286224662485429 0.92788670916328264 -0.00000000000000000 -0.92788670916328264 0.37286224662485429 0.00000000000000000 0.00000000000000000 0.00000000000000000 1.00000000000000000 
1 3195.37367113074651570 -1366.33161794169768655 0.00000000000000000 0.00000000000000000 0.00000000000000000 1.00000000000000000 1.00000000000000000 0.00000000000000000 -0.00000000000000000 -0.00000000000000000 1.00000000000000000 0.00000000000000000 
Triangulations 0

TShapes 29
Ve
0.000000100000000
2724.999999999999545 -973.000000000000000 0.000000000000000
0 0

0101101
*
Ed
 0.000000100000000 1 1 0
1  1 0 0.000000000000000 50.000000000000000
2  1 1 0 0.000000000000000 50.000000000000000
0

0101000
+29 4 -29 6 *
Ve
0.000000100000000
2558.214314169723366 -973.000000000000000 0.000000000000000
0 0

0101101
*
Ed
 0.000000100000000 1 1 0
1  2 0 0.000000000000000 50.000000000000000
2  2 1 0 0.000000000000000 50.000000000000000
2  3 2 0 0.000000000000000 50.000000000000000
0

0101000
+27 4 -27 6 *
Ed
 0.000000100000000 1 1 0
1  3 0 0.000000000000000 166.785685830276179
2  4 1 7 0.000000000000000 166.785685830276179
2  5 1 8 0.000000000000000 166.785685830276179
0

0101000
+29 0 -27 0 *
Wi

0101100
+28 0 -26 0 -25 4 +25 6 *
Fa
0  0.000000100000000 1 0

0111000
+24 0 *
Ve
0.000000100000000
3455.900465488300597 -1843.000000000000000 0.000000000000000
0 0

0101101
*
Ed
 0.000000100000000 1 1 0
1  4 0 0.000000000000000 50.000000000000000
2  6 3 0 0.000000000000000 50.000000000000000
2  7 2 0 0.000000000000000 50.000000000000000
0

0101000
+22 4 -22 6 *
Ed
 0.000000100000000 1 1 0
1  5 0 0.000000000000000 1250.096166808441922
2  8 2 7 0.000000000000000 1250.096166808441922
2  9 2 8 0.000000000000000 1250.096166808441922
0

0101000
+27 0 -22 0 *
Wi

0101100
+26 0 -21 0 -20 4 +20 6 *
Fa
0  0.000000100000000 2 0

0111000
+19 0 *
Ve
0.000000100000000
3680.999999999999091 -1843.000000000000000 0.000000000000000
0 0

0101101
*
Ed
 0.000000100000000 1 1 0
1  6 0 0.000000000000000 50.000000000000000
2  10 4 0 0.000000000000000 50.000000000000000
2  11 3 0 0.000000000000000 50.000000000000000
0

0101000
+17 4 -17 6 *
Ed
 0.000000100000000 1 1 0
1  7 0 0.000000000000000 225.099534511698494
2  12 3 7 0.000000000000000 225.099534511698494
2  13 3 8 0.000000000000000 225.099534511698494
0

0101000
+22 0 -17 0 *
Wi

0101100
+21 0 -16 0 -15 4 +15 6 *
Fa
0  0.000000100000000 3 0

0111000
+14 0 *
Ve
0.000000100000000
3680.999999999999091 -1357.159299032091212 0.000000000000000
0 0

0101101
*
Ed
 0.000000100000000 1 1 0
1  8 0 0.000000000000000 50.000000000000000
2  14 4 0 0.000000000000000 50.000000000000000
0

0101000
+12 4 -12 6 *
Ed
 0.000000100000000 1 1 0
1  9 0 0.000000000000000 485.840700967908788
2  15 4 7 0.000000000000000 485.840700967908788
2  16 4 8 0.000000000000000 485.840700967908788
0

0101000
+17 0 -12 0 *
Wi

0101100
+16 0 -11 0 -10 4 +10 6 *
Fa
0  0.000000100000000 4 0

0111000
+9 0 *
Ed
 0.000000100000000 1 1 0
1  10 0 0.000000000000000 1030.298193259032587
0

0101000
+12 0 -29 0 *
Wi

0101100
+11 0 -28 0 -7 4 +7 6 *
Fa
0  0.000000100000000 5 0

0111000
+6 0 *
Wi

0101100
+25 0 +20 0 +15 0 +10 0 +7 0 *
Fa
0  0.000000100000000 6 0

0111000
+4 10 *
Sh

0101100
+23 0 +18 0 +13 0 +8 0 +5 0 +3 9 -3 11 *
So

1100000
+2 0 *

+1 0 