
CASCADE Topology V1, (c) Matra-Datavision
Locations 45
1
1.000000000000000 0.000000000000000 0.000000000000000 0.000000000000000 
0.000000000000000 1.000000000000000 0.000000000000000 0.000000000000000 
0.000000000000000 0.000000000000000 1.000000000000000 0.000000000000000 
1
1.000000000000000 0.000000000000000 0.000000000000000 0.000000000000000 
0.000000000000000 1.000000000000000 0.000000000000000 0.000000000000000 
0.000000000000000 0.000000000000000 1.000000000000000 0.000000000000000 
1
1.000000000000000 0.000000000000000 0.000000000000000 0.000000000000000 
0.000000000000000 1.000000000000000 0.000000000000000 0.000000000000000 
0.000000000000000 0.000000000000000 1.000000000000000 0.000000000000000 
1
1.000000000000000 0.000000000000000 0.000000000000000 0.000000000000000 
0.000000000000000 1.000000000000000 0.000000000000000 0.000000000000000 
0.000000000000000 0.000000000000000 1.000000000000000 0.000000000000000 
1
1.000000000000000 0.000000000000000 0.000000000000000 0.000000000000000 
0.000000000000000 1.000000000000000 0.000000000000000 0.000000000000000 
0.000000000000000 0.000000000000000 1.000000000000000 0.000000000000000 
2  2 1 3 -1 4 1 5 -1 0
1
1.000000000000000 0.000000000000000 0.000000000000000 0.000000000000000 
0.000000000000000 1.000000000000000 0.000000000000000 0.000000000000000 
0.000000000000000 0.000000000000000 1.000000000000000 0.000000000000000 
1
1.000000000000000 0.000000000000000 0.000000000000000 0.000000000000000 
0.000000000000000 1.000000000000000 0.000000000000000 0.000000000000000 
0.000000000000000 0.000000000000000 1.000000000000000 0.000000000000000 
1
1.000000000000000 0.000000000000000 0.000000000000000 0.000000000000000 
0.000000000000000 1.000000000000000 0.000000000000000 0.000000000000000 
0.000000000000000 0.000000000000000 1.000000000000000 0.000000000000000 
2  7 1 8 1 9 -1 0
1
1.000000000000000 0.000000000000000 0.000000000000000 -0.000000000000000 
0.000000000000000 1.000000000000000 0.000000000000000 -0.000000000000000 
0.000000000000000 0.000000000000000 1.000000000000000 -50.000000000000000 
2  7 1 8 1 9 -1 11 1 0
2  7 1 8 1 9 -1 2 1 3 -1 4 1 5 -1 0
2  9 1 8 -1 7 -1 0
2  11 -1 9 1 8 -1 7 -1 0
2  7 1 8 1 9 -1 11 1 2 1 3 -1 4 1 5 -1 0
1
1.000000000000000 0.000000000000000 0.000000000000000 0.000000000000000 
0.000000000000000 1.000000000000000 0.000000000000000 0.000000000000000 
0.000000000000000 0.000000000000000 1.000000000000000 0.000000000000000 
1
-1.000000000000000 0.000000000000000 0.000000000000000 0.000000000000000 
0.000000000000000 0.000000000000000 1.000000000000000 -1020.000000000000000 
0.000000000000000 1.000000000000000 -0.000000000000000 0.000000000000000 
2  17 1 18 1 5 -1 0
2  5 1 18 -1 17 -1 0
1
1.000000000000000 0.000000000000000 0.000000000000000 0.000000000000000 
0.000000000000000 1.000000000000000 0.000000000000000 -5.000000000000000 
0.000000000000000 0.000000000000000 1.000000000000000 0.000000000000001 
2  21 -1 5 1 18 -1 17 -1 0
2  18 -1 17 -1 0
2  2 1 3 -1 4 1 18 -1 17 -1 0
2  9 -1 2 1 3 -1 4 1 5 -1 0
2  7 1 8 1 0
2  9 -1 11 1 2 1 3 -1 4 1 5 -1 0
2  17 1 18 1 5 -1 21 1 0
2  4 1 5 -1 0
2  2 1 3 -1 0
2  7 1 8 1 9 -1 2 1 3 -1 0
2  7 1 8 1 9 -1 11 1 2 1 3 -1 0
1
1.000000000000000 0.000000000000000 0.000000000000000 0.000000000000000 
0.000000000000000 1.000000000000000 0.000000000000000 0.000000000000000 
0.000000000000000 0.000000000000000 1.000000000000000 0.000000000000000 
1
1.000000000000000 0.000000000000000 0.000000000000000 0.000000000000000 
0.000000000000000 0.000000000000000 -1.000000000000000 -1842.999999999998408 
0.000000000000000 1.000000000000000 0.000000000000000 0.000000000000000 
2  33 1 34 1 3 -1 0
2  3 1 34 -1 33 -1 0
1
1.000000000000000 0.000000000000000 0.000000000000000 0.000000000000000 
0.000000000000000 1.000000000000000 0.000000000000000 5.000000000000000 
0.000000000000000 0.000000000000000 1.000000000000000 -0.000000000000001 
2  37 -1 3 1 34 -1 33 -1 0
2  34 -1 33 -1 0
2  2 1 34 -1 33 -1 0
2  5 -1 21 1 0
2  17 1 18 1 0
2  33 1 34 1 3 -1 37 1 0
2  3 -1 37 1 4 1 5 -1 0
2  33 1 34 1 0
Curve2ds 40
1 0.00000000000000000 0.00000000000000000 0.00000000000000000 -1.00000000000000000 
1 0.00000000000000000 0.00000000000000000 1.00000000000000000 0.00000000000000000 
1 0.00000000000000000 -50.00000000000000000 1.00000000000000000 0.00000000000000000 
1 181.29490514817871372 0.00000000000000000 0.00000000000000000 -1.00000000000000000 
1 0.00000000000000000 0.00000000000000000 0.00000000000000000 -1.00000000000000000 
1 0.00000000000000000 0.00000000000000000 1.00000000000000000 0.00000000000000000 
1 0.00000000000000000 -5.00000000000000000 1.00000000000000000 0.00000000000000000 
2 -0.00000000000000355 0.00000000000000000 0.00000000000000000 -1.00000000000000000 1.00000000000000000 0.00000000000000000 5.00000000000000000
2 40.00000000000000000 -25.00000000000000000 1.00000000000000000 0.00000000000000000 -0.00000000000000000 1.00000000000000000 5.00000000000000000
1 0.00000000000000000 0.00000000000000000 1.00000000000000000 0.00000000000000000 
1 0.00000000000000000 -5.00000000000000000 1.00000000000000000 0.00000000000000000 
2 -0.00000000000000355 0.00000000000045475 0.00000000000000000 -1.00000000000000000 1.00000000000000000 0.00000000000000000 5.00000000000000000
2 141.29490514817871372 -25.00000000000000000 1.00000000000000000 0.00000000000000000 -0.00000000000000000 1.00000000000000000 5.00000000000000000
1 288.99999999999840838 0.00000000000000000 0.00000000000000000 -1.00000000000000000 
1 0.00000000000000000 0.00000000000000000 1.00000000000000000 0.00000000000000000 
1 0.00000000000000000 -50.00000000000000000 1.00000000000000000 0.00000000000000000 
1 0.00000000000000000 0.00000000000000000 1.00000000000000000 0.00000000000000000 
1 0.00000000000000000 -50.00000000000000000 1.00000000000000000 0.00000000000000000 
1 0.00000000000000000 0.00000000000000000 1.00000000000000000 0.00000000000000000 
1 0.00000000000000000 -50.00000000000000000 1.00000000000000000 0.00000000000000000 
1 0.00000000000000000 0.00000000000000000 0.00000000000000000 -1.00000000000000000 
1 1130.87039097563433643 0.00000000000000000 0.00000000000000000 -1.00000000000000000 
1 0.00000000000000000 0.00000000000000000 0.00000000000000000 -1.00000000000000000 
1 6.28318530717958623 0.00000000000000000 0.00000000000000000 -1.00000000000000000 
1 0.00000000000000000 0.00000000000000000 0.00000000000000000 -1.00000000000000000 
1 6.28318530717958623 0.00000000000000000 0.00000000000000000 -1.00000000000000000 
1 429.96332398423692212 0.00000000000000000 0.00000000000000000 -1.00000000000000000 
1 0.00000000000000000 0.00000000000000000 0.00000000000000000 -1.00000000000000000 
1 0.00000000000000000 0.00000000000000000 1.00000000000000000 0.00000000000000000 
1 0.00000000000000000 -5.00000000000000000 1.00000000000000000 0.00000000000000000 
2 0.00000000000000355 -0.00000000000000000 0.00000000000000000 1.00000000000000000 -1.00000000000000000 0.00000000000000000 5.00000000000000000
2 80.00000000000000000 -25.00000000000000000 1.00000000000000000 0.00000000000000000 -0.00000000000000000 1.00000000000000000 5.00000000000000000
1 0.00000000000000000 0.00000000000000000 1.00000000000000000 0.00000000000000000 
1 0.00000000000000000 -5.00000000000000000 1.00000000000000000 0.00000000000000000 
2 -0.00000000000090949 0.00000000000000355 -1.00000000000000000 -0.00000000000000000 0.00000000000000000 -1.00000000000000000 5.00000000000000000
2 349.96332398423692212 -25.00000000000000000 1.00000000000000000 0.00000000000000000 -0.00000000000000000 1.00000000000000000 5.00000000000000000
1 0.00000000000000000 0.00000000000000000 0.00000000000000000 -1.00000000000000000 
1 6.28318530717958623 0.00000000000000000 0.00000000000000000 -1.00000000000000000 
1 0.00000000000000000 0.00000000000000000 0.00000000000000000 -1.00000000000000000 
1 6.28318530717958623 0.00000000000000000 0.00000000000000000 -1.00000000000000000 
Curves 18
1 3751.74223029236964067 -1020.00000000000000000 0.00000000000000000 -0.00000000000000000 -0.00000000000000000 -1.00000000000000000 
1 3751.74223029236964067 -1020.00000000000000000 0.00000000000000000 -1.00000000000000000 0.00000000000000000 0.00000000000000000 
1 3570.44732514419092695 -1020.00000000000000000 0.00000000000000000 -0.00000000000000000 -0.00000000000000000 -1.00000000000000000 
2 -3711.74223029236964067 -25.00000000000000000 0.00000000000000000 0.00000000000000000 0.00000000000000000 1.00000000000000000 1.00000000000000000 0.00000000000000000 -0.00000000000000000 -0.00000000000000000 1.00000000000000000 0.00000000000000000 5.00000000000000000
2 -3610.44732514419092695 -25.00000000000000000 0.00000000000000000 0.00000000000000000 0.00000000000000000 1.00000000000000000 1.00000000000000000 0.00000000000000000 -0.00000000000000000 -0.00000000000000000 1.00000000000000000 0.00000000000000000 5.00000000000000000
1 4776.00000000000000000 -1554.00000000000000000 0.00000000000000000 -0.00000000000000000 -0.00000000000000000 -1.00000000000000000 
1 4776.00000000000000000 -1554.00000000000000000 0.00000000000000000 -0.88672517215815383 0.46229694900690449 0.00000000000000000 
1 3570.44732514419092695 -1020.00000000000000000 0.00000000000000000 0.68583398863458522 -0.72775802299498948 0.00000000000000000 
1 4346.03667601576307788 -1842.99999999999840838 0.00000000000000000 1.00000000000000000 0.00000000000000000 0.00000000000000000 
1 4776.00000000000000000 -1842.99999999999840838 0.00000000000000000 0.00000000000000000 1.00000000000000000 0.00000000000000000 
1 4346.03667601576307788 -1842.99999999999840838 0.00000000000000000 -0.00000000000000000 -0.00000000000000000 -1.00000000000000000 
1 3706.74223029236964067 -1020.00000000000000000 -25.00000000000000000 0.00000000000000000 -1.00000000000000000 0.00000000000000022 
1 3605.44732514419092695 -1020.00000000000000000 -25.00000000000000000 0.00000000000000000 -1.00000000000000000 0.00000000000000022 
1 4776.00000000000000000 -1842.99999999999840838 0.00000000000000000 -0.00000000000000000 -0.00000000000000000 -1.00000000000000000 
2 4426.03667601576307788 -25.00000000000000000 0.00000000000000000 0.00000000000000000 0.00000000000000000 1.00000000000000000 1.00000000000000000 0.00000000000000000 -0.00000000000000000 -0.00000000000000000 1.00000000000000000 0.00000000000000000 5.00000000000000000
2 4696.00000000000000000 -25.00000000000000000 0.00000000000000000 0.00000000000000000 0.00000000000000000 1.00000000000000000 1.00000000000000000 0.00000000000000000 -0.00000000000000000 -0.00000000000000000 1.00000000000000000 0.00000000000000000 5.00000000000000000
1 4431.03667601576307788 -1842.99999999999840838 -25.00000000000000000 0.00000000000000000 1.00000000000000000 -0.00000000000000022 
1 4701.00000000000000000 -1842.99999999999840838 -25.00000000000000000 0.00000000000000000 1.00000000000000000 -0.00000000000000022 
Polygon3D 0
PolygonOnTriangulations 0
Surfaces 14
1 3751.74223029236964067 -1020.00000000000000000 0.00000000000000000 0.00000000000000000 1.00000000000000000 -0.00000000000000000 -1.00000000000000000 0.00000000000000000 0.00000000000000000 0.00000000000000000 0.00000000000000000 1.00000000000000000 
1 3570.44732514419092695 -1020.00000000000000000 0.00000000000000000 -0.72775802299498948 -0.68583398863458522 0.00000000000000000 0.68583398863458522 -0.72775802299498948 0.00000000000000000 0.00000000000000000 0.00000000000000000 1.00000000000000000 
2 3711.74223029236964067 -1020.00000000000000000 -25.00000000000000000 0.00000000000000000 1.00000000000000000 -0.00000000000000022 -1.00000000000000000 0.00000000000000000 0.00000000000000000 0.00000000000000000 0.00000000000000022 1.00000000000000000 5.00000000000000000
1 3711.74223029236964067 -1020.00000000000000000 -24.99999999999999645 0.00000000000000000 1.00000000000000000 0.00000000000000000 0.00000000000000000 -0.00000000000000000 1.00000000000000000 1.00000000000000000 0.00000000000000000 -0.00000000000000000 
2 3610.44732514419092695 -1020.00000000000000000 -25.00000000000000000 0.00000000000000000 1.00000000000000000 -0.00000000000000022 -1.00000000000000000 0.00000000000000000 0.00000000000000000 0.00000000000000000 0.00000000000000022 1.00000000000000000 5.00000000000000000
1 3610.44732514419047220 -1020.00000000000000000 -24.99999999999999645 0.00000000000000000 1.00000000000000000 0.00000000000000000 0.00000000000000000 -0.00000000000000000 1.00000000000000000 1.00000000000000000 0.00000000000000000 -0.00000000000000000 
1 4776.00000000000000000 -1554.00000000000000000 0.00000000000000000 0.46229694900690449 0.88672517215815383 -0.00000000000000000 -0.88672517215815383 0.46229694900690449 0.00000000000000000 0.00000000000000000 0.00000000000000000 1.00000000000000000 
1 4776.00000000000000000 -1842.99999999999840838 0.00000000000000000 1.00000000000000000 0.00000000000000000 0.00000000000000000 -0.00000000000000000 1.00000000000000000 0.00000000000000000 0.00000000000000000 -0.00000000000000000 1.00000000000000000 
1 4207.64808014275058667 -1435.44756648862403381 0.00000000000000000 0.00000000000000000 0.00000000000000000 1.00000000000000000 1.00000000000000000 0.00000000000000000 -0.00000000000000000 -0.00000000000000000 1.00000000000000000 0.00000000000000000 
1 4346.03667601576307788 -1842.99999999999840838 0.00000000000000000 0.00000000000000000 -1.00000000000000000 0.00000000000000000 1.00000000000000000 0.00000000000000000 0.00000000000000000 -0.00000000000000000 0.00000000000000000 1.00000000000000000 
2 4426.03667601576307788 -1842.99999999999840838 -25.00000000000000000 0.00000000000000000 -1.00000000000000000 0.00000000000000022 1.00000000000000000 0.00000000000000000 0.00000000000000000 -0.00000000000000000 0.00000000000000022 1.00000000000000000 5.00000000000000000
1 4426.03667601576307788 -1842.99999999999818101 -24.99999999999999645 -0.00000000000000000 -1.00000000000000000 0.00000000000000000 0.00000000000000000 -0.00000000000000000 -1.00000000000000000 1.00000000000000000 0.00000000000000000 0.00000000000000000 
2 4696.00000000000000000 -1842.99999999999840838 -25.00000000000000000 0.00000000000000000 -1.00000000000000000 0.00000000000000022 1.00000000000000000 0.00000000000000000 0.00000000000000000 -0.00000000000000000 0.00000000000000022 1.00000000000000000 5.00000000000000000
1 4695.99999999999909051 -1842.99999999999818101 -24.99999999999999645 -0.00000000000000000 -1.00000000000000000 0.00000000000000000 -1.00000000000000000 0.00000000000000000 0.00000000000000000 -0.00000000000000000 0.00000000000000000 -1.00000000000000000 
Triangulations 0

TShapes 61
Ve
0.000000100000000
3751.742230292369641 -1020.000000000000000 0.000000000000000
0 0

0101101
*
Ed
 0.000000100000000 1 1 0
1  1 0 0.000000000000000 50.000000000000000
2  1 1 0 0.000000000000000 50.000000000000000
0

0101000
+61 10 -61 12 *
Ve
0.000000100000000
3570.447325144190927 -1020.000000000000000 0.000000000000000
0 0

0101101
*
Ed
 0.000000100000000 1 1 0
1  2 0 0.000000000000000 181.294905148178714
2  2 1 14 0.000000000000000 181.294905148178714
2  3 1 15 0.000000000000000 181.294905148178714
0

0101000
+61 0 -59 0 *
Ed
 0.000000100000000 1 1 0
1  3 0 0.000000000000000 50.000000000000000
2  4 1 0 0.000000000000000 50.000000000000000
2  5 2 0 0.000000000000000 50.000000000000000
0

0101000
+59 10 -59 12 *
Wi

0101100
+60 6 -58 13 +58 16 -57 6 *
Ve
0.000000100000000
-3706.742230292369641 -25.000000000000000 0.000000000000000
0 0

0101101
*
Ed
 0.000000100000000 1 1 0
1  4 0 0.000000000000000 6.283185307179586
2  6 3 20 0.000000000000000 6.283185307179586
2  7 3 22 0.000000000000000 6.283185307179586
2  8 4 23 0.000000000000000 6.283185307179586
2  9 1 24 0.000000000000000 6.283185307179586
0

0101000
+55 0 -55 0 *
Wi

0101100
-54 19 *
Ve
0.000000100000000
-3605.447325144190927 -25.000000000000000 0.000000000000000
0 0

0101101
*
Ed
 0.000000100000000 1 1 0
1  5 0 0.000000000000000 6.283185307179586
2  10 5 20 0.000000000000000 6.283185307179586
2  11 5 22 0.000000000000000 6.283185307179586
2  12 6 23 0.000000000000000 6.283185307179586
2  13 1 24 0.000000000000000 6.283185307179586
0

0101000
+52 0 -52 0 *
Wi

0101100
-51 19 *
Fa
0  0.000000100000000 1 6

0111000
+56 0 +53 0 +50 0 *
Ve
0.000000100000000
4776.000000000000000 -1554.000000000000000 0.000000000000000
0 0

0101101
*
Ed
 0.000000100000000 1 1 0
1  6 0 0.000000000000000 50.000000000000000
2  14 8 0 0.000000000000000 50.000000000000000
0

0101000
+48 10 -48 12 *
Ed
 0.000000100000000 1 1 0
1  7 0 0.000000000000000 1155.101717948012265
0

0101000
+48 0 -61 0 *
Wi

0101100
+47 0 -60 0 -46 10 +46 12 *
Fa
0  0.000000100000000 7 0

0111000
+45 0 *
Ve
0.000000100000000
4346.036676015763078 -1842.999999999998408 0.000000000000000
0 0

0101101
*
Ed
 0.000000100000000 1 1 0
1  8 0 0.000000000000000 1130.870390975634336
2  15 2 14 0.000000000000000 1130.870390975634336
2  16 2 15 0.000000000000000 1130.870390975634336
0

0101000
+59 0 -43 0 *
Ve
0.000000100000000
4776.000000000000000 -1842.999999999998408 0.000000000000000
0 0

0101101
*
Ed
 0.000000100000000 1 1 0
1  9 0 0.000000000000000 429.963323984236922
2  17 10 14 0.000000000000000 429.963323984236922
2  18 10 15 0.000000000000000 429.963323984236922
0

0101000
+43 0 -41 0 *
Ed
 0.000000100000000 1 1 0
1  10 0 0.000000000000000 288.999999999998408
2  19 8 14 0.000000000000000 288.999999999998408
2  20 8 15 0.000000000000000 288.999999999998408
0

0101000
+41 0 -48 0 *
Wi

0101100
+58 0 +42 0 +40 0 +39 0 +46 0 *
Fa
0  0.000000100000000 9 0

0111000
+38 26 *
Ed
 0.000000100000000 1 1 0
1  11 0 0.000000000000000 50.000000000000000
2  21 10 0 0.000000000000000 50.000000000000000
2  22 2 0 0.000000000000000 50.000000000000000
0

0101000
+43 10 -43 12 *
Wi

0101100
+57 0 -36 0 -42 10 +42 12 *
Fa
0  0.000000100000000 2 0

0111000
+35 0 *
Ed
 0.000000100000000 1 1 0
1  12 0 0.000000000000000 5.000000000000000
3  23 24CN 3 0 0.000000000000000 5.000000000000000
0

0101000
+55 19 -55 28 *
Wi

0101100
+33 0 -33 0 -54 19 +54 28 *
Fa
0  0.000000100000000 3 0

0111000
+32 0 *
Ed
 0.000000100000000 1 1 0
1  13 0 0.000000000000000 5.000000000000000
3  25 26CN 5 0 0.000000000000000 5.000000000000000
0

0101000
+52 19 -52 28 *
Wi

0101100
+30 0 -30 0 -51 19 +51 28 *
Fa
0  0.000000100000000 5 0

0111000
+29 0 *
Ed
 0.000000100000000 1 1 0
1  14 0 0.000000000000000 50.000000000000000
2  27 10 0 0.000000000000000 50.000000000000000
2  28 8 0 0.000000000000000 50.000000000000000
0

0101000
+41 10 -41 12 *
Wi

0101100
+27 0 -47 0 -39 10 +39 12 *
Fa
0  0.000000100000000 8 0

0111000
+26 0 *
Wi

0101100
+36 30 -40 31 +40 32 -27 30 *
Ve
0.000000100000000
4431.036676015763078 -25.000000000000000 0.000000000000000
0 0

0101101
*
Ed
 0.000000100000000 1 1 0
1  15 0 0.000000000000000 6.283185307179586
2  29 11 36 0.000000000000000 6.283185307179586
2  30 11 38 0.000000000000000 6.283185307179586
2  31 12 39 0.000000000000000 6.283185307179586
2  32 10 40 0.000000000000000 6.283185307179586
0

0101000
+23 0 -23 0 *
Wi

0101100
-22 35 *
Ve
0.000000100000000
4701.000000000000000 -25.000000000000000 0.000000000000000
0 0

0101101
*
Ed
 0.000000100000000 1 1 0
1  16 0 0.000000000000000 6.283185307179586
2  33 13 36 0.000000000000000 6.283185307179586
2  34 13 38 0.000000000000000 6.283185307179586
2  35 14 39 0.000000000000000 6.283185307179586
2  36 10 40 0.000000000000000 6.283185307179586
0

0101000
+20 0 -20 0 *
Wi

0101100
-19 35 *
Fa
0  0.000000100000000 10 30

0111000
+24 0 +21 0 +18 0 *
Wi

0101100
+54 0 *
Fa
0  0.000000100000000 4 0

0111000
+16 42 *
Wi

0101100
+51 0 *
Fa
0  0.000000100000000 6 0

0111000
+14 42 *
Ed
 0.000000100000000 1 1 0
1  17 0 0.000000000000000 5.000000000000000
3  37 38CN 11 0 0.000000000000000 5.000000000000000
0

0101000
+23 35 -23 43 *
Wi

0101100
+12 0 -12 0 -22 35 +22 43 *
Fa
0  0.000000100000000 11 0

0111000
+11 0 *
Ed
 0.000000100000000 1 1 0
1  18 0 0.000000000000000 5.000000000000000
3  39 40CN 13 0 0.000000000000000 5.000000000000000
0

0101000
+20 35 -20 43 *
Wi

0101100
+9 0 -9 0 -19 35 +19 43 *
Fa
0  0.000000100000000 13 0

0111000
+8 0 *
Wi

0101100
+22 0 *
Fa
0  0.000000100000000 12 0

0111000
+6 45 *
Wi

0101100
+19 0 *
Fa
0  0.000000100000000 14 0

0111000
+4 45 *
Sh

0101100
+49 0 +44 6 +37 25 -37 27 +34 6 -31 0 -28 0 +25 6 +17 29 +15 41 
+13 41 -10 29 -7 29 +5 44 +3 44 *
So

0100000
+2 0 *

+1 1 