
CASCADE Topology V1, (c) Matra-Datavision
Locations 34
1
1.000000000000000 0.000000000000000 0.000000000000000 0.000000000000000 
0.000000000000000 0.000000000000000 -1.000000000000000 0.000000000000000 
0.000000000000000 1.000000000000000 0.000000000000000 0.000000000000000 
1
1.000000000000000 0.000000000000000 0.000000000000000 0.000000000000000 
0.000000000000000 -0.000000000000000 -1.000000000000000 0.000000000000000 
0.000000000000000 1.000000000000000 -0.000000000000000 0.000000000000000 
1
1.000000000000000 0.000000000000000 0.000000000000000 0.000000000000000 
0.000000000000000 -0.000000000000000 -1.000000000000000 0.000000000000000 
0.000000000000000 1.000000000000000 -0.000000000000000 0.000000000000000 
2  2 1 3 -1 0
1
1.000000000000000 0.000000000000000 0.000000000000000 0.000000000000000 
0.000000000000000 1.000000000000000 0.000000000000000 0.000000000000000 
0.000000000000000 0.000000000000000 1.000000000000000 0.000000000000000 
1
1.000000000000000 0.000000000000000 0.000000000000000 0.000000000000000 
0.000000000000000 -0.000000000000000 -1.000000000000000 0.000000000000000 
0.000000000000000 1.000000000000000 -0.000000000000000 0.000000000000000 
1
1.000000000000000 0.000000000000000 0.000000000000000 0.000000000000000 
0.000000000000000 -0.000000000000000 -1.000000000000000 0.000000000000000 
0.000000000000000 1.000000000000000 -0.000000000000000 0.000000000000000 
2  5 1 6 1 7 -1 0
1
1.000000000000000 0.000000000000000 0.000000000000000 0.000000000000000 
0.000000000000000 1.000000000000000 0.000000000000000 0.000000000000000 
0.000000000000000 0.000000000000000 1.000000000000000 15.000000000000000 
2  5 1 6 1 7 -1 9 1 0
2  6 -1 5 -1 0
2  7 -1 2 1 3 -1 0
2  5 1 6 1 0
2  7 1 6 -1 5 -1 0
2  9 -1 7 1 6 -1 5 -1 0
2  7 -1 9 1 2 1 3 -1 0
2  5 1 6 1 7 -1 9 1 2 1 3 -1 0
1
1.000000000000000 0.000000000000000 0.000000000000000 0.000000000000000 
0.000000000000000 1.000000000000000 0.000000000000000 0.000000000000000 
0.000000000000000 0.000000000000000 1.000000000000000 0.000000000000000 
1
0.000000000000000 0.000000000000000 -1.000000000000000 1027.000000000000000 
0.000000000000000 -1.000000000000000 0.000000000000000 0.000000000000000 
-1.000000000000000 0.000000000000000 0.000000000000000 0.000000000000000 
1
1.000000000000000 0.000000000000000 0.000000000000000 15.000000000000000 
0.000000000000000 1.000000000000000 0.000000000000000 0.000000000000003 
0.000000000000000 0.000000000000000 1.000000000000000 -0.000000000000000 
2  18 1 19 1 3 -1 20 1 3 1 2 -1 9 -1 7 1 6 -1 5 -1 0
2  18 1 19 1 3 -1 20 1 0
2  3 1 19 -1 18 -1 0
2  20 -1 3 1 19 -1 18 -1 0
2  19 -1 18 -1 0
2  7 -1 9 1 2 1 3 -1 20 -1 3 1 19 -1 18 -1 0
2  18 1 19 1 3 -1 0
2  18 1 19 1 2 -1 9 -1 7 1 6 -1 5 -1 0
2  3 1 2 -1 0
2  5 1 6 1 7 -1 2 1 3 -1 0
2  3 1 2 -1 9 -1 7 1 6 -1 5 -1 0
2  3 -1 20 1 0
2  18 1 19 1 0
2  3 -1 0
Curve2ds 86
1 568.16652999079360598 -847.78643515850103540 -0.55582821424379891 0.83129717685707905 
1 40.00000000000000000 0.00000000000000000 0.00000000000000000 -1.00000000000000000 
1 568.16652999079360598 -847.78643515850103540 0.94101531017864071 -0.33836398450396094 
1 0.00000000000000000 0.00000000000000000 0.00000000000000000 -1.00000000000000000 
1 -153.17822827085819881 231.05743371452149404 0.00000000000000000 1.00000000000000000 
1 -153.17822827085819881 1131.21356484149805510 -1.00000000000000000 -0.00000000000000000 
1 0.00000000000000000 0.00000000000000000 1.00000000000000000 0.00000000000000000 
1 0.00000000000000000 -15.00000000000000000 1.00000000000000000 0.00000000000000000 
1 -403.17822827085819881 1131.21356484149805510 0.00000000000000000 -1.00000000000000000 
1 -403.17822827085819881 155.17840363845766660 0.55582821424379858 -0.83129717685707916 
1 0.00000000000000000 0.00000000000000000 1.00000000000000000 0.00000000000000000 
1 0.00000000000000000 -15.00000000000000000 1.00000000000000000 0.00000000000000000 
1 336.96898587632858835 -951.78643515850194490 1.00000000000000000 0.00000000000000000 
1 0.00000000000000000 0.00000000000000000 1.00000000000000000 0.00000000000000000 
1 0.00000000000000000 -15.00000000000000000 1.00000000000000000 0.00000000000000000 
1 746.15527172914153198 -951.78643515850194490 0.00000000000000000 1.00000000000000000 
1 0.00000000000000000 0.00000000000000000 1.00000000000000000 0.00000000000000000 
1 0.00000000000000000 -15.00000000000000000 1.00000000000000000 0.00000000000000000 
2 -186.31152827085770696 118.21356484149805510 0.00000000000000000 1.00000000000000000 -1.00000000000000000 0.00000000000000000 5.00000000000000000
1 0.00000000000000000 0.00000000000000000 1.00000000000000000 0.00000000000000000 
1 0.00000000000000000 -15.00000000000000000 1.00000000000000000 0.00000000000000000 
2 -186.31152827085770696 -33.78643515850194490 0.00000000000000000 1.00000000000000000 -1.00000000000000000 0.00000000000000000 5.00000000000000000
1 0.00000000000000000 0.00000000000000000 1.00000000000000000 0.00000000000000000 
1 0.00000000000000000 -15.00000000000000000 1.00000000000000000 0.00000000000000000 
2 -4.44482827085812460 -153.78643515850194490 0.00000000000000000 1.00000000000000000 -1.00000000000000000 0.00000000000000000 5.00000000000000000
1 0.00000000000000000 0.00000000000000000 1.00000000000000000 0.00000000000000000 
1 0.00000000000000000 -15.00000000000000000 1.00000000000000000 0.00000000000000000 
2 -4.44482827085812460 -305.78643515850194490 0.00000000000000000 1.00000000000000000 -1.00000000000000000 0.00000000000000000 5.00000000000000000
1 0.00000000000000000 0.00000000000000000 1.00000000000000000 0.00000000000000000 
1 0.00000000000000000 -15.00000000000000000 1.00000000000000000 0.00000000000000000 
2 177.42187172914145776 -425.78643515850194490 0.00000000000000000 1.00000000000000000 -1.00000000000000000 0.00000000000000000 5.00000000000000000
1 0.00000000000000000 0.00000000000000000 1.00000000000000000 0.00000000000000000 
1 0.00000000000000000 -15.00000000000000000 1.00000000000000000 0.00000000000000000 
2 177.42187172914145776 -577.78643515850194490 0.00000000000000000 1.00000000000000000 -1.00000000000000000 0.00000000000000000 5.00000000000000000
1 0.00000000000000000 0.00000000000000000 1.00000000000000000 0.00000000000000000 
1 0.00000000000000000 -15.00000000000000000 1.00000000000000000 0.00000000000000000 
2 359.28857172914194962 -697.78643515850217227 0.00000000000000000 1.00000000000000000 -1.00000000000000000 0.00000000000000000 5.00000000000000000
1 0.00000000000000000 0.00000000000000000 1.00000000000000000 0.00000000000000000 
1 0.00000000000000000 -15.00000000000000000 1.00000000000000000 0.00000000000000000 
2 359.28857172914194962 -849.78643515850194490 0.00000000000000000 1.00000000000000000 -1.00000000000000000 0.00000000000000000 5.00000000000000000
1 0.00000000000000000 0.00000000000000000 1.00000000000000000 -0.00000000000000000 
1 -0.00000000000000333 -15.00000000000000000 1.00000000000000000 -0.00000000000000000 
1 -120.00000000000000000 -78.00000000000005684 1.00000000000000000 0.00000000000000022 
1 746.15527172914153198 -936.78643515850308177 -1.00000000000000000 -0.00000000000000022 
1 240.00000000000000000 -0.00000000000005329 0.00000000000000000 -1.00000000000000000 
1 0.00000000000000000 0.00000000000000000 0.00000000000000000 -1.00000000000000000 
1 506.15527172914153198 -951.78643515850308177 -0.00000000000000022 1.00000000000000000 
1 409.18628585281294363 0.00000000000000000 0.00000000000000000 -1.00000000000000000 
1 0.00000000000000000 0.00000000000000000 0.00000000000000000 -1.00000000000000000 
1 250.00000000000000000 0.00000000000000000 0.00000000000000000 -1.00000000000000000 
1 0.00000000000000000 0.00000000000000000 0.00000000000000000 -1.00000000000000000 
1 0.00000000000000000 0.00000000000000000 0.00000000000000000 -1.00000000000000000 
1 6.28318530717958623 0.00000000000000000 0.00000000000000000 -1.00000000000000000 
1 0.00000000000000000 0.00000000000000000 0.00000000000000000 -1.00000000000000000 
1 6.28318530717958623 0.00000000000000000 0.00000000000000000 -1.00000000000000000 
1 0.00000000000000000 0.00000000000000000 0.00000000000000000 -1.00000000000000000 
1 6.28318530717958623 0.00000000000000000 0.00000000000000000 -1.00000000000000000 
1 0.00000000000000000 0.00000000000000000 0.00000000000000000 -1.00000000000000000 
1 6.28318530717958623 0.00000000000000000 0.00000000000000000 -1.00000000000000000 
1 0.00000000000000000 0.00000000000000000 0.00000000000000000 -1.00000000000000000 
1 6.28318530717958623 0.00000000000000000 0.00000000000000000 -1.00000000000000000 
1 0.00000000000000000 0.00000000000000000 0.00000000000000000 -1.00000000000000000 
1 6.28318530717958623 0.00000000000000000 0.00000000000000000 -1.00000000000000000 
1 0.00000000000000000 0.00000000000000000 0.00000000000000000 -1.00000000000000000 
1 6.28318530717958623 0.00000000000000000 0.00000000000000000 -1.00000000000000000 
1 0.00000000000000000 0.00000000000000000 0.00000000000000000 -1.00000000000000000 
1 6.28318530717958623 0.00000000000000000 0.00000000000000000 -1.00000000000000000 
1 0.00000000000000000 0.00000000000000000 1.00000000000000000 0.00000000000000000 
1 0.00000000000000000 -15.00000000000000000 1.00000000000000000 0.00000000000000000 
1 120.00000000000000000 -78.00000000000000000 -0.00000000000000022 1.00000000000000000 
1 120.00000000000000000 78.00000000000000000 -1.00000000000000000 -0.00000000000000022 
1 -0.00000000000000000 0.00000000000000000 1.00000000000000000 0.00000000000000000 
1 -0.00000000000000000 -15.00000000000000000 1.00000000000000000 0.00000000000000000 
1 -120.00000000000000000 77.99999999999994316 0.00000000000000022 -1.00000000000000000 
1 0.00000000000000000 0.00000000000000000 1.00000000000000000 0.00000000000000000 
1 0.00000000000000000 -15.00000000000000000 1.00000000000000000 0.00000000000000000 
2 -80.00000000000000000 -0.00000000000005684 -1.00000000000000000 -0.00000000000000022 -0.00000000000000022 1.00000000000000000 5.00000000000000000
1 0.00000000000000000 0.00000000000000000 1.00000000000000000 0.00000000000000000 
1 0.00000000000000000 -15.00000000000000000 1.00000000000000000 0.00000000000000000 
2 -20.00000000000000000 -0.00000000000004263 -1.00000000000000000 -0.00000000000000022 -0.00000000000000022 1.00000000000000000 5.00000000000000000
1 156.00000000000000000 0.00000000000000000 0.00000000000000000 -1.00000000000000000 
1 -0.00000000000000000 0.00000000000000000 -0.00000000000000000 -1.00000000000000000 
1 0.00000000000000000 0.00000000000000000 0.00000000000000000 -1.00000000000000000 
1 6.28318530717958623 0.00000000000000000 0.00000000000000000 -1.00000000000000000 
1 0.00000000000000000 0.00000000000000000 0.00000000000000000 -1.00000000000000000 
1 6.28318530717958623 0.00000000000000000 0.00000000000000000 -1.00000000000000000 
Curves 43
1 1131.00000000000090949 4900.65574173834829708 0.00000000000000000 0.00000000000000000 0.00000000000000000 1.00000000000000000 
1 2209.84386887302343894 5622.00050000000010186 0.00000000000000000 0.00000000000000000 0.00000000000000000 1.00000000000000000 
1 1131.00000000000090949 4900.65574173834829708 0.00000000000000000 0.83129717685707905 0.55582821424379891 0.00000000000000000 
1 1067.00000000000000000 4722.66700000000037107 0.00000000000000000 0.00000000000000000 0.00000000000000000 1.00000000000000000 
1 1131.00000000000090949 4900.65574173834829708 0.00000000000000000 -0.33836398450396094 -0.94101531017864071 0.00000000000000000 
1 3110.00000000000000000 5622.00050000000010186 0.00000000000000000 0.00000000000000000 0.00000000000000000 1.00000000000000000 
1 2209.84386887302343894 5622.00050000000010186 0.00000000000000000 1.00000000000000000 0.00000000000000000 0.00000000000000000 
1 3110.00000000000000000 5622.00050000000010186 0.00000000000000000 0.00000000000000000 1.00000000000000000 0.00000000000000000 
1 3110.00000000000000000 5872.00050000000010186 0.00000000000000000 -1.00000000000000000 0.00000000000000000 0.00000000000000000 
1 2133.96483879695961150 5872.00050000000010186 0.00000000000000000 -0.83129717685707916 -0.55582821424379858 0.00000000000000000 
1 1027.00000000000000000 5131.85328585281331470 0.00000000000000000 0.00000000000000000 -1.00000000000000000 0.00000000000000000 
1 1027.00000000000000000 4722.66700000000037107 0.00000000000000000 1.00000000000000000 0.00000000000000000 0.00000000000000000 
2 2097.00000000000000000 5655.13379999999961001 0.00000000000000000 0.00000000000000000 0.00000000000000000 1.00000000000000000 1.00000000000000000 0.00000000000000000 -0.00000000000000000 -0.00000000000000000 1.00000000000000000 0.00000000000000000 5.00000000000000000
2 1945.00000000000000000 5655.13379999999961001 0.00000000000000000 0.00000000000000000 0.00000000000000000 1.00000000000000000 1.00000000000000000 0.00000000000000000 -0.00000000000000000 -0.00000000000000000 1.00000000000000000 0.00000000000000000 5.00000000000000000
2 1825.00000000000000000 5473.26710000000002765 0.00000000000000000 0.00000000000000000 0.00000000000000000 1.00000000000000000 1.00000000000000000 0.00000000000000000 -0.00000000000000000 -0.00000000000000000 1.00000000000000000 0.00000000000000000 5.00000000000000000
2 1673.00000000000000000 5473.26710000000002765 0.00000000000000000 0.00000000000000000 0.00000000000000000 1.00000000000000000 1.00000000000000000 0.00000000000000000 -0.00000000000000000 -0.00000000000000000 1.00000000000000000 0.00000000000000000 5.00000000000000000
2 1553.00000000000000000 5291.40040000000044529 0.00000000000000000 0.00000000000000000 0.00000000000000000 1.00000000000000000 1.00000000000000000 0.00000000000000000 -0.00000000000000000 -0.00000000000000000 1.00000000000000000 0.00000000000000000 5.00000000000000000
2 1401.00000000000000000 5291.40040000000044529 0.00000000000000000 0.00000000000000000 0.00000000000000000 1.00000000000000000 1.00000000000000000 0.00000000000000000 -0.00000000000000000 -0.00000000000000000 1.00000000000000000 0.00000000000000000 5.00000000000000000
2 1280.99999999999977263 5109.53369999999995343 0.00000000000000000 0.00000000000000000 0.00000000000000000 1.00000000000000000 1.00000000000000000 0.00000000000000000 -0.00000000000000000 -0.00000000000000000 1.00000000000000000 0.00000000000000000 5.00000000000000000
2 1129.00000000000000000 5109.53369999999995343 0.00000000000000000 0.00000000000000000 0.00000000000000000 1.00000000000000000 1.00000000000000000 0.00000000000000000 -0.00000000000000000 -0.00000000000000000 1.00000000000000000 0.00000000000000000 5.00000000000000000
1 -4722.66700000000037107 15.00000000000000000 0.00000000000000000 -1.00000000000000000 0.00000000000000000 0.00000000000000000 
1 1026.99999999999886313 4962.66700000000037107 15.00000000000000000 1.00000000000000000 0.00000000000000022 -0.00000000000000000 
1 1027.00000000000000000 4722.66700000000037107 0.00000000000000000 0.00000000000000000 0.00000000000000000 1.00000000000000000 
1 3110.00000000000000000 5872.00050000000010186 0.00000000000000000 0.00000000000000000 0.00000000000000000 1.00000000000000000 
1 2133.96483879695961150 5872.00050000000010186 0.00000000000000000 0.00000000000000000 0.00000000000000000 1.00000000000000000 
1 1027.00000000000000000 5131.85328585281331470 0.00000000000000000 0.00000000000000000 0.00000000000000000 1.00000000000000000 
1 2102.00000000000000000 5655.13379999999961001 0.00000000000000000 0.00000000000000000 0.00000000000000000 1.00000000000000000 
1 1950.00000000000000000 5655.13379999999961001 0.00000000000000000 0.00000000000000000 0.00000000000000000 1.00000000000000000 
1 1830.00000000000000000 5473.26710000000002765 0.00000000000000000 0.00000000000000000 0.00000000000000000 1.00000000000000000 
1 1678.00000000000000000 5473.26710000000002765 0.00000000000000000 0.00000000000000000 0.00000000000000000 1.00000000000000000 
1 1558.00000000000000000 5291.40040000000044529 0.00000000000000000 0.00000000000000000 0.00000000000000000 1.00000000000000000 
1 1406.00000000000000000 5291.40040000000044529 0.00000000000000000 0.00000000000000000 0.00000000000000000 1.00000000000000000 
1 1285.99999999999977263 5109.53369999999995343 0.00000000000000000 0.00000000000000000 0.00000000000000000 1.00000000000000000 
1 1134.00000000000000000 5109.53369999999995343 0.00000000000000000 0.00000000000000000 0.00000000000000000 1.00000000000000000 
1 -4962.66700000000037107 15.00000000000000000 0.00000000000000000 0.00000000000000000 1.00000000000000000 0.00000000000000000 
1 -4962.66700000000037107 171.00000000000000000 0.00000000000000000 1.00000000000000000 0.00000000000000000 0.00000000000000000 
1 -4722.66700000000037107 171.00000000000000000 0.00000000000000000 0.00000000000000000 -1.00000000000000000 0.00000000000000000 
2 -4762.66700000000037107 93.00000000000000000 0.00000000000000000 0.00000000000000000 0.00000000000000000 1.00000000000000000 1.00000000000000000 0.00000000000000000 -0.00000000000000000 -0.00000000000000000 1.00000000000000000 0.00000000000000000 5.00000000000000000
2 -4822.66700000000037107 93.00000000000000000 0.00000000000000000 0.00000000000000000 0.00000000000000000 1.00000000000000000 1.00000000000000000 0.00000000000000000 -0.00000000000000000 -0.00000000000000000 1.00000000000000000 0.00000000000000000 5.00000000000000000
1 1026.99999999999886313 4962.66700000000037107 171.00000000000000000 1.00000000000000000 0.00000000000000022 -0.00000000000000000 
1 1026.99999999999886313 4722.66700000000037107 171.00000000000000000 1.00000000000000000 0.00000000000000022 -0.00000000000000000 
1 1026.99999999999886313 4757.66700000000037107 93.00000000000000000 1.00000000000000000 0.00000000000000022 -0.00000000000000000 
1 1026.99999999999886313 4817.66700000000037107 93.00000000000000000 1.00000000000000000 0.00000000000000022 -0.00000000000000000 
Polygon3D 0
PolygonOnTriangulations 0
Surfaces 24
1 1131.00000000000090949 4900.65574173834829708 0.00000000000000000 -0.55582821424379891 0.83129717685707905 0.00000000000000000 0.83129717685707905 0.55582821424379891 0.00000000000000000 0.00000000000000000 0.00000000000000000 -1.00000000000000000 
1 1978.78643515850194490 -0.00000000000121432 5468.82227172914190305 0.00000000000000000 -1.00000000000000000 -0.00000000000000022 0.00000000000000000 0.00000000000000022 -1.00000000000000000 1.00000000000000000 0.00000000000000000 0.00000000000000000 
1 1131.00000000000090949 4900.65574173834829708 0.00000000000000000 0.94101531017864071 -0.33836398450396094 0.00000000000000000 -0.33836398450396094 -0.94101531017864071 0.00000000000000000 0.00000000000000000 -0.00000000000000000 -1.00000000000000000 
1 1027.00000000000000000 4722.66700000000037107 0.00000000000000000 0.00000000000000000 1.00000000000000000 0.00000000000000000 1.00000000000000000 0.00000000000000000 0.00000000000000000 0.00000000000000000 0.00000000000000000 -1.00000000000000000 
1 2209.84386887302343894 5622.00050000000010186 0.00000000000000000 0.00000000000000000 1.00000000000000000 0.00000000000000000 1.00000000000000000 0.00000000000000000 0.00000000000000000 0.00000000000000000 0.00000000000000000 -1.00000000000000000 
1 3110.00000000000000000 5622.00050000000010186 0.00000000000000000 -1.00000000000000000 0.00000000000000000 0.00000000000000000 0.00000000000000000 1.00000000000000000 0.00000000000000000 0.00000000000000000 0.00000000000000000 -1.00000000000000000 
1 1027.00000000000000000 5131.85328585281331470 0.00000000000000000 1.00000000000000000 0.00000000000000000 -0.00000000000000000 0.00000000000000000 -1.00000000000000000 0.00000000000000000 0.00000000000000000 -0.00000000000000000 -1.00000000000000000 
2 2097.00000000000000000 5655.13379999999961001 0.00000000000000000 -0.00000000000000000 -0.00000000000000000 -1.00000000000000000 1.00000000000000000 0.00000000000000000 0.00000000000000000 -0.00000000000000000 1.00000000000000000 -0.00000000000000000 5.00000000000000000
2 1945.00000000000000000 5655.13379999999961001 0.00000000000000000 -0.00000000000000000 -0.00000000000000000 -1.00000000000000000 1.00000000000000000 0.00000000000000000 0.00000000000000000 -0.00000000000000000 1.00000000000000000 -0.00000000000000000 5.00000000000000000
2 1825.00000000000000000 5473.26710000000002765 0.00000000000000000 -0.00000000000000000 -0.00000000000000000 -1.00000000000000000 1.00000000000000000 0.00000000000000000 0.00000000000000000 -0.00000000000000000 1.00000000000000000 -0.00000000000000000 5.00000000000000000
2 1673.00000000000000000 5473.26710000000002765 0.00000000000000000 -0.00000000000000000 -0.00000000000000000 -1.00000000000000000 1.00000000000000000 0.00000000000000000 0.00000000000000000 -0.00000000000000000 1.00000000000000000 -0.00000000000000000 5.00000000000000000
2 1553.00000000000000000 5291.40040000000044529 0.00000000000000000 -0.00000000000000000 -0.00000000000000000 -1.00000000000000000 1.00000000000000000 0.00000000000000000 0.00000000000000000 -0.00000000000000000 1.00000000000000000 -0.00000000000000000 5.00000000000000000
2 1401.00000000000000000 5291.40040000000044529 0.00000000000000000 -0.00000000000000000 -0.00000000000000000 -1.00000000000000000 1.00000000000000000 0.00000000000000000 0.00000000000000000 -0.00000000000000000 1.00000000000000000 -0.00000000000000000 5.00000000000000000
2 1280.99999999999977263 5109.53369999999995343 0.00000000000000000 -0.00000000000000000 -0.00000000000000000 -1.00000000000000000 1.00000000000000000 0.00000000000000000 0.00000000000000000 -0.00000000000000000 1.00000000000000000 -0.00000000000000000 5.00000000000000000
2 1129.00000000000000000 5109.53369999999995343 0.00000000000000000 -0.00000000000000000 -0.00000000000000000 -1.00000000000000000 1.00000000000000000 0.00000000000000000 0.00000000000000000 -0.00000000000000000 1.00000000000000000 -0.00000000000000000 5.00000000000000000
1 1026.99999999999886313 4722.66700000000037107 15.00000000000000000 0.00000000000000000 0.00000000000000000 1.00000000000000000 -0.00000000000000022 1.00000000000000000 0.00000000000000000 -1.00000000000000000 -0.00000000000000022 0.00000000000000000 
1 1026.99999999999886313 -93.00000000000110845 4842.66700000000037107 1.00000000000000000 0.00000000000000000 0.00000000000000000 -0.00000000000000000 0.00000000000000000 1.00000000000000000 0.00000000000000000 -1.00000000000000000 0.00000000000000000 
1 1026.99999999999886313 4962.66700000000037107 15.00000000000000000 0.00000000000000022 -1.00000000000000000 0.00000000000000000 0.00000000000000000 0.00000000000000000 1.00000000000000000 -1.00000000000000000 -0.00000000000000022 0.00000000000000000 
1 3110.00000000000000000 5872.00050000000010186 0.00000000000000000 0.00000000000000000 -1.00000000000000000 0.00000000000000000 -1.00000000000000000 0.00000000000000000 0.00000000000000000 -0.00000000000000000 -0.00000000000000000 -1.00000000000000000 
1 2133.96483879695961150 5872.00050000000010186 0.00000000000000000 0.55582821424379858 -0.83129717685707916 0.00000000000000000 -0.83129717685707916 -0.55582821424379858 0.00000000000000000 0.00000000000000000 -0.00000000000000000 -1.00000000000000000 
1 1026.99999999999886313 4722.66700000000037107 171.00000000000000000 -0.00000000000000022 1.00000000000000000 -0.00000000000000000 0.00000000000000000 0.00000000000000000 -1.00000000000000000 -1.00000000000000000 -0.00000000000000022 -0.00000000000000000 
2 1026.99999999999886313 4762.66700000000037107 93.00000000000000000 -1.00000000000000000 -0.00000000000000022 0.00000000000000000 0.00000000000000022 -1.00000000000000000 0.00000000000000000 0.00000000000000000 0.00000000000000000 1.00000000000000000 5.00000000000000000
2 1026.99999999999886313 4822.66700000000037107 93.00000000000000000 -1.00000000000000000 -0.00000000000000022 0.00000000000000000 0.00000000000000022 -1.00000000000000000 0.00000000000000000 0.00000000000000000 0.00000000000000000 1.00000000000000000 5.00000000000000000
1 1026.99999999999886313 4962.66700000000037107 171.00000000000000000 -0.00000000000000000 -0.00000000000000000 -1.00000000000000000 0.00000000000000022 -1.00000000000000000 0.00000000000000000 -1.00000000000000000 -0.00000000000000022 0.00000000000000000 
Triangulations 0

TShapes 143
Ve
0.000000100000000
1131.000000000000909 4900.655741738348297 0.000000000000000
0 0

0101101
*
Ed
 0.000000100000000 1 1 0
1  1 0 0.000000000000000 15.000000000000000
0

0101000
+143 8 -143 10 *
Ve
0.000000100000000
2209.843868873023439 5622.000500000000102 0.000000000000000
0 0

0101101
*
Ed
 0.000000100000000 1 1 0
1  2 0 0.000000000000000 15.000000000000000
0

0101000
+141 8 -141 10 *
Ed
 0.000000100000000 1 1 0
1  3 0 0.000000000000000 1297.783631302411095
2  1 2 11 0.000000000000000 1297.783631302411095
0

0101000
+143 0 -141 0 *
Wi

0101100
+142 0 -140 0 -139 8 +139 10 *
Fa
0  0.000000100000000 1 0

0111000
+138 0 *
Ve
0.000000100000000
1067.000000000000000 4722.667000000000371 0.000000000000000
0 0

0101101
*
Ed
 0.000000100000000 1 1 0
1  4 0 0.000000000000000 15.000000000000000
2  2 4 0 0.000000000000000 15.000000000000000
0

0101000
+136 8 -136 10 *
Ed
 0.000000100000000 1 1 0
1  5 0 0.000000000000000 189.145426023471259
2  3 2 11 0.000000000000000 189.145426023471259
0

0101000
+143 0 -136 0 *
Wi

0101100
+142 0 -135 0 -134 8 +134 10 *
Fa
0  0.000000100000000 3 0

0111000
+133 0 *
Ve
0.000000100000000
3110.000000000000000 5622.000500000000102 0.000000000000000
0 0

0101101
*
Ed
 0.000000100000000 1 1 0
1  6 0 0.000000000000000 15.000000000000000
2  4 6 0 0.000000000000000 15.000000000000000
0

0101000
+131 8 -131 10 *
Ed
 0.000000100000000 1 1 0
1  7 0 0.000000000000000 900.156131126976561
2  5 2 11 0.000000000000000 900.156131126976561
0

0101000
+141 0 -131 0 *
Wi

0101100
+140 0 -130 0 -129 8 +129 10 *
Fa
0  0.000000100000000 5 0

0111000
+128 0 *
Ve
0.000000100000000
3110.000000000000000 5872.000500000000102 0.000000000000000
0 0

0101101
*
Ed
 0.000000100000000 1 1 0
1  8 0 0.000000000000000 250.000000000000000
2  6 2 11 0.000000000000000 250.000000000000000
2  7 6 14 0.000000000000000 250.000000000000000
2  8 6 15 0.000000000000000 250.000000000000000
0

0101000
+131 0 -126 0 *
Ve
0.000000100000000
2133.964838796959611 5872.000500000000102 0.000000000000000
0 0

0101101
*
Ed
 0.000000100000000 1 1 0
1  9 0 0.000000000000000 976.035161203040389
2  9 2 11 0.000000000000000 976.035161203040389
0

0101000
+126 0 -124 0 *
Ve
0.000000100000000
1027.000000000000000 5131.853285852813315 0.000000000000000
0 0

0101101
*
Ed
 0.000000100000000 1 1 0
1  10 0 0.000000000000000 1331.611449688917446
2  10 2 11 0.000000000000000 1331.611449688917446
0

0101000
+124 0 -122 0 *
Ve
0.000000100000000
1027.000000000000000 4722.667000000000371 0.000000000000000
0 0

0101101
*
Ed
 0.000000100000000 1 1 0
1  11 0 0.000000000000000 409.186285852812944
2  11 7 14 0.000000000000000 409.186285852812944
2  12 7 15 0.000000000000000 409.186285852812944
2  13 2 11 0.000000000000000 409.186285852812944
0

0101000
+122 0 -120 0 *
Ed
 0.000000100000000 1 1 0
1  12 0 0.000000000000000 40.000000000000000
2  14 4 14 0.000000000000000 40.000000000000000
2  15 4 15 0.000000000000000 40.000000000000000
2  16 2 11 0.000000000000000 40.000000000000000
0

0101000
+120 0 -136 0 *
Wi

0101100
+139 13 +129 13 +125 13 +123 13 +121 13 +119 13 +118 13 -134 13 *
Ve
0.000000100000000
2102.000000000000000 5655.133799999999610 0.000000000000000
0 0

0101101
*
Ed
 0.000000100000000 1 1 0
1  13 0 0.000000000000000 6.283185307179586
2  17 8 14 0.000000000000000 6.283185307179586
2  18 8 15 0.000000000000000 6.283185307179586
2  19 2 11 0.000000000000000 6.283185307179586
0

0101000
+116 0 -116 0 *
Wi

0101100
-115 13 *
Ve
0.000000100000000
1950.000000000000000 5655.133799999999610 0.000000000000000
0 0

0101101
*
Ed
 0.000000100000000 1 1 0
1  14 0 0.000000000000000 6.283185307179586
2  20 9 14 0.000000000000000 6.283185307179586
2  21 9 15 0.000000000000000 6.283185307179586
2  22 2 11 0.000000000000000 6.283185307179586
0

0101000
+113 0 -113 0 *
Wi

0101100
-112 13 *
Ve
0.000000100000000
1830.000000000000000 5473.267100000000028 0.000000000000000
0 0

0101101
*
Ed
 0.000000100000000 1 1 0
1  15 0 0.000000000000000 6.283185307179586
2  23 10 14 0.000000000000000 6.283185307179586
2  24 10 15 0.000000000000000 6.283185307179586
2  25 2 11 0.000000000000000 6.283185307179586
0

0101000
+110 0 -110 0 *
Wi

0101100
-109 13 *
Ve
0.000000100000000
1678.000000000000000 5473.267100000000028 0.000000000000000
0 0

0101101
*
Ed
 0.000000100000000 1 1 0
1  16 0 0.000000000000000 6.283185307179586
2  26 11 14 0.000000000000000 6.283185307179586
2  27 11 15 0.000000000000000 6.283185307179586
2  28 2 11 0.000000000000000 6.283185307179586
0

0101000
+107 0 -107 0 *
Wi

0101100
-106 13 *
Ve
0.000000100000000
1558.000000000000000 5291.400400000000445 0.000000000000000
0 0

0101101
*
Ed
 0.000000100000000 1 1 0
1  17 0 0.000000000000000 6.283185307179586
2  29 12 14 0.000000000000000 6.283185307179586
2  30 12 15 0.000000000000000 6.283185307179586
2  31 2 11 0.000000000000000 6.283185307179586
0

0101000
+104 0 -104 0 *
Wi

0101100
-103 13 *
Ve
0.000000100000000
1406.000000000000000 5291.400400000000445 0.000000000000000
0 0

0101101
*
Ed
 0.000000100000000 1 1 0
1  18 0 0.000000000000000 6.283185307179586
2  32 13 14 0.000000000000000 6.283185307179586
2  33 13 15 0.000000000000000 6.283185307179586
2  34 2 11 0.000000000000000 6.283185307179586
0

0101000
+101 0 -101 0 *
Wi

0101100
-100 13 *
Ve
0.000000100000000
1285.999999999999773 5109.533699999999953 0.000000000000000
0 0

0101101
*
Ed
 0.000000100000000 1 1 0
1  19 0 0.000000000000000 6.283185307179586
2  35 14 14 0.000000000000000 6.283185307179586
2  36 14 15 0.000000000000000 6.283185307179586
2  37 2 11 0.000000000000000 6.283185307179586
0

0101000
+98 0 -98 0 *
Wi

0101100
-97 13 *
Ve
0.000000100000000
1134.000000000000000 5109.533699999999953 0.000000000000000
0 0

0101101
*
Ed
 0.000000100000000 1 1 0
1  20 0 0.000000000000000 6.283185307179586
2  38 15 14 0.000000000000000 6.283185307179586
2  39 15 15 0.000000000000000 6.283185307179586
2  40 2 11 0.000000000000000 6.283185307179586
0

0101000
+95 0 -95 0 *
Wi

0101100
-94 13 *
Fa
0  0.000000100000000 2 0

0111000
+117 0 +114 0 +111 0 +108 0 +105 0 +102 0 +99 0 +96 0 +93 0 *
Ve
0.000000100000000
-4722.667000000000371 15.000000000000000 0.000000000000000
0 0

0101101
*
Ed
 0.000000100000000 1 1 0
1  12 0 14.999999999998863 40.000000000000000
2  14 4 14 14.999999999998863 40.000000000000000
2  15 4 15 14.999999999998863 40.000000000000000
2  16 2 11 14.999999999998863 40.000000000000000
0

0101000
+91 21 -136 0 *
Ve
0.000000100001137
-4962.667000000000371 15.000000000000000 0.000000000000000
0 0

0101101
*
Ed
 0.000000100000000 1 1 0
1  21 0 0.000000000000000 240.000000000000000
2  41 16 23 0.000000000000000 240.000000000000000
2  42 16 24 0.000000000000000 240.000000000000000
2  43 17 25 0.000000000000000 240.000000000000000
2  44 2 26 0.000000000000000 240.000000000000000
0

0101000
+91 0 -89 0 *
Ed
 0.000000100000000 1 1 0
1  22 0 0.000000000000000 15.000000000000000
2  45 16 0 0.000000000000000 15.000000000000000
2  46 18 0 0.000000000000000 15.000000000000000
2  47 2 16 0.000000000000000 15.000000000000000
0

0101000
+89 27 -89 22 *
Ed
 0.000000100000000 1 1 0
1  11 0 0.000000000000000 169.186285852812944
2  11 7 14 0.000000000000000 169.186285852812944
2  12 7 15 0.000000000000000 169.186285852812944
2  13 2 11 0.000000000000000 169.186285852812944
0

0101000
+122 0 -89 28 *
Wi

0101100
-134 17 +90 17 -88 22 +87 0 +86 17 +121 17 +123 17 +125 17 +129 17 +139 17 
*
Wi

0101100
-94 17 *
Wi

0101100
-97 17 *
Wi

0101100
-100 17 *
Wi

0101100
-103 17 *
Wi

0101100
-106 17 *
Wi

0101100
-109 17 *
Wi

0101100
-112 17 *
Wi

0101100
-115 17 *
Fa
0  0.000000100000000 2 16

0111000
+85 0 +84 0 +83 0 +82 0 +81 0 +80 0 +79 0 +78 0 +77 0 *
Ve
0.000000100001364
1026.999999999999318 4722.667000000000371 15.000000000000000
0 0

0101101
*
Ed
 0.000000100000000 1 1 0
1  23 0 0.000000000000000 15.000000000000000
2  48 7 0 0.000000000000000 15.000000000000000
2  49 4 0 0.000000000000000 15.000000000000000
0

0101000
+120 8 -75 29 *
Ed
 0.000000100000000 1 1 0
1  12 0 0.000000000000000 14.999999999998863
2  14 4 14 0.000000000000000 14.999999999998863
2  15 4 15 0.000000000000000 14.999999999998863
2  16 2 11 0.000000000000000 14.999999999998863
0

0101000
+75 31 -91 21 *
Wi

0101100
+74 4 -135 4 -118 30 +73 17 +90 17 *
Fa
0  0.000000100000000 4 4

0111000
+72 0 *
Ed
 0.000000100000000 1 1 0
1  24 0 0.000000000000000 15.000000000000000
2  50 6 0 0.000000000000000 15.000000000000000
0

0101000
+126 8 -126 10 *
Wi

0101100
+130 0 -70 0 -125 8 +125 10 *
Fa
0  0.000000100000000 6 0

0111000
+69 0 *
Ed
 0.000000100000000 1 1 0
1  25 0 0.000000000000000 15.000000000000000
0

0101000
+124 8 -124 10 *
Wi

0101100
+70 0 -67 0 -123 8 +123 10 *
Fa
0  0.000000100000000 19 0

0111000
+66 0 *
Ed
 0.000000100000000 1 1 0
1  26 0 0.000000000000000 15.000000000000000
2  51 7 0 0.000000000000000 15.000000000000000
0

0101000
+122 8 -122 10 *
Wi

0101100
+67 0 -64 0 -121 8 +121 10 *
Fa
0  0.000000100000000 20 0

0111000
+63 0 *
Ed
 0.000000100001137 1 1 0
1  11 0 169.186285852812944 409.186285852812944
2  11 7 14 169.186285852812944 409.186285852812944
2  12 7 15 169.186285852812944 409.186285852812944
2  13 2 11 169.186285852812944 409.186285852812944
0

0101000
+89 28 -75 31 *
Wi

0101100
+64 4 -74 4 -119 30 +86 17 +61 17 *
Fa
0  0.000000100000000 7 4

0111000
+60 0 *
Ed
 0.000000100000000 1 1 0
1  27 0 0.000000000000000 15.000000000000000
3  52 53CN 8 0 0.000000000000000 15.000000000000000
0

0101000
+116 8 -116 10 *
Wi

0101100
+58 0 -58 0 -115 8 +115 10 *
Fa
0  0.000000100000000 8 0

0111000
+57 0 *
Ed
 0.000000100000000 1 1 0
1  28 0 0.000000000000000 15.000000000000000
3  54 55CN 9 0 0.000000000000000 15.000000000000000
0

0101000
+113 8 -113 10 *
Wi

0101100
+55 0 -55 0 -112 8 +112 10 *
Fa
0  0.000000100000000 9 0

0111000
+54 0 *
Ed
 0.000000100000000 1 1 0
1  29 0 0.000000000000000 15.000000000000000
3  56 57CN 10 0 0.000000000000000 15.000000000000000
0

0101000
+110 8 -110 10 *
Wi

0101100
+52 0 -52 0 -109 8 +109 10 *
Fa
0  0.000000100000000 10 0

0111000
+51 0 *
Ed
 0.000000100000000 1 1 0
1  30 0 0.000000000000000 15.000000000000000
3  58 59CN 11 0 0.000000000000000 15.000000000000000
0

0101000
+107 8 -107 10 *
Wi

0101100
+49 0 -49 0 -106 8 +106 10 *
Fa
0  0.000000100000000 11 0

0111000
+48 0 *
Ed
 0.000000100000000 1 1 0
1  31 0 0.000000000000000 15.000000000000000
3  60 61CN 12 0 0.000000000000000 15.000000000000000
0

0101000
+104 8 -104 10 *
Wi

0101100
+46 0 -46 0 -103 8 +103 10 *
Fa
0  0.000000100000000 12 0

0111000
+45 0 *
Ed
 0.000000100000000 1 1 0
1  32 0 0.000000000000000 15.000000000000000
3  62 63CN 13 0 0.000000000000000 15.000000000000000
0

0101000
+101 8 -101 10 *
Wi

0101100
+43 0 -43 0 -100 8 +100 10 *
Fa
0  0.000000100000000 13 0

0111000
+42 0 *
Ed
 0.000000100000000 1 1 0
1  33 0 0.000000000000000 15.000000000000000
3  64 65CN 14 0 0.000000000000000 15.000000000000000
0

0101000
+98 8 -98 10 *
Wi

0101100
+40 0 -40 0 -97 8 +97 10 *
Fa
0  0.000000100000000 14 0

0111000
+39 0 *
Ed
 0.000000100000000 1 1 0
1  34 0 0.000000000000000 15.000000000000000
3  66 67CN 15 0 0.000000000000000 15.000000000000000
0

0101000
+95 8 -95 10 *
Wi

0101100
+37 0 -37 0 -94 8 +94 10 *
Fa
0  0.000000100000000 15 0

0111000
+36 0 *
Ve
0.000000100000000
-4962.667000000000371 171.000000000000000 0.000000000000000
0 0

0101101
*
Ed
 0.000000100000000 1 1 0
1  35 0 0.000000000000000 156.000000000000000
2  68 18 23 0.000000000000000 156.000000000000000
2  69 18 24 0.000000000000000 156.000000000000000
2  70 17 25 0.000000000000000 156.000000000000000
0

0101000
+89 0 -34 0 *
Ve
0.000000100000000
-4722.667000000000371 171.000000000000000 0.000000000000000
0 0

0101101
*
Ed
 0.000000100000000 1 1 0
1  36 0 0.000000000000000 240.000000000000000
2  71 17 25 0.000000000000000 240.000000000000000
0

0101000
+34 0 -32 0 *
Ed
 0.000000100000000 1 1 0
1  37 0 0.000000000000000 156.000000000000000
2  72 21 23 0.000000000000000 156.000000000000000
2  73 21 24 0.000000000000000 156.000000000000000
2  74 17 25 0.000000000000000 156.000000000000000
0

0101000
+32 0 -91 0 *
Wi

0101100
+88 33 +33 33 +31 33 +30 33 *
Ve
0.000000100000000
-4757.667000000000371 93.000000000000000 0.000000000000000
0 0

0101101
*
Ed
 0.000000100000000 1 1 0
1  38 0 0.000000000000000 6.283185307179586
2  75 22 23 0.000000000000000 6.283185307179586
2  76 22 24 0.000000000000000 6.283185307179586
2  77 17 25 0.000000000000000 6.283185307179586
0

0101000
+28 0 -28 0 *
Wi

0101100
+27 33 *
Ve
0.000000100000000
-4817.667000000000371 93.000000000000000 0.000000000000000
0 0

0101101
*
Ed
 0.000000100000000 1 1 0
1  39 0 0.000000000000000 6.283185307179586
2  78 23 23 0.000000000000000 6.283185307179586
2  79 23 24 0.000000000000000 6.283185307179586
2  80 17 25 0.000000000000000 6.283185307179586
0

0101000
+25 0 -25 0 *
Wi

0101100
+24 33 *
Fa
0  0.000000100000000 17 0

0111000
+29 0 +26 0 +23 0 *
Ed
 0.000000100000000 1 1 0
1  40 0 0.000000000000000 15.000000000000000
2  81 18 0 0.000000000000000 15.000000000000000
0

0101000
+34 27 -34 22 *
Wi

0101100
+87 0 -21 0 -33 27 +33 22 *
Fa
0  0.000000100000000 18 0

0111000
+20 0 *
Ed
 0.000000100000000 1 1 0
1  41 0 0.000000000000000 15.000000000000000
2  82 21 0 0.000000000000000 15.000000000000000
0

0101000
+32 27 -32 22 *
Ed
 0.000000100000000 1 1 0
1  37 0 0.000000000000000 156.000000000000000
2  72 21 23 0.000000000000000 156.000000000000000
2  73 21 24 0.000000000000000 156.000000000000000
2  74 17 25 0.000000000000000 156.000000000000000
0

0101000
+32 0 -75 23 *
Wi

0101100
+18 0 -73 17 -17 27 +30 22 *
Fa
0  0.000000100000000 21 0

0111000
+16 0 *
Wi

0101100
-61 17 +33 27 +31 27 +17 27 *
Wi

0101100
+27 27 *
Wi

0101100
+24 27 *
Fa
0  0.000000100000000 17 34

0111000
+14 0 +13 0 +12 0 *
Wi

0101100
+21 0 -18 0 -31 27 +31 22 *
Fa
0  0.000000100000000 24 0

0111000
+10 0 *
Ed
 0.000000100000000 1 1 0
1  42 0 0.000000000000000 15.000000000000000
3  83 84CN 22 0 0.000000000000000 15.000000000000000
0

0101000
+28 27 -28 22 *
Wi

0101100
+8 0 -8 0 -27 27 +27 22 *
Fa
0  0.000000100000000 22 0

0111000
+7 0 *
Ed
 0.000000100000000 1 1 0
1  43 0 0.000000000000000 15.000000000000000
3  85 86CN 23 0 0.000000000000000 15.000000000000000
0

0101000
+25 27 -25 22 *
Wi

0101100
+5 0 -5 0 -24 27 +24 22 *
Fa
0  0.000000100000000 23 0

0111000
+4 0 *
Sh

0101100
-137 4 +132 4 -127 4 -92 12 +76 0 -71 0 -68 4 -65 4 -62 4 -59 0 
+56 4 +53 4 +50 4 +47 4 +44 4 +41 4 +38 4 +35 4 +22 32 -19 0 
-15 0 -11 0 -9 0 -6 0 -3 0 *
So

0100000
+2 0 *

+1 1 