
CASCADE Topology V1, (c) Matra-Datavision
Locations 20
1
1.000000000000000 0.000000000000000 0.000000000000000 0.000000000000000 
0.000000000000000 1.000000000000000 0.000000000000000 0.000000000000000 
0.000000000000000 0.000000000000000 1.000000000000000 0.000000000000000 
1
0.000000000000000 -0.000000000000000 1.000000000000000 14.999999999999989 
1.000000000000000 0.000000000000000 -0.000000000000000 -0.000000000000003 
0.000000000000000 1.000000000000000 0.000000000000000 0.000000000000003 
1
0.000000000000000 0.000000000000000 1.000000000000000 0.000000000000000 
1.000000000000000 0.000000000000000 0.000000000000000 0.000000000000000 
0.000000000000000 1.000000000000000 0.000000000000000 0.000000000000000 
2  1 1 2 1 3 -1 0
1
1.000000000000000 0.000000000000000 0.000000000000000 0.000000000000485 
0.000000000000000 1.000000000000000 0.000000000000000 -0.000000000000606 
0.000000000000000 0.000000000000000 1.000000000000000 -2184.987416439737444 
2  1 1 2 1 3 -1 5 1 0
2  3 1 2 -1 1 -1 0
2  5 -1 3 1 2 -1 1 -1 0
2  2 -1 1 -1 0
1
-0.000000000000000 0.000000000000000 1.000000000000000 0.000000000000000 
1.000000000000000 -0.000000000000000 0.000000000000000 0.000000000000000 
0.000000000000000 1.000000000000000 -0.000000000000000 0.000000000000000 
1
1.000000000000000 0.000000000000000 0.000000000000000 -0.000000000000007 
0.000000000000000 1.000000000000000 0.000000000000000 0.000000000000004 
0.000000000000000 0.000000000000000 1.000000000000000 15.000000000000000 
1
0.000000000000000 0.000000000000000 1.000000000000000 0.000000000000000 
1.000000000000000 0.000000000000000 0.000000000000000 0.000000000000000 
0.000000000000000 1.000000000000000 0.000000000000000 0.000000000000000 
1
0.000000000000000 0.000000000000000 1.000000000000000 0.000000000000000 
1.000000000000000 0.000000000000000 0.000000000000000 0.000000000000000 
0.000000000000000 1.000000000000000 0.000000000000000 0.000000000000000 
1
0.000000000000000 0.000000000000000 1.000000000000000 0.000000000000000 
1.000000000000000 0.000000000000000 0.000000000000000 0.000000000000000 
0.000000000000000 1.000000000000000 0.000000000000000 0.000000000000000 
1
0.000000000000000 0.000000000000000 1.000000000000000 0.000000000000000 
1.000000000000000 0.000000000000000 0.000000000000000 0.000000000000000 
0.000000000000000 1.000000000000000 0.000000000000000 0.000000000000000 
1
0.000000000000000 0.000000000000000 1.000000000000000 0.000000000000000 
1.000000000000000 0.000000000000000 0.000000000000000 0.000000000000000 
0.000000000000000 1.000000000000000 0.000000000000000 0.000000000000000 
2  10 -1 11 1 12 1 13 -1 14 1 15 -1 16 1 2 -1 1 -1 0
2  3 -1 0
2  1 1 2 1 0
2  3 -1 5 1 0
Curve2ds 24
1 0.00000000000000000 0.00000000000000000 0.00000000000000000 -1.00000000000000000 
1 6.28318530717958623 0.00000000000000000 0.00000000000000000 -1.00000000000000000 
1 0.00000000000000000 0.00000000000000000 1.00000000000000000 0.00000000000000000 
1 0.00000000000000000 -2184.98741643973744431 1.00000000000000000 0.00000000000000000 
2 0.00000000000000000 0.00000000000000000 1.00000000000000000 0.00000000000000000 -0.00000000000000000 1.00000000000000000 5.00000000000000000
2 -459.99999999999738520 -55.00000000000000000 -1.00000000000000000 0.00000000000000011 0.00000000000000011 1.00000000000000000 5.00000000000000000
1 0.00000000000000000 0.00000000000000000 0.00000000000000000 -1.00000000000000000 
1 6.28318530717958623 0.00000000000000000 0.00000000000000000 -1.00000000000000000 
1 0.00000000000000000 0.00000000000000000 1.00000000000000000 0.00000000000000000 
1 0.00000000000000000 -2184.98741643973744431 1.00000000000000000 0.00000000000000000 
2 -0.00000000000090949 0.00000000000000000 -0.00000000000000000 -1.00000000000000000 1.00000000000000000 -0.00000000000000000 5.00000000000000000
2 -459.99999999999738520 5.00000000000000000 -1.00000000000000000 0.00000000000000011 0.00000000000000011 1.00000000000000000 5.00000000000000000
1 0.00000000000000000 0.00000000000000000 0.00000000000000000 -1.00000000000000000 
1 6.28318530717958623 0.00000000000000000 0.00000000000000000 -1.00000000000000000 
1 0.00000000000000000 0.00000000000000000 1.00000000000000000 0.00000000000000000 
1 0.00000000000000000 -2184.98741643973744431 1.00000000000000000 0.00000000000000000 
2 0.00000000000000000 0.00000000000000000 1.00000000000000000 0.00000000000000000 -0.00000000000000000 1.00000000000000000 5.00000000000000000
2 460.00000000000136424 -55.00000000000000000 -1.00000000000000000 0.00000000000000011 0.00000000000000011 1.00000000000000000 5.00000000000000000
1 0.00000000000000000 0.00000000000000000 0.00000000000000000 -1.00000000000000000 
1 6.28318530717958623 0.00000000000000000 0.00000000000000000 -1.00000000000000000 
1 0.00000000000000000 0.00000000000000000 1.00000000000000000 0.00000000000000000 
1 0.00000000000000000 -2184.98741643973744431 1.00000000000000000 0.00000000000000000 
2 -0.00000000000090949 0.00000000000000000 -0.00000000000000000 -1.00000000000000000 1.00000000000000000 -0.00000000000000000 5.00000000000000000
2 460.00000000000000000 5.00000000000000000 -1.00000000000000000 0.00000000000000011 0.00000000000000011 1.00000000000000000 5.00000000000000000
Curves 8
1 177.99999999999772626 5692.00050000000010186 14.99999999999877431 0.00000000000000022 -0.00000000000000028 -1.00000000000000000 
2 172.99999999999741362 5692.00050000000010186 0.00000000000000000 0.00000000000000000 0.00000000000000000 1.00000000000000000 1.00000000000000000 0.00000000000000000 -0.00000000000000000 -0.00000000000000000 1.00000000000000000 0.00000000000000000 5.00000000000000000
1 177.99999999999772626 5752.00050000000010186 14.99999999999876188 0.00000000000000022 -0.00000000000000028 -1.00000000000000000 
2 172.99999999999741362 5752.00050000000010186 0.00000000000000000 0.00000000000000000 0.00000000000000000 1.00000000000000000 1.00000000000000000 0.00000000000000000 -0.00000000000000000 -0.00000000000000000 1.00000000000000000 0.00000000000000000 5.00000000000000000
1 -742.00000000000102318 5692.00050000000010186 14.99999999999852029 0.00000000000000022 -0.00000000000000028 -1.00000000000000000 
2 -747.00000000000136424 5692.00050000000010186 0.00000000000000000 0.00000000000000000 0.00000000000000000 1.00000000000000000 1.00000000000000000 0.00000000000000000 -0.00000000000000000 -0.00000000000000000 1.00000000000000000 0.00000000000000000 5.00000000000000000
1 -741.99999999999965894 5752.00050000000010186 14.99999999999850608 0.00000000000000022 -0.00000000000000028 -1.00000000000000000 
2 -747.00000000000000000 5752.00050000000010186 0.00000000000000000 0.00000000000000000 0.00000000000000000 1.00000000000000000 1.00000000000000000 0.00000000000000000 -0.00000000000000000 -0.00000000000000000 1.00000000000000000 0.00000000000000000 5.00000000000000000
Polygon3D 0
PolygonOnTriangulations 0
Surfaces 9
2 172.99999999999772626 5692.00050000000010186 14.99999999999877431 -0.00000000000000028 0.00000000000000022 1.00000000000000000 1.00000000000000000 0.00000000000000000 0.00000000000000028 0.00000000000000000 1.00000000000000000 -0.00000000000000022 5.00000000000000000
1 14.99999999999876366 172.99999999999741362 5692.00050000000010186 1.00000000000000000 -0.00000000000000036 0.00000000000000021 0.00000000000000036 1.00000000000000000 0.00000000000000000 -0.00000000000000021 0.00000000000000000 1.00000000000000000 
1 -0.00000000000133982 -287.00000000000000000 5747.00050000000010186 -1.00000000000000000 0.00000000000000022 -0.00000000000000022 -0.00000000000000022 -1.00000000000000000 0.00000000000000000 -0.00000000000000022 0.00000000000000000 1.00000000000000000 
2 172.99999999999772626 5752.00050000000010186 14.99999999999876010 -0.00000000000000028 0.00000000000000022 1.00000000000000000 1.00000000000000000 0.00000000000000000 0.00000000000000028 0.00000000000000000 1.00000000000000000 -0.00000000000000022 5.00000000000000000
1 14.99999999999874767 172.99999999999741362 5752.00050000000101136 1.00000000000000000 -0.00000000000000012 0.00000000000000021 -0.00000000000000021 0.00000000000000000 1.00000000000000000 -0.00000000000000012 -1.00000000000000000 -0.00000000000000000 
2 -747.00000000000102318 5692.00050000000010186 14.99999999999851852 -0.00000000000000028 0.00000000000000022 1.00000000000000000 1.00000000000000000 0.00000000000000000 0.00000000000000028 0.00000000000000000 1.00000000000000000 -0.00000000000000022 5.00000000000000000
1 14.99999999999856115 -747.00000000000136424 5692.00050000000010186 1.00000000000000000 -0.00000000000000036 0.00000000000000021 0.00000000000000036 1.00000000000000000 0.00000000000000000 -0.00000000000000021 0.00000000000000000 1.00000000000000000 
2 -746.99999999999965894 5752.00050000000010186 14.99999999999850431 -0.00000000000000028 0.00000000000000022 1.00000000000000000 1.00000000000000000 0.00000000000000000 0.00000000000000028 0.00000000000000000 1.00000000000000000 -0.00000000000000022 5.00000000000000000
1 14.99999999999854516 -747.00000000000000000 5752.00050000000101136 1.00000000000000000 -0.00000000000000012 0.00000000000000021 -0.00000000000000021 0.00000000000000000 1.00000000000000000 -0.00000000000000012 -1.00000000000000000 -0.00000000000000000 
Triangulations 0

TShapes 37
Ve
0.000000100000041
177.999999999997414 5692.000500000000102 0.000000000000000
0 0

0101101
*
Ed
 0.000000100000000 1 1 0
1  1 0 0.000000000000000 2184.987416439737444
3  1 2CN 1 0 0.000000000000000 2184.987416439737444
0

0101000
+37 4 -37 6 *
Ed
 0.000000100000041 1 1 0
1  2 0 0.000000000000000 6.283185307179586
2  3 1 7 0.000000000000000 6.283185307179586
2  4 1 8 0.000000000000000 6.283185307179586
2  5 2 9 0.000000000000000 6.283185307179586
2  6 3 17 0.000000000000000 6.283185307179586
0

0101000
+37 0 -37 0 *
Wi

0101100
+36 0 -36 0 -35 4 +35 6 *
Fa
0  0.000000100000000 1 0

0111000
+34 0 *
Wi

0101100
+35 0 *
Fa
0  0.000000100000000 2 0

0111000
+32 19 *
Sh

0101100
+33 0 +31 18 -31 20 *
So

0100000
+30 0 *
Ve
0.000000100000050
177.999999999997414 5752.000500000000102 0.000000000000000
0 0

0101101
*
Ed
 0.000000100000000 1 1 0
1  3 0 0.000000000000000 2184.987416439737444
3  7 8CN 4 0 0.000000000000000 2184.987416439737444
0

0101000
+28 4 -28 6 *
Ed
 0.000000100000050 1 1 0
1  4 0 0.000000000000000 6.283185307179586
2  9 4 7 0.000000000000000 6.283185307179586
2  10 4 8 0.000000000000000 6.283185307179586
2  11 5 9 0.000000000000000 6.283185307179586
2  12 3 17 0.000000000000000 6.283185307179586
0

0101000
+28 0 -28 0 *
Wi

0101100
+27 0 -27 0 -26 4 +26 6 *
Fa
0  0.000000100000000 4 0

0111000
+25 0 *
Wi

0101100
+26 0 *
Fa
0  0.000000100000000 5 0

0111000
+23 19 *
Sh

0101100
+24 0 +22 18 -22 20 *
So

0100000
+21 0 *
Ve
0.000000100000016
-742.000000000001364 5692.000500000000102 0.000000000000000
0 0

0101101
*
Ed
 0.000000100000000 1 1 0
1  5 0 0.000000000000000 2184.987416439737444
3  13 14CN 6 0 0.000000000000000 2184.987416439737444
0

0101000
+19 4 -19 6 *
Ed
 0.000000100000016 1 1 0
1  6 0 0.000000000000000 6.283185307179586
2  15 6 7 0.000000000000000 6.283185307179586
2  16 6 8 0.000000000000000 6.283185307179586
2  17 7 9 0.000000000000000 6.283185307179586
2  18 3 17 0.000000000000000 6.283185307179586
0

0101000
+19 0 -19 0 *
Wi

0101100
+18 0 -18 0 -17 4 +17 6 *
Fa
0  0.000000100000000 6 0

0111000
+16 0 *
Wi

0101100
+17 0 *
Fa
0  0.000000100000000 7 0

0111000
+14 19 *
Sh

0101100
+15 0 +13 18 -13 20 *
So

0100000
+12 0 *
Ve
0.000000100000007
-742.000000000000000 5752.000500000000102 0.000000000000000
0 0

0101101
*
Ed
 0.000000100000000 1 1 0
1  7 0 0.000000000000000 2184.987416439737444
3  19 20CN 8 0 0.000000000000000 2184.987416439737444
0

0101000
+10 4 -10 6 *
Ed
 0.000000100000007 1 1 0
1  8 0 0.000000000000000 6.283185307179586
2  21 8 7 0.000000000000000 6.283185307179586
2  22 8 8 0.000000000000000 6.283185307179586
2  23 9 9 0.000000000000000 6.283185307179586
2  24 3 17 0.000000000000000 6.283185307179586
0

0101000
+10 0 -10 0 *
Wi

0101100
+9 0 -9 0 -8 4 +8 6 *
Fa
0  0.000000100000000 8 0

0111000
+7 0 *
Wi

0101100
+8 0 *
Fa
0  0.000000100000000 9 0

0111000
+5 19 *
Sh

0101100
+6 0 +4 18 -4 20 *
So

0100000
+3 0 *
Co

1100000
+29 0 +20 0 +11 0 +2 0 *

+1 0 