
CASCADE Topology V1, (c) Matra-Datavision
Locations 65
1
1.000000000000000 0.000000000000000 0.000000000000000 0.000000000000000 
0.000000000000000 0.000000000000000 -1.000000000000000 0.000000000000000 
0.000000000000000 1.000000000000000 0.000000000000000 0.000000000000000 
1
1.000000000000000 0.000000000000000 0.000000000000000 0.000000000000000 
0.000000000000000 -0.000000000000000 -1.000000000000000 0.000000000000000 
0.000000000000000 1.000000000000000 -0.000000000000000 0.000000000000000 
1
1.000000000000000 0.000000000000000 0.000000000000000 0.000000000000000 
0.000000000000000 -0.000000000000000 -1.000000000000000 0.000000000000000 
0.000000000000000 1.000000000000000 -0.000000000000000 0.000000000000000 
1
1.000000000000000 0.000000000000000 0.000000000000000 0.000000000000000 
0.000000000000000 -0.000000000000000 -1.000000000000000 0.000000000000000 
0.000000000000000 1.000000000000000 -0.000000000000000 0.000000000000000 
1
1.000000000000000 0.000000000000000 0.000000000000000 0.000000000000000 
0.000000000000000 -0.000000000000000 -1.000000000000000 0.000000000000000 
0.000000000000000 1.000000000000000 -0.000000000000000 0.000000000000000 
1
1.000000000000000 0.000000000000000 0.000000000000000 0.000000000000000 
0.000000000000000 -0.000000000000000 -1.000000000000000 0.000000000000000 
0.000000000000000 1.000000000000000 -0.000000000000000 0.000000000000000 
1
1.000000000000000 0.000000000000000 0.000000000000000 0.000000000000000 
0.000000000000000 -0.000000000000000 -1.000000000000000 0.000000000000000 
0.000000000000000 1.000000000000000 -0.000000000000000 0.000000000000000 
2  2 1 3 -1 4 1 5 -1 6 1 7 -1 0
1
1.000000000000000 0.000000000000000 0.000000000000000 0.000000000000000 
0.000000000000000 1.000000000000000 0.000000000000000 0.000000000000000 
0.000000000000000 0.000000000000000 1.000000000000000 0.000000000000000 
1
1.000000000000000 0.000000000000000 0.000000000000000 0.000000000000000 
0.000000000000000 -0.000000000000000 -1.000000000000000 0.000000000000000 
0.000000000000000 1.000000000000000 -0.000000000000000 0.000000000000000 
1
1.000000000000000 0.000000000000000 0.000000000000000 0.000000000000000 
0.000000000000000 -0.000000000000000 -1.000000000000000 0.000000000000000 
0.000000000000000 1.000000000000000 -0.000000000000000 0.000000000000000 
2  9 1 10 1 11 -1 0
1
1.000000000000000 0.000000000000000 0.000000000000000 -0.000000000000000 
0.000000000000000 1.000000000000000 0.000000000000000 -0.000000000000000 
0.000000000000000 0.000000000000000 1.000000000000000 -15.000000000000000 
2  9 1 10 1 11 -1 13 1 0
2  10 -1 9 -1 0
2  11 -1 2 1 3 -1 4 1 5 -1 6 1 7 -1 0
2  9 1 10 1 11 -1 2 1 3 -1 4 1 5 -1 6 1 7 -1 0
2  11 1 10 -1 9 -1 0
2  13 -1 11 1 10 -1 9 -1 0
1
1.000000000000000 0.000000000000000 0.000000000000000 0.000000000000000 
0.000000000000000 1.000000000000000 0.000000000000000 0.000000000000000 
0.000000000000000 0.000000000000000 1.000000000000000 0.000000000000000 
1
1.000000000000000 0.000000000000000 -0.000000000000000 -0.000000000000000 
-0.000000000000000 0.000000000000000 -1.000000000000000 -0.000000000000000 
-0.000000000000000 1.000000000000000 0.000000000000000 -0.000000000000000 
2  20 1 21 1 2 -1 11 1 10 -1 9 -1 0
2  20 1 21 1 3 -1 4 1 5 -1 6 1 7 -1 0
2  3 1 21 -1 20 -1 0
1
1.000000000000000 0.000000000000000 0.000000000000000 -0.000000000000000 
0.000000000000000 1.000000000000000 0.000000000000000 0.000000000000000 
0.000000000000000 0.000000000000000 1.000000000000000 80.000000000000000 
2  25 -1 3 1 21 -1 20 -1 0
2  21 -1 20 -1 0
2  11 -1 2 1 21 -1 20 -1 0
1
1.000000000000000 0.000000000000000 0.000000000000000 0.000000000000000 
0.000000000000000 1.000000000000000 0.000000000000000 0.000000000000000 
0.000000000000000 0.000000000000000 1.000000000000000 0.000000000000000 
1
0.000000000000000 0.000000000000000 -1.000000000000000 27.000000000000000 
0.000000000000000 -1.000000000000000 0.000000000000000 0.000000000000000 
-1.000000000000000 0.000000000000000 0.000000000000000 0.000000000000000 
2  29 1 30 1 6 -1 5 1 4 -1 3 1 2 -1 11 1 10 -1 9 -1 0
2  29 1 30 1 7 -1 0
1
1.000000000000000 0.000000000000000 0.000000000000000 15.000000000000000 
0.000000000000000 1.000000000000000 0.000000000000000 0.000000000000003 
0.000000000000000 0.000000000000000 1.000000000000000 -0.000000000000000 
2  29 1 30 1 7 -1 33 1 0
2  7 1 30 -1 29 -1 0
2  33 -1 7 1 30 -1 29 -1 0
2  30 -1 29 -1 0
2  11 -1 2 1 3 -1 4 1 5 -1 6 1 30 -1 29 -1 0
2  11 -1 2 1 3 -1 4 1 5 -1 6 1 7 -1 33 -1 7 1 30 -1 29 -1 0
2  11 -1 13 1 2 1 3 -1 4 1 5 -1 6 1 7 -1 0
2  9 1 10 1 0
2  4 1 5 -1 6 1 7 -1 0
2  2 1 3 -1 0
2  9 1 10 1 11 -1 2 1 3 -1 0
2  20 1 21 1 3 -1 0
2  9 1 10 1 11 -1 13 1 2 1 3 -1 0
2  9 1 10 1 11 -1 13 1 2 1 3 -1 4 1 5 -1 6 1 7 -1 0
2  20 1 21 1 3 -1 25 1 0
2  6 1 7 -1 0
2  4 1 5 -1 0
2  20 1 21 1 3 -1 4 1 5 -1 0
2  20 1 21 1 3 -1 25 1 4 1 5 -1 0
1
1.000000000000000 0.000000000000000 0.000000000000000 0.000000000000000 
0.000000000000000 1.000000000000000 0.000000000000000 0.000000000000000 
0.000000000000000 0.000000000000000 1.000000000000000 0.000000000000000 
1
-0.000000000000000 0.000000000000000 -1.000000000000000 3095.000000000000000 
0.000000000000000 -1.000000000000000 0.000000000000000 -0.000000000000000 
-1.000000000000000 0.000000000000000 0.000000000000000 -0.000000000000000 
2  53 1 54 1 5 -1 0
2  5 1 54 -1 53 -1 0
1
1.000000000000000 0.000000000000000 0.000000000000000 6656.189097170577952 
0.000000000000000 1.000000000000000 0.000000000000000 -0.000000000001478 
0.000000000000000 0.000000000000000 1.000000000000000 0.000000000000000 
2  57 -1 5 1 54 -1 53 -1 0
2  54 -1 53 -1 0
2  4 1 54 -1 53 -1 0
2  7 -1 33 1 0
2  29 1 30 1 0
2  7 -1 0
2  3 -1 25 1 4 1 5 -1 6 1 7 -1 0
2  20 1 21 1 0
Curve2ds 126
1 -560.36748769641872059 571.32247601598737674 0.55582821424383277 -0.83129717685705629 
1 0.00000000000000000 0.00000000000000000 0.00000000000000000 -1.00000000000000000 
1 -560.36748769641872059 571.32247601598737674 0.00000000000000000 1.00000000000000000 
1 0.00000000000000000 0.00000000000000000 0.00000000000000000 -1.00000000000000000 
1 348.96601230358101020 -788.67752398389256996 0.00000000000000000 -1.00000000000000000 
1 -560.36748769641872059 1547.35763721911780522 1.00000000000000000 -0.00000000000000000 
1 0.00000000000000000 0.00000000000000000 1.00000000000000000 0.00000000000000000 
1 0.00000000000000000 -15.00000000000000000 1.00000000000000000 0.00000000000000000 
1 0.00000000000000000 0.00000000000000000 1.00000000000000000 0.00000000000000000 
1 -0.00000000000000000 -80.00000000000000000 1.00000000000000000 0.00000000000000000 
1 -69.99999999999909051 7.50000000000000000 0.00000000000000000 -1.00000000000000000 
1 -480.36748769641872059 1547.35763721911780522 -0.00000000000000000 -1.00000000000000000 
1 -69.99999999999909051 -7.50000000000000000 1.00000000000000000 0.00000000000000000 
1 0.00000000000000000 0.00000000000000000 1.00000000000000000 0.00000000000000000 
1 0.00000000000000000 -80.00000000000000000 1.00000000000000000 0.00000000000000000 
1 -480.36748769641872059 1532.35763721911780522 1.00000000000000000 -0.00000000000000000 
1 0.00000000000000000 0.00000000000000000 1.00000000000000000 0.00000000000000000 
1 0.00000000000000000 -80.00000000000000000 1.00000000000000000 0.00000000000000000 
1 70.00000000000090949 -7.50000000000000000 0.00000000000000000 1.00000000000000000 
1 -340.36748769641872059 1532.35763721911780522 0.00000000000000000 1.00000000000000000 
1 -310.36748769641872059 1547.35763721911780522 0.00000000000000000 -1.00000000000000000 
1 598.96601230358101020 -712.79849390786193908 -0.55582821424383255 0.83129717685705640 
1 598.96601230358101020 -1535.64236278088219478 0.00000000000000000 1.00000000000000000 
1 348.96601230358101020 -1535.64236278088219478 1.00000000000000000 -0.00000000000000000 
1 0.00000000000000000 0.00000000000000000 1.00000000000000000 0.00000000000000000 
1 0.00000000000000000 -15.00000000000000000 1.00000000000000000 0.00000000000000000 
1 0.00000000000000000 0.00000000000000000 0.00000000000000000 -1.00000000000000000 
1 80.00000000000000000 -0.00000000000000000 -0.00000000000000000 -1.00000000000000000 
1 568.96601230358101020 -1535.64236278088333165 -0.00000000000000022 1.00000000000000000 
1 0.00000000000000000 0.00000000000000000 1.00000000000000000 -0.00000000000000000 
1 -0.00000000000000333 -15.00000000000000000 1.00000000000000000 -0.00000000000000000 
1 -70.00000000000000000 -40.00000000000002132 1.00000000000000000 0.00000000000000022 
1 568.96601230358101020 -1535.64236278088333165 -1.00000000000000000 -0.00000000000000022 
1 568.96601230358101020 -1520.64236278088333165 -1.00000000000000000 -0.00000000000000022 
1 140.00000000000000000 0.00000000000000089 0.00000000000000000 -1.00000000000000000 
1 0.00000000000000000 0.00000000000000000 0.00000000000000000 -1.00000000000000000 
1 428.96601230358101020 -1535.64236278088333165 -0.00000000000000022 1.00000000000000000 
1 0.00000000000000000 0.00000000000000000 1.00000000000000000 0.00000000000000000 
1 0.00000000000000000 -15.00000000000000000 1.00000000000000000 0.00000000000000000 
2 202.09931230358142784 -433.64236278088219478 0.00000000000000000 1.00000000000000000 -1.00000000000000000 0.00000000000000000 5.00000000000000000
1 0.00000000000000000 0.00000000000000000 1.00000000000000000 0.00000000000000000 
1 0.00000000000000000 -15.00000000000000000 1.00000000000000000 0.00000000000000000 
2 202.09931230358142784 -281.64236278088219478 0.00000000000000000 1.00000000000000000 -1.00000000000000000 0.00000000000000000 5.00000000000000000
1 0.00000000000000000 0.00000000000000000 1.00000000000000000 0.00000000000000000 
1 0.00000000000000000 -15.00000000000000000 1.00000000000000000 0.00000000000000000 
2 20.23261230358093599 -161.64236278088219478 0.00000000000000000 1.00000000000000000 -1.00000000000000000 0.00000000000000000 5.00000000000000000
1 0.00000000000000000 0.00000000000000000 1.00000000000000000 0.00000000000000000 
1 0.00000000000000000 -15.00000000000000000 1.00000000000000000 0.00000000000000000 
2 20.23261230358093599 -9.64236278088219478 0.00000000000000000 1.00000000000000000 -1.00000000000000000 0.00000000000000000 5.00000000000000000
1 0.00000000000000000 0.00000000000000000 1.00000000000000000 0.00000000000000000 
1 0.00000000000000000 -15.00000000000000000 1.00000000000000000 0.00000000000000000 
2 -161.63408769641864637 110.35763721911780522 0.00000000000000000 1.00000000000000000 -1.00000000000000000 0.00000000000000000 5.00000000000000000
1 0.00000000000000000 0.00000000000000000 1.00000000000000000 0.00000000000000000 
1 0.00000000000000000 -15.00000000000000000 1.00000000000000000 0.00000000000000000 
2 -161.63408769641864637 262.35763721911780522 0.00000000000000000 1.00000000000000000 -1.00000000000000000 0.00000000000000000 5.00000000000000000
1 0.00000000000000000 0.00000000000000000 1.00000000000000000 0.00000000000000000 
1 0.00000000000000000 -15.00000000000000000 1.00000000000000000 0.00000000000000000 
2 -343.50078769641822873 382.35763721911780522 0.00000000000000000 1.00000000000000000 -1.00000000000000000 0.00000000000000000 5.00000000000000000
1 0.00000000000000000 0.00000000000000000 1.00000000000000000 0.00000000000000000 
1 0.00000000000000000 -15.00000000000000000 1.00000000000000000 0.00000000000000000 
2 -343.50078769641822873 534.35763721911780522 0.00000000000000000 1.00000000000000000 -1.00000000000000000 0.00000000000000000 5.00000000000000000
1 250.00000000000000000 0.00000000000000000 0.00000000000000000 -1.00000000000000000 
1 0.00000000000000000 0.00000000000000000 1.00000000000000000 0.00000000000000000 
1 0.00000000000000000 -80.00000000000000000 1.00000000000000000 0.00000000000000000 
1 70.00000000000090949 7.50000000000000000 -1.00000000000000000 0.00000000000000000 
1 -340.36748769641872059 1547.35763721911780522 -1.00000000000000000 0.00000000000000000 
1 250.00000000000000000 0.00000000000000000 0.00000000000000000 -1.00000000000000000 
1 0.00000000000000000 0.00000000000000000 0.00000000000000000 -1.00000000000000000 
1 140.00000000000000000 0.00000000000000000 0.00000000000000000 -1.00000000000000000 
1 15.00000000000000000 0.00000000000000000 0.00000000000000000 -1.00000000000000000 
1 0.00000000000000000 0.00000000000000000 0.00000000000000000 -1.00000000000000000 
1 0.00000000000000000 0.00000000000000000 0.00000000000000000 -1.00000000000000000 
1 140.00000000000000000 0.00000000000000000 0.00000000000000000 -1.00000000000000000 
1 0.00000000000000000 0.00000000000000000 1.00000000000000000 0.00000000000000000 
1 0.00000000000000000 -6656.18909717057795206 1.00000000000000000 0.00000000000000000 
2 -0.00000000000090949 0.00000000000000000 1.00000000000000000 -0.00000000000000022 0.00000000000000022 1.00000000000000000 5.00000000000000000
2 40.00000000000000000 -40.00000000000000000 1.00000000000000000 -0.00000000000000000 -0.00000000000000000 -1.00000000000000000 5.00000000000000000
1 0.00000000000000000 0.00000000000000000 1.00000000000000000 0.00000000000000000 
1 0.00000000000000000 -6656.18909717057795206 1.00000000000000000 0.00000000000000000 
2 0.00000000000000000 0.00000000000000000 1.00000000000000000 -0.00000000000000022 0.00000000000000022 1.00000000000000000 5.00000000000000000
2 100.00000000000000000 -40.00000000000000000 1.00000000000000000 -0.00000000000000000 -0.00000000000000000 -1.00000000000000000 5.00000000000000000
1 15.00000000000000000 0.00000000000000000 0.00000000000000000 -1.00000000000000000 
1 0.00000000000000000 0.00000000000000000 0.00000000000000000 -1.00000000000000000 
1 -0.00000000000000000 0.00000000000000000 -0.00000000000000000 -1.00000000000000000 
1 -0.00000000000000000 0.00000000000000000 1.00000000000000000 0.00000000000000000 
1 -0.00000000000000000 -15.00000000000000000 1.00000000000000000 0.00000000000000000 
1 -70.00000000000000000 39.99999999999997868 0.00000000000000022 -1.00000000000000000 
1 0.00000000000000000 0.00000000000000000 1.00000000000000000 0.00000000000000000 
1 -0.00000000000000000 -14.99999999999999645 1.00000000000000000 0.00000000000000000 
1 70.00000000000000000 -39.99999999999998579 -0.00000000000000022 1.00000000000000000 
1 70.00000000000000000 40.00000000000000711 -1.00000000000000000 -0.00000000000000022 
1 0.00000000000000000 0.00000000000000000 1.00000000000000000 0.00000000000000000 
1 0.00000000000000000 -15.00000000000000000 1.00000000000000000 0.00000000000000000 
2 30.00000000000000000 -0.00000000000000000 -1.00000000000000000 -0.00000000000000022 -0.00000000000000022 1.00000000000000000 5.00000000000000000
1 0.00000000000000000 0.00000000000000000 1.00000000000000000 0.00000000000000000 
1 0.00000000000000000 -15.00000000000000000 1.00000000000000000 0.00000000000000000 
2 -30.00000000000000000 -0.00000000000001421 -1.00000000000000000 -0.00000000000000022 -0.00000000000000022 1.00000000000000000 5.00000000000000000
1 80.00000000000000000 0.00000000000000000 0.00000000000000000 -1.00000000000000000 
1 0.00000000000000000 0.00000000000000000 0.00000000000000000 -1.00000000000000000 
1 6.28318530717958623 0.00000000000000000 0.00000000000000000 -1.00000000000000000 
1 0.00000000000000000 0.00000000000000000 0.00000000000000000 -1.00000000000000000 
1 6.28318530717958623 0.00000000000000000 0.00000000000000000 -1.00000000000000000 
1 0.00000000000000000 0.00000000000000000 0.00000000000000000 -1.00000000000000000 
1 6.28318530717958623 0.00000000000000000 0.00000000000000000 -1.00000000000000000 
1 0.00000000000000000 0.00000000000000000 0.00000000000000000 -1.00000000000000000 
1 6.28318530717958623 0.00000000000000000 0.00000000000000000 -1.00000000000000000 
1 0.00000000000000000 0.00000000000000000 0.00000000000000000 -1.00000000000000000 
1 6.28318530717958623 0.00000000000000000 0.00000000000000000 -1.00000000000000000 
1 0.00000000000000000 0.00000000000000000 0.00000000000000000 -1.00000000000000000 
1 6.28318530717958623 0.00000000000000000 0.00000000000000000 -1.00000000000000000 
1 0.00000000000000000 0.00000000000000000 0.00000000000000000 -1.00000000000000000 
1 6.28318530717958623 0.00000000000000000 0.00000000000000000 -1.00000000000000000 
1 0.00000000000000000 0.00000000000000000 0.00000000000000000 -1.00000000000000000 
1 6.28318530717958623 0.00000000000000000 0.00000000000000000 -1.00000000000000000 
2 40.00000000000000000 -40.00000000000000000 -1.00000000000000000 -0.00000000000000000 0.00000000000000000 -1.00000000000000000 5.00000000000000000
1 0.00000000000000000 -14.99999999999863576 1.00000000000000000 0.00000000000000000 
2 100.00000000000000000 -40.00000000000000000 -1.00000000000000000 -0.00000000000000000 0.00000000000000000 -1.00000000000000000 5.00000000000000000
1 0.00000000000000000 -14.99999999999863576 1.00000000000000000 0.00000000000000000 
1 0.00000000000000000 0.00000000000000000 0.00000000000000000 -1.00000000000000000 
1 6.28318530717958623 0.00000000000000000 0.00000000000000000 -1.00000000000000000 
1 0.00000000000000000 0.00000000000000000 0.00000000000000000 -1.00000000000000000 
1 6.28318530717958623 0.00000000000000000 0.00000000000000000 -1.00000000000000000 
1 0.00000000000000000 0.00000000000000000 0.00000000000000000 -1.00000000000000000 
1 6.28318530717958623 0.00000000000000000 0.00000000000000000 -1.00000000000000000 
1 0.00000000000000000 0.00000000000000000 0.00000000000000000 -1.00000000000000000 
1 6.28318530717958623 0.00000000000000000 0.00000000000000000 -1.00000000000000000 
Curves 58
1 2133.96483879686957152 5872.00050000000010186 0.00000000000000000 -0.00000000000000000 -0.00000000000000000 -1.00000000000000000 
1 773.96483879698962483 4962.66700000000037107 0.00000000000000000 -0.00000000000000000 -0.00000000000000000 -1.00000000000000000 
1 2133.96483879686957152 5872.00050000000010186 0.00000000000000000 -0.83129717685705629 -0.55582821424383277 0.00000000000000000 
1 3110.00000000000000000 5872.00050000000010186 0.00000000000000000 -0.00000000000000000 -0.00000000000000000 -1.00000000000000000 
1 2133.96483879686957152 5872.00050000000010186 0.00000000000000000 1.00000000000000000 0.00000000000000000 0.00000000000000000 
1 27.00000000000000000 4962.66700000000037107 0.00000000000000000 -0.00000000000000000 -0.00000000000000000 -1.00000000000000000 
1 773.96483879698962483 4962.66700000000037107 0.00000000000000000 -1.00000000000000000 0.00000000000000000 0.00000000000000000 
1 3110.00000000000000000 5872.00050000000010186 0.00000000000000000 0.00000000000000000 -1.00000000000000000 0.00000000000000000 
1 3110.00000000000000000 5792.00050000000010186 0.00000000000000000 -1.00000000000000000 0.00000000000000000 0.00000000000000000 
1 3095.00000000000000000 5792.00050000000010186 0.00000000000000000 0.00000000000000000 -1.00000000000000000 0.00000000000000000 
1 3095.00000000000000000 5652.00050000000010186 0.00000000000000000 1.00000000000000000 0.00000000000000000 0.00000000000000000 
1 3110.00000000000000000 5622.00050000000010186 0.00000000000000000 -1.00000000000000000 0.00000000000000000 0.00000000000000000 
1 849.84386887302025571 4712.66700000000037107 0.00000000000000000 0.83129717685705640 0.55582821424383255 0.00000000000000000 
1 27.00000000000000000 4712.66700000000037107 0.00000000000000000 1.00000000000000000 0.00000000000000000 0.00000000000000000 
1 27.00000000000000000 4962.66700000000037107 0.00000000000000000 0.00000000000000000 -1.00000000000000000 0.00000000000000000 
1 26.99999999999894840 4742.66700000000037107 -0.00000000000000000 1.00000000000000000 0.00000000000000022 -0.00000000000000000 
1 -4742.66700000000037107 0.00000000000000000 0.00000000000000000 -1.00000000000000000 0.00000000000000000 0.00000000000000000 
1 26.99999999999891642 4882.66700000000037107 -0.00000000000000000 1.00000000000000000 0.00000000000000022 -0.00000000000000000 
2 1129.00000000000000000 5109.53369999999995343 0.00000000000000000 0.00000000000000000 0.00000000000000000 1.00000000000000000 1.00000000000000000 0.00000000000000000 -0.00000000000000000 -0.00000000000000000 1.00000000000000000 0.00000000000000000 5.00000000000000000
2 1281.00000000000000000 5109.53369999999995343 0.00000000000000000 0.00000000000000000 0.00000000000000000 1.00000000000000000 1.00000000000000000 0.00000000000000000 -0.00000000000000000 -0.00000000000000000 1.00000000000000000 0.00000000000000000 5.00000000000000000
2 1401.00000000000000000 5291.40040000000044529 0.00000000000000000 0.00000000000000000 0.00000000000000000 1.00000000000000000 1.00000000000000000 0.00000000000000000 -0.00000000000000000 -0.00000000000000000 1.00000000000000000 0.00000000000000000 5.00000000000000000
2 1553.00000000000000000 5291.40040000000044529 0.00000000000000000 0.00000000000000000 0.00000000000000000 1.00000000000000000 1.00000000000000000 0.00000000000000000 -0.00000000000000000 -0.00000000000000000 1.00000000000000000 0.00000000000000000 5.00000000000000000
2 1673.00000000000000000 5473.26710000000002765 0.00000000000000000 0.00000000000000000 0.00000000000000000 1.00000000000000000 1.00000000000000000 0.00000000000000000 -0.00000000000000000 -0.00000000000000000 1.00000000000000000 0.00000000000000000 5.00000000000000000
2 1825.00000000000000000 5473.26710000000002765 0.00000000000000000 0.00000000000000000 0.00000000000000000 1.00000000000000000 1.00000000000000000 0.00000000000000000 -0.00000000000000000 -0.00000000000000000 1.00000000000000000 0.00000000000000000 5.00000000000000000
2 1945.00000000000000000 5655.13379999999961001 0.00000000000000000 0.00000000000000000 0.00000000000000000 1.00000000000000000 1.00000000000000000 0.00000000000000000 -0.00000000000000000 -0.00000000000000000 1.00000000000000000 0.00000000000000000 5.00000000000000000
2 2097.00000000000000000 5655.13379999999961001 0.00000000000000000 0.00000000000000000 0.00000000000000000 1.00000000000000000 1.00000000000000000 0.00000000000000000 -0.00000000000000000 -0.00000000000000000 1.00000000000000000 0.00000000000000000 5.00000000000000000
1 3110.00000000000000000 5622.00050000000010186 0.00000000000000000 -0.00000000000000000 -0.00000000000000000 -1.00000000000000000 
1 3110.00000000000000000 5652.00050000000010186 0.00000000000000000 0.00000000000000000 1.00000000000000000 0.00000000000000000 
1 27.00000000000000000 4712.66700000000037107 0.00000000000000000 -0.00000000000000000 -0.00000000000000000 -1.00000000000000000 
1 3110.00000000000000000 5792.00050000000010186 0.00000000000000000 -0.00000000000000000 0.00000000000000000 1.00000000000000000 
1 3095.00000000000000000 5792.00050000000010186 0.00000000000000000 -0.00000000000000000 0.00000000000000000 1.00000000000000000 
1 3095.00000000000000000 5652.00050000000010186 0.00000000000000000 -0.00000000000000000 0.00000000000000000 1.00000000000000000 
2 -5752.00050000000010186 40.00000000000000000 0.00000000000000000 0.00000000000000000 0.00000000000000000 1.00000000000000000 1.00000000000000000 0.00000000000000000 -0.00000000000000000 -0.00000000000000000 1.00000000000000000 0.00000000000000000 5.00000000000000000
2 -5692.00050000000010186 40.00000000000000000 0.00000000000000000 0.00000000000000000 0.00000000000000000 1.00000000000000000 1.00000000000000000 0.00000000000000000 -0.00000000000000000 -0.00000000000000000 1.00000000000000000 0.00000000000000000 5.00000000000000000
1 3110.00000000000000000 5652.00050000000010186 0.00000000000000000 -0.00000000000000000 0.00000000000000000 1.00000000000000000 
1 2209.84386887290065715 5622.00050000000010186 0.00000000000000000 -0.00000000000000000 -0.00000000000000000 -1.00000000000000000 
1 849.84386887302025571 4712.66700000000037107 0.00000000000000000 -0.00000000000000000 -0.00000000000000000 -1.00000000000000000 
1 26.99999999999894840 4742.66700000000037107 80.00000000000000000 1.00000000000000000 0.00000000000000022 -0.00000000000000000 
1 -4742.66700000000037107 80.00000000000000000 0.00000000000000000 0.00000000000000000 -1.00000000000000000 0.00000000000000000 
1 -4882.66700000000037107 0.00000000000000000 0.00000000000000000 0.00000000000000000 1.00000000000000000 0.00000000000000000 
1 -4882.66700000000037107 80.00000000000000000 0.00000000000000000 1.00000000000000000 0.00000000000000000 0.00000000000000000 
2 -4842.66700000000037107 40.00000000000000000 0.00000000000000000 0.00000000000000000 0.00000000000000000 1.00000000000000000 1.00000000000000000 0.00000000000000000 -0.00000000000000000 -0.00000000000000000 1.00000000000000000 0.00000000000000000 5.00000000000000000
2 -4782.66700000000037107 40.00000000000000000 0.00000000000000000 0.00000000000000000 0.00000000000000000 1.00000000000000000 1.00000000000000000 0.00000000000000000 -0.00000000000000000 -0.00000000000000000 1.00000000000000000 0.00000000000000000 5.00000000000000000
1 26.99999999999891642 4882.66700000000037107 80.00000000000000000 1.00000000000000000 0.00000000000000022 -0.00000000000000000 
1 1134.00000000000000000 5109.53369999999995343 0.00000000000000000 -0.00000000000000000 -0.00000000000000000 -1.00000000000000000 
1 1286.00000000000000000 5109.53369999999995343 0.00000000000000000 -0.00000000000000000 -0.00000000000000000 -1.00000000000000000 
1 1406.00000000000000000 5291.40040000000044529 0.00000000000000000 -0.00000000000000000 -0.00000000000000000 -1.00000000000000000 
1 1558.00000000000000000 5291.40040000000044529 0.00000000000000000 -0.00000000000000000 -0.00000000000000000 -1.00000000000000000 
1 1678.00000000000000000 5473.26710000000002765 0.00000000000000000 -0.00000000000000000 -0.00000000000000000 -1.00000000000000000 
1 1830.00000000000000000 5473.26710000000002765 0.00000000000000000 -0.00000000000000000 -0.00000000000000000 -1.00000000000000000 
1 1950.00000000000000000 5655.13379999999961001 0.00000000000000000 -0.00000000000000000 -0.00000000000000000 -1.00000000000000000 
1 2102.00000000000000000 5655.13379999999961001 0.00000000000000000 -0.00000000000000000 -0.00000000000000000 -1.00000000000000000 
2 3110.00000000000000000 5692.00050000000010186 40.00000000000000000 -1.00000000000000000 0.00000000000000022 -0.00000000000000000 -0.00000000000000022 -1.00000000000000000 0.00000000000000000 0.00000000000000000 0.00000000000000000 1.00000000000000000 5.00000000000000000
2 3110.00000000000000000 5752.00050000000010186 40.00000000000000000 -1.00000000000000000 0.00000000000000022 -0.00000000000000000 -0.00000000000000022 -1.00000000000000000 0.00000000000000000 0.00000000000000000 0.00000000000000000 1.00000000000000000 5.00000000000000000
1 3095.00000000000136424 5747.00050000000010186 40.00000000000000000 1.00000000000000000 -0.00000000000000022 0.00000000000000000 
1 3095.00000000000136424 5687.00050000000010186 40.00000000000000000 1.00000000000000000 -0.00000000000000022 0.00000000000000000 
1 26.99999999999892708 4837.66700000000037107 40.00000000000000000 1.00000000000000000 0.00000000000000022 -0.00000000000000000 
1 26.99999999999893774 4777.66700000000037107 40.00000000000000000 1.00000000000000000 0.00000000000000022 -0.00000000000000000 
Polygon3D 0
PolygonOnTriangulations 0
Surfaces 33
1 2133.96483879686957152 5872.00050000000010186 0.00000000000000000 -0.55582821424383277 0.83129717685705629 0.00000000000000000 -0.83129717685705629 -0.55582821424383277 0.00000000000000000 0.00000000000000000 0.00000000000000000 1.00000000000000000 
1 1562.64236278088219478 -0.00000000000117942 5311.63301230358138127 -0.00000000000000000 -1.00000000000000000 -0.00000000000000022 0.00000000000000000 0.00000000000000022 -1.00000000000000000 1.00000000000000000 -0.00000000000000000 0.00000000000000000 
1 2133.96483879686957152 5872.00050000000010186 0.00000000000000000 0.00000000000000000 -1.00000000000000000 0.00000000000000000 1.00000000000000000 0.00000000000000000 0.00000000000000000 -0.00000000000000000 0.00000000000000000 1.00000000000000000 
1 3110.00000000000000000 5872.00050000000010186 0.00000000000000000 -1.00000000000000000 0.00000000000000000 0.00000000000000000 0.00000000000000000 -1.00000000000000000 0.00000000000000000 0.00000000000000000 0.00000000000000000 1.00000000000000000 
1 773.96483879698962483 4962.66700000000037107 0.00000000000000000 0.00000000000000000 1.00000000000000000 -0.00000000000000000 -1.00000000000000000 0.00000000000000000 0.00000000000000000 0.00000000000000000 0.00000000000000000 1.00000000000000000 
1 27.00000000000000000 4962.66700000000037107 0.00000000000000000 -1.00000000000000000 0.00000000000000000 0.00000000000000000 0.00000000000000000 -1.00000000000000000 0.00000000000000000 0.00000000000000000 0.00000000000000000 1.00000000000000000 
1 3110.00000000000000000 5792.00050000000010186 0.00000000000000000 -0.00000000000000000 -1.00000000000000000 0.00000000000000000 -1.00000000000000000 0.00000000000000000 0.00000000000000000 -0.00000000000000000 0.00000000000000000 -1.00000000000000000 
1 3102.50000000000000000 -0.00000000000127054 5722.00050000000101136 -0.00000000000000000 -1.00000000000000000 -0.00000000000000022 0.00000000000000000 0.00000000000000022 -1.00000000000000000 1.00000000000000000 -0.00000000000000000 0.00000000000000000 
1 3095.00000000000000000 5792.00050000000010186 0.00000000000000000 1.00000000000000000 0.00000000000000000 0.00000000000000000 0.00000000000000000 -1.00000000000000000 0.00000000000000000 0.00000000000000000 0.00000000000000000 -1.00000000000000000 
1 3095.00000000000000000 5652.00050000000010186 0.00000000000000000 0.00000000000000000 1.00000000000000000 -0.00000000000000000 1.00000000000000000 0.00000000000000000 0.00000000000000000 0.00000000000000000 -0.00000000000000000 -1.00000000000000000 
1 26.99999999999894840 4742.66700000000037107 -0.00000000000000000 0.00000000000000000 0.00000000000000000 1.00000000000000000 -0.00000000000000022 1.00000000000000000 0.00000000000000000 -1.00000000000000000 -0.00000000000000022 0.00000000000000000 
1 26.99999999999894840 4742.66700000000037107 80.00000000000000000 -0.00000000000000022 1.00000000000000000 -0.00000000000000000 0.00000000000000000 0.00000000000000000 -1.00000000000000000 -1.00000000000000000 -0.00000000000000022 -0.00000000000000000 
1 26.99999999999893419 -40.00000000000107292 4812.66700000000037107 1.00000000000000000 0.00000000000000000 0.00000000000000023 -0.00000000000000023 0.00000000000000000 1.00000000000000000 0.00000000000000000 -1.00000000000000000 0.00000000000000000 
1 26.99999999999891642 4882.66700000000037107 -0.00000000000000000 0.00000000000000022 -1.00000000000000000 0.00000000000000000 0.00000000000000000 0.00000000000000000 1.00000000000000000 -1.00000000000000000 -0.00000000000000022 0.00000000000000000 
2 1129.00000000000000000 5109.53369999999995343 0.00000000000000000 0.00000000000000000 0.00000000000000000 1.00000000000000000 1.00000000000000000 0.00000000000000000 -0.00000000000000000 -0.00000000000000000 1.00000000000000000 0.00000000000000000 5.00000000000000000
2 1281.00000000000000000 5109.53369999999995343 0.00000000000000000 0.00000000000000000 0.00000000000000000 1.00000000000000000 1.00000000000000000 0.00000000000000000 -0.00000000000000000 -0.00000000000000000 1.00000000000000000 0.00000000000000000 5.00000000000000000
2 1401.00000000000000000 5291.40040000000044529 0.00000000000000000 0.00000000000000000 0.00000000000000000 1.00000000000000000 1.00000000000000000 0.00000000000000000 -0.00000000000000000 -0.00000000000000000 1.00000000000000000 0.00000000000000000 5.00000000000000000
2 1553.00000000000000000 5291.40040000000044529 0.00000000000000000 0.00000000000000000 0.00000000000000000 1.00000000000000000 1.00000000000000000 0.00000000000000000 -0.00000000000000000 -0.00000000000000000 1.00000000000000000 0.00000000000000000 5.00000000000000000
2 1673.00000000000000000 5473.26710000000002765 0.00000000000000000 0.00000000000000000 0.00000000000000000 1.00000000000000000 1.00000000000000000 0.00000000000000000 -0.00000000000000000 -0.00000000000000000 1.00000000000000000 0.00000000000000000 5.00000000000000000
2 1825.00000000000000000 5473.26710000000002765 0.00000000000000000 0.00000000000000000 0.00000000000000000 1.00000000000000000 1.00000000000000000 0.00000000000000000 -0.00000000000000000 -0.00000000000000000 1.00000000000000000 0.00000000000000000 5.00000000000000000
2 1945.00000000000000000 5655.13379999999961001 0.00000000000000000 0.00000000000000000 0.00000000000000000 1.00000000000000000 1.00000000000000000 0.00000000000000000 -0.00000000000000000 -0.00000000000000000 1.00000000000000000 0.00000000000000000 5.00000000000000000
2 2097.00000000000000000 5655.13379999999961001 0.00000000000000000 0.00000000000000000 0.00000000000000000 1.00000000000000000 1.00000000000000000 0.00000000000000000 -0.00000000000000000 -0.00000000000000000 1.00000000000000000 0.00000000000000000 5.00000000000000000
1 3110.00000000000000000 5652.00050000000010186 0.00000000000000000 -1.00000000000000000 0.00000000000000000 -0.00000000000000000 0.00000000000000000 1.00000000000000000 0.00000000000000000 0.00000000000000000 0.00000000000000000 -1.00000000000000000 
2 3095.00000000000136424 5752.00050000000010186 40.00000000000000000 -1.00000000000000000 0.00000000000000022 -0.00000000000000000 -0.00000000000000022 -1.00000000000000000 0.00000000000000000 0.00000000000000000 0.00000000000000000 1.00000000000000000 5.00000000000000000
1 3095.00000000000136424 -40.00000000000127898 5752.00049999999919237 -1.00000000000000000 -0.00000000000000000 -0.00000000000000000 0.00000000000000000 0.00000000000000000 -1.00000000000000000 0.00000000000000000 -1.00000000000000000 0.00000000000000000 
2 3095.00000000000136424 5692.00050000000010186 40.00000000000000000 -1.00000000000000000 0.00000000000000022 -0.00000000000000000 -0.00000000000000022 -1.00000000000000000 0.00000000000000000 0.00000000000000000 0.00000000000000000 1.00000000000000000 5.00000000000000000
1 3095.00000000000136424 -40.00000000000126477 5692.00050000000010186 -1.00000000000000000 -0.00000000000000000 -0.00000000000000000 0.00000000000000000 0.00000000000000000 -1.00000000000000000 0.00000000000000000 -1.00000000000000000 0.00000000000000000 
1 3110.00000000000000000 5622.00050000000010186 0.00000000000000000 0.00000000000000000 1.00000000000000000 -0.00000000000000000 -1.00000000000000000 0.00000000000000000 0.00000000000000000 0.00000000000000000 0.00000000000000000 1.00000000000000000 
1 849.84386887302025571 4712.66700000000037107 0.00000000000000000 0.55582821424383255 -0.83129717685705640 0.00000000000000000 0.83129717685705640 0.55582821424383255 0.00000000000000000 -0.00000000000000000 0.00000000000000000 1.00000000000000000 
1 27.00000000000000000 4712.66700000000037107 0.00000000000000000 0.00000000000000000 -1.00000000000000000 0.00000000000000000 1.00000000000000000 0.00000000000000000 0.00000000000000000 -0.00000000000000000 0.00000000000000000 1.00000000000000000 
2 26.99999999999892353 4842.66700000000037107 40.00000000000000000 -1.00000000000000000 -0.00000000000000022 0.00000000000000000 0.00000000000000022 -1.00000000000000000 0.00000000000000000 0.00000000000000000 0.00000000000000000 1.00000000000000000 5.00000000000000000
2 26.99999999999893774 4782.66700000000037107 40.00000000000000000 -1.00000000000000000 -0.00000000000000022 0.00000000000000000 0.00000000000000022 -1.00000000000000000 0.00000000000000000 0.00000000000000000 0.00000000000000000 1.00000000000000000 5.00000000000000000
1 26.99999999999891642 4882.66700000000037107 80.00000000000000000 -0.00000000000000000 -0.00000000000000000 -1.00000000000000000 0.00000000000000022 -1.00000000000000000 0.00000000000000000 -1.00000000000000000 -0.00000000000000022 0.00000000000000000 
Triangulations 0

TShapes 178
Ve
0.000000100000000
2133.964838796869572 5872.000500000000102 0.000000000000000
0 0

0101101
*
Ed
 0.000000100000000 1 1 0
1  1 0 0.000000000000000 15.000000000000000
0

0101000
+178 12 -178 14 *
Ve
0.000000100000000
773.964838796989625 4962.667000000000371 0.000000000000000
0 0

0101101
*
Ed
 0.000000100000000 1 1 0
1  2 0 0.000000000000000 15.000000000000000
0

0101000
+176 12 -176 14 *
Ed
 0.000000100000000 1 1 0
1  3 0 0.000000000000000 1635.997375982590938
2  1 2 15 0.000000000000000 1635.997375982590938
0

0101000
+178 0 -176 0 *
Wi

0101100
+177 0 -175 0 -174 12 +174 14 *
Fa
0  0.000000100000000 1 0

0111000
+173 0 *
Ve
0.000000100000000
3110.000000000000000 5872.000500000000102 0.000000000000000
0 0

0101101
*
Ed
 0.000000100000000 1 1 0
1  4 0 0.000000000000000 15.000000000000000
2  2 4 0 0.000000000000000 15.000000000000000
0

0101000
+171 12 -171 14 *
Ed
 0.000000100000000 1 1 0
1  5 0 0.000000000000000 976.035161203130428
2  3 2 15 0.000000000000000 976.035161203130428
0

0101000
+178 0 -171 0 *
Wi

0101100
+177 0 -170 0 -169 12 +169 14 *
Fa
0  0.000000100000000 3 0

0111000
+168 0 *
Ve
0.000000100000000
27.000000000000000 4962.667000000000371 0.000000000000000
0 0

0101101
*
Ed
 0.000000100000000 1 1 0
1  6 0 0.000000000000000 15.000000000000000
2  4 6 0 0.000000000000000 15.000000000000000
0

0101000
+166 12 -166 14 *
Ed
 0.000000100000000 1 1 0
1  7 0 0.000000000000000 746.964838796989625
2  5 2 15 0.000000000000000 746.964838796989625
0

0101000
+176 0 -166 0 *
Wi

0101100
+175 0 -165 0 -164 12 +164 14 *
Fa
0  0.000000100000000 5 0

0111000
+163 0 *
Ve
0.000000100000000
3110.000000000000000 5792.000500000000102 0.000000000000000
0 0

0101101
*
Ed
 0.000000100000000 1 1 0
1  8 0 0.000000000000000 80.000000000000000
2  6 2 15 0.000000000000000 80.000000000000000
2  7 4 18 0.000000000000000 80.000000000000000
2  8 4 19 0.000000000000000 80.000000000000000
0

0101000
+171 0 -161 22 *
Ve
0.000000100000000
3095.000000000000000 5792.000500000000102 0.000000000000000
0 0

0101101
*
Ed
 0.000000100000000 1 1 0
1  9 0 0.000000000000000 15.000000000000000
2  9 7 24 0.000000000000000 15.000000000000000
2  10 7 26 0.000000000000000 15.000000000000000
2  11 8 27 0.000000000000000 15.000000000000000
2  12 2 28 0.000000000000000 15.000000000000000
0

0101000
+161 0 -159 0 *
Ve
0.000000100000000
3095.000000000000000 5652.000500000000102 0.000000000000000
0 0

0101101
*
Ed
 0.000000100000000 1 1 0
1  10 0 0.000000000000000 140.000000000000000
2  13 8 27 0.000000000000000 140.000000000000000
2  14 9 24 0.000000000000000 140.000000000000000
2  15 9 26 0.000000000000000 140.000000000000000
2  16 2 28 0.000000000000000 140.000000000000000
0

0101000
+159 0 -157 0 *
Ve
0.000000100000000
3110.000000000000000 5652.000500000000102 0.000000000000000
0 0

0101101
*
Ed
 0.000000100000000 1 1 0
1  11 0 0.000000000000000 15.000000000000000
2  17 10 24 0.000000000000000 15.000000000000000
2  18 10 26 0.000000000000000 15.000000000000000
2  19 8 27 0.000000000000000 15.000000000000000
2  20 2 28 0.000000000000000 15.000000000000000
0

0101000
+157 0 -155 0 *
Ve
0.000000100000000
3110.000000000000000 5622.000500000000102 0.000000000000000
0 0

0101101
*
Ed
 0.000000100000000 1 1 0
1  8 0 220.000000000000000 250.000000000000000
2  6 2 15 220.000000000000000 250.000000000000000
2  7 4 18 220.000000000000000 250.000000000000000
2  8 4 19 220.000000000000000 250.000000000000000
0

0101000
+155 22 -153 0 *
Ve
0.000000100000000
2209.843868872900657 5622.000500000000102 0.000000000000000
0 0

0101101
*
Ed
 0.000000100000000 1 1 0
1  12 0 0.000000000000000 900.156131127099343
2  21 2 15 0.000000000000000 900.156131127099343
0

0101000
+153 0 -151 0 *
Ve
0.000000100000000
849.843868873020256 4712.667000000000371 0.000000000000000
0 0

0101101
*
Ed
 0.000000100000000 1 1 0
1  13 0 0.000000000000000 1635.997375982591393
2  22 2 15 0.000000000000000 1635.997375982591393
0

0101000
+149 0 -151 0 *
Ve
0.000000100000000
27.000000000000000 4712.667000000000371 0.000000000000000
0 0

0101101
*
Ed
 0.000000100000000 1 1 0
1  14 0 0.000000000000000 822.843868873020256
2  23 2 15 0.000000000000000 822.843868873020256
0

0101000
+147 0 -149 0 *
Ve
0.000000100001080
-4742.667000000000371 0.000000000000000 0.000000000000000
0 0

0101101
*
Ed
 0.000000100000000 1 1 0
1  15 0 220.000000000000000 250.000000000000000
2  24 2 15 220.000000000000000 250.000000000000000
2  25 6 18 220.000000000000000 250.000000000000000
2  26 6 19 220.000000000000000 250.000000000000000
0

0101000
+145 31 -147 0 *
Ed
 0.000000100000000 1 1 0
1  16 0 0.000000000000000 15.000000000000000
2  27 11 0 0.000000000000000 15.000000000000000
2  28 12 0 0.000000000000000 15.000000000000000
2  29 2 16 0.000000000000000 15.000000000000000
0

0101000
+145 32 -145 34 *
Ve
0.000000100001084
-4882.667000000000371 0.000000000000000 0.000000000000000
0 0

0101101
*
Ed
 0.000000100001080 1 1 0
1  17 0 0.000000000000000 140.000000000000000
2  30 11 35 0.000000000000000 140.000000000000000
2  31 11 36 0.000000000000000 140.000000000000000
2  32 13 37 0.000000000000000 140.000000000000000
2  33 2 38 0.000000000000000 140.000000000000000
2  34 2 39 0.000000000000000 140.000000000000000
0

0101000
+145 0 -142 0 *
Ed
 0.000000100000000 1 1 0
1  18 0 0.000000000000000 15.000000000000000
2  35 11 0 0.000000000000000 15.000000000000000
2  36 14 0 0.000000000000000 15.000000000000000
2  37 2 16 0.000000000000000 15.000000000000000
0

0101000
+142 32 -142 34 *
Ed
 0.000000100000000 1 1 0
1  15 0 0.000000000000000 80.000000000000000
2  24 2 15 0.000000000000000 80.000000000000000
2  25 6 18 0.000000000000000 80.000000000000000
2  26 6 19 0.000000000000000 80.000000000000000
0

0101000
+166 0 -142 31 *
Wi

0101100
-169 17 -160 17 -158 23 -156 23 -154 23 -152 17 -150 17 +148 17 +146 17 +144 17 
-143 0 -141 34 +140 0 +139 17 +164 17 +174 17 *
Ve
0.000000100000000
1134.000000000000000 5109.533699999999953 0.000000000000000
0 0

0101101
*
Ed
 0.000000100000000 1 1 0
1  19 0 0.000000000000000 6.283185307179586
2  38 15 18 0.000000000000000 6.283185307179586
2  39 15 19 0.000000000000000 6.283185307179586
2  40 2 15 0.000000000000000 6.283185307179586
0

0101000
+137 0 -137 0 *
Wi

0101100
-136 17 *
Ve
0.000000100000000
1286.000000000000000 5109.533699999999953 0.000000000000000
0 0

0101101
*
Ed
 0.000000100000000 1 1 0
1  20 0 0.000000000000000 6.283185307179586
2  41 16 18 0.000000000000000 6.283185307179586
2  42 16 19 0.000000000000000 6.283185307179586
2  43 2 15 0.000000000000000 6.283185307179586
0

0101000
+134 0 -134 0 *
Wi

0101100
-133 17 *
Ve
0.000000100000000
1406.000000000000000 5291.400400000000445 0.000000000000000
0 0

0101101
*
Ed
 0.000000100000000 1 1 0
1  21 0 0.000000000000000 6.283185307179586
2  44 17 18 0.000000000000000 6.283185307179586
2  45 17 19 0.000000000000000 6.283185307179586
2  46 2 15 0.000000000000000 6.283185307179586
0

0101000
+131 0 -131 0 *
Wi

0101100
-130 17 *
Ve
0.000000100000000
1558.000000000000000 5291.400400000000445 0.000000000000000
0 0

0101101
*
Ed
 0.000000100000000 1 1 0
1  22 0 0.000000000000000 6.283185307179586
2  47 18 18 0.000000000000000 6.283185307179586
2  48 18 19 0.000000000000000 6.283185307179586
2  49 2 15 0.000000000000000 6.283185307179586
0

0101000
+128 0 -128 0 *
Wi

0101100
-127 17 *
Ve
0.000000100000000
1678.000000000000000 5473.267100000000028 0.000000000000000
0 0

0101101
*
Ed
 0.000000100000000 1 1 0
1  23 0 0.000000000000000 6.283185307179586
2  50 19 18 0.000000000000000 6.283185307179586
2  51 19 19 0.000000000000000 6.283185307179586
2  52 2 15 0.000000000000000 6.283185307179586
0

0101000
+125 0 -125 0 *
Wi

0101100
-124 17 *
Ve
0.000000100000000
1830.000000000000000 5473.267100000000028 0.000000000000000
0 0

0101101
*
Ed
 0.000000100000000 1 1 0
1  24 0 0.000000000000000 6.283185307179586
2  53 20 18 0.000000000000000 6.283185307179586
2  54 20 19 0.000000000000000 6.283185307179586
2  55 2 15 0.000000000000000 6.283185307179586
0

0101000
+122 0 -122 0 *
Wi

0101100
-121 17 *
Ve
0.000000100000000
1950.000000000000000 5655.133799999999610 0.000000000000000
0 0

0101101
*
Ed
 0.000000100000000 1 1 0
1  25 0 0.000000000000000 6.283185307179586
2  56 21 18 0.000000000000000 6.283185307179586
2  57 21 19 0.000000000000000 6.283185307179586
2  58 2 15 0.000000000000000 6.283185307179586
0

0101000
+119 0 -119 0 *
Wi

0101100
-118 17 *
Ve
0.000000100000000
2102.000000000000000 5655.133799999999610 0.000000000000000
0 0

0101101
*
Ed
 0.000000100000000 1 1 0
1  26 0 0.000000000000000 6.283185307179586
2  59 22 18 0.000000000000000 6.283185307179586
2  60 22 19 0.000000000000000 6.283185307179586
2  61 2 15 0.000000000000000 6.283185307179586
0

0101000
+116 0 -116 0 *
Wi

0101100
-115 17 *
Fa
0  0.000000100000000 2 16

0111000
+138 0 +135 0 +132 0 +129 0 +126 0 +123 0 +120 0 +117 0 +114 0 *
Ed
 0.000000100000000 1 1 0
1  15 0 0.000000000000000 250.000000000000000
2  24 2 15 0.000000000000000 250.000000000000000
2  25 6 18 0.000000000000000 250.000000000000000
2  26 6 19 0.000000000000000 250.000000000000000
0

0101000
+166 0 -147 0 *
Ed
 0.000000100000000 1 1 0
1  8 0 0.000000000000000 250.000000000000000
2  6 2 15 0.000000000000000 250.000000000000000
2  7 4 18 0.000000000000000 250.000000000000000
2  8 4 19 0.000000000000000 250.000000000000000
0

0101000
+171 0 -153 0 *
Wi

0101100
+174 41 +164 41 +112 41 +146 41 +148 41 -150 41 -111 41 -169 41 *
Wi

0101100
-136 41 *
Wi

0101100
-133 41 *
Wi

0101100
-130 41 *
Wi

0101100
-127 41 *
Wi

0101100
-124 41 *
Wi

0101100
-121 41 *
Wi

0101100
-118 41 *
Wi

0101100
-115 41 *
Fa
0  0.000000100000000 2 0

0111000
+110 0 +109 0 +108 0 +107 0 +106 0 +105 0 +104 0 +103 0 +102 0 *
Ed
 0.000000100000000 1 1 0
1  27 0 0.000000000000000 15.000000000000000
2  62 4 0 0.000000000000000 15.000000000000000
0

0101000
+153 12 -153 14 *
Ed
 0.000000100000000 1 1 0
1  28 0 0.000000000000000 140.000000000000000
2  63 23 24 0.000000000000000 140.000000000000000
2  64 23 26 0.000000000000000 140.000000000000000
2  65 8 27 0.000000000000000 140.000000000000000
2  66 2 28 0.000000000000000 140.000000000000000
0

0101000
+155 0 -161 0 *
Wi

0101100
+170 43 -100 43 -160 44 +99 45 -152 44 +111 46 *
Fa
0  0.000000100000000 4 43

0111000
+98 0 *
Ed
 0.000000100000000 1 1 0
1  29 0 0.000000000000000 15.000000000000000
2  67 6 0 0.000000000000000 15.000000000000000
0

0101000
+147 12 -147 14 *
Wi

0101100
+165 8 -96 8 -139 17 +141 32 -144 17 +112 47 *
Fa
0  0.000000100000000 6 8

0111000
+95 0 *
Ed
 0.000000100000000 1 1 0
1  30 0 0.000000000000000 80.000000000000000
2  68 7 0 0.000000000000000 80.000000000000000
2  69 23 0 0.000000000000000 80.000000000000000
0

0101000
+161 45 -161 48 *
Ed
 0.000000100000000 1 1 0
1  31 0 0.000000000000000 80.000000000000000
2  70 7 0 0.000000000000000 80.000000000000000
2  71 9 0 0.000000000000000 80.000000000000000
0

0101000
+159 45 -159 48 *
Wi

0101100
+93 0 -92 0 -158 45 +158 48 *
Fa
0  0.000000100000000 7 0

0111000
+91 0 *
Ed
 0.000000100000000 1 1 0
1  32 0 0.000000000000000 80.000000000000000
2  72 10 0 0.000000000000000 80.000000000000000
2  73 9 0 0.000000000000000 80.000000000000000
0

0101000
+157 45 -157 48 *
Wi

0101100
+92 50 -156 51 +156 52 -89 50 *
Ve
0.000000100001364
-5747.000500000000102 40.000000000000000 0.000000000000000
0 0

0101101
*
Ed
 0.000000100001364 1 1 0
1  33 0 0.000000000000000 6.283185307179586
2  74 24 56 0.000000000000000 6.283185307179586
2  75 24 58 0.000000000000000 6.283185307179586
2  76 25 59 0.000000000000000 6.283185307179586
2  77 9 60 0.000000000000000 6.283185307179586
0

0101000
+87 0 -87 0 *
Wi

0101100
+86 55 *
Ve
0.000000100001364
-5687.000500000000102 40.000000000000000 0.000000000000000
0 0

0101101
*
Ed
 0.000000100001364 1 1 0
1  34 0 0.000000000000000 6.283185307179586
2  78 26 56 0.000000000000000 6.283185307179586
2  79 26 58 0.000000000000000 6.283185307179586
2  80 27 59 0.000000000000000 6.283185307179586
2  81 9 60 0.000000000000000 6.283185307179586
0

0101000
+84 0 -84 0 *
Wi

0101100
+83 55 *
Fa
0  0.000000100000000 9 50

0111000
+88 0 +85 0 +82 0 *
Ed
 0.000000100000000 1 1 0
1  35 0 0.000000000000000 80.000000000000000
2  82 10 0 0.000000000000000 80.000000000000000
2  83 23 0 0.000000000000000 80.000000000000000
0

0101000
+155 45 -155 48 *
Wi

0101100
+89 0 -80 0 -154 45 +154 48 *
Fa
0  0.000000100000000 10 0

0111000
+79 0 *
Ed
 0.000000100000000 1 1 0
1  36 0 0.000000000000000 15.000000000000000
0

0101000
+151 12 -151 14 *
Wi

0101100
+100 0 -77 0 -150 12 +150 14 *
Fa
0  0.000000100000000 28 0

0111000
+76 0 *
Ed
 0.000000100000000 1 1 0
1  37 0 0.000000000000000 15.000000000000000
0

0101000
+149 12 -149 14 *
Wi

0101100
+74 0 -77 0 -148 12 +148 14 *
Fa
0  0.000000100000000 29 0

0111000
+73 0 *
Wi

0101100
+96 0 -74 0 -146 12 +146 14 *
Fa
0  0.000000100000000 30 0

0111000
+71 0 *
Ve
0.000000100000000
-4742.667000000000371 80.000000000000000 0.000000000000000
0 0

0101101
*
Ed
 0.000000100000000 1 1 0
1  38 0 0.000000000000000 15.000000000000000
2  84 12 0 0.000000000000000 15.000000000000000
0

0101000
+69 32 -69 34 *
Ed
 0.000000100000000 1 1 0
1  39 0 0.000000000000000 80.000000000000000
2  85 12 35 0.000000000000000 80.000000000000000
2  86 12 36 0.000000000000000 80.000000000000000
2  87 13 37 0.000000000000000 80.000000000000000
0

0101000
+69 0 -145 0 *
Wi

0101100
+68 0 -143 0 -67 32 +67 34 *
Fa
0  0.000000100000000 12 0

0111000
+66 0 *
Ve
0.000000100000000
-4882.667000000000371 80.000000000000000 0.000000000000000
0 0

0101101
*
Ed
 0.000000100000000 1 1 0
1  40 0 0.000000000000000 80.000000000000000
2  88 14 35 0.000000000000000 80.000000000000000
2  89 14 36 0.000000000000000 80.000000000000000
2  90 13 37 0.000000000000000 80.000000000000000
0

0101000
+142 0 -64 0 *
Ed
 0.000000100000000 1 1 0
1  41 0 0.000000000000000 140.000000000000000
2  91 13 37 0.000000000000000 140.000000000000000
0

0101000
+64 0 -69 0 *
Wi

0101100
+141 62 +63 62 +62 62 +67 62 *
Ve
0.000000100000000
-4837.667000000000371 40.000000000000000 0.000000000000000
0 0

0101101
*
Ed
 0.000000100000000 1 1 0
1  42 0 0.000000000000000 6.283185307179586
2  92 31 35 0.000000000000000 6.283185307179586
2  93 31 36 0.000000000000000 6.283185307179586
2  94 13 37 0.000000000000000 6.283185307179586
0

0101000
+60 0 -60 0 *
Wi

0101100
+59 62 *
Ve
0.000000100000000
-4777.667000000000371 40.000000000000000 0.000000000000000
0 0

0101101
*
Ed
 0.000000100000000 1 1 0
1  43 0 0.000000000000000 6.283185307179586
2  95 32 35 0.000000000000000 6.283185307179586
2  96 32 36 0.000000000000000 6.283185307179586
2  97 13 37 0.000000000000000 6.283185307179586
0

0101000
+57 0 -57 0 *
Wi

0101100
+56 62 *
Fa
0  0.000000100000000 13 0

0111000
+61 0 +58 0 +55 0 *
Ed
 0.000000100000000 1 1 0
1  44 0 0.000000000000000 15.000000000000000
2  98 14 0 0.000000000000000 15.000000000000000
0

0101000
+64 32 -64 34 *
Wi

0101100
+140 0 -53 0 -63 32 +63 34 *
Fa
0  0.000000100000000 14 0

0111000
+52 0 *
Ed
 0.000000100000000 1 1 0
1  45 0 0.000000000000000 15.000000000000000
3  99 100CN 15 0 0.000000000000000 15.000000000000000
0

0101000
+137 12 -137 14 *
Wi

0101100
+50 0 -50 0 -136 12 +136 14 *
Fa
0  0.000000100000000 15 0

0111000
+49 0 *
Ed
 0.000000100000000 1 1 0
1  46 0 0.000000000000000 15.000000000000000
3  101 102CN 16 0 0.000000000000000 15.000000000000000
0

0101000
+134 12 -134 14 *
Wi

0101100
+47 0 -47 0 -133 12 +133 14 *
Fa
0  0.000000100000000 16 0

0111000
+46 0 *
Ed
 0.000000100000000 1 1 0
1  47 0 0.000000000000000 15.000000000000000
3  103 104CN 17 0 0.000000000000000 15.000000000000000
0

0101000
+131 12 -131 14 *
Wi

0101100
+44 0 -44 0 -130 12 +130 14 *
Fa
0  0.000000100000000 17 0

0111000
+43 0 *
Ed
 0.000000100000000 1 1 0
1  48 0 0.000000000000000 15.000000000000000
3  105 106CN 18 0 0.000000000000000 15.000000000000000
0

0101000
+128 12 -128 14 *
Wi

0101100
+41 0 -41 0 -127 12 +127 14 *
Fa
0  0.000000100000000 18 0

0111000
+40 0 *
Ed
 0.000000100000000 1 1 0
1  49 0 0.000000000000000 15.000000000000000
3  107 108CN 19 0 0.000000000000000 15.000000000000000
0

0101000
+125 12 -125 14 *
Wi

0101100
+38 0 -38 0 -124 12 +124 14 *
Fa
0  0.000000100000000 19 0

0111000
+37 0 *
Ed
 0.000000100000000 1 1 0
1  50 0 0.000000000000000 15.000000000000000
3  109 110CN 20 0 0.000000000000000 15.000000000000000
0

0101000
+122 12 -122 14 *
Wi

0101100
+35 0 -35 0 -121 12 +121 14 *
Fa
0  0.000000100000000 20 0

0111000
+34 0 *
Ed
 0.000000100000000 1 1 0
1  51 0 0.000000000000000 15.000000000000000
3  111 112CN 21 0 0.000000000000000 15.000000000000000
0

0101000
+119 12 -119 14 *
Wi

0101100
+32 0 -32 0 -118 12 +118 14 *
Fa
0  0.000000100000000 21 0

0111000
+31 0 *
Ed
 0.000000100000000 1 1 0
1  52 0 0.000000000000000 15.000000000000000
3  113 114CN 22 0 0.000000000000000 15.000000000000000
0

0101000
+116 12 -116 14 *
Wi

0101100
+29 0 -29 0 -115 12 +115 14 *
Fa
0  0.000000100000000 22 0

0111000
+28 0 *
Wi

0101100
+80 50 -99 51 +99 52 -93 50 *
Ve
0.000000100000000
3110.000000000000000 5687.000500000000102 40.000000000000000
0 0

0101101
*
Ed
 0.000000100000000 1 1 0
1  53 0 0.000000000000000 6.283185307179586
2  115 23 50 0.000000000000000 6.283185307179586
2  116 26 0 0.000000000000000 6.283185307179586
0

0101000
+25 0 -25 0 *
Wi

0101100
-24 0 *
Ve
0.000000100000000
3110.000000000000000 5747.000500000000102 40.000000000000000
0 0

0101101
*
Ed
 0.000000100000000 1 1 0
1  54 0 0.000000000000000 6.283185307179586
2  117 23 50 0.000000000000000 6.283185307179586
2  118 24 0 0.000000000000000 6.283185307179586
0

0101000
+22 0 -22 0 *
Wi

0101100
-21 0 *
Fa
0  0.000000100000000 23 50

0111000
+26 0 +23 0 +20 0 *
Wi

0101100
+158 0 +156 0 +154 0 +99 0 *
Fa
0  0.000000100000000 8 0

0111000
+18 65 *
Ed
 0.000000100000000 1 1 0
1  55 0 0.000000000000000 14.999999999998636
3  119 120CN 24 0 0.000000000000000 14.999999999998636
0

0101000
+87 55 -22 0 *
Wi

0101100
-86 55 -16 0 +21 0 +16 0 *
Fa
0  0.000000100000000 24 0

0111000
+15 0 *
Ed
 0.000000100000000 1 1 0
1  56 0 0.000000000000000 14.999999999998636
3  121 122CN 26 0 0.000000000000000 14.999999999998636
0

0101000
+84 55 -25 0 *
Wi

0101100
-83 55 -13 0 +24 0 +13 0 *
Fa
0  0.000000100000000 26 0

0111000
+12 0 *
Wi

0101100
+53 0 -68 0 -62 32 +62 34 *
Fa
0  0.000000100000000 33 0

0111000
+10 0 *
Ed
 0.000000100000000 1 1 0
1  57 0 0.000000000000000 15.000000000000000
3  123 124CN 31 0 0.000000000000000 15.000000000000000
0

0101000
+60 32 -60 34 *
Wi

0101100
+8 0 -8 0 -59 32 +59 34 *
Fa
0  0.000000100000000 31 0

0111000
+7 0 *
Ed
 0.000000100000000 1 1 0
1  58 0 0.000000000000000 15.000000000000000
3  125 126CN 32 0 0.000000000000000 15.000000000000000
0

0101000
+57 32 -57 34 *
Wi

0101100
+5 0 -5 0 -56 32 +56 34 *
Fa
0  0.000000100000000 32 0

0111000
+4 0 *
Sh

0101100
+172 8 -167 8 +162 8 +113 0 -101 40 -97 42 +94 0 -90 42 -81 49 -78 42 
-75 8 +72 8 +70 8 -65 0 +54 61 -51 0 -48 8 -45 8 -42 8 -39 8 
-36 8 -33 8 -30 8 -27 8 -19 49 -54 63 +17 64 -14 49 -11 49 -9 0 
-6 0 -3 0 *
So

0100000
+2 0 *

+1 1 