
CASCADE Topology V1, (c) Matra-Datavision
Locations 32
1
1.000000000000000 0.000000000000000 0.000000000000000 0.000000000000000 
0.000000000000000 1.000000000000000 0.000000000000000 0.000000000000000 
0.000000000000000 0.000000000000000 1.000000000000000 0.000000000000000 
1
0.000000000000000 0.000000000000000 -1.000000000000000 -0.000000000000003 
1.000000000000000 -0.000000000000000 0.000000000000000 0.000000000000000 
0.000000000000000 -1.000000000000000 -0.000000000000000 -0.000000000000000 
1
0.000000000000000 0.000000000000000 1.000000000000000 0.000000000000000 
1.000000000000000 0.000000000000000 0.000000000000000 0.000000000000000 
0.000000000000000 1.000000000000000 0.000000000000000 0.000000000000000 
2  1 1 2 1 3 -1 0
1
1.000000000000000 0.000000000000000 0.000000000000000 -0.000000000000451 
0.000000000000000 1.000000000000000 0.000000000000000 0.000000000000563 
0.000000000000000 0.000000000000000 1.000000000000000 2029.098797890331525 
2  1 1 2 1 3 -1 5 1 0
1
0.000000000000000 0.000000000000000 1.000000000000000 0.000000000000000 
1.000000000000000 0.000000000000000 0.000000000000000 0.000000000000000 
0.000000000000000 1.000000000000000 0.000000000000000 0.000000000000000 
1
0.000000000000000 0.000000000000000 -1.000000000000000 -0.000000000000003 
1.000000000000000 -0.000000000000000 0.000000000000000 0.000000000000000 
0.000000000000000 -1.000000000000000 -0.000000000000000 -0.000000000000000 
1
1.000000000000000 0.000000000000000 0.000000000000000 0.000000000000000 
0.000000000000000 1.000000000000000 0.000000000000000 0.000000000000000 
0.000000000000000 0.000000000000000 1.000000000000000 0.000000000000000 
2  7 1 8 -1 9 -1 0
1
1.000000000000000 0.000000000000000 0.000000000000000 -0.000000000000001 
0.000000000000000 1.000000000000000 0.000000000000000 0.000000000000001 
0.000000000000000 0.000000000000000 1.000000000000000 5.000000000000000 
2  11 -1 7 1 8 -1 9 -1 0
2  8 -1 9 -1 0
1
-0.000000000000000 0.000000000000000 1.000000000000000 0.000000000000000 
1.000000000000000 -0.000000000000000 0.000000000000000 0.000000000000000 
0.000000000000000 1.000000000000000 -0.000000000000000 0.000000000000000 
1
0.000000000000000 0.000000000000000 1.000000000000000 0.000000000000000 
1.000000000000000 0.000000000000000 0.000000000000000 0.000000000000000 
0.000000000000000 1.000000000000000 0.000000000000000 0.000000000000000 
1
0.000000000000000 0.000000000000000 1.000000000000000 0.000000000000000 
1.000000000000000 0.000000000000000 0.000000000000000 0.000000000000000 
0.000000000000000 1.000000000000000 0.000000000000000 0.000000000000000 
1
0.000000000000000 0.000000000000000 1.000000000000000 0.000000000000000 
1.000000000000000 0.000000000000000 0.000000000000000 0.000000000000000 
0.000000000000000 1.000000000000000 0.000000000000000 0.000000000000000 
2  14 -1 15 1 16 -1 17 1 8 -1 9 -1 0
1
0.000000000000000 0.000000000000000 1.000000000000000 0.000000000000000 
1.000000000000000 0.000000000000000 0.000000000000000 0.000000000000000 
0.000000000000000 1.000000000000000 0.000000000000000 0.000000000000000 
1
0.000000000000000 0.000000000000000 -1.000000000000000 -0.000000000000003 
1.000000000000000 -0.000000000000000 0.000000000000000 0.000000000000000 
0.000000000000000 -1.000000000000000 -0.000000000000000 -0.000000000000000 
1
1.000000000000000 0.000000000000000 0.000000000000000 0.000000000000000 
0.000000000000000 1.000000000000000 0.000000000000000 0.000000000000000 
0.000000000000000 0.000000000000000 1.000000000000000 0.000000000000000 
2  19 1 20 -1 21 -1 0
1
1.000000000000000 0.000000000000000 0.000000000000000 -0.000000000000451 
0.000000000000000 1.000000000000000 0.000000000000000 0.000000000000563 
0.000000000000000 0.000000000000000 1.000000000000000 2029.098797890331525 
2  23 -1 19 1 20 -1 21 -1 0
2  14 -1 15 1 16 -1 17 1 20 -1 21 -1 0
2  3 1 2 -1 1 -1 0
2  5 -1 3 1 2 -1 1 -1 0
2  14 -1 15 1 16 -1 17 1 2 -1 1 -1 0
2  3 -1 0
2  8 -1 9 -1 1 1 2 1 0
2  1 1 2 1 0
2  3 -1 5 1 0
Curve2ds 24
1 0.00000000000000000 0.00000000000000000 0.00000000000000000 -1.00000000000000000 
1 6.28318530717958623 0.00000000000000000 0.00000000000000000 -1.00000000000000000 
1 0.00000000000000000 0.00000000000000000 1.00000000000000000 0.00000000000000000 
1 0.00000000000000000 -5.00000000000000000 1.00000000000000000 0.00000000000000000 
2 -0.00000000000022737 -0.00000000000005684 -1.00000000000000000 0.00000000000000000 -0.00000000000000000 -1.00000000000000000 5.00000000000000000
2 103.10900923992613798 392.28422738048675456 -0.00000000000000000 -1.00000000000000000 -1.00000000000000000 0.00000000000000000 5.00000000000000000
1 0.00000000000000000 0.00000000000000000 1.00000000000000000 0.00000000000000000 
1 0.00000000000000000 -2029.09879789033152520 1.00000000000000000 0.00000000000000000 
2 103.10900923992613798 392.28422738048675456 -0.00000000000000000 -1.00000000000000000 -1.00000000000000000 0.00000000000000000 5.00000000000000000
1 0.00000000000000000 0.00000000000000000 1.00000000000000000 0.00000000000000000 
1 0.00000000000000000 -2029.09879789033152520 1.00000000000000000 0.00000000000000000 
2 103.10900923992613798 392.28422738048675456 -0.00000000000000000 -1.00000000000000000 -1.00000000000000000 0.00000000000000000 5.00000000000000000
1 0.00000000000000000 0.00000000000000000 0.00000000000000000 -1.00000000000000000 
1 6.28318530717958623 0.00000000000000000 0.00000000000000000 -1.00000000000000000 
1 0.00000000000000000 0.00000000000000000 1.00000000000000000 0.00000000000000000 
1 0.00000000000000000 -5.00000000000000000 1.00000000000000000 0.00000000000000000 
2 -0.00000000000022737 -0.00000000000000000 -1.00000000000000000 0.00000000000000000 -0.00000000000000000 -1.00000000000000000 5.00000000000000000
2 43.10900923992613798 392.28422738048675456 -0.00000000000000000 -1.00000000000000000 -1.00000000000000000 0.00000000000000000 5.00000000000000000
1 0.00000000000000000 0.00000000000000000 1.00000000000000000 0.00000000000000000 
1 0.00000000000000000 -2029.09879789033152520 1.00000000000000000 0.00000000000000000 
2 43.10900923992613798 392.28422738048675456 -0.00000000000000000 -1.00000000000000000 -1.00000000000000000 0.00000000000000000 5.00000000000000000
1 0.00000000000000000 0.00000000000000000 1.00000000000000000 0.00000000000000000 
1 0.00000000000000000 -2029.09879789033152520 1.00000000000000000 0.00000000000000000 
2 43.10900923992613798 392.28422738048675456 -0.00000000000000000 -1.00000000000000000 -1.00000000000000000 0.00000000000000000 5.00000000000000000
Curves 4
1 -1798.00000000000000000 389.97842888364993996 -0.00000000000058911 -0.00000000000000022 0.00000000000000028 1.00000000000000000 
2 -1803.00000000000000000 -389.97842888364993996 0.00000000000000000 0.00000000000000000 0.00000000000000000 1.00000000000000000 1.00000000000000000 0.00000000000000000 -0.00000000000000000 -0.00000000000000000 1.00000000000000000 0.00000000000000000 5.00000000000000000
1 -1798.00000000000000000 329.97842888364993996 -0.00000000000057579 -0.00000000000000022 0.00000000000000028 1.00000000000000000 
2 -1803.00000000000000000 -329.97842888364993996 0.00000000000000000 0.00000000000000000 0.00000000000000000 1.00000000000000000 1.00000000000000000 0.00000000000000000 -0.00000000000000000 -0.00000000000000000 1.00000000000000000 0.00000000000000000 5.00000000000000000
Polygon3D 0
PolygonOnTriangulations 0
Surfaces 9
2 -1803.00000000000000000 389.97842888364993996 -0.00000000000059050 0.00000000000000028 -0.00000000000000022 -1.00000000000000000 1.00000000000000000 0.00000000000000000 0.00000000000000028 -0.00000000000000000 -1.00000000000000000 0.00000000000000022 5.00000000000000000
2 -1803.00000000000000000 389.97842888364993996 -0.00000000000059050 0.00000000000000028 -0.00000000000000022 -1.00000000000000000 1.00000000000000000 0.00000000000000000 0.00000000000000028 -0.00000000000000000 -1.00000000000000000 0.00000000000000022 5.00000000000000000
1 -0.00000000000049041 -1803.00000000000022737 389.97842888364999681 -1.00000000000000000 0.00000000000000022 -0.00000000000000022 -0.00000000000000022 -1.00000000000000000 0.00000000000000000 -0.00000000000000022 0.00000000000000000 1.00000000000000000 
1 -0.00000000000037694 -1410.71577261951324544 286.86941964372380198 1.00000000000000000 -0.00000000000000022 0.00000000000000022 -0.00000000000000022 0.00000000000000000 1.00000000000000000 -0.00000000000000022 -1.00000000000000000 -0.00000000000000000 
2 -1803.00000000000000000 389.97842888364993996 -0.00000000000059050 0.00000000000000028 -0.00000000000000022 -1.00000000000000000 1.00000000000000000 0.00000000000000000 0.00000000000000028 -0.00000000000000000 -1.00000000000000000 0.00000000000000022 5.00000000000000000
2 -1803.00000000000000000 329.97842888364993996 -0.00000000000057717 0.00000000000000028 -0.00000000000000022 -1.00000000000000000 1.00000000000000000 0.00000000000000000 0.00000000000000028 -0.00000000000000000 -1.00000000000000000 0.00000000000000022 5.00000000000000000
2 -1803.00000000000000000 329.97842888364993996 -0.00000000000057717 0.00000000000000028 -0.00000000000000022 -1.00000000000000000 1.00000000000000000 0.00000000000000000 0.00000000000000028 -0.00000000000000000 -1.00000000000000000 0.00000000000000022 5.00000000000000000
1 -0.00000000000047709 -1803.00000000000022737 329.97842888364993996 -1.00000000000000000 0.00000000000000022 -0.00000000000000022 -0.00000000000000022 -1.00000000000000000 0.00000000000000000 -0.00000000000000022 0.00000000000000000 1.00000000000000000 
2 -1803.00000000000000000 329.97842888364993996 -0.00000000000057717 0.00000000000000028 -0.00000000000000022 -1.00000000000000000 1.00000000000000000 0.00000000000000000 0.00000000000000028 -0.00000000000000000 -1.00000000000000000 0.00000000000000022 5.00000000000000000
Triangulations 0

TShapes 19
Ve
0.000000100000021
-1798.000000000000000 -389.978428883649940 0.000000000000000
0 0

0101101
*
Ed
 0.000000100000021 1 1 0
1  1 0 0.000000000000000 2029.098797890331525
3  1 2CN 1 0 0.000000000000000 2029.098797890331525
0

0101000
+19 4 -19 6 *
Ed
 0.000000100000021 1 1 0
1  2 0 0.000000000000000 6.283185307179586
2  3 2 10 0.000000000000000 6.283185307179586
2  4 2 12 0.000000000000000 6.283185307179586
2  5 3 13 0.000000000000000 6.283185307179586
2  6 4 18 0.000000000000000 6.283185307179586
2  7 5 22 0.000000000000000 6.283185307179586
2  8 5 24 0.000000000000000 6.283185307179586
2  9 4 25 0.000000000000000 6.283185307179586
2  10 1 26 0.000000000000000 6.283185307179586
2  11 1 27 0.000000000000000 6.283185307179586
2  12 4 28 0.000000000000000 6.283185307179586
0

0101000
+19 0 -19 0 *
Wi

0101100
+18 0 -18 0 -17 4 +17 6 *
Fa
0  0.000000100000021 1 0

0111000
+16 0 *
Wi

0101100
+17 0 *
Fa
0  0.000000100000021 3 30

0111000
+14 31 *
Sh

0101100
+15 0 +13 29 -13 32 *
So

0100000
+12 0 *
Ve
0.000000100000024
-1798.000000000000000 -329.978428883649940 0.000000000000000
0 0

0101101
*
Ed
 0.000000100000024 1 1 0
1  3 0 0.000000000000000 2029.098797890331525
3  13 14CN 6 0 0.000000000000000 2029.098797890331525
0

0101000
+10 4 -10 6 *
Ed
 0.000000100000024 1 1 0
1  4 0 0.000000000000000 6.283185307179586
2  15 7 10 0.000000000000000 6.283185307179586
2  16 7 12 0.000000000000000 6.283185307179586
2  17 8 13 0.000000000000000 6.283185307179586
2  18 4 18 0.000000000000000 6.283185307179586
2  19 9 22 0.000000000000000 6.283185307179586
2  20 9 24 0.000000000000000 6.283185307179586
2  21 4 25 0.000000000000000 6.283185307179586
2  22 6 26 0.000000000000000 6.283185307179586
2  23 6 27 0.000000000000000 6.283185307179586
2  24 4 28 0.000000000000000 6.283185307179586
0

0101000
+10 0 -10 0 *
Wi

0101100
+9 0 -9 0 -8 4 +8 6 *
Fa
0  0.000000100000024 6 0

0111000
+7 0 *
Wi

0101100
+8 0 *
Fa
0  0.000000100000024 8 30

0111000
+5 31 *
Sh

0101100
+6 0 +4 29 -4 32 *
So

0100000
+3 0 *
Co

1100000
+11 0 +2 0 *

+1 0 