
CASCADE Topology V1, (c) Matra-Datavision
Locations 28
1
1.000000000000000 0.000000000000000 0.000000000000000 0.000000000000000 
0.000000000000000 1.000000000000000 0.000000000000000 0.000000000000000 
0.000000000000000 0.000000000000000 1.000000000000000 0.000000000000000 
1
1.000000000000000 0.000000000000000 0.000000000000000 0.000000000000000 
0.000000000000000 1.000000000000000 0.000000000000000 0.000000000000000 
0.000000000000000 0.000000000000000 1.000000000000000 0.000000000000000 
1
1.000000000000000 0.000000000000000 0.000000000000000 0.000000000000000 
0.000000000000000 1.000000000000000 0.000000000000000 0.000000000000000 
0.000000000000000 0.000000000000000 1.000000000000000 0.000000000000000 
2  2 1 3 -1 0
1
1.000000000000000 0.000000000000000 0.000000000000000 0.000000000000000 
0.000000000000000 1.000000000000000 0.000000000000000 0.000000000000000 
0.000000000000000 0.000000000000000 1.000000000000000 0.000000000000000 
1
1.000000000000000 0.000000000000000 0.000000000000000 0.000000000000000 
0.000000000000000 1.000000000000000 0.000000000000000 0.000000000000000 
0.000000000000000 0.000000000000000 1.000000000000000 0.000000000000000 
1
1.000000000000000 0.000000000000000 0.000000000000000 0.000000000000000 
0.000000000000000 1.000000000000000 0.000000000000000 0.000000000000000 
0.000000000000000 0.000000000000000 1.000000000000000 0.000000000000000 
2  5 1 6 1 7 -1 0
1
1.000000000000000 0.000000000000000 0.000000000000000 -0.000000000000000 
0.000000000000000 1.000000000000000 0.000000000000000 -0.000000000000000 
0.000000000000000 0.000000000000000 1.000000000000000 -50.000000000000000 
2  5 1 6 1 7 -1 9 1 0
2  7 1 6 -1 5 -1 0
2  9 -1 7 1 6 -1 5 -1 0
2  7 -1 2 1 3 -1 0
2  5 1 6 1 0
2  7 -1 9 1 2 1 3 -1 0
2  5 1 6 1 7 -1 2 1 3 -1 0
2  5 1 6 1 7 -1 9 1 2 1 3 -1 0
1
1.000000000000000 0.000000000000000 0.000000000000000 0.000000000000000 
0.000000000000000 1.000000000000000 0.000000000000000 0.000000000000000 
0.000000000000000 0.000000000000000 1.000000000000000 0.000000000000000 
1
1.000000000000000 0.000000000000000 0.000000000000000 0.000000000000000 
0.000000000000000 0.000000000000000 -1.000000000000000 -1843.000000000000000 
0.000000000000000 1.000000000000000 0.000000000000000 0.000000000000000 
2  18 1 19 1 3 -1 0
2  3 1 19 -1 18 -1 0
1
1.000000000000000 0.000000000000000 0.000000000000000 0.000000000000000 
0.000000000000000 1.000000000000000 0.000000000000000 5.000000000000000 
0.000000000000000 0.000000000000000 1.000000000000000 -0.000000000000001 
2  22 -1 3 1 19 -1 18 -1 0
2  19 -1 18 -1 0
2  2 1 19 -1 18 -1 0
2  18 1 19 1 3 -1 22 1 0
2  3 -1 22 1 0
2  18 1 19 1 0
Curve2ds 28
1 989.89398287380845431 0.00000000000000000 0.00000000000000000 -1.00000000000000000 
1 0.00000000000000000 0.00000000000000000 0.00000000000000000 -1.00000000000000000 
1 162.03161901286512148 0.00000000000000000 0.00000000000000000 -1.00000000000000000 
1 0.00000000000000000 0.00000000000000000 0.00000000000000000 -1.00000000000000000 
1 0.00000000000000000 0.00000000000000000 1.00000000000000000 0.00000000000000000 
1 0.00000000000000000 -50.00000000000000000 1.00000000000000000 0.00000000000000000 
1 469.41427338899120514 0.00000000000000000 0.00000000000000000 -1.00000000000000000 
1 0.00000000000000000 0.00000000000000000 0.00000000000000000 -1.00000000000000000 
1 0.00000000000000000 0.00000000000000000 1.00000000000000000 0.00000000000000000 
1 0.00000000000000000 -50.00000000000000000 1.00000000000000000 0.00000000000000000 
1 0.00000000000000000 0.00000000000000000 0.00000000000000000 -1.00000000000000000 
1 885.47771352997540362 0.00000000000000000 0.00000000000000000 -1.00000000000000000 
1 0.00000000000000000 0.00000000000000000 1.00000000000000000 0.00000000000000000 
1 0.00000000000000000 -50.00000000000000000 1.00000000000000000 0.00000000000000000 
1 0.00000000000000000 0.00000000000000000 1.00000000000000000 0.00000000000000000 
1 0.00000000000000000 -50.00000000000000000 1.00000000000000000 0.00000000000000000 
1 0.00000000000000000 0.00000000000000000 1.00000000000000000 0.00000000000000000 
1 0.00000000000000000 -5.00000000000000000 1.00000000000000000 0.00000000000000000 
2 0.00000000000000355 0.00000000000045475 0.00000000000000000 1.00000000000000000 -1.00000000000000000 0.00000000000000000 5.00000000000000000
2 80.00000000000000000 -25.00000000000000000 1.00000000000000000 0.00000000000000000 -0.00000000000000000 1.00000000000000000 5.00000000000000000
1 0.00000000000000000 0.00000000000000000 1.00000000000000000 0.00000000000000000 
1 0.00000000000000000 -5.00000000000000000 1.00000000000000000 0.00000000000000000 
2 0.00000000000000355 0.00000000000000000 0.00000000000000000 1.00000000000000000 -1.00000000000000000 0.00000000000000000 5.00000000000000000
2 389.41427338899120514 -25.00000000000000000 1.00000000000000000 0.00000000000000000 -0.00000000000000000 1.00000000000000000 5.00000000000000000
1 0.00000000000000000 0.00000000000000000 0.00000000000000000 -1.00000000000000000 
1 6.28318530717958623 0.00000000000000000 0.00000000000000000 -1.00000000000000000 
1 0.00000000000000000 0.00000000000000000 0.00000000000000000 -1.00000000000000000 
1 6.28318530717958623 0.00000000000000000 0.00000000000000000 -1.00000000000000000 
Curves 12
1 2513.22999999999638021 -973.00000000000000000 0.00000000000000000 -0.00000000000000000 -0.00000000000000000 -1.00000000000000000 
1 2351.19838098713125873 -973.00000000000000000 0.00000000000000000 -0.00000000000000000 -0.00000000000000000 -1.00000000000000000 
1 2513.22999999999638021 -973.00000000000000000 0.00000000000000000 -1.00000000000000000 0.00000000000000000 0.00000000000000000 
1 2985.44827297317533521 -1843.00000000000000000 0.00000000000000000 -0.00000000000000000 -0.00000000000000000 -1.00000000000000000 
1 2985.44827297317533521 -1843.00000000000000000 0.00000000000000000 -0.47703923969944695 0.87888199650861754 0.00000000000000000 
1 2516.03399958418413007 -1843.00000000000000000 0.00000000000000000 -0.00000000000000000 -0.00000000000000000 -1.00000000000000000 
1 2351.19838098713125873 -973.00000000000000000 0.00000000000000000 0.18615445208658302 -0.98252049340883685 0.00000000000000000 
1 2516.03399958418413007 -1843.00000000000000000 0.00000000000000000 1.00000000000000000 0.00000000000000000 0.00000000000000000 
2 2596.03399958418413007 -25.00000000000000000 0.00000000000000000 0.00000000000000000 0.00000000000000000 1.00000000000000000 1.00000000000000000 0.00000000000000000 -0.00000000000000000 -0.00000000000000000 1.00000000000000000 0.00000000000000000 5.00000000000000000
2 2905.44827297317533521 -25.00000000000000000 0.00000000000000000 0.00000000000000000 0.00000000000000000 1.00000000000000000 1.00000000000000000 0.00000000000000000 -0.00000000000000000 -0.00000000000000000 1.00000000000000000 0.00000000000000000 5.00000000000000000
1 2601.03399958418413007 -1843.00000000000000000 -25.00000000000000000 0.00000000000000000 1.00000000000000000 -0.00000000000000022 
1 2910.44827297317533521 -1843.00000000000000000 -25.00000000000000000 0.00000000000000000 1.00000000000000000 -0.00000000000000022 
Polygon3D 0
PolygonOnTriangulations 0
Surfaces 9
1 2513.22999999999638021 -973.00000000000000000 0.00000000000000000 0.00000000000000000 1.00000000000000000 -0.00000000000000000 -1.00000000000000000 0.00000000000000000 0.00000000000000000 0.00000000000000000 0.00000000000000000 1.00000000000000000 
1 2985.44827297317533521 -1843.00000000000000000 0.00000000000000000 0.87888199650861754 0.47703923969944695 -0.00000000000000000 -0.47703923969944695 0.87888199650861754 0.00000000000000000 0.00000000000000000 0.00000000000000000 1.00000000000000000 
1 2351.19838098713125873 -973.00000000000000000 0.00000000000000000 -0.98252049340883685 -0.18615445208658302 0.00000000000000000 0.18615445208658302 -0.98252049340883685 0.00000000000000000 0.00000000000000000 0.00000000000000000 1.00000000000000000 
1 2516.03399958418413007 -1843.00000000000000000 0.00000000000000000 0.00000000000000000 -1.00000000000000000 0.00000000000000000 1.00000000000000000 0.00000000000000000 0.00000000000000000 -0.00000000000000000 0.00000000000000000 1.00000000000000000 
1 2617.58173072207955556 -1461.33912417509441184 0.00000000000000000 0.00000000000000000 0.00000000000000000 1.00000000000000000 1.00000000000000000 0.00000000000000000 -0.00000000000000000 -0.00000000000000000 1.00000000000000000 0.00000000000000000 
2 2596.03399958418413007 -1843.00000000000000000 -25.00000000000000000 0.00000000000000000 -1.00000000000000000 0.00000000000000022 1.00000000000000000 0.00000000000000000 0.00000000000000000 -0.00000000000000000 0.00000000000000022 1.00000000000000000 5.00000000000000000
1 2596.03399958418367532 -1843.00000000000000000 -24.99999999999999645 -0.00000000000000000 -1.00000000000000000 -0.00000000000000000 0.00000000000000000 0.00000000000000000 -1.00000000000000000 1.00000000000000000 -0.00000000000000000 0.00000000000000000 
2 2905.44827297317533521 -1843.00000000000000000 -25.00000000000000000 0.00000000000000000 -1.00000000000000000 0.00000000000000022 1.00000000000000000 0.00000000000000000 0.00000000000000000 -0.00000000000000000 0.00000000000000022 1.00000000000000000 5.00000000000000000
1 2905.44827297317533521 -1843.00000000000000000 -24.99999999999999645 -0.00000000000000000 -1.00000000000000000 -0.00000000000000000 0.00000000000000000 0.00000000000000000 -1.00000000000000000 1.00000000000000000 -0.00000000000000000 0.00000000000000000 
Triangulations 0

TShapes 40
Ve
0.000000100000000
2513.229999999996380 -973.000000000000000 0.000000000000000
0 0

0101101
*
Ed
 0.000000100000000 1 1 0
1  1 0 0.000000000000000 50.000000000000000
2  1 2 0 0.000000000000000 50.000000000000000
2  2 1 0 0.000000000000000 50.000000000000000
0

0101000
+40 8 -40 10 *
Ve
0.000000100000000
2351.198380987131259 -973.000000000000000 0.000000000000000
0 0

0101101
*
Ed
 0.000000100000000 1 1 0
1  2 0 0.000000000000000 50.000000000000000
2  3 1 0 0.000000000000000 50.000000000000000
2  4 3 0 0.000000000000000 50.000000000000000
0

0101000
+38 8 -38 10 *
Ed
 0.000000100000000 1 1 0
1  3 0 0.000000000000000 162.031619012865121
2  5 1 11 0.000000000000000 162.031619012865121
2  6 1 12 0.000000000000000 162.031619012865121
0

0101000
+40 0 -38 0 *
Wi

0101100
+39 0 -37 0 -36 8 +36 10 *
Fa
0  0.000000100000000 1 0

0111000
+35 0 *
Ve
0.000000100000000
2985.448272973175335 -1843.000000000000000 0.000000000000000
0 0

0101101
*
Ed
 0.000000100000000 1 1 0
1  4 0 0.000000000000000 50.000000000000000
2  7 4 0 0.000000000000000 50.000000000000000
2  8 2 0 0.000000000000000 50.000000000000000
0

0101000
+33 8 -33 10 *
Ed
 0.000000100000000 1 1 0
1  5 0 0.000000000000000 989.893982873808454
2  9 2 11 0.000000000000000 989.893982873808454
2  10 2 12 0.000000000000000 989.893982873808454
0

0101000
+33 0 -40 0 *
Wi

0101100
+32 0 -39 0 -31 8 +31 10 *
Fa
0  0.000000100000000 2 0

0111000
+30 0 *
Ve
0.000000100000000
2516.033999584184130 -1843.000000000000000 0.000000000000000
0 0

0101101
*
Ed
 0.000000100000000 1 1 0
1  6 0 0.000000000000000 50.000000000000000
2  11 4 0 0.000000000000000 50.000000000000000
2  12 3 0 0.000000000000000 50.000000000000000
0

0101000
+28 8 -28 10 *
Ed
 0.000000100000000 1 1 0
1  7 0 0.000000000000000 885.477713529975404
2  13 3 11 0.000000000000000 885.477713529975404
2  14 3 12 0.000000000000000 885.477713529975404
0

0101000
+38 0 -28 0 *
Wi

0101100
+37 0 -27 0 -26 8 +26 10 *
Fa
0  0.000000100000000 3 0

0111000
+25 0 *
Ed
 0.000000100000000 1 1 0
1  8 0 0.000000000000000 469.414273388991205
2  15 4 11 0.000000000000000 469.414273388991205
2  16 4 12 0.000000000000000 469.414273388991205
0

0101000
+28 0 -33 0 *
Wi

0101100
+36 0 +26 0 +23 0 +31 0 *
Fa
0  0.000000100000000 5 0

0111000
+22 14 *
Wi

0101100
+27 4 -23 16 +23 17 -32 4 *
Ve
0.000000100000000
2601.033999584184130 -25.000000000000000 0.000000000000000
0 0

0101101
*
Ed
 0.000000100000000 1 1 0
1  9 0 0.000000000000000 6.283185307179586
2  17 6 21 0.000000000000000 6.283185307179586
2  18 6 23 0.000000000000000 6.283185307179586
2  19 7 24 0.000000000000000 6.283185307179586
2  20 4 25 0.000000000000000 6.283185307179586
0

0101000
+19 0 -19 0 *
Wi

0101100
-18 20 *
Ve
0.000000100000000
2910.448272973175335 -25.000000000000000 0.000000000000000
0 0

0101101
*
Ed
 0.000000100000000 1 1 0
1  10 0 0.000000000000000 6.283185307179586
2  21 8 21 0.000000000000000 6.283185307179586
2  22 8 23 0.000000000000000 6.283185307179586
2  23 9 24 0.000000000000000 6.283185307179586
2  24 4 25 0.000000000000000 6.283185307179586
0

0101000
+16 0 -16 0 *
Wi

0101100
-15 20 *
Fa
0  0.000000100000000 4 4

0111000
+20 0 +17 0 +14 0 *
Ed
 0.000000100000000 1 1 0
1  11 0 0.000000000000000 5.000000000000000
3  25 26CN 6 0 0.000000000000000 5.000000000000000
0

0101000
+19 20 -19 26 *
Wi

0101100
+12 0 -12 0 -18 20 +18 26 *
Fa
0  0.000000100000000 6 0

0111000
+11 0 *
Ed
 0.000000100000000 1 1 0
1  12 0 0.000000000000000 5.000000000000000
3  27 28CN 8 0 0.000000000000000 5.000000000000000
0

0101000
+16 20 -16 26 *
Wi

0101100
+9 0 -9 0 -15 20 +15 26 *
Fa
0  0.000000100000000 8 0

0111000
+8 0 *
Wi

0101100
+18 0 *
Fa
0  0.000000100000000 7 0

0111000
+6 28 *
Wi

0101100
+15 0 *
Fa
0  0.000000100000000 9 0

0111000
+4 28 *
Sh

0101100
+34 4 +29 4 +24 4 +21 13 -21 15 +13 0 -10 0 -7 0 +5 27 +3 27 
*
So

0100000
+2 0 *

+1 1 