
CASCADE Topology V1, (c) Matra-Datavision
Locations 25
1
1.000000000000000 0.000000000000000 0.000000000000000 0.000000000000000 
0.000000000000000 1.000000000000000 0.000000000000000 0.000000000000000 
0.000000000000000 0.000000000000000 1.000000000000000 0.000000000000000 
1
1.000000000000000 0.000000000000000 0.000000000000000 0.000000000000000 
0.000000000000000 1.000000000000000 0.000000000000000 0.000000000000000 
0.000000000000000 0.000000000000000 1.000000000000000 0.000000000000000 
1
1.000000000000000 0.000000000000000 0.000000000000000 0.000000000000000 
0.000000000000000 1.000000000000000 0.000000000000000 0.000000000000000 
0.000000000000000 0.000000000000000 1.000000000000000 0.000000000000000 
2  2 1 3 -1 0
1
1.000000000000000 0.000000000000000 0.000000000000000 0.000000000000000 
0.000000000000000 1.000000000000000 0.000000000000000 0.000000000000000 
0.000000000000000 0.000000000000000 1.000000000000000 0.000000000000000 
1
1.000000000000000 0.000000000000000 0.000000000000000 0.000000000000000 
0.000000000000000 1.000000000000000 0.000000000000000 0.000000000000000 
0.000000000000000 0.000000000000000 1.000000000000000 0.000000000000000 
1
1.000000000000000 0.000000000000000 0.000000000000000 0.000000000000000 
0.000000000000000 1.000000000000000 0.000000000000000 0.000000000000000 
0.000000000000000 0.000000000000000 1.000000000000000 0.000000000000000 
2  5 1 6 1 7 -1 0
1
1.000000000000000 0.000000000000000 0.000000000000000 -0.000000000000000 
0.000000000000000 1.000000000000000 0.000000000000000 -0.000000000000000 
0.000000000000000 0.000000000000000 1.000000000000000 -50.000000000000000 
2  5 1 6 1 7 -1 9 1 0
2  5 1 6 1 7 -1 2 1 3 -1 0
2  7 1 6 -1 5 -1 0
2  9 -1 7 1 6 -1 5 -1 0
2  5 1 6 1 7 -1 9 1 2 1 3 -1 0
2  7 -1 2 1 3 -1 0
2  5 1 6 1 0
2  7 -1 9 1 2 1 3 -1 0
1
1.000000000000000 0.000000000000000 0.000000000000000 0.000000000000000 
0.000000000000000 1.000000000000000 0.000000000000000 0.000000000000000 
0.000000000000000 0.000000000000000 1.000000000000000 0.000000000000000 
1
1.000000000000000 0.000000000000000 0.000000000000000 0.000000000000000 
0.000000000000000 0.000000000000000 -1.000000000000000 -787.000000000000000 
0.000000000000000 1.000000000000000 0.000000000000000 0.000000000000000 
2  18 1 19 1 3 -1 0
2  3 1 19 -1 18 -1 0
1
1.000000000000000 0.000000000000000 0.000000000000000 0.000000000000000 
0.000000000000000 1.000000000000000 0.000000000000000 2118.443640411516753 
0.000000000000000 0.000000000000000 1.000000000000000 -0.000000000000470 
2  22 -1 3 1 19 -1 18 -1 0
2  19 -1 18 -1 0
2  2 1 19 -1 18 -1 0
Curve2ds 24
1 0.00000000000000000 0.00000000000000000 0.00000000000000000 -1.00000000000000000 
1 0.00000000000000000 0.00000000000000000 1.00000000000000000 0.00000000000000000 
1 0.00000000000000000 -50.00000000000000000 1.00000000000000000 0.00000000000000000 
1 312.00000000000000000 0.00000000000000000 0.00000000000000000 -1.00000000000000000 
2 80.00000000000000000 -25.00000000000022027 -1.00000000000000000 0.00000000000000000 0.00000000000000000 1.00000000000000000 5.00000000000000000
1 0.00000000000000000 -1000.00000000000000000 1.00000000000000000 0.00000000000000000 
2 232.00000000000000000 -25.00000000000022027 -1.00000000000000000 0.00000000000000000 0.00000000000000000 1.00000000000000000 5.00000000000000000
1 0.00000000000000000 -1000.00000000000000000 1.00000000000000000 0.00000000000000000 
1 312.00000000000000000 0.00000000000000000 0.00000000000000000 -1.00000000000000000 
1 0.00000000000000000 0.00000000000000000 1.00000000000000000 0.00000000000000000 
1 0.00000000000000000 -50.00000000000000000 1.00000000000000000 0.00000000000000000 
1 0.00000000000000000 0.00000000000000000 0.00000000000000000 -1.00000000000000000 
1 0.00000000000000000 0.00000000000000000 1.00000000000000000 0.00000000000000000 
1 0.00000000000000000 -2118.44364041151675337 1.00000000000000000 0.00000000000000000 
2 -0.00000000000022737 0.00000000000000355 -1.00000000000000000 -0.00000000000000000 0.00000000000000000 -1.00000000000000000 5.00000000000000000
2 232.00000000000000000 -25.00000000000000000 1.00000000000000000 0.00000000000000000 -0.00000000000000000 1.00000000000000000 5.00000000000000000
1 0.00000000000000000 0.00000000000000000 0.00000000000000000 -1.00000000000000000 
1 6.28318530717958623 0.00000000000000000 0.00000000000000000 -1.00000000000000000 
1 0.00000000000000000 0.00000000000000000 1.00000000000000000 0.00000000000000000 
1 0.00000000000000000 -2118.44364041151675337 1.00000000000000000 0.00000000000000000 
2 0.00000000000000355 -0.00000000000000000 0.00000000000000000 1.00000000000000000 -1.00000000000000000 0.00000000000000000 5.00000000000000000
2 80.00000000000000000 -25.00000000000000000 1.00000000000000000 0.00000000000000000 -0.00000000000000000 1.00000000000000000 5.00000000000000000
1 0.00000000000000000 0.00000000000000000 0.00000000000000000 -1.00000000000000000 
1 6.28318530717958623 0.00000000000000000 0.00000000000000000 -1.00000000000000000 
Curves 14
1 1633.00000000000000000 213.00000000000000000 0.00000000000000000 -0.00000000000000000 -0.00000000000000000 -1.00000000000000000 
1 1633.00000000000000000 213.00000000000000000 0.00000000000000000 -1.00000000000000000 0.00000000000000000 0.00000000000000000 
1 1321.00000000000000000 213.00000000000000000 0.00000000000000000 -0.00000000000000000 -0.00000000000000000 -1.00000000000000000 
2 1553.00000000000000000 213.00000000000000000 -25.00000000000022027 0.00000000000000000 -1.00000000000000000 0.00000000000000022 1.00000000000000000 0.00000000000000000 0.00000000000000000 -0.00000000000000000 0.00000000000000022 1.00000000000000000 5.00000000000000000
2 1401.00000000000000000 213.00000000000000000 -25.00000000000022027 0.00000000000000000 -1.00000000000000000 0.00000000000000022 1.00000000000000000 0.00000000000000000 0.00000000000000000 -0.00000000000000000 0.00000000000000022 1.00000000000000000 5.00000000000000000
1 1633.00000000000000000 -787.00000000000000000 0.00000000000000000 -0.00000000000000000 -0.00000000000000000 -1.00000000000000000 
1 1633.00000000000000000 -787.00000000000000000 0.00000000000000000 0.00000000000000000 1.00000000000000000 0.00000000000000000 
1 1321.00000000000000000 213.00000000000000000 0.00000000000000000 0.00000000000000000 -1.00000000000000000 0.00000000000000000 
1 1321.00000000000000000 -787.00000000000000000 0.00000000000000000 1.00000000000000000 0.00000000000000000 0.00000000000000000 
1 1321.00000000000000000 -787.00000000000000000 0.00000000000000000 -0.00000000000000000 -0.00000000000000000 -1.00000000000000000 
2 1553.00000000000000000 -25.00000000000000000 0.00000000000000000 0.00000000000000000 0.00000000000000000 1.00000000000000000 1.00000000000000000 0.00000000000000000 -0.00000000000000000 -0.00000000000000000 1.00000000000000000 0.00000000000000000 5.00000000000000000
1 1558.00000000000000000 -787.00000000000000000 -25.00000000000000000 0.00000000000000000 1.00000000000000000 -0.00000000000000022 
2 1401.00000000000000000 -25.00000000000000000 0.00000000000000000 0.00000000000000000 0.00000000000000000 1.00000000000000000 1.00000000000000000 0.00000000000000000 -0.00000000000000000 -0.00000000000000000 1.00000000000000000 0.00000000000000000 5.00000000000000000
1 1406.00000000000000000 -787.00000000000000000 -25.00000000000000000 0.00000000000000000 1.00000000000000000 -0.00000000000000022 
Polygon3D 0
PolygonOnTriangulations 0
Surfaces 9
1 1633.00000000000000000 213.00000000000000000 0.00000000000000000 0.00000000000000000 1.00000000000000000 -0.00000000000000000 -1.00000000000000000 0.00000000000000000 0.00000000000000000 0.00000000000000000 0.00000000000000000 1.00000000000000000 
2 1553.00000000000000000 -787.00000000000000000 -25.00000000000000000 0.00000000000000000 -1.00000000000000000 0.00000000000000022 1.00000000000000000 0.00000000000000000 0.00000000000000000 -0.00000000000000000 0.00000000000000022 1.00000000000000000 5.00000000000000000
2 1401.00000000000000000 -787.00000000000000000 -25.00000000000000000 0.00000000000000000 -1.00000000000000000 0.00000000000000022 1.00000000000000000 0.00000000000000000 0.00000000000000000 -0.00000000000000000 0.00000000000000022 1.00000000000000000 5.00000000000000000
1 1633.00000000000000000 -787.00000000000000000 0.00000000000000000 1.00000000000000000 0.00000000000000000 0.00000000000000000 -0.00000000000000000 1.00000000000000000 0.00000000000000000 0.00000000000000000 -0.00000000000000000 1.00000000000000000 
1 1321.00000000000000000 -787.00000000000000000 0.00000000000000000 0.00000000000000000 -1.00000000000000000 0.00000000000000000 1.00000000000000000 0.00000000000000000 0.00000000000000000 -0.00000000000000000 0.00000000000000000 1.00000000000000000 
1 1477.00000000000000000 -287.00000000000000000 0.00000000000000000 0.00000000000000000 0.00000000000000000 1.00000000000000000 1.00000000000000000 0.00000000000000000 -0.00000000000000000 -0.00000000000000000 1.00000000000000000 0.00000000000000000 
1 1321.00000000000000000 213.00000000000000000 0.00000000000000000 -1.00000000000000000 0.00000000000000000 0.00000000000000000 0.00000000000000000 -1.00000000000000000 0.00000000000000000 0.00000000000000000 0.00000000000000000 1.00000000000000000 
1 1552.99999999999977263 -786.99999999999988631 -24.99999999999999645 -0.00000000000000000 -1.00000000000000000 0.00000000000000000 -1.00000000000000000 0.00000000000000000 0.00000000000000000 -0.00000000000000000 0.00000000000000000 -1.00000000000000000 
1 1401.00000000000000000 -786.99999999999988631 -24.99999999999999645 -0.00000000000000000 -1.00000000000000000 0.00000000000000000 0.00000000000000000 -0.00000000000000000 -1.00000000000000000 1.00000000000000000 0.00000000000000000 0.00000000000000000 
Triangulations 0

TShapes 42
Ve
0.000000100000000
1633.000000000000000 213.000000000000000 0.000000000000000
0 0

0101101
*
Ed
 0.000000100000000 1 1 0
1  1 0 0.000000000000000 50.000000000000000
2  1 1 0 0.000000000000000 50.000000000000000
0

0101000
+42 8 -42 10 *
Ve
0.000000100000000
1321.000000000000000 213.000000000000000 0.000000000000000
0 0

0101101
*
Ed
 0.000000100000000 1 1 0
1  2 0 0.000000000000000 312.000000000000000
2  2 1 12 0.000000000000000 312.000000000000000
2  3 1 13 0.000000000000000 312.000000000000000
0

0101000
+42 0 -40 0 *
Ed
 0.000000100000000 1 1 0
1  3 0 0.000000000000000 50.000000000000000
2  4 1 0 0.000000000000000 50.000000000000000
0

0101000
+40 8 -40 10 *
Wi

0101100
+41 4 -39 11 +39 14 -38 4 *
Ve
0.000000100000000
1558.000000000000000 213.000000000000000 -25.000000000000220
0 0

0101101
*
Ed
 0.000000100000000 1 1 0
1  4 0 0.000000000000000 6.283185307179586
2  5 1 4 0.000000000000000 6.283185307179586
2  6 2 0 0.000000000000000 6.283185307179586
0

0101000
+36 0 -36 0 *
Wi

0101100
+35 0 *
Ve
0.000000100000000
1406.000000000000000 213.000000000000000 -25.000000000000220
0 0

0101101
*
Ed
 0.000000100000000 1 1 0
1  5 0 0.000000000000000 6.283185307179586
2  7 1 4 0.000000000000000 6.283185307179586
2  8 3 0 0.000000000000000 6.283185307179586
0

0101000
+33 0 -33 0 *
Wi

0101100
+32 0 *
Fa
0  0.000000100000000 1 4

0111000
+37 0 +34 0 +31 0 *
Ve
0.000000100000000
1633.000000000000000 -787.000000000000000 0.000000000000000
0 0

0101101
*
Ed
 0.000000100000000 1 1 0
1  6 0 0.000000000000000 50.000000000000000
2  9 5 0 0.000000000000000 50.000000000000000
0

0101000
+29 8 -29 10 *
Ed
 0.000000100000000 1 1 0
1  7 0 0.000000000000000 1000.000000000000000
0

0101000
+29 0 -42 0 *
Wi

0101100
+28 0 -41 0 -27 8 +27 10 *
Fa
0  0.000000100000000 4 0

0111000
+26 0 *
Ve
0.000000100000000
1321.000000000000000 -787.000000000000000 0.000000000000000
0 0

0101101
*
Ed
 0.000000100000000 1 1 0
1  8 0 0.000000000000000 1000.000000000000000
0

0101000
+40 0 -24 0 *
Ed
 0.000000100000000 1 1 0
1  9 0 0.000000000000000 312.000000000000000
2  10 5 12 0.000000000000000 312.000000000000000
2  11 5 13 0.000000000000000 312.000000000000000
0

0101000
+24 0 -29 0 *
Wi

0101100
+39 0 +23 0 +22 0 +27 0 *
Fa
0  0.000000100000000 6 0

0111000
+21 16 *
Ed
 0.000000100000000 1 1 0
1  10 0 0.000000000000000 50.000000000000000
2  12 5 0 0.000000000000000 50.000000000000000
0

0101000
+24 8 -24 10 *
Wi

0101100
+38 0 -19 0 -23 8 +23 10 *
Fa
0  0.000000100000000 7 0

0111000
+18 0 *
Ve
0.000000100000000
1558.000000000000000 -25.000000000000000 0.000000000000000
0 0

0101101
*
Ed
 0.000000100000000 1 1 0
1  11 0 0.000000000000000 6.283185307179586
2  13 2 21 0.000000000000000 6.283185307179586
2  14 2 23 0.000000000000000 6.283185307179586
2  15 8 24 0.000000000000000 6.283185307179586
2  16 5 25 0.000000000000000 6.283185307179586
0

0101000
+16 0 -16 0 *
Ed
 0.000000100000000 1 1 0
1  12 0 0.000000000000000 1000.000000000000000
3  17 18CN 2 0 0.000000000000000 1000.000000000000000
0

0101000
+16 20 -36 0 *
Wi

0101100
-15 20 -14 0 +35 0 +14 0 *
Fa
0  0.000000100000000 2 0

0111000
+13 0 *
Ve
0.000000100000000
1406.000000000000000 -25.000000000000000 0.000000000000000
0 0

0101101
*
Ed
 0.000000100000000 1 1 0
1  13 0 0.000000000000000 6.283185307179586
2  19 3 21 0.000000000000000 6.283185307179586
2  20 3 23 0.000000000000000 6.283185307179586
2  21 9 24 0.000000000000000 6.283185307179586
2  22 5 25 0.000000000000000 6.283185307179586
0

0101000
+11 0 -11 0 *
Ed
 0.000000100000000 1 1 0
1  14 0 0.000000000000000 1000.000000000000000
3  23 24CN 3 0 0.000000000000000 1000.000000000000000
0

0101000
+11 20 -33 0 *
Wi

0101100
-10 20 -9 0 +32 0 +9 0 *
Fa
0  0.000000100000000 3 0

0111000
+8 0 *
Wi

0101100
+19 4 -22 11 +22 14 -28 4 *
Wi

0101100
-10 20 *
Wi

0101100
-15 20 *
Fa
0  0.000000100000000 5 4

0111000
+6 0 +5 0 +4 0 *
Sh

0101100
+30 0 +25 4 +20 15 -20 17 +17 4 -12 0 -7 0 +3 0 *
So

0100000
+2 0 *

+1 1 