
CASCADE Topology V1, (c) Matra-Datavision
Locations 67
1
1.000000000000000 0.000000000000000 0.000000000000000 0.000000000000000 
0.000000000000000 1.000000000000000 0.000000000000000 0.000000000000000 
0.000000000000000 0.000000000000000 1.000000000000000 3315.866700000000037 
1
1.000000000000000 0.000000000000000 0.000000000000000 0.000000000000000 
0.000000000000000 1.000000000000000 0.000000000000000 0.000000000000000 
0.000000000000000 0.000000000000000 1.000000000000000 0.000000000000000 
1
1.000000000000000 0.000000000000000 0.000000000000000 0.000000000000000 
0.000000000000000 1.000000000000000 0.000000000000000 0.000000000000000 
0.000000000000000 0.000000000000000 1.000000000000000 0.000000000000000 
1
1.000000000000000 0.000000000000000 0.000000000000000 0.000000000000000 
0.000000000000000 1.000000000000000 0.000000000000000 0.000000000000000 
0.000000000000000 0.000000000000000 1.000000000000000 0.000000000000000 
1
1.000000000000000 0.000000000000000 0.000000000000000 0.000000000000000 
0.000000000000000 1.000000000000000 0.000000000000000 0.000000000000000 
0.000000000000000 0.000000000000000 1.000000000000000 0.000000000000000 
1
1.000000000000000 0.000000000000000 0.000000000000000 0.000000000000000 
0.000000000000000 1.000000000000000 0.000000000000000 0.000000000000000 
0.000000000000000 0.000000000000000 1.000000000000000 0.000000000000000 
1
1.000000000000000 0.000000000000000 0.000000000000000 0.000000000000000 
0.000000000000000 1.000000000000000 0.000000000000000 0.000000000000000 
0.000000000000000 0.000000000000000 1.000000000000000 0.000000000000000 
2  2 1 3 -1 4 1 5 -1 6 1 7 -1 0
1
1.000000000000000 0.000000000000000 0.000000000000000 0.000000000000000 
0.000000000000000 1.000000000000000 0.000000000000000 0.000000000000000 
0.000000000000000 0.000000000000000 1.000000000000000 0.000000000000000 
2  9 -1 7 1 6 -1 5 1 4 -1 3 1 2 -1 0
1
1.000000000000000 0.000000000000000 0.000000000000000 0.000000000000000 
0.000000000000000 1.000000000000000 0.000000000000000 0.000000000000000 
0.000000000000000 0.000000000000000 1.000000000000000 0.000000000000000 
1
1.000000000000000 0.000000000000000 0.000000000000000 0.000000000000000 
0.000000000000000 1.000000000000000 0.000000000000000 0.000000000000000 
0.000000000000000 0.000000000000000 1.000000000000000 0.000000000000000 
1
1.000000000000000 0.000000000000000 0.000000000000000 0.000000000000000 
0.000000000000000 1.000000000000000 0.000000000000000 0.000000000000000 
0.000000000000000 0.000000000000000 1.000000000000000 0.000000000000000 
2  11 1 12 1 13 -1 0
2  9 -1 7 1 6 -1 5 1 4 -1 3 1 2 -1 13 1 12 -1 11 -1 0
1
1.000000000000000 0.000000000000000 0.000000000000000 -0.000000000000000 
0.000000000000000 1.000000000000000 0.000000000000000 -0.000000000000000 
0.000000000000000 0.000000000000000 1.000000000000000 -50.000000000000000 
2  11 1 12 1 13 -1 16 1 0
2  9 -1 7 1 6 -1 5 1 4 -1 3 1 2 -1 16 -1 13 1 12 -1 11 -1 0
2  4 1 5 -1 6 1 7 -1 0
2  2 1 3 -1 0
2  11 1 12 1 13 -1 2 1 3 -1 0
2  11 1 12 1 13 -1 16 1 2 1 3 -1 0
1
1.000000000000000 0.000000000000000 0.000000000000000 0.000000000000000 
0.000000000000000 1.000000000000000 0.000000000000000 0.000000000000000 
0.000000000000000 0.000000000000000 1.000000000000000 0.000000000000000 
1
0.000000000000000 0.000000000000000 1.000000000000000 3681.000000000000455 
1.000000000000000 0.000000000000000 0.000000000000000 0.000000000000000 
0.000000000000000 1.000000000000000 0.000000000000000 0.000000000000000 
2  23 1 24 1 3 -1 0
2  3 1 24 -1 23 -1 0
2  9 -1 7 1 6 -1 5 1 4 -1 3 1 24 -1 23 -1 0
2  11 1 12 1 13 -1 2 1 3 -1 4 1 5 -1 6 1 7 -1 0
2  11 1 12 1 13 -1 16 1 2 1 3 -1 4 1 5 -1 6 1 7 -1 0
1
1.000000000000000 0.000000000000000 0.000000000000000 0.000000000000000 
0.000000000000000 1.000000000000000 0.000000000000000 0.000000000000000 
0.000000000000000 0.000000000000000 1.000000000000000 0.000000000000000 
1
0.000000000000000 0.000000000000000 -1.000000000000000 2807.999999999997726 
-1.000000000000000 0.000000000000000 0.000000000000000 0.000000000000000 
0.000000000000000 1.000000000000000 0.000000000000000 0.000000000000000 
2  30 1 31 1 7 -1 0
2  7 1 31 -1 30 -1 0
2  9 -1 7 1 31 -1 30 -1 0
2  13 -1 2 1 3 -1 4 1 5 -1 6 1 7 -1 0
2  11 1 12 1 0
2  13 -1 16 1 2 1 3 -1 4 1 5 -1 6 1 7 -1 0
2  9 -1 7 1 6 -1 5 1 4 -1 0
1
1.000000000000000 0.000000000000000 0.000000000000000 -5.000000000000000 
0.000000000000000 1.000000000000000 0.000000000000000 -0.000000000000000 
0.000000000000000 0.000000000000000 1.000000000000000 -0.000000000000000 
2  23 1 24 1 3 -1 39 1 0
2  39 -1 3 1 24 -1 23 -1 0
2  9 -1 7 1 6 -1 5 1 4 -1 39 -1 3 1 24 -1 23 -1 0
2  6 1 7 -1 0
2  2 1 3 -1 4 1 5 -1 0
2  11 1 12 1 13 -1 2 1 3 -1 4 1 5 -1 0
2  11 1 12 1 13 -1 16 1 2 1 3 -1 4 1 5 -1 0
1
1.000000000000000 0.000000000000000 0.000000000000000 0.000000000000000 
0.000000000000000 1.000000000000000 0.000000000000000 0.000000000000000 
0.000000000000000 0.000000000000000 1.000000000000000 0.000000000000000 
1
-1.000000000000000 0.000000000000000 0.000000000000000 0.000000000000000 
0.000000000000000 0.000000000000000 1.000000000000000 -973.000000000000000 
0.000000000000000 1.000000000000000 -0.000000000000000 0.000000000000000 
2  47 1 48 1 5 -1 0
2  5 1 48 -1 47 -1 0
2  9 -1 7 1 6 -1 5 1 48 -1 47 -1 0
2  9 -1 0
1
1.000000000000000 0.000000000000000 0.000000000000000 5.000000000000000 
0.000000000000000 1.000000000000000 0.000000000000000 0.000000000000000 
0.000000000000000 0.000000000000000 1.000000000000000 0.000000000000000 
2  30 1 31 1 7 -1 53 1 0
2  53 -1 7 1 31 -1 30 -1 0
2  9 -1 53 -1 7 1 31 -1 30 -1 0
2  3 -1 39 1 4 1 5 -1 6 1 7 -1 0
2  23 1 24 1 0
2  9 -1 7 1 6 -1 0
1
1.000000000000000 0.000000000000000 0.000000000000000 0.000000000000000 
0.000000000000000 1.000000000000000 0.000000000000000 -5.000000000000000 
0.000000000000000 0.000000000000000 1.000000000000000 0.000000000000001 
2  47 1 48 1 5 -1 60 1 0
2  60 -1 5 1 48 -1 47 -1 0
2  9 -1 7 1 6 -1 60 -1 5 1 48 -1 47 -1 0
2  7 -1 53 1 0
2  30 1 31 1 0
2  5 -1 60 1 6 1 7 -1 0
2  47 1 48 1 0
Curve2ds 16
1 0.00000000000000000 0.00000000000000000 1.00000000000000000 0.00000000000000000 
1 0.00000000000000000 0.00000000000000000 1.00000000000000000 0.00000000000000000 
1 0.00000000000000000 0.00000000000000000 1.00000000000000000 0.00000000000000000 
1 0.00000000000000000 0.00000000000000000 0.00000000000000000 -1.00000000000000000 
1 6.28318530717958623 0.00000000000000000 0.00000000000000000 -1.00000000000000000 
1 0.00000000000000000 -5.00000000000000000 1.00000000000000000 0.00000000000000000 
1 0.00000000000000000 0.00000000000000000 0.00000000000000000 -1.00000000000000000 
1 6.28318530717958623 0.00000000000000000 0.00000000000000000 -1.00000000000000000 
1 0.00000000000000000 -5.00000000000000000 1.00000000000000000 0.00000000000000000 
1 0.00000000000000000 0.00000000000000000 1.00000000000000000 0.00000000000000000 
1 0.00000000000000000 0.00000000000000000 0.00000000000000000 -1.00000000000000000 
1 6.28318530717958623 0.00000000000000000 0.00000000000000000 -1.00000000000000000 
1 0.00000000000000000 -5.00000000000000000 1.00000000000000000 0.00000000000000000 
1 0.00000000000000000 0.00000000000000000 0.00000000000000000 -1.00000000000000000 
1 6.28318530717958623 0.00000000000000000 0.00000000000000000 -1.00000000000000000 
1 0.00000000000000000 -5.00000000000000000 1.00000000000000000 0.00000000000000000 
Curves 30
1 3681.00000000000045475 -897.00000000000000000 0.00000000000000000 -0.00000000000000000 -0.00000000000000000 -1.00000000000000000 
1 2807.99999999999772626 -897.00000000000000000 0.00000000000000000 -0.00000000000000000 -0.00000000000000000 -1.00000000000000000 
1 3681.00000000000045475 -897.00000000000000000 0.00000000000000000 -1.00000000000000000 0.00000000000000000 0.00000000000000000 
1 3681.00000000000045475 -897.00000000000000000 0.00000000000000000 -1.00000000000000000 0.00000000000000000 0.00000000000000000 
1 3681.00000000000045475 -1400.26801004711433052 0.00000000000000000 -0.00000000000000000 -0.00000000000000000 -1.00000000000000000 
1 3681.00000000000045475 -1400.26801004711433052 0.00000000000000000 0.00000000000000000 1.00000000000000000 0.00000000000000000 
1 3681.00000000000045475 -1400.26801004711433052 0.00000000000000000 0.00000000000000000 1.00000000000000000 0.00000000000000000 
2 -1320.26801004711433052 -25.00000000000000000 0.00000000000000000 0.00000000000000000 0.00000000000000000 1.00000000000000000 1.00000000000000000 0.00000000000000000 -0.00000000000000000 -0.00000000000000000 1.00000000000000000 0.00000000000000000 5.00000000000000000
2 -977.00000000000000000 -25.00000000000000000 0.00000000000000000 0.00000000000000000 0.00000000000000000 1.00000000000000000 1.00000000000000000 0.00000000000000000 -0.00000000000000000 -0.00000000000000000 1.00000000000000000 0.00000000000000000 5.00000000000000000
1 2807.99999999999772626 -897.00000000000000000 0.00000000000000000 0.00000000000000000 -1.00000000000000000 0.00000000000000000 
1 2807.99999999999772626 -897.00000000000000000 0.00000000000000000 0.00000000000000000 -1.00000000000000000 0.00000000000000000 
1 2807.99999999999772626 -973.00000000000000000 0.00000000000000000 -0.00000000000000000 -0.00000000000000000 -1.00000000000000000 
2 937.00000000000000000 -25.00000000000000000 0.00000000000000000 0.00000000000000000 0.00000000000000000 1.00000000000000000 1.00000000000000000 0.00000000000000000 -0.00000000000000000 -0.00000000000000000 1.00000000000000000 0.00000000000000000 5.00000000000000000
1 2807.99999999999772626 -973.00000000000000000 0.00000000000000000 -1.00000000000000000 0.00000000000000000 0.00000000000000000 
1 2692.37830435984096766 -973.00000000000000000 0.00000000000000000 0.00000000000000000 -1.00000000000000000 0.00000000000000000 
1 2692.37830435984096766 -1003.00000000000079581 0.00000000000000000 0.92788670916328297 -0.37286224662485373 0.00000000000000000 
1 2807.99999999999772626 -973.00000000000000000 0.00000000000000000 -1.00000000000000000 0.00000000000000000 0.00000000000000000 
1 2692.37830435984096766 -973.00000000000000000 0.00000000000000000 0.00000000000000000 -1.00000000000000000 0.00000000000000000 
1 2692.37830435984096766 -1003.00000000000079581 0.00000000000000000 0.92788670916328297 -0.37286224662485373 0.00000000000000000 
1 2692.37830435984096766 -1003.00000000000079581 0.00000000000000000 -0.00000000000000000 -0.00000000000000000 -1.00000000000000000 
1 3681.00000000000045475 -1315.26801004711433052 -25.00000000000000000 -1.00000000000000000 -0.00000000000000000 -0.00000000000000000 
2 -1320.26801004711433052 -25.00000000000000000 0.00000000000000000 0.00000000000000000 0.00000000000000000 1.00000000000000000 1.00000000000000000 0.00000000000000000 -0.00000000000000000 -0.00000000000000000 1.00000000000000000 0.00000000000000000 5.00000000000000000
1 3681.00000000000045475 -972.00000000000000000 -25.00000000000000000 -1.00000000000000000 -0.00000000000000000 -0.00000000000000000 
2 -977.00000000000000000 -25.00000000000000000 0.00000000000000000 0.00000000000000000 0.00000000000000000 1.00000000000000000 1.00000000000000000 0.00000000000000000 -0.00000000000000000 -0.00000000000000000 1.00000000000000000 0.00000000000000000 5.00000000000000000
1 2692.37830435984096766 -973.00000000000000000 0.00000000000000000 -0.00000000000000000 -0.00000000000000000 -1.00000000000000000 
2 -2752.37830435984096766 -25.00000000000000000 0.00000000000000000 0.00000000000000000 0.00000000000000000 1.00000000000000000 1.00000000000000000 0.00000000000000000 -0.00000000000000000 -0.00000000000000000 1.00000000000000000 0.00000000000000000 5.00000000000000000
1 2807.99999999999772626 -942.00000000000000000 -25.00000000000000000 1.00000000000000000 0.00000000000000000 0.00000000000000000 
2 937.00000000000000000 -25.00000000000000000 0.00000000000000000 0.00000000000000000 0.00000000000000000 1.00000000000000000 1.00000000000000000 0.00000000000000000 -0.00000000000000000 -0.00000000000000000 1.00000000000000000 0.00000000000000000 5.00000000000000000
1 2747.37830435984096766 -973.00000000000000000 -25.00000000000000000 0.00000000000000000 -1.00000000000000000 0.00000000000000022 
2 -2752.37830435984096766 -25.00000000000000000 0.00000000000000000 0.00000000000000000 0.00000000000000000 1.00000000000000000 1.00000000000000000 0.00000000000000000 -0.00000000000000000 -0.00000000000000000 1.00000000000000000 0.00000000000000000 5.00000000000000000
Polygon3D 0
PolygonOnTriangulations 0
Surfaces 16
1 3681.00000000000045475 -897.00000000000000000 0.00000000000000000 0.00000000000000000 1.00000000000000000 0.00000000000000000 -1.00000000000000000 0.00000000000000000 0.00000000000000000 0.00000000000000000 -0.00000000000000000 1.00000000000000000 
1 3681.00000000000045475 -1400.26801004711433052 0.00000000000000000 1.00000000000000000 0.00000000000000000 0.00000000000000000 -0.00000000000000000 1.00000000000000000 0.00000000000000000 0.00000000000000000 -0.00000000000000000 1.00000000000000000 
2 3681.00000000000045475 -1320.26801004711433052 -25.00000000000000000 1.00000000000000000 0.00000000000000000 0.00000000000000000 -0.00000000000000000 1.00000000000000000 0.00000000000000000 0.00000000000000000 -0.00000000000000000 1.00000000000000000 5.00000000000000000
2 3681.00000000000045475 -977.00000000000000000 -25.00000000000000000 1.00000000000000000 0.00000000000000000 0.00000000000000000 -0.00000000000000000 1.00000000000000000 0.00000000000000000 0.00000000000000000 -0.00000000000000000 1.00000000000000000 5.00000000000000000
1 2807.99999999999772626 -897.00000000000000000 0.00000000000000000 -1.00000000000000000 0.00000000000000000 0.00000000000000000 0.00000000000000000 -1.00000000000000000 0.00000000000000000 0.00000000000000000 0.00000000000000000 1.00000000000000000 
2 2807.99999999999772626 -937.00000000000000000 -25.00000000000000000 -1.00000000000000000 0.00000000000000000 0.00000000000000000 0.00000000000000000 -1.00000000000000000 0.00000000000000000 0.00000000000000000 0.00000000000000000 1.00000000000000000 5.00000000000000000
1 3263.72053375277346277 -1071.82470042972477131 0.00000000000000000 0.00000000000000000 0.00000000000000000 1.00000000000000000 1.00000000000000000 0.00000000000000000 -0.00000000000000000 -0.00000000000000000 1.00000000000000000 0.00000000000000000 
1 3263.72053375277346277 -1071.82470042972477131 0.00000000000000000 0.00000000000000000 0.00000000000000000 1.00000000000000000 1.00000000000000000 0.00000000000000000 -0.00000000000000000 -0.00000000000000000 1.00000000000000000 0.00000000000000000 
1 2692.37830435984096766 -1003.00000000000079581 0.00000000000000000 -0.37286224662485373 -0.92788670916328297 0.00000000000000000 0.92788670916328297 -0.37286224662485373 0.00000000000000000 0.00000000000000000 0.00000000000000000 1.00000000000000000 
1 2807.99999999999772626 -973.00000000000000000 0.00000000000000000 0.00000000000000000 1.00000000000000000 0.00000000000000000 -1.00000000000000000 0.00000000000000000 0.00000000000000000 0.00000000000000000 -0.00000000000000000 1.00000000000000000 
2 2752.37830435984096766 -973.00000000000000000 -25.00000000000000000 0.00000000000000000 1.00000000000000000 -0.00000000000000022 -1.00000000000000000 0.00000000000000000 0.00000000000000000 0.00000000000000000 0.00000000000000022 1.00000000000000000 5.00000000000000000
1 2692.37830435984096766 -973.00000000000000000 0.00000000000000000 -1.00000000000000000 0.00000000000000000 0.00000000000000000 0.00000000000000000 -1.00000000000000000 0.00000000000000000 0.00000000000000000 0.00000000000000000 1.00000000000000000 
1 3681.00000000000000000 -1320.26801004711410314 -24.99999999999999645 1.00000000000000000 0.00000000000000000 0.00000000000000000 -0.00000000000000000 1.00000000000000000 0.00000000000000000 0.00000000000000000 -0.00000000000000000 1.00000000000000000 
1 3681.00000000000000000 -976.99999999999988631 -24.99999999999999645 1.00000000000000000 0.00000000000000000 0.00000000000000000 -0.00000000000000000 1.00000000000000000 0.00000000000000000 0.00000000000000000 -0.00000000000000000 1.00000000000000000 
1 2807.99999999999772626 -936.99999999999988631 -24.99999999999999645 -1.00000000000000000 -0.00000000000000000 -0.00000000000000000 0.00000000000000000 0.00000000000000000 -1.00000000000000000 0.00000000000000000 -1.00000000000000000 0.00000000000000000 
1 2752.37830435984096766 -972.99999999999988631 -24.99999999999999645 -0.00000000000000000 1.00000000000000000 -0.00000000000000000 0.00000000000000000 0.00000000000000000 1.00000000000000000 1.00000000000000000 0.00000000000000000 -0.00000000000000000 
Triangulations 0

TShapes 88
Ve
0.000000100000000
3681.000000000000455 -897.000000000000000 0.000000000000000
0 0

0101101
*
Ve
0.000000100000000
3681.000000000000455 -897.000000000000000 -50.000000000000000
0 0

0101101
*
Ed
 0.000000100000000 1 1 0
1  1 0 0.000000000000000 50.000000000000000
0

0101000
+88 10 -87 10 *
Ve
0.000000100000000
2807.999999999997726 -897.000000000000000 0.000000000000000
0 0

0101101
*
Ve
0.000000100000000
2807.999999999997726 -897.000000000000000 -50.000000000000000
0 0

0101101
*
Ed
 0.000000100000000 1 1 0
1  2 0 0.000000000000000 50.000000000000000
0

0101000
+85 10 -84 10 *
Ed
 0.000000100000000 1 1 0
1  3 0 0.000000000000000 873.000000000002728
0

0101000
+88 15 -85 15 *
Ed
 0.000000100000000 1 1 0
1  4 0 0.000000000000000 873.000000000002728
0

0101000
+87 18 -84 18 *
Wi

0101100
+86 0 -83 0 -82 14 +81 17 *
Fa
0  0.000000100000000 1 0

0111000
+80 0 *
Ve
0.000000100000000
3681.000000000000455 -1400.268010047114331 0.000000000000000
0 0

0101101
*
Ve
0.000000100000000
3681.000000000000455 -1400.268010047114331 -50.000000000000000
0 0

0101101
*
Ed
 0.000000100000000 1 1 0
1  5 0 0.000000000000000 50.000000000000000
0

0101000
+78 10 -77 10 *
Ed
 0.000000100000000 1 1 0
1  6 0 0.000000000000000 503.268010047114331
0

0101000
+78 15 -88 15 *
Ed
 0.000000100000000 1 1 0
1  7 0 0.000000000000000 503.268010047114331
0

0101000
+77 18 -87 18 *
Wi

0101100
+76 20 -75 21 +74 22 -86 20 *
Ve
0.000000100000000
3681.000000000000455 -1315.268010047114331 -25.000000000000000
0 0

0101101
*
Ed
 0.000000100000000 1 1 0
1  8 0 0.000000000000000 6.283185307179586
2  1 3 26 0.000000000000000 6.283185307179586
0

0101000
+72 27 -72 27 *
Wi

0101100
-71 25 *
Ve
0.000000100000000
3681.000000000000455 -972.000000000000000 -25.000000000000000
0 0

0101101
*
Ed
 0.000000100000000 1 1 0
1  9 0 0.000000000000000 6.283185307179586
2  2 4 26 0.000000000000000 6.283185307179586
0

0101000
+69 27 -69 27 *
Wi

0101100
-68 25 *
Fa
0  0.000000100000000 2 20

0111000
+73 0 +70 0 +67 0 *
Ve
0.000000100000000
2807.999999999997726 -973.000000000000000 0.000000000000000
0 0

0101101
*
Ed
 0.000000100000000 1 1 0
1  10 0 0.000000000000000 76.000000000000000
0

0101000
+85 15 -65 15 *
Ve
0.000000100000000
2807.999999999997726 -973.000000000000000 -50.000000000000000
0 0

0101101
*
Ed
 0.000000100000000 1 1 0
1  11 0 0.000000000000000 76.000000000000000
0

0101000
+84 18 -63 18 *
Ed
 0.000000100000000 1 1 0
1  12 0 0.000000000000000 50.000000000000000
0

0101000
+65 10 -63 10 *
Wi

0101100
+83 8 -64 28 +62 29 -61 8 *
Ve
0.000000100000000
2807.999999999997726 -942.000000000000000 -25.000000000000000
0 0

0101101
*
Ed
 0.000000100000000 1 1 0
1  13 0 0.000000000000000 6.283185307179586
2  3 6 33 0.000000000000000 6.283185307179586
0

0101000
+59 34 -59 34 *
Wi

0101100
-58 32 *
Fa
0  0.000000100000000 5 8

0111000
+60 0 +57 0 *
Ve
0.000000100000000
2692.378304359840968 -973.000000000000000 0.000000000000000
0 0

0101101
*
Ed
 0.000000100000000 1 1 0
1  14 0 0.000000000000000 115.621695640156759
0

0101000
+65 15 -55 15 *
Ve
0.000000100000000
2692.378304359840968 -1003.000000000000796 0.000000000000000
0 0

0101101
*
Ed
 0.000000100000000 1 1 0
1  15 0 0.000000000000000 30.000000000000796
0

0101000
+55 15 -53 15 *
Ed
 0.000000100000000 1 1 0
1  16 0 0.000000000000000 1065.455174513323982
0

0101000
+53 15 -78 15 *
Wi

0101100
+82 0 +64 0 +54 0 +52 0 +51 0 +75 0 *
Fa
0  0.000000100000000 7 0

0111000
+50 36 *
Ve
0.000000100000000
2692.378304359840968 -973.000000000000000 -50.000000000000000
0 0

0101101
*
Ed
 0.000000100000000 1 1 0
1  17 0 0.000000000000000 115.621695640156759
0

0101000
+63 18 -48 18 *
Ve
0.000000100000000
2692.378304359840968 -1003.000000000000796 -50.000000000000000
0 0

0101101
*
Ed
 0.000000100000000 1 1 0
1  18 0 0.000000000000000 30.000000000000796
0

0101000
+48 18 -46 18 *
Ed
 0.000000100000000 1 1 0
1  19 0 0.000000000000000 1065.455174513323982
0

0101000
+46 18 -77 18 *
Wi

0101100
+81 0 +62 0 +47 0 +45 0 +44 0 +74 0 *
Fa
0  0.000000100000000 8 0

0111000
+43 36 *
Ed
 0.000000100000000 1 1 0
1  20 0 0.000000000000000 50.000000000000000
0

0101000
+53 10 -46 10 *
Wi

0101100
+41 0 -76 0 -51 14 +44 17 *
Fa
0  0.000000100000000 9 0

0111000
+40 0 *
Ve
0.000000100000000
3676.000000000000455 -1315.268010047114331 -25.000000000000000
0 0

0101101
*
Ed
 0.000000100000000 1 1 0
1  21 0 0.000000000000000 5.000000000000000
3  4 5CN 3 0 0.000000000000000 5.000000000000000
0

0101000
+72 38 -38 38 *
Ed
 0.000000100000000 1 1 0
1  22 0 0.000000000000000 6.283185307179586
2  6 3 41 0.000000000000000 6.283185307179586
0

0101000
+38 42 -38 42 *
Wi

0101100
+37 0 -37 0 -71 25 +36 40 *
Fa
0  0.000000100000000 3 0

0111000
+35 0 *
Ve
0.000000100000000
3676.000000000000455 -972.000000000000000 -25.000000000000000
0 0

0101101
*
Ed
 0.000000100000000 1 1 0
1  23 0 0.000000000000000 5.000000000000000
3  7 8CN 4 0 0.000000000000000 5.000000000000000
0

0101000
+69 38 -33 38 *
Ed
 0.000000100000000 1 1 0
1  24 0 0.000000000000000 6.283185307179586
2  9 4 41 0.000000000000000 6.283185307179586
0

0101000
+33 42 -33 42 *
Wi

0101100
+32 0 -32 0 -68 25 +31 40 *
Fa
0  0.000000100000000 4 0

0111000
+30 0 *
Ed
 0.000000100000000 1 1 0
1  25 0 0.000000000000000 50.000000000000000
0

0101000
+55 10 -48 10 *
Wi

0101100
+61 44 -54 45 +47 46 -28 44 *
Ve
0.000000100000000
2747.378304359840968 -973.000000000000000 -25.000000000000000
0 0

0101101
*
Ed
 0.000000100000000 1 1 0
1  26 0 0.000000000000000 6.283185307179586
2  10 11 50 0.000000000000000 6.283185307179586
0

0101000
+26 51 -26 51 *
Wi

0101100
-25 49 *
Fa
0  0.000000100000000 10 44

0111000
+27 0 +24 0 *
Ve
0.000000100000000
2812.999999999997726 -942.000000000000000 -25.000000000000000
0 0

0101101
*
Ed
 0.000000100000000 1 1 0
1  27 0 0.000000000000000 5.000000000000000
3  11 12CN 6 0 0.000000000000000 5.000000000000000
0

0101000
+59 52 -22 52 *
Ed
 0.000000100000000 1 1 0
1  28 0 0.000000000000000 6.283185307179586
2  13 6 55 0.000000000000000 6.283185307179586
0

0101000
+22 56 -22 56 *
Wi

0101100
+21 0 -21 0 -58 32 +20 54 *
Fa
0  0.000000100000000 6 0

0111000
+19 0 *
Wi

0101100
+28 0 -41 0 -52 14 +45 17 *
Fa
0  0.000000100000000 12 0

0111000
+17 0 *
Wi

0101100
+36 0 *
Fa
0  0.000000100000000 13 0

0111000
+15 58 *
Wi

0101100
+31 0 *
Fa
0  0.000000100000000 14 0

0111000
+13 58 *
Ve
0.000000100000000
2747.378304359840968 -978.000000000000000 -25.000000000000000
0 0

0101101
*
Ed
 0.000000100000000 1 1 0
1  29 0 0.000000000000000 5.000000000000000
3  14 15CN 11 0 0.000000000000000 5.000000000000000
0

0101000
+26 59 -11 59 *
Ed
 0.000000100000000 1 1 0
1  30 0 0.000000000000000 6.283185307179586
2  16 11 62 0.000000000000000 6.283185307179586
0

0101000
+11 63 -11 63 *
Wi

0101100
+10 0 -10 0 -25 49 +9 61 *
Fa
0  0.000000100000000 11 0

0111000
+8 0 *
Wi

0101100
+20 0 *
Fa
0  0.000000100000000 15 0

0111000
+6 65 *
Wi

0101100
+9 0 *
Fa
0  0.000000100000000 16 0

0111000
+4 67 *
Sh

0101100
+79 8 +66 19 +56 0 +49 35 -42 37 +39 8 -34 19 -29 19 +23 43 -18 0 
+16 8 +14 57 +12 57 -7 43 +5 64 +3 66 *
So

0100000
+2 0 *

+1 1 