
CASCADE Topology V1, (c) Matra-Datavision
Locations 30
1
1.000000000000000 0.000000000000000 0.000000000000000 0.000000000000000 
0.000000000000000 -0.000000000000000 -1.000000000000000 0.000000000000000 
0.000000000000000 1.000000000000000 -0.000000000000000 0.000000000000000 
1
1.000000000000000 0.000000000000000 0.000000000000000 0.000000000000000 
0.000000000000000 -0.000000000000000 -1.000000000000000 0.000000000000000 
0.000000000000000 1.000000000000000 -0.000000000000000 0.000000000000000 
1
1.000000000000000 0.000000000000000 0.000000000000000 0.000000000000000 
0.000000000000000 -0.000000000000000 -1.000000000000000 0.000000000000000 
0.000000000000000 1.000000000000000 -0.000000000000000 0.000000000000000 
1
1.000000000000000 0.000000000000000 0.000000000000000 0.000000000000000 
0.000000000000000 -0.000000000000000 -1.000000000000000 0.000000000000000 
0.000000000000000 1.000000000000000 -0.000000000000000 0.000000000000000 
1
1.000000000000000 0.000000000000000 0.000000000000000 0.000000000000000 
0.000000000000000 -0.000000000000000 -1.000000000000000 0.000000000000000 
0.000000000000000 1.000000000000000 -0.000000000000000 0.000000000000000 
1
1.000000000000000 0.000000000000000 0.000000000000000 0.000000000000000 
0.000000000000000 -0.000000000000000 -1.000000000000000 0.000000000000000 
0.000000000000000 1.000000000000000 -0.000000000000000 0.000000000000000 
1
1.000000000000000 0.000000000000000 0.000000000000000 0.000000000000000 
0.000000000000000 -0.000000000000000 -1.000000000000000 0.000000000000000 
0.000000000000000 1.000000000000000 -0.000000000000000 0.000000000000000 
1
1.000000000000000 0.000000000000000 0.000000000000000 0.000000000000000 
0.000000000000000 -0.000000000000000 -1.000000000000000 0.000000000000000 
0.000000000000000 1.000000000000000 -0.000000000000000 0.000000000000000 
2  1 1 2 -1 3 1 4 -1 5 1 6 -1 7 1 8 -1 0
1
1.000000000000000 0.000000000000000 0.000000000000000 0.000000000000000 
0.000000000000000 1.000000000000000 0.000000000000000 0.000000000000000 
0.000000000000000 0.000000000000000 1.000000000000000 0.000000000000000 
1
1.000000000000000 0.000000000000000 0.000000000000000 0.000000000000000 
0.000000000000000 -0.000000000000000 -1.000000000000000 400.000000000000000 
0.000000000000000 1.000000000000000 -0.000000000000000 0.000000000000089 
1
1.000000000000000 0.000000000000000 0.000000000000000 0.000000000000000 
0.000000000000000 -0.000000000000000 -1.000000000000000 0.000000000000000 
0.000000000000000 1.000000000000000 -0.000000000000000 0.000000000000000 
1
1.000000000000000 0.000000000000000 0.000000000000000 0.000000000000000 
0.000000000000000 1.000000000000000 0.000000000000000 0.000000000000000 
0.000000000000000 0.000000000000000 1.000000000000000 2270.000000000000000 
2  10 1 11 1 12 -1 13 1 1 1 2 -1 3 1 4 -1 5 1 6 -1 7 1 8 -1 0
2  11 -1 10 -1 0
2  12 1 11 -1 10 -1 0
2  13 -1 12 1 11 -1 10 -1 0
2  8 1 7 -1 6 1 5 -1 4 1 3 -1 2 1 1 -1 13 -1 12 1 11 -1 10 -1 0
2  8 1 7 -1 6 1 5 -1 4 1 3 -1 2 1 1 -1 0
2  10 1 11 1 12 -1 13 1 0
1
1.000000000000000 0.000000000000000 0.000000000000000 0.000000000000000 
0.000000000000000 1.000000000000000 0.000000000000000 0.000000000000000 
0.000000000000000 0.000000000000000 1.000000000000000 0.000000000000000 
1
-1.000000000000000 0.000000000000000 0.000000000000000 0.000000000000000 
0.000000000000000 -1.000000000000000 0.000000000000000 -0.000000000000669 
0.000000000000000 0.000000000000000 1.000000000000000 3014.000000000000000 
2  21 1 22 1 8 -1 0
2  22 -1 21 -1 0
2  8 1 22 -1 21 -1 0
1
1.000000000000000 0.000000000000000 0.000000000000000 0.000000000000000 
0.000000000000000 1.000000000000000 0.000000000000000 -38200.838115580125304 
0.000000000000000 0.000000000000000 1.000000000000000 0.000000000000000 
2  26 -1 8 1 22 -1 21 -1 0
2  1 1 2 -1 3 1 4 -1 5 1 6 -1 7 1 22 -1 21 -1 0
2  21 1 22 1 7 -1 6 1 5 -1 4 1 3 -1 2 1 1 -1 0
2  12 -1 13 1 1 1 2 -1 3 1 4 -1 5 1 6 -1 7 1 8 -1 0
Curve2ds 31
8 -924.99999999999909051 924.99999999999909051
1 924.99999999999909051 -1337.00000000000000000 -1.00000000000000000 0.00000000000000000 
8 -924.99999999999909051 924.99999999999909051
1 924.99999999999909051 -201.00000000000000000 1.00000000000000000 0.00000000000000000 
8 -1135.00000000000000000 -202.00000000000000000
1 1849.99999999999818101 -1135.00000000000000000 0.00000000000000000 1.00000000000000000 
8 -1135.00000000000000000 -202.00000000000000000
1 1135.00000000000000000 -201.00000000000000000 1.00000000000000000 0.00000000000000000 
1 -1074.62412779158512421 -375.57672244708055587 0.00000000000000000 1.00000000000000000 
1 0.00000000000000000 0.00000000000000000 1.00000000000000000 0.00000000000000000 
1 0.00000000000000000 -2270.00000000000000000 1.00000000000000000 0.00000000000000000 
1 0.00000000000000000 0.00000000000000000 0.00000000000000000 -1.00000000000000000 
1 201.00000000000000000 0.00000000000000000 0.00000000000000000 -1.00000000000000000 
1 466.50000000000000000 -924.99999999999909051 0.00000000000000000 1.00000000000000000 
1 0.00000000000000000 0.00000000000000000 1.00000000000000000 0.00000000000000000 
1 0.00000000000000000 -38200.83811558012530440 1.00000000000000000 0.00000000000000000 
1 0.00000000000045475 -1337.00000000000000000 1.00000000000000000 0.00000000000000000 
1 0.00000000000000000 0.00000000000000000 0.00000000000000000 -1.00000000000000000 
1 1849.99999999999818101 0.00000000000000000 0.00000000000000000 -1.00000000000000000 
1 0.00000000000000000 -1337.00000000000000000 1.00000000000000000 0.00000000000000000 
1 933.00000000000000000 0.00000000000000000 0.00000000000000000 -1.00000000000000000 
1 0.00000000000000000 0.00000000000000000 0.00000000000000000 -1.00000000000000000 
1 2516.99999999999454303 0.00000000000000000 0.00000000000000000 -1.00000000000000000 
1 0.00000000000000000 -0.00000000000000000 0.00000000000000000 -1.00000000000000000 
1 1849.99999999999818101 0.00000000000000000 0.00000000000000000 -1.00000000000000000 
1 0.00000000000000000 0.00000000000000000 0.00000000000000000 -1.00000000000000000 
1 -873.62412779158512421 1474.42327755291762514 -1.00000000000000000 0.00000000000000000 
1 -873.62412779158512421 1474.42327755291807989 0.00000000000000000 -1.00000000000000000 
1 0.00000000000000000 -0.00000000000000000 1.00000000000000000 0.00000000000000000 
1 0.00000000000000000 -2270.00000000000000000 1.00000000000000000 0.00000000000000000 
1 -873.62412779158512421 -375.57672244708055587 -1.00000000000000000 0.00000000000000000 
1 0.00000000000000000 0.00000000000000000 1.00000000000000000 0.00000000000000000 
1 0.00000000000000000 -2270.00000000000000000 1.00000000000000000 0.00000000000000000 
1 0.00000000000000000 0.00000000000000000 0.00000000000000000 -1.00000000000000000 
1 1849.99999999999863576 0.00000000000000000 0.00000000000000000 -1.00000000000000000 
Curves 12
1 2782.99999999999909051 2813.00000000000000000 937.00000000000000000 -1.00000000000000000 0.00000000000000000 0.00000000000000000 
1 3707.99999999999818101 2813.00000000000000000 735.00000000000000000 0.00000000000000000 0.00000000000000000 -1.00000000000000000 
1 1858.00000000000000000 2813.00000000000000000 0.00000000000000000 1.00000000000000000 0.00000000000000000 0.00000000000000000 
1 1858.00000000000000000 2813.00000000000000000 -400.00000000000000000 0.00000000000000000 0.00000000000000000 1.00000000000000000 
1 -3707.99999999999818101 937.00000000000000000 0.00000000000000000 1.00000000000000000 0.00000000000000000 0.00000000000000000 
1 1858.00000000000000000 3014.00000000000000000 937.00000000000000000 0.00000000000000000 -1.00000000000000000 0.00000000000000000 
1 3707.99999999999818101 3014.00000000000000000 937.00000000000000000 0.00000000000000000 -1.00000000000000000 0.00000000000000000 
1 3707.99999999999863576 3014.00000000000000000 -400.00000000000000000 0.00000000000000000 0.00000000000000000 1.00000000000000000 
1 3707.99999999999818101 3014.00000000000000000 1870.00000000000000000 0.00000000000000000 -1.00000000000000000 0.00000000000000000 
1 3707.99999999999863576 3014.00000000000000000 0.00000000000000000 -1.00000000000000000 0.00000000000000000 0.00000000000000000 
1 1858.00000000000000000 3014.00000000000000000 0.00000000000000000 0.00000000000000000 -1.00000000000000000 0.00000000000000000 
1 1858.00000000000000000 3014.00000000000000000 -400.00000000000000000 0.00000000000000000 0.00000000000000000 1.00000000000000000 
Polygon3D 0
PolygonOnTriangulations 0
Surfaces 10
1 1858.00000000000000000 2813.00000000000000000 -400.00000000000000000 0.00000000000000000 1.00000000000000000 0.00000000000000000 1.00000000000000000 0.00000000000000000 0.00000000000000000 0.00000000000000000 0.00000000000000000 -1.00000000000000000 
1 3707.99999999999818101 3014.00000000000000000 937.00000000000000000 -0.00000000000000000 -0.00000000000000000 -1.00000000000000000 -1.00000000000000000 0.00000000000000000 0.00000000000000000 0.00000000000000000 1.00000000000000000 -0.00000000000000000 
1 3707.99999999999818101 3014.00000000000000000 1870.00000000000000000 1.00000000000000000 0.00000000000000000 0.00000000000000000 0.00000000000000000 0.00000000000000000 -1.00000000000000000 -0.00000000000000000 1.00000000000000000 0.00000000000000000 
1 2233.57672244708055587 399.99999999999926104 3887.62412779158512421 0.00000000000000000 1.00000000000000000 0.00000000000000023 0.00000000000000000 -0.00000000000000023 1.00000000000000000 1.00000000000000000 0.00000000000000000 -0.00000000000000000 
1 1858.00000000000000000 3014.00000000000000000 -400.00000000000000000 1.00000000000000000 0.00000000000000000 -0.00000000000000000 0.00000000000000000 -1.00000000000000000 0.00000000000000000 0.00000000000000000 -0.00000000000000000 -1.00000000000000000 
1 2782.99999999999909051 -1403.50000000000068212 3014.00000000000000000 0.00000000000000000 -0.00000000000000049 1.00000000000000000 0.00000000000000000 1.00000000000000000 0.00000000000000049 -1.00000000000000000 0.00000000000000000 0.00000000000000000 
1 3707.99999999999863576 3014.00000000000000000 -400.00000000000000000 0.00000000000000000 -1.00000000000000000 0.00000000000000000 -1.00000000000000000 0.00000000000000000 0.00000000000000000 -0.00000000000000000 -0.00000000000000000 -1.00000000000000000 
1 1858.00000000000000000 3014.00000000000000000 937.00000000000000000 -1.00000000000000000 0.00000000000000000 0.00000000000000000 0.00000000000000000 0.00000000000000000 1.00000000000000000 0.00000000000000000 1.00000000000000000 -0.00000000000000000 
1 3707.99999999999863576 5530.99999999999454303 -400.00000000000000000 1.00000000000000000 0.00000000000000000 -0.00000000000000000 0.00000000000000000 -1.00000000000000000 0.00000000000000000 0.00000000000000000 -0.00000000000000000 -1.00000000000000000 
1 1858.00000000000000000 3014.00000000000000000 1870.00000000000000000 -0.00000000000000000 0.00000000000000000 1.00000000000000000 1.00000000000000000 0.00000000000000000 0.00000000000000000 0.00000000000000000 1.00000000000000000 -0.00000000000000000 
Triangulations 0

TShapes 35
Ve
0.000000150000000
3707.999999999998181 2813.000000000000000 937.000000000000000
0 0

0101101
*
Ve
0.000000150000000
1858.000000000000000 2813.000000000000000 937.000000000000000
0 0

0101101
*
Ed
 0.000000150000000 1 1 0
1  1 0 -924.999999999999091 924.999999999999091
2  1 1 9 -924.999999999999091 924.999999999999091
2  2 2 0 -924.999999999999091 924.999999999999091
0

0101000
+35 0 -34 0 *
Ve
0.000000150000000
3707.999999999998181 2813.000000000000000 1870.000000000000000
0 0

0101101
*
Ed
 0.000000150000000 1 1 0
1  2 0 -1135.000000000000000 -202.000000000000000
2  3 1 9 -1135.000000000000000 -202.000000000000000
2  4 3 0 -1135.000000000000000 -202.000000000000000
0

0101000
+32 0 -35 0 *
Ve
0.000000100000000
1858.000000000000000 2813.000000000000000 0.000000000000000
0 0

0101101
*
Ed
 0.000000100000000 1 1 0
1  3 0 0.000000000000000 1849.999999999998181
2  5 4 15 0.000000000000000 1849.999999999998181
2  6 1 16 0.000000000000000 1849.999999999998181
2  7 1 17 0.000000000000000 1849.999999999998181
0

0101000
+30 0 -32 18 *
Ed
 0.000000100000000 1 1 0
1  4 0 1337.000000000000000 2270.000000000000000
2  8 1 0 1337.000000000000000 2270.000000000000000
2  9 5 0 1337.000000000000000 2270.000000000000000
0

0101000
+34 19 -30 20 *
Wi

0101100
+33 0 +31 0 +29 14 +28 9 *
Fa
0  0.000000100000000 1 9

0111000
+27 0 *
Ve
0.000000100000455
-3707.999999999998181 937.000000000000000 0.000000000000000
0 0

0101101
*
Ve
0.000000100000000
-1858.000000000000000 937.000000000000000 0.000000000000000
0 0

0101101
*
Ed
 0.000000100000000 1 1 0
1  5 0 0.000000000000000 1849.999999999998181
2  10 6 24 0.000000000000000 1849.999999999998181
2  11 2 25 0.000000000000000 1849.999999999998181
2  12 2 27 0.000000000000000 1849.999999999998181
2  13 7 28 0.000000000000000 1849.999999999998181
0

0101000
+25 0 -24 0 *
Ed
 0.000000100000000 1 1 0
1  6 0 0.000000000000000 201.000000000000000
2  14 8 0 0.000000000000000 201.000000000000000
2  15 2 0 0.000000000000000 201.000000000000000
2  16 5 9 0.000000000000000 201.000000000000000
0

0101000
+24 23 -34 0 *
Ed
 0.000000100000000 1 1 0
1  7 0 0.000000000000000 201.000000000000000
2  17 3 0 0.000000000000000 201.000000000000000
2  18 2 0 0.000000000000000 201.000000000000000
0

0101000
+25 23 -35 0 *
Wi

0101100
-23 23 -22 0 +33 0 +21 0 *
Fa
0  0.000000100000000 2 0

0111000
+20 0 *
Ve
0.000000100000455
3707.999999999998181 3014.000000000000000 1870.000000000000000
0 0

0101101
*
Ed
 0.000000100000455 1 1 0
1  8 0 1337.000000000000000 2270.000000000000000
2  19 9 0 1337.000000000000000 2270.000000000000000
2  20 7 0 1337.000000000000000 2270.000000000000000
0

0101000
+25 29 -18 19 *
Ed
 0.000000100000000 1 1 0
1  9 0 0.000000000000000 201.000000000000000
2  21 10 0 0.000000000000000 201.000000000000000
2  22 3 0 0.000000000000000 201.000000000000000
2  23 4 30 0.000000000000000 201.000000000000000
0

0101000
+18 0 -32 0 *
Wi

0101100
+17 9 -21 0 +31 0 +16 0 *
Fa
0  0.000000100000000 3 0

0111000
+15 0 *
Ve
0.000000100000000
1858.000000000000000 3014.000000000000000 0.000000000000000
0 0

0101101
*
Ed
 0.000000100000000 1 1 0
1  10 0 0.000000000000000 1849.999999999998636
2  24 4 15 0.000000000000000 1849.999999999998636
2  25 7 16 0.000000000000000 1849.999999999998636
2  26 7 17 0.000000000000000 1849.999999999998636
0

0101000
+18 18 -13 0 *
Ed
 0.000000100000000 1 1 0
1  11 0 0.000000000000000 201.000000000000000
2  27 4 15 0.000000000000000 201.000000000000000
2  28 5 16 0.000000000000000 201.000000000000000
2  29 5 17 0.000000000000000 201.000000000000000
0

0101000
+13 0 -30 0 *
Wi

0101100
-12 14 -11 14 -29 14 +16 0 *
Fa
0  0.000000100000000 4 30

0111000
+10 0 *
Ed
 0.000000100000000 1 1 0
1  12 0 1337.000000000000000 2270.000000000000000
2  30 5 0 1337.000000000000000 2270.000000000000000
2  31 7 0 1337.000000000000000 2270.000000000000000
0

0101000
+24 29 -13 20 *
Wi

0101100
-22 0 -28 9 +11 14 +8 9 *
Fa
0  0.000000100000000 5 9

0111000
+7 0 *
Wi

0101100
-8 9 +12 14 +17 9 -23 23 *
Fa
0  0.000000100000000 7 9

0111000
+5 0 *
Sh

0101100
-26 0 +19 0 +14 0 -9 0 -6 0 -4 0 *
So

0100000
+3 0 *
Co

1100000
+2 0 *

+1 0 