
CASCADE Topology V1, (c) Matra-Datavision
Locations 56
1
1.000000000000000 0.000000000000000 0.000000000000000 0.000000000000000 
0.000000000000000 0.000000000000000 -1.000000000000000 0.000000000000000 
0.000000000000000 1.000000000000000 0.000000000000000 0.000000000000000 
1
1.000000000000000 0.000000000000000 0.000000000000000 0.000000000000000 
0.000000000000000 -0.000000000000000 -1.000000000000000 0.000000000000000 
0.000000000000000 1.000000000000000 -0.000000000000000 0.000000000000000 
1
1.000000000000000 0.000000000000000 0.000000000000000 0.000000000000000 
0.000000000000000 -0.000000000000000 -1.000000000000000 0.000000000000000 
0.000000000000000 1.000000000000000 -0.000000000000000 0.000000000000000 
1
1.000000000000000 0.000000000000000 0.000000000000000 0.000000000000000 
0.000000000000000 -0.000000000000000 -1.000000000000000 0.000000000000000 
0.000000000000000 1.000000000000000 -0.000000000000000 0.000000000000000 
1
1.000000000000000 0.000000000000000 0.000000000000000 0.000000000000000 
0.000000000000000 -0.000000000000000 -1.000000000000000 0.000000000000000 
0.000000000000000 1.000000000000000 -0.000000000000000 0.000000000000000 
2  2 1 3 -1 4 1 5 -1 0
1
1.000000000000000 0.000000000000000 0.000000000000000 0.000000000000000 
0.000000000000000 1.000000000000000 0.000000000000000 0.000000000000000 
0.000000000000000 0.000000000000000 1.000000000000000 0.000000000000000 
1
1.000000000000000 0.000000000000000 0.000000000000000 0.000000000000000 
0.000000000000000 -0.000000000000000 -1.000000000000000 0.000000000000000 
0.000000000000000 1.000000000000000 -0.000000000000000 0.000000000000000 
1
1.000000000000000 0.000000000000000 0.000000000000000 0.000000000000000 
0.000000000000000 -0.000000000000000 -1.000000000000000 0.000000000000000 
0.000000000000000 1.000000000000000 -0.000000000000000 0.000000000000000 
2  7 1 8 1 9 -1 0
1
1.000000000000000 0.000000000000000 0.000000000000000 -0.000000000000000 
0.000000000000000 1.000000000000000 0.000000000000000 -0.000000000000000 
0.000000000000000 0.000000000000000 1.000000000000000 -15.000000000000000 
2  7 1 8 1 9 -1 11 1 0
2  8 -1 7 -1 0
2  4 1 5 -1 0
2  2 1 3 -1 0
2  3 1 2 -1 0
2  7 1 8 1 9 -1 2 1 3 -1 0
2  9 1 8 -1 7 -1 0
2  11 -1 9 1 8 -1 7 -1 0
2  3 1 2 -1 9 1 8 -1 7 -1 0
1
1.000000000000000 0.000000000000000 0.000000000000000 0.000000000000000 
0.000000000000000 1.000000000000000 0.000000000000000 0.000000000000000 
0.000000000000000 0.000000000000000 1.000000000000000 0.000000000000000 
1
0.000000000000000 -0.000000000000000 1.000000000000000 1858.000000000000000 
-0.000000000000000 -1.000000000000000 0.000000000000000 0.000000000000000 
1.000000000000000 0.000000000000000 -0.000000000000000 0.000000000000000 
2  21 1 22 1 2 -1 9 1 8 -1 7 -1 0
2  7 1 8 1 9 -1 11 1 2 1 3 -1 0
2  9 -1 2 1 3 -1 4 1 5 -1 0
2  9 -1 2 1 3 -1 0
2  21 1 22 1 3 -1 0
1
1.000000000000000 0.000000000000000 0.000000000000000 -12.000000000000000 
0.000000000000000 1.000000000000000 0.000000000000000 0.000000000000003 
0.000000000000000 0.000000000000000 1.000000000000000 -0.000000000000000 
2  21 1 22 1 3 -1 28 1 0
2  21 1 22 1 3 -1 28 1 4 1 5 -1 0
2  3 1 22 -1 21 -1 0
2  28 -1 3 1 22 -1 21 -1 0
2  22 -1 21 -1 0
2  9 -1 2 1 3 -1 28 -1 3 1 22 -1 21 -1 0
2  7 1 8 1 9 -1 2 1 3 -1 4 1 5 -1 0
2  21 1 22 1 3 -1 28 1 3 1 2 -1 9 1 8 -1 7 -1 0
1
1.000000000000000 0.000000000000000 0.000000000000000 0.000000000000000 
0.000000000000000 1.000000000000000 0.000000000000000 0.000000000000000 
0.000000000000000 0.000000000000000 1.000000000000000 0.000000000000000 
1
0.000000000000000 0.000000000000000 -1.000000000000000 27.000000000000000 
0.000000000000000 -1.000000000000000 0.000000000000000 0.000000000000000 
-1.000000000000000 0.000000000000000 0.000000000000000 0.000000000000000 
2  37 1 38 1 4 -1 3 1 2 -1 9 1 8 -1 7 -1 0
2  37 1 38 1 5 -1 0
1
1.000000000000000 0.000000000000000 0.000000000000000 15.000000000000000 
0.000000000000000 1.000000000000000 0.000000000000000 0.000000000000003 
0.000000000000000 0.000000000000000 1.000000000000000 -0.000000000000000 
2  37 1 38 1 5 -1 41 1 0
2  5 1 38 -1 37 -1 0
2  41 -1 5 1 38 -1 37 -1 0
2  38 -1 37 -1 0
2  9 -1 2 1 3 -1 4 1 38 -1 37 -1 0
2  9 -1 2 1 3 -1 4 1 5 -1 41 -1 5 1 38 -1 37 -1 0
2  9 -1 11 1 2 1 3 -1 4 1 5 -1 0
2  7 1 8 1 0
2  3 -1 0
2  3 -1 28 1 4 1 5 -1 0
2  21 1 22 1 0
2  7 1 8 1 9 -1 11 1 2 1 3 -1 4 1 5 -1 0
2  5 -1 41 1 0
2  37 1 38 1 0
2  5 -1 0
Curve2ds 96
1 250.00000000000000000 0.00000000000000000 0.00000000000000000 -1.00000000000000000 
1 -377.49464770746999420 893.33979019802177390 0.00000000000000000 -1.00000000000000000 
1 177.04886595291213780 0.00000000000000000 0.00000000000000000 -1.00000000000000000 
1 0.00000000000000000 0.00000000000000000 0.00000000000000000 -1.00000000000000000 
1 0.00000000000000000 0.00000000000000000 1.00000000000000000 0.00000000000000000 
1 0.00000000000000000 -15.00000000000000000 1.00000000000000000 0.00000000000000000 
1 -127.49464770746999420 893.33979019802177390 -1.00000000000000000 0.00000000000000000 
1 -377.49464770746999420 639.07188941100980628 0.56394902148174875 -0.82580960346182586 
1 0.00000000000000000 0.00000000000000000 -0.00000000000000000 -1.00000000000000000 
1 80.00000000000000000 -0.00000000000000000 -0.00000000000000000 -1.00000000000000000 
1 -257.49464770746999420 893.33979019802245602 -0.00000000000000022 -1.00000000000000000 
1 0.00000000000000000 0.00000000000000000 1.00000000000000000 0.00000000000000000 
1 0.00000000000000266 -12.00000000000000000 1.00000000000000000 0.00000000000000000 
1 -39.99999999999997868 65.00000000000000000 -0.00000000000000022 -1.00000000000000000 
1 -257.49464770746999420 881.33979019802245602 1.00000000000000000 -0.00000000000000022 
1 0.00000000000000000 0.00000000000000000 1.00000000000000000 0.00000000000000000 
1 0.00000000000000000 -15.00000000000000000 1.00000000000000000 0.00000000000000000 
1 -127.49464770746999420 716.29092424510963610 0.00000000000000000 1.00000000000000000 
1 234.00535229253000580 186.93426206476488005 -0.56394902148174875 0.82580960346182586 
1 234.00535229253000580 -937.66020980197822610 0.00000000000000000 1.00000000000000000 
1 -15.99464770746999420 -937.66020980197822610 1.00000000000000000 0.00000000000000000 
1 0.00000000000000000 0.00000000000000000 1.00000000000000000 0.00000000000000000 
1 0.00000000000000000 -15.00000000000000000 1.00000000000000000 0.00000000000000000 
1 0.00000000000000000 0.00000000000000000 0.00000000000000000 -1.00000000000000000 
1 80.00000000000000000 -0.00000000000000000 -0.00000000000000000 -1.00000000000000000 
1 204.00535229253000580 -937.66020980197879453 -0.00000000000000022 1.00000000000000000 
1 0.00000000000000000 0.00000000000000000 1.00000000000000000 -0.00000000000000000 
1 -0.00000000000000333 -15.00000000000000000 1.00000000000000000 -0.00000000000000000 
1 -70.00000000000000000 -40.00000000000000711 1.00000000000000000 0.00000000000000022 
1 204.00535229253000580 -937.66020980197879453 -1.00000000000000000 -0.00000000000000022 
1 204.00535229253000580 -922.66020980197879453 -1.00000000000000000 -0.00000000000000022 
1 140.00000000000000000 -0.00000000000000266 0.00000000000000000 -1.00000000000000000 
1 0.00000000000000000 0.00000000000000000 0.00000000000000000 -1.00000000000000000 
1 64.00535229253000580 -937.66020980197879453 -0.00000000000000022 1.00000000000000000 
1 -15.99464770746999420 109.71522723066505023 0.00000000000000000 -1.00000000000000000 
1 0.00000000000000000 0.00000000000000000 1.00000000000000000 0.00000000000000000 
1 0.00000000000000000 -15.00000000000000000 1.00000000000000000 0.00000000000000000 
2 -166.74464770746999420 429.33979019802177390 0.00000000000000000 1.00000000000000000 -1.00000000000000000 0.00000000000000000 5.00000000000000000
1 0.00000000000000000 0.00000000000000000 1.00000000000000000 0.00000000000000000 
1 0.00000000000000000 -15.00000000000000000 1.00000000000000000 0.00000000000000000 
2 -166.74464770746999420 581.33979019802177390 0.00000000000000000 1.00000000000000000 -1.00000000000000000 0.00000000000000000 5.00000000000000000
1 0.00000000000000000 0.00000000000000000 1.00000000000000000 0.00000000000000000 
1 0.00000000000000000 -15.00000000000000000 1.00000000000000000 0.00000000000000000 
2 -352.49464770746999420 701.33979019802177390 0.00000000000000000 1.00000000000000000 -1.00000000000000000 0.00000000000000000 5.00000000000000000
1 0.00000000000000000 0.00000000000000000 1.00000000000000000 0.00000000000000000 
1 0.00000000000000000 -15.00000000000000000 1.00000000000000000 0.00000000000000000 
2 -352.49464770746999420 813.33979019802177390 0.00000000000000000 1.00000000000000000 -1.00000000000000000 0.00000000000000000 5.00000000000000000
1 0.00000000000000000 0.00000000000000000 0.00000000000000000 -1.00000000000000000 
1 0.00000000000000000 0.00000000000000000 1.00000000000000000 0.00000000000000000 
1 0.00000000000000000 -12.00000000000000000 1.00000000000000000 0.00000000000000000 
1 -40.00000000000000711 -65.00000000000000000 1.00000000000000000 -0.00000000000000022 
1 39.99999999999999289 -65.00000000000000000 0.00000000000000022 1.00000000000000000 
1 40.00000000000002132 65.00000000000000000 -1.00000000000000000 0.00000000000000022 
1 0.00000000000000000 0.00000000000000000 1.00000000000000000 0.00000000000000000 
1 -0.00000000000000000 -12.00000000000000000 1.00000000000000000 0.00000000000000000 
1 0.00000000000000000 0.00000000000000000 1.00000000000000000 0.00000000000000000 
1 0.00000000000000000 -12.00000000000000000 1.00000000000000000 0.00000000000000000 
2 0.00000000000000000 -25.00000000000000000 0.00000000000000022 1.00000000000000000 1.00000000000000000 -0.00000000000000022 5.00000000000000000
1 0.00000000000000000 0.00000000000000000 1.00000000000000000 0.00000000000000000 
1 0.00000000000000000 -12.00000000000000000 1.00000000000000000 0.00000000000000000 
2 0.00000000000001421 25.00000000000000000 0.00000000000000022 1.00000000000000000 1.00000000000000000 -0.00000000000000022 5.00000000000000000
1 0.00000000000000000 0.00000000000000000 0.00000000000000000 -1.00000000000000000 
1 0.00000000000000000 0.00000000000000000 -0.00000000000000000 -1.00000000000000000 
1 250.00000000000000000 0.00000000000000000 0.00000000000000000 -1.00000000000000000 
1 -0.00000000000000000 0.00000000000000000 -0.00000000000000000 -1.00000000000000000 
1 -0.00000000000000000 0.00000000000000000 1.00000000000000000 0.00000000000000000 
1 -0.00000000000000000 -15.00000000000000000 1.00000000000000000 0.00000000000000000 
1 -70.00000000000000000 39.99999999999999289 0.00000000000000022 -1.00000000000000000 
1 0.00000000000000000 0.00000000000000000 1.00000000000000000 0.00000000000000000 
1 0.00000000000000000 -15.00000000000000000 1.00000000000000000 0.00000000000000000 
1 70.00000000000000000 -39.99999999999997868 -0.00000000000000022 1.00000000000000000 
1 70.00000000000000000 40.00000000000002132 -1.00000000000000000 -0.00000000000000022 
1 0.00000000000000000 0.00000000000000000 1.00000000000000000 0.00000000000000000 
1 0.00000000000000000 -15.00000000000000000 1.00000000000000000 0.00000000000000000 
2 30.00000000000000000 0.00000000000001421 -1.00000000000000000 -0.00000000000000022 -0.00000000000000022 1.00000000000000000 5.00000000000000000
1 0.00000000000000000 0.00000000000000000 1.00000000000000000 0.00000000000000000 
1 0.00000000000000000 -15.00000000000000000 1.00000000000000000 0.00000000000000000 
2 -30.00000000000000000 -0.00000000000000000 -1.00000000000000000 -0.00000000000000022 -0.00000000000000022 1.00000000000000000 5.00000000000000000
1 80.00000000000000000 0.00000000000000000 0.00000000000000000 -1.00000000000000000 
1 0.00000000000000000 0.00000000000000000 0.00000000000000000 -1.00000000000000000 
1 6.28318530717958623 0.00000000000000000 0.00000000000000000 -1.00000000000000000 
1 0.00000000000000000 0.00000000000000000 0.00000000000000000 -1.00000000000000000 
1 6.28318530717958623 0.00000000000000000 0.00000000000000000 -1.00000000000000000 
1 0.00000000000000000 0.00000000000000000 0.00000000000000000 -1.00000000000000000 
1 6.28318530717958623 0.00000000000000000 0.00000000000000000 -1.00000000000000000 
1 0.00000000000000000 0.00000000000000000 0.00000000000000000 -1.00000000000000000 
1 6.28318530717958623 0.00000000000000000 0.00000000000000000 -1.00000000000000000 
1 80.00000000000000000 0.00000000000000000 0.00000000000000000 -1.00000000000000000 
1 0.00000000000000000 0.00000000000000000 0.00000000000000000 -1.00000000000000000 
1 6.28318530717958623 0.00000000000000000 0.00000000000000000 -1.00000000000000000 
1 0.00000000000000000 0.00000000000000000 0.00000000000000000 -1.00000000000000000 
1 6.28318530717958623 0.00000000000000000 0.00000000000000000 -1.00000000000000000 
1 0.00000000000000000 0.00000000000000000 0.00000000000000000 -1.00000000000000000 
1 6.28318530717958623 0.00000000000000000 0.00000000000000000 -1.00000000000000000 
1 0.00000000000000000 0.00000000000000000 0.00000000000000000 -1.00000000000000000 
1 6.28318530717958623 0.00000000000000000 0.00000000000000000 -1.00000000000000000 
Curves 47
1 1858.00000000000000000 3134.00000000000000000 0.00000000000000000 -0.00000000000000000 -0.00000000000000000 -1.00000000000000000 
1 1603.73209921298803238 3134.00000000000000000 0.00000000000000000 -0.00000000000000000 -0.00000000000000000 -1.00000000000000000 
1 1858.00000000000000000 3134.00000000000000000 0.00000000000000000 -1.00000000000000000 0.00000000000000000 0.00000000000000000 
1 1858.00000000000000000 2884.00000000000000000 0.00000000000000000 -0.00000000000000000 -0.00000000000000000 -1.00000000000000000 
1 1858.00000000000000000 2884.00000000000000000 0.00000000000000000 0.00000000000000000 1.00000000000000000 0.00000000000000000 
1 1074.37543703264327632 2772.50000000000000000 0.00000000000000000 -0.00000000000000000 -0.00000000000000000 -1.00000000000000000 
1 1603.73209921298803238 3134.00000000000000000 0.00000000000000000 -0.82580960346182586 -0.56394902148174875 0.00000000000000000 
1 1858.00000000000068212 3014.00000000000000000 -0.00000000000000000 -1.00000000000000000 0.00000000000000022 -0.00000000000000000 
1 3014.00000000000000000 0.00000000000000000 0.00000000000000000 -1.00000000000000000 0.00000000000000000 0.00000000000000000 
1 1680.95113404708786220 2884.00000000000000000 0.00000000000000000 1.00000000000000000 0.00000000000000000 0.00000000000000000 
1 1151.59447186674310615 2522.50000000000000000 0.00000000000000000 0.82580960346182586 0.56394902148174875 0.00000000000000000 
1 27.00000000000000000 2522.50000000000000000 0.00000000000000000 1.00000000000000000 0.00000000000000000 0.00000000000000000 
1 27.00000000000000000 2772.50000000000000000 0.00000000000000000 0.00000000000000000 -1.00000000000000000 0.00000000000000000 
1 26.99999999999943157 2552.50000000000000000 -0.00000000000000000 1.00000000000000000 0.00000000000000022 -0.00000000000000000 
1 -2552.50000000000000000 0.00000000000000000 0.00000000000000000 -1.00000000000000000 0.00000000000000000 0.00000000000000000 
1 26.99999999999940314 2692.50000000000000000 -0.00000000000000000 1.00000000000000000 0.00000000000000022 -0.00000000000000000 
1 1074.37543703264327632 2772.50000000000000000 0.00000000000000000 -1.00000000000000000 0.00000000000000000 0.00000000000000000 
2 1394.00000000000000000 2923.25000000000000000 0.00000000000000000 0.00000000000000000 0.00000000000000000 1.00000000000000000 1.00000000000000000 0.00000000000000000 -0.00000000000000000 -0.00000000000000000 1.00000000000000000 0.00000000000000000 5.00000000000000000
2 1546.00000000000000000 2923.25000000000000000 0.00000000000000000 0.00000000000000000 0.00000000000000000 1.00000000000000000 1.00000000000000000 0.00000000000000000 -0.00000000000000000 -0.00000000000000000 1.00000000000000000 0.00000000000000000 5.00000000000000000
2 1666.00000000000000000 3109.00000000000000000 0.00000000000000000 0.00000000000000000 0.00000000000000000 1.00000000000000000 1.00000000000000000 0.00000000000000000 -0.00000000000000000 -0.00000000000000000 1.00000000000000000 0.00000000000000000 5.00000000000000000
2 1778.00000000000000000 3109.00000000000000000 0.00000000000000000 0.00000000000000000 0.00000000000000000 1.00000000000000000 1.00000000000000000 0.00000000000000000 -0.00000000000000000 -0.00000000000000000 1.00000000000000000 0.00000000000000000 5.00000000000000000
1 1680.95113404708786220 2884.00000000000000000 0.00000000000000000 -0.00000000000000000 -0.00000000000000000 -1.00000000000000000 
1 2884.00000000000000000 0.00000000000000000 0.00000000000000000 0.00000000000000000 1.00000000000000000 0.00000000000000000 
1 2884.00000000000000000 80.00000000000000000 0.00000000000000000 1.00000000000000000 0.00000000000000000 0.00000000000000000 
1 3014.00000000000000000 80.00000000000000000 0.00000000000000000 0.00000000000000000 -1.00000000000000000 0.00000000000000000 
2 2924.00000000000000000 40.00000000000000000 0.00000000000000000 0.00000000000000000 0.00000000000000000 1.00000000000000000 1.00000000000000000 0.00000000000000000 -0.00000000000000000 -0.00000000000000000 1.00000000000000000 0.00000000000000000 5.00000000000000000
2 2974.00000000000000000 40.00000000000000000 0.00000000000000000 0.00000000000000000 0.00000000000000000 1.00000000000000000 1.00000000000000000 0.00000000000000000 -0.00000000000000000 -0.00000000000000000 1.00000000000000000 0.00000000000000000 5.00000000000000000
1 27.00000000000000000 2772.50000000000000000 0.00000000000000000 -0.00000000000000000 -0.00000000000000000 -1.00000000000000000 
1 1858.00000000000068212 3014.00000000000000000 80.00000000000000000 -1.00000000000000000 0.00000000000000022 -0.00000000000000000 
1 1151.59447186674310615 2522.50000000000000000 0.00000000000000000 -0.00000000000000000 -0.00000000000000000 -1.00000000000000000 
1 27.00000000000000000 2522.50000000000000000 0.00000000000000000 -0.00000000000000000 -0.00000000000000000 -1.00000000000000000 
1 26.99999999999943157 2552.50000000000000000 80.00000000000000000 1.00000000000000000 0.00000000000000022 -0.00000000000000000 
1 -2552.50000000000000000 80.00000000000000000 0.00000000000000000 0.00000000000000000 -1.00000000000000000 0.00000000000000000 
1 -2692.50000000000000000 0.00000000000000000 0.00000000000000000 0.00000000000000000 1.00000000000000000 0.00000000000000000 
1 -2692.50000000000000000 80.00000000000000000 0.00000000000000000 1.00000000000000000 0.00000000000000000 0.00000000000000000 
2 -2652.50000000000000000 40.00000000000000000 0.00000000000000000 0.00000000000000000 0.00000000000000000 1.00000000000000000 1.00000000000000000 0.00000000000000000 -0.00000000000000000 -0.00000000000000000 1.00000000000000000 0.00000000000000000 5.00000000000000000
2 -2592.50000000000000000 40.00000000000000000 0.00000000000000000 0.00000000000000000 0.00000000000000000 1.00000000000000000 1.00000000000000000 0.00000000000000000 -0.00000000000000000 -0.00000000000000000 1.00000000000000000 0.00000000000000000 5.00000000000000000
1 26.99999999999940314 2692.50000000000000000 80.00000000000000000 1.00000000000000000 0.00000000000000022 -0.00000000000000000 
1 1399.00000000000000000 2923.25000000000000000 0.00000000000000000 -0.00000000000000000 -0.00000000000000000 -1.00000000000000000 
1 1551.00000000000000000 2923.25000000000000000 0.00000000000000000 -0.00000000000000000 -0.00000000000000000 -1.00000000000000000 
1 1671.00000000000000000 3109.00000000000000000 0.00000000000000000 -0.00000000000000000 -0.00000000000000000 -1.00000000000000000 
1 1783.00000000000000000 3109.00000000000000000 0.00000000000000000 -0.00000000000000000 -0.00000000000000000 -1.00000000000000000 
1 1858.00000000000068212 2884.00000000000000000 80.00000000000000000 -1.00000000000000000 0.00000000000000022 -0.00000000000000000 
1 1858.00000000000068212 2929.00000000000000000 40.00000000000000000 -1.00000000000000000 0.00000000000000022 -0.00000000000000000 
1 1858.00000000000068212 2979.00000000000000000 40.00000000000000000 -1.00000000000000000 0.00000000000000022 -0.00000000000000000 
1 26.99999999999941380 2647.50000000000000000 40.00000000000000000 1.00000000000000000 0.00000000000000022 -0.00000000000000000 
1 26.99999999999942446 2587.50000000000000000 40.00000000000000000 1.00000000000000000 0.00000000000000022 -0.00000000000000000 
Polygon3D 0
PolygonOnTriangulations 0
Surfaces 27
1 1858.00000000000000000 3134.00000000000000000 0.00000000000000000 0.00000000000000000 1.00000000000000000 -0.00000000000000000 -1.00000000000000000 0.00000000000000000 0.00000000000000000 0.00000000000000000 0.00000000000000000 1.00000000000000000 
1 1858.00000000000000000 2884.00000000000000000 0.00000000000000000 1.00000000000000000 0.00000000000000000 0.00000000000000000 -0.00000000000000000 1.00000000000000000 0.00000000000000000 0.00000000000000000 -0.00000000000000000 1.00000000000000000 
1 964.66020980197822610 -0.00000000000061207 2756.50535229253000580 0.00000000000000000 -1.00000000000000000 -0.00000000000000022 0.00000000000000000 0.00000000000000022 -1.00000000000000000 1.00000000000000000 0.00000000000000000 0.00000000000000000 
1 1680.95113404708786220 2884.00000000000000000 0.00000000000000000 0.00000000000000000 -1.00000000000000000 0.00000000000000000 1.00000000000000000 0.00000000000000000 0.00000000000000000 -0.00000000000000000 0.00000000000000000 1.00000000000000000 
1 1603.73209921298803238 3134.00000000000000000 0.00000000000000000 -0.56394902148174875 0.82580960346182586 0.00000000000000000 -0.82580960346182586 -0.56394902148174875 0.00000000000000000 0.00000000000000000 0.00000000000000000 1.00000000000000000 
1 1858.00000000000068212 3014.00000000000000000 -0.00000000000000000 -0.00000000000000000 0.00000000000000000 1.00000000000000000 -0.00000000000000022 -1.00000000000000000 0.00000000000000000 1.00000000000000000 -0.00000000000000022 0.00000000000000000 
1 1858.00000000000068212 3014.00000000000000000 80.00000000000000000 -0.00000000000000022 -1.00000000000000000 0.00000000000000000 0.00000000000000000 -0.00000000000000000 -1.00000000000000000 1.00000000000000000 -0.00000000000000022 0.00000000000000000 
1 1858.00000000000045475 -40.00000000000064659 2949.00000000000000000 -1.00000000000000000 -0.00000000000000000 -0.00000000000000000 0.00000000000000000 -1.00000000000000000 0.00000000000000000 -0.00000000000000000 0.00000000000000000 1.00000000000000000 
1 27.00000000000000000 2772.50000000000000000 0.00000000000000000 -1.00000000000000000 0.00000000000000000 0.00000000000000000 0.00000000000000000 -1.00000000000000000 0.00000000000000000 0.00000000000000000 0.00000000000000000 1.00000000000000000 
1 26.99999999999943157 2552.50000000000000000 -0.00000000000000000 0.00000000000000000 0.00000000000000000 1.00000000000000000 -0.00000000000000022 1.00000000000000000 0.00000000000000000 -1.00000000000000000 -0.00000000000000022 0.00000000000000000 
1 26.99999999999943157 2552.50000000000000000 80.00000000000000000 -0.00000000000000022 1.00000000000000000 -0.00000000000000000 0.00000000000000000 0.00000000000000000 -1.00000000000000000 -1.00000000000000000 -0.00000000000000022 -0.00000000000000000 
1 26.99999999999942091 -40.00000000000057554 2622.50000000000000000 1.00000000000000000 -0.00000000000000000 0.00000000000000020 -0.00000000000000020 0.00000000000000000 1.00000000000000000 -0.00000000000000000 -1.00000000000000000 0.00000000000000000 
1 26.99999999999940314 2692.50000000000000000 -0.00000000000000000 0.00000000000000022 -1.00000000000000000 0.00000000000000000 0.00000000000000000 0.00000000000000000 1.00000000000000000 -1.00000000000000000 -0.00000000000000022 0.00000000000000000 
2 1394.00000000000000000 2923.25000000000000000 0.00000000000000000 0.00000000000000000 0.00000000000000000 1.00000000000000000 1.00000000000000000 0.00000000000000000 -0.00000000000000000 -0.00000000000000000 1.00000000000000000 0.00000000000000000 5.00000000000000000
2 1546.00000000000000000 2923.25000000000000000 0.00000000000000000 0.00000000000000000 0.00000000000000000 1.00000000000000000 1.00000000000000000 0.00000000000000000 -0.00000000000000000 -0.00000000000000000 1.00000000000000000 0.00000000000000000 5.00000000000000000
2 1666.00000000000000000 3109.00000000000000000 0.00000000000000000 0.00000000000000000 0.00000000000000000 1.00000000000000000 1.00000000000000000 0.00000000000000000 -0.00000000000000000 -0.00000000000000000 1.00000000000000000 0.00000000000000000 5.00000000000000000
2 1778.00000000000000000 3109.00000000000000000 0.00000000000000000 0.00000000000000000 0.00000000000000000 1.00000000000000000 1.00000000000000000 0.00000000000000000 -0.00000000000000000 -0.00000000000000000 1.00000000000000000 0.00000000000000000 5.00000000000000000
1 1858.00000000000068212 2884.00000000000000000 -0.00000000000000000 0.00000000000000022 1.00000000000000000 -0.00000000000000000 0.00000000000000000 0.00000000000000000 1.00000000000000000 1.00000000000000000 -0.00000000000000022 0.00000000000000000 
2 1858.00000000000068212 2924.00000000000000000 40.00000000000000000 1.00000000000000000 -0.00000000000000022 0.00000000000000000 0.00000000000000022 1.00000000000000000 0.00000000000000000 -0.00000000000000000 0.00000000000000000 1.00000000000000000 5.00000000000000000
2 1858.00000000000068212 2974.00000000000000000 40.00000000000000000 1.00000000000000000 -0.00000000000000022 0.00000000000000000 0.00000000000000022 1.00000000000000000 0.00000000000000000 -0.00000000000000000 0.00000000000000000 1.00000000000000000 5.00000000000000000
1 1074.37543703264327632 2772.50000000000000000 0.00000000000000000 0.00000000000000000 1.00000000000000000 -0.00000000000000000 -1.00000000000000000 0.00000000000000000 0.00000000000000000 0.00000000000000000 0.00000000000000000 1.00000000000000000 
1 1151.59447186674310615 2522.50000000000000000 0.00000000000000000 0.56394902148174875 -0.82580960346182586 0.00000000000000000 0.82580960346182586 0.56394902148174875 0.00000000000000000 -0.00000000000000000 0.00000000000000000 1.00000000000000000 
1 27.00000000000000000 2522.50000000000000000 0.00000000000000000 0.00000000000000000 -1.00000000000000000 0.00000000000000000 1.00000000000000000 0.00000000000000000 0.00000000000000000 -0.00000000000000000 0.00000000000000000 1.00000000000000000 
2 26.99999999999941025 2652.50000000000000000 40.00000000000000000 -1.00000000000000000 -0.00000000000000022 0.00000000000000000 0.00000000000000022 -1.00000000000000000 0.00000000000000000 0.00000000000000000 0.00000000000000000 1.00000000000000000 5.00000000000000000
2 26.99999999999942446 2592.50000000000000000 40.00000000000000000 -1.00000000000000000 -0.00000000000000022 0.00000000000000000 0.00000000000000022 -1.00000000000000000 0.00000000000000000 0.00000000000000000 0.00000000000000000 1.00000000000000000 5.00000000000000000
1 1858.00000000000068212 2884.00000000000000000 80.00000000000000000 0.00000000000000000 -0.00000000000000000 -1.00000000000000000 0.00000000000000022 1.00000000000000000 0.00000000000000000 1.00000000000000000 -0.00000000000000022 0.00000000000000000 
1 26.99999999999940314 2692.50000000000000000 80.00000000000000000 -0.00000000000000000 -0.00000000000000000 -1.00000000000000000 0.00000000000000022 -1.00000000000000000 0.00000000000000000 -1.00000000000000000 -0.00000000000000022 0.00000000000000000 
Triangulations 0

TShapes 149
Ve
0.000000100000000
1858.000000000000000 3134.000000000000000 0.000000000000000
0 0

0101101
*
Ed
 0.000000100000000 1 1 0
1  1 0 0.000000000000000 15.000000000000000
2  1 2 0 0.000000000000000 15.000000000000000
0

0101000
+149 10 -149 12 *
Ve
0.000000100000000
1603.732099212988032 3134.000000000000000 0.000000000000000
0 0

0101101
*
Ed
 0.000000100000000 1 1 0
1  2 0 0.000000000000000 15.000000000000000
0

0101000
+147 10 -147 12 *
Ed
 0.000000100000000 1 1 0
1  3 0 0.000000000000000 254.267900787011968
2  2 3 13 0.000000000000000 254.267900787011968
0

0101000
+149 0 -147 0 *
Wi

0101100
+148 0 -146 0 -145 10 +145 12 *
Fa
0  0.000000100000000 1 0

0111000
+144 0 *
Ve
0.000000100000909
1858.000000000000227 2884.000000000000000 -0.000000000000000
0 0

0101101
*
Ve
0.000000100000000
1858.000000000000000 2884.000000000000000 0.000000000000000
0 0

0101101
*
Ed
 0.000000100000000 1 1 0
1  4 0 0.000000000000000 15.000000000000000
2  3 4 0 0.000000000000000 15.000000000000000
2  4 2 0 0.000000000000000 15.000000000000000
0

0101000
+142 16 -141 12 *
Ve
0.000000100000682
3014.000000000000000 0.000000000000000 0.000000000000000
0 0

0101101
*
Ed
 0.000000100000682 1 1 0
1  5 0 0.000000000000000 130.000000000000000
2  5 2 18 0.000000000000000 130.000000000000000
2  6 2 19 0.000000000000000 130.000000000000000
2  7 3 13 0.000000000000000 130.000000000000000
0

0101000
+142 20 -139 23 *
Ed
 0.000000100000000 1 1 0
1  5 0 130.000000000000000 250.000000000000000
2  5 2 18 130.000000000000000 250.000000000000000
2  6 2 19 130.000000000000000 250.000000000000000
2  7 3 13 130.000000000000000 250.000000000000000
0

0101000
+139 23 -149 0 *
Ed
 0.000000100000000 1 1 0
1  5 0 0.000000000000000 250.000000000000000
2  5 2 18 0.000000000000000 250.000000000000000
2  6 2 19 0.000000000000000 250.000000000000000
2  7 3 13 0.000000000000000 250.000000000000000
0

0101000
+141 0 -149 0 *
Wi

0101100
+140 15 -148 15 -138 17 -137 17 +136 24 *
Fa
0  0.000000100000000 2 15

0111000
+135 0 *
Ve
0.000000100000000
1074.375437032643276 2772.500000000000000 0.000000000000000
0 0

0101101
*
Ed
 0.000000100000000 1 1 0
1  6 0 0.000000000000000 15.000000000000000
0

0101000
+133 10 -133 12 *
Ed
 0.000000100000000 1 1 0
1  7 0 0.000000000000000 641.015386550678386
2  8 3 13 0.000000000000000 641.015386550678386
0

0101000
+147 0 -133 0 *
Wi

0101100
+146 0 -132 0 -131 10 +131 12 *
Fa
0  0.000000100000000 5 0

0111000
+130 0 *
Ed
 0.000000100000000 1 1 0
1  8 0 0.000000000000000 12.000000000000000
2  9 6 0 0.000000000000000 12.000000000000000
2  10 7 0 0.000000000000000 12.000000000000000
2  11 3 26 0.000000000000000 12.000000000000000
0

0101000
+139 27 -139 29 *
Ve
0.000000100000000
2884.000000000000000 0.000000000000000 0.000000000000000
0 0

0101101
*
Ed
 0.000000100000000 1 1 0
1  9 0 0.000000000000000 130.000000000000000
2  12 6 31 0.000000000000000 130.000000000000000
2  13 6 32 0.000000000000000 130.000000000000000
2  14 8 33 0.000000000000000 130.000000000000000
2  15 3 34 0.000000000000000 130.000000000000000
0

0101000
+139 0 -127 0 *
Ve
0.000000100000000
1680.951134047087862 2884.000000000000000 0.000000000000000
0 0

0101101
*
Ed
 0.000000100000000 1 1 0
1  10 0 0.000000000000000 165.048865952912820
2  16 4 18 0.000000000000000 165.048865952912820
2  17 4 19 0.000000000000000 165.048865952912820
2  18 3 13 0.000000000000000 165.048865952912820
0

0101000
+125 0 -127 36 *
Ve
0.000000100000000
1151.594471866743106 2522.500000000000000 0.000000000000000
0 0

0101101
*
Ed
 0.000000100000000 1 1 0
1  11 0 0.000000000000000 641.015386550678386
2  19 3 13 0.000000000000000 641.015386550678386
0

0101000
+123 0 -125 0 *
Ve
0.000000100000000
27.000000000000000 2522.500000000000000 0.000000000000000
0 0

0101101
*
Ed
 0.000000100000000 1 1 0
1  12 0 0.000000000000000 1124.594471866743106
2  20 3 13 0.000000000000000 1124.594471866743106
0

0101000
+121 0 -123 0 *
Ve
0.000000100000597
-2552.500000000000000 0.000000000000000 0.000000000000000
0 0

0101101
*
Ed
 0.000000100000000 1 1 0
1  13 0 220.000000000000000 250.000000000000000
2  21 3 13 220.000000000000000 250.000000000000000
2  22 9 18 220.000000000000000 250.000000000000000
2  23 9 19 220.000000000000000 250.000000000000000
0

0101000
+119 39 -121 0 *
Ed
 0.000000100000000 1 1 0
1  14 0 0.000000000000000 15.000000000000000
2  24 10 0 0.000000000000000 15.000000000000000
2  25 11 0 0.000000000000000 15.000000000000000
2  26 3 25 0.000000000000000 15.000000000000000
0

0101000
+119 40 -119 42 *
Ve
0.000000100000597
-2692.500000000000000 0.000000000000000 0.000000000000000
0 0

0101101
*
Ed
 0.000000100000597 1 1 0
1  15 0 0.000000000000000 140.000000000000000
2  27 10 43 0.000000000000000 140.000000000000000
2  28 10 44 0.000000000000000 140.000000000000000
2  29 12 45 0.000000000000000 140.000000000000000
2  30 3 46 0.000000000000000 140.000000000000000
2  31 3 47 0.000000000000000 140.000000000000000
0

0101000
+119 0 -116 0 *
Ed
 0.000000100000000 1 1 0
1  16 0 0.000000000000000 15.000000000000000
2  32 10 0 0.000000000000000 15.000000000000000
2  33 13 0 0.000000000000000 15.000000000000000
2  34 3 25 0.000000000000000 15.000000000000000
0

0101000
+116 40 -116 42 *
Ve
0.000000100000000
27.000000000000000 2772.500000000000000 0.000000000000000
0 0

0101101
*
Ed
 0.000000100000000 1 1 0
1  13 0 0.000000000000000 80.000000000000000
2  21 3 13 0.000000000000000 80.000000000000000
2  22 9 18 0.000000000000000 80.000000000000000
2  23 9 19 0.000000000000000 80.000000000000000
0

0101000
+113 0 -116 39 *
Ed
 0.000000100000000 1 1 0
1  17 0 0.000000000000000 1047.375437032643276
2  35 3 13 0.000000000000000 1047.375437032643276
0

0101000
+133 0 -113 0 *
Wi

0101100
-128 14 -126 30 +124 35 +122 35 +120 35 +118 35 -117 0 -115 42 +114 0 +112 35 
+111 35 +131 35 +145 35 +137 35 *
Ve
0.000000100000000
1399.000000000000000 2923.250000000000000 0.000000000000000
0 0

0101101
*
Ed
 0.000000100000000 1 1 0
1  18 0 0.000000000000000 6.283185307179586
2  36 14 18 0.000000000000000 6.283185307179586
2  37 14 19 0.000000000000000 6.283185307179586
2  38 3 13 0.000000000000000 6.283185307179586
0

0101000
+109 0 -109 0 *
Wi

0101100
-108 35 *
Ve
0.000000100000000
1551.000000000000000 2923.250000000000000 0.000000000000000
0 0

0101101
*
Ed
 0.000000100000000 1 1 0
1  19 0 0.000000000000000 6.283185307179586
2  39 15 18 0.000000000000000 6.283185307179586
2  40 15 19 0.000000000000000 6.283185307179586
2  41 3 13 0.000000000000000 6.283185307179586
0

0101000
+106 0 -106 0 *
Wi

0101100
-105 35 *
Ve
0.000000100000000
1671.000000000000000 3109.000000000000000 0.000000000000000
0 0

0101101
*
Ed
 0.000000100000000 1 1 0
1  20 0 0.000000000000000 6.283185307179586
2  42 16 18 0.000000000000000 6.283185307179586
2  43 16 19 0.000000000000000 6.283185307179586
2  44 3 13 0.000000000000000 6.283185307179586
0

0101000
+103 0 -103 0 *
Wi

0101100
-102 35 *
Ve
0.000000100000000
1783.000000000000000 3109.000000000000000 0.000000000000000
0 0

0101101
*
Ed
 0.000000100000000 1 1 0
1  21 0 0.000000000000000 6.283185307179586
2  45 17 18 0.000000000000000 6.283185307179586
2  46 17 19 0.000000000000000 6.283185307179586
2  47 3 13 0.000000000000000 6.283185307179586
0

0101000
+100 0 -100 0 *
Wi

0101100
-99 35 *
Fa
0  0.000000100000000 3 25

0111000
+110 0 +107 0 +104 0 +101 0 +98 0 *
Ed
 0.000000100000000 1 1 0
1  13 0 0.000000000000000 250.000000000000000
2  21 3 13 0.000000000000000 250.000000000000000
2  22 9 18 0.000000000000000 250.000000000000000
2  23 9 19 0.000000000000000 250.000000000000000
0

0101000
+113 0 -121 0 *
Ed
 0.000000100000000 1 1 0
1  10 0 0.000000000000000 177.048865952912138
2  16 4 18 0.000000000000000 177.048865952912138
2  17 4 19 0.000000000000000 177.048865952912138
2  18 3 13 0.000000000000000 177.048865952912138
0

0101000
+125 0 -141 0 *
Wi

0101100
+145 49 +131 49 +111 49 +96 49 +120 49 +122 49 +95 49 +136 49 *
Wi

0101100
-108 49 *
Wi

0101100
-105 49 *
Wi

0101100
-102 49 *
Wi

0101100
-99 49 *
Fa
0  0.000000100000000 3 0

0111000
+94 0 +93 0 +92 0 +91 0 +90 0 *
Ed
 0.000000100000000 1 1 0
1  22 0 0.000000000000000 15.000000000000000
2  48 4 0 0.000000000000000 15.000000000000000
0

0101000
+125 10 -125 12 *
Ed
 0.000000100000000 1 1 0
1  10 0 165.048865952912820 177.048865952912138
2  16 4 18 165.048865952912820 177.048865952912138
2  17 4 19 165.048865952912820 177.048865952912138
2  18 3 13 165.048865952912820 177.048865952912138
0

0101000
+127 36 -142 20 *
Wi

0101100
+88 15 -140 15 -124 17 -87 17 +95 24 *
Fa
0  0.000000100000000 4 15

0111000
+86 0 *
Ve
0.000000100000000
2884.000000000000000 80.000000000000000 0.000000000000000
0 0

0101101
*
Ed
 0.000000100000000 1 1 0
1  23 0 0.000000000000000 80.000000000000000
2  49 18 31 0.000000000000000 80.000000000000000
2  50 18 32 0.000000000000000 80.000000000000000
2  51 8 33 0.000000000000000 80.000000000000000
0

0101000
+142 31 -84 0 *
Ve
0.000000100000000
3014.000000000000000 80.000000000000000 0.000000000000000
0 0

0101101
*
Ed
 0.000000100000000 1 1 0
1  24 0 0.000000000000000 130.000000000000000
2  52 8 33 0.000000000000000 130.000000000000000
0

0101000
+84 0 -82 0 *
Ed
 0.000000100000000 1 1 0
1  25 0 0.000000000000000 80.000000000000000
2  53 8 33 0.000000000000000 80.000000000000000
2  54 7 31 0.000000000000000 80.000000000000000
2  55 7 32 0.000000000000000 80.000000000000000
0

0101000
+82 0 -139 0 *
Wi

0101100
-138 17 +83 27 +81 27 +80 27 *
Ve
0.000000100000000
2929.000000000000000 40.000000000000000 0.000000000000000
0 0

0101101
*
Ed
 0.000000100000000 1 1 0
1  26 0 0.000000000000000 6.283185307179586
2  56 19 31 0.000000000000000 6.283185307179586
2  57 19 32 0.000000000000000 6.283185307179586
2  58 8 33 0.000000000000000 6.283185307179586
0

0101000
+78 0 -78 0 *
Wi

0101100
+77 27 *
Ve
0.000000100000000
2979.000000000000000 40.000000000000000 0.000000000000000
0 0

0101101
*
Ed
 0.000000100000000 1 1 0
1  27 0 0.000000000000000 6.283185307179586
2  59 20 31 0.000000000000000 6.283185307179586
2  60 20 32 0.000000000000000 6.283185307179586
2  61 8 33 0.000000000000000 6.283185307179586
0

0101000
+75 0 -75 0 *
Wi

0101100
+74 27 *
Fa
0  0.000000100000000 8 50

0111000
+79 0 +76 0 +73 0 *
Ed
 0.000000100000000 1 1 0
1  28 0 0.000000000000000 15.000000000000000
2  62 9 0 0.000000000000000 15.000000000000000
0

0101000
+113 10 -113 12 *
Wi

0101100
+132 0 -71 0 -111 10 +111 12 *
Fa
0  0.000000100000000 21 0

0111000
+70 0 *
Ed
 0.000000100000000 1 1 0
1  29 0 0.000000000000000 12.000000000000000
2  63 7 0 0.000000000000000 12.000000000000000
0

0101000
+82 27 -82 29 *
Wi

0101100
+68 0 -128 0 -80 27 +80 29 *
Fa
0  0.000000100000000 7 0

0111000
+67 0 *
Ed
 0.000000100000000 1 1 0
1  23 0 0.000000000000000 80.000000000000000
2  49 18 31 0.000000000000000 80.000000000000000
2  50 18 32 0.000000000000000 80.000000000000000
2  51 8 33 0.000000000000000 80.000000000000000
0

0101000
+127 0 -84 0 *
Wi

0101100
+126 52 +65 52 +81 52 +80 52 *
Wi

0101100
+77 52 *
Wi

0101100
+74 52 *
Fa
0  0.000000100000000 8 0

0111000
+64 0 +63 0 +62 0 *
Ed
 0.000000100000000 1 1 0
1  30 0 0.000000000000000 15.000000000000000
0

0101000
+123 10 -123 12 *
Wi

0101100
+60 0 -88 0 -122 10 +122 12 *
Fa
0  0.000000100000000 22 0

0111000
+59 0 *
Ed
 0.000000100000000 1 1 0
1  31 0 0.000000000000000 15.000000000000000
2  64 9 0 0.000000000000000 15.000000000000000
0

0101000
+121 10 -121 12 *
Wi

0101100
+57 0 -60 0 -120 10 +120 12 *
Fa
0  0.000000100000000 23 0

0111000
+56 0 *
Wi

0101100
+71 6 -57 6 -112 35 +115 40 -118 35 +96 53 *
Fa
0  0.000000100000000 9 6

0111000
+54 0 *
Ve
0.000000100000000
-2552.500000000000000 80.000000000000000 0.000000000000000
0 0

0101101
*
Ed
 0.000000100000000 1 1 0
1  32 0 0.000000000000000 15.000000000000000
2  65 11 0 0.000000000000000 15.000000000000000
0

0101000
+52 40 -52 42 *
Ed
 0.000000100000000 1 1 0
1  33 0 0.000000000000000 80.000000000000000
2  66 11 43 0.000000000000000 80.000000000000000
2  67 11 44 0.000000000000000 80.000000000000000
2  68 12 45 0.000000000000000 80.000000000000000
0

0101000
+52 0 -119 0 *
Wi

0101100
+51 0 -117 0 -50 40 +50 42 *
Fa
0  0.000000100000000 11 0

0111000
+49 0 *
Ve
0.000000100000000
-2692.500000000000000 80.000000000000000 0.000000000000000
0 0

0101101
*
Ed
 0.000000100000000 1 1 0
1  34 0 0.000000000000000 80.000000000000000
2  69 13 43 0.000000000000000 80.000000000000000
2  70 13 44 0.000000000000000 80.000000000000000
2  71 12 45 0.000000000000000 80.000000000000000
0

0101000
+116 0 -47 0 *
Ed
 0.000000100000000 1 1 0
1  35 0 0.000000000000000 140.000000000000000
2  72 12 45 0.000000000000000 140.000000000000000
0

0101000
+47 0 -52 0 *
Wi

0101100
+115 55 +46 55 +45 55 +50 55 *
Ve
0.000000100000000
-2647.500000000000000 40.000000000000000 0.000000000000000
0 0

0101101
*
Ed
 0.000000100000000 1 1 0
1  36 0 0.000000000000000 6.283185307179586
2  73 24 43 0.000000000000000 6.283185307179586
2  74 24 44 0.000000000000000 6.283185307179586
2  75 12 45 0.000000000000000 6.283185307179586
0

0101000
+43 0 -43 0 *
Wi

0101100
+42 55 *
Ve
0.000000100000000
-2587.500000000000000 40.000000000000000 0.000000000000000
0 0

0101101
*
Ed
 0.000000100000000 1 1 0
1  37 0 0.000000000000000 6.283185307179586
2  76 25 43 0.000000000000000 6.283185307179586
2  77 25 44 0.000000000000000 6.283185307179586
2  78 12 45 0.000000000000000 6.283185307179586
0

0101000
+40 0 -40 0 *
Wi

0101100
+39 55 *
Fa
0  0.000000100000000 12 0

0111000
+44 0 +41 0 +38 0 *
Ed
 0.000000100000000 1 1 0
1  38 0 0.000000000000000 15.000000000000000
2  79 13 0 0.000000000000000 15.000000000000000
0

0101000
+47 40 -47 42 *
Wi

0101100
+114 0 -36 0 -46 40 +46 42 *
Fa
0  0.000000100000000 13 0

0111000
+35 0 *
Ed
 0.000000100000000 1 1 0
1  39 0 0.000000000000000 15.000000000000000
3  80 81CN 14 0 0.000000000000000 15.000000000000000
0

0101000
+109 10 -109 12 *
Wi

0101100
+33 0 -33 0 -108 10 +108 12 *
Fa
0  0.000000100000000 14 0

0111000
+32 0 *
Ed
 0.000000100000000 1 1 0
1  40 0 0.000000000000000 15.000000000000000
3  82 83CN 15 0 0.000000000000000 15.000000000000000
0

0101000
+106 10 -106 12 *
Wi

0101100
+30 0 -30 0 -105 10 +105 12 *
Fa
0  0.000000100000000 15 0

0111000
+29 0 *
Ed
 0.000000100000000 1 1 0
1  41 0 0.000000000000000 15.000000000000000
3  84 85CN 16 0 0.000000000000000 15.000000000000000
0

0101000
+103 10 -103 12 *
Wi

0101100
+27 0 -27 0 -102 10 +102 12 *
Fa
0  0.000000100000000 16 0

0111000
+26 0 *
Ed
 0.000000100000000 1 1 0
1  42 0 0.000000000000000 15.000000000000000
3  86 87CN 17 0 0.000000000000000 15.000000000000000
0

0101000
+100 10 -100 12 *
Wi

0101100
+24 0 -24 0 -99 10 +99 12 *
Fa
0  0.000000100000000 17 0

0111000
+23 0 *
Ed
 0.000000100000000 1 1 0
1  43 0 0.000000000000000 12.000000000000000
2  88 18 0 0.000000000000000 12.000000000000000
0

0101000
+84 27 -84 29 *
Wi

0101100
-87 17 -21 0 -83 27 +65 29 *
Fa
0  0.000000100000000 18 0

0111000
+20 0 *
Wi

0101100
+21 0 -68 0 -81 27 +81 29 *
Fa
0  0.000000100000000 26 0

0111000
+18 0 *
Ed
 0.000000100000000 1 1 0
1  44 0 0.000000000000000 12.000000000000000
3  89 90CN 19 0 0.000000000000000 12.000000000000000
0

0101000
+78 27 -78 29 *
Wi

0101100
+16 0 -16 0 -77 27 +77 29 *
Fa
0  0.000000100000000 19 0

0111000
+15 0 *
Ed
 0.000000100000000 1 1 0
1  45 0 0.000000000000000 12.000000000000000
3  91 92CN 20 0 0.000000000000000 12.000000000000000
0

0101000
+75 27 -75 29 *
Wi

0101100
+13 0 -13 0 -74 27 +74 29 *
Fa
0  0.000000100000000 20 0

0111000
+12 0 *
Wi

0101100
+36 0 -51 0 -45 40 +45 42 *
Fa
0  0.000000100000000 27 0

0111000
+10 0 *
Ed
 0.000000100000000 1 1 0
1  46 0 0.000000000000000 15.000000000000000
3  93 94CN 24 0 0.000000000000000 15.000000000000000
0

0101000
+43 40 -43 42 *
Wi

0101100
+8 0 -8 0 -42 40 +42 42 *
Fa
0  0.000000100000000 24 0

0111000
+7 0 *
Ed
 0.000000100000000 1 1 0
1  47 0 0.000000000000000 15.000000000000000
3  95 96CN 25 0 0.000000000000000 15.000000000000000
0

0101000
+40 40 -40 42 *
Wi

0101100
+5 0 -5 0 -39 40 +39 42 *
Fa
0  0.000000100000000 25 0

0111000
+4 0 *
Sh

0101100
+143 6 +134 14 +129 6 +97 0 -89 48 +85 14 -72 14 +69 6 -66 14 +61 51 
+58 6 +55 6 +53 0 -48 0 +37 54 -34 0 -31 6 -28 6 -25 6 -22 6 
-19 14 -17 14 -14 14 -11 14 -37 56 -9 0 -6 0 -3 0 *
So

0100000
+2 0 *

+1 1 