
CASCADE Topology V1, (c) Matra-Datavision
Locations 14
1
0.000000000000000 -0.000000000000000 1.000000000000000 0.000000000000000 
1.000000000000000 0.000000000000000 0.000000000000000 0.000000000000000 
-0.000000000000000 1.000000000000000 0.000000000000000 0.000000000000000 
1
-0.000000000000000 0.000000000000000 1.000000000000000 0.000000000000000 
1.000000000000000 -0.000000000000000 0.000000000000000 0.000000000000000 
0.000000000000000 1.000000000000000 -0.000000000000000 0.000000000000000 
2  1 1 2 -1 0
1
1.000000000000000 0.000000000000000 0.000000000000000 0.000000000000000 
0.000000000000000 1.000000000000000 0.000000000000000 0.000000000000000 
0.000000000000000 0.000000000000000 1.000000000000000 0.000000000000000 
1
0.000000000000000 -0.000000000000000 1.000000000000000 14.999999999999556 
1.000000000000000 0.000000000000000 -0.000000000000000 -0.000000000000007 
0.000000000000000 1.000000000000000 0.000000000000000 0.000000000000005 
2  4 1 5 1 2 -1 0
1
1.000000000000000 0.000000000000000 0.000000000000000 0.000000000000010 
0.000000000000000 1.000000000000000 0.000000000000000 -0.000000000000007 
0.000000000000000 0.000000000000000 1.000000000000000 -15.000000000000000 
2  4 1 5 1 2 -1 7 1 0
2  2 1 5 -1 4 -1 0
2  7 -1 2 1 5 -1 4 -1 0
2  5 -1 4 -1 0
2  2 -1 0
2  4 1 5 1 0
2  2 -1 7 1 0
Curve2ds 21
1 0.00000000000000000 0.00000000000000000 -0.00000000000000022 -1.00000000000000000 
1 0.00000000000000000 0.00000000000000000 -0.00000000000000022 -1.00000000000000000 
1 199.99999999999874944 -14.99999999999921485 0.00000000000000044 1.00000000000000000 
1 200.00000000000090949 0.00000000000000000 -0.00000000000000022 -1.00000000000000000 
1 0.00000000000000000 0.00000000000000000 -0.00000000000000010 -1.00000000000000000 
1 0.00000000000000000 0.00000000000000000 1.00000000000000000 0.00000000000000000 
1 0.00000000000000666 -15.00000000000000000 1.00000000000000000 0.00000000000000000 
1 106.41974209391491968 -76.82712311931049953 0.00000000000000000 1.00000000000000000 
1 277.30849247724233919 0.00000000000000044 -0.00000000000000010 -1.00000000000000000 
1 0.00000000000000000 0.00000000000000000 0.00000000000000022 -1.00000000000000000 
1 0.00000000000000000 0.00000000000000000 1.00000000000000000 -0.00000000000000000 
1 -0.00000000000001189 -15.00000000000000000 1.00000000000000000 -0.00000000000000000 
1 106.41974209391491968 123.17287688069040996 -0.90152305746827233 -0.43273106758477403 
1 250.00000000000045475 0.00000000000000044 -0.00000000000000022 -1.00000000000000000 
1 80.00000000000000000 0.00000000000000000 0.00000000000000022 -1.00000000000000000 
1 -143.58025790608508032 3.17287688068950047 -0.00000000000000000 -1.00000000000000000 
1 0.00000000000000000 0.00000000000000000 1.00000000000000000 0.00000000000000000 
1 -0.00000000000000666 -15.00000000000000000 1.00000000000000000 0.00000000000000000 
1 106.41974209391491968 -76.82712311931049953 -1.00000000000000000 0.00000000000000000 
1 0.00000000000000000 0.00000000000000000 1.00000000000000000 0.00000000000000000 
1 -0.00000000000000999 -15.00000000000000000 1.00000000000000000 0.00000000000000000 
Curves 8
1 -937.00000000000022737 3134.00000000000227374 14.99999999999705480 0.00000000000000067 -0.00000000000000044 -1.00000000000000000 
1 -1137.00000000000113687 3134.00000000000272848 14.99999999999696598 0.00000000000000067 -0.00000000000000044 -1.00000000000000000 
1 -937.00000000000000000 3134.00000000000136424 0.00000000000000000 -1.00000000000000000 0.00000000000000000 0.00000000000000000 
1 -1017.00000000000022737 2884.00000000000181899 14.99999999999718625 0.00000000000000067 -0.00000000000000044 -1.00000000000000000 
1 -1137.00000000000090949 3134.00000000000136424 0.00000000000000000 0.43273106758477403 -0.90152305746827233 0.00000000000000000 
1 -937.00000000000022737 2884.00000000000181899 14.99999999999722178 0.00000000000000067 -0.00000000000000044 -1.00000000000000000 
1 -1017.00000000000000000 2884.00000000000136424 0.00000000000000000 1.00000000000000000 0.00000000000000000 0.00000000000000000 
1 -937.00000000000000000 3134.00000000000136424 0.00000000000000000 0.00000000000000000 -1.00000000000000000 0.00000000000000000 
Polygon3D 0
PolygonOnTriangulations 0
Surfaces 6
1 -937.00000000000022737 3134.00000000000227374 14.99999999999705480 0.00000000000000022 1.00000000000000000 -0.00000000000000044 -1.00000000000000000 0.00000000000000022 -0.00000000000000044 -0.00000000000000044 0.00000000000000044 1.00000000000000000 
1 -937.00000000000022737 3134.00000000000227374 14.99999999999705480 -1.00000000000000000 -0.00000000000000000 -0.00000000000000067 -0.00000000000000000 -1.00000000000000000 0.00000000000000067 -0.00000000000000067 0.00000000000000067 1.00000000000000000 
1 -1137.00000000000022737 3134.00000000000136424 -0.00000000000164424 0.00000000000000044 1.00000000000000000 -0.00000000000000028 1.00000000000000000 -0.00000000000000044 0.00000000000000022 0.00000000000000022 -0.00000000000000028 -1.00000000000000000 
1 -1137.00000000000113687 3134.00000000000272848 14.99999999999696598 -0.90152305746827233 -0.43273106758477403 -0.00000000000000041 0.43273106758477403 -0.90152305746827233 0.00000000000000079 -0.00000000000000071 0.00000000000000053 1.00000000000000000 
1 14.99999999999776001 -1013.82712311931049953 3027.58025790608644456 1.00000000000000000 -0.00000000000000044 0.00000000000000045 -0.00000000000000045 0.00000000000000000 1.00000000000000000 -0.00000000000000044 -1.00000000000000000 -0.00000000000000000 
1 -1017.00000000000022737 2884.00000000000181899 14.99999999999718625 -0.00000000000000022 -1.00000000000000000 0.00000000000000044 1.00000000000000000 -0.00000000000000022 0.00000000000000044 -0.00000000000000044 0.00000000000000044 1.00000000000000000 
Triangulations 0

TShapes 24
Ve
0.000000100000455
-937.000000000000000 3134.000000000001364 0.000000000000000
0 0

0101101
*
Ed
 0.000000100000455 1 1 0
1  1 0 0.000000000000000 15.000000000000000
2  1 1 0 0.000000000000000 15.000000000000000
2  2 2 0 0.000000000000000 15.000000000000000
2  3 3 3 0.000000000000000 15.000000000000000
0

0101000
+24 6 -24 8 *
Ve
0.000000100000000
-1137.000000000000909 3134.000000000001364 0.000000000000000
0 0

0101101
*
Ed
 0.000000100000000 1 1 0
1  2 0 0.000000000000000 15.000000000000000
2  4 1 0 0.000000000000000 15.000000000000000
2  5 4 0 0.000000000000000 15.000000000000000
0

0101000
+22 6 -22 8 *
Ed
 0.000000100000000 1 1 0
1  3 0 0.000000000000000 200.000000000000909
2  6 1 9 0.000000000000000 200.000000000000909
2  7 1 10 0.000000000000000 200.000000000000909
2  8 5 11 0.000000000000000 200.000000000000909
0

0101000
+24 0 -22 0 *
Wi

0101100
+23 0 -21 0 -20 6 +20 8 *
Fa
0  0.000000100000000 1 0

0111000
+19 0 *
Ve
0.000000100000000
-1017.000000000000000 2884.000000000001364 0.000000000000000
0 0

0101101
*
Ed
 0.000000100000000 1 1 0
1  4 0 0.000000000000000 15.000000000000000
2  9 4 0 0.000000000000000 15.000000000000000
2  10 6 0 0.000000000000000 15.000000000000000
0

0101000
+17 6 -17 8 *
Ed
 0.000000100000000 1 1 0
1  5 0 0.000000000000000 277.308492477241316
2  11 4 9 0.000000000000000 277.308492477241316
2  12 4 10 0.000000000000000 277.308492477241316
2  13 5 11 0.000000000000000 277.308492477241316
0

0101000
+22 0 -17 0 *
Wi

0101100
+21 0 -16 0 -15 6 +15 8 *
Fa
0  0.000000100000000 4 0

0111000
+14 0 *
Ve
0.000000100000000
-937.000000000000000 2884.000000000001364 0.000000000000000
0 0

0101101
*
Ed
 0.000000100000000 1 1 0
1  6 0 0.000000000000000 15.000000000000000
2  14 2 0 0.000000000000000 15.000000000000000
2  15 6 0 0.000000000000000 15.000000000000000
0

0101000
+12 6 -12 8 *
Ed
 0.000000100000000 1 1 0
1  7 0 0.000000000000000 80.000000000000000
2  16 5 11 0.000000000000000 80.000000000000000
2  17 6 9 0.000000000000000 80.000000000000000
2  18 6 10 0.000000000000000 80.000000000000000
0

0101000
+17 0 -12 0 *
Wi

0101100
+16 0 -11 0 -10 6 +10 8 *
Fa
0  0.000000100000000 6 0

0111000
+9 0 *
Ed
 0.000000100000000 1 1 0
1  8 0 0.000000000000000 250.000000000000000
2  19 5 11 0.000000000000000 250.000000000000000
2  20 2 9 0.000000000000000 250.000000000000000
2  21 2 10 0.000000000000000 250.000000000000000
0

0101000
+24 0 -12 0 *
Wi

0101100
+23 0 -11 0 -7 6 +7 8 *
Fa
0  0.000000100000000 2 0

0111000
+6 0 *
Wi

0101100
+20 0 +15 0 +10 0 -7 0 *
Fa
0  0.000000100000000 5 0

0111000
+4 13 *
Sh

0101100
+18 0 +13 0 +8 0 -5 0 +3 12 -3 14 *
So

1100000
+2 0 *

+1 0 