
CASCADE Topology V1, (c) Matra-Datavision
Locations 22
1
1.000000000000000 0.000000000000000 0.000000000000000 0.000000000000000 
0.000000000000000 1.000000000000000 0.000000000000000 0.000000000000000 
0.000000000000000 0.000000000000000 1.000000000000000 0.000000000000000 
1
0.000000000000000 0.000000000000000 -1.000000000000000 -0.000000000000012 
1.000000000000000 -0.000000000000000 0.000000000000000 0.000000000000000 
0.000000000000000 -1.000000000000000 -0.000000000000000 -0.000000000000000 
1
0.000000000000000 0.000000000000000 1.000000000000000 0.000000000000000 
1.000000000000000 0.000000000000000 0.000000000000000 0.000000000000000 
0.000000000000000 1.000000000000000 0.000000000000000 0.000000000000000 
2  1 1 2 1 3 -1 0
1
1.000000000000000 0.000000000000000 0.000000000000000 -0.000000000000003 
0.000000000000000 1.000000000000000 0.000000000000000 0.000000000000004 
0.000000000000000 0.000000000000000 1.000000000000000 15.000000000000000 
2  1 1 2 1 3 -1 5 1 0
2  2 -1 1 -1 0
1
0.000000000000000 0.000000000000000 1.000000000000000 0.000000000000000 
1.000000000000000 0.000000000000000 0.000000000000000 0.000000000000000 
0.000000000000000 1.000000000000000 0.000000000000000 0.000000000000000 
1
0.000000000000000 0.000000000000000 1.000000000000000 0.000000000000000 
1.000000000000000 0.000000000000000 0.000000000000000 0.000000000000000 
0.000000000000000 1.000000000000000 0.000000000000000 0.000000000000000 
1
0.000000000000000 0.000000000000000 1.000000000000000 0.000000000000000 
1.000000000000000 0.000000000000000 0.000000000000000 0.000000000000000 
0.000000000000000 1.000000000000000 0.000000000000000 0.000000000000000 
2  8 1 9 -1 10 1 3 -1 0
2  3 1 2 -1 1 -1 0
2  5 -1 3 1 2 -1 1 -1 0
2  8 1 9 -1 10 1 2 -1 1 -1 0
2  8 1 9 -1 10 1 3 -1 5 -1 3 1 2 -1 1 -1 0
1
-0.000000000000000 0.000000000000000 1.000000000000000 0.000000000000000 
1.000000000000000 -0.000000000000000 0.000000000000000 0.000000000000000 
0.000000000000000 1.000000000000000 -0.000000000000000 0.000000000000000 
1
1.000000000000000 0.000000000000000 0.000000000000000 -0.000000000000007 
0.000000000000000 1.000000000000000 0.000000000000000 0.000000000000004 
0.000000000000000 0.000000000000000 1.000000000000000 15.000000000000000 
2  16 -1 17 1 8 1 9 -1 10 1 3 -1 5 -1 3 1 2 -1 1 -1 0
2  16 -1 8 1 9 -1 10 1 2 -1 1 -1 0
2  3 -1 0
2  1 1 2 1 0
2  3 -1 5 1 0
Curve2ds 32
1 80.00000000000000000 0.00000000000000000 -0.00000000000000006 -1.00000000000000000 
1 0.00000000000000000 0.00000000000000000 0.00000000000000006 -1.00000000000000000 
1 -110.00000000000000000 -40.00000000000000000 1.00000000000000000 0.00000000000000000 
1 80.00000000000000000 0.00000000000000000 0.00000000000000006 -1.00000000000000000 
1 -0.00000000000000000 0.00000000000000000 -0.00000000000000006 -1.00000000000000000 
1 60.00000000000156319 -0.00000000000186936 -0.00000000000000011 -1.00000000000000000 
1 0.00000000000000000 0.00000000000000000 1.00000000000000000 0.00000000000000000 
1 -0.00000000000000333 -14.99999999999999822 1.00000000000000000 0.00000000000000000 
1 110.00000000000000000 -40.00000000000000000 0.00000000000000000 1.00000000000000000 
1 220.00000000000000000 0.00000000000000000 -0.00000000000000006 -1.00000000000000000 
1 0.00000000000000000 0.00000000000000000 -0.00000000000000006 -1.00000000000000000 
1 280.00000000000159162 -0.00000000000185670 -0.00000000000000011 -1.00000000000000000 
1 -0.00000000000000000 0.00000000000000000 1.00000000000000000 0.00000000000000000 
1 -0.00000000000000416 -14.99999999999999822 1.00000000000000000 0.00000000000000000 
1 110.00000000000000000 40.00000000000000000 -1.00000000000000000 0.00000000000000000 
1 60.00000000000187583 -0.00000000000154795 1.00000000000000000 0.00000000000000000 
1 60.00000000000156319 -15.00000000000186873 1.00000000000000000 0.00000000000000006 
1 -454.99999999999852207 -124.99999999999909051 1.00000000000000000 -0.00000000000000011 
1 -454.99999999999818101 -124.99999999999909051 1.00000000000000000 -0.00000000000000006 
1 0.00000000000000000 0.00000000000000000 1.00000000000000000 -0.00000000000000000 
1 0.00000000000000333 -15.00000000000000000 1.00000000000000000 -0.00000000000000000 
1 -110.00000000000000000 40.00000000000000000 0.00000000000000000 -1.00000000000000000 
1 0.00000000000000000 0.00000000000000000 0.00000000000000000 -1.00000000000000000 
1 6.28318530717958623 0.00000000000000000 0.00000000000000000 -1.00000000000000000 
1 0.00000000000000000 0.00000000000000000 1.00000000000000000 0.00000000000000000 
1 0.00000000000000000 -15.00000000000000000 1.00000000000000000 0.00000000000000000 
2 -70.00000000000000000 0.00000000000000000 1.00000000000000000 0.00000000000000000 0.00000000000000000 -1.00000000000000000 5.00000000000000000
1 0.00000000000000000 0.00000000000000000 0.00000000000000000 -1.00000000000000000 
1 6.28318530717958623 0.00000000000000000 0.00000000000000000 -1.00000000000000000 
1 0.00000000000000000 0.00000000000000000 1.00000000000000000 0.00000000000000000 
1 0.00000000000000000 -15.00000000000000000 1.00000000000000000 0.00000000000000000 
2 70.00000000000000000 0.00000000000000000 1.00000000000000000 0.00000000000000000 0.00000000000000000 -1.00000000000000000 5.00000000000000000
Curves 12
1 -52.00000000000152056 5542.00050000000101136 -0.00000000000125734 -0.00000000000000022 0.00000000000000028 1.00000000000000000 
1 167.99999999999849365 5542.00050000000101136 -0.00000000000119628 -0.00000000000000022 0.00000000000000028 1.00000000000000000 
1 -52.00000000000182609 -5542.00050000000101136 0.00000000000000000 1.00000000000000000 0.00000000000000000 0.00000000000000000 
1 167.99999999999849365 5622.00050000000101136 -0.00000000000121405 -0.00000000000000022 0.00000000000000028 1.00000000000000000 
1 167.99999999999818101 -5542.00050000000101136 0.00000000000000000 0.00000000000000000 -1.00000000000000000 0.00000000000000000 
1 -52.00000000000150635 5622.00050000000101136 -0.00000000000127511 -0.00000000000000022 0.00000000000000028 1.00000000000000000 
1 167.99999999999818101 -5622.00050000000101136 0.00000000000000000 -1.00000000000000000 0.00000000000000000 0.00000000000000000 
1 -52.00000000000182609 -5622.00050000000101136 0.00000000000000000 0.00000000000000000 1.00000000000000000 0.00000000000000000 
1 -7.00000000000151612 5582.00050000000101136 -0.00000000000125374 -0.00000000000000022 0.00000000000000028 1.00000000000000000 
2 -12.00000000000182609 -5582.00050000000101136 0.00000000000000000 0.00000000000000000 0.00000000000000000 1.00000000000000000 1.00000000000000000 0.00000000000000000 -0.00000000000000000 -0.00000000000000000 1.00000000000000000 0.00000000000000000 5.00000000000000000
1 132.99999999999849365 5582.00050000000101136 -0.00000000000121488 -0.00000000000000022 0.00000000000000028 1.00000000000000000 
2 127.99999999999818101 -5582.00050000000101136 0.00000000000000000 0.00000000000000000 0.00000000000000000 1.00000000000000000 1.00000000000000000 0.00000000000000000 -0.00000000000000000 -0.00000000000000000 1.00000000000000000 0.00000000000000000 5.00000000000000000
Polygon3D 0
PolygonOnTriangulations 0
Surfaces 9
1 -52.00000000000152056 5542.00050000000101136 -0.00000000000125734 0.00000000000000000 1.00000000000000000 -0.00000000000000028 1.00000000000000000 0.00000000000000000 0.00000000000000028 0.00000000000000028 -0.00000000000000028 -1.00000000000000000 
1 -52.00000000000151346 5622.00050000000101136 -0.00000000000127511 1.00000000000000000 -0.00000000000000006 0.00000000000000022 -0.00000000000000006 -1.00000000000000000 0.00000000000000022 0.00000000000000022 -0.00000000000000022 -1.00000000000000000 
1 167.99999999999849365 5542.00050000000101136 -0.00000000000119628 -1.00000000000000000 0.00000000000000006 -0.00000000000000022 0.00000000000000006 1.00000000000000000 -0.00000000000000022 0.00000000000000022 -0.00000000000000022 -1.00000000000000000 
1 -0.00000000000123891 57.99999999999818101 5582.00050000000101136 1.00000000000000000 -0.00000000000000022 0.00000000000000022 0.00000000000000022 1.00000000000000000 0.00000000000000000 -0.00000000000000022 0.00000000000000000 1.00000000000000000 
1 167.99999999999849365 5622.00050000000101136 -0.00000000000121405 -0.00000000000000000 -1.00000000000000000 0.00000000000000028 -1.00000000000000000 -0.00000000000000000 -0.00000000000000028 0.00000000000000028 -0.00000000000000028 -1.00000000000000000 
1 228.00000000000005684 5622.00050000000101136 -0.00000000000244604 -0.00000000000000044 -1.00000000000000000 0.00000000000000028 -1.00000000000000000 0.00000000000000044 -0.00000000000000022 0.00000000000000022 -0.00000000000000028 -1.00000000000000000 
1 -0.00000000000133982 -287.00000000000000000 5747.00050000000010186 -1.00000000000000000 0.00000000000000022 -0.00000000000000022 -0.00000000000000022 -1.00000000000000000 0.00000000000000000 -0.00000000000000022 0.00000000000000000 1.00000000000000000 
2 -12.00000000000151701 5582.00050000000101136 -0.00000000000125512 0.00000000000000028 -0.00000000000000022 -1.00000000000000000 1.00000000000000000 0.00000000000000000 0.00000000000000028 -0.00000000000000000 -1.00000000000000000 0.00000000000000022 5.00000000000000000
2 127.99999999999849365 5582.00050000000101136 -0.00000000000121627 0.00000000000000028 -0.00000000000000022 -1.00000000000000000 1.00000000000000000 0.00000000000000000 0.00000000000000028 -0.00000000000000000 -1.00000000000000000 0.00000000000000022 5.00000000000000000
Triangulations 0

TShapes 36
Ve
0.000000100000000
-52.000000000001826 -5542.000500000001011 0.000000000000000
0 0

0101101
*
Ed
 0.000000100000000 1 1 0
1  1 0 0.000000000000000 15.000000000000000
2  1 2 0 0.000000000000000 15.000000000000000
0

0101000
+36 4 -36 6 *
Ve
0.000000100000000
167.999999999998181 -5542.000500000001011 0.000000000000000
0 0

0101101
*
Ed
 0.000000100000000 1 1 0
1  2 0 0.000000000000000 15.000000000000000
2  2 3 0 0.000000000000000 15.000000000000000
0

0101000
+34 4 -34 6 *
Ed
 0.000000100000000 1 1 0
1  3 0 0.000000000000000 220.000000000000000
2  3 4 7 0.000000000000000 220.000000000000000
0

0101000
+36 0 -34 0 *
Wi

0101100
+35 0 -33 0 -32 4 +32 6 *
Fa
0  0.000000100000000 1 0

0111000
+31 0 *
Ve
0.000000100001561
167.999999999998181 -5622.000500000001011 0.000000000000000
0 0

0101101
*
Ed
 0.000000100000000 1 1 0
1  4 0 0.000000000000000 15.000000000000000
2  4 3 0 0.000000000000000 15.000000000000000
2  5 5 0 0.000000000000000 15.000000000000000
2  6 6 11 0.000000000000000 15.000000000000000
0

0101000
+29 4 -29 6 *
Ed
 0.000000100000000 1 1 0
1  5 0 0.000000000000000 80.000000000000000
2  7 3 12 0.000000000000000 80.000000000000000
2  8 3 13 0.000000000000000 80.000000000000000
2  9 4 7 0.000000000000000 80.000000000000000
0

0101000
+34 0 -29 0 *
Wi

0101100
+33 0 -28 0 -27 4 +27 6 *
Fa
0  0.000000100000000 3 0

0111000
+26 0 *
Ve
0.000000100001562
-52.000000000001819 -5622.000500000001011 0.000000000000000
0 0

0101101
*
Ed
 0.000000100000004 1 1 0
1  6 0 0.000000000000000 15.000000000000000
2  10 5 0 0.000000000000000 15.000000000000000
2  11 2 0 0.000000000000000 15.000000000000000
2  12 6 11 0.000000000000000 15.000000000000000
0

0101000
+24 4 -24 6 *
Ed
 0.000000100001561 1 1 0
1  7 0 0.000000000000000 220.000000000000000
2  13 5 12 0.000000000000000 220.000000000000000
2  14 5 13 0.000000000000000 220.000000000000000
2  15 4 7 0.000000000000000 220.000000000000000
2  16 6 14 0.000000000000000 220.000000000000000
2  17 6 15 0.000000000000000 220.000000000000000
2  18 7 18 0.000000000000000 220.000000000000000
2  19 7 19 0.000000000000000 220.000000000000000
0

0101000
+29 0 -24 0 *
Wi

0101100
+28 0 -23 0 -22 4 +22 6 *
Fa
0  0.000000100000000 5 0

0111000
+21 0 *
Ed
 0.000000100000000 1 1 0
1  8 0 0.000000000000000 80.000000000000000
2  20 2 12 0.000000000000000 80.000000000000000
2  21 2 13 0.000000000000000 80.000000000000000
2  22 4 7 0.000000000000000 80.000000000000000
0

0101000
+24 0 -36 0 *
Wi

0101100
+23 0 -35 0 -19 4 +19 6 *
Fa
0  0.000000100000000 2 0

0111000
+18 0 *
Ve
0.000000100000000
-7.000000000001826 -5582.000500000001011 0.000000000000000
0 0

0101101
*
Ed
 0.000000100000000 1 1 0
1  9 0 0.000000000000000 15.000000000000000
3  23 24CN 8 0 0.000000000000000 15.000000000000000
0

0101000
+16 4 -16 6 *
Ed
 0.000000100000000 1 1 0
1  10 0 0.000000000000000 6.283185307179586
2  25 8 12 0.000000000000000 6.283185307179586
2  26 8 13 0.000000000000000 6.283185307179586
2  27 4 7 0.000000000000000 6.283185307179586
0

0101000
+16 0 -16 0 *
Wi

0101100
+15 0 -15 0 -14 4 +14 6 *
Fa
0  0.000000100000000 8 0

0111000
+13 0 *
Ve
0.000000100000000
132.999999999998181 -5582.000500000001011 0.000000000000000
0 0

0101101
*
Ed
 0.000000100000000 1 1 0
1  11 0 0.000000000000000 15.000000000000000
3  28 29CN 9 0 0.000000000000000 15.000000000000000
0

0101000
+11 4 -11 6 *
Ed
 0.000000100000000 1 1 0
1  12 0 0.000000000000000 6.283185307179586
2  30 9 12 0.000000000000000 6.283185307179586
2  31 9 13 0.000000000000000 6.283185307179586
2  32 4 7 0.000000000000000 6.283185307179586
0

0101000
+11 0 -11 0 *
Wi

0101100
+10 0 -10 0 -9 4 +9 6 *
Fa
0  0.000000100000000 9 0

0111000
+8 0 *
Wi

0101100
+32 21 +27 21 +22 21 +19 21 *
Wi

0101100
+14 21 *
Wi

0101100
+9 21 *
Fa
0  0.000000100000000 4 0

0111000
+6 0 +5 0 +4 0 *
Sh

0101100
+30 0 +25 0 +20 0 +17 0 +12 0 +7 0 +3 20 -3 22 *
So

0100000
-2 0 *

+1 0 