
CASCADE Topology V1, (c) Matra-Datavision
Locations 49
1
1.000000000000000 0.000000000000000 0.000000000000000 4776.000000000000000 
0.000000000000000 1.000000000000000 0.000000000000000 0.000000000000000 
0.000000000000000 0.000000000000000 1.000000000000000 0.000000000000000 
1
0.000000000000000 0.000000000000000 1.000000000000000 0.000000000000000 
1.000000000000000 0.000000000000000 0.000000000000000 0.000000000000000 
0.000000000000000 1.000000000000000 0.000000000000000 0.000000000000000 
1
0.000000000000000 0.000000000000000 1.000000000000000 0.000000000000000 
1.000000000000000 0.000000000000000 0.000000000000000 0.000000000000000 
0.000000000000000 1.000000000000000 0.000000000000000 0.000000000000000 
2  2 1 3 -1 0
1
0.000000000000000 0.000000000000000 1.000000000000000 0.000000000000000 
1.000000000000000 0.000000000000000 0.000000000000000 0.000000000000000 
0.000000000000000 1.000000000000000 0.000000000000000 0.000000000000000 
1
0.000000000000000 0.000000000000000 1.000000000000000 0.000000000000000 
1.000000000000000 0.000000000000000 0.000000000000000 0.000000000000000 
0.000000000000000 1.000000000000000 0.000000000000000 0.000000000000000 
2  5 1 6 -1 0
1
0.000000000000000 0.000000000000000 1.000000000000000 0.000000000000000 
1.000000000000000 0.000000000000000 0.000000000000000 0.000000000000000 
0.000000000000000 1.000000000000000 0.000000000000000 0.000000000000000 
2  8 -1 3 1 2 -1 6 1 5 -1 0
1
1.000000000000000 0.000000000000000 0.000000000000000 0.000000000000000 
0.000000000000000 1.000000000000000 0.000000000000000 0.000000000000000 
0.000000000000000 0.000000000000000 1.000000000000000 0.000000000000000 
1
0.000000000000000 -0.000000000000000 1.000000000000000 0.000000000000000 
1.000000000000000 0.000000000000000 -0.000000000000000 0.000000000000000 
-0.000000000000000 1.000000000000000 0.000000000000000 0.000000000000000 
1
-0.000000000000000 0.000000000000000 1.000000000000000 0.000000000000000 
1.000000000000000 -0.000000000000000 0.000000000000000 0.000000000000000 
0.000000000000000 1.000000000000000 -0.000000000000000 0.000000000000000 
2  10 1 11 1 12 -1 5 1 6 -1 0
2  8 -1 3 1 2 -1 6 1 5 -1 12 1 11 -1 10 -1 0
1
1.000000000000000 0.000000000000000 0.000000000000000 -0.000000000000007 
0.000000000000000 1.000000000000000 0.000000000000000 0.000000000000004 
0.000000000000000 0.000000000000000 1.000000000000000 15.000000000000000 
2  10 1 11 1 12 -1 15 1 5 1 6 -1 0
2  8 -1 3 1 2 -1 6 1 5 -1 15 -1 12 1 11 -1 10 -1 0
2  5 1 6 -1 2 1 3 -1 0
2  10 1 11 1 12 -1 0
2  10 1 11 1 12 -1 15 1 0
2  8 -1 3 1 2 -1 0
1
1.000000000000000 0.000000000000000 0.000000000000000 0.000000000000000 
0.000000000000000 1.000000000000000 0.000000000000000 0.000000000000000 
0.000000000000000 0.000000000000000 1.000000000000000 0.000000000000000 
1
0.000000000000000 1.000000000000000 0.000000000000000 -0.000000000000000 
1.000000000000000 -0.000000000000000 -0.000000000000000 0.000000000000000 
-0.000000000000000 0.000000000000000 -1.000000000000000 0.000000000000005 
2  22 1 23 1 6 -1 0
2  8 -1 3 1 2 -1 6 1 23 -1 22 -1 0
1
1.000000000000000 0.000000000000000 0.000000000000000 0.000000000000007 
0.000000000000000 1.000000000000000 0.000000000000000 15.000000000000000 
0.000000000000000 0.000000000000000 1.000000000000000 -0.000000000000004 
2  22 1 23 1 6 -1 26 1 0
2  8 -1 3 1 2 -1 26 -1 6 1 23 -1 22 -1 0
2  12 -1 5 1 6 -1 2 1 3 -1 0
2  22 1 23 1 6 -1 26 1 2 1 3 -1 0
2  10 1 11 1 12 -1 5 1 6 -1 2 1 3 -1 0
2  12 1 11 -1 10 -1 0
1
1.000000000000000 0.000000000000000 0.000000000000000 0.000000000000000 
0.000000000000000 1.000000000000000 0.000000000000000 0.000000000000000 
0.000000000000000 0.000000000000000 1.000000000000000 0.000000000000000 
1
0.000000000000000 0.000000000000000 -1.000000000000000 -0.000000000000003 
1.000000000000000 -0.000000000000000 0.000000000000000 0.000000000000000 
0.000000000000000 -1.000000000000000 -0.000000000000000 -0.000000000000000 
2  33 1 34 1 3 -1 0
2  3 1 34 -1 33 -1 0
2  8 -1 3 1 34 -1 33 -1 0
2  12 -1 15 1 5 1 6 -1 2 1 3 -1 0
2  10 1 11 1 12 -1 15 1 5 1 6 -1 2 1 3 -1 0
2  15 -1 12 1 11 -1 10 -1 0
2  8 -1 0
1
0.000000000000000 1.000000000000000 0.000000000000000 -0.000000000000000 
1.000000000000000 -0.000000000000000 -0.000000000000000 0.000000000000000 
-0.000000000000000 0.000000000000000 -1.000000000000000 0.000000000000005 
1
1.000000000000000 0.000000000000000 0.000000000000000 0.000000000000000 
0.000000000000000 1.000000000000000 0.000000000000000 0.000000000000000 
0.000000000000000 0.000000000000000 1.000000000000000 0.000000000000000 
2  42 -1 43 -1 22 1 23 1 6 -1 0
2  6 1 23 -1 22 -1 0
2  6 -1 26 1 2 1 3 -1 0
2  42 -1 43 -1 22 1 23 1 0
2  22 1 23 1 0
2  26 -1 6 1 23 -1 22 -1 0
Curve2ds 32
1 0.00000000000000000 0.00000000000000000 1.00000000000000000 0.00000000000000000 
1 0.00000000000000000 0.00000000000000000 1.00000000000000000 0.00000000000000000 
1 0.00000000000000000 0.00000000000000000 1.00000000000000000 0.00000000000000000 
1 0.00000000000000000 0.00000000000000000 1.00000000000000000 0.00000000000000000 
1 0.00000000000000000 0.00000000000000000 1.00000000000000000 0.00000000000000000 
1 0.00000000000000000 0.00000000000000000 1.00000000000000000 0.00000000000000000 
1 0.00000000000000000 -15.00000000000000000 1.00000000000000000 0.00000000000000000 
1 0.00000000000000000 -15.00000000000000000 1.00000000000000000 0.00000000000000000 
1 0.00000000000000000 -15.00000000000002309 1.00000000000000000 0.00000000000000000 
1 0.00000000000000000 -15.00000000000002132 1.00000000000000000 0.00000000000000000 
1 0.00000000000000000 -15.00000000000000000 1.00000000000000000 0.00000000000000000 
1 0.00000000000000000 -15.00000000000000000 1.00000000000000000 0.00000000000000000 
1 0.00000000000000000 0.00000000000000000 1.00000000000000000 0.00000000000000000 
1 0.00000000000000000 0.00000000000000000 1.00000000000000000 0.00000000000000000 
1 0.00000000000000000 -15.00000000000000000 1.00000000000000000 0.00000000000000000 
1 0.00000000000000000 -15.00000000000000000 1.00000000000000000 0.00000000000000000 
1 0.00000000000000000 0.00000000000000000 0.00000000000000000 -1.00000000000000000 
1 6.28318530717958623 0.00000000000000000 0.00000000000000000 -1.00000000000000000 
1 0.00000000000000000 0.00000000000000000 0.00000000000000000 -1.00000000000000000 
1 6.28318530717958623 0.00000000000000000 0.00000000000000000 -1.00000000000000000 
1 0.00000000000000000 0.00000000000000000 0.00000000000000000 -1.00000000000000000 
1 6.28318530717958623 0.00000000000000000 0.00000000000000000 -1.00000000000000000 
1 0.00000000000000000 0.00000000000000000 0.00000000000000000 -1.00000000000000000 
1 6.28318530717958623 0.00000000000000000 0.00000000000000000 -1.00000000000000000 
1 0.00000000000000000 0.00000000000000000 0.00000000000000000 -1.00000000000000000 
1 6.28318530717958623 0.00000000000000000 0.00000000000000000 -1.00000000000000000 
1 0.00000000000000000 0.00000000000000000 0.00000000000000000 -1.00000000000000000 
1 6.28318530717958623 0.00000000000000000 0.00000000000000000 -1.00000000000000000 
1 0.00000000000000000 0.00000000000000000 0.00000000000000000 -1.00000000000000000 
1 6.28318530717958623 0.00000000000000000 0.00000000000000000 -1.00000000000000000 
1 0.00000000000000000 0.00000000000000000 0.00000000000000000 -1.00000000000000000 
1 6.28318530717958623 0.00000000000000000 0.00000000000000000 -1.00000000000000000 
Curves 59
1 -0.00000000000028034 -1010.00000000000034106 0.00000000000039246 1.00000000000000000 -0.00000000000000038 0.00000000000000034 
1 -0.00000000000040419 -1010.00000000000022737 318.75000000000017053 1.00000000000000000 -0.00000000000000038 0.00000000000000034 
1 -0.00000000000005607 -1010.00000000000011369 -0.00000000000005607 0.00000000000000006 0.00000000000000006 1.00000000000000000 
1 -0.00000000000005607 -1010.00000000000011369 -0.00000000000005607 0.00000000000000006 0.00000000000000006 1.00000000000000000 
1 14.99999999999994849 -1010.00000000000011369 -15.00000000000005151 0.00000000000000006 0.00000000000000006 1.00000000000000000 
1 -0.00000000000034972 -1260.00000000000022737 0.00000000000048961 1.00000000000000000 -0.00000000000000038 0.00000000000000034 
1 -0.00000000000006994 -1260.00000000000000000 -0.00000000000006994 0.00000000000000006 1.00000000000000000 0.00000000000000006 
1 14.99999999999993605 -1260.00000000000000000 -15.00000000000006395 0.00000000000000006 1.00000000000000000 0.00000000000000006 
1 -0.00000000000065474 -1616.95565501695432431 530.00000000000068212 1.00000000000000000 -0.00000000000000038 0.00000000000000034 
1 -0.00000000000003837 -1010.00000000000011369 318.74999999999965894 -0.00000000000000003 -0.94443160374707291 0.32870799479740653 
1 14.99999999999996625 -1010.00000000000011369 303.74999999999965894 -0.00000000000000003 -0.94443160374707291 0.32870799479740653 
1 -80.00000000000011369 -1010.00000000000011369 0.00000000000036220 -0.00000000000000022 0.00000000000000056 1.00000000000000000 
1 -79.99999999999982947 -0.00000000000005551 1010.00000000000011369 1.00000000000000000 0.00000000000000006 -0.00000000000000006 
1 -79.99999999999984368 14.99999999999994849 1025.00000000000000000 1.00000000000000000 0.00000000000000006 -0.00000000000000006 
1 0.00000000000016030 14.99999999999995204 1025.00000000000000000 -0.00000000000000006 -0.00000000000000006 1.00000000000000000 
1 -0.00000000000006211 -1260.00000000000000000 141.05264146730814900 -0.00000000000000006 -0.00000000000000006 -1.00000000000000000 
1 -0.00000000000007656 -1659.21839058501950603 279.99999999999982947 0.00000000000000003 0.94443160374707291 -0.32870799479740648 
1 -0.00000000000006034 -1616.95565501695409694 529.99999999999988631 -0.00000000000000006 -1.00000000000000000 -0.00000000000000006 
1 -0.00000000000008760 -1857.99999999999840838 279.99999999999982947 0.00000000000000006 1.00000000000000000 0.00000000000000006 
1 -0.00000000000007372 -1857.99999999999840838 529.99999999999988631 -0.00000000000000006 -0.00000000000000006 -1.00000000000000000 
2 -0.00000000000004531 -1100.00000000000000000 283.74999999999994316 1.00000000000000000 -0.00000000000000006 -0.00000000000000006 0.00000000000000006 1.00000000000000000 0.00000000000000006 0.00000000000000006 -0.00000000000000006 1.00000000000000000 5.00000000000000000
2 -0.00000000000006858 -1519.10980544585845564 283.74999999999994316 1.00000000000000000 -0.00000000000000006 -0.00000000000000006 0.00000000000000006 1.00000000000000000 0.00000000000000006 0.00000000000000006 -0.00000000000000006 1.00000000000000000 5.00000000000000000
2 -0.00000000000048559 1803.00000000000000000 -329.97842888364942837 -1.00000000000000000 -0.00000000000000028 -0.00000000000000006 0.00000000000000028 -1.00000000000000000 -0.00000000000000028 -0.00000000000000006 -0.00000000000000028 1.00000000000000000 5.00000000000000000
2 -0.00000000000048226 1803.00000000000000000 -389.97842888364942837 -1.00000000000000000 -0.00000000000000028 -0.00000000000000006 0.00000000000000028 -1.00000000000000000 -0.00000000000000028 -0.00000000000000006 -0.00000000000000028 1.00000000000000000 5.00000000000000000
2 -0.00000000000006448 -1634.00000000000000000 472.49999999999988631 1.00000000000000000 -0.00000000000000006 -0.00000000000000006 0.00000000000000006 1.00000000000000000 0.00000000000000006 0.00000000000000006 -0.00000000000000006 1.00000000000000000 5.00000000000000000
2 -0.00000000000007164 -1763.00000000000000000 472.49999999999988631 1.00000000000000000 -0.00000000000000006 -0.00000000000000006 0.00000000000000006 1.00000000000000000 0.00000000000000006 0.00000000000000006 -0.00000000000000006 1.00000000000000000 5.00000000000000000
1 14.99999999999994316 -1260.00000000000000000 126.05264146730814900 -0.00000000000000006 -0.00000000000000006 -1.00000000000000000 
1 14.99999999999994493 -1616.95565501695409694 514.99999999999988631 -0.00000000000000006 -1.00000000000000000 -0.00000000000000006 
1 14.99999999999992895 -1659.21839058501950603 264.99999999999982947 0.00000000000000003 0.94443160374707291 -0.32870799479740648 
1 14.99999999999993250 -1857.99999999999840838 514.99999999999988631 -0.00000000000000006 -0.00000000000000006 -1.00000000000000000 
1 14.99999999999991829 -1857.99999999999840838 264.99999999999982947 0.00000000000000006 1.00000000000000000 0.00000000000000006 
2 14.99999999999995914 -1100.00000000000000000 268.74999999999994316 1.00000000000000000 -0.00000000000000006 -0.00000000000000006 0.00000000000000006 1.00000000000000000 0.00000000000000006 0.00000000000000006 -0.00000000000000006 1.00000000000000000 5.00000000000000000
2 14.99999999999993605 -1519.10980544585845564 268.74999999999994316 1.00000000000000000 -0.00000000000000006 -0.00000000000000006 0.00000000000000006 1.00000000000000000 0.00000000000000006 0.00000000000000006 -0.00000000000000006 1.00000000000000000 5.00000000000000000
2 14.99999999999944578 -1803.00000000000000000 329.97842888364993996 -1.00000000000000000 0.00000000000000028 -0.00000000000000022 0.00000000000000028 1.00000000000000000 0.00000000000000000 0.00000000000000022 -0.00000000000000000 -1.00000000000000000 5.00000000000000000
2 14.99999999999943157 -1803.00000000000000000 389.97842888364993996 -1.00000000000000000 0.00000000000000028 -0.00000000000000022 0.00000000000000028 1.00000000000000000 0.00000000000000000 0.00000000000000022 -0.00000000000000000 -1.00000000000000000 5.00000000000000000
2 14.99999999999994138 -1634.00000000000000000 457.49999999999988631 1.00000000000000000 -0.00000000000000006 -0.00000000000000006 0.00000000000000006 1.00000000000000000 0.00000000000000006 0.00000000000000006 -0.00000000000000006 1.00000000000000000 5.00000000000000000
2 14.99999999999993427 -1763.00000000000000000 457.49999999999988631 1.00000000000000000 -0.00000000000000006 -0.00000000000000006 0.00000000000000006 1.00000000000000000 0.00000000000000006 0.00000000000000006 -0.00000000000000006 1.00000000000000000 5.00000000000000000
1 -0.00000000000040453 -1260.00000000000022737 141.05264146730874586 1.00000000000000000 -0.00000000000000038 0.00000000000000034 
1 -0.00000000000006211 -1260.00000000000000000 141.05264146730814900 -0.00000000000000006 -0.00000000000000006 -1.00000000000000000 
1 0.00000000000015743 -0.00000000000006494 1260.00000000000000000 -1.00000000000000000 -0.00000000000000006 0.00000000000000006 
1 -79.99999999999984368 -0.00000000000006938 1260.00000000000000000 0.00000000000000006 0.00000000000000006 -1.00000000000000000 
2 -39.99999999999982947 -0.00000000000005551 1050.00000000000000000 0.00000000000000006 -1.00000000000000000 -0.00000000000000006 0.00000000000000006 0.00000000000000006 -1.00000000000000000 1.00000000000000000 0.00000000000000006 0.00000000000000006 5.00000000000000000
2 -39.99999999999984368 -0.00000000000006494 1220.00000000000000000 0.00000000000000006 -1.00000000000000000 -0.00000000000000006 0.00000000000000006 0.00000000000000006 -1.00000000000000000 1.00000000000000000 0.00000000000000006 0.00000000000000006 5.00000000000000000
1 -0.00000000000072165 -1857.99999999999863576 530.00000000000079581 1.00000000000000000 -0.00000000000000038 0.00000000000000034 
1 -80.00000000000019895 -1260.00000000000000000 0.00000000000045833 -0.00000000000000022 0.00000000000000056 1.00000000000000000 
1 -79.99999999999985789 14.99999999999993427 1275.00000000000000000 0.00000000000000006 0.00000000000000006 -1.00000000000000000 
1 0.00000000000014643 14.99999999999993960 1275.00000000000000000 -1.00000000000000000 -0.00000000000000006 0.00000000000000006 
2 -39.99999999999984368 14.99999999999994849 1065.00000000000000000 0.00000000000000006 -1.00000000000000000 -0.00000000000000006 0.00000000000000006 0.00000000000000006 -1.00000000000000000 1.00000000000000000 0.00000000000000006 0.00000000000000006 5.00000000000000000
2 -39.99999999999985789 14.99999999999993960 1235.00000000000000000 0.00000000000000006 -1.00000000000000000 -0.00000000000000006 0.00000000000000006 0.00000000000000006 -1.00000000000000000 1.00000000000000000 0.00000000000000006 0.00000000000000006 5.00000000000000000
1 -0.00000000000056933 -1659.21839058501996078 280.00000000000062528 1.00000000000000000 -0.00000000000000038 0.00000000000000034 
1 -0.00000000000062450 -1857.99999999999886313 280.00000000000073896 1.00000000000000000 -0.00000000000000038 0.00000000000000034 
1 -0.00000000000041418 -1095.00000000000022737 283.75000000000051159 1.00000000000000000 -0.00000000000000038 0.00000000000000034 
1 -0.00000000000053051 -1514.10980544585868302 283.75000000000068212 1.00000000000000000 -0.00000000000000038 0.00000000000000034 
1 -0.00000000000057579 -1798.00000000000000000 329.97842888364993996 1.00000000000000000 -0.00000000000000022 0.00000000000000028 
1 -0.00000000000058911 -1798.00000000000000000 389.97842888364993996 1.00000000000000000 -0.00000000000000022 0.00000000000000028 
1 -0.00000000000063574 -1629.00000000000045475 472.50000000000073896 1.00000000000000000 -0.00000000000000038 0.00000000000000034 
1 -0.00000000000067155 -1758.00000000000045475 472.50000000000079581 1.00000000000000000 -0.00000000000000038 0.00000000000000034 
1 -40.00000000000012079 -1045.00000000000000000 0.00000000000039130 -0.00000000000000022 0.00000000000000056 1.00000000000000000 
1 -40.00000000000017053 -1215.00000000000000000 0.00000000000045666 -0.00000000000000022 0.00000000000000056 1.00000000000000000 
Polygon3D 0
PolygonOnTriangulations 0
Surfaces 23
1 -0.00000000000028034 -1010.00000000000034106 0.00000000000039246 -0.00000000000000050 -1.00000000000000000 0.00000000000000016 -0.00000000000000038 0.00000000000000016 1.00000000000000000 -1.00000000000000000 0.00000000000000050 -0.00000000000000038 
1 -0.00000000000034972 -1260.00000000000022737 0.00000000000048961 -0.00000000000000022 0.00000000000000050 1.00000000000000000 0.00000000000000028 1.00000000000000000 -0.00000000000000050 -1.00000000000000000 0.00000000000000028 -0.00000000000000022 
1 -0.00000000000040419 -1010.00000000000022737 318.75000000000017053 0.00000000000000005 -0.32870799479740709 -0.94443160374707280 -0.00000000000000039 -0.94443160374707280 0.32870799479740709 -1.00000000000000000 0.00000000000000035 -0.00000000000000018 
1 -80.00000000000011369 -1010.00000000000011369 0.00000000000036220 0.00000000000000028 1.00000000000000000 -0.00000000000000044 1.00000000000000000 -0.00000000000000028 0.00000000000000040 0.00000000000000040 -0.00000000000000044 -1.00000000000000000 
1 286.86941964372374514 -0.00000000000043933 -1410.71577261951324544 0.00000000000000028 1.00000000000000000 -0.00000000000000016 1.00000000000000000 -0.00000000000000028 0.00000000000000006 0.00000000000000006 -0.00000000000000016 -1.00000000000000000 
2 -0.00000000000041557 -1100.00000000000022737 283.75000000000051159 -1.00000000000000000 0.00000000000000016 -0.00000000000000050 0.00000000000000016 1.00000000000000000 -0.00000000000000038 -0.00000000000000050 0.00000000000000038 1.00000000000000000 5.00000000000000000
2 -0.00000000000053190 -1519.10980544585868302 283.75000000000068212 -1.00000000000000000 0.00000000000000016 -0.00000000000000050 0.00000000000000016 1.00000000000000000 -0.00000000000000038 -0.00000000000000050 0.00000000000000038 1.00000000000000000 5.00000000000000000
2 -0.00000000000057717 -1803.00000000000000000 329.97842888364993996 -1.00000000000000000 0.00000000000000028 -0.00000000000000022 0.00000000000000028 1.00000000000000000 0.00000000000000000 0.00000000000000022 -0.00000000000000000 -1.00000000000000000 5.00000000000000000
2 -0.00000000000059050 -1803.00000000000000000 389.97842888364993996 -1.00000000000000000 0.00000000000000028 -0.00000000000000022 0.00000000000000028 1.00000000000000000 0.00000000000000000 0.00000000000000022 -0.00000000000000000 -1.00000000000000000 5.00000000000000000
2 -0.00000000000063713 -1634.00000000000045475 472.50000000000073896 -1.00000000000000000 0.00000000000000016 -0.00000000000000050 0.00000000000000016 1.00000000000000000 -0.00000000000000038 -0.00000000000000050 0.00000000000000038 1.00000000000000000 5.00000000000000000
2 -0.00000000000067294 -1763.00000000000045475 472.50000000000079581 -1.00000000000000000 0.00000000000000016 -0.00000000000000050 0.00000000000000016 1.00000000000000000 -0.00000000000000038 -0.00000000000000050 0.00000000000000038 1.00000000000000000 5.00000000000000000
1 271.86941964372374514 14.99999999999956657 -1410.71577261951324544 0.00000000000000028 1.00000000000000000 -0.00000000000000016 1.00000000000000000 -0.00000000000000028 0.00000000000000006 0.00000000000000006 -0.00000000000000016 -1.00000000000000000 
1 -0.00000000000040453 -1260.00000000000022737 141.05264146730874586 0.00000000000000050 1.00000000000000000 -0.00000000000000016 0.00000000000000038 -0.00000000000000016 -1.00000000000000000 -1.00000000000000000 0.00000000000000050 -0.00000000000000038 
1 0.00000000000042812 -40.00000000000008527 -1135.00000000000000000 -1.00000000000000000 0.00000000000000022 -0.00000000000000050 0.00000000000000050 -0.00000000000000006 -1.00000000000000000 -0.00000000000000022 -1.00000000000000000 0.00000000000000006 
2 -40.00000000000012079 -1050.00000000000000000 0.00000000000039322 0.00000000000000028 -0.00000000000000050 -1.00000000000000000 0.00000000000000034 1.00000000000000000 -0.00000000000000050 1.00000000000000000 -0.00000000000000034 0.00000000000000028 5.00000000000000000
2 -40.00000000000018474 -1220.00000000000000000 0.00000000000045859 0.00000000000000028 -0.00000000000000050 -1.00000000000000000 0.00000000000000034 1.00000000000000000 -0.00000000000000050 1.00000000000000000 -0.00000000000000034 0.00000000000000028 5.00000000000000000
1 -0.00000000000065474 -1616.95565501695432431 530.00000000000068212 0.00000000000000022 -0.00000000000000050 -1.00000000000000000 -0.00000000000000028 -1.00000000000000000 0.00000000000000050 -1.00000000000000000 0.00000000000000028 -0.00000000000000022 
1 -80.00000000000019895 -1260.00000000000000000 0.00000000000045833 -1.00000000000000000 0.00000000000000022 -0.00000000000000034 0.00000000000000022 1.00000000000000000 -0.00000000000000038 0.00000000000000034 -0.00000000000000038 -1.00000000000000000 
1 15.00000000000043165 -40.00000000000009948 -1150.00000000000000000 -1.00000000000000000 0.00000000000000022 -0.00000000000000050 0.00000000000000050 -0.00000000000000006 -1.00000000000000000 -0.00000000000000022 -1.00000000000000000 0.00000000000000006 
1 -0.00000000000056933 -1659.21839058501996078 280.00000000000062528 -0.00000000000000005 0.32870799479740703 0.94443160374707280 0.00000000000000039 0.94443160374707280 -0.32870799479740703 -1.00000000000000000 0.00000000000000035 -0.00000000000000018 
1 -0.00000000000062450 -1857.99999999999886313 280.00000000000073896 -0.00000000000000022 0.00000000000000050 1.00000000000000000 0.00000000000000028 1.00000000000000000 -0.00000000000000050 -1.00000000000000000 0.00000000000000028 -0.00000000000000022 
1 -0.00000000000072165 -1857.99999999999863576 530.00000000000079581 0.00000000000000050 1.00000000000000000 -0.00000000000000016 0.00000000000000038 -0.00000000000000016 -1.00000000000000000 -1.00000000000000000 0.00000000000000050 -0.00000000000000038 
1 -0.00000000000019229 -1260.00000000000000000 0.00000000000048961 -0.00000000000000028 -1.00000000000000000 0.00000000000000044 -1.00000000000000000 0.00000000000000028 -0.00000000000000040 0.00000000000000040 -0.00000000000000044 -1.00000000000000000 
Triangulations 0

TShapes 161
Ve
0.000000100000867
0.000000000000265 -0.000000000000110 -1010.000000000000114
0 0

0101101
*
Ve
0.000000100000000
0.000000000000005 14.999999999999943 -1010.000000000000114
0 0

0101101
*
Ed
 0.000000100000000 1 1 0
1  1 0 0.000000000000000 15.000000000000000
0

0101000
+161 9 -160 9 *
Ve
0.000000100000000
318.749999999999716 -0.000000000000056 -1010.000000000000114
0 0

0101101
*
Ve
0.000000100000000
318.749999999999716 14.999999999999943 -1010.000000000000114
0 0

0101101
*
Ed
 0.000000100000000 1 1 0
1  2 0 0.000000000000000 15.000000000000000
0

0101000
+158 9 -157 9 *
Ve
0.000000100000245
15.000000000000005 0.000000000000167 -1010.000000000000114
0 0

0101101
*
Ed
 0.000000100000245 1 1 0
1  3 0 0.000000000000000 15.000000000000449
0

0101000
+161 14 -155 14 *
Ed
 0.000000100000000 1 1 0
1  4 0 15.000000000000449 318.749999999999716
0

0101000
+155 14 -158 14 *
Ed
 0.000000100000000 1 1 0
1  5 0 0.000000000000000 318.749999999999716
0

0101000
+160 17 -157 17 *
Wi

0101100
+159 7 -156 7 -154 13 -153 13 +152 16 *
Fa
0  0.000000100000000 1 7

0111000
+151 0 *
Ve
0.000000100000921
0.000000000000347 -0.000000000000172 -1260.000000000000000
0 0

0101101
*
Ve
0.000000100000000
0.000000000000005 14.999999999999931 -1260.000000000000000
0 0

0101101
*
Ed
 0.000000100000000 1 1 0
1  6 0 0.000000000000000 15.000000000000000
0

0101000
+149 9 -148 9 *
Ed
 0.000000100000786 1 1 0
1  7 0 0.000000000000000 249.999999999999886
0

0101000
+149 14 -161 14 *
Ed
 0.000000100000000 1 1 0
1  8 0 0.000000000000000 249.999999999999886
0

0101000
+148 17 -160 17 *
Wi

0101100
+147 7 -159 7 -146 13 +145 16 *
Fa
0  0.000000100000000 2 7

0111000
+144 0 *
Ve
0.000000100000000
530.000000000000000 -0.000000000000090 -1616.955655016954097
0 0

0101101
*
Ve
0.000000100000000
530.000000000000000 14.999999999999909 -1616.955655016954097
0 0

0101101
*
Ed
 0.000000100000000 1 1 0
1  9 0 0.000000000000000 15.000000000000000
0

0101000
+142 9 -141 9 *
Ed
 0.000000100000000 1 1 0
1  10 0 0.000000000000000 642.667666571969221
0

0101000
+158 14 -142 14 *
Ed
 0.000000100000000 1 1 0
1  11 0 0.000000000000000 642.667666571969221
0

0101000
+157 17 -141 17 *
Wi

0101100
+156 0 -140 0 -139 19 +138 20 *
Fa
0  0.000000100000000 3 0

0111000
+137 0 *
Ve
0.000000100000234
0.000000000000001 -79.999999999999829 -1010.000000000000114
0 0

0101101
*
Ve
0.000000100000234
15.000000000000002 -79.999999999999829 -1010.000000000000114
0 0

0101101
*
Ed
 0.000000100000234 1 1 0
1  12 0 0.000000000000000 15.000000000000000
0

0101000
+135 21 -134 21 *
Ed
 0.000000100000234 1 1 0
1  13 0 0.000000000000000 80.000000000000000
0

0101000
+135 25 -161 25 *
Ed
 0.000000100000234 1 1 0
1  14 0 0.000000000000000 80.000000000000000
0

0101000
+134 28 -155 28 *
Wi

0101100
+133 0 -154 13 -132 24 +131 27 *
Fa
0  0.000000100000234 4 0

0111000
+130 0 *
Ve
0.000000100000459
15.000000000000005 0.000000000000153 -1260.000000000000000
0 0

0101101
*
Ed
 0.000000100000234 1 1 0
1  15 0 0.000000000000000 249.999999999999886
0

0101000
+155 28 -128 28 *
Ve
0.000000100000000
141.052641467308206 -0.000000000000070 -1260.000000000000000
0 0

0101101
*
Ed
 0.000000100000000 1 1 0
1  16 0 0.000000000000000 126.052641467307652
0

0101000
+126 14 -128 14 *
Ve
0.000000100000000
279.999999999999943 -0.000000000000092 -1659.218390585019506
0 0

0101101
*
Ed
 0.000000100000000 1 1 0
1  17 0 0.000000000000000 422.707572471212757
0

0101000
+124 14 -126 14 *
Ve
0.000000100000000
530.000000000000000 -0.000000000000103 -1857.999999999998408
0 0

0101101
*
Ed
 0.000000100000000 1 1 0
1  18 0 0.000000000000000 241.044344983044311
0

0101000
+142 14 -122 14 *
Ve
0.000000100000000
279.999999999999943 -0.000000000000103 -1857.999999999998408
0 0

0101101
*
Ed
 0.000000100000000 1 1 0
1  19 0 0.000000000000000 198.781609414978902
0

0101000
+120 14 -124 14 *
Ed
 0.000000100000000 1 1 0
1  20 0 0.000000000000000 250.000000000000057
0

0101000
+122 14 -120 14 *
Wi

0101100
-127 30 +153 31 +125 31 +139 31 +123 31 +121 31 +119 31 +118 31 *
Ve
0.000000100000000
283.750000000000000 -0.000000000000061 -1095.000000000000000
0 0

0101101
*
Ed
 0.000000100000000 1 1 0
1  21 0 0.000000000000000 6.283185307179586
2  1 6 32 0.000000000000000 6.283185307179586
0

0101000
+116 14 -116 14 *
Wi

0101100
-115 31 *
Ve
0.000000100000000
283.750000000000000 -0.000000000000084 -1514.109805445858456
0 0

0101101
*
Ed
 0.000000100000000 1 1 0
1  22 0 0.000000000000000 6.283185307179586
2  2 7 32 0.000000000000000 6.283185307179586
0

0101000
+113 14 -113 14 *
Wi

0101100
-112 31 *
Ve
0.000000100000024
329.978428883649940 -0.000000000000576 -1798.000000000000000
0 0

0101101
*
Ed
 0.000000100000024 1 1 0
1  23 0 0.000000000000000 6.283185307179586
2  3 8 36 0.000000000000000 6.283185307179586
0

0101000
+110 37 -110 37 *
Wi

0101100
+109 35 *
Ve
0.000000100000021
389.978428883649940 -0.000000000000589 -1798.000000000000000
0 0

0101101
*
Ed
 0.000000100000021 1 1 0
1  24 0 0.000000000000000 6.283185307179586
2  4 9 36 0.000000000000000 6.283185307179586
0

0101000
+107 37 -107 37 *
Wi

0101100
+106 35 *
Ve
0.000000100000000
472.500000000000000 -0.000000000000090 -1629.000000000000000
0 0

0101101
*
Ed
 0.000000100000000 1 1 0
1  25 0 0.000000000000000 6.283185307179586
2  5 10 32 0.000000000000000 6.283185307179586
0

0101000
+104 14 -104 14 *
Wi

0101100
-103 31 *
Ve
0.000000100000000
472.500000000000000 -0.000000000000098 -1758.000000000000000
0 0

0101101
*
Ed
 0.000000100000000 1 1 0
1  26 0 0.000000000000000 6.283185307179586
2  6 11 32 0.000000000000000 6.283185307179586
0

0101000
+101 14 -101 14 *
Wi

0101100
-100 31 *
Fa
0  0.000000100000000 5 29

0111000
+117 0 +114 0 +111 0 +108 0 +105 0 +102 0 +99 0 *
Ve
0.000000100000000
141.052641467308206 14.999999999999931 -1260.000000000000000
0 0

0101101
*
Ed
 0.000000100000000 1 1 0
1  27 0 0.000000000000000 141.052641467308206
0

0101000
+97 17 -148 17 *
Ve
0.000000100000000
530.000000000000000 14.999999999999897 -1857.999999999998408
0 0

0101101
*
Ed
 0.000000100000000 1 1 0
1  28 0 0.000000000000000 241.044344983044311
0

0101000
+141 17 -95 17 *
Ve
0.000000100000000
279.999999999999943 14.999999999999908 -1659.218390585019506
0 0

0101101
*
Ed
 0.000000100000000 1 1 0
1  29 0 0.000000000000000 422.707572471212757
0

0101000
+93 17 -97 17 *
Ve
0.000000100000000
279.999999999999943 14.999999999999897 -1857.999999999998408
0 0

0101101
*
Ed
 0.000000100000000 1 1 0
1  30 0 0.000000000000000 250.000000000000057
0

0101000
+95 17 -91 17 *
Ed
 0.000000100000000 1 1 0
1  31 0 0.000000000000000 198.781609414978902
0

0101000
+91 17 -93 17 *
Wi

0101100
+152 39 +145 39 +138 39 +96 39 +94 39 +92 39 +90 39 +89 39 *
Ve
0.000000100000000
283.750000000000000 14.999999999999940 -1095.000000000000000
0 0

0101101
*
Ed
 0.000000100000000 1 1 0
1  32 0 0.000000000000000 6.283185307179586
2  7 6 40 0.000000000000000 6.283185307179586
0

0101000
+87 17 -87 17 *
Wi

0101100
-86 39 *
Ve
0.000000100000000
283.750000000000000 14.999999999999917 -1514.109805445858456
0 0

0101101
*
Ed
 0.000000100000000 1 1 0
1  33 0 0.000000000000000 6.283185307179586
2  8 7 40 0.000000000000000 6.283185307179586
0

0101000
+84 17 -84 17 *
Wi

0101100
-83 39 *
Ve
0.000000100000042
329.978428883649940 14.999999999999430 -1798.000000000000000
0 0

0101101
*
Ed
 0.000000100000024 1 1 0
1  34 0 0.000000000000000 6.283185307179586
2  9 8 0 0.000000000000000 6.283185307179586
0

0101000
+81 41 -81 41 *
Wi

0101100
+80 0 *
Ve
0.000000100000039
389.978428883649940 14.999999999999416 -1798.000000000000000
0 0

0101101
*
Ed
 0.000000100000021 1 1 0
1  35 0 0.000000000000000 6.283185307179586
2  10 9 0 0.000000000000000 6.283185307179586
0

0101000
+78 41 -78 41 *
Wi

0101100
+77 0 *
Ve
0.000000100000000
472.500000000000000 14.999999999999909 -1629.000000000000000
0 0

0101101
*
Ed
 0.000000100000000 1 1 0
1  36 0 0.000000000000000 6.283185307179586
2  11 10 40 0.000000000000000 6.283185307179586
0

0101000
+75 17 -75 17 *
Wi

0101100
-74 39 *
Ve
0.000000100000000
472.500000000000000 14.999999999999902 -1758.000000000000000
0 0

0101101
*
Ed
 0.000000100000000 1 1 0
1  37 0 0.000000000000000 6.283185307179586
2  12 11 40 0.000000000000000 6.283185307179586
0

0101000
+72 17 -72 17 *
Wi

0101100
-71 39 *
Fa
0  0.000000100000000 12 38

0111000
+88 0 +85 0 +82 0 +79 0 +76 0 +73 0 +70 0 *
Ed
 0.000000100000000 1 1 0
1  38 0 0.000000000000000 15.000000000000000
0

0101000
+126 9 -97 9 *
Ed
 0.000000100000459 1 1 0
1  39 0 126.052641467307652 141.052641467308206
0

0101000
+128 14 -149 14 *
Wi

0101100
+68 7 -147 7 -125 13 -67 13 +96 16 *
Fa
0  0.000000100000000 13 7

0111000
+66 0 *
Ve
0.000000100000234
0.000000000000001 -79.999999999999844 -1260.000000000000000
0 0

0101101
*
Ed
 0.000000100000234 1 1 0
1  40 0 0.000000000000000 80.000000000000000
0

0101000
+149 25 -64 25 *
Ed
 0.000000100000234 1 1 0
1  41 0 0.000000000000000 249.999999999999886
0

0101000
+64 25 -135 25 *
Wi

0101100
-146 13 +63 24 +62 24 +132 24 *
Ve
0.000000100000234
0.000000000000003 -39.999999999999829 -1045.000000000000000
0 0

0101101
*
Ed
 0.000000100000234 1 1 0
1  42 0 0.000000000000000 6.283185307179586
2  13 15 45 0.000000000000000 6.283185307179586
0

0101000
+60 25 -60 25 *
Wi

0101100
-59 24 *
Ve
0.000000100000234
0.000000000000003 -39.999999999999837 -1215.000000000000000
0 0

0101101
*
Ed
 0.000000100000234 1 1 0
1  43 0 0.000000000000000 6.283185307179586
2  14 16 45 0.000000000000000 6.283185307179586
0

0101000
+57 25 -57 25 *
Wi

0101100
-56 24 *
Fa
0  0.000000100000234 14 44

0111000
+61 0 +58 0 +55 0 *
Ed
 0.000000100000000 1 1 0
1  44 0 0.000000000000000 15.000000000000000
0

0101000
+122 9 -95 9 *
Wi

0101100
+140 0 -53 0 -121 19 +94 20 *
Fa
0  0.000000100000000 17 0

0111000
+52 0 *
Ve
0.000000100000234
15.000000000000002 -79.999999999999844 -1260.000000000000000
0 0

0101101
*
Ed
 0.000000100000234 1 1 0
1  45 0 0.000000000000000 15.000000000000000
0

0101000
+64 21 -50 21 *
Ed
 0.000000100000234 1 1 0
1  46 0 0.000000000000000 249.999999999999886
0

0101000
+50 28 -134 28 *
Wi

0101100
+49 0 -133 0 -62 24 +48 27 *
Fa
0  0.000000100000234 18 0

0111000
+47 0 *
Ed
 0.000000100000234 1 1 0
1  47 0 0.000000000000000 80.000000000000000
0

0101000
+128 28 -50 28 *
Wi

0101100
+127 48 +45 48 +48 48 +131 48 *
Ve
0.000000100000234
15.000000000000004 -39.999999999999837 -1045.000000000000000
0 0

0101101
*
Ed
 0.000000100000234 1 1 0
1  48 0 0.000000000000000 6.283185307179586
2  15 15 49 0.000000000000000 6.283185307179586
0

0101000
+43 28 -43 28 *
Wi

0101100
-42 48 *
Ve
0.000000100000234
15.000000000000004 -39.999999999999844 -1215.000000000000000
0 0

0101101
*
Ed
 0.000000100000234 1 1 0
1  49 0 0.000000000000000 6.283185307179586
2  16 16 49 0.000000000000000 6.283185307179586
0

0101000
+40 28 -40 28 *
Wi

0101100
-39 48 *
Fa
0  0.000000100000234 19 47

0111000
+44 0 +41 0 +38 0 *
Ed
 0.000000100000000 1 1 0
1  50 0 0.000000000000000 15.000000000000000
0

0101000
+124 9 -93 9 *
Wi

0101100
+36 0 -68 0 -123 19 +92 20 *
Fa
0  0.000000100000000 20 0

0111000
+35 0 *
Ed
 0.000000100000000 1 1 0
1  51 0 0.000000000000000 15.000000000000000
0

0101000
+120 9 -91 9 *
Wi

0101100
+33 0 -36 0 -119 19 +89 20 *
Fa
0  0.000000100000000 21 0

0111000
+32 0 *
Wi

0101100
+53 0 -33 0 -118 19 +90 20 *
Fa
0  0.000000100000000 22 0

0111000
+30 0 *
Ed
 0.000000100000000 1 1 0
1  52 0 0.000000000000000 15.000000000000000
3  17 18CN 6 0 0.000000000000000 15.000000000000000
0

0101000
+116 9 -87 9 *
Wi

0101100
+28 0 -28 0 -115 19 +86 20 *
Fa
0  0.000000100000000 6 0

0111000
+27 0 *
Ed
 0.000000100000000 1 1 0
1  53 0 0.000000000000000 15.000000000000000
3  19 20CN 7 0 0.000000000000000 15.000000000000000
0

0101000
+113 9 -84 9 *
Wi

0101100
+25 0 -25 0 -112 19 +83 20 *
Fa
0  0.000000100000000 7 0

0111000
+24 0 *
Ed
 0.000000100000024 1 1 0
1  54 0 0.000000000000000 15.000000000000005
3  21 22CN 8 0 0.000000000000000 15.000000000000005
0

0101000
+110 41 -81 41 *
Wi

0101100
-109 35 -22 0 +80 0 +22 0 *
Fa
0  0.000000100000024 8 0

0111000
+21 0 *
Ed
 0.000000100000021 1 1 0
1  55 0 0.000000000000000 15.000000000000005
3  23 24CN 9 0 0.000000000000000 15.000000000000005
0

0101000
+107 41 -78 41 *
Wi

0101100
-106 35 -19 0 +77 0 +19 0 *
Fa
0  0.000000100000021 9 0

0111000
+18 0 *
Ed
 0.000000100000000 1 1 0
1  56 0 0.000000000000000 15.000000000000000
3  25 26CN 10 0 0.000000000000000 15.000000000000000
0

0101000
+104 9 -75 9 *
Wi

0101100
+16 0 -16 0 -103 19 +74 20 *
Fa
0  0.000000100000000 10 0

0111000
+15 0 *
Ed
 0.000000100000000 1 1 0
1  57 0 0.000000000000000 15.000000000000000
3  27 28CN 11 0 0.000000000000000 15.000000000000000
0

0101000
+101 9 -72 9 *
Wi

0101100
+13 0 -13 0 -100 19 +71 20 *
Fa
0  0.000000100000000 11 0

0111000
+12 0 *
Wi

0101100
-67 13 -49 0 -63 24 +45 27 *
Fa
0  0.000000100000234 23 0

0111000
+10 0 *
Ed
 0.000000100000234 1 1 0
1  58 0 0.000000000000000 15.000000000000000
3  29 30CN 15 0 0.000000000000000 15.000000000000000
0

0101000
+60 21 -43 21 *
Wi

0101100
+8 0 -8 0 -59 24 +42 27 *
Fa
0  0.000000100000234 15 0

0111000
+7 0 *
Ed
 0.000000100000234 1 1 0
1  59 0 0.000000000000000 15.000000000000000
3  31 32CN 16 0 0.000000000000000 15.000000000000000
0

0101000
+57 21 -40 21 *
Wi

0101100
+5 0 -5 0 -56 24 +39 27 *
Fa
0  0.000000100000234 16 0

0111000
+4 0 *
Sh

0101100
-150 4 -143 4 -136 18 +129 4 -98 0 +69 0 -65 4 +54 4 -51 18 +46 4 
-37 46 -34 18 -31 18 -29 18 +26 18 +23 18 -20 0 -17 0 +14 18 +11 18 
+9 4 -6 4 -3 4 *
So

0100000
+2 0 *

+1 1 