
CASCADE Topology V1, (c) Matra-Datavision
Locations 44
1
1.000000000000000 0.000000000000000 0.000000000000000 0.000000000000000 
0.000000000000000 0.000000000000000 -1.000000000000000 0.000000000000000 
0.000000000000000 1.000000000000000 0.000000000000000 0.000000000000000 
1
1.000000000000000 0.000000000000000 0.000000000000000 0.000000000000000 
0.000000000000000 -0.000000000000000 -1.000000000000000 0.000000000000000 
0.000000000000000 1.000000000000000 -0.000000000000000 0.000000000000000 
1
1.000000000000000 0.000000000000000 0.000000000000000 0.000000000000000 
0.000000000000000 -0.000000000000000 -1.000000000000000 0.000000000000000 
0.000000000000000 1.000000000000000 -0.000000000000000 0.000000000000000 
1
1.000000000000000 0.000000000000000 0.000000000000000 0.000000000000000 
0.000000000000000 -0.000000000000000 -1.000000000000000 0.000000000000000 
0.000000000000000 1.000000000000000 -0.000000000000000 0.000000000000000 
1
1.000000000000000 0.000000000000000 0.000000000000000 0.000000000000000 
0.000000000000000 -0.000000000000000 -1.000000000000000 0.000000000000000 
0.000000000000000 1.000000000000000 -0.000000000000000 0.000000000000000 
2  2 1 3 -1 4 1 5 -1 0
1
1.000000000000000 0.000000000000000 0.000000000000000 0.000000000000000 
0.000000000000000 1.000000000000000 0.000000000000000 0.000000000000000 
0.000000000000000 0.000000000000000 1.000000000000000 0.000000000000000 
1
1.000000000000000 0.000000000000000 0.000000000000000 0.000000000000000 
0.000000000000000 -0.000000000000000 -1.000000000000000 0.000000000000000 
0.000000000000000 1.000000000000000 -0.000000000000000 0.000000000000000 
1
1.000000000000000 0.000000000000000 0.000000000000000 0.000000000000000 
0.000000000000000 -0.000000000000000 -1.000000000000000 0.000000000000000 
0.000000000000000 1.000000000000000 -0.000000000000000 0.000000000000000 
2  7 1 8 1 9 -1 0
1
1.000000000000000 0.000000000000000 0.000000000000000 -0.000000000000000 
0.000000000000000 1.000000000000000 0.000000000000000 -0.000000000000000 
0.000000000000000 0.000000000000000 1.000000000000000 -15.000000000000000 
2  7 1 8 1 9 -1 11 1 0
2  8 -1 7 -1 0
2  4 1 5 -1 0
2  9 -1 2 1 3 -1 0
2  7 1 8 1 9 -1 2 1 3 -1 0
2  9 1 8 -1 7 -1 0
2  11 -1 9 1 8 -1 7 -1 0
1
1.000000000000000 0.000000000000000 0.000000000000000 0.000000000000000 
0.000000000000000 1.000000000000000 0.000000000000000 0.000000000000000 
0.000000000000000 0.000000000000000 1.000000000000000 0.000000000000000 
1
1.000000000000000 0.000000000000000 -0.000000000000000 -0.000000000000000 
-0.000000000000000 0.000000000000000 -1.000000000000000 -0.000000000000000 
-0.000000000000000 1.000000000000000 0.000000000000000 -0.000000000000000 
2  19 1 20 1 2 -1 9 1 8 -1 7 -1 0
2  19 1 20 1 3 -1 0
2  3 1 20 -1 19 -1 0
1
1.000000000000000 0.000000000000000 0.000000000000000 -0.000000000000000 
0.000000000000000 1.000000000000000 0.000000000000000 0.000000000000000 
0.000000000000000 0.000000000000000 1.000000000000000 80.000000000000000 
2  24 -1 3 1 20 -1 19 -1 0
2  20 -1 19 -1 0
2  9 -1 2 1 20 -1 19 -1 0
2  9 -1 11 1 2 1 3 -1 4 1 5 -1 0
2  7 1 8 1 0
2  2 1 3 -1 0
2  7 1 8 1 9 -1 11 1 2 1 3 -1 0
2  19 1 20 1 3 -1 24 1 0
2  19 1 20 1 3 -1 4 1 5 -1 0
2  19 1 20 1 3 -1 24 1 4 1 5 -1 0
1
1.000000000000000 0.000000000000000 0.000000000000000 0.000000000000000 
0.000000000000000 1.000000000000000 0.000000000000000 0.000000000000000 
0.000000000000000 0.000000000000000 1.000000000000000 0.000000000000000 
1
-0.000000000000000 0.000000000000000 -1.000000000000000 3095.000000000000000 
0.000000000000000 -1.000000000000000 0.000000000000000 -0.000000000000000 
-1.000000000000000 0.000000000000000 0.000000000000000 -0.000000000000000 
2  35 1 36 1 5 -1 0
2  5 1 36 -1 35 -1 0
1
1.000000000000000 0.000000000000000 0.000000000000000 6656.189097170577952 
0.000000000000000 1.000000000000000 0.000000000000000 -0.000000000001478 
0.000000000000000 0.000000000000000 1.000000000000000 0.000000000000000 
2  39 -1 5 1 36 -1 35 -1 0
2  36 -1 35 -1 0
2  4 1 36 -1 35 -1 0
2  3 -1 24 1 4 1 5 -1 0
2  19 1 20 1 0
Curve2ds 96
1 -560.36748769641872059 571.32247601598737674 0.55582821424383277 -0.83129717685705629 
1 0.00000000000000000 0.00000000000000000 0.00000000000000000 -1.00000000000000000 
1 -560.36748769641872059 571.32247601598737674 0.00000000000000000 1.00000000000000000 
1 0.00000000000000000 0.00000000000000000 0.00000000000000000 -1.00000000000000000 
1 348.96601230358101020 -788.67752398389256996 0.00000000000000000 -1.00000000000000000 
1 -560.36748769641872059 1547.35763721911780522 1.00000000000000000 -0.00000000000000000 
1 0.00000000000000000 0.00000000000000000 1.00000000000000000 0.00000000000000000 
1 0.00000000000000000 -15.00000000000000000 1.00000000000000000 0.00000000000000000 
1 0.00000000000000000 0.00000000000000000 1.00000000000000000 0.00000000000000000 
1 -0.00000000000000000 -80.00000000000000000 1.00000000000000000 0.00000000000000000 
1 -69.99999999999909051 7.50000000000000000 0.00000000000000000 -1.00000000000000000 
1 -480.36748769641872059 1547.35763721911780522 -0.00000000000000000 -1.00000000000000000 
1 -69.99999999999909051 -7.50000000000000000 1.00000000000000000 0.00000000000000000 
1 0.00000000000000000 0.00000000000000000 1.00000000000000000 0.00000000000000000 
1 0.00000000000000000 -80.00000000000000000 1.00000000000000000 0.00000000000000000 
1 -480.36748769641872059 1532.35763721911780522 1.00000000000000000 -0.00000000000000000 
1 0.00000000000000000 0.00000000000000000 1.00000000000000000 0.00000000000000000 
1 0.00000000000000000 -80.00000000000000000 1.00000000000000000 0.00000000000000000 
1 70.00000000000090949 -7.50000000000000000 0.00000000000000000 1.00000000000000000 
1 -340.36748769641872059 1532.35763721911780522 0.00000000000000000 1.00000000000000000 
1 -310.36748769641872059 1547.35763721911780522 0.00000000000000000 -1.00000000000000000 
1 598.96601230358101020 -712.79849390786193908 -0.55582821424383255 0.83129717685705640 
1 598.96601230358101020 -1535.64236278088219478 0.00000000000000000 1.00000000000000000 
1 348.96601230358101020 -1535.64236278088219478 1.00000000000000000 -0.00000000000000000 
1 0.00000000000000000 0.00000000000000000 1.00000000000000000 0.00000000000000000 
1 0.00000000000000000 -15.00000000000000000 1.00000000000000000 0.00000000000000000 
1 0.00000000000000000 0.00000000000000000 1.00000000000000000 0.00000000000000000 
1 0.00000000000000000 -15.00000000000000000 1.00000000000000000 0.00000000000000000 
2 202.09931230358142784 -433.64236278088219478 0.00000000000000000 1.00000000000000000 -1.00000000000000000 0.00000000000000000 5.00000000000000000
1 0.00000000000000000 0.00000000000000000 1.00000000000000000 0.00000000000000000 
1 0.00000000000000000 -15.00000000000000000 1.00000000000000000 0.00000000000000000 
2 202.09931230358142784 -281.64236278088219478 0.00000000000000000 1.00000000000000000 -1.00000000000000000 0.00000000000000000 5.00000000000000000
1 0.00000000000000000 0.00000000000000000 1.00000000000000000 0.00000000000000000 
1 0.00000000000000000 -15.00000000000000000 1.00000000000000000 0.00000000000000000 
2 20.23261230358093599 -161.64236278088219478 0.00000000000000000 1.00000000000000000 -1.00000000000000000 0.00000000000000000 5.00000000000000000
1 0.00000000000000000 0.00000000000000000 1.00000000000000000 0.00000000000000000 
1 0.00000000000000000 -15.00000000000000000 1.00000000000000000 0.00000000000000000 
2 20.23261230358093599 -9.64236278088219478 0.00000000000000000 1.00000000000000000 -1.00000000000000000 0.00000000000000000 5.00000000000000000
1 0.00000000000000000 0.00000000000000000 1.00000000000000000 0.00000000000000000 
1 0.00000000000000000 -15.00000000000000000 1.00000000000000000 0.00000000000000000 
2 -161.63408769641864637 110.35763721911780522 0.00000000000000000 1.00000000000000000 -1.00000000000000000 0.00000000000000000 5.00000000000000000
1 0.00000000000000000 0.00000000000000000 1.00000000000000000 0.00000000000000000 
1 0.00000000000000000 -15.00000000000000000 1.00000000000000000 0.00000000000000000 
2 -161.63408769641864637 262.35763721911780522 0.00000000000000000 1.00000000000000000 -1.00000000000000000 0.00000000000000000 5.00000000000000000
1 0.00000000000000000 0.00000000000000000 1.00000000000000000 0.00000000000000000 
1 0.00000000000000000 -15.00000000000000000 1.00000000000000000 0.00000000000000000 
2 -343.50078769641822873 382.35763721911780522 0.00000000000000000 1.00000000000000000 -1.00000000000000000 0.00000000000000000 5.00000000000000000
1 0.00000000000000000 0.00000000000000000 1.00000000000000000 0.00000000000000000 
1 0.00000000000000000 -15.00000000000000000 1.00000000000000000 0.00000000000000000 
2 -343.50078769641822873 534.35763721911780522 0.00000000000000000 1.00000000000000000 -1.00000000000000000 0.00000000000000000 5.00000000000000000
1 250.00000000000000000 0.00000000000000000 0.00000000000000000 -1.00000000000000000 
1 0.00000000000000000 0.00000000000000000 1.00000000000000000 0.00000000000000000 
1 0.00000000000000000 -80.00000000000000000 1.00000000000000000 0.00000000000000000 
1 70.00000000000090949 7.50000000000000000 -1.00000000000000000 0.00000000000000000 
1 -340.36748769641872059 1547.35763721911780522 -1.00000000000000000 0.00000000000000000 
1 250.00000000000000000 0.00000000000000000 0.00000000000000000 -1.00000000000000000 
1 0.00000000000000000 0.00000000000000000 0.00000000000000000 -1.00000000000000000 
1 140.00000000000000000 0.00000000000000000 0.00000000000000000 -1.00000000000000000 
1 15.00000000000000000 0.00000000000000000 0.00000000000000000 -1.00000000000000000 
1 0.00000000000000000 0.00000000000000000 0.00000000000000000 -1.00000000000000000 
1 0.00000000000000000 0.00000000000000000 0.00000000000000000 -1.00000000000000000 
1 140.00000000000000000 0.00000000000000000 0.00000000000000000 -1.00000000000000000 
1 0.00000000000000000 0.00000000000000000 1.00000000000000000 0.00000000000000000 
1 0.00000000000000000 -6656.18909717057795206 1.00000000000000000 0.00000000000000000 
2 -0.00000000000090949 0.00000000000000000 1.00000000000000000 -0.00000000000000022 0.00000000000000022 1.00000000000000000 5.00000000000000000
2 40.00000000000000000 -40.00000000000000000 1.00000000000000000 -0.00000000000000000 -0.00000000000000000 -1.00000000000000000 5.00000000000000000
1 0.00000000000000000 0.00000000000000000 1.00000000000000000 0.00000000000000000 
1 0.00000000000000000 -6656.18909717057795206 1.00000000000000000 0.00000000000000000 
2 0.00000000000000000 0.00000000000000000 1.00000000000000000 -0.00000000000000022 0.00000000000000022 1.00000000000000000 5.00000000000000000
2 100.00000000000000000 -40.00000000000000000 1.00000000000000000 -0.00000000000000000 -0.00000000000000000 -1.00000000000000000 5.00000000000000000
1 15.00000000000000000 0.00000000000000000 0.00000000000000000 -1.00000000000000000 
1 0.00000000000000000 0.00000000000000000 0.00000000000000000 -1.00000000000000000 
1 0.00000000000000000 0.00000000000000000 0.00000000000000000 -1.00000000000000000 
1 6.28318530717958623 0.00000000000000000 0.00000000000000000 -1.00000000000000000 
1 0.00000000000000000 0.00000000000000000 0.00000000000000000 -1.00000000000000000 
1 6.28318530717958623 0.00000000000000000 0.00000000000000000 -1.00000000000000000 
1 0.00000000000000000 0.00000000000000000 0.00000000000000000 -1.00000000000000000 
1 6.28318530717958623 0.00000000000000000 0.00000000000000000 -1.00000000000000000 
1 0.00000000000000000 0.00000000000000000 0.00000000000000000 -1.00000000000000000 
1 6.28318530717958623 0.00000000000000000 0.00000000000000000 -1.00000000000000000 
1 0.00000000000000000 0.00000000000000000 0.00000000000000000 -1.00000000000000000 
1 6.28318530717958623 0.00000000000000000 0.00000000000000000 -1.00000000000000000 
1 0.00000000000000000 0.00000000000000000 0.00000000000000000 -1.00000000000000000 
1 6.28318530717958623 0.00000000000000000 0.00000000000000000 -1.00000000000000000 
1 0.00000000000000000 0.00000000000000000 0.00000000000000000 -1.00000000000000000 
1 6.28318530717958623 0.00000000000000000 0.00000000000000000 -1.00000000000000000 
1 0.00000000000000000 0.00000000000000000 0.00000000000000000 -1.00000000000000000 
1 6.28318530717958623 0.00000000000000000 0.00000000000000000 -1.00000000000000000 
2 40.00000000000000000 -40.00000000000000000 -1.00000000000000000 -0.00000000000000000 0.00000000000000000 -1.00000000000000000 5.00000000000000000
1 0.00000000000000000 -14.99999999999863576 1.00000000000000000 0.00000000000000000 
2 100.00000000000000000 -40.00000000000000000 -1.00000000000000000 -0.00000000000000000 0.00000000000000000 -1.00000000000000000 5.00000000000000000
1 0.00000000000000000 -14.99999999999863576 1.00000000000000000 0.00000000000000000 
1 0.00000000000000000 0.00000000000000000 0.00000000000000000 -1.00000000000000000 
1 6.28318530717958623 0.00000000000000000 0.00000000000000000 -1.00000000000000000 
1 0.00000000000000000 0.00000000000000000 0.00000000000000000 -1.00000000000000000 
1 6.28318530717958623 0.00000000000000000 0.00000000000000000 -1.00000000000000000 
Curves 46
1 2133.96483879686957152 5872.00050000000010186 0.00000000000000000 -0.00000000000000000 -0.00000000000000000 -1.00000000000000000 
1 773.96483879698962483 4962.66700000000037107 0.00000000000000000 -0.00000000000000000 -0.00000000000000000 -1.00000000000000000 
1 2133.96483879686957152 5872.00050000000010186 0.00000000000000000 -0.83129717685705629 -0.55582821424383277 0.00000000000000000 
1 3110.00000000000000000 5872.00050000000010186 0.00000000000000000 -0.00000000000000000 -0.00000000000000000 -1.00000000000000000 
1 2133.96483879686957152 5872.00050000000010186 0.00000000000000000 1.00000000000000000 0.00000000000000000 0.00000000000000000 
1 27.00000000000000000 4962.66700000000037107 0.00000000000000000 -0.00000000000000000 -0.00000000000000000 -1.00000000000000000 
1 773.96483879698962483 4962.66700000000037107 0.00000000000000000 -1.00000000000000000 0.00000000000000000 0.00000000000000000 
1 3110.00000000000000000 5872.00050000000010186 0.00000000000000000 0.00000000000000000 -1.00000000000000000 0.00000000000000000 
1 3110.00000000000000000 5792.00050000000010186 0.00000000000000000 -1.00000000000000000 0.00000000000000000 0.00000000000000000 
1 3095.00000000000000000 5792.00050000000010186 0.00000000000000000 0.00000000000000000 -1.00000000000000000 0.00000000000000000 
1 3095.00000000000000000 5652.00050000000010186 0.00000000000000000 1.00000000000000000 0.00000000000000000 0.00000000000000000 
1 3110.00000000000000000 5622.00050000000010186 0.00000000000000000 -1.00000000000000000 0.00000000000000000 0.00000000000000000 
1 849.84386887302025571 4712.66700000000037107 0.00000000000000000 0.83129717685705640 0.55582821424383255 0.00000000000000000 
1 27.00000000000000000 4712.66700000000037107 0.00000000000000000 1.00000000000000000 0.00000000000000000 0.00000000000000000 
1 27.00000000000000000 4962.66700000000037107 0.00000000000000000 0.00000000000000000 -1.00000000000000000 0.00000000000000000 
2 1129.00000000000000000 5109.53369999999995343 0.00000000000000000 0.00000000000000000 0.00000000000000000 1.00000000000000000 1.00000000000000000 0.00000000000000000 -0.00000000000000000 -0.00000000000000000 1.00000000000000000 0.00000000000000000 5.00000000000000000
2 1281.00000000000000000 5109.53369999999995343 0.00000000000000000 0.00000000000000000 0.00000000000000000 1.00000000000000000 1.00000000000000000 0.00000000000000000 -0.00000000000000000 -0.00000000000000000 1.00000000000000000 0.00000000000000000 5.00000000000000000
2 1401.00000000000000000 5291.40040000000044529 0.00000000000000000 0.00000000000000000 0.00000000000000000 1.00000000000000000 1.00000000000000000 0.00000000000000000 -0.00000000000000000 -0.00000000000000000 1.00000000000000000 0.00000000000000000 5.00000000000000000
2 1553.00000000000000000 5291.40040000000044529 0.00000000000000000 0.00000000000000000 0.00000000000000000 1.00000000000000000 1.00000000000000000 0.00000000000000000 -0.00000000000000000 -0.00000000000000000 1.00000000000000000 0.00000000000000000 5.00000000000000000
2 1673.00000000000000000 5473.26710000000002765 0.00000000000000000 0.00000000000000000 0.00000000000000000 1.00000000000000000 1.00000000000000000 0.00000000000000000 -0.00000000000000000 -0.00000000000000000 1.00000000000000000 0.00000000000000000 5.00000000000000000
2 1825.00000000000000000 5473.26710000000002765 0.00000000000000000 0.00000000000000000 0.00000000000000000 1.00000000000000000 1.00000000000000000 0.00000000000000000 -0.00000000000000000 -0.00000000000000000 1.00000000000000000 0.00000000000000000 5.00000000000000000
2 1945.00000000000000000 5655.13379999999961001 0.00000000000000000 0.00000000000000000 0.00000000000000000 1.00000000000000000 1.00000000000000000 0.00000000000000000 -0.00000000000000000 -0.00000000000000000 1.00000000000000000 0.00000000000000000 5.00000000000000000
2 2097.00000000000000000 5655.13379999999961001 0.00000000000000000 0.00000000000000000 0.00000000000000000 1.00000000000000000 1.00000000000000000 0.00000000000000000 -0.00000000000000000 -0.00000000000000000 1.00000000000000000 0.00000000000000000 5.00000000000000000
1 3110.00000000000000000 5622.00050000000010186 0.00000000000000000 -0.00000000000000000 -0.00000000000000000 -1.00000000000000000 
1 3110.00000000000000000 5652.00050000000010186 0.00000000000000000 0.00000000000000000 1.00000000000000000 0.00000000000000000 
1 27.00000000000000000 4712.66700000000037107 0.00000000000000000 -0.00000000000000000 -0.00000000000000000 -1.00000000000000000 
1 3110.00000000000000000 5792.00050000000010186 0.00000000000000000 -0.00000000000000000 0.00000000000000000 1.00000000000000000 
1 3095.00000000000000000 5792.00050000000010186 0.00000000000000000 -0.00000000000000000 0.00000000000000000 1.00000000000000000 
1 3095.00000000000000000 5652.00050000000010186 0.00000000000000000 -0.00000000000000000 0.00000000000000000 1.00000000000000000 
2 -5752.00050000000010186 40.00000000000000000 0.00000000000000000 0.00000000000000000 0.00000000000000000 1.00000000000000000 1.00000000000000000 0.00000000000000000 -0.00000000000000000 -0.00000000000000000 1.00000000000000000 0.00000000000000000 5.00000000000000000
2 -5692.00050000000010186 40.00000000000000000 0.00000000000000000 0.00000000000000000 0.00000000000000000 1.00000000000000000 1.00000000000000000 0.00000000000000000 -0.00000000000000000 -0.00000000000000000 1.00000000000000000 0.00000000000000000 5.00000000000000000
1 3110.00000000000000000 5652.00050000000010186 0.00000000000000000 -0.00000000000000000 0.00000000000000000 1.00000000000000000 
1 2209.84386887290065715 5622.00050000000010186 0.00000000000000000 -0.00000000000000000 -0.00000000000000000 -1.00000000000000000 
1 849.84386887302025571 4712.66700000000037107 0.00000000000000000 -0.00000000000000000 -0.00000000000000000 -1.00000000000000000 
1 1134.00000000000000000 5109.53369999999995343 0.00000000000000000 -0.00000000000000000 -0.00000000000000000 -1.00000000000000000 
1 1286.00000000000000000 5109.53369999999995343 0.00000000000000000 -0.00000000000000000 -0.00000000000000000 -1.00000000000000000 
1 1406.00000000000000000 5291.40040000000044529 0.00000000000000000 -0.00000000000000000 -0.00000000000000000 -1.00000000000000000 
1 1558.00000000000000000 5291.40040000000044529 0.00000000000000000 -0.00000000000000000 -0.00000000000000000 -1.00000000000000000 
1 1678.00000000000000000 5473.26710000000002765 0.00000000000000000 -0.00000000000000000 -0.00000000000000000 -1.00000000000000000 
1 1830.00000000000000000 5473.26710000000002765 0.00000000000000000 -0.00000000000000000 -0.00000000000000000 -1.00000000000000000 
1 1950.00000000000000000 5655.13379999999961001 0.00000000000000000 -0.00000000000000000 -0.00000000000000000 -1.00000000000000000 
1 2102.00000000000000000 5655.13379999999961001 0.00000000000000000 -0.00000000000000000 -0.00000000000000000 -1.00000000000000000 
2 3110.00000000000000000 5692.00050000000010186 40.00000000000000000 -1.00000000000000000 0.00000000000000022 -0.00000000000000000 -0.00000000000000022 -1.00000000000000000 0.00000000000000000 0.00000000000000000 0.00000000000000000 1.00000000000000000 5.00000000000000000
2 3110.00000000000000000 5752.00050000000010186 40.00000000000000000 -1.00000000000000000 0.00000000000000022 -0.00000000000000000 -0.00000000000000022 -1.00000000000000000 0.00000000000000000 0.00000000000000000 0.00000000000000000 1.00000000000000000 5.00000000000000000
1 3095.00000000000136424 5747.00050000000010186 40.00000000000000000 1.00000000000000000 -0.00000000000000022 0.00000000000000000 
1 3095.00000000000136424 5687.00050000000010186 40.00000000000000000 1.00000000000000000 -0.00000000000000022 0.00000000000000000 
Polygon3D 0
PolygonOnTriangulations 0
Surfaces 26
1 2133.96483879686957152 5872.00050000000010186 0.00000000000000000 -0.55582821424383277 0.83129717685705629 0.00000000000000000 -0.83129717685705629 -0.55582821424383277 0.00000000000000000 0.00000000000000000 0.00000000000000000 1.00000000000000000 
1 1562.64236278088219478 -0.00000000000117942 5311.63301230358138127 -0.00000000000000000 -1.00000000000000000 -0.00000000000000022 0.00000000000000000 0.00000000000000022 -1.00000000000000000 1.00000000000000000 -0.00000000000000000 0.00000000000000000 
1 2133.96483879686957152 5872.00050000000010186 0.00000000000000000 0.00000000000000000 -1.00000000000000000 0.00000000000000000 1.00000000000000000 0.00000000000000000 0.00000000000000000 -0.00000000000000000 0.00000000000000000 1.00000000000000000 
1 3110.00000000000000000 5872.00050000000010186 0.00000000000000000 -1.00000000000000000 0.00000000000000000 0.00000000000000000 0.00000000000000000 -1.00000000000000000 0.00000000000000000 0.00000000000000000 0.00000000000000000 1.00000000000000000 
1 773.96483879698962483 4962.66700000000037107 0.00000000000000000 0.00000000000000000 1.00000000000000000 -0.00000000000000000 -1.00000000000000000 0.00000000000000000 0.00000000000000000 0.00000000000000000 0.00000000000000000 1.00000000000000000 
1 27.00000000000000000 4962.66700000000037107 0.00000000000000000 -1.00000000000000000 0.00000000000000000 0.00000000000000000 0.00000000000000000 -1.00000000000000000 0.00000000000000000 0.00000000000000000 0.00000000000000000 1.00000000000000000 
1 3110.00000000000000000 5792.00050000000010186 0.00000000000000000 -0.00000000000000000 -1.00000000000000000 0.00000000000000000 -1.00000000000000000 0.00000000000000000 0.00000000000000000 -0.00000000000000000 0.00000000000000000 -1.00000000000000000 
1 3102.50000000000000000 -0.00000000000127054 5722.00050000000101136 -0.00000000000000000 -1.00000000000000000 -0.00000000000000022 0.00000000000000000 0.00000000000000022 -1.00000000000000000 1.00000000000000000 -0.00000000000000000 0.00000000000000000 
1 3095.00000000000000000 5792.00050000000010186 0.00000000000000000 1.00000000000000000 0.00000000000000000 0.00000000000000000 0.00000000000000000 -1.00000000000000000 0.00000000000000000 0.00000000000000000 0.00000000000000000 -1.00000000000000000 
1 3095.00000000000000000 5652.00050000000010186 0.00000000000000000 0.00000000000000000 1.00000000000000000 -0.00000000000000000 1.00000000000000000 0.00000000000000000 0.00000000000000000 0.00000000000000000 -0.00000000000000000 -1.00000000000000000 
2 1129.00000000000000000 5109.53369999999995343 0.00000000000000000 0.00000000000000000 0.00000000000000000 1.00000000000000000 1.00000000000000000 0.00000000000000000 -0.00000000000000000 -0.00000000000000000 1.00000000000000000 0.00000000000000000 5.00000000000000000
2 1281.00000000000000000 5109.53369999999995343 0.00000000000000000 0.00000000000000000 0.00000000000000000 1.00000000000000000 1.00000000000000000 0.00000000000000000 -0.00000000000000000 -0.00000000000000000 1.00000000000000000 0.00000000000000000 5.00000000000000000
2 1401.00000000000000000 5291.40040000000044529 0.00000000000000000 0.00000000000000000 0.00000000000000000 1.00000000000000000 1.00000000000000000 0.00000000000000000 -0.00000000000000000 -0.00000000000000000 1.00000000000000000 0.00000000000000000 5.00000000000000000
2 1553.00000000000000000 5291.40040000000044529 0.00000000000000000 0.00000000000000000 0.00000000000000000 1.00000000000000000 1.00000000000000000 0.00000000000000000 -0.00000000000000000 -0.00000000000000000 1.00000000000000000 0.00000000000000000 5.00000000000000000
2 1673.00000000000000000 5473.26710000000002765 0.00000000000000000 0.00000000000000000 0.00000000000000000 1.00000000000000000 1.00000000000000000 0.00000000000000000 -0.00000000000000000 -0.00000000000000000 1.00000000000000000 0.00000000000000000 5.00000000000000000
2 1825.00000000000000000 5473.26710000000002765 0.00000000000000000 0.00000000000000000 0.00000000000000000 1.00000000000000000 1.00000000000000000 0.00000000000000000 -0.00000000000000000 -0.00000000000000000 1.00000000000000000 0.00000000000000000 5.00000000000000000
2 1945.00000000000000000 5655.13379999999961001 0.00000000000000000 0.00000000000000000 0.00000000000000000 1.00000000000000000 1.00000000000000000 0.00000000000000000 -0.00000000000000000 -0.00000000000000000 1.00000000000000000 0.00000000000000000 5.00000000000000000
2 2097.00000000000000000 5655.13379999999961001 0.00000000000000000 0.00000000000000000 0.00000000000000000 1.00000000000000000 1.00000000000000000 0.00000000000000000 -0.00000000000000000 -0.00000000000000000 1.00000000000000000 0.00000000000000000 5.00000000000000000
1 3110.00000000000000000 5652.00050000000010186 0.00000000000000000 -1.00000000000000000 0.00000000000000000 -0.00000000000000000 0.00000000000000000 1.00000000000000000 0.00000000000000000 0.00000000000000000 0.00000000000000000 -1.00000000000000000 
2 3095.00000000000136424 5752.00050000000010186 40.00000000000000000 -1.00000000000000000 0.00000000000000022 -0.00000000000000000 -0.00000000000000022 -1.00000000000000000 0.00000000000000000 0.00000000000000000 0.00000000000000000 1.00000000000000000 5.00000000000000000
1 3095.00000000000136424 -40.00000000000127898 5752.00049999999919237 -1.00000000000000000 -0.00000000000000000 -0.00000000000000000 0.00000000000000000 0.00000000000000000 -1.00000000000000000 0.00000000000000000 -1.00000000000000000 0.00000000000000000 
2 3095.00000000000136424 5692.00050000000010186 40.00000000000000000 -1.00000000000000000 0.00000000000000022 -0.00000000000000000 -0.00000000000000022 -1.00000000000000000 0.00000000000000000 0.00000000000000000 0.00000000000000000 1.00000000000000000 5.00000000000000000
1 3095.00000000000136424 -40.00000000000126477 5692.00050000000010186 -1.00000000000000000 -0.00000000000000000 -0.00000000000000000 0.00000000000000000 0.00000000000000000 -1.00000000000000000 0.00000000000000000 -1.00000000000000000 0.00000000000000000 
1 3110.00000000000000000 5622.00050000000010186 0.00000000000000000 0.00000000000000000 1.00000000000000000 -0.00000000000000000 -1.00000000000000000 0.00000000000000000 0.00000000000000000 0.00000000000000000 0.00000000000000000 1.00000000000000000 
1 849.84386887302025571 4712.66700000000037107 0.00000000000000000 0.55582821424383255 -0.83129717685705640 0.00000000000000000 0.83129717685705640 0.55582821424383255 0.00000000000000000 -0.00000000000000000 0.00000000000000000 1.00000000000000000 
1 27.00000000000000000 4712.66700000000037107 0.00000000000000000 0.00000000000000000 -1.00000000000000000 0.00000000000000000 1.00000000000000000 0.00000000000000000 0.00000000000000000 -0.00000000000000000 0.00000000000000000 1.00000000000000000 
Triangulations 0

TShapes 144
Ve
0.000000100000000
2133.964838796869572 5872.000500000000102 0.000000000000000
0 0

0101101
*
Ed
 0.000000100000000 1 1 0
1  1 0 0.000000000000000 15.000000000000000
0

0101000
+144 10 -144 12 *
Ve
0.000000100000000
773.964838796989625 4962.667000000000371 0.000000000000000
0 0

0101101
*
Ed
 0.000000100000000 1 1 0
1  2 0 0.000000000000000 15.000000000000000
0

0101000
+142 10 -142 12 *
Ed
 0.000000100000000 1 1 0
1  3 0 0.000000000000000 1635.997375982590938
2  1 2 13 0.000000000000000 1635.997375982590938
0

0101000
+144 0 -142 0 *
Wi

0101100
+143 0 -141 0 -140 10 +140 12 *
Fa
0  0.000000100000000 1 0

0111000
+139 0 *
Ve
0.000000100000000
3110.000000000000000 5872.000500000000102 0.000000000000000
0 0

0101101
*
Ed
 0.000000100000000 1 1 0
1  4 0 0.000000000000000 15.000000000000000
2  2 4 0 0.000000000000000 15.000000000000000
0

0101000
+137 10 -137 12 *
Ed
 0.000000100000000 1 1 0
1  5 0 0.000000000000000 976.035161203130428
2  3 2 13 0.000000000000000 976.035161203130428
0

0101000
+144 0 -137 0 *
Wi

0101100
+143 0 -136 0 -135 10 +135 12 *
Fa
0  0.000000100000000 3 0

0111000
+134 0 *
Ve
0.000000100000000
27.000000000000000 4962.667000000000371 0.000000000000000
0 0

0101101
*
Ed
 0.000000100000000 1 1 0
1  6 0 0.000000000000000 15.000000000000000
2  4 6 0 0.000000000000000 15.000000000000000
0

0101000
+132 10 -132 12 *
Ed
 0.000000100000000 1 1 0
1  7 0 0.000000000000000 746.964838796989625
2  5 2 13 0.000000000000000 746.964838796989625
0

0101000
+142 0 -132 0 *
Wi

0101100
+141 0 -131 0 -130 10 +130 12 *
Fa
0  0.000000100000000 5 0

0111000
+129 0 *
Ve
0.000000100000000
3110.000000000000000 5792.000500000000102 0.000000000000000
0 0

0101101
*
Ed
 0.000000100000000 1 1 0
1  8 0 0.000000000000000 80.000000000000000
2  6 2 13 0.000000000000000 80.000000000000000
2  7 4 17 0.000000000000000 80.000000000000000
2  8 4 18 0.000000000000000 80.000000000000000
0

0101000
+137 0 -127 21 *
Ve
0.000000100000000
3095.000000000000000 5792.000500000000102 0.000000000000000
0 0

0101101
*
Ed
 0.000000100000000 1 1 0
1  9 0 0.000000000000000 15.000000000000000
2  9 7 23 0.000000000000000 15.000000000000000
2  10 7 25 0.000000000000000 15.000000000000000
2  11 8 26 0.000000000000000 15.000000000000000
2  12 2 27 0.000000000000000 15.000000000000000
0

0101000
+127 0 -125 0 *
Ve
0.000000100000000
3095.000000000000000 5652.000500000000102 0.000000000000000
0 0

0101101
*
Ed
 0.000000100000000 1 1 0
1  10 0 0.000000000000000 140.000000000000000
2  13 8 26 0.000000000000000 140.000000000000000
2  14 9 23 0.000000000000000 140.000000000000000
2  15 9 25 0.000000000000000 140.000000000000000
2  16 2 27 0.000000000000000 140.000000000000000
0

0101000
+125 0 -123 0 *
Ve
0.000000100000000
3110.000000000000000 5652.000500000000102 0.000000000000000
0 0

0101101
*
Ed
 0.000000100000000 1 1 0
1  11 0 0.000000000000000 15.000000000000000
2  17 10 23 0.000000000000000 15.000000000000000
2  18 10 25 0.000000000000000 15.000000000000000
2  19 8 26 0.000000000000000 15.000000000000000
2  20 2 27 0.000000000000000 15.000000000000000
0

0101000
+123 0 -121 0 *
Ve
0.000000100000000
3110.000000000000000 5622.000500000000102 0.000000000000000
0 0

0101101
*
Ed
 0.000000100000000 1 1 0
1  8 0 220.000000000000000 250.000000000000000
2  6 2 13 220.000000000000000 250.000000000000000
2  7 4 17 220.000000000000000 250.000000000000000
2  8 4 18 220.000000000000000 250.000000000000000
0

0101000
+121 21 -119 0 *
Ve
0.000000100000000
2209.843868872900657 5622.000500000000102 0.000000000000000
0 0

0101101
*
Ed
 0.000000100000000 1 1 0
1  12 0 0.000000000000000 900.156131127099343
2  21 2 13 0.000000000000000 900.156131127099343
0

0101000
+119 0 -117 0 *
Ve
0.000000100000000
849.843868873020256 4712.667000000000371 0.000000000000000
0 0

0101101
*
Ed
 0.000000100000000 1 1 0
1  13 0 0.000000000000000 1635.997375982591393
2  22 2 13 0.000000000000000 1635.997375982591393
0

0101000
+115 0 -117 0 *
Ve
0.000000100000000
27.000000000000000 4712.667000000000371 0.000000000000000
0 0

0101101
*
Ed
 0.000000100000000 1 1 0
1  14 0 0.000000000000000 822.843868873020256
2  23 2 13 0.000000000000000 822.843868873020256
0

0101000
+113 0 -115 0 *
Ed
 0.000000100000000 1 1 0
1  15 0 0.000000000000000 250.000000000000000
2  24 2 13 0.000000000000000 250.000000000000000
2  25 6 17 0.000000000000000 250.000000000000000
2  26 6 18 0.000000000000000 250.000000000000000
0

0101000
+132 0 -113 0 *
Wi

0101100
-135 16 -126 16 -124 22 -122 22 -120 22 -118 16 -116 16 +114 16 +112 16 +111 16 
+130 16 +140 16 *
Ve
0.000000100000000
1134.000000000000000 5109.533699999999953 0.000000000000000
0 0

0101101
*
Ed
 0.000000100000000 1 1 0
1  16 0 0.000000000000000 6.283185307179586
2  27 11 17 0.000000000000000 6.283185307179586
2  28 11 18 0.000000000000000 6.283185307179586
2  29 2 13 0.000000000000000 6.283185307179586
0

0101000
+109 0 -109 0 *
Wi

0101100
-108 16 *
Ve
0.000000100000000
1286.000000000000000 5109.533699999999953 0.000000000000000
0 0

0101101
*
Ed
 0.000000100000000 1 1 0
1  17 0 0.000000000000000 6.283185307179586
2  30 12 17 0.000000000000000 6.283185307179586
2  31 12 18 0.000000000000000 6.283185307179586
2  32 2 13 0.000000000000000 6.283185307179586
0

0101000
+106 0 -106 0 *
Wi

0101100
-105 16 *
Ve
0.000000100000000
1406.000000000000000 5291.400400000000445 0.000000000000000
0 0

0101101
*
Ed
 0.000000100000000 1 1 0
1  18 0 0.000000000000000 6.283185307179586
2  33 13 17 0.000000000000000 6.283185307179586
2  34 13 18 0.000000000000000 6.283185307179586
2  35 2 13 0.000000000000000 6.283185307179586
0

0101000
+103 0 -103 0 *
Wi

0101100
-102 16 *
Ve
0.000000100000000
1558.000000000000000 5291.400400000000445 0.000000000000000
0 0

0101101
*
Ed
 0.000000100000000 1 1 0
1  19 0 0.000000000000000 6.283185307179586
2  36 14 17 0.000000000000000 6.283185307179586
2  37 14 18 0.000000000000000 6.283185307179586
2  38 2 13 0.000000000000000 6.283185307179586
0

0101000
+100 0 -100 0 *
Wi

0101100
-99 16 *
Ve
0.000000100000000
1678.000000000000000 5473.267100000000028 0.000000000000000
0 0

0101101
*
Ed
 0.000000100000000 1 1 0
1  20 0 0.000000000000000 6.283185307179586
2  39 15 17 0.000000000000000 6.283185307179586
2  40 15 18 0.000000000000000 6.283185307179586
2  41 2 13 0.000000000000000 6.283185307179586
0

0101000
+97 0 -97 0 *
Wi

0101100
-96 16 *
Ve
0.000000100000000
1830.000000000000000 5473.267100000000028 0.000000000000000
0 0

0101101
*
Ed
 0.000000100000000 1 1 0
1  21 0 0.000000000000000 6.283185307179586
2  42 16 17 0.000000000000000 6.283185307179586
2  43 16 18 0.000000000000000 6.283185307179586
2  44 2 13 0.000000000000000 6.283185307179586
0

0101000
+94 0 -94 0 *
Wi

0101100
-93 16 *
Ve
0.000000100000000
1950.000000000000000 5655.133799999999610 0.000000000000000
0 0

0101101
*
Ed
 0.000000100000000 1 1 0
1  22 0 0.000000000000000 6.283185307179586
2  45 17 17 0.000000000000000 6.283185307179586
2  46 17 18 0.000000000000000 6.283185307179586
2  47 2 13 0.000000000000000 6.283185307179586
0

0101000
+91 0 -91 0 *
Wi

0101100
-90 16 *
Ve
0.000000100000000
2102.000000000000000 5655.133799999999610 0.000000000000000
0 0

0101101
*
Ed
 0.000000100000000 1 1 0
1  23 0 0.000000000000000 6.283185307179586
2  48 18 17 0.000000000000000 6.283185307179586
2  49 18 18 0.000000000000000 6.283185307179586
2  50 2 13 0.000000000000000 6.283185307179586
0

0101000
+88 0 -88 0 *
Wi

0101100
-87 16 *
Fa
0  0.000000100000000 2 15

0111000
+110 0 +107 0 +104 0 +101 0 +98 0 +95 0 +92 0 +89 0 +86 0 *
Ed
 0.000000100000000 1 1 0
1  8 0 0.000000000000000 250.000000000000000
2  6 2 13 0.000000000000000 250.000000000000000
2  7 4 17 0.000000000000000 250.000000000000000
2  8 4 18 0.000000000000000 250.000000000000000
0

0101000
+137 0 -119 0 *
Wi

0101100
+140 29 +130 29 +111 29 +112 29 +114 29 -116 29 -84 29 -135 29 *
Wi

0101100
-108 29 *
Wi

0101100
-105 29 *
Wi

0101100
-102 29 *
Wi

0101100
-99 29 *
Wi

0101100
-96 29 *
Wi

0101100
-93 29 *
Wi

0101100
-90 29 *
Wi

0101100
-87 29 *
Fa
0  0.000000100000000 2 0

0111000
+83 0 +82 0 +81 0 +80 0 +79 0 +78 0 +77 0 +76 0 +75 0 *
Ed
 0.000000100000000 1 1 0
1  24 0 0.000000000000000 15.000000000000000
2  51 4 0 0.000000000000000 15.000000000000000
0

0101000
+119 10 -119 12 *
Ed
 0.000000100000000 1 1 0
1  25 0 0.000000000000000 140.000000000000000
2  52 19 23 0.000000000000000 140.000000000000000
2  53 19 25 0.000000000000000 140.000000000000000
2  54 8 26 0.000000000000000 140.000000000000000
2  55 2 27 0.000000000000000 140.000000000000000
0

0101000
+121 0 -127 0 *
Wi

0101100
+136 30 -73 30 -126 16 +72 22 -118 16 +84 31 *
Fa
0  0.000000100000000 4 30

0111000
+71 0 *
Ed
 0.000000100000000 1 1 0
1  26 0 0.000000000000000 15.000000000000000
2  56 6 0 0.000000000000000 15.000000000000000
0

0101000
+113 10 -113 12 *
Wi

0101100
+131 0 -69 0 -111 10 +111 12 *
Fa
0  0.000000100000000 6 0

0111000
+68 0 *
Ed
 0.000000100000000 1 1 0
1  27 0 0.000000000000000 80.000000000000000
2  57 7 0 0.000000000000000 80.000000000000000
2  58 19 0 0.000000000000000 80.000000000000000
0

0101000
+127 22 -127 32 *
Ed
 0.000000100000000 1 1 0
1  28 0 0.000000000000000 80.000000000000000
2  59 7 0 0.000000000000000 80.000000000000000
2  60 9 0 0.000000000000000 80.000000000000000
0

0101000
+125 22 -125 32 *
Wi

0101100
+66 0 -65 0 -124 22 +124 32 *
Fa
0  0.000000100000000 7 0

0111000
+64 0 *
Ed
 0.000000100000000 1 1 0
1  29 0 0.000000000000000 80.000000000000000
2  61 10 0 0.000000000000000 80.000000000000000
2  62 9 0 0.000000000000000 80.000000000000000
0

0101000
+123 22 -123 32 *
Wi

0101100
+65 14 -122 33 +122 34 -62 14 *
Ve
0.000000100001364
-5747.000500000000102 40.000000000000000 0.000000000000000
0 0

0101101
*
Ed
 0.000000100001364 1 1 0
1  30 0 0.000000000000000 6.283185307179586
2  63 20 38 0.000000000000000 6.283185307179586
2  64 20 40 0.000000000000000 6.283185307179586
2  65 21 41 0.000000000000000 6.283185307179586
2  66 9 42 0.000000000000000 6.283185307179586
0

0101000
+60 0 -60 0 *
Wi

0101100
+59 37 *
Ve
0.000000100001364
-5687.000500000000102 40.000000000000000 0.000000000000000
0 0

0101101
*
Ed
 0.000000100001364 1 1 0
1  31 0 0.000000000000000 6.283185307179586
2  67 22 38 0.000000000000000 6.283185307179586
2  68 22 40 0.000000000000000 6.283185307179586
2  69 23 41 0.000000000000000 6.283185307179586
2  70 9 42 0.000000000000000 6.283185307179586
0

0101000
+57 0 -57 0 *
Wi

0101100
+56 37 *
Fa
0  0.000000100000000 9 14

0111000
+61 0 +58 0 +55 0 *
Ed
 0.000000100000000 1 1 0
1  32 0 0.000000000000000 80.000000000000000
2  71 10 0 0.000000000000000 80.000000000000000
2  72 19 0 0.000000000000000 80.000000000000000
0

0101000
+121 22 -121 32 *
Wi

0101100
+62 0 -53 0 -120 22 +120 32 *
Fa
0  0.000000100000000 10 0

0111000
+52 0 *
Ed
 0.000000100000000 1 1 0
1  33 0 0.000000000000000 15.000000000000000
0

0101000
+117 10 -117 12 *
Wi

0101100
+73 0 -50 0 -116 10 +116 12 *
Fa
0  0.000000100000000 24 0

0111000
+49 0 *
Ed
 0.000000100000000 1 1 0
1  34 0 0.000000000000000 15.000000000000000
0

0101000
+115 10 -115 12 *
Wi

0101100
+47 0 -50 0 -114 10 +114 12 *
Fa
0  0.000000100000000 25 0

0111000
+46 0 *
Wi

0101100
+69 0 -47 0 -112 10 +112 12 *
Fa
0  0.000000100000000 26 0

0111000
+44 0 *
Ed
 0.000000100000000 1 1 0
1  35 0 0.000000000000000 15.000000000000000
3  73 74CN 11 0 0.000000000000000 15.000000000000000
0

0101000
+109 10 -109 12 *
Wi

0101100
+42 0 -42 0 -108 10 +108 12 *
Fa
0  0.000000100000000 11 0

0111000
+41 0 *
Ed
 0.000000100000000 1 1 0
1  36 0 0.000000000000000 15.000000000000000
3  75 76CN 12 0 0.000000000000000 15.000000000000000
0

0101000
+106 10 -106 12 *
Wi

0101100
+39 0 -39 0 -105 10 +105 12 *
Fa
0  0.000000100000000 12 0

0111000
+38 0 *
Ed
 0.000000100000000 1 1 0
1  37 0 0.000000000000000 15.000000000000000
3  77 78CN 13 0 0.000000000000000 15.000000000000000
0

0101000
+103 10 -103 12 *
Wi

0101100
+36 0 -36 0 -102 10 +102 12 *
Fa
0  0.000000100000000 13 0

0111000
+35 0 *
Ed
 0.000000100000000 1 1 0
1  38 0 0.000000000000000 15.000000000000000
3  79 80CN 14 0 0.000000000000000 15.000000000000000
0

0101000
+100 10 -100 12 *
Wi

0101100
+33 0 -33 0 -99 10 +99 12 *
Fa
0  0.000000100000000 14 0

0111000
+32 0 *
Ed
 0.000000100000000 1 1 0
1  39 0 0.000000000000000 15.000000000000000
3  81 82CN 15 0 0.000000000000000 15.000000000000000
0

0101000
+97 10 -97 12 *
Wi

0101100
+30 0 -30 0 -96 10 +96 12 *
Fa
0  0.000000100000000 15 0

0111000
+29 0 *
Ed
 0.000000100000000 1 1 0
1  40 0 0.000000000000000 15.000000000000000
3  83 84CN 16 0 0.000000000000000 15.000000000000000
0

0101000
+94 10 -94 12 *
Wi

0101100
+27 0 -27 0 -93 10 +93 12 *
Fa
0  0.000000100000000 16 0

0111000
+26 0 *
Ed
 0.000000100000000 1 1 0
1  41 0 0.000000000000000 15.000000000000000
3  85 86CN 17 0 0.000000000000000 15.000000000000000
0

0101000
+91 10 -91 12 *
Wi

0101100
+24 0 -24 0 -90 10 +90 12 *
Fa
0  0.000000100000000 17 0

0111000
+23 0 *
Ed
 0.000000100000000 1 1 0
1  42 0 0.000000000000000 15.000000000000000
3  87 88CN 18 0 0.000000000000000 15.000000000000000
0

0101000
+88 10 -88 12 *
Wi

0101100
+21 0 -21 0 -87 10 +87 12 *
Fa
0  0.000000100000000 18 0

0111000
+20 0 *
Wi

0101100
+53 14 -72 33 +72 34 -66 14 *
Ve
0.000000100000000
3110.000000000000000 5687.000500000000102 40.000000000000000
0 0

0101101
*
Ed
 0.000000100000000 1 1 0
1  43 0 0.000000000000000 6.283185307179586
2  89 19 14 0.000000000000000 6.283185307179586
2  90 22 0 0.000000000000000 6.283185307179586
0

0101000
+17 0 -17 0 *
Wi

0101100
-16 0 *
Ve
0.000000100000000
3110.000000000000000 5747.000500000000102 40.000000000000000
0 0

0101101
*
Ed
 0.000000100000000 1 1 0
1  44 0 0.000000000000000 6.283185307179586
2  91 19 14 0.000000000000000 6.283185307179586
2  92 20 0 0.000000000000000 6.283185307179586
0

0101000
+14 0 -14 0 *
Wi

0101100
-13 0 *
Fa
0  0.000000100000000 19 14

0111000
+18 0 +15 0 +12 0 *
Wi

0101100
+124 0 +122 0 +120 0 +72 0 *
Fa
0  0.000000100000000 8 0

0111000
+10 44 *
Ed
 0.000000100000000 1 1 0
1  45 0 0.000000000000000 14.999999999998636
3  93 94CN 20 0 0.000000000000000 14.999999999998636
0

0101000
+60 37 -14 0 *
Wi

0101100
-59 37 -8 0 +13 0 +8 0 *
Fa
0  0.000000100000000 20 0

0111000
+7 0 *
Ed
 0.000000100000000 1 1 0
1  46 0 0.000000000000000 14.999999999998636
3  95 96CN 22 0 0.000000000000000 14.999999999998636
0

0101000
+57 37 -17 0 *
Wi

0101100
-56 37 -5 0 +16 0 +5 0 *
Fa
0  0.000000100000000 22 0

0111000
+4 0 *
Sh

0101100
+138 6 -133 6 +128 6 +85 14 -74 28 -70 14 +67 6 -63 14 -54 0 -51 14 
-48 6 +45 6 +43 6 -40 6 -37 6 -34 6 -31 6 -28 6 -25 6 -22 6 
-19 6 -11 0 +9 43 -6 0 -3 0 *
So

0100000
+2 0 *

+1 1 