
CASCADE Topology V1, (c) Matra-Datavision
Locations 21
1
1.000000000000000 0.000000000000000 0.000000000000000 0.000000000000000 
0.000000000000000 -0.000000000000000 -1.000000000000000 0.000000000000000 
0.000000000000000 1.000000000000000 -0.000000000000000 0.000000000000000 
1
1.000000000000000 0.000000000000000 0.000000000000000 0.000000000000000 
0.000000000000000 -0.000000000000000 -1.000000000000000 0.000000000000000 
0.000000000000000 1.000000000000000 -0.000000000000000 0.000000000000000 
1
1.000000000000000 0.000000000000000 0.000000000000000 0.000000000000000 
0.000000000000000 -0.000000000000000 -1.000000000000000 0.000000000000000 
0.000000000000000 1.000000000000000 -0.000000000000000 0.000000000000000 
1
1.000000000000000 0.000000000000000 0.000000000000000 0.000000000000000 
0.000000000000000 -0.000000000000000 -1.000000000000000 0.000000000000000 
0.000000000000000 1.000000000000000 -0.000000000000000 0.000000000000000 
2  1 1 2 -1 3 1 4 -1 0
1
1.000000000000000 0.000000000000000 0.000000000000000 0.000000000000000 
0.000000000000000 -0.000000000000000 -1.000000000000000 0.000000000000000 
0.000000000000000 1.000000000000000 -0.000000000000000 0.000000000000000 
1
1.000000000000000 0.000000000000000 0.000000000000000 0.000000000000000 
0.000000000000000 -0.000000000000000 -1.000000000000000 0.000000000000000 
0.000000000000000 1.000000000000000 -0.000000000000000 0.000000000000000 
2  6 1 7 -1 0
1
1.000000000000000 0.000000000000000 0.000000000000000 0.000000000000000 
0.000000000000000 1.000000000000000 0.000000000000000 0.000000000000000 
0.000000000000000 0.000000000000000 1.000000000000000 0.000000000000000 
1
1.000000000000000 0.000000000000000 0.000000000000000 -0.000000000000000 
0.000000000000000 -0.000000000000000 -1.000000000000000 90.000000000000000 
0.000000000000000 1.000000000000000 -0.000000000000000 0.000000000000020 
2  9 1 10 1 4 -1 0
1
1.000000000000000 0.000000000000000 0.000000000000000 -0.000000000000000 
0.000000000000000 1.000000000000000 0.000000000000000 0.000000000000000 
0.000000000000000 0.000000000000000 1.000000000000000 -150.000000000000000 
2  9 1 10 1 4 -1 12 1 0
2  4 1 10 -1 9 -1 0
2  12 -1 4 1 10 -1 9 -1 0
2  10 -1 9 -1 0
1
1.000000000000000 0.000000000000000 0.000000000000000 -0.000000000000000 
0.000000000000000 1.000000000000000 0.000000000000000 0.000000000000000 
0.000000000000000 0.000000000000000 1.000000000000000 -90.000000000000000 
2  2 -1 17 1 3 1 10 -1 9 -1 0
2  4 -1 0
2  9 1 10 1 0
2  4 -1 12 1 0
Curve2ds 26
1 5634.00000000000000000 0.00000000000000000 -0.00000000000000000 -1.00000000000000000 
1 0.00000000000000000 0.00000000000000000 0.00000000000000000 -1.00000000000000000 
1 4616.00000000000000000 -90.00000000000000000 0.00000000000000000 -1.00000000000000000 
1 4616.00000000000000000 -310.00000000000000000 0.00000000000000000 1.00000000000000000 
1 800.00000000000000000 0.00000000000000000 0.00000000000000000 -1.00000000000000000 
1 0.00000000000000000 0.00000000000000000 0.00000000000000000 -1.00000000000000000 
1 0.00000000000000000 0.00000000000000000 1.00000000000000000 0.00000000000000000 
1 0.00000000000000000 -150.00000000000000000 1.00000000000000000 0.00000000000000000 
1 3041.12527173150920135 -2281.65924614274945270 0.00000000000000000 1.00000000000000000 
1 1808.89826739535874367 -2356.81589285676909640 -0.00000000000000000 1.00000000000000000 
1 0.00000000000000000 0.00000000000000000 0.00000000000000000 -1.00000000000000000 
1 1734.05709248571201897 0.00000000000000000 0.00000000000000000 -1.00000000000000000 
1 3041.12527173150920135 -1481.65924614274945270 -0.52766428738997218 0.84945300035566007 
1 0.00000000000000000 0.00000000000000000 1.00000000000000000 0.00000000000000000 
1 0.00000000000000000 -150.00000000000000000 1.00000000000000000 0.00000000000000000 
1 1808.89826739535874367 -1556.81589285676909640 -0.52766428738997218 0.84945300035566007 
1 2530.00000000000000000 0.00000000000000000 0.00000000000000000 -1.00000000000000000 
1 0.00000000000000000 0.00000000000000000 1.00000000000000000 0.00000000000000000 
1 0.00000000000000000 -150.00000000000000000 1.00000000000000000 0.00000000000000000 
1 2126.12527173150920135 -8.65924614274945270 0.00000000000000000 1.00000000000000000 
1 2126.12527173150920135 2521.34075385725054730 -1.00000000000000000 0.00000000000000000 
1 0.00000000000000000 0.00000000000000000 -0.00000000000000000 -1.00000000000000000 
1 -2592.87472826849079865 2521.34075385725054730 0.00000000000000000 -1.00000000000000000 
1 0.00000000000000000 0.00000000000000000 1.00000000000000000 0.00000000000000000 
1 -0.00000000000000000 -150.00000000000000000 1.00000000000000000 0.00000000000000000 
1 -2592.87472826849079865 -2281.65924614274945270 1.00000000000000000 -0.00000000000000000 
Curves 12
1 -0.00000000000000000 4616.00000000000000000 -90.00000000000000000 -0.00000000000000000 0.00000000000000000 -1.00000000000000000 
1 800.00000000000000000 4616.00000000000000000 -90.00000000000000000 -0.00000000000000000 0.00000000000000000 -1.00000000000000000 
1 0.00000000000000000 4616.00000000000000000 0.00000000000000000 1.00000000000000000 0.00000000000000000 0.00000000000000000 
1 2273.00000000000000000 5531.00000000000000000 -90.00000000000000000 -0.00000000000000000 0.00000000000000000 -1.00000000000000000 
1 800.00000000000000000 4616.00000000000000000 0.00000000000000000 0.84945300035566007 0.52766428738997218 0.00000000000000000 
1 4803.00000000000000000 5531.00000000000000000 -90.00000000000000000 -0.00000000000000000 0.00000000000000000 -1.00000000000000000 
1 2273.00000000000000000 5531.00000000000000000 0.00000000000000000 1.00000000000000000 0.00000000000000000 0.00000000000000000 
1 4803.00000000000000000 10250.00000000000000000 -90.00000000000000000 -0.00000000000000000 0.00000000000000000 -1.00000000000000000 
1 4803.00000000000000000 5531.00000000000000000 0.00000000000000000 0.00000000000000000 1.00000000000000000 0.00000000000000000 
1 -0.00000000000000000 10250.00000000000000000 -90.00000000000000000 -0.00000000000000000 0.00000000000000000 -1.00000000000000000 
1 4803.00000000000000000 10250.00000000000000000 0.00000000000000000 -1.00000000000000000 0.00000000000000000 0.00000000000000000 
1 0.00000000000000000 10250.00000000000000000 0.00000000000000000 0.00000000000000000 -1.00000000000000000 0.00000000000000000 
Polygon3D 0
PolygonOnTriangulations 0
Surfaces 10
1 -0.00000000000000000 4616.00000000000000000 -90.00000000000000000 0.00000000000000000 -1.00000000000000000 -0.00000000000000000 1.00000000000000000 0.00000000000000000 0.00000000000000000 0.00000000000000000 -0.00000000000000000 1.00000000000000000 
1 -0.00000000000000000 10250.00000000000000000 -90.00000000000000000 -1.00000000000000000 0.00000000000000000 0.00000000000000000 0.00000000000000000 -1.00000000000000000 0.00000000000000000 0.00000000000000000 0.00000000000000000 1.00000000000000000 
1 0.00000000000000000 0.00000000000000000 0.00000000000000000 1.00000000000000000 0.00000000000000000 0.00000000000000000 -0.00000000000000000 1.00000000000000000 0.00000000000000000 0.00000000000000000 -0.00000000000000000 1.00000000000000000 
1 0.00000000000000000 0.00000000000000000 -400.00000000000000000 -1.00000000000000000 0.00000000000000000 0.00000000000000000 0.00000000000000000 1.00000000000000000 0.00000000000000000 0.00000000000000000 0.00000000000000000 -1.00000000000000000 
1 800.00000000000000000 4616.00000000000000000 -90.00000000000000000 0.52766428738997218 -0.84945300035566007 -0.00000000000000000 0.84945300035566007 0.52766428738997218 0.00000000000000000 0.00000000000000000 -0.00000000000000000 1.00000000000000000 
1 2281.65924614274945270 89.99999999999830891 7657.12527173150920135 0.00000000000000000 -1.00000000000000000 -0.00000000000000022 0.00000000000000000 0.00000000000000022 -1.00000000000000000 1.00000000000000000 0.00000000000000000 0.00000000000000000 
1 2356.81589285676909640 -0.00000000000142661 6424.89826739535874367 0.00000000000000000 -1.00000000000000000 -0.00000000000000022 0.00000000000000000 0.00000000000000022 -1.00000000000000000 1.00000000000000000 0.00000000000000000 0.00000000000000000 
1 2273.00000000000000000 5531.00000000000000000 -90.00000000000000000 0.00000000000000000 -1.00000000000000000 -0.00000000000000000 1.00000000000000000 0.00000000000000000 0.00000000000000000 0.00000000000000000 -0.00000000000000000 1.00000000000000000 
1 4803.00000000000000000 5531.00000000000000000 -90.00000000000000000 1.00000000000000000 0.00000000000000000 -0.00000000000000000 0.00000000000000000 1.00000000000000000 0.00000000000000000 0.00000000000000000 -0.00000000000000000 1.00000000000000000 
1 4803.00000000000000000 10250.00000000000000000 -90.00000000000000000 0.00000000000000000 1.00000000000000000 0.00000000000000000 -1.00000000000000000 0.00000000000000000 0.00000000000000000 0.00000000000000000 -0.00000000000000000 1.00000000000000000 
Triangulations 0

TShapes 34
Ve
0.000000100000000
0.000000000000000 4616.000000000000000 0.000000000000000
0 0

0101101
*
Ed
 0.000000100000000 1 1 0
1  1 0 0.000000000000000 150.000000000000000
2  1 2 0 0.000000000000000 150.000000000000000
2  2 1 0 0.000000000000000 150.000000000000000
2  3 3 5 0.000000000000000 150.000000000000000
2  4 4 8 0.000000000000000 150.000000000000000
0

0101000
+34 11 -34 13 *
Ve
0.000000100000000
800.000000000000000 4616.000000000000000 0.000000000000000
0 0

0101101
*
Ed
 0.000000100000000 1 1 0
1  2 0 0.000000000000000 150.000000000000000
2  5 1 0 0.000000000000000 150.000000000000000
2  6 5 0 0.000000000000000 150.000000000000000
0

0101000
+32 11 -32 13 *
Ed
 0.000000100000000 1 1 0
1  3 0 0.000000000000000 800.000000000000000
2  7 1 14 0.000000000000000 800.000000000000000
2  8 1 15 0.000000000000000 800.000000000000000
2  9 6 16 0.000000000000000 800.000000000000000
2  10 7 18 0.000000000000000 800.000000000000000
0

0101000
+34 0 -32 0 *
Wi

0101100
+33 0 -31 0 -30 11 +30 13 *
Fa
0  0.000000100000000 1 0

0111000
+29 0 *
Ve
0.000000100000000
2273.000000000000000 5531.000000000000000 0.000000000000000
0 0

0101101
*
Ed
 0.000000100000000 1 1 0
1  4 0 0.000000000000000 150.000000000000000
2  11 8 0 0.000000000000000 150.000000000000000
2  12 5 0 0.000000000000000 150.000000000000000
0

0101000
+27 11 -27 13 *
Ed
 0.000000100000000 1 1 0
1  5 0 0.000000000000000 1734.057092485711564
2  13 6 16 0.000000000000000 1734.057092485711564
2  14 5 14 0.000000000000000 1734.057092485711564
2  15 5 15 0.000000000000000 1734.057092485711564
2  16 7 18 0.000000000000000 1734.057092485711564
0

0101000
+32 0 -27 0 *
Wi

0101100
+31 0 -26 0 -25 11 +25 13 *
Fa
0  0.000000100000000 5 0

0111000
+24 0 *
Ve
0.000000100000000
4803.000000000000000 5531.000000000000000 0.000000000000000
0 0

0101101
*
Ed
 0.000000100000000 1 1 0
1  6 0 0.000000000000000 150.000000000000000
2  17 8 0 0.000000000000000 150.000000000000000
0

0101000
+22 11 -22 13 *
Ed
 0.000000100000000 1 1 0
1  7 0 0.000000000000000 2530.000000000000000
2  18 8 14 0.000000000000000 2530.000000000000000
2  19 8 15 0.000000000000000 2530.000000000000000
2  20 6 16 0.000000000000000 2530.000000000000000
0

0101000
+27 0 -22 0 *
Wi

0101100
+26 0 -21 0 -20 11 +20 13 *
Fa
0  0.000000100000000 8 0

0111000
+19 0 *
Ve
0.000000100000000
4803.000000000000000 10250.000000000000000 0.000000000000000
0 0

0101101
*
Ed
 0.000000100000000 1 1 0
1  8 0 0.000000000000000 150.000000000000000
0

0101000
+17 11 -17 13 *
Ed
 0.000000100000000 1 1 0
1  9 0 0.000000000000000 4719.000000000000000
2  21 6 16 0.000000000000000 4719.000000000000000
0

0101000
+22 0 -17 0 *
Wi

0101100
+21 0 -16 0 -15 11 +15 13 *
Fa
0  0.000000100000000 9 0

0111000
+14 0 *
Ve
0.000000100000000
0.000000000000000 10250.000000000000000 0.000000000000000
0 0

0101101
*
Ed
 0.000000100000000 1 1 0
1  10 0 0.000000000000000 150.000000000000000
2  22 2 0 0.000000000000000 150.000000000000000
0

0101000
+12 11 -12 13 *
Ed
 0.000000100000000 1 1 0
1  11 0 0.000000000000000 4803.000000000000000
2  23 6 16 0.000000000000000 4803.000000000000000
0

0101000
+17 0 -12 0 *
Wi

0101100
+16 0 -11 0 -10 11 +10 13 *
Fa
0  0.000000100000000 10 0

0111000
+9 0 *
Ed
 0.000000100000000 1 1 0
1  12 0 0.000000000000000 5634.000000000000000
2  24 2 14 0.000000000000000 5634.000000000000000
2  25 2 15 0.000000000000000 5634.000000000000000
2  26 6 16 0.000000000000000 5634.000000000000000
0

0101000
+12 0 -34 0 *
Wi

0101100
+11 0 -33 0 -7 11 +7 13 *
Fa
0  0.000000100000000 2 0

0111000
+6 0 *
Wi

0101100
+30 0 +25 0 +20 0 +15 0 +10 0 +7 0 *
Fa
0  0.000000100000000 6 0

0111000
+4 20 *
Sh

0101100
+28 0 +23 0 +18 0 +13 0 +8 0 +5 0 +3 19 -3 21 *
So

1100000
+2 0 *

+1 0 