
CASCADE Topology V1, (c) Matra-Datavision
Locations 62
1
1.000000000000000 0.000000000000000 0.000000000000000 0.000000000000000 
0.000000000000000 1.000000000000000 0.000000000000000 0.000000000000000 
0.000000000000000 0.000000000000000 1.000000000000000 0.000000000000000 
1
1.000000000000000 0.000000000000000 0.000000000000000 0.000000000000000 
0.000000000000000 1.000000000000000 0.000000000000000 0.000000000000000 
0.000000000000000 0.000000000000000 1.000000000000000 0.000000000000000 
1
1.000000000000000 0.000000000000000 0.000000000000000 0.000000000000000 
0.000000000000000 1.000000000000000 0.000000000000000 0.000000000000000 
0.000000000000000 0.000000000000000 1.000000000000000 0.000000000000000 
1
1.000000000000000 0.000000000000000 0.000000000000000 0.000000000000000 
0.000000000000000 1.000000000000000 0.000000000000000 0.000000000000000 
0.000000000000000 0.000000000000000 1.000000000000000 0.000000000000000 
1
1.000000000000000 0.000000000000000 0.000000000000000 0.000000000000000 
0.000000000000000 1.000000000000000 0.000000000000000 0.000000000000000 
0.000000000000000 0.000000000000000 1.000000000000000 0.000000000000000 
1
1.000000000000000 0.000000000000000 0.000000000000000 0.000000000000000 
0.000000000000000 1.000000000000000 0.000000000000000 0.000000000000000 
0.000000000000000 0.000000000000000 1.000000000000000 0.000000000000000 
1
1.000000000000000 0.000000000000000 0.000000000000000 0.000000000000000 
0.000000000000000 1.000000000000000 0.000000000000000 0.000000000000000 
0.000000000000000 0.000000000000000 1.000000000000000 0.000000000000000 
2  2 1 3 -1 4 1 5 -1 6 1 7 -1 0
1
1.000000000000000 0.000000000000000 0.000000000000000 0.000000000000000 
0.000000000000000 1.000000000000000 0.000000000000000 0.000000000000000 
0.000000000000000 0.000000000000000 1.000000000000000 0.000000000000000 
1
1.000000000000000 0.000000000000000 0.000000000000000 0.000000000000000 
0.000000000000000 1.000000000000000 0.000000000000000 0.000000000000000 
0.000000000000000 0.000000000000000 1.000000000000000 0.000000000000000 
1
1.000000000000000 0.000000000000000 0.000000000000000 0.000000000000000 
0.000000000000000 1.000000000000000 0.000000000000000 0.000000000000000 
0.000000000000000 0.000000000000000 1.000000000000000 0.000000000000000 
2  9 1 10 1 11 -1 0
1
1.000000000000000 0.000000000000000 0.000000000000000 -0.000000000000000 
0.000000000000000 1.000000000000000 0.000000000000000 -0.000000000000000 
0.000000000000000 0.000000000000000 1.000000000000000 -50.000000000000000 
2  9 1 10 1 11 -1 13 1 0
2  9 1 10 1 11 -1 2 1 3 -1 4 1 5 -1 6 1 7 -1 0
2  11 1 10 -1 9 -1 0
2  13 -1 11 1 10 -1 9 -1 0
2  9 1 10 1 11 -1 13 1 2 1 3 -1 4 1 5 -1 6 1 7 -1 0
1
1.000000000000000 0.000000000000000 0.000000000000000 0.000000000000000 
0.000000000000000 1.000000000000000 0.000000000000000 0.000000000000000 
0.000000000000000 0.000000000000000 1.000000000000000 0.000000000000000 
1
-1.000000000000000 0.000000000000000 0.000000000000000 0.000000000000000 
0.000000000000000 0.000000000000000 1.000000000000000 -973.000000000000000 
0.000000000000000 1.000000000000000 -0.000000000000000 0.000000000000000 
2  19 1 20 1 7 -1 0
2  7 1 20 -1 19 -1 0
1
1.000000000000000 0.000000000000000 0.000000000000000 0.000000000000000 
0.000000000000000 1.000000000000000 0.000000000000000 -5.000000000000000 
0.000000000000000 0.000000000000000 1.000000000000000 0.000000000000001 
2  23 -1 7 1 20 -1 19 -1 0
2  20 -1 19 -1 0
2  2 1 3 -1 4 1 5 -1 6 1 20 -1 19 -1 0
2  11 -1 2 1 3 -1 4 1 5 -1 6 1 7 -1 0
2  9 1 10 1 0
2  11 -1 13 1 2 1 3 -1 4 1 5 -1 6 1 7 -1 0
2  19 1 20 1 7 -1 23 1 0
2  4 1 5 -1 6 1 7 -1 0
2  2 1 3 -1 0
2  9 1 10 1 11 -1 2 1 3 -1 0
2  9 1 10 1 11 -1 13 1 2 1 3 -1 0
1
1.000000000000000 0.000000000000000 0.000000000000000 0.000000000000000 
0.000000000000000 1.000000000000000 0.000000000000000 0.000000000000000 
0.000000000000000 0.000000000000000 1.000000000000000 0.000000000000000 
1
0.000000000000000 0.000000000000000 1.000000000000000 3680.999999999999091 
1.000000000000000 0.000000000000000 0.000000000000000 0.000000000000000 
0.000000000000000 1.000000000000000 0.000000000000000 0.000000000000000 
2  35 1 36 1 3 -1 0
2  3 1 36 -1 35 -1 0
1
1.000000000000000 0.000000000000000 0.000000000000000 -5.000000000000000 
0.000000000000000 1.000000000000000 0.000000000000000 -0.000000000000000 
0.000000000000000 0.000000000000000 1.000000000000000 -0.000000000000000 
2  39 -1 3 1 36 -1 35 -1 0
2  36 -1 35 -1 0
2  2 1 36 -1 35 -1 0
2  6 1 7 -1 0
2  2 1 3 -1 4 1 5 -1 0
2  9 1 10 1 11 -1 2 1 3 -1 4 1 5 -1 0
2  9 1 10 1 11 -1 13 1 2 1 3 -1 4 1 5 -1 0
1
1.000000000000000 0.000000000000000 0.000000000000000 0.000000000000000 
0.000000000000000 1.000000000000000 0.000000000000000 0.000000000000000 
0.000000000000000 0.000000000000000 1.000000000000000 0.000000000000000 
1
1.000000000000000 0.000000000000000 0.000000000000000 0.000000000000000 
0.000000000000000 0.000000000000000 -1.000000000000000 -1843.000000000000000 
0.000000000000000 1.000000000000000 0.000000000000000 0.000000000000000 
2  47 1 48 1 5 -1 0
2  5 1 48 -1 47 -1 0
1
1.000000000000000 0.000000000000000 0.000000000000000 0.000000000000000 
0.000000000000000 1.000000000000000 0.000000000000000 5.000000000000000 
0.000000000000000 0.000000000000000 1.000000000000000 -0.000000000000001 
2  51 -1 5 1 48 -1 47 -1 0
2  48 -1 47 -1 0
2  2 1 3 -1 4 1 48 -1 47 -1 0
2  7 -1 23 1 0
2  19 1 20 1 0
2  35 1 36 1 3 -1 39 1 0
2  47 1 48 1 5 -1 51 1 0
2  3 -1 39 1 4 1 5 -1 6 1 7 -1 0
2  35 1 36 1 0
2  5 -1 51 1 6 1 7 -1 0
2  47 1 48 1 0
Curve2ds 52
1 0.00000000000000000 0.00000000000000000 0.00000000000000000 -1.00000000000000000 
1 0.00000000000000000 0.00000000000000000 1.00000000000000000 0.00000000000000000 
1 0.00000000000000000 -50.00000000000000000 1.00000000000000000 0.00000000000000000 
1 166.78568583027617933 0.00000000000000000 0.00000000000000000 -1.00000000000000000 
1 0.00000000000000000 0.00000000000000000 0.00000000000000000 -1.00000000000000000 
1 0.00000000000000000 0.00000000000000000 1.00000000000000000 0.00000000000000000 
1 0.00000000000000000 -5.00000000000000000 1.00000000000000000 0.00000000000000000 
2 0.00000000000045475 0.00000000000000355 -1.00000000000000000 0.00000000000000000 -0.00000000000000000 -1.00000000000000000 5.00000000000000000
2 40.00000000000000000 -25.00000000000000000 1.00000000000000000 0.00000000000000000 -0.00000000000000000 1.00000000000000000 5.00000000000000000
1 0.00000000000000000 0.00000000000000000 1.00000000000000000 0.00000000000000000 
1 0.00000000000000000 -5.00000000000000000 1.00000000000000000 0.00000000000000000 
2 0.00000000000045475 0.00000000000000355 -1.00000000000000000 0.00000000000000000 -0.00000000000000000 -1.00000000000000000 5.00000000000000000
2 126.78568583027617933 -25.00000000000000000 1.00000000000000000 0.00000000000000000 -0.00000000000000000 1.00000000000000000 5.00000000000000000
1 485.84070096790878779 0.00000000000000000 0.00000000000000000 -1.00000000000000000 
1 0.00000000000000000 0.00000000000000000 1.00000000000000000 0.00000000000000000 
1 0.00000000000000000 -50.00000000000000000 1.00000000000000000 0.00000000000000000 
1 0.00000000000000000 0.00000000000000000 1.00000000000000000 0.00000000000000000 
1 0.00000000000000000 -50.00000000000000000 1.00000000000000000 0.00000000000000000 
1 0.00000000000000000 0.00000000000000000 1.00000000000000000 0.00000000000000000 
1 0.00000000000000000 -50.00000000000000000 1.00000000000000000 0.00000000000000000 
1 0.00000000000000000 0.00000000000000000 0.00000000000000000 -1.00000000000000000 
1 1250.09616680844192160 0.00000000000000000 0.00000000000000000 -1.00000000000000000 
1 0.00000000000000000 0.00000000000000000 0.00000000000000000 -1.00000000000000000 
1 6.28318530717958623 0.00000000000000000 0.00000000000000000 -1.00000000000000000 
1 0.00000000000000000 0.00000000000000000 0.00000000000000000 -1.00000000000000000 
1 6.28318530717958623 0.00000000000000000 0.00000000000000000 -1.00000000000000000 
1 0.00000000000000000 0.00000000000000000 0.00000000000000000 -1.00000000000000000 
1 225.09953451169849359 0.00000000000000000 0.00000000000000000 -1.00000000000000000 
1 0.00000000000000000 0.00000000000000000 1.00000000000000000 0.00000000000000000 
1 0.00000000000000000 -5.00000000000000000 1.00000000000000000 0.00000000000000000 
2 -0.00000000000000355 0.00000000000045475 0.00000000000000000 -1.00000000000000000 1.00000000000000000 0.00000000000000000 5.00000000000000000
2 80.00000000000000000 -25.00000000000000000 1.00000000000000000 0.00000000000000000 -0.00000000000000000 1.00000000000000000 5.00000000000000000
1 0.00000000000000000 0.00000000000000000 1.00000000000000000 0.00000000000000000 
1 0.00000000000000000 -5.00000000000000000 1.00000000000000000 0.00000000000000000 
2 -0.00000000000000355 0.00000000000022737 0.00000000000000000 -1.00000000000000000 1.00000000000000000 0.00000000000000000 5.00000000000000000
2 405.84070096790878779 -25.00000000000000000 1.00000000000000000 0.00000000000000000 -0.00000000000000000 1.00000000000000000 5.00000000000000000
1 0.00000000000000000 0.00000000000000000 1.00000000000000000 0.00000000000000000 
1 0.00000000000000000 -5.00000000000000000 1.00000000000000000 0.00000000000000000 
2 0.00000000000000355 0.00000000000045475 0.00000000000000000 1.00000000000000000 -1.00000000000000000 0.00000000000000000 5.00000000000000000
2 80.00000000000000000 -25.00000000000000000 1.00000000000000000 0.00000000000000000 -0.00000000000000000 1.00000000000000000 5.00000000000000000
1 0.00000000000000000 0.00000000000000000 1.00000000000000000 0.00000000000000000 
1 0.00000000000000000 -5.00000000000000000 1.00000000000000000 0.00000000000000000 
2 0.00000000000000355 0.00000000000090949 0.00000000000000000 1.00000000000000000 -1.00000000000000000 0.00000000000000000 5.00000000000000000
2 145.09953451169849359 -25.00000000000000000 1.00000000000000000 0.00000000000000000 -0.00000000000000000 1.00000000000000000 5.00000000000000000
1 0.00000000000000000 0.00000000000000000 0.00000000000000000 -1.00000000000000000 
1 6.28318530717958623 0.00000000000000000 0.00000000000000000 -1.00000000000000000 
1 0.00000000000000000 0.00000000000000000 0.00000000000000000 -1.00000000000000000 
1 6.28318530717958623 0.00000000000000000 0.00000000000000000 -1.00000000000000000 
1 0.00000000000000000 0.00000000000000000 0.00000000000000000 -1.00000000000000000 
1 6.28318530717958623 0.00000000000000000 0.00000000000000000 -1.00000000000000000 
1 0.00000000000000000 0.00000000000000000 0.00000000000000000 -1.00000000000000000 
1 6.28318530717958623 0.00000000000000000 0.00000000000000000 -1.00000000000000000 
Curves 22
1 2724.99999999999954525 -973.00000000000000000 0.00000000000000000 -0.00000000000000000 -0.00000000000000000 -1.00000000000000000 
1 2724.99999999999954525 -973.00000000000000000 0.00000000000000000 -1.00000000000000000 0.00000000000000000 0.00000000000000000 
1 2558.21431416972336592 -973.00000000000000000 0.00000000000000000 -0.00000000000000000 -0.00000000000000000 -1.00000000000000000 
2 -2684.99999999999954525 -25.00000000000000000 0.00000000000000000 0.00000000000000000 0.00000000000000000 1.00000000000000000 1.00000000000000000 0.00000000000000000 -0.00000000000000000 -0.00000000000000000 1.00000000000000000 0.00000000000000000 5.00000000000000000
2 -2598.21431416972336592 -25.00000000000000000 0.00000000000000000 0.00000000000000000 0.00000000000000000 1.00000000000000000 1.00000000000000000 0.00000000000000000 -0.00000000000000000 -0.00000000000000000 1.00000000000000000 0.00000000000000000 5.00000000000000000
1 3680.99999999999909051 -1357.15929903209121221 0.00000000000000000 -0.00000000000000000 -0.00000000000000000 -1.00000000000000000 
1 3680.99999999999909051 -1357.15929903209121221 0.00000000000000000 -0.92788670916328264 0.37286224662485429 0.00000000000000000 
1 2558.21431416972336592 -973.00000000000000000 0.00000000000000000 0.71809367563330351 -0.69594645844019642 0.00000000000000000 
1 3455.90046548830059692 -1843.00000000000000000 0.00000000000000000 1.00000000000000000 0.00000000000000000 0.00000000000000000 
1 3680.99999999999909051 -1843.00000000000000000 0.00000000000000000 0.00000000000000000 1.00000000000000000 0.00000000000000000 
1 3455.90046548830059692 -1843.00000000000000000 0.00000000000000000 -0.00000000000000000 -0.00000000000000000 -1.00000000000000000 
1 2679.99999999999954525 -973.00000000000000000 -25.00000000000000000 0.00000000000000000 -1.00000000000000000 0.00000000000000022 
1 2593.21431416972336592 -973.00000000000000000 -25.00000000000000000 0.00000000000000000 -1.00000000000000000 0.00000000000000022 
1 3680.99999999999909051 -1843.00000000000000000 0.00000000000000000 -0.00000000000000000 -0.00000000000000000 -1.00000000000000000 
2 -1763.00000000000000000 -25.00000000000000000 0.00000000000000000 0.00000000000000000 0.00000000000000000 1.00000000000000000 1.00000000000000000 0.00000000000000000 -0.00000000000000000 -0.00000000000000000 1.00000000000000000 0.00000000000000000 5.00000000000000000
2 -1437.15929903209121221 -25.00000000000000000 0.00000000000000000 0.00000000000000000 0.00000000000000000 1.00000000000000000 1.00000000000000000 0.00000000000000000 -0.00000000000000000 -0.00000000000000000 1.00000000000000000 0.00000000000000000 5.00000000000000000
2 3535.90046548830059692 -25.00000000000000000 0.00000000000000000 0.00000000000000000 0.00000000000000000 1.00000000000000000 1.00000000000000000 0.00000000000000000 -0.00000000000000000 -0.00000000000000000 1.00000000000000000 0.00000000000000000 5.00000000000000000
2 3600.99999999999909051 -25.00000000000000000 0.00000000000000000 0.00000000000000000 0.00000000000000000 1.00000000000000000 1.00000000000000000 0.00000000000000000 -0.00000000000000000 -0.00000000000000000 1.00000000000000000 0.00000000000000000 5.00000000000000000
1 3680.99999999999909051 -1758.00000000000000000 -25.00000000000000000 -1.00000000000000000 -0.00000000000000000 -0.00000000000000000 
1 3680.99999999999909051 -1432.15929903209121221 -25.00000000000000000 -1.00000000000000000 -0.00000000000000000 -0.00000000000000000 
1 3540.90046548830059692 -1843.00000000000000000 -25.00000000000000000 0.00000000000000000 1.00000000000000000 -0.00000000000000022 
1 3605.99999999999909051 -1843.00000000000000000 -25.00000000000000000 0.00000000000000000 1.00000000000000000 -0.00000000000000022 
Polygon3D 0
PolygonOnTriangulations 0
Surfaces 18
1 2724.99999999999954525 -973.00000000000000000 0.00000000000000000 0.00000000000000000 1.00000000000000000 -0.00000000000000000 -1.00000000000000000 0.00000000000000000 0.00000000000000000 0.00000000000000000 0.00000000000000000 1.00000000000000000 
1 2558.21431416972336592 -973.00000000000000000 0.00000000000000000 -0.69594645844019642 -0.71809367563330351 0.00000000000000000 0.71809367563330351 -0.69594645844019642 0.00000000000000000 0.00000000000000000 0.00000000000000000 1.00000000000000000 
2 2684.99999999999954525 -973.00000000000000000 -25.00000000000000000 0.00000000000000000 1.00000000000000000 -0.00000000000000022 -1.00000000000000000 0.00000000000000000 0.00000000000000000 0.00000000000000000 0.00000000000000022 1.00000000000000000 5.00000000000000000
1 2684.99999999999909051 -972.99999999999988631 -24.99999999999999645 0.00000000000000000 1.00000000000000000 -0.00000000000000000 1.00000000000000000 -0.00000000000000000 0.00000000000000000 0.00000000000000000 -0.00000000000000000 -1.00000000000000000 
2 2598.21431416972336592 -973.00000000000000000 -25.00000000000000000 0.00000000000000000 1.00000000000000000 -0.00000000000000022 -1.00000000000000000 0.00000000000000000 0.00000000000000000 0.00000000000000000 0.00000000000000022 1.00000000000000000 5.00000000000000000
1 2598.21431416972291117 -972.99999999999988631 -24.99999999999999645 0.00000000000000000 1.00000000000000000 -0.00000000000000000 1.00000000000000000 -0.00000000000000000 0.00000000000000000 0.00000000000000000 -0.00000000000000000 -1.00000000000000000 
1 3680.99999999999909051 -1357.15929903209121221 0.00000000000000000 0.37286224662485429 0.92788670916328264 -0.00000000000000000 -0.92788670916328264 0.37286224662485429 0.00000000000000000 0.00000000000000000 0.00000000000000000 1.00000000000000000 
1 3680.99999999999909051 -1843.00000000000000000 0.00000000000000000 1.00000000000000000 0.00000000000000000 0.00000000000000000 -0.00000000000000000 1.00000000000000000 0.00000000000000000 0.00000000000000000 -0.00000000000000000 1.00000000000000000 
1 3195.37367113074651570 -1366.33161794169768655 0.00000000000000000 0.00000000000000000 0.00000000000000000 1.00000000000000000 1.00000000000000000 0.00000000000000000 -0.00000000000000000 -0.00000000000000000 1.00000000000000000 0.00000000000000000 
1 3455.90046548830059692 -1843.00000000000000000 0.00000000000000000 0.00000000000000000 -1.00000000000000000 0.00000000000000000 1.00000000000000000 0.00000000000000000 0.00000000000000000 -0.00000000000000000 0.00000000000000000 1.00000000000000000 
2 3680.99999999999909051 -1763.00000000000000000 -25.00000000000000000 1.00000000000000000 0.00000000000000000 0.00000000000000000 -0.00000000000000000 1.00000000000000000 0.00000000000000000 0.00000000000000000 -0.00000000000000000 1.00000000000000000 5.00000000000000000
1 3680.99999999999909051 -1762.99999999999954525 -24.99999999999999645 1.00000000000000000 0.00000000000000000 0.00000000000000000 -0.00000000000000000 0.00000000000000000 1.00000000000000000 0.00000000000000000 -1.00000000000000000 0.00000000000000000 
2 3680.99999999999909051 -1437.15929903209121221 -25.00000000000000000 1.00000000000000000 0.00000000000000000 0.00000000000000000 -0.00000000000000000 1.00000000000000000 0.00000000000000000 0.00000000000000000 -0.00000000000000000 1.00000000000000000 5.00000000000000000
1 3680.99999999999909051 -1437.15929903209098484 -24.99999999999999645 1.00000000000000000 0.00000000000000000 0.00000000000000000 -0.00000000000000000 0.00000000000000000 1.00000000000000000 0.00000000000000000 -1.00000000000000000 0.00000000000000000 
2 3535.90046548830059692 -1843.00000000000000000 -25.00000000000000000 0.00000000000000000 -1.00000000000000000 0.00000000000000022 1.00000000000000000 0.00000000000000000 0.00000000000000000 -0.00000000000000000 0.00000000000000022 1.00000000000000000 5.00000000000000000
1 3535.90046548830014217 -1843.00000000000000000 -24.99999999999999645 -0.00000000000000000 -1.00000000000000000 -0.00000000000000000 0.00000000000000000 0.00000000000000000 -1.00000000000000000 1.00000000000000000 -0.00000000000000000 0.00000000000000000 
2 3600.99999999999909051 -1843.00000000000000000 -25.00000000000000000 0.00000000000000000 -1.00000000000000000 0.00000000000000022 1.00000000000000000 0.00000000000000000 0.00000000000000000 -0.00000000000000000 0.00000000000000022 1.00000000000000000 5.00000000000000000
1 3600.99999999999818101 -1843.00000000000000000 -24.99999999999999645 -0.00000000000000000 -1.00000000000000000 -0.00000000000000000 0.00000000000000000 0.00000000000000000 -1.00000000000000000 1.00000000000000000 -0.00000000000000000 0.00000000000000000 
Triangulations 0

TShapes 77
Ve
0.000000100000000
2724.999999999999545 -973.000000000000000 0.000000000000000
0 0

0101101
*
Ed
 0.000000100000000 1 1 0
1  1 0 0.000000000000000 50.000000000000000
2  1 1 0 0.000000000000000 50.000000000000000
0

0101000
+77 12 -77 14 *
Ve
0.000000100000000
2558.214314169723366 -973.000000000000000 0.000000000000000
0 0

0101101
*
Ed
 0.000000100000000 1 1 0
1  2 0 0.000000000000000 166.785685830276179
2  2 1 16 0.000000000000000 166.785685830276179
2  3 1 17 0.000000000000000 166.785685830276179
0

0101000
+77 0 -75 0 *
Ed
 0.000000100000000 1 1 0
1  3 0 0.000000000000000 50.000000000000000
2  4 1 0 0.000000000000000 50.000000000000000
2  5 2 0 0.000000000000000 50.000000000000000
0

0101000
+75 12 -75 14 *
Wi

0101100
+76 8 -74 15 +74 18 -73 8 *
Ve
0.000000100000000
-2679.999999999999545 -25.000000000000000 0.000000000000000
0 0

0101101
*
Ed
 0.000000100000000 1 1 0
1  4 0 0.000000000000000 6.283185307179586
2  6 3 22 0.000000000000000 6.283185307179586
2  7 3 24 0.000000000000000 6.283185307179586
2  8 4 25 0.000000000000000 6.283185307179586
2  9 1 26 0.000000000000000 6.283185307179586
0

0101000
+71 0 -71 0 *
Wi

0101100
-70 21 *
Ve
0.000000100000000
-2593.214314169723366 -25.000000000000000 0.000000000000000
0 0

0101101
*
Ed
 0.000000100000000 1 1 0
1  5 0 0.000000000000000 6.283185307179586
2  10 5 22 0.000000000000000 6.283185307179586
2  11 5 24 0.000000000000000 6.283185307179586
2  12 6 25 0.000000000000000 6.283185307179586
2  13 1 26 0.000000000000000 6.283185307179586
0

0101000
+68 0 -68 0 *
Wi

0101100
-67 21 *
Fa
0  0.000000100000000 1 8

0111000
+72 0 +69 0 +66 0 *
Ve
0.000000100000000
3680.999999999999091 -1357.159299032091212 0.000000000000000
0 0

0101101
*
Ed
 0.000000100000000 1 1 0
1  6 0 0.000000000000000 50.000000000000000
2  14 8 0 0.000000000000000 50.000000000000000
0

0101000
+64 12 -64 14 *
Ed
 0.000000100000000 1 1 0
1  7 0 0.000000000000000 1030.298193259032587
0

0101000
+64 0 -77 0 *
Wi

0101100
+63 0 -76 0 -62 12 +62 14 *
Fa
0  0.000000100000000 7 0

0111000
+61 0 *
Ve
0.000000100000000
3455.900465488300597 -1843.000000000000000 0.000000000000000
0 0

0101101
*
Ed
 0.000000100000000 1 1 0
1  8 0 0.000000000000000 1250.096166808441922
2  15 2 16 0.000000000000000 1250.096166808441922
2  16 2 17 0.000000000000000 1250.096166808441922
0

0101000
+75 0 -59 0 *
Ve
0.000000100000000
3680.999999999999091 -1843.000000000000000 0.000000000000000
0 0

0101101
*
Ed
 0.000000100000000 1 1 0
1  9 0 0.000000000000000 225.099534511698494
2  17 10 16 0.000000000000000 225.099534511698494
2  18 10 17 0.000000000000000 225.099534511698494
0

0101000
+59 0 -57 0 *
Ed
 0.000000100000000 1 1 0
1  10 0 0.000000000000000 485.840700967908788
2  19 8 16 0.000000000000000 485.840700967908788
2  20 8 17 0.000000000000000 485.840700967908788
0

0101000
+57 0 -64 0 *
Wi

0101100
+74 0 +58 0 +56 0 +55 0 +62 0 *
Fa
0  0.000000100000000 9 0

0111000
+54 28 *
Ed
 0.000000100000000 1 1 0
1  11 0 0.000000000000000 50.000000000000000
2  21 10 0 0.000000000000000 50.000000000000000
2  22 2 0 0.000000000000000 50.000000000000000
0

0101000
+59 12 -59 14 *
Wi

0101100
+73 0 -52 0 -58 12 +58 14 *
Fa
0  0.000000100000000 2 0

0111000
+51 0 *
Ed
 0.000000100000000 1 1 0
1  12 0 0.000000000000000 5.000000000000000
3  23 24CN 3 0 0.000000000000000 5.000000000000000
0

0101000
+71 21 -71 30 *
Wi

0101100
+49 0 -49 0 -70 21 +70 30 *
Fa
0  0.000000100000000 3 0

0111000
+48 0 *
Ed
 0.000000100000000 1 1 0
1  13 0 0.000000000000000 5.000000000000000
3  25 26CN 5 0 0.000000000000000 5.000000000000000
0

0101000
+68 21 -68 30 *
Wi

0101100
+46 0 -46 0 -67 21 +67 30 *
Fa
0  0.000000100000000 5 0

0111000
+45 0 *
Ed
 0.000000100000000 1 1 0
1  14 0 0.000000000000000 50.000000000000000
2  27 8 0 0.000000000000000 50.000000000000000
2  28 10 0 0.000000000000000 50.000000000000000
0

0101000
+57 12 -57 14 *
Wi

0101100
+43 32 -55 33 +55 34 -63 32 *
Ve
0.000000100000000
-1758.000000000000000 -25.000000000000000 0.000000000000000
0 0

0101101
*
Ed
 0.000000100000000 1 1 0
1  15 0 0.000000000000000 6.283185307179586
2  29 11 38 0.000000000000000 6.283185307179586
2  30 11 40 0.000000000000000 6.283185307179586
2  31 12 41 0.000000000000000 6.283185307179586
2  32 8 42 0.000000000000000 6.283185307179586
0

0101000
+41 0 -41 0 *
Wi

0101100
-40 37 *
Ve
0.000000100000000
-1432.159299032091212 -25.000000000000000 0.000000000000000
0 0

0101101
*
Ed
 0.000000100000000 1 1 0
1  16 0 0.000000000000000 6.283185307179586
2  33 13 38 0.000000000000000 6.283185307179586
2  34 13 40 0.000000000000000 6.283185307179586
2  35 14 41 0.000000000000000 6.283185307179586
2  36 8 42 0.000000000000000 6.283185307179586
0

0101000
+38 0 -38 0 *
Wi

0101100
-37 37 *
Fa
0  0.000000100000000 8 32

0111000
+42 0 +39 0 +36 0 *
Wi

0101100
+52 44 -56 45 +56 46 -43 44 *
Ve
0.000000100000000
3540.900465488300597 -25.000000000000000 0.000000000000000
0 0

0101101
*
Ed
 0.000000100000000 1 1 0
1  17 0 0.000000000000000 6.283185307179586
2  37 15 50 0.000000000000000 6.283185307179586
2  38 15 52 0.000000000000000 6.283185307179586
2  39 16 53 0.000000000000000 6.283185307179586
2  40 10 54 0.000000000000000 6.283185307179586
0

0101000
+33 0 -33 0 *
Wi

0101100
-32 49 *
Ve
0.000000100000000
3605.999999999999091 -25.000000000000000 0.000000000000000
0 0

0101101
*
Ed
 0.000000100000000 1 1 0
1  18 0 0.000000000000000 6.283185307179586
2  41 17 50 0.000000000000000 6.283185307179586
2  42 17 52 0.000000000000000 6.283185307179586
2  43 18 53 0.000000000000000 6.283185307179586
2  44 10 54 0.000000000000000 6.283185307179586
0

0101000
+30 0 -30 0 *
Wi

0101100
-29 49 *
Fa
0  0.000000100000000 10 44

0111000
+34 0 +31 0 +28 0 *
Wi

0101100
+70 0 *
Fa
0  0.000000100000000 4 0

0111000
+26 56 *
Wi

0101100
+67 0 *
Fa
0  0.000000100000000 6 0

0111000
+24 56 *
Ed
 0.000000100000000 1 1 0
1  19 0 0.000000000000000 5.000000000000000
3  45 46CN 11 0 0.000000000000000 5.000000000000000
0

0101000
+41 37 -41 57 *
Wi

0101100
+22 0 -22 0 -40 37 +40 57 *
Fa
0  0.000000100000000 11 0

0111000
+21 0 *
Ed
 0.000000100000000 1 1 0
1  20 0 0.000000000000000 5.000000000000000
3  47 48CN 13 0 0.000000000000000 5.000000000000000
0

0101000
+38 37 -38 57 *
Wi

0101100
+19 0 -19 0 -37 37 +37 57 *
Fa
0  0.000000100000000 13 0

0111000
+18 0 *
Ed
 0.000000100000000 1 1 0
1  21 0 0.000000000000000 5.000000000000000
3  49 50CN 15 0 0.000000000000000 5.000000000000000
0

0101000
+33 49 -33 58 *
Wi

0101100
+16 0 -16 0 -32 49 +32 58 *
Fa
0  0.000000100000000 15 0

0111000
+15 0 *
Ed
 0.000000100000000 1 1 0
1  22 0 0.000000000000000 5.000000000000000
3  51 52CN 17 0 0.000000000000000 5.000000000000000
0

0101000
+30 49 -30 58 *
Wi

0101100
+13 0 -13 0 -29 49 +29 58 *
Fa
0  0.000000100000000 17 0

0111000
+12 0 *
Wi

0101100
+40 0 *
Fa
0  0.000000100000000 12 0

0111000
+10 60 *
Wi

0101100
+37 0 *
Fa
0  0.000000100000000 14 0

0111000
+8 60 *
Wi

0101100
+32 0 *
Fa
0  0.000000100000000 16 0

0111000
+6 62 *
Wi

0101100
+29 0 *
Fa
0  0.000000100000000 18 0

0111000
+4 62 *
Sh

0101100
+65 0 +60 8 +53 27 -53 29 +50 8 -47 0 -44 0 +35 31 +27 43 +25 55 
+23 55 -20 31 -17 31 -14 43 -11 43 +9 59 +7 59 +5 61 +3 61 *
So

0100000
+2 0 *

+1 1 