
CASCADE Topology V1, (c) Matra-Datavision
Locations 20
1
1.000000000000000 0.000000000000000 0.000000000000000 0.000000000000000 
0.000000000000000 1.000000000000000 0.000000000000000 0.000000000000000 
0.000000000000000 0.000000000000000 1.000000000000000 0.000000000000000 
1
1.000000000000000 0.000000000000000 0.000000000000000 0.000000000000000 
0.000000000000000 -0.000000000000000 -1.000000000000000 0.000000000000000 
0.000000000000000 1.000000000000000 -0.000000000000000 0.000000000000000 
1
1.000000000000000 0.000000000000000 0.000000000000000 0.000000000000000 
0.000000000000000 -0.000000000000000 -1.000000000000000 0.000000000000000 
0.000000000000000 1.000000000000000 -0.000000000000000 0.000000000000000 
2  1 1 2 1 3 -1 0
1
1.000000000000000 0.000000000000000 0.000000000000000 -0.000000000000000 
0.000000000000000 1.000000000000000 0.000000000000000 -0.000000000000000 
0.000000000000000 0.000000000000000 1.000000000000000 -400.000000000000000 
2  1 1 2 1 3 -1 5 1 0
2  3 1 2 -1 1 -1 0
2  5 -1 3 1 2 -1 1 -1 0
2  2 -1 1 -1 0
1
1.000000000000000 0.000000000000000 0.000000000000000 0.000000000000000 
0.000000000000000 -0.000000000000000 -1.000000000000000 0.000000000000000 
0.000000000000000 1.000000000000000 -0.000000000000000 0.000000000000000 
2  10 -1 3 1 2 -1 1 -1 0
1
1.000000000000000 0.000000000000000 0.000000000000000 0.000000000000000 
0.000000000000000 -0.000000000000000 -1.000000000000000 0.000000000000000 
0.000000000000000 1.000000000000000 -0.000000000000000 0.000000000000000 
1
1.000000000000000 0.000000000000000 0.000000000000000 0.000000000000000 
0.000000000000000 -0.000000000000000 -1.000000000000000 0.000000000000000 
0.000000000000000 1.000000000000000 -0.000000000000000 0.000000000000000 
1
1.000000000000000 0.000000000000000 0.000000000000000 0.000000000000000 
0.000000000000000 -0.000000000000000 -1.000000000000000 0.000000000000000 
0.000000000000000 1.000000000000000 -0.000000000000000 0.000000000000000 
1
1.000000000000000 0.000000000000000 0.000000000000000 0.000000000000000 
0.000000000000000 -0.000000000000000 -1.000000000000000 0.000000000000000 
0.000000000000000 1.000000000000000 -0.000000000000000 0.000000000000000 
1
1.000000000000000 0.000000000000000 0.000000000000000 0.000000000000000 
0.000000000000000 -0.000000000000000 -1.000000000000000 0.000000000000000 
0.000000000000000 1.000000000000000 -0.000000000000000 0.000000000000000 
2  12 1 13 -1 14 1 15 -1 16 1 10 -1 3 1 2 -1 1 -1 0
2  3 -1 0
2  1 1 2 1 0
2  3 -1 5 1 0
Curve2ds 105
1 0.00000000000000000 0.00000000000000000 0.00000000000000000 -1.00000000000000000 
1 4803.00000000000000000 0.00000000000000000 0.00000000000000000 -1.00000000000000000 
1 7299.13714219493158453 0.00000000000000000 0.00000000000000000 -1.00000000000000000 
1 0.00000000000000000 0.00000000000000000 0.00000000000000000 -1.00000000000000000 
1 0.00000000000000000 0.00000000000000000 1.00000000000000000 0.00000000000000000 
1 0.00000000000000000 -400.00000000000000000 1.00000000000000000 0.00000000000000000 
1 -3742.37381748563302608 -2266.97572754065913614 1.00000000000000000 -0.00000000000000000 
1 3525.53987445417169511 0.00000000000000000 0.00000000000000000 -1.00000000000000000 
1 3556.76332470929855845 -2266.97572754065913614 0.45636473489097812 0.88979280102048885 
1 0.00000000000000000 0.00000000000000000 1.00000000000000000 0.00000000000000000 
1 0.00000000000000000 -400.00000000000000000 1.00000000000000000 0.00000000000000000 
1 -874.23887479957284086 -2356.81589285676909640 -0.45636473489097812 0.88979280102048885 
1 5165.69539486214853241 870.02427245934086386 -1.00000000000000000 0.00000000000000000 
1 0.00000000000000000 0.00000000000000000 1.00000000000000000 0.00000000000000000 
1 0.00000000000000000 -400.00000000000000000 1.00000000000000000 0.00000000000000000 
1 -2483.17094495242326957 780.18410714323090360 1.00000000000000000 0.00000000000000000 
1 1788.62618251436697392 870.02427245934086386 0.00000000000000000 1.00000000000000000 
1 0.00000000000000000 0.00000000000000000 1.00000000000000000 0.00000000000000000 
1 0.00000000000000000 -400.00000000000000000 1.00000000000000000 0.00000000000000000 
1 893.89826739535874367 780.18410714323090360 0.00000000000000000 1.00000000000000000 
1 1788.62618251436697392 1441.02427245934086386 -1.00000000000000000 0.00000000000000000 
1 0.00000000000000000 0.00000000000000000 1.00000000000000000 0.00000000000000000 
1 0.00000000000000000 -400.00000000000000000 1.00000000000000000 0.00000000000000000 
1 893.89826739535874367 1351.18410714323090360 1.00000000000000000 0.00000000000000000 
1 0.00000000000000000 0.00000000000000000 0.00000000000000000 -1.00000000000000000 
1 -728.37381748563302608 1441.02427245934086386 0.00000000000000000 -1.00000000000000000 
1 0.00000000000000000 0.00000000000000000 1.00000000000000000 0.00000000000000000 
1 0.00000000000000000 -400.00000000000000000 1.00000000000000000 0.00000000000000000 
1 3410.89826739535874367 1351.18410714323090360 0.00000000000000000 -1.00000000000000000 
1 0.00000000000000000 0.00000000000000000 0.00000000000000000 -1.00000000000000000 
1 201.00000000000000000 0.00000000000000000 0.00000000000000000 -1.00000000000000000 
1 -728.37381748563302608 -408.97572754065913614 -1.00000000000000000 0.00000000000000000 
1 0.00000000000000000 0.00000000000000000 1.00000000000000000 0.00000000000000000 
1 0.00000000000000000 -400.00000000000000000 1.00000000000000000 0.00000000000000000 
1 3410.89826739535874367 -498.81589285676909640 1.00000000000000000 0.00000000000000000 
1 2945.00000000000000000 0.00000000000000000 0.00000000000000000 -1.00000000000000000 
1 0.00000000000000000 0.00000000000000000 0.00000000000000000 -1.00000000000000000 
1 0.00000000000000000 0.00000000000000000 1.00000000000000000 0.00000000000000000 
1 0.00000000000000000 -400.00000000000000000 1.00000000000000000 0.00000000000000000 
1 -929.37381748563302608 -408.97572754065913614 0.00000000000000000 1.00000000000000000 
1 2813.00000000000000000 0.00000000000000000 0.00000000000000000 -1.00000000000000000 
1 0.00000000000000000 0.00000000000000000 0.00000000000000000 -1.00000000000000000 
1 0.00000000000000000 0.00000000000000000 1.00000000000000000 0.00000000000000000 
1 0.00000000000000000 -400.00000000000000000 1.00000000000000000 0.00000000000000000 
1 -929.37381748563302608 2536.02427245934086386 -1.00000000000000000 0.00000000000000000 
1 -3742.37381748563302608 2536.02427245934086386 0.00000000000000000 -1.00000000000000000 
1 0.00000000000000000 0.00000000000000000 1.00000000000000000 0.00000000000000000 
1 0.00000000000000000 -400.00000000000000000 1.00000000000000000 0.00000000000000000 
1 0.00000000000000000 -400.00000000000000000 1.00000000000000000 0.00000000000000000 
1 1245.62618251436697392 1299.02427245934086386 -1.00000000000000000 0.00000000000000000 
1 0.00000000000000000 0.00000000000000000 1.00000000000000000 0.00000000000000000 
1 0.00000000000000000 -400.00000000000000000 1.00000000000000000 0.00000000000000000 
1 1436.89826739535874367 1209.18410714323090360 1.00000000000000000 0.00000000000000000 
1 1403.30939152757082411 1140.97007838168883609 -0.70627545748246401 0.70793712867594127 
1 0.00000000000000000 0.00000000000000000 1.00000000000000000 0.00000000000000000 
1 0.00000000000000000 -400.00000000000000000 1.00000000000000000 0.00000000000000000 
1 1279.21505838215489348 1051.12991306557887583 0.70627545748246401 0.70793712867594127 
1 1488.62618251436697392 934.65437891615374610 -0.38214059672066664 0.92410419560673618 
1 0.00000000000000000 0.00000000000000000 1.00000000000000000 0.00000000000000000 
1 0.00000000000000000 -400.00000000000000000 1.00000000000000000 0.00000000000000000 
1 1193.89826739535874367 844.81421360004378585 0.38214059672066664 0.92410419560673618 
1 1488.62618251436697392 711.39416600252798162 0.00000000000000000 1.00000000000000000 
1 0.00000000000000000 0.00000000000000000 1.00000000000000000 0.00000000000000000 
1 0.00000000000000000 -400.00000000000000000 1.00000000000000000 0.00000000000000000 
1 1193.89826739535874367 621.55400068641802136 0.00000000000000000 1.00000000000000000 
1 1403.30939152757082411 505.07846653699289163 0.38214059672066664 0.92410419560673618 
1 0.00000000000000000 0.00000000000000000 1.00000000000000000 0.00000000000000000 
1 0.00000000000000000 -400.00000000000000000 1.00000000000000000 0.00000000000000000 
1 1279.21505838215489348 415.23830122088293137 -0.38214059672066664 0.92410419560673618 
1 1245.62618251436697392 347.02427245934086386 0.70627545748246401 0.70793712867594127 
1 0.00000000000000000 0.00000000000000000 1.00000000000000000 0.00000000000000000 
1 0.00000000000000000 -400.00000000000000000 1.00000000000000000 0.00000000000000000 
1 1436.89826739535874367 257.18410714323090360 -0.70627545748246401 0.70793712867594127 
1 -728.36381748563280780 347.02427245934086386 1.00000000000000000 -0.00000000000000000 
1 0.00000000000000000 0.00000000000000000 1.00000000000000000 0.00000000000000000 
1 0.00000000000000000 -400.00000000000000000 1.00000000000000000 0.00000000000000000 
1 3410.88826739535852539 257.18410714323090360 -1.00000000000000000 -0.00000000000000000 
1 -728.36381748563280780 1299.02427245934086386 0.00000000000000000 -1.00000000000000000 
1 0.00000000000000000 0.00000000000000000 1.00000000000000000 0.00000000000000000 
1 0.00000000000000000 -400.00000000000000000 1.00000000000000000 0.00000000000000000 
1 3410.88826739535852539 1209.18410714323090360 0.00000000000000000 -1.00000000000000000 
1 -1722.37381748563302608 -1185.97572754065913614 -1.00000000000000000 0.00000000000000000 
1 -3622.37381748563302608 -1185.97572754065913614 0.00000000000000000 1.00000000000000000 
1 -3622.37381748563302608 -223.97572754065913614 1.00000000000000000 -0.00000000000000000 
1 -1722.37381748563302608 -223.97572754065913614 0.69544056391038211 -0.71858362218186544 
1 -1566.46750132012630274 -385.07033605946548960 0.37511090214637616 -0.92697994104022119 
1 -1482.37381748563302608 -592.88396567328732090 0.00000000000000000 -1.00000000000000000 
1 -1482.37381748563302608 -817.06748940803117875 -0.37511090214637616 -0.92697994104022119 
1 -1566.46750132012630274 -1024.88111902185301005 -0.69544056391038256 -0.71858362218186489 
1 4092.63618251436719220 870.01427245934064558 -1.00000000000000000 0.00000000000000000 
1 0.00000000000000000 0.00000000000000000 1.00000000000000000 0.00000000000000000 
1 0.00000000000000000 -400.00000000000000000 1.00000000000000000 0.00000000000000000 
1 -1410.11173260464147461 780.17410714323068532 1.00000000000000000 0.00000000000000000 
1 4092.63618251436719220 29.02427245934086386 0.00000000000000000 1.00000000000000000 
1 0.00000000000000000 0.00000000000000000 1.00000000000000000 0.00000000000000000 
1 0.00000000000000000 -400.00000000000000000 1.00000000000000000 0.00000000000000000 
1 -1410.11173260464147461 -60.81589285676909640 0.00000000000000000 1.00000000000000000 
1 1999.63618251436719220 29.02427245934086386 1.00000000000000000 -0.00000000000000000 
1 0.00000000000000000 0.00000000000000000 1.00000000000000000 0.00000000000000000 
1 0.00000000000000000 -400.00000000000000000 1.00000000000000000 0.00000000000000000 
1 682.88826739535852539 -60.81589285676909640 -1.00000000000000000 -0.00000000000000000 
1 1999.63618251436719220 870.01427245934064558 0.00000000000000000 -1.00000000000000000 
1 0.00000000000000000 0.00000000000000000 1.00000000000000000 0.00000000000000000 
1 0.00000000000000000 -400.00000000000000000 1.00000000000000000 0.00000000000000000 
1 682.88826739535852539 780.17410714323068532 0.00000000000000000 -1.00000000000000000 
Curves 60
1 0.00000000000000000 0.00000000000000000 0.00000000000000000 -0.00000000000000000 -0.00000000000000000 -1.00000000000000000 
1 0.00000000000000000 7299.13714219493158453 0.00000000000000000 -0.00000000000000000 -0.00000000000000000 -1.00000000000000000 
1 0.00000000000000000 0.00000000000000000 0.00000000000000000 0.00000000000000000 1.00000000000000000 0.00000000000000000 
1 3137.00000000000000000 8908.06921234778201324 0.00000000000000000 -0.00000000000000000 -0.00000000000000000 -1.00000000000000000 
1 0.00000000000000000 7299.13714219493158453 0.00000000000000000 0.88979280102048885 0.45636473489097812 0.00000000000000000 
1 3137.00000000000000000 5531.00000000000000000 0.00000000000000000 -0.00000000000000000 -0.00000000000000000 -1.00000000000000000 
1 3137.00000000000000000 8908.06921234778201324 0.00000000000000000 0.00000000000000000 -1.00000000000000000 0.00000000000000000 
1 3708.00000000000000000 5531.00000000000000000 0.00000000000000000 -0.00000000000000000 -0.00000000000000000 -1.00000000000000000 
1 3137.00000000000000000 5531.00000000000000000 0.00000000000000000 1.00000000000000000 0.00000000000000000 0.00000000000000000 
1 3708.00000000000000000 3014.00000000000000000 0.00000000000000000 -0.00000000000000000 -0.00000000000000000 -1.00000000000000000 
1 3708.00000000000000000 5531.00000000000000000 0.00000000000000000 0.00000000000000000 -1.00000000000000000 0.00000000000000000 
1 1858.00000000000000000 3014.00000000000000000 0.00000000000000000 -0.00000000000000000 -0.00000000000000000 -1.00000000000000000 
1 3708.00000000000000000 3014.00000000000000000 0.00000000000000000 -1.00000000000000000 0.00000000000000000 0.00000000000000000 
1 1858.00000000000000000 2813.00000000000000000 0.00000000000000000 -0.00000000000000000 -0.00000000000000000 -1.00000000000000000 
1 1858.00000000000000000 3014.00000000000000000 0.00000000000000000 0.00000000000000000 -1.00000000000000000 0.00000000000000000 
1 4803.00000000000000000 2813.00000000000000000 0.00000000000000000 -0.00000000000000000 -0.00000000000000000 -1.00000000000000000 
1 1858.00000000000000000 2813.00000000000000000 0.00000000000000000 1.00000000000000000 0.00000000000000000 0.00000000000000000 
1 4803.00000000000000000 0.00000000000000000 0.00000000000000000 -0.00000000000000000 -0.00000000000000000 -1.00000000000000000 
1 4803.00000000000000000 2813.00000000000000000 0.00000000000000000 0.00000000000000000 -1.00000000000000000 0.00000000000000000 
1 4803.00000000000000000 0.00000000000000000 0.00000000000000000 -1.00000000000000000 0.00000000000000000 0.00000000000000000 
1 3566.00000000000000000 4988.00000000000000000 0.00000000000000000 -0.00000000000000000 -0.00000000000000000 -1.00000000000000000 
1 3566.00000000000000000 3014.01000000000021828 0.00000000000000000 -0.00000000000000000 -0.00000000000000000 -1.00000000000000000 
1 3566.00000000000000000 4988.00000000000000000 0.00000000000000000 0.00000000000000000 -1.00000000000000000 0.00000000000000000 
1 3407.94580592234797223 5145.68320901320385019 0.00000000000000000 -0.00000000000000000 -0.00000000000000000 -1.00000000000000000 
1 3407.94580592234797223 5145.68320901320385019 0.00000000000000000 0.70793712867594127 -0.70627545748246401 0.00000000000000000 
1 3201.63010645681288224 5231.00000000000000000 0.00000000000000000 -0.00000000000000000 -0.00000000000000000 -1.00000000000000000 
1 3201.63010645681288224 5231.00000000000000000 0.00000000000000000 0.92410419560673618 -0.38214059672066664 0.00000000000000000 
1 2978.36989354318711776 5231.00000000000000000 0.00000000000000000 -0.00000000000000000 -0.00000000000000000 -1.00000000000000000 
1 2978.36989354318711776 5231.00000000000000000 0.00000000000000000 1.00000000000000000 0.00000000000000000 0.00000000000000000 
1 2772.05419407765202777 5145.68320901320385019 0.00000000000000000 -0.00000000000000000 -0.00000000000000000 -1.00000000000000000 
1 2772.05419407765202777 5145.68320901320385019 0.00000000000000000 0.92410419560673618 0.38214059672066664 0.00000000000000000 
1 2614.00000000000000000 4988.00000000000000000 0.00000000000000000 -0.00000000000000000 -0.00000000000000000 -1.00000000000000000 
1 2614.00000000000000000 4988.00000000000000000 0.00000000000000000 0.70793712867594127 0.70627545748246401 0.00000000000000000 
1 2614.00000000000000000 3014.01000000000021828 0.00000000000000000 -0.00000000000000000 -0.00000000000000000 -1.00000000000000000 
1 2614.00000000000000000 3014.01000000000021828 0.00000000000000000 0.00000000000000000 1.00000000000000000 0.00000000000000000 
1 3566.00000000000000000 3014.01000000000021828 0.00000000000000000 -1.00000000000000000 0.00000000000000000 0.00000000000000000 
1 1081.00000000000000000 2020.00000000000000000 0.00000000000000000 -0.00000000000000000 -0.00000000000000000 -1.00000000000000000 
1 1081.00000000000000000 120.00000000000000000 0.00000000000000000 -0.00000000000000000 -0.00000000000000000 -1.00000000000000000 
1 1081.00000000000000000 2020.00000000000000000 0.00000000000000000 0.00000000000000000 -1.00000000000000000 0.00000000000000000 
1 2043.00000000000000000 120.00000000000000000 0.00000000000000000 -0.00000000000000000 -0.00000000000000000 -1.00000000000000000 
1 1081.00000000000000000 120.00000000000000000 0.00000000000000000 1.00000000000000000 0.00000000000000000 0.00000000000000000 
1 2043.00000000000000000 2020.00000000000000000 0.00000000000000000 -0.00000000000000000 -0.00000000000000000 -1.00000000000000000 
1 2043.00000000000000000 120.00000000000000000 0.00000000000000000 0.00000000000000000 1.00000000000000000 0.00000000000000000 
1 1881.90539148119364654 2175.90631616550672334 0.00000000000000000 -0.00000000000000000 -0.00000000000000000 -1.00000000000000000 
1 2043.00000000000000000 2020.00000000000000000 0.00000000000000000 -0.71858362218186544 0.69544056391038211 0.00000000000000000 
1 1674.09176186737181524 2260.00000000000000000 0.00000000000000000 -0.00000000000000000 -0.00000000000000000 -1.00000000000000000 
1 1881.90539148119364654 2175.90631616550672334 0.00000000000000000 -0.92697994104022119 0.37511090214637616 0.00000000000000000 
1 1449.90823813262795738 2260.00000000000000000 0.00000000000000000 -0.00000000000000000 -0.00000000000000000 -1.00000000000000000 
1 1674.09176186737181524 2260.00000000000000000 0.00000000000000000 -1.00000000000000000 0.00000000000000000 0.00000000000000000 
1 1242.09460851880612609 2175.90631616550672334 0.00000000000000000 -0.00000000000000000 -0.00000000000000000 -1.00000000000000000 
1 1449.90823813262795738 2260.00000000000000000 0.00000000000000000 -0.92697994104022119 -0.37511090214637616 0.00000000000000000 
1 1242.09460851880612609 2175.90631616550672334 0.00000000000000000 -0.71858362218186489 -0.69544056391038256 0.00000000000000000 
1 3136.98999999999978172 7835.01000000000021828 0.00000000000000000 -0.00000000000000000 -0.00000000000000000 -1.00000000000000000 
1 3136.98999999999978172 5742.01000000000021828 0.00000000000000000 -0.00000000000000000 -0.00000000000000000 -1.00000000000000000 
1 3136.98999999999978172 7835.01000000000021828 0.00000000000000000 0.00000000000000000 -1.00000000000000000 0.00000000000000000 
1 2296.00000000000000000 7835.01000000000021828 0.00000000000000000 -0.00000000000000000 -0.00000000000000000 -1.00000000000000000 
1 2296.00000000000000000 7835.01000000000021828 0.00000000000000000 1.00000000000000000 0.00000000000000000 0.00000000000000000 
1 2296.00000000000000000 5742.01000000000021828 0.00000000000000000 -0.00000000000000000 -0.00000000000000000 -1.00000000000000000 
1 2296.00000000000000000 5742.01000000000021828 0.00000000000000000 0.00000000000000000 1.00000000000000000 0.00000000000000000 
1 3136.98999999999978172 5742.01000000000021828 0.00000000000000000 -1.00000000000000000 0.00000000000000000 0.00000000000000000 
Polygon3D 0
PolygonOnTriangulations 0
Surfaces 33
1 0.00000000000000000 0.00000000000000000 0.00000000000000000 1.00000000000000000 0.00000000000000000 0.00000000000000000 -0.00000000000000000 1.00000000000000000 0.00000000000000000 0.00000000000000000 -0.00000000000000000 1.00000000000000000 
1 4803.00000000000000000 0.00000000000000000 0.00000000000000000 0.00000000000000000 1.00000000000000000 -0.00000000000000000 -1.00000000000000000 0.00000000000000000 0.00000000000000000 0.00000000000000000 0.00000000000000000 1.00000000000000000 
1 0.00000000000000000 7299.13714219493158453 0.00000000000000000 0.45636473489097812 -0.88979280102048885 0.00000000000000000 0.88979280102048885 0.45636473489097812 0.00000000000000000 -0.00000000000000000 0.00000000000000000 1.00000000000000000 
1 2266.97572754065913614 -0.00000000000083097 3742.37381748563302608 -0.00000000000000000 1.00000000000000000 0.00000000000000022 0.00000000000000000 -0.00000000000000022 1.00000000000000000 1.00000000000000000 0.00000000000000000 0.00000000000000000 
1 2356.81589285676909640 -0.00000000000142661 6424.89826739535874367 0.00000000000000000 -1.00000000000000000 -0.00000000000000022 0.00000000000000000 0.00000000000000022 -1.00000000000000000 1.00000000000000000 0.00000000000000000 0.00000000000000000 
1 3137.00000000000000000 8908.06921234778201324 0.00000000000000000 -1.00000000000000000 0.00000000000000000 0.00000000000000000 0.00000000000000000 -1.00000000000000000 0.00000000000000000 0.00000000000000000 0.00000000000000000 1.00000000000000000 
1 3137.00000000000000000 5531.00000000000000000 0.00000000000000000 0.00000000000000000 -1.00000000000000000 0.00000000000000000 1.00000000000000000 0.00000000000000000 0.00000000000000000 -0.00000000000000000 0.00000000000000000 1.00000000000000000 
1 3708.00000000000000000 5531.00000000000000000 0.00000000000000000 -1.00000000000000000 0.00000000000000000 0.00000000000000000 0.00000000000000000 -1.00000000000000000 0.00000000000000000 0.00000000000000000 0.00000000000000000 1.00000000000000000 
1 3708.00000000000000000 3014.00000000000000000 0.00000000000000000 0.00000000000000000 1.00000000000000000 -0.00000000000000000 -1.00000000000000000 0.00000000000000000 0.00000000000000000 0.00000000000000000 0.00000000000000000 1.00000000000000000 
1 1858.00000000000000000 3014.00000000000000000 0.00000000000000000 -1.00000000000000000 0.00000000000000000 0.00000000000000000 0.00000000000000000 -1.00000000000000000 0.00000000000000000 0.00000000000000000 0.00000000000000000 1.00000000000000000 
1 1858.00000000000000000 2813.00000000000000000 0.00000000000000000 0.00000000000000000 -1.00000000000000000 0.00000000000000000 1.00000000000000000 0.00000000000000000 0.00000000000000000 -0.00000000000000000 0.00000000000000000 1.00000000000000000 
1 4803.00000000000000000 2813.00000000000000000 0.00000000000000000 -1.00000000000000000 0.00000000000000000 0.00000000000000000 0.00000000000000000 -1.00000000000000000 0.00000000000000000 0.00000000000000000 0.00000000000000000 1.00000000000000000 
1 4803.00000000000000000 0.00000000000000000 -400.00000000000000000 0.00000000000000000 -1.00000000000000000 0.00000000000000000 -1.00000000000000000 0.00000000000000000 0.00000000000000000 -0.00000000000000000 -0.00000000000000000 -1.00000000000000000 
1 3566.00000000000000000 4988.00000000000000000 0.00000000000000000 -1.00000000000000000 0.00000000000000000 0.00000000000000000 0.00000000000000000 -1.00000000000000000 0.00000000000000000 0.00000000000000000 0.00000000000000000 1.00000000000000000 
1 3407.94580592234797223 5145.68320901320385019 0.00000000000000000 -0.70627545748246401 -0.70793712867594127 0.00000000000000000 0.70793712867594127 -0.70627545748246401 0.00000000000000000 0.00000000000000000 0.00000000000000000 1.00000000000000000 
1 3201.63010645681288224 5231.00000000000000000 0.00000000000000000 -0.38214059672066664 -0.92410419560673618 0.00000000000000000 0.92410419560673618 -0.38214059672066664 0.00000000000000000 0.00000000000000000 0.00000000000000000 1.00000000000000000 
1 2978.36989354318711776 5231.00000000000000000 0.00000000000000000 0.00000000000000000 -1.00000000000000000 0.00000000000000000 1.00000000000000000 0.00000000000000000 0.00000000000000000 -0.00000000000000000 0.00000000000000000 1.00000000000000000 
1 2772.05419407765202777 5145.68320901320385019 0.00000000000000000 0.38214059672066664 -0.92410419560673618 0.00000000000000000 0.92410419560673618 0.38214059672066664 0.00000000000000000 -0.00000000000000000 0.00000000000000000 1.00000000000000000 
1 2614.00000000000000000 4988.00000000000000000 0.00000000000000000 0.70627545748246401 -0.70793712867594127 0.00000000000000000 0.70793712867594127 0.70627545748246401 0.00000000000000000 -0.00000000000000000 0.00000000000000000 1.00000000000000000 
1 2614.00000000000000000 3014.01000000000021828 0.00000000000000000 1.00000000000000000 0.00000000000000000 0.00000000000000000 -0.00000000000000000 1.00000000000000000 0.00000000000000000 0.00000000000000000 -0.00000000000000000 1.00000000000000000 
1 3566.00000000000000000 3014.01000000000021828 0.00000000000000000 0.00000000000000000 1.00000000000000000 -0.00000000000000000 -1.00000000000000000 0.00000000000000000 0.00000000000000000 0.00000000000000000 0.00000000000000000 1.00000000000000000 
1 1081.00000000000000000 2020.00000000000000000 0.00000000000000000 -1.00000000000000000 0.00000000000000000 0.00000000000000000 0.00000000000000000 -1.00000000000000000 0.00000000000000000 0.00000000000000000 0.00000000000000000 1.00000000000000000 
1 1081.00000000000000000 120.00000000000000000 0.00000000000000000 0.00000000000000000 -1.00000000000000000 0.00000000000000000 1.00000000000000000 0.00000000000000000 0.00000000000000000 -0.00000000000000000 0.00000000000000000 1.00000000000000000 
1 2043.00000000000000000 120.00000000000000000 0.00000000000000000 1.00000000000000000 0.00000000000000000 0.00000000000000000 -0.00000000000000000 1.00000000000000000 0.00000000000000000 0.00000000000000000 -0.00000000000000000 1.00000000000000000 
1 2043.00000000000000000 2020.00000000000000000 0.00000000000000000 0.69544056391038211 0.71858362218186544 -0.00000000000000000 -0.71858362218186544 0.69544056391038211 0.00000000000000000 0.00000000000000000 0.00000000000000000 1.00000000000000000 
1 1881.90539148119364654 2175.90631616550672334 0.00000000000000000 0.37511090214637616 0.92697994104022119 -0.00000000000000000 -0.92697994104022119 0.37511090214637616 0.00000000000000000 0.00000000000000000 0.00000000000000000 1.00000000000000000 
1 1674.09176186737181524 2260.00000000000000000 0.00000000000000000 0.00000000000000000 1.00000000000000000 -0.00000000000000000 -1.00000000000000000 0.00000000000000000 0.00000000000000000 0.00000000000000000 0.00000000000000000 1.00000000000000000 
1 1449.90823813262795738 2260.00000000000000000 0.00000000000000000 -0.37511090214637616 0.92697994104022119 0.00000000000000000 -0.92697994104022119 -0.37511090214637616 0.00000000000000000 0.00000000000000000 0.00000000000000000 1.00000000000000000 
1 1242.09460851880612609 2175.90631616550672334 0.00000000000000000 -0.69544056391038256 0.71858362218186489 0.00000000000000000 -0.71858362218186489 -0.69544056391038256 0.00000000000000000 0.00000000000000000 0.00000000000000000 1.00000000000000000 
1 3136.98999999999978172 7835.01000000000021828 0.00000000000000000 -1.00000000000000000 0.00000000000000000 0.00000000000000000 0.00000000000000000 -1.00000000000000000 0.00000000000000000 0.00000000000000000 0.00000000000000000 1.00000000000000000 
1 2296.00000000000000000 7835.01000000000021828 0.00000000000000000 0.00000000000000000 -1.00000000000000000 0.00000000000000000 1.00000000000000000 0.00000000000000000 0.00000000000000000 -0.00000000000000000 0.00000000000000000 1.00000000000000000 
1 2296.00000000000000000 5742.01000000000021828 0.00000000000000000 1.00000000000000000 0.00000000000000000 0.00000000000000000 -0.00000000000000000 1.00000000000000000 0.00000000000000000 0.00000000000000000 -0.00000000000000000 1.00000000000000000 
1 3136.98999999999978172 5742.01000000000021828 0.00000000000000000 0.00000000000000000 1.00000000000000000 -0.00000000000000000 -1.00000000000000000 0.00000000000000000 0.00000000000000000 0.00000000000000000 0.00000000000000000 1.00000000000000000 
Triangulations 0

TShapes 157
Ve
0.000000100000028
0.000000000000000 0.000000000000000 0.000000000000000
0 0

0101101
*
Ed
 0.000000100000000 1 1 0
1  1 0 0.000000000000000 400.000000000000000
2  1 1 0 0.000000000000000 400.000000000000000
2  2 2 0 0.000000000000000 400.000000000000000
0

0101000
+157 4 -157 6 *
Ve
0.000000100000455
0.000000000000000 7299.137142194931585 0.000000000000000
0 0

0101101
*
Ed
 0.000000100000000 1 1 0
1  2 0 0.000000000000000 400.000000000000000
2  3 1 0 0.000000000000000 400.000000000000000
2  4 3 0 0.000000000000000 400.000000000000000
0

0101000
+155 4 -155 6 *
Ed
 0.000000100000000 1 1 0
1  3 0 0.000000000000000 7299.137142194931585
2  5 1 7 0.000000000000000 7299.137142194931585
2  6 1 8 0.000000000000000 7299.137142194931585
2  7 4 9 0.000000000000000 7299.137142194931585
0

0101000
+157 0 -155 0 *
Wi

0101100
+156 0 -154 0 -153 4 +153 6 *
Fa
0  0.000000100000000 1 0

0111000
+152 0 *
Ve
0.000000100000000
3137.000000000000000 8908.069212347782013 0.000000000000000
0 0

0101101
*
Ed
 0.000000100000000 1 1 0
1  4 0 0.000000000000000 400.000000000000000
2  8 3 0 0.000000000000000 400.000000000000000
0

0101000
+150 4 -150 6 *
Ed
 0.000000100000000 1 1 0
1  5 0 0.000000000000000 3525.539874454171695
2  9 4 9 0.000000000000000 3525.539874454171695
2  10 3 7 0.000000000000000 3525.539874454171695
2  11 3 8 0.000000000000000 3525.539874454171695
2  12 5 11 0.000000000000000 3525.539874454171695
0

0101000
+155 0 -150 0 *
Wi

0101100
+154 0 -149 0 -148 4 +148 6 *
Fa
0  0.000000100000000 3 0

0111000
+147 0 *
Ve
0.000000100000000
3137.000000000000000 5531.000000000000000 0.000000000000000
0 0

0101101
*
Ed
 0.000000100000000 1 1 0
1  6 0 0.000000000000000 400.000000000000000
0

0101000
+145 4 -145 6 *
Ed
 0.000000100000000 1 1 0
1  7 0 0.000000000000000 3377.069212347782013
2  13 4 9 0.000000000000000 3377.069212347782013
2  14 6 7 0.000000000000000 3377.069212347782013
2  15 6 8 0.000000000000000 3377.069212347782013
2  16 5 11 0.000000000000000 3377.069212347782013
0

0101000
+150 0 -145 0 *
Wi

0101100
+149 0 -144 0 -143 4 +143 6 *
Fa
0  0.000000100000000 6 0

0111000
+142 0 *
Ve
0.000000100000000
3708.000000000000000 5531.000000000000000 0.000000000000000
0 0

0101101
*
Ed
 0.000000100000000 1 1 0
1  8 0 0.000000000000000 400.000000000000000
0

0101000
+140 4 -140 6 *
Ed
 0.000000100000000 1 1 0
1  9 0 0.000000000000000 571.000000000000000
2  17 4 9 0.000000000000000 571.000000000000000
2  18 7 7 0.000000000000000 571.000000000000000
2  19 7 8 0.000000000000000 571.000000000000000
2  20 5 11 0.000000000000000 571.000000000000000
0

0101000
+145 0 -140 0 *
Wi

0101100
+144 0 -139 0 -138 4 +138 6 *
Fa
0  0.000000100000000 7 0

0111000
+137 0 *
Ve
0.000000100000000
3708.000000000000000 3014.000000000000000 0.000000000000000
0 0

0101101
*
Ed
 0.000000100000000 1 1 0
1  10 0 0.000000000000000 400.000000000000000
0

0101000
+135 4 -135 6 *
Ed
 0.000000100000000 1 1 0
1  11 0 0.000000000000000 2517.000000000000000
2  21 4 9 0.000000000000000 2517.000000000000000
2  22 8 7 0.000000000000000 2517.000000000000000
2  23 8 8 0.000000000000000 2517.000000000000000
2  24 5 11 0.000000000000000 2517.000000000000000
0

0101000
+140 0 -135 0 *
Wi

0101100
+139 0 -134 0 -133 4 +133 6 *
Fa
0  0.000000100000000 8 0

0111000
+132 0 *
Ve
0.000000100000000
1858.000000000000000 3014.000000000000000 0.000000000000000
0 0

0101101
*
Ed
 0.000000100000000 1 1 0
1  12 0 0.000000000000000 400.000000000000000
2  25 10 0 0.000000000000000 400.000000000000000
0

0101000
+130 4 -130 6 *
Ed
 0.000000100000000 1 1 0
1  13 0 0.000000000000000 1850.000000000000000
2  26 4 9 0.000000000000000 1850.000000000000000
2  27 9 7 0.000000000000000 1850.000000000000000
2  28 9 8 0.000000000000000 1850.000000000000000
2  29 5 11 0.000000000000000 1850.000000000000000
0

0101000
+135 0 -130 0 *
Wi

0101100
+134 0 -129 0 -128 4 +128 6 *
Fa
0  0.000000100000000 9 0

0111000
+127 0 *
Ve
0.000000100000000
1858.000000000000000 2813.000000000000000 0.000000000000000
0 0

0101101
*
Ed
 0.000000100000000 1 1 0
1  14 0 0.000000000000000 400.000000000000000
2  30 11 0 0.000000000000000 400.000000000000000
2  31 10 0 0.000000000000000 400.000000000000000
0

0101000
+125 4 -125 6 *
Ed
 0.000000100000000 1 1 0
1  15 0 0.000000000000000 201.000000000000000
2  32 4 9 0.000000000000000 201.000000000000000
2  33 10 7 0.000000000000000 201.000000000000000
2  34 10 8 0.000000000000000 201.000000000000000
2  35 5 11 0.000000000000000 201.000000000000000
0

0101000
+130 0 -125 0 *
Wi

0101100
+129 0 -124 0 -123 4 +123 6 *
Fa
0  0.000000100000000 10 0

0111000
+122 0 *
Ve
0.000000100000000
4803.000000000000000 2813.000000000000000 0.000000000000000
0 0

0101101
*
Ed
 0.000000100000000 1 1 0
1  16 0 0.000000000000000 400.000000000000000
2  36 11 0 0.000000000000000 400.000000000000000
2  37 12 0 0.000000000000000 400.000000000000000
0

0101000
+120 4 -120 6 *
Ed
 0.000000100000000 1 1 0
1  17 0 0.000000000000000 2945.000000000000000
2  38 11 7 0.000000000000000 2945.000000000000000
2  39 11 8 0.000000000000000 2945.000000000000000
2  40 4 9 0.000000000000000 2945.000000000000000
0

0101000
+125 0 -120 0 *
Wi

0101100
+124 0 -119 0 -118 4 +118 6 *
Fa
0  0.000000100000000 11 0

0111000
+117 0 *
Ve
0.000000100000028
4803.000000000000000 0.000000000000000 0.000000000000000
0 0

0101101
*
Ed
 0.000000100000000 1 1 0
1  18 0 0.000000000000000 400.000000000000000
2  41 12 0 0.000000000000000 400.000000000000000
2  42 2 0 0.000000000000000 400.000000000000000
0

0101000
+115 4 -115 6 *
Ed
 0.000000100000000 1 1 0
1  19 0 0.000000000000000 2813.000000000000000
2  43 12 7 0.000000000000000 2813.000000000000000
2  44 12 8 0.000000000000000 2813.000000000000000
2  45 4 9 0.000000000000000 2813.000000000000000
0

0101000
+120 0 -115 0 *
Wi

0101100
+119 0 -114 0 -113 4 +113 6 *
Fa
0  0.000000100000000 12 0

0111000
+112 0 *
Ed
 0.000000100000000 1 1 0
1  20 0 0.000000000000000 4803.000000000000000
2  46 4 9 0.000000000000000 4803.000000000000000
2  47 2 7 0.000000000000000 4803.000000000000000
2  48 2 8 0.000000000000000 4803.000000000000000
2  49 13 17 0.000000000000000 4803.000000000000000
0

0101000
+115 0 -157 0 *
Wi

0101100
+114 0 -156 0 -110 4 +110 6 *
Fa
0  0.000000100000000 2 0

0111000
+109 0 *
Ve
0.000000100000000
3566.000000000000000 4988.000000000000000 0.000000000000000
0 0

0101101
*
Ed
 0.000000100000000 1 1 0
1  21 0 0.000000000000000 400.000000000000000
0

0101000
+107 4 -107 6 *
Ve
0.000000100000000
3566.000000000000000 3014.010000000000218 0.000000000000000
0 0

0101101
*
Ed
 0.000000100000000 1 1 0
1  22 0 0.000000000000000 400.000000000000000
0

0101000
+105 4 -105 6 *
Ed
 0.000000100000000 1 1 0
1  23 0 0.000000000000000 1973.989999999999782
2  50 4 9 0.000000000000000 1973.989999999999782
2  51 14 7 0.000000000000000 1973.989999999999782
2  52 14 8 0.000000000000000 1973.989999999999782
2  53 5 11 0.000000000000000 1973.989999999999782
0

0101000
+107 0 -105 0 *
Wi

0101100
+106 0 -104 0 -103 4 +103 6 *
Fa
0  0.000000100000000 14 0

0111000
+102 0 *
Ve
0.000000100000000
3407.945805922347972 5145.683209013203850 0.000000000000000
0 0

0101101
*
Ed
 0.000000100000000 1 1 0
1  24 0 0.000000000000000 400.000000000000000
0

0101000
+100 4 -100 6 *
Ed
 0.000000100000000 1 1 0
1  25 0 0.000000000000000 223.260212913626447
2  54 4 9 0.000000000000000 223.260212913626447
2  55 15 7 0.000000000000000 223.260212913626447
2  56 15 8 0.000000000000000 223.260212913626447
2  57 5 11 0.000000000000000 223.260212913626447
0

0101000
+100 0 -107 0 *
Wi

0101100
+99 0 -106 0 -98 4 +98 6 *
Fa
0  0.000000100000000 15 0

0111000
+97 0 *
Ve
0.000000100000000
3201.630106456812882 5231.000000000000000 0.000000000000000
0 0

0101101
*
Ed
 0.000000100000000 1 1 0
1  26 0 0.000000000000000 400.000000000000000
0

0101000
+95 4 -95 6 *
Ed
 0.000000100000000 1 1 0
1  27 0 0.000000000000000 223.260212913626077
2  58 4 9 0.000000000000000 223.260212913626077
2  59 16 7 0.000000000000000 223.260212913626077
2  60 16 8 0.000000000000000 223.260212913626077
2  61 5 11 0.000000000000000 223.260212913626077
0

0101000
+95 0 -100 0 *
Wi

0101100
+94 0 -99 0 -93 4 +93 6 *
Fa
0  0.000000100000000 16 0

0111000
+92 0 *
Ve
0.000000100000000
2978.369893543187118 5231.000000000000000 0.000000000000000
0 0

0101101
*
Ed
 0.000000100000000 1 1 0
1  28 0 0.000000000000000 400.000000000000000
0

0101000
+90 4 -90 6 *
Ed
 0.000000100000000 1 1 0
1  29 0 0.000000000000000 223.260212913625764
2  62 4 9 0.000000000000000 223.260212913625764
2  63 17 7 0.000000000000000 223.260212913625764
2  64 17 8 0.000000000000000 223.260212913625764
2  65 5 11 0.000000000000000 223.260212913625764
0

0101000
+90 0 -95 0 *
Wi

0101100
+89 0 -94 0 -88 4 +88 6 *
Fa
0  0.000000100000000 17 0

0111000
+87 0 *
Ve
0.000000100000000
2772.054194077652028 5145.683209013203850 0.000000000000000
0 0

0101101
*
Ed
 0.000000100000000 1 1 0
1  30 0 0.000000000000000 400.000000000000000
0

0101000
+85 4 -85 6 *
Ed
 0.000000100000000 1 1 0
1  31 0 0.000000000000000 223.260212913626077
2  66 4 9 0.000000000000000 223.260212913626077
2  67 18 7 0.000000000000000 223.260212913626077
2  68 18 8 0.000000000000000 223.260212913626077
2  69 5 11 0.000000000000000 223.260212913626077
0

0101000
+85 0 -90 0 *
Wi

0101100
+84 0 -89 0 -83 4 +83 6 *
Fa
0  0.000000100000000 18 0

0111000
+82 0 *
Ve
0.000000100000000
2614.000000000000000 4988.000000000000000 0.000000000000000
0 0

0101101
*
Ed
 0.000000100000000 1 1 0
1  32 0 0.000000000000000 400.000000000000000
0

0101000
+80 4 -80 6 *
Ed
 0.000000100000000 1 1 0
1  33 0 0.000000000000000 223.260212913626447
2  70 4 9 0.000000000000000 223.260212913626447
2  71 19 7 0.000000000000000 223.260212913626447
2  72 19 8 0.000000000000000 223.260212913626447
2  73 5 11 0.000000000000000 223.260212913626447
0

0101000
+80 0 -85 0 *
Wi

0101100
+79 0 -84 0 -78 4 +78 6 *
Fa
0  0.000000100000000 19 0

0111000
+77 0 *
Ve
0.000000100000000
2614.000000000000000 3014.010000000000218 0.000000000000000
0 0

0101101
*
Ed
 0.000000100000000 1 1 0
1  34 0 0.000000000000000 400.000000000000000
0

0101000
+75 4 -75 6 *
Ed
 0.000000100000000 1 1 0
1  35 0 0.000000000000000 1973.989999999999782
2  74 4 9 0.000000000000000 1973.989999999999782
2  75 20 7 0.000000000000000 1973.989999999999782
2  76 20 8 0.000000000000000 1973.989999999999782
2  77 5 11 0.000000000000000 1973.989999999999782
0

0101000
+75 0 -80 0 *
Wi

0101100
+74 0 -79 0 -73 4 +73 6 *
Fa
0  0.000000100000000 20 0

0111000
+72 0 *
Ed
 0.000000100000000 1 1 0
1  36 0 0.000000000000000 952.000000000000000
2  78 4 9 0.000000000000000 952.000000000000000
2  79 21 7 0.000000000000000 952.000000000000000
2  80 21 8 0.000000000000000 952.000000000000000
2  81 5 11 0.000000000000000 952.000000000000000
0

0101000
+105 0 -75 0 *
Wi

0101100
+104 0 -74 0 -70 4 +70 6 *
Fa
0  0.000000100000000 21 0

0111000
+69 0 *
Ve
0.000000100000000
1081.000000000000000 2020.000000000000000 0.000000000000000
0 0

0101101
*
Ed
 0.000000100000000 1 1 0
1  37 0 0.000000000000000 400.000000000000000
0

0101000
+67 4 -67 6 *
Ve
0.000000100000000
1081.000000000000000 120.000000000000000 0.000000000000000
0 0

0101101
*
Ed
 0.000000100000000 1 1 0
1  38 0 0.000000000000000 400.000000000000000
0

0101000
+65 4 -65 6 *
Ed
 0.000000100000000 1 1 0
1  39 0 0.000000000000000 1900.000000000000000
2  82 4 9 0.000000000000000 1900.000000000000000
0

0101000
+67 0 -65 0 *
Wi

0101100
+66 0 -64 0 -63 4 +63 6 *
Fa
0  0.000000100000000 22 0

0111000
+62 0 *
Ve
0.000000100000000
2043.000000000000000 120.000000000000000 0.000000000000000
0 0

0101101
*
Ed
 0.000000100000000 1 1 0
1  40 0 0.000000000000000 400.000000000000000
0

0101000
+60 4 -60 6 *
Ed
 0.000000100000000 1 1 0
1  41 0 0.000000000000000 962.000000000000000
2  83 4 9 0.000000000000000 962.000000000000000
0

0101000
+65 0 -60 0 *
Wi

0101100
+64 0 -59 0 -58 4 +58 6 *
Fa
0  0.000000100000000 23 0

0111000
+57 0 *
Ve
0.000000100000000
2043.000000000000000 2020.000000000000000 0.000000000000000
0 0

0101101
*
Ed
 0.000000100000000 1 1 0
1  42 0 0.000000000000000 400.000000000000000
0

0101000
+55 4 -55 6 *
Ed
 0.000000100000000 1 1 0
1  43 0 0.000000000000000 1900.000000000000000
2  84 4 9 0.000000000000000 1900.000000000000000
0

0101000
+60 0 -55 0 *
Wi

0101100
+59 0 -54 0 -53 4 +53 6 *
Fa
0  0.000000100000000 24 0

0111000
+52 0 *
Ve
0.000000100000000
1881.905391481193647 2175.906316165506723 0.000000000000000
0 0

0101101
*
Ed
 0.000000100000000 1 1 0
1  44 0 0.000000000000000 400.000000000000000
0

0101000
+50 4 -50 6 *
Ed
 0.000000100000000 1 1 0
1  45 0 0.000000000000000 224.183523734743744
2  85 4 9 0.000000000000000 224.183523734743744
0

0101000
+55 0 -50 0 *
Wi

0101100
+54 0 -49 0 -48 4 +48 6 *
Fa
0  0.000000100000000 25 0

0111000
+47 0 *
Ve
0.000000100000000
1674.091761867371815 2260.000000000000000 0.000000000000000
0 0

0101101
*
Ed
 0.000000100000000 1 1 0
1  46 0 0.000000000000000 400.000000000000000
0

0101000
+45 4 -45 6 *
Ed
 0.000000100000000 1 1 0
1  47 0 0.000000000000000 224.183523734743829
2  86 4 9 0.000000000000000 224.183523734743829
0

0101000
+50 0 -45 0 *
Wi

0101100
+49 0 -44 0 -43 4 +43 6 *
Fa
0  0.000000100000000 26 0

0111000
+42 0 *
Ve
0.000000100000000
1449.908238132627957 2260.000000000000000 0.000000000000000
0 0

0101101
*
Ed
 0.000000100000000 1 1 0
1  48 0 0.000000000000000 400.000000000000000
0

0101000
+40 4 -40 6 *
Ed
 0.000000100000000 1 1 0
1  49 0 0.000000000000000 224.183523734743858
2  87 4 9 0.000000000000000 224.183523734743858
0

0101000
+45 0 -40 0 *
Wi

0101100
+44 0 -39 0 -38 4 +38 6 *
Fa
0  0.000000100000000 27 0

0111000
+37 0 *
Ve
0.000000100000000
1242.094608518806126 2175.906316165506723 0.000000000000000
0 0

0101101
*
Ed
 0.000000100000000 1 1 0
1  50 0 0.000000000000000 400.000000000000000
0

0101000
+35 4 -35 6 *
Ed
 0.000000100000000 1 1 0
1  51 0 0.000000000000000 224.183523734743829
2  88 4 9 0.000000000000000 224.183523734743829
0

0101000
+40 0 -35 0 *
Wi

0101100
+39 0 -34 0 -33 4 +33 6 *
Fa
0  0.000000100000000 28 0

0111000
+32 0 *
Ed
 0.000000100000000 1 1 0
1  52 0 0.000000000000000 224.183523734743602
2  89 4 9 0.000000000000000 224.183523734743602
0

0101000
+35 0 -67 0 *
Wi

0101100
+34 0 -66 0 -30 4 +30 6 *
Fa
0  0.000000100000000 29 0

0111000
+29 0 *
Ve
0.000000100000000
3136.989999999999782 7835.010000000000218 0.000000000000000
0 0

0101101
*
Ed
 0.000000100000000 1 1 0
1  53 0 0.000000000000000 400.000000000000000
0

0101000
+27 4 -27 6 *
Ve
0.000000100002558
3136.989999999999782 5742.010000000000218 0.000000000000000
0 0

0101101
*
Ed
 0.000000100000000 1 1 0
1  54 0 0.000000000000000 400.000000000000000
0

0101000
+25 4 -25 6 *
Ed
 0.000000100000000 1 1 0
1  55 0 0.000000000000000 2093.000000000000000
2  90 4 9 0.000000000000000 2093.000000000000000
2  91 30 7 0.000000000000000 2093.000000000000000
2  92 30 8 0.000000000000000 2093.000000000000000
2  93 5 11 0.000000000000000 2093.000000000000000
0

0101000
+27 0 -25 0 *
Wi

0101100
+26 0 -24 0 -23 4 +23 6 *
Fa
0  0.000000100000000 30 0

0111000
+22 0 *
Ve
0.000000100000000
2296.000000000000000 7835.010000000000218 0.000000000000000
0 0

0101101
*
Ed
 0.000000100000000 1 1 0
1  56 0 0.000000000000000 400.000000000000000
0

0101000
+20 4 -20 6 *
Ed
 0.000000100000000 1 1 0
1  57 0 0.000000000000000 840.989999999999782
2  94 4 9 0.000000000000000 840.989999999999782
2  95 31 7 0.000000000000000 840.989999999999782
2  96 31 8 0.000000000000000 840.989999999999782
2  97 5 11 0.000000000000000 840.989999999999782
0

0101000
+20 0 -27 0 *
Wi

0101100
+19 0 -26 0 -18 4 +18 6 *
Fa
0  0.000000100000000 31 0

0111000
+17 0 *
Ve
0.000000100000000
2296.000000000000000 5742.010000000000218 0.000000000000000
0 0

0101101
*
Ed
 0.000000100000000 1 1 0
1  58 0 0.000000000000000 400.000000000000000
0

0101000
+15 4 -15 6 *
Ed
 0.000000100000000 1 1 0
1  59 0 0.000000000000000 2093.000000000000000
2  98 4 9 0.000000000000000 2093.000000000000000
2  99 32 7 0.000000000000000 2093.000000000000000
2  100 32 8 0.000000000000000 2093.000000000000000
2  101 5 11 0.000000000000000 2093.000000000000000
0

0101000
+15 0 -20 0 *
Wi

0101100
+14 0 -19 0 -13 4 +13 6 *
Fa
0  0.000000100000000 32 0

0111000
+12 0 *
Ed
 0.000000100000000 1 1 0
1  60 0 0.000000000000000 840.989999999999782
2  102 4 9 0.000000000000000 840.989999999999782
2  103 33 7 0.000000000000000 840.989999999999782
2  104 33 8 0.000000000000000 840.989999999999782
2  105 5 11 0.000000000000000 840.989999999999782
0

0101000
+25 0 -15 0 *
Wi

0101100
+24 0 -14 0 -10 4 +10 6 *
Fa
0  0.000000100000000 33 0

0111000
+9 0 *
Wi

0101100
+153 19 +148 19 +143 19 +138 19 +133 19 +128 19 +123 19 +118 19 +113 19 +110 19 
*
Wi

0101100
-103 19 -98 19 -93 19 -88 19 -83 19 -78 19 -73 19 -70 19 *
Wi

0101100
+63 19 +58 19 +53 19 +48 19 +43 19 +38 19 +33 19 +30 19 *
Wi

0101100
-23 19 -18 19 -13 19 -10 19 *
Fa
0  0.000000100000000 4 0

0111000
+7 0 +6 0 +5 0 +4 0 *
Sh

0101100
+151 0 +146 0 +141 0 +136 0 +131 0 +126 0 +121 0 +116 0 +111 0 +108 0 
-101 0 -96 0 -91 0 -86 0 -81 0 -76 0 -71 0 -68 0 +61 0 +56 0 
+51 0 +46 0 +41 0 +36 0 +31 0 +28 0 -21 0 -16 0 -11 0 -8 0 
+3 18 -3 20 *
So

1100000
-2 0 *

+1 0 