
CASCADE Topology V1, (c) Matra-Datavision
Locations 67
1
1.000000000000000 0.000000000000000 0.000000000000000 0.000000000000000 
0.000000000000000 1.000000000000000 0.000000000000000 0.000000000000000 
0.000000000000000 0.000000000000000 1.000000000000000 3497.733400000000074 
1
1.000000000000000 0.000000000000000 0.000000000000000 0.000000000000000 
0.000000000000000 1.000000000000000 0.000000000000000 0.000000000000000 
0.000000000000000 0.000000000000000 1.000000000000000 0.000000000000000 
1
1.000000000000000 0.000000000000000 0.000000000000000 0.000000000000000 
0.000000000000000 1.000000000000000 0.000000000000000 0.000000000000000 
0.000000000000000 0.000000000000000 1.000000000000000 0.000000000000000 
1
1.000000000000000 0.000000000000000 0.000000000000000 0.000000000000000 
0.000000000000000 1.000000000000000 0.000000000000000 0.000000000000000 
0.000000000000000 0.000000000000000 1.000000000000000 0.000000000000000 
1
1.000000000000000 0.000000000000000 0.000000000000000 0.000000000000000 
0.000000000000000 1.000000000000000 0.000000000000000 0.000000000000000 
0.000000000000000 0.000000000000000 1.000000000000000 0.000000000000000 
1
1.000000000000000 0.000000000000000 0.000000000000000 0.000000000000000 
0.000000000000000 1.000000000000000 0.000000000000000 0.000000000000000 
0.000000000000000 0.000000000000000 1.000000000000000 0.000000000000000 
1
1.000000000000000 0.000000000000000 0.000000000000000 0.000000000000000 
0.000000000000000 1.000000000000000 0.000000000000000 0.000000000000000 
0.000000000000000 0.000000000000000 1.000000000000000 0.000000000000000 
2  2 1 3 -1 4 1 5 -1 6 1 7 -1 0
1
1.000000000000000 0.000000000000000 0.000000000000000 0.000000000000000 
0.000000000000000 1.000000000000000 0.000000000000000 0.000000000000000 
0.000000000000000 0.000000000000000 1.000000000000000 0.000000000000000 
2  9 -1 7 1 6 -1 5 1 4 -1 3 1 2 -1 0
1
1.000000000000000 0.000000000000000 0.000000000000000 0.000000000000000 
0.000000000000000 1.000000000000000 0.000000000000000 0.000000000000000 
0.000000000000000 0.000000000000000 1.000000000000000 0.000000000000000 
1
1.000000000000000 0.000000000000000 0.000000000000000 0.000000000000000 
0.000000000000000 1.000000000000000 0.000000000000000 0.000000000000000 
0.000000000000000 0.000000000000000 1.000000000000000 0.000000000000000 
1
1.000000000000000 0.000000000000000 0.000000000000000 0.000000000000000 
0.000000000000000 1.000000000000000 0.000000000000000 0.000000000000000 
0.000000000000000 0.000000000000000 1.000000000000000 0.000000000000000 
2  11 1 12 1 13 -1 2 1 3 -1 4 1 5 -1 6 1 7 -1 0
2  9 -1 7 1 6 -1 5 1 4 -1 3 1 2 -1 13 1 12 -1 11 -1 0
1
1.000000000000000 0.000000000000000 0.000000000000000 -0.000000000000000 
0.000000000000000 1.000000000000000 0.000000000000000 -0.000000000000000 
0.000000000000000 0.000000000000000 1.000000000000000 -50.000000000000000 
2  11 1 12 1 13 -1 16 1 2 1 3 -1 4 1 5 -1 6 1 7 -1 0
2  9 -1 7 1 6 -1 5 1 4 -1 3 1 2 -1 16 -1 13 1 12 -1 11 -1 0
1
1.000000000000000 0.000000000000000 0.000000000000000 0.000000000000000 
0.000000000000000 1.000000000000000 0.000000000000000 0.000000000000000 
0.000000000000000 0.000000000000000 1.000000000000000 0.000000000000000 
1
-1.000000000000000 0.000000000000000 0.000000000000000 0.000000000000000 
0.000000000000000 0.000000000000000 1.000000000000000 -973.000000000000000 
0.000000000000000 1.000000000000000 -0.000000000000000 0.000000000000000 
2  19 1 20 1 7 -1 0
2  7 1 20 -1 19 -1 0
2  9 -1 7 1 20 -1 19 -1 0
2  11 1 12 1 13 -1 0
2  11 1 12 1 13 -1 16 1 0
2  13 -1 2 1 3 -1 4 1 5 -1 6 1 7 -1 0
2  11 1 12 1 0
2  13 -1 16 1 2 1 3 -1 4 1 5 -1 6 1 7 -1 0
2  9 -1 0
1
1.000000000000000 0.000000000000000 0.000000000000000 0.000000000000000 
0.000000000000000 1.000000000000000 0.000000000000000 -5.000000000000000 
0.000000000000000 0.000000000000000 1.000000000000000 0.000000000000001 
2  19 1 20 1 7 -1 30 1 0
2  30 -1 7 1 20 -1 19 -1 0
2  9 -1 30 -1 7 1 20 -1 19 -1 0
2  4 1 5 -1 6 1 7 -1 0
2  2 1 3 -1 0
2  11 1 12 1 13 -1 2 1 3 -1 0
2  11 1 12 1 13 -1 16 1 2 1 3 -1 0
1
1.000000000000000 0.000000000000000 0.000000000000000 0.000000000000000 
0.000000000000000 1.000000000000000 0.000000000000000 0.000000000000000 
0.000000000000000 0.000000000000000 1.000000000000000 0.000000000000000 
1
0.000000000000000 0.000000000000000 1.000000000000000 3680.999999999999091 
1.000000000000000 0.000000000000000 0.000000000000000 0.000000000000000 
0.000000000000000 1.000000000000000 0.000000000000000 0.000000000000000 
2  38 1 39 1 3 -1 0
2  3 1 39 -1 38 -1 0
2  9 -1 7 1 6 -1 5 1 4 -1 3 1 39 -1 38 -1 0
2  6 1 7 -1 0
2  2 1 3 -1 4 1 5 -1 0
2  11 1 12 1 13 -1 2 1 3 -1 4 1 5 -1 0
2  11 1 12 1 13 -1 16 1 2 1 3 -1 4 1 5 -1 0
1
1.000000000000000 0.000000000000000 0.000000000000000 0.000000000000000 
0.000000000000000 1.000000000000000 0.000000000000000 0.000000000000000 
0.000000000000000 0.000000000000000 1.000000000000000 0.000000000000000 
1
1.000000000000000 0.000000000000000 0.000000000000000 0.000000000000000 
0.000000000000000 0.000000000000000 -1.000000000000000 -1843.000000000000000 
0.000000000000000 1.000000000000000 0.000000000000000 0.000000000000000 
2  47 1 48 1 5 -1 0
2  5 1 48 -1 47 -1 0
2  9 -1 7 1 6 -1 5 1 48 -1 47 -1 0
2  7 -1 30 1 0
2  19 1 20 1 0
2  9 -1 7 1 6 -1 5 1 4 -1 0
1
1.000000000000000 0.000000000000000 0.000000000000000 -5.000000000000000 
0.000000000000000 1.000000000000000 0.000000000000000 -0.000000000000000 
0.000000000000000 0.000000000000000 1.000000000000000 -0.000000000000000 
2  38 1 39 1 3 -1 55 1 0
2  55 -1 3 1 39 -1 38 -1 0
2  9 -1 7 1 6 -1 5 1 4 -1 55 -1 3 1 39 -1 38 -1 0
2  9 -1 7 1 6 -1 0
1
1.000000000000000 0.000000000000000 0.000000000000000 0.000000000000000 
0.000000000000000 1.000000000000000 0.000000000000000 5.000000000000000 
0.000000000000000 0.000000000000000 1.000000000000000 -0.000000000000001 
2  47 1 48 1 5 -1 60 1 0
2  60 -1 5 1 48 -1 47 -1 0
2  9 -1 7 1 6 -1 60 -1 5 1 48 -1 47 -1 0
2  3 -1 55 1 4 1 5 -1 6 1 7 -1 0
2  38 1 39 1 0
2  5 -1 60 1 6 1 7 -1 0
2  47 1 48 1 0
Curve2ds 24
1 0.00000000000000000 0.00000000000000000 1.00000000000000000 0.00000000000000000 
1 0.00000000000000000 0.00000000000000000 1.00000000000000000 0.00000000000000000 
1 0.00000000000000000 0.00000000000000000 0.00000000000000000 -1.00000000000000000 
1 6.28318530717958623 0.00000000000000000 0.00000000000000000 -1.00000000000000000 
1 0.00000000000000000 -5.00000000000000000 1.00000000000000000 0.00000000000000000 
1 0.00000000000000000 0.00000000000000000 0.00000000000000000 -1.00000000000000000 
1 6.28318530717958623 0.00000000000000000 0.00000000000000000 -1.00000000000000000 
1 0.00000000000000000 -5.00000000000000000 1.00000000000000000 0.00000000000000000 
1 0.00000000000000000 0.00000000000000000 1.00000000000000000 0.00000000000000000 
1 0.00000000000000000 0.00000000000000000 1.00000000000000000 0.00000000000000000 
1 0.00000000000000000 0.00000000000000000 1.00000000000000000 0.00000000000000000 
1 0.00000000000000000 0.00000000000000000 1.00000000000000000 0.00000000000000000 
1 0.00000000000000000 0.00000000000000000 0.00000000000000000 -1.00000000000000000 
1 6.28318530717958623 0.00000000000000000 0.00000000000000000 -1.00000000000000000 
1 0.00000000000000000 -5.00000000000000000 1.00000000000000000 0.00000000000000000 
1 0.00000000000000000 0.00000000000000000 0.00000000000000000 -1.00000000000000000 
1 6.28318530717958623 0.00000000000000000 0.00000000000000000 -1.00000000000000000 
1 0.00000000000000000 -5.00000000000000000 1.00000000000000000 0.00000000000000000 
1 0.00000000000000000 0.00000000000000000 0.00000000000000000 -1.00000000000000000 
1 6.28318530717958623 0.00000000000000000 0.00000000000000000 -1.00000000000000000 
1 0.00000000000000000 -5.00000000000000000 1.00000000000000000 0.00000000000000000 
1 0.00000000000000000 0.00000000000000000 0.00000000000000000 -1.00000000000000000 
1 6.28318530717958623 0.00000000000000000 0.00000000000000000 -1.00000000000000000 
1 0.00000000000000000 -5.00000000000000000 1.00000000000000000 0.00000000000000000 
Curves 33
1 2724.99999999999954525 -973.00000000000000000 0.00000000000000000 -0.00000000000000000 -0.00000000000000000 -1.00000000000000000 
1 2724.99999999999954525 -973.00000000000000000 0.00000000000000000 -1.00000000000000000 0.00000000000000000 0.00000000000000000 
1 2724.99999999999954525 -973.00000000000000000 0.00000000000000000 -1.00000000000000000 0.00000000000000000 0.00000000000000000 
1 2558.21431416972336592 -973.00000000000000000 0.00000000000000000 -0.00000000000000000 -0.00000000000000000 -1.00000000000000000 
2 -2684.99999999999954525 -25.00000000000000000 0.00000000000000000 0.00000000000000000 0.00000000000000000 1.00000000000000000 1.00000000000000000 0.00000000000000000 -0.00000000000000000 -0.00000000000000000 1.00000000000000000 0.00000000000000000 5.00000000000000000
2 -2598.21431416972336592 -25.00000000000000000 0.00000000000000000 0.00000000000000000 0.00000000000000000 1.00000000000000000 1.00000000000000000 0.00000000000000000 -0.00000000000000000 -0.00000000000000000 1.00000000000000000 0.00000000000000000 5.00000000000000000
1 3680.99999999999909051 -1357.15929903209121221 0.00000000000000000 -0.00000000000000000 -0.00000000000000000 -1.00000000000000000 
1 3680.99999999999909051 -1357.15929903209121221 0.00000000000000000 -0.92788670916328264 0.37286224662485429 0.00000000000000000 
1 3680.99999999999909051 -1357.15929903209121221 0.00000000000000000 -0.92788670916328264 0.37286224662485429 0.00000000000000000 
1 2558.21431416972336592 -973.00000000000000000 0.00000000000000000 0.71809367563330351 -0.69594645844019642 0.00000000000000000 
1 3455.90046548830059692 -1843.00000000000000000 0.00000000000000000 1.00000000000000000 0.00000000000000000 0.00000000000000000 
1 3680.99999999999909051 -1843.00000000000000000 0.00000000000000000 0.00000000000000000 1.00000000000000000 0.00000000000000000 
1 2558.21431416972336592 -973.00000000000000000 0.00000000000000000 0.71809367563330351 -0.69594645844019642 0.00000000000000000 
1 3455.90046548830059692 -1843.00000000000000000 0.00000000000000000 1.00000000000000000 0.00000000000000000 0.00000000000000000 
1 3680.99999999999909051 -1843.00000000000000000 0.00000000000000000 0.00000000000000000 1.00000000000000000 0.00000000000000000 
1 3455.90046548830059692 -1843.00000000000000000 0.00000000000000000 -0.00000000000000000 -0.00000000000000000 -1.00000000000000000 
1 2679.99999999999954525 -973.00000000000000000 -25.00000000000000000 0.00000000000000000 -1.00000000000000000 0.00000000000000022 
2 -2684.99999999999954525 -25.00000000000000000 0.00000000000000000 0.00000000000000000 0.00000000000000000 1.00000000000000000 1.00000000000000000 0.00000000000000000 -0.00000000000000000 -0.00000000000000000 1.00000000000000000 0.00000000000000000 5.00000000000000000
1 2593.21431416972336592 -973.00000000000000000 -25.00000000000000000 0.00000000000000000 -1.00000000000000000 0.00000000000000022 
2 -2598.21431416972336592 -25.00000000000000000 0.00000000000000000 0.00000000000000000 0.00000000000000000 1.00000000000000000 1.00000000000000000 0.00000000000000000 -0.00000000000000000 -0.00000000000000000 1.00000000000000000 0.00000000000000000 5.00000000000000000
1 3680.99999999999909051 -1843.00000000000000000 0.00000000000000000 -0.00000000000000000 -0.00000000000000000 -1.00000000000000000 
2 -1763.00000000000000000 -25.00000000000000000 0.00000000000000000 0.00000000000000000 0.00000000000000000 1.00000000000000000 1.00000000000000000 0.00000000000000000 -0.00000000000000000 -0.00000000000000000 1.00000000000000000 0.00000000000000000 5.00000000000000000
2 -1437.15929903209121221 -25.00000000000000000 0.00000000000000000 0.00000000000000000 0.00000000000000000 1.00000000000000000 1.00000000000000000 0.00000000000000000 -0.00000000000000000 -0.00000000000000000 1.00000000000000000 0.00000000000000000 5.00000000000000000
2 3535.90046548830059692 -25.00000000000000000 0.00000000000000000 0.00000000000000000 0.00000000000000000 1.00000000000000000 1.00000000000000000 0.00000000000000000 -0.00000000000000000 -0.00000000000000000 1.00000000000000000 0.00000000000000000 5.00000000000000000
2 3600.99999999999909051 -25.00000000000000000 0.00000000000000000 0.00000000000000000 0.00000000000000000 1.00000000000000000 1.00000000000000000 0.00000000000000000 -0.00000000000000000 -0.00000000000000000 1.00000000000000000 0.00000000000000000 5.00000000000000000
1 3680.99999999999909051 -1758.00000000000000000 -25.00000000000000000 -1.00000000000000000 -0.00000000000000000 -0.00000000000000000 
2 -1763.00000000000000000 -25.00000000000000000 0.00000000000000000 0.00000000000000000 0.00000000000000000 1.00000000000000000 1.00000000000000000 0.00000000000000000 -0.00000000000000000 -0.00000000000000000 1.00000000000000000 0.00000000000000000 5.00000000000000000
1 3680.99999999999909051 -1432.15929903209121221 -25.00000000000000000 -1.00000000000000000 -0.00000000000000000 -0.00000000000000000 
2 -1437.15929903209121221 -25.00000000000000000 0.00000000000000000 0.00000000000000000 0.00000000000000000 1.00000000000000000 1.00000000000000000 0.00000000000000000 -0.00000000000000000 -0.00000000000000000 1.00000000000000000 0.00000000000000000 5.00000000000000000
1 3540.90046548830059692 -1843.00000000000000000 -25.00000000000000000 0.00000000000000000 1.00000000000000000 -0.00000000000000022 
2 3535.90046548830059692 -25.00000000000000000 0.00000000000000000 0.00000000000000000 0.00000000000000000 1.00000000000000000 1.00000000000000000 0.00000000000000000 -0.00000000000000000 -0.00000000000000000 1.00000000000000000 0.00000000000000000 5.00000000000000000
1 3605.99999999999909051 -1843.00000000000000000 -25.00000000000000000 0.00000000000000000 1.00000000000000000 -0.00000000000000022 
2 3600.99999999999909051 -25.00000000000000000 0.00000000000000000 0.00000000000000000 0.00000000000000000 1.00000000000000000 1.00000000000000000 0.00000000000000000 -0.00000000000000000 -0.00000000000000000 1.00000000000000000 0.00000000000000000 5.00000000000000000
Polygon3D 0
PolygonOnTriangulations 0
Surfaces 19
1 2724.99999999999954525 -973.00000000000000000 0.00000000000000000 0.00000000000000000 1.00000000000000000 0.00000000000000000 -1.00000000000000000 0.00000000000000000 0.00000000000000000 0.00000000000000000 -0.00000000000000000 1.00000000000000000 
2 2684.99999999999954525 -973.00000000000000000 -25.00000000000000000 0.00000000000000000 1.00000000000000000 -0.00000000000000022 -1.00000000000000000 0.00000000000000000 0.00000000000000000 0.00000000000000000 0.00000000000000022 1.00000000000000000 5.00000000000000000
2 2598.21431416972336592 -973.00000000000000000 -25.00000000000000000 0.00000000000000000 1.00000000000000000 -0.00000000000000022 -1.00000000000000000 0.00000000000000000 0.00000000000000000 0.00000000000000000 0.00000000000000022 1.00000000000000000 5.00000000000000000
1 3680.99999999999909051 -1357.15929903209121221 0.00000000000000000 0.37286224662485429 0.92788670916328264 0.00000000000000000 -0.92788670916328264 0.37286224662485429 0.00000000000000000 0.00000000000000000 -0.00000000000000000 1.00000000000000000 
1 3195.37367113074651570 -1366.33161794169768655 0.00000000000000000 0.00000000000000000 0.00000000000000000 1.00000000000000000 1.00000000000000000 0.00000000000000000 -0.00000000000000000 -0.00000000000000000 1.00000000000000000 0.00000000000000000 
1 3195.37367113074651570 -1366.33161794169768655 0.00000000000000000 0.00000000000000000 0.00000000000000000 1.00000000000000000 1.00000000000000000 0.00000000000000000 -0.00000000000000000 -0.00000000000000000 1.00000000000000000 0.00000000000000000 
1 2558.21431416972336592 -973.00000000000000000 0.00000000000000000 -0.69594645844019642 -0.71809367563330351 0.00000000000000000 0.71809367563330351 -0.69594645844019642 0.00000000000000000 0.00000000000000000 0.00000000000000000 1.00000000000000000 
1 3680.99999999999909051 -1843.00000000000000000 0.00000000000000000 1.00000000000000000 0.00000000000000000 0.00000000000000000 -0.00000000000000000 1.00000000000000000 0.00000000000000000 0.00000000000000000 -0.00000000000000000 1.00000000000000000 
2 3680.99999999999909051 -1763.00000000000000000 -25.00000000000000000 1.00000000000000000 0.00000000000000000 0.00000000000000000 -0.00000000000000000 1.00000000000000000 0.00000000000000000 0.00000000000000000 -0.00000000000000000 1.00000000000000000 5.00000000000000000
2 3680.99999999999909051 -1437.15929903209121221 -25.00000000000000000 1.00000000000000000 0.00000000000000000 0.00000000000000000 -0.00000000000000000 1.00000000000000000 0.00000000000000000 0.00000000000000000 -0.00000000000000000 1.00000000000000000 5.00000000000000000
1 3455.90046548830059692 -1843.00000000000000000 0.00000000000000000 0.00000000000000000 -1.00000000000000000 0.00000000000000000 1.00000000000000000 0.00000000000000000 0.00000000000000000 -0.00000000000000000 0.00000000000000000 1.00000000000000000 
2 3535.90046548830059692 -1843.00000000000000000 -25.00000000000000000 0.00000000000000000 -1.00000000000000000 0.00000000000000022 1.00000000000000000 0.00000000000000000 0.00000000000000000 -0.00000000000000000 0.00000000000000022 1.00000000000000000 5.00000000000000000
2 3600.99999999999909051 -1843.00000000000000000 -25.00000000000000000 0.00000000000000000 -1.00000000000000000 0.00000000000000022 1.00000000000000000 0.00000000000000000 0.00000000000000000 -0.00000000000000000 0.00000000000000022 1.00000000000000000 5.00000000000000000
1 2684.99999999999909051 -972.99999999999988631 -24.99999999999999645 0.00000000000000000 1.00000000000000000 -0.00000000000000000 1.00000000000000000 -0.00000000000000000 0.00000000000000000 0.00000000000000000 -0.00000000000000000 -1.00000000000000000 
1 2598.21431416972291117 -972.99999999999988631 -24.99999999999999645 0.00000000000000000 1.00000000000000000 -0.00000000000000000 1.00000000000000000 -0.00000000000000000 0.00000000000000000 0.00000000000000000 -0.00000000000000000 -1.00000000000000000 
1 3680.99999999999909051 -1762.99999999999954525 -24.99999999999999645 1.00000000000000000 0.00000000000000000 0.00000000000000000 0.00000000000000000 0.00000000000000000 1.00000000000000000 0.00000000000000000 -1.00000000000000000 0.00000000000000000 
1 3680.99999999999909051 -1437.15929903209098484 -24.99999999999999645 1.00000000000000000 0.00000000000000000 0.00000000000000000 0.00000000000000000 0.00000000000000000 1.00000000000000000 0.00000000000000000 -1.00000000000000000 0.00000000000000000 
1 3535.90046548830014217 -1843.00000000000000000 -24.99999999999999645 -0.00000000000000000 -1.00000000000000000 -0.00000000000000000 0.00000000000000000 0.00000000000000000 -1.00000000000000000 1.00000000000000000 -0.00000000000000000 0.00000000000000000 
1 3600.99999999999818101 -1843.00000000000000000 -24.99999999999999645 -0.00000000000000000 -1.00000000000000000 -0.00000000000000000 0.00000000000000000 0.00000000000000000 -1.00000000000000000 1.00000000000000000 -0.00000000000000000 0.00000000000000000 
Triangulations 0

TShapes 101
Ve
0.000000100000000
2724.999999999999545 -973.000000000000000 0.000000000000000
0 0

0101101
*
Ve
0.000000100000000
2724.999999999999545 -973.000000000000000 -50.000000000000000
0 0

0101101
*
Ed
 0.000000100000000 1 1 0
1  1 0 0.000000000000000 50.000000000000000
0

0101000
+101 10 -100 10 *
Ve
0.000000100000000
2558.214314169723366 -973.000000000000000 0.000000000000000
0 0

0101101
*
Ed
 0.000000100000000 1 1 0
1  2 0 0.000000000000000 166.785685830276179
0

0101000
+101 15 -98 15 *
Ve
0.000000100000000
2558.214314169723366 -973.000000000000000 -50.000000000000000
0 0

0101101
*
Ed
 0.000000100000000 1 1 0
1  3 0 0.000000000000000 166.785685830276179
0

0101000
+100 18 -96 18 *
Ed
 0.000000100000000 1 1 0
1  4 0 0.000000000000000 50.000000000000000
0

0101000
+98 10 -96 10 *
Wi

0101100
+99 8 -97 14 +95 17 -94 8 *
Ve
0.000000100000000
2679.999999999999545 -973.000000000000000 -25.000000000000000
0 0

0101101
*
Ed
 0.000000100000000 1 1 0
1  5 0 0.000000000000000 6.283185307179586
2  1 2 22 0.000000000000000 6.283185307179586
0

0101000
+92 23 -92 23 *
Wi

0101100
-91 21 *
Ve
0.000000100000000
2593.214314169723366 -973.000000000000000 -25.000000000000000
0 0

0101101
*
Ed
 0.000000100000000 1 1 0
1  6 0 0.000000000000000 6.283185307179586
2  2 3 22 0.000000000000000 6.283185307179586
0

0101000
+89 23 -89 23 *
Wi

0101100
-88 21 *
Fa
0  0.000000100000000 1 8

0111000
+93 0 +90 0 +87 0 *
Ve
0.000000100000000
3680.999999999999091 -1357.159299032091212 0.000000000000000
0 0

0101101
*
Ve
0.000000100000000
3680.999999999999091 -1357.159299032091212 -50.000000000000000
0 0

0101101
*
Ed
 0.000000100000000 1 1 0
1  7 0 0.000000000000000 50.000000000000000
0

0101000
+85 10 -84 10 *
Ed
 0.000000100000000 1 1 0
1  8 0 0.000000000000000 1030.298193259032587
0

0101000
+85 15 -101 15 *
Ed
 0.000000100000000 1 1 0
1  9 0 0.000000000000000 1030.298193259032587
0

0101000
+84 18 -100 18 *
Wi

0101100
+83 0 -99 0 -82 24 +81 25 *
Fa
0  0.000000100000000 4 0

0111000
+80 0 *
Ve
0.000000100000000
3455.900465488300597 -1843.000000000000000 0.000000000000000
0 0

0101101
*
Ed
 0.000000100000000 1 1 0
1  10 0 0.000000000000000 1250.096166808441922
0

0101000
+98 15 -78 15 *
Ve
0.000000100000000
3680.999999999999091 -1843.000000000000000 0.000000000000000
0 0

0101101
*
Ed
 0.000000100000000 1 1 0
1  11 0 0.000000000000000 225.099534511698494
0

0101000
+78 15 -76 15 *
Ed
 0.000000100000000 1 1 0
1  12 0 0.000000000000000 485.840700967908788
0

0101000
+76 15 -85 15 *
Wi

0101100
+97 0 +77 0 +75 0 +74 0 +82 0 *
Fa
0  0.000000100000000 5 0

0111000
+73 27 *
Ve
0.000000100000000
3455.900465488300597 -1843.000000000000000 -50.000000000000000
0 0

0101101
*
Ed
 0.000000100000000 1 1 0
1  13 0 0.000000000000000 1250.096166808441922
0

0101000
+96 18 -71 18 *
Ve
0.000000100000000
3680.999999999999091 -1843.000000000000000 -50.000000000000000
0 0

0101101
*
Ed
 0.000000100000000 1 1 0
1  14 0 0.000000000000000 225.099534511698494
0

0101000
+71 18 -69 18 *
Ed
 0.000000100000000 1 1 0
1  15 0 0.000000000000000 485.840700967908788
0

0101000
+69 18 -84 18 *
Wi

0101100
+95 0 +70 0 +68 0 +67 0 +81 0 *
Fa
0  0.000000100000000 6 0

0111000
+66 27 *
Ed
 0.000000100000000 1 1 0
1  16 0 0.000000000000000 50.000000000000000
0

0101000
+78 10 -71 10 *
Wi

0101100
+94 0 -64 0 -77 24 +70 25 *
Fa
0  0.000000100000000 7 0

0111000
+63 0 *
Ve
0.000000100000000
2679.999999999999545 -978.000000000000000 -25.000000000000000
0 0

0101101
*
Ed
 0.000000100000000 1 1 0
1  17 0 0.000000000000000 5.000000000000000
3  3 4CN 2 0 0.000000000000000 5.000000000000000
0

0101000
+92 29 -61 29 *
Ed
 0.000000100000000 1 1 0
1  18 0 0.000000000000000 6.283185307179586
2  5 2 32 0.000000000000000 6.283185307179586
0

0101000
+61 33 -61 33 *
Wi

0101100
+60 0 -60 0 -91 21 +59 31 *
Fa
0  0.000000100000000 2 0

0111000
+58 0 *
Ve
0.000000100000000
2593.214314169723366 -978.000000000000000 -25.000000000000000
0 0

0101101
*
Ed
 0.000000100000000 1 1 0
1  19 0 0.000000000000000 5.000000000000000
3  6 7CN 3 0 0.000000000000000 5.000000000000000
0

0101000
+89 29 -56 29 *
Ed
 0.000000100000000 1 1 0
1  20 0 0.000000000000000 6.283185307179586
2  8 3 32 0.000000000000000 6.283185307179586
0

0101000
+56 33 -56 33 *
Wi

0101100
+55 0 -55 0 -88 21 +54 31 *
Fa
0  0.000000100000000 3 0

0111000
+53 0 *
Ed
 0.000000100000000 1 1 0
1  21 0 0.000000000000000 50.000000000000000
0

0101000
+76 10 -69 10 *
Wi

0101100
+51 35 -74 36 +67 37 -83 35 *
Ve
0.000000100000000
3680.999999999999091 -1758.000000000000000 -25.000000000000000
0 0

0101101
*
Ed
 0.000000100000000 1 1 0
1  22 0 0.000000000000000 6.283185307179586
2  9 9 41 0.000000000000000 6.283185307179586
0

0101000
+49 42 -49 42 *
Wi

0101100
-48 40 *
Ve
0.000000100000000
3680.999999999999091 -1432.159299032091212 -25.000000000000000
0 0

0101101
*
Ed
 0.000000100000000 1 1 0
1  23 0 0.000000000000000 6.283185307179586
2  10 10 41 0.000000000000000 6.283185307179586
0

0101000
+46 42 -46 42 *
Wi

0101100
-45 40 *
Fa
0  0.000000100000000 8 35

0111000
+50 0 +47 0 +44 0 *
Wi

0101100
+64 44 -75 45 +68 46 -51 44 *
Ve
0.000000100000000
3540.900465488300597 -1843.000000000000000 -25.000000000000000
0 0

0101101
*
Ed
 0.000000100000000 1 1 0
1  24 0 0.000000000000000 6.283185307179586
2  11 12 50 0.000000000000000 6.283185307179586
0

0101000
+41 51 -41 51 *
Wi

0101100
-40 49 *
Ve
0.000000100000000
3605.999999999999091 -1843.000000000000000 -25.000000000000000
0 0

0101101
*
Ed
 0.000000100000000 1 1 0
1  25 0 0.000000000000000 6.283185307179586
2  12 13 50 0.000000000000000 6.283185307179586
0

0101000
+38 51 -38 51 *
Wi

0101100
-37 49 *
Fa
0  0.000000100000000 11 44

0111000
+42 0 +39 0 +36 0 *
Wi

0101100
+59 0 *
Fa
0  0.000000100000000 14 0

0111000
+34 53 *
Wi

0101100
+54 0 *
Fa
0  0.000000100000000 15 0

0111000
+32 53 *
Ve
0.000000100000000
3675.999999999999091 -1758.000000000000000 -25.000000000000000
0 0

0101101
*
Ed
 0.000000100000000 1 1 0
1  26 0 0.000000000000000 5.000000000000000
3  13 14CN 9 0 0.000000000000000 5.000000000000000
0

0101000
+49 54 -30 54 *
Ed
 0.000000100000000 1 1 0
1  27 0 0.000000000000000 6.283185307179586
2  15 9 57 0.000000000000000 6.283185307179586
0

0101000
+30 58 -30 58 *
Wi

0101100
+29 0 -29 0 -48 40 +28 56 *
Fa
0  0.000000100000000 9 0

0111000
+27 0 *
Ve
0.000000100000000
3675.999999999999091 -1432.159299032091212 -25.000000000000000
0 0

0101101
*
Ed
 0.000000100000000 1 1 0
1  28 0 0.000000000000000 5.000000000000000
3  16 17CN 10 0 0.000000000000000 5.000000000000000
0

0101000
+46 54 -25 54 *
Ed
 0.000000100000000 1 1 0
1  29 0 0.000000000000000 6.283185307179586
2  18 10 57 0.000000000000000 6.283185307179586
0

0101000
+25 58 -25 58 *
Wi

0101100
+24 0 -24 0 -45 40 +23 56 *
Fa
0  0.000000100000000 10 0

0111000
+22 0 *
Ve
0.000000100000000
3540.900465488300597 -1838.000000000000000 -25.000000000000000
0 0

0101101
*
Ed
 0.000000100000000 1 1 0
1  30 0 0.000000000000000 5.000000000000000
3  19 20CN 12 0 0.000000000000000 5.000000000000000
0

0101000
+41 59 -20 59 *
Ed
 0.000000100000000 1 1 0
1  31 0 0.000000000000000 6.283185307179586
2  21 12 62 0.000000000000000 6.283185307179586
0

0101000
+20 63 -20 63 *
Wi

0101100
+19 0 -19 0 -40 49 +18 61 *
Fa
0  0.000000100000000 12 0

0111000
+17 0 *
Ve
0.000000100000000
3605.999999999999091 -1838.000000000000000 -25.000000000000000
0 0

0101101
*
Ed
 0.000000100000000 1 1 0
1  32 0 0.000000000000000 5.000000000000000
3  22 23CN 13 0 0.000000000000000 5.000000000000000
0

0101000
+38 59 -15 59 *
Ed
 0.000000100000000 1 1 0
1  33 0 0.000000000000000 6.283185307179586
2  24 13 62 0.000000000000000 6.283185307179586
0

0101000
+15 63 -15 63 *
Wi

0101100
+14 0 -14 0 -37 49 +13 61 *
Fa
0  0.000000100000000 13 0

0111000
+12 0 *
Wi

0101100
+28 0 *
Fa
0  0.000000100000000 16 0

0111000
+10 65 *
Wi

0101100
+23 0 *
Fa
0  0.000000100000000 17 0

0111000
+8 65 *
Wi

0101100
+18 0 *
Fa
0  0.000000100000000 18 0

0111000
+6 67 *
Wi

0101100
+13 0 *
Fa
0  0.000000100000000 19 0

0111000
+4 67 *
Sh

0101100
+86 0 +79 8 +72 26 -65 28 +62 8 -57 0 -52 0 +43 34 +35 43 +33 52 
+31 52 -26 34 -21 34 -16 43 -11 43 +9 64 +7 64 +5 66 +3 66 *
So

0100000
+2 0 *

+1 1 