
CASCADE Topology V1, (c) Matra-Datavision
Locations 47
1
1.000000000000000 0.000000000000000 0.000000000000000 0.000000000000000 
0.000000000000000 0.000000000000000 -1.000000000000000 0.000000000000000 
0.000000000000000 1.000000000000000 0.000000000000000 0.000000000000000 
1
1.000000000000000 0.000000000000000 0.000000000000000 0.000000000000000 
0.000000000000000 -0.000000000000000 -1.000000000000000 0.000000000000000 
0.000000000000000 1.000000000000000 -0.000000000000000 0.000000000000000 
1
1.000000000000000 0.000000000000000 0.000000000000000 0.000000000000000 
0.000000000000000 -0.000000000000000 -1.000000000000000 0.000000000000000 
0.000000000000000 1.000000000000000 -0.000000000000000 0.000000000000000 
1
1.000000000000000 0.000000000000000 0.000000000000000 0.000000000000000 
0.000000000000000 -0.000000000000000 -1.000000000000000 0.000000000000000 
0.000000000000000 1.000000000000000 -0.000000000000000 0.000000000000000 
1
1.000000000000000 0.000000000000000 0.000000000000000 0.000000000000000 
0.000000000000000 -0.000000000000000 -1.000000000000000 0.000000000000000 
0.000000000000000 1.000000000000000 -0.000000000000000 0.000000000000000 
2  2 1 3 -1 4 1 5 -1 0
1
1.000000000000000 0.000000000000000 0.000000000000000 0.000000000000000 
0.000000000000000 1.000000000000000 0.000000000000000 0.000000000000000 
0.000000000000000 0.000000000000000 1.000000000000000 0.000000000000000 
1
1.000000000000000 0.000000000000000 0.000000000000000 0.000000000000000 
0.000000000000000 -0.000000000000000 -1.000000000000000 0.000000000000000 
0.000000000000000 1.000000000000000 -0.000000000000000 0.000000000000000 
1
1.000000000000000 0.000000000000000 0.000000000000000 0.000000000000000 
0.000000000000000 -0.000000000000000 -1.000000000000000 0.000000000000000 
0.000000000000000 1.000000000000000 -0.000000000000000 0.000000000000000 
2  7 1 8 1 9 -1 0
1
1.000000000000000 0.000000000000000 0.000000000000000 0.000000000000000 
0.000000000000000 1.000000000000000 0.000000000000000 0.000000000000000 
0.000000000000000 0.000000000000000 1.000000000000000 15.000000000000000 
2  7 1 8 1 9 -1 11 1 0
2  8 -1 7 -1 0
2  9 1 8 -1 7 -1 0
2  11 -1 9 1 8 -1 7 -1 0
2  9 -1 2 1 3 -1 4 1 5 -1 0
2  7 1 8 1 0
2  4 1 5 -1 0
2  9 -1 11 1 2 1 3 -1 0
2  7 1 8 1 9 -1 11 1 2 1 3 -1 0
1
1.000000000000000 0.000000000000000 0.000000000000000 0.000000000000000 
0.000000000000000 1.000000000000000 0.000000000000000 0.000000000000000 
0.000000000000000 0.000000000000000 1.000000000000000 0.000000000000000 
1
1.000000000000000 0.000000000000000 0.000000000000000 0.000000000000000 
0.000000000000000 -0.000000000000000 -1.000000000000000 -15.000000000000000 
0.000000000000000 1.000000000000000 -0.000000000000000 -0.000000000000003 
2  21 1 22 1 2 -1 11 -1 9 1 8 -1 7 -1 0
2  21 1 22 1 3 -1 0
2  22 -1 21 -1 0
2  3 1 22 -1 21 -1 0
1
1.000000000000000 0.000000000000000 0.000000000000000 0.000000000000000 
0.000000000000000 1.000000000000000 0.000000000000000 0.000000000000000 
0.000000000000000 0.000000000000000 1.000000000000000 122.000000000000000 
2  27 -1 3 1 22 -1 21 -1 0
2  9 -1 11 1 2 1 22 -1 21 -1 0
2  2 1 3 -1 0
2  3 1 2 -1 0
2  7 1 8 1 9 -1 2 1 3 -1 0
2  3 1 2 -1 11 -1 9 1 8 -1 7 -1 0
2  21 1 22 1 3 -1 27 1 0
2  21 1 22 1 3 -1 4 1 5 -1 0
2  21 1 22 1 3 -1 27 1 4 1 5 -1 0
2  7 1 8 1 9 -1 11 1 2 1 3 -1 4 1 5 -1 0
1
1.000000000000000 0.000000000000000 0.000000000000000 0.000000000000000 
0.000000000000000 1.000000000000000 0.000000000000000 0.000000000000000 
0.000000000000000 0.000000000000000 1.000000000000000 0.000000000000000 
1
0.000000000000000 0.000000000000000 -1.000000000000000 999.989999999999668 
0.000000000000000 -1.000000000000000 0.000000000000000 0.000000000000000 
-1.000000000000000 0.000000000000000 0.000000000000000 0.000000000000000 
2  38 1 39 1 5 -1 0
2  5 1 39 -1 38 -1 0
1
1.000000000000000 0.000000000000000 0.000000000000000 2146.227337951887421 
0.000000000000000 1.000000000000000 0.000000000000000 0.000000000000477 
0.000000000000000 0.000000000000000 1.000000000000000 -0.000000000000000 
2  42 -1 5 1 39 -1 38 -1 0
2  39 -1 38 -1 0
2  4 1 39 -1 38 -1 0
2  3 -1 27 1 4 1 5 -1 0
2  21 1 22 1 0
Curve2ds 86
1 250.00000000000000000 0.00000000000000000 0.00000000000000000 -1.00000000000000000 
1 -280.02438952777083614 436.95102724475054856 0.00000000000000000 -1.00000000000000000 
1 0.00000000000000000 0.00000000000000000 0.00000000000000000 -1.00000000000000000 
1 212.51306437876860400 0.00000000000000000 0.00000000000000000 -1.00000000000000000 
1 -30.02438952777083614 436.95102724475054856 -1.00000000000000000 0.00000000000000000 
1 0.00000000000000000 0.00000000000000000 1.00000000000000000 0.00000000000000000 
1 0.00000000000000000 -15.00000000000000000 1.00000000000000000 0.00000000000000000 
1 0.00000000000000000 -0.00000000000000000 0.00000000000000000 -1.00000000000000000 
1 -280.02438952777083614 147.21892803172977437 0.56394902148175152 -0.82580960346182397 
1 0.00000000000000000 -0.00000000000000000 1.00000000000000000 0.00000000000000000 
1 0.00000000000000000 -15.00000000000000000 1.00000000000000000 0.00000000000000000 
1 81.47561047222916386 -382.13773414861111632 0.00000000000000000 -1.00000000000000000 
1 0.00000000000000000 0.00000000000000000 1.00000000000000000 0.00000000000000000 
1 0.00000000000000000 -15.00000000000000000 1.00000000000000000 0.00000000000000000 
1 81.47561047222916386 -421.05897275524978340 1.00000000000000000 -0.00000000000000000 
1 0.00000000000000000 0.00000000000000000 1.00000000000000000 0.00000000000000000 
1 0.00000000000000000 -15.00000000000000000 1.00000000000000000 0.00000000000000000 
1 331.47561047222916386 -421.05897275524978340 0.00000000000000000 1.00000000000000000 
1 331.47561047222916386 -304.91869931435894614 -0.56394902148175152 0.82580960346182397 
1 -30.02438952777083614 224.43796286598194456 0.00000000000000000 1.00000000000000000 
1 0.00000000000000000 0.00000000000000000 1.00000000000000000 0.00000000000000000 
1 0.00000000000000000 -15.00000000000000000 1.00000000000000000 0.00000000000000000 
1 0.00000000000000000 0.00000000000000000 1.00000000000000000 0.00000000000000000 
1 0.00000000000000000 -15.00000000000000000 1.00000000000000000 0.00000000000000000 
2 -69.27438952777083614 -27.04897275524945144 0.00000000000000000 1.00000000000000000 -1.00000000000000000 0.00000000000000000 5.00000000000000000
1 0.00000000000000000 0.00000000000000000 1.00000000000000000 0.00000000000000000 
1 0.00000000000000000 -15.00000000000000000 1.00000000000000000 0.00000000000000000 
2 -69.27438952777083614 124.95102724475054856 0.00000000000000000 1.00000000000000000 -1.00000000000000000 0.00000000000000000 5.00000000000000000
1 0.00000000000000000 0.00000000000000000 1.00000000000000000 0.00000000000000000 
1 0.00000000000000000 -15.00000000000000000 1.00000000000000000 0.00000000000000000 
2 -255.02438952777083614 244.95102724475054856 0.00000000000000000 1.00000000000000000 -1.00000000000000000 0.00000000000000000 5.00000000000000000
1 0.00000000000000000 0.00000000000000000 1.00000000000000000 0.00000000000000000 
1 0.00000000000000000 -15.00000000000000000 1.00000000000000000 0.00000000000000000 
2 -255.02438952777083614 356.95102724475054856 0.00000000000000000 1.00000000000000000 -1.00000000000000000 0.00000000000000000 5.00000000000000000
1 125.00000000000000000 7.50000000000000000 -1.00000000000000000 0.00000000000000000 
1 0.00000000000000000 -0.00000000000000000 1.00000000000000000 0.00000000000000000 
1 0.00000000000000000 -122.00000000000000000 1.00000000000000000 0.00000000000000000 
1 81.47561047222916386 -406.05897275524978340 1.00000000000000000 -0.00000000000000000 
1 0.00000000000000000 0.00000000000000000 0.00000000000000000 -1.00000000000000000 
1 38.92123860663866708 0.00000000000000000 0.00000000000000000 -1.00000000000000000 
1 0.00000000000000000 0.00000000000000000 0.00000000000000000 -1.00000000000000000 
1 250.00000000000000000 0.00000000000000000 0.00000000000000000 -1.00000000000000000 
1 0.00000000000000000 0.00000000000000000 0.00000000000000000 -1.00000000000000000 
1 250.00000000000000000 0.00000000000000000 -1.00000000000000000 -0.00000000000000000 
1 116.14027344089083726 0.00000000000000000 0.00000000000000000 -1.00000000000000000 
1 0.00000000000000000 0.00000000000000000 0.00000000000000000 -1.00000000000000000 
1 6.28318530717958623 0.00000000000000000 0.00000000000000000 -1.00000000000000000 
1 0.00000000000000000 0.00000000000000000 0.00000000000000000 -1.00000000000000000 
1 6.28318530717958623 0.00000000000000000 0.00000000000000000 -1.00000000000000000 
1 0.00000000000000000 0.00000000000000000 0.00000000000000000 -1.00000000000000000 
1 6.28318530717958623 0.00000000000000000 0.00000000000000000 -1.00000000000000000 
1 0.00000000000000000 0.00000000000000000 0.00000000000000000 -1.00000000000000000 
1 6.28318530717958623 0.00000000000000000 0.00000000000000000 -1.00000000000000000 
1 15.00000000000000000 -0.00000000000000000 0.00000000000000000 -1.00000000000000000 
1 0.00000000000000000 -0.00000000000000000 0.00000000000000000 -1.00000000000000000 
1 0.00000000000000000 -0.00000000000000000 0.00000000000000000 -1.00000000000000000 
1 250.00000000000000000 0.00000000000000000 0.00000000000000000 -1.00000000000000000 
2 120.00000000000000000 -61.00000000000000000 1.00000000000000000 -0.00000000000000000 -0.00000000000000000 -1.00000000000000000 5.00000000000000000
1 0.00000000000000000 -15.00000000000056843 1.00000000000000000 0.00000000000000000 
2 210.00000000000000000 -61.00000000000000000 1.00000000000000000 -0.00000000000000000 -0.00000000000000000 -1.00000000000000000 5.00000000000000000
1 0.00000000000000000 -15.00000000000056843 1.00000000000000000 0.00000000000000000 
1 0.00000000000000000 0.00000000000000000 0.00000000000000000 -1.00000000000000000 
1 250.00000000000000000 0.00000000000000000 0.00000000000000000 -1.00000000000000000 
1 0.00000000000000000 0.00000000000000000 1.00000000000000000 0.00000000000000000 
1 -0.00000000000000000 -122.00000000000000000 1.00000000000000000 0.00000000000000000 
1 125.00000000000000000 -7.50000000000000000 -0.00000000000000000 1.00000000000000000 
1 0.00000000000000000 0.00000000000000000 0.00000000000000000 -1.00000000000000000 
1 15.00000000000000000 0.00000000000000000 0.00000000000000000 -1.00000000000000000 
1 0.00000000000000000 0.00000000000000000 1.00000000000000000 0.00000000000000000 
1 0.00000000000000000 -122.00000000000000000 1.00000000000000000 0.00000000000000000 
1 -125.00000000000000000 -7.50000000000000000 1.00000000000000000 0.00000000000000000 
1 0.00000000000000000 0.00000000000000000 1.00000000000000000 0.00000000000000000 
1 0.00000000000000000 -2146.22733795188742079 1.00000000000000000 0.00000000000000000 
2 0.00000000000000000 0.00000000000000000 1.00000000000000000 -0.00000000000000022 0.00000000000000022 1.00000000000000000 5.00000000000000000
2 40.00000000000000000 -61.00000000000000000 -1.00000000000000000 -0.00000000000000000 0.00000000000000000 -1.00000000000000000 5.00000000000000000
1 0.00000000000000000 0.00000000000000000 1.00000000000000000 0.00000000000000000 
1 0.00000000000000000 -2146.22733795188742079 1.00000000000000000 0.00000000000000000 
2 0.00000000000000000 0.00000000000000000 1.00000000000000000 -0.00000000000000022 0.00000000000000022 1.00000000000000000 5.00000000000000000
2 130.00000000000000000 -61.00000000000000000 -1.00000000000000000 -0.00000000000000000 0.00000000000000000 -1.00000000000000000 5.00000000000000000
1 -125.00000000000000000 7.50000000000000000 0.00000000000000000 -1.00000000000000000 
1 0.00000000000000000 -0.00000000000000000 1.00000000000000000 0.00000000000000000 
1 0.00000000000000000 -122.00000000000000000 1.00000000000000000 0.00000000000000000 
1 0.00000000000000000 0.00000000000000000 0.00000000000000000 -1.00000000000000000 
1 6.28318530717958623 0.00000000000000000 0.00000000000000000 -1.00000000000000000 
1 0.00000000000000000 0.00000000000000000 0.00000000000000000 -1.00000000000000000 
1 6.28318530717958623 0.00000000000000000 0.00000000000000000 -1.00000000000000000 
Curves 38
1 1858.00000000000000000 3134.00000000000000000 0.00000000000000000 0.00000000000000000 0.00000000000000000 1.00000000000000000 
1 1568.26790078697922581 3134.00000000000000000 0.00000000000000000 0.00000000000000000 0.00000000000000000 1.00000000000000000 
1 1858.00000000000000000 3134.00000000000000000 0.00000000000000000 -1.00000000000000000 0.00000000000000000 0.00000000000000000 
1 1858.00000000000000000 2884.00000000000000000 0.00000000000000000 0.00000000000000000 0.00000000000000000 1.00000000000000000 
1 1858.00000000000000000 2884.00000000000000000 0.00000000000000000 0.00000000000000000 1.00000000000000000 0.00000000000000000 
1 1038.91123860663833511 2772.50000000000000000 0.00000000000000000 0.00000000000000000 0.00000000000000000 1.00000000000000000 
1 1568.26790078697922581 3134.00000000000000000 0.00000000000000000 -0.82580960346182397 -0.56394902148175152 0.00000000000000000 
1 1038.91123860663833511 2772.50000000000000000 0.00000000000000000 -1.00000000000000000 0.00000000000000000 0.00000000000000000 
1 999.98999999999966803 2772.50000000000000000 0.00000000000000000 0.00000000000000000 -1.00000000000000000 0.00000000000000000 
1 999.98999999999966803 2522.50000000000000000 0.00000000000000000 1.00000000000000000 0.00000000000000000 0.00000000000000000 
1 1116.13027344089050530 2522.50000000000000000 0.00000000000000000 0.82580960346182397 0.56394902148175152 0.00000000000000000 
1 1645.48693562123139600 2884.00000000000000000 0.00000000000000000 1.00000000000000000 0.00000000000000000 0.00000000000000000 
2 1394.00000000000000000 2923.25000000000000000 0.00000000000000000 0.00000000000000000 0.00000000000000000 1.00000000000000000 1.00000000000000000 0.00000000000000000 -0.00000000000000000 -0.00000000000000000 1.00000000000000000 0.00000000000000000 5.00000000000000000
2 1546.00000000000000000 2923.25000000000000000 0.00000000000000000 0.00000000000000000 0.00000000000000000 1.00000000000000000 1.00000000000000000 0.00000000000000000 -0.00000000000000000 -0.00000000000000000 1.00000000000000000 0.00000000000000000 5.00000000000000000
2 1666.00000000000000000 3109.00000000000000000 0.00000000000000000 0.00000000000000000 0.00000000000000000 1.00000000000000000 1.00000000000000000 0.00000000000000000 -0.00000000000000000 -0.00000000000000000 1.00000000000000000 0.00000000000000000 5.00000000000000000
2 1778.00000000000000000 3109.00000000000000000 0.00000000000000000 0.00000000000000000 0.00000000000000000 1.00000000000000000 1.00000000000000000 0.00000000000000000 -0.00000000000000000 -0.00000000000000000 1.00000000000000000 0.00000000000000000 5.00000000000000000
1 1014.98999999999966803 2772.50000000000000000 0.00000000000000000 0.00000000000000000 -1.00000000000000000 0.00000000000000000 
1 1645.48693562123139600 2884.00000000000000000 0.00000000000000000 0.00000000000000000 0.00000000000000000 1.00000000000000000 
1 999.98999999999966803 2772.50000000000000000 0.00000000000000000 0.00000000000000000 0.00000000000000000 1.00000000000000000 
1 999.98999999999966803 2522.50000000000000000 0.00000000000000000 0.00000000000000000 0.00000000000000000 1.00000000000000000 
1 1116.13027344089050530 2522.50000000000000000 0.00000000000000000 0.00000000000000000 0.00000000000000000 1.00000000000000000 
1 1399.00000000000000000 2923.25000000000000000 0.00000000000000000 0.00000000000000000 0.00000000000000000 1.00000000000000000 
1 1551.00000000000000000 2923.25000000000000000 0.00000000000000000 0.00000000000000000 0.00000000000000000 1.00000000000000000 
1 1671.00000000000000000 3109.00000000000000000 0.00000000000000000 0.00000000000000000 0.00000000000000000 1.00000000000000000 
1 1783.00000000000000000 3109.00000000000000000 0.00000000000000000 0.00000000000000000 0.00000000000000000 1.00000000000000000 
1 1014.98999999999966803 2772.50000000000000000 15.00000000000000000 0.00000000000000000 0.00000000000000000 1.00000000000000000 
1 1014.98999999999966803 2522.50000000000000000 15.00000000000000000 0.00000000000000000 0.00000000000000000 1.00000000000000000 
2 1014.98999999999966803 2652.50000000000000000 76.00000000000000000 -1.00000000000000000 -0.00000000000000022 0.00000000000000000 0.00000000000000022 -1.00000000000000000 0.00000000000000000 0.00000000000000000 0.00000000000000000 1.00000000000000000 5.00000000000000000
2 1014.98999999999966803 2562.50000000000000000 76.00000000000000000 -1.00000000000000000 -0.00000000000000022 0.00000000000000000 0.00000000000000022 -1.00000000000000000 0.00000000000000000 0.00000000000000000 0.00000000000000000 1.00000000000000000 5.00000000000000000
1 999.98999999999966803 2772.50000000000000000 15.00000000000000000 0.00000000000000000 0.00000000000000000 1.00000000000000000 
1 999.98999999999966803 2772.50000000000000000 0.00000000000000000 1.00000000000000000 0.00000000000000000 0.00000000000000000 
1 999.98999999999966803 2522.50000000000000000 15.00000000000000000 0.00000000000000000 0.00000000000000000 1.00000000000000000 
1 999.98999999999966803 2522.50000000000000000 0.00000000000000000 0.00000000000000000 1.00000000000000000 0.00000000000000000 
2 -2562.50000000000000000 76.00000000000000000 0.00000000000000000 0.00000000000000000 0.00000000000000000 1.00000000000000000 1.00000000000000000 0.00000000000000000 -0.00000000000000000 -0.00000000000000000 1.00000000000000000 0.00000000000000000 5.00000000000000000
2 -2652.50000000000000000 76.00000000000000000 0.00000000000000000 0.00000000000000000 0.00000000000000000 1.00000000000000000 1.00000000000000000 0.00000000000000000 -0.00000000000000000 -0.00000000000000000 1.00000000000000000 0.00000000000000000 5.00000000000000000
1 1014.98999999999966803 2522.50000000000000000 0.00000000000000000 -1.00000000000000000 0.00000000000000000 0.00000000000000000 
1 999.98999999999909960 2647.50000000000000000 76.00000000000000000 1.00000000000000000 0.00000000000000022 -0.00000000000000000 
1 999.98999999999909960 2557.50000000000000000 76.00000000000000000 1.00000000000000000 0.00000000000000022 -0.00000000000000000 
Polygon3D 0
PolygonOnTriangulations 0
Surfaces 22
1 1858.00000000000000000 3134.00000000000000000 0.00000000000000000 0.00000000000000000 -1.00000000000000000 0.00000000000000000 -1.00000000000000000 0.00000000000000000 0.00000000000000000 -0.00000000000000000 -0.00000000000000000 -1.00000000000000000 
1 1858.00000000000000000 2884.00000000000000000 0.00000000000000000 -1.00000000000000000 0.00000000000000000 0.00000000000000000 0.00000000000000000 1.00000000000000000 0.00000000000000000 0.00000000000000000 0.00000000000000000 -1.00000000000000000 
1 1421.04897275524945144 -0.00000000000063371 2853.97561047222916386 0.00000000000000000 -1.00000000000000000 -0.00000000000000022 0.00000000000000000 0.00000000000000022 -1.00000000000000000 1.00000000000000000 0.00000000000000000 0.00000000000000000 
1 1645.48693562123139600 2884.00000000000000000 0.00000000000000000 0.00000000000000000 1.00000000000000000 0.00000000000000000 1.00000000000000000 0.00000000000000000 0.00000000000000000 0.00000000000000000 0.00000000000000000 -1.00000000000000000 
1 1568.26790078697922581 3134.00000000000000000 0.00000000000000000 0.56394902148175152 -0.82580960346182397 0.00000000000000000 -0.82580960346182397 -0.56394902148175152 0.00000000000000000 0.00000000000000000 -0.00000000000000000 -1.00000000000000000 
1 1038.91123860663833511 2772.50000000000000000 0.00000000000000000 0.00000000000000000 -1.00000000000000000 0.00000000000000000 -1.00000000000000000 0.00000000000000000 0.00000000000000000 -0.00000000000000000 -0.00000000000000000 -1.00000000000000000 
1 999.98999999999966803 2772.50000000000000000 0.00000000000000000 1.00000000000000000 0.00000000000000000 -0.00000000000000000 0.00000000000000000 -1.00000000000000000 0.00000000000000000 0.00000000000000000 -0.00000000000000000 -1.00000000000000000 
1 999.98999999999966803 2522.50000000000000000 0.00000000000000000 0.00000000000000000 1.00000000000000000 0.00000000000000000 1.00000000000000000 0.00000000000000000 0.00000000000000000 0.00000000000000000 0.00000000000000000 -1.00000000000000000 
2 1394.00000000000000000 2923.25000000000000000 0.00000000000000000 -0.00000000000000000 -0.00000000000000000 -1.00000000000000000 1.00000000000000000 0.00000000000000000 0.00000000000000000 -0.00000000000000000 1.00000000000000000 -0.00000000000000000 5.00000000000000000
2 1546.00000000000000000 2923.25000000000000000 0.00000000000000000 -0.00000000000000000 -0.00000000000000000 -1.00000000000000000 1.00000000000000000 0.00000000000000000 0.00000000000000000 -0.00000000000000000 1.00000000000000000 -0.00000000000000000 5.00000000000000000
2 1666.00000000000000000 3109.00000000000000000 0.00000000000000000 -0.00000000000000000 -0.00000000000000000 -1.00000000000000000 1.00000000000000000 0.00000000000000000 0.00000000000000000 -0.00000000000000000 1.00000000000000000 -0.00000000000000000 5.00000000000000000
2 1778.00000000000000000 3109.00000000000000000 0.00000000000000000 -0.00000000000000000 -0.00000000000000000 -1.00000000000000000 1.00000000000000000 0.00000000000000000 0.00000000000000000 -0.00000000000000000 1.00000000000000000 -0.00000000000000000 5.00000000000000000
1 1007.48999999999966803 -15.00000000000058797 2647.50000000000000000 0.00000000000000000 1.00000000000000000 0.00000000000000023 0.00000000000000000 -0.00000000000000023 1.00000000000000000 1.00000000000000000 0.00000000000000000 -0.00000000000000000 
1 1014.98999999999966803 2772.50000000000000000 15.00000000000000000 1.00000000000000000 0.00000000000000000 -0.00000000000000000 0.00000000000000000 -1.00000000000000000 0.00000000000000000 0.00000000000000000 -0.00000000000000000 -1.00000000000000000 
1 999.98999999999966803 2522.50000000000000000 15.00000000000000000 -1.00000000000000000 0.00000000000000000 0.00000000000000000 0.00000000000000000 1.00000000000000000 0.00000000000000000 0.00000000000000000 0.00000000000000000 -1.00000000000000000 
1 1116.13027344089050530 2522.50000000000000000 0.00000000000000000 -0.56394902148175152 0.82580960346182397 0.00000000000000000 0.82580960346182397 0.56394902148175152 0.00000000000000000 0.00000000000000000 0.00000000000000000 -1.00000000000000000 
1 999.98999999999966803 2772.50000000000000000 15.00000000000000000 -0.00000000000000000 1.00000000000000000 0.00000000000000000 1.00000000000000000 0.00000000000000000 -0.00000000000000000 -0.00000000000000000 0.00000000000000000 -1.00000000000000000 
1 1014.98999999999966803 2522.50000000000000000 15.00000000000000000 0.00000000000000000 -1.00000000000000000 0.00000000000000000 -1.00000000000000000 0.00000000000000000 0.00000000000000000 -0.00000000000000000 -0.00000000000000000 -1.00000000000000000 
2 999.98999999999909960 2652.50000000000000000 76.00000000000000000 -1.00000000000000000 -0.00000000000000022 0.00000000000000000 0.00000000000000022 -1.00000000000000000 0.00000000000000000 0.00000000000000000 0.00000000000000000 1.00000000000000000 5.00000000000000000
2 999.98999999999909960 2562.50000000000000000 76.00000000000000000 -1.00000000000000000 -0.00000000000000022 0.00000000000000000 0.00000000000000022 -1.00000000000000000 0.00000000000000000 0.00000000000000000 0.00000000000000000 1.00000000000000000 5.00000000000000000
1 999.98999999999898591 -76.00000000000056843 2562.50000000000000000 -1.00000000000000000 -0.00000000000000000 0.00000000000000000 -0.00000000000000000 0.00000000000000000 -1.00000000000000000 0.00000000000000000 -1.00000000000000000 -0.00000000000000000 
1 999.98999999999898591 -76.00000000000058265 2652.50000000000000000 -1.00000000000000000 -0.00000000000000000 0.00000000000000000 -0.00000000000000000 0.00000000000000000 -1.00000000000000000 0.00000000000000000 -1.00000000000000000 -0.00000000000000000 
Triangulations 0

TShapes 121
Ve
0.000000100000000
1858.000000000000000 3134.000000000000000 0.000000000000000
0 0

0101101
*
Ed
 0.000000100000000 1 1 0
1  1 0 0.000000000000000 15.000000000000000
2  1 2 0 0.000000000000000 15.000000000000000
0

0101000
+121 10 -121 12 *
Ve
0.000000100000000
1568.267900786979226 3134.000000000000000 0.000000000000000
0 0

0101101
*
Ed
 0.000000100000000 1 1 0
1  2 0 0.000000000000000 15.000000000000000
0

0101000
+119 10 -119 12 *
Ed
 0.000000100000000 1 1 0
1  3 0 0.000000000000000 289.732099213020774
2  2 3 13 0.000000000000000 289.732099213020774
0

0101000
+121 0 -119 0 *
Wi

0101100
+120 0 -118 0 -117 10 +117 12 *
Fa
0  0.000000100000000 1 0

0111000
+116 0 *
Ve
0.000000100000000
1858.000000000000000 2884.000000000000000 0.000000000000000
0 0

0101101
*
Ed
 0.000000100000000 1 1 0
1  4 0 0.000000000000000 15.000000000000000
2  3 2 0 0.000000000000000 15.000000000000000
2  4 4 0 0.000000000000000 15.000000000000000
0

0101000
+114 10 -114 12 *
Ed
 0.000000100000000 1 1 0
1  5 0 0.000000000000000 250.000000000000000
2  5 3 13 0.000000000000000 250.000000000000000
2  6 2 14 0.000000000000000 250.000000000000000
2  7 2 15 0.000000000000000 250.000000000000000
0

0101000
+114 0 -121 0 *
Wi

0101100
+113 0 -120 0 -112 10 +112 12 *
Fa
0  0.000000100000000 2 0

0111000
+111 0 *
Ve
0.000000100000000
1038.911238606638335 2772.500000000000000 0.000000000000000
0 0

0101101
*
Ed
 0.000000100000000 1 1 0
1  6 0 0.000000000000000 15.000000000000000
2  8 6 0 0.000000000000000 15.000000000000000
0

0101000
+109 10 -109 12 *
Ed
 0.000000100000000 1 1 0
1  7 0 0.000000000000000 641.015386550675203
2  9 3 13 0.000000000000000 641.015386550675203
0

0101000
+119 0 -109 0 *
Wi

0101100
+118 0 -108 0 -107 10 +107 12 *
Fa
0  0.000000100000000 5 0

0111000
+106 0 *
Ve
0.000000100000000
999.989999999999668 2772.500000000000000 0.000000000000000
0 0

0101101
*
Ed
 0.000000100000000 1 1 0
1  8 0 0.000000000000000 38.921238606638667
2  10 6 14 0.000000000000000 38.921238606638667
2  11 6 15 0.000000000000000 38.921238606638667
2  12 3 13 0.000000000000000 38.921238606638667
0

0101000
+109 0 -104 0 *
Ve
0.000000100000000
999.989999999999668 2522.500000000000000 0.000000000000000
0 0

0101101
*
Ed
 0.000000100000000 1 1 0
1  9 0 0.000000000000000 250.000000000000000
2  13 7 14 0.000000000000000 250.000000000000000
2  14 7 15 0.000000000000000 250.000000000000000
2  15 3 13 0.000000000000000 250.000000000000000
0

0101000
+104 0 -102 0 *
Ve
0.000000100000000
1116.130273440890505 2522.500000000000000 0.000000000000000
0 0

0101101
*
Ed
 0.000000100000000 1 1 0
1  10 0 0.000000000000000 116.140273440890837
2  16 8 14 0.000000000000000 116.140273440890837
2  17 8 15 0.000000000000000 116.140273440890837
2  18 3 13 0.000000000000000 116.140273440890837
0

0101000
+102 0 -100 0 *
Ve
0.000000100000000
1645.486935621231396 2884.000000000000000 0.000000000000000
0 0

0101101
*
Ed
 0.000000100000000 1 1 0
1  11 0 0.000000000000000 641.015386550675203
2  19 3 13 0.000000000000000 641.015386550675203
0

0101000
+100 0 -98 0 *
Ed
 0.000000100000000 1 1 0
1  12 0 0.000000000000000 212.513064378768604
2  20 3 13 0.000000000000000 212.513064378768604
2  21 4 14 0.000000000000000 212.513064378768604
2  22 4 15 0.000000000000000 212.513064378768604
0

0101000
+98 0 -114 0 *
Wi

0101100
+117 17 +107 17 +103 17 +101 17 +99 17 +97 17 +96 17 +112 17 *
Ve
0.000000100000000
1399.000000000000000 2923.250000000000000 0.000000000000000
0 0

0101101
*
Ed
 0.000000100000000 1 1 0
1  13 0 0.000000000000000 6.283185307179586
2  23 9 14 0.000000000000000 6.283185307179586
2  24 9 15 0.000000000000000 6.283185307179586
2  25 3 13 0.000000000000000 6.283185307179586
0

0101000
+94 0 -94 0 *
Wi

0101100
-93 17 *
Ve
0.000000100000000
1551.000000000000000 2923.250000000000000 0.000000000000000
0 0

0101101
*
Ed
 0.000000100000000 1 1 0
1  14 0 0.000000000000000 6.283185307179586
2  26 10 14 0.000000000000000 6.283185307179586
2  27 10 15 0.000000000000000 6.283185307179586
2  28 3 13 0.000000000000000 6.283185307179586
0

0101000
+91 0 -91 0 *
Wi

0101100
-90 17 *
Ve
0.000000100000000
1671.000000000000000 3109.000000000000000 0.000000000000000
0 0

0101101
*
Ed
 0.000000100000000 1 1 0
1  15 0 0.000000000000000 6.283185307179586
2  29 11 14 0.000000000000000 6.283185307179586
2  30 11 15 0.000000000000000 6.283185307179586
2  31 3 13 0.000000000000000 6.283185307179586
0

0101000
+88 0 -88 0 *
Wi

0101100
-87 17 *
Ve
0.000000100000000
1783.000000000000000 3109.000000000000000 0.000000000000000
0 0

0101101
*
Ed
 0.000000100000000 1 1 0
1  16 0 0.000000000000000 6.283185307179586
2  32 12 14 0.000000000000000 6.283185307179586
2  33 12 15 0.000000000000000 6.283185307179586
2  34 3 13 0.000000000000000 6.283185307179586
0

0101000
+85 0 -85 0 *
Wi

0101100
-84 17 *
Fa
0  0.000000100000000 3 0

0111000
+95 0 +92 0 +89 0 +86 0 +83 0 *
Ve
0.000000100000000
1014.989999999999668 2522.500000000000000 0.000000000000000
0 0

0101101
*
Ed
 0.000000100000000 1 1 0
1  10 0 15.000000000000000 116.140273440890837
2  16 8 14 15.000000000000000 116.140273440890837
2  17 8 15 15.000000000000000 116.140273440890837
2  18 3 13 15.000000000000000 116.140273440890837
0

0101000
+81 23 -100 0 *
Ve
0.000000100000000
1014.989999999999668 2772.500000000000000 0.000000000000000
0 0

0101101
*
Ed
 0.000000100000000 1 1 0
1  17 0 0.000000000000000 250.000000000000000
2  35 13 25 0.000000000000000 250.000000000000000
2  36 14 26 0.000000000000000 250.000000000000000
2  37 14 28 0.000000000000000 250.000000000000000
2  38 3 29 0.000000000000000 250.000000000000000
0

0101000
+79 0 -81 0 *
Ed
 0.000000100000000 1 1 0
1  8 0 0.000000000000000 23.921238606638667
2  10 6 14 0.000000000000000 23.921238606638667
2  11 6 15 0.000000000000000 23.921238606638667
2  12 3 13 0.000000000000000 23.921238606638667
0

0101000
+109 0 -79 23 *
Wi

0101100
+112 20 +96 20 +97 20 +80 20 +78 24 +77 20 +107 20 +117 20 *
Wi

0101100
-93 20 *
Wi

0101100
-90 20 *
Wi

0101100
-87 20 *
Wi

0101100
-84 20 *
Fa
0  0.000000100000000 3 19

0111000
+76 0 +75 0 +74 0 +73 0 +72 0 *
Ed
 0.000000100000000 1 1 0
1  18 0 0.000000000000000 15.000000000000000
2  39 4 0 0.000000000000000 15.000000000000000
0

0101000
+98 10 -98 12 *
Wi

0101100
+70 0 -113 0 -96 10 +96 12 *
Fa
0  0.000000100000000 4 0

0111000
+69 0 *
Ve
0.000000100000000
999.989999999999668 2772.500000000000000 15.000000000000000
0 0

0101101
*
Ed
 0.000000100000000 1 1 0
1  19 0 0.000000000000000 15.000000000000000
2  40 6 0 0.000000000000000 15.000000000000000
2  41 7 0 0.000000000000000 15.000000000000000
0

0101000
+104 10 -67 31 *
Ed
 0.000000100000000 1 1 0
1  8 0 23.921238606638667 38.921238606638667
2  10 6 14 23.921238606638667 38.921238606638667
2  11 6 15 23.921238606638667 38.921238606638667
2  12 3 13 23.921238606638667 38.921238606638667
0

0101000
+79 23 -67 33 *
Wi

0101100
+108 30 -66 30 -103 32 +77 20 +65 20 *
Fa
0  0.000000100000000 6 30

0111000
+64 0 *
Ve
0.000000100000000
999.989999999999668 2522.500000000000000 15.000000000000000
0 0

0101101
*
Ed
 0.000000100000000 1 1 0
1  20 0 0.000000000000000 15.000000000000000
2  42 7 0 0.000000000000000 15.000000000000000
2  43 8 0 0.000000000000000 15.000000000000000
0

0101000
+102 10 -62 31 *
Ed
 0.000000100000000 1 1 0
1  9 0 0.000000000000000 250.000000000000000
2  13 7 14 0.000000000000000 250.000000000000000
2  14 7 15 0.000000000000000 250.000000000000000
2  15 3 13 0.000000000000000 250.000000000000000
2  44 15 33 0.000000000000000 250.000000000000000
0

0101000
+67 33 -62 33 *
Wi

0101100
+66 30 -61 30 -101 32 +60 20 *
Fa
0  0.000000100000000 7 30

0111000
+59 0 *
Ed
 0.000000100000000 1 1 0
1  21 0 0.000000000000000 15.000000000000000
2  45 8 0 0.000000000000000 15.000000000000000
0

0101000
+100 10 -100 12 *
Ed
 0.000000100000000 1 1 0
1  10 0 0.000000000000000 15.000000000000000
2  16 8 14 0.000000000000000 15.000000000000000
2  17 8 15 0.000000000000000 15.000000000000000
2  18 3 13 0.000000000000000 15.000000000000000
0

0101000
+62 33 -81 23 *
Wi

0101100
+61 30 -57 30 -99 32 +56 20 +80 20 *
Fa
0  0.000000100000000 8 30

0111000
+55 0 *
Wi

0101100
+57 0 -70 0 -97 10 +97 12 *
Fa
0  0.000000100000000 16 0

0111000
+53 0 *
Ed
 0.000000100000000 1 1 0
1  22 0 0.000000000000000 15.000000000000000
3  46 47CN 9 0 0.000000000000000 15.000000000000000
0

0101000
+94 10 -94 12 *
Wi

0101100
+51 0 -51 0 -93 10 +93 12 *
Fa
0  0.000000100000000 9 0

0111000
+50 0 *
Ed
 0.000000100000000 1 1 0
1  23 0 0.000000000000000 15.000000000000000
3  48 49CN 10 0 0.000000000000000 15.000000000000000
0

0101000
+91 10 -91 12 *
Wi

0101100
+48 0 -48 0 -90 10 +90 12 *
Fa
0  0.000000100000000 10 0

0111000
+47 0 *
Ed
 0.000000100000000 1 1 0
1  24 0 0.000000000000000 15.000000000000000
3  50 51CN 11 0 0.000000000000000 15.000000000000000
0

0101000
+88 10 -88 12 *
Wi

0101100
+45 0 -45 0 -87 10 +87 12 *
Fa
0  0.000000100000000 11 0

0111000
+44 0 *
Ed
 0.000000100000000 1 1 0
1  25 0 0.000000000000000 15.000000000000000
3  52 53CN 12 0 0.000000000000000 15.000000000000000
0

0101000
+85 10 -85 12 *
Wi

0101100
+42 0 -42 0 -84 10 +84 12 *
Fa
0  0.000000100000000 12 0

0111000
+41 0 *
Ed
 0.000000100000000 1 1 0
1  26 0 0.000000000000000 122.000000000000000
2  54 17 0 0.000000000000000 122.000000000000000
2  55 14 0 0.000000000000000 122.000000000000000
0

0101000
+79 24 -79 34 *
Ed
 0.000000100000000 1 1 0
1  27 0 0.000000000000000 122.000000000000000
2  56 18 0 0.000000000000000 122.000000000000000
2  57 14 0 0.000000000000000 122.000000000000000
0

0101000
+81 24 -81 34 *
Wi

0101100
+39 18 -78 35 +78 36 -38 18 *
Ve
0.000000100000000
1014.989999999999668 2647.500000000000000 76.000000000000000
0 0

0101101
*
Ed
 0.000000100000000 1 1 0
1  28 0 0.000000000000000 6.283185307179586
2  58 14 18 0.000000000000000 6.283185307179586
2  59 19 0 0.000000000000000 6.283185307179586
0

0101000
+36 0 -36 0 *
Wi

0101100
+35 0 *
Ve
0.000000100000000
1014.989999999999668 2557.500000000000000 76.000000000000000
0 0

0101101
*
Ed
 0.000000100000000 1 1 0
1  29 0 0.000000000000000 6.283185307179586
2  60 14 18 0.000000000000000 6.283185307179586
2  61 20 0 0.000000000000000 6.283185307179586
0

0101000
+33 0 -33 0 *
Wi

0101100
+32 0 *
Fa
0  0.000000100000000 14 18

0111000
+37 0 +34 0 +31 0 *
Ve
0.000000100000000
999.989999999999668 2772.500000000000000 0.000000000000000
0 0

0101101
*
Ed
 0.000000100000000 1 1 0
1  30 0 0.000000000000000 122.000000000000000
2  62 17 0 0.000000000000000 122.000000000000000
2  63 15 0 0.000000000000000 122.000000000000000
0

0101000
+67 0 -29 34 *
Ed
 0.000000100000000 1 1 0
1  31 0 0.000000000000000 15.000000000000000
2  64 17 26 0.000000000000000 15.000000000000000
2  65 17 28 0.000000000000000 15.000000000000000
2  66 13 25 0.000000000000000 15.000000000000000
0

0101000
+29 0 -79 0 *
Wi

0101100
+28 0 -39 0 +65 20 +27 34 *
Fa
0  0.000000100000000 17 0

0111000
+26 0 *
Ve
0.000000100000000
999.989999999999668 2522.500000000000000 0.000000000000000
0 0

0101101
*
Ed
 0.000000100000000 1 1 0
1  32 0 0.000000000000000 122.000000000000000
2  67 15 0 0.000000000000000 122.000000000000000
2  68 18 0 0.000000000000000 122.000000000000000
0

0101000
+62 0 -24 34 *
Ed
 0.000000100000000 1 1 0
1  33 0 0.000000000000000 250.000000000000000
2  69 15 26 0.000000000000000 250.000000000000000
2  70 15 28 0.000000000000000 250.000000000000000
2  71 13 25 0.000000000000000 250.000000000000000
0

0101000
+24 0 -29 0 *
Wi

0101100
+23 18 +60 37 +22 36 -28 18 *
Ve
0.000000100000568
-2557.500000000000000 76.000000000000000 0.000000000000000
0 0

0101101
*
Ed
 0.000000100000568 1 1 0
1  34 0 0.000000000000000 6.283185307179586
2  72 20 41 0.000000000000000 6.283185307179586
2  73 20 43 0.000000000000000 6.283185307179586
2  74 21 44 0.000000000000000 6.283185307179586
2  75 15 45 0.000000000000000 6.283185307179586
0

0101000
+20 0 -20 0 *
Wi

0101100
-19 40 *
Ve
0.000000100000568
-2647.500000000000000 76.000000000000000 0.000000000000000
0 0

0101101
*
Ed
 0.000000100000568 1 1 0
1  35 0 0.000000000000000 6.283185307179586
2  76 19 41 0.000000000000000 6.283185307179586
2  77 19 43 0.000000000000000 6.283185307179586
2  78 22 44 0.000000000000000 6.283185307179586
2  79 15 45 0.000000000000000 6.283185307179586
0

0101000
+17 0 -17 0 *
Wi

0101100
-16 40 *
Fa
0  0.000000100000000 15 18

0111000
+21 0 +18 0 +15 0 *
Ed
 0.000000100000000 1 1 0
1  36 0 0.000000000000000 15.000000000000000
2  80 13 25 0.000000000000000 15.000000000000000
2  81 18 26 0.000000000000000 15.000000000000000
2  82 18 28 0.000000000000000 15.000000000000000
0

0101000
+81 0 -24 0 *
Wi

0101100
+38 0 -23 0 +56 20 +13 34 *
Fa
0  0.000000100000000 18 0

0111000
+12 0 *
Wi

0101100
+27 0 +78 0 +13 0 +22 0 *
Fa
0  0.000000100000000 13 0

0111000
+10 47 *
Ed
 0.000000100000000 1 1 0
1  37 0 0.000000000000000 15.000000000000568
3  83 84CN 19 0 0.000000000000000 15.000000000000568
0

0101000
+17 40 -36 0 *
Wi

0101100
-16 40 -8 0 +35 0 +8 0 *
Fa
0  0.000000100000000 19 0

0111000
+7 0 *
Ed
 0.000000100000000 1 1 0
1  38 0 0.000000000000000 15.000000000000568
3  85 86CN 20 0 0.000000000000000 15.000000000000568
0

0101000
+20 40 -33 0 *
Wi

0101100
-19 40 -5 0 +32 0 +5 0 *
Fa
0  0.000000100000000 20 0

0111000
+4 0 *
Sh

0101100
-115 6 -110 6 -105 6 -82 16 +71 18 -68 6 -63 18 -58 18 -54 18 -52 6 
+49 6 +46 6 +43 6 +40 6 +30 0 +25 18 +14 0 +11 18 -9 46 -6 0 
-3 0 *
So

0100000
+2 0 *

+1 1 