
CASCADE Topology V1, (c) Matra-Datavision
Locations 15
1
1.000000000000000 0.000000000000000 0.000000000000000 0.000000000000000 
0.000000000000000 1.000000000000000 0.000000000000000 0.000000000000000 
0.000000000000000 0.000000000000000 1.000000000000000 0.000000000000000 
1
0.000000000000000 -0.000000000000000 1.000000000000000 -0.000000000000893 
1.000000000000000 0.000000000000000 -0.000000000000000 0.000000000000000 
0.000000000000000 1.000000000000000 0.000000000000000 -0.000000000000000 
1
-0.000000000000000 0.000000000000000 1.000000000000000 0.000000000000000 
1.000000000000000 -0.000000000000000 0.000000000000000 0.000000000000000 
0.000000000000000 1.000000000000000 -0.000000000000000 0.000000000000000 
2  1 1 2 1 3 -1 0
1
1.000000000000000 0.000000000000000 0.000000000000000 0.000000000002827 
0.000000000000000 1.000000000000000 0.000000000000000 -0.000000000001885 
0.000000000000000 0.000000000000000 1.000000000000000 -4243.981541948556696 
2  1 1 2 1 3 -1 5 1 0
2  3 1 2 -1 1 -1 0
2  5 -1 3 1 2 -1 1 -1 0
2  2 -1 1 -1 0
1
-0.000000000000000 0.000000000000000 1.000000000000000 0.000000000000000 
1.000000000000000 -0.000000000000000 0.000000000000000 0.000000000000000 
0.000000000000000 1.000000000000000 -0.000000000000000 0.000000000000000 
1
0.000000000000000 -0.000000000000000 1.000000000000000 0.000000000000000 
1.000000000000000 0.000000000000000 0.000000000000000 0.000000000000000 
-0.000000000000000 1.000000000000000 0.000000000000000 0.000000000000000 
2  10 -1 11 1 2 -1 1 -1 0
2  3 -1 0
2  1 1 2 1 0
2  3 -1 5 1 0
Curve2ds 24
1 0.00000000000000000 0.00000000000000000 0.00000000000000000 -1.00000000000000000 
1 6.28318530717958623 0.00000000000000000 0.00000000000000000 -1.00000000000000000 
1 0.00000000000000000 0.00000000000000000 1.00000000000000000 0.00000000000000000 
1 0.00000000000000000 -4243.98154194855669630 1.00000000000000000 0.00000000000000000 
2 0.00000000000000000 -0.00000000000000000 -0.00000000000000000 -1.00000000000000000 1.00000000000000000 -0.00000000000000000 5.00000000000000000
2 54.99999999999818101 988.00000000000318323 -0.00000000000000011 -1.00000000000000000 -1.00000000000000000 0.00000000000000011 5.00000000000000000
1 0.00000000000000000 0.00000000000000000 0.00000000000000000 -1.00000000000000000 
1 6.28318530717958623 0.00000000000000000 0.00000000000000000 -1.00000000000000000 
1 0.00000000000000000 0.00000000000000000 1.00000000000000000 0.00000000000000000 
1 0.00000000000000000 -4243.98154194855669630 1.00000000000000000 0.00000000000000000 
2 0.00000000000000000 -0.00000000000000000 -0.00000000000000000 -1.00000000000000000 1.00000000000000000 -0.00000000000000000 5.00000000000000000
2 -5.00000000000181899 988.00000000000318323 -0.00000000000000011 -1.00000000000000000 -1.00000000000000000 0.00000000000000011 5.00000000000000000
1 0.00000000000000000 0.00000000000000000 0.00000000000000000 -1.00000000000000000 
1 6.28318530717958623 0.00000000000000000 0.00000000000000000 -1.00000000000000000 
1 0.00000000000000000 0.00000000000000000 1.00000000000000000 0.00000000000000000 
1 0.00000000000000000 -4243.98154194855669630 1.00000000000000000 0.00000000000000000 
2 0.00000000000000000 -0.00000000000000000 -0.00000000000000000 -1.00000000000000000 1.00000000000000000 -0.00000000000000000 5.00000000000000000
2 54.99999999999818101 -987.99999999999738520 -0.00000000000000011 -1.00000000000000000 -1.00000000000000000 0.00000000000000011 5.00000000000000000
1 0.00000000000000000 0.00000000000000000 0.00000000000000000 -1.00000000000000000 
1 6.28318530717958623 0.00000000000000000 0.00000000000000000 -1.00000000000000000 
1 0.00000000000000000 0.00000000000000000 1.00000000000000000 0.00000000000000000 
1 0.00000000000000000 -4243.98154194855669630 1.00000000000000000 0.00000000000000000 
2 0.00000000000000000 -0.00000000000000000 -0.00000000000000000 -1.00000000000000000 1.00000000000000000 -0.00000000000000000 5.00000000000000000
2 -5.00000000000181899 -987.99999999999727152 -0.00000000000000011 -1.00000000000000000 -1.00000000000000000 0.00000000000000011 5.00000000000000000
Curves 8
1 -1798.00000000000159162 4782.66700000000128057 -0.00000000000487758 0.00000000000000067 -0.00000000000000044 -1.00000000000000000 
2 -1803.00000000000113687 4782.66700000000037107 0.00000000000000000 0.00000000000000000 0.00000000000000000 1.00000000000000000 1.00000000000000000 0.00000000000000000 -0.00000000000000000 -0.00000000000000000 1.00000000000000000 0.00000000000000000 5.00000000000000000
1 -1798.00000000000159162 4842.66700000000128057 -0.00000000000491755 0.00000000000000067 -0.00000000000000044 -1.00000000000000000 
2 -1803.00000000000113687 4842.66700000000037107 0.00000000000000000 0.00000000000000000 0.00000000000000000 1.00000000000000000 1.00000000000000000 0.00000000000000000 -0.00000000000000000 -0.00000000000000000 1.00000000000000000 0.00000000000000000 5.00000000000000000
1 177.99999999999894840 4782.66700000000128057 -0.00000000000400006 0.00000000000000067 -0.00000000000000044 -1.00000000000000000 
2 172.99999999999891998 4782.66700000000037107 0.00000000000000000 0.00000000000000000 0.00000000000000000 1.00000000000000000 1.00000000000000000 0.00000000000000000 -0.00000000000000000 -0.00000000000000000 1.00000000000000000 0.00000000000000000 5.00000000000000000
1 177.99999999999894840 4842.66700000000128057 -0.00000000000404003 0.00000000000000067 -0.00000000000000044 -1.00000000000000000 
2 172.99999999999891998 4842.66700000000037107 0.00000000000000000 0.00000000000000000 0.00000000000000000 1.00000000000000000 1.00000000000000000 0.00000000000000000 -0.00000000000000000 -0.00000000000000000 1.00000000000000000 0.00000000000000000 5.00000000000000000
Polygon3D 0
PolygonOnTriangulations 0
Surfaces 9
2 -1803.00000000000159162 4782.66700000000128057 -0.00000000000487980 -0.00000000000000044 0.00000000000000067 1.00000000000000000 1.00000000000000000 -0.00000000000000022 0.00000000000000044 0.00000000000000022 1.00000000000000000 -0.00000000000000067 5.00000000000000000
1 -0.00000000000381784 -1803.00000000000113687 4782.66700000000037107 1.00000000000000000 -0.00000000000000044 0.00000000000000044 -0.00000000000000044 0.00000000000000000 1.00000000000000000 -0.00000000000000044 -1.00000000000000000 -0.00000000000000000 
1 -0.00000000000125514 -815.00000000000000000 4837.66699999999946158 -1.00000000000000000 0.00000000000000022 -0.00000000000000022 0.00000000000000022 0.00000000000000000 -1.00000000000000000 -0.00000000000000022 -1.00000000000000000 -0.00000000000000000 
2 -1803.00000000000159162 4842.66700000000128057 -0.00000000000491977 -0.00000000000000044 0.00000000000000067 1.00000000000000000 1.00000000000000000 -0.00000000000000022 0.00000000000000044 0.00000000000000022 1.00000000000000000 -0.00000000000000067 5.00000000000000000
1 -0.00000000000384448 -1803.00000000000113687 4842.66700000000037107 1.00000000000000000 -0.00000000000000044 0.00000000000000044 -0.00000000000000044 0.00000000000000000 1.00000000000000000 -0.00000000000000044 -1.00000000000000000 -0.00000000000000000 
2 172.99999999999894840 4782.66700000000128057 -0.00000000000400228 -0.00000000000000044 0.00000000000000067 1.00000000000000000 1.00000000000000000 -0.00000000000000022 0.00000000000000044 0.00000000000000022 1.00000000000000000 -0.00000000000000067 5.00000000000000000
1 -0.00000000000294031 172.99999999999891998 4782.66700000000037107 1.00000000000000000 -0.00000000000000044 0.00000000000000044 -0.00000000000000044 0.00000000000000000 1.00000000000000000 -0.00000000000000044 -1.00000000000000000 -0.00000000000000000 
2 172.99999999999894840 4842.66700000000128057 -0.00000000000404225 -0.00000000000000044 0.00000000000000067 1.00000000000000000 1.00000000000000000 -0.00000000000000022 0.00000000000000044 0.00000000000000022 1.00000000000000000 -0.00000000000000067 5.00000000000000000
1 -0.00000000000296696 172.99999999999891998 4842.66700000000037107 1.00000000000000000 -0.00000000000000044 0.00000000000000044 -0.00000000000000044 0.00000000000000000 1.00000000000000000 -0.00000000000000044 -1.00000000000000000 -0.00000000000000000 
Triangulations 0

TShapes 37
Ve
0.000000100000301
-1798.000000000001137 4782.667000000000371 0.000000000000000
0 0

0101101
*
Ed
 0.000000100000000 1 1 0
1  1 0 0.000000000000000 4243.981541948556696
3  1 2CN 1 0 0.000000000000000 4243.981541948556696
0

0101000
+37 4 -37 6 *
Ed
 0.000000100000301 1 1 0
1  2 0 0.000000000000000 6.283185307179586
2  3 1 7 0.000000000000000 6.283185307179586
2  4 1 8 0.000000000000000 6.283185307179586
2  5 2 9 0.000000000000000 6.283185307179586
2  6 3 12 0.000000000000000 6.283185307179586
0

0101000
+37 0 -37 0 *
Wi

0101100
+36 0 -36 0 -35 4 +35 6 *
Fa
0  0.000000100000000 1 0

0111000
+34 0 *
Wi

0101100
+35 0 *
Fa
0  0.000000100000000 2 0

0111000
+32 14 *
Sh

0101100
+33 0 +31 13 -31 15 *
So

0100000
+30 0 *
Ve
0.000000100000321
-1798.000000000001137 4842.667000000000371 0.000000000000000
0 0

0101101
*
Ed
 0.000000100000000 1 1 0
1  3 0 0.000000000000000 4243.981541948556696
3  7 8CN 4 0 0.000000000000000 4243.981541948556696
0

0101000
+28 4 -28 6 *
Ed
 0.000000100000321 1 1 0
1  4 0 0.000000000000000 6.283185307179586
2  9 4 7 0.000000000000000 6.283185307179586
2  10 4 8 0.000000000000000 6.283185307179586
2  11 5 9 0.000000000000000 6.283185307179586
2  12 3 12 0.000000000000000 6.283185307179586
0

0101000
+28 0 -28 0 *
Wi

0101100
+27 0 -27 0 -26 4 +26 6 *
Fa
0  0.000000100000000 4 0

0111000
+25 0 *
Wi

0101100
+26 0 *
Fa
0  0.000000100000000 5 0

0111000
+23 14 *
Sh

0101100
+24 0 +22 13 -22 15 *
So

0100000
+21 0 *
Ve
0.000000100000740
177.999999999998920 4782.667000000000371 0.000000000000000
0 0

0101101
*
Ed
 0.000000100000000 1 1 0
1  5 0 0.000000000000000 4243.981541948556696
3  13 14CN 6 0 0.000000000000000 4243.981541948556696
0

0101000
+19 4 -19 6 *
Ed
 0.000000100000740 1 1 0
1  6 0 0.000000000000000 6.283185307179586
2  15 6 7 0.000000000000000 6.283185307179586
2  16 6 8 0.000000000000000 6.283185307179586
2  17 7 9 0.000000000000000 6.283185307179586
2  18 3 12 0.000000000000000 6.283185307179586
0

0101000
+19 0 -19 0 *
Wi

0101100
+18 0 -18 0 -17 4 +17 6 *
Fa
0  0.000000100000000 6 0

0111000
+16 0 *
Wi

0101100
+17 0 *
Fa
0  0.000000100000000 7 0

0111000
+14 14 *
Sh

0101100
+15 0 +13 13 -13 15 *
So

0100000
+12 0 *
Ve
0.000000100000760
177.999999999998920 4842.667000000000371 0.000000000000000
0 0

0101101
*
Ed
 0.000000100000000 1 1 0
1  7 0 0.000000000000000 4243.981541948556696
3  19 20CN 8 0 0.000000000000000 4243.981541948556696
0

0101000
+10 4 -10 6 *
Ed
 0.000000100000760 1 1 0
1  8 0 0.000000000000000 6.283185307179586
2  21 8 7 0.000000000000000 6.283185307179586
2  22 8 8 0.000000000000000 6.283185307179586
2  23 9 9 0.000000000000000 6.283185307179586
2  24 3 12 0.000000000000000 6.283185307179586
0

0101000
+10 0 -10 0 *
Wi

0101100
+9 0 -9 0 -8 4 +8 6 *
Fa
0  0.000000100000000 8 0

0111000
+7 0 *
Wi

0101100
+8 0 *
Fa
0  0.000000100000000 9 0

0111000
+5 14 *
Sh

0101100
+6 0 +4 13 -4 15 *
So

0100000
+3 0 *
Co

1100000
+29 0 +20 0 +11 0 +2 0 *

+1 0 