
CASCADE Topology V1, (c) Matra-Datavision
Locations 10
1
1.000000000000000 0.000000000000000 0.000000000000000 0.000000000000000 
0.000000000000000 1.000000000000000 0.000000000000000 0.000000000000000 
0.000000000000000 0.000000000000000 1.000000000000000 0.000000000000000 
1
0.000000000000000 -0.000000000000000 1.000000000000000 0.000000000000000 
1.000000000000000 0.000000000000000 -0.000000000000000 0.000000000000000 
-0.000000000000000 1.000000000000000 0.000000000000000 0.000000000000000 
1
-0.000000000000000 0.000000000000000 1.000000000000000 0.000000000000000 
1.000000000000000 -0.000000000000000 0.000000000000000 0.000000000000000 
0.000000000000000 1.000000000000000 -0.000000000000000 0.000000000000000 
2  1 1 2 1 3 -1 0
1
1.000000000000000 0.000000000000000 0.000000000000000 0.000000000000007 
0.000000000000000 1.000000000000000 0.000000000000000 -0.000000000000004 
0.000000000000000 0.000000000000000 1.000000000000000 -15.000000000000000 
2  1 1 2 1 3 -1 5 1 0
2  2 -1 1 -1 0
2  3 -1 0
2  1 1 2 1 0
2  3 -1 5 1 0
Curve2ds 4
1 125.00000000000000000 -968.00000000000000000 0.00000000000000022 1.00000000000000000 
1 125.00000000000045475 967.99999999999988631 -1.00000000000000000 0.00000000000000022 
1 -124.99999999999954525 968.00000000000011369 -0.00000000000000022 -1.00000000000000000 
1 -125.00000000000000000 -968.00000000000000000 1.00000000000000000 -0.00000000000000022 
Curves 8
1 78.00000000000062528 2772.50000000000045475 -0.00000000000121392 0.00000000000000044 -0.00000000000000028 -1.00000000000000000 
1 -1857.99999999999977263 2772.50000000000136424 -0.00000000000164380 0.00000000000000044 -0.00000000000000028 -1.00000000000000000 
1 78.00000000000000000 2772.50000000000000000 0.00000000000000000 -1.00000000000000000 0.00000000000000000 0.00000000000000000 
1 -1858.00000000000000000 2522.50000000000136424 -0.00000000000153277 0.00000000000000044 -0.00000000000000028 -1.00000000000000000 
1 -1858.00000000000000000 2772.50000000000000000 0.00000000000000000 0.00000000000000000 -1.00000000000000000 0.00000000000000000 
1 78.00000000000056843 2522.50000000000045475 -0.00000000000110290 0.00000000000000044 -0.00000000000000028 -1.00000000000000000 
1 -1858.00000000000000000 2522.50000000000000000 0.00000000000000000 1.00000000000000000 0.00000000000000000 0.00000000000000000 
1 78.00000000000000000 2522.50000000000000000 0.00000000000000000 0.00000000000000000 1.00000000000000000 0.00000000000000000 
Polygon3D 0
PolygonOnTriangulations 0
Surfaces 5
1 78.00000000000062528 2772.50000000000045475 -0.00000000000121392 0.00000000000000044 1.00000000000000000 -0.00000000000000028 -1.00000000000000000 0.00000000000000044 -0.00000000000000022 -0.00000000000000022 0.00000000000000028 1.00000000000000000 
1 -0.00000000000078548 -889.99999999999943157 2647.50000000000000000 1.00000000000000000 -0.00000000000000022 0.00000000000000022 -0.00000000000000022 0.00000000000000000 1.00000000000000000 -0.00000000000000022 -1.00000000000000000 -0.00000000000000000 
1 -1857.99999999999977263 2772.50000000000136424 -0.00000000000164380 -1.00000000000000000 0.00000000000000022 -0.00000000000000044 -0.00000000000000022 -1.00000000000000000 0.00000000000000044 -0.00000000000000044 0.00000000000000044 1.00000000000000000 
1 -1858.00000000000000000 2522.50000000000136424 -0.00000000000153277 -0.00000000000000044 -1.00000000000000000 0.00000000000000028 1.00000000000000000 -0.00000000000000044 0.00000000000000022 -0.00000000000000022 0.00000000000000028 1.00000000000000000 
1 78.00000000000056843 2522.50000000000045475 -0.00000000000110290 1.00000000000000000 -0.00000000000000022 0.00000000000000044 0.00000000000000022 1.00000000000000000 -0.00000000000000044 -0.00000000000000044 0.00000000000000044 1.00000000000000000 
Triangulations 0

TShapes 24
Ve
0.000000100000000
78.000000000000000 2772.500000000000000 0.000000000000000
0 0

0101101
*
Ed
 0.000000100000000 1 1 0
1  1 0 0.000000000000000 15.000000000000000
0

0101000
+24 4 -24 6 *
Ve
0.000000100000000
-1858.000000000000000 2772.500000000000000 0.000000000000000
0 0

0101101
*
Ed
 0.000000100000000 1 1 0
1  2 0 0.000000000000000 15.000000000000000
0

0101000
+22 4 -22 6 *
Ed
 0.000000100000000 1 1 0
1  3 0 0.000000000000000 1936.000000000000000
2  1 2 7 0.000000000000000 1936.000000000000000
0

0101000
+24 0 -22 0 *
Wi

0101100
+23 0 -21 0 -20 4 +20 6 *
Fa
0  0.000000100000000 1 0

0111000
+19 0 *
Ve
0.000000100000000
-1858.000000000000000 2522.500000000000000 0.000000000000000
0 0

0101101
*
Ed
 0.000000100000000 1 1 0
1  4 0 0.000000000000000 15.000000000000000
0

0101000
+17 4 -17 6 *
Ed
 0.000000100000000 1 1 0
1  5 0 0.000000000000000 250.000000000000000
2  2 2 7 0.000000000000000 250.000000000000000
0

0101000
+22 0 -17 0 *
Wi

0101100
+21 0 -16 0 -15 4 +15 6 *
Fa
0  0.000000100000000 3 0

0111000
+14 0 *
Ve
0.000000100000000
78.000000000000000 2522.500000000000000 0.000000000000000
0 0

0101101
*
Ed
 0.000000100000000 1 1 0
1  6 0 0.000000000000000 15.000000000000000
0

0101000
+12 4 -12 6 *
Ed
 0.000000100000000 1 1 0
1  7 0 0.000000000000000 1936.000000000000000
2  3 2 7 0.000000000000000 1936.000000000000000
0

0101000
+17 0 -12 0 *
Wi

0101100
+16 0 -11 0 -10 4 +10 6 *
Fa
0  0.000000100000000 4 0

0111000
+9 0 *
Ed
 0.000000100000000 1 1 0
1  8 0 0.000000000000000 250.000000000000000
2  4 2 7 0.000000000000000 250.000000000000000
0

0101000
+12 0 -24 0 *
Wi

0101100
+11 0 -23 0 -7 4 +7 6 *
Fa
0  0.000000100000000 5 0

0111000
+6 0 *
Wi

0101100
+20 0 +15 0 +10 0 +7 0 *
Fa
0  0.000000100000000 2 0

0111000
+4 9 *
Sh

0101100
+18 0 +13 0 +8 0 +5 0 +3 8 -3 10 *
So

1100000
+2 0 *

+1 0 