
CASCADE Topology V1, (c) Matra-Datavision
Locations 15
1
1.000000000000000 0.000000000000000 0.000000000000000 0.000000000000000 
0.000000000000000 1.000000000000000 0.000000000000000 0.000000000000000 
0.000000000000000 0.000000000000000 1.000000000000000 0.000000000000000 
1
1.000000000000000 0.000000000000000 0.000000000000000 0.000000000000000 
0.000000000000000 1.000000000000000 0.000000000000000 0.000000000000000 
0.000000000000000 0.000000000000000 1.000000000000000 0.000000000000000 
1
1.000000000000000 0.000000000000000 0.000000000000000 0.000000000000000 
0.000000000000000 1.000000000000000 0.000000000000000 0.000000000000000 
0.000000000000000 0.000000000000000 1.000000000000000 0.000000000000000 
2  1 1 2 1 3 -1 0
1
1.000000000000000 0.000000000000000 0.000000000000000 0.000000000000000 
0.000000000000000 1.000000000000000 0.000000000000000 0.000000000000000 
0.000000000000000 0.000000000000000 1.000000000000000 10414.781695436538939 
2  1 1 2 1 3 -1 5 1 0
2  3 1 2 -1 1 -1 0
2  5 -1 3 1 2 -1 1 -1 0
2  2 -1 1 -1 0
1
1.000000000000000 0.000000000000000 0.000000000000000 0.000000000000000 
0.000000000000000 1.000000000000000 0.000000000000000 0.000000000000000 
0.000000000000000 0.000000000000000 1.000000000000000 0.000000000000000 
1
1.000000000000000 0.000000000000000 0.000000000000000 0.000000000000000 
0.000000000000000 1.000000000000000 0.000000000000000 0.000000000000000 
0.000000000000000 0.000000000000000 1.000000000000000 0.000000000000000 
2  10 -1 11 1 2 -1 1 -1 0
2  3 -1 0
2  1 1 2 1 0
2  3 -1 5 1 0
Curve2ds 48
1 0.00000000000000000 -0.00000000000000000 0.00000000000000000 -1.00000000000000000 
1 250.00000000000648015 0.00000000000000000 0.00000000000000000 -1.00000000000000000 
1 95.00000000000363798 0.00000000000000000 0.00000000000000000 -1.00000000000000000 
1 0.00000000000000000 0.00000000000000000 0.00000000000000000 -1.00000000000000000 
1 0.00000000000000000 -0.00000000000000000 1.00000000000000000 0.00000000000000000 
1 0.00000000000000000 -10414.78169543653893925 1.00000000000000000 0.00000000000000000 
1 530.36983581512504315 -166.25000000000090949 -1.00000000000000000 0.00000000000000000 
1 2389.50000000000000000 -325.00000000000113687 -1.00000000000000000 0.00000000000000000 
1 250.00000000000648015 0.00000000000000000 0.00000000000000000 -1.00000000000000000 
1 0.00000000000000000 0.00000000000000000 0.00000000000000000 -1.00000000000000000 
1 0.00000000000000000 0.00000000000000000 1.00000000000000000 0.00000000000000000 
1 0.00000000000000000 -10414.78169543653893925 1.00000000000000000 0.00000000000000000 
1 435.36983581512140518 -166.25000000000090949 0.00000000000000000 1.00000000000000000 
1 2294.49999999999636202 -325.00000000000113687 0.00000000000000000 1.00000000000000000 
1 95.00000000000363798 0.00000000000000000 0.00000000000000000 -1.00000000000000000 
1 0.00000000000000000 0.00000000000000000 0.00000000000000000 -1.00000000000000000 
1 0.00000000000000000 0.00000000000000000 1.00000000000000000 0.00000000000000000 
1 0.00000000000000000 -10414.78169543653893925 1.00000000000000000 0.00000000000000000 
1 435.36983581512140518 83.75000000000557066 1.00000000000000000 0.00000000000000000 
1 2294.49999999999636202 -74.99999999999465672 1.00000000000000000 0.00000000000000000 
1 0.00000000000000000 0.00000000000000000 1.00000000000000000 0.00000000000000000 
1 0.00000000000000000 -10414.78169543653893925 1.00000000000000000 0.00000000000000000 
1 530.36983581512504315 83.75000000000557066 0.00000000000000000 -1.00000000000000000 
1 2389.50000000000000000 -74.99999999999465672 0.00000000000000000 -1.00000000000000000 
1 0.00000000000000000 -0.00000000000000000 0.00000000000000000 -1.00000000000000000 
1 95.00000000000227374 0.00000000000000000 0.00000000000000000 -1.00000000000000000 
1 249.99999999999954525 0.00000000000000000 0.00000000000000000 -1.00000000000000000 
1 0.00000000000000000 0.00000000000000000 0.00000000000000000 -1.00000000000000000 
1 0.00000000000000000 -0.00000000000000000 1.00000000000000000 0.00000000000000000 
1 0.00000000000000000 -10414.78169543653893925 1.00000000000000000 0.00000000000000000 
1 -357.86983581513595709 -6.25000000000204636 -1.00000000000000000 0.00000000000000000 
1 1501.26032836973899975 -165.00000000000227374 -1.00000000000000000 0.00000000000000000 
1 95.00000000000227374 0.00000000000000000 0.00000000000000000 -1.00000000000000000 
1 0.00000000000000000 0.00000000000000000 0.00000000000000000 -1.00000000000000000 
1 0.00000000000000000 0.00000000000000000 1.00000000000000000 0.00000000000000000 
1 0.00000000000000000 -10414.78169543653893925 1.00000000000000000 0.00000000000000000 
1 -607.86983581513550234 -6.25000000000204636 0.00000000000000000 1.00000000000000000 
1 1251.26032836973945450 -165.00000000000227374 0.00000000000000000 1.00000000000000000 
1 249.99999999999954525 0.00000000000000000 0.00000000000000000 -1.00000000000000000 
1 0.00000000000000000 0.00000000000000000 0.00000000000000000 -1.00000000000000000 
1 0.00000000000000000 0.00000000000000000 1.00000000000000000 0.00000000000000000 
1 0.00000000000000000 -10414.78169543653893925 1.00000000000000000 0.00000000000000000 
1 -607.86983581513550234 88.75000000000022737 1.00000000000000000 0.00000000000000000 
1 1251.26032836973945450 -70.00000000000000000 1.00000000000000000 0.00000000000000000 
1 0.00000000000000000 0.00000000000000000 1.00000000000000000 0.00000000000000000 
1 0.00000000000000000 -10414.78169543653893925 1.00000000000000000 0.00000000000000000 
1 -357.86983581513595709 88.75000000000022737 0.00000000000000000 -1.00000000000000000 
1 1501.26032836973899975 -70.00000000000000000 0.00000000000000000 -1.00000000000000000 
Curves 16
1 4791.00000000000000000 -1260.00000000000113687 0.00000000000000000 0.00000000000000000 0.00000000000000000 1.00000000000000000 
1 4695.99999999999636202 -1260.00000000000113687 0.00000000000000000 0.00000000000000000 0.00000000000000000 1.00000000000000000 
1 4791.00000000000000000 -1260.00000000000113687 0.00000000000000000 -1.00000000000000000 0.00000000000000000 0.00000000000000000 
1 4695.99999999999636202 -1009.99999999999465672 0.00000000000000000 0.00000000000000000 0.00000000000000000 1.00000000000000000 
1 4695.99999999999636202 -1260.00000000000113687 0.00000000000000000 0.00000000000000000 1.00000000000000000 0.00000000000000000 
1 4791.00000000000000000 -1009.99999999999465672 0.00000000000000000 0.00000000000000000 0.00000000000000000 1.00000000000000000 
1 4695.99999999999636202 -1009.99999999999465672 0.00000000000000000 1.00000000000000000 0.00000000000000000 0.00000000000000000 
1 4791.00000000000000000 -1009.99999999999465672 0.00000000000000000 0.00000000000000000 -1.00000000000000000 0.00000000000000000 
1 3902.76032836973899975 -1100.00000000000227374 0.00000000000000000 0.00000000000000000 0.00000000000000000 1.00000000000000000 
1 3652.76032836973945450 -1100.00000000000227374 0.00000000000000000 0.00000000000000000 0.00000000000000000 1.00000000000000000 
1 3902.76032836973899975 -1100.00000000000227374 0.00000000000000000 -1.00000000000000000 0.00000000000000000 0.00000000000000000 
1 3652.76032836973945450 -1005.00000000000000000 0.00000000000000000 0.00000000000000000 0.00000000000000000 1.00000000000000000 
1 3652.76032836973945450 -1100.00000000000227374 0.00000000000000000 0.00000000000000000 1.00000000000000000 0.00000000000000000 
1 3902.76032836973899975 -1005.00000000000000000 0.00000000000000000 0.00000000000000000 0.00000000000000000 1.00000000000000000 
1 3652.76032836973945450 -1005.00000000000000000 0.00000000000000000 1.00000000000000000 0.00000000000000000 0.00000000000000000 
1 3902.76032836973899975 -1005.00000000000000000 0.00000000000000000 0.00000000000000000 -1.00000000000000000 0.00000000000000000 
Polygon3D 0
PolygonOnTriangulations 0
Surfaces 11
1 4791.00000000000000000 -1260.00000000000113687 0.00000000000000000 0.00000000000000000 -1.00000000000000000 0.00000000000000000 -1.00000000000000000 0.00000000000000000 0.00000000000000000 -0.00000000000000000 -0.00000000000000000 -1.00000000000000000 
1 4791.00000000000000000 -1009.99999999999465672 0.00000000000000000 1.00000000000000000 0.00000000000000000 -0.00000000000000000 0.00000000000000000 -1.00000000000000000 0.00000000000000000 0.00000000000000000 -0.00000000000000000 -1.00000000000000000 
1 4695.99999999999636202 -1260.00000000000113687 0.00000000000000000 -1.00000000000000000 0.00000000000000000 0.00000000000000000 0.00000000000000000 1.00000000000000000 0.00000000000000000 0.00000000000000000 0.00000000000000000 -1.00000000000000000 
1 4260.63016418487495685 -1093.75000000000022737 0.00000000000000000 0.00000000000000000 0.00000000000000000 1.00000000000000000 1.00000000000000000 0.00000000000000000 -0.00000000000000000 -0.00000000000000000 1.00000000000000000 0.00000000000000000 
1 2401.50000000000000000 -935.00000000000000000 0.00000000000000000 0.00000000000000000 0.00000000000000000 1.00000000000000000 1.00000000000000000 0.00000000000000000 -0.00000000000000000 -0.00000000000000000 1.00000000000000000 0.00000000000000000 
1 4695.99999999999636202 -1009.99999999999465672 0.00000000000000000 0.00000000000000000 1.00000000000000000 0.00000000000000000 1.00000000000000000 0.00000000000000000 0.00000000000000000 0.00000000000000000 0.00000000000000000 -1.00000000000000000 
1 3902.76032836973899975 -1100.00000000000227374 0.00000000000000000 0.00000000000000000 -1.00000000000000000 0.00000000000000000 -1.00000000000000000 0.00000000000000000 0.00000000000000000 -0.00000000000000000 -0.00000000000000000 -1.00000000000000000 
1 3902.76032836973899975 -1005.00000000000000000 0.00000000000000000 1.00000000000000000 0.00000000000000000 -0.00000000000000000 0.00000000000000000 -1.00000000000000000 0.00000000000000000 0.00000000000000000 -0.00000000000000000 -1.00000000000000000 
1 3652.76032836973945450 -1100.00000000000227374 0.00000000000000000 -1.00000000000000000 0.00000000000000000 0.00000000000000000 0.00000000000000000 1.00000000000000000 0.00000000000000000 0.00000000000000000 0.00000000000000000 -1.00000000000000000 
1 4260.63016418487495685 -1093.75000000000022737 0.00000000000000000 0.00000000000000000 0.00000000000000000 1.00000000000000000 1.00000000000000000 0.00000000000000000 -0.00000000000000000 -0.00000000000000000 1.00000000000000000 0.00000000000000000 
1 3652.76032836973945450 -1005.00000000000000000 0.00000000000000000 0.00000000000000000 1.00000000000000000 0.00000000000000000 1.00000000000000000 0.00000000000000000 0.00000000000000000 0.00000000000000000 0.00000000000000000 -1.00000000000000000 
Triangulations 0

TShapes 49
Ve
0.000000100000000
4791.000000000000000 -1260.000000000001137 0.000000000000000
0 0

0101101
*
Ed
 0.000000100000000 1 1 0
1  1 0 0.000000000000000 10414.781695436538939
2  1 1 0 0.000000000000000 10414.781695436538939
2  2 2 0 0.000000000000000 10414.781695436538939
0

0101000
+49 4 -49 6 *
Ve
0.000000100000000
4695.999999999996362 -1260.000000000001137 0.000000000000000
0 0

0101101
*
Ed
 0.000000100000000 1 1 0
1  2 0 0.000000000000000 10414.781695436538939
2  3 1 0 0.000000000000000 10414.781695436538939
2  4 3 0 0.000000000000000 10414.781695436538939
0

0101000
+47 4 -47 6 *
Ed
 0.000000100000000 1 1 0
1  3 0 0.000000000000000 95.000000000003638
2  5 1 7 0.000000000000000 95.000000000003638
2  6 1 8 0.000000000000000 95.000000000003638
2  7 4 9 0.000000000000000 95.000000000003638
2  8 5 12 0.000000000000000 95.000000000003638
0

0101000
+49 0 -47 0 *
Wi

0101100
+48 0 -46 0 -45 4 +45 6 *
Fa
0  0.000000100000000 1 0

0101000
+44 0 *
Ve
0.000000100000000
4695.999999999996362 -1009.999999999994657 0.000000000000000
0 0

0101101
*
Ed
 0.000000100000000 1 1 0
1  4 0 0.000000000000000 10414.781695436538939
2  9 3 0 0.000000000000000 10414.781695436538939
2  10 6 0 0.000000000000000 10414.781695436538939
0

0101000
+42 4 -42 6 *
Ed
 0.000000100000000 1 1 0
1  5 0 0.000000000000000 250.000000000006480
2  11 3 7 0.000000000000000 250.000000000006480
2  12 3 8 0.000000000000000 250.000000000006480
2  13 4 9 0.000000000000000 250.000000000006480
2  14 5 12 0.000000000000000 250.000000000006480
0

0101000
+47 0 -42 0 *
Wi

0101100
+46 0 -41 0 -40 4 +40 6 *
Fa
0  0.000000100000000 3 0

0101000
+39 0 *
Ve
0.000000100000000
4791.000000000000000 -1009.999999999994657 0.000000000000000
0 0

0101101
*
Ed
 0.000000100000000 1 1 0
1  6 0 0.000000000000000 10414.781695436538939
2  15 6 0 0.000000000000000 10414.781695436538939
2  16 2 0 0.000000000000000 10414.781695436538939
0

0101000
+37 4 -37 6 *
Ed
 0.000000100000000 1 1 0
1  7 0 0.000000000000000 95.000000000003638
2  17 6 7 0.000000000000000 95.000000000003638
2  18 6 8 0.000000000000000 95.000000000003638
2  19 4 9 0.000000000000000 95.000000000003638
2  20 5 12 0.000000000000000 95.000000000003638
0

0101000
+42 0 -37 0 *
Wi

0101100
+41 0 -36 0 -35 4 +35 6 *
Fa
0  0.000000100000000 6 0

0101000
+34 0 *
Ed
 0.000000100000000 1 1 0
1  8 0 0.000000000000000 250.000000000006480
2  21 2 7 0.000000000000000 250.000000000006480
2  22 2 8 0.000000000000000 250.000000000006480
2  23 4 9 0.000000000000000 250.000000000006480
2  24 5 12 0.000000000000000 250.000000000006480
0

0101000
+37 0 -49 0 *
Wi

0101100
+36 0 -48 0 -32 4 +32 6 *
Fa
0  0.000000100000000 2 0

0101000
+31 0 *
Wi

0101100
+45 0 +40 0 +35 0 +32 0 *
Fa
0  0.000000100000000 4 0

0101000
-29 14 *
Sh

0101100
-43 0 -38 0 -33 0 -30 0 +28 13 -28 15 *
So

0100000
-27 0 *
Ve
0.000000100000000
3902.760328369739000 -1100.000000000002274 0.000000000000000
0 0

0101101
*
Ed
 0.000000100000000 1 1 0
1  9 0 0.000000000000000 10414.781695436538939
2  25 7 0 0.000000000000000 10414.781695436538939
2  26 8 0 0.000000000000000 10414.781695436538939
0

0101000
+25 4 -25 6 *
Ve
0.000000100000000
3652.760328369739455 -1100.000000000002274 0.000000000000000
0 0

0101101
*
Ed
 0.000000100000000 1 1 0
1  10 0 0.000000000000000 10414.781695436538939
2  27 7 0 0.000000000000000 10414.781695436538939
2  28 9 0 0.000000000000000 10414.781695436538939
0

0101000
+23 4 -23 6 *
Ed
 0.000000100000000 1 1 0
1  11 0 0.000000000000000 249.999999999999545
2  29 7 7 0.000000000000000 249.999999999999545
2  30 7 8 0.000000000000000 249.999999999999545
2  31 10 9 0.000000000000000 249.999999999999545
2  32 5 12 0.000000000000000 249.999999999999545
0

0101000
+25 0 -23 0 *
Wi

0101100
+24 0 -22 0 -21 4 +21 6 *
Fa
0  0.000000100000000 7 0

0101000
+20 0 *
Ve
0.000000100000000
3652.760328369739455 -1005.000000000000000 0.000000000000000
0 0

0101101
*
Ed
 0.000000100000000 1 1 0
1  12 0 0.000000000000000 10414.781695436538939
2  33 9 0 0.000000000000000 10414.781695436538939
2  34 11 0 0.000000000000000 10414.781695436538939
0

0101000
+18 4 -18 6 *
Ed
 0.000000100000000 1 1 0
1  13 0 0.000000000000000 95.000000000002274
2  35 9 7 0.000000000000000 95.000000000002274
2  36 9 8 0.000000000000000 95.000000000002274
2  37 10 9 0.000000000000000 95.000000000002274
2  38 5 12 0.000000000000000 95.000000000002274
0

0101000
+23 0 -18 0 *
Wi

0101100
+22 0 -17 0 -16 4 +16 6 *
Fa
0  0.000000100000000 9 0

0101000
+15 0 *
Ve
0.000000100000000
3902.760328369739000 -1005.000000000000000 0.000000000000000
0 0

0101101
*
Ed
 0.000000100000000 1 1 0
1  14 0 0.000000000000000 10414.781695436538939
2  39 11 0 0.000000000000000 10414.781695436538939
2  40 8 0 0.000000000000000 10414.781695436538939
0

0101000
+13 4 -13 6 *
Ed
 0.000000100000000 1 1 0
1  15 0 0.000000000000000 249.999999999999545
2  41 11 7 0.000000000000000 249.999999999999545
2  42 11 8 0.000000000000000 249.999999999999545
2  43 10 9 0.000000000000000 249.999999999999545
2  44 5 12 0.000000000000000 249.999999999999545
0

0101000
+18 0 -13 0 *
Wi

0101100
+17 0 -12 0 -11 4 +11 6 *
Fa
0  0.000000100000000 11 0

0101000
+10 0 *
Ed
 0.000000100000000 1 1 0
1  16 0 0.000000000000000 95.000000000002274
2  45 8 7 0.000000000000000 95.000000000002274
2  46 8 8 0.000000000000000 95.000000000002274
2  47 10 9 0.000000000000000 95.000000000002274
2  48 5 12 0.000000000000000 95.000000000002274
0

0101000
+13 0 -25 0 *
Wi

0101100
+12 0 -24 0 -8 4 +8 6 *
Fa
0  0.000000100000000 8 0

0101000
+7 0 *
Wi

0101100
+21 0 +16 0 +11 0 +8 0 *
Fa
0  0.000000100000000 10 0

0101000
-5 14 *
Sh

0101100
-19 0 -14 0 -9 0 -6 0 +4 13 -4 15 *
So

0100000
-3 0 *
Co

1100000
+26 0 +2 0 *

+1 0 