
CASCADE Topology V1, (c) Matra-Datavision
Locations 12
1
1.000000000000000 0.000000000000000 0.000000000000000 0.000000000000000 
0.000000000000000 1.000000000000000 0.000000000000000 0.000000000000000 
0.000000000000000 0.000000000000000 1.000000000000000 0.000000000000000 
1
0.000000000000000 0.000000000000000 -1.000000000000000 1027.000000000000000 
0.000000000000000 -1.000000000000000 0.000000000000000 0.000000000000000 
-1.000000000000000 0.000000000000000 0.000000000000000 0.000000000000000 
1
1.000000000000000 0.000000000000000 0.000000000000000 0.000000000000000 
0.000000000000000 -0.000000000000000 -1.000000000000000 0.000000000000000 
0.000000000000000 1.000000000000000 -0.000000000000000 0.000000000000000 
2  1 1 2 1 3 -1 0
1
1.000000000000000 0.000000000000000 0.000000000000000 -15.000000000000000 
0.000000000000000 1.000000000000000 0.000000000000000 -0.000000000000003 
0.000000000000000 0.000000000000000 1.000000000000000 0.000000000000000 
2  1 1 2 1 3 -1 5 1 0
2  2 -1 1 -1 0
2  3 1 2 -1 1 -1 0
2  5 -1 3 1 2 -1 1 -1 0
2  3 -1 0
2  1 1 2 1 0
2  3 -1 5 1 0
Curve2ds 26
1 0.00000000000000000 0.00000000000000000 0.00000000000000000 -1.00000000000000000 
1 -0.00000000000000000 0.00000000000000000 0.00000000000000000 -1.00000000000000000 
1 171.00000000000000000 0.00000000000000000 0.00000000000000000 -1.00000000000000000 
1 85.50000000000002842 70.00000000000000000 -1.00000000000000000 0.00000000000000022 
1 -0.00000000000000000 0.00000000000000000 1.00000000000000000 0.00000000000000000 
1 -0.00000000000000000 -14.99999999999988631 1.00000000000000000 0.00000000000000000 
1 0.00000000000000000 0.00000000000000000 -0.00000000000000000 -1.00000000000000000 
1 -85.49999999999997158 70.00000000000000000 -0.00000000000000022 -1.00000000000000000 
1 171.00000000000000000 -0.00000000000000000 -0.00000000000000000 -1.00000000000000000 
1 140.00000000000000000 -0.00000000000003109 0.00000000000000000 -1.00000000000000000 
1 0.00000000000000000 0.00000000000000000 1.00000000000000000 0.00000000000000000 
1 -0.00000000000000000 -14.99999999999988631 1.00000000000000000 0.00000000000000000 
1 -85.50000000000000000 -70.00000000000000000 1.00000000000000000 -0.00000000000000022 
1 0.00000000000000000 0.00000000000000000 1.00000000000000000 -0.00000000000000000 
1 -0.00000000000000333 -14.99999999999988631 1.00000000000000000 -0.00000000000000000 
1 85.50000000000002842 70.00000000000000000 -0.00000000000000022 -1.00000000000000000 
1 0.00000000000000000 0.00000000000000000 0.00000000000000000 -1.00000000000000000 
1 6.28318530717958623 0.00000000000000000 0.00000000000000000 -1.00000000000000000 
1 0.00000000000000000 0.00000000000000000 1.00000000000000000 0.00000000000000000 
1 0.00000000000000000 -15.00000000000000000 1.00000000000000000 0.00000000000000000 
2 -7.49999999999991473 -30.00000000000000000 -0.00000000000000022 -1.00000000000000000 1.00000000000000000 -0.00000000000000022 5.00000000000000000
1 0.00000000000000000 0.00000000000000000 0.00000000000000000 -1.00000000000000000 
1 6.28318530717958623 0.00000000000000000 0.00000000000000000 -1.00000000000000000 
1 0.00000000000000000 0.00000000000000000 1.00000000000000000 0.00000000000000000 
1 0.00000000000000000 -15.00000000000000000 1.00000000000000000 0.00000000000000000 
2 -7.49999999999990052 30.00000000000000000 -0.00000000000000022 -1.00000000000000000 1.00000000000000000 -0.00000000000000022 5.00000000000000000
Curves 12
1 1026.99999999999886313 4862.35136194185270142 0.00000000000000073 -1.00000000000000000 -0.00000000000000022 0.00000000000000000 
1 1026.99999999999886313 4862.35136194185270142 -171.00000000000000000 -1.00000000000000000 -0.00000000000000022 0.00000000000000000 
1 -4862.35136194185270142 0.00000000000000073 0.00000000000000000 0.00000000000000000 -1.00000000000000000 0.00000000000000000 
1 1026.99999999999886313 4722.35136194185270142 -171.00000000000000000 -1.00000000000000000 -0.00000000000000022 0.00000000000000000 
1 -4862.35136194185270142 -171.00000000000000000 0.00000000000000000 1.00000000000000000 0.00000000000000000 0.00000000000000000 
1 1026.99999999999886313 4722.35136194185270142 0.00000000000000036 -1.00000000000000000 -0.00000000000000022 0.00000000000000000 
1 -4722.35136194185270142 -171.00000000000000000 0.00000000000000000 0.00000000000000000 1.00000000000000000 0.00000000000000000 
1 -4862.35136194185270142 0.00000000000000073 0.00000000000000000 1.00000000000000000 0.00000000000000000 0.00000000000000000 
1 1026.99999999999886313 4757.35136194185270142 -92.99999999999991473 -1.00000000000000000 -0.00000000000000022 0.00000000000000000 
2 -4762.35136194185270142 -92.99999999999991473 0.00000000000000000 0.00000000000000000 0.00000000000000000 1.00000000000000000 1.00000000000000000 0.00000000000000000 -0.00000000000000000 -0.00000000000000000 1.00000000000000000 0.00000000000000000 5.00000000000000000
1 1026.99999999999886313 4817.35136194185270142 -92.99999999999991473 -1.00000000000000000 -0.00000000000000022 0.00000000000000000 
2 -4822.35136194185270142 -92.99999999999991473 0.00000000000000000 0.00000000000000000 0.00000000000000000 1.00000000000000000 1.00000000000000000 0.00000000000000000 -0.00000000000000000 -0.00000000000000000 1.00000000000000000 0.00000000000000000 5.00000000000000000
Polygon3D 0
PolygonOnTriangulations 0
Surfaces 7
1 1026.99999999999886313 4862.35136194185270142 0.00000000000000073 0.00000000000000022 -1.00000000000000000 0.00000000000000000 0.00000000000000000 -0.00000000000000000 -1.00000000000000000 1.00000000000000000 0.00000000000000022 0.00000000000000000 
1 1026.99999999999886313 4862.35136194185270142 0.00000000000000073 0.00000000000000000 0.00000000000000000 1.00000000000000000 0.00000000000000022 -1.00000000000000000 0.00000000000000000 1.00000000000000000 0.00000000000000022 -0.00000000000000000 
1 1026.99999999999863576 85.49999999999894840 4792.35136194185270142 -1.00000000000000000 -0.00000000000000000 -0.00000000000000000 0.00000000000000000 -1.00000000000000000 0.00000000000000000 -0.00000000000000000 0.00000000000000000 1.00000000000000000 
1 1026.99999999999886313 4862.35136194185270142 -171.00000000000000000 0.00000000000000000 0.00000000000000000 1.00000000000000000 0.00000000000000022 -1.00000000000000000 0.00000000000000000 1.00000000000000000 0.00000000000000022 -0.00000000000000000 
1 1026.99999999999886313 4722.35136194185270142 -171.00000000000000000 -0.00000000000000022 1.00000000000000000 -0.00000000000000000 0.00000000000000000 0.00000000000000000 1.00000000000000000 1.00000000000000000 0.00000000000000022 -0.00000000000000000 
2 1026.99999999999886313 4762.35136194185270142 -92.99999999999991473 1.00000000000000000 0.00000000000000022 -0.00000000000000000 0.00000000000000022 -1.00000000000000000 0.00000000000000000 -0.00000000000000000 0.00000000000000000 1.00000000000000000 5.00000000000000000
2 1026.99999999999886313 4822.35136194185270142 -92.99999999999991473 1.00000000000000000 0.00000000000000022 -0.00000000000000000 0.00000000000000022 -1.00000000000000000 0.00000000000000000 -0.00000000000000000 0.00000000000000000 1.00000000000000000 5.00000000000000000
Triangulations 0

TShapes 36
Ve
0.000000100001137
-4862.351361941852701 0.000000000000001 0.000000000000000
0 0

0101101
*
Ed
 0.000000100000000 1 1 0
1  1 0 0.000000000000000 15.000000000000000
2  1 2 0 0.000000000000000 15.000000000000000
2  2 1 0 0.000000000000000 15.000000000000000
0

0101000
+36 4 -36 6 *
Ve
0.000000100000000
-4862.351361941852701 -171.000000000000000 0.000000000000000
0 0

0101101
*
Ed
 0.000000100000000 1 1 0
1  2 0 0.000000000000000 15.000000000000000
2  3 1 0 0.000000000000000 15.000000000000000
0

0101000
+34 4 -34 6 *
Ed
 0.000000100000000 1 1 0
1  3 0 0.000000000000000 171.000000000000000
2  4 3 7 0.000000000000000 171.000000000000000
2  5 1 8 0.000000000000000 171.000000000000000
2  6 1 9 0.000000000000000 171.000000000000000
0

0101000
+36 0 -34 0 *
Wi

0101100
+35 0 -33 0 -32 4 +32 6 *
Fa
0  0.000000100000000 1 0

0111000
+31 0 *
Ve
0.000000100000000
-4722.351361941852701 -171.000000000000000 0.000000000000000
0 0

0101101
*
Ed
 0.000000100000000 1 1 0
1  4 0 0.000000000000000 15.000000000000000
2  7 5 0 0.000000000000000 15.000000000000000
0

0101000
+29 4 -29 6 *
Ed
 0.000000100000000 1 1 0
1  5 0 0.000000000000000 140.000000000000000
2  8 3 7 0.000000000000000 140.000000000000000
0

0101000
+34 0 -29 0 *
Wi

0101100
+33 0 -28 0 -27 4 +27 6 *
Fa
0  0.000000100000000 4 0

0111000
+26 0 *
Ve
0.000000100000000
-4722.351361941852701 0.000000000000000 0.000000000000000
0 0

0101101
*
Ed
 0.000000100000000 1 1 0
1  6 0 0.000000000000000 15.000000000000000
2  9 5 0 0.000000000000000 15.000000000000000
2  10 2 0 0.000000000000000 15.000000000000000
0

0101000
+24 4 -24 6 *
Ed
 0.000000100000000 1 1 0
1  7 0 0.000000000000000 171.000000000000000
2  11 5 8 0.000000000000000 171.000000000000000
2  12 5 9 0.000000000000000 171.000000000000000
2  13 3 7 0.000000000000000 171.000000000000000
0

0101000
+29 0 -24 0 *
Wi

0101100
+28 0 -23 0 -22 4 +22 6 *
Fa
0  0.000000100000000 5 0

0111000
+21 0 *
Ed
 0.000000100000000 1 1 0
1  8 0 0.000000000000000 140.000000000000000
2  14 2 8 0.000000000000000 140.000000000000000
2  15 2 9 0.000000000000000 140.000000000000000
2  16 3 7 0.000000000000000 140.000000000000000
0

0101000
+36 0 -24 0 *
Wi

0101100
+35 0 -23 0 -19 4 +19 6 *
Fa
0  0.000000100000000 2 0

0111000
+18 0 *
Ve
0.000000100000000
-4757.351361941852701 -92.999999999999915 0.000000000000000
0 0

0101101
*
Ed
 0.000000100000000 1 1 0
1  9 0 0.000000000000000 15.000000000000000
3  17 18CN 6 0 0.000000000000000 15.000000000000000
0

0101000
+16 4 -16 6 *
Ed
 0.000000100000000 1 1 0
1  10 0 0.000000000000000 6.283185307179586
2  19 6 8 0.000000000000000 6.283185307179586
2  20 6 9 0.000000000000000 6.283185307179586
2  21 3 7 0.000000000000000 6.283185307179586
0

0101000
+16 0 -16 0 *
Wi

0101100
+15 0 -15 0 -14 4 +14 6 *
Fa
0  0.000000100000000 6 0

0111000
+13 0 *
Ve
0.000000100000000
-4817.351361941852701 -92.999999999999915 0.000000000000000
0 0

0101101
*
Ed
 0.000000100000000 1 1 0
1  11 0 0.000000000000000 15.000000000000000
3  22 23CN 7 0 0.000000000000000 15.000000000000000
0

0101000
+11 4 -11 6 *
Ed
 0.000000100000000 1 1 0
1  12 0 0.000000000000000 6.283185307179586
2  24 7 8 0.000000000000000 6.283185307179586
2  25 7 9 0.000000000000000 6.283185307179586
2  26 3 7 0.000000000000000 6.283185307179586
0

0101000
+11 0 -11 0 *
Wi

0101100
+10 0 -10 0 -9 4 +9 6 *
Fa
0  0.000000100000000 7 0

0111000
+8 0 *
Wi

0101100
+32 11 +27 11 +22 11 -19 11 *
Wi

0101100
-14 11 *
Wi

0101100
-9 11 *
Fa
0  0.000000100000000 3 0

0111000
+6 0 +5 0 +4 0 *
Sh

0101100
+30 0 +25 0 +20 0 -17 0 -12 0 -7 0 +3 10 -3 12 *
So

1100000
-2 0 *

+1 0 