
CASCADE Topology V1, (c) Matra-Datavision
Locations 57
1
0.000000000000000 0.000000000000000 1.000000000000000 0.000000000000000 
1.000000000000000 0.000000000000000 0.000000000000000 0.000000000000000 
0.000000000000000 1.000000000000000 0.000000000000000 0.000000000000000 
1
0.000000000000000 -0.000000000000000 1.000000000000000 0.000000000000000 
1.000000000000000 0.000000000000000 0.000000000000000 0.000000000000000 
-0.000000000000000 1.000000000000000 0.000000000000000 0.000000000000000 
1
-0.000000000000000 0.000000000000000 1.000000000000000 0.000000000000000 
1.000000000000000 -0.000000000000000 0.000000000000000 0.000000000000000 
0.000000000000000 1.000000000000000 -0.000000000000000 0.000000000000000 
1
0.000000000000000 -0.000000000000000 1.000000000000000 0.000000000000000 
1.000000000000000 0.000000000000000 0.000000000000000 0.000000000000000 
-0.000000000000000 1.000000000000000 0.000000000000000 0.000000000000000 
1
-0.000000000000000 0.000000000000000 1.000000000000000 0.000000000000000 
1.000000000000000 -0.000000000000000 0.000000000000000 0.000000000000000 
0.000000000000000 1.000000000000000 -0.000000000000000 0.000000000000000 
2  2 1 3 -1 4 1 5 -1 0
1
1.000000000000000 0.000000000000000 0.000000000000000 0.000000000000000 
0.000000000000000 1.000000000000000 0.000000000000000 0.000000000000000 
0.000000000000000 0.000000000000000 1.000000000000000 0.000000000000000 
1
0.000000000000000 -0.000000000000000 1.000000000000000 0.000000000000000 
1.000000000000000 0.000000000000000 -0.000000000000000 0.000000000000000 
-0.000000000000000 1.000000000000000 0.000000000000000 0.000000000000000 
1
-0.000000000000000 0.000000000000000 1.000000000000000 0.000000000000000 
1.000000000000000 -0.000000000000000 0.000000000000000 0.000000000000000 
0.000000000000000 1.000000000000000 -0.000000000000000 0.000000000000000 
2  7 1 8 1 9 -1 0
1
1.000000000000000 0.000000000000000 0.000000000000000 -0.000000000000007 
0.000000000000000 1.000000000000000 0.000000000000000 0.000000000000004 
0.000000000000000 0.000000000000000 1.000000000000000 15.000000000000000 
2  7 1 8 1 9 -1 11 1 0
2  8 -1 7 -1 0
2  7 1 8 1 9 -1 2 1 3 -1 4 1 5 -1 0
2  9 1 8 -1 7 -1 0
2  11 -1 9 1 8 -1 7 -1 0
2  5 1 4 -1 3 1 2 -1 9 1 8 -1 7 -1 0
2  7 1 8 1 9 -1 11 1 2 1 3 -1 4 1 5 -1 0
1
1.000000000000000 0.000000000000000 0.000000000000000 0.000000000000000 
0.000000000000000 1.000000000000000 0.000000000000000 0.000000000000000 
0.000000000000000 0.000000000000000 1.000000000000000 0.000000000000000 
1
0.000000000000000 -0.000000000000000 1.000000000000000 14.999999999999556 
1.000000000000000 0.000000000000000 -0.000000000000000 -0.000000000000007 
0.000000000000000 1.000000000000000 0.000000000000000 0.000000000000005 
2  19 1 20 1 2 -1 11 -1 9 1 8 -1 7 -1 0
2  4 1 5 -1 0
2  2 1 3 -1 0
2  19 1 20 1 3 -1 0
2  5 1 4 -1 0
2  9 -1 2 1 3 -1 4 1 5 -1 0
2  3 1 2 -1 9 1 8 -1 7 -1 0
1
1.000000000000000 0.000000000000000 0.000000000000000 0.000000000000010 
0.000000000000000 1.000000000000000 0.000000000000000 -0.000000000000007 
0.000000000000000 0.000000000000000 1.000000000000000 -15.000000000000000 
2  3 -1 28 1 3 1 2 -1 9 1 8 -1 7 -1 0
1
1.000000000000000 0.000000000000000 0.000000000000000 0.000000000000000 
0.000000000000000 1.000000000000000 0.000000000000000 0.000000000000000 
0.000000000000000 0.000000000000000 1.000000000000000 0.000000000000000 
1
-0.000000000000000 1.000000000000000 0.000000000000001 -0.000000000000624 
0.000000000000000 -0.000000000000001 1.000000000000000 -937.000000000000227 
1.000000000000000 0.000000000000000 -0.000000000000000 0.000000000000104 
1
1.000000000000000 0.000000000000000 0.000000000000000 -15.000000000000000 
0.000000000000000 1.000000000000000 0.000000000000000 0.000000000000007 
0.000000000000000 0.000000000000000 1.000000000000000 -0.000000000000007 
2  30 1 31 1 5 -1 32 1 5 1 4 -1 3 1 2 -1 9 1 8 -1 7 -1 0
2  9 -1 11 1 2 1 3 -1 0
2  7 1 8 1 9 -1 11 1 2 1 3 -1 0
2  3 1 2 -1 11 -1 9 1 8 -1 7 -1 0
2  19 1 20 1 3 -1 4 1 5 -1 0
2  20 -1 19 -1 0
2  3 1 20 -1 19 -1 0
2  28 -1 3 1 20 -1 19 -1 0
2  19 1 20 1 3 -1 28 1 4 1 5 -1 0
2  5 1 4 -1 28 -1 3 1 20 -1 19 -1 0
2  3 1 2 -1 0
2  7 1 8 1 9 -1 2 1 3 -1 0
2  3 -1 28 1 4 1 5 -1 0
2  30 1 31 1 5 -1 32 1 0
2  5 1 31 -1 30 -1 0
2  32 -1 5 1 31 -1 30 -1 0
2  31 -1 30 -1 0
2  3 -1 28 1 4 1 5 -1 32 -1 5 1 31 -1 30 -1 0
2  30 1 31 1 5 -1 32 1 5 1 4 -1 28 -1 3 1 20 -1 19 -1 0
2  30 1 31 1 5 -1 0
2  3 -1 0
2  19 1 20 1 3 -1 28 1 0
2  5 -1 0
2  5 -1 32 1 0
2  30 1 31 1 0
Curve2ds 80
1 250.00000000000000000 -0.00000000000000000 -0.00000000000000022 -1.00000000000000000 
1 -243.25097898216108661 -494.13214511046066946 1.00000000000000000 -0.00000000000000022 
1 0.00000000000000000 0.00000000000000000 1.00000000000000000 0.00000000000000000 
1 0.00000000000000333 -15.00000000000000000 1.00000000000000000 0.00000000000000000 
1 -243.25097898216063186 -244.13214511046066946 -0.00000000000000022 -1.00000000000000000 
1 0.00000000000000000 0.00000000000000000 -0.00000000000000022 -1.00000000000000000 
1 0.00000000000000000 0.00000000000000000 -0.00000000000000022 -1.00000000000000000 
1 199.99999999999874944 -14.99999999999921485 0.00000000000000044 1.00000000000000000 
1 -54.58384518607499558 -494.13214511046066946 0.36755970767774454 0.92999992542572341 
1 249.36902101783925900 274.92968892062208397 0.00000000000000022 1.00000000000000000 
1 249.36902101783925900 476.86785488953796630 -1.00000000000000000 0.00000000000000022 
1 0.00000000000000000 0.00000000000000000 1.00000000000000000 0.00000000000000000 
1 0.00000000000000666 -15.00000000000000000 1.00000000000000000 0.00000000000000000 
1 -0.63097898194928348 476.86785488953819367 -0.00000000000134684 -1.00000000000000000 
1 -0.63097898215710302 322.54105185845355663 -0.36755970767776108 -0.92999992542571686 
1 0.00000000000000000 0.00000000000000000 1.00000000000000000 0.00000000000000000 
1 0.00000000000000666 -15.00000000000000000 1.00000000000000000 0.00000000000000000 
1 -224.59469008823180047 -244.13214511046066946 -1.00000000000000000 0.00000000000000022 
1 106.41974209391673867 123.17287688069040996 -0.00000000000000078 -1.00000000000000000 
1 0.00000000000000000 0.00000000000000000 1.00000000000000000 0.00000000000000000 
1 0.00000000000000000 -15.00000000000000000 1.00000000000000000 0.00000000000000000 
2 -86.38427898216104950 -404.13214511046066946 -0.00000000000000022 -1.00000000000000000 1.00000000000000000 -0.00000000000000022 5.00000000000000000
1 0.00000000000000000 0.00000000000000000 1.00000000000000000 0.00000000000000000 
1 0.00000000000000000 -15.00000000000000000 1.00000000000000000 0.00000000000000000 
2 -86.38427898216104950 -60.86413506334633894 -0.00000000000000022 -1.00000000000000000 1.00000000000000000 -0.00000000000000022 5.00000000000000000
1 0.00000000000000000 0.00000000000000000 1.00000000000000000 0.00000000000000000 
1 0.00000000000000000 -15.00000000000000000 1.00000000000000000 0.00000000000000000 
2 95.48242101783898761 56.02715392163054275 -0.00000000000000022 -1.00000000000000000 1.00000000000000000 -0.00000000000000022 5.00000000000000000
1 0.00000000000000000 0.00000000000000000 1.00000000000000000 0.00000000000000000 
1 0.00000000000000000 -15.00000000000000000 1.00000000000000000 0.00000000000000000 
2 95.48242101783898761 381.86785488953933054 -0.00000000000000022 -1.00000000000000000 1.00000000000000000 -0.00000000000000022 5.00000000000000000
1 250.00000000000045475 0.00000000000000044 -0.00000000000000022 -1.00000000000000000 
1 80.00000000000000000 0.00000000000000000 0.00000000000000022 -1.00000000000000000 
1 106.41974209391491968 -76.82712311931049953 -1.00000000000000000 0.00000000000000000 
1 0.00000000000000000 0.00000000000000000 1.00000000000000000 0.00000000000000000 
1 -0.00000000000000999 -15.00000000000000000 1.00000000000000000 0.00000000000000000 
1 0.00000000000000000 0.00000000000000000 0.00000000000000017 -1.00000000000000000 
1 249.99999999978854248 0.00000000000000000 0.00000000000000017 -1.00000000000000000 
1 0.00000000000000000 0.00000000000000000 0.00000000000000017 -1.00000000000000000 
1 18.65628889392883138 0.00000000000000000 0.00000000000000017 -1.00000000000000000 
1 0.00000000000000000 0.00000000000000000 -0.00000000000000022 -1.00000000000000000 
1 0.00000000000000000 0.00000000000000000 1.00000000000000000 0.00000000000000000 
1 0.00000000000000416 -15.00000000000000000 1.00000000000000000 0.00000000000000000 
1 39.99999999999997158 -125.00000000000000000 0.00000000000000022 1.00000000000000000 
1 106.41974209391810291 -61.82712311930879423 -1.00000000000000000 -0.00000000000000028 
1 -143.58025790608508032 3.17287688068950047 -0.00000000000000000 -1.00000000000000000 
1 0.00000000000000000 0.00000000000000000 1.00000000000000000 0.00000000000000000 
1 -0.00000000000000666 -15.00000000000000000 1.00000000000000000 0.00000000000000000 
1 0.00000000000000000 0.00000000000000000 1.00000000000000000 -0.00000000000000000 
1 -0.00000000000001189 -15.00000000000000000 1.00000000000000000 -0.00000000000000000 
1 106.41974209391491968 123.17287688069040996 -0.90152305746827233 -0.43273106758477403 
1 0.00000000000000000 0.00000000000000000 0.00000000000000039 -1.00000000000000000 
1 0.00000000000000000 0.00000000000000000 1.00000000000000000 0.00000000000000000 
1 0.00000000000001332 -15.00000000000000000 1.00000000000000000 0.00000000000000000 
1 -40.00000000000004263 -125.00000000000000000 1.00000000000000000 -0.00000000000000022 
1 0.00000000000000000 0.00000000000000000 0.00000000000000000 -1.00000000000000000 
1 6.28318530717958623 0.00000000000000000 0.00000000000000000 -1.00000000000000000 
1 0.00000000000000000 0.00000000000000000 0.00000000000000000 -1.00000000000000000 
1 6.28318530717958623 0.00000000000000000 0.00000000000000000 -1.00000000000000000 
1 0.00000000000000000 0.00000000000000000 0.00000000000000000 -1.00000000000000000 
1 6.28318530717958623 0.00000000000000000 0.00000000000000000 -1.00000000000000000 
1 0.00000000000000000 0.00000000000000000 0.00000000000000000 -1.00000000000000000 
1 6.28318530717958623 0.00000000000000000 0.00000000000000000 -1.00000000000000000 
1 277.30849247724233919 0.00000000000000044 -0.00000000000000010 -1.00000000000000000 
1 0.00000000000000000 0.00000000000000000 0.00000000000000022 -1.00000000000000000 
1 0.00000000000000000 0.00000000000000000 1.00000000000000000 0.00000000000000000 
1 -0.00000000000000583 -15.00000000000000000 1.00000000000000000 0.00000000000000000 
1 40.00000000000002842 125.00000000000045475 -1.00000000000000000 0.00000000000000022 
1 -39.99999999999998579 125.00000000000045475 -0.00000000000000022 -1.00000000000000000 
1 0.00000000000000000 0.00000000000000000 1.00000000000000000 0.00000000000000000 
1 0.00000000000000000 -15.00000000000000000 1.00000000000000000 0.00000000000000000 
2 0.00000000000000000 25.00000000000045475 -0.00000000000000022 -1.00000000000000000 1.00000000000000000 -0.00000000000000022 5.00000000000000000
1 0.00000000000000000 0.00000000000000000 1.00000000000000000 0.00000000000000000 
1 0.00000000000000000 -15.00000000000000000 1.00000000000000000 0.00000000000000000 
2 0.00000000000001421 85.00000000000045475 -0.00000000000000022 -1.00000000000000000 1.00000000000000000 -0.00000000000000022 5.00000000000000000
1 80.00000000000002842 0.00000000000004263 -0.00000000000000039 -1.00000000000000000 
1 0.00000000000000000 0.00000000000000000 0.00000000000000000 -1.00000000000000000 
1 6.28318530717958623 0.00000000000000000 0.00000000000000000 -1.00000000000000000 
1 0.00000000000000000 0.00000000000000000 0.00000000000000000 -1.00000000000000000 
1 6.28318530717958623 0.00000000000000000 0.00000000000000000 -1.00000000000000000 
Curves 40
1 -887.00000000000022737 3134.00000000000136424 -0.00000000000158873 -0.00000000000000044 0.00000000000000028 1.00000000000000000 
1 -887.00000000000022737 3322.66713379608745527 -0.00000000000167251 -0.00000000000000044 0.00000000000000028 1.00000000000000000 
1 -887.00000000000068212 3134.00000000000000000 0.00000000000000000 0.00000000000000000 1.00000000000000000 0.00000000000000000 
1 -1137.00000000000068212 3134.00000000000000000 0.00000000000000000 1.00000000000000000 0.00000000000000000 0.00000000000000000 
1 -937.00000000000022737 3134.00000000000227374 14.99999999999705480 0.00000000000000067 -0.00000000000000044 -1.00000000000000000 
1 -1656.06183403108320817 3626.62000000000170985 -0.00000000000197826 -0.00000000000000044 0.00000000000000028 1.00000000000000000 
1 -887.00000000000068212 3322.66713379608609102 0.00000000000000000 -0.92999992542572341 0.36755970767774426 0.00000000000000000 
1 -1656.06183403108366292 3626.61999999999989086 0.00000000000000000 -1.00000000000000000 0.00000000000000000 0.00000000000000000 
1 -1857.99999999999954525 3626.61999999999989086 0.00000000000000000 0.00000000000000000 -1.00000000000000000 0.00000000000000000 
1 -1857.99999999999954525 3376.62000000021134838 0.00000000000000000 1.00000000000000000 -0.00000000000134662 0.00000000000000000 
1 -1703.67319696891490821 3376.62000000000352884 0.00000000000000000 0.92999992542571697 -0.36755970767776086 0.00000000000000000 
1 -1137.00000000000068212 3152.65628889392883138 0.00000000000000000 0.00000000000000000 -1.00000000000000000 0.00000000000000000 
2 -977.00000000000068212 3290.86670000000003711 0.00000000000000000 0.00000000000000000 0.00000000000000000 1.00000000000000000 1.00000000000000000 0.00000000000000000 -0.00000000000000000 -0.00000000000000000 1.00000000000000000 0.00000000000000000 5.00000000000000000
2 -1320.26801004711501264 3290.86669999999958236 0.00000000000000000 0.00000000000000000 0.00000000000000000 1.00000000000000000 1.00000000000000000 0.00000000000000000 -0.00000000000000000 -0.00000000000000000 1.00000000000000000 0.00000000000000000 5.00000000000000000
2 -1437.15929903209189433 3472.73339999999961947 0.00000000000000000 0.00000000000000000 0.00000000000000000 1.00000000000000000 1.00000000000000000 0.00000000000000000 -0.00000000000000000 -0.00000000000000000 1.00000000000000000 0.00000000000000000 5.00000000000000000
2 -1763.00000000000068212 3472.73339999999961947 0.00000000000000000 0.00000000000000000 0.00000000000000000 1.00000000000000000 1.00000000000000000 0.00000000000000000 -0.00000000000000000 -0.00000000000000000 1.00000000000000000 0.00000000000000000 5.00000000000000000
1 -937.00000000000022737 2884.00000000000181899 14.99999999999722178 0.00000000000000067 -0.00000000000000044 -1.00000000000000000 
1 -937.00000000000000000 3134.00000000000136424 0.00000000000000000 0.00000000000000000 -1.00000000000000000 0.00000000000000000 
1 -1857.99999999999909051 3626.62000000000170985 -0.00000000000202310 -0.00000000000000044 0.00000000000000028 1.00000000000000000 
1 -1857.99999999999931788 3376.62000000021316737 -0.00000000000191208 -0.00000000000000044 0.00000000000000028 1.00000000000000000 
1 -1703.67319696891468084 3376.62000000000534783 -0.00000000000187781 -0.00000000000000044 0.00000000000000028 1.00000000000000000 
1 -1137.00000000000022737 3152.65628889393019563 -0.00000000000165253 -0.00000000000000044 0.00000000000000028 1.00000000000000000 
1 -1137.00000000000022737 3134.00000000000136424 -0.00000000000164424 -0.00000000000000044 0.00000000000000028 1.00000000000000000 
1 3134.00000000000136424 -0.00000000000041210 0.00000000000000000 -1.00000000000000000 0.00000000000000000 0.00000000000000000 
1 -1017.00000000000000000 2884.00000000000136424 0.00000000000000000 1.00000000000000000 0.00000000000000000 0.00000000000000000 
1 -1137.00000000000090949 3134.00000000000136424 0.00000000000000000 0.43273106758477403 -0.90152305746827233 0.00000000000000000 
1 -936.99999999999954525 3134.00000000000363798 -80.00000000000245848 -1.00000000000000000 0.00000000000000050 -0.00000000000000050 
1 3134.00000000000136424 -80.00000000000041211 0.00000000000000000 0.00000000000000000 1.00000000000000000 0.00000000000000000 
1 -972.00000000000022737 3290.86670000000140135 -0.00000000000167727 -0.00000000000000044 0.00000000000000028 1.00000000000000000 
1 -1315.26801004711455789 3290.86670000000094660 -0.00000000000175349 -0.00000000000000044 0.00000000000000028 1.00000000000000000 
1 -1432.15929903209143959 3472.73340000000098371 -0.00000000000186021 -0.00000000000000044 0.00000000000000028 1.00000000000000000 
1 -1758.00000000000045475 3472.73340000000143846 -0.00000000000193256 -0.00000000000000044 0.00000000000000028 1.00000000000000000 
1 -1017.00000000000022737 2884.00000000000181899 14.99999999999718625 0.00000000000000067 -0.00000000000000044 -1.00000000000000000 
1 2884.00000000000136424 -0.00000000000041210 0.00000000000000000 0.00000000000000000 -1.00000000000000000 0.00000000000000000 
1 2884.00000000000136424 -80.00000000000041211 0.00000000000000000 1.00000000000000000 0.00000000000000000 0.00000000000000000 
2 2984.00000000000136424 -40.00000000000041211 0.00000000000000000 0.00000000000000000 0.00000000000000000 1.00000000000000000 1.00000000000000000 0.00000000000000000 -0.00000000000000000 -0.00000000000000000 1.00000000000000000 0.00000000000000000 5.00000000000000000
2 2924.00000000000136424 -40.00000000000041211 0.00000000000000000 0.00000000000000000 0.00000000000000000 1.00000000000000000 1.00000000000000000 0.00000000000000000 -0.00000000000000000 -0.00000000000000000 1.00000000000000000 0.00000000000000000 5.00000000000000000
1 -936.99999999999954525 2884.00000000000272848 -80.00000000000234479 -1.00000000000000000 0.00000000000000050 -0.00000000000000050 
1 -936.99999999999954525 2989.00000000000272848 -40.00000000000238032 -1.00000000000000000 0.00000000000000050 -0.00000000000000050 
1 -936.99999999999965894 2929.00000000000272848 -40.00000000000235190 -1.00000000000000000 0.00000000000000050 -0.00000000000000050 
Polygon3D 0
PolygonOnTriangulations 0
Surfaces 25
1 -887.00000000000022737 3134.00000000000136424 -0.00000000000158873 -1.00000000000000000 0.00000000000000022 -0.00000000000000044 0.00000000000000022 1.00000000000000000 -0.00000000000000044 0.00000000000000044 -0.00000000000000044 -1.00000000000000000 
1 -1137.00000000000022737 3134.00000000000136424 -0.00000000000164424 0.00000000000000044 1.00000000000000000 -0.00000000000000028 1.00000000000000000 -0.00000000000000044 0.00000000000000022 0.00000000000000022 -0.00000000000000028 -1.00000000000000000 
1 -0.00000000000105657 -1381.13214511046066946 3377.25097898216108661 1.00000000000000000 -0.00000000000000022 0.00000000000000022 -0.00000000000000022 0.00000000000000000 1.00000000000000000 -0.00000000000000022 -1.00000000000000000 -0.00000000000000000 
1 -937.00000000000022737 3134.00000000000227374 14.99999999999705480 0.00000000000000022 1.00000000000000000 -0.00000000000000044 -1.00000000000000000 0.00000000000000022 -0.00000000000000044 -0.00000000000000044 0.00000000000000044 1.00000000000000000 
1 -937.00000000000022737 3134.00000000000227374 14.99999999999705480 -1.00000000000000000 -0.00000000000000000 -0.00000000000000067 -0.00000000000000000 -1.00000000000000000 0.00000000000000067 -0.00000000000000067 0.00000000000000067 1.00000000000000000 
1 -887.00000000000022737 3322.66713379608745527 -0.00000000000167251 -0.36755970767774465 -0.92999992542572330 0.00000000000000009 -0.92999992542572330 0.36755970767774465 -0.00000000000000037 0.00000000000000031 -0.00000000000000022 -1.00000000000000000 
1 -1857.99999999999909051 3626.62000000000170985 -0.00000000000202310 1.00000000000000000 -0.00000000000000022 0.00000000000000044 -0.00000000000000022 -1.00000000000000000 0.00000000000000044 0.00000000000000044 -0.00000000000000044 -1.00000000000000000 
1 -1137.00000000000022737 3152.65628889393019563 -0.00000000000165253 1.00000000000000000 -0.00000000000000022 0.00000000000000044 -0.00000000000000022 -1.00000000000000000 0.00000000000000044 0.00000000000000044 -0.00000000000000044 -1.00000000000000000 
1 14.99999999999776001 -1013.82712311931049953 3027.58025790608644456 1.00000000000000000 -0.00000000000000044 0.00000000000000045 -0.00000000000000045 0.00000000000000000 1.00000000000000000 -0.00000000000000044 -1.00000000000000000 -0.00000000000000000 
2 -977.00000000000022737 3290.86670000000140135 -0.00000000000167838 0.00000000000000022 -0.00000000000000044 -1.00000000000000000 1.00000000000000000 -0.00000000000000044 0.00000000000000022 0.00000000000000044 1.00000000000000000 -0.00000000000000044 5.00000000000000000
2 -1320.26801004711455789 3290.86670000000094660 -0.00000000000175460 0.00000000000000022 -0.00000000000000044 -1.00000000000000000 1.00000000000000000 -0.00000000000000044 0.00000000000000022 0.00000000000000044 1.00000000000000000 -0.00000000000000044 5.00000000000000000
2 -1437.15929903209143959 3472.73340000000098371 -0.00000000000186132 0.00000000000000022 -0.00000000000000044 -1.00000000000000000 1.00000000000000000 -0.00000000000000044 0.00000000000000022 0.00000000000000044 1.00000000000000000 -0.00000000000000044 5.00000000000000000
2 -1763.00000000000045475 3472.73340000000143846 -0.00000000000193367 0.00000000000000022 -0.00000000000000044 -1.00000000000000000 1.00000000000000000 -0.00000000000000044 0.00000000000000022 0.00000000000000044 1.00000000000000000 -0.00000000000000044 5.00000000000000000
1 -1017.00000000000022737 2884.00000000000181899 14.99999999999718625 -0.00000000000000022 -1.00000000000000000 0.00000000000000044 1.00000000000000000 -0.00000000000000022 0.00000000000000044 -0.00000000000000044 0.00000000000000044 1.00000000000000000 
1 -1656.06183403108320817 3626.62000000000170985 -0.00000000000197826 -0.00000000000000044 -1.00000000000000000 0.00000000000000028 -1.00000000000000000 0.00000000000000044 -0.00000000000000022 0.00000000000000022 -0.00000000000000028 -1.00000000000000000 
1 -1857.99999999999931788 3376.62000000021316737 -0.00000000000191208 0.00000000000134706 1.00000000000000000 -0.00000000000000028 1.00000000000000000 -0.00000000000134706 0.00000000000000022 0.00000000000000022 -0.00000000000000028 -1.00000000000000000 
1 -1703.67319696891468084 3376.62000000000534783 -0.00000000000187781 0.36755970767776119 0.92999992542571674 -0.00000000000000009 0.92999992542571674 -0.36755970767776119 0.00000000000000037 0.00000000000000031 -0.00000000000000022 -1.00000000000000000 
1 -936.99999999999954525 3134.00000000000363798 -0.00000000000242804 -0.00000000000000050 0.00000000000000044 1.00000000000000000 -0.00000000000000028 -1.00000000000000000 0.00000000000000044 1.00000000000000000 -0.00000000000000028 0.00000000000000050 
1 -40.00000000000170530 -936.99999999999954525 3009.00000000000227374 0.00000000000000071 1.00000000000000000 -0.00000000000000023 1.00000000000000000 -0.00000000000000071 0.00000000000000000 -0.00000000000000000 -0.00000000000000023 -1.00000000000000000 
1 -1137.00000000000113687 3134.00000000000272848 14.99999999999696598 -0.90152305746827233 -0.43273106758477403 -0.00000000000000041 0.43273106758477403 -0.90152305746827233 0.00000000000000079 -0.00000000000000071 0.00000000000000053 1.00000000000000000 
1 -936.99999999999954525 3134.00000000000363798 -80.00000000000245848 0.00000000000000050 1.00000000000000000 -0.00000000000000022 -0.00000000000000089 0.00000000000000022 1.00000000000000000 1.00000000000000000 -0.00000000000000050 0.00000000000000089 
1 -936.99999999999965894 2884.00000000000272848 -0.00000000000231702 -0.00000000000000050 -1.00000000000000000 0.00000000000000022 0.00000000000000089 -0.00000000000000022 -1.00000000000000000 1.00000000000000000 -0.00000000000000050 0.00000000000000089 
2 -936.99999999999954525 2984.00000000000272848 -40.00000000000238032 1.00000000000000000 -0.00000000000000028 0.00000000000000089 0.00000000000000028 1.00000000000000000 -0.00000000000000044 -0.00000000000000089 0.00000000000000044 1.00000000000000000 5.00000000000000089
2 -936.99999999999965894 2924.00000000000272848 -40.00000000000235190 1.00000000000000000 -0.00000000000000028 0.00000000000000089 0.00000000000000028 1.00000000000000000 -0.00000000000000044 -0.00000000000000089 0.00000000000000044 1.00000000000000000 5.00000000000000089
1 -936.99999999999954525 2884.00000000000272848 -80.00000000000234479 0.00000000000000050 -0.00000000000000044 -1.00000000000000000 0.00000000000000028 1.00000000000000000 -0.00000000000000044 1.00000000000000000 -0.00000000000000028 0.00000000000000050 
Triangulations 0

TShapes 141
Ve
0.000000100000000
-887.000000000000682 3134.000000000000000 0.000000000000000
0 0

0101101
*
Ed
 0.000000100000000 1 1 0
1  1 0 0.000000000000000 15.000000000000000
2  1 2 0 0.000000000000000 15.000000000000000
0

0101000
+141 10 -141 12 *
Ve
0.000000100000000
-887.000000000000682 3322.667133796086091 0.000000000000000
0 0

0101101
*
Ed
 0.000000100000000 1 1 0
1  2 0 0.000000000000000 15.000000000000000
0

0101000
+139 10 -139 12 *
Ed
 0.000000100000000 1 1 0
1  3 0 0.000000000000000 188.667133796086091
2  2 3 13 0.000000000000000 188.667133796086091
0

0101000
+141 0 -139 0 *
Wi

0101100
+140 0 -138 0 -137 10 +137 12 *
Fa
0  0.000000100000000 1 0

0111000
+136 0 *
Ve
0.000000100003133
-936.999999999999886 3134.000000000003638 -0.000000000003277
0 0

0101101
*
Ed
 0.000000100000000 1 1 0
1  4 0 199.999999999999773 250.000000000000000
2  3 2 15 199.999999999999773 250.000000000000000
2  4 2 16 199.999999999999773 250.000000000000000
2  5 3 13 199.999999999999773 250.000000000000000
0

0101000
+134 17 -141 0 *
Ve
0.000000100000455
-937.000000000000000 3134.000000000001364 0.000000000000000
0 0

0101101
*
Ed
 0.000000100000000 1 1 0
1  4 0 199.999999999999773 250.000000000000000
2  3 2 15 199.999999999999773 250.000000000000000
2  4 2 16 199.999999999999773 250.000000000000000
2  5 3 13 199.999999999999773 250.000000000000000
0

0101000
+132 21 -141 0 *
Ed
 0.000000100000455 1 1 0
1  5 0 0.000000000000000 15.000000000000000
2  6 4 0 0.000000000000000 15.000000000000000
2  7 5 0 0.000000000000000 15.000000000000000
2  8 2 23 0.000000000000000 15.000000000000000
0

0101000
+132 24 -134 25 *
Wi

0101100
-133 14 -140 6 +131 18 -130 22 *
Fa
0  0.000000100000000 2 6

0111000
+129 0 *
Ve
0.000000100000000
-1656.061834031083663 3626.619999999999891 0.000000000000000
0 0

0101101
*
Ed
 0.000000100000000 1 1 0
1  6 0 0.000000000000000 15.000000000000000
0

0101000
+127 10 -127 12 *
Ed
 0.000000100000000 1 1 0
1  7 0 0.000000000000000 826.948274946400375
2  9 3 13 0.000000000000000 826.948274946400375
0

0101000
+139 0 -127 0 *
Wi

0101100
+138 0 -126 0 -125 10 +125 12 *
Fa
0  0.000000100000000 6 0

0111000
+124 0 *
Ve
0.000000100000000
-1857.999999999999545 3626.619999999999891 0.000000000000000
0 0

0101101
*
Ed
 0.000000100000000 1 1 0
1  8 0 0.000000000000000 201.938165968915882
2  10 3 13 0.000000000000000 201.938165968915882
0

0101000
+127 0 -122 0 *
Ve
0.000000100000000
-1857.999999999999545 3376.620000000211348 0.000000000000000
0 0

0101101
*
Ed
 0.000000100000000 1 1 0
1  9 0 0.000000000000000 249.999999999788542
2  11 3 13 0.000000000000000 249.999999999788542
2  12 7 15 0.000000000000000 249.999999999788542
2  13 7 16 0.000000000000000 249.999999999788542
0

0101000
+122 0 -120 0 *
Ve
0.000000100000000
-1703.673196968914908 3376.620000000003529 0.000000000000000
0 0

0101101
*
Ed
 0.000000100000000 1 1 0
1  10 0 0.000000000000000 154.326803031084637
2  14 3 13 0.000000000000000 154.326803031084637
0

0101000
+120 0 -118 0 *
Ve
0.000000100000000
-1137.000000000000682 3152.656288893928831 0.000000000000000
0 0

0101101
*
Ed
 0.000000100000000 1 1 0
1  11 0 0.000000000000000 609.326067106418122
2  15 3 13 0.000000000000000 609.326067106418122
0

0101000
+118 0 -116 0 *
Ve
0.000000100001645
-1137.000000000000682 3134.000000000002274 -0.000000000002861
0 0

0101101
*
Ed
 0.000000100000000 1 1 0
1  12 0 0.000000000000000 18.656288893928831
2  16 8 15 0.000000000000000 18.656288893928831
2  17 8 16 0.000000000000000 18.656288893928831
2  18 3 13 0.000000000000000 18.656288893928831
0

0101000
+116 0 -114 27 *
Ve
0.000000100001597
3134.000000000001364 -0.000000000000412 0.000000000000000
0 0

0101101
*
Ed
 0.000000100000341 1 1 0
1  4 0 0.000000000000000 185.000000000000455
2  3 2 15 0.000000000000000 185.000000000000455
2  4 2 16 0.000000000000000 185.000000000000455
2  5 3 13 0.000000000000000 185.000000000000455
2  19 9 29 0.000000000000000 185.000000000000455
0

0101000
+114 27 -112 33 *
Ed
 0.000000100001259 1 1 0
1  4 0 185.000000000000455 199.999999999999773
2  3 2 15 185.000000000000455 199.999999999999773
2  4 2 16 185.000000000000455 199.999999999999773
2  5 3 13 185.000000000000455 199.999999999999773
2  19 9 29 185.000000000000455 199.999999999999773
0

0101000
+112 33 -134 17 *
Wi

0101100
+137 14 +125 14 +121 14 +119 14 +117 14 +115 14 +113 14 +111 14 +110 14 +133 14 
*
Ve
0.000000100000000
-972.000000000000682 3290.866700000000037 0.000000000000000
0 0

0101101
*
Ed
 0.000000100000000 1 1 0
1  13 0 0.000000000000000 6.283185307179586
2  20 10 15 0.000000000000000 6.283185307179586
2  21 10 16 0.000000000000000 6.283185307179586
2  22 3 13 0.000000000000000 6.283185307179586
0

0101000
+108 0 -108 0 *
Wi

0101100
-107 14 *
Ve
0.000000100000000
-1315.268010047115013 3290.866699999999582 0.000000000000000
0 0

0101101
*
Ed
 0.000000100000000 1 1 0
1  14 0 0.000000000000000 6.283185307179586
2  23 11 15 0.000000000000000 6.283185307179586
2  24 11 16 0.000000000000000 6.283185307179586
2  25 3 13 0.000000000000000 6.283185307179586
0

0101000
+105 0 -105 0 *
Wi

0101100
-104 14 *
Ve
0.000000100000000
-1432.159299032091894 3472.733399999999619 0.000000000000000
0 0

0101101
*
Ed
 0.000000100000000 1 1 0
1  15 0 0.000000000000000 6.283185307179586
2  26 12 15 0.000000000000000 6.283185307179586
2  27 12 16 0.000000000000000 6.283185307179586
2  28 3 13 0.000000000000000 6.283185307179586
0

0101000
+102 0 -102 0 *
Wi

0101100
-101 14 *
Ve
0.000000100000000
-1758.000000000000682 3472.733399999999619 0.000000000000000
0 0

0101101
*
Ed
 0.000000100000000 1 1 0
1  16 0 0.000000000000000 6.283185307179586
2  29 13 15 0.000000000000000 6.283185307179586
2  30 13 16 0.000000000000000 6.283185307179586
2  31 3 13 0.000000000000000 6.283185307179586
0

0101000
+99 0 -99 0 *
Wi

0101100
-98 14 *
Fa
0  0.000000100000000 3 26

0111000
+109 0 +106 0 +103 0 +100 0 +97 0 *
Ve
0.000000100001645
-1137.000000000000682 3134.000000000002274 14.999999999997142
0 0

0101101
*
Ed
 0.000000100000000 1 1 0
1  12 0 0.000000000000000 18.656288893928831
2  16 8 15 0.000000000000000 18.656288893928831
2  17 8 16 0.000000000000000 18.656288893928831
2  18 3 13 0.000000000000000 18.656288893928831
0

0101000
+116 0 -95 36 *
Ed
 0.000000100000346 1 1 0
1  4 0 0.000000000000000 199.999999999999773
2  3 2 15 0.000000000000000 199.999999999999773
2  4 2 16 0.000000000000000 199.999999999999773
2  5 3 13 0.000000000000000 199.999999999999773
0

0101000
+95 36 -132 21 *
Wi

0101100
+137 35 +125 35 +121 35 +119 35 +117 35 +115 35 +94 35 +93 35 +131 35 *
Wi

0101100
-107 35 *
Wi

0101100
-104 35 *
Wi

0101100
-101 35 *
Wi

0101100
-98 35 *
Fa
0  0.000000100000000 3 34

0111000
+92 0 +91 0 +90 0 +89 0 +88 0 *
Ve
0.000000100000000
-937.000000000000000 2884.000000000001364 0.000000000000000
0 0

0101101
*
Ve
0.000000100003133
-936.999999999999886 2884.000000000002274 -0.000000000003028
0 0

0101101
*
Ed
 0.000000100000000 1 1 0
1  17 0 0.000000000000000 15.000000000000000
2  32 5 0 0.000000000000000 15.000000000000000
2  33 14 0 0.000000000000000 15.000000000000000
0

0101000
+86 24 -85 25 *
Ed
 0.000000100000000 1 1 0
1  18 0 0.000000000000000 250.000000000000000
2  34 9 38 0.000000000000000 250.000000000000000
2  35 5 39 0.000000000000000 250.000000000000000
2  36 5 40 0.000000000000000 250.000000000000000
0

0101000
+132 0 -86 0 *
Ed
 0.000000100003133 1 1 0
1  18 0 0.000000000000000 250.000000000000000
2  34 9 38 0.000000000000000 250.000000000000000
2  35 5 39 0.000000000000000 250.000000000000000
2  36 5 40 0.000000000000000 250.000000000000000
0

0101000
+134 42 -85 42 *
Wi

0101100
+130 22 -84 22 -83 37 +82 41 *
Fa
0  0.000000100000000 5 22

0111000
+81 0 *
Ed
 0.000000100000000 1 1 0
1  19 0 0.000000000000000 15.000000000000000
2  37 7 0 0.000000000000000 15.000000000000000
0

0101000
+122 10 -122 12 *
Wi

0101100
+126 0 -79 0 -121 10 +121 12 *
Fa
0  0.000000100000000 15 0

0111000
+78 0 *
Ed
 0.000000100000000 1 1 0
1  20 0 0.000000000000000 15.000000000000000
2  38 7 0 0.000000000000000 15.000000000000000
0

0101000
+120 10 -120 12 *
Wi

0101100
+79 0 -76 0 -119 10 +119 12 *
Fa
0  0.000000100000000 7 0

0111000
+75 0 *
Ed
 0.000000100000000 1 1 0
1  21 0 0.000000000000000 15.000000000000000
0

0101000
+118 10 -118 12 *
Wi

0101100
+76 0 -73 0 -117 10 +117 12 *
Fa
0  0.000000100000000 16 0

0111000
+72 0 *
Ed
 0.000000100000000 1 1 0
1  22 0 0.000000000000000 15.000000000000000
2  39 8 0 0.000000000000000 15.000000000000000
0

0101000
+116 10 -116 12 *
Wi

0101100
+73 0 -70 0 -115 10 +115 12 *
Fa
0  0.000000100000000 17 0

0111000
+69 0 *
Ed
 0.000000100001137 1 1 0
1  23 0 0.000000000000000 15.000000000000000
2  40 8 0 0.000000000000000 15.000000000000000
2  41 2 0 0.000000000000000 15.000000000000000
0

0101000
+114 43 -95 43 *
Wi

0101100
+70 23 -67 23 -113 44 +94 35 *
Fa
0  0.000000100000000 8 23

0111000
+66 0 *
Ve
0.000000100001492
2884.000000000001364 -0.000000000000412 0.000000000000000
0 0

0101101
*
Ed
 0.000000100001483 1 1 0
1  24 0 0.000000000000000 250.000000000000000
2  42 18 47 0.000000000000000 250.000000000000000
2  43 18 48 0.000000000000000 250.000000000000000
2  44 19 49 0.000000000000000 250.000000000000000
2  45 9 50 0.000000000000000 250.000000000000000
0

0101000
+112 0 -64 0 *
Ve
0.000000100000000
-1017.000000000000000 2884.000000000001364 0.000000000000000
0 0

0101101
*
Ed
 0.000000100000000 1 1 0
1  25 0 0.000000000000000 65.000000000000455
2  46 9 38 0.000000000000000 65.000000000000455
2  47 14 39 0.000000000000000 65.000000000000455
2  48 14 40 0.000000000000000 65.000000000000455
0

0101000
+62 0 -64 51 *
Ed
 0.000000100000000 1 1 0
1  26 0 0.000000000000000 277.308492477241316
2  49 20 39 0.000000000000000 277.308492477241316
2  50 20 40 0.000000000000000 277.308492477241316
2  51 9 38 0.000000000000000 277.308492477241316
0

0101000
+114 40 -62 0 *
Wi

0101100
-111 14 -63 46 +61 41 +60 41 *
Fa
0  0.000000100000000 9 45

0111000
+59 0 *
Ve
0.000000100000000
3134.000000000001364 -80.000000000000412 0.000000000000000
0 0

0101101
*
Ed
 0.000000100000000 1 1 0
1  27 0 0.000000000000000 15.000000000000000
2  52 21 0 0.000000000000000 15.000000000000000
0

0101000
+57 52 -57 46 *
Ed
 0.000000100000000 1 1 0
1  28 0 0.000000000000000 80.000000000000000
2  53 21 47 0.000000000000000 80.000000000000000
2  54 21 48 0.000000000000000 80.000000000000000
2  55 19 49 0.000000000000000 80.000000000000000
0

0101000
+57 0 -134 47 *
Ed
 0.000000100000000 1 1 0
1  28 0 0.000000000000000 80.000000000000000
2  53 21 47 0.000000000000000 80.000000000000000
2  54 21 48 0.000000000000000 80.000000000000000
2  55 19 49 0.000000000000000 80.000000000000000
0

0101000
+57 0 -112 0 *
Wi

0101100
+56 0 +110 14 -55 52 +54 46 *
Fa
0  0.000000100000000 21 0

0111000
+53 0 *
Ed
 0.000000100000000 1 1 0
1  29 0 0.000000000000000 15.000000000000000
3  56 57CN 10 0 0.000000000000000 15.000000000000000
0

0101000
+108 10 -108 12 *
Wi

0101100
+51 0 -51 0 -107 10 +107 12 *
Fa
0  0.000000100000000 10 0

0111000
+50 0 *
Ed
 0.000000100000000 1 1 0
1  30 0 0.000000000000000 15.000000000000000
3  58 59CN 11 0 0.000000000000000 15.000000000000000
0

0101000
+105 10 -105 12 *
Wi

0101100
+48 0 -48 0 -104 10 +104 12 *
Fa
0  0.000000100000000 11 0

0111000
+47 0 *
Ed
 0.000000100000000 1 1 0
1  31 0 0.000000000000000 15.000000000000000
3  60 61CN 12 0 0.000000000000000 15.000000000000000
0

0101000
+102 10 -102 12 *
Wi

0101100
+45 0 -45 0 -101 10 +101 12 *
Fa
0  0.000000100000000 12 0

0111000
+44 0 *
Ed
 0.000000100000000 1 1 0
1  32 0 0.000000000000000 15.000000000000000
3  62 63CN 13 0 0.000000000000000 15.000000000000000
0

0101000
+99 10 -99 12 *
Wi

0101100
+42 0 -42 0 -98 10 +98 12 *
Fa
0  0.000000100000000 13 0

0111000
+41 0 *
Ed
 0.000000100000000 1 1 0
1  26 0 0.000000000000000 277.308492477241316
2  49 20 39 0.000000000000000 277.308492477241316
2  50 20 40 0.000000000000000 277.308492477241316
2  51 9 38 0.000000000000000 277.308492477241316
0

0101000
+95 39 -62 0 *
Ed
 0.000000100000000 1 1 0
1  25 0 0.000000000000000 80.000000000000000
2  46 9 38 0.000000000000000 80.000000000000000
2  47 14 39 0.000000000000000 80.000000000000000
2  48 14 40 0.000000000000000 80.000000000000000
0

0101000
+62 0 -86 0 *
Wi

0101100
-93 35 +39 24 +38 24 -83 24 *
Fa
0  0.000000100000000 9 53

0111000
+37 0 *
Ed
 0.000000100000000 1 1 0
1  33 0 0.000000000000000 15.000000000000000
2  64 20 0 0.000000000000000 15.000000000000000
2  65 14 0 0.000000000000000 15.000000000000000
0

0101000
+62 24 -62 54 *
Ed
 0.000000100001492 1 1 0
1  25 0 65.000000000000455 80.000000000000000
2  46 9 38 65.000000000000455 80.000000000000000
2  47 14 39 65.000000000000455 80.000000000000000
2  48 14 40 65.000000000000455 80.000000000000000
0

0101000
+64 51 -85 42 *
Wi

0101100
+35 22 -84 22 -38 37 +61 41 +34 41 *
Fa
0  0.000000100000000 14 22

0111000
+33 0 *
Ve
0.000000100000000
2884.000000000001364 -80.000000000000412 0.000000000000000
0 0

0101101
*
Ed
 0.000000100000000 1 1 0
1  34 0 0.000000000000000 80.000000000000000
2  66 22 47 0.000000000000000 80.000000000000000
2  67 22 48 0.000000000000000 80.000000000000000
2  68 19 49 0.000000000000000 80.000000000000000
0

0101000
+85 47 -31 0 *
Ed
 0.000000100000000 1 1 0
1  35 0 0.000000000000000 250.000000000000000
2  69 19 49 0.000000000000000 250.000000000000000
0

0101000
+31 0 -57 0 *
Wi

0101100
+82 41 +30 52 +29 52 +55 52 *
Ve
0.000000100000000
2989.000000000001364 -40.000000000000412 0.000000000000000
0 0

0101101
*
Ed
 0.000000100000000 1 1 0
1  36 0 0.000000000000000 6.283185307179586
2  70 23 47 0.000000000000000 6.283185307179586
2  71 23 48 0.000000000000000 6.283185307179586
2  72 19 49 0.000000000000000 6.283185307179586
0

0101000
+27 0 -27 0 *
Wi

0101100
-26 52 *
Ve
0.000000100000000
2929.000000000001364 -40.000000000000412 0.000000000000000
0 0

0101101
*
Ed
 0.000000100000000 1 1 0
1  37 0 0.000000000000000 6.283185307179586
2  73 24 47 0.000000000000000 6.283185307179586
2  74 24 48 0.000000000000000 6.283185307179586
2  75 19 49 0.000000000000000 6.283185307179586
0

0101000
+24 0 -24 0 *
Wi

0101100
-23 52 *
Fa
0  0.000000100000000 19 55

0111000
+28 0 +25 0 +22 0 *
Wi

0101100
-67 23 -35 0 -39 24 +60 54 *
Fa
0  0.000000100000000 20 0

0111000
+20 0 *
Ed
 0.000000100000000 1 1 0
1  34 0 0.000000000000000 80.000000000000000
2  66 22 47 0.000000000000000 80.000000000000000
2  67 22 48 0.000000000000000 80.000000000000000
2  68 19 49 0.000000000000000 80.000000000000000
0

0101000
+64 0 -31 0 *
Wi

0101100
+63 57 +18 57 +29 57 +54 57 *
Wi

0101100
-26 57 *
Wi

0101100
-23 57 *
Fa
0  0.000000100000000 19 0

0111000
+17 0 +16 0 +15 0 *
Ed
 0.000000100000000 1 1 0
1  38 0 0.000000000000000 15.000000000000000
2  76 22 0 0.000000000000000 15.000000000000000
0

0101000
+31 52 -31 46 *
Wi

0101100
+13 0 -56 0 -29 52 +29 46 *
Fa
0  0.000000100000000 25 0

0111000
+12 0 *
Wi

0101100
-34 41 -13 0 -30 52 +18 46 *
Fa
0  0.000000100000000 22 0

0111000
+10 0 *
Ed
 0.000000100000000 1 1 0
1  39 0 0.000000000000000 15.000000000000000
3  77 78CN 23 0 0.000000000000000 15.000000000000000
0

0101000
+27 52 -27 46 *
Wi

0101100
+8 0 -8 0 -26 52 +26 46 *
Fa
0  0.000000100000000 23 0

0111000
+7 0 *
Ed
 0.000000100000000 1 1 0
1  40 0 0.000000000000000 15.000000000000000
3  79 80CN 24 0 0.000000000000000 15.000000000000000
0

0101000
+24 52 -24 46 *
Wi

0101100
+5 0 -5 0 -23 52 +23 46 *
Fa
0  0.000000100000000 24 0

0111000
+4 0 *
Sh

0101100
-135 6 -128 0 -123 6 -96 0 +87 22 -80 0 -77 6 -74 6 -71 6 -68 6 
-65 22 -58 0 +52 0 +49 6 +46 6 +43 6 +40 6 +36 22 +32 0 +21 0 
+19 22 -14 56 +11 0 +9 0 -6 0 -3 0 *
So

0100000
+2 0 *

+1 1 