
CASCADE Topology V1, (c) Matra-Datavision
Locations 45
1
1.000000000000000 0.000000000000000 0.000000000000000 0.000000000000000 
0.000000000000000 1.000000000000000 0.000000000000000 0.000000000000000 
0.000000000000000 0.000000000000000 1.000000000000000 0.000000000000000 
1
1.000000000000000 0.000000000000000 0.000000000000000 0.000000000000000 
0.000000000000000 1.000000000000000 0.000000000000000 0.000000000000000 
0.000000000000000 0.000000000000000 1.000000000000000 0.000000000000000 
1
1.000000000000000 0.000000000000000 0.000000000000000 0.000000000000000 
0.000000000000000 1.000000000000000 0.000000000000000 0.000000000000000 
0.000000000000000 0.000000000000000 1.000000000000000 0.000000000000000 
1
1.000000000000000 0.000000000000000 0.000000000000000 0.000000000000000 
0.000000000000000 1.000000000000000 0.000000000000000 0.000000000000000 
0.000000000000000 0.000000000000000 1.000000000000000 0.000000000000000 
1
1.000000000000000 0.000000000000000 0.000000000000000 0.000000000000000 
0.000000000000000 1.000000000000000 0.000000000000000 0.000000000000000 
0.000000000000000 0.000000000000000 1.000000000000000 0.000000000000000 
2  2 1 3 -1 4 1 5 -1 0
1
1.000000000000000 0.000000000000000 0.000000000000000 0.000000000000000 
0.000000000000000 1.000000000000000 0.000000000000000 0.000000000000000 
0.000000000000000 0.000000000000000 1.000000000000000 0.000000000000000 
1
1.000000000000000 0.000000000000000 0.000000000000000 0.000000000000000 
0.000000000000000 1.000000000000000 0.000000000000000 0.000000000000000 
0.000000000000000 0.000000000000000 1.000000000000000 0.000000000000000 
1
1.000000000000000 0.000000000000000 0.000000000000000 0.000000000000000 
0.000000000000000 1.000000000000000 0.000000000000000 0.000000000000000 
0.000000000000000 0.000000000000000 1.000000000000000 0.000000000000000 
2  7 1 8 1 9 -1 0
1
1.000000000000000 0.000000000000000 0.000000000000000 -0.000000000000000 
0.000000000000000 1.000000000000000 0.000000000000000 -0.000000000000000 
0.000000000000000 0.000000000000000 1.000000000000000 -50.000000000000000 
2  7 1 8 1 9 -1 11 1 0
2  9 1 8 -1 7 -1 0
2  11 -1 9 1 8 -1 7 -1 0
2  7 1 8 1 9 -1 2 1 3 -1 4 1 5 -1 0
2  7 1 8 1 9 -1 11 1 2 1 3 -1 4 1 5 -1 0
1
1.000000000000000 0.000000000000000 0.000000000000000 0.000000000000000 
0.000000000000000 1.000000000000000 0.000000000000000 0.000000000000000 
0.000000000000000 0.000000000000000 1.000000000000000 0.000000000000000 
1
-1.000000000000000 0.000000000000000 0.000000000000000 0.000000000000000 
0.000000000000000 0.000000000000000 1.000000000000000 -1020.000000000000000 
0.000000000000000 1.000000000000000 -0.000000000000000 0.000000000000000 
2  17 1 18 1 5 -1 0
2  5 1 18 -1 17 -1 0
1
1.000000000000000 0.000000000000000 0.000000000000000 0.000000000000000 
0.000000000000000 1.000000000000000 0.000000000000000 -5.000000000000000 
0.000000000000000 0.000000000000000 1.000000000000000 0.000000000000001 
2  21 -1 5 1 18 -1 17 -1 0
2  18 -1 17 -1 0
2  2 1 3 -1 4 1 18 -1 17 -1 0
2  4 1 5 -1 0
2  2 1 3 -1 0
2  7 1 8 1 9 -1 2 1 3 -1 0
2  7 1 8 1 9 -1 11 1 2 1 3 -1 0
1
1.000000000000000 0.000000000000000 0.000000000000000 0.000000000000000 
0.000000000000000 1.000000000000000 0.000000000000000 0.000000000000000 
0.000000000000000 0.000000000000000 1.000000000000000 0.000000000000000 
1
1.000000000000000 0.000000000000000 0.000000000000000 0.000000000000000 
0.000000000000000 0.000000000000000 -1.000000000000000 -1843.000000000000227 
0.000000000000000 1.000000000000000 0.000000000000000 0.000000000000000 
2  29 1 30 1 3 -1 0
2  3 1 30 -1 29 -1 0
1
1.000000000000000 0.000000000000000 0.000000000000000 0.000000000000000 
0.000000000000000 1.000000000000000 0.000000000000000 5.000000000000000 
0.000000000000000 0.000000000000000 1.000000000000000 -0.000000000000001 
2  33 -1 3 1 30 -1 29 -1 0
2  30 -1 29 -1 0
2  2 1 30 -1 29 -1 0
2  9 -1 2 1 3 -1 4 1 5 -1 0
2  7 1 8 1 0
2  9 -1 11 1 2 1 3 -1 4 1 5 -1 0
2  17 1 18 1 5 -1 21 1 0
2  29 1 30 1 3 -1 33 1 0
2  5 -1 21 1 0
2  17 1 18 1 0
2  3 -1 33 1 4 1 5 -1 0
2  29 1 30 1 0
Curve2ds 40
1 0.00000000000000000 0.00000000000000000 0.00000000000000000 -1.00000000000000000 
1 147.03893105648512574 0.00000000000000000 0.00000000000000000 -1.00000000000000000 
1 0.00000000000000000 0.00000000000000000 0.00000000000000000 -1.00000000000000000 
1 916.84207365086388108 0.00000000000000000 0.00000000000000000 -1.00000000000000000 
1 0.00000000000000000 0.00000000000000000 1.00000000000000000 0.00000000000000000 
1 0.00000000000000000 -50.00000000000000000 1.00000000000000000 0.00000000000000000 
1 1130.87039097559022593 0.00000000000000000 0.00000000000000000 -1.00000000000000000 
1 0.00000000000000000 0.00000000000000000 0.00000000000000000 -1.00000000000000000 
1 0.00000000000000000 0.00000000000000000 1.00000000000000000 0.00000000000000000 
1 0.00000000000000000 -50.00000000000000000 1.00000000000000000 0.00000000000000000 
1 0.00000000000000000 0.00000000000000000 1.00000000000000000 0.00000000000000000 
1 0.00000000000000000 -5.00000000000000000 1.00000000000000000 0.00000000000000000 
2 -0.00000000000000355 0.00000000000045475 0.00000000000000000 -1.00000000000000000 1.00000000000000000 0.00000000000000000 5.00000000000000000
2 40.00000000000000000 -25.00000000000000000 1.00000000000000000 0.00000000000000000 -0.00000000000000000 1.00000000000000000 5.00000000000000000
1 0.00000000000000000 0.00000000000000000 1.00000000000000000 0.00000000000000000 
1 0.00000000000000000 -5.00000000000000000 1.00000000000000000 0.00000000000000000 
2 -0.00000000000000355 0.00000000000045475 0.00000000000000000 -1.00000000000000000 1.00000000000000000 0.00000000000000000 5.00000000000000000
2 107.03893105648512574 -25.00000000000000000 1.00000000000000000 0.00000000000000000 -0.00000000000000000 1.00000000000000000 5.00000000000000000
1 0.00000000000000000 0.00000000000000000 1.00000000000000000 0.00000000000000000 
1 0.00000000000000000 -50.00000000000000000 1.00000000000000000 0.00000000000000000 
1 518.56097563309185716 0.00000000000000000 0.00000000000000000 -1.00000000000000000 
1 0.00000000000000000 0.00000000000000000 0.00000000000000000 -1.00000000000000000 
1 0.00000000000000000 0.00000000000000000 1.00000000000000000 0.00000000000000000 
1 0.00000000000000000 -5.00000000000000000 1.00000000000000000 0.00000000000000000 
2 -0.00000000000045475 0.00000000000000355 -1.00000000000000000 -0.00000000000000000 0.00000000000000000 -1.00000000000000000 5.00000000000000000
2 80.00000000000000000 -25.00000000000000000 1.00000000000000000 0.00000000000000000 -0.00000000000000000 1.00000000000000000 5.00000000000000000
1 0.00000000000000000 0.00000000000000000 1.00000000000000000 0.00000000000000000 
1 0.00000000000000000 -5.00000000000000000 1.00000000000000000 0.00000000000000000 
2 0.00000000000000355 -0.00000000000000000 0.00000000000000000 1.00000000000000000 -1.00000000000000000 0.00000000000000000 5.00000000000000000
2 438.56097563309185716 -25.00000000000000000 1.00000000000000000 0.00000000000000000 -0.00000000000000000 1.00000000000000000 5.00000000000000000
1 0.00000000000000000 0.00000000000000000 1.00000000000000000 0.00000000000000000 
1 0.00000000000000000 -50.00000000000000000 1.00000000000000000 0.00000000000000000 
1 0.00000000000000000 0.00000000000000000 0.00000000000000000 -1.00000000000000000 
1 6.28318530717958623 0.00000000000000000 0.00000000000000000 -1.00000000000000000 
1 0.00000000000000000 0.00000000000000000 0.00000000000000000 -1.00000000000000000 
1 6.28318530717958623 0.00000000000000000 0.00000000000000000 -1.00000000000000000 
1 0.00000000000000000 0.00000000000000000 0.00000000000000000 -1.00000000000000000 
1 6.28318530717958623 0.00000000000000000 0.00000000000000000 -1.00000000000000000 
1 0.00000000000000000 0.00000000000000000 0.00000000000000000 -1.00000000000000000 
1 6.28318530717958623 0.00000000000000000 0.00000000000000000 -1.00000000000000000 
Curves 16
1 3478.37171807200911644 -1020.00000000000000000 0.00000000000000000 -0.00000000000000000 -0.00000000000000000 -1.00000000000000000 
1 3882.43902436690814284 -1843.00000000000022737 0.00000000000000000 -0.00000000000000000 -0.00000000000000000 -1.00000000000000000 
1 3478.37171807200911644 -1020.00000000000000000 0.00000000000000000 0.44071636534512815 -0.89764641441771464 0.00000000000000000 
1 3625.41064912849424218 -1020.00000000000000000 0.00000000000000000 -0.00000000000000000 -0.00000000000000000 -1.00000000000000000 
1 3625.41064912849424218 -1020.00000000000000000 0.00000000000000000 -1.00000000000000000 0.00000000000000000 0.00000000000000000 
2 -3585.41064912849424218 -25.00000000000000000 0.00000000000000000 0.00000000000000000 0.00000000000000000 1.00000000000000000 1.00000000000000000 0.00000000000000000 -0.00000000000000000 -0.00000000000000000 1.00000000000000000 0.00000000000000000 5.00000000000000000
2 -3518.37171807200911644 -25.00000000000000000 0.00000000000000000 0.00000000000000000 0.00000000000000000 1.00000000000000000 1.00000000000000000 0.00000000000000000 -0.00000000000000000 -0.00000000000000000 1.00000000000000000 0.00000000000000000 5.00000000000000000
1 3882.43902436690814284 -1843.00000000000022737 0.00000000000000000 1.00000000000000000 0.00000000000000000 0.00000000000000000 
1 4401.00000000000000000 -1843.00000000000022737 0.00000000000000000 -0.00000000000000000 -0.00000000000000000 -1.00000000000000000 
2 3962.43902436690814284 -25.00000000000000000 0.00000000000000000 0.00000000000000000 0.00000000000000000 1.00000000000000000 1.00000000000000000 0.00000000000000000 -0.00000000000000000 -0.00000000000000000 1.00000000000000000 0.00000000000000000 5.00000000000000000
2 4321.00000000000000000 -25.00000000000000000 0.00000000000000000 0.00000000000000000 0.00000000000000000 1.00000000000000000 1.00000000000000000 0.00000000000000000 -0.00000000000000000 -0.00000000000000000 1.00000000000000000 0.00000000000000000 5.00000000000000000
1 4401.00000000000000000 -1843.00000000000022737 0.00000000000000000 -0.68583398863455336 0.72775802299501957 0.00000000000000000 
1 3580.41064912849424218 -1020.00000000000000000 -25.00000000000000000 0.00000000000000000 -1.00000000000000000 0.00000000000000022 
1 3513.37171807200911644 -1020.00000000000000000 -25.00000000000000000 0.00000000000000000 -1.00000000000000000 0.00000000000000022 
1 3967.43902436690814284 -1843.00000000000022737 -25.00000000000000000 0.00000000000000000 1.00000000000000000 -0.00000000000000022 
1 4326.00000000000000000 -1843.00000000000022737 -25.00000000000000000 0.00000000000000000 1.00000000000000000 -0.00000000000000022 
Polygon3D 0
PolygonOnTriangulations 0
Surfaces 13
1 3478.37171807200911644 -1020.00000000000000000 0.00000000000000000 -0.89764641441771464 -0.44071636534512815 0.00000000000000000 0.44071636534512815 -0.89764641441771464 0.00000000000000000 0.00000000000000000 0.00000000000000000 1.00000000000000000 
1 3625.41064912849424218 -1020.00000000000000000 0.00000000000000000 0.00000000000000000 1.00000000000000000 -0.00000000000000000 -1.00000000000000000 0.00000000000000000 0.00000000000000000 0.00000000000000000 0.00000000000000000 1.00000000000000000 
1 3882.43902436690814284 -1843.00000000000022737 0.00000000000000000 0.00000000000000000 -1.00000000000000000 0.00000000000000000 1.00000000000000000 0.00000000000000000 0.00000000000000000 -0.00000000000000000 0.00000000000000000 1.00000000000000000 
1 4401.00000000000000000 -1843.00000000000022737 0.00000000000000000 0.72775802299501957 0.68583398863455336 -0.00000000000000000 -0.68583398863455336 0.72775802299501957 0.00000000000000000 0.00000000000000000 0.00000000000000000 1.00000000000000000 
2 3585.41064912849424218 -1020.00000000000000000 -25.00000000000000000 0.00000000000000000 1.00000000000000000 -0.00000000000000022 -1.00000000000000000 0.00000000000000000 0.00000000000000000 0.00000000000000000 0.00000000000000022 1.00000000000000000 5.00000000000000000
1 3585.41064912849378743 -1020.00000000000000000 -24.99999999999999645 0.00000000000000000 1.00000000000000000 0.00000000000000000 0.00000000000000000 -0.00000000000000000 1.00000000000000000 1.00000000000000000 0.00000000000000000 -0.00000000000000000 
2 3518.37171807200911644 -1020.00000000000000000 -25.00000000000000000 0.00000000000000000 1.00000000000000000 -0.00000000000000022 -1.00000000000000000 0.00000000000000000 0.00000000000000000 0.00000000000000000 0.00000000000000022 1.00000000000000000 5.00000000000000000
1 3518.37171807200866169 -1020.00000000000000000 -24.99999999999999645 0.00000000000000000 1.00000000000000000 0.00000000000000000 0.00000000000000000 -0.00000000000000000 1.00000000000000000 1.00000000000000000 0.00000000000000000 -0.00000000000000000 
2 3962.43902436690814284 -1843.00000000000022737 -25.00000000000000000 0.00000000000000000 -1.00000000000000000 0.00000000000000022 1.00000000000000000 0.00000000000000000 0.00000000000000000 -0.00000000000000000 0.00000000000000022 1.00000000000000000 5.00000000000000000
1 3962.43902436690768809 -1843.00000000000000000 -24.99999999999999645 -0.00000000000000000 -1.00000000000000000 0.00000000000000000 -1.00000000000000000 0.00000000000000000 0.00000000000000000 -0.00000000000000000 0.00000000000000000 -1.00000000000000000 
2 4321.00000000000000000 -1843.00000000000022737 -25.00000000000000000 0.00000000000000000 -1.00000000000000000 0.00000000000000022 1.00000000000000000 0.00000000000000000 0.00000000000000000 -0.00000000000000000 0.00000000000000022 1.00000000000000000 5.00000000000000000
1 4321.00000000000000000 -1843.00000000000000000 -24.99999999999999645 -0.00000000000000000 -1.00000000000000000 0.00000000000000000 0.00000000000000000 -0.00000000000000000 -1.00000000000000000 1.00000000000000000 0.00000000000000000 0.00000000000000000 
1 3900.31242722303386472 -1487.84490262141184758 0.00000000000000000 0.00000000000000000 0.00000000000000000 1.00000000000000000 1.00000000000000000 0.00000000000000000 -0.00000000000000000 -0.00000000000000000 1.00000000000000000 0.00000000000000000 
Triangulations 0

TShapes 56
Ve
0.000000100000000
3478.371718072009116 -1020.000000000000000 0.000000000000000
0 0

0101101
*
Ed
 0.000000100000000 1 1 0
1  1 0 0.000000000000000 50.000000000000000
2  1 1 0 0.000000000000000 50.000000000000000
2  2 2 0 0.000000000000000 50.000000000000000
0

0101000
+56 10 -56 12 *
Ve
0.000000100000000
3882.439024366908143 -1843.000000000000227 0.000000000000000
0 0

0101101
*
Ed
 0.000000100000000 1 1 0
1  2 0 0.000000000000000 50.000000000000000
2  3 3 0 0.000000000000000 50.000000000000000
2  4 1 0 0.000000000000000 50.000000000000000
0

0101000
+54 10 -54 12 *
Ed
 0.000000100000000 1 1 0
1  3 0 0.000000000000000 916.842073650863881
2  5 1 13 0.000000000000000 916.842073650863881
2  6 1 14 0.000000000000000 916.842073650863881
0

0101000
+56 0 -54 0 *
Wi

0101100
+55 0 -53 0 -52 10 +52 12 *
Fa
0  0.000000100000000 1 0

0111000
+51 0 *
Ve
0.000000100000000
3625.410649128494242 -1020.000000000000000 0.000000000000000
0 0

0101101
*
Ed
 0.000000100000000 1 1 0
1  4 0 0.000000000000000 50.000000000000000
2  7 4 0 0.000000000000000 50.000000000000000
2  8 2 0 0.000000000000000 50.000000000000000
0

0101000
+49 10 -49 12 *
Ed
 0.000000100000000 1 1 0
1  5 0 0.000000000000000 147.038931056485126
2  9 2 13 0.000000000000000 147.038931056485126
2  10 2 14 0.000000000000000 147.038931056485126
0

0101000
+49 0 -56 0 *
Wi

0101100
+48 6 -47 15 +47 16 -55 6 *
Ve
0.000000100000000
-3580.410649128494242 -25.000000000000000 0.000000000000000
0 0

0101101
*
Ed
 0.000000100000000 1 1 0
1  6 0 0.000000000000000 6.283185307179586
2  11 5 20 0.000000000000000 6.283185307179586
2  12 5 22 0.000000000000000 6.283185307179586
2  13 6 23 0.000000000000000 6.283185307179586
2  14 2 24 0.000000000000000 6.283185307179586
0

0101000
+45 0 -45 0 *
Wi

0101100
-44 19 *
Ve
0.000000100000000
-3513.371718072009116 -25.000000000000000 0.000000000000000
0 0

0101101
*
Ed
 0.000000100000000 1 1 0
1  7 0 0.000000000000000 6.283185307179586
2  15 7 20 0.000000000000000 6.283185307179586
2  16 7 22 0.000000000000000 6.283185307179586
2  17 8 23 0.000000000000000 6.283185307179586
2  18 2 24 0.000000000000000 6.283185307179586
0

0101000
+42 0 -42 0 *
Wi

0101100
-41 19 *
Fa
0  0.000000100000000 2 6

0111000
+46 0 +43 0 +40 0 *
Ve
0.000000100000000
4401.000000000000000 -1843.000000000000227 0.000000000000000
0 0

0101101
*
Ed
 0.000000100000000 1 1 0
1  8 0 0.000000000000000 518.560975633091857
2  19 3 13 0.000000000000000 518.560975633091857
2  20 3 14 0.000000000000000 518.560975633091857
0

0101000
+54 0 -38 0 *
Ed
 0.000000100000000 1 1 0
1  9 0 0.000000000000000 50.000000000000000
2  21 3 0 0.000000000000000 50.000000000000000
2  22 4 0 0.000000000000000 50.000000000000000
0

0101000
+38 10 -38 12 *
Wi

0101100
+53 26 -37 27 +37 28 -36 26 *
Ve
0.000000100000000
3967.439024366908143 -25.000000000000000 0.000000000000000
0 0

0101101
*
Ed
 0.000000100000000 1 1 0
1  10 0 0.000000000000000 6.283185307179586
2  23 9 32 0.000000000000000 6.283185307179586
2  24 9 34 0.000000000000000 6.283185307179586
2  25 10 35 0.000000000000000 6.283185307179586
2  26 3 36 0.000000000000000 6.283185307179586
0

0101000
+34 0 -34 0 *
Wi

0101100
-33 31 *
Ve
0.000000100000000
4326.000000000000000 -25.000000000000000 0.000000000000000
0 0

0101101
*
Ed
 0.000000100000000 1 1 0
1  11 0 0.000000000000000 6.283185307179586
2  27 11 32 0.000000000000000 6.283185307179586
2  28 11 34 0.000000000000000 6.283185307179586
2  29 12 35 0.000000000000000 6.283185307179586
2  30 3 36 0.000000000000000 6.283185307179586
0

0101000
+31 0 -31 0 *
Wi

0101100
-30 31 *
Fa
0  0.000000100000000 3 26

0111000
+35 0 +32 0 +29 0 *
Ed
 0.000000100000000 1 1 0
1  12 0 0.000000000000000 1130.870390975589999
2  31 4 13 0.000000000000000 1130.870390975589999
2  32 4 14 0.000000000000000 1130.870390975589999
0

0101000
+38 0 -49 0 *
Wi

0101100
+52 0 +37 0 +27 0 +47 0 *
Fa
0  0.000000100000000 13 0

0111000
+26 38 *
Wi

0101100
+36 0 -48 0 -27 10 +27 12 *
Fa
0  0.000000100000000 4 0

0111000
+24 0 *
Ed
 0.000000100000000 1 1 0
1  13 0 0.000000000000000 5.000000000000000
3  33 34CN 5 0 0.000000000000000 5.000000000000000
0

0101000
+45 19 -45 40 *
Wi

0101100
+22 0 -22 0 -44 19 +44 40 *
Fa
0  0.000000100000000 5 0

0111000
+21 0 *
Ed
 0.000000100000000 1 1 0
1  14 0 0.000000000000000 5.000000000000000
3  35 36CN 7 0 0.000000000000000 5.000000000000000
0

0101000
+42 19 -42 40 *
Wi

0101100
+19 0 -19 0 -41 19 +41 40 *
Fa
0  0.000000100000000 7 0

0111000
+18 0 *
Ed
 0.000000100000000 1 1 0
1  15 0 0.000000000000000 5.000000000000000
3  37 38CN 9 0 0.000000000000000 5.000000000000000
0

0101000
+34 31 -34 41 *
Wi

0101100
+16 0 -16 0 -33 31 +33 41 *
Fa
0  0.000000100000000 9 0

0111000
+15 0 *
Ed
 0.000000100000000 1 1 0
1  16 0 0.000000000000000 5.000000000000000
3  39 40CN 11 0 0.000000000000000 5.000000000000000
0

0101000
+31 31 -31 41 *
Wi

0101100
+13 0 -13 0 -30 31 +30 41 *
Fa
0  0.000000100000000 11 0

0111000
+12 0 *
Wi

0101100
+44 0 *
Fa
0  0.000000100000000 6 0

0111000
+10 43 *
Wi

0101100
+41 0 *
Fa
0  0.000000100000000 8 0

0111000
+8 43 *
Wi

0101100
+33 0 *
Fa
0  0.000000100000000 10 0

0111000
+6 45 *
Wi

0101100
+30 0 *
Fa
0  0.000000100000000 12 0

0111000
+4 45 *
Sh

0101100
+50 6 +39 0 +28 25 +25 37 -25 39 +23 6 -20 0 -17 0 -14 25 -11 25 
+9 42 +7 42 +5 44 +3 44 *
So

0100000
+2 0 *

+1 1 