
CASCADE Topology V1, (c) Matra-Datavision
Locations 45
1
1.000000000000000 0.000000000000000 0.000000000000000 0.000000000000000 
0.000000000000000 1.000000000000000 0.000000000000000 0.000000000000000 
0.000000000000000 0.000000000000000 1.000000000000000 0.000000000000000 
1
1.000000000000000 0.000000000000000 0.000000000000000 0.000000000000000 
0.000000000000000 1.000000000000000 0.000000000000000 0.000000000000000 
0.000000000000000 0.000000000000000 1.000000000000000 0.000000000000000 
1
1.000000000000000 0.000000000000000 0.000000000000000 0.000000000000000 
0.000000000000000 1.000000000000000 0.000000000000000 0.000000000000000 
0.000000000000000 0.000000000000000 1.000000000000000 0.000000000000000 
1
1.000000000000000 0.000000000000000 0.000000000000000 0.000000000000000 
0.000000000000000 1.000000000000000 0.000000000000000 0.000000000000000 
0.000000000000000 0.000000000000000 1.000000000000000 0.000000000000000 
1
1.000000000000000 0.000000000000000 0.000000000000000 0.000000000000000 
0.000000000000000 1.000000000000000 0.000000000000000 0.000000000000000 
0.000000000000000 0.000000000000000 1.000000000000000 0.000000000000000 
2  2 1 3 -1 4 1 5 -1 0
1
1.000000000000000 0.000000000000000 0.000000000000000 0.000000000000000 
0.000000000000000 1.000000000000000 0.000000000000000 0.000000000000000 
0.000000000000000 0.000000000000000 1.000000000000000 0.000000000000000 
1
1.000000000000000 0.000000000000000 0.000000000000000 0.000000000000000 
0.000000000000000 1.000000000000000 0.000000000000000 0.000000000000000 
0.000000000000000 0.000000000000000 1.000000000000000 0.000000000000000 
1
1.000000000000000 0.000000000000000 0.000000000000000 0.000000000000000 
0.000000000000000 1.000000000000000 0.000000000000000 0.000000000000000 
0.000000000000000 0.000000000000000 1.000000000000000 0.000000000000000 
2  7 1 8 1 9 -1 0
1
1.000000000000000 0.000000000000000 0.000000000000000 -0.000000000000000 
0.000000000000000 1.000000000000000 0.000000000000000 -0.000000000000000 
0.000000000000000 0.000000000000000 1.000000000000000 -50.000000000000000 
2  7 1 8 1 9 -1 11 1 0
2  7 1 8 1 9 -1 2 1 3 -1 4 1 5 -1 0
2  9 1 8 -1 7 -1 0
2  11 -1 9 1 8 -1 7 -1 0
2  7 1 8 1 9 -1 11 1 2 1 3 -1 4 1 5 -1 0
1
1.000000000000000 0.000000000000000 0.000000000000000 0.000000000000000 
0.000000000000000 1.000000000000000 0.000000000000000 0.000000000000000 
0.000000000000000 0.000000000000000 1.000000000000000 0.000000000000000 
1
-1.000000000000000 0.000000000000000 0.000000000000000 0.000000000000000 
0.000000000000000 0.000000000000000 1.000000000000000 -1020.000000000000000 
0.000000000000000 1.000000000000000 -0.000000000000000 0.000000000000000 
2  17 1 18 1 5 -1 0
2  5 1 18 -1 17 -1 0
1
1.000000000000000 0.000000000000000 0.000000000000000 0.000000000000000 
0.000000000000000 1.000000000000000 0.000000000000000 -5.000000000000000 
0.000000000000000 0.000000000000000 1.000000000000000 0.000000000000001 
2  21 -1 5 1 18 -1 17 -1 0
2  18 -1 17 -1 0
2  2 1 3 -1 4 1 18 -1 17 -1 0
2  4 1 5 -1 0
2  2 1 3 -1 0
2  7 1 8 1 9 -1 2 1 3 -1 0
2  7 1 8 1 9 -1 11 1 2 1 3 -1 0
1
1.000000000000000 0.000000000000000 0.000000000000000 0.000000000000000 
0.000000000000000 1.000000000000000 0.000000000000000 0.000000000000000 
0.000000000000000 0.000000000000000 1.000000000000000 0.000000000000000 
1
1.000000000000000 0.000000000000000 0.000000000000000 0.000000000000000 
0.000000000000000 0.000000000000000 -1.000000000000000 -1843.000000000000227 
0.000000000000000 1.000000000000000 0.000000000000000 0.000000000000000 
2  29 1 30 1 3 -1 0
2  3 1 30 -1 29 -1 0
1
1.000000000000000 0.000000000000000 0.000000000000000 0.000000000000000 
0.000000000000000 1.000000000000000 0.000000000000000 5.000000000000000 
0.000000000000000 0.000000000000000 1.000000000000000 -0.000000000000001 
2  33 -1 3 1 30 -1 29 -1 0
2  30 -1 29 -1 0
2  2 1 30 -1 29 -1 0
2  9 -1 2 1 3 -1 4 1 5 -1 0
2  7 1 8 1 0
2  9 -1 11 1 2 1 3 -1 4 1 5 -1 0
2  17 1 18 1 5 -1 21 1 0
2  29 1 30 1 3 -1 33 1 0
2  5 -1 21 1 0
2  17 1 18 1 0
2  3 -1 33 1 4 1 5 -1 0
2  29 1 30 1 0
Curve2ds 36
1 249.72397097761768237 0.00000000000000000 0.00000000000000000 -1.00000000000000000 
1 0.00000000000000000 0.00000000000000000 0.00000000000000000 -1.00000000000000000 
1 832.92736402538741913 0.00000000000000000 0.00000000000000000 -1.00000000000000000 
1 0.00000000000000000 0.00000000000000000 0.00000000000000000 -1.00000000000000000 
1 0.00000000000000000 0.00000000000000000 1.00000000000000000 0.00000000000000000 
1 0.00000000000000000 -50.00000000000000000 1.00000000000000000 0.00000000000000000 
1 0.00000000000000000 0.00000000000000000 1.00000000000000000 0.00000000000000000 
1 0.00000000000000000 -5.00000000000000000 1.00000000000000000 0.00000000000000000 
2 -0.00000000000000355 0.00000000000090949 0.00000000000000000 -1.00000000000000000 1.00000000000000000 0.00000000000000000 5.00000000000000000
2 80.00000000000000000 -25.00000000000000000 1.00000000000000000 0.00000000000000000 -0.00000000000000000 1.00000000000000000 5.00000000000000000
1 0.00000000000000000 0.00000000000000000 1.00000000000000000 0.00000000000000000 
1 0.00000000000000000 -5.00000000000000000 1.00000000000000000 0.00000000000000000 
2 -0.00000000000000355 0.00000000000000000 0.00000000000000000 -1.00000000000000000 1.00000000000000000 0.00000000000000000 5.00000000000000000
2 169.72397097761768237 -25.00000000000000000 1.00000000000000000 0.00000000000000000 -0.00000000000000000 1.00000000000000000 5.00000000000000000
1 0.00000000000000000 0.00000000000000000 1.00000000000000000 0.00000000000000000 
1 0.00000000000000000 -50.00000000000000000 1.00000000000000000 0.00000000000000000 
1 377.93861032227187025 0.00000000000000000 0.00000000000000000 -1.00000000000000000 
1 0.00000000000000000 0.00000000000000000 0.00000000000000000 -1.00000000000000000 
1 0.00000000000000000 0.00000000000000000 1.00000000000000000 0.00000000000000000 
1 0.00000000000000000 -5.00000000000000000 1.00000000000000000 0.00000000000000000 
2 -0.00000000000045475 0.00000000000000355 -1.00000000000000000 -0.00000000000000000 0.00000000000000000 -1.00000000000000000 5.00000000000000000
2 80.00000000000000000 -25.00000000000000000 1.00000000000000000 0.00000000000000000 -0.00000000000000000 1.00000000000000000 5.00000000000000000
1 0.00000000000000000 0.00000000000000000 1.00000000000000000 0.00000000000000000 
1 0.00000000000000000 -5.00000000000000000 1.00000000000000000 0.00000000000000000 
2 -0.00000000000045475 0.00000000000000355 -1.00000000000000000 -0.00000000000000000 0.00000000000000000 -1.00000000000000000 5.00000000000000000
2 297.93861032227187025 -25.00000000000000000 1.00000000000000000 0.00000000000000000 -0.00000000000000000 1.00000000000000000 5.00000000000000000
1 0.00000000000000000 0.00000000000000000 1.00000000000000000 0.00000000000000000 
1 0.00000000000000000 -50.00000000000000000 1.00000000000000000 0.00000000000000000 
1 0.00000000000000000 0.00000000000000000 0.00000000000000000 -1.00000000000000000 
1 6.28318530717958623 0.00000000000000000 0.00000000000000000 -1.00000000000000000 
1 0.00000000000000000 0.00000000000000000 0.00000000000000000 -1.00000000000000000 
1 6.28318530717958623 0.00000000000000000 0.00000000000000000 -1.00000000000000000 
1 0.00000000000000000 0.00000000000000000 0.00000000000000000 -1.00000000000000000 
1 6.28318530717958623 0.00000000000000000 0.00000000000000000 -1.00000000000000000 
1 0.00000000000000000 0.00000000000000000 0.00000000000000000 -1.00000000000000000 
1 6.28318530717958623 0.00000000000000000 0.00000000000000000 -1.00000000000000000 
Curves 16
1 3135.06138967772812975 -1020.00000000000000000 0.00000000000000000 -0.00000000000000000 -0.00000000000000000 -1.00000000000000000 
1 3135.06138967772812975 -1843.00000000000022737 0.00000000000000000 -0.00000000000000000 -0.00000000000000000 -1.00000000000000000 
1 3135.06138967772812975 -1020.00000000000000000 0.00000000000000000 0.00000000000000000 -1.00000000000000000 0.00000000000000000 
1 3384.78536065534581212 -1020.00000000000000000 0.00000000000000000 -0.00000000000000000 -0.00000000000000000 -1.00000000000000000 
1 3384.78536065534581212 -1020.00000000000000000 0.00000000000000000 -1.00000000000000000 0.00000000000000000 0.00000000000000000 
2 -3304.78536065534581212 -25.00000000000000000 0.00000000000000000 0.00000000000000000 0.00000000000000000 1.00000000000000000 1.00000000000000000 0.00000000000000000 -0.00000000000000000 -0.00000000000000000 1.00000000000000000 0.00000000000000000 5.00000000000000000
2 -3215.06138967772812975 -25.00000000000000000 0.00000000000000000 0.00000000000000000 0.00000000000000000 1.00000000000000000 1.00000000000000000 0.00000000000000000 -0.00000000000000000 -0.00000000000000000 1.00000000000000000 0.00000000000000000 5.00000000000000000
1 3135.06138967772812975 -1843.00000000000022737 0.00000000000000000 1.00000000000000000 0.00000000000000000 0.00000000000000000 
1 3513.00000000000000000 -1843.00000000000022737 0.00000000000000000 -0.00000000000000000 -0.00000000000000000 -1.00000000000000000 
2 3215.06138967772812975 -25.00000000000000000 0.00000000000000000 0.00000000000000000 0.00000000000000000 1.00000000000000000 1.00000000000000000 0.00000000000000000 -0.00000000000000000 -0.00000000000000000 1.00000000000000000 0.00000000000000000 5.00000000000000000
2 3433.00000000000000000 -25.00000000000000000 0.00000000000000000 0.00000000000000000 0.00000000000000000 1.00000000000000000 1.00000000000000000 0.00000000000000000 -0.00000000000000000 -0.00000000000000000 1.00000000000000000 0.00000000000000000 5.00000000000000000
1 3513.00000000000000000 -1843.00000000000022737 0.00000000000000000 -0.15393255748618467 0.98808135684555987 0.00000000000000000 
1 3299.78536065534581212 -1020.00000000000000000 -25.00000000000000000 0.00000000000000000 -1.00000000000000000 0.00000000000000022 
1 3210.06138967772812975 -1020.00000000000000000 -25.00000000000000000 0.00000000000000000 -1.00000000000000000 0.00000000000000022 
1 3220.06138967772812975 -1843.00000000000022737 -25.00000000000000000 0.00000000000000000 1.00000000000000000 -0.00000000000000022 
1 3438.00000000000000000 -1843.00000000000022737 -25.00000000000000000 0.00000000000000000 1.00000000000000000 -0.00000000000000022 
Polygon3D 0
PolygonOnTriangulations 0
Surfaces 13
1 3135.06138967772812975 -1020.00000000000000000 0.00000000000000000 -1.00000000000000000 0.00000000000000000 0.00000000000000000 0.00000000000000000 -1.00000000000000000 0.00000000000000000 0.00000000000000000 0.00000000000000000 1.00000000000000000 
1 3384.78536065534581212 -1020.00000000000000000 0.00000000000000000 0.00000000000000000 1.00000000000000000 -0.00000000000000000 -1.00000000000000000 0.00000000000000000 0.00000000000000000 0.00000000000000000 0.00000000000000000 1.00000000000000000 
1 3135.06138967772812975 -1843.00000000000022737 0.00000000000000000 0.00000000000000000 -1.00000000000000000 0.00000000000000000 1.00000000000000000 0.00000000000000000 0.00000000000000000 -0.00000000000000000 0.00000000000000000 1.00000000000000000 
1 3513.00000000000000000 -1843.00000000000022737 0.00000000000000000 0.98808135684555987 0.15393255748618467 -0.00000000000000000 -0.15393255748618467 0.98808135684555987 0.00000000000000000 0.00000000000000000 0.00000000000000000 1.00000000000000000 
2 3304.78536065534581212 -1020.00000000000000000 -25.00000000000000000 0.00000000000000000 1.00000000000000000 -0.00000000000000022 -1.00000000000000000 0.00000000000000000 0.00000000000000000 0.00000000000000000 0.00000000000000022 1.00000000000000000 5.00000000000000000
1 3304.78536065534490263 -1020.00000000000000000 -24.99999999999999645 0.00000000000000000 1.00000000000000000 0.00000000000000000 0.00000000000000000 -0.00000000000000000 1.00000000000000000 1.00000000000000000 0.00000000000000000 -0.00000000000000000 
2 3215.06138967772812975 -1020.00000000000000000 -25.00000000000000000 0.00000000000000000 1.00000000000000000 -0.00000000000000022 -1.00000000000000000 0.00000000000000000 0.00000000000000000 0.00000000000000000 0.00000000000000022 1.00000000000000000 5.00000000000000000
1 3215.06138967772812975 -1020.00000000000000000 -24.99999999999999645 0.00000000000000000 1.00000000000000000 0.00000000000000000 0.00000000000000000 -0.00000000000000000 1.00000000000000000 1.00000000000000000 0.00000000000000000 -0.00000000000000000 
2 3215.06138967772812975 -1843.00000000000022737 -25.00000000000000000 0.00000000000000000 -1.00000000000000000 0.00000000000000022 1.00000000000000000 0.00000000000000000 0.00000000000000000 -0.00000000000000000 0.00000000000000022 1.00000000000000000 5.00000000000000000
1 3215.06138967772767501 -1843.00000000000000000 -24.99999999999999645 -0.00000000000000000 -1.00000000000000000 0.00000000000000000 -1.00000000000000000 0.00000000000000000 0.00000000000000000 -0.00000000000000000 0.00000000000000000 -1.00000000000000000 
2 3433.00000000000000000 -1843.00000000000022737 -25.00000000000000000 0.00000000000000000 -1.00000000000000000 0.00000000000000022 1.00000000000000000 0.00000000000000000 0.00000000000000000 -0.00000000000000000 0.00000000000000022 1.00000000000000000 5.00000000000000000
1 3432.99999999999954525 -1843.00000000000000000 -24.99999999999999645 -0.00000000000000000 -1.00000000000000000 0.00000000000000000 -1.00000000000000000 0.00000000000000000 0.00000000000000000 -0.00000000000000000 0.00000000000000000 -1.00000000000000000 
1 3294.45887600904734427 -1454.60411472879809480 0.00000000000000000 0.00000000000000000 0.00000000000000000 1.00000000000000000 1.00000000000000000 0.00000000000000000 -0.00000000000000000 -0.00000000000000000 1.00000000000000000 0.00000000000000000 
Triangulations 0

TShapes 56
Ve
0.000000100000000
3135.061389677728130 -1020.000000000000000 0.000000000000000
0 0

0101101
*
Ed
 0.000000100000000 1 1 0
1  1 0 0.000000000000000 50.000000000000000
2  1 2 0 0.000000000000000 50.000000000000000
0

0101000
+56 10 -56 12 *
Ve
0.000000100000000
3135.061389677728130 -1843.000000000000227 0.000000000000000
0 0

0101101
*
Ed
 0.000000100000000 1 1 0
1  2 0 0.000000000000000 50.000000000000000
2  2 3 0 0.000000000000000 50.000000000000000
0

0101000
+54 10 -54 12 *
Ed
 0.000000100000000 1 1 0
1  3 0 0.000000000000000 823.000000000000227
0

0101000
+56 0 -54 0 *
Wi

0101100
+55 0 -53 0 -52 10 +52 12 *
Fa
0  0.000000100000000 1 0

0111000
+51 0 *
Ve
0.000000100000000
3384.785360655345812 -1020.000000000000000 0.000000000000000
0 0

0101101
*
Ed
 0.000000100000000 1 1 0
1  4 0 0.000000000000000 50.000000000000000
2  3 4 0 0.000000000000000 50.000000000000000
2  4 2 0 0.000000000000000 50.000000000000000
0

0101000
+49 10 -49 12 *
Ed
 0.000000100000000 1 1 0
1  5 0 0.000000000000000 249.723970977617682
2  5 2 14 0.000000000000000 249.723970977617682
2  6 2 15 0.000000000000000 249.723970977617682
0

0101000
+49 0 -56 0 *
Wi

0101100
+48 6 -47 13 +47 16 -55 6 *
Ve
0.000000100000000
-3299.785360655345812 -25.000000000000000 0.000000000000000
0 0

0101101
*
Ed
 0.000000100000000 1 1 0
1  6 0 0.000000000000000 6.283185307179586
2  7 5 20 0.000000000000000 6.283185307179586
2  8 5 22 0.000000000000000 6.283185307179586
2  9 6 23 0.000000000000000 6.283185307179586
2  10 2 24 0.000000000000000 6.283185307179586
0

0101000
+45 0 -45 0 *
Wi

0101100
-44 19 *
Ve
0.000000100000000
-3210.061389677728130 -25.000000000000000 0.000000000000000
0 0

0101101
*
Ed
 0.000000100000000 1 1 0
1  7 0 0.000000000000000 6.283185307179586
2  11 7 20 0.000000000000000 6.283185307179586
2  12 7 22 0.000000000000000 6.283185307179586
2  13 8 23 0.000000000000000 6.283185307179586
2  14 2 24 0.000000000000000 6.283185307179586
0

0101000
+42 0 -42 0 *
Wi

0101100
-41 19 *
Fa
0  0.000000100000000 2 6

0111000
+46 0 +43 0 +40 0 *
Ve
0.000000100000000
3513.000000000000000 -1843.000000000000227 0.000000000000000
0 0

0101101
*
Ed
 0.000000100000000 1 1 0
1  8 0 0.000000000000000 377.938610322271870
2  15 3 14 0.000000000000000 377.938610322271870
2  16 3 15 0.000000000000000 377.938610322271870
0

0101000
+54 0 -38 0 *
Ed
 0.000000100000000 1 1 0
1  9 0 0.000000000000000 50.000000000000000
2  17 3 0 0.000000000000000 50.000000000000000
2  18 4 0 0.000000000000000 50.000000000000000
0

0101000
+38 10 -38 12 *
Wi

0101100
+53 26 -37 27 +37 28 -36 26 *
Ve
0.000000100000000
3220.061389677728130 -25.000000000000000 0.000000000000000
0 0

0101101
*
Ed
 0.000000100000000 1 1 0
1  10 0 0.000000000000000 6.283185307179586
2  19 9 32 0.000000000000000 6.283185307179586
2  20 9 34 0.000000000000000 6.283185307179586
2  21 10 35 0.000000000000000 6.283185307179586
2  22 3 36 0.000000000000000 6.283185307179586
0

0101000
+34 0 -34 0 *
Wi

0101100
-33 31 *
Ve
0.000000100000000
3438.000000000000000 -25.000000000000000 0.000000000000000
0 0

0101101
*
Ed
 0.000000100000000 1 1 0
1  11 0 0.000000000000000 6.283185307179586
2  23 11 32 0.000000000000000 6.283185307179586
2  24 11 34 0.000000000000000 6.283185307179586
2  25 12 35 0.000000000000000 6.283185307179586
2  26 3 36 0.000000000000000 6.283185307179586
0

0101000
+31 0 -31 0 *
Wi

0101100
-30 31 *
Fa
0  0.000000100000000 3 26

0111000
+35 0 +32 0 +29 0 *
Ed
 0.000000100000000 1 1 0
1  12 0 0.000000000000000 832.927364025387305
2  27 4 14 0.000000000000000 832.927364025387305
2  28 4 15 0.000000000000000 832.927364025387305
0

0101000
+38 0 -49 0 *
Wi

0101100
+52 0 +37 0 +27 0 +47 0 *
Fa
0  0.000000100000000 13 0

0111000
+26 38 *
Wi

0101100
+36 0 -48 0 -27 10 +27 12 *
Fa
0  0.000000100000000 4 0

0111000
+24 0 *
Ed
 0.000000100000000 1 1 0
1  13 0 0.000000000000000 5.000000000000000
3  29 30CN 5 0 0.000000000000000 5.000000000000000
0

0101000
+45 19 -45 40 *
Wi

0101100
+22 0 -22 0 -44 19 +44 40 *
Fa
0  0.000000100000000 5 0

0111000
+21 0 *
Ed
 0.000000100000000 1 1 0
1  14 0 0.000000000000000 5.000000000000000
3  31 32CN 7 0 0.000000000000000 5.000000000000000
0

0101000
+42 19 -42 40 *
Wi

0101100
+19 0 -19 0 -41 19 +41 40 *
Fa
0  0.000000100000000 7 0

0111000
+18 0 *
Ed
 0.000000100000000 1 1 0
1  15 0 0.000000000000000 5.000000000000000
3  33 34CN 9 0 0.000000000000000 5.000000000000000
0

0101000
+34 31 -34 41 *
Wi

0101100
+16 0 -16 0 -33 31 +33 41 *
Fa
0  0.000000100000000 9 0

0111000
+15 0 *
Ed
 0.000000100000000 1 1 0
1  16 0 0.000000000000000 5.000000000000000
3  35 36CN 11 0 0.000000000000000 5.000000000000000
0

0101000
+31 31 -31 41 *
Wi

0101100
+13 0 -13 0 -30 31 +30 41 *
Fa
0  0.000000100000000 11 0

0111000
+12 0 *
Wi

0101100
+44 0 *
Fa
0  0.000000100000000 6 0

0111000
+10 43 *
Wi

0101100
+41 0 *
Fa
0  0.000000100000000 8 0

0111000
+8 43 *
Wi

0101100
+33 0 *
Fa
0  0.000000100000000 10 0

0111000
+6 45 *
Wi

0101100
+30 0 *
Fa
0  0.000000100000000 12 0

0111000
+4 45 *
Sh

0101100
+50 6 +39 0 +28 25 +25 37 -25 39 +23 6 -20 0 -17 0 -14 25 -11 25 
+9 42 +7 42 +5 44 +3 44 *
So

0100000
+2 0 *

+1 1 