
CASCADE Topology V1, (c) Matra-Datavision
Locations 21
1
1.000000000000000 0.000000000000000 0.000000000000000 0.000000000000000 
0.000000000000000 -0.000000000000000 -1.000000000000000 0.000000000000000 
0.000000000000000 1.000000000000000 -0.000000000000000 0.000000000000000 
1
1.000000000000000 0.000000000000000 0.000000000000000 0.000000000000000 
0.000000000000000 -0.000000000000000 -1.000000000000000 0.000000000000000 
0.000000000000000 1.000000000000000 -0.000000000000000 0.000000000000000 
1
1.000000000000000 0.000000000000000 0.000000000000000 0.000000000000000 
0.000000000000000 -0.000000000000000 -1.000000000000000 0.000000000000000 
0.000000000000000 1.000000000000000 -0.000000000000000 0.000000000000000 
1
1.000000000000000 0.000000000000000 0.000000000000000 0.000000000000000 
0.000000000000000 -0.000000000000000 -1.000000000000000 0.000000000000000 
0.000000000000000 1.000000000000000 -0.000000000000000 0.000000000000000 
1
1.000000000000000 0.000000000000000 0.000000000000000 0.000000000000000 
0.000000000000000 -0.000000000000000 -1.000000000000000 0.000000000000000 
0.000000000000000 1.000000000000000 -0.000000000000000 0.000000000000000 
1
1.000000000000000 0.000000000000000 0.000000000000000 0.000000000000000 
0.000000000000000 -0.000000000000000 -1.000000000000000 0.000000000000000 
0.000000000000000 1.000000000000000 -0.000000000000000 0.000000000000000 
1
1.000000000000000 0.000000000000000 0.000000000000000 0.000000000000000 
0.000000000000000 -0.000000000000000 -1.000000000000000 0.000000000000000 
0.000000000000000 1.000000000000000 -0.000000000000000 0.000000000000000 
2  1 -1 2 1 3 -1 4 1 5 -1 6 1 7 -1 0
1
1.000000000000000 0.000000000000000 0.000000000000000 0.000000000000000 
0.000000000000000 1.000000000000000 0.000000000000000 0.000000000000000 
0.000000000000000 0.000000000000000 1.000000000000000 0.000000000000000 
1
0.000000000000000 0.000000000000000 -1.000000000000000 27.000000000000000 
0.000000000000000 -1.000000000000000 0.000000000000000 0.000000000000000 
-1.000000000000000 0.000000000000000 0.000000000000000 0.000000000000000 
2  9 1 10 1 7 -1 0
1
1.000000000000000 0.000000000000000 0.000000000000000 15.000000000000000 
0.000000000000000 1.000000000000000 0.000000000000000 0.000000000000003 
0.000000000000000 0.000000000000000 1.000000000000000 -0.000000000000000 
2  9 1 10 1 7 -1 12 1 0
2  7 1 10 -1 9 -1 0
2  12 -1 7 1 10 -1 9 -1 0
2  10 -1 9 -1 0
2  1 -1 2 1 3 -1 4 1 5 -1 6 1 10 -1 9 -1 0
2  1 -1 2 1 3 -1 4 1 5 -1 6 1 7 -1 12 -1 7 1 10 -1 9 -1 0
2  7 -1 0
2  9 1 10 1 0
2  7 -1 12 1 0
Curve2ds 30
1 0.00000000000000000 0.00000000000000000 0.00000000000000000 -1.00000000000000000 
1 80.00000000000000000 -0.00000000000000000 -0.00000000000000000 -1.00000000000000000 
1 568.96601230358101020 -1535.64236278088333165 -0.00000000000000022 1.00000000000000000 
1 140.00000000000000000 0.00000000000000089 0.00000000000000000 -1.00000000000000000 
1 0.00000000000000000 0.00000000000000000 0.00000000000000000 -1.00000000000000000 
1 428.96601230358101020 -1535.64236278088333165 -0.00000000000000022 1.00000000000000000 
1 0.00000000000000000 0.00000000000000000 1.00000000000000000 -0.00000000000000000 
1 -0.00000000000000333 -15.00000000000000000 1.00000000000000000 -0.00000000000000000 
1 -70.00000000000000000 -40.00000000000002132 1.00000000000000000 0.00000000000000022 
1 568.96601230358101020 -1535.64236278088333165 -1.00000000000000000 -0.00000000000000022 
1 568.96601230358101020 -1520.64236278088333165 -1.00000000000000000 -0.00000000000000022 
1 80.00000000000000000 0.00000000000000000 0.00000000000000000 -1.00000000000000000 
1 0.00000000000000000 0.00000000000000000 1.00000000000000000 0.00000000000000000 
1 -0.00000000000000000 -14.99999999999999645 1.00000000000000000 0.00000000000000000 
1 70.00000000000000000 -39.99999999999998579 -0.00000000000000022 1.00000000000000000 
1 -0.00000000000000000 0.00000000000000000 -0.00000000000000000 -1.00000000000000000 
1 70.00000000000000000 40.00000000000000711 -1.00000000000000000 -0.00000000000000022 
1 -0.00000000000000000 0.00000000000000000 1.00000000000000000 0.00000000000000000 
1 -0.00000000000000000 -15.00000000000000000 1.00000000000000000 0.00000000000000000 
1 -70.00000000000000000 39.99999999999997868 0.00000000000000022 -1.00000000000000000 
1 0.00000000000000000 0.00000000000000000 0.00000000000000000 -1.00000000000000000 
1 6.28318530717958623 0.00000000000000000 0.00000000000000000 -1.00000000000000000 
1 0.00000000000000000 0.00000000000000000 1.00000000000000000 0.00000000000000000 
1 0.00000000000000000 -15.00000000000000000 1.00000000000000000 0.00000000000000000 
2 30.00000000000000000 -0.00000000000000000 -1.00000000000000000 -0.00000000000000022 -0.00000000000000022 1.00000000000000000 5.00000000000000000
1 0.00000000000000000 0.00000000000000000 0.00000000000000000 -1.00000000000000000 
1 6.28318530717958623 0.00000000000000000 0.00000000000000000 -1.00000000000000000 
1 0.00000000000000000 0.00000000000000000 1.00000000000000000 0.00000000000000000 
1 0.00000000000000000 -15.00000000000000000 1.00000000000000000 0.00000000000000000 
2 -30.00000000000000000 -0.00000000000001421 -1.00000000000000000 -0.00000000000000022 -0.00000000000000022 1.00000000000000000 5.00000000000000000
Curves 12
1 26.99999999999894840 4742.66700000000037107 -0.00000000000000000 1.00000000000000000 0.00000000000000022 -0.00000000000000000 
1 26.99999999999891642 4882.66700000000037107 -0.00000000000000000 1.00000000000000000 0.00000000000000022 -0.00000000000000000 
1 -4742.66700000000037107 0.00000000000000000 0.00000000000000000 -1.00000000000000000 0.00000000000000000 0.00000000000000000 
1 26.99999999999891642 4882.66700000000037107 80.00000000000000000 1.00000000000000000 0.00000000000000022 -0.00000000000000000 
1 -4882.66700000000037107 0.00000000000000000 0.00000000000000000 0.00000000000000000 1.00000000000000000 0.00000000000000000 
1 26.99999999999894840 4742.66700000000037107 80.00000000000000000 1.00000000000000000 0.00000000000000022 -0.00000000000000000 
1 -4882.66700000000037107 80.00000000000000000 0.00000000000000000 1.00000000000000000 0.00000000000000000 0.00000000000000000 
1 -4742.66700000000037107 80.00000000000000000 0.00000000000000000 0.00000000000000000 -1.00000000000000000 0.00000000000000000 
1 26.99999999999892708 4837.66700000000037107 40.00000000000000000 1.00000000000000000 0.00000000000000022 -0.00000000000000000 
2 -4842.66700000000037107 40.00000000000000000 0.00000000000000000 0.00000000000000000 0.00000000000000000 1.00000000000000000 1.00000000000000000 0.00000000000000000 -0.00000000000000000 -0.00000000000000000 1.00000000000000000 0.00000000000000000 5.00000000000000000
1 26.99999999999893774 4777.66700000000037107 40.00000000000000000 1.00000000000000000 0.00000000000000022 -0.00000000000000000 
2 -4782.66700000000037107 40.00000000000000000 0.00000000000000000 0.00000000000000000 0.00000000000000000 1.00000000000000000 1.00000000000000000 0.00000000000000000 -0.00000000000000000 -0.00000000000000000 1.00000000000000000 0.00000000000000000 5.00000000000000000
Polygon3D 0
PolygonOnTriangulations 0
Surfaces 8
1 26.99999999999894840 4742.66700000000037107 -0.00000000000000000 0.00000000000000000 0.00000000000000000 1.00000000000000000 -0.00000000000000022 1.00000000000000000 0.00000000000000000 -1.00000000000000000 -0.00000000000000022 0.00000000000000000 
1 26.99999999999894840 4742.66700000000037107 80.00000000000000000 -0.00000000000000022 1.00000000000000000 -0.00000000000000000 0.00000000000000000 0.00000000000000000 -1.00000000000000000 -1.00000000000000000 -0.00000000000000022 -0.00000000000000000 
1 1562.64236278088219478 -0.00000000000117942 5311.63301230358138127 -0.00000000000000000 -1.00000000000000000 -0.00000000000000022 0.00000000000000000 0.00000000000000022 -1.00000000000000000 1.00000000000000000 -0.00000000000000000 0.00000000000000000 
1 26.99999999999891642 4882.66700000000037107 -0.00000000000000000 0.00000000000000022 -1.00000000000000000 0.00000000000000000 0.00000000000000000 0.00000000000000000 1.00000000000000000 -1.00000000000000000 -0.00000000000000022 0.00000000000000000 
1 26.99999999999893419 -40.00000000000107292 4812.66700000000037107 1.00000000000000000 0.00000000000000000 0.00000000000000023 -0.00000000000000023 0.00000000000000000 1.00000000000000000 0.00000000000000000 -1.00000000000000000 0.00000000000000000 
1 26.99999999999891642 4882.66700000000037107 80.00000000000000000 -0.00000000000000000 -0.00000000000000000 -1.00000000000000000 0.00000000000000022 -1.00000000000000000 0.00000000000000000 -1.00000000000000000 -0.00000000000000022 0.00000000000000000 
2 26.99999999999892353 4842.66700000000037107 40.00000000000000000 -1.00000000000000000 -0.00000000000000022 0.00000000000000000 0.00000000000000022 -1.00000000000000000 0.00000000000000000 0.00000000000000000 0.00000000000000000 1.00000000000000000 5.00000000000000000
2 26.99999999999893774 4782.66700000000037107 40.00000000000000000 -1.00000000000000000 -0.00000000000000022 0.00000000000000000 0.00000000000000022 -1.00000000000000000 0.00000000000000000 0.00000000000000000 0.00000000000000000 1.00000000000000000 5.00000000000000000
Triangulations 0

TShapes 36
Ve
0.000000100001080
-4742.667000000000371 0.000000000000000 0.000000000000000
0 0

0101101
*
Ed
 0.000000100000000 1 1 0
1  1 0 0.000000000000000 15.000000000000000
2  1 1 0 0.000000000000000 15.000000000000000
2  2 2 0 0.000000000000000 15.000000000000000
2  3 3 8 0.000000000000000 15.000000000000000
0

0101000
+36 11 -36 13 *
Ve
0.000000100001084
-4882.667000000000371 0.000000000000000 0.000000000000000
0 0

0101101
*
Ed
 0.000000100000000 1 1 0
1  2 0 0.000000000000000 15.000000000000000
2  4 1 0 0.000000000000000 15.000000000000000
2  5 4 0 0.000000000000000 15.000000000000000
2  6 3 8 0.000000000000000 15.000000000000000
0

0101000
+34 11 -34 13 *
Ed
 0.000000100001080 1 1 0
1  3 0 0.000000000000000 140.000000000000000
2  7 1 14 0.000000000000000 140.000000000000000
2  8 1 15 0.000000000000000 140.000000000000000
2  9 5 16 0.000000000000000 140.000000000000000
2  10 3 17 0.000000000000000 140.000000000000000
2  11 3 18 0.000000000000000 140.000000000000000
0

0101000
+36 0 -34 0 *
Wi

0101100
+35 0 -33 0 -32 11 +32 13 *
Fa
0  0.000000100000000 1 0

0111000
+31 0 *
Ve
0.000000100000000
-4882.667000000000371 80.000000000000000 0.000000000000000
0 0

0101101
*
Ed
 0.000000100000000 1 1 0
1  4 0 0.000000000000000 15.000000000000000
2  12 4 0 0.000000000000000 15.000000000000000
0

0101000
+29 11 -29 13 *
Ed
 0.000000100000000 1 1 0
1  5 0 0.000000000000000 80.000000000000000
2  13 4 14 0.000000000000000 80.000000000000000
2  14 4 15 0.000000000000000 80.000000000000000
2  15 5 16 0.000000000000000 80.000000000000000
0

0101000
+34 0 -29 0 *
Wi

0101100
+33 0 -28 0 -27 11 +27 13 *
Fa
0  0.000000100000000 4 0

0111000
+26 0 *
Ve
0.000000100000000
-4742.667000000000371 80.000000000000000 0.000000000000000
0 0

0101101
*
Ed
 0.000000100000000 1 1 0
1  6 0 0.000000000000000 15.000000000000000
2  16 2 0 0.000000000000000 15.000000000000000
0

0101000
+24 11 -24 13 *
Ed
 0.000000100000000 1 1 0
1  7 0 0.000000000000000 140.000000000000000
2  17 5 16 0.000000000000000 140.000000000000000
0

0101000
+29 0 -24 0 *
Wi

0101100
+28 0 -23 0 -22 11 +22 13 *
Fa
0  0.000000100000000 6 0

0111000
+21 0 *
Ed
 0.000000100000000 1 1 0
1  8 0 0.000000000000000 80.000000000000000
2  18 2 14 0.000000000000000 80.000000000000000
2  19 2 15 0.000000000000000 80.000000000000000
2  20 5 16 0.000000000000000 80.000000000000000
0

0101000
+24 0 -36 0 *
Wi

0101100
+23 0 -35 0 -19 11 +19 13 *
Fa
0  0.000000100000000 2 0

0111000
+18 0 *
Ve
0.000000100000000
-4837.667000000000371 40.000000000000000 0.000000000000000
0 0

0101101
*
Ed
 0.000000100000000 1 1 0
1  9 0 0.000000000000000 15.000000000000000
3  21 22CN 7 0 0.000000000000000 15.000000000000000
0

0101000
+16 11 -16 13 *
Ed
 0.000000100000000 1 1 0
1  10 0 0.000000000000000 6.283185307179586
2  23 7 14 0.000000000000000 6.283185307179586
2  24 7 15 0.000000000000000 6.283185307179586
2  25 5 16 0.000000000000000 6.283185307179586
0

0101000
+16 0 -16 0 *
Wi

0101100
+15 0 -15 0 -14 11 +14 13 *
Fa
0  0.000000100000000 7 0

0111000
+13 0 *
Ve
0.000000100000000
-4777.667000000000371 40.000000000000000 0.000000000000000
0 0

0101101
*
Ed
 0.000000100000000 1 1 0
1  11 0 0.000000000000000 15.000000000000000
3  26 27CN 8 0 0.000000000000000 15.000000000000000
0

0101000
+11 11 -11 13 *
Ed
 0.000000100000000 1 1 0
1  12 0 0.000000000000000 6.283185307179586
2  28 8 14 0.000000000000000 6.283185307179586
2  29 8 15 0.000000000000000 6.283185307179586
2  30 5 16 0.000000000000000 6.283185307179586
0

0101000
+11 0 -11 0 *
Wi

0101100
+10 0 -10 0 -9 11 +9 13 *
Fa
0  0.000000100000000 8 0

0111000
+8 0 *
Wi

0101100
+32 20 +27 20 +22 20 +19 20 *
Wi

0101100
+14 20 *
Wi

0101100
+9 20 *
Fa
0  0.000000100000000 5 0

0111000
+6 0 +5 0 +4 0 *
Sh

0101100
+30 0 +25 0 +20 0 +17 0 +12 0 +7 0 +3 19 -3 21 *
So

0100000
-2 0 *

+1 0 