
CASCADE Topology V1, (c) Matra-Datavision
Locations 62
1
1.000000000000000 0.000000000000000 0.000000000000000 0.000000000000000 
0.000000000000000 1.000000000000000 0.000000000000000 0.000000000000000 
0.000000000000000 0.000000000000000 1.000000000000000 0.000000000000000 
1
1.000000000000000 0.000000000000000 0.000000000000000 0.000000000000000 
0.000000000000000 1.000000000000000 0.000000000000000 0.000000000000000 
0.000000000000000 0.000000000000000 1.000000000000000 0.000000000000000 
1
1.000000000000000 0.000000000000000 0.000000000000000 0.000000000000000 
0.000000000000000 1.000000000000000 0.000000000000000 0.000000000000000 
0.000000000000000 0.000000000000000 1.000000000000000 0.000000000000000 
1
1.000000000000000 0.000000000000000 0.000000000000000 0.000000000000000 
0.000000000000000 1.000000000000000 0.000000000000000 0.000000000000000 
0.000000000000000 0.000000000000000 1.000000000000000 0.000000000000000 
1
1.000000000000000 0.000000000000000 0.000000000000000 0.000000000000000 
0.000000000000000 1.000000000000000 0.000000000000000 0.000000000000000 
0.000000000000000 0.000000000000000 1.000000000000000 0.000000000000000 
1
1.000000000000000 0.000000000000000 0.000000000000000 0.000000000000000 
0.000000000000000 1.000000000000000 0.000000000000000 0.000000000000000 
0.000000000000000 0.000000000000000 1.000000000000000 0.000000000000000 
1
1.000000000000000 0.000000000000000 0.000000000000000 0.000000000000000 
0.000000000000000 1.000000000000000 0.000000000000000 0.000000000000000 
0.000000000000000 0.000000000000000 1.000000000000000 0.000000000000000 
2  2 1 3 -1 4 1 5 -1 6 1 7 -1 0
1
1.000000000000000 0.000000000000000 0.000000000000000 0.000000000000000 
0.000000000000000 1.000000000000000 0.000000000000000 0.000000000000000 
0.000000000000000 0.000000000000000 1.000000000000000 0.000000000000000 
1
1.000000000000000 0.000000000000000 0.000000000000000 0.000000000000000 
0.000000000000000 1.000000000000000 0.000000000000000 0.000000000000000 
0.000000000000000 0.000000000000000 1.000000000000000 0.000000000000000 
1
1.000000000000000 0.000000000000000 0.000000000000000 0.000000000000000 
0.000000000000000 1.000000000000000 0.000000000000000 0.000000000000000 
0.000000000000000 0.000000000000000 1.000000000000000 0.000000000000000 
2  9 1 10 1 11 -1 0
1
1.000000000000000 0.000000000000000 0.000000000000000 -0.000000000000000 
0.000000000000000 1.000000000000000 0.000000000000000 -0.000000000000000 
0.000000000000000 0.000000000000000 1.000000000000000 -50.000000000000000 
2  9 1 10 1 11 -1 13 1 0
2  4 1 5 -1 6 1 7 -1 0
2  2 1 3 -1 0
2  9 1 10 1 11 -1 2 1 3 -1 0
2  11 1 10 -1 9 -1 0
2  13 -1 11 1 10 -1 9 -1 0
2  9 1 10 1 11 -1 13 1 2 1 3 -1 0
1
1.000000000000000 0.000000000000000 0.000000000000000 0.000000000000000 
0.000000000000000 1.000000000000000 0.000000000000000 0.000000000000000 
0.000000000000000 0.000000000000000 1.000000000000000 0.000000000000000 
1
0.000000000000000 0.000000000000000 1.000000000000000 3681.000000000000455 
1.000000000000000 0.000000000000000 0.000000000000000 0.000000000000000 
0.000000000000000 1.000000000000000 0.000000000000000 0.000000000000000 
2  21 1 22 1 3 -1 0
2  3 1 22 -1 21 -1 0
1
1.000000000000000 0.000000000000000 0.000000000000000 -5.000000000000000 
0.000000000000000 1.000000000000000 0.000000000000000 -0.000000000000000 
0.000000000000000 0.000000000000000 1.000000000000000 -0.000000000000000 
2  25 -1 3 1 22 -1 21 -1 0
2  22 -1 21 -1 0
2  2 1 22 -1 21 -1 0
2  9 1 10 1 11 -1 2 1 3 -1 4 1 5 -1 6 1 7 -1 0
2  9 1 10 1 11 -1 13 1 2 1 3 -1 4 1 5 -1 6 1 7 -1 0
1
1.000000000000000 0.000000000000000 0.000000000000000 0.000000000000000 
0.000000000000000 1.000000000000000 0.000000000000000 0.000000000000000 
0.000000000000000 0.000000000000000 1.000000000000000 0.000000000000000 
1
0.000000000000000 0.000000000000000 -1.000000000000000 2807.999999999997726 
-1.000000000000000 0.000000000000000 0.000000000000000 0.000000000000000 
0.000000000000000 1.000000000000000 0.000000000000000 0.000000000000000 
2  31 1 32 1 7 -1 0
2  7 1 32 -1 31 -1 0
1
1.000000000000000 0.000000000000000 0.000000000000000 5.000000000000000 
0.000000000000000 1.000000000000000 0.000000000000000 0.000000000000000 
0.000000000000000 0.000000000000000 1.000000000000000 0.000000000000000 
2  35 -1 7 1 32 -1 31 -1 0
2  32 -1 31 -1 0
2  2 1 3 -1 4 1 5 -1 6 1 32 -1 31 -1 0
2  11 -1 2 1 3 -1 4 1 5 -1 6 1 7 -1 0
2  9 1 10 1 0
2  11 -1 13 1 2 1 3 -1 4 1 5 -1 6 1 7 -1 0
2  21 1 22 1 3 -1 25 1 0
2  6 1 7 -1 0
2  2 1 3 -1 4 1 5 -1 0
2  9 1 10 1 11 -1 2 1 3 -1 4 1 5 -1 0
2  9 1 10 1 11 -1 13 1 2 1 3 -1 4 1 5 -1 0
1
1.000000000000000 0.000000000000000 0.000000000000000 0.000000000000000 
0.000000000000000 1.000000000000000 0.000000000000000 0.000000000000000 
0.000000000000000 0.000000000000000 1.000000000000000 0.000000000000000 
1
-1.000000000000000 0.000000000000000 0.000000000000000 0.000000000000000 
0.000000000000000 0.000000000000000 1.000000000000000 -973.000000000000000 
0.000000000000000 1.000000000000000 -0.000000000000000 0.000000000000000 
2  47 1 48 1 5 -1 0
2  5 1 48 -1 47 -1 0
1
1.000000000000000 0.000000000000000 0.000000000000000 0.000000000000000 
0.000000000000000 1.000000000000000 0.000000000000000 -5.000000000000000 
0.000000000000000 0.000000000000000 1.000000000000000 0.000000000000001 
2  51 -1 5 1 48 -1 47 -1 0
2  48 -1 47 -1 0
2  2 1 3 -1 4 1 48 -1 47 -1 0
2  31 1 32 1 7 -1 35 1 0
2  3 -1 25 1 4 1 5 -1 6 1 7 -1 0
2  21 1 22 1 0
2  47 1 48 1 5 -1 51 1 0
2  7 -1 35 1 0
2  31 1 32 1 0
2  5 -1 51 1 6 1 7 -1 0
2  47 1 48 1 0
Curve2ds 40
1 503.26801004711433052 0.00000000000000000 0.00000000000000000 -1.00000000000000000 
1 0.00000000000000000 0.00000000000000000 0.00000000000000000 -1.00000000000000000 
1 1065.45517451332398196 0.00000000000000000 0.00000000000000000 -1.00000000000000000 
1 0.00000000000000000 0.00000000000000000 0.00000000000000000 -1.00000000000000000 
1 0.00000000000000000 0.00000000000000000 1.00000000000000000 0.00000000000000000 
1 0.00000000000000000 -50.00000000000000000 1.00000000000000000 0.00000000000000000 
1 0.00000000000000000 0.00000000000000000 1.00000000000000000 0.00000000000000000 
1 0.00000000000000000 -5.00000000000000000 1.00000000000000000 0.00000000000000000 
2 -0.00000000000022737 -0.00000000000000355 1.00000000000000000 -0.00000000000000000 0.00000000000000000 1.00000000000000000 5.00000000000000000
2 80.00000000000000000 -25.00000000000000000 1.00000000000000000 0.00000000000000000 -0.00000000000000000 1.00000000000000000 5.00000000000000000
1 0.00000000000000000 0.00000000000000000 1.00000000000000000 0.00000000000000000 
1 0.00000000000000000 -5.00000000000000000 1.00000000000000000 0.00000000000000000 
2 -0.00000000000011369 -0.00000000000000355 1.00000000000000000 -0.00000000000000000 0.00000000000000000 1.00000000000000000 5.00000000000000000
2 423.26801004711433052 -25.00000000000000000 1.00000000000000000 0.00000000000000000 -0.00000000000000000 1.00000000000000000 5.00000000000000000
1 0.00000000000000000 0.00000000000000000 1.00000000000000000 0.00000000000000000 
1 0.00000000000000000 -50.00000000000000000 1.00000000000000000 0.00000000000000000 
1 0.00000000000000000 0.00000000000000000 0.00000000000000000 -1.00000000000000000 
1 76.00000000000000000 0.00000000000000000 0.00000000000000000 -1.00000000000000000 
1 0.00000000000000000 0.00000000000000000 1.00000000000000000 0.00000000000000000 
1 0.00000000000000000 -5.00000000000000000 1.00000000000000000 0.00000000000000000 
2 0.00000000000000355 0.00000000000011369 0.00000000000000000 1.00000000000000000 -1.00000000000000000 0.00000000000000000 5.00000000000000000
2 40.00000000000000000 -25.00000000000000000 1.00000000000000000 0.00000000000000000 -0.00000000000000000 1.00000000000000000 5.00000000000000000
1 0.00000000000000000 0.00000000000000000 1.00000000000000000 0.00000000000000000 
1 0.00000000000000000 -50.00000000000000000 1.00000000000000000 0.00000000000000000 
1 0.00000000000000000 0.00000000000000000 1.00000000000000000 0.00000000000000000 
1 0.00000000000000000 -50.00000000000000000 1.00000000000000000 0.00000000000000000 
1 0.00000000000000000 0.00000000000000000 0.00000000000000000 -1.00000000000000000 
1 0.00000000000000000 0.00000000000000000 0.00000000000000000 -1.00000000000000000 
1 6.28318530717958623 0.00000000000000000 0.00000000000000000 -1.00000000000000000 
1 0.00000000000000000 0.00000000000000000 0.00000000000000000 -1.00000000000000000 
1 6.28318530717958623 0.00000000000000000 0.00000000000000000 -1.00000000000000000 
1 115.62169564015675860 0.00000000000000000 0.00000000000000000 -1.00000000000000000 
1 0.00000000000000000 0.00000000000000000 1.00000000000000000 0.00000000000000000 
1 0.00000000000000000 -5.00000000000000000 1.00000000000000000 0.00000000000000000 
2 -0.00000000000000355 0.00000000000000000 0.00000000000000000 -1.00000000000000000 1.00000000000000000 0.00000000000000000 5.00000000000000000
2 55.62169564015675860 -25.00000000000000000 1.00000000000000000 0.00000000000000000 -0.00000000000000000 1.00000000000000000 5.00000000000000000
1 0.00000000000000000 0.00000000000000000 0.00000000000000000 -1.00000000000000000 
1 6.28318530717958623 0.00000000000000000 0.00000000000000000 -1.00000000000000000 
1 0.00000000000000000 0.00000000000000000 0.00000000000000000 -1.00000000000000000 
1 6.28318530717958623 0.00000000000000000 0.00000000000000000 -1.00000000000000000 
Curves 20
1 3681.00000000000045475 -897.00000000000000000 0.00000000000000000 -0.00000000000000000 -0.00000000000000000 -1.00000000000000000 
1 2807.99999999999772626 -897.00000000000000000 0.00000000000000000 -0.00000000000000000 -0.00000000000000000 -1.00000000000000000 
1 3681.00000000000045475 -897.00000000000000000 0.00000000000000000 -1.00000000000000000 0.00000000000000000 0.00000000000000000 
1 3681.00000000000045475 -1400.26801004711433052 0.00000000000000000 -0.00000000000000000 -0.00000000000000000 -1.00000000000000000 
1 3681.00000000000045475 -1400.26801004711433052 0.00000000000000000 0.00000000000000000 1.00000000000000000 0.00000000000000000 
2 -1320.26801004711433052 -25.00000000000000000 0.00000000000000000 0.00000000000000000 0.00000000000000000 1.00000000000000000 1.00000000000000000 0.00000000000000000 -0.00000000000000000 -0.00000000000000000 1.00000000000000000 0.00000000000000000 5.00000000000000000
2 -977.00000000000000000 -25.00000000000000000 0.00000000000000000 0.00000000000000000 0.00000000000000000 1.00000000000000000 1.00000000000000000 0.00000000000000000 -0.00000000000000000 -0.00000000000000000 1.00000000000000000 0.00000000000000000 5.00000000000000000
1 2807.99999999999772626 -897.00000000000000000 0.00000000000000000 0.00000000000000000 -1.00000000000000000 0.00000000000000000 
1 2807.99999999999772626 -973.00000000000000000 0.00000000000000000 -0.00000000000000000 -0.00000000000000000 -1.00000000000000000 
2 937.00000000000000000 -25.00000000000000000 0.00000000000000000 0.00000000000000000 0.00000000000000000 1.00000000000000000 1.00000000000000000 0.00000000000000000 -0.00000000000000000 -0.00000000000000000 1.00000000000000000 0.00000000000000000 5.00000000000000000
1 2807.99999999999772626 -973.00000000000000000 0.00000000000000000 -1.00000000000000000 0.00000000000000000 0.00000000000000000 
1 2692.37830435984096766 -973.00000000000000000 0.00000000000000000 0.00000000000000000 -1.00000000000000000 0.00000000000000000 
1 2692.37830435984096766 -1003.00000000000079581 0.00000000000000000 0.92788670916328297 -0.37286224662485373 0.00000000000000000 
1 2692.37830435984096766 -1003.00000000000079581 0.00000000000000000 -0.00000000000000000 -0.00000000000000000 -1.00000000000000000 
1 3681.00000000000045475 -1315.26801004711433052 -25.00000000000000000 -1.00000000000000000 -0.00000000000000000 -0.00000000000000000 
1 3681.00000000000045475 -972.00000000000000000 -25.00000000000000000 -1.00000000000000000 -0.00000000000000000 -0.00000000000000000 
1 2692.37830435984096766 -973.00000000000000000 0.00000000000000000 -0.00000000000000000 -0.00000000000000000 -1.00000000000000000 
2 -2752.37830435984096766 -25.00000000000000000 0.00000000000000000 0.00000000000000000 0.00000000000000000 1.00000000000000000 1.00000000000000000 0.00000000000000000 -0.00000000000000000 -0.00000000000000000 1.00000000000000000 0.00000000000000000 5.00000000000000000
1 2807.99999999999772626 -942.00000000000000000 -25.00000000000000000 1.00000000000000000 0.00000000000000000 0.00000000000000000 
1 2747.37830435984096766 -973.00000000000000000 -25.00000000000000000 0.00000000000000000 -1.00000000000000000 0.00000000000000022 
Polygon3D 0
PolygonOnTriangulations 0
Surfaces 15
1 3681.00000000000045475 -897.00000000000000000 0.00000000000000000 0.00000000000000000 1.00000000000000000 -0.00000000000000000 -1.00000000000000000 0.00000000000000000 0.00000000000000000 0.00000000000000000 0.00000000000000000 1.00000000000000000 
1 3681.00000000000045475 -1400.26801004711433052 0.00000000000000000 1.00000000000000000 0.00000000000000000 0.00000000000000000 -0.00000000000000000 1.00000000000000000 0.00000000000000000 0.00000000000000000 -0.00000000000000000 1.00000000000000000 
1 2807.99999999999772626 -897.00000000000000000 0.00000000000000000 -1.00000000000000000 0.00000000000000000 0.00000000000000000 0.00000000000000000 -1.00000000000000000 0.00000000000000000 0.00000000000000000 0.00000000000000000 1.00000000000000000 
1 2692.37830435984096766 -1003.00000000000079581 0.00000000000000000 -0.37286224662485373 -0.92788670916328297 0.00000000000000000 0.92788670916328297 -0.37286224662485373 0.00000000000000000 0.00000000000000000 0.00000000000000000 1.00000000000000000 
2 3681.00000000000045475 -1320.26801004711433052 -25.00000000000000000 1.00000000000000000 0.00000000000000000 0.00000000000000000 -0.00000000000000000 1.00000000000000000 0.00000000000000000 0.00000000000000000 -0.00000000000000000 1.00000000000000000 5.00000000000000000
1 3681.00000000000000000 -1320.26801004711410314 -24.99999999999999645 1.00000000000000000 0.00000000000000000 0.00000000000000000 -0.00000000000000000 1.00000000000000000 0.00000000000000000 0.00000000000000000 -0.00000000000000000 1.00000000000000000 
2 3681.00000000000045475 -977.00000000000000000 -25.00000000000000000 1.00000000000000000 0.00000000000000000 0.00000000000000000 -0.00000000000000000 1.00000000000000000 0.00000000000000000 0.00000000000000000 -0.00000000000000000 1.00000000000000000 5.00000000000000000
1 3681.00000000000000000 -976.99999999999988631 -24.99999999999999645 1.00000000000000000 0.00000000000000000 0.00000000000000000 -0.00000000000000000 1.00000000000000000 0.00000000000000000 0.00000000000000000 -0.00000000000000000 1.00000000000000000 
1 2807.99999999999772626 -973.00000000000000000 0.00000000000000000 0.00000000000000000 1.00000000000000000 -0.00000000000000000 -1.00000000000000000 0.00000000000000000 0.00000000000000000 0.00000000000000000 0.00000000000000000 1.00000000000000000 
2 2807.99999999999772626 -937.00000000000000000 -25.00000000000000000 -1.00000000000000000 0.00000000000000000 0.00000000000000000 0.00000000000000000 -1.00000000000000000 0.00000000000000000 0.00000000000000000 0.00000000000000000 1.00000000000000000 5.00000000000000000
1 2807.99999999999772626 -936.99999999999988631 -24.99999999999999645 -1.00000000000000000 -0.00000000000000000 -0.00000000000000000 0.00000000000000000 0.00000000000000000 -1.00000000000000000 0.00000000000000000 -1.00000000000000000 0.00000000000000000 
1 3263.72053375277346277 -1071.82470042972477131 0.00000000000000000 0.00000000000000000 0.00000000000000000 1.00000000000000000 1.00000000000000000 0.00000000000000000 -0.00000000000000000 -0.00000000000000000 1.00000000000000000 0.00000000000000000 
2 2752.37830435984096766 -973.00000000000000000 -25.00000000000000000 0.00000000000000000 1.00000000000000000 -0.00000000000000022 -1.00000000000000000 0.00000000000000000 0.00000000000000000 0.00000000000000000 0.00000000000000022 1.00000000000000000 5.00000000000000000
1 2752.37830435984096766 -972.99999999999988631 -24.99999999999999645 -0.00000000000000000 1.00000000000000000 -0.00000000000000000 0.00000000000000000 0.00000000000000000 1.00000000000000000 1.00000000000000000 0.00000000000000000 -0.00000000000000000 
1 2692.37830435984096766 -973.00000000000000000 0.00000000000000000 -1.00000000000000000 0.00000000000000000 0.00000000000000000 0.00000000000000000 -1.00000000000000000 0.00000000000000000 0.00000000000000000 0.00000000000000000 1.00000000000000000 
Triangulations 0

TShapes 66
Ve
0.000000100000000
3681.000000000000455 -897.000000000000000 0.000000000000000
0 0

0101101
*
Ed
 0.000000100000000 1 1 0
1  1 0 0.000000000000000 50.000000000000000
2  1 2 0 0.000000000000000 50.000000000000000
0

0101000
+66 12 -66 14 *
Ve
0.000000100000000
2807.999999999997726 -897.000000000000000 0.000000000000000
0 0

0101101
*
Ed
 0.000000100000000 1 1 0
1  2 0 0.000000000000000 50.000000000000000
2  2 3 0 0.000000000000000 50.000000000000000
0

0101000
+64 12 -64 14 *
Ed
 0.000000100000000 1 1 0
1  3 0 0.000000000000000 873.000000000002728
0

0101000
+66 0 -64 0 *
Wi

0101100
+65 0 -63 0 -62 12 +62 14 *
Fa
0  0.000000100000000 1 0

0111000
+61 0 *
Ve
0.000000100000000
3681.000000000000455 -1400.268010047114331 0.000000000000000
0 0

0101101
*
Ed
 0.000000100000000 1 1 0
1  4 0 0.000000000000000 50.000000000000000
2  3 4 0 0.000000000000000 50.000000000000000
2  4 2 0 0.000000000000000 50.000000000000000
0

0101000
+59 12 -59 14 *
Ed
 0.000000100000000 1 1 0
1  5 0 0.000000000000000 503.268010047114331
2  5 2 18 0.000000000000000 503.268010047114331
2  6 2 19 0.000000000000000 503.268010047114331
0

0101000
+59 0 -66 0 *
Wi

0101100
+58 16 -57 17 +57 20 -65 16 *
Ve
0.000000100000000
-1315.268010047114331 -25.000000000000000 0.000000000000000
0 0

0101101
*
Ed
 0.000000100000000 1 1 0
1  6 0 0.000000000000000 6.283185307179586
2  7 5 24 0.000000000000000 6.283185307179586
2  8 5 26 0.000000000000000 6.283185307179586
2  9 6 27 0.000000000000000 6.283185307179586
2  10 2 28 0.000000000000000 6.283185307179586
0

0101000
+55 0 -55 0 *
Wi

0101100
-54 23 *
Ve
0.000000100000000
-972.000000000000000 -25.000000000000000 0.000000000000000
0 0

0101101
*
Ed
 0.000000100000000 1 1 0
1  7 0 0.000000000000000 6.283185307179586
2  11 7 24 0.000000000000000 6.283185307179586
2  12 7 26 0.000000000000000 6.283185307179586
2  13 8 27 0.000000000000000 6.283185307179586
2  14 2 28 0.000000000000000 6.283185307179586
0

0101000
+52 0 -52 0 *
Wi

0101100
-51 23 *
Fa
0  0.000000100000000 2 16

0111000
+56 0 +53 0 +50 0 *
Ve
0.000000100000000
2807.999999999997726 -973.000000000000000 0.000000000000000
0 0

0101101
*
Ed
 0.000000100000000 1 1 0
1  8 0 0.000000000000000 76.000000000000000
2  15 3 18 0.000000000000000 76.000000000000000
2  16 3 19 0.000000000000000 76.000000000000000
0

0101000
+64 0 -48 0 *
Ed
 0.000000100000000 1 1 0
1  9 0 0.000000000000000 50.000000000000000
2  17 9 0 0.000000000000000 50.000000000000000
2  18 3 0 0.000000000000000 50.000000000000000
0

0101000
+48 12 -48 14 *
Wi

0101100
+63 8 -47 29 +47 30 -46 8 *
Ve
0.000000100000000
942.000000000000000 -25.000000000000000 0.000000000000000
0 0

0101101
*
Ed
 0.000000100000000 1 1 0
1  10 0 0.000000000000000 6.283185307179586
2  19 10 34 0.000000000000000 6.283185307179586
2  20 10 36 0.000000000000000 6.283185307179586
2  21 11 37 0.000000000000000 6.283185307179586
2  22 3 38 0.000000000000000 6.283185307179586
0

0101000
+44 0 -44 0 *
Wi

0101100
-43 33 *
Fa
0  0.000000100000000 3 8

0111000
+45 0 +42 0 *
Ve
0.000000100000000
2692.378304359840968 -973.000000000000000 0.000000000000000
0 0

0101101
*
Ed
 0.000000100000000 1 1 0
1  11 0 0.000000000000000 115.621695640156759
2  23 9 18 0.000000000000000 115.621695640156759
2  24 9 19 0.000000000000000 115.621695640156759
0

0101000
+48 0 -40 0 *
Ve
0.000000100000000
2692.378304359840968 -1003.000000000000796 0.000000000000000
0 0

0101101
*
Ed
 0.000000100000000 1 1 0
1  12 0 0.000000000000000 30.000000000000796
0

0101000
+40 0 -38 0 *
Ed
 0.000000100000000 1 1 0
1  13 0 0.000000000000000 1065.455174513323982
2  25 4 18 0.000000000000000 1065.455174513323982
2  26 4 19 0.000000000000000 1065.455174513323982
0

0101000
+38 0 -59 0 *
Wi

0101100
+62 0 +47 0 +39 0 +37 0 +36 0 +57 0 *
Fa
0  0.000000100000000 12 0

0111000
+35 40 *
Ed
 0.000000100000000 1 1 0
1  14 0 0.000000000000000 50.000000000000000
2  27 4 0 0.000000000000000 50.000000000000000
0

0101000
+38 12 -38 14 *
Wi

0101100
+33 0 -58 0 -36 12 +36 14 *
Fa
0  0.000000100000000 4 0

0111000
+32 0 *
Ed
 0.000000100000000 1 1 0
1  15 0 0.000000000000000 5.000000000000000
3  28 29CN 5 0 0.000000000000000 5.000000000000000
0

0101000
+55 23 -55 42 *
Wi

0101100
+30 0 -30 0 -54 23 +54 42 *
Fa
0  0.000000100000000 5 0

0111000
+29 0 *
Ed
 0.000000100000000 1 1 0
1  16 0 0.000000000000000 5.000000000000000
3  30 31CN 7 0 0.000000000000000 5.000000000000000
0

0101000
+52 23 -52 42 *
Wi

0101100
+27 0 -27 0 -51 23 +51 42 *
Fa
0  0.000000100000000 7 0

0111000
+26 0 *
Ed
 0.000000100000000 1 1 0
1  17 0 0.000000000000000 50.000000000000000
2  32 9 0 0.000000000000000 50.000000000000000
0

0101000
+40 12 -40 14 *
Wi

0101100
+46 44 -39 45 +39 46 -24 44 *
Ve
0.000000100000000
-2747.378304359840968 -25.000000000000000 0.000000000000000
0 0

0101101
*
Ed
 0.000000100000000 1 1 0
1  18 0 0.000000000000000 6.283185307179586
2  33 13 50 0.000000000000000 6.283185307179586
2  34 13 52 0.000000000000000 6.283185307179586
2  35 14 53 0.000000000000000 6.283185307179586
2  36 9 54 0.000000000000000 6.283185307179586
0

0101000
+22 0 -22 0 *
Wi

0101100
-21 49 *
Fa
0  0.000000100000000 9 44

0111000
+23 0 +20 0 *
Ed
 0.000000100000000 1 1 0
1  19 0 0.000000000000000 5.000000000000000
3  37 38CN 10 0 0.000000000000000 5.000000000000000
0

0101000
+44 33 -44 55 *
Wi

0101100
+18 0 -18 0 -43 33 +43 55 *
Fa
0  0.000000100000000 10 0

0111000
+17 0 *
Wi

0101100
+24 0 -33 0 -37 12 +37 14 *
Fa
0  0.000000100000000 15 0

0111000
+15 0 *
Wi

0101100
+54 0 *
Fa
0  0.000000100000000 6 0

0111000
+13 57 *
Wi

0101100
+51 0 *
Fa
0  0.000000100000000 8 0

0111000
+11 57 *
Ed
 0.000000100000000 1 1 0
1  20 0 0.000000000000000 5.000000000000000
3  39 40CN 13 0 0.000000000000000 5.000000000000000
0

0101000
+22 49 -22 58 *
Wi

0101100
+9 0 -9 0 -21 49 +21 58 *
Fa
0  0.000000100000000 13 0

0111000
+8 0 *
Wi

0101100
+43 0 *
Fa
0  0.000000100000000 11 0

0111000
+6 60 *
Wi

0101100
+21 0 *
Fa
0  0.000000100000000 14 0

0111000
+4 62 *
Sh

0101100
+60 8 +49 15 +41 0 +34 39 -34 41 +31 8 -28 15 -25 15 +19 43 -16 0 
+14 8 +12 56 +10 56 -7 43 +5 59 +3 61 *
So

0100000
+2 0 *

+1 1 