
CASCADE Topology V1, (c) Matra-Datavision
Locations 61
1
1.000000000000000 0.000000000000000 0.000000000000000 0.000000000000000 
0.000000000000000 1.000000000000000 0.000000000000000 -787.000000000000000 
0.000000000000000 0.000000000000000 1.000000000000000 0.000000000000000 
1
1.000000000000000 0.000000000000000 0.000000000000000 0.000000000000000 
0.000000000000000 -0.000000000000000 -1.000000000000000 0.000000000000000 
0.000000000000000 1.000000000000000 -0.000000000000000 0.000000000000000 
1
1.000000000000000 0.000000000000000 0.000000000000000 0.000000000000000 
0.000000000000000 -0.000000000000000 -1.000000000000000 0.000000000000000 
0.000000000000000 1.000000000000000 -0.000000000000000 0.000000000000000 
1
1.000000000000000 0.000000000000000 0.000000000000000 0.000000000000000 
0.000000000000000 -0.000000000000000 -1.000000000000000 0.000000000000000 
0.000000000000000 1.000000000000000 -0.000000000000000 0.000000000000000 
1
1.000000000000000 0.000000000000000 0.000000000000000 0.000000000000000 
0.000000000000000 -0.000000000000000 -1.000000000000000 0.000000000000000 
0.000000000000000 1.000000000000000 -0.000000000000000 0.000000000000000 
1
1.000000000000000 0.000000000000000 0.000000000000000 0.000000000000000 
0.000000000000000 -0.000000000000000 -1.000000000000000 0.000000000000000 
0.000000000000000 1.000000000000000 -0.000000000000000 0.000000000000000 
1
1.000000000000000 0.000000000000000 0.000000000000000 0.000000000000000 
0.000000000000000 -0.000000000000000 -1.000000000000000 0.000000000000000 
0.000000000000000 1.000000000000000 -0.000000000000000 0.000000000000000 
2  2 1 3 -1 4 1 5 -1 6 1 7 -1 0
1
1.000000000000000 0.000000000000000 0.000000000000000 0.000000000000000 
0.000000000000000 -0.000000000000000 -1.000000000000000 0.000000000000000 
0.000000000000000 1.000000000000000 -0.000000000000000 0.000000000000000 
2  9 -1 7 1 6 -1 5 1 4 -1 3 1 2 -1 0
1
1.000000000000000 0.000000000000000 0.000000000000000 0.000000000000000 
0.000000000000000 1.000000000000000 0.000000000000000 0.000000000000000 
0.000000000000000 0.000000000000000 1.000000000000000 0.000000000000000 
1
1.000000000000000 0.000000000000000 0.000000000000000 0.000000000000000 
0.000000000000000 -0.000000000000000 -1.000000000000000 0.000000000000000 
0.000000000000000 1.000000000000000 -0.000000000000000 0.000000000000000 
1
1.000000000000000 0.000000000000000 0.000000000000000 0.000000000000000 
0.000000000000000 -0.000000000000000 -1.000000000000000 0.000000000000000 
0.000000000000000 1.000000000000000 -0.000000000000000 0.000000000000000 
2  11 1 12 1 13 -1 0
2  9 -1 7 1 6 -1 5 1 4 -1 3 1 2 -1 13 1 12 -1 11 -1 0
1
1.000000000000000 0.000000000000000 0.000000000000000 0.000000000000000 
0.000000000000000 1.000000000000000 0.000000000000000 0.000000000000000 
0.000000000000000 0.000000000000000 1.000000000000000 15.000000000000000 
2  11 1 12 1 13 -1 16 1 0
2  9 -1 7 1 6 -1 5 1 4 -1 3 1 2 -1 16 -1 13 1 12 -1 11 -1 0
2  6 1 7 -1 0
2  13 -1 2 1 3 -1 4 1 5 -1 0
2  11 1 12 1 13 -1 2 1 3 -1 4 1 5 -1 0
1
1.000000000000000 0.000000000000000 0.000000000000000 0.000000000000000 
0.000000000000000 1.000000000000000 0.000000000000000 0.000000000000000 
0.000000000000000 0.000000000000000 1.000000000000000 0.000000000000000 
1
1.000000000000000 0.000000000000000 -0.000000000000000 0.000000000000000 
0.000000000000000 0.000000000000000 1.000000000000000 -0.000000000000000 
0.000000000000000 -1.000000000000000 0.000000000000000 -0.000000000000000 
2  22 1 23 1 5 -1 0
2  9 -1 7 1 6 -1 5 1 23 -1 22 -1 0
2  13 1 12 -1 11 -1 0
2  4 1 5 -1 6 1 7 -1 0
2  13 -1 16 1 2 1 3 -1 0
2  11 1 12 1 13 -1 16 1 2 1 3 -1 0
1
1.000000000000000 0.000000000000000 0.000000000000000 0.000000000000000 
0.000000000000000 1.000000000000000 0.000000000000000 0.000000000000000 
0.000000000000000 0.000000000000000 1.000000000000000 0.000000000000000 
1
0.000000000000000 0.000000000000000 -1.000000000000000 1027.000000000000000 
0.000000000000000 -1.000000000000000 0.000000000000000 0.000000000000000 
-1.000000000000000 0.000000000000000 0.000000000000000 0.000000000000000 
1
1.000000000000000 0.000000000000000 0.000000000000000 15.000000000000000 
0.000000000000000 1.000000000000000 0.000000000000000 0.000000000000003 
0.000000000000000 0.000000000000000 1.000000000000000 -0.000000000000000 
2  30 1 31 1 3 -1 32 1 0
2  9 -1 7 1 6 -1 5 1 4 -1 32 -1 3 1 31 -1 30 -1 0
2  9 -1 7 1 6 -1 5 1 4 -1 0
2  16 -1 13 1 12 -1 11 -1 0
2  2 1 3 -1 0
2  11 1 12 1 13 -1 2 1 3 -1 0
2  2 1 3 -1 4 1 5 -1 0
2  11 1 12 1 13 -1 16 1 2 1 3 -1 4 1 5 -1 0
2  9 -1 7 1 6 -1 0
1
1.000000000000000 0.000000000000000 0.000000000000000 -0.000000000000000 
0.000000000000000 1.000000000000000 0.000000000000000 0.000000000000000 
0.000000000000000 0.000000000000000 1.000000000000000 -80.000000000000000 
2  22 1 23 1 5 -1 42 1 0
2  9 -1 7 1 6 -1 42 -1 5 1 23 -1 22 -1 0
2  22 1 23 1 5 -1 6 1 7 -1 0
2  22 1 23 1 5 -1 42 1 6 1 7 -1 0
1
1.000000000000000 0.000000000000000 0.000000000000000 0.000000000000000 
0.000000000000000 1.000000000000000 0.000000000000000 0.000000000000000 
0.000000000000000 0.000000000000000 1.000000000000000 0.000000000000000 
1
0.000000000000000 0.000000000000000 -1.000000000000000 3095.000000000000000 
0.000000000000000 -1.000000000000000 0.000000000000000 0.000000000000000 
-1.000000000000000 0.000000000000000 0.000000000000000 0.000000000000000 
2  47 1 48 1 7 -1 0
2  7 1 48 -1 47 -1 0
2  9 -1 7 1 48 -1 47 -1 0
2  3 -1 32 1 4 1 5 -1 6 1 7 -1 0
2  30 1 31 1 0
2  32 -1 3 1 31 -1 30 -1 0
2  30 1 31 1 3 -1 0
2  9 -1 7 1 6 -1 5 1 4 -1 3 1 31 -1 30 -1 0
2  9 -1 0
2  3 -1 0
2  3 1 31 -1 30 -1 0
2  5 -1 42 1 6 1 7 -1 0
2  22 1 23 1 0
Curve2ds 48
1 0.00000000000000000 0.00000000000000000 1.00000000000000000 0.00000000000000000 
1 0.00000000000000000 0.00000000000000000 1.00000000000000000 0.00000000000000000 
1 0.00000000000000000 0.00000000000000000 1.00000000000000000 0.00000000000000000 
1 0.00000000000000000 0.00000000000000000 1.00000000000000000 0.00000000000000000 
1 0.00000000000000000 0.00000000000000000 1.00000000000000000 0.00000000000000000 
1 0.00000000000000000 0.00000000000000000 1.00000000000000000 0.00000000000000000 
1 0.00000000000000000 0.00000000000000000 1.00000000000000000 0.00000000000000000 
1 0.00000000000000000 0.00000000000000000 1.00000000000000000 0.00000000000000000 
1 0.00000000000000000 -15.00000000000000000 1.00000000000000000 0.00000000000000000 
1 0.00000000000000000 -15.00000000000000000 1.00000000000000000 0.00000000000000000 
1 0.00000000000000000 -15.00000000000000000 1.00000000000000000 0.00000000000000000 
1 0.00000000000000000 -15.00000000000000000 1.00000000000000000 0.00000000000000000 
1 0.00000000000000000 -15.00000000000000000 1.00000000000000000 0.00000000000000000 
1 0.00000000000000000 -15.00000000000000000 1.00000000000000000 0.00000000000000000 
1 0.00000000000000000 -15.00000000000000000 1.00000000000000000 0.00000000000000000 
1 0.00000000000000000 -15.00000000000000000 1.00000000000000000 0.00000000000000000 
1 0.00000000000000000 0.00000000000000000 1.00000000000000000 0.00000000000000000 
1 0.00000000000000000 0.00000000000000000 1.00000000000000000 0.00000000000000000 
1 0.00000000000000000 0.00000000000000000 0.00000000000000000 -1.00000000000000000 
1 6.28318530717958623 0.00000000000000000 0.00000000000000000 -1.00000000000000000 
1 0.00000000000000000 0.00000000000000000 0.00000000000000000 -1.00000000000000000 
1 6.28318530717958623 0.00000000000000000 0.00000000000000000 -1.00000000000000000 
1 0.00000000000000000 0.00000000000000000 0.00000000000000000 -1.00000000000000000 
1 6.28318530717958623 0.00000000000000000 0.00000000000000000 -1.00000000000000000 
1 0.00000000000000000 0.00000000000000000 0.00000000000000000 -1.00000000000000000 
1 6.28318530717958623 0.00000000000000000 0.00000000000000000 -1.00000000000000000 
1 0.00000000000000000 0.00000000000000000 0.00000000000000000 -1.00000000000000000 
1 6.28318530717958623 0.00000000000000000 0.00000000000000000 -1.00000000000000000 
1 0.00000000000000000 0.00000000000000000 0.00000000000000000 -1.00000000000000000 
1 6.28318530717958623 0.00000000000000000 0.00000000000000000 -1.00000000000000000 
1 0.00000000000000000 0.00000000000000000 0.00000000000000000 -1.00000000000000000 
1 6.28318530717958623 0.00000000000000000 0.00000000000000000 -1.00000000000000000 
1 0.00000000000000000 0.00000000000000000 0.00000000000000000 -1.00000000000000000 
1 6.28318530717958623 0.00000000000000000 0.00000000000000000 -1.00000000000000000 
1 0.00000000000000000 -15.00000000000000000 1.00000000000000000 0.00000000000000000 
1 0.00000000000000000 -15.00000000000000000 1.00000000000000000 0.00000000000000000 
1 0.00000000000000000 -15.00000000000136424 1.00000000000000000 0.00000000000000000 
1 0.00000000000000000 -15.00000000000136424 1.00000000000000000 0.00000000000000000 
1 0.00000000000000000 0.00000000000000000 1.00000000000000000 0.00000000000000000 
1 0.00000000000000000 0.00000000000000000 1.00000000000000000 0.00000000000000000 
1 0.00000000000000000 0.00000000000000000 0.00000000000000000 -1.00000000000000000 
1 6.28318530717958623 0.00000000000000000 0.00000000000000000 -1.00000000000000000 
1 0.00000000000000000 0.00000000000000000 0.00000000000000000 -1.00000000000000000 
1 6.28318530717958623 0.00000000000000000 0.00000000000000000 -1.00000000000000000 
1 0.00000000000000000 0.00000000000000000 0.00000000000000000 -1.00000000000000000 
1 6.28318530717958623 0.00000000000000000 0.00000000000000000 -1.00000000000000000 
1 0.00000000000000000 0.00000000000000000 0.00000000000000000 -1.00000000000000000 
1 6.28318530717958623 0.00000000000000000 0.00000000000000000 -1.00000000000000000 
Curves 85
1 1131.00000000000090949 -0.00000000000108816 4900.65574173834829708 0.00000000000000000 -1.00000000000000000 -0.00000000000000022 
1 2209.84386887302343894 -0.00000000000124833 5622.00050000000010186 0.00000000000000000 -1.00000000000000000 -0.00000000000000022 
1 1131.00000000000090949 -0.00000000000108816 4900.65574173834829708 0.83129717685707905 -0.00000000000000012 0.55582821424379891 
1 1131.00000000000090949 -15.00000000000108891 4885.65574173834829708 0.83129717685707905 -0.00000000000000012 0.55582821424379891 
1 1067.00000000000000000 -0.00000000000104864 4722.66700000000037107 0.00000000000000000 -1.00000000000000000 -0.00000000000000022 
1 1131.00000000000090949 -0.00000000000108816 4900.65574173834829708 -0.33836398450396094 0.00000000000000021 -0.94101531017864071 
1 1131.00000000000090949 -15.00000000000108891 4885.65574173834829708 -0.33836398450396094 0.00000000000000021 -0.94101531017864071 
1 3110.00000000000000000 -0.00000000000124833 5622.00050000000010186 0.00000000000000000 -1.00000000000000000 -0.00000000000000022 
1 2209.84386887302343894 -0.00000000000124833 5622.00050000000010186 1.00000000000000000 0.00000000000000000 0.00000000000000000 
1 2209.84386887302343894 -15.00000000000124878 5607.00050000000010186 1.00000000000000000 0.00000000000000000 0.00000000000000000 
1 1027.00000000000000000 -0.00000000000104864 4722.66700000000037107 1.00000000000000000 0.00000000000000000 0.00000000000000000 
1 1027.00000000000000000 -0.00000000000113950 5131.85328585281331470 0.00000000000000000 0.00000000000000022 -1.00000000000000000 
1 2133.96483879695961150 -0.00000000000130385 5872.00050000000010186 -0.83129717685707916 0.00000000000000012 -0.55582821424379858 
1 3110.00000000000000000 -0.00000000000130385 5872.00050000000010186 -1.00000000000000000 -0.00000000000000000 0.00000000000000000 
1 3110.00000000000000000 -0.00000000000124833 5622.00050000000010186 0.00000000000000000 -0.00000000000000022 1.00000000000000000 
1 3095.00000000000000000 0.00000000000128608 -5792.00050000000010186 1.00000000000000000 -0.00000000000000000 -0.00000000000000000 
1 3095.00000000000000000 0.00000000000125500 -5652.00050000000010186 -0.00000000000000000 0.00000000000000022 -1.00000000000000000 
1 3110.00000000000000000 0.00000000000125500 -5652.00050000000010186 -1.00000000000000000 0.00000000000000000 0.00000000000000000 
1 3110.00000000000000000 -0.00000000000124833 5622.00050000000010186 0.00000000000000000 -0.00000000000000022 1.00000000000000000 
2 1129.00000000000000000 -0.00000000000113454 5109.53369999999995343 0.00000000000000000 -1.00000000000000000 -0.00000000000000022 1.00000000000000000 0.00000000000000000 0.00000000000000000 0.00000000000000000 -0.00000000000000022 1.00000000000000000 5.00000000000000000
2 1280.99999999999977263 -0.00000000000113454 5109.53369999999995343 0.00000000000000000 -1.00000000000000000 -0.00000000000000022 1.00000000000000000 0.00000000000000000 0.00000000000000000 0.00000000000000000 -0.00000000000000022 1.00000000000000000 5.00000000000000000
2 1401.00000000000000000 -0.00000000000117493 5291.40040000000044529 0.00000000000000000 -1.00000000000000000 -0.00000000000000022 1.00000000000000000 0.00000000000000000 0.00000000000000000 0.00000000000000000 -0.00000000000000022 1.00000000000000000 5.00000000000000000
2 1553.00000000000000000 -0.00000000000117493 5291.40040000000044529 0.00000000000000000 -1.00000000000000000 -0.00000000000000022 1.00000000000000000 0.00000000000000000 0.00000000000000000 0.00000000000000000 -0.00000000000000022 1.00000000000000000 5.00000000000000000
2 1673.00000000000000000 -0.00000000000121531 5473.26710000000002765 0.00000000000000000 -1.00000000000000000 -0.00000000000000022 1.00000000000000000 0.00000000000000000 0.00000000000000000 0.00000000000000000 -0.00000000000000022 1.00000000000000000 5.00000000000000000
2 1825.00000000000000000 -0.00000000000121531 5473.26710000000002765 0.00000000000000000 -1.00000000000000000 -0.00000000000000022 1.00000000000000000 0.00000000000000000 0.00000000000000000 0.00000000000000000 -0.00000000000000022 1.00000000000000000 5.00000000000000000
2 1945.00000000000000000 -0.00000000000125569 5655.13379999999961001 0.00000000000000000 -1.00000000000000000 -0.00000000000000022 1.00000000000000000 0.00000000000000000 0.00000000000000000 0.00000000000000000 -0.00000000000000022 1.00000000000000000 5.00000000000000000
2 2097.00000000000000000 -0.00000000000125569 5655.13379999999961001 0.00000000000000000 -1.00000000000000000 -0.00000000000000022 1.00000000000000000 0.00000000000000000 0.00000000000000000 0.00000000000000000 -0.00000000000000022 1.00000000000000000 5.00000000000000000
1 1027.00000000000000000 -15.00000000000104805 4707.66700000000037107 1.00000000000000000 0.00000000000000000 0.00000000000000000 
1 15.00000000000105160 4722.66700000000037107 0.00000000000105197 0.00000000000000022 1.00000000000000000 0.00000000000000022 
1 1026.99999999999886313 -15.00000000000110134 4962.66700000000037107 1.00000000000000000 -0.00000000000000000 0.00000000000000022 
1 1027.00000000000000000 -15.00000000000113864 5116.85328585281331470 0.00000000000000000 0.00000000000000022 -1.00000000000000000 
1 2133.96483879695961150 -15.00000000000130385 5857.00050000000010186 -0.83129717685707916 0.00000000000000012 -0.55582821424379858 
1 3110.00000000000000000 -15.00000000000130385 5857.00050000000010186 -1.00000000000000000 -0.00000000000000000 0.00000000000000000 
1 3110.00000000000000000 -15.00000000000124878 5607.00050000000010186 0.00000000000000000 -0.00000000000000022 1.00000000000000000 
2 1129.00000000000000000 -15.00000000000113509 5094.53369999999995343 0.00000000000000000 -1.00000000000000000 -0.00000000000000022 1.00000000000000000 0.00000000000000000 0.00000000000000000 0.00000000000000000 -0.00000000000000022 1.00000000000000000 5.00000000000000000
2 1280.99999999999977263 -15.00000000000113509 5094.53369999999995343 0.00000000000000000 -1.00000000000000000 -0.00000000000000022 1.00000000000000000 0.00000000000000000 0.00000000000000000 0.00000000000000000 -0.00000000000000022 1.00000000000000000 5.00000000000000000
2 1401.00000000000000000 -15.00000000000117417 5276.40040000000044529 0.00000000000000000 -1.00000000000000000 -0.00000000000000022 1.00000000000000000 0.00000000000000000 0.00000000000000000 0.00000000000000000 -0.00000000000000022 1.00000000000000000 5.00000000000000000
2 1553.00000000000000000 -15.00000000000117417 5276.40040000000044529 0.00000000000000000 -1.00000000000000000 -0.00000000000000022 1.00000000000000000 0.00000000000000000 0.00000000000000000 0.00000000000000000 -0.00000000000000022 1.00000000000000000 5.00000000000000000
2 1673.00000000000000000 -15.00000000000121503 5458.26710000000002765 0.00000000000000000 -1.00000000000000000 -0.00000000000000022 1.00000000000000000 0.00000000000000000 0.00000000000000000 0.00000000000000000 -0.00000000000000022 1.00000000000000000 5.00000000000000000
2 1825.00000000000000000 -15.00000000000121503 5458.26710000000002765 0.00000000000000000 -1.00000000000000000 -0.00000000000000022 1.00000000000000000 0.00000000000000000 0.00000000000000000 0.00000000000000000 -0.00000000000000022 1.00000000000000000 5.00000000000000000
2 1945.00000000000000000 -15.00000000000125588 5640.13379999999961001 0.00000000000000000 -1.00000000000000000 -0.00000000000000022 1.00000000000000000 0.00000000000000000 0.00000000000000000 0.00000000000000000 -0.00000000000000022 1.00000000000000000 5.00000000000000000
2 2097.00000000000000000 -15.00000000000125588 5640.13379999999961001 0.00000000000000000 -1.00000000000000000 -0.00000000000000022 1.00000000000000000 0.00000000000000000 0.00000000000000000 0.00000000000000000 -0.00000000000000022 1.00000000000000000 5.00000000000000000
1 1027.00000000000000000 -0.00000000000104864 4722.66700000000037107 0.00000000000000000 -1.00000000000000000 -0.00000000000000022 
1 1027.00000000000000000 -15.00000000000104805 4707.66700000000037107 1.00000000000000000 0.00000000000000000 0.00000000000000000 
1 3110.00000000000000000 -0.00000000000130385 5872.00050000000010186 0.00000000000000000 -1.00000000000000000 -0.00000000000000022 
1 3110.00000000000000000 0.00000000000128608 -5792.00050000000010186 0.00000000000000000 -0.00000000000000022 1.00000000000000000 
1 1027.00000000000000000 -0.00000000000113950 5131.85328585281331470 0.00000000000000000 -1.00000000000000000 -0.00000000000000022 
1 1027.00000000000000000 -15.00000000000113864 5116.85328585281331470 0.00000000000000000 0.00000000000000022 -1.00000000000000000 
1 2133.96483879695961150 -0.00000000000130385 5872.00050000000010186 0.00000000000000000 -1.00000000000000000 -0.00000000000000022 
1 3095.00000000000000000 -0.00000000000128608 5792.00050000000010186 -0.00000000000000000 1.00000000000000000 0.00000000000000022 
1 3110.00000000000000000 -0.00000000000128608 5792.00050000000010186 -0.00000000000000000 1.00000000000000000 0.00000000000000022 
1 3095.00000000000000000 -79.99999999999870681 -5872.00050000000010186 1.00000000000000000 -0.00000000000000000 -0.00000000000000000 
1 3095.00000000000000000 -0.00000000000125500 5652.00050000000010186 -0.00000000000000000 1.00000000000000000 0.00000000000000022 
1 3095.00000000000000000 -79.99999999999874944 -5732.00050000000010186 -0.00000000000000000 0.00000000000000022 -1.00000000000000000 
2 -39.99999999999873523 5692.00050000000010186 0.00000000000125500 -0.00000000000000022 -0.00000000000000022 1.00000000000000000 -0.00000000000000022 -1.00000000000000000 -0.00000000000000022 1.00000000000000000 -0.00000000000000022 0.00000000000000022 5.00000000000000000
2 -39.99999999999872102 5752.00050000000010186 0.00000000000126832 -0.00000000000000022 -0.00000000000000022 1.00000000000000000 -0.00000000000000022 -1.00000000000000000 -0.00000000000000022 1.00000000000000000 -0.00000000000000022 0.00000000000000022 5.00000000000000000
1 3110.00000000000000000 -0.00000000000125500 5652.00050000000010186 -0.00000000000000000 1.00000000000000000 0.00000000000000022 
1 3110.00000000000000000 -79.99999999999874944 -5732.00050000000010186 -1.00000000000000000 0.00000000000000000 0.00000000000000000 
1 1134.00000000000000000 -0.00000000000113454 5109.53369999999995343 0.00000000000000000 -1.00000000000000000 -0.00000000000000022 
1 1285.99999999999977263 -0.00000000000113454 5109.53369999999995343 0.00000000000000000 -1.00000000000000000 -0.00000000000000022 
1 1406.00000000000000000 -0.00000000000117493 5291.40040000000044529 0.00000000000000000 -1.00000000000000000 -0.00000000000000022 
1 1558.00000000000000000 -0.00000000000117493 5291.40040000000044529 0.00000000000000000 -1.00000000000000000 -0.00000000000000022 
1 1678.00000000000000000 -0.00000000000121531 5473.26710000000002765 0.00000000000000000 -1.00000000000000000 -0.00000000000000022 
1 1830.00000000000000000 -0.00000000000121531 5473.26710000000002765 0.00000000000000000 -1.00000000000000000 -0.00000000000000022 
1 1950.00000000000000000 -0.00000000000125569 5655.13379999999961001 0.00000000000000000 -1.00000000000000000 -0.00000000000000022 
1 2102.00000000000000000 -0.00000000000125569 5655.13379999999961001 0.00000000000000000 -1.00000000000000000 -0.00000000000000022 
1 15.00000000000110489 4962.66700000000037107 0.00000000000110526 1.00000000000000000 -0.00000000000000022 0.00000000000000022 
1 171.00000000000110845 4962.66700000000037107 0.00000000000113990 -0.00000000000000022 -1.00000000000000000 -0.00000000000000022 
1 171.00000000000105160 4722.66700000000037107 0.00000000000108661 -1.00000000000000000 0.00000000000000022 -0.00000000000000022 
2 93.00000000000105160 4762.66700000000037107 0.00000000000107817 -0.00000000000000022 -0.00000000000000022 1.00000000000000000 -0.00000000000000022 -1.00000000000000000 -0.00000000000000022 1.00000000000000000 -0.00000000000000022 0.00000000000000022 5.00000000000000000
2 93.00000000000106581 4822.66700000000037107 0.00000000000109150 -0.00000000000000022 -0.00000000000000022 1.00000000000000000 -0.00000000000000022 -1.00000000000000000 -0.00000000000000022 1.00000000000000000 -0.00000000000000022 0.00000000000000022 5.00000000000000000
1 1026.99999999999886313 -171.00000000000110845 4962.66700000000037107 1.00000000000000000 -0.00000000000000000 0.00000000000000022 
1 15.00000000000110134 4962.66700000000037107 0.00000000000110526 1.00000000000000000 -0.00000000000000022 0.00000000000000022 
1 1026.99999999999886313 -171.00000000000105160 4722.66700000000037107 1.00000000000000000 -0.00000000000000000 0.00000000000000022 
1 171.00000000000105160 4722.66700000000037107 0.00000000000108661 -1.00000000000000000 0.00000000000000022 -0.00000000000000022 
1 3110.00000000000000000 -79.99999999999870681 -5872.00050000000010186 0.00000000000000000 -0.00000000000000022 1.00000000000000000 
2 3110.00000000000000000 39.99999999999872102 5752.00050000000010186 -1.00000000000000000 0.00000000000000000 -0.00000000000000022 0.00000000000000022 0.00000000000000022 -1.00000000000000000 0.00000000000000000 -1.00000000000000000 -0.00000000000000022 5.00000000000000000
2 3110.00000000000000000 39.99999999999873523 5692.00050000000010186 -1.00000000000000000 0.00000000000000000 -0.00000000000000022 0.00000000000000022 0.00000000000000022 -1.00000000000000000 0.00000000000000000 -1.00000000000000000 -0.00000000000000022 5.00000000000000000
1 171.00000000000110845 4962.66700000000037107 0.00000000000113990 -0.00000000000000022 -1.00000000000000000 -0.00000000000000022 
2 93.00000000000105160 4762.66700000000037107 0.00000000000107817 -0.00000000000000022 -0.00000000000000022 1.00000000000000000 -0.00000000000000022 -1.00000000000000000 -0.00000000000000022 1.00000000000000000 -0.00000000000000022 0.00000000000000022 5.00000000000000000
2 93.00000000000106581 4822.66700000000037107 0.00000000000109150 -0.00000000000000022 -0.00000000000000022 1.00000000000000000 -0.00000000000000022 -1.00000000000000000 -0.00000000000000022 1.00000000000000000 -0.00000000000000022 0.00000000000000022 5.00000000000000000
1 3094.99999999999863576 39.99999999999873523 5687.00050000000010186 1.00000000000000000 -0.00000000000000000 0.00000000000000022 
1 3094.99999999999863576 39.99999999999872102 5747.00050000000010186 1.00000000000000000 -0.00000000000000000 0.00000000000000022 
1 1026.99999999999886313 -93.00000000000105160 4757.66700000000037107 1.00000000000000000 -0.00000000000000000 0.00000000000000022 
1 1026.99999999999886313 -93.00000000000106581 4817.66700000000037107 1.00000000000000000 -0.00000000000000000 0.00000000000000022 
Polygon3D 0
PolygonOnTriangulations 0
Surfaces 32
1 1131.00000000000090949 -0.00000000000108816 4900.65574173834829708 -0.55582821424379891 -0.00000000000000018 0.83129717685707905 0.83129717685707905 -0.00000000000000012 0.55582821424379891 -0.00000000000000000 1.00000000000000000 0.00000000000000022 
1 1131.00000000000090949 -0.00000000000108816 4900.65574173834829708 0.94101531017864071 0.00000000000000008 -0.33836398450396094 -0.33836398450396094 0.00000000000000021 -0.94101531017864071 -0.00000000000000000 1.00000000000000000 0.00000000000000022 
1 2209.84386887302343894 -0.00000000000124833 5622.00050000000010186 0.00000000000000000 -0.00000000000000022 1.00000000000000000 1.00000000000000000 0.00000000000000000 0.00000000000000000 -0.00000000000000000 1.00000000000000000 0.00000000000000022 
1 1978.78643515850194490 -5468.82227172914190305 -0.00000000000242864 0.00000000000000000 0.00000000000000044 -1.00000000000000000 0.00000000000000000 1.00000000000000000 0.00000000000000044 1.00000000000000000 -0.00000000000000000 0.00000000000000000 
2 1129.00000000000000000 -0.00000000000113454 5109.53369999999995343 -0.00000000000000000 1.00000000000000000 0.00000000000000022 1.00000000000000000 0.00000000000000000 0.00000000000000000 -0.00000000000000000 -0.00000000000000022 1.00000000000000000 5.00000000000000000
2 1280.99999999999977263 -0.00000000000113454 5109.53369999999995343 -0.00000000000000000 1.00000000000000000 0.00000000000000022 1.00000000000000000 0.00000000000000000 0.00000000000000000 -0.00000000000000000 -0.00000000000000022 1.00000000000000000 5.00000000000000000
2 1401.00000000000000000 -0.00000000000117493 5291.40040000000044529 -0.00000000000000000 1.00000000000000000 0.00000000000000022 1.00000000000000000 0.00000000000000000 0.00000000000000000 -0.00000000000000000 -0.00000000000000022 1.00000000000000000 5.00000000000000000
2 1553.00000000000000000 -0.00000000000117493 5291.40040000000044529 -0.00000000000000000 1.00000000000000000 0.00000000000000022 1.00000000000000000 0.00000000000000000 0.00000000000000000 -0.00000000000000000 -0.00000000000000022 1.00000000000000000 5.00000000000000000
2 1673.00000000000000000 -0.00000000000121531 5473.26710000000002765 -0.00000000000000000 1.00000000000000000 0.00000000000000022 1.00000000000000000 0.00000000000000000 0.00000000000000000 -0.00000000000000000 -0.00000000000000022 1.00000000000000000 5.00000000000000000
2 1825.00000000000000000 -0.00000000000121531 5473.26710000000002765 -0.00000000000000000 1.00000000000000000 0.00000000000000022 1.00000000000000000 0.00000000000000000 0.00000000000000000 -0.00000000000000000 -0.00000000000000022 1.00000000000000000 5.00000000000000000
2 1945.00000000000000000 -0.00000000000125569 5655.13379999999961001 -0.00000000000000000 1.00000000000000000 0.00000000000000022 1.00000000000000000 0.00000000000000000 0.00000000000000000 -0.00000000000000000 -0.00000000000000022 1.00000000000000000 5.00000000000000000
2 2097.00000000000000000 -0.00000000000125569 5655.13379999999961001 -0.00000000000000000 1.00000000000000000 0.00000000000000022 1.00000000000000000 0.00000000000000000 0.00000000000000000 -0.00000000000000000 -0.00000000000000022 1.00000000000000000 5.00000000000000000
1 1978.78643515850194490 -5453.82227172914190305 -15.00000000000242473 0.00000000000000000 0.00000000000000044 -1.00000000000000000 0.00000000000000000 1.00000000000000000 0.00000000000000044 1.00000000000000000 -0.00000000000000000 0.00000000000000000 
1 1027.00000000000000000 -0.00000000000104864 4722.66700000000037107 0.00000000000000000 -0.00000000000000022 1.00000000000000000 1.00000000000000000 0.00000000000000000 0.00000000000000000 -0.00000000000000000 1.00000000000000000 0.00000000000000022 
1 3110.00000000000000000 -0.00000000000124833 5622.00050000000010186 -1.00000000000000000 -0.00000000000000000 0.00000000000000000 0.00000000000000000 -0.00000000000000022 1.00000000000000000 0.00000000000000000 1.00000000000000000 0.00000000000000022 
1 1027.00000000000000000 -0.00000000000113950 5131.85328585281331470 1.00000000000000000 0.00000000000000000 0.00000000000000000 0.00000000000000000 0.00000000000000022 -1.00000000000000000 -0.00000000000000000 1.00000000000000000 0.00000000000000022 
1 2133.96483879695961150 -0.00000000000130385 5872.00050000000010186 0.55582821424379858 0.00000000000000018 -0.83129717685707916 -0.83129717685707916 0.00000000000000012 -0.55582821424379858 -0.00000000000000000 1.00000000000000000 0.00000000000000022 
1 3110.00000000000000000 -0.00000000000130385 5872.00050000000010186 0.00000000000000000 0.00000000000000022 -1.00000000000000000 -1.00000000000000000 0.00000000000000000 -0.00000000000000000 0.00000000000000000 1.00000000000000000 0.00000000000000022 
1 3095.00000000000000000 -0.00000000000128608 5792.00050000000010186 0.00000000000000000 0.00000000000000022 -1.00000000000000000 1.00000000000000000 0.00000000000000000 0.00000000000000000 0.00000000000000000 -1.00000000000000000 -0.00000000000000022 
1 3095.00000000000000000 -0.00000000000125500 5652.00050000000010186 1.00000000000000000 0.00000000000000000 0.00000000000000000 0.00000000000000000 -0.00000000000000022 1.00000000000000000 0.00000000000000000 -1.00000000000000000 -0.00000000000000022 
2 3094.99999999999863576 39.99999999999873523 5692.00050000000010186 -1.00000000000000000 0.00000000000000000 -0.00000000000000022 0.00000000000000022 0.00000000000000022 -1.00000000000000000 0.00000000000000000 -1.00000000000000000 -0.00000000000000022 5.00000000000000000
2 3094.99999999999863576 39.99999999999872102 5752.00050000000010186 -1.00000000000000000 0.00000000000000000 -0.00000000000000022 0.00000000000000022 0.00000000000000022 -1.00000000000000000 0.00000000000000000 -1.00000000000000000 -0.00000000000000022 5.00000000000000000
1 3110.00000000000000000 -0.00000000000125500 5652.00050000000010186 0.00000000000000000 -0.00000000000000022 1.00000000000000000 -1.00000000000000000 0.00000000000000000 0.00000000000000000 -0.00000000000000000 -1.00000000000000000 -0.00000000000000022 
1 1026.99999999999886313 -4842.66700000000037107 -93.00000000000218847 1.00000000000000000 0.00000000000000000 0.00000000000000000 0.00000000000000000 -1.00000000000000000 -0.00000000000000022 0.00000000000000000 0.00000000000000022 -1.00000000000000000 
2 1026.99999999999886313 -93.00000000000105160 4762.66700000000037107 -1.00000000000000000 0.00000000000000000 -0.00000000000000022 0.00000000000000022 0.00000000000000022 -1.00000000000000000 0.00000000000000000 -1.00000000000000000 -0.00000000000000022 5.00000000000000000
2 1026.99999999999886313 -93.00000000000106581 4822.66700000000037107 -1.00000000000000000 0.00000000000000000 -0.00000000000000022 0.00000000000000022 0.00000000000000022 -1.00000000000000000 0.00000000000000000 -1.00000000000000000 -0.00000000000000022 5.00000000000000000
1 1026.99999999999886313 -15.00000000000110134 4962.66700000000037107 0.00000000000000022 0.00000000000000022 -1.00000000000000000 0.00000000000000000 -1.00000000000000000 -0.00000000000000022 -1.00000000000000000 0.00000000000000000 -0.00000000000000022 
1 1026.99999999999886313 -171.00000000000105160 4722.66700000000037107 -0.00000000000000022 -0.00000000000000022 1.00000000000000000 0.00000000000000000 1.00000000000000000 0.00000000000000022 -1.00000000000000000 0.00000000000000000 -0.00000000000000022 
1 3110.00000000000000000 -0.00000000000128608 5792.00050000000010186 -1.00000000000000000 -0.00000000000000000 -0.00000000000000000 0.00000000000000000 0.00000000000000022 -1.00000000000000000 0.00000000000000000 -1.00000000000000000 -0.00000000000000022 
1 1026.99999999999886313 -4842.66700000000037107 -93.00000000000218847 1.00000000000000000 0.00000000000000000 0.00000000000000000 0.00000000000000000 -1.00000000000000000 -0.00000000000000022 0.00000000000000000 0.00000000000000022 -1.00000000000000000 
1 3102.50000000000000000 -5802.00050000000101136 79.99999999999744205 0.00000000000000000 -0.00000000000000044 1.00000000000000000 0.00000000000000000 -1.00000000000000000 -0.00000000000000044 1.00000000000000000 0.00000000000000000 0.00000000000000000 
1 1026.99999999999886313 -171.00000000000110845 4962.66700000000037107 -0.00000000000000000 1.00000000000000000 0.00000000000000022 0.00000000000000022 0.00000000000000022 -1.00000000000000000 -1.00000000000000000 0.00000000000000000 -0.00000000000000022 
Triangulations 0

TShapes 230
Ve
0.000000100000000
1131.000000000000909 -4900.655741738348297 -0.000000000002176
0 0

0101101
*
Ve
0.000000100000000
1131.000000000000909 -4900.655741738348297 -15.000000000002178
0 0

0101101
*
Ed
 0.000000100000000 1 1 0
1  1 0 0.000000000000000 15.000000000000000
0

0101000
+230 10 -229 10 *
Ve
0.000000100000000
2209.843868873023439 -5622.000500000000102 -0.000000000002497
0 0

0101101
*
Ve
0.000000100000000
2209.843868873023439 -5622.000500000000102 -15.000000000002498
0 0

0101101
*
Ed
 0.000000100000000 1 1 0
1  2 0 0.000000000000000 15.000000000000000
0

0101000
+227 10 -226 10 *
Ed
 0.000000100000000 1 1 0
1  3 0 0.000000000000000 1297.783631302411095
0

0101000
+230 15 -227 15 *
Ed
 0.000000100000000 1 1 0
1  4 0 0.000000000000000 1297.783631302411095
0

0101000
+229 18 -226 18 *
Wi

0101100
+228 0 -225 0 -224 14 +223 17 *
Fa
0  0.000000100000000 1 0

0111000
+222 0 *
Ve
0.000000100000000
1067.000000000000000 -4722.667000000000371 -0.000000000002097
0 0

0101101
*
Ve
0.000000100000000
1067.000000000000000 -4722.667000000000371 -15.000000000002096
0 0

0101101
*
Ed
 0.000000100000000 1 1 0
1  5 0 0.000000000000000 15.000000000000000
0

0101000
+220 10 -219 10 *
Ed
 0.000000100000000 1 1 0
1  6 0 0.000000000000000 189.145426023471259
0

0101000
+230 15 -220 15 *
Ed
 0.000000100000000 1 1 0
1  7 0 0.000000000000000 189.145426023471259
0

0101000
+229 18 -219 18 *
Wi

0101100
+228 0 -218 0 -217 14 +216 17 *
Fa
0  0.000000100000000 2 0

0111000
+215 0 *
Ve
0.000000100000000
3110.000000000000000 -5622.000500000000102 -0.000000000002497
0 0

0101101
*
Ve
0.000000100000000
3110.000000000000000 -5622.000500000000102 -15.000000000002498
0 0

0101101
*
Ed
 0.000000100000000 1 1 0
1  8 0 0.000000000000000 15.000000000000000
0

0101000
+213 10 -212 10 *
Ed
 0.000000100000000 1 1 0
1  9 0 0.000000000000000 900.156131126976561
0

0101000
+227 15 -213 15 *
Ed
 0.000000100000000 1 1 0
1  10 0 0.000000000000000 900.156131126976561
0

0101000
+226 18 -212 18 *
Wi

0101100
+225 0 -211 0 -210 14 +209 17 *
Fa
0  0.000000100000000 3 0

0111000
+208 0 *
Ve
0.000000100000000
1027.000000000000000 -4722.667000000000371 -0.000000000002097
0 0

0101101
*
Ed
 0.000000100000000 1 1 0
1  11 0 0.000000000000000 40.000000000000000
0

0101000
+206 15 -220 15 *
Ve
0.000000100000000
1027.000000000000000 -5131.853285852813315 -0.000000000002279
0 0

0101101
*
Ed
 0.000000100000000 1 1 0
1  12 0 0.000000000000000 409.186285852812944
0

0101000
+204 15 -206 15 *
Ve
0.000000100000000
2133.964838796959611 -5872.000500000000102 -0.000000000002608
0 0

0101101
*
Ed
 0.000000100000000 1 1 0
1  13 0 0.000000000000000 1331.611449688917446
0

0101000
+202 15 -204 15 *
Ve
0.000000100000000
3110.000000000000000 -5872.000500000000102 -0.000000000002608
0 0

0101101
*
Ed
 0.000000100000000 1 1 0
1  14 0 0.000000000000000 976.035161203040389
0

0101000
+200 15 -202 15 *
Ve
0.000000100000000
3110.000000000000000 -5792.000500000000102 -0.000000000002572
0 0

0101101
*
Ed
 0.000000100000000 1 1 0
1  15 0 170.000000000000000 250.000000000000000
0

0101000
+198 15 -200 15 *
Ve
0.000000100000000
3095.000000000000000 -5792.000500000000102 -0.000000000002572
0 0

0101101
*
Ed
 0.000000100000000 1 1 0
1  16 0 0.000000000000000 15.000000000000000
0

0101000
+196 25 -198 25 *
Ve
0.000000100000000
3095.000000000000000 -5652.000500000000102 -0.000000000002510
0 0

0101101
*
Ed
 0.000000100000000 1 1 0
1  17 0 0.000000000000000 140.000000000000000
0

0101000
+194 25 -196 25 *
Ve
0.000000100000000
3110.000000000000000 -5652.000500000000102 -0.000000000002510
0 0

0101101
*
Ed
 0.000000100000000 1 1 0
1  18 0 0.000000000000000 15.000000000000000
0

0101000
+192 25 -194 25 *
Ed
 0.000000100000000 1 1 0
1  19 0 0.000000000000000 30.000000000000000
0

0101000
+213 15 -192 15 *
Wi

0101100
-217 21 +205 21 +203 21 +201 21 +199 21 +197 21 +195 24 +193 24 +191 24 +190 21 
+210 21 +224 21 *
Ve
0.000000100000000
1134.000000000000000 -5109.533699999999953 -0.000000000002269
0 0

0101101
*
Ed
 0.000000100000000 1 1 0
1  20 0 0.000000000000000 6.283185307179586
2  1 5 26 0.000000000000000 6.283185307179586
0

0101000
+188 15 -188 15 *
Wi

0101100
-187 21 *
Ve
0.000000100000000
1285.999999999999773 -5109.533699999999953 -0.000000000002269
0 0

0101101
*
Ed
 0.000000100000000 1 1 0
1  21 0 0.000000000000000 6.283185307179586
2  2 6 26 0.000000000000000 6.283185307179586
0

0101000
+185 15 -185 15 *
Wi

0101100
-184 21 *
Ve
0.000000100000000
1406.000000000000000 -5291.400400000000445 -0.000000000002350
0 0

0101101
*
Ed
 0.000000100000000 1 1 0
1  22 0 0.000000000000000 6.283185307179586
2  3 7 26 0.000000000000000 6.283185307179586
0

0101000
+182 15 -182 15 *
Wi

0101100
-181 21 *
Ve
0.000000100000000
1558.000000000000000 -5291.400400000000445 -0.000000000002350
0 0

0101101
*
Ed
 0.000000100000000 1 1 0
1  23 0 0.000000000000000 6.283185307179586
2  4 8 26 0.000000000000000 6.283185307179586
0

0101000
+179 15 -179 15 *
Wi

0101100
-178 21 *
Ve
0.000000100000000
1678.000000000000000 -5473.267100000000028 -0.000000000002431
0 0

0101101
*
Ed
 0.000000100000000 1 1 0
1  24 0 0.000000000000000 6.283185307179586
2  5 9 26 0.000000000000000 6.283185307179586
0

0101000
+176 15 -176 15 *
Wi

0101100
-175 21 *
Ve
0.000000100000000
1830.000000000000000 -5473.267100000000028 -0.000000000002431
0 0

0101101
*
Ed
 0.000000100000000 1 1 0
1  25 0 0.000000000000000 6.283185307179586
2  6 10 26 0.000000000000000 6.283185307179586
0

0101000
+173 15 -173 15 *
Wi

0101100
-172 21 *
Ve
0.000000100000000
1950.000000000000000 -5655.133799999999610 -0.000000000002511
0 0

0101101
*
Ed
 0.000000100000000 1 1 0
1  26 0 0.000000000000000 6.283185307179586
2  7 11 26 0.000000000000000 6.283185307179586
0

0101000
+170 15 -170 15 *
Wi

0101100
-169 21 *
Ve
0.000000100000000
2102.000000000000000 -5655.133799999999610 -0.000000000002511
0 0

0101101
*
Ed
 0.000000100000000 1 1 0
1  27 0 0.000000000000000 6.283185307179586
2  8 12 26 0.000000000000000 6.283185307179586
0

0101000
+167 15 -167 15 *
Wi

0101100
-166 21 *
Fa
0  0.000000100000000 4 20

0111000
+189 0 +186 0 +183 0 +180 0 +177 0 +174 0 +171 0 +168 0 +165 0 *
Ve
0.000000100000000
1041.999999999998863 -4722.667000000000371 -15.000000000002096
0 0

0101101
*
Ed
 0.000000100000000 1 1 0
1  28 0 14.999999999998863 40.000000000000000
0

0101000
+163 18 -219 18 *
Ve
0.000000100001137
1041.999999999998863 -4962.667000000000371 -15.000000000002203
0 0

0101101
*
Ed
 0.000000100000000 1 1 0
1  29 0 0.000000000000000 240.000000000000000
0

0101000
+163 34 -161 34 *
Ve
0.000000100001137
1026.999999999998863 -4962.667000000000371 -15.000000000002203
0 0

0101101
*
Ed
 0.000000100000000 1 1 0
1  30 0 0.000000000000000 15.000000000000000
0

0101000
+159 35 -161 35 *
Ve
0.000000100000000
1027.000000000000000 -5131.853285852813315 -15.000000000002277
0 0

0101101
*
Ed
 0.000000100000000 1 1 0
1  31 0 0.000000000000000 169.186285852812944
0

0101000
+157 18 -159 18 *
Ve
0.000000100000000
2133.964838796959611 -5872.000500000000102 -15.000000000002608
0 0

0101101
*
Ed
 0.000000100000000 1 1 0
1  32 0 0.000000000000000 1331.611449688917446
0

0101000
+155 18 -157 18 *
Ve
0.000000100000000
3110.000000000000000 -5872.000500000000102 -15.000000000002608
0 0

0101101
*
Ed
 0.000000100000000 1 1 0
1  33 0 0.000000000000000 976.035161203040389
0

0101000
+153 18 -155 18 *
Ed
 0.000000100000000 1 1 0
1  34 0 0.000000000000000 250.000000000000000
0

0101000
+212 18 -153 18 *
Wi

0101100
-216 29 +162 29 -160 33 +158 0 +156 29 +154 29 +152 29 +151 29 +209 29 +223 29 
*
Ve
0.000000100000000
1134.000000000000000 -5109.533699999999953 -15.000000000002270
0 0

0101101
*
Ed
 0.000000100000000 1 1 0
1  35 0 0.000000000000000 6.283185307179586
2  9 5 36 0.000000000000000 6.283185307179586
0

0101000
+149 18 -149 18 *
Wi

0101100
-148 29 *
Ve
0.000000100000000
1285.999999999999773 -5109.533699999999953 -15.000000000002270
0 0

0101101
*
Ed
 0.000000100000000 1 1 0
1  36 0 0.000000000000000 6.283185307179586
2  10 6 36 0.000000000000000 6.283185307179586
0

0101000
+146 18 -146 18 *
Wi

0101100
-145 29 *
Ve
0.000000100000000
1406.000000000000000 -5291.400400000000445 -15.000000000002348
0 0

0101101
*
Ed
 0.000000100000000 1 1 0
1  37 0 0.000000000000000 6.283185307179586
2  11 7 36 0.000000000000000 6.283185307179586
0

0101000
+143 18 -143 18 *
Wi

0101100
-142 29 *
Ve
0.000000100000000
1558.000000000000000 -5291.400400000000445 -15.000000000002348
0 0

0101101
*
Ed
 0.000000100000000 1 1 0
1  38 0 0.000000000000000 6.283185307179586
2  12 8 36 0.000000000000000 6.283185307179586
0

0101000
+140 18 -140 18 *
Wi

0101100
-139 29 *
Ve
0.000000100000000
1678.000000000000000 -5473.267100000000028 -15.000000000002430
0 0

0101101
*
Ed
 0.000000100000000 1 1 0
1  39 0 0.000000000000000 6.283185307179586
2  13 9 36 0.000000000000000 6.283185307179586
0

0101000
+137 18 -137 18 *
Wi

0101100
-136 29 *
Ve
0.000000100000000
1830.000000000000000 -5473.267100000000028 -15.000000000002430
0 0

0101101
*
Ed
 0.000000100000000 1 1 0
1  40 0 0.000000000000000 6.283185307179586
2  14 10 36 0.000000000000000 6.283185307179586
0

0101000
+134 18 -134 18 *
Wi

0101100
-133 29 *
Ve
0.000000100000000
1950.000000000000000 -5655.133799999999610 -15.000000000002512
0 0

0101101
*
Ed
 0.000000100000000 1 1 0
1  41 0 0.000000000000000 6.283185307179586
2  15 11 36 0.000000000000000 6.283185307179586
0

0101000
+131 18 -131 18 *
Wi

0101100
-130 29 *
Ve
0.000000100000000
2102.000000000000000 -5655.133799999999610 -15.000000000002512
0 0

0101101
*
Ed
 0.000000100000000 1 1 0
1  42 0 0.000000000000000 6.283185307179586
2  16 12 36 0.000000000000000 6.283185307179586
0

0101000
+128 18 -128 18 *
Wi

0101100
-127 29 *
Fa
0  0.000000100000000 13 28

0111000
+150 0 +147 0 +144 0 +141 0 +138 0 +135 0 +132 0 +129 0 +126 0 *
Ve
0.000000100001364
1026.999999999999318 -4722.667000000000371 -15.000000000002096
0 0

0101101
*
Ed
 0.000000100000000 1 1 0
1  43 0 0.000000000000000 15.000000000000000
0

0101000
+206 10 -124 10 *
Ed
 0.000000100000000 1 1 0
1  44 0 0.000000000000000 14.999999999998863
0

0101000
+124 18 -163 18 *
Wi

0101100
+123 37 -218 37 -205 38 +122 29 +162 29 *
Fa
0  0.000000100000000 14 37

0111000
+121 0 *
Ed
 0.000000100000000 1 1 0
1  45 0 0.000000000000000 15.000000000000000
0

0101000
+200 10 -153 10 *
Ed
 0.000000100000000 1 1 0
1  46 0 0.000000000000000 140.000000000000000
0

0101000
+198 25 -192 25 *
Wi

0101100
+211 39 -119 39 -190 21 +118 24 -197 21 +151 40 *
Fa
0  0.000000100000000 15 39

0111000
+117 0 *
Ed
 0.000000100000000 1 1 0
1  47 0 0.000000000000000 15.000000000000000
0

0101000
+204 10 -157 10 *
Ed
 0.000000100001137 1 1 0
1  48 0 169.186285852812944 409.186285852812944
0

0101000
+159 18 -124 18 *
Wi

0101100
+115 37 -123 37 -203 38 +156 29 +114 29 *
Fa
0  0.000000100000000 16 37

0111000
+113 0 *
Ed
 0.000000100000000 1 1 0
1  49 0 0.000000000000000 15.000000000000000
0

0101000
+202 10 -155 10 *
Wi

0101100
+111 0 -115 0 -201 14 +154 17 *
Fa
0  0.000000100000000 17 0

0111000
+110 0 *
Wi

0101100
+119 0 -111 0 -199 14 +152 17 *
Fa
0  0.000000100000000 18 0

0111000
+108 0 *
Ve
0.000000100000000
3095.000000000000000 -5792.000500000000102 79.999999999997414
0 0

0101101
*
Ed
 0.000000100000000 1 1 0
1  50 0 0.000000000000000 80.000000000000000
0

0101000
+196 41 -106 41 *
Ve
0.000000100000000
3110.000000000000000 -5792.000500000000102 79.999999999997414
0 0

0101101
*
Ed
 0.000000100000000 1 1 0
1  51 0 0.000000000000000 80.000000000000000
0

0101000
+198 41 -104 41 *
Ed
 0.000000100000000 1 1 0
1  52 0 0.000000000000000 15.000000000000000
0

0101000
+106 44 -104 44 *
Wi

0101100
+105 0 -103 0 -195 24 +102 43 *
Fa
0  0.000000100000000 19 0

0111000
+101 0 *
Ve
0.000000100000000
3095.000000000000000 -5652.000500000000102 79.999999999997499
0 0

0101101
*
Ed
 0.000000100000000 1 1 0
1  53 0 0.000000000000000 80.000000000000000
0

0101000
+194 41 -99 41 *
Ed
 0.000000100000000 1 1 0
1  54 0 0.000000000000000 140.000000000000000
0

0101000
+99 44 -106 44 *
Wi

0101100
+98 19 -193 45 +97 46 -105 19 *
Ve
0.000000100001364
3094.999999999998636 -5687.000500000000102 39.999999999997470
0 0

0101101
*
Ed
 0.000000100001364 1 1 0
1  55 0 0.000000000000000 6.283185307179586
2  17 21 50 0.000000000000000 6.283185307179586
0

0101000
+95 51 -95 51 *
Wi

0101100
+94 49 *
Ve
0.000000100001364
3094.999999999998636 -5747.000500000000102 39.999999999997442
0 0

0101101
*
Ed
 0.000000100001364 1 1 0
1  56 0 0.000000000000000 6.283185307179586
2  18 22 50 0.000000000000000 6.283185307179586
0

0101000
+92 51 -92 51 *
Wi

0101100
+91 49 *
Fa
0  0.000000100000000 20 19

0111000
+96 0 +93 0 +90 0 *
Ve
0.000000100000000
3110.000000000000000 -5652.000500000000102 79.999999999997499
0 0

0101101
*
Ed
 0.000000100000000 1 1 0
1  57 0 0.000000000000000 80.000000000000000
0

0101000
+192 41 -88 41 *
Ed
 0.000000100000000 1 1 0
1  58 0 0.000000000000000 15.000000000000000
0

0101000
+88 44 -99 44 *
Wi

0101100
+87 0 -98 0 -191 24 +86 43 *
Fa
0  0.000000100000000 23 0

0111000
+85 0 *
Ed
 0.000000100000000 1 1 0
1  59 0 0.000000000000000 15.000000000000000
3  19 20CN 5 0 0.000000000000000 15.000000000000000
0

0101000
+188 10 -149 10 *
Wi

0101100
+83 0 -83 0 -187 14 +148 17 *
Fa
0  0.000000100000000 5 0

0111000
+82 0 *
Ed
 0.000000100000000 1 1 0
1  60 0 0.000000000000000 15.000000000000000
3  21 22CN 6 0 0.000000000000000 15.000000000000000
0

0101000
+185 10 -146 10 *
Wi

0101100
+80 0 -80 0 -184 14 +145 17 *
Fa
0  0.000000100000000 6 0

0111000
+79 0 *
Ed
 0.000000100000000 1 1 0
1  61 0 0.000000000000000 15.000000000000000
3  23 24CN 7 0 0.000000000000000 15.000000000000000
0

0101000
+182 10 -143 10 *
Wi

0101100
+77 0 -77 0 -181 14 +142 17 *
Fa
0  0.000000100000000 7 0

0111000
+76 0 *
Ed
 0.000000100000000 1 1 0
1  62 0 0.000000000000000 15.000000000000000
3  25 26CN 8 0 0.000000000000000 15.000000000000000
0

0101000
+179 10 -140 10 *
Wi

0101100
+74 0 -74 0 -178 14 +139 17 *
Fa
0  0.000000100000000 8 0

0111000
+73 0 *
Ed
 0.000000100000000 1 1 0
1  63 0 0.000000000000000 15.000000000000000
3  27 28CN 9 0 0.000000000000000 15.000000000000000
0

0101000
+176 10 -137 10 *
Wi

0101100
+71 0 -71 0 -175 14 +136 17 *
Fa
0  0.000000100000000 9 0

0111000
+70 0 *
Ed
 0.000000100000000 1 1 0
1  64 0 0.000000000000000 15.000000000000000
3  29 30CN 10 0 0.000000000000000 15.000000000000000
0

0101000
+173 10 -134 10 *
Wi

0101100
+68 0 -68 0 -172 14 +133 17 *
Fa
0  0.000000100000000 10 0

0111000
+67 0 *
Ed
 0.000000100000000 1 1 0
1  65 0 0.000000000000000 15.000000000000000
3  31 32CN 11 0 0.000000000000000 15.000000000000000
0

0101000
+170 10 -131 10 *
Wi

0101100
+65 0 -65 0 -169 14 +130 17 *
Fa
0  0.000000100000000 11 0

0111000
+64 0 *
Ed
 0.000000100000000 1 1 0
1  66 0 0.000000000000000 15.000000000000000
3  33 34CN 12 0 0.000000000000000 15.000000000000000
0

0101000
+167 10 -128 10 *
Wi

0101100
+62 0 -62 0 -166 14 +127 17 *
Fa
0  0.000000100000000 12 0

0111000
+61 0 *
Ve
0.000000100000000
1041.999999999998863 -4962.667000000000371 -171.000000000002217
0 0

0101101
*
Ed
 0.000000100000000 1 1 0
1  67 0 0.000000000000000 156.000000000000000
0

0101000
+161 34 -59 34 *
Ve
0.000000100000000
1041.999999999998863 -4722.667000000000371 -171.000000000002103
0 0

0101101
*
Ed
 0.000000100000000 1 1 0
1  68 0 0.000000000000000 240.000000000000000
0

0101000
+59 34 -57 34 *
Ed
 0.000000100000000 1 1 0
1  69 0 0.000000000000000 156.000000000000000
0

0101000
+57 34 -163 34 *
Wi

0101100
+160 53 +58 53 +56 53 +55 53 *
Ve
0.000000100000000
1041.999999999998863 -4757.667000000000371 -93.000000000002103
0 0

0101101
*
Ed
 0.000000100000000 1 1 0
1  70 0 0.000000000000000 6.283185307179586
2  35 25 54 0.000000000000000 6.283185307179586
0

0101000
+53 34 -53 34 *
Wi

0101100
+52 53 *
Ve
0.000000100000000
1041.999999999998863 -4817.667000000000371 -93.000000000002132
0 0

0101101
*
Ed
 0.000000100000000 1 1 0
1  71 0 0.000000000000000 6.283185307179586
2  36 26 54 0.000000000000000 6.283185307179586
0

0101000
+50 34 -50 34 *
Wi

0101100
+49 53 *
Fa
0  0.000000100000000 24 0

0111000
+54 0 +51 0 +48 0 *
Ve
0.000000100000000
1026.999999999998863 -4962.667000000000371 -171.000000000002217
0 0

0101101
*
Ed
 0.000000100000000 1 1 0
1  72 0 0.000000000000000 15.000000000000000
0

0101000
+46 35 -59 35 *
Ed
 0.000000100000000 1 1 0
1  73 0 0.000000000000000 156.000000000000000
0

0101000
+159 56 -46 56 *
Wi

0101100
+158 0 -45 0 -44 55 +58 33 *
Fa
0  0.000000100000000 27 0

0111000
+43 0 *
Ve
0.000000100000000
1026.999999999998863 -4722.667000000000371 -171.000000000002103
0 0

0101101
*
Ed
 0.000000100000000 1 1 0
1  74 0 0.000000000000000 15.000000000000000
0

0101000
+41 35 -57 35 *
Ed
 0.000000100000000 1 1 0
1  75 0 0.000000000000000 156.000000000000000
0

0101000
+41 56 -124 56 *
Wi

0101100
+40 0 -122 29 -39 55 +55 33 *
Fa
0  0.000000100000000 28 0

0111000
+38 0 *
Ed
 0.000000100000000 1 1 0
1  76 0 0.000000000000000 140.000000000000000
0

0101000
+104 44 -88 44 *
Wi

0101100
+103 19 -118 45 +36 46 -87 19 *
Ve
0.000000100000000
3110.000000000000000 -5747.000500000000102 39.999999999997442
0 0

0101101
*
Ed
 0.000000100000000 1 1 0
1  77 0 0.000000000000000 6.283185307179586
2  37 22 0 0.000000000000000 6.283185307179586
0

0101000
+34 57 -34 57 *
Wi

0101100
-33 0 *
Ve
0.000000100000000
3110.000000000000000 -5687.000500000000102 39.999999999997470
0 0

0101101
*
Ed
 0.000000100000000 1 1 0
1  78 0 0.000000000000000 6.283185307179586
2  38 21 0 0.000000000000000 6.283185307179586
0

0101000
+31 57 -31 57 *
Wi

0101100
-30 0 *
Fa
0  0.000000100000000 29 19

0111000
+35 0 +32 0 +29 0 *
Ed
 0.000000100000000 1 1 0
1  79 0 0.000000000000000 240.000000000000000
0

0101000
+46 56 -41 56 *
Wi

0101100
-114 29 +44 55 +27 55 +39 55 *
Ve
0.000000100000000
1026.999999999998863 -4757.667000000000371 -93.000000000002103
0 0

0101101
*
Ed
 0.000000100000000 1 1 0
1  80 0 0.000000000000000 6.283185307179586
2  39 25 59 0.000000000000000 6.283185307179586
0

0101000
+25 56 -25 56 *
Wi

0101100
+24 55 *
Ve
0.000000100000000
1026.999999999998863 -4817.667000000000371 -93.000000000002132
0 0

0101101
*
Ed
 0.000000100000000 1 1 0
1  81 0 0.000000000000000 6.283185307179586
2  40 26 59 0.000000000000000 6.283185307179586
0

0101000
+22 56 -22 56 *
Wi

0101100
+21 55 *
Fa
0  0.000000100000000 30 58

0111000
+26 0 +23 0 +20 0 *
Wi

0101100
+86 0 +97 0 +102 0 +36 0 *
Fa
0  0.000000100000000 31 0

0111000
+18 61 *
Ed
 0.000000100000000 1 1 0
1  82 0 0.000000000000000 15.000000000001364
3  41 42CN 21 0 0.000000000000000 15.000000000001364
0

0101000
+95 57 -31 57 *
Wi

0101100
-94 49 -16 0 +30 0 +16 0 *
Fa
0  0.000000100000000 21 0

0111000
+15 0 *
Ed
 0.000000100000000 1 1 0
1  83 0 0.000000000000000 15.000000000001364
3  43 44CN 22 0 0.000000000000000 15.000000000001364
0

0101000
+92 57 -34 57 *
Wi

0101100
-91 49 -13 0 +33 0 +13 0 *
Fa
0  0.000000100000000 22 0

0111000
+12 0 *
Wi

0101100
+45 0 -40 0 -27 55 +56 33 *
Fa
0  0.000000100000000 32 0

0111000
+10 0 *
Ed
 0.000000100000000 1 1 0
1  84 0 0.000000000000000 15.000000000000000
3  45 46CN 25 0 0.000000000000000 15.000000000000000
0

0101000
+25 35 -53 35 *
Wi

0101100
+8 0 -8 0 -24 55 +52 33 *
Fa
0  0.000000100000000 25 0

0111000
+7 0 *
Ed
 0.000000100000000 1 1 0
1  85 0 0.000000000000000 15.000000000000000
3  47 48CN 26 0 0.000000000000000 15.000000000000000
0

0101000
+22 35 -50 35 *
Wi

0101100
+5 0 -5 0 -21 55 +49 33 *
Fa
0  0.000000100000000 26 0

0111000
+4 0 *
Sh

0101100
-221 8 +214 8 -207 8 -164 19 +125 27 -120 27 -116 19 -112 27 -109 8 -107 8 
-100 19 -89 0 -84 19 +81 8 +78 8 +75 8 +72 8 +69 8 +66 8 +63 8 
+60 8 +47 52 -42 27 -37 27 -28 0 -19 27 +17 60 -14 0 -11 0 -9 27 
-6 27 -3 27 *
So

0100000
+2 0 *

+1 1 