
CASCADE Topology V1, (c) Matra-Datavision
Locations 58
1
1.000000000000000 0.000000000000000 0.000000000000000 0.000000000000000 
0.000000000000000 1.000000000000000 0.000000000000000 0.000000000000000 
0.000000000000000 0.000000000000000 1.000000000000000 0.000000000000000 
1
1.000000000000000 0.000000000000000 0.000000000000000 0.000000000000000 
0.000000000000000 -1.000000000000000 -0.000000000000000 0.000000000000000 
0.000000000000000 0.000000000000000 -1.000000000000000 0.000000000000000 
1
1.000000000000000 0.000000000000000 0.000000000000000 0.000000000000000 
0.000000000000000 0.000000000000000 -1.000000000000000 0.000000000000000 
0.000000000000000 1.000000000000000 0.000000000000000 0.000000000000000 
2  1 1 2 1 3 -1 0
1
1.000000000000000 0.000000000000000 0.000000000000000 -0.000000000000000 
0.000000000000000 1.000000000000000 0.000000000000000 15.000000000000000 
0.000000000000000 0.000000000000000 1.000000000000000 -0.000000000000002 
2  1 1 2 1 3 -1 5 1 0
1
1.000000000000000 0.000000000000000 0.000000000000000 0.000000000000000 
0.000000000000000 0.000000000000000 -1.000000000000000 0.000000000000000 
0.000000000000000 1.000000000000000 0.000000000000000 0.000000000000000 
1
1.000000000000000 0.000000000000000 0.000000000000000 0.000000000000000 
0.000000000000000 -1.000000000000000 -0.000000000000000 0.000000000000000 
0.000000000000000 0.000000000000000 -1.000000000000000 0.000000000000000 
1
1.000000000000000 0.000000000000000 0.000000000000000 0.000000000000000 
0.000000000000000 1.000000000000000 0.000000000000000 0.000000000000000 
0.000000000000000 0.000000000000000 1.000000000000000 0.000000000000000 
2  7 1 8 -1 9 -1 0
1
1.000000000000000 0.000000000000000 0.000000000000000 0.000000000000000 
0.000000000000000 1.000000000000000 0.000000000000000 -10.000000000000000 
0.000000000000000 0.000000000000000 1.000000000000000 0.000000000000001 
2  11 -1 7 1 8 -1 9 -1 0
2  8 -1 9 -1 0
1
1.000000000000000 0.000000000000000 0.000000000000000 0.000000000000000 
0.000000000000000 0.000000000000000 -1.000000000000000 0.000000000000000 
0.000000000000000 1.000000000000000 0.000000000000000 0.000000000000000 
1
1.000000000000000 0.000000000000000 0.000000000000000 0.000000000000000 
0.000000000000000 -1.000000000000000 -0.000000000000000 0.000000000000000 
0.000000000000000 0.000000000000000 -1.000000000000000 0.000000000000000 
1
1.000000000000000 0.000000000000000 0.000000000000000 0.000000000000000 
0.000000000000000 1.000000000000000 0.000000000000000 0.000000000000000 
0.000000000000000 0.000000000000000 1.000000000000000 0.000000000000000 
2  14 1 15 -1 16 -1 0
1
1.000000000000000 0.000000000000000 0.000000000000000 0.000000000000000 
0.000000000000000 1.000000000000000 0.000000000000000 -10.000000000000000 
0.000000000000000 0.000000000000000 1.000000000000000 0.000000000000001 
2  18 -1 14 1 15 -1 16 -1 0
1
1.000000000000000 0.000000000000000 0.000000000000000 0.000000000000000 
0.000000000000000 0.000000000000000 -1.000000000000000 0.000000000000000 
0.000000000000000 1.000000000000000 0.000000000000000 0.000000000000000 
1
1.000000000000000 0.000000000000000 0.000000000000000 0.000000000000000 
0.000000000000000 -1.000000000000000 -0.000000000000000 0.000000000000000 
0.000000000000000 0.000000000000000 -1.000000000000000 0.000000000000000 
1
1.000000000000000 0.000000000000000 0.000000000000000 0.000000000000000 
0.000000000000000 1.000000000000000 0.000000000000000 0.000000000000000 
0.000000000000000 0.000000000000000 1.000000000000000 0.000000000000000 
2  20 1 21 -1 22 -1 0
1
1.000000000000000 0.000000000000000 0.000000000000000 -0.000000000000000 
0.000000000000000 1.000000000000000 0.000000000000000 10.000000000000000 
0.000000000000000 0.000000000000000 1.000000000000000 -0.000000000000001 
2  24 -1 20 1 21 -1 22 -1 0
1
1.000000000000000 0.000000000000000 0.000000000000000 0.000000000000000 
0.000000000000000 -0.000000000000000 -1.000000000000000 0.000000000000000 
0.000000000000000 1.000000000000000 -0.000000000000000 0.000000000000000 
1
1.000000000000000 0.000000000000000 0.000000000000000 0.000000000000000 
0.000000000000000 -0.000000000000000 -1.000000000000000 0.000000000000000 
0.000000000000000 1.000000000000000 -0.000000000000000 0.000000000000000 
1
1.000000000000000 0.000000000000000 0.000000000000000 0.000000000000000 
0.000000000000000 -0.000000000000000 -1.000000000000000 0.000000000000000 
0.000000000000000 1.000000000000000 -0.000000000000000 0.000000000000000 
1
1.000000000000000 0.000000000000000 0.000000000000000 0.000000000000000 
0.000000000000000 0.000000000000000 -1.000000000000000 0.000000000000000 
0.000000000000000 1.000000000000000 0.000000000000000 0.000000000000000 
2  26 -1 27 1 28 -1 29 1 20 -1 24 -1 20 1 21 -1 22 -1 0
1
1.000000000000000 0.000000000000000 0.000000000000000 0.000000000000000 
0.000000000000000 0.000000000000000 -1.000000000000000 0.000000000000000 
0.000000000000000 1.000000000000000 0.000000000000000 0.000000000000000 
1
1.000000000000000 0.000000000000000 0.000000000000000 0.000000000000000 
0.000000000000000 -1.000000000000000 -0.000000000000000 0.000000000000000 
0.000000000000000 0.000000000000000 -1.000000000000000 0.000000000000000 
1
1.000000000000000 0.000000000000000 0.000000000000000 0.000000000000000 
0.000000000000000 1.000000000000000 0.000000000000000 0.000000000000000 
0.000000000000000 0.000000000000000 1.000000000000000 0.000000000000000 
2  31 1 32 -1 33 -1 0
1
1.000000000000000 0.000000000000000 0.000000000000000 -0.000000000000000 
0.000000000000000 1.000000000000000 0.000000000000000 15.000000000000000 
0.000000000000000 0.000000000000000 1.000000000000000 -0.000000000000002 
2  35 -1 31 1 32 -1 33 -1 0
2  26 -1 27 1 28 -1 29 1 31 -1 35 -1 31 1 32 -1 33 -1 0
1
1.000000000000000 0.000000000000000 0.000000000000000 0.000000000000000 
0.000000000000000 0.000000000000000 -1.000000000000000 0.000000000000000 
0.000000000000000 1.000000000000000 0.000000000000000 0.000000000000000 
1
1.000000000000000 0.000000000000000 0.000000000000000 0.000000000000000 
0.000000000000000 -1.000000000000000 -0.000000000000000 0.000000000000000 
0.000000000000000 0.000000000000000 -1.000000000000000 0.000000000000000 
1
1.000000000000000 0.000000000000000 0.000000000000000 0.000000000000000 
0.000000000000000 1.000000000000000 0.000000000000000 0.000000000000000 
0.000000000000000 0.000000000000000 1.000000000000000 0.000000000000000 
2  38 1 39 -1 40 -1 0
1
1.000000000000000 0.000000000000000 0.000000000000000 -0.000000000000000 
0.000000000000000 1.000000000000000 0.000000000000000 15.000000000000000 
0.000000000000000 0.000000000000000 1.000000000000000 -0.000000000000002 
2  42 -1 38 1 39 -1 40 -1 0
2  26 -1 27 1 28 -1 29 1 38 -1 42 -1 38 1 39 -1 40 -1 0
1
1.000000000000000 0.000000000000000 0.000000000000000 0.000000000000000 
0.000000000000000 0.000000000000000 -1.000000000000000 0.000000000000000 
0.000000000000000 1.000000000000000 0.000000000000000 0.000000000000000 
1
1.000000000000000 0.000000000000000 0.000000000000000 0.000000000000000 
0.000000000000000 -1.000000000000000 -0.000000000000000 0.000000000000000 
0.000000000000000 0.000000000000000 -1.000000000000000 0.000000000000000 
1
1.000000000000000 0.000000000000000 0.000000000000000 0.000000000000000 
0.000000000000000 1.000000000000000 0.000000000000000 0.000000000000000 
0.000000000000000 0.000000000000000 1.000000000000000 0.000000000000000 
2  45 1 46 -1 47 -1 0
1
1.000000000000000 0.000000000000000 0.000000000000000 -0.000000000000000 
0.000000000000000 1.000000000000000 0.000000000000000 15.000000000000000 
0.000000000000000 0.000000000000000 1.000000000000000 -0.000000000000002 
2  49 -1 45 1 46 -1 47 -1 0
2  26 -1 27 1 28 -1 29 1 45 -1 49 -1 45 1 46 -1 47 -1 0
2  3 1 2 -1 1 -1 0
2  5 -1 3 1 2 -1 1 -1 0
2  26 -1 27 1 28 -1 29 1 3 -1 5 -1 3 1 2 -1 1 -1 0
2  3 -1 0
2  8 -1 9 -1 1 1 2 1 0
2  1 1 2 1 0
2  3 -1 5 1 0
Curve2ds 91
1 0.00000000000000000 0.00000000000000000 0.00000000000000000 -1.00000000000000000 
1 80.00000000000000000 0.00000000000000000 0.00000000000000000 -1.00000000000000000 
1 250.00000000000000000 0.00000000000000000 0.00000000000000000 -1.00000000000000000 
1 0.00000000000000000 0.00000000000000000 0.00000000000000000 -1.00000000000000000 
1 0.00000000000000000 0.00000000000000000 1.00000000000000000 0.00000000000000000 
1 0.00000000000000000 -10.00000000000000000 1.00000000000000000 0.00000000000000000 
1 40.00000000000000000 -125.00000000000000000 -0.00000000000000000 1.00000000000000000 
1 0.00000000000000000 0.00000000000000000 1.00000000000000000 0.00000000000000000 
1 0.00000000000000000 -10.00000000000000000 1.00000000000000000 0.00000000000000000 
1 0.00000000000000000 0.00000000000000000 1.00000000000000000 0.00000000000000000 
1 0.00000000000000000 -10.00000000000000000 1.00000000000000000 0.00000000000000000 
1 1441.12297997204541389 1345.13702775185038263 0.00000000000000000 -1.00000000000000000 
1 0.00000000000000000 0.00000000000000000 1.00000000000000000 0.00000000000000000 
1 0.00000000000000000 -15.00000000000000000 1.00000000000000000 0.00000000000000000 
1 1436.12297997204541389 1345.13702775185038263 0.00000000000000000 -1.00000000000000000 
1 0.00000000000000000 0.00000000000000000 1.00000000000000000 0.00000000000000000 
1 0.00000000000000000 -15.00000000000000000 1.00000000000000000 0.00000000000000000 
1 1436.12297997204541389 1345.13702775185038263 0.00000000000000000 -1.00000000000000000 
1 0.00000000000000000 0.00000000000000000 1.00000000000000000 0.00000000000000000 
1 0.00000000000000000 -15.00000000000000000 1.00000000000000000 0.00000000000000000 
1 1436.12297997204541389 1345.13702775185038263 0.00000000000000000 -1.00000000000000000 
1 0.00000000000000000 0.00000000000000000 1.00000000000000000 0.00000000000000000 
1 0.00000000000000000 -15.00000000000000000 1.00000000000000000 0.00000000000000000 
1 1436.12297997204541389 1345.13702775185038263 0.00000000000000000 -1.00000000000000000 
1 80.00000000000000000 0.00000000000000000 0.00000000000000000 -1.00000000000000000 
1 0.00000000000000000 0.00000000000000000 1.00000000000000000 0.00000000000000000 
1 0.00000000000000000 -10.00000000000000000 1.00000000000000000 0.00000000000000000 
1 40.00000000000000000 125.00000000000000000 -1.00000000000000000 0.00000000000000000 
1 0.00000000000000000 0.00000000000000000 1.00000000000000000 0.00000000000000000 
1 0.00000000000000000 -10.00000000000000000 1.00000000000000000 0.00000000000000000 
1 0.00000000000000000 0.00000000000000000 1.00000000000000000 0.00000000000000000 
1 0.00000000000000000 -10.00000000000000000 1.00000000000000000 0.00000000000000000 
1 0.00000000000000000 0.00000000000000000 1.00000000000000000 0.00000000000000000 
1 0.00000000000000000 -15.00000000000000000 1.00000000000000000 0.00000000000000000 
1 0.00000000000000000 0.00000000000000000 1.00000000000000000 0.00000000000000000 
1 0.00000000000000000 -15.00000000000000000 1.00000000000000000 0.00000000000000000 
1 0.00000000000000000 0.00000000000000000 1.00000000000000000 0.00000000000000000 
1 0.00000000000000000 -15.00000000000000000 1.00000000000000000 0.00000000000000000 
1 0.00000000000000000 0.00000000000000000 1.00000000000000000 0.00000000000000000 
1 0.00000000000000000 -15.00000000000000000 1.00000000000000000 0.00000000000000000 
1 0.00000000000000000 0.00000000000000000 0.00000000000000000 -1.00000000000000000 
1 -40.00000000000000000 125.00000000000000000 0.00000000000000000 -1.00000000000000000 
1 -40.00000000000000000 -125.00000000000000000 1.00000000000000000 0.00000000000000000 
1 0.00000000000000000 0.00000000000000000 1.00000000000000000 0.00000000000000000 
1 0.00000000000000111 -10.00000000000000000 1.00000000000000000 0.00000000000000000 
1 0.00000000000000000 0.00000000000000000 1.00000000000000000 0.00000000000000000 
1 0.00000000000000111 -10.00000000000000000 1.00000000000000000 0.00000000000000000 
1 0.00000000000000000 0.00000000000000000 1.00000000000000000 0.00000000000000000 
1 -0.00000000000000111 -10.00000000000000000 1.00000000000000000 0.00000000000000000 
1 0.00000000000000000 0.00000000000000000 1.00000000000000000 0.00000000000000000 
1 -0.00000000000000167 -15.00000000000000000 1.00000000000000000 0.00000000000000000 
1 0.00000000000000000 0.00000000000000000 1.00000000000000000 0.00000000000000000 
1 -0.00000000000000167 -15.00000000000000000 1.00000000000000000 0.00000000000000000 
1 0.00000000000000000 0.00000000000000000 1.00000000000000000 0.00000000000000000 
1 -0.00000000000000167 -15.00000000000000000 1.00000000000000000 0.00000000000000000 
1 0.00000000000000000 0.00000000000000000 1.00000000000000000 0.00000000000000000 
1 -0.00000000000000167 -15.00000000000000000 1.00000000000000000 0.00000000000000000 
1 0.00000000000000000 0.00000000000000000 0.00000000000000000 -1.00000000000000000 
1 6.28318530717958623 0.00000000000000000 0.00000000000000000 -1.00000000000000000 
1 0.00000000000000000 0.00000000000000000 1.00000000000000000 0.00000000000000000 
1 0.00000000000000000 -10.00000000000000000 1.00000000000000000 0.00000000000000000 
2 0.00000000000000000 85.00000000000000000 0.00000000000000000 -1.00000000000000000 -1.00000000000000000 -0.00000000000000000 5.00000000000000000
1 0.00000000000000000 0.00000000000000000 1.00000000000000000 0.00000000000000000 
1 0.00000000000000000 -10.00000000000000000 1.00000000000000000 0.00000000000000000 
1 0.00000000000000000 0.00000000000000000 1.00000000000000000 0.00000000000000000 
1 0.00000000000000000 -10.00000000000000000 1.00000000000000000 0.00000000000000000 
1 0.00000000000000000 0.00000000000000000 1.00000000000000000 0.00000000000000000 
1 0.00000000000000000 -15.00000000000000000 1.00000000000000000 0.00000000000000000 
1 0.00000000000000000 0.00000000000000000 1.00000000000000000 0.00000000000000000 
1 0.00000000000000000 -15.00000000000000000 1.00000000000000000 0.00000000000000000 
1 0.00000000000000000 0.00000000000000000 1.00000000000000000 0.00000000000000000 
1 0.00000000000000000 -15.00000000000000000 1.00000000000000000 0.00000000000000000 
1 0.00000000000000000 0.00000000000000000 1.00000000000000000 0.00000000000000000 
1 0.00000000000000000 -15.00000000000000000 1.00000000000000000 0.00000000000000000 
1 0.00000000000000000 0.00000000000000000 0.00000000000000000 -1.00000000000000000 
1 6.28318530717958623 0.00000000000000000 0.00000000000000000 -1.00000000000000000 
1 0.00000000000000000 0.00000000000000000 1.00000000000000000 0.00000000000000000 
1 0.00000000000000000 -10.00000000000000000 1.00000000000000000 0.00000000000000000 
2 0.00000000000000000 -85.00000000000000000 0.00000000000000000 -1.00000000000000000 -1.00000000000000000 -0.00000000000000000 5.00000000000000000
1 0.00000000000000000 0.00000000000000000 1.00000000000000000 0.00000000000000000 
1 0.00000000000000000 -10.00000000000000000 1.00000000000000000 0.00000000000000000 
1 0.00000000000000000 0.00000000000000000 1.00000000000000000 0.00000000000000000 
1 0.00000000000000000 -10.00000000000000000 1.00000000000000000 0.00000000000000000 
1 0.00000000000000000 0.00000000000000000 1.00000000000000000 0.00000000000000000 
1 0.00000000000000000 -15.00000000000000000 1.00000000000000000 0.00000000000000000 
1 0.00000000000000000 0.00000000000000000 1.00000000000000000 0.00000000000000000 
1 0.00000000000000000 -15.00000000000000000 1.00000000000000000 0.00000000000000000 
1 0.00000000000000000 0.00000000000000000 1.00000000000000000 0.00000000000000000 
1 0.00000000000000000 -15.00000000000000000 1.00000000000000000 0.00000000000000000 
1 0.00000000000000000 0.00000000000000000 1.00000000000000000 0.00000000000000000 
1 0.00000000000000000 -15.00000000000000000 1.00000000000000000 0.00000000000000000 
Curves 12
1 3902.76032836973809026 0.00000000000000000 0.00000000000000000 -0.00000000000000000 1.00000000000000000 -0.00000000000000011 
1 3652.76032836973809026 0.00000000000000000 0.00000000000000000 -0.00000000000000000 1.00000000000000000 -0.00000000000000011 
1 3902.76032836973809026 0.00000000000000000 0.00000000000000000 -1.00000000000000000 0.00000000000000000 0.00000000000000000 
1 3652.76032836973809026 0.00000000000000888 80.00000000000000000 -0.00000000000000000 1.00000000000000000 -0.00000000000000011 
1 3652.76032836973809026 0.00000000000000000 0.00000000000000000 0.00000000000000000 1.00000000000000000 0.00000000000000000 
1 3902.76032836973809026 0.00000000000000888 80.00000000000000000 -0.00000000000000000 1.00000000000000000 -0.00000000000000011 
1 3652.76032836973809026 80.00000000000000000 0.00000000000000000 1.00000000000000000 0.00000000000000000 0.00000000000000000 
1 3902.76032836973809026 80.00000000000000000 0.00000000000000000 0.00000000000000000 -1.00000000000000000 0.00000000000000000 
1 3697.76032836973809026 0.00000000000000444 40.00000000000000000 -0.00000000000000000 1.00000000000000000 -0.00000000000000011 
2 3692.76032836973809026 40.00000000000000000 0.00000000000000000 0.00000000000000000 0.00000000000000000 1.00000000000000000 1.00000000000000000 0.00000000000000000 -0.00000000000000000 -0.00000000000000000 1.00000000000000000 0.00000000000000000 5.00000000000000000
1 3867.76032836973809026 0.00000000000000444 40.00000000000000000 -0.00000000000000000 1.00000000000000000 -0.00000000000000011 
2 3862.76032836973809026 40.00000000000000000 0.00000000000000000 0.00000000000000000 0.00000000000000000 1.00000000000000000 1.00000000000000000 0.00000000000000000 -0.00000000000000000 -0.00000000000000000 1.00000000000000000 0.00000000000000000 5.00000000000000000
Polygon3D 0
PolygonOnTriangulations 0
Surfaces 38
1 3902.76032836973809026 0.00000000000000000 0.00000000000000000 0.00000000000000000 0.00000000000000011 1.00000000000000000 -1.00000000000000000 0.00000000000000000 0.00000000000000000 0.00000000000000000 -1.00000000000000000 0.00000000000000011 
1 3902.76032836973809026 0.00000000000000888 80.00000000000000000 -1.00000000000000000 -0.00000000000000000 0.00000000000000000 0.00000000000000000 -0.00000000000000011 -1.00000000000000000 0.00000000000000000 -1.00000000000000000 0.00000000000000011 
1 3652.76032836973809026 0.00000000000000000 0.00000000000000000 1.00000000000000000 0.00000000000000000 -0.00000000000000000 0.00000000000000000 0.00000000000000011 1.00000000000000000 0.00000000000000000 -1.00000000000000000 0.00000000000000011 
1 3902.76032836973809026 0.00000000000000000 0.00000000000000000 -0.00000000000000000 -0.00000000000000011 -1.00000000000000000 -1.00000000000000000 0.00000000000000000 0.00000000000000000 0.00000000000000000 1.00000000000000000 -0.00000000000000011 
1 3777.76032836973809026 -40.00000000000000000 0.00000000000000888 0.00000000000000000 0.00000000000000022 1.00000000000000000 0.00000000000000000 1.00000000000000000 -0.00000000000000022 -1.00000000000000000 0.00000000000000000 0.00000000000000000 
1 3902.76032836973809026 0.00000000000000000 0.00000000000000000 -0.00000000000000000 -0.00000000000000011 -1.00000000000000000 -1.00000000000000000 0.00000000000000000 0.00000000000000000 0.00000000000000000 1.00000000000000000 -0.00000000000000011 
1 3902.76032836973809026 0.00000000000000000 0.00000000000000000 0.00000000000000000 0.00000000000000011 1.00000000000000000 -1.00000000000000000 0.00000000000000000 0.00000000000000000 0.00000000000000000 -1.00000000000000000 0.00000000000000011 
1 2557.62330061788770763 -0.00000000000032221 1451.12297997204541389 0.00000000000000000 -1.00000000000000000 -0.00000000000000022 0.00000000000000000 0.00000000000000022 -1.00000000000000000 1.00000000000000000 0.00000000000000000 0.00000000000000000 
1 3902.76032836973809026 0.00000000000000000 0.00000000000000000 0.00000000000000000 0.00000000000000011 1.00000000000000000 -1.00000000000000000 0.00000000000000000 0.00000000000000000 0.00000000000000000 -1.00000000000000000 0.00000000000000011 
1 3902.76032836973809026 0.00000000000000000 0.00000000000000000 0.00000000000000000 0.00000000000000011 1.00000000000000000 -1.00000000000000000 0.00000000000000000 0.00000000000000000 0.00000000000000000 -1.00000000000000000 0.00000000000000011 
1 3902.76032836973809026 0.00000000000000000 0.00000000000000000 0.00000000000000000 0.00000000000000011 1.00000000000000000 -1.00000000000000000 0.00000000000000000 0.00000000000000000 0.00000000000000000 -1.00000000000000000 0.00000000000000011 
1 3652.76032836973809026 0.00000000000000000 0.00000000000000000 -1.00000000000000000 0.00000000000000000 0.00000000000000000 0.00000000000000000 0.00000000000000011 1.00000000000000000 0.00000000000000000 1.00000000000000000 -0.00000000000000011 
1 3652.76032836973809026 0.00000000000000000 0.00000000000000000 -1.00000000000000000 0.00000000000000000 0.00000000000000000 0.00000000000000000 0.00000000000000011 1.00000000000000000 0.00000000000000000 1.00000000000000000 -0.00000000000000011 
1 3652.76032836973809026 0.00000000000000000 0.00000000000000000 1.00000000000000000 0.00000000000000000 -0.00000000000000000 0.00000000000000000 0.00000000000000011 1.00000000000000000 0.00000000000000000 -1.00000000000000000 0.00000000000000011 
1 3652.76032836973809026 0.00000000000000000 0.00000000000000000 1.00000000000000000 0.00000000000000000 -0.00000000000000000 0.00000000000000000 0.00000000000000011 1.00000000000000000 0.00000000000000000 -1.00000000000000000 0.00000000000000011 
1 3652.76032836973809026 0.00000000000000000 0.00000000000000000 1.00000000000000000 0.00000000000000000 -0.00000000000000000 0.00000000000000000 0.00000000000000011 1.00000000000000000 0.00000000000000000 -1.00000000000000000 0.00000000000000011 
1 3652.76032836973809026 0.00000000000000000 0.00000000000000000 1.00000000000000000 0.00000000000000000 -0.00000000000000000 0.00000000000000000 0.00000000000000011 1.00000000000000000 0.00000000000000000 -1.00000000000000000 0.00000000000000011 
1 3652.76032836973809026 0.00000000000000888 80.00000000000000000 0.00000000000000000 -0.00000000000000011 -1.00000000000000000 1.00000000000000000 0.00000000000000000 0.00000000000000000 0.00000000000000000 -1.00000000000000000 0.00000000000000011 
1 3902.76032836973809026 0.00000000000000888 80.00000000000000000 1.00000000000000000 0.00000000000000000 0.00000000000000000 0.00000000000000000 -0.00000000000000011 -1.00000000000000000 0.00000000000000000 1.00000000000000000 -0.00000000000000011 
1 3902.76032836973809026 0.00000000000000888 80.00000000000000000 1.00000000000000000 0.00000000000000000 0.00000000000000000 0.00000000000000000 -0.00000000000000011 -1.00000000000000000 0.00000000000000000 1.00000000000000000 -0.00000000000000011 
1 3902.76032836973809026 0.00000000000000888 80.00000000000000000 -1.00000000000000000 -0.00000000000000000 0.00000000000000000 0.00000000000000000 -0.00000000000000011 -1.00000000000000000 0.00000000000000000 -1.00000000000000000 0.00000000000000011 
1 3902.76032836973809026 0.00000000000000888 80.00000000000000000 -1.00000000000000000 -0.00000000000000000 0.00000000000000000 0.00000000000000000 -0.00000000000000011 -1.00000000000000000 0.00000000000000000 -1.00000000000000000 0.00000000000000011 
1 3902.76032836973809026 0.00000000000000888 80.00000000000000000 -1.00000000000000000 -0.00000000000000000 0.00000000000000000 0.00000000000000000 -0.00000000000000011 -1.00000000000000000 0.00000000000000000 -1.00000000000000000 0.00000000000000011 
1 3902.76032836973809026 0.00000000000000888 80.00000000000000000 -1.00000000000000000 -0.00000000000000000 0.00000000000000000 0.00000000000000000 -0.00000000000000011 -1.00000000000000000 0.00000000000000000 -1.00000000000000000 0.00000000000000011 
2 3692.76032836973809026 0.00000000000000444 40.00000000000000000 0.00000000000000000 -1.00000000000000000 0.00000000000000011 1.00000000000000000 0.00000000000000000 0.00000000000000000 -0.00000000000000000 0.00000000000000011 1.00000000000000000 5.00000000000000000
2 3692.76032836973809026 0.00000000000000444 40.00000000000000000 -0.00000000000000000 1.00000000000000000 -0.00000000000000011 1.00000000000000000 0.00000000000000000 0.00000000000000000 -0.00000000000000000 0.00000000000000011 1.00000000000000000 5.00000000000000000
2 3692.76032836973809026 0.00000000000000444 40.00000000000000000 -0.00000000000000000 1.00000000000000000 -0.00000000000000011 1.00000000000000000 0.00000000000000000 0.00000000000000000 -0.00000000000000000 0.00000000000000011 1.00000000000000000 5.00000000000000000
2 3692.76032836973809026 0.00000000000000444 40.00000000000000000 0.00000000000000000 -1.00000000000000000 0.00000000000000011 1.00000000000000000 0.00000000000000000 0.00000000000000000 -0.00000000000000000 0.00000000000000011 1.00000000000000000 5.00000000000000000
2 3692.76032836973809026 0.00000000000000444 40.00000000000000000 0.00000000000000000 -1.00000000000000000 0.00000000000000011 1.00000000000000000 0.00000000000000000 0.00000000000000000 -0.00000000000000000 0.00000000000000011 1.00000000000000000 5.00000000000000000
2 3692.76032836973809026 0.00000000000000444 40.00000000000000000 0.00000000000000000 -1.00000000000000000 0.00000000000000011 1.00000000000000000 0.00000000000000000 0.00000000000000000 -0.00000000000000000 0.00000000000000011 1.00000000000000000 5.00000000000000000
2 3692.76032836973809026 0.00000000000000444 40.00000000000000000 0.00000000000000000 -1.00000000000000000 0.00000000000000011 1.00000000000000000 0.00000000000000000 0.00000000000000000 -0.00000000000000000 0.00000000000000011 1.00000000000000000 5.00000000000000000
2 3862.76032836973809026 0.00000000000000444 40.00000000000000000 0.00000000000000000 -1.00000000000000000 0.00000000000000011 1.00000000000000000 0.00000000000000000 0.00000000000000000 -0.00000000000000000 0.00000000000000011 1.00000000000000000 5.00000000000000000
2 3862.76032836973809026 0.00000000000000444 40.00000000000000000 -0.00000000000000000 1.00000000000000000 -0.00000000000000011 1.00000000000000000 0.00000000000000000 0.00000000000000000 -0.00000000000000000 0.00000000000000011 1.00000000000000000 5.00000000000000000
2 3862.76032836973809026 0.00000000000000444 40.00000000000000000 -0.00000000000000000 1.00000000000000000 -0.00000000000000011 1.00000000000000000 0.00000000000000000 0.00000000000000000 -0.00000000000000000 0.00000000000000011 1.00000000000000000 5.00000000000000000
2 3862.76032836973809026 0.00000000000000444 40.00000000000000000 0.00000000000000000 -1.00000000000000000 0.00000000000000011 1.00000000000000000 0.00000000000000000 0.00000000000000000 -0.00000000000000000 0.00000000000000011 1.00000000000000000 5.00000000000000000
2 3862.76032836973809026 0.00000000000000444 40.00000000000000000 0.00000000000000000 -1.00000000000000000 0.00000000000000011 1.00000000000000000 0.00000000000000000 0.00000000000000000 -0.00000000000000000 0.00000000000000011 1.00000000000000000 5.00000000000000000
2 3862.76032836973809026 0.00000000000000444 40.00000000000000000 0.00000000000000000 -1.00000000000000000 0.00000000000000011 1.00000000000000000 0.00000000000000000 0.00000000000000000 -0.00000000000000000 0.00000000000000011 1.00000000000000000 5.00000000000000000
2 3862.76032836973809026 0.00000000000000444 40.00000000000000000 0.00000000000000000 -1.00000000000000000 0.00000000000000011 1.00000000000000000 0.00000000000000000 0.00000000000000000 -0.00000000000000000 0.00000000000000011 1.00000000000000000 5.00000000000000000
Triangulations 0

TShapes 36
Ve
0.000000100000006
3902.760328369738090 0.000000000000000 0.000000000000000
0 0

0101101
*
Ed
 0.000000100000006 1 1 0
1  1 0 0.000000000000000 15.000000000000000
2  1 1 0 0.000000000000000 15.000000000000000
2  2 2 0 0.000000000000000 15.000000000000000
0

0101000
+36 4 -36 6 *
Ve
0.000000100000006
3652.760328369738090 0.000000000000000 0.000000000000000
0 0

0101101
*
Ed
 0.000000100000006 1 1 0
1  2 0 0.000000000000000 15.000000000000000
2  3 1 0 0.000000000000000 15.000000000000000
2  4 3 0 0.000000000000000 15.000000000000000
0

0101000
+34 4 -34 6 *
Ed
 0.000000100000006 1 1 0
1  3 0 0.000000000000000 250.000000000000000
2  5 4 10 0.000000000000000 250.000000000000000
2  6 4 12 0.000000000000000 250.000000000000000
2  7 5 13 0.000000000000000 250.000000000000000
2  8 6 17 0.000000000000000 250.000000000000000
2  9 6 19 0.000000000000000 250.000000000000000
2  10 7 23 0.000000000000000 250.000000000000000
2  11 7 25 0.000000000000000 250.000000000000000
2  12 8 30 0.000000000000000 250.000000000000000
2  13 9 34 0.000000000000000 250.000000000000000
2  14 9 36 0.000000000000000 250.000000000000000
2  15 8 37 0.000000000000000 250.000000000000000
2  16 10 41 0.000000000000000 250.000000000000000
2  17 10 43 0.000000000000000 250.000000000000000
2  18 8 44 0.000000000000000 250.000000000000000
2  19 11 48 0.000000000000000 250.000000000000000
2  20 11 50 0.000000000000000 250.000000000000000
2  21 8 51 0.000000000000000 250.000000000000000
2  22 1 52 0.000000000000000 250.000000000000000
2  23 1 53 0.000000000000000 250.000000000000000
2  24 8 54 0.000000000000000 250.000000000000000
0

0101000
+36 0 -34 0 *
Wi

0101100
+35 0 -33 0 -32 4 +32 6 *
Fa
0  0.000000100000006 1 0

0111000
+31 0 *
Ve
0.000000100000006
3652.760328369738090 80.000000000000000 0.000000000000000
0 0

0101101
*
Ed
 0.000000100000006 1 1 0
1  4 0 0.000000000000000 15.000000000000000
2  25 3 0 0.000000000000000 15.000000000000000
0

0101000
+29 4 -29 6 *
Ed
 0.000000100000006 1 1 0
1  5 0 0.000000000000000 80.000000000000000
2  26 12 10 0.000000000000000 80.000000000000000
2  27 12 12 0.000000000000000 80.000000000000000
2  28 5 13 0.000000000000000 80.000000000000000
2  29 13 17 0.000000000000000 80.000000000000000
2  30 13 19 0.000000000000000 80.000000000000000
2  31 14 23 0.000000000000000 80.000000000000000
2  32 14 25 0.000000000000000 80.000000000000000
2  33 15 34 0.000000000000000 80.000000000000000
2  34 15 36 0.000000000000000 80.000000000000000
2  35 16 41 0.000000000000000 80.000000000000000
2  36 16 43 0.000000000000000 80.000000000000000
2  37 17 48 0.000000000000000 80.000000000000000
2  38 17 50 0.000000000000000 80.000000000000000
2  39 3 52 0.000000000000000 80.000000000000000
2  40 3 53 0.000000000000000 80.000000000000000
0

0101000
+34 0 -29 0 *
Wi

0101100
+33 0 -28 0 -27 4 +27 6 *
Fa
0  0.000000100000006 3 0

0111000
+26 0 *
Ve
0.000000100000006
3902.760328369738090 80.000000000000000 0.000000000000000
0 0

0101101
*
Ed
 0.000000100000006 1 1 0
1  6 0 0.000000000000000 15.000000000000000
2  41 2 0 0.000000000000000 15.000000000000000
0

0101000
+24 4 -24 6 *
Ed
 0.000000100000006 1 1 0
1  7 0 0.000000000000000 250.000000000000000
2  42 5 13 0.000000000000000 250.000000000000000
0

0101000
+29 0 -24 0 *
Wi

0101100
+28 0 -23 0 -22 4 +22 6 *
Fa
0  0.000000100000006 18 0

0111000
+21 0 *
Ed
 0.000000100000006 1 1 0
1  8 0 0.000000000000000 80.000000000000000
2  43 5 13 0.000000000000000 80.000000000000000
2  44 19 10 0.000000000000000 80.000000000000000
2  45 19 12 0.000000000000000 80.000000000000000
2  46 20 17 0.000000000000000 80.000000000000000
2  47 20 19 0.000000000000000 80.000000000000000
2  48 21 23 0.000000000000000 80.000000000000000
2  49 21 25 0.000000000000000 80.000000000000000
2  50 22 34 0.000000000000000 80.000000000000000
2  51 22 36 0.000000000000000 80.000000000000000
2  52 23 41 0.000000000000000 80.000000000000000
2  53 23 43 0.000000000000000 80.000000000000000
2  54 24 48 0.000000000000000 80.000000000000000
2  55 24 50 0.000000000000000 80.000000000000000
2  56 2 52 0.000000000000000 80.000000000000000
2  57 2 53 0.000000000000000 80.000000000000000
0

0101000
+24 0 -36 0 *
Wi

0101100
+23 0 -35 0 -19 4 +19 6 *
Fa
0  0.000000100000006 2 0

0111000
+18 0 *
Ve
0.000000100000006
3697.760328369738090 40.000000000000000 0.000000000000000
0 0

0101101
*
Ed
 0.000000100000006 1 1 0
1  9 0 0.000000000000000 15.000000000000000
3  58 59CN 25 0 0.000000000000000 15.000000000000000
0

0101000
+16 4 -16 6 *
Ed
 0.000000100000006 1 1 0
1  10 0 0.000000000000000 6.283185307179586
2  60 26 10 0.000000000000000 6.283185307179586
2  61 26 12 0.000000000000000 6.283185307179586
2  62 5 13 0.000000000000000 6.283185307179586
2  63 27 17 0.000000000000000 6.283185307179586
2  64 27 19 0.000000000000000 6.283185307179586
2  65 28 23 0.000000000000000 6.283185307179586
2  66 28 25 0.000000000000000 6.283185307179586
2  67 29 34 0.000000000000000 6.283185307179586
2  68 29 36 0.000000000000000 6.283185307179586
2  69 30 41 0.000000000000000 6.283185307179586
2  70 30 43 0.000000000000000 6.283185307179586
2  71 31 48 0.000000000000000 6.283185307179586
2  72 31 50 0.000000000000000 6.283185307179586
2  73 25 52 0.000000000000000 6.283185307179586
2  74 25 53 0.000000000000000 6.283185307179586
0

0101000
+16 0 -16 0 *
Wi

0101100
+15 0 -15 0 -14 4 +14 6 *
Fa
0  0.000000100000006 25 0

0111000
+13 0 *
Ve
0.000000100000006
3867.760328369738090 40.000000000000000 0.000000000000000
0 0

0101101
*
Ed
 0.000000100000006 1 1 0
1  11 0 0.000000000000000 15.000000000000000
3  75 76CN 32 0 0.000000000000000 15.000000000000000
0

0101000
+11 4 -11 6 *
Ed
 0.000000100000006 1 1 0
1  12 0 0.000000000000000 6.283185307179586
2  77 33 10 0.000000000000000 6.283185307179586
2  78 33 12 0.000000000000000 6.283185307179586
2  79 5 13 0.000000000000000 6.283185307179586
2  80 34 17 0.000000000000000 6.283185307179586
2  81 34 19 0.000000000000000 6.283185307179586
2  82 35 23 0.000000000000000 6.283185307179586
2  83 35 25 0.000000000000000 6.283185307179586
2  84 36 34 0.000000000000000 6.283185307179586
2  85 36 36 0.000000000000000 6.283185307179586
2  86 37 41 0.000000000000000 6.283185307179586
2  87 37 43 0.000000000000000 6.283185307179586
2  88 38 48 0.000000000000000 6.283185307179586
2  89 38 50 0.000000000000000 6.283185307179586
2  90 32 52 0.000000000000000 6.283185307179586
2  91 32 53 0.000000000000000 6.283185307179586
0

0101000
+11 0 -11 0 *
Wi

0101100
+10 0 -10 0 -9 4 +9 6 *
Fa
0  0.000000100000006 32 0

0111000
+8 0 *
Wi

0101100
+32 0 +27 0 +22 0 +19 0 *
Wi

0101100
+14 0 *
Wi

0101100
+9 0 *
Fa
0  0.000000100000006 5 56

0111000
+6 57 +5 57 +4 57 *
Sh

0101100
+30 0 +25 0 +20 0 +17 0 +12 0 +7 0 +3 55 -3 58 *
So

1100000
-2 0 *

+1 0 