
CASCADE Topology V1, (c) Matra-Datavision
Locations 12
1
1.000000000000000 0.000000000000000 0.000000000000000 0.000000000000000 
0.000000000000000 1.000000000000000 0.000000000000000 0.000000000000000 
0.000000000000000 0.000000000000000 1.000000000000000 0.000000000000000 
1
1.000000000000000 0.000000000000000 0.000000000000000 0.000000000000000 
0.000000000000000 -0.000000000000000 -1.000000000000000 0.000000000000000 
0.000000000000000 1.000000000000000 -0.000000000000000 0.000000000000000 
1
1.000000000000000 0.000000000000000 0.000000000000000 0.000000000000000 
0.000000000000000 -0.000000000000000 -1.000000000000000 0.000000000000000 
0.000000000000000 1.000000000000000 -0.000000000000000 0.000000000000000 
2  1 1 2 1 3 -1 0
1
1.000000000000000 0.000000000000000 0.000000000000000 0.000000000000000 
0.000000000000000 1.000000000000000 0.000000000000000 0.000000000000000 
0.000000000000000 0.000000000000000 1.000000000000000 15.000000000000000 
2  1 1 2 1 3 -1 5 1 0
2  2 -1 1 -1 0
2  3 1 2 -1 1 -1 0
2  5 -1 3 1 2 -1 1 -1 0
2  3 -1 0
2  1 1 2 1 0
2  3 -1 5 1 0
Curve2ds 105
1 0.00000000000000000 0.00000000000000000 0.00000000000000000 -1.00000000000000000 
1 250.00000000000000000 0.00000000000000000 0.00000000000000000 -1.00000000000000000 
1 0.00000000000000000 -0.00000000000000000 0.00000000000000000 -1.00000000000000000 
1 -654.63552989509389590 1811.25952023587251460 -1.00000000000000000 0.00000000000000000 
1 0.00000000000000000 0.00000000000000000 1.00000000000000000 0.00000000000000000 
1 0.00000000000000000 -15.00000000000000000 1.00000000000000000 0.00000000000000000 
1 45.92413377587081413 0.00000000000000000 0.00000000000000000 -1.00000000000000000 
1 0.00000000000000000 0.00000000000000000 0.00000000000000000 -1.00000000000000000 
1 -904.63552989509389590 1811.25952023587251460 0.00000000000000000 -1.00000000000000000 
1 0.00000000000000000 -0.00000000000000000 1.00000000000000000 0.00000000000000000 
1 0.00000000000000000 -15.00000000000000000 1.00000000000000000 0.00000000000000000 
1 1476.55951394111866648 0.00000000000000000 0.00000000000000000 -1.00000000000000000 
1 -904.63552989509389590 1765.33538646000170047 0.35540029446540139 -0.93471419733194716 
1 0.00000000000000000 0.00000000000000000 1.00000000000000000 0.00000000000000000 
1 0.00000000000000000 -15.00000000000000000 1.00000000000000000 0.00000000000000000 
1 -379.86584384473053433 385.17424557367939997 0.55582821424379836 -0.83129717685707938 
1 0.00000000000000000 0.00000000000000000 0.00000000000000000 -1.00000000000000000 
1 431.46743751706981129 -828.25653933862190570 0.00000000000000000 -1.00000000000000000 
1 250.00000000000000000 0.00000000000000000 0.00000000000000000 -1.00000000000000000 
1 0.00000000000000000 0.00000000000000000 1.00000000000000000 0.00000000000000000 
1 0.00000000000000000 -15.00000000000000000 1.00000000000000000 0.00000000000000000 
1 431.46743751706981129 -1842.74047976412657590 1.00000000000000000 -0.00000000000000000 
1 681.46743751706981129 -1842.74047976412657590 0.00000000000000000 1.00000000000000000 
1 681.46743751706981129 -752.37750926255762352 -0.55582821424379858 0.83129717685707927 
1 -156.27105483591640223 500.54493294380836232 -0.35540029446540111 0.93471419733194716 
1 0.00000000000000000 0.00000000000000000 0.00000000000000000 -1.00000000000000000 
1 6.28318530717958623 0.00000000000000000 0.00000000000000000 -1.00000000000000000 
1 0.00000000000000000 0.00000000000000000 1.00000000000000000 0.00000000000000000 
1 0.00000000000000000 -15.00000000000000000 1.00000000000000000 0.00000000000000000 
2 100.86733751706924522 -19.41267046559619303 0.00000000000000000 1.00000000000000000 1.00000000000000000 -0.00000000000000000 5.00000000000000000
1 0.00000000000000000 0.00000000000000000 0.00000000000000000 -1.00000000000000000 
1 6.28318530717958623 0.00000000000000000 0.00000000000000000 -1.00000000000000000 
1 0.00000000000000000 0.00000000000000000 1.00000000000000000 0.00000000000000000 
1 0.00000000000000000 -15.00000000000000000 1.00000000000000000 0.00000000000000000 
2 100.86733751706924522 -171.41267046559642040 0.00000000000000000 1.00000000000000000 1.00000000000000000 -0.00000000000000000 5.00000000000000000
1 0.00000000000000000 0.00000000000000000 0.00000000000000000 -1.00000000000000000 
1 6.28318530717958623 0.00000000000000000 0.00000000000000000 -1.00000000000000000 
1 0.00000000000000000 0.00000000000000000 1.00000000000000000 0.00000000000000000 
1 0.00000000000000000 -15.00000000000000000 1.00000000000000000 0.00000000000000000 
2 282.73403751706973708 -291.41267046559642040 0.00000000000000000 1.00000000000000000 1.00000000000000000 -0.00000000000000000 5.00000000000000000
1 0.00000000000000000 0.00000000000000000 0.00000000000000000 -1.00000000000000000 
1 6.28318530717958623 0.00000000000000000 0.00000000000000000 -1.00000000000000000 
1 0.00000000000000000 0.00000000000000000 1.00000000000000000 0.00000000000000000 
1 0.00000000000000000 -15.00000000000000000 1.00000000000000000 0.00000000000000000 
2 282.73403751706973708 -443.41267046559642040 0.00000000000000000 1.00000000000000000 1.00000000000000000 -0.00000000000000000 5.00000000000000000
1 0.00000000000000000 0.00000000000000000 0.00000000000000000 -1.00000000000000000 
1 6.28318530717958623 0.00000000000000000 0.00000000000000000 -1.00000000000000000 
1 0.00000000000000000 0.00000000000000000 1.00000000000000000 0.00000000000000000 
1 0.00000000000000000 -15.00000000000000000 1.00000000000000000 0.00000000000000000 
2 464.60073751706931944 -715.41267046559664777 0.00000000000000000 1.00000000000000000 1.00000000000000000 -0.00000000000000000 5.00000000000000000
1 0.00000000000000000 0.00000000000000000 0.00000000000000000 -1.00000000000000000 
1 6.28318530717958623 0.00000000000000000 0.00000000000000000 -1.00000000000000000 
1 0.00000000000000000 0.00000000000000000 1.00000000000000000 0.00000000000000000 
1 0.00000000000000000 -15.00000000000000000 1.00000000000000000 0.00000000000000000 
2 464.60073751706931944 -563.41267046559642040 0.00000000000000000 1.00000000000000000 1.00000000000000000 -0.00000000000000000 5.00000000000000000
1 0.00000000000000000 0.00000000000000000 0.00000000000000000 -1.00000000000000000 
1 6.28318530717958623 0.00000000000000000 0.00000000000000000 -1.00000000000000000 
1 0.00000000000000000 0.00000000000000000 1.00000000000000000 0.00000000000000000 
1 0.00000000000000000 -15.00000000000000000 1.00000000000000000 0.00000000000000000 
2 -80.99936248293033714 100.58732953440380697 0.00000000000000000 1.00000000000000000 1.00000000000000000 -0.00000000000000000 5.00000000000000000
1 0.00000000000000000 0.00000000000000000 0.00000000000000000 -1.00000000000000000 
1 6.28318530717958623 0.00000000000000000 0.00000000000000000 -1.00000000000000000 
1 0.00000000000000000 0.00000000000000000 1.00000000000000000 0.00000000000000000 
1 0.00000000000000000 -15.00000000000000000 1.00000000000000000 0.00000000000000000 
2 -80.99936248293033714 252.58732953440267011 0.00000000000000000 1.00000000000000000 1.00000000000000000 -0.00000000000000000 5.00000000000000000
1 0.00000000000000000 0.00000000000000000 0.00000000000000000 -1.00000000000000000 
1 6.28318530717958623 0.00000000000000000 0.00000000000000000 -1.00000000000000000 
1 0.00000000000000000 0.00000000000000000 1.00000000000000000 0.00000000000000000 
1 0.00000000000000000 -15.00000000000000000 1.00000000000000000 0.00000000000000000 
2 -262.86606248293037424 372.58732953440312485 0.00000000000000000 1.00000000000000000 1.00000000000000000 -0.00000000000000000 5.00000000000000000
1 0.00000000000000000 0.00000000000000000 0.00000000000000000 -1.00000000000000000 
1 6.28318530717958623 0.00000000000000000 0.00000000000000000 -1.00000000000000000 
1 0.00000000000000000 0.00000000000000000 1.00000000000000000 0.00000000000000000 
1 0.00000000000000000 -15.00000000000000000 1.00000000000000000 0.00000000000000000 
2 -262.86606248293037424 607.00513883292933315 0.00000000000000000 1.00000000000000000 1.00000000000000000 -0.00000000000000000 5.00000000000000000
1 0.00000000000000000 0.00000000000000000 0.00000000000000000 -1.00000000000000000 
1 6.28318530717958623 0.00000000000000000 0.00000000000000000 -1.00000000000000000 
1 0.00000000000000000 0.00000000000000000 1.00000000000000000 0.00000000000000000 
1 0.00000000000000000 -15.00000000000000000 1.00000000000000000 0.00000000000000000 
2 -444.73276248293041135 726.29351982005755417 0.00000000000000000 1.00000000000000000 1.00000000000000000 -0.00000000000000000 5.00000000000000000
1 0.00000000000000000 0.00000000000000000 0.00000000000000000 -1.00000000000000000 
1 6.28318530717958623 0.00000000000000000 0.00000000000000000 -1.00000000000000000 
1 0.00000000000000000 0.00000000000000000 1.00000000000000000 0.00000000000000000 
1 0.00000000000000000 -15.00000000000000000 1.00000000000000000 0.00000000000000000 
2 -444.73276248293041135 1035.70779320904875931 0.00000000000000000 1.00000000000000000 1.00000000000000000 -0.00000000000000000 5.00000000000000000
1 0.00000000000000000 0.00000000000000000 0.00000000000000000 -1.00000000000000000 
1 6.28318530717958623 0.00000000000000000 0.00000000000000000 -1.00000000000000000 
1 0.00000000000000000 0.00000000000000000 1.00000000000000000 0.00000000000000000 
1 0.00000000000000000 -15.00000000000000000 1.00000000000000000 0.00000000000000000 
2 -626.59946248293044846 1150.19542618036757631 0.00000000000000000 1.00000000000000000 1.00000000000000000 -0.00000000000000000 5.00000000000000000
1 0.00000000000000000 0.00000000000000000 0.00000000000000000 -1.00000000000000000 
1 6.28318530717958623 0.00000000000000000 0.00000000000000000 -1.00000000000000000 
1 0.00000000000000000 0.00000000000000000 1.00000000000000000 0.00000000000000000 
1 0.00000000000000000 -15.00000000000000000 1.00000000000000000 0.00000000000000000 
2 -626.59946248293044846 1563.63567155444570744 0.00000000000000000 1.00000000000000000 1.00000000000000000 -0.00000000000000000 5.00000000000000000
1 0.00000000000000000 0.00000000000000000 0.00000000000000000 -1.00000000000000000 
1 6.28318530717958623 0.00000000000000000 0.00000000000000000 -1.00000000000000000 
1 0.00000000000000000 0.00000000000000000 1.00000000000000000 0.00000000000000000 
1 0.00000000000000000 -15.00000000000000000 1.00000000000000000 0.00000000000000000 
2 -808.46616248293048557 1666.15998572417402102 0.00000000000000000 1.00000000000000000 1.00000000000000000 -0.00000000000000000 5.00000000000000000
1 0.00000000000000000 0.00000000000000000 0.00000000000000000 -1.00000000000000000 
1 6.28318530717958623 0.00000000000000000 0.00000000000000000 -1.00000000000000000 
1 0.00000000000000000 0.00000000000000000 1.00000000000000000 0.00000000000000000 
1 0.00000000000000000 -15.00000000000000000 1.00000000000000000 0.00000000000000000 
2 -808.46616248293048557 1731.25952023587251460 0.00000000000000000 1.00000000000000000 1.00000000000000000 -0.00000000000000000 5.00000000000000000
Curves 50
1 3680.99999999999909051 3626.56403258783666388 0.00000000000000000 0.00000000000000000 0.00000000000000000 1.00000000000000000 
1 3680.99999999999909051 3376.56403258783666388 0.00000000000000000 0.00000000000000000 0.00000000000000000 1.00000000000000000 
1 3680.99999999999909051 3626.56403258783666388 0.00000000000000000 0.00000000000000000 -1.00000000000000000 0.00000000000000000 
1 3635.07586622412827637 3376.56403258783666388 0.00000000000000000 0.00000000000000000 0.00000000000000000 1.00000000000000000 
1 3680.99999999999909051 3376.56403258783666388 0.00000000000000000 -1.00000000000000000 0.00000000000000000 0.00000000000000000 
1 2254.91472533780597587 3901.33371863820002545 0.00000000000000000 0.00000000000000000 0.00000000000000000 1.00000000000000000 
1 3635.07586622412827637 3376.56403258783666388 0.00000000000000000 -0.93471419733194716 0.35540029446540139 0.00000000000000000 
1 1041.48394042550467020 4712.66700000000037107 0.00000000000000000 0.00000000000000000 0.00000000000000000 1.00000000000000000 
1 2254.91472533780597587 3901.33371863820002545 0.00000000000000000 -0.83129717685707938 0.55582821424379836 0.00000000000000000 
1 27.00000000000000000 4712.66700000000037107 0.00000000000000000 0.00000000000000000 0.00000000000000000 1.00000000000000000 
1 1041.48394042550467020 4712.66700000000037107 0.00000000000000000 -1.00000000000000000 0.00000000000000000 0.00000000000000000 
1 27.00000000000000000 4962.66700000000037107 0.00000000000000000 0.00000000000000000 0.00000000000000000 1.00000000000000000 
1 27.00000000000000000 4712.66700000000037107 0.00000000000000000 0.00000000000000000 1.00000000000000000 0.00000000000000000 
1 1117.36297050156895239 4962.66700000000037107 0.00000000000000000 0.00000000000000000 0.00000000000000000 1.00000000000000000 
1 27.00000000000000000 4962.66700000000037107 0.00000000000000000 1.00000000000000000 0.00000000000000000 0.00000000000000000 
1 2370.28541270793493823 4124.92850764701415756 0.00000000000000000 0.00000000000000000 0.00000000000000000 1.00000000000000000 
1 1117.36297050156895239 4962.66700000000037107 0.00000000000000000 0.83129717685707927 -0.55582821424379858 0.00000000000000000 
1 2370.28541270793493823 4124.92850764701415756 0.00000000000000000 0.93471419733194716 -0.35540029446540111 0.00000000000000000 
1 1855.32780929853038288 4382.06689999999980500 0.00000000000000000 0.00000000000000000 0.00000000000000000 1.00000000000000000 
2 1850.32780929853038288 4382.06689999999980500 0.00000000000000000 0.00000000000000000 0.00000000000000000 1.00000000000000000 1.00000000000000000 0.00000000000000000 -0.00000000000000000 -0.00000000000000000 1.00000000000000000 0.00000000000000000 5.00000000000000000
1 1703.32780929853015550 4382.06689999999980500 0.00000000000000000 0.00000000000000000 0.00000000000000000 1.00000000000000000 
2 1698.32780929853015550 4382.06689999999980500 0.00000000000000000 0.00000000000000000 0.00000000000000000 1.00000000000000000 1.00000000000000000 0.00000000000000000 -0.00000000000000000 -0.00000000000000000 1.00000000000000000 0.00000000000000000 5.00000000000000000
1 1583.32780929853015550 4563.93360000000029686 0.00000000000000000 0.00000000000000000 0.00000000000000000 1.00000000000000000 
2 1578.32780929853015550 4563.93360000000029686 0.00000000000000000 0.00000000000000000 0.00000000000000000 1.00000000000000000 1.00000000000000000 0.00000000000000000 -0.00000000000000000 -0.00000000000000000 1.00000000000000000 0.00000000000000000 5.00000000000000000
1 1431.32780929853015550 4563.93360000000029686 0.00000000000000000 0.00000000000000000 0.00000000000000000 1.00000000000000000 
2 1426.32780929853015550 4563.93360000000029686 0.00000000000000000 0.00000000000000000 0.00000000000000000 1.00000000000000000 1.00000000000000000 0.00000000000000000 -0.00000000000000000 -0.00000000000000000 1.00000000000000000 0.00000000000000000 5.00000000000000000
1 1159.32780929852992813 4745.80029999999987922 0.00000000000000000 0.00000000000000000 0.00000000000000000 1.00000000000000000 
2 1154.32780929852992813 4745.80029999999987922 0.00000000000000000 0.00000000000000000 0.00000000000000000 1.00000000000000000 1.00000000000000000 0.00000000000000000 -0.00000000000000000 -0.00000000000000000 1.00000000000000000 0.00000000000000000 5.00000000000000000
1 1311.32780929853015550 4745.80029999999987922 0.00000000000000000 0.00000000000000000 0.00000000000000000 1.00000000000000000 
2 1306.32780929853015550 4745.80029999999987922 0.00000000000000000 0.00000000000000000 0.00000000000000000 1.00000000000000000 1.00000000000000000 0.00000000000000000 -0.00000000000000000 -0.00000000000000000 1.00000000000000000 0.00000000000000000 5.00000000000000000
1 1975.32780929853038288 4200.20020000000022264 0.00000000000000000 0.00000000000000000 0.00000000000000000 1.00000000000000000 
2 1970.32780929853038288 4200.20020000000022264 0.00000000000000000 0.00000000000000000 0.00000000000000000 1.00000000000000000 1.00000000000000000 0.00000000000000000 -0.00000000000000000 -0.00000000000000000 1.00000000000000000 0.00000000000000000 5.00000000000000000
1 2127.32780929852924601 4200.20020000000022264 0.00000000000000000 0.00000000000000000 0.00000000000000000 1.00000000000000000 
2 2122.32780929852924601 4200.20020000000022264 0.00000000000000000 0.00000000000000000 0.00000000000000000 1.00000000000000000 1.00000000000000000 0.00000000000000000 -0.00000000000000000 -0.00000000000000000 1.00000000000000000 0.00000000000000000 5.00000000000000000
1 2247.32780929852970075 4018.33350000000018554 0.00000000000000000 0.00000000000000000 0.00000000000000000 1.00000000000000000 
2 2242.32780929852970075 4018.33350000000018554 0.00000000000000000 0.00000000000000000 0.00000000000000000 1.00000000000000000 1.00000000000000000 0.00000000000000000 -0.00000000000000000 -0.00000000000000000 1.00000000000000000 0.00000000000000000 5.00000000000000000
1 2481.74561859705590905 4018.33350000000018554 0.00000000000000000 0.00000000000000000 0.00000000000000000 1.00000000000000000 
2 2476.74561859705590905 4018.33350000000018554 0.00000000000000000 0.00000000000000000 0.00000000000000000 1.00000000000000000 1.00000000000000000 0.00000000000000000 -0.00000000000000000 -0.00000000000000000 1.00000000000000000 0.00000000000000000 5.00000000000000000
1 2601.03399958418413007 3836.46680000000014843 0.00000000000000000 0.00000000000000000 0.00000000000000000 1.00000000000000000 
2 2596.03399958418413007 3836.46680000000014843 0.00000000000000000 0.00000000000000000 0.00000000000000000 1.00000000000000000 1.00000000000000000 0.00000000000000000 -0.00000000000000000 -0.00000000000000000 1.00000000000000000 0.00000000000000000 5.00000000000000000
1 2910.44827297317533521 3836.46680000000014843 0.00000000000000000 0.00000000000000000 0.00000000000000000 1.00000000000000000 
2 2905.44827297317533521 3836.46680000000014843 0.00000000000000000 0.00000000000000000 0.00000000000000000 1.00000000000000000 1.00000000000000000 0.00000000000000000 -0.00000000000000000 -0.00000000000000000 1.00000000000000000 0.00000000000000000 5.00000000000000000
1 3024.93590594449415221 3654.60010000000011132 0.00000000000000000 0.00000000000000000 0.00000000000000000 1.00000000000000000 
2 3019.93590594449415221 3654.60010000000011132 0.00000000000000000 0.00000000000000000 0.00000000000000000 1.00000000000000000 1.00000000000000000 0.00000000000000000 -0.00000000000000000 -0.00000000000000000 1.00000000000000000 0.00000000000000000 5.00000000000000000
1 3438.37615131857228334 3654.60010000000011132 0.00000000000000000 0.00000000000000000 0.00000000000000000 1.00000000000000000 
2 3433.37615131857228334 3654.60010000000011132 0.00000000000000000 0.00000000000000000 0.00000000000000000 1.00000000000000000 1.00000000000000000 0.00000000000000000 -0.00000000000000000 -0.00000000000000000 1.00000000000000000 0.00000000000000000 5.00000000000000000
1 3540.90046548830059692 3472.73340000000007421 0.00000000000000000 0.00000000000000000 0.00000000000000000 1.00000000000000000 
2 3535.90046548830059692 3472.73340000000007421 0.00000000000000000 0.00000000000000000 0.00000000000000000 1.00000000000000000 1.00000000000000000 0.00000000000000000 -0.00000000000000000 -0.00000000000000000 1.00000000000000000 0.00000000000000000 5.00000000000000000
1 3605.99999999999909051 3472.73340000000007421 0.00000000000000000 0.00000000000000000 0.00000000000000000 1.00000000000000000 
2 3600.99999999999909051 3472.73340000000007421 0.00000000000000000 0.00000000000000000 0.00000000000000000 1.00000000000000000 1.00000000000000000 0.00000000000000000 -0.00000000000000000 -0.00000000000000000 1.00000000000000000 0.00000000000000000 5.00000000000000000
Polygon3D 0
PolygonOnTriangulations 0
Surfaces 26
1 3680.99999999999909051 3626.56403258783666388 0.00000000000000000 1.00000000000000000 0.00000000000000000 -0.00000000000000000 0.00000000000000000 -1.00000000000000000 0.00000000000000000 0.00000000000000000 -0.00000000000000000 -1.00000000000000000 
1 3680.99999999999909051 3376.56403258783666388 0.00000000000000000 0.00000000000000000 -1.00000000000000000 0.00000000000000000 -1.00000000000000000 0.00000000000000000 0.00000000000000000 -0.00000000000000000 -0.00000000000000000 -1.00000000000000000 
1 1869.74047976412657590 -0.00000000000095062 4281.19956248293055978 0.00000000000000000 1.00000000000000000 0.00000000000000022 0.00000000000000000 -0.00000000000000022 1.00000000000000000 1.00000000000000000 0.00000000000000000 -0.00000000000000000 
1 3635.07586622412827637 3376.56403258783666388 0.00000000000000000 -0.35540029446540139 -0.93471419733194716 0.00000000000000000 -0.93471419733194716 0.35540029446540139 0.00000000000000000 -0.00000000000000000 0.00000000000000000 -1.00000000000000000 
1 2254.91472533780597587 3901.33371863820002545 0.00000000000000000 -0.55582821424379836 -0.83129717685707938 0.00000000000000000 -0.83129717685707938 0.55582821424379836 0.00000000000000000 -0.00000000000000000 0.00000000000000000 -1.00000000000000000 
1 1041.48394042550467020 4712.66700000000037107 0.00000000000000000 0.00000000000000000 -1.00000000000000000 0.00000000000000000 -1.00000000000000000 0.00000000000000000 0.00000000000000000 -0.00000000000000000 -0.00000000000000000 -1.00000000000000000 
1 27.00000000000000000 4712.66700000000037107 0.00000000000000000 -1.00000000000000000 0.00000000000000000 0.00000000000000000 0.00000000000000000 1.00000000000000000 0.00000000000000000 0.00000000000000000 0.00000000000000000 -1.00000000000000000 
1 27.00000000000000000 4962.66700000000037107 0.00000000000000000 0.00000000000000000 1.00000000000000000 0.00000000000000000 1.00000000000000000 0.00000000000000000 0.00000000000000000 0.00000000000000000 0.00000000000000000 -1.00000000000000000 
1 1117.36297050156895239 4962.66700000000037107 0.00000000000000000 0.55582821424379858 0.83129717685707927 -0.00000000000000000 0.83129717685707927 -0.55582821424379858 0.00000000000000000 0.00000000000000000 -0.00000000000000000 -1.00000000000000000 
1 2370.28541270793493823 4124.92850764701415756 0.00000000000000000 0.35540029446540111 0.93471419733194716 -0.00000000000000000 0.93471419733194716 -0.35540029446540111 0.00000000000000000 0.00000000000000000 -0.00000000000000000 -1.00000000000000000 
2 1850.32780929853038288 4382.06689999999980500 0.00000000000000000 -0.00000000000000000 -0.00000000000000000 -1.00000000000000000 1.00000000000000000 0.00000000000000000 0.00000000000000000 -0.00000000000000000 1.00000000000000000 -0.00000000000000000 5.00000000000000000
2 1698.32780929853015550 4382.06689999999980500 0.00000000000000000 -0.00000000000000000 -0.00000000000000000 -1.00000000000000000 1.00000000000000000 0.00000000000000000 0.00000000000000000 -0.00000000000000000 1.00000000000000000 -0.00000000000000000 5.00000000000000000
2 1578.32780929853015550 4563.93360000000029686 0.00000000000000000 -0.00000000000000000 -0.00000000000000000 -1.00000000000000000 1.00000000000000000 0.00000000000000000 0.00000000000000000 -0.00000000000000000 1.00000000000000000 -0.00000000000000000 5.00000000000000000
2 1426.32780929853015550 4563.93360000000029686 0.00000000000000000 -0.00000000000000000 -0.00000000000000000 -1.00000000000000000 1.00000000000000000 0.00000000000000000 0.00000000000000000 -0.00000000000000000 1.00000000000000000 -0.00000000000000000 5.00000000000000000
2 1154.32780929852992813 4745.80029999999987922 0.00000000000000000 -0.00000000000000000 -0.00000000000000000 -1.00000000000000000 1.00000000000000000 0.00000000000000000 0.00000000000000000 -0.00000000000000000 1.00000000000000000 -0.00000000000000000 5.00000000000000000
2 1306.32780929853015550 4745.80029999999987922 0.00000000000000000 -0.00000000000000000 -0.00000000000000000 -1.00000000000000000 1.00000000000000000 0.00000000000000000 0.00000000000000000 -0.00000000000000000 1.00000000000000000 -0.00000000000000000 5.00000000000000000
2 1970.32780929853038288 4200.20020000000022264 0.00000000000000000 -0.00000000000000000 -0.00000000000000000 -1.00000000000000000 1.00000000000000000 0.00000000000000000 0.00000000000000000 -0.00000000000000000 1.00000000000000000 -0.00000000000000000 5.00000000000000000
2 2122.32780929852924601 4200.20020000000022264 0.00000000000000000 -0.00000000000000000 -0.00000000000000000 -1.00000000000000000 1.00000000000000000 0.00000000000000000 0.00000000000000000 -0.00000000000000000 1.00000000000000000 -0.00000000000000000 5.00000000000000000
2 2242.32780929852970075 4018.33350000000018554 0.00000000000000000 -0.00000000000000000 -0.00000000000000000 -1.00000000000000000 1.00000000000000000 0.00000000000000000 0.00000000000000000 -0.00000000000000000 1.00000000000000000 -0.00000000000000000 5.00000000000000000
2 2476.74561859705590905 4018.33350000000018554 0.00000000000000000 -0.00000000000000000 -0.00000000000000000 -1.00000000000000000 1.00000000000000000 0.00000000000000000 0.00000000000000000 -0.00000000000000000 1.00000000000000000 -0.00000000000000000 5.00000000000000000
2 2596.03399958418413007 3836.46680000000014843 0.00000000000000000 -0.00000000000000000 -0.00000000000000000 -1.00000000000000000 1.00000000000000000 0.00000000000000000 0.00000000000000000 -0.00000000000000000 1.00000000000000000 -0.00000000000000000 5.00000000000000000
2 2905.44827297317533521 3836.46680000000014843 0.00000000000000000 -0.00000000000000000 -0.00000000000000000 -1.00000000000000000 1.00000000000000000 0.00000000000000000 0.00000000000000000 -0.00000000000000000 1.00000000000000000 -0.00000000000000000 5.00000000000000000
2 3019.93590594449415221 3654.60010000000011132 0.00000000000000000 -0.00000000000000000 -0.00000000000000000 -1.00000000000000000 1.00000000000000000 0.00000000000000000 0.00000000000000000 -0.00000000000000000 1.00000000000000000 -0.00000000000000000 5.00000000000000000
2 3433.37615131857228334 3654.60010000000011132 0.00000000000000000 -0.00000000000000000 -0.00000000000000000 -1.00000000000000000 1.00000000000000000 0.00000000000000000 0.00000000000000000 -0.00000000000000000 1.00000000000000000 -0.00000000000000000 5.00000000000000000
2 3535.90046548830059692 3472.73340000000007421 0.00000000000000000 -0.00000000000000000 -0.00000000000000000 -1.00000000000000000 1.00000000000000000 0.00000000000000000 0.00000000000000000 -0.00000000000000000 1.00000000000000000 -0.00000000000000000 5.00000000000000000
2 3600.99999999999909051 3472.73340000000007421 0.00000000000000000 -0.00000000000000000 -0.00000000000000000 -1.00000000000000000 1.00000000000000000 0.00000000000000000 0.00000000000000000 -0.00000000000000000 1.00000000000000000 -0.00000000000000000 5.00000000000000000
Triangulations 0

TShapes 145
Ve
0.000000100000000
3680.999999999999091 3626.564032587836664 0.000000000000000
0 0

0101101
*
Ed
 0.000000100000000 1 1 0
1  1 0 0.000000000000000 15.000000000000000
2  1 1 0 0.000000000000000 15.000000000000000
0

0101000
+145 4 -145 6 *
Ve
0.000000100000000
3680.999999999999091 3376.564032587836664 0.000000000000000
0 0

0101101
*
Ed
 0.000000100000000 1 1 0
1  2 0 0.000000000000000 15.000000000000000
2  2 1 0 0.000000000000000 15.000000000000000
2  3 2 0 0.000000000000000 15.000000000000000
0

0101000
+143 4 -143 6 *
Ed
 0.000000100000000 1 1 0
1  3 0 0.000000000000000 250.000000000000000
2  4 3 7 0.000000000000000 250.000000000000000
2  5 1 8 0.000000000000000 250.000000000000000
2  6 1 9 0.000000000000000 250.000000000000000
0

0101000
+145 0 -143 0 *
Wi

0101100
+144 0 -142 0 -141 4 +141 6 *
Fa
0  0.000000100000000 1 0

0111000
+140 0 *
Ve
0.000000100000000
3635.075866224128276 3376.564032587836664 0.000000000000000
0 0

0101101
*
Ed
 0.000000100000000 1 1 0
1  4 0 0.000000000000000 15.000000000000000
2  7 2 0 0.000000000000000 15.000000000000000
2  8 4 0 0.000000000000000 15.000000000000000
0

0101000
+138 4 -138 6 *
Ed
 0.000000100000000 1 1 0
1  5 0 0.000000000000000 45.924133775870814
2  9 3 7 0.000000000000000 45.924133775870814
2  10 2 8 0.000000000000000 45.924133775870814
2  11 2 9 0.000000000000000 45.924133775870814
0

0101000
+143 0 -138 0 *
Wi

0101100
+142 0 -137 0 -136 4 +136 6 *
Fa
0  0.000000100000000 2 0

0111000
+135 0 *
Ve
0.000000100000000
2254.914725337805976 3901.333718638200025 0.000000000000000
0 0

0101101
*
Ed
 0.000000100000000 1 1 0
1  6 0 0.000000000000000 15.000000000000000
2  12 4 0 0.000000000000000 15.000000000000000
0

0101000
+133 4 -133 6 *
Ed
 0.000000100000000 1 1 0
1  7 0 0.000000000000000 1476.559513941118212
2  13 3 7 0.000000000000000 1476.559513941118212
2  14 4 8 0.000000000000000 1476.559513941118212
2  15 4 9 0.000000000000000 1476.559513941118212
0

0101000
+138 0 -133 0 *
Wi

0101100
+137 0 -132 0 -131 4 +131 6 *
Fa
0  0.000000100000000 4 0

0111000
+130 0 *
Ve
0.000000100000000
1041.483940425504670 4712.667000000000371 0.000000000000000
0 0

0101101
*
Ed
 0.000000100000000 1 1 0
1  8 0 0.000000000000000 15.000000000000000
0

0101000
+128 4 -128 6 *
Ed
 0.000000100000000 1 1 0
1  9 0 0.000000000000000 1459.683514744956483
2  16 3 7 0.000000000000000 1459.683514744956483
0

0101000
+133 0 -128 0 *
Wi

0101100
+132 0 -127 0 -126 4 +126 6 *
Fa
0  0.000000100000000 5 0

0111000
+125 0 *
Ve
0.000000100000000
27.000000000000000 4712.667000000000371 0.000000000000000
0 0

0101101
*
Ed
 0.000000100000000 1 1 0
1  10 0 0.000000000000000 15.000000000000000
2  17 7 0 0.000000000000000 15.000000000000000
0

0101000
+123 4 -123 6 *
Ed
 0.000000100000000 1 1 0
1  11 0 0.000000000000000 1014.483940425504670
2  18 3 7 0.000000000000000 1014.483940425504670
0

0101000
+128 0 -123 0 *
Wi

0101100
+127 0 -122 0 -121 4 +121 6 *
Fa
0  0.000000100000000 6 0

0111000
+120 0 *
Ve
0.000000100000000
27.000000000000000 4962.667000000000371 0.000000000000000
0 0

0101101
*
Ed
 0.000000100000000 1 1 0
1  12 0 0.000000000000000 15.000000000000000
2  19 7 0 0.000000000000000 15.000000000000000
0

0101000
+118 4 -118 6 *
Ed
 0.000000100000000 1 1 0
1  13 0 0.000000000000000 250.000000000000000
2  20 7 8 0.000000000000000 250.000000000000000
2  21 7 9 0.000000000000000 250.000000000000000
2  22 3 7 0.000000000000000 250.000000000000000
0

0101000
+123 0 -118 0 *
Wi

0101100
+122 0 -117 0 -116 4 +116 6 *
Fa
0  0.000000100000000 7 0

0111000
+115 0 *
Ve
0.000000100000000
1117.362970501568952 4962.667000000000371 0.000000000000000
0 0

0101101
*
Ed
 0.000000100000000 1 1 0
1  14 0 0.000000000000000 15.000000000000000
0

0101000
+113 4 -113 6 *
Ed
 0.000000100000000 1 1 0
1  15 0 0.000000000000000 1090.362970501568952
2  23 3 7 0.000000000000000 1090.362970501568952
0

0101000
+118 0 -113 0 *
Wi

0101100
+117 0 -112 0 -111 4 +111 6 *
Fa
0  0.000000100000000 8 0

0111000
+110 0 *
Ve
0.000000100000000
2370.285412707934938 4124.928507647014158 0.000000000000000
0 0

0101101
*
Ed
 0.000000100000000 1 1 0
1  16 0 0.000000000000000 15.000000000000000
0

0101000
+108 4 -108 6 *
Ed
 0.000000100000000 1 1 0
1  17 0 0.000000000000000 1507.189579234881421
2  24 3 7 0.000000000000000 1507.189579234881421
0

0101000
+113 0 -108 0 *
Wi

0101100
+112 0 -107 0 -106 4 +106 6 *
Fa
0  0.000000100000000 9 0

0111000
+105 0 *
Ed
 0.000000100000000 1 1 0
1  18 0 0.000000000000000 1402.262414579102824
2  25 3 7 0.000000000000000 1402.262414579102824
0

0101000
+108 0 -145 0 *
Wi

0101100
+107 0 -144 0 -103 4 +103 6 *
Fa
0  0.000000100000000 10 0

0111000
+102 0 *
Ve
0.000000100000000
1855.327809298530383 4382.066899999999805 0.000000000000000
0 0

0101101
*
Ed
 0.000000100000000 1 1 0
1  19 0 0.000000000000000 15.000000000000000
3  26 27CN 11 0 0.000000000000000 15.000000000000000
0

0101000
+100 4 -100 6 *
Ed
 0.000000100000000 1 1 0
1  20 0 0.000000000000000 6.283185307179586
2  28 11 8 0.000000000000000 6.283185307179586
2  29 11 9 0.000000000000000 6.283185307179586
2  30 3 7 0.000000000000000 6.283185307179586
0

0101000
+100 0 -100 0 *
Wi

0101100
+99 0 -99 0 -98 4 +98 6 *
Fa
0  0.000000100000000 11 0

0111000
+97 0 *
Ve
0.000000100000000
1703.327809298530156 4382.066899999999805 0.000000000000000
0 0

0101101
*
Ed
 0.000000100000000 1 1 0
1  21 0 0.000000000000000 15.000000000000000
3  31 32CN 12 0 0.000000000000000 15.000000000000000
0

0101000
+95 4 -95 6 *
Ed
 0.000000100000000 1 1 0
1  22 0 0.000000000000000 6.283185307179586
2  33 12 8 0.000000000000000 6.283185307179586
2  34 12 9 0.000000000000000 6.283185307179586
2  35 3 7 0.000000000000000 6.283185307179586
0

0101000
+95 0 -95 0 *
Wi

0101100
+94 0 -94 0 -93 4 +93 6 *
Fa
0  0.000000100000000 12 0

0111000
+92 0 *
Ve
0.000000100000000
1583.327809298530156 4563.933600000000297 0.000000000000000
0 0

0101101
*
Ed
 0.000000100000000 1 1 0
1  23 0 0.000000000000000 15.000000000000000
3  36 37CN 13 0 0.000000000000000 15.000000000000000
0

0101000
+90 4 -90 6 *
Ed
 0.000000100000000 1 1 0
1  24 0 0.000000000000000 6.283185307179586
2  38 13 8 0.000000000000000 6.283185307179586
2  39 13 9 0.000000000000000 6.283185307179586
2  40 3 7 0.000000000000000 6.283185307179586
0

0101000
+90 0 -90 0 *
Wi

0101100
+89 0 -89 0 -88 4 +88 6 *
Fa
0  0.000000100000000 13 0

0111000
+87 0 *
Ve
0.000000100000000
1431.327809298530156 4563.933600000000297 0.000000000000000
0 0

0101101
*
Ed
 0.000000100000000 1 1 0
1  25 0 0.000000000000000 15.000000000000000
3  41 42CN 14 0 0.000000000000000 15.000000000000000
0

0101000
+85 4 -85 6 *
Ed
 0.000000100000000 1 1 0
1  26 0 0.000000000000000 6.283185307179586
2  43 14 8 0.000000000000000 6.283185307179586
2  44 14 9 0.000000000000000 6.283185307179586
2  45 3 7 0.000000000000000 6.283185307179586
0

0101000
+85 0 -85 0 *
Wi

0101100
+84 0 -84 0 -83 4 +83 6 *
Fa
0  0.000000100000000 14 0

0111000
+82 0 *
Ve
0.000000100000000
1159.327809298529928 4745.800299999999879 0.000000000000000
0 0

0101101
*
Ed
 0.000000100000000 1 1 0
1  27 0 0.000000000000000 15.000000000000000
3  46 47CN 15 0 0.000000000000000 15.000000000000000
0

0101000
+80 4 -80 6 *
Ed
 0.000000100000000 1 1 0
1  28 0 0.000000000000000 6.283185307179586
2  48 15 8 0.000000000000000 6.283185307179586
2  49 15 9 0.000000000000000 6.283185307179586
2  50 3 7 0.000000000000000 6.283185307179586
0

0101000
+80 0 -80 0 *
Wi

0101100
+79 0 -79 0 -78 4 +78 6 *
Fa
0  0.000000100000000 15 0

0111000
+77 0 *
Ve
0.000000100000000
1311.327809298530156 4745.800299999999879 0.000000000000000
0 0

0101101
*
Ed
 0.000000100000000 1 1 0
1  29 0 0.000000000000000 15.000000000000000
3  51 52CN 16 0 0.000000000000000 15.000000000000000
0

0101000
+75 4 -75 6 *
Ed
 0.000000100000000 1 1 0
1  30 0 0.000000000000000 6.283185307179586
2  53 16 8 0.000000000000000 6.283185307179586
2  54 16 9 0.000000000000000 6.283185307179586
2  55 3 7 0.000000000000000 6.283185307179586
0

0101000
+75 0 -75 0 *
Wi

0101100
+74 0 -74 0 -73 4 +73 6 *
Fa
0  0.000000100000000 16 0

0111000
+72 0 *
Ve
0.000000100000000
1975.327809298530383 4200.200200000000223 0.000000000000000
0 0

0101101
*
Ed
 0.000000100000000 1 1 0
1  31 0 0.000000000000000 15.000000000000000
3  56 57CN 17 0 0.000000000000000 15.000000000000000
0

0101000
+70 4 -70 6 *
Ed
 0.000000100000000 1 1 0
1  32 0 0.000000000000000 6.283185307179586
2  58 17 8 0.000000000000000 6.283185307179586
2  59 17 9 0.000000000000000 6.283185307179586
2  60 3 7 0.000000000000000 6.283185307179586
0

0101000
+70 0 -70 0 *
Wi

0101100
+69 0 -69 0 -68 4 +68 6 *
Fa
0  0.000000100000000 17 0

0111000
+67 0 *
Ve
0.000000100000000
2127.327809298529246 4200.200200000000223 0.000000000000000
0 0

0101101
*
Ed
 0.000000100000000 1 1 0
1  33 0 0.000000000000000 15.000000000000000
3  61 62CN 18 0 0.000000000000000 15.000000000000000
0

0101000
+65 4 -65 6 *
Ed
 0.000000100000000 1 1 0
1  34 0 0.000000000000000 6.283185307179586
2  63 18 8 0.000000000000000 6.283185307179586
2  64 18 9 0.000000000000000 6.283185307179586
2  65 3 7 0.000000000000000 6.283185307179586
0

0101000
+65 0 -65 0 *
Wi

0101100
+64 0 -64 0 -63 4 +63 6 *
Fa
0  0.000000100000000 18 0

0111000
+62 0 *
Ve
0.000000100000000
2247.327809298529701 4018.333500000000186 0.000000000000000
0 0

0101101
*
Ed
 0.000000100000000 1 1 0
1  35 0 0.000000000000000 15.000000000000000
3  66 67CN 19 0 0.000000000000000 15.000000000000000
0

0101000
+60 4 -60 6 *
Ed
 0.000000100000000 1 1 0
1  36 0 0.000000000000000 6.283185307179586
2  68 19 8 0.000000000000000 6.283185307179586
2  69 19 9 0.000000000000000 6.283185307179586
2  70 3 7 0.000000000000000 6.283185307179586
0

0101000
+60 0 -60 0 *
Wi

0101100
+59 0 -59 0 -58 4 +58 6 *
Fa
0  0.000000100000000 19 0

0111000
+57 0 *
Ve
0.000000100000000
2481.745618597055909 4018.333500000000186 0.000000000000000
0 0

0101101
*
Ed
 0.000000100000000 1 1 0
1  37 0 0.000000000000000 15.000000000000000
3  71 72CN 20 0 0.000000000000000 15.000000000000000
0

0101000
+55 4 -55 6 *
Ed
 0.000000100000000 1 1 0
1  38 0 0.000000000000000 6.283185307179586
2  73 20 8 0.000000000000000 6.283185307179586
2  74 20 9 0.000000000000000 6.283185307179586
2  75 3 7 0.000000000000000 6.283185307179586
0

0101000
+55 0 -55 0 *
Wi

0101100
+54 0 -54 0 -53 4 +53 6 *
Fa
0  0.000000100000000 20 0

0111000
+52 0 *
Ve
0.000000100000000
2601.033999584184130 3836.466800000000148 0.000000000000000
0 0

0101101
*
Ed
 0.000000100000000 1 1 0
1  39 0 0.000000000000000 15.000000000000000
3  76 77CN 21 0 0.000000000000000 15.000000000000000
0

0101000
+50 4 -50 6 *
Ed
 0.000000100000000 1 1 0
1  40 0 0.000000000000000 6.283185307179586
2  78 21 8 0.000000000000000 6.283185307179586
2  79 21 9 0.000000000000000 6.283185307179586
2  80 3 7 0.000000000000000 6.283185307179586
0

0101000
+50 0 -50 0 *
Wi

0101100
+49 0 -49 0 -48 4 +48 6 *
Fa
0  0.000000100000000 21 0

0111000
+47 0 *
Ve
0.000000100000000
2910.448272973175335 3836.466800000000148 0.000000000000000
0 0

0101101
*
Ed
 0.000000100000000 1 1 0
1  41 0 0.000000000000000 15.000000000000000
3  81 82CN 22 0 0.000000000000000 15.000000000000000
0

0101000
+45 4 -45 6 *
Ed
 0.000000100000000 1 1 0
1  42 0 0.000000000000000 6.283185307179586
2  83 22 8 0.000000000000000 6.283185307179586
2  84 22 9 0.000000000000000 6.283185307179586
2  85 3 7 0.000000000000000 6.283185307179586
0

0101000
+45 0 -45 0 *
Wi

0101100
+44 0 -44 0 -43 4 +43 6 *
Fa
0  0.000000100000000 22 0

0111000
+42 0 *
Ve
0.000000100000000
3024.935905944494152 3654.600100000000111 0.000000000000000
0 0

0101101
*
Ed
 0.000000100000000 1 1 0
1  43 0 0.000000000000000 15.000000000000000
3  86 87CN 23 0 0.000000000000000 15.000000000000000
0

0101000
+40 4 -40 6 *
Ed
 0.000000100000000 1 1 0
1  44 0 0.000000000000000 6.283185307179586
2  88 23 8 0.000000000000000 6.283185307179586
2  89 23 9 0.000000000000000 6.283185307179586
2  90 3 7 0.000000000000000 6.283185307179586
0

0101000
+40 0 -40 0 *
Wi

0101100
+39 0 -39 0 -38 4 +38 6 *
Fa
0  0.000000100000000 23 0

0111000
+37 0 *
Ve
0.000000100000000
3438.376151318572283 3654.600100000000111 0.000000000000000
0 0

0101101
*
Ed
 0.000000100000000 1 1 0
1  45 0 0.000000000000000 15.000000000000000
3  91 92CN 24 0 0.000000000000000 15.000000000000000
0

0101000
+35 4 -35 6 *
Ed
 0.000000100000000 1 1 0
1  46 0 0.000000000000000 6.283185307179586
2  93 24 8 0.000000000000000 6.283185307179586
2  94 24 9 0.000000000000000 6.283185307179586
2  95 3 7 0.000000000000000 6.283185307179586
0

0101000
+35 0 -35 0 *
Wi

0101100
+34 0 -34 0 -33 4 +33 6 *
Fa
0  0.000000100000000 24 0

0111000
+32 0 *
Ve
0.000000100000000
3540.900465488300597 3472.733400000000074 0.000000000000000
0 0

0101101
*
Ed
 0.000000100000000 1 1 0
1  47 0 0.000000000000000 15.000000000000000
3  96 97CN 25 0 0.000000000000000 15.000000000000000
0

0101000
+30 4 -30 6 *
Ed
 0.000000100000000 1 1 0
1  48 0 0.000000000000000 6.283185307179586
2  98 25 8 0.000000000000000 6.283185307179586
2  99 25 9 0.000000000000000 6.283185307179586
2  100 3 7 0.000000000000000 6.283185307179586
0

0101000
+30 0 -30 0 *
Wi

0101100
+29 0 -29 0 -28 4 +28 6 *
Fa
0  0.000000100000000 25 0

0111000
+27 0 *
Ve
0.000000100000000
3605.999999999999091 3472.733400000000074 0.000000000000000
0 0

0101101
*
Ed
 0.000000100000000 1 1 0
1  49 0 0.000000000000000 15.000000000000000
3  101 102CN 26 0 0.000000000000000 15.000000000000000
0

0101000
+25 4 -25 6 *
Ed
 0.000000100000000 1 1 0
1  50 0 0.000000000000000 6.283185307179586
2  103 26 8 0.000000000000000 6.283185307179586
2  104 26 9 0.000000000000000 6.283185307179586
2  105 3 7 0.000000000000000 6.283185307179586
0

0101000
+25 0 -25 0 *
Wi

0101100
+24 0 -24 0 -23 4 +23 6 *
Fa
0  0.000000100000000 26 0

0111000
+22 0 *
Wi

0101100
+141 11 +136 11 +131 11 +126 11 +121 11 +116 11 +111 11 +106 11 +103 11 *
Wi

0101100
+98 11 *
Wi

0101100
+93 11 *
Wi

0101100
+88 11 *
Wi

0101100
+83 11 *
Wi

0101100
+78 11 *
Wi

0101100
+73 11 *
Wi

0101100
+68 11 *
Wi

0101100
+63 11 *
Wi

0101100
+58 11 *
Wi

0101100
+53 11 *
Wi

0101100
+48 11 *
Wi

0101100
+43 11 *
Wi

0101100
+38 11 *
Wi

0101100
+33 11 *
Wi

0101100
+28 11 *
Wi

0101100
+23 11 *
Fa
0  0.000000100000000 3 0

0111000
+20 0 +19 0 +18 0 +17 0 +16 0 +15 0 +14 0 +13 0 +12 0 +11 0 
+10 0 +9 0 +8 0 +7 0 +6 0 +5 0 +4 0 *
Sh

0101100
+139 0 +134 0 +129 0 +124 0 +119 0 +114 0 +109 0 +104 0 +101 0 +96 0 
+91 0 +86 0 +81 0 +76 0 +71 0 +66 0 +61 0 +56 0 +51 0 +46 0 
+41 0 +36 0 +31 0 +26 0 +21 0 +3 10 -3 12 *
So

1100000
+2 0 *

+1 0 