
CASCADE Topology V1, (c) Matra-Datavision
Locations 45
1
1.000000000000000 0.000000000000000 0.000000000000000 0.000000000000000 
0.000000000000000 1.000000000000000 0.000000000000000 0.000000000000000 
0.000000000000000 0.000000000000000 1.000000000000000 0.000000000000000 
1
1.000000000000000 0.000000000000000 0.000000000000000 0.000000000000000 
0.000000000000000 1.000000000000000 0.000000000000000 0.000000000000000 
0.000000000000000 0.000000000000000 1.000000000000000 0.000000000000000 
1
1.000000000000000 0.000000000000000 0.000000000000000 0.000000000000000 
0.000000000000000 1.000000000000000 0.000000000000000 0.000000000000000 
0.000000000000000 0.000000000000000 1.000000000000000 0.000000000000000 
1
1.000000000000000 0.000000000000000 0.000000000000000 0.000000000000000 
0.000000000000000 1.000000000000000 0.000000000000000 0.000000000000000 
0.000000000000000 0.000000000000000 1.000000000000000 0.000000000000000 
1
1.000000000000000 0.000000000000000 0.000000000000000 0.000000000000000 
0.000000000000000 1.000000000000000 0.000000000000000 0.000000000000000 
0.000000000000000 0.000000000000000 1.000000000000000 0.000000000000000 
2  2 1 3 -1 4 1 5 -1 0
1
1.000000000000000 0.000000000000000 0.000000000000000 0.000000000000000 
0.000000000000000 1.000000000000000 0.000000000000000 0.000000000000000 
0.000000000000000 0.000000000000000 1.000000000000000 0.000000000000000 
1
1.000000000000000 0.000000000000000 0.000000000000000 0.000000000000000 
0.000000000000000 1.000000000000000 0.000000000000000 0.000000000000000 
0.000000000000000 0.000000000000000 1.000000000000000 0.000000000000000 
1
1.000000000000000 0.000000000000000 0.000000000000000 0.000000000000000 
0.000000000000000 1.000000000000000 0.000000000000000 0.000000000000000 
0.000000000000000 0.000000000000000 1.000000000000000 0.000000000000000 
2  7 1 8 1 9 -1 0
1
1.000000000000000 0.000000000000000 0.000000000000000 -0.000000000000000 
0.000000000000000 1.000000000000000 0.000000000000000 -0.000000000000000 
0.000000000000000 0.000000000000000 1.000000000000000 -50.000000000000000 
2  7 1 8 1 9 -1 11 1 0
2  7 1 8 1 9 -1 2 1 3 -1 4 1 5 -1 0
2  9 1 8 -1 7 -1 0
2  11 -1 9 1 8 -1 7 -1 0
2  7 1 8 1 9 -1 11 1 2 1 3 -1 4 1 5 -1 0
1
1.000000000000000 0.000000000000000 0.000000000000000 0.000000000000000 
0.000000000000000 1.000000000000000 0.000000000000000 0.000000000000000 
0.000000000000000 0.000000000000000 1.000000000000000 0.000000000000000 
1
-1.000000000000000 0.000000000000000 0.000000000000000 0.000000000000000 
0.000000000000000 0.000000000000000 1.000000000000000 -973.000000000000000 
0.000000000000000 1.000000000000000 -0.000000000000000 0.000000000000000 
2  17 1 18 1 5 -1 0
2  5 1 18 -1 17 -1 0
1
1.000000000000000 0.000000000000000 0.000000000000000 0.000000000000000 
0.000000000000000 1.000000000000000 0.000000000000000 -5.000000000000000 
0.000000000000000 0.000000000000000 1.000000000000000 0.000000000000001 
2  21 -1 5 1 18 -1 17 -1 0
2  18 -1 17 -1 0
2  2 1 3 -1 4 1 18 -1 17 -1 0
2  9 -1 2 1 3 -1 4 1 5 -1 0
2  7 1 8 1 0
2  9 -1 11 1 2 1 3 -1 4 1 5 -1 0
2  17 1 18 1 5 -1 21 1 0
2  4 1 5 -1 0
2  2 1 3 -1 0
2  7 1 8 1 9 -1 2 1 3 -1 0
2  7 1 8 1 9 -1 11 1 2 1 3 -1 0
1
1.000000000000000 0.000000000000000 0.000000000000000 0.000000000000000 
0.000000000000000 1.000000000000000 0.000000000000000 0.000000000000000 
0.000000000000000 0.000000000000000 1.000000000000000 0.000000000000000 
1
1.000000000000000 0.000000000000000 0.000000000000000 0.000000000000000 
0.000000000000000 0.000000000000000 -1.000000000000000 -1843.000000000000000 
0.000000000000000 1.000000000000000 0.000000000000000 0.000000000000000 
2  33 1 34 1 3 -1 0
2  3 1 34 -1 33 -1 0
1
1.000000000000000 0.000000000000000 0.000000000000000 0.000000000000000 
0.000000000000000 1.000000000000000 0.000000000000000 5.000000000000000 
0.000000000000000 0.000000000000000 1.000000000000000 -0.000000000000001 
2  37 -1 3 1 34 -1 33 -1 0
2  34 -1 33 -1 0
2  2 1 34 -1 33 -1 0
2  5 -1 21 1 0
2  17 1 18 1 0
2  33 1 34 1 3 -1 37 1 0
2  3 -1 37 1 4 1 5 -1 0
2  33 1 34 1 0
Curve2ds 40
1 989.89398287380845431 0.00000000000000000 0.00000000000000000 -1.00000000000000000 
1 0.00000000000000000 0.00000000000000000 0.00000000000000000 -1.00000000000000000 
1 0.00000000000000000 0.00000000000000000 1.00000000000000000 0.00000000000000000 
1 0.00000000000000000 -50.00000000000000000 1.00000000000000000 0.00000000000000000 
1 162.03161901286512148 0.00000000000000000 0.00000000000000000 -1.00000000000000000 
1 0.00000000000000000 0.00000000000000000 0.00000000000000000 -1.00000000000000000 
1 0.00000000000000000 0.00000000000000000 1.00000000000000000 0.00000000000000000 
1 0.00000000000000000 -5.00000000000000000 1.00000000000000000 0.00000000000000000 
2 -0.00000000000000355 0.00000000000000000 0.00000000000000000 -1.00000000000000000 1.00000000000000000 0.00000000000000000 5.00000000000000000
2 40.00000000000000000 -25.00000000000000000 1.00000000000000000 0.00000000000000000 -0.00000000000000000 1.00000000000000000 5.00000000000000000
1 0.00000000000000000 0.00000000000000000 1.00000000000000000 0.00000000000000000 
1 0.00000000000000000 -5.00000000000000000 1.00000000000000000 0.00000000000000000 
2 0.00000000000045475 0.00000000000000355 -1.00000000000000000 0.00000000000000000 -0.00000000000000000 -1.00000000000000000 5.00000000000000000
2 122.03161901286512148 -25.00000000000000000 1.00000000000000000 0.00000000000000000 -0.00000000000000000 1.00000000000000000 5.00000000000000000
1 469.41427338899120514 0.00000000000000000 0.00000000000000000 -1.00000000000000000 
1 0.00000000000000000 0.00000000000000000 0.00000000000000000 -1.00000000000000000 
1 0.00000000000000000 0.00000000000000000 1.00000000000000000 0.00000000000000000 
1 0.00000000000000000 -50.00000000000000000 1.00000000000000000 0.00000000000000000 
1 0.00000000000000000 0.00000000000000000 1.00000000000000000 0.00000000000000000 
1 0.00000000000000000 -50.00000000000000000 1.00000000000000000 0.00000000000000000 
1 0.00000000000000000 0.00000000000000000 1.00000000000000000 0.00000000000000000 
1 0.00000000000000000 -50.00000000000000000 1.00000000000000000 0.00000000000000000 
1 0.00000000000000000 0.00000000000000000 0.00000000000000000 -1.00000000000000000 
1 885.47771352997540362 0.00000000000000000 0.00000000000000000 -1.00000000000000000 
1 0.00000000000000000 0.00000000000000000 0.00000000000000000 -1.00000000000000000 
1 6.28318530717958623 0.00000000000000000 0.00000000000000000 -1.00000000000000000 
1 0.00000000000000000 0.00000000000000000 0.00000000000000000 -1.00000000000000000 
1 6.28318530717958623 0.00000000000000000 0.00000000000000000 -1.00000000000000000 
1 0.00000000000000000 0.00000000000000000 1.00000000000000000 0.00000000000000000 
1 0.00000000000000000 -5.00000000000000000 1.00000000000000000 0.00000000000000000 
2 0.00000000000000355 0.00000000000045475 0.00000000000000000 1.00000000000000000 -1.00000000000000000 0.00000000000000000 5.00000000000000000
2 80.00000000000000000 -25.00000000000000000 1.00000000000000000 0.00000000000000000 -0.00000000000000000 1.00000000000000000 5.00000000000000000
1 0.00000000000000000 0.00000000000000000 1.00000000000000000 0.00000000000000000 
1 0.00000000000000000 -5.00000000000000000 1.00000000000000000 0.00000000000000000 
2 0.00000000000000355 0.00000000000000000 0.00000000000000000 1.00000000000000000 -1.00000000000000000 0.00000000000000000 5.00000000000000000
2 389.41427338899120514 -25.00000000000000000 1.00000000000000000 0.00000000000000000 -0.00000000000000000 1.00000000000000000 5.00000000000000000
1 0.00000000000000000 0.00000000000000000 0.00000000000000000 -1.00000000000000000 
1 6.28318530717958623 0.00000000000000000 0.00000000000000000 -1.00000000000000000 
1 0.00000000000000000 0.00000000000000000 0.00000000000000000 -1.00000000000000000 
1 6.28318530717958623 0.00000000000000000 0.00000000000000000 -1.00000000000000000 
Curves 16
1 2513.22999999999638021 -973.00000000000000000 0.00000000000000000 -0.00000000000000000 -0.00000000000000000 -1.00000000000000000 
1 2513.22999999999638021 -973.00000000000000000 0.00000000000000000 -1.00000000000000000 0.00000000000000000 0.00000000000000000 
1 2351.19838098713125873 -973.00000000000000000 0.00000000000000000 -0.00000000000000000 -0.00000000000000000 -1.00000000000000000 
2 -2473.22999999999638021 -25.00000000000000000 0.00000000000000000 0.00000000000000000 0.00000000000000000 1.00000000000000000 1.00000000000000000 0.00000000000000000 -0.00000000000000000 -0.00000000000000000 1.00000000000000000 0.00000000000000000 5.00000000000000000
2 -2391.19838098713125873 -25.00000000000000000 0.00000000000000000 0.00000000000000000 0.00000000000000000 1.00000000000000000 1.00000000000000000 0.00000000000000000 -0.00000000000000000 -0.00000000000000000 1.00000000000000000 0.00000000000000000 5.00000000000000000
1 2985.44827297317533521 -1843.00000000000000000 0.00000000000000000 -0.00000000000000000 -0.00000000000000000 -1.00000000000000000 
1 2985.44827297317533521 -1843.00000000000000000 0.00000000000000000 -0.47703923969944695 0.87888199650861754 0.00000000000000000 
1 2351.19838098713125873 -973.00000000000000000 0.00000000000000000 0.18615445208658302 -0.98252049340883685 0.00000000000000000 
1 2516.03399958418413007 -1843.00000000000000000 0.00000000000000000 1.00000000000000000 0.00000000000000000 0.00000000000000000 
1 2516.03399958418413007 -1843.00000000000000000 0.00000000000000000 -0.00000000000000000 -0.00000000000000000 -1.00000000000000000 
1 2468.22999999999638021 -973.00000000000000000 -25.00000000000000000 0.00000000000000000 -1.00000000000000000 0.00000000000000022 
1 2386.19838098713125873 -973.00000000000000000 -25.00000000000000000 0.00000000000000000 -1.00000000000000000 0.00000000000000022 
2 2596.03399958418413007 -25.00000000000000000 0.00000000000000000 0.00000000000000000 0.00000000000000000 1.00000000000000000 1.00000000000000000 0.00000000000000000 -0.00000000000000000 -0.00000000000000000 1.00000000000000000 0.00000000000000000 5.00000000000000000
2 2905.44827297317533521 -25.00000000000000000 0.00000000000000000 0.00000000000000000 0.00000000000000000 1.00000000000000000 1.00000000000000000 0.00000000000000000 -0.00000000000000000 -0.00000000000000000 1.00000000000000000 0.00000000000000000 5.00000000000000000
1 2601.03399958418413007 -1843.00000000000000000 -25.00000000000000000 0.00000000000000000 1.00000000000000000 -0.00000000000000022 
1 2910.44827297317533521 -1843.00000000000000000 -25.00000000000000000 0.00000000000000000 1.00000000000000000 -0.00000000000000022 
Polygon3D 0
PolygonOnTriangulations 0
Surfaces 13
1 2513.22999999999638021 -973.00000000000000000 0.00000000000000000 0.00000000000000000 1.00000000000000000 -0.00000000000000000 -1.00000000000000000 0.00000000000000000 0.00000000000000000 0.00000000000000000 0.00000000000000000 1.00000000000000000 
1 2985.44827297317533521 -1843.00000000000000000 0.00000000000000000 0.87888199650861754 0.47703923969944695 -0.00000000000000000 -0.47703923969944695 0.87888199650861754 0.00000000000000000 0.00000000000000000 0.00000000000000000 1.00000000000000000 
1 2351.19838098713125873 -973.00000000000000000 0.00000000000000000 -0.98252049340883685 -0.18615445208658302 0.00000000000000000 0.18615445208658302 -0.98252049340883685 0.00000000000000000 0.00000000000000000 0.00000000000000000 1.00000000000000000 
2 2473.22999999999638021 -973.00000000000000000 -25.00000000000000000 0.00000000000000000 1.00000000000000000 -0.00000000000000022 -1.00000000000000000 0.00000000000000000 0.00000000000000000 0.00000000000000000 0.00000000000000022 1.00000000000000000 5.00000000000000000
1 2473.22999999999638021 -972.99999999999988631 -24.99999999999999645 -0.00000000000000000 1.00000000000000000 -0.00000000000000000 0.00000000000000000 0.00000000000000000 1.00000000000000000 1.00000000000000000 0.00000000000000000 -0.00000000000000000 
2 2391.19838098713125873 -973.00000000000000000 -25.00000000000000000 0.00000000000000000 1.00000000000000000 -0.00000000000000022 -1.00000000000000000 0.00000000000000000 0.00000000000000000 0.00000000000000000 0.00000000000000022 1.00000000000000000 5.00000000000000000
1 2391.19838098713080399 -972.99999999999988631 -24.99999999999999645 0.00000000000000000 1.00000000000000000 -0.00000000000000000 1.00000000000000000 -0.00000000000000000 0.00000000000000000 0.00000000000000000 -0.00000000000000000 -1.00000000000000000 
1 2516.03399958418413007 -1843.00000000000000000 0.00000000000000000 0.00000000000000000 -1.00000000000000000 0.00000000000000000 1.00000000000000000 0.00000000000000000 0.00000000000000000 -0.00000000000000000 0.00000000000000000 1.00000000000000000 
1 2617.58173072207955556 -1461.33912417509441184 0.00000000000000000 0.00000000000000000 0.00000000000000000 1.00000000000000000 1.00000000000000000 0.00000000000000000 -0.00000000000000000 -0.00000000000000000 1.00000000000000000 0.00000000000000000 
2 2596.03399958418413007 -1843.00000000000000000 -25.00000000000000000 0.00000000000000000 -1.00000000000000000 0.00000000000000022 1.00000000000000000 0.00000000000000000 0.00000000000000000 -0.00000000000000000 0.00000000000000022 1.00000000000000000 5.00000000000000000
1 2596.03399958418367532 -1843.00000000000000000 -24.99999999999999645 -0.00000000000000000 -1.00000000000000000 -0.00000000000000000 0.00000000000000000 0.00000000000000000 -1.00000000000000000 1.00000000000000000 -0.00000000000000000 0.00000000000000000 
2 2905.44827297317533521 -1843.00000000000000000 -25.00000000000000000 0.00000000000000000 -1.00000000000000000 0.00000000000000022 1.00000000000000000 0.00000000000000000 0.00000000000000000 -0.00000000000000000 0.00000000000000022 1.00000000000000000 5.00000000000000000
1 2905.44827297317533521 -1843.00000000000000000 -24.99999999999999645 -0.00000000000000000 -1.00000000000000000 -0.00000000000000000 0.00000000000000000 0.00000000000000000 -1.00000000000000000 1.00000000000000000 -0.00000000000000000 0.00000000000000000 
Triangulations 0

TShapes 56
Ve
0.000000100000000
2513.229999999996380 -973.000000000000000 0.000000000000000
0 0

0101101
*
Ed
 0.000000100000000 1 1 0
1  1 0 0.000000000000000 50.000000000000000
2  1 2 0 0.000000000000000 50.000000000000000
2  2 1 0 0.000000000000000 50.000000000000000
0

0101000
+56 10 -56 12 *
Ve
0.000000100000000
2351.198380987131259 -973.000000000000000 0.000000000000000
0 0

0101101
*
Ed
 0.000000100000000 1 1 0
1  2 0 0.000000000000000 162.031619012865121
2  3 1 14 0.000000000000000 162.031619012865121
2  4 1 15 0.000000000000000 162.031619012865121
0

0101000
+56 0 -54 0 *
Ed
 0.000000100000000 1 1 0
1  3 0 0.000000000000000 50.000000000000000
2  5 1 0 0.000000000000000 50.000000000000000
2  6 3 0 0.000000000000000 50.000000000000000
0

0101000
+54 10 -54 12 *
Wi

0101100
+55 6 -53 13 +53 16 -52 6 *
Ve
0.000000100000000
-2468.229999999996380 -25.000000000000000 0.000000000000000
0 0

0101101
*
Ed
 0.000000100000000 1 1 0
1  4 0 0.000000000000000 6.283185307179586
2  7 4 20 0.000000000000000 6.283185307179586
2  8 4 22 0.000000000000000 6.283185307179586
2  9 5 23 0.000000000000000 6.283185307179586
2  10 1 24 0.000000000000000 6.283185307179586
0

0101000
+50 0 -50 0 *
Wi

0101100
-49 19 *
Ve
0.000000100000000
-2386.198380987131259 -25.000000000000000 0.000000000000000
0 0

0101101
*
Ed
 0.000000100000000 1 1 0
1  5 0 0.000000000000000 6.283185307179586
2  11 6 20 0.000000000000000 6.283185307179586
2  12 6 22 0.000000000000000 6.283185307179586
2  13 7 23 0.000000000000000 6.283185307179586
2  14 1 24 0.000000000000000 6.283185307179586
0

0101000
+47 0 -47 0 *
Wi

0101100
-46 19 *
Fa
0  0.000000100000000 1 6

0111000
+51 0 +48 0 +45 0 *
Ve
0.000000100000000
2985.448272973175335 -1843.000000000000000 0.000000000000000
0 0

0101101
*
Ed
 0.000000100000000 1 1 0
1  6 0 0.000000000000000 50.000000000000000
2  15 8 0 0.000000000000000 50.000000000000000
2  16 2 0 0.000000000000000 50.000000000000000
0

0101000
+43 10 -43 12 *
Ed
 0.000000100000000 1 1 0
1  7 0 0.000000000000000 989.893982873808454
2  17 2 14 0.000000000000000 989.893982873808454
2  18 2 15 0.000000000000000 989.893982873808454
0

0101000
+43 0 -56 0 *
Wi

0101100
+42 0 -55 0 -41 10 +41 12 *
Fa
0  0.000000100000000 2 0

0111000
+40 0 *
Ve
0.000000100000000
2516.033999584184130 -1843.000000000000000 0.000000000000000
0 0

0101101
*
Ed
 0.000000100000000 1 1 0
1  8 0 0.000000000000000 885.477713529975404
2  19 3 14 0.000000000000000 885.477713529975404
2  20 3 15 0.000000000000000 885.477713529975404
0

0101000
+54 0 -38 0 *
Ed
 0.000000100000000 1 1 0
1  9 0 0.000000000000000 469.414273388991205
2  21 8 14 0.000000000000000 469.414273388991205
2  22 8 15 0.000000000000000 469.414273388991205
0

0101000
+38 0 -43 0 *
Wi

0101100
+53 0 +37 0 +36 0 +41 0 *
Fa
0  0.000000100000000 9 0

0111000
+35 26 *
Ed
 0.000000100000000 1 1 0
1  10 0 0.000000000000000 50.000000000000000
2  23 8 0 0.000000000000000 50.000000000000000
2  24 3 0 0.000000000000000 50.000000000000000
0

0101000
+38 10 -38 12 *
Wi

0101100
+52 0 -33 0 -37 10 +37 12 *
Fa
0  0.000000100000000 3 0

0111000
+32 0 *
Ed
 0.000000100000000 1 1 0
1  11 0 0.000000000000000 5.000000000000000
3  25 26CN 4 0 0.000000000000000 5.000000000000000
0

0101000
+50 19 -50 28 *
Wi

0101100
+30 0 -30 0 -49 19 +49 28 *
Fa
0  0.000000100000000 4 0

0111000
+29 0 *
Ed
 0.000000100000000 1 1 0
1  12 0 0.000000000000000 5.000000000000000
3  27 28CN 6 0 0.000000000000000 5.000000000000000
0

0101000
+47 19 -47 28 *
Wi

0101100
+27 0 -27 0 -46 19 +46 28 *
Fa
0  0.000000100000000 6 0

0111000
+26 0 *
Wi

0101100
+33 30 -36 31 +36 32 -42 30 *
Ve
0.000000100000000
2601.033999584184130 -25.000000000000000 0.000000000000000
0 0

0101101
*
Ed
 0.000000100000000 1 1 0
1  13 0 0.000000000000000 6.283185307179586
2  29 10 36 0.000000000000000 6.283185307179586
2  30 10 38 0.000000000000000 6.283185307179586
2  31 11 39 0.000000000000000 6.283185307179586
2  32 8 40 0.000000000000000 6.283185307179586
0

0101000
+23 0 -23 0 *
Wi

0101100
-22 35 *
Ve
0.000000100000000
2910.448272973175335 -25.000000000000000 0.000000000000000
0 0

0101101
*
Ed
 0.000000100000000 1 1 0
1  14 0 0.000000000000000 6.283185307179586
2  33 12 36 0.000000000000000 6.283185307179586
2  34 12 38 0.000000000000000 6.283185307179586
2  35 13 39 0.000000000000000 6.283185307179586
2  36 8 40 0.000000000000000 6.283185307179586
0

0101000
+20 0 -20 0 *
Wi

0101100
-19 35 *
Fa
0  0.000000100000000 8 30

0111000
+24 0 +21 0 +18 0 *
Wi

0101100
+49 0 *
Fa
0  0.000000100000000 5 0

0111000
+16 42 *
Wi

0101100
+46 0 *
Fa
0  0.000000100000000 7 0

0111000
+14 42 *
Ed
 0.000000100000000 1 1 0
1  15 0 0.000000000000000 5.000000000000000
3  37 38CN 10 0 0.000000000000000 5.000000000000000
0

0101000
+23 35 -23 43 *
Wi

0101100
+12 0 -12 0 -22 35 +22 43 *
Fa
0  0.000000100000000 10 0

0111000
+11 0 *
Ed
 0.000000100000000 1 1 0
1  16 0 0.000000000000000 5.000000000000000
3  39 40CN 12 0 0.000000000000000 5.000000000000000
0

0101000
+20 35 -20 43 *
Wi

0101100
+9 0 -9 0 -19 35 +19 43 *
Fa
0  0.000000100000000 12 0

0111000
+8 0 *
Wi

0101100
+22 0 *
Fa
0  0.000000100000000 11 0

0111000
+6 45 *
Wi

0101100
+19 0 *
Fa
0  0.000000100000000 13 0

0111000
+4 45 *
Sh

0101100
+44 0 +39 6 +34 25 -34 27 +31 6 -28 0 -25 0 +17 29 +15 41 +13 41 
-10 29 -7 29 +5 44 +3 44 *
So

0100000
+2 0 *

+1 1 