
CASCADE Topology V1, (c) Matra-Datavision
Locations 14
1
1.000000000000000 0.000000000000000 0.000000000000000 0.000000000000000 
0.000000000000000 1.000000000000000 0.000000000000000 0.000000000000000 
0.000000000000000 0.000000000000000 1.000000000000000 0.000000000000000 
1
0.000000000000000 0.000000000000000 -1.000000000000000 4803.000000000000000 
-1.000000000000000 0.000000000000000 0.000000000000000 0.000000000000000 
-0.000000000000000 1.000000000000000 -0.000000000000000 0.000000000000000 
1
1.000000000000000 0.000000000000000 0.000000000000000 0.000000000000000 
0.000000000000000 -0.000000000000000 -1.000000000000000 0.000000000000000 
0.000000000000000 1.000000000000000 -0.000000000000000 0.000000000000000 
2  1 1 2 1 3 -1 0
1
1.000000000000000 0.000000000000000 0.000000000000000 21913.732967425959941 
0.000000000000000 1.000000000000000 0.000000000000000 0.000000000006082 
0.000000000000000 0.000000000000000 1.000000000000000 -0.000000000002433 
2  1 1 2 1 3 -1 5 1 0
2  2 -1 1 -1 0
2  3 1 2 -1 1 -1 0
2  5 -1 3 1 2 -1 1 -1 0
1
1.000000000000000 0.000000000000000 0.000000000000000 0.000000000000000 
0.000000000000000 -0.000000000000000 -1.000000000000000 0.000000000000000 
0.000000000000000 1.000000000000000 -0.000000000000000 0.000000000000000 
2  10 1 2 -1 1 -1 0
2  3 -1 0
2  1 1 2 1 0
2  3 -1 5 1 0
Curve2ds 22
1 0.00000000000000000 -0.00000000000000000 0.00000000000000011 -1.00000000000000000 
1 2267.00000000000045475 0.00000000000028028 -0.00000000000000000 -1.00000000000000000 
1 0.00000000000000000 0.00000000000000000 0.00000000000000000 -1.00000000000000000 
1 1045.00000000000068212 0.00000000000000000 0.00000000000000011 -1.00000000000000000 
1 -1133.49999999999977263 522.50000000000068212 -0.00000000000000028 -1.00000000000000000 
1 0.00000000000000000 -0.00000000000000000 1.00000000000000000 0.00000000000000000 
1 0.00000000000250111 -21913.73296742595994147 1.00000000000000000 0.00000000000000000 
1 545.99999999999954525 -1445.00000000000090949 -0.00000000000000006 1.00000000000000000 
1 2267.00000000000045475 -0.00000000000028028 0.00000000000000000 -1.00000000000000000 
1 0.00000000000000000 -0.00000000000000000 -0.00000000000000011 -1.00000000000000000 
1 0.00000000000000000 0.00000000000000000 1.00000000000000000 -0.00000000000000000 
1 0.00000000000017057 -21913.73296742595994147 1.00000000000000000 -0.00000000000000000 
1 -1133.50000000000022737 -522.50000000000000000 1.00000000000000000 -0.00000000000000028 
1 1045.00000000000068212 0.00000000000000000 -0.00000000000000011 -1.00000000000000000 
1 0.00000000000000000 0.00000000000000000 -0.00000000000000000 -1.00000000000000000 
1 0.00000000000000000 -0.00000000000000000 1.00000000000000000 0.00000000000000000 
1 -0.00000000000243291 -21913.73296742595994147 1.00000000000000000 0.00000000000000000 
1 1133.50000000000022737 -522.50000000000068212 0.00000000000000028 1.00000000000000000 
1 1133.50000000000045475 522.50000000000000000 -1.00000000000000000 0.00000000000000028 
1 0.00000000000000000 0.00000000000000000 1.00000000000000000 0.00000000000000000 
1 -0.00000000000000000 -21913.73296742595994147 1.00000000000000000 0.00000000000000000 
1 2813.00000000000000000 -1445.00000000000068212 -1.00000000000000000 -0.00000000000000006 
Curves 8
1 4802.99999999999909051 2267.00000000000045475 1045.00000000000090949 1.00000000000000000 0.00000000000000028 -0.00000000000000011 
1 4802.99999999999909051 2267.00000000000045475 0.00000000000012584 1.00000000000000000 0.00000000000000028 -0.00000000000000011 
1 1045.00000000000045475 2267.00000000000000000 0.00000000000000000 -1.00000000000000000 0.00000000000000000 0.00000000000000000 
1 4803.00000000000000000 0.00000000000000000 0.00000000000000000 1.00000000000000000 0.00000000000000028 -0.00000000000000011 
1 0.00000000000000000 2267.00000000000000000 0.00000000000000000 0.00000000000000000 -1.00000000000000000 0.00000000000000000 
1 4803.00000000000000000 -0.00000000000005801 1045.00000000000068212 1.00000000000000000 0.00000000000000028 -0.00000000000000011 
1 0.00000000000000000 0.00000000000000000 0.00000000000000000 1.00000000000000000 0.00000000000000000 0.00000000000000000 
1 1045.00000000000045475 0.00000000000000000 0.00000000000000000 0.00000000000000000 1.00000000000000000 0.00000000000000000 
Polygon3D 0
PolygonOnTriangulations 0
Surfaces 6
1 4802.99999999999909051 2267.00000000000045475 1045.00000000000090949 -0.00000000000000028 1.00000000000000000 0.00000000000000006 0.00000000000000000 0.00000000000000006 -1.00000000000000000 -1.00000000000000000 -0.00000000000000028 -0.00000000000000000 
1 4803.00000000000000000 -0.00000000000005801 1045.00000000000068212 0.00000000000000011 -0.00000000000000006 1.00000000000000000 -0.00000000000000028 1.00000000000000000 0.00000000000000006 -1.00000000000000000 -0.00000000000000028 0.00000000000000011 
1 4802.99999999999909051 2267.00000000000045475 0.00000000000012584 -0.00000000000000011 0.00000000000000006 -1.00000000000000000 0.00000000000000028 -1.00000000000000000 -0.00000000000000006 -1.00000000000000000 -0.00000000000000028 0.00000000000000011 
1 4803.00000000000000000 -522.50000000000068212 1133.50000000000022737 -1.00000000000000000 0.00000000000000000 -0.00000000000000040 0.00000000000000040 0.00000000000000000 -1.00000000000000000 0.00000000000000000 -1.00000000000000000 -0.00000000000000000 
1 4803.00000000000000000 2813.00000000000000000 -400.00000000000000000 1.00000000000000000 0.00000000000000000 -0.00000000000000000 0.00000000000000000 -1.00000000000000000 0.00000000000000000 0.00000000000000000 -0.00000000000000000 -1.00000000000000000 
1 4803.00000000000000000 0.00000000000000000 0.00000000000000000 0.00000000000000028 -1.00000000000000000 -0.00000000000000006 0.00000000000000000 -0.00000000000000006 1.00000000000000000 -1.00000000000000000 -0.00000000000000028 -0.00000000000000000 
Triangulations 0

TShapes 24
Ve
0.000000100000909
1045.000000000000455 2267.000000000000000 0.000000000000000
0 0

0101101
*
Ed
 0.000000100000000 1 1 0
1  1 0 0.000000000000000 21913.732967425959941
2  1 1 0 0.000000000000000 21913.732967425959941
2  2 2 0 0.000000000000000 21913.732967425959941
0

0101000
+24 4 -24 6 *
Ve
0.000000100000918
0.000000000000000 2267.000000000000000 0.000000000000000
0 0

0101101
*
Ed
 0.000000100000000 1 1 0
1  2 0 0.000000000000000 21913.732967425959941
2  3 3 0 0.000000000000000 21913.732967425959941
2  4 1 0 0.000000000000000 21913.732967425959941
0

0101000
+22 4 -22 6 *
Ed
 0.000000100000909 1 1 0
1  3 0 0.000000000000000 1045.000000000000455
2  5 4 7 0.000000000000000 1045.000000000000455
2  6 1 8 0.000000000000000 1045.000000000000455
2  7 1 9 0.000000000000000 1045.000000000000455
2  8 5 11 0.000000000000000 1045.000000000000455
0

0101000
+24 0 -22 0 *
Wi

0101100
+23 0 -21 0 -20 4 +20 6 *
Fa
0  0.000000100000000 1 0

0111000
+19 0 *
Ve
0.000000100000000
0.000000000000000 0.000000000000000 0.000000000000000
0 0

0101101
*
Ed
 0.000000100000000 1 1 0
1  4 0 0.000000000000000 21913.732967425959941
2  9 3 0 0.000000000000000 21913.732967425959941
2  10 6 0 0.000000000000000 21913.732967425959941
0

0101000
+17 4 -17 6 *
Ed
 0.000000100000000 1 1 0
1  5 0 0.000000000000000 2267.000000000000000
2  11 3 8 0.000000000000000 2267.000000000000000
2  12 3 9 0.000000000000000 2267.000000000000000
2  13 4 7 0.000000000000000 2267.000000000000000
0

0101000
+22 0 -17 0 *
Wi

0101100
+21 0 -16 0 -15 4 +15 6 *
Fa
0  0.000000100000000 3 0

0111000
+14 0 *
Ve
0.000000100000909
1045.000000000000455 0.000000000000000 0.000000000000000
0 0

0101101
*
Ed
 0.000000100000000 1 1 0
1  6 0 0.000000000000000 21913.732967425959941
2  14 6 0 0.000000000000000 21913.732967425959941
2  15 2 0 0.000000000000000 21913.732967425959941
0

0101000
+12 4 -12 6 *
Ed
 0.000000100000000 1 1 0
1  7 0 0.000000000000000 1045.000000000000455
2  16 6 8 0.000000000000000 1045.000000000000455
2  17 6 9 0.000000000000000 1045.000000000000455
2  18 4 7 0.000000000000000 1045.000000000000455
0

0101000
+17 0 -12 0 *
Wi

0101100
+16 0 -11 0 -10 4 +10 6 *
Fa
0  0.000000100000000 6 0

0111000
+9 0 *
Ed
 0.000000100000909 1 1 0
1  8 0 0.000000000000000 2267.000000000000000
2  19 4 7 0.000000000000000 2267.000000000000000
2  20 2 8 0.000000000000000 2267.000000000000000
2  21 2 9 0.000000000000000 2267.000000000000000
2  22 5 11 0.000000000000000 2267.000000000000000
0

0101000
+12 0 -24 0 *
Wi

0101100
+11 0 -23 0 -7 4 +7 6 *
Fa
0  0.000000100000000 2 0

0111000
+6 0 *
Wi

0101100
+20 0 +15 0 +10 0 +7 0 *
Fa
0  0.000000100000000 4 0

0111000
+4 13 *
Sh

0101100
+18 0 +13 0 +8 0 +5 0 +3 12 -3 14 *
So

1100000
+2 0 *

+1 0 