
CASCADE Topology V1, (c) Matra-Datavision
Locations 23
1
0.000000000000000 0.000000000000000 1.000000000000000 0.000000000000000 
1.000000000000000 0.000000000000000 0.000000000000000 0.000000000000000 
0.000000000000000 1.000000000000000 0.000000000000000 0.000000000000000 
1
0.000000000000000 -0.000000000000000 1.000000000000000 0.000000000000000 
1.000000000000000 0.000000000000000 0.000000000000000 0.000000000000000 
-0.000000000000000 1.000000000000000 0.000000000000000 0.000000000000000 
1
-0.000000000000000 0.000000000000000 1.000000000000000 0.000000000000000 
1.000000000000000 -0.000000000000000 0.000000000000000 0.000000000000000 
0.000000000000000 1.000000000000000 -0.000000000000000 0.000000000000000 
2  2 1 3 -1 0
1
1.000000000000000 0.000000000000000 0.000000000000000 0.000000000000000 
0.000000000000000 1.000000000000000 0.000000000000000 0.000000000000000 
0.000000000000000 0.000000000000000 1.000000000000000 0.000000000000000 
1
0.000000000000000 -0.000000000000000 1.000000000000000 0.000000000000000 
1.000000000000000 0.000000000000000 -0.000000000000000 0.000000000000000 
-0.000000000000000 1.000000000000000 0.000000000000000 0.000000000000000 
1
-0.000000000000000 0.000000000000000 1.000000000000000 0.000000000000000 
1.000000000000000 -0.000000000000000 0.000000000000000 0.000000000000000 
0.000000000000000 1.000000000000000 -0.000000000000000 0.000000000000000 
2  5 1 6 1 7 -1 0
1
1.000000000000000 0.000000000000000 0.000000000000000 0.000000000000007 
0.000000000000000 1.000000000000000 0.000000000000000 -0.000000000000004 
0.000000000000000 0.000000000000000 1.000000000000000 -15.000000000000000 
2  5 1 6 1 7 -1 9 1 0
2  6 -1 5 -1 0
2  7 -1 2 1 3 -1 0
2  5 1 6 1 7 -1 2 1 3 -1 0
1
1.000000000000000 0.000000000000000 0.000000000000000 0.000000000000000 
0.000000000000000 1.000000000000000 0.000000000000000 0.000000000000000 
0.000000000000000 0.000000000000000 1.000000000000000 0.000000000000000 
1
0.000000000000000 -0.000000000000000 1.000000000000000 -0.000000000000893 
1.000000000000000 0.000000000000000 -0.000000000000000 0.000000000000000 
0.000000000000000 1.000000000000000 0.000000000000000 -0.000000000000000 
2  14 1 15 1 3 -1 0
2  3 1 15 -1 14 -1 0
1
1.000000000000000 0.000000000000000 0.000000000000000 0.000000000002827 
0.000000000000000 1.000000000000000 0.000000000000000 -0.000000000001885 
0.000000000000000 0.000000000000000 1.000000000000000 -4243.981541948556696 
2  18 -1 3 1 15 -1 14 -1 0
2  15 -1 14 -1 0
2  7 -1 2 1 15 -1 14 -1 0
2  7 -1 9 1 2 1 3 -1 0
2  5 1 6 1 7 -1 9 1 2 1 3 -1 0
Curve2ds 36
1 -125.00000000000000000 1043.00000000000000000 0.00000000000000022 -1.00000000000000000 
1 125.00000000000000000 1043.00000000000000000 -1.00000000000000000 -0.00000000000000022 
1 -125.00000000000000000 -1043.00000000000000000 1.00000000000000000 0.00000000000000022 
1 125.00000000000000000 -1043.00000000000000000 -0.00000000000000022 1.00000000000000000 
1 0.00000000000000000 0.00000000000000000 1.00000000000000000 0.00000000000000000 
1 0.00000000000000000 -4243.98154194855669630 1.00000000000000000 0.00000000000000000 
2 0.00000000000000000 -0.00000000000000000 -0.00000000000000000 -1.00000000000000000 1.00000000000000000 -0.00000000000000000 5.00000000000000000
2 -5.00000000000181899 -987.99999999999727152 -0.00000000000000011 -1.00000000000000000 -1.00000000000000000 0.00000000000000011 5.00000000000000000
1 0.00000000000000000 0.00000000000000000 1.00000000000000000 0.00000000000000000 
1 0.00000000000000000 -4243.98154194855669630 1.00000000000000000 0.00000000000000000 
2 0.00000000000000000 -0.00000000000000000 -0.00000000000000000 -1.00000000000000000 1.00000000000000000 -0.00000000000000000 5.00000000000000000
2 54.99999999999818101 -987.99999999999738520 -0.00000000000000011 -1.00000000000000000 -1.00000000000000000 0.00000000000000011 5.00000000000000000
1 0.00000000000000000 0.00000000000000000 1.00000000000000000 0.00000000000000000 
1 0.00000000000000000 -4243.98154194855669630 1.00000000000000000 0.00000000000000000 
2 0.00000000000000000 -0.00000000000000000 -0.00000000000000000 -1.00000000000000000 1.00000000000000000 -0.00000000000000000 5.00000000000000000
2 -5.00000000000181899 988.00000000000318323 -0.00000000000000011 -1.00000000000000000 -1.00000000000000000 0.00000000000000011 5.00000000000000000
1 0.00000000000000000 0.00000000000000000 1.00000000000000000 0.00000000000000000 
1 0.00000000000000000 -4243.98154194855669630 1.00000000000000000 0.00000000000000000 
2 0.00000000000000000 -0.00000000000000000 -0.00000000000000000 -1.00000000000000000 1.00000000000000000 -0.00000000000000000 5.00000000000000000
2 54.99999999999818101 988.00000000000318323 -0.00000000000000011 -1.00000000000000000 -1.00000000000000000 0.00000000000000011 5.00000000000000000
2 -5.00000000000011013 -987.99999999999874944 0.00000000000000011 -1.00000000000000000 -1.00000000000000000 -0.00000000000000011 5.00000000000000000
1 0.00000000000000000 -14.99999999999924505 1.00000000000000000 0.00000000000000000 
2 54.99999999999989342 -987.99999999999874944 0.00000000000000011 -1.00000000000000000 -1.00000000000000000 -0.00000000000000011 5.00000000000000000
1 0.00000000000000000 -14.99999999999926459 1.00000000000000000 0.00000000000000000 
2 -4.99999999999988987 988.00000000000181899 0.00000000000000011 -1.00000000000000000 -1.00000000000000000 -0.00000000000000011 5.00000000000000000
1 0.00000000000000000 -14.99999999999968381 1.00000000000000000 0.00000000000000000 
2 55.00000000000010658 988.00000000000181899 0.00000000000000011 -1.00000000000000000 -1.00000000000000000 -0.00000000000000011 5.00000000000000000
1 0.00000000000000000 -14.99999999999970335 1.00000000000000000 0.00000000000000000 
1 0.00000000000000000 0.00000000000000000 0.00000000000000000 -1.00000000000000000 
1 6.28318530717958623 0.00000000000000000 0.00000000000000000 -1.00000000000000000 
1 0.00000000000000000 0.00000000000000000 0.00000000000000000 -1.00000000000000000 
1 6.28318530717958623 0.00000000000000000 0.00000000000000000 -1.00000000000000000 
1 0.00000000000000000 0.00000000000000000 0.00000000000000000 -1.00000000000000000 
1 6.28318530717958623 0.00000000000000000 0.00000000000000000 -1.00000000000000000 
1 0.00000000000000000 0.00000000000000000 0.00000000000000000 -1.00000000000000000 
1 6.28318530717958623 0.00000000000000000 0.00000000000000000 -1.00000000000000000 
Curves 20
1 -1858.00000000000045475 4962.66700000000128057 -0.00000000000261643 0.00000000000000044 -0.00000000000000028 -1.00000000000000000 
1 228.00000000000002842 4962.66700000000037107 -0.00000000000215324 0.00000000000000044 -0.00000000000000028 -1.00000000000000000 
1 -1858.00000000000113687 4962.66699999999946158 0.00000000000000000 1.00000000000000000 0.00000000000000000 0.00000000000000000 
1 -1858.00000000000045475 4712.66700000000128057 -0.00000000000250540 0.00000000000000044 -0.00000000000000028 -1.00000000000000000 
1 -1858.00000000000113687 4712.66699999999946158 0.00000000000000000 0.00000000000000000 1.00000000000000000 0.00000000000000000 
1 227.99999999999997158 4712.66700000000037107 -0.00000000000204222 0.00000000000000044 -0.00000000000000028 -1.00000000000000000 
1 227.99999999999886313 4962.66699999999946158 0.00000000000000000 0.00000000000000000 -1.00000000000000000 0.00000000000000000 
1 227.99999999999886313 4712.66699999999946158 0.00000000000000000 -1.00000000000000000 0.00000000000000000 0.00000000000000000 
2 172.99999999999891998 4842.66700000000037107 0.00000000000000000 0.00000000000000000 0.00000000000000000 1.00000000000000000 1.00000000000000000 0.00000000000000000 -0.00000000000000000 -0.00000000000000000 1.00000000000000000 0.00000000000000000 5.00000000000000000
2 172.99999999999891998 4782.66700000000037107 0.00000000000000000 0.00000000000000000 0.00000000000000000 1.00000000000000000 1.00000000000000000 0.00000000000000000 -0.00000000000000000 -0.00000000000000000 1.00000000000000000 0.00000000000000000 5.00000000000000000
2 -1803.00000000000113687 4842.66700000000037107 0.00000000000000000 0.00000000000000000 0.00000000000000000 1.00000000000000000 1.00000000000000000 0.00000000000000000 -0.00000000000000000 -0.00000000000000000 1.00000000000000000 0.00000000000000000 5.00000000000000000
2 -1803.00000000000113687 4782.66700000000037107 0.00000000000000000 0.00000000000000000 0.00000000000000000 1.00000000000000000 1.00000000000000000 0.00000000000000000 -0.00000000000000000 -0.00000000000000000 1.00000000000000000 0.00000000000000000 5.00000000000000000
2 172.99999999999894840 4842.66700000000128057 -15.00000000000328804 -0.00000000000000044 0.00000000000000067 1.00000000000000000 1.00000000000000000 -0.00000000000000022 0.00000000000000044 0.00000000000000022 1.00000000000000000 -0.00000000000000067 5.00000000000000000
2 172.99999999999894840 4782.66700000000128057 -15.00000000000326672 -0.00000000000000044 0.00000000000000067 1.00000000000000000 1.00000000000000000 -0.00000000000000022 0.00000000000000044 0.00000000000000022 1.00000000000000000 -0.00000000000000067 5.00000000000000000
2 -1803.00000000000159162 4842.66700000000128057 -15.00000000000460432 -0.00000000000000044 0.00000000000000067 1.00000000000000000 1.00000000000000000 -0.00000000000000022 0.00000000000000044 0.00000000000000022 1.00000000000000000 -0.00000000000000067 5.00000000000000000
2 -1803.00000000000159162 4782.66700000000128057 -15.00000000000458300 -0.00000000000000044 0.00000000000000067 1.00000000000000000 1.00000000000000000 -0.00000000000000022 0.00000000000000044 0.00000000000000022 1.00000000000000000 -0.00000000000000067 5.00000000000000000
1 177.99999999999894840 4842.66700000000128057 -0.00000000000404003 0.00000000000000067 -0.00000000000000044 -1.00000000000000000 
1 177.99999999999894840 4782.66700000000128057 -0.00000000000400006 0.00000000000000067 -0.00000000000000044 -1.00000000000000000 
1 -1798.00000000000159162 4842.66700000000128057 -0.00000000000491755 0.00000000000000067 -0.00000000000000044 -1.00000000000000000 
1 -1798.00000000000159162 4782.66700000000128057 -0.00000000000487758 0.00000000000000067 -0.00000000000000044 -1.00000000000000000 
Polygon3D 0
PolygonOnTriangulations 0
Surfaces 13
1 -1858.00000000000045475 4962.66700000000128057 -0.00000000000261643 -0.00000000000000044 -1.00000000000000000 0.00000000000000028 1.00000000000000000 -0.00000000000000044 0.00000000000000022 -0.00000000000000022 0.00000000000000028 1.00000000000000000 
1 -0.00000000000125514 -815.00000000000000000 4837.66699999999946158 -1.00000000000000000 0.00000000000000022 -0.00000000000000022 0.00000000000000022 0.00000000000000000 -1.00000000000000000 -0.00000000000000022 -1.00000000000000000 -0.00000000000000000 
1 -1858.00000000000045475 4712.66700000000128057 -0.00000000000250540 1.00000000000000000 -0.00000000000000022 0.00000000000000044 0.00000000000000022 1.00000000000000000 -0.00000000000000044 -0.00000000000000044 0.00000000000000044 1.00000000000000000 
1 228.00000000000002842 4962.66700000000037107 -0.00000000000215324 -1.00000000000000000 0.00000000000000022 -0.00000000000000044 -0.00000000000000022 -1.00000000000000000 0.00000000000000044 -0.00000000000000044 0.00000000000000044 1.00000000000000000 
2 172.99999999999894840 4842.66700000000128057 -0.00000000000404225 -0.00000000000000044 0.00000000000000067 1.00000000000000000 1.00000000000000000 -0.00000000000000022 0.00000000000000044 0.00000000000000022 1.00000000000000000 -0.00000000000000067 5.00000000000000000
1 -0.00000000000296696 172.99999999999891998 4842.66700000000037107 1.00000000000000000 -0.00000000000000044 0.00000000000000044 -0.00000000000000044 0.00000000000000000 1.00000000000000000 -0.00000000000000044 -1.00000000000000000 -0.00000000000000000 
2 172.99999999999894840 4782.66700000000128057 -0.00000000000400228 -0.00000000000000044 0.00000000000000067 1.00000000000000000 1.00000000000000000 -0.00000000000000022 0.00000000000000044 0.00000000000000022 1.00000000000000000 -0.00000000000000067 5.00000000000000000
1 -0.00000000000294031 172.99999999999891998 4782.66700000000037107 1.00000000000000000 -0.00000000000000044 0.00000000000000044 -0.00000000000000044 0.00000000000000000 1.00000000000000000 -0.00000000000000044 -1.00000000000000000 -0.00000000000000000 
2 -1803.00000000000159162 4842.66700000000128057 -0.00000000000491977 -0.00000000000000044 0.00000000000000067 1.00000000000000000 1.00000000000000000 -0.00000000000000022 0.00000000000000044 0.00000000000000022 1.00000000000000000 -0.00000000000000067 5.00000000000000000
1 -0.00000000000384448 -1803.00000000000113687 4842.66700000000037107 1.00000000000000000 -0.00000000000000044 0.00000000000000044 -0.00000000000000044 0.00000000000000000 1.00000000000000000 -0.00000000000000044 -1.00000000000000000 -0.00000000000000000 
2 -1803.00000000000159162 4782.66700000000128057 -0.00000000000487980 -0.00000000000000044 0.00000000000000067 1.00000000000000000 1.00000000000000000 -0.00000000000000022 0.00000000000000044 0.00000000000000022 1.00000000000000000 -0.00000000000000067 5.00000000000000000
1 -0.00000000000381784 -1803.00000000000113687 4782.66700000000037107 1.00000000000000000 -0.00000000000000044 0.00000000000000044 -0.00000000000000044 0.00000000000000000 1.00000000000000000 -0.00000000000000044 -1.00000000000000000 -0.00000000000000000 
1 227.99999999999997158 4712.66700000000037107 -0.00000000000204222 0.00000000000000044 1.00000000000000000 -0.00000000000000028 -1.00000000000000000 0.00000000000000044 -0.00000000000000022 -0.00000000000000022 0.00000000000000028 1.00000000000000000 
Triangulations 0

TShapes 62
Ve
0.000000100000000
-1858.000000000001137 4962.666999999999462 0.000000000000000
0 0

0101101
*
Ed
 0.000000100000000 1 1 0
1  1 0 0.000000000000000 15.000000000000000
0

0101000
+62 8 -62 10 *
Ve
0.000000100000000
227.999999999998863 4962.666999999999462 0.000000000000000
0 0

0101101
*
Ed
 0.000000100000000 1 1 0
1  2 0 0.000000000000000 15.000000000000000
0

0101000
+60 8 -60 10 *
Ed
 0.000000100000000 1 1 0
1  3 0 0.000000000000000 2086.000000000000000
2  1 2 11 0.000000000000000 2086.000000000000000
0

0101000
+62 0 -60 0 *
Wi

0101100
+61 0 -59 0 -58 8 +58 10 *
Fa
0  0.000000100000000 1 0

0111000
+57 0 *
Ve
0.000000100000000
-1858.000000000001137 4712.666999999999462 0.000000000000000
0 0

0101101
*
Ed
 0.000000100000000 1 1 0
1  4 0 0.000000000000000 15.000000000000000
0

0101000
+55 8 -55 10 *
Ed
 0.000000100000000 1 1 0
1  5 0 0.000000000000000 250.000000000000000
2  2 2 11 0.000000000000000 250.000000000000000
0

0101000
+55 0 -62 0 *
Wi

0101100
+54 0 -61 0 -53 8 +53 10 *
Fa
0  0.000000100000000 3 0

0111000
+52 0 *
Ve
0.000000100000000
227.999999999998863 4712.666999999999462 0.000000000000000
0 0

0101101
*
Ed
 0.000000100000000 1 1 0
1  6 0 0.000000000000000 15.000000000000000
0

0101000
+50 8 -50 10 *
Ed
 0.000000100000000 1 1 0
1  7 0 0.000000000000000 250.000000000000000
2  3 2 11 0.000000000000000 250.000000000000000
0

0101000
+60 0 -50 0 *
Wi

0101100
+59 0 -49 0 -48 8 +48 10 *
Fa
0  0.000000100000000 4 0

0111000
+47 0 *
Ed
 0.000000100000000 1 1 0
1  8 0 0.000000000000000 2086.000000000000000
2  4 2 11 0.000000000000000 2086.000000000000000
0

0101000
+50 0 -55 0 *
Wi

0101100
+58 13 +53 13 +48 13 +45 13 *
Ve
0.000000100000760
177.999999999998920 4842.667000000000371 0.000000000000000
0 0

0101101
*
Ed
 0.000000100000760 1 1 0
1  9 0 0.000000000000000 6.283185307179586
2  5 5 17 0.000000000000000 6.283185307179586
2  6 5 19 0.000000000000000 6.283185307179586
2  7 6 20 0.000000000000000 6.283185307179586
2  8 2 21 0.000000000000000 6.283185307179586
0

0101000
+43 0 -43 0 *
Wi

0101100
+42 16 *
Ve
0.000000100000740
177.999999999998920 4782.667000000000371 0.000000000000000
0 0

0101101
*
Ed
 0.000000100000740 1 1 0
1  10 0 0.000000000000000 6.283185307179586
2  9 7 17 0.000000000000000 6.283185307179586
2  10 7 19 0.000000000000000 6.283185307179586
2  11 8 20 0.000000000000000 6.283185307179586
2  12 2 21 0.000000000000000 6.283185307179586
0

0101000
+40 0 -40 0 *
Wi

0101100
+39 16 *
Ve
0.000000100000321
-1798.000000000001137 4842.667000000000371 0.000000000000000
0 0

0101101
*
Ed
 0.000000100000321 1 1 0
1  11 0 0.000000000000000 6.283185307179586
2  13 9 17 0.000000000000000 6.283185307179586
2  14 9 19 0.000000000000000 6.283185307179586
2  15 10 20 0.000000000000000 6.283185307179586
2  16 2 21 0.000000000000000 6.283185307179586
0

0101000
+37 0 -37 0 *
Wi

0101100
+36 16 *
Ve
0.000000100000301
-1798.000000000001137 4782.667000000000371 0.000000000000000
0 0

0101101
*
Ed
 0.000000100000301 1 1 0
1  12 0 0.000000000000000 6.283185307179586
2  17 11 17 0.000000000000000 6.283185307179586
2  18 11 19 0.000000000000000 6.283185307179586
2  19 12 20 0.000000000000000 6.283185307179586
2  20 2 21 0.000000000000000 6.283185307179586
0

0101000
+34 0 -34 0 *
Wi

0101100
+33 16 *
Fa
0  0.000000100000000 2 12

0111000
+44 0 +41 0 +38 0 +35 0 +32 0 *
Wi

0101100
+58 23 +53 23 +48 23 +45 23 *
Ve
0.000000100000004
177.999999999998948 4842.667000000001281 -15.000000000003283
0 0

0101101
*
Ed
 0.000000100000000 1 1 0
1  13 0 0.000000000000000 6.283185307179586
2  21 2 22 0.000000000000000 6.283185307179586
2  22 5 0 0.000000000000000 6.283185307179586
0

0101000
+29 0 -29 0 *
Wi

0101100
+28 0 *
Ve
0.000000100000002
177.999999999998948 4782.667000000001281 -15.000000000003263
0 0

0101101
*
Ed
 0.000000100000000 1 1 0
1  14 0 0.000000000000000 6.283185307179586
2  23 2 22 0.000000000000000 6.283185307179586
2  24 7 0 0.000000000000000 6.283185307179586
0

0101000
+26 0 -26 0 *
Wi

0101100
+25 0 *
Ve
0.000000100000437
-1798.000000000001592 4842.667000000001281 -15.000000000004166
0 0

0101101
*
Ed
 0.000000100000000 1 1 0
1  15 0 0.000000000000000 6.283185307179586
2  25 2 22 0.000000000000000 6.283185307179586
2  26 9 0 0.000000000000000 6.283185307179586
0

0101000
+23 0 -23 0 *
Wi

0101100
+22 0 *
Ve
0.000000100000462
-1798.000000000001592 4782.667000000001281 -15.000000000004119
0 0

0101101
*
Ed
 0.000000100000000 1 1 0
1  16 0 0.000000000000000 6.283185307179586
2  27 2 22 0.000000000000000 6.283185307179586
2  28 11 0 0.000000000000000 6.283185307179586
0

0101000
+20 0 -20 0 *
Wi

0101100
+19 0 *
Fa
0  0.000000100000000 2 22

0111000
+30 0 +27 0 +24 0 +21 0 +18 0 *
Wi

0101100
+49 0 -54 0 -45 8 +45 10 *
Fa
0  0.000000100000000 13 0

0111000
+16 0 *
Ed
 0.000000100000000 1 1 0
1  17 0 0.000000000000000 14.999999999999243
3  29 30CN 5 0 0.000000000000000 14.999999999999243
0

0101000
+43 16 -29 0 *
Wi

0101100
-42 16 -14 0 +28 0 +14 0 *
Fa
0  0.000000100000000 5 0

0111000
+13 0 *
Ed
 0.000000100000000 1 1 0
1  18 0 0.000000000000000 14.999999999999263
3  31 32CN 7 0 0.000000000000000 14.999999999999263
0

0101000
+40 16 -26 0 *
Wi

0101100
-39 16 -11 0 +25 0 +11 0 *
Fa
0  0.000000100000000 7 0

0111000
+10 0 *
Ed
 0.000000100000000 1 1 0
1  19 0 0.000000000000000 14.999999999999249
3  33 34CN 9 0 0.000000000000000 14.999999999999249
0

0101000
+37 16 -23 0 *
Wi

0101100
-36 16 -8 0 +22 0 +8 0 *
Fa
0  0.000000100000000 9 0

0111000
+7 0 *
Ed
 0.000000100000000 1 1 0
1  20 0 0.000000000000000 14.999999999999241
3  35 36CN 11 0 0.000000000000000 14.999999999999241
0

0101000
+34 16 -20 0 *
Wi

0101100
-33 16 -5 0 +19 0 +5 0 *
Fa
0  0.000000100000000 11 0

0111000
+4 0 *
Sh

0101100
-56 4 -51 4 -46 4 -31 0 +17 0 -15 4 -12 0 -9 0 -6 0 -3 0 
*
So

0100000
+2 0 *

+1 1 