
CASCADE Topology V1, (c) Matra-Datavision
Locations 28
1
1.000000000000000 0.000000000000000 0.000000000000000 0.000000000000000 
0.000000000000000 1.000000000000000 0.000000000000000 0.000000000000000 
0.000000000000000 0.000000000000000 1.000000000000000 0.000000000000000 
1
1.000000000000000 0.000000000000000 0.000000000000000 0.000000000000000 
0.000000000000000 1.000000000000000 0.000000000000000 0.000000000000000 
0.000000000000000 0.000000000000000 1.000000000000000 0.000000000000000 
1
1.000000000000000 0.000000000000000 0.000000000000000 0.000000000000000 
0.000000000000000 1.000000000000000 0.000000000000000 0.000000000000000 
0.000000000000000 0.000000000000000 1.000000000000000 0.000000000000000 
2  2 1 3 -1 0
1
1.000000000000000 0.000000000000000 0.000000000000000 0.000000000000000 
0.000000000000000 1.000000000000000 0.000000000000000 0.000000000000000 
0.000000000000000 0.000000000000000 1.000000000000000 0.000000000000000 
1
1.000000000000000 0.000000000000000 0.000000000000000 0.000000000000000 
0.000000000000000 1.000000000000000 0.000000000000000 0.000000000000000 
0.000000000000000 0.000000000000000 1.000000000000000 0.000000000000000 
1
1.000000000000000 0.000000000000000 0.000000000000000 0.000000000000000 
0.000000000000000 1.000000000000000 0.000000000000000 0.000000000000000 
0.000000000000000 0.000000000000000 1.000000000000000 0.000000000000000 
2  5 1 6 1 7 -1 0
1
1.000000000000000 0.000000000000000 0.000000000000000 -0.000000000000000 
0.000000000000000 1.000000000000000 0.000000000000000 -0.000000000000000 
0.000000000000000 0.000000000000000 1.000000000000000 -50.000000000000000 
2  5 1 6 1 7 -1 9 1 0
2  5 1 6 1 7 -1 2 1 3 -1 0
2  7 1 6 -1 5 -1 0
2  9 -1 7 1 6 -1 5 -1 0
2  5 1 6 1 7 -1 9 1 2 1 3 -1 0
1
1.000000000000000 0.000000000000000 0.000000000000000 0.000000000000000 
0.000000000000000 1.000000000000000 0.000000000000000 0.000000000000000 
0.000000000000000 0.000000000000000 1.000000000000000 0.000000000000000 
1
0.000000000000000 0.000000000000000 1.000000000000000 3681.000000000000455 
1.000000000000000 0.000000000000000 0.000000000000000 0.000000000000000 
0.000000000000000 1.000000000000000 0.000000000000000 0.000000000000000 
2  15 1 16 1 3 -1 0
2  3 1 16 -1 15 -1 0
1
1.000000000000000 0.000000000000000 0.000000000000000 -5.000000000000000 
0.000000000000000 1.000000000000000 0.000000000000000 -0.000000000000000 
0.000000000000000 0.000000000000000 1.000000000000000 -0.000000000000000 
2  19 -1 3 1 16 -1 15 -1 0
2  16 -1 15 -1 0
2  2 1 16 -1 15 -1 0
2  7 -1 2 1 3 -1 0
2  5 1 6 1 0
2  7 -1 9 1 2 1 3 -1 0
2  15 1 16 1 3 -1 19 1 0
2  3 -1 19 1 0
2  15 1 16 1 0
Curve2ds 28
1 503.26801004711433052 0.00000000000000000 0.00000000000000000 -1.00000000000000000 
1 0.00000000000000000 0.00000000000000000 0.00000000000000000 -1.00000000000000000 
1 1065.45517451332398196 0.00000000000000000 0.00000000000000000 -1.00000000000000000 
1 0.00000000000000000 0.00000000000000000 0.00000000000000000 -1.00000000000000000 
1 0.00000000000000000 0.00000000000000000 1.00000000000000000 0.00000000000000000 
1 0.00000000000000000 -50.00000000000000000 1.00000000000000000 0.00000000000000000 
1 0.00000000000000000 0.00000000000000000 1.00000000000000000 0.00000000000000000 
1 0.00000000000000000 -5.00000000000000000 1.00000000000000000 0.00000000000000000 
2 -0.00000000000022737 -0.00000000000000355 1.00000000000000000 -0.00000000000000000 0.00000000000000000 1.00000000000000000 5.00000000000000000
2 80.00000000000000000 -25.00000000000000000 1.00000000000000000 0.00000000000000000 -0.00000000000000000 1.00000000000000000 5.00000000000000000
1 0.00000000000000000 0.00000000000000000 1.00000000000000000 0.00000000000000000 
1 0.00000000000000000 -5.00000000000000000 1.00000000000000000 0.00000000000000000 
2 -0.00000000000011369 -0.00000000000000355 1.00000000000000000 -0.00000000000000000 0.00000000000000000 1.00000000000000000 5.00000000000000000
2 423.26801004711433052 -25.00000000000000000 1.00000000000000000 0.00000000000000000 -0.00000000000000000 1.00000000000000000 5.00000000000000000
1 0.00000000000000000 0.00000000000000000 0.00000000000000000 -1.00000000000000000 
1 76.00000000000000000 0.00000000000000000 0.00000000000000000 -1.00000000000000000 
1 0.00000000000000000 0.00000000000000000 1.00000000000000000 0.00000000000000000 
1 0.00000000000000000 -50.00000000000000000 1.00000000000000000 0.00000000000000000 
1 0.00000000000000000 0.00000000000000000 1.00000000000000000 0.00000000000000000 
1 0.00000000000000000 -50.00000000000000000 1.00000000000000000 0.00000000000000000 
1 0.00000000000000000 0.00000000000000000 1.00000000000000000 0.00000000000000000 
1 0.00000000000000000 -50.00000000000000000 1.00000000000000000 0.00000000000000000 
1 0.00000000000000000 0.00000000000000000 0.00000000000000000 -1.00000000000000000 
1 0.00000000000000000 0.00000000000000000 0.00000000000000000 -1.00000000000000000 
1 6.28318530717958623 0.00000000000000000 0.00000000000000000 -1.00000000000000000 
1 0.00000000000000000 0.00000000000000000 0.00000000000000000 -1.00000000000000000 
1 6.28318530717958623 0.00000000000000000 0.00000000000000000 -1.00000000000000000 
1 115.62169564015675860 0.00000000000000000 0.00000000000000000 -1.00000000000000000 
Curves 16
1 3681.00000000000045475 -897.00000000000000000 0.00000000000000000 -0.00000000000000000 -0.00000000000000000 -1.00000000000000000 
1 2807.99999999999772626 -897.00000000000000000 0.00000000000000000 -0.00000000000000000 -0.00000000000000000 -1.00000000000000000 
1 3681.00000000000045475 -897.00000000000000000 0.00000000000000000 -1.00000000000000000 0.00000000000000000 0.00000000000000000 
1 3681.00000000000045475 -1400.26801004711433052 0.00000000000000000 -0.00000000000000000 -0.00000000000000000 -1.00000000000000000 
1 3681.00000000000045475 -1400.26801004711433052 0.00000000000000000 0.00000000000000000 1.00000000000000000 0.00000000000000000 
2 -1320.26801004711433052 -25.00000000000000000 0.00000000000000000 0.00000000000000000 0.00000000000000000 1.00000000000000000 1.00000000000000000 0.00000000000000000 -0.00000000000000000 -0.00000000000000000 1.00000000000000000 0.00000000000000000 5.00000000000000000
2 -977.00000000000000000 -25.00000000000000000 0.00000000000000000 0.00000000000000000 0.00000000000000000 1.00000000000000000 1.00000000000000000 0.00000000000000000 -0.00000000000000000 -0.00000000000000000 1.00000000000000000 0.00000000000000000 5.00000000000000000
1 2807.99999999999772626 -973.00000000000000000 0.00000000000000000 -0.00000000000000000 -0.00000000000000000 -1.00000000000000000 
1 2807.99999999999772626 -897.00000000000000000 0.00000000000000000 0.00000000000000000 -1.00000000000000000 0.00000000000000000 
1 2807.99999999999772626 -973.00000000000000000 0.00000000000000000 -1.00000000000000000 0.00000000000000000 0.00000000000000000 
1 2692.37830435984096766 -973.00000000000000000 0.00000000000000000 0.00000000000000000 -1.00000000000000000 0.00000000000000000 
1 2692.37830435984096766 -1003.00000000000079581 0.00000000000000000 0.92788670916328297 -0.37286224662485373 0.00000000000000000 
1 2692.37830435984096766 -1003.00000000000079581 0.00000000000000000 -0.00000000000000000 -0.00000000000000000 -1.00000000000000000 
1 3681.00000000000045475 -1315.26801004711433052 -25.00000000000000000 -1.00000000000000000 -0.00000000000000000 -0.00000000000000000 
1 3681.00000000000045475 -972.00000000000000000 -25.00000000000000000 -1.00000000000000000 -0.00000000000000000 -0.00000000000000000 
1 2692.37830435984096766 -973.00000000000000000 0.00000000000000000 -0.00000000000000000 -0.00000000000000000 -1.00000000000000000 
Polygon3D 0
PolygonOnTriangulations 0
Surfaces 11
1 3681.00000000000045475 -897.00000000000000000 0.00000000000000000 0.00000000000000000 1.00000000000000000 -0.00000000000000000 -1.00000000000000000 0.00000000000000000 0.00000000000000000 0.00000000000000000 0.00000000000000000 1.00000000000000000 
1 3681.00000000000045475 -1400.26801004711433052 0.00000000000000000 1.00000000000000000 0.00000000000000000 0.00000000000000000 -0.00000000000000000 1.00000000000000000 0.00000000000000000 0.00000000000000000 -0.00000000000000000 1.00000000000000000 
1 2807.99999999999772626 -897.00000000000000000 0.00000000000000000 -1.00000000000000000 0.00000000000000000 0.00000000000000000 0.00000000000000000 -1.00000000000000000 0.00000000000000000 0.00000000000000000 0.00000000000000000 1.00000000000000000 
1 2692.37830435984096766 -1003.00000000000079581 0.00000000000000000 -0.37286224662485373 -0.92788670916328297 0.00000000000000000 0.92788670916328297 -0.37286224662485373 0.00000000000000000 0.00000000000000000 0.00000000000000000 1.00000000000000000 
2 3681.00000000000045475 -1320.26801004711433052 -25.00000000000000000 1.00000000000000000 0.00000000000000000 0.00000000000000000 -0.00000000000000000 1.00000000000000000 0.00000000000000000 0.00000000000000000 -0.00000000000000000 1.00000000000000000 5.00000000000000000
1 3681.00000000000000000 -1320.26801004711410314 -24.99999999999999645 1.00000000000000000 0.00000000000000000 0.00000000000000000 -0.00000000000000000 1.00000000000000000 0.00000000000000000 0.00000000000000000 -0.00000000000000000 1.00000000000000000 
2 3681.00000000000045475 -977.00000000000000000 -25.00000000000000000 1.00000000000000000 0.00000000000000000 0.00000000000000000 -0.00000000000000000 1.00000000000000000 0.00000000000000000 0.00000000000000000 -0.00000000000000000 1.00000000000000000 5.00000000000000000
1 3681.00000000000000000 -976.99999999999988631 -24.99999999999999645 1.00000000000000000 0.00000000000000000 0.00000000000000000 -0.00000000000000000 1.00000000000000000 0.00000000000000000 0.00000000000000000 -0.00000000000000000 1.00000000000000000 
1 2807.99999999999772626 -973.00000000000000000 0.00000000000000000 0.00000000000000000 1.00000000000000000 -0.00000000000000000 -1.00000000000000000 0.00000000000000000 0.00000000000000000 0.00000000000000000 0.00000000000000000 1.00000000000000000 
1 3263.72053375277346277 -1071.82470042972477131 0.00000000000000000 0.00000000000000000 0.00000000000000000 1.00000000000000000 1.00000000000000000 0.00000000000000000 -0.00000000000000000 -0.00000000000000000 1.00000000000000000 0.00000000000000000 
1 2692.37830435984096766 -973.00000000000000000 0.00000000000000000 -1.00000000000000000 0.00000000000000000 0.00000000000000000 0.00000000000000000 -1.00000000000000000 0.00000000000000000 0.00000000000000000 0.00000000000000000 1.00000000000000000 
Triangulations 0

TShapes 50
Ve
0.000000100000000
3681.000000000000455 -897.000000000000000 0.000000000000000
0 0

0101101
*
Ed
 0.000000100000000 1 1 0
1  1 0 0.000000000000000 50.000000000000000
2  1 2 0 0.000000000000000 50.000000000000000
0

0101000
+50 8 -50 10 *
Ve
0.000000100000000
2807.999999999997726 -897.000000000000000 0.000000000000000
0 0

0101101
*
Ed
 0.000000100000000 1 1 0
1  2 0 0.000000000000000 50.000000000000000
2  2 3 0 0.000000000000000 50.000000000000000
0

0101000
+48 8 -48 10 *
Ed
 0.000000100000000 1 1 0
1  3 0 0.000000000000000 873.000000000002728
0

0101000
+50 0 -48 0 *
Wi

0101100
+49 0 -47 0 -46 8 +46 10 *
Fa
0  0.000000100000000 1 0

0111000
+45 0 *
Ve
0.000000100000000
3681.000000000000455 -1400.268010047114331 0.000000000000000
0 0

0101101
*
Ed
 0.000000100000000 1 1 0
1  4 0 0.000000000000000 50.000000000000000
2  3 4 0 0.000000000000000 50.000000000000000
2  4 2 0 0.000000000000000 50.000000000000000
0

0101000
+43 8 -43 10 *
Ed
 0.000000100000000 1 1 0
1  5 0 0.000000000000000 503.268010047114331
2  5 2 12 0.000000000000000 503.268010047114331
2  6 2 13 0.000000000000000 503.268010047114331
0

0101000
+43 0 -50 0 *
Wi

0101100
+42 4 -41 11 +41 14 -49 4 *
Ve
0.000000100000000
-1315.268010047114331 -25.000000000000000 0.000000000000000
0 0

0101101
*
Ed
 0.000000100000000 1 1 0
1  6 0 0.000000000000000 6.283185307179586
2  7 5 18 0.000000000000000 6.283185307179586
2  8 5 20 0.000000000000000 6.283185307179586
2  9 6 21 0.000000000000000 6.283185307179586
2  10 2 22 0.000000000000000 6.283185307179586
0

0101000
+39 0 -39 0 *
Wi

0101100
-38 17 *
Ve
0.000000100000000
-972.000000000000000 -25.000000000000000 0.000000000000000
0 0

0101101
*
Ed
 0.000000100000000 1 1 0
1  7 0 0.000000000000000 6.283185307179586
2  11 7 18 0.000000000000000 6.283185307179586
2  12 7 20 0.000000000000000 6.283185307179586
2  13 8 21 0.000000000000000 6.283185307179586
2  14 2 22 0.000000000000000 6.283185307179586
0

0101000
+36 0 -36 0 *
Wi

0101100
-35 17 *
Fa
0  0.000000100000000 2 4

0111000
+40 0 +37 0 +34 0 *
Ve
0.000000100000000
2807.999999999997726 -973.000000000000000 0.000000000000000
0 0

0101101
*
Ed
 0.000000100000000 1 1 0
1  8 0 0.000000000000000 50.000000000000000
2  15 9 0 0.000000000000000 50.000000000000000
2  16 3 0 0.000000000000000 50.000000000000000
0

0101000
+32 8 -32 10 *
Ed
 0.000000100000000 1 1 0
1  9 0 0.000000000000000 76.000000000000000
2  17 3 12 0.000000000000000 76.000000000000000
2  18 3 13 0.000000000000000 76.000000000000000
0

0101000
+48 0 -32 0 *
Wi

0101100
+47 0 -31 0 -30 8 +30 10 *
Fa
0  0.000000100000000 3 0

0111000
+29 0 *
Ve
0.000000100000000
2692.378304359840968 -973.000000000000000 0.000000000000000
0 0

0101101
*
Ed
 0.000000100000000 1 1 0
1  10 0 0.000000000000000 115.621695640156759
2  19 9 12 0.000000000000000 115.621695640156759
2  20 9 13 0.000000000000000 115.621695640156759
0

0101000
+32 0 -27 0 *
Ve
0.000000100000000
2692.378304359840968 -1003.000000000000796 0.000000000000000
0 0

0101101
*
Ed
 0.000000100000000 1 1 0
1  11 0 0.000000000000000 30.000000000000796
0

0101000
+27 0 -25 0 *
Ed
 0.000000100000000 1 1 0
1  12 0 0.000000000000000 1065.455174513323982
2  21 4 12 0.000000000000000 1065.455174513323982
2  22 4 13 0.000000000000000 1065.455174513323982
0

0101000
+25 0 -43 0 *
Wi

0101100
+46 0 +30 0 +26 0 +24 0 +23 0 +41 0 *
Fa
0  0.000000100000000 10 0

0111000
+22 24 *
Ed
 0.000000100000000 1 1 0
1  13 0 0.000000000000000 50.000000000000000
2  23 4 0 0.000000000000000 50.000000000000000
0

0101000
+25 8 -25 10 *
Wi

0101100
+20 0 -42 0 -23 8 +23 10 *
Fa
0  0.000000100000000 4 0

0111000
+19 0 *
Ed
 0.000000100000000 1 1 0
1  14 0 0.000000000000000 5.000000000000000
3  24 25CN 5 0 0.000000000000000 5.000000000000000
0

0101000
+39 17 -39 26 *
Wi

0101100
+17 0 -17 0 -38 17 +38 26 *
Fa
0  0.000000100000000 5 0

0111000
+16 0 *
Ed
 0.000000100000000 1 1 0
1  15 0 0.000000000000000 5.000000000000000
3  26 27CN 7 0 0.000000000000000 5.000000000000000
0

0101000
+36 17 -36 26 *
Wi

0101100
+14 0 -14 0 -35 17 +35 26 *
Fa
0  0.000000100000000 7 0

0111000
+13 0 *
Ed
 0.000000100000000 1 1 0
1  16 0 0.000000000000000 50.000000000000000
2  28 9 0 0.000000000000000 50.000000000000000
0

0101000
+27 8 -27 10 *
Wi

0101100
+31 0 -11 0 -26 8 +26 10 *
Fa
0  0.000000100000000 9 0

0111000
+10 0 *
Wi

0101100
+11 0 -20 0 -24 8 +24 10 *
Fa
0  0.000000100000000 11 0

0111000
+8 0 *
Wi

0101100
+38 0 *
Fa
0  0.000000100000000 6 0

0111000
+6 28 *
Wi

0101100
+35 0 *
Fa
0  0.000000100000000 8 0

0111000
+4 28 *
Sh

0101100
+44 4 +33 0 +28 4 +21 23 -21 25 +18 4 -15 0 -12 0 +9 4 +7 4 
+5 27 +3 27 *
So

0100000
+2 0 *

+1 1 