
CASCADE Topology V1, (c) Matra-Datavision
Locations 28
1
1.000000000000000 0.000000000000000 0.000000000000000 0.000000000000000 
0.000000000000000 1.000000000000000 0.000000000000000 0.000000000000000 
0.000000000000000 0.000000000000000 1.000000000000000 0.000000000000000 
1
1.000000000000000 0.000000000000000 0.000000000000000 0.000000000000000 
0.000000000000000 1.000000000000000 0.000000000000000 0.000000000000000 
0.000000000000000 0.000000000000000 1.000000000000000 0.000000000000000 
1
1.000000000000000 0.000000000000000 0.000000000000000 0.000000000000000 
0.000000000000000 1.000000000000000 0.000000000000000 0.000000000000000 
0.000000000000000 0.000000000000000 1.000000000000000 0.000000000000000 
2  2 1 3 -1 0
1
1.000000000000000 0.000000000000000 0.000000000000000 0.000000000000000 
0.000000000000000 1.000000000000000 0.000000000000000 0.000000000000000 
0.000000000000000 0.000000000000000 1.000000000000000 0.000000000000000 
1
1.000000000000000 0.000000000000000 0.000000000000000 0.000000000000000 
0.000000000000000 1.000000000000000 0.000000000000000 0.000000000000000 
0.000000000000000 0.000000000000000 1.000000000000000 0.000000000000000 
1
1.000000000000000 0.000000000000000 0.000000000000000 0.000000000000000 
0.000000000000000 1.000000000000000 0.000000000000000 0.000000000000000 
0.000000000000000 0.000000000000000 1.000000000000000 0.000000000000000 
2  5 1 6 1 7 -1 0
1
1.000000000000000 0.000000000000000 0.000000000000000 -0.000000000000000 
0.000000000000000 1.000000000000000 0.000000000000000 -0.000000000000000 
0.000000000000000 0.000000000000000 1.000000000000000 -50.000000000000000 
2  5 1 6 1 7 -1 9 1 0
2  7 1 6 -1 5 -1 0
2  9 -1 7 1 6 -1 5 -1 0
2  7 -1 2 1 3 -1 0
2  5 1 6 1 0
2  7 -1 9 1 2 1 3 -1 0
2  5 1 6 1 7 -1 2 1 3 -1 0
2  5 1 6 1 7 -1 9 1 2 1 3 -1 0
1
1.000000000000000 0.000000000000000 0.000000000000000 0.000000000000000 
0.000000000000000 1.000000000000000 0.000000000000000 0.000000000000000 
0.000000000000000 0.000000000000000 1.000000000000000 0.000000000000000 
1
1.000000000000000 0.000000000000000 0.000000000000000 0.000000000000000 
0.000000000000000 0.000000000000000 -1.000000000000000 -1842.999999999998408 
0.000000000000000 1.000000000000000 0.000000000000000 0.000000000000000 
2  18 1 19 1 3 -1 0
2  3 1 19 -1 18 -1 0
1
1.000000000000000 0.000000000000000 0.000000000000000 0.000000000000000 
0.000000000000000 1.000000000000000 0.000000000000000 5.000000000000000 
0.000000000000000 0.000000000000000 1.000000000000000 -0.000000000000001 
2  22 -1 3 1 19 -1 18 -1 0
2  19 -1 18 -1 0
2  2 1 19 -1 18 -1 0
2  18 1 19 1 3 -1 22 1 0
2  3 -1 22 1 0
2  18 1 19 1 0
Curve2ds 28
1 0.00000000000000000 0.00000000000000000 0.00000000000000000 -1.00000000000000000 
1 181.29490514817871372 0.00000000000000000 0.00000000000000000 -1.00000000000000000 
1 0.00000000000000000 0.00000000000000000 0.00000000000000000 -1.00000000000000000 
1 0.00000000000000000 0.00000000000000000 1.00000000000000000 0.00000000000000000 
1 0.00000000000000000 -50.00000000000000000 1.00000000000000000 0.00000000000000000 
1 288.99999999999840838 0.00000000000000000 0.00000000000000000 -1.00000000000000000 
1 0.00000000000000000 0.00000000000000000 0.00000000000000000 -1.00000000000000000 
1 1130.87039097563433643 0.00000000000000000 0.00000000000000000 -1.00000000000000000 
1 0.00000000000000000 0.00000000000000000 1.00000000000000000 0.00000000000000000 
1 0.00000000000000000 -50.00000000000000000 1.00000000000000000 0.00000000000000000 
1 0.00000000000000000 0.00000000000000000 1.00000000000000000 0.00000000000000000 
1 0.00000000000000000 -50.00000000000000000 1.00000000000000000 0.00000000000000000 
1 0.00000000000000000 0.00000000000000000 1.00000000000000000 0.00000000000000000 
1 0.00000000000000000 -50.00000000000000000 1.00000000000000000 0.00000000000000000 
1 429.96332398423692212 0.00000000000000000 0.00000000000000000 -1.00000000000000000 
1 0.00000000000000000 0.00000000000000000 0.00000000000000000 -1.00000000000000000 
1 0.00000000000000000 0.00000000000000000 1.00000000000000000 0.00000000000000000 
1 0.00000000000000000 -5.00000000000000000 1.00000000000000000 0.00000000000000000 
2 0.00000000000000355 -0.00000000000000000 0.00000000000000000 1.00000000000000000 -1.00000000000000000 0.00000000000000000 5.00000000000000000
2 80.00000000000000000 -25.00000000000000000 1.00000000000000000 0.00000000000000000 -0.00000000000000000 1.00000000000000000 5.00000000000000000
1 0.00000000000000000 0.00000000000000000 1.00000000000000000 0.00000000000000000 
1 0.00000000000000000 -5.00000000000000000 1.00000000000000000 0.00000000000000000 
2 -0.00000000000090949 0.00000000000000355 -1.00000000000000000 -0.00000000000000000 0.00000000000000000 -1.00000000000000000 5.00000000000000000
2 349.96332398423692212 -25.00000000000000000 1.00000000000000000 0.00000000000000000 -0.00000000000000000 1.00000000000000000 5.00000000000000000
1 0.00000000000000000 0.00000000000000000 0.00000000000000000 -1.00000000000000000 
1 6.28318530717958623 0.00000000000000000 0.00000000000000000 -1.00000000000000000 
1 0.00000000000000000 0.00000000000000000 0.00000000000000000 -1.00000000000000000 
1 6.28318530717958623 0.00000000000000000 0.00000000000000000 -1.00000000000000000 
Curves 14
1 3751.74223029236964067 -1020.00000000000000000 0.00000000000000000 -0.00000000000000000 -0.00000000000000000 -1.00000000000000000 
1 3570.44732514419092695 -1020.00000000000000000 0.00000000000000000 -0.00000000000000000 -0.00000000000000000 -1.00000000000000000 
1 3751.74223029236964067 -1020.00000000000000000 0.00000000000000000 -1.00000000000000000 0.00000000000000000 0.00000000000000000 
1 4776.00000000000000000 -1554.00000000000000000 0.00000000000000000 -0.00000000000000000 -0.00000000000000000 -1.00000000000000000 
1 4776.00000000000000000 -1554.00000000000000000 0.00000000000000000 -0.88672517215815383 0.46229694900690449 0.00000000000000000 
1 4346.03667601576307788 -1842.99999999999840838 0.00000000000000000 -0.00000000000000000 -0.00000000000000000 -1.00000000000000000 
1 3570.44732514419092695 -1020.00000000000000000 0.00000000000000000 0.68583398863458522 -0.72775802299498948 0.00000000000000000 
1 4346.03667601576307788 -1842.99999999999840838 0.00000000000000000 1.00000000000000000 0.00000000000000000 0.00000000000000000 
1 4776.00000000000000000 -1842.99999999999840838 0.00000000000000000 0.00000000000000000 1.00000000000000000 0.00000000000000000 
1 4776.00000000000000000 -1842.99999999999840838 0.00000000000000000 -0.00000000000000000 -0.00000000000000000 -1.00000000000000000 
2 4426.03667601576307788 -25.00000000000000000 0.00000000000000000 0.00000000000000000 0.00000000000000000 1.00000000000000000 1.00000000000000000 0.00000000000000000 -0.00000000000000000 -0.00000000000000000 1.00000000000000000 0.00000000000000000 5.00000000000000000
2 4696.00000000000000000 -25.00000000000000000 0.00000000000000000 0.00000000000000000 0.00000000000000000 1.00000000000000000 1.00000000000000000 0.00000000000000000 -0.00000000000000000 -0.00000000000000000 1.00000000000000000 0.00000000000000000 5.00000000000000000
1 4431.03667601576307788 -1842.99999999999840838 -25.00000000000000000 0.00000000000000000 1.00000000000000000 -0.00000000000000022 
1 4701.00000000000000000 -1842.99999999999840838 -25.00000000000000000 0.00000000000000000 1.00000000000000000 -0.00000000000000022 
Polygon3D 0
PolygonOnTriangulations 0
Surfaces 10
1 3751.74223029236964067 -1020.00000000000000000 0.00000000000000000 0.00000000000000000 1.00000000000000000 -0.00000000000000000 -1.00000000000000000 0.00000000000000000 0.00000000000000000 0.00000000000000000 0.00000000000000000 1.00000000000000000 
1 3570.44732514419092695 -1020.00000000000000000 0.00000000000000000 -0.72775802299498948 -0.68583398863458522 0.00000000000000000 0.68583398863458522 -0.72775802299498948 0.00000000000000000 0.00000000000000000 0.00000000000000000 1.00000000000000000 
1 4776.00000000000000000 -1554.00000000000000000 0.00000000000000000 0.46229694900690449 0.88672517215815383 -0.00000000000000000 -0.88672517215815383 0.46229694900690449 0.00000000000000000 0.00000000000000000 0.00000000000000000 1.00000000000000000 
1 4776.00000000000000000 -1842.99999999999840838 0.00000000000000000 1.00000000000000000 0.00000000000000000 0.00000000000000000 -0.00000000000000000 1.00000000000000000 0.00000000000000000 0.00000000000000000 -0.00000000000000000 1.00000000000000000 
1 4346.03667601576307788 -1842.99999999999840838 0.00000000000000000 0.00000000000000000 -1.00000000000000000 0.00000000000000000 1.00000000000000000 0.00000000000000000 0.00000000000000000 -0.00000000000000000 0.00000000000000000 1.00000000000000000 
1 4207.64808014275058667 -1435.44756648862403381 0.00000000000000000 0.00000000000000000 0.00000000000000000 1.00000000000000000 1.00000000000000000 0.00000000000000000 -0.00000000000000000 -0.00000000000000000 1.00000000000000000 0.00000000000000000 
2 4426.03667601576307788 -1842.99999999999840838 -25.00000000000000000 0.00000000000000000 -1.00000000000000000 0.00000000000000022 1.00000000000000000 0.00000000000000000 0.00000000000000000 -0.00000000000000000 0.00000000000000022 1.00000000000000000 5.00000000000000000
1 4426.03667601576307788 -1842.99999999999818101 -24.99999999999999645 -0.00000000000000000 -1.00000000000000000 0.00000000000000000 0.00000000000000000 -0.00000000000000000 -1.00000000000000000 1.00000000000000000 0.00000000000000000 0.00000000000000000 
2 4696.00000000000000000 -1842.99999999999840838 -25.00000000000000000 0.00000000000000000 -1.00000000000000000 0.00000000000000022 1.00000000000000000 0.00000000000000000 0.00000000000000000 -0.00000000000000000 0.00000000000000022 1.00000000000000000 5.00000000000000000
1 4695.99999999999909051 -1842.99999999999818101 -24.99999999999999645 -0.00000000000000000 -1.00000000000000000 0.00000000000000000 -1.00000000000000000 0.00000000000000000 0.00000000000000000 -0.00000000000000000 0.00000000000000000 -1.00000000000000000 
Triangulations 0

TShapes 45
Ve
0.000000100000000
3751.742230292369641 -1020.000000000000000 0.000000000000000
0 0

0101101
*
Ed
 0.000000100000000 1 1 0
1  1 0 0.000000000000000 50.000000000000000
2  1 1 0 0.000000000000000 50.000000000000000
0

0101000
+45 8 -45 10 *
Ve
0.000000100000000
3570.447325144190927 -1020.000000000000000 0.000000000000000
0 0

0101101
*
Ed
 0.000000100000000 1 1 0
1  2 0 0.000000000000000 50.000000000000000
2  2 1 0 0.000000000000000 50.000000000000000
2  3 2 0 0.000000000000000 50.000000000000000
0

0101000
+43 8 -43 10 *
Ed
 0.000000100000000 1 1 0
1  3 0 0.000000000000000 181.294905148178714
2  4 1 11 0.000000000000000 181.294905148178714
2  5 1 12 0.000000000000000 181.294905148178714
0

0101000
+45 0 -43 0 *
Wi

0101100
+44 0 -42 0 -41 8 +41 10 *
Fa
0  0.000000100000000 1 0

0111000
+40 0 *
Ve
0.000000100000000
4776.000000000000000 -1554.000000000000000 0.000000000000000
0 0

0101101
*
Ed
 0.000000100000000 1 1 0
1  4 0 0.000000000000000 50.000000000000000
2  6 4 0 0.000000000000000 50.000000000000000
0

0101000
+38 8 -38 10 *
Ed
 0.000000100000000 1 1 0
1  5 0 0.000000000000000 1155.101717948012265
0

0101000
+38 0 -45 0 *
Wi

0101100
+37 0 -44 0 -36 8 +36 10 *
Fa
0  0.000000100000000 3 0

0111000
+35 0 *
Ve
0.000000100000000
4346.036676015763078 -1842.999999999998408 0.000000000000000
0 0

0101101
*
Ed
 0.000000100000000 1 1 0
1  6 0 0.000000000000000 50.000000000000000
2  7 5 0 0.000000000000000 50.000000000000000
2  8 2 0 0.000000000000000 50.000000000000000
0

0101000
+33 8 -33 10 *
Ed
 0.000000100000000 1 1 0
1  7 0 0.000000000000000 1130.870390975634336
2  9 2 11 0.000000000000000 1130.870390975634336
2  10 2 12 0.000000000000000 1130.870390975634336
0

0101000
+43 0 -33 0 *
Wi

0101100
+42 0 -32 0 -31 8 +31 10 *
Fa
0  0.000000100000000 2 0

0111000
+30 0 *
Ve
0.000000100000000
4776.000000000000000 -1842.999999999998408 0.000000000000000
0 0

0101101
*
Ed
 0.000000100000000 1 1 0
1  8 0 0.000000000000000 429.963323984236922
2  11 5 11 0.000000000000000 429.963323984236922
2  12 5 12 0.000000000000000 429.963323984236922
0

0101000
+33 0 -28 0 *
Ed
 0.000000100000000 1 1 0
1  9 0 0.000000000000000 288.999999999998408
2  13 4 11 0.000000000000000 288.999999999998408
2  14 4 12 0.000000000000000 288.999999999998408
0

0101000
+28 0 -38 0 *
Wi

0101100
+41 0 +31 0 +27 0 +26 0 +36 0 *
Fa
0  0.000000100000000 6 0

0111000
+25 14 *
Ed
 0.000000100000000 1 1 0
1  10 0 0.000000000000000 50.000000000000000
2  15 5 0 0.000000000000000 50.000000000000000
2  16 4 0 0.000000000000000 50.000000000000000
0

0101000
+28 8 -28 10 *
Wi

0101100
+23 0 -37 0 -26 8 +26 10 *
Fa
0  0.000000100000000 4 0

0111000
+22 0 *
Wi

0101100
+32 4 -27 16 +27 17 -23 4 *
Ve
0.000000100000000
4431.036676015763078 -25.000000000000000 0.000000000000000
0 0

0101101
*
Ed
 0.000000100000000 1 1 0
1  11 0 0.000000000000000 6.283185307179586
2  17 7 21 0.000000000000000 6.283185307179586
2  18 7 23 0.000000000000000 6.283185307179586
2  19 8 24 0.000000000000000 6.283185307179586
2  20 5 25 0.000000000000000 6.283185307179586
0

0101000
+19 0 -19 0 *
Wi

0101100
-18 20 *
Ve
0.000000100000000
4701.000000000000000 -25.000000000000000 0.000000000000000
0 0

0101101
*
Ed
 0.000000100000000 1 1 0
1  12 0 0.000000000000000 6.283185307179586
2  21 9 21 0.000000000000000 6.283185307179586
2  22 9 23 0.000000000000000 6.283185307179586
2  23 10 24 0.000000000000000 6.283185307179586
2  24 5 25 0.000000000000000 6.283185307179586
0

0101000
+16 0 -16 0 *
Wi

0101100
-15 20 *
Fa
0  0.000000100000000 5 4

0111000
+20 0 +17 0 +14 0 *
Ed
 0.000000100000000 1 1 0
1  13 0 0.000000000000000 5.000000000000000
3  25 26CN 7 0 0.000000000000000 5.000000000000000
0

0101000
+19 20 -19 26 *
Wi

0101100
+12 0 -12 0 -18 20 +18 26 *
Fa
0  0.000000100000000 7 0

0111000
+11 0 *
Ed
 0.000000100000000 1 1 0
1  14 0 0.000000000000000 5.000000000000000
3  27 28CN 9 0 0.000000000000000 5.000000000000000
0

0101000
+16 20 -16 26 *
Wi

0101100
+9 0 -9 0 -15 20 +15 26 *
Fa
0  0.000000100000000 9 0

0111000
+8 0 *
Wi

0101100
+18 0 *
Fa
0  0.000000100000000 8 0

0111000
+6 28 *
Wi

0101100
+15 0 *
Fa
0  0.000000100000000 10 0

0111000
+4 28 *
Sh

0101100
+39 4 +34 4 +29 4 +24 13 -24 15 +21 4 +13 0 -10 0 -7 0 +5 27 
+3 27 *
So

0100000
+2 0 *

+1 1 