
CASCADE Topology V1, (c) Matra-Datavision
Locations 13
1
1.000000000000000 0.000000000000000 0.000000000000000 0.000000000000000 
0.000000000000000 1.000000000000000 0.000000000000000 0.000000000000000 
0.000000000000000 0.000000000000000 1.000000000000000 0.000000000000000 
1
0.000000000000000 0.000000000000000 -1.000000000000000 3136.999999999999091 
-1.000000000000000 0.000000000000000 0.000000000000000 0.000000000000000 
-0.000000000000000 1.000000000000000 -0.000000000000000 0.000000000000000 
1
1.000000000000000 0.000000000000000 0.000000000000000 0.000000000000000 
0.000000000000000 -0.000000000000000 -1.000000000000000 0.000000000000000 
0.000000000000000 1.000000000000000 -0.000000000000000 0.000000000000000 
1
1.000000000000000 0.000000000000000 0.000000000000000 -200.000000000000000 
0.000000000000000 1.000000000000000 0.000000000000000 -0.000000000000056 
0.000000000000000 0.000000000000000 1.000000000000000 0.000000000000022 
2  1 1 2 1 3 -1 4 1 0
1
1.000000000000000 0.000000000000000 0.000000000000000 400.000000000000000 
0.000000000000000 1.000000000000000 0.000000000000000 0.000000000000111 
0.000000000000000 0.000000000000000 1.000000000000000 -0.000000000000044 
2  1 1 2 1 3 -1 4 1 6 1 0
2  4 -1 3 1 2 -1 1 -1 0
2  6 -1 4 -1 3 1 2 -1 1 -1 0
2  2 -1 1 -1 0
2  3 -1 4 1 0
2  1 1 2 1 0
2  3 -1 4 1 6 1 0
Curve2ds 16
1 0.00000000000000000 -0.00000000000000000 0.00000000000000011 -1.00000000000000000 
1 2130.00000000000090949 -0.00000000000013645 -0.00000000000000000 -1.00000000000000000 
1 889.00000000000045475 0.00000000000000000 0.00000000000000011 -1.00000000000000000 
1 0.00000000000000000 -0.00000000000000000 1.00000000000000000 0.00000000000000000 
1 0.00000000000005684 -400.00000000000000000 1.00000000000000000 0.00000000000000000 
1 -1065.00000000000000000 444.50000000000068212 -0.00000000000000028 -1.00000000000000000 
1 0.00000000000000000 -0.00000000000000000 -0.00000000000000011 -1.00000000000000000 
1 -1065.00000000000000000 -444.49999999999988631 1.00000000000000000 -0.00000000000000028 
1 889.00000000000045475 -0.00000000000000000 -0.00000000000000011 -1.00000000000000000 
1 0.00000000000000000 0.00000000000000000 -0.00000000000000000 -1.00000000000000000 
1 0.00000000000000000 -0.00000000000000000 1.00000000000000000 0.00000000000000000 
1 0.00000000000000000 -400.00000000000000000 1.00000000000000000 0.00000000000000000 
1 1065.00000000000090949 -444.50000000000045475 0.00000000000000028 1.00000000000000000 
1 1065.00000000000090949 444.50000000000005684 -1.00000000000000000 0.00000000000000028 
1 0.00000000000000000 0.00000000000000000 1.00000000000000000 0.00000000000000000 
1 -0.00000000000011102 -400.00000000000000000 1.00000000000000000 0.00000000000000000 
Curves 8
1 2936.99999999999681677 7872.02000000000225555 219.00000000000198952 1.00000000000000000 0.00000000000000028 -0.00000000000000011 
1 2936.99999999999681677 7872.02000000000225555 -669.99999999999852207 1.00000000000000000 0.00000000000000028 -0.00000000000000011 
1 219.00000000000147793 7872.02000000000043656 0.00000000000000000 -1.00000000000000000 0.00000000000000000 0.00000000000000000 
1 2936.99999999999727152 5742.02000000000134605 -669.99999999999863576 1.00000000000000000 0.00000000000000028 -0.00000000000000011 
1 -669.99999999999886313 7872.02000000000043656 0.00000000000000000 0.00000000000000000 -1.00000000000000000 0.00000000000000000 
1 2936.99999999999727152 5742.02000000000134605 219.00000000000187583 1.00000000000000000 0.00000000000000028 -0.00000000000000011 
1 -669.99999999999886313 5742.02000000000043656 0.00000000000000000 1.00000000000000000 0.00000000000000000 0.00000000000000000 
1 219.00000000000147793 5742.02000000000043656 0.00000000000000000 0.00000000000000000 1.00000000000000000 0.00000000000000000 
Polygon3D 0
PolygonOnTriangulations 0
Surfaces 5
1 2936.99999999999681677 7872.02000000000225555 219.00000000000198952 -0.00000000000000028 1.00000000000000000 0.00000000000000006 0.00000000000000000 0.00000000000000006 -1.00000000000000000 -1.00000000000000000 -0.00000000000000028 -0.00000000000000000 
1 2936.99999999999727152 5742.02000000000134605 219.00000000000187583 0.00000000000000011 -0.00000000000000006 1.00000000000000000 -0.00000000000000028 1.00000000000000000 0.00000000000000006 -1.00000000000000000 -0.00000000000000028 0.00000000000000011 
1 3136.99999999999772626 225.49999999999693046 6807.02000000000225555 -1.00000000000000000 0.00000000000000000 -0.00000000000000021 0.00000000000000021 0.00000000000000000 -1.00000000000000000 0.00000000000000000 -1.00000000000000000 -0.00000000000000000 
1 2936.99999999999681677 7872.02000000000225555 -669.99999999999852207 -0.00000000000000011 0.00000000000000006 -1.00000000000000000 0.00000000000000028 -1.00000000000000000 -0.00000000000000006 -1.00000000000000000 -0.00000000000000028 0.00000000000000011 
1 2936.99999999999727152 5742.02000000000134605 -669.99999999999863576 0.00000000000000028 -1.00000000000000000 -0.00000000000000006 0.00000000000000000 -0.00000000000000006 1.00000000000000000 -1.00000000000000000 -0.00000000000000028 -0.00000000000000000 
Triangulations 0

TShapes 24
Ve
0.000000100000000
219.000000000001478 7872.020000000000437 0.000000000000000
0 0

0101101
*
Ed
 0.000000100000000 1 1 0
1  1 0 0.000000000000000 400.000000000000000
2  1 1 0 0.000000000000000 400.000000000000000
2  2 2 0 0.000000000000000 400.000000000000000
0

0101000
+24 5 -24 7 *
Ve
0.000000100000000
-669.999999999998863 7872.020000000000437 0.000000000000000
0 0

0101101
*
Ed
 0.000000100000000 1 1 0
1  2 0 0.000000000000000 400.000000000000000
2  3 1 0 0.000000000000000 400.000000000000000
0

0101000
+22 5 -22 7 *
Ed
 0.000000100000000 1 1 0
1  3 0 0.000000000000000 889.000000000000341
2  4 1 8 0.000000000000000 889.000000000000341
2  5 1 9 0.000000000000000 889.000000000000341
2  6 3 10 0.000000000000000 889.000000000000341
0

0101000
+24 0 -22 0 *
Wi

0101100
+23 0 -21 0 -20 5 +20 7 *
Fa
0  0.000000100000000 1 0

0111000
+19 0 *
Ve
0.000000100000000
-669.999999999998863 5742.020000000000437 0.000000000000000
0 0

0101101
*
Ed
 0.000000100000000 1 1 0
1  4 0 0.000000000000000 400.000000000000000
2  7 5 0 0.000000000000000 400.000000000000000
0

0101000
+17 5 -17 7 *
Ed
 0.000000100000000 1 1 0
1  5 0 0.000000000000000 2130.000000000000000
2  8 3 10 0.000000000000000 2130.000000000000000
0

0101000
+22 0 -17 0 *
Wi

0101100
+21 0 -16 0 -15 5 +15 7 *
Fa
0  0.000000100000000 4 0

0111000
+14 0 *
Ve
0.000000100000000
219.000000000001478 5742.020000000000437 0.000000000000000
0 0

0101101
*
Ed
 0.000000100000000 1 1 0
1  6 0 0.000000000000000 400.000000000000000
2  9 5 0 0.000000000000000 400.000000000000000
2  10 2 0 0.000000000000000 400.000000000000000
0

0101000
+12 5 -12 7 *
Ed
 0.000000100000000 1 1 0
1  7 0 0.000000000000000 889.000000000000341
2  11 5 8 0.000000000000000 889.000000000000341
2  12 5 9 0.000000000000000 889.000000000000341
2  13 3 10 0.000000000000000 889.000000000000341
0

0101000
+17 0 -12 0 *
Wi

0101100
+16 0 -11 0 -10 5 +10 7 *
Fa
0  0.000000100000000 5 0

0111000
+9 0 *
Ed
 0.000000100000000 1 1 0
1  8 0 0.000000000000000 2130.000000000000000
2  14 3 10 0.000000000000000 2130.000000000000000
2  15 2 8 0.000000000000000 2130.000000000000000
2  16 2 9 0.000000000000000 2130.000000000000000
0

0101000
+12 0 -24 0 *
Wi

0101100
+11 0 -23 0 -7 5 +7 7 *
Fa
0  0.000000100000000 2 0

0111000
+6 0 *
Wi

0101100
+20 0 +15 0 +10 0 +7 0 *
Fa
0  0.000000100000000 3 0

0111000
+4 12 *
Sh

0101100
+18 0 +13 0 +8 0 +5 0 +3 11 -3 13 *
So

1100000
+2 0 *

+1 0 