
CASCADE Topology V1, (c) Matra-Datavision
Locations 13
1
0.000000000000000 0.000000000000000 1.000000000000000 0.000000000000000 
1.000000000000000 0.000000000000000 0.000000000000000 0.000000000000000 
0.000000000000000 1.000000000000000 0.000000000000000 0.000000000000000 
1
1.000000000000000 0.000000000000000 0.000000000000000 0.000000000000000 
0.000000000000000 1.000000000000000 0.000000000000000 0.000000000000000 
0.000000000000000 0.000000000000000 1.000000000000000 0.000000000000000 
1
0.000000000000000 -0.000000000000000 1.000000000000000 0.000000000000000 
1.000000000000000 0.000000000000000 -0.000000000000000 0.000000000000000 
-0.000000000000000 1.000000000000000 0.000000000000000 0.000000000000000 
1
-0.000000000000000 0.000000000000000 1.000000000000000 0.000000000000000 
1.000000000000000 -0.000000000000000 0.000000000000000 0.000000000000000 
0.000000000000000 1.000000000000000 -0.000000000000000 0.000000000000000 
2  2 1 3 1 4 -1 0
1
1.000000000000000 0.000000000000000 0.000000000000000 -0.000000000000007 
0.000000000000000 1.000000000000000 0.000000000000000 0.000000000000004 
0.000000000000000 0.000000000000000 1.000000000000000 15.000000000000000 
2  2 1 3 1 4 -1 6 1 0
2  4 1 3 -1 2 -1 0
2  6 -1 4 1 3 -1 2 -1 0
2  3 -1 2 -1 0
2  4 -1 0
2  2 1 3 1 0
2  4 -1 6 1 0
Curve2ds 40
1 0.00000000000000000 0.00000000000000000 -0.00000000000000016 -1.00000000000000000 
1 249.99999999999988631 -0.00000000000000051 -0.00000000000000022 -1.00000000000000000 
1 318.74999999999977263 0.00000000000000130 -0.00000000000000016 -1.00000000000000000 
1 -0.00000000000044853 -0.00000000000022427 1.00000000000000000 -0.00000000000000044 
1 -0.00000000000045113 -15.00000000000022382 1.00000000000000000 -0.00000000000000044 
1 -286.86941964372380198 -400.71577261951313176 1.00000000000000000 -0.00000000000000000 
1 31.88058035627591380 -400.71577261951313176 0.32870799479740659 0.94443160374707291 
1 243.13058035627619802 206.23988239744085149 0.00000000000000000 1.00000000000000000 
1 243.13058035627619802 447.28422738048516294 -1.00000000000000000 0.00000000000000000 
1 -6.86941964372385883 447.28422738048516294 0.00000000000000000 -1.00000000000000000 
1 0.00000000000000000 0.00000000000000000 0.00000000000000016 -1.00000000000000000 
1 -6.86941964372385883 248.50261796550626059 -0.32870799479740653 -0.94443160374707291 
1 141.05264146730823427 -0.00000000000000058 0.00000000000000016 -1.00000000000000000 
1 0.00000000000000000 0.00000000000000000 -0.00000000000000022 -1.00000000000000000 
1 0.00000000000059686 -0.00000000000034242 1.00000000000000000 0.00000000000000044 
1 0.00000000000060346 -15.00000000000034284 1.00000000000000000 0.00000000000000044 
1 -145.81677817641559614 -150.71577261951324544 -1.00000000000000000 0.00000000000000000 
1 0.00000000000022737 -0.00000000000027978 1.00000000000000000 0.00000000000000022 
1 0.00000000000023067 -15.00000000000028066 1.00000000000000000 0.00000000000000022 
1 -286.86941964372380198 -150.71577261951324544 0.00000000000000000 -1.00000000000000000 
1 0.00000000000000000 0.00000000000000000 0.00000000000000000 -1.00000000000000000 
1 6.28318530717958623 0.00000000000000000 0.00000000000000000 -1.00000000000000000 
1 0.00000000000000000 0.00000000000000000 1.00000000000000000 0.00000000000000000 
1 0.00000000000000000 -15.00000000000000000 1.00000000000000000 0.00000000000000000 
2 185.63058035627619802 223.28422738048675456 0.00000000000000000 -1.00000000000000000 1.00000000000000000 0.00000000000000000 5.00000000000000000
1 0.00000000000000000 0.00000000000000000 0.00000000000000000 -1.00000000000000000 
1 6.28318530717958623 0.00000000000000000 0.00000000000000000 -1.00000000000000000 
1 0.00000000000000000 0.00000000000000000 1.00000000000000000 0.00000000000000000 
1 0.00000000000000000 -15.00000000000000000 1.00000000000000000 0.00000000000000000 
2 185.63058035627619802 352.28422738048675456 0.00000000000000000 -1.00000000000000000 1.00000000000000000 0.00000000000000000 5.00000000000000000
1 0.00000000000000000 0.00000000000000000 0.00000000000000000 -1.00000000000000000 
1 6.28318530717958623 0.00000000000000000 0.00000000000000000 -1.00000000000000000 
1 0.00000000000000000 0.00000000000000000 1.00000000000000000 0.00000000000000000 
1 0.00000000000000000 -15.00000000000000000 1.00000000000000000 0.00000000000000000 
2 -3.11941964372380198 -310.71577261951324544 0.00000000000000000 -1.00000000000000000 1.00000000000000000 0.00000000000000000 5.00000000000000000
1 0.00000000000000000 0.00000000000000000 0.00000000000000000 -1.00000000000000000 
1 6.28318530717958623 0.00000000000000000 0.00000000000000000 -1.00000000000000000 
1 0.00000000000000000 0.00000000000000000 1.00000000000000000 0.00000000000000000 
1 0.00000000000000000 -15.00000000000000000 1.00000000000000000 0.00000000000000000 
2 -3.11941964372380198 108.39403282634521020 0.00000000000000000 -1.00000000000000000 1.00000000000000000 0.00000000000000000 5.00000000000000000
Curves 24
1 -1010.00000000000034106 0.00000000000044853 -0.00000000000022427 -0.00000000000000044 0.00000000000000028 1.00000000000000000 
1 -1010.00000000000022737 318.75000000000022737 -0.00000000000036582 -0.00000000000000044 0.00000000000000028 1.00000000000000000 
1 -1010.00000000000011369 0.00000000000000000 0.00000000000000000 0.00000000000000000 1.00000000000000000 0.00000000000000000 
1 -1616.95565501695432431 530.00000000000079581 -0.00000000000059440 -0.00000000000000044 0.00000000000000028 1.00000000000000000 
1 -1010.00000000000011369 318.74999999999971578 0.00000000000000000 -0.94443160374707291 0.32870799479740659 0.00000000000000000 
1 -1857.99999999999863576 530.00000000000090949 -0.00000000000064793 -0.00000000000000044 0.00000000000000028 1.00000000000000000 
1 -1616.95565501695409694 530.00000000000000000 0.00000000000000000 -1.00000000000000000 0.00000000000000000 0.00000000000000000 
1 -1857.99999999999886313 280.00000000000085265 -0.00000000000053690 -0.00000000000000044 0.00000000000000028 1.00000000000000000 
1 -1857.99999999999840838 530.00000000000000000 0.00000000000000000 0.00000000000000000 -1.00000000000000000 0.00000000000000000 
1 -1659.21839058501996078 280.00000000000073896 -0.00000000000049277 -0.00000000000000044 0.00000000000000028 1.00000000000000000 
1 -1857.99999999999840838 279.99999999999994316 0.00000000000000000 1.00000000000000000 0.00000000000000000 0.00000000000000000 
1 -1260.00000000000022737 141.05264146730880270 -0.00000000000034242 -0.00000000000000044 0.00000000000000028 1.00000000000000000 
1 -1659.21839058501950603 279.99999999999994316 0.00000000000000000 0.94443160374707291 -0.32870799479740653 0.00000000000000000 
1 -1260.00000000000022737 0.00000000000055955 -0.00000000000027978 -0.00000000000000044 0.00000000000000028 1.00000000000000000 
1 -1260.00000000000000000 141.05264146730820585 0.00000000000000000 0.00000000000000000 -1.00000000000000000 0.00000000000000000 
1 -1260.00000000000000000 0.00000000000000000 0.00000000000000000 1.00000000000000000 0.00000000000000000 0.00000000000000000 
1 -1629.00000000000045475 472.50000000000085265 -0.00000000000057154 -0.00000000000000044 0.00000000000000028 1.00000000000000000 
2 -1634.00000000000000000 472.50000000000000000 0.00000000000000000 0.00000000000000000 0.00000000000000000 1.00000000000000000 1.00000000000000000 0.00000000000000000 -0.00000000000000000 -0.00000000000000000 1.00000000000000000 0.00000000000000000 5.00000000000000000
1 -1758.00000000000045475 472.50000000000090949 -0.00000000000060019 -0.00000000000000044 0.00000000000000028 1.00000000000000000 
2 -1763.00000000000000000 472.50000000000000000 0.00000000000000000 0.00000000000000000 0.00000000000000000 1.00000000000000000 1.00000000000000000 0.00000000000000000 -0.00000000000000000 -0.00000000000000000 1.00000000000000000 0.00000000000000000 5.00000000000000000
1 -1095.00000000000022737 283.75000000000056843 -0.00000000000036915 -0.00000000000000044 0.00000000000000028 1.00000000000000000 
2 -1100.00000000000000000 283.75000000000000000 0.00000000000000000 0.00000000000000000 0.00000000000000000 1.00000000000000000 1.00000000000000000 0.00000000000000000 -0.00000000000000000 -0.00000000000000000 1.00000000000000000 0.00000000000000000 5.00000000000000000
1 -1514.10980544585868302 283.75000000000073896 -0.00000000000046221 -0.00000000000000044 0.00000000000000028 1.00000000000000000 
2 -1519.10980544585845564 283.75000000000000000 0.00000000000000000 0.00000000000000000 0.00000000000000000 1.00000000000000000 1.00000000000000000 0.00000000000000000 -0.00000000000000000 -0.00000000000000000 1.00000000000000000 0.00000000000000000 5.00000000000000000
Polygon3D 0
PolygonOnTriangulations 0
Surfaces 13
1 -1010.00000000000034106 0.00000000000044853 -0.00000000000022427 -1.00000000000000000 0.00000000000000022 -0.00000000000000044 0.00000000000000022 1.00000000000000000 -0.00000000000000044 0.00000000000000044 -0.00000000000000044 -1.00000000000000000 
1 -1260.00000000000022737 0.00000000000055955 -0.00000000000027978 0.00000000000000044 1.00000000000000000 -0.00000000000000028 1.00000000000000000 -0.00000000000000044 0.00000000000000022 0.00000000000000022 -0.00000000000000028 -1.00000000000000000 
1 -0.00000000000037694 -1410.71577261951324544 286.86941964372380198 1.00000000000000000 -0.00000000000000022 0.00000000000000022 -0.00000000000000022 0.00000000000000000 1.00000000000000000 -0.00000000000000022 -1.00000000000000000 -0.00000000000000000 
1 -1010.00000000000022737 318.75000000000022737 -0.00000000000036582 -0.32870799479740703 -0.94443160374707280 0.00000000000000012 -0.94443160374707280 0.32870799479740703 -0.00000000000000036 0.00000000000000030 -0.00000000000000023 -1.00000000000000000 
1 -1616.95565501695432431 530.00000000000079581 -0.00000000000059440 -0.00000000000000044 -1.00000000000000000 0.00000000000000028 -1.00000000000000000 0.00000000000000044 -0.00000000000000022 0.00000000000000022 -0.00000000000000028 -1.00000000000000000 
1 -1857.99999999999863576 530.00000000000090949 -0.00000000000064793 1.00000000000000000 -0.00000000000000022 0.00000000000000044 -0.00000000000000022 -1.00000000000000000 0.00000000000000044 0.00000000000000044 -0.00000000000000044 -1.00000000000000000 
1 -1857.99999999999886313 280.00000000000085265 -0.00000000000053690 0.00000000000000044 1.00000000000000000 -0.00000000000000028 1.00000000000000000 -0.00000000000000044 0.00000000000000022 0.00000000000000022 -0.00000000000000028 -1.00000000000000000 
1 -1659.21839058501996078 280.00000000000073896 -0.00000000000049277 0.32870799479740698 0.94443160374707280 -0.00000000000000012 0.94443160374707280 -0.32870799479740698 0.00000000000000036 0.00000000000000030 -0.00000000000000023 -1.00000000000000000 
1 -1260.00000000000022737 141.05264146730880270 -0.00000000000034242 1.00000000000000000 -0.00000000000000022 0.00000000000000044 -0.00000000000000022 -1.00000000000000000 0.00000000000000044 0.00000000000000044 -0.00000000000000044 -1.00000000000000000 
2 -1634.00000000000045475 472.50000000000085265 -0.00000000000057265 0.00000000000000022 -0.00000000000000044 -1.00000000000000000 1.00000000000000000 -0.00000000000000044 0.00000000000000022 0.00000000000000044 1.00000000000000000 -0.00000000000000044 5.00000000000000000
2 -1763.00000000000045475 472.50000000000090949 -0.00000000000060130 0.00000000000000022 -0.00000000000000044 -1.00000000000000000 1.00000000000000000 -0.00000000000000044 0.00000000000000022 0.00000000000000044 1.00000000000000000 -0.00000000000000044 5.00000000000000000
2 -1100.00000000000022737 283.75000000000056843 -0.00000000000037026 0.00000000000000022 -0.00000000000000044 -1.00000000000000000 1.00000000000000000 -0.00000000000000044 0.00000000000000022 0.00000000000000044 1.00000000000000000 -0.00000000000000044 5.00000000000000000
2 -1519.10980544585868302 283.75000000000073896 -0.00000000000046332 0.00000000000000022 -0.00000000000000044 -1.00000000000000000 1.00000000000000000 -0.00000000000000044 0.00000000000000022 0.00000000000000044 1.00000000000000000 -0.00000000000000044 5.00000000000000000
Triangulations 0

TShapes 68
Ve
0.000000100000000
-1010.000000000000114 0.000000000000000 0.000000000000000
0 0

0101101
*
Ed
 0.000000100000000 1 1 0
1  1 0 0.000000000000000 15.000000000000000
2  1 1 0 0.000000000000000 15.000000000000000
2  2 2 0 0.000000000000000 15.000000000000000
0

0101000
+68 5 -68 7 *
Ve
0.000000100000000
-1010.000000000000114 318.749999999999716 0.000000000000000
0 0

0101101
*
Ed
 0.000000100000000 1 1 0
1  2 0 0.000000000000000 15.000000000000000
2  3 1 0 0.000000000000000 15.000000000000000
0

0101000
+66 5 -66 7 *
Ed
 0.000000100000000 1 1 0
1  3 0 0.000000000000000 318.749999999999716
2  4 1 8 0.000000000000000 318.749999999999716
2  5 1 9 0.000000000000000 318.749999999999716
2  6 3 10 0.000000000000000 318.749999999999716
0

0101000
+68 0 -66 0 *
Wi

0101100
+67 0 -65 0 -64 5 +64 7 *
Fa
0  0.000000100000000 1 0

0111000
+63 0 *
Ve
0.000000100000000
-1616.955655016954097 530.000000000000000 0.000000000000000
0 0

0101101
*
Ed
 0.000000100000000 1 1 0
1  4 0 0.000000000000000 15.000000000000000
0

0101000
+61 5 -61 7 *
Ed
 0.000000100000000 1 1 0
1  5 0 0.000000000000000 642.667666571969221
2  7 3 10 0.000000000000000 642.667666571969221
0

0101000
+66 0 -61 0 *
Wi

0101100
+65 0 -60 0 -59 5 +59 7 *
Fa
0  0.000000100000000 4 0

0111000
+58 0 *
Ve
0.000000100000000
-1857.999999999998408 530.000000000000000 0.000000000000000
0 0

0101101
*
Ed
 0.000000100000000 1 1 0
1  6 0 0.000000000000000 15.000000000000000
0

0101000
+56 5 -56 7 *
Ed
 0.000000100000000 1 1 0
1  7 0 0.000000000000000 241.044344983044311
2  8 3 10 0.000000000000000 241.044344983044311
0

0101000
+61 0 -56 0 *
Wi

0101100
+60 0 -55 0 -54 5 +54 7 *
Fa
0  0.000000100000000 5 0

0111000
+53 0 *
Ve
0.000000100000000
-1857.999999999998408 279.999999999999943 0.000000000000000
0 0

0101101
*
Ed
 0.000000100000000 1 1 0
1  8 0 0.000000000000000 15.000000000000000
0

0101000
+51 5 -51 7 *
Ed
 0.000000100000000 1 1 0
1  9 0 0.000000000000000 250.000000000000057
2  9 3 10 0.000000000000000 250.000000000000057
0

0101000
+56 0 -51 0 *
Wi

0101100
+55 0 -50 0 -49 5 +49 7 *
Fa
0  0.000000100000000 6 0

0111000
+48 0 *
Ve
0.000000100000000
-1659.218390585019506 279.999999999999943 0.000000000000000
0 0

0101101
*
Ed
 0.000000100000000 1 1 0
1  10 0 0.000000000000000 15.000000000000000
0

0101000
+46 5 -46 7 *
Ed
 0.000000100000000 1 1 0
1  11 0 0.000000000000000 198.781609414978902
2  10 3 10 0.000000000000000 198.781609414978902
0

0101000
+51 0 -46 0 *
Wi

0101100
+50 0 -45 0 -44 5 +44 7 *
Fa
0  0.000000100000000 7 0

0111000
+43 0 *
Ve
0.000000100000000
-1260.000000000000000 141.052641467308206 0.000000000000000
0 0

0101101
*
Ed
 0.000000100000000 1 1 0
1  12 0 0.000000000000000 15.000000000000000
2  11 9 0 0.000000000000000 15.000000000000000
0

0101000
+41 5 -41 7 *
Ed
 0.000000100000000 1 1 0
1  13 0 0.000000000000000 422.707572471212757
2  12 3 10 0.000000000000000 422.707572471212757
0

0101000
+46 0 -41 0 *
Wi

0101100
+45 0 -40 0 -39 5 +39 7 *
Fa
0  0.000000100000000 8 0

0111000
+38 0 *
Ve
0.000000100000000
-1260.000000000000000 0.000000000000000 0.000000000000000
0 0

0101101
*
Ed
 0.000000100000000 1 1 0
1  14 0 0.000000000000000 15.000000000000000
2  13 9 0 0.000000000000000 15.000000000000000
2  14 2 0 0.000000000000000 15.000000000000000
0

0101000
+36 5 -36 7 *
Ed
 0.000000100000000 1 1 0
1  15 0 0.000000000000000 141.052641467308206
2  15 9 8 0.000000000000000 141.052641467308206
2  16 9 9 0.000000000000000 141.052641467308206
2  17 3 10 0.000000000000000 141.052641467308206
0

0101000
+41 0 -36 0 *
Wi

0101100
+40 0 -35 0 -34 5 +34 7 *
Fa
0  0.000000100000000 9 0

0111000
+33 0 *
Ed
 0.000000100000000 1 1 0
1  16 0 0.000000000000000 249.999999999999886
2  18 2 8 0.000000000000000 249.999999999999886
2  19 2 9 0.000000000000000 249.999999999999886
2  20 3 10 0.000000000000000 249.999999999999886
0

0101000
+36 0 -68 0 *
Wi

0101100
+35 0 -67 0 -31 5 +31 7 *
Fa
0  0.000000100000000 2 0

0111000
+30 0 *
Ve
0.000000100000000
-1629.000000000000000 472.500000000000000 0.000000000000000
0 0

0101101
*
Ed
 0.000000100000000 1 1 0
1  17 0 0.000000000000000 15.000000000000000
3  21 22CN 10 0 0.000000000000000 15.000000000000000
0

0101000
+28 5 -28 7 *
Ed
 0.000000100000000 1 1 0
1  18 0 0.000000000000000 6.283185307179586
2  23 10 8 0.000000000000000 6.283185307179586
2  24 10 9 0.000000000000000 6.283185307179586
2  25 3 10 0.000000000000000 6.283185307179586
0

0101000
+28 0 -28 0 *
Wi

0101100
+27 0 -27 0 -26 5 +26 7 *
Fa
0  0.000000100000000 10 0

0111000
+25 0 *
Ve
0.000000100000000
-1758.000000000000000 472.500000000000000 0.000000000000000
0 0

0101101
*
Ed
 0.000000100000000 1 1 0
1  19 0 0.000000000000000 15.000000000000000
3  26 27CN 11 0 0.000000000000000 15.000000000000000
0

0101000
+23 5 -23 7 *
Ed
 0.000000100000000 1 1 0
1  20 0 0.000000000000000 6.283185307179586
2  28 11 8 0.000000000000000 6.283185307179586
2  29 11 9 0.000000000000000 6.283185307179586
2  30 3 10 0.000000000000000 6.283185307179586
0

0101000
+23 0 -23 0 *
Wi

0101100
+22 0 -22 0 -21 5 +21 7 *
Fa
0  0.000000100000000 11 0

0111000
+20 0 *
Ve
0.000000100000000
-1095.000000000000000 283.750000000000000 0.000000000000000
0 0

0101101
*
Ed
 0.000000100000000 1 1 0
1  21 0 0.000000000000000 15.000000000000000
3  31 32CN 12 0 0.000000000000000 15.000000000000000
0

0101000
+18 5 -18 7 *
Ed
 0.000000100000000 1 1 0
1  22 0 0.000000000000000 6.283185307179586
2  33 12 8 0.000000000000000 6.283185307179586
2  34 12 9 0.000000000000000 6.283185307179586
2  35 3 10 0.000000000000000 6.283185307179586
0

0101000
+18 0 -18 0 *
Wi

0101100
+17 0 -17 0 -16 5 +16 7 *
Fa
0  0.000000100000000 12 0

0111000
+15 0 *
Ve
0.000000100000000
-1514.109805445858456 283.750000000000000 0.000000000000000
0 0

0101101
*
Ed
 0.000000100000000 1 1 0
1  23 0 0.000000000000000 15.000000000000000
3  36 37CN 13 0 0.000000000000000 15.000000000000000
0

0101000
+13 5 -13 7 *
Ed
 0.000000100000000 1 1 0
1  24 0 0.000000000000000 6.283185307179586
2  38 13 8 0.000000000000000 6.283185307179586
2  39 13 9 0.000000000000000 6.283185307179586
2  40 3 10 0.000000000000000 6.283185307179586
0

0101000
+13 0 -13 0 *
Wi

0101100
+12 0 -12 0 -11 5 +11 7 *
Fa
0  0.000000100000000 13 0

0111000
+10 0 *
Wi

0101100
+64 12 +59 12 +54 12 +49 12 +44 12 +39 12 +34 12 +31 12 *
Wi

0101100
-26 12 *
Wi

0101100
-21 12 *
Wi

0101100
-16 12 *
Wi

0101100
-11 12 *
Fa
0  0.000000100000000 3 0

0111000
+8 0 +7 0 +6 0 +5 0 +4 0 *
Sh

0101100
+62 0 +57 0 +52 0 +47 0 +42 0 +37 0 +32 0 +29 0 -24 0 -19 0 
-14 0 -9 0 +3 11 -3 13 *
So

1100000
-2 0 *

+1 1 