
CASCADE Topology V1, (c) Matra-Datavision
Locations 51
1
1.000000000000000 0.000000000000000 0.000000000000000 0.000000000000000 
0.000000000000000 0.000000000000000 -1.000000000000000 0.000000000000000 
0.000000000000000 1.000000000000000 0.000000000000000 0.000000000000000 
1
1.000000000000000 0.000000000000000 0.000000000000000 0.000000000000000 
0.000000000000000 -0.000000000000000 -1.000000000000000 0.000000000000000 
0.000000000000000 1.000000000000000 -0.000000000000000 0.000000000000000 
1
1.000000000000000 0.000000000000000 0.000000000000000 0.000000000000000 
0.000000000000000 -0.000000000000000 -1.000000000000000 0.000000000000000 
0.000000000000000 1.000000000000000 -0.000000000000000 0.000000000000000 
1
1.000000000000000 0.000000000000000 0.000000000000000 0.000000000000000 
0.000000000000000 -0.000000000000000 -1.000000000000000 0.000000000000000 
0.000000000000000 1.000000000000000 -0.000000000000000 0.000000000000000 
1
1.000000000000000 0.000000000000000 0.000000000000000 0.000000000000000 
0.000000000000000 -0.000000000000000 -1.000000000000000 0.000000000000000 
0.000000000000000 1.000000000000000 -0.000000000000000 0.000000000000000 
2  2 1 3 -1 4 1 5 -1 0
1
1.000000000000000 0.000000000000000 0.000000000000000 0.000000000000000 
0.000000000000000 1.000000000000000 0.000000000000000 0.000000000000000 
0.000000000000000 0.000000000000000 1.000000000000000 0.000000000000000 
1
1.000000000000000 0.000000000000000 0.000000000000000 0.000000000000000 
0.000000000000000 -0.000000000000000 -1.000000000000000 0.000000000000000 
0.000000000000000 1.000000000000000 -0.000000000000000 0.000000000000000 
1
1.000000000000000 0.000000000000000 0.000000000000000 0.000000000000000 
0.000000000000000 -0.000000000000000 -1.000000000000000 0.000000000000000 
0.000000000000000 1.000000000000000 -0.000000000000000 0.000000000000000 
2  7 1 8 1 9 -1 0
1
1.000000000000000 0.000000000000000 0.000000000000000 0.000000000000000 
0.000000000000000 1.000000000000000 0.000000000000000 0.000000000000000 
0.000000000000000 0.000000000000000 1.000000000000000 15.000000000000000 
2  7 1 8 1 9 -1 11 1 0
2  8 -1 7 -1 0
2  9 -1 2 1 3 -1 4 1 5 -1 0
2  7 1 8 1 9 -1 2 1 3 -1 4 1 5 -1 0
2  9 1 8 -1 7 -1 0
2  11 -1 9 1 8 -1 7 -1 0
1
1.000000000000000 0.000000000000000 0.000000000000000 0.000000000000000 
0.000000000000000 1.000000000000000 0.000000000000000 0.000000000000000 
0.000000000000000 0.000000000000000 1.000000000000000 0.000000000000000 
1
1.000000000000000 0.000000000000000 -0.000000000000000 0.000000000000000 
0.000000000000000 0.000000000000000 1.000000000000000 -0.000000000000000 
0.000000000000000 -1.000000000000000 0.000000000000000 -0.000000000000000 
2  18 1 19 1 4 -1 3 1 2 -1 9 1 8 -1 7 -1 0
2  18 1 19 1 5 -1 0
2  5 1 19 -1 18 -1 0
1
1.000000000000000 0.000000000000000 0.000000000000000 -0.000000000000000 
0.000000000000000 1.000000000000000 0.000000000000000 0.000000000000000 
0.000000000000000 0.000000000000000 1.000000000000000 -80.000000000000000 
2  23 -1 5 1 19 -1 18 -1 0
2  19 -1 18 -1 0
2  9 -1 2 1 3 -1 4 1 19 -1 18 -1 0
2  4 1 5 -1 0
2  9 -1 11 1 2 1 3 -1 0
2  7 1 8 1 9 -1 11 1 2 1 3 -1 0
1
1.000000000000000 0.000000000000000 0.000000000000000 0.000000000000000 
0.000000000000000 1.000000000000000 0.000000000000000 0.000000000000000 
0.000000000000000 0.000000000000000 1.000000000000000 0.000000000000000 
1
0.000000000000000 0.000000000000000 -1.000000000000000 1027.000000000000000 
0.000000000000000 -1.000000000000000 0.000000000000000 0.000000000000000 
-1.000000000000000 0.000000000000000 0.000000000000000 0.000000000000000 
1
1.000000000000000 0.000000000000000 0.000000000000000 15.000000000000000 
0.000000000000000 1.000000000000000 0.000000000000000 0.000000000000003 
0.000000000000000 0.000000000000000 1.000000000000000 -0.000000000000000 
2  30 1 31 1 3 -1 32 1 3 1 2 -1 11 -1 9 1 8 -1 7 -1 0
2  30 1 31 1 3 -1 32 1 0
2  3 1 31 -1 30 -1 0
2  32 -1 3 1 31 -1 30 -1 0
2  31 -1 30 -1 0
2  9 -1 11 1 2 1 3 -1 32 -1 3 1 31 -1 30 -1 0
2  30 1 31 1 3 -1 0
2  30 1 31 1 2 -1 11 -1 9 1 8 -1 7 -1 0
2  2 1 3 -1 0
2  3 1 2 -1 0
2  7 1 8 1 9 -1 2 1 3 -1 0
2  3 1 2 -1 11 -1 9 1 8 -1 7 -1 0
2  7 1 8 1 9 -1 11 1 2 1 3 -1 4 1 5 -1 0
2  18 1 19 1 5 -1 23 1 0
2  3 -1 32 1 4 1 5 -1 0
2  30 1 31 1 0
2  3 -1 0
2  5 -1 23 1 0
2  18 1 19 1 0
Curve2ds 110
1 568.16652999079360598 -847.78643515850103540 -0.55582821424379891 0.83129717685707905 
1 40.00000000000000000 0.00000000000000000 0.00000000000000000 -1.00000000000000000 
1 568.16652999079360598 -847.78643515850103540 0.94101531017864071 -0.33836398450396094 
1 0.00000000000000000 0.00000000000000000 0.00000000000000000 -1.00000000000000000 
1 -153.17822827085819881 231.05743371452149404 0.00000000000000000 1.00000000000000000 
1 0.00000000000000000 0.00000000000000000 1.00000000000000000 0.00000000000000000 
1 0.00000000000000000 -15.00000000000000000 1.00000000000000000 0.00000000000000000 
1 746.15527172914153198 -951.78643515850194490 0.00000000000000000 1.00000000000000000 
1 0.00000000000000000 0.00000000000000000 1.00000000000000000 0.00000000000000000 
1 0.00000000000000000 -15.00000000000000000 1.00000000000000000 0.00000000000000000 
1 336.96898587632858835 -951.78643515850194490 1.00000000000000000 0.00000000000000000 
1 -403.17822827085819881 155.17840363845766660 0.55582821424379858 -0.83129717685707916 
1 -403.17822827085819881 1131.21356484149805510 0.00000000000000000 -1.00000000000000000 
1 -153.17822827085819881 1131.21356484149805510 -1.00000000000000000 -0.00000000000000000 
1 0.00000000000000000 0.00000000000000000 1.00000000000000000 0.00000000000000000 
1 0.00000000000000000 -15.00000000000000000 1.00000000000000000 0.00000000000000000 
1 0.00000000000000000 0.00000000000000000 1.00000000000000000 0.00000000000000000 
1 0.00000000000000000 -80.00000000000000000 1.00000000000000000 0.00000000000000000 
1 69.99999999999909051 -7.50000000000000000 0.00000000000000000 1.00000000000000000 
1 -323.17822827085819881 1116.21356484149805510 -0.00000000000000000 1.00000000000000000 
1 -70.00000000000090949 -7.50000000000000000 1.00000000000000000 0.00000000000000000 
1 0.00000000000000000 0.00000000000000000 1.00000000000000000 0.00000000000000000 
1 0.00000000000000000 -80.00000000000000000 1.00000000000000000 0.00000000000000000 
1 -183.17822827085819881 1116.21356484149805510 -1.00000000000000000 -0.00000000000000000 
1 0.00000000000000000 0.00000000000000000 1.00000000000000000 0.00000000000000000 
1 -0.00000000000000000 -80.00000000000000000 1.00000000000000000 0.00000000000000000 
1 -70.00000000000090949 7.50000000000000000 0.00000000000000000 -1.00000000000000000 
1 -183.17822827085819881 1131.21356484149805510 0.00000000000000000 -1.00000000000000000 
1 0.00000000000000000 0.00000000000000000 1.00000000000000000 0.00000000000000000 
1 0.00000000000000000 -15.00000000000000000 1.00000000000000000 0.00000000000000000 
2 359.28857172914194962 -849.78643515850194490 0.00000000000000000 1.00000000000000000 -1.00000000000000000 0.00000000000000000 5.00000000000000000
1 0.00000000000000000 0.00000000000000000 1.00000000000000000 0.00000000000000000 
1 0.00000000000000000 -15.00000000000000000 1.00000000000000000 0.00000000000000000 
2 359.28857172914194962 -697.78643515850217227 0.00000000000000000 1.00000000000000000 -1.00000000000000000 0.00000000000000000 5.00000000000000000
1 0.00000000000000000 0.00000000000000000 1.00000000000000000 0.00000000000000000 
1 0.00000000000000000 -15.00000000000000000 1.00000000000000000 0.00000000000000000 
2 177.42187172914145776 -577.78643515850194490 0.00000000000000000 1.00000000000000000 -1.00000000000000000 0.00000000000000000 5.00000000000000000
1 0.00000000000000000 0.00000000000000000 1.00000000000000000 0.00000000000000000 
1 0.00000000000000000 -15.00000000000000000 1.00000000000000000 0.00000000000000000 
2 177.42187172914145776 -425.78643515850194490 0.00000000000000000 1.00000000000000000 -1.00000000000000000 0.00000000000000000 5.00000000000000000
1 0.00000000000000000 0.00000000000000000 1.00000000000000000 0.00000000000000000 
1 0.00000000000000000 -15.00000000000000000 1.00000000000000000 0.00000000000000000 
2 -4.44482827085812460 -305.78643515850194490 0.00000000000000000 1.00000000000000000 -1.00000000000000000 0.00000000000000000 5.00000000000000000
1 0.00000000000000000 0.00000000000000000 1.00000000000000000 0.00000000000000000 
1 0.00000000000000000 -15.00000000000000000 1.00000000000000000 0.00000000000000000 
2 -4.44482827085812460 -153.78643515850194490 0.00000000000000000 1.00000000000000000 -1.00000000000000000 0.00000000000000000 5.00000000000000000
1 0.00000000000000000 0.00000000000000000 1.00000000000000000 0.00000000000000000 
1 0.00000000000000000 -15.00000000000000000 1.00000000000000000 0.00000000000000000 
2 -186.31152827085770696 -33.78643515850194490 0.00000000000000000 1.00000000000000000 -1.00000000000000000 0.00000000000000000 5.00000000000000000
1 0.00000000000000000 0.00000000000000000 1.00000000000000000 0.00000000000000000 
1 0.00000000000000000 -15.00000000000000000 1.00000000000000000 0.00000000000000000 
2 -186.31152827085770696 118.21356484149805510 0.00000000000000000 1.00000000000000000 -1.00000000000000000 0.00000000000000000 5.00000000000000000
1 0.00000000000000000 0.00000000000000000 1.00000000000000000 -0.00000000000000000 
1 -0.00000000000000333 -15.00000000000000000 1.00000000000000000 -0.00000000000000000 
1 -120.00000000000000000 -78.00000000000005684 1.00000000000000000 0.00000000000000022 
1 746.15527172914153198 -936.78643515850308177 -1.00000000000000000 -0.00000000000000022 
1 240.00000000000000000 -0.00000000000005329 0.00000000000000000 -1.00000000000000000 
1 0.00000000000000000 0.00000000000000000 0.00000000000000000 -1.00000000000000000 
1 506.15527172914153198 -951.78643515850308177 -0.00000000000000022 1.00000000000000000 
1 409.18628585281294363 0.00000000000000000 0.00000000000000000 -1.00000000000000000 
1 0.00000000000000000 0.00000000000000000 0.00000000000000000 -1.00000000000000000 
1 250.00000000000000000 0.00000000000000000 0.00000000000000000 -1.00000000000000000 
1 0.00000000000000000 0.00000000000000000 1.00000000000000000 0.00000000000000000 
1 0.00000000000000000 -80.00000000000000000 1.00000000000000000 0.00000000000000000 
1 69.99999999999909051 7.50000000000000000 -1.00000000000000000 0.00000000000000000 
1 -323.17822827085819881 1131.21356484149805510 1.00000000000000000 0.00000000000000000 
1 0.00000000000000000 0.00000000000000000 0.00000000000000000 -1.00000000000000000 
1 0.00000000000000000 0.00000000000000000 0.00000000000000000 -1.00000000000000000 
1 140.00000000000000000 0.00000000000000000 0.00000000000000000 -1.00000000000000000 
1 15.00000000000000000 0.00000000000000000 0.00000000000000000 -1.00000000000000000 
1 0.00000000000000000 0.00000000000000000 -0.00000000000000000 -1.00000000000000000 
1 15.00000000000000000 0.00000000000000000 0.00000000000000000 -1.00000000000000000 
1 0.00000000000000000 0.00000000000000000 0.00000000000000000 -1.00000000000000000 
1 0.00000000000000000 0.00000000000000000 0.00000000000000000 -1.00000000000000000 
1 140.00000000000000000 0.00000000000000000 -0.00000000000000000 -1.00000000000000000 
1 0.00000000000000000 0.00000000000000000 0.00000000000000000 -1.00000000000000000 
1 6.28318530717958623 0.00000000000000000 0.00000000000000000 -1.00000000000000000 
1 0.00000000000000000 0.00000000000000000 0.00000000000000000 -1.00000000000000000 
1 6.28318530717958623 0.00000000000000000 0.00000000000000000 -1.00000000000000000 
1 0.00000000000000000 0.00000000000000000 0.00000000000000000 -1.00000000000000000 
1 6.28318530717958623 0.00000000000000000 0.00000000000000000 -1.00000000000000000 
1 0.00000000000000000 0.00000000000000000 0.00000000000000000 -1.00000000000000000 
1 6.28318530717958623 0.00000000000000000 0.00000000000000000 -1.00000000000000000 
1 0.00000000000000000 0.00000000000000000 0.00000000000000000 -1.00000000000000000 
1 6.28318530717958623 0.00000000000000000 0.00000000000000000 -1.00000000000000000 
1 0.00000000000000000 0.00000000000000000 0.00000000000000000 -1.00000000000000000 
1 6.28318530717958623 0.00000000000000000 0.00000000000000000 -1.00000000000000000 
1 0.00000000000000000 0.00000000000000000 0.00000000000000000 -1.00000000000000000 
1 6.28318530717958623 0.00000000000000000 0.00000000000000000 -1.00000000000000000 
1 0.00000000000000000 0.00000000000000000 0.00000000000000000 -1.00000000000000000 
1 6.28318530717958623 0.00000000000000000 0.00000000000000000 -1.00000000000000000 
1 0.00000000000000000 0.00000000000000000 1.00000000000000000 0.00000000000000000 
1 0.00000000000000000 -15.00000000000000000 1.00000000000000000 0.00000000000000000 
1 120.00000000000000000 -78.00000000000000000 -0.00000000000000022 1.00000000000000000 
1 120.00000000000000000 78.00000000000000000 -1.00000000000000000 -0.00000000000000022 
1 -0.00000000000000000 0.00000000000000000 1.00000000000000000 0.00000000000000000 
1 -0.00000000000000000 -15.00000000000000000 1.00000000000000000 0.00000000000000000 
1 -120.00000000000000000 77.99999999999994316 0.00000000000000022 -1.00000000000000000 
1 0.00000000000000000 0.00000000000000000 1.00000000000000000 0.00000000000000000 
1 0.00000000000000000 -15.00000000000000000 1.00000000000000000 0.00000000000000000 
2 -80.00000000000000000 -0.00000000000005684 -1.00000000000000000 -0.00000000000000022 -0.00000000000000022 1.00000000000000000 5.00000000000000000
1 0.00000000000000000 0.00000000000000000 1.00000000000000000 0.00000000000000000 
1 0.00000000000000000 -15.00000000000000000 1.00000000000000000 0.00000000000000000 
2 -20.00000000000000000 -0.00000000000004263 -1.00000000000000000 -0.00000000000000022 -0.00000000000000022 1.00000000000000000 5.00000000000000000
1 156.00000000000000000 0.00000000000000000 0.00000000000000000 -1.00000000000000000 
1 -0.00000000000000000 0.00000000000000000 -0.00000000000000000 -1.00000000000000000 
1 0.00000000000000000 0.00000000000000000 0.00000000000000000 -1.00000000000000000 
1 6.28318530717958623 0.00000000000000000 0.00000000000000000 -1.00000000000000000 
1 0.00000000000000000 0.00000000000000000 0.00000000000000000 -1.00000000000000000 
1 6.28318530717958623 0.00000000000000000 0.00000000000000000 -1.00000000000000000 
Curves 51
1 1131.00000000000090949 4900.65574173834829708 0.00000000000000000 0.00000000000000000 0.00000000000000000 1.00000000000000000 
1 2209.84386887302343894 5622.00050000000010186 0.00000000000000000 0.00000000000000000 0.00000000000000000 1.00000000000000000 
1 1131.00000000000090949 4900.65574173834829708 0.00000000000000000 0.83129717685707905 0.55582821424379891 0.00000000000000000 
1 1067.00000000000000000 4722.66700000000037107 0.00000000000000000 0.00000000000000000 0.00000000000000000 1.00000000000000000 
1 1131.00000000000090949 4900.65574173834829708 0.00000000000000000 -0.33836398450396094 -0.94101531017864071 0.00000000000000000 
1 3110.00000000000000000 5622.00050000000010186 0.00000000000000000 0.00000000000000000 0.00000000000000000 1.00000000000000000 
1 2209.84386887302343894 5622.00050000000010186 0.00000000000000000 1.00000000000000000 0.00000000000000000 0.00000000000000000 
1 1027.00000000000000000 4722.66700000000037107 0.00000000000000000 1.00000000000000000 0.00000000000000000 0.00000000000000000 
1 1027.00000000000000000 5131.85328585281331470 0.00000000000000000 0.00000000000000000 -1.00000000000000000 0.00000000000000000 
1 2133.96483879695961150 5872.00050000000010186 0.00000000000000000 -0.83129717685707916 -0.55582821424379858 0.00000000000000000 
1 3110.00000000000000000 5872.00050000000010186 0.00000000000000000 -1.00000000000000000 0.00000000000000000 0.00000000000000000 
1 3110.00000000000000000 5622.00050000000010186 0.00000000000000000 0.00000000000000000 1.00000000000000000 0.00000000000000000 
1 3095.00000000000000000 -5792.00050000000010186 0.00000000000000000 1.00000000000000000 0.00000000000000000 0.00000000000000000 
1 3095.00000000000000000 -5652.00050000000010186 0.00000000000000000 0.00000000000000000 -1.00000000000000000 0.00000000000000000 
1 3110.00000000000000000 -5652.00050000000010186 0.00000000000000000 -1.00000000000000000 0.00000000000000000 0.00000000000000000 
2 1129.00000000000000000 5109.53369999999995343 0.00000000000000000 0.00000000000000000 0.00000000000000000 1.00000000000000000 1.00000000000000000 0.00000000000000000 -0.00000000000000000 -0.00000000000000000 1.00000000000000000 0.00000000000000000 5.00000000000000000
2 1280.99999999999977263 5109.53369999999995343 0.00000000000000000 0.00000000000000000 0.00000000000000000 1.00000000000000000 1.00000000000000000 0.00000000000000000 -0.00000000000000000 -0.00000000000000000 1.00000000000000000 0.00000000000000000 5.00000000000000000
2 1401.00000000000000000 5291.40040000000044529 0.00000000000000000 0.00000000000000000 0.00000000000000000 1.00000000000000000 1.00000000000000000 0.00000000000000000 -0.00000000000000000 -0.00000000000000000 1.00000000000000000 0.00000000000000000 5.00000000000000000
2 1553.00000000000000000 5291.40040000000044529 0.00000000000000000 0.00000000000000000 0.00000000000000000 1.00000000000000000 1.00000000000000000 0.00000000000000000 -0.00000000000000000 -0.00000000000000000 1.00000000000000000 0.00000000000000000 5.00000000000000000
2 1673.00000000000000000 5473.26710000000002765 0.00000000000000000 0.00000000000000000 0.00000000000000000 1.00000000000000000 1.00000000000000000 0.00000000000000000 -0.00000000000000000 -0.00000000000000000 1.00000000000000000 0.00000000000000000 5.00000000000000000
2 1825.00000000000000000 5473.26710000000002765 0.00000000000000000 0.00000000000000000 0.00000000000000000 1.00000000000000000 1.00000000000000000 0.00000000000000000 -0.00000000000000000 -0.00000000000000000 1.00000000000000000 0.00000000000000000 5.00000000000000000
2 1945.00000000000000000 5655.13379999999961001 0.00000000000000000 0.00000000000000000 0.00000000000000000 1.00000000000000000 1.00000000000000000 0.00000000000000000 -0.00000000000000000 -0.00000000000000000 1.00000000000000000 0.00000000000000000 5.00000000000000000
2 2097.00000000000000000 5655.13379999999961001 0.00000000000000000 0.00000000000000000 0.00000000000000000 1.00000000000000000 1.00000000000000000 0.00000000000000000 -0.00000000000000000 -0.00000000000000000 1.00000000000000000 0.00000000000000000 5.00000000000000000
1 -4722.66700000000037107 15.00000000000000000 0.00000000000000000 -1.00000000000000000 0.00000000000000000 0.00000000000000000 
1 1026.99999999999886313 4962.66700000000037107 15.00000000000000000 1.00000000000000000 0.00000000000000022 -0.00000000000000000 
1 1027.00000000000000000 4722.66700000000037107 0.00000000000000000 0.00000000000000000 0.00000000000000000 1.00000000000000000 
1 3110.00000000000000000 5872.00050000000010186 0.00000000000000000 0.00000000000000000 0.00000000000000000 1.00000000000000000 
1 3110.00000000000000000 -5792.00050000000010186 0.00000000000000000 0.00000000000000000 1.00000000000000000 0.00000000000000000 
1 1027.00000000000000000 5131.85328585281331470 0.00000000000000000 0.00000000000000000 0.00000000000000000 1.00000000000000000 
1 2133.96483879695961150 5872.00050000000010186 0.00000000000000000 0.00000000000000000 0.00000000000000000 1.00000000000000000 
1 3095.00000000000000000 5792.00050000000010186 0.00000000000000000 -0.00000000000000000 0.00000000000000000 -1.00000000000000000 
1 3110.00000000000000000 5792.00050000000010186 0.00000000000000000 -0.00000000000000000 0.00000000000000000 -1.00000000000000000 
1 3095.00000000000000000 5652.00050000000010186 0.00000000000000000 -0.00000000000000000 0.00000000000000000 -1.00000000000000000 
1 3110.00000000000000000 5652.00050000000010186 0.00000000000000000 -0.00000000000000000 0.00000000000000000 -1.00000000000000000 
1 1134.00000000000000000 5109.53369999999995343 0.00000000000000000 0.00000000000000000 0.00000000000000000 1.00000000000000000 
1 1285.99999999999977263 5109.53369999999995343 0.00000000000000000 0.00000000000000000 0.00000000000000000 1.00000000000000000 
1 1406.00000000000000000 5291.40040000000044529 0.00000000000000000 0.00000000000000000 0.00000000000000000 1.00000000000000000 
1 1558.00000000000000000 5291.40040000000044529 0.00000000000000000 0.00000000000000000 0.00000000000000000 1.00000000000000000 
1 1678.00000000000000000 5473.26710000000002765 0.00000000000000000 0.00000000000000000 0.00000000000000000 1.00000000000000000 
1 1830.00000000000000000 5473.26710000000002765 0.00000000000000000 0.00000000000000000 0.00000000000000000 1.00000000000000000 
1 1950.00000000000000000 5655.13379999999961001 0.00000000000000000 0.00000000000000000 0.00000000000000000 1.00000000000000000 
1 2102.00000000000000000 5655.13379999999961001 0.00000000000000000 0.00000000000000000 0.00000000000000000 1.00000000000000000 
1 -4962.66700000000037107 15.00000000000000000 0.00000000000000000 0.00000000000000000 1.00000000000000000 0.00000000000000000 
1 -4962.66700000000037107 171.00000000000000000 0.00000000000000000 1.00000000000000000 0.00000000000000000 0.00000000000000000 
1 -4722.66700000000037107 171.00000000000000000 0.00000000000000000 0.00000000000000000 -1.00000000000000000 0.00000000000000000 
2 -4762.66700000000037107 93.00000000000000000 0.00000000000000000 0.00000000000000000 0.00000000000000000 1.00000000000000000 1.00000000000000000 0.00000000000000000 -0.00000000000000000 -0.00000000000000000 1.00000000000000000 0.00000000000000000 5.00000000000000000
2 -4822.66700000000037107 93.00000000000000000 0.00000000000000000 0.00000000000000000 0.00000000000000000 1.00000000000000000 1.00000000000000000 0.00000000000000000 -0.00000000000000000 -0.00000000000000000 1.00000000000000000 0.00000000000000000 5.00000000000000000
1 1026.99999999999886313 4962.66700000000037107 171.00000000000000000 1.00000000000000000 0.00000000000000022 -0.00000000000000000 
1 1026.99999999999886313 4722.66700000000037107 171.00000000000000000 1.00000000000000000 0.00000000000000022 -0.00000000000000000 
1 1026.99999999999886313 4757.66700000000037107 93.00000000000000000 1.00000000000000000 0.00000000000000022 -0.00000000000000000 
1 1026.99999999999886313 4817.66700000000037107 93.00000000000000000 1.00000000000000000 0.00000000000000022 -0.00000000000000000 
Polygon3D 0
PolygonOnTriangulations 0
Surfaces 29
1 1131.00000000000090949 4900.65574173834829708 0.00000000000000000 -0.55582821424379891 0.83129717685707905 0.00000000000000000 0.83129717685707905 0.55582821424379891 0.00000000000000000 0.00000000000000000 0.00000000000000000 -1.00000000000000000 
1 1978.78643515850194490 -0.00000000000121432 5468.82227172914190305 0.00000000000000000 -1.00000000000000000 -0.00000000000000022 0.00000000000000000 0.00000000000000022 -1.00000000000000000 1.00000000000000000 0.00000000000000000 0.00000000000000000 
1 1131.00000000000090949 4900.65574173834829708 0.00000000000000000 0.94101531017864071 -0.33836398450396094 0.00000000000000000 -0.33836398450396094 -0.94101531017864071 0.00000000000000000 0.00000000000000000 -0.00000000000000000 -1.00000000000000000 
1 1027.00000000000000000 4722.66700000000037107 0.00000000000000000 0.00000000000000000 1.00000000000000000 0.00000000000000000 1.00000000000000000 0.00000000000000000 0.00000000000000000 0.00000000000000000 0.00000000000000000 -1.00000000000000000 
1 2209.84386887302343894 5622.00050000000010186 0.00000000000000000 0.00000000000000000 1.00000000000000000 0.00000000000000000 1.00000000000000000 0.00000000000000000 0.00000000000000000 0.00000000000000000 0.00000000000000000 -1.00000000000000000 
1 3110.00000000000000000 5622.00050000000010186 0.00000000000000000 -1.00000000000000000 0.00000000000000000 0.00000000000000000 0.00000000000000000 1.00000000000000000 0.00000000000000000 0.00000000000000000 0.00000000000000000 -1.00000000000000000 
1 1027.00000000000000000 5131.85328585281331470 0.00000000000000000 1.00000000000000000 0.00000000000000000 -0.00000000000000000 0.00000000000000000 -1.00000000000000000 0.00000000000000000 0.00000000000000000 -0.00000000000000000 -1.00000000000000000 
1 3095.00000000000000000 5792.00050000000010186 0.00000000000000000 0.00000000000000000 -1.00000000000000000 -0.00000000000000000 1.00000000000000000 0.00000000000000000 0.00000000000000000 0.00000000000000000 -0.00000000000000000 1.00000000000000000 
1 3102.50000000000000000 -0.00000000000127054 5722.00050000000101136 0.00000000000000000 1.00000000000000000 0.00000000000000022 0.00000000000000000 -0.00000000000000022 1.00000000000000000 1.00000000000000000 0.00000000000000000 -0.00000000000000000 
1 3095.00000000000000000 5652.00050000000010186 0.00000000000000000 1.00000000000000000 -0.00000000000000000 -0.00000000000000000 0.00000000000000000 1.00000000000000000 0.00000000000000000 0.00000000000000000 -0.00000000000000000 1.00000000000000000 
1 3110.00000000000000000 5652.00050000000010186 0.00000000000000000 0.00000000000000000 1.00000000000000000 0.00000000000000000 -1.00000000000000000 0.00000000000000000 0.00000000000000000 0.00000000000000000 -0.00000000000000000 1.00000000000000000 
2 1129.00000000000000000 5109.53369999999995343 0.00000000000000000 -0.00000000000000000 -0.00000000000000000 -1.00000000000000000 1.00000000000000000 0.00000000000000000 0.00000000000000000 -0.00000000000000000 1.00000000000000000 -0.00000000000000000 5.00000000000000000
2 1280.99999999999977263 5109.53369999999995343 0.00000000000000000 -0.00000000000000000 -0.00000000000000000 -1.00000000000000000 1.00000000000000000 0.00000000000000000 0.00000000000000000 -0.00000000000000000 1.00000000000000000 -0.00000000000000000 5.00000000000000000
2 1401.00000000000000000 5291.40040000000044529 0.00000000000000000 -0.00000000000000000 -0.00000000000000000 -1.00000000000000000 1.00000000000000000 0.00000000000000000 0.00000000000000000 -0.00000000000000000 1.00000000000000000 -0.00000000000000000 5.00000000000000000
2 1553.00000000000000000 5291.40040000000044529 0.00000000000000000 -0.00000000000000000 -0.00000000000000000 -1.00000000000000000 1.00000000000000000 0.00000000000000000 0.00000000000000000 -0.00000000000000000 1.00000000000000000 -0.00000000000000000 5.00000000000000000
2 1673.00000000000000000 5473.26710000000002765 0.00000000000000000 -0.00000000000000000 -0.00000000000000000 -1.00000000000000000 1.00000000000000000 0.00000000000000000 0.00000000000000000 -0.00000000000000000 1.00000000000000000 -0.00000000000000000 5.00000000000000000
2 1825.00000000000000000 5473.26710000000002765 0.00000000000000000 -0.00000000000000000 -0.00000000000000000 -1.00000000000000000 1.00000000000000000 0.00000000000000000 0.00000000000000000 -0.00000000000000000 1.00000000000000000 -0.00000000000000000 5.00000000000000000
2 1945.00000000000000000 5655.13379999999961001 0.00000000000000000 -0.00000000000000000 -0.00000000000000000 -1.00000000000000000 1.00000000000000000 0.00000000000000000 0.00000000000000000 -0.00000000000000000 1.00000000000000000 -0.00000000000000000 5.00000000000000000
2 2097.00000000000000000 5655.13379999999961001 0.00000000000000000 -0.00000000000000000 -0.00000000000000000 -1.00000000000000000 1.00000000000000000 0.00000000000000000 0.00000000000000000 -0.00000000000000000 1.00000000000000000 -0.00000000000000000 5.00000000000000000
1 1026.99999999999886313 4722.66700000000037107 15.00000000000000000 0.00000000000000000 0.00000000000000000 1.00000000000000000 -0.00000000000000022 1.00000000000000000 0.00000000000000000 -1.00000000000000000 -0.00000000000000022 0.00000000000000000 
1 1026.99999999999886313 -93.00000000000110845 4842.66700000000037107 1.00000000000000000 0.00000000000000000 0.00000000000000000 -0.00000000000000000 0.00000000000000000 1.00000000000000000 0.00000000000000000 -1.00000000000000000 0.00000000000000000 
1 1026.99999999999886313 4962.66700000000037107 15.00000000000000000 0.00000000000000022 -1.00000000000000000 0.00000000000000000 0.00000000000000000 0.00000000000000000 1.00000000000000000 -1.00000000000000000 -0.00000000000000022 0.00000000000000000 
1 3110.00000000000000000 5792.00050000000010186 0.00000000000000000 -1.00000000000000000 0.00000000000000000 0.00000000000000000 0.00000000000000000 -1.00000000000000000 0.00000000000000000 0.00000000000000000 0.00000000000000000 1.00000000000000000 
1 2133.96483879695961150 5872.00050000000010186 0.00000000000000000 0.55582821424379858 -0.83129717685707916 0.00000000000000000 -0.83129717685707916 -0.55582821424379858 0.00000000000000000 0.00000000000000000 -0.00000000000000000 -1.00000000000000000 
1 3110.00000000000000000 5872.00050000000010186 0.00000000000000000 0.00000000000000000 -1.00000000000000000 0.00000000000000000 -1.00000000000000000 0.00000000000000000 0.00000000000000000 -0.00000000000000000 -0.00000000000000000 -1.00000000000000000 
1 1026.99999999999886313 4722.66700000000037107 171.00000000000000000 -0.00000000000000022 1.00000000000000000 -0.00000000000000000 0.00000000000000000 0.00000000000000000 -1.00000000000000000 -1.00000000000000000 -0.00000000000000022 -0.00000000000000000 
2 1026.99999999999886313 4762.66700000000037107 93.00000000000000000 -1.00000000000000000 -0.00000000000000022 0.00000000000000000 0.00000000000000022 -1.00000000000000000 0.00000000000000000 0.00000000000000000 0.00000000000000000 1.00000000000000000 5.00000000000000000
2 1026.99999999999886313 4822.66700000000037107 93.00000000000000000 -1.00000000000000000 -0.00000000000000022 0.00000000000000000 0.00000000000000022 -1.00000000000000000 0.00000000000000000 0.00000000000000000 0.00000000000000000 1.00000000000000000 5.00000000000000000
1 1026.99999999999886313 4962.66700000000037107 171.00000000000000000 -0.00000000000000000 -0.00000000000000000 -1.00000000000000000 0.00000000000000022 -1.00000000000000000 0.00000000000000000 -1.00000000000000000 -0.00000000000000022 0.00000000000000000 
Triangulations 0

TShapes 167
Ve
0.000000100000000
1131.000000000000909 4900.655741738348297 0.000000000000000
0 0

0101101
*
Ed
 0.000000100000000 1 1 0
1  1 0 0.000000000000000 15.000000000000000
0

0101000
+167 10 -167 12 *
Ve
0.000000100000000
2209.843868873023439 5622.000500000000102 0.000000000000000
0 0

0101101
*
Ed
 0.000000100000000 1 1 0
1  2 0 0.000000000000000 15.000000000000000
0

0101000
+165 10 -165 12 *
Ed
 0.000000100000000 1 1 0
1  3 0 0.000000000000000 1297.783631302411095
2  1 2 13 0.000000000000000 1297.783631302411095
0

0101000
+167 0 -165 0 *
Wi

0101100
+166 0 -164 0 -163 10 +163 12 *
Fa
0  0.000000100000000 1 0

0111000
+162 0 *
Ve
0.000000100000000
1067.000000000000000 4722.667000000000371 0.000000000000000
0 0

0101101
*
Ed
 0.000000100000000 1 1 0
1  4 0 0.000000000000000 15.000000000000000
2  2 4 0 0.000000000000000 15.000000000000000
0

0101000
+160 10 -160 12 *
Ed
 0.000000100000000 1 1 0
1  5 0 0.000000000000000 189.145426023471259
2  3 2 13 0.000000000000000 189.145426023471259
0

0101000
+167 0 -160 0 *
Wi

0101100
+166 0 -159 0 -158 10 +158 12 *
Fa
0  0.000000100000000 3 0

0111000
+157 0 *
Ve
0.000000100000000
3110.000000000000000 5622.000500000000102 0.000000000000000
0 0

0101101
*
Ed
 0.000000100000000 1 1 0
1  6 0 0.000000000000000 15.000000000000000
2  4 6 0 0.000000000000000 15.000000000000000
0

0101000
+155 10 -155 12 *
Ed
 0.000000100000000 1 1 0
1  7 0 0.000000000000000 900.156131126976561
2  5 2 13 0.000000000000000 900.156131126976561
0

0101000
+165 0 -155 0 *
Wi

0101100
+164 0 -154 0 -153 10 +153 12 *
Fa
0  0.000000100000000 5 0

0111000
+152 0 *
Ve
0.000000100000000
1027.000000000000000 4722.667000000000371 0.000000000000000
0 0

0101101
*
Ed
 0.000000100000000 1 1 0
1  8 0 0.000000000000000 40.000000000000000
2  6 4 16 0.000000000000000 40.000000000000000
2  7 4 17 0.000000000000000 40.000000000000000
2  8 2 13 0.000000000000000 40.000000000000000
0

0101000
+150 0 -160 0 *
Ve
0.000000100000000
1027.000000000000000 5131.853285852813315 0.000000000000000
0 0

0101101
*
Ed
 0.000000100000000 1 1 0
1  9 0 0.000000000000000 409.186285852812944
2  9 7 16 0.000000000000000 409.186285852812944
2  10 7 17 0.000000000000000 409.186285852812944
2  11 2 13 0.000000000000000 409.186285852812944
0

0101000
+148 0 -150 0 *
Ve
0.000000100000000
2133.964838796959611 5872.000500000000102 0.000000000000000
0 0

0101101
*
Ed
 0.000000100000000 1 1 0
1  10 0 0.000000000000000 1331.611449688917446
2  12 2 13 0.000000000000000 1331.611449688917446
0

0101000
+146 0 -148 0 *
Ve
0.000000100000000
3110.000000000000000 5872.000500000000102 0.000000000000000
0 0

0101101
*
Ed
 0.000000100000000 1 1 0
1  11 0 0.000000000000000 976.035161203040389
2  13 2 13 0.000000000000000 976.035161203040389
0

0101000
+144 0 -146 0 *
Ve
0.000000100000000
3110.000000000000000 -5792.000500000000102 0.000000000000000
0 0

0101101
*
Ed
 0.000000100000000 1 1 0
1  12 0 170.000000000000000 250.000000000000000
2  14 2 13 170.000000000000000 250.000000000000000
2  15 6 16 170.000000000000000 250.000000000000000
2  16 6 17 170.000000000000000 250.000000000000000
0

0101000
+142 20 -144 0 *
Ve
0.000000100000000
3095.000000000000000 -5792.000500000000102 0.000000000000000
0 0

0101101
*
Ed
 0.000000100000000 1 1 0
1  13 0 0.000000000000000 15.000000000000000
2  17 8 22 0.000000000000000 15.000000000000000
2  18 8 24 0.000000000000000 15.000000000000000
2  19 9 25 0.000000000000000 15.000000000000000
2  20 2 26 0.000000000000000 15.000000000000000
0

0101000
+140 0 -142 0 *
Ve
0.000000100000000
3095.000000000000000 -5652.000500000000102 0.000000000000000
0 0

0101101
*
Ed
 0.000000100000000 1 1 0
1  14 0 0.000000000000000 140.000000000000000
2  21 9 25 0.000000000000000 140.000000000000000
2  22 10 22 0.000000000000000 140.000000000000000
2  23 10 24 0.000000000000000 140.000000000000000
2  24 2 26 0.000000000000000 140.000000000000000
0

0101000
+138 0 -140 0 *
Ve
0.000000100000000
3110.000000000000000 -5652.000500000000102 0.000000000000000
0 0

0101101
*
Ed
 0.000000100000000 1 1 0
1  15 0 0.000000000000000 15.000000000000000
2  25 11 22 0.000000000000000 15.000000000000000
2  26 11 24 0.000000000000000 15.000000000000000
2  27 9 25 0.000000000000000 15.000000000000000
2  28 2 26 0.000000000000000 15.000000000000000
0

0101000
+136 0 -138 0 *
Ed
 0.000000100000000 1 1 0
1  12 0 0.000000000000000 30.000000000000000
2  14 2 13 0.000000000000000 30.000000000000000
2  15 6 16 0.000000000000000 30.000000000000000
2  16 6 17 0.000000000000000 30.000000000000000
0

0101000
+155 0 -136 20 *
Wi

0101100
-158 15 +149 15 +147 15 +145 15 +143 15 +141 15 +139 21 +137 21 +135 21 +134 15 
+153 15 +163 15 *
Ve
0.000000100000000
1134.000000000000000 5109.533699999999953 0.000000000000000
0 0

0101101
*
Ed
 0.000000100000000 1 1 0
1  16 0 0.000000000000000 6.283185307179586
2  29 12 16 0.000000000000000 6.283185307179586
2  30 12 17 0.000000000000000 6.283185307179586
2  31 2 13 0.000000000000000 6.283185307179586
0

0101000
+132 0 -132 0 *
Wi

0101100
-131 15 *
Ve
0.000000100000000
1285.999999999999773 5109.533699999999953 0.000000000000000
0 0

0101101
*
Ed
 0.000000100000000 1 1 0
1  17 0 0.000000000000000 6.283185307179586
2  32 13 16 0.000000000000000 6.283185307179586
2  33 13 17 0.000000000000000 6.283185307179586
2  34 2 13 0.000000000000000 6.283185307179586
0

0101000
+129 0 -129 0 *
Wi

0101100
-128 15 *
Ve
0.000000100000000
1406.000000000000000 5291.400400000000445 0.000000000000000
0 0

0101101
*
Ed
 0.000000100000000 1 1 0
1  18 0 0.000000000000000 6.283185307179586
2  35 14 16 0.000000000000000 6.283185307179586
2  36 14 17 0.000000000000000 6.283185307179586
2  37 2 13 0.000000000000000 6.283185307179586
0

0101000
+126 0 -126 0 *
Wi

0101100
-125 15 *
Ve
0.000000100000000
1558.000000000000000 5291.400400000000445 0.000000000000000
0 0

0101101
*
Ed
 0.000000100000000 1 1 0
1  19 0 0.000000000000000 6.283185307179586
2  38 15 16 0.000000000000000 6.283185307179586
2  39 15 17 0.000000000000000 6.283185307179586
2  40 2 13 0.000000000000000 6.283185307179586
0

0101000
+123 0 -123 0 *
Wi

0101100
-122 15 *
Ve
0.000000100000000
1678.000000000000000 5473.267100000000028 0.000000000000000
0 0

0101101
*
Ed
 0.000000100000000 1 1 0
1  20 0 0.000000000000000 6.283185307179586
2  41 16 16 0.000000000000000 6.283185307179586
2  42 16 17 0.000000000000000 6.283185307179586
2  43 2 13 0.000000000000000 6.283185307179586
0

0101000
+120 0 -120 0 *
Wi

0101100
-119 15 *
Ve
0.000000100000000
1830.000000000000000 5473.267100000000028 0.000000000000000
0 0

0101101
*
Ed
 0.000000100000000 1 1 0
1  21 0 0.000000000000000 6.283185307179586
2  44 17 16 0.000000000000000 6.283185307179586
2  45 17 17 0.000000000000000 6.283185307179586
2  46 2 13 0.000000000000000 6.283185307179586
0

0101000
+117 0 -117 0 *
Wi

0101100
-116 15 *
Ve
0.000000100000000
1950.000000000000000 5655.133799999999610 0.000000000000000
0 0

0101101
*
Ed
 0.000000100000000 1 1 0
1  22 0 0.000000000000000 6.283185307179586
2  47 18 16 0.000000000000000 6.283185307179586
2  48 18 17 0.000000000000000 6.283185307179586
2  49 2 13 0.000000000000000 6.283185307179586
0

0101000
+114 0 -114 0 *
Wi

0101100
-113 15 *
Ve
0.000000100000000
2102.000000000000000 5655.133799999999610 0.000000000000000
0 0

0101101
*
Ed
 0.000000100000000 1 1 0
1  23 0 0.000000000000000 6.283185307179586
2  50 19 16 0.000000000000000 6.283185307179586
2  51 19 17 0.000000000000000 6.283185307179586
2  52 2 13 0.000000000000000 6.283185307179586
0

0101000
+111 0 -111 0 *
Wi

0101100
-110 15 *
Fa
0  0.000000100000000 2 14

0111000
+133 0 +130 0 +127 0 +124 0 +121 0 +118 0 +115 0 +112 0 +109 0 *
Ve
0.000000100000000
-4722.667000000000371 15.000000000000000 0.000000000000000
0 0

0101101
*
Ed
 0.000000100000000 1 1 0
1  8 0 14.999999999998863 40.000000000000000
2  6 4 16 14.999999999998863 40.000000000000000
2  7 4 17 14.999999999998863 40.000000000000000
2  8 2 13 14.999999999998863 40.000000000000000
0

0101000
+107 33 -160 0 *
Ve
0.000000100001137
-4962.667000000000371 15.000000000000000 0.000000000000000
0 0

0101101
*
Ed
 0.000000100000000 1 1 0
1  24 0 0.000000000000000 240.000000000000000
2  53 20 35 0.000000000000000 240.000000000000000
2  54 20 36 0.000000000000000 240.000000000000000
2  55 21 37 0.000000000000000 240.000000000000000
2  56 2 38 0.000000000000000 240.000000000000000
0

0101000
+107 0 -105 0 *
Ed
 0.000000100000000 1 1 0
1  25 0 0.000000000000000 15.000000000000000
2  57 20 0 0.000000000000000 15.000000000000000
2  58 22 0 0.000000000000000 15.000000000000000
2  59 2 28 0.000000000000000 15.000000000000000
0

0101000
+105 39 -105 34 *
Ed
 0.000000100000000 1 1 0
1  9 0 0.000000000000000 169.186285852812944
2  9 7 16 0.000000000000000 169.186285852812944
2  10 7 17 0.000000000000000 169.186285852812944
2  11 2 13 0.000000000000000 169.186285852812944
0

0101000
+148 0 -105 40 *
Ed
 0.000000100000000 1 1 0
1  12 0 0.000000000000000 250.000000000000000
2  14 2 13 0.000000000000000 250.000000000000000
2  15 6 16 0.000000000000000 250.000000000000000
2  16 6 17 0.000000000000000 250.000000000000000
0

0101000
+155 0 -144 0 *
Wi

0101100
-158 29 +106 29 -104 34 +103 0 +102 29 +145 29 +143 29 +101 29 +153 29 +163 29 
*
Wi

0101100
-131 29 *
Wi

0101100
-128 29 *
Wi

0101100
-125 29 *
Wi

0101100
-122 29 *
Wi

0101100
-119 29 *
Wi

0101100
-116 29 *
Wi

0101100
-113 29 *
Wi

0101100
-110 29 *
Fa
0  0.000000100000000 2 28

0111000
+100 0 +99 0 +98 0 +97 0 +96 0 +95 0 +94 0 +93 0 +92 0 *
Ve
0.000000100001364
1026.999999999999318 4722.667000000000371 15.000000000000000
0 0

0101101
*
Ed
 0.000000100000000 1 1 0
1  26 0 0.000000000000000 15.000000000000000
2  60 7 0 0.000000000000000 15.000000000000000
2  61 4 0 0.000000000000000 15.000000000000000
0

0101000
+150 10 -90 42 *
Ed
 0.000000100000000 1 1 0
1  8 0 0.000000000000000 14.999999999998863
2  6 4 16 0.000000000000000 14.999999999998863
2  7 4 17 0.000000000000000 14.999999999998863
2  8 2 13 0.000000000000000 14.999999999998863
0

0101000
+90 44 -107 33 *
Wi

0101100
+89 41 -159 41 -149 43 +88 29 +106 29 *
Fa
0  0.000000100000000 4 41

0111000
+87 0 *
Ed
 0.000000100000000 1 1 0
1  27 0 0.000000000000000 15.000000000000000
2  62 6 0 0.000000000000000 15.000000000000000
0

0101000
+144 10 -144 12 *
Ed
 0.000000100000000 1 1 0
1  28 0 0.000000000000000 140.000000000000000
2  63 23 22 0.000000000000000 140.000000000000000
2  64 23 24 0.000000000000000 140.000000000000000
2  65 9 25 0.000000000000000 140.000000000000000
2  66 2 26 0.000000000000000 140.000000000000000
0

0101000
+142 0 -136 0 *
Wi

0101100
+154 6 -85 6 -134 15 +84 21 -141 15 +101 45 *
Fa
0  0.000000100000000 6 6

0111000
+83 0 *
Ed
 0.000000100000000 1 1 0
1  29 0 0.000000000000000 15.000000000000000
2  67 7 0 0.000000000000000 15.000000000000000
0

0101000
+148 10 -148 12 *
Ed
 0.000000100001137 1 1 0
1  9 0 169.186285852812944 409.186285852812944
2  9 7 16 169.186285852812944 409.186285852812944
2  10 7 17 169.186285852812944 409.186285852812944
2  11 2 13 169.186285852812944 409.186285852812944
0

0101000
+105 40 -90 44 *
Wi

0101100
+81 41 -89 41 -147 43 +102 29 +80 29 *
Fa
0  0.000000100000000 7 41

0111000
+79 0 *
Ed
 0.000000100000000 1 1 0
1  30 0 0.000000000000000 15.000000000000000
0

0101000
+146 10 -146 12 *
Wi

0101100
+77 0 -81 0 -145 10 +145 12 *
Fa
0  0.000000100000000 24 0

0111000
+76 0 *
Wi

0101100
+85 0 -77 0 -143 10 +143 12 *
Fa
0  0.000000100000000 25 0

0111000
+74 0 *
Ed
 0.000000100000000 1 1 0
1  31 0 0.000000000000000 80.000000000000000
2  68 8 0 0.000000000000000 80.000000000000000
2  69 10 0 0.000000000000000 80.000000000000000
0

0101000
+140 21 -140 46 *
Ed
 0.000000100000000 1 1 0
1  32 0 0.000000000000000 80.000000000000000
2  70 8 0 0.000000000000000 80.000000000000000
2  71 23 0 0.000000000000000 80.000000000000000
0

0101000
+142 21 -142 46 *
Wi

0101100
+72 0 -71 0 -139 21 +139 46 *
Fa
0  0.000000100000000 8 0

0111000
+70 0 *
Ed
 0.000000100000000 1 1 0
1  33 0 0.000000000000000 80.000000000000000
2  72 11 0 0.000000000000000 80.000000000000000
2  73 10 0 0.000000000000000 80.000000000000000
0

0101000
+138 21 -138 46 *
Wi

0101100
+68 0 -72 0 -137 21 +137 46 *
Fa
0  0.000000100000000 10 0

0111000
+67 0 *
Ed
 0.000000100000000 1 1 0
1  34 0 0.000000000000000 80.000000000000000
2  74 11 0 0.000000000000000 80.000000000000000
2  75 23 0 0.000000000000000 80.000000000000000
0

0101000
+136 21 -136 46 *
Wi

0101100
+65 0 -68 0 -135 21 +135 46 *
Fa
0  0.000000100000000 11 0

0111000
+64 0 *
Ed
 0.000000100000000 1 1 0
1  35 0 0.000000000000000 15.000000000000000
3  76 77CN 12 0 0.000000000000000 15.000000000000000
0

0101000
+132 10 -132 12 *
Wi

0101100
+62 0 -62 0 -131 10 +131 12 *
Fa
0  0.000000100000000 12 0

0111000
+61 0 *
Ed
 0.000000100000000 1 1 0
1  36 0 0.000000000000000 15.000000000000000
3  78 79CN 13 0 0.000000000000000 15.000000000000000
0

0101000
+129 10 -129 12 *
Wi

0101100
+59 0 -59 0 -128 10 +128 12 *
Fa
0  0.000000100000000 13 0

0111000
+58 0 *
Ed
 0.000000100000000 1 1 0
1  37 0 0.000000000000000 15.000000000000000
3  80 81CN 14 0 0.000000000000000 15.000000000000000
0

0101000
+126 10 -126 12 *
Wi

0101100
+56 0 -56 0 -125 10 +125 12 *
Fa
0  0.000000100000000 14 0

0111000
+55 0 *
Ed
 0.000000100000000 1 1 0
1  38 0 0.000000000000000 15.000000000000000
3  82 83CN 15 0 0.000000000000000 15.000000000000000
0

0101000
+123 10 -123 12 *
Wi

0101100
+53 0 -53 0 -122 10 +122 12 *
Fa
0  0.000000100000000 15 0

0111000
+52 0 *
Ed
 0.000000100000000 1 1 0
1  39 0 0.000000000000000 15.000000000000000
3  84 85CN 16 0 0.000000000000000 15.000000000000000
0

0101000
+120 10 -120 12 *
Wi

0101100
+50 0 -50 0 -119 10 +119 12 *
Fa
0  0.000000100000000 16 0

0111000
+49 0 *
Ed
 0.000000100000000 1 1 0
1  40 0 0.000000000000000 15.000000000000000
3  86 87CN 17 0 0.000000000000000 15.000000000000000
0

0101000
+117 10 -117 12 *
Wi

0101100
+47 0 -47 0 -116 10 +116 12 *
Fa
0  0.000000100000000 17 0

0111000
+46 0 *
Ed
 0.000000100000000 1 1 0
1  41 0 0.000000000000000 15.000000000000000
3  88 89CN 18 0 0.000000000000000 15.000000000000000
0

0101000
+114 10 -114 12 *
Wi

0101100
+44 0 -44 0 -113 10 +113 12 *
Fa
0  0.000000100000000 18 0

0111000
+43 0 *
Ed
 0.000000100000000 1 1 0
1  42 0 0.000000000000000 15.000000000000000
3  90 91CN 19 0 0.000000000000000 15.000000000000000
0

0101000
+111 10 -111 12 *
Wi

0101100
+41 0 -41 0 -110 10 +110 12 *
Fa
0  0.000000100000000 19 0

0111000
+40 0 *
Ve
0.000000100000000
-4962.667000000000371 171.000000000000000 0.000000000000000
0 0

0101101
*
Ed
 0.000000100000000 1 1 0
1  43 0 0.000000000000000 156.000000000000000
2  92 22 35 0.000000000000000 156.000000000000000
2  93 22 36 0.000000000000000 156.000000000000000
2  94 21 37 0.000000000000000 156.000000000000000
0

0101000
+105 0 -38 0 *
Ve
0.000000100000000
-4722.667000000000371 171.000000000000000 0.000000000000000
0 0

0101101
*
Ed
 0.000000100000000 1 1 0
1  44 0 0.000000000000000 240.000000000000000
2  95 21 37 0.000000000000000 240.000000000000000
0

0101000
+38 0 -36 0 *
Ed
 0.000000100000000 1 1 0
1  45 0 0.000000000000000 156.000000000000000
2  96 26 35 0.000000000000000 156.000000000000000
2  97 26 36 0.000000000000000 156.000000000000000
2  98 21 37 0.000000000000000 156.000000000000000
0

0101000
+36 0 -107 0 *
Wi

0101100
+104 48 +37 48 +35 48 +34 48 *
Ve
0.000000100000000
-4757.667000000000371 93.000000000000000 0.000000000000000
0 0

0101101
*
Ed
 0.000000100000000 1 1 0
1  46 0 0.000000000000000 6.283185307179586
2  99 27 35 0.000000000000000 6.283185307179586
2  100 27 36 0.000000000000000 6.283185307179586
2  101 21 37 0.000000000000000 6.283185307179586
0

0101000
+32 0 -32 0 *
Wi

0101100
+31 48 *
Ve
0.000000100000000
-4817.667000000000371 93.000000000000000 0.000000000000000
0 0

0101101
*
Ed
 0.000000100000000 1 1 0
1  47 0 0.000000000000000 6.283185307179586
2  102 28 35 0.000000000000000 6.283185307179586
2  103 28 36 0.000000000000000 6.283185307179586
2  104 21 37 0.000000000000000 6.283185307179586
0

0101000
+29 0 -29 0 *
Wi

0101100
+28 48 *
Fa
0  0.000000100000000 21 0

0111000
+33 0 +30 0 +27 0 *
Ed
 0.000000100000000 1 1 0
1  48 0 0.000000000000000 15.000000000000000
2  105 22 0 0.000000000000000 15.000000000000000
0

0101000
+38 39 -38 34 *
Wi

0101100
+103 0 -25 0 -37 39 +37 34 *
Fa
0  0.000000100000000 22 0

0111000
+24 0 *
Ed
 0.000000100000000 1 1 0
1  49 0 0.000000000000000 15.000000000000000
2  106 26 0 0.000000000000000 15.000000000000000
0

0101000
+36 39 -36 34 *
Ed
 0.000000100000000 1 1 0
1  45 0 0.000000000000000 156.000000000000000
2  96 26 35 0.000000000000000 156.000000000000000
2  97 26 36 0.000000000000000 156.000000000000000
2  98 21 37 0.000000000000000 156.000000000000000
0

0101000
+36 0 -90 35 *
Wi

0101100
+22 0 -88 29 -21 39 +34 34 *
Fa
0  0.000000100000000 26 0

0111000
+20 0 *
Wi

0101100
+71 0 -65 0 -84 21 +84 46 *
Fa
0  0.000000100000000 23 0

0111000
+18 0 *
Wi

0101100
-80 29 +37 39 +35 39 +21 39 *
Wi

0101100
+31 39 *
Wi

0101100
+28 39 *
Fa
0  0.000000100000000 21 49

0111000
+16 0 +15 0 +14 0 *
Wi

0101100
+135 0 +137 0 +139 0 +84 0 *
Fa
0  0.000000100000000 9 0

0111000
+12 51 *
Wi

0101100
+25 0 -22 0 -35 39 +35 34 *
Fa
0  0.000000100000000 29 0

0111000
+10 0 *
Ed
 0.000000100000000 1 1 0
1  50 0 0.000000000000000 15.000000000000000
3  107 108CN 27 0 0.000000000000000 15.000000000000000
0

0101000
+32 39 -32 34 *
Wi

0101100
+8 0 -8 0 -31 39 +31 34 *
Fa
0  0.000000100000000 27 0

0111000
+7 0 *
Ed
 0.000000100000000 1 1 0
1  51 0 0.000000000000000 15.000000000000000
3  109 110CN 28 0 0.000000000000000 15.000000000000000
0

0101000
+29 39 -29 34 *
Wi

0101100
+5 0 -5 0 -28 39 +28 34 *
Fa
0  0.000000100000000 28 0

0111000
+4 0 *
Sh

0101100
-161 6 +156 6 -151 6 -108 0 +91 27 -86 27 -82 0 -78 27 -75 6 -73 6 
-69 0 -66 0 -63 0 +60 6 +57 6 +54 6 +51 6 +48 6 +45 6 +42 6 
+39 6 +26 47 -23 27 -19 27 -17 0 -13 27 +11 50 -9 27 -6 27 -3 27 
*
So

0100000
+2 0 *

+1 1 