
CASCADE Topology V1, (c) Matra-Datavision
Locations 32
1
1.000000000000000 0.000000000000000 0.000000000000000 0.000000000000000 
0.000000000000000 1.000000000000000 0.000000000000000 0.000000000000000 
0.000000000000000 0.000000000000000 1.000000000000000 0.000000000000000 
1
0.000000000000000 -0.000000000000000 1.000000000000000 -0.000000000000012 
1.000000000000000 0.000000000000000 -0.000000000000000 0.000000000000000 
0.000000000000000 1.000000000000000 0.000000000000000 -0.000000000000000 
1
0.000000000000000 0.000000000000000 1.000000000000000 0.000000000000000 
1.000000000000000 0.000000000000000 0.000000000000000 0.000000000000000 
0.000000000000000 1.000000000000000 0.000000000000000 0.000000000000000 
2  1 1 2 1 3 -1 0
1
1.000000000000000 0.000000000000000 0.000000000000000 0.000000000000942 
0.000000000000000 1.000000000000000 0.000000000000000 -0.000000000001178 
0.000000000000000 0.000000000000000 1.000000000000000 -4243.981541948551239 
2  1 1 2 1 3 -1 5 1 0
1
0.000000000000000 0.000000000000000 1.000000000000000 0.000000000000000 
1.000000000000000 0.000000000000000 0.000000000000000 0.000000000000000 
0.000000000000000 1.000000000000000 0.000000000000000 0.000000000000000 
1
0.000000000000000 -0.000000000000000 1.000000000000000 -0.000000000000012 
1.000000000000000 0.000000000000000 -0.000000000000000 0.000000000000000 
0.000000000000000 1.000000000000000 0.000000000000000 -0.000000000000000 
1
1.000000000000000 0.000000000000000 0.000000000000000 0.000000000000000 
0.000000000000000 1.000000000000000 0.000000000000000 0.000000000000000 
0.000000000000000 0.000000000000000 1.000000000000000 0.000000000000000 
2  7 1 8 -1 9 -1 0
1
1.000000000000000 0.000000000000000 0.000000000000000 0.000000000000001 
0.000000000000000 1.000000000000000 0.000000000000000 -0.000000000000001 
0.000000000000000 0.000000000000000 1.000000000000000 -5.000000000000000 
2  11 -1 7 1 8 -1 9 -1 0
2  8 -1 9 -1 0
1
-0.000000000000000 0.000000000000000 1.000000000000000 0.000000000000000 
1.000000000000000 -0.000000000000000 0.000000000000000 0.000000000000000 
0.000000000000000 1.000000000000000 -0.000000000000000 0.000000000000000 
1
0.000000000000000 -0.000000000000000 1.000000000000000 0.000000000000000 
1.000000000000000 0.000000000000000 0.000000000000000 0.000000000000000 
-0.000000000000000 1.000000000000000 0.000000000000000 0.000000000000000 
1
-0.000000000000000 0.000000000000000 1.000000000000000 0.000000000000000 
1.000000000000000 -0.000000000000000 0.000000000000000 0.000000000000000 
0.000000000000000 1.000000000000000 -0.000000000000000 0.000000000000000 
1
0.000000000000000 0.000000000000000 1.000000000000000 0.000000000000000 
1.000000000000000 0.000000000000000 0.000000000000000 0.000000000000000 
0.000000000000000 1.000000000000000 0.000000000000000 0.000000000000000 
2  14 -1 15 1 16 -1 17 1 8 -1 9 -1 0
1
0.000000000000000 0.000000000000000 1.000000000000000 0.000000000000000 
1.000000000000000 0.000000000000000 0.000000000000000 0.000000000000000 
0.000000000000000 1.000000000000000 0.000000000000000 0.000000000000000 
1
0.000000000000000 -0.000000000000000 1.000000000000000 -0.000000000000012 
1.000000000000000 0.000000000000000 -0.000000000000000 0.000000000000000 
0.000000000000000 1.000000000000000 0.000000000000000 -0.000000000000000 
1
1.000000000000000 0.000000000000000 0.000000000000000 0.000000000000000 
0.000000000000000 1.000000000000000 0.000000000000000 0.000000000000000 
0.000000000000000 0.000000000000000 1.000000000000000 0.000000000000000 
2  19 1 20 -1 21 -1 0
1
1.000000000000000 0.000000000000000 0.000000000000000 0.000000000000942 
0.000000000000000 1.000000000000000 0.000000000000000 -0.000000000001178 
0.000000000000000 0.000000000000000 1.000000000000000 -4243.981541948551239 
2  23 -1 19 1 20 -1 21 -1 0
2  14 -1 15 1 16 -1 17 1 20 -1 21 -1 0
2  3 1 2 -1 1 -1 0
2  5 -1 3 1 2 -1 1 -1 0
2  14 -1 15 1 16 -1 17 1 2 -1 1 -1 0
2  3 -1 0
2  8 -1 9 -1 1 1 2 1 0
2  1 1 2 1 0
2  3 -1 5 1 0
Curve2ds 48
1 0.00000000000000000 0.00000000000000000 0.00000000000000000 -1.00000000000000000 
1 6.28318530717958623 0.00000000000000000 0.00000000000000000 -1.00000000000000000 
1 0.00000000000000000 0.00000000000000000 1.00000000000000000 0.00000000000000000 
1 0.00000000000000000 -5.00000000000000000 1.00000000000000000 0.00000000000000000 
2 0.00000000000000000 -0.00000000000000355 -0.00000000000000000 -1.00000000000000000 1.00000000000000000 -0.00000000000000000 5.00000000000000000
2 65.00000000000000000 -792.99999999999909051 0.00000000000000000 -1.00000000000000000 -1.00000000000000000 -0.00000000000000000 5.00000000000000000
1 0.00000000000000000 0.00000000000000000 1.00000000000000000 0.00000000000000000 
1 0.00000000000000000 -4243.98154194855123933 1.00000000000000000 0.00000000000000000 
2 65.00000000000000000 -792.99999999999909051 0.00000000000000000 -1.00000000000000000 -1.00000000000000000 -0.00000000000000000 5.00000000000000000
1 0.00000000000000000 0.00000000000000000 1.00000000000000000 0.00000000000000000 
1 0.00000000000000000 -4243.98154194855123933 1.00000000000000000 0.00000000000000000 
2 65.00000000000000000 -792.99999999999909051 0.00000000000000000 -1.00000000000000000 -1.00000000000000000 -0.00000000000000000 5.00000000000000000
1 0.00000000000000000 0.00000000000000000 0.00000000000000000 -1.00000000000000000 
1 6.28318530717958623 0.00000000000000000 0.00000000000000000 -1.00000000000000000 
1 0.00000000000000000 0.00000000000000000 1.00000000000000000 0.00000000000000000 
1 0.00000000000000000 -5.00000000000000000 1.00000000000000000 0.00000000000000000 
2 0.00000000000000000 -0.00000000000000000 -0.00000000000000000 -1.00000000000000000 1.00000000000000000 -0.00000000000000000 5.00000000000000000
2 65.00000000000000000 -642.99999999999909051 0.00000000000000000 -1.00000000000000000 -1.00000000000000000 -0.00000000000000000 5.00000000000000000
1 0.00000000000000000 0.00000000000000000 1.00000000000000000 0.00000000000000000 
1 0.00000000000000000 -4243.98154194855123933 1.00000000000000000 0.00000000000000000 
2 65.00000000000000000 -642.99999999999909051 0.00000000000000000 -1.00000000000000000 -1.00000000000000000 -0.00000000000000000 5.00000000000000000
1 0.00000000000000000 0.00000000000000000 1.00000000000000000 0.00000000000000000 
1 0.00000000000000000 -4243.98154194855123933 1.00000000000000000 0.00000000000000000 
2 65.00000000000000000 -642.99999999999909051 0.00000000000000000 -1.00000000000000000 -1.00000000000000000 -0.00000000000000000 5.00000000000000000
1 0.00000000000000000 0.00000000000000000 0.00000000000000000 -1.00000000000000000 
1 6.28318530717958623 0.00000000000000000 0.00000000000000000 -1.00000000000000000 
1 0.00000000000000000 0.00000000000000000 1.00000000000000000 0.00000000000000000 
1 0.00000000000000000 -5.00000000000000000 1.00000000000000000 0.00000000000000000 
2 0.00000000000000000 -0.00000000000000000 -0.00000000000000000 -1.00000000000000000 1.00000000000000000 -0.00000000000000000 5.00000000000000000
2 65.00000000000000000 643.00000000000113687 0.00000000000000000 -1.00000000000000000 -1.00000000000000000 -0.00000000000000000 5.00000000000000000
1 0.00000000000000000 0.00000000000000000 1.00000000000000000 0.00000000000000000 
1 0.00000000000000000 -4243.98154194855123933 1.00000000000000000 0.00000000000000000 
2 65.00000000000000000 643.00000000000113687 0.00000000000000000 -1.00000000000000000 -1.00000000000000000 -0.00000000000000000 5.00000000000000000
1 0.00000000000000000 0.00000000000000000 1.00000000000000000 0.00000000000000000 
1 0.00000000000000000 -4243.98154194855123933 1.00000000000000000 0.00000000000000000 
2 65.00000000000000000 643.00000000000113687 0.00000000000000000 -1.00000000000000000 -1.00000000000000000 -0.00000000000000000 5.00000000000000000
1 0.00000000000000000 0.00000000000000000 0.00000000000000000 -1.00000000000000000 
1 6.28318530717958623 0.00000000000000000 0.00000000000000000 -1.00000000000000000 
1 0.00000000000000000 0.00000000000000000 1.00000000000000000 0.00000000000000000 
1 0.00000000000000000 -5.00000000000000000 1.00000000000000000 0.00000000000000000 
2 0.00000000000022737 0.00000000000000000 1.00000000000000000 0.00000000000000000 -0.00000000000000000 1.00000000000000000 5.00000000000000000
2 65.00000000000000000 793.00000000000113687 0.00000000000000000 -1.00000000000000000 -1.00000000000000000 -0.00000000000000000 5.00000000000000000
1 0.00000000000000000 0.00000000000000000 1.00000000000000000 0.00000000000000000 
1 0.00000000000000000 -4243.98154194855123933 1.00000000000000000 0.00000000000000000 
2 65.00000000000000000 793.00000000000113687 0.00000000000000000 -1.00000000000000000 -1.00000000000000000 -0.00000000000000000 5.00000000000000000
1 0.00000000000000000 0.00000000000000000 1.00000000000000000 0.00000000000000000 
1 0.00000000000000000 -4243.98154194855123933 1.00000000000000000 0.00000000000000000 
2 65.00000000000000000 793.00000000000113687 0.00000000000000000 -1.00000000000000000 -1.00000000000000000 -0.00000000000000000 5.00000000000000000
Curves 8
1 -17.00000000000063594 4772.66699999999946158 -0.00000000000107602 0.00000000000000022 -0.00000000000000028 -1.00000000000000000 
2 -22.00000000000090239 4772.66699999999946158 0.00000000000000000 0.00000000000000000 0.00000000000000000 1.00000000000000000 1.00000000000000000 0.00000000000000000 -0.00000000000000000 -0.00000000000000000 1.00000000000000000 0.00000000000000000 5.00000000000000000
1 -167.00000000000071054 4772.66699999999946158 -0.00000000000111765 0.00000000000000022 -0.00000000000000028 -1.00000000000000000 
2 -172.00000000000096634 4772.66699999999946158 0.00000000000000000 0.00000000000000000 0.00000000000000000 1.00000000000000000 1.00000000000000000 0.00000000000000000 -0.00000000000000000 -0.00000000000000000 1.00000000000000000 0.00000000000000000 5.00000000000000000
1 -1453.00000000000090949 4772.66699999999946158 -0.00000000000147459 0.00000000000000022 -0.00000000000000028 -1.00000000000000000 
2 -1458.00000000000113687 4772.66699999999946158 0.00000000000000000 0.00000000000000000 0.00000000000000000 1.00000000000000000 1.00000000000000000 0.00000000000000000 -0.00000000000000000 -0.00000000000000000 1.00000000000000000 0.00000000000000000 5.00000000000000000
1 -1603.00000000000090949 4772.66699999999946158 -0.00000000000151622 0.00000000000000022 -0.00000000000000028 -1.00000000000000000 
2 -1608.00000000000113687 4772.66699999999946158 0.00000000000000000 0.00000000000000000 0.00000000000000000 1.00000000000000000 1.00000000000000000 0.00000000000000000 -0.00000000000000000 -0.00000000000000000 1.00000000000000000 0.00000000000000000 5.00000000000000000
Polygon3D 0
PolygonOnTriangulations 0
Surfaces 17
2 -22.00000000000063594 4772.66699999999946158 -0.00000000000107740 -0.00000000000000028 0.00000000000000022 1.00000000000000000 1.00000000000000000 0.00000000000000000 0.00000000000000028 0.00000000000000000 1.00000000000000000 -0.00000000000000022 5.00000000000000000
2 -22.00000000000063594 4772.66699999999946158 -0.00000000000107740 -0.00000000000000028 0.00000000000000022 1.00000000000000000 1.00000000000000000 0.00000000000000000 0.00000000000000028 0.00000000000000000 1.00000000000000000 -0.00000000000000022 5.00000000000000000
1 -0.00000000000107618 -22.00000000000090594 4772.66699999999946158 1.00000000000000000 -0.00000000000000022 0.00000000000000022 -0.00000000000000022 0.00000000000000000 1.00000000000000000 -0.00000000000000022 -1.00000000000000000 -0.00000000000000000 
1 -0.00000000000125514 -815.00000000000000000 4837.66699999999946158 -1.00000000000000000 0.00000000000000022 -0.00000000000000022 0.00000000000000022 0.00000000000000000 -1.00000000000000000 -0.00000000000000022 -1.00000000000000000 -0.00000000000000000 
2 -22.00000000000063594 4772.66699999999946158 -0.00000000000107740 -0.00000000000000028 0.00000000000000022 1.00000000000000000 1.00000000000000000 0.00000000000000000 0.00000000000000028 0.00000000000000000 1.00000000000000000 -0.00000000000000022 5.00000000000000000
2 -172.00000000000071054 4772.66699999999946158 -0.00000000000111904 -0.00000000000000028 0.00000000000000022 1.00000000000000000 1.00000000000000000 0.00000000000000000 0.00000000000000028 0.00000000000000000 1.00000000000000000 -0.00000000000000022 5.00000000000000000
2 -172.00000000000071054 4772.66699999999946158 -0.00000000000111904 -0.00000000000000028 0.00000000000000022 1.00000000000000000 1.00000000000000000 0.00000000000000000 0.00000000000000028 0.00000000000000000 1.00000000000000000 -0.00000000000000022 5.00000000000000000
1 -0.00000000000110949 -172.00000000000096634 4772.66699999999946158 1.00000000000000000 -0.00000000000000022 0.00000000000000022 -0.00000000000000022 0.00000000000000000 1.00000000000000000 -0.00000000000000022 -1.00000000000000000 -0.00000000000000000 
2 -172.00000000000071054 4772.66699999999946158 -0.00000000000111904 -0.00000000000000028 0.00000000000000022 1.00000000000000000 1.00000000000000000 0.00000000000000000 0.00000000000000028 0.00000000000000000 1.00000000000000000 -0.00000000000000022 5.00000000000000000
2 -1458.00000000000090949 4772.66699999999946158 -0.00000000000147597 -0.00000000000000028 0.00000000000000022 1.00000000000000000 1.00000000000000000 0.00000000000000000 0.00000000000000028 0.00000000000000000 1.00000000000000000 -0.00000000000000022 5.00000000000000000
2 -1458.00000000000090949 4772.66699999999946158 -0.00000000000147597 -0.00000000000000028 0.00000000000000022 1.00000000000000000 1.00000000000000000 0.00000000000000000 0.00000000000000028 0.00000000000000000 1.00000000000000000 -0.00000000000000022 5.00000000000000000
1 -0.00000000000139504 -1458.00000000000113687 4772.66699999999946158 1.00000000000000000 -0.00000000000000022 0.00000000000000022 -0.00000000000000022 0.00000000000000000 1.00000000000000000 -0.00000000000000022 -1.00000000000000000 -0.00000000000000000 
2 -1458.00000000000090949 4772.66699999999946158 -0.00000000000147597 -0.00000000000000028 0.00000000000000022 1.00000000000000000 1.00000000000000000 0.00000000000000000 0.00000000000000028 0.00000000000000000 1.00000000000000000 -0.00000000000000022 5.00000000000000000
2 -1608.00000000000090949 4772.66699999999946158 -0.00000000000151761 -0.00000000000000028 0.00000000000000022 1.00000000000000000 1.00000000000000000 0.00000000000000000 0.00000000000000028 0.00000000000000000 1.00000000000000000 -0.00000000000000022 5.00000000000000000
2 -1608.00000000000090949 4772.66699999999946158 -0.00000000000151761 -0.00000000000000028 0.00000000000000022 1.00000000000000000 1.00000000000000000 0.00000000000000000 0.00000000000000028 0.00000000000000000 1.00000000000000000 -0.00000000000000022 5.00000000000000000
1 -0.00000000000142835 -1608.00000000000136424 4772.66699999999946158 1.00000000000000000 -0.00000000000000022 0.00000000000000022 0.00000000000000022 1.00000000000000000 0.00000000000000000 -0.00000000000000022 0.00000000000000000 1.00000000000000000 
2 -1608.00000000000090949 4772.66699999999946158 -0.00000000000151761 -0.00000000000000028 0.00000000000000022 1.00000000000000000 1.00000000000000000 0.00000000000000000 0.00000000000000028 0.00000000000000000 1.00000000000000000 -0.00000000000000022 5.00000000000000000
Triangulations 0

TShapes 37
Ve
0.000000100000031
-17.000000000000902 4772.666999999999462 0.000000000000000
0 0

0101101
*
Ed
 0.000000100000031 1 1 0
1  1 0 0.000000000000000 4243.981541948551239
3  1 2CN 1 0 0.000000000000000 4243.981541948551239
0

0101000
+37 4 -37 6 *
Ed
 0.000000100000031 1 1 0
1  2 0 0.000000000000000 6.283185307179586
2  3 2 10 0.000000000000000 6.283185307179586
2  4 2 12 0.000000000000000 6.283185307179586
2  5 3 13 0.000000000000000 6.283185307179586
2  6 4 18 0.000000000000000 6.283185307179586
2  7 5 22 0.000000000000000 6.283185307179586
2  8 5 24 0.000000000000000 6.283185307179586
2  9 4 25 0.000000000000000 6.283185307179586
2  10 1 26 0.000000000000000 6.283185307179586
2  11 1 27 0.000000000000000 6.283185307179586
2  12 4 28 0.000000000000000 6.283185307179586
0

0101000
+37 0 -37 0 *
Wi

0101100
+36 0 -36 0 -35 4 +35 6 *
Fa
0  0.000000100000031 1 0

0111000
+34 0 *
Wi

0101100
+35 0 *
Fa
0  0.000000100000031 3 30

0111000
+32 31 *
Sh

0101100
+33 0 +31 29 -31 32 *
So

0100000
+30 0 *
Ve
0.000000100000022
-167.000000000000966 4772.666999999999462 0.000000000000000
0 0

0101101
*
Ed
 0.000000100000022 1 1 0
1  3 0 0.000000000000000 4243.981541948551239
3  13 14CN 6 0 0.000000000000000 4243.981541948551239
0

0101000
+28 4 -28 6 *
Ed
 0.000000100000022 1 1 0
1  4 0 0.000000000000000 6.283185307179586
2  15 7 10 0.000000000000000 6.283185307179586
2  16 7 12 0.000000000000000 6.283185307179586
2  17 8 13 0.000000000000000 6.283185307179586
2  18 4 18 0.000000000000000 6.283185307179586
2  19 9 22 0.000000000000000 6.283185307179586
2  20 9 24 0.000000000000000 6.283185307179586
2  21 4 25 0.000000000000000 6.283185307179586
2  22 6 26 0.000000000000000 6.283185307179586
2  23 6 27 0.000000000000000 6.283185307179586
2  24 4 28 0.000000000000000 6.283185307179586
0

0101000
+28 0 -28 0 *
Wi

0101100
+27 0 -27 0 -26 4 +26 6 *
Fa
0  0.000000100000022 6 0

0111000
+25 0 *
Wi

0101100
+26 0 *
Fa
0  0.000000100000022 8 30

0111000
+23 31 *
Sh

0101100
+24 0 +22 29 -22 32 *
So

0100000
+21 0 *
Ve
0.000000100000052
-1453.000000000001137 4772.666999999999462 0.000000000000000
0 0

0101101
*
Ed
 0.000000100000052 1 1 0
1  5 0 0.000000000000000 4243.981541948551239
3  25 26CN 10 0 0.000000000000000 4243.981541948551239
0

0101000
+19 4 -19 6 *
Ed
 0.000000100000052 1 1 0
1  6 0 0.000000000000000 6.283185307179586
2  27 11 10 0.000000000000000 6.283185307179586
2  28 11 12 0.000000000000000 6.283185307179586
2  29 12 13 0.000000000000000 6.283185307179586
2  30 4 18 0.000000000000000 6.283185307179586
2  31 13 22 0.000000000000000 6.283185307179586
2  32 13 24 0.000000000000000 6.283185307179586
2  33 4 25 0.000000000000000 6.283185307179586
2  34 10 26 0.000000000000000 6.283185307179586
2  35 10 27 0.000000000000000 6.283185307179586
2  36 4 28 0.000000000000000 6.283185307179586
0

0101000
+19 0 -19 0 *
Wi

0101100
+18 0 -18 0 -17 4 +17 6 *
Fa
0  0.000000100000052 10 0

0111000
+16 0 *
Wi

0101100
+17 0 *
Fa
0  0.000000100000052 12 30

0111000
+14 31 *
Sh

0101100
+15 0 +13 29 -13 32 *
So

0100000
+12 0 *
Ve
0.000000100000061
-1603.000000000001137 4772.666999999999462 0.000000000000000
0 0

0101101
*
Ed
 0.000000100000061 1 1 0
1  7 0 0.000000000000000 4243.981541948551239
3  37 38CN 14 0 0.000000000000000 4243.981541948551239
0

0101000
+10 4 -10 6 *
Ed
 0.000000100000061 1 1 0
1  8 0 0.000000000000000 6.283185307179586
2  39 15 10 0.000000000000000 6.283185307179586
2  40 15 12 0.000000000000000 6.283185307179586
2  41 16 13 0.000000000000000 6.283185307179586
2  42 4 18 0.000000000000000 6.283185307179586
2  43 17 22 0.000000000000000 6.283185307179586
2  44 17 24 0.000000000000000 6.283185307179586
2  45 4 25 0.000000000000000 6.283185307179586
2  46 14 26 0.000000000000000 6.283185307179586
2  47 14 27 0.000000000000000 6.283185307179586
2  48 4 28 0.000000000000000 6.283185307179586
0

0101000
+10 0 -10 0 *
Wi

0101100
+9 0 -9 0 -8 4 +8 6 *
Fa
0  0.000000100000061 14 0

0111000
+7 0 *
Wi

0101100
+8 0 *
Fa
0  0.000000100000061 16 30

0111000
+5 31 *
Sh

0101100
+6 0 +4 29 -4 32 *
So

0100000
+3 0 *
Co

1100000
+29 0 +20 0 +11 0 +2 0 *

+1 0 