
CASCADE Topology V1, (c) Matra-Datavision
Locations 32
1
1.000000000000000 0.000000000000000 0.000000000000000 0.000000000000000 
0.000000000000000 1.000000000000000 0.000000000000000 0.000000000000000 
0.000000000000000 0.000000000000000 1.000000000000000 0.000000000000000 
1
-1.000000000000000 0.000000000000000 0.000000000000000 0.000000000000000 
0.000000000000000 -1.000000000000000 0.000000000000000 -0.000000000001275 
0.000000000000000 0.000000000000000 1.000000000000000 5742.010000000000218 
1
1.000000000000000 0.000000000000000 0.000000000000000 0.000000000000000 
0.000000000000000 -0.000000000000000 -1.000000000000000 0.000000000000000 
0.000000000000000 1.000000000000000 -0.000000000000000 0.000000000000000 
2  1 1 2 1 3 -1 0
1
1.000000000000000 0.000000000000000 0.000000000000000 0.000000000000000 
0.000000000000000 1.000000000000000 0.000000000000000 120.000000000000000 
0.000000000000000 0.000000000000000 1.000000000000000 0.000000000000000 
2  1 1 2 1 3 -1 5 1 0
2  3 1 2 -1 1 -1 0
2  5 -1 3 1 2 -1 1 -1 0
2  2 -1 1 -1 0
1
1.000000000000000 0.000000000000000 0.000000000000000 0.000000000000000 
0.000000000000000 -0.000000000000000 -1.000000000000000 0.000000000000000 
0.000000000000000 1.000000000000000 -0.000000000000000 0.000000000000000 
1
1.000000000000000 0.000000000000000 0.000000000000000 0.000000000000000 
0.000000000000000 -0.000000000000000 -1.000000000000000 0.000000000000000 
0.000000000000000 1.000000000000000 -0.000000000000000 0.000000000000000 
1
1.000000000000000 0.000000000000000 0.000000000000000 0.000000000000000 
0.000000000000000 -0.000000000000000 -1.000000000000000 0.000000000000000 
0.000000000000000 1.000000000000000 -0.000000000000000 0.000000000000000 
1
1.000000000000000 0.000000000000000 0.000000000000000 0.000000000000000 
0.000000000000000 -0.000000000000000 -1.000000000000000 0.000000000000000 
0.000000000000000 1.000000000000000 -0.000000000000000 0.000000000000000 
1
1.000000000000000 0.000000000000000 0.000000000000000 0.000000000000000 
0.000000000000000 -0.000000000000000 -1.000000000000000 0.000000000000000 
0.000000000000000 1.000000000000000 -0.000000000000000 0.000000000000000 
2  10 1 11 -1 12 1 13 -1 14 1 3 -1 5 -1 3 1 2 -1 1 -1 0
1
1.000000000000000 0.000000000000000 0.000000000000000 0.000000000000000 
0.000000000000000 -0.000000000000000 -1.000000000000000 0.000000000000000 
0.000000000000000 1.000000000000000 -0.000000000000000 0.000000000000000 
1
1.000000000000000 0.000000000000000 0.000000000000000 0.000000000000000 
0.000000000000000 -0.000000000000000 -1.000000000000000 0.000000000000000 
0.000000000000000 1.000000000000000 -0.000000000000000 0.000000000000000 
1
1.000000000000000 0.000000000000000 0.000000000000000 0.000000000000000 
0.000000000000000 -0.000000000000000 -1.000000000000000 0.000000000000000 
0.000000000000000 1.000000000000000 -0.000000000000000 0.000000000000000 
1
1.000000000000000 0.000000000000000 0.000000000000000 0.000000000000000 
0.000000000000000 -0.000000000000000 -1.000000000000000 0.000000000000000 
0.000000000000000 1.000000000000000 -0.000000000000000 0.000000000000000 
1
1.000000000000000 0.000000000000000 0.000000000000000 0.000000000000000 
0.000000000000000 -0.000000000000000 -1.000000000000000 0.000000000000000 
0.000000000000000 1.000000000000000 -0.000000000000000 0.000000000000000 
1
1.000000000000000 0.000000000000000 0.000000000000000 0.000000000000000 
0.000000000000000 -0.000000000000000 -1.000000000000000 0.000000000000000 
0.000000000000000 1.000000000000000 -0.000000000000000 0.000000000000000 
2  16 1 17 -1 18 1 19 -1 20 1 21 -1 10 1 11 -1 12 1 13 -1 14 1 2 -1 1 -1 0
1
1.000000000000000 0.000000000000000 0.000000000000000 0.000000000000000 
0.000000000000000 -0.000000000000000 -1.000000000000000 0.000000000000000 
0.000000000000000 1.000000000000000 -0.000000000000000 0.000000000000000 
1
1.000000000000000 0.000000000000000 0.000000000000000 0.000000000000000 
0.000000000000000 -0.000000000000000 -1.000000000000000 0.000000000000000 
0.000000000000000 1.000000000000000 -0.000000000000000 0.000000000000000 
1
1.000000000000000 0.000000000000000 0.000000000000000 0.000000000000000 
0.000000000000000 -0.000000000000000 -1.000000000000000 0.000000000000000 
0.000000000000000 1.000000000000000 -0.000000000000000 0.000000000000000 
1
1.000000000000000 0.000000000000000 0.000000000000000 0.000000000000000 
0.000000000000000 -0.000000000000000 -1.000000000000000 0.000000000000000 
0.000000000000000 1.000000000000000 -0.000000000000000 0.000000000000000 
1
1.000000000000000 0.000000000000000 0.000000000000000 0.000000000000000 
0.000000000000000 -0.000000000000000 -1.000000000000000 0.000000000000000 
0.000000000000000 1.000000000000000 -0.000000000000000 0.000000000000000 
1
1.000000000000000 0.000000000000000 0.000000000000000 0.000000000000000 
0.000000000000000 -0.000000000000000 -1.000000000000000 0.000000000000000 
0.000000000000000 1.000000000000000 -0.000000000000000 0.000000000000000 
2  23 1 24 -1 25 1 26 -1 27 1 28 -1 16 1 17 -1 18 1 19 -1 20 1 21 -1 10 1 11 -1 12 1 13 -1 14 1 3 -1 5 -1 3 1 2 -1 1 -1 0
2  3 -1 0
2  1 1 2 1 0
2  3 -1 5 1 0
Curve2ds 34
1 0.00000000000000000 0.00000000000000000 0.00000000000000000 -1.00000000000000000 
1 619.00000000000068212 0.00000000000000000 0.00000000000000000 -1.00000000000000000 
1 0.00000000000000000 -0.00000000000000000 0.00000000000000000 -1.00000000000000000 
1 150.00000000000000000 0.00000000000000000 0.00000000000000000 -1.00000000000000000 
1 0.00000000000000000 0.00000000000000000 1.00000000000000000 0.00000000000000000 
1 0.00000000000000000 -120.00000000000000000 1.00000000000000000 0.00000000000000000 
1 -375.61832298136550889 -429.38167701863437742 1.00000000000000000 0.00000000000000000 
1 119.98999999999877275 -350.00000000000187583 0.00000000000000028 1.00000000000000000 
1 0.00000000000000000 0.00000000000000000 0.00000000000000000 -1.00000000000000000 
1 459.00000000000261480 0.00000000000000000 0.00000000000000000 -1.00000000000000000 
1 0.00000000000000000 -0.00000000000000000 1.00000000000000000 0.00000000000000000 
1 0.00000000000000000 -120.00000000000000000 1.00000000000000000 0.00000000000000000 
1 -225.61832298136550889 -429.38167701863437742 0.00000000000000000 1.00000000000000000 
1 3166.05921234776542406 -619.00000000000318323 0.00000000000000000 1.00000000000000000 
1 840.99999999999909051 0.00000000000000000 0.00000000000000000 -1.00000000000000000 
1 0.00000000000000000 -0.00000000000000000 0.00000000000000000 -1.00000000000000000 
1 0.00000000000000000 0.00000000000000000 1.00000000000000000 0.00000000000000000 
1 0.00000000000000000 -120.00000000000000000 1.00000000000000000 0.00000000000000000 
1 -225.61832298136550889 29.61832298136820896 1.00000000000000000 0.00000000000000000 
1 159.99999999999806732 0.00000000000000000 0.00000000000000000 -1.00000000000000000 
1 0.00000000000000000 0.00000000000000000 0.00000000000000000 -1.00000000000000000 
1 0.00000000000000000 -0.00000000000000000 1.00000000000000000 0.00000000000000000 
1 0.00000000000000000 -120.00000000000000000 1.00000000000000000 0.00000000000000000 
1 615.38167701863358161 29.61832298136820896 0.00000000000000000 1.00000000000000000 
1 120.00000000000000000 -239.99999999999937472 0.00000000000000000 -1.00000000000000000 
1 990.99999999999909051 0.00000000000000000 0.00000000000000000 -1.00000000000000000 
1 0.00000000000000000 0.00000000000000000 0.00000000000000000 -1.00000000000000000 
1 0.00000000000000000 0.00000000000000000 1.00000000000000000 0.00000000000000000 
1 0.00000000000000000 -120.00000000000000000 1.00000000000000000 0.00000000000000000 
1 615.38167701863358161 189.61832298136630470 -1.00000000000000000 0.00000000000000000 
1 0.00000000000000000 0.00000000000000000 1.00000000000000000 0.00000000000000000 
1 0.00000000000000000 -120.00000000000000000 1.00000000000000000 0.00000000000000000 
1 -375.61832298136550889 189.61832298136630470 0.00000000000000000 -1.00000000000000000 
1 3408.19952859503246145 -0.00000000000255795 0.00000000000000000 -1.00000000000000000 
Curves 12
1 3286.99999999999909051 5742.01000000000021828 219.00000000000324007 0.00000000000000000 1.00000000000000000 0.00000000000000000 
1 3136.99999999999909051 5742.01000000000021828 219.00000000000324007 0.00000000000000000 1.00000000000000000 0.00000000000000000 
1 -3286.99999999999909051 219.00000000000324007 0.00000000000000000 1.00000000000000000 0.00000000000000000 0.00000000000000000 
1 3136.99999999999909051 5742.01000000000021828 -239.99999999999937472 0.00000000000000000 1.00000000000000000 0.00000000000000000 
1 -3136.99999999999909051 219.00000000000324007 0.00000000000000000 0.00000000000000000 -1.00000000000000000 0.00000000000000000 
1 2296.00000000000000000 5742.01000000000021828 -239.99999999999937472 0.00000000000000000 1.00000000000000000 0.00000000000000000 
1 -3136.99999999999909051 -239.99999999999937472 0.00000000000000000 1.00000000000000000 0.00000000000000000 0.00000000000000000 
1 2296.00000000000000000 5742.01000000000021828 -399.99999999999744205 0.00000000000000000 1.00000000000000000 0.00000000000000000 
1 -2296.00000000000000000 -239.99999999999937472 0.00000000000000000 0.00000000000000000 -1.00000000000000000 0.00000000000000000 
1 3286.99999999999909051 5742.01000000000021828 -399.99999999999744205 0.00000000000000000 1.00000000000000000 0.00000000000000000 
1 -2296.00000000000000000 -399.99999999999744205 0.00000000000000000 -1.00000000000000000 0.00000000000000000 0.00000000000000000 
1 -3286.99999999999909051 -399.99999999999744205 0.00000000000000000 0.00000000000000000 1.00000000000000000 0.00000000000000000 
Polygon3D 0
PolygonOnTriangulations 0
Surfaces 11
1 3286.99999999999909051 5742.01000000000021828 219.00000000000324007 0.00000000000000000 -0.00000000000000000 1.00000000000000000 -1.00000000000000000 0.00000000000000000 0.00000000000000000 -0.00000000000000000 -1.00000000000000000 0.00000000000000000 
1 3286.99999999999909051 5742.01000000000021828 -399.99999999999744205 1.00000000000000000 0.00000000000000000 0.00000000000000000 0.00000000000000000 0.00000000000000000 1.00000000000000000 0.00000000000000000 -1.00000000000000000 0.00000000000000000 
1 3136.99999999999909051 5742.01000000000021828 219.00000000000324007 -1.00000000000000000 0.00000000000000000 0.00000000000000000 0.00000000000000000 0.00000000000000000 -1.00000000000000000 -0.00000000000000000 -1.00000000000000000 -0.00000000000000000 
1 2911.38167701863358161 210.38167701862988679 5742.01000000000021828 -0.00000000000000000 -0.00000000000000000 -1.00000000000000000 -1.00000000000000000 0.00000000000000000 0.00000000000000000 0.00000000000000000 1.00000000000000000 -0.00000000000000000 
1 2936.99999999999727152 5742.02000000000134605 219.00000000000187583 0.00000000000000011 -0.00000000000000006 1.00000000000000000 -0.00000000000000028 1.00000000000000000 0.00000000000000006 -1.00000000000000000 -0.00000000000000028 0.00000000000000011 
1 3136.99999999999909051 5742.01000000000021828 -239.99999999999937472 0.00000000000000000 -0.00000000000000000 1.00000000000000000 -1.00000000000000000 0.00000000000000000 0.00000000000000000 -0.00000000000000000 -1.00000000000000000 0.00000000000000000 
1 3136.99999999999909051 8908.06921234776564233 -400.00000000000000000 1.00000000000000000 0.00000000000000000 -0.00000000000000000 0.00000000000000000 -1.00000000000000000 0.00000000000000000 0.00000000000000000 -0.00000000000000000 -1.00000000000000000 
1 2296.00000000000000000 5742.01000000000021828 -239.99999999999937472 -1.00000000000000000 0.00000000000000000 0.00000000000000000 0.00000000000000000 0.00000000000000000 -1.00000000000000000 -0.00000000000000000 -1.00000000000000000 -0.00000000000000000 
1 2296.00000000000000000 5742.01000000000021828 -399.99999999999744205 0.00000000000000000 0.00000000000000000 -1.00000000000000000 1.00000000000000000 0.00000000000000000 0.00000000000000000 0.00000000000000000 -1.00000000000000000 0.00000000000000000 
1 2296.00000000000000000 5742.01000000000021828 0.00000000000000000 1.00000000000000000 0.00000000000000000 0.00000000000000000 -0.00000000000000000 1.00000000000000000 0.00000000000000000 0.00000000000000000 -0.00000000000000000 1.00000000000000000 
1 3286.99999999999909051 9150.20952859503267973 -400.00000000000000000 1.00000000000000000 0.00000000000000000 -0.00000000000000000 0.00000000000000000 -1.00000000000000000 0.00000000000000000 0.00000000000000000 -0.00000000000000000 -1.00000000000000000 
Triangulations 0

TShapes 34
Ve
0.000000150001393
-3286.999999999999091 219.000000000003240 0.000000000000000
0 0

0101101
*
Ed
 0.000000100000000 1 1 0
1  1 0 0.000000000000000 120.000000000000000
2  1 1 0 0.000000000000000 120.000000000000000
2  2 2 0 0.000000000000000 120.000000000000000
0

0101000
+34 4 -34 6 *
Ve
0.000000150001393
-3136.999999999999091 219.000000000003240 0.000000000000000
0 0

0101101
*
Ed
 0.000000100000000 1 1 0
1  2 0 0.000000000000000 120.000000000000000
2  3 3 0 0.000000000000000 120.000000000000000
2  4 1 0 0.000000000000000 120.000000000000000
0

0101000
+32 4 -32 6 *
Ed
 0.000000100001393 1 1 0
1  3 0 0.000000000000000 150.000000000000000
2  5 1 7 0.000000000000000 150.000000000000000
2  6 1 8 0.000000000000000 150.000000000000000
2  7 4 9 0.000000000000000 150.000000000000000
2  8 5 15 0.000000000000000 150.000000000000000
0

0101000
+34 0 -32 0 *
Wi

0101100
+33 0 -31 0 -30 4 +30 6 *
Fa
0  0.000000100000000 1 0

0111000
+29 0 *
Ve
0.000000150001104
-3136.999999999999091 -239.999999999999375 0.000000000000000
0 0

0101101
*
Ed
 0.000000100000000 1 1 0
1  4 0 0.000000000000000 120.000000000000000
2  9 6 0 0.000000000000000 120.000000000000000
2  10 3 0 0.000000000000000 120.000000000000000
0

0101000
+27 4 -27 6 *
Ed
 0.000000100000000 1 1 0
1  5 0 0.000000000000000 459.000000000002615
2  11 3 7 0.000000000000000 459.000000000002615
2  12 3 8 0.000000000000000 459.000000000002615
2  13 4 9 0.000000000000000 459.000000000002615
2  14 7 22 0.000000000000000 459.000000000002615
0

0101000
+32 0 -27 0 *
Wi

0101100
+31 0 -26 0 -25 4 +25 6 *
Fa
0  0.000000100000000 3 0

0111000
+24 0 *
Ve
0.000000150000625
-2296.000000000000000 -239.999999999999375 0.000000000000000
0 0

0101101
*
Ed
 0.000000100000000 1 1 0
1  6 0 0.000000000000000 120.000000000000000
2  15 6 0 0.000000000000000 120.000000000000000
2  16 8 0 0.000000000000000 120.000000000000000
0

0101000
+22 4 -22 6 *
Ed
 0.000000100000000 1 1 0
1  7 0 0.000000000000000 840.999999999999091
2  17 6 7 0.000000000000000 840.999999999999091
2  18 6 8 0.000000000000000 840.999999999999091
2  19 4 9 0.000000000000000 840.999999999999091
0

0101000
+27 0 -22 0 *
Wi

0101100
+26 0 -21 0 -20 4 +20 6 *
Fa
0  0.000000100000000 6 0

0111000
+19 0 *
Ve
0.000000100002558
-2296.000000000000000 -399.999999999997442 0.000000000000000
0 0

0101101
*
Ed
 0.000000100000000 1 1 0
1  8 0 0.000000000000000 120.000000000000000
2  20 8 0 0.000000000000000 120.000000000000000
2  21 9 0 0.000000000000000 120.000000000000000
0

0101000
+17 4 -17 6 *
Ed
 0.000000100000000 1 1 0
1  9 0 0.000000000000000 159.999999999998067
2  22 8 7 0.000000000000000 159.999999999998067
2  23 8 8 0.000000000000000 159.999999999998067
2  24 4 9 0.000000000000000 159.999999999998067
2  25 10 29 0.000000000000000 159.999999999998067
0

0101000
+22 0 -17 0 *
Wi

0101100
+21 0 -16 0 -15 4 +15 6 *
Fa
0  0.000000100000000 8 0

0111000
+14 0 *
Ve
0.000000100002672
-3286.999999999999091 -399.999999999997442 0.000000000000000
0 0

0101101
*
Ed
 0.000000100000000 1 1 0
1  10 0 0.000000000000000 120.000000000000000
2  26 9 0 0.000000000000000 120.000000000000000
2  27 2 0 0.000000000000000 120.000000000000000
0

0101000
+12 4 -12 6 *
Ed
 0.000000100000000 1 1 0
1  11 0 0.000000000000000 990.999999999999091
2  28 9 7 0.000000000000000 990.999999999999091
2  29 9 8 0.000000000000000 990.999999999999091
2  30 4 9 0.000000000000000 990.999999999999091
0

0101000
+17 0 -12 0 *
Wi

0101100
+16 0 -11 0 -10 4 +10 6 *
Fa
0  0.000000100000000 9 0

0111000
+9 0 *
Ed
 0.000000100000000 1 1 0
1  12 0 0.000000000000000 619.000000000000682
2  31 2 7 0.000000000000000 619.000000000000682
2  32 2 8 0.000000000000000 619.000000000000682
2  33 4 9 0.000000000000000 619.000000000000682
2  34 11 22 0.000000000000000 619.000000000000682
0

0101000
+12 0 -34 0 *
Wi

0101100
+11 0 -33 0 -7 4 +7 6 *
Fa
0  0.000000100000000 2 0

0111000
+6 0 *
Wi

0101100
+30 0 +25 0 +20 0 +15 0 +10 0 +7 0 *
Fa
0  0.000000100000000 4 0

0111000
+4 31 *
Sh

0101100
+28 0 +23 0 +18 0 +13 0 +8 0 +5 0 +3 30 -3 32 *
So

1100000
+2 0 *

+1 0 