
CASCADE Topology V1, (c) Matra-Datavision
Locations 25
1
1.000000000000000 0.000000000000000 0.000000000000000 0.000000000000000 
0.000000000000000 1.000000000000000 0.000000000000000 0.000000000000000 
0.000000000000000 0.000000000000000 1.000000000000000 0.000000000000000 
1
1.000000000000000 0.000000000000000 0.000000000000000 0.000000000000000 
0.000000000000000 1.000000000000000 0.000000000000000 0.000000000000000 
0.000000000000000 0.000000000000000 1.000000000000000 0.000000000000000 
1
1.000000000000000 0.000000000000000 0.000000000000000 0.000000000000000 
0.000000000000000 1.000000000000000 0.000000000000000 0.000000000000000 
0.000000000000000 0.000000000000000 1.000000000000000 0.000000000000000 
2  2 1 3 -1 0
1
1.000000000000000 0.000000000000000 0.000000000000000 0.000000000000000 
0.000000000000000 1.000000000000000 0.000000000000000 0.000000000000000 
0.000000000000000 0.000000000000000 1.000000000000000 0.000000000000000 
1
1.000000000000000 0.000000000000000 0.000000000000000 0.000000000000000 
0.000000000000000 1.000000000000000 0.000000000000000 0.000000000000000 
0.000000000000000 0.000000000000000 1.000000000000000 0.000000000000000 
1
1.000000000000000 0.000000000000000 0.000000000000000 0.000000000000000 
0.000000000000000 1.000000000000000 0.000000000000000 0.000000000000000 
0.000000000000000 0.000000000000000 1.000000000000000 0.000000000000000 
2  5 1 6 1 7 -1 0
1
1.000000000000000 0.000000000000000 0.000000000000000 -0.000000000000000 
0.000000000000000 1.000000000000000 0.000000000000000 -0.000000000000000 
0.000000000000000 0.000000000000000 1.000000000000000 -50.000000000000000 
2  5 1 6 1 7 -1 9 1 0
2  5 1 6 1 7 -1 2 1 3 -1 0
2  7 1 6 -1 5 -1 0
2  9 -1 7 1 6 -1 5 -1 0
2  5 1 6 1 7 -1 9 1 2 1 3 -1 0
2  7 -1 2 1 3 -1 0
2  5 1 6 1 0
2  7 -1 9 1 2 1 3 -1 0
1
1.000000000000000 0.000000000000000 0.000000000000000 0.000000000000000 
0.000000000000000 1.000000000000000 0.000000000000000 0.000000000000000 
0.000000000000000 0.000000000000000 1.000000000000000 0.000000000000000 
1
1.000000000000000 0.000000000000000 0.000000000000000 0.000000000000000 
0.000000000000000 0.000000000000000 -1.000000000000000 -1843.000000000003183 
0.000000000000000 1.000000000000000 0.000000000000000 0.000000000000000 
2  18 1 19 1 3 -1 0
2  3 1 19 -1 18 -1 0
1
1.000000000000000 0.000000000000000 0.000000000000000 0.000000000000000 
0.000000000000000 1.000000000000000 0.000000000000000 1869.721427806833617 
0.000000000000000 0.000000000000000 1.000000000000000 -0.000000000000415 
2  22 -1 3 1 19 -1 18 -1 0
2  19 -1 18 -1 0
2  2 1 19 -1 18 -1 0
Curve2ds 24
1 0.00000000000000000 0.00000000000000000 0.00000000000000000 -1.00000000000000000 
1 0.00000000000000000 0.00000000000000000 1.00000000000000000 0.00000000000000000 
1 -0.00000000000000000 -50.00000000000000000 1.00000000000000000 0.00000000000000000 
1 311.99999999999886313 0.00000000000000000 0.00000000000000000 -1.00000000000000000 
2 80.00000000000000000 -25.00000000000019185 -1.00000000000000000 0.00000000000000000 0.00000000000000000 1.00000000000000000 5.00000000000000000
1 0.00000000000000000 -870.00000000000363798 1.00000000000000000 0.00000000000000000 
2 231.99999999999886313 -25.00000000000019185 -1.00000000000000000 0.00000000000000000 0.00000000000000000 1.00000000000000000 5.00000000000000000
1 0.00000000000000000 -870.00000000000341061 1.00000000000000000 0.00000000000000000 
1 311.99999999999886313 0.00000000000000000 0.00000000000000000 -1.00000000000000000 
1 0.00000000000000000 0.00000000000000000 1.00000000000000000 0.00000000000000000 
1 0.00000000000000000 -50.00000000000000000 1.00000000000000000 0.00000000000000000 
1 0.00000000000000000 0.00000000000000000 0.00000000000000000 -1.00000000000000000 
1 0.00000000000000000 0.00000000000000000 1.00000000000000000 0.00000000000000000 
1 0.00000000000000000 -1869.72142780683361707 1.00000000000000000 0.00000000000000000 
2 -0.00000000000045475 0.00000000000000355 -1.00000000000000000 -0.00000000000000000 0.00000000000000000 -1.00000000000000000 5.00000000000000000
2 231.99999999999886313 -25.00000000000000000 1.00000000000000000 0.00000000000000000 -0.00000000000000000 1.00000000000000000 5.00000000000000000
1 0.00000000000000000 0.00000000000000000 0.00000000000000000 -1.00000000000000000 
1 6.28318530717958623 0.00000000000000000 0.00000000000000000 -1.00000000000000000 
1 0.00000000000000000 0.00000000000000000 1.00000000000000000 0.00000000000000000 
1 0.00000000000000000 -1869.72142780683361707 1.00000000000000000 0.00000000000000000 
2 -0.00000000000022737 0.00000000000000355 -1.00000000000000000 -0.00000000000000000 0.00000000000000000 -1.00000000000000000 5.00000000000000000
2 80.00000000000000000 -25.00000000000000000 1.00000000000000000 0.00000000000000000 -0.00000000000000000 1.00000000000000000 5.00000000000000000
1 0.00000000000000000 0.00000000000000000 0.00000000000000000 -1.00000000000000000 
1 6.28318530717958623 0.00000000000000000 0.00000000000000000 -1.00000000000000000 
Curves 14
1 2202.32780929852924601 -972.99999999999931788 0.00000000000000000 -0.00000000000000000 -0.00000000000000000 -1.00000000000000000 
1 2202.32780929852924601 -972.99999999999931788 0.00000000000000000 -1.00000000000000000 -0.00000000000000219 0.00000000000000000 
1 1890.32780929853038288 -973.00000000000000000 0.00000000000000000 -0.00000000000000000 -0.00000000000000000 -1.00000000000000000 
2 2122.32780929852924601 -972.99999999999954525 -25.00000000000019185 0.00000000000000000 -1.00000000000000000 0.00000000000000022 1.00000000000000000 0.00000000000000000 0.00000000000000000 -0.00000000000000000 0.00000000000000022 1.00000000000000000 5.00000000000000000
2 1970.32780929853038288 -972.99999999999977263 -25.00000000000019185 0.00000000000000000 -1.00000000000000000 0.00000000000000022 1.00000000000000000 0.00000000000000000 0.00000000000000000 -0.00000000000000000 0.00000000000000022 1.00000000000000000 5.00000000000000000
1 2202.32780929852924601 -1843.00000000000318323 0.00000000000000000 -0.00000000000000000 -0.00000000000000000 -1.00000000000000000 
1 2202.32780929852924601 -1843.00000000000318323 0.00000000000000000 0.00000000000000000 1.00000000000000000 0.00000000000000000 
1 1890.32780929853038288 -973.00000000000000000 0.00000000000000000 0.00000000000000000 -1.00000000000000000 0.00000000000000000 
1 1890.32780929853038288 -1843.00000000000318323 0.00000000000000000 1.00000000000000000 0.00000000000000000 0.00000000000000000 
1 1890.32780929853038288 -1843.00000000000318323 0.00000000000000000 -0.00000000000000000 -0.00000000000000000 -1.00000000000000000 
2 2122.32780929852924601 -25.00000000000000000 0.00000000000000000 0.00000000000000000 0.00000000000000000 1.00000000000000000 1.00000000000000000 0.00000000000000000 -0.00000000000000000 -0.00000000000000000 1.00000000000000000 0.00000000000000000 5.00000000000000000
1 2127.32780929852924601 -1843.00000000000318323 -25.00000000000000000 0.00000000000000000 1.00000000000000000 -0.00000000000000022 
2 1970.32780929853038288 -25.00000000000000000 0.00000000000000000 0.00000000000000000 0.00000000000000000 1.00000000000000000 1.00000000000000000 0.00000000000000000 -0.00000000000000000 -0.00000000000000000 1.00000000000000000 0.00000000000000000 5.00000000000000000
1 1975.32780929853038288 -1843.00000000000318323 -25.00000000000000000 0.00000000000000000 1.00000000000000000 -0.00000000000000022 
Polygon3D 0
PolygonOnTriangulations 0
Surfaces 9
1 2202.32780929852924601 -972.99999999999931788 0.00000000000000000 -0.00000000000000219 1.00000000000000000 0.00000000000000000 -1.00000000000000000 -0.00000000000000219 0.00000000000000000 0.00000000000000000 0.00000000000000000 1.00000000000000000 
2 2122.32780929852924601 -1843.00000000000318323 -25.00000000000000000 0.00000000000000000 -1.00000000000000000 0.00000000000000022 1.00000000000000000 0.00000000000000000 0.00000000000000000 -0.00000000000000000 0.00000000000000022 1.00000000000000000 5.00000000000000000
2 1970.32780929853038288 -1843.00000000000318323 -25.00000000000000000 0.00000000000000000 -1.00000000000000000 0.00000000000000022 1.00000000000000000 0.00000000000000000 0.00000000000000000 -0.00000000000000000 0.00000000000000022 1.00000000000000000 5.00000000000000000
1 2202.32780929852924601 -1843.00000000000318323 0.00000000000000000 1.00000000000000000 0.00000000000000000 0.00000000000000000 -0.00000000000000000 1.00000000000000000 0.00000000000000000 0.00000000000000000 -0.00000000000000000 1.00000000000000000 
1 1890.32780929853038288 -1843.00000000000318323 0.00000000000000000 0.00000000000000000 -1.00000000000000000 0.00000000000000000 1.00000000000000000 0.00000000000000000 0.00000000000000000 -0.00000000000000000 0.00000000000000000 1.00000000000000000 
1 2046.32780929852992813 -1408.00000000000136424 0.00000000000000000 0.00000000000000000 0.00000000000000000 1.00000000000000000 1.00000000000000000 0.00000000000000000 -0.00000000000000000 -0.00000000000000000 1.00000000000000000 0.00000000000000000 
1 1890.32780929853038288 -973.00000000000000000 0.00000000000000000 -1.00000000000000000 0.00000000000000000 0.00000000000000000 0.00000000000000000 -1.00000000000000000 0.00000000000000000 0.00000000000000000 0.00000000000000000 1.00000000000000000 
1 2122.32780929852879126 -1843.00000000000341061 -24.99999999999999645 0.00000000000000000 -1.00000000000000000 -0.00000000000000000 -1.00000000000000000 -0.00000000000000000 0.00000000000000000 -0.00000000000000000 0.00000000000000000 -1.00000000000000000 
1 1970.32780929853015550 -1843.00000000000341061 -24.99999999999999645 0.00000000000000000 -1.00000000000000000 -0.00000000000000000 -1.00000000000000000 -0.00000000000000000 0.00000000000000000 -0.00000000000000000 0.00000000000000000 -1.00000000000000000 
Triangulations 0

TShapes 42
Ve
0.000000100000000
2202.327809298529246 -972.999999999999318 0.000000000000000
0 0

0101101
*
Ed
 0.000000100000000 1 1 0
1  1 0 0.000000000000000 50.000000000000000
2  1 1 0 0.000000000000000 50.000000000000000
0

0101000
+42 8 -42 10 *
Ve
0.000000100000000
1890.327809298530383 -973.000000000000000 0.000000000000000
0 0

0101101
*
Ed
 0.000000100000000 1 1 0
1  2 0 0.000000000000000 311.999999999998863
2  2 1 12 0.000000000000000 311.999999999998863
2  3 1 13 0.000000000000000 311.999999999998863
0

0101000
+42 0 -40 0 *
Ed
 0.000000100000000 1 1 0
1  3 0 0.000000000000000 50.000000000000000
2  4 1 0 0.000000000000000 50.000000000000000
0

0101000
+40 8 -40 10 *
Wi

0101100
+41 4 -39 11 +39 14 -38 4 *
Ve
0.000000100000114
2127.327809298529246 -972.999999999999432 -25.000000000000192
0 0

0101101
*
Ed
 0.000000100000000 1 1 0
1  4 0 0.000000000000000 6.283185307179586
2  5 1 4 0.000000000000000 6.283185307179586
2  6 2 0 0.000000000000000 6.283185307179586
0

0101000
+36 0 -36 0 *
Wi

0101100
+35 0 *
Ve
0.000000100000000
1975.327809298530383 -972.999999999999773 -25.000000000000192
0 0

0101101
*
Ed
 0.000000100000000 1 1 0
1  5 0 0.000000000000000 6.283185307179586
2  7 1 4 0.000000000000000 6.283185307179586
2  8 3 0 0.000000000000000 6.283185307179586
0

0101000
+33 0 -33 0 *
Wi

0101100
+32 0 *
Fa
0  0.000000100000000 1 4

0111000
+37 0 +34 0 +31 0 *
Ve
0.000000100000000
2202.327809298529246 -1843.000000000003183 0.000000000000000
0 0

0101101
*
Ed
 0.000000100000000 1 1 0
1  6 0 0.000000000000000 50.000000000000000
2  9 5 0 0.000000000000000 50.000000000000000
0

0101000
+29 8 -29 10 *
Ed
 0.000000100000000 1 1 0
1  7 0 0.000000000000000 870.000000000003865
0

0101000
+29 0 -42 0 *
Wi

0101100
+28 0 -41 0 -27 8 +27 10 *
Fa
0  0.000000100000000 4 0

0111000
+26 0 *
Ve
0.000000100000000
1890.327809298530383 -1843.000000000003183 0.000000000000000
0 0

0101101
*
Ed
 0.000000100000000 1 1 0
1  8 0 0.000000000000000 870.000000000003183
0

0101000
+40 0 -24 0 *
Ed
 0.000000100000000 1 1 0
1  9 0 0.000000000000000 311.999999999998863
2  10 5 12 0.000000000000000 311.999999999998863
2  11 5 13 0.000000000000000 311.999999999998863
0

0101000
+24 0 -29 0 *
Wi

0101100
+39 0 +23 0 +22 0 +27 0 *
Fa
0  0.000000100000000 6 0

0111000
+21 16 *
Ed
 0.000000100000000 1 1 0
1  10 0 0.000000000000000 50.000000000000000
2  12 5 0 0.000000000000000 50.000000000000000
0

0101000
+24 8 -24 10 *
Wi

0101100
+38 0 -19 0 -23 8 +23 10 *
Fa
0  0.000000100000000 7 0

0111000
+18 0 *
Ve
0.000000100000000
2127.327809298529246 -25.000000000000000 0.000000000000000
0 0

0101101
*
Ed
 0.000000100000000 1 1 0
1  11 0 0.000000000000000 6.283185307179586
2  13 2 21 0.000000000000000 6.283185307179586
2  14 2 23 0.000000000000000 6.283185307179586
2  15 8 24 0.000000000000000 6.283185307179586
2  16 5 25 0.000000000000000 6.283185307179586
0

0101000
+16 0 -16 0 *
Ed
 0.000000100000000 1 1 0
1  12 0 0.000000000000000 870.000000000003752
3  17 18CN 2 0 0.000000000000000 870.000000000003752
0

0101000
+16 20 -36 0 *
Wi

0101100
-15 20 -14 0 +35 0 +14 0 *
Fa
0  0.000000100000000 2 0

0111000
+13 0 *
Ve
0.000000100000000
1975.327809298530383 -25.000000000000000 0.000000000000000
0 0

0101101
*
Ed
 0.000000100000000 1 1 0
1  13 0 0.000000000000000 6.283185307179586
2  19 3 21 0.000000000000000 6.283185307179586
2  20 3 23 0.000000000000000 6.283185307179586
2  21 9 24 0.000000000000000 6.283185307179586
2  22 5 25 0.000000000000000 6.283185307179586
0

0101000
+11 0 -11 0 *
Ed
 0.000000100000000 1 1 0
1  14 0 0.000000000000000 870.000000000003411
3  23 24CN 3 0 0.000000000000000 870.000000000003411
0

0101000
+11 20 -33 0 *
Wi

0101100
-10 20 -9 0 +32 0 +9 0 *
Fa
0  0.000000100000000 3 0

0111000
+8 0 *
Wi

0101100
+19 4 -22 11 +22 14 -28 4 *
Wi

0101100
-10 20 *
Wi

0101100
-15 20 *
Fa
0  0.000000100000000 5 4

0111000
+6 0 +5 0 +4 0 *
Sh

0101100
+30 0 +25 4 +20 15 -20 17 +17 4 -12 0 -7 0 +3 0 *
So

0100000
+2 0 *

+1 1 