
CASCADE Topology V1, (c) Matra-Datavision
Locations 23
1
1.000000000000000 0.000000000000000 0.000000000000000 0.000000000000000 
0.000000000000000 1.000000000000000 0.000000000000000 0.000000000000000 
0.000000000000000 0.000000000000000 1.000000000000000 0.000000000000000 
1
1.000000000000000 0.000000000000000 0.000000000000000 0.000000000000000 
0.000000000000000 1.000000000000000 0.000000000000000 0.000000000000000 
0.000000000000000 0.000000000000000 1.000000000000000 0.000000000000000 
1
1.000000000000000 0.000000000000000 0.000000000000000 0.000000000000000 
0.000000000000000 1.000000000000000 0.000000000000000 0.000000000000000 
0.000000000000000 0.000000000000000 1.000000000000000 0.000000000000000 
2  2 1 3 -1 0
1
1.000000000000000 0.000000000000000 0.000000000000000 0.000000000000000 
0.000000000000000 1.000000000000000 0.000000000000000 0.000000000000000 
0.000000000000000 0.000000000000000 1.000000000000000 0.000000000000000 
1
1.000000000000000 0.000000000000000 0.000000000000000 0.000000000000000 
0.000000000000000 1.000000000000000 0.000000000000000 0.000000000000000 
0.000000000000000 0.000000000000000 1.000000000000000 0.000000000000000 
1
1.000000000000000 0.000000000000000 0.000000000000000 0.000000000000000 
0.000000000000000 1.000000000000000 0.000000000000000 0.000000000000000 
0.000000000000000 0.000000000000000 1.000000000000000 0.000000000000000 
2  5 1 6 1 7 -1 0
1
1.000000000000000 0.000000000000000 0.000000000000000 0.000000000000000 
0.000000000000000 1.000000000000000 0.000000000000000 0.000000000000000 
0.000000000000000 0.000000000000000 1.000000000000000 130.000000000000000 
2  5 1 6 1 7 -1 9 1 0
2  6 -1 5 -1 0
2  7 -1 2 1 3 -1 0
2  5 1 6 1 7 -1 2 1 3 -1 0
1
1.000000000000000 0.000000000000000 0.000000000000000 0.000000000000000 
0.000000000000000 1.000000000000000 0.000000000000000 0.000000000000000 
0.000000000000000 0.000000000000000 1.000000000000000 0.000000000000000 
1
1.000000000000000 0.000000000000000 0.000000000000000 0.000000000000000 
0.000000000000000 1.000000000000000 0.000000000000000 0.000000000000000 
0.000000000000000 0.000000000000000 1.000000000000000 0.000000000000000 
2  14 1 15 1 3 -1 0
2  3 1 15 -1 14 -1 0
1
1.000000000000000 0.000000000000000 0.000000000000000 0.000000000000000 
0.000000000000000 1.000000000000000 0.000000000000000 0.000000000000000 
0.000000000000000 0.000000000000000 1.000000000000000 10414.781695436538939 
2  18 -1 3 1 15 -1 14 -1 0
2  15 -1 14 -1 0
2  7 -1 2 1 15 -1 14 -1 0
2  7 -1 9 1 2 1 3 -1 0
2  5 1 6 1 7 -1 9 1 2 1 3 -1 0
Curve2ds 68
1 -2401.50000000000000000 935.00000000000000000 1.00000000000000000 0.00000000000000000 
1 -2401.50000000000000000 -935.00000000000000000 0.00000000000000000 1.00000000000000000 
1 2401.50000000000000000 935.00000000000000000 0.00000000000000000 -1.00000000000000000 
1 2401.50000000000000000 -935.00000000000000000 -1.00000000000000000 0.00000000000000000 
1 0.00000000000000000 0.00000000000000000 1.00000000000000000 0.00000000000000000 
1 0.00000000000000000 -10414.78169543653893925 1.00000000000000000 0.00000000000000000 
1 530.36983581512504315 83.75000000000557066 0.00000000000000000 -1.00000000000000000 
1 2389.50000000000000000 -74.99999999999465672 0.00000000000000000 -1.00000000000000000 
1 0.00000000000000000 0.00000000000000000 1.00000000000000000 0.00000000000000000 
1 0.00000000000000000 -10414.78169543653893925 1.00000000000000000 0.00000000000000000 
1 435.36983581512140518 83.75000000000557066 1.00000000000000000 0.00000000000000000 
1 2294.49999999999636202 -74.99999999999465672 1.00000000000000000 0.00000000000000000 
1 0.00000000000000000 0.00000000000000000 1.00000000000000000 0.00000000000000000 
1 0.00000000000000000 -10414.78169543653893925 1.00000000000000000 0.00000000000000000 
1 435.36983581512140518 -166.25000000000090949 0.00000000000000000 1.00000000000000000 
1 2294.49999999999636202 -325.00000000000113687 0.00000000000000000 1.00000000000000000 
1 0.00000000000000000 -0.00000000000000000 1.00000000000000000 0.00000000000000000 
1 0.00000000000000000 -10414.78169543653893925 1.00000000000000000 0.00000000000000000 
1 530.36983581512504315 -166.25000000000090949 -1.00000000000000000 0.00000000000000000 
1 2389.50000000000000000 -325.00000000000113687 -1.00000000000000000 0.00000000000000000 
1 0.00000000000000000 0.00000000000000000 1.00000000000000000 0.00000000000000000 
1 0.00000000000000000 -10414.78169543653893925 1.00000000000000000 0.00000000000000000 
1 -357.86983581513595709 88.75000000000022737 0.00000000000000000 -1.00000000000000000 
1 1501.26032836973899975 -70.00000000000000000 0.00000000000000000 -1.00000000000000000 
1 0.00000000000000000 0.00000000000000000 1.00000000000000000 0.00000000000000000 
1 0.00000000000000000 -10414.78169543653893925 1.00000000000000000 0.00000000000000000 
1 -607.86983581513550234 88.75000000000022737 1.00000000000000000 0.00000000000000000 
1 1251.26032836973945450 -70.00000000000000000 1.00000000000000000 0.00000000000000000 
1 0.00000000000000000 0.00000000000000000 1.00000000000000000 0.00000000000000000 
1 0.00000000000000000 -10414.78169543653893925 1.00000000000000000 0.00000000000000000 
1 -607.86983581513550234 -6.25000000000204636 0.00000000000000000 1.00000000000000000 
1 1251.26032836973945450 -165.00000000000227374 0.00000000000000000 1.00000000000000000 
1 0.00000000000000000 -0.00000000000000000 1.00000000000000000 0.00000000000000000 
1 0.00000000000000000 -10414.78169543653893925 1.00000000000000000 0.00000000000000000 
1 -357.86983581513595709 -6.25000000000204636 -1.00000000000000000 0.00000000000000000 
1 1501.26032836973899975 -165.00000000000227374 -1.00000000000000000 0.00000000000000000 
8 1099.74999999999636202 1194.75000000000000000
1 1194.75000000000000000 -325.00000000000113687 1.00000000000000000 0.00000000000000000 
8 1099.74999999999636202 1194.75000000000000000
1 1194.75000000000000000 -130.00000000000000000 -1.00000000000000000 0.00000000000000000 
8 -287.50000000000386535 -37.49999999999738520
1 2389.50000000000000000 -37.49999999999727152 0.00000000000000000 1.00000000000000000 
8 -287.50000000000386535 -37.49999999999738520
1 -37.49999999999738520 -130.00000000000000000 -1.00000000000000000 -0.00000000000000000 
8 -1242.25000000000181899 -1147.24999999999818101
1 1147.24999999999818101 -74.99999999999465672 -1.00000000000000000 0.00000000000000000 
8 -1242.25000000000181899 -1147.24999999999818101
1 -1147.24999999999818101 -130.00000000000000000 -1.00000000000000000 0.00000000000000000 
8 -87.50000000000579803 162.50000000000068212
1 2294.49999999999636202 -162.50000000000045475 0.00000000000000000 -1.00000000000000000 
8 -87.50000000000579803 162.50000000000068212
1 162.50000000000068212 -130.00000000000000000 -1.00000000000000000 0.00000000000000000 
8 500.63016418486995462 750.63016418486949988
1 750.63016418486949988 -165.00000000000227374 1.00000000000000000 0.00000000000000000 
8 500.63016418486995462 750.63016418486949988
1 750.63016418486949988 -130.00000000000000000 -1.00000000000000000 0.00000000000000000 
8 -130.00000000000227374 -35.00000000000000000
1 1501.26032836973899975 -35.00000000000000000 0.00000000000000000 1.00000000000000000 
8 -130.00000000000227374 -35.00000000000000000
1 -35.00000000000000000 -130.00000000000000000 -1.00000000000000000 -0.00000000000000000 
8 -875.63016418486949988 -625.63016418486995462
1 625.63016418486949988 -70.00000000000000000 -1.00000000000000000 0.00000000000000000 
8 -875.63016418486949988 -625.63016418486995462
1 -625.63016418486995462 -130.00000000000000000 -1.00000000000000000 0.00000000000000000 
8 -12.50000000000113687 82.50000000000113687
1 1251.26032836973945450 -82.50000000000113687 0.00000000000000000 -1.00000000000000000 
8 -12.50000000000113687 82.50000000000113687
1 82.50000000000113687 -130.00000000000000000 -1.00000000000000000 0.00000000000000000 
1 0.00000000000000000 -0.00000000000000000 0.00000000000000000 -1.00000000000000000 
1 250.00000000000648015 0.00000000000000000 0.00000000000000000 -1.00000000000000000 
1 95.00000000000363798 0.00000000000000000 0.00000000000000000 -1.00000000000000000 
1 0.00000000000000000 0.00000000000000000 0.00000000000000000 -1.00000000000000000 
1 250.00000000000648015 0.00000000000000000 0.00000000000000000 -1.00000000000000000 
1 0.00000000000000000 0.00000000000000000 0.00000000000000000 -1.00000000000000000 
1 95.00000000000363798 0.00000000000000000 0.00000000000000000 -1.00000000000000000 
1 0.00000000000000000 0.00000000000000000 0.00000000000000000 -1.00000000000000000 
1 0.00000000000000000 -0.00000000000000000 0.00000000000000000 -1.00000000000000000 
1 95.00000000000227374 0.00000000000000000 0.00000000000000000 -1.00000000000000000 
1 249.99999999999954525 0.00000000000000000 0.00000000000000000 -1.00000000000000000 
1 0.00000000000000000 0.00000000000000000 0.00000000000000000 -1.00000000000000000 
1 95.00000000000227374 0.00000000000000000 0.00000000000000000 -1.00000000000000000 
1 0.00000000000000000 0.00000000000000000 0.00000000000000000 -1.00000000000000000 
1 249.99999999999954525 0.00000000000000000 0.00000000000000000 -1.00000000000000000 
1 0.00000000000000000 0.00000000000000000 0.00000000000000000 -1.00000000000000000 
Curves 32
1 0.00000000000000000 0.00000000000000000 0.00000000000000000 0.00000000000000000 0.00000000000000000 1.00000000000000000 
1 4803.00000000000000000 0.00000000000000000 0.00000000000000000 0.00000000000000000 0.00000000000000000 1.00000000000000000 
1 0.00000000000000000 0.00000000000000000 0.00000000000000000 1.00000000000000000 0.00000000000000000 0.00000000000000000 
1 0.00000000000000000 -1870.00000000000000000 0.00000000000000000 0.00000000000000000 0.00000000000000000 1.00000000000000000 
1 0.00000000000000000 -1870.00000000000000000 0.00000000000000000 0.00000000000000000 1.00000000000000000 0.00000000000000000 
1 4803.00000000000000000 -1870.00000000000000000 0.00000000000000000 0.00000000000000000 0.00000000000000000 1.00000000000000000 
1 4803.00000000000000000 0.00000000000000000 0.00000000000000000 0.00000000000000000 -1.00000000000000000 0.00000000000000000 
1 4803.00000000000000000 -1870.00000000000000000 0.00000000000000000 -1.00000000000000000 0.00000000000000000 0.00000000000000000 
1 4791.00000000000000000 -1009.99999999999465672 0.00000000000000000 0.00000000000000000 -1.00000000000000000 0.00000000000000000 
1 4695.99999999999636202 -1009.99999999999465672 0.00000000000000000 1.00000000000000000 0.00000000000000000 0.00000000000000000 
1 4695.99999999999636202 -1260.00000000000113687 0.00000000000000000 0.00000000000000000 1.00000000000000000 0.00000000000000000 
1 4791.00000000000000000 -1260.00000000000113687 0.00000000000000000 -1.00000000000000000 0.00000000000000000 0.00000000000000000 
1 3902.76032836973899975 -1005.00000000000000000 0.00000000000000000 0.00000000000000000 -1.00000000000000000 0.00000000000000000 
1 3652.76032836973945450 -1005.00000000000000000 0.00000000000000000 1.00000000000000000 0.00000000000000000 0.00000000000000000 
1 3652.76032836973945450 -1100.00000000000227374 0.00000000000000000 0.00000000000000000 1.00000000000000000 0.00000000000000000 
1 3902.76032836973899975 -1100.00000000000227374 0.00000000000000000 -1.00000000000000000 0.00000000000000000 0.00000000000000000 
1 3596.25000000000000000 -1260.00000000000113687 130.00000000000000000 1.00000000000000000 0.00000000000000000 -0.00000000000000000 
1 4791.00000000000000000 -972.49999999999727152 130.00000000000000000 -0.00000000000000000 1.00000000000000000 0.00000000000000000 
1 3548.74999999999818101 -1009.99999999999465672 130.00000000000000000 -1.00000000000000000 0.00000000000000000 0.00000000000000000 
1 4695.99999999999636202 -1097.50000000000045475 130.00000000000000000 0.00000000000000000 -1.00000000000000000 0.00000000000000000 
1 3152.13016418486949988 -1100.00000000000227374 130.00000000000000000 1.00000000000000000 0.00000000000000000 -0.00000000000000000 
1 3902.76032836973899975 -970.00000000000000000 130.00000000000000000 -0.00000000000000000 1.00000000000000000 0.00000000000000000 
1 3027.13016418486949988 -1005.00000000000000000 130.00000000000000000 -1.00000000000000000 0.00000000000000000 0.00000000000000000 
1 3652.76032836973945450 -1017.50000000000113687 130.00000000000000000 0.00000000000000000 -1.00000000000000000 0.00000000000000000 
1 4791.00000000000000000 -1260.00000000000113687 0.00000000000000000 0.00000000000000000 0.00000000000000000 1.00000000000000000 
1 4791.00000000000000000 -1009.99999999999465672 0.00000000000000000 0.00000000000000000 0.00000000000000000 1.00000000000000000 
1 4695.99999999999636202 -1009.99999999999465672 0.00000000000000000 0.00000000000000000 0.00000000000000000 1.00000000000000000 
1 4695.99999999999636202 -1260.00000000000113687 0.00000000000000000 0.00000000000000000 0.00000000000000000 1.00000000000000000 
1 3902.76032836973899975 -1100.00000000000227374 0.00000000000000000 0.00000000000000000 0.00000000000000000 1.00000000000000000 
1 3902.76032836973899975 -1005.00000000000000000 0.00000000000000000 0.00000000000000000 0.00000000000000000 1.00000000000000000 
1 3652.76032836973945450 -1005.00000000000000000 0.00000000000000000 0.00000000000000000 0.00000000000000000 1.00000000000000000 
1 3652.76032836973945450 -1100.00000000000227374 0.00000000000000000 0.00000000000000000 0.00000000000000000 1.00000000000000000 
Polygon3D 0
PolygonOnTriangulations 0
Surfaces 15
1 0.00000000000000000 0.00000000000000000 0.00000000000000000 0.00000000000000000 1.00000000000000000 0.00000000000000000 1.00000000000000000 0.00000000000000000 0.00000000000000000 0.00000000000000000 0.00000000000000000 -1.00000000000000000 
1 2401.50000000000000000 -935.00000000000000000 0.00000000000000000 0.00000000000000000 0.00000000000000000 1.00000000000000000 1.00000000000000000 0.00000000000000000 -0.00000000000000000 -0.00000000000000000 1.00000000000000000 0.00000000000000000 
1 0.00000000000000000 -1870.00000000000000000 0.00000000000000000 -1.00000000000000000 0.00000000000000000 0.00000000000000000 0.00000000000000000 1.00000000000000000 0.00000000000000000 0.00000000000000000 0.00000000000000000 -1.00000000000000000 
1 4803.00000000000000000 0.00000000000000000 0.00000000000000000 1.00000000000000000 0.00000000000000000 -0.00000000000000000 0.00000000000000000 -1.00000000000000000 0.00000000000000000 0.00000000000000000 -0.00000000000000000 -1.00000000000000000 
1 4791.00000000000000000 -1009.99999999999465672 0.00000000000000000 1.00000000000000000 0.00000000000000000 -0.00000000000000000 0.00000000000000000 -1.00000000000000000 0.00000000000000000 0.00000000000000000 -0.00000000000000000 -1.00000000000000000 
1 4260.63016418487495685 -1093.75000000000022737 0.00000000000000000 0.00000000000000000 0.00000000000000000 1.00000000000000000 1.00000000000000000 0.00000000000000000 -0.00000000000000000 -0.00000000000000000 1.00000000000000000 0.00000000000000000 
1 4695.99999999999636202 -1009.99999999999465672 0.00000000000000000 0.00000000000000000 1.00000000000000000 0.00000000000000000 1.00000000000000000 0.00000000000000000 0.00000000000000000 0.00000000000000000 0.00000000000000000 -1.00000000000000000 
1 4695.99999999999636202 -1260.00000000000113687 0.00000000000000000 -1.00000000000000000 0.00000000000000000 0.00000000000000000 0.00000000000000000 1.00000000000000000 0.00000000000000000 0.00000000000000000 0.00000000000000000 -1.00000000000000000 
1 4791.00000000000000000 -1260.00000000000113687 0.00000000000000000 0.00000000000000000 -1.00000000000000000 0.00000000000000000 -1.00000000000000000 0.00000000000000000 0.00000000000000000 -0.00000000000000000 -0.00000000000000000 -1.00000000000000000 
1 3902.76032836973899975 -1005.00000000000000000 0.00000000000000000 1.00000000000000000 0.00000000000000000 -0.00000000000000000 0.00000000000000000 -1.00000000000000000 0.00000000000000000 0.00000000000000000 -0.00000000000000000 -1.00000000000000000 
1 4260.63016418487495685 -1093.75000000000022737 0.00000000000000000 0.00000000000000000 0.00000000000000000 1.00000000000000000 1.00000000000000000 0.00000000000000000 -0.00000000000000000 -0.00000000000000000 1.00000000000000000 0.00000000000000000 
1 3652.76032836973945450 -1005.00000000000000000 0.00000000000000000 0.00000000000000000 1.00000000000000000 0.00000000000000000 1.00000000000000000 0.00000000000000000 0.00000000000000000 0.00000000000000000 0.00000000000000000 -1.00000000000000000 
1 3652.76032836973945450 -1100.00000000000227374 0.00000000000000000 -1.00000000000000000 0.00000000000000000 0.00000000000000000 0.00000000000000000 1.00000000000000000 0.00000000000000000 0.00000000000000000 0.00000000000000000 -1.00000000000000000 
1 3902.76032836973899975 -1100.00000000000227374 0.00000000000000000 0.00000000000000000 -1.00000000000000000 0.00000000000000000 -1.00000000000000000 0.00000000000000000 0.00000000000000000 -0.00000000000000000 -0.00000000000000000 -1.00000000000000000 
1 4803.00000000000000000 -1870.00000000000000000 0.00000000000000000 0.00000000000000000 -1.00000000000000000 0.00000000000000000 -1.00000000000000000 0.00000000000000000 0.00000000000000000 -0.00000000000000000 -0.00000000000000000 -1.00000000000000000 
Triangulations 0

TShapes 86
Ve
0.000000100000000
0.000000000000000 0.000000000000000 0.000000000000000
0 0

0101101
*
Ed
 0.000000100000000 1 1 0
1  1 0 0.000000000000000 130.000000000000000
0

0101000
+86 8 -86 10 *
Ve
0.000000100000000
4803.000000000000000 0.000000000000000 0.000000000000000
0 0

0101101
*
Ed
 0.000000100000000 1 1 0
1  2 0 0.000000000000000 130.000000000000000
0

0101000
+84 8 -84 10 *
Ed
 0.000000100000000 1 1 0
1  3 0 0.000000000000000 4803.000000000000000
2  1 2 11 0.000000000000000 4803.000000000000000
0

0101000
+86 0 -84 0 *
Wi

0101100
+85 0 -83 0 -82 8 +82 10 *
Fa
0  0.000000100000000 1 0

0111000
+81 0 *
Ve
0.000000100000000
0.000000000000000 -1870.000000000000000 0.000000000000000
0 0

0101101
*
Ed
 0.000000100000000 1 1 0
1  4 0 0.000000000000000 130.000000000000000
0

0101000
+79 8 -79 10 *
Ed
 0.000000100000000 1 1 0
1  5 0 0.000000000000000 1870.000000000000000
2  2 2 11 0.000000000000000 1870.000000000000000
0

0101000
+79 0 -86 0 *
Wi

0101100
+78 0 -85 0 -77 8 +77 10 *
Fa
0  0.000000100000000 3 0

0111000
+76 0 *
Ve
0.000000100000000
4803.000000000000000 -1870.000000000000000 0.000000000000000
0 0

0101101
*
Ed
 0.000000100000000 1 1 0
1  6 0 0.000000000000000 130.000000000000000
0

0101000
+74 8 -74 10 *
Ed
 0.000000100000000 1 1 0
1  7 0 0.000000000000000 1870.000000000000000
2  3 2 11 0.000000000000000 1870.000000000000000
0

0101000
+84 0 -74 0 *
Wi

0101100
+83 0 -73 0 -72 8 +72 10 *
Fa
0  0.000000100000000 4 0

0111000
+71 0 *
Ed
 0.000000100000000 1 1 0
1  8 0 0.000000000000000 4803.000000000000000
2  4 2 11 0.000000000000000 4803.000000000000000
0

0101000
+74 0 -79 0 *
Wi

0101100
-82 13 -77 13 -72 13 -69 13 *
Ve
0.000000100000000
4791.000000000000000 -1009.999999999994657 0.000000000000000
0 0

0101101
*
Ve
0.000000100000000
4791.000000000000000 -1260.000000000001137 0.000000000000000
0 0

0101101
*
Ed
 0.000000100000000 1 1 0
1  9 0 0.000000000000000 250.000000000006480
2  5 5 17 0.000000000000000 250.000000000006480
2  6 5 19 0.000000000000000 250.000000000006480
2  7 6 20 0.000000000000000 250.000000000006480
2  8 2 21 0.000000000000000 250.000000000006480
0

0101000
+67 0 -66 0 *
Ve
0.000000100000000
4695.999999999996362 -1009.999999999994657 0.000000000000000
0 0

0101101
*
Ed
 0.000000100000000 1 1 0
1  10 0 0.000000000000000 95.000000000003638
2  9 7 17 0.000000000000000 95.000000000003638
2  10 7 19 0.000000000000000 95.000000000003638
2  11 6 20 0.000000000000000 95.000000000003638
2  12 2 21 0.000000000000000 95.000000000003638
0

0101000
+64 0 -67 0 *
Ve
0.000000100000000
4695.999999999996362 -1260.000000000001137 0.000000000000000
0 0

0101101
*
Ed
 0.000000100000000 1 1 0
1  11 0 0.000000000000000 250.000000000006480
2  13 8 17 0.000000000000000 250.000000000006480
2  14 8 19 0.000000000000000 250.000000000006480
2  15 6 20 0.000000000000000 250.000000000006480
2  16 2 21 0.000000000000000 250.000000000006480
0

0101000
+62 0 -64 0 *
Ed
 0.000000100000000 1 1 0
1  12 0 0.000000000000000 95.000000000003638
2  17 9 17 0.000000000000000 95.000000000003638
2  18 9 19 0.000000000000000 95.000000000003638
2  19 6 20 0.000000000000000 95.000000000003638
2  20 2 21 0.000000000000000 95.000000000003638
0

0101000
+66 0 -62 0 *
Wi

0101100
+65 16 +63 16 +61 16 +60 16 *
Ve
0.000000100000000
3902.760328369739000 -1005.000000000000000 0.000000000000000
0 0

0101101
*
Ve
0.000000100000000
3902.760328369739000 -1100.000000000002274 0.000000000000000
0 0

0101101
*
Ed
 0.000000100000000 1 1 0
1  13 0 0.000000000000000 95.000000000002274
2  21 10 17 0.000000000000000 95.000000000002274
2  22 10 19 0.000000000000000 95.000000000002274
2  23 11 20 0.000000000000000 95.000000000002274
2  24 2 21 0.000000000000000 95.000000000002274
0

0101000
+58 0 -57 0 *
Ve
0.000000100000000
3652.760328369739455 -1005.000000000000000 0.000000000000000
0 0

0101101
*
Ed
 0.000000100000000 1 1 0
1  14 0 0.000000000000000 249.999999999999545
2  25 12 17 0.000000000000000 249.999999999999545
2  26 12 19 0.000000000000000 249.999999999999545
2  27 11 20 0.000000000000000 249.999999999999545
2  28 2 21 0.000000000000000 249.999999999999545
0

0101000
+55 0 -58 0 *
Ve
0.000000100000000
3652.760328369739455 -1100.000000000002274 0.000000000000000
0 0

0101101
*
Ed
 0.000000100000000 1 1 0
1  15 0 0.000000000000000 95.000000000002274
2  29 13 17 0.000000000000000 95.000000000002274
2  30 13 19 0.000000000000000 95.000000000002274
2  31 11 20 0.000000000000000 95.000000000002274
2  32 2 21 0.000000000000000 95.000000000002274
0

0101000
+53 0 -55 0 *
Ed
 0.000000100000000 1 1 0
1  16 0 0.000000000000000 249.999999999999545
2  33 14 17 0.000000000000000 249.999999999999545
2  34 14 19 0.000000000000000 249.999999999999545
2  35 11 20 0.000000000000000 249.999999999999545
2  36 2 21 0.000000000000000 249.999999999999545
0

0101000
+57 0 -53 0 *
Wi

0101100
+56 16 +54 16 +52 16 +51 16 *
Fa
0  0.000000100000000 2 12

0111000
+68 0 +59 0 +50 0 *
Wi

0101100
-82 23 -77 23 -72 23 -69 23 *
Ve
0.000000150000000
4695.999999999996362 -1260.000000000001137 130.000000000000000
0 0

0101101
*
Ve
0.000000150000000
4791.000000000000000 -1260.000000000001137 130.000000000000000
0 0

0101101
*
Ed
 0.000000150000000 1 1 0
1  17 0 1099.749999999996362 1194.750000000000000
2  37 2 22 1099.749999999996362 1194.750000000000000
2  38 9 0 1099.749999999996362 1194.750000000000000
0

0101000
+47 0 -46 0 *
Ve
0.000000150000000
4791.000000000000000 -1009.999999999994657 130.000000000000000
0 0

0101101
*
Ed
 0.000000150000000 1 1 0
1  18 0 -287.500000000003865 -37.499999999997385
2  39 2 22 -287.500000000003865 -37.499999999997385
2  40 5 0 -287.500000000003865 -37.499999999997385
0

0101000
+46 0 -44 0 *
Ve
0.000000150000000
4695.999999999996362 -1009.999999999994657 130.000000000000000
0 0

0101101
*
Ed
 0.000000150000000 1 1 0
1  19 0 -1242.250000000001819 -1147.249999999998181
2  41 2 22 -1242.250000000001819 -1147.249999999998181
2  42 7 0 -1242.250000000001819 -1147.249999999998181
0

0101000
+44 0 -42 0 *
Ed
 0.000000150000000 1 1 0
1  20 0 -87.500000000005798 162.500000000000682
2  43 2 22 -87.500000000005798 162.500000000000682
2  44 8 0 -87.500000000005798 162.500000000000682
0

0101000
+42 0 -47 0 *
Wi

0101100
-45 0 -43 0 -41 0 -40 0 *
Ve
0.000000150000000
3652.760328369739455 -1100.000000000002274 130.000000000000000
0 0

0101101
*
Ve
0.000000150000000
3902.760328369739000 -1100.000000000002274 130.000000000000000
0 0

0101101
*
Ed
 0.000000150000000 1 1 0
1  21 0 500.630164184869955 750.630164184869500
2  45 2 22 500.630164184869955 750.630164184869500
2  46 14 0 500.630164184869955 750.630164184869500
0

0101000
+38 0 -37 0 *
Ve
0.000000150000000
3902.760328369739000 -1005.000000000000000 130.000000000000000
0 0

0101101
*
Ed
 0.000000150000000 1 1 0
1  22 0 -130.000000000002274 -35.000000000000000
2  47 2 22 -130.000000000002274 -35.000000000000000
2  48 10 0 -130.000000000002274 -35.000000000000000
0

0101000
+37 0 -35 0 *
Ve
0.000000150000000
3652.760328369739455 -1005.000000000000000 130.000000000000000
0 0

0101101
*
Ed
 0.000000150000000 1 1 0
1  23 0 -875.630164184869500 -625.630164184869955
2  49 2 22 -875.630164184869500 -625.630164184869955
2  50 12 0 -875.630164184869500 -625.630164184869955
0

0101000
+35 0 -33 0 *
Ed
 0.000000150000000 1 1 0
1  24 0 -12.500000000001137 82.500000000001137
2  51 2 22 -12.500000000001137 82.500000000001137
2  52 13 0 -12.500000000001137 82.500000000001137
0

0101000
+33 0 -38 0 *
Wi

0101100
-36 0 -34 0 -32 0 -31 0 *
Fa
0  0.000000100000000 2 22

0111000
+48 0 +39 0 +30 0 *
Wi

0101100
+73 0 -78 0 -69 8 +69 10 *
Fa
0  0.000000100000000 15 0

0111000
+28 0 *
Ed
 0.000000100000000 1 1 0
1  25 0 0.000000000000000 130.000000000000000
2  53 9 0 0.000000000000000 130.000000000000000
2  54 5 0 0.000000000000000 130.000000000000000
0

0101000
+66 16 -46 0 *
Ed
 0.000000100000000 1 1 0
1  26 0 0.000000000000000 130.000000000000000
2  55 7 0 0.000000000000000 130.000000000000000
2  56 5 0 0.000000000000000 130.000000000000000
0

0101000
+67 16 -44 0 *
Wi

0101100
-65 16 -26 0 -43 0 +25 0 *
Fa
0  0.000000100000000 5 0

0111000
+24 0 *
Ed
 0.000000100000000 1 1 0
1  27 0 0.000000000000000 130.000000000000000
2  57 8 0 0.000000000000000 130.000000000000000
2  58 7 0 0.000000000000000 130.000000000000000
0

0101000
+64 16 -42 0 *
Wi

0101100
-63 16 -25 0 -41 0 +22 0 *
Fa
0  0.000000100000000 7 0

0111000
+21 0 *
Ed
 0.000000100000000 1 1 0
1  28 0 0.000000000000000 130.000000000000000
2  59 9 0 0.000000000000000 130.000000000000000
2  60 8 0 0.000000000000000 130.000000000000000
0

0101000
+62 16 -47 0 *
Wi

0101100
-61 16 -22 0 -40 0 +19 0 *
Fa
0  0.000000100000000 8 0

0111000
+18 0 *
Wi

0101100
-60 16 -19 0 -45 0 +26 0 *
Fa
0  0.000000100000000 9 0

0111000
+16 0 *
Ed
 0.000000100000000 1 1 0
1  29 0 0.000000000000000 130.000000000000000
2  61 14 0 0.000000000000000 130.000000000000000
2  62 10 0 0.000000000000000 130.000000000000000
0

0101000
+57 16 -37 0 *
Ed
 0.000000100000000 1 1 0
1  30 0 0.000000000000000 130.000000000000000
2  63 12 0 0.000000000000000 130.000000000000000
2  64 10 0 0.000000000000000 130.000000000000000
0

0101000
+58 16 -35 0 *
Wi

0101100
-56 16 -14 0 -34 0 +13 0 *
Fa
0  0.000000100000000 10 0

0111000
+12 0 *
Ed
 0.000000100000000 1 1 0
1  31 0 0.000000000000000 130.000000000000000
2  65 13 0 0.000000000000000 130.000000000000000
2  66 12 0 0.000000000000000 130.000000000000000
0

0101000
+55 16 -33 0 *
Wi

0101100
-54 16 -13 0 -32 0 +10 0 *
Fa
0  0.000000100000000 12 0

0111000
+9 0 *
Ed
 0.000000100000000 1 1 0
1  32 0 0.000000000000000 130.000000000000000
2  67 14 0 0.000000000000000 130.000000000000000
2  68 13 0 0.000000000000000 130.000000000000000
0

0101000
+53 16 -38 0 *
Wi

0101100
-52 16 -10 0 -31 0 +7 0 *
Fa
0  0.000000100000000 13 0

0111000
+6 0 *
Wi

0101100
-51 16 -7 0 -36 0 +14 0 *
Fa
0  0.000000100000000 14 0

0111000
+4 0 *
Sh

0101100
+80 4 +75 4 +70 4 -49 0 +29 0 +27 4 -23 0 -20 0 -17 0 -15 0 
-11 0 -8 0 -5 0 -3 0 *
So

0100000
+2 0 *

+1 1 