
CASCADE Topology V1, (c) Matra-Datavision
Locations 59
1
1.000000000000000 0.000000000000000 0.000000000000000 0.000000000000000 
0.000000000000000 -0.000000000000000 -1.000000000000000 0.000000000000000 
0.000000000000000 1.000000000000000 -0.000000000000000 0.000000000000000 
1
1.000000000000000 0.000000000000000 0.000000000000000 0.000000000000000 
0.000000000000000 -0.000000000000000 -1.000000000000000 0.000000000000000 
0.000000000000000 1.000000000000000 -0.000000000000000 0.000000000000000 
1
1.000000000000000 0.000000000000000 0.000000000000000 0.000000000000000 
0.000000000000000 -0.000000000000000 -1.000000000000000 0.000000000000000 
0.000000000000000 1.000000000000000 -0.000000000000000 0.000000000000000 
1
1.000000000000000 0.000000000000000 0.000000000000000 0.000000000000000 
0.000000000000000 -0.000000000000000 -1.000000000000000 0.000000000000000 
0.000000000000000 1.000000000000000 -0.000000000000000 0.000000000000000 
1
1.000000000000000 0.000000000000000 0.000000000000000 0.000000000000000 
0.000000000000000 -0.000000000000000 -1.000000000000000 0.000000000000000 
0.000000000000000 1.000000000000000 -0.000000000000000 0.000000000000000 
2  1 -1 2 1 3 -1 4 1 5 -1 0
1
1.000000000000000 0.000000000000000 0.000000000000000 0.000000000000000 
0.000000000000000 1.000000000000000 0.000000000000000 0.000000000000000 
0.000000000000000 0.000000000000000 1.000000000000000 0.000000000000000 
1
0.000000000000000 -0.000000000000000 1.000000000000000 3680.999999999999091 
-0.000000000000000 -1.000000000000000 0.000000000000000 0.000000000000000 
1.000000000000000 0.000000000000000 -0.000000000000000 0.000000000000000 
2  7 1 8 1 5 -1 0
1
1.000000000000000 0.000000000000000 0.000000000000000 -15.000000000000000 
0.000000000000000 1.000000000000000 0.000000000000000 0.000000000000003 
0.000000000000000 0.000000000000000 1.000000000000000 -0.000000000000000 
2  7 1 8 1 5 -1 10 1 0
1
1.000000000000000 0.000000000000000 0.000000000000000 0.000000000000000 
0.000000000000000 -0.000000000000000 -1.000000000000000 0.000000000000000 
0.000000000000000 1.000000000000000 -0.000000000000000 0.000000000000000 
1
0.000000000000000 -0.000000000000000 1.000000000000000 3680.999999999999091 
-0.000000000000000 -1.000000000000000 0.000000000000000 0.000000000000000 
1.000000000000000 0.000000000000000 -0.000000000000000 0.000000000000000 
1
1.000000000000000 0.000000000000000 0.000000000000000 0.000000000000000 
0.000000000000000 1.000000000000000 0.000000000000000 0.000000000000000 
0.000000000000000 0.000000000000000 1.000000000000000 0.000000000000000 
2  12 1 13 -1 14 -1 0
1
1.000000000000000 0.000000000000000 0.000000000000000 10.000000000000000 
0.000000000000000 1.000000000000000 0.000000000000000 -0.000000000000002 
0.000000000000000 0.000000000000000 1.000000000000000 0.000000000000000 
2  16 -1 12 1 13 -1 14 -1 0
2  13 -1 14 -1 0
1
1.000000000000000 0.000000000000000 0.000000000000000 0.000000000000000 
0.000000000000000 -0.000000000000000 -1.000000000000000 0.000000000000000 
0.000000000000000 1.000000000000000 -0.000000000000000 0.000000000000000 
1
0.000000000000000 -0.000000000000000 1.000000000000000 3680.999999999999091 
-0.000000000000000 -1.000000000000000 0.000000000000000 0.000000000000000 
1.000000000000000 0.000000000000000 -0.000000000000000 0.000000000000000 
1
1.000000000000000 0.000000000000000 0.000000000000000 0.000000000000000 
0.000000000000000 1.000000000000000 0.000000000000000 0.000000000000000 
0.000000000000000 0.000000000000000 1.000000000000000 0.000000000000000 
2  19 1 20 -1 21 -1 0
1
1.000000000000000 0.000000000000000 0.000000000000000 10.000000000000000 
0.000000000000000 1.000000000000000 0.000000000000000 -0.000000000000002 
0.000000000000000 0.000000000000000 1.000000000000000 0.000000000000000 
2  23 -1 19 1 20 -1 21 -1 0
1
1.000000000000000 0.000000000000000 0.000000000000000 0.000000000000000 
0.000000000000000 -0.000000000000000 -1.000000000000000 0.000000000000000 
0.000000000000000 1.000000000000000 -0.000000000000000 0.000000000000000 
1
0.000000000000000 -0.000000000000000 1.000000000000000 3680.999999999999091 
-0.000000000000000 -1.000000000000000 0.000000000000000 0.000000000000000 
1.000000000000000 0.000000000000000 -0.000000000000000 0.000000000000000 
1
1.000000000000000 0.000000000000000 0.000000000000000 0.000000000000000 
0.000000000000000 1.000000000000000 0.000000000000000 0.000000000000000 
0.000000000000000 0.000000000000000 1.000000000000000 0.000000000000000 
2  25 1 26 -1 27 -1 0
1
1.000000000000000 0.000000000000000 0.000000000000000 -10.000000000000000 
0.000000000000000 1.000000000000000 0.000000000000000 0.000000000000002 
0.000000000000000 0.000000000000000 1.000000000000000 -0.000000000000000 
2  29 -1 25 1 26 -1 27 -1 0
2  1 -1 2 1 3 -1 4 1 25 -1 29 -1 25 1 26 -1 27 -1 0
1
1.000000000000000 0.000000000000000 0.000000000000000 0.000000000000000 
0.000000000000000 -0.000000000000000 -1.000000000000000 0.000000000000000 
0.000000000000000 1.000000000000000 -0.000000000000000 0.000000000000000 
1
0.000000000000000 -0.000000000000000 1.000000000000000 3680.999999999999091 
-0.000000000000000 -1.000000000000000 0.000000000000000 0.000000000000000 
1.000000000000000 0.000000000000000 -0.000000000000000 0.000000000000000 
1
1.000000000000000 0.000000000000000 0.000000000000000 0.000000000000000 
0.000000000000000 1.000000000000000 0.000000000000000 0.000000000000000 
0.000000000000000 0.000000000000000 1.000000000000000 0.000000000000000 
2  32 1 33 -1 34 -1 0
1
1.000000000000000 0.000000000000000 0.000000000000000 -15.000000000000000 
0.000000000000000 1.000000000000000 0.000000000000000 0.000000000000003 
0.000000000000000 0.000000000000000 1.000000000000000 -0.000000000000000 
2  36 -1 32 1 33 -1 34 -1 0
2  1 -1 2 1 3 -1 4 1 32 -1 36 -1 32 1 33 -1 34 -1 0
1
1.000000000000000 0.000000000000000 0.000000000000000 0.000000000000000 
0.000000000000000 -0.000000000000000 -1.000000000000000 0.000000000000000 
0.000000000000000 1.000000000000000 -0.000000000000000 0.000000000000000 
1
0.000000000000000 -0.000000000000000 1.000000000000000 3680.999999999999091 
-0.000000000000000 -1.000000000000000 0.000000000000000 0.000000000000000 
1.000000000000000 0.000000000000000 -0.000000000000000 0.000000000000000 
1
1.000000000000000 0.000000000000000 0.000000000000000 0.000000000000000 
0.000000000000000 1.000000000000000 0.000000000000000 0.000000000000000 
0.000000000000000 0.000000000000000 1.000000000000000 0.000000000000000 
2  39 1 40 -1 41 -1 0
1
1.000000000000000 0.000000000000000 0.000000000000000 -15.000000000000000 
0.000000000000000 1.000000000000000 0.000000000000000 0.000000000000003 
0.000000000000000 0.000000000000000 1.000000000000000 -0.000000000000000 
2  43 -1 39 1 40 -1 41 -1 0
2  1 -1 2 1 3 -1 4 1 39 -1 43 -1 39 1 40 -1 41 -1 0
1
1.000000000000000 0.000000000000000 0.000000000000000 0.000000000000000 
0.000000000000000 -0.000000000000000 -1.000000000000000 0.000000000000000 
0.000000000000000 1.000000000000000 -0.000000000000000 0.000000000000000 
1
0.000000000000000 -0.000000000000000 1.000000000000000 3680.999999999999091 
-0.000000000000000 -1.000000000000000 0.000000000000000 0.000000000000000 
1.000000000000000 0.000000000000000 -0.000000000000000 0.000000000000000 
1
1.000000000000000 0.000000000000000 0.000000000000000 0.000000000000000 
0.000000000000000 1.000000000000000 0.000000000000000 0.000000000000000 
0.000000000000000 0.000000000000000 1.000000000000000 0.000000000000000 
2  46 1 47 -1 48 -1 0
1
1.000000000000000 0.000000000000000 0.000000000000000 -15.000000000000000 
0.000000000000000 1.000000000000000 0.000000000000000 0.000000000000003 
0.000000000000000 0.000000000000000 1.000000000000000 -0.000000000000000 
2  50 -1 46 1 47 -1 48 -1 0
2  1 -1 2 1 3 -1 4 1 46 -1 50 -1 46 1 47 -1 48 -1 0
2  5 1 8 -1 7 -1 0
2  10 -1 5 1 8 -1 7 -1 0
2  1 -1 2 1 3 -1 4 1 5 -1 10 -1 5 1 8 -1 7 -1 0
2  5 -1 0
2  13 -1 14 -1 7 1 8 1 0
2  7 1 8 1 0
2  5 -1 10 1 0
Curve2ds 92
1 0.00000000000000000 0.00000000000000000 -0.00000000000000000 -1.00000000000000000 
1 140.00000000000000000 0.00000000000000000 0.00000000000000000 -1.00000000000000000 
1 -844.63552989509389590 1811.25952023587342410 0.00000000000000022 -1.00000000000000000 
1 60.00000000000000000 0.00000000000001332 -0.00000000000000000 -1.00000000000000000 
1 0.00000000000000000 0.00000000000000000 -0.00000000000000000 -1.00000000000000000 
1 0.00000000000000000 0.00000000000000000 1.00000000000000000 -0.00000000000000000 
1 -0.00000000000000222 -10.00000000000000000 1.00000000000000000 -0.00000000000000000 
1 30.00000000000000000 70.00000000000001421 -1.00000000000000000 -0.00000000000000022 
1 0.00000000000000000 0.00000000000000000 1.00000000000000000 -0.00000000000000000 
1 -0.00000000000000222 -10.00000000000000000 1.00000000000000000 -0.00000000000000000 
1 0.00000000000000000 0.00000000000000000 1.00000000000000000 0.00000000000000000 
1 0.00000000000000222 -10.00000000000000000 1.00000000000000000 0.00000000000000000 
1 -844.63552989509389590 1801.25952023587342410 -1.00000000000000000 -0.00000000000000022 
1 0.00000000000000000 0.00000000000000000 1.00000000000000000 0.00000000000000000 
1 0.00000000000000333 -15.00000000000000000 1.00000000000000000 0.00000000000000000 
1 -844.63552989509389590 1796.25952023587342410 -1.00000000000000000 -0.00000000000000022 
1 0.00000000000000000 0.00000000000000000 1.00000000000000000 0.00000000000000000 
1 0.00000000000000333 -15.00000000000000000 1.00000000000000000 0.00000000000000000 
1 -844.63552989509389590 1796.25952023587342410 -1.00000000000000000 -0.00000000000000022 
1 0.00000000000000000 0.00000000000000000 1.00000000000000000 0.00000000000000000 
1 0.00000000000000333 -15.00000000000000000 1.00000000000000000 0.00000000000000000 
1 -844.63552989509389590 1796.25952023587342410 -1.00000000000000000 -0.00000000000000022 
1 0.00000000000000000 0.00000000000000000 1.00000000000000000 0.00000000000000000 
1 0.00000000000000333 -15.00000000000000000 1.00000000000000000 0.00000000000000000 
1 -844.63552989509389590 1796.25952023587342410 -1.00000000000000000 -0.00000000000000022 
1 140.00000000000000000 -0.00000000000000000 -0.00000000000000000 -1.00000000000000000 
1 0.00000000000000000 0.00000000000000000 1.00000000000000000 0.00000000000000000 
1 0.00000000000000000 -10.00000000000000000 1.00000000000000000 0.00000000000000000 
1 -30.00000000000000000 70.00000000000000000 0.00000000000000022 -1.00000000000000000 
1 0.00000000000000000 0.00000000000000000 1.00000000000000000 0.00000000000000000 
1 0.00000000000000000 -10.00000000000000000 1.00000000000000000 0.00000000000000000 
1 0.00000000000000000 0.00000000000000000 1.00000000000000000 0.00000000000000000 
1 0.00000000000000000 -10.00000000000000000 1.00000000000000000 0.00000000000000000 
1 0.00000000000000000 0.00000000000000000 1.00000000000000000 0.00000000000000000 
1 0.00000000000000000 -15.00000000000000000 1.00000000000000000 0.00000000000000000 
1 0.00000000000000000 0.00000000000000000 1.00000000000000000 0.00000000000000000 
1 0.00000000000000000 -15.00000000000000000 1.00000000000000000 0.00000000000000000 
1 0.00000000000000000 0.00000000000000000 1.00000000000000000 0.00000000000000000 
1 0.00000000000000000 -15.00000000000000000 1.00000000000000000 0.00000000000000000 
1 0.00000000000000000 0.00000000000000000 1.00000000000000000 0.00000000000000000 
1 0.00000000000000000 -15.00000000000000000 1.00000000000000000 0.00000000000000000 
1 0.00000000000000000 0.00000000000000000 0.00000000000000000 -1.00000000000000000 
1 -30.00000000000000000 -70.00000000000001421 1.00000000000000000 0.00000000000000022 
1 30.00000000000000000 -69.99999999999998579 -0.00000000000000022 1.00000000000000000 
1 0.00000000000000000 0.00000000000000000 1.00000000000000000 0.00000000000000000 
1 -0.00000000000000000 -10.00000000000000000 1.00000000000000000 0.00000000000000000 
1 0.00000000000000000 0.00000000000000000 1.00000000000000000 0.00000000000000000 
1 -0.00000000000000000 -10.00000000000000000 1.00000000000000000 0.00000000000000000 
1 0.00000000000000000 0.00000000000000000 1.00000000000000000 0.00000000000000000 
1 0.00000000000000000 -10.00000000000000000 1.00000000000000000 0.00000000000000000 
1 0.00000000000000000 0.00000000000000000 1.00000000000000000 0.00000000000000000 
1 0.00000000000000000 -15.00000000000000000 1.00000000000000000 0.00000000000000000 
1 0.00000000000000000 0.00000000000000000 1.00000000000000000 0.00000000000000000 
1 0.00000000000000000 -15.00000000000000000 1.00000000000000000 0.00000000000000000 
1 0.00000000000000000 0.00000000000000000 1.00000000000000000 0.00000000000000000 
1 0.00000000000000000 -15.00000000000000000 1.00000000000000000 0.00000000000000000 
1 0.00000000000000000 0.00000000000000000 1.00000000000000000 0.00000000000000000 
1 0.00000000000000000 -15.00000000000000000 1.00000000000000000 0.00000000000000000 
1 0.00000000000000000 0.00000000000000000 0.00000000000000000 -1.00000000000000000 
1 6.28318530717958623 0.00000000000000000 0.00000000000000000 -1.00000000000000000 
1 0.00000000000000000 0.00000000000000000 1.00000000000000000 0.00000000000000000 
1 0.00000000000000000 -10.00000000000000000 1.00000000000000000 0.00000000000000000 
2 0.00000000000000000 -30.00000000000001421 1.00000000000000000 0.00000000000000022 -0.00000000000000022 1.00000000000000000 5.00000000000000000
1 0.00000000000000000 0.00000000000000000 1.00000000000000000 0.00000000000000000 
1 0.00000000000000000 -10.00000000000000000 1.00000000000000000 0.00000000000000000 
1 0.00000000000000000 0.00000000000000000 1.00000000000000000 0.00000000000000000 
1 0.00000000000000000 -10.00000000000000000 1.00000000000000000 0.00000000000000000 
1 0.00000000000000000 0.00000000000000000 1.00000000000000000 0.00000000000000000 
1 0.00000000000000000 -15.00000000000000000 1.00000000000000000 0.00000000000000000 
1 0.00000000000000000 0.00000000000000000 1.00000000000000000 0.00000000000000000 
1 0.00000000000000000 -15.00000000000000000 1.00000000000000000 0.00000000000000000 
1 0.00000000000000000 0.00000000000000000 1.00000000000000000 0.00000000000000000 
1 0.00000000000000000 -15.00000000000000000 1.00000000000000000 0.00000000000000000 
1 0.00000000000000000 0.00000000000000000 1.00000000000000000 0.00000000000000000 
1 0.00000000000000000 -15.00000000000000000 1.00000000000000000 0.00000000000000000 
1 0.00000000000000000 0.00000000000000000 0.00000000000000000 -1.00000000000000000 
1 6.28318530717958623 0.00000000000000000 0.00000000000000000 -1.00000000000000000 
1 0.00000000000000000 0.00000000000000000 1.00000000000000000 0.00000000000000000 
1 0.00000000000000000 -10.00000000000000000 1.00000000000000000 0.00000000000000000 
2 0.00000000000000000 30.00000000000000000 1.00000000000000000 0.00000000000000022 -0.00000000000000022 1.00000000000000000 5.00000000000000000
1 0.00000000000000000 0.00000000000000000 1.00000000000000000 0.00000000000000000 
1 0.00000000000000000 -10.00000000000000000 1.00000000000000000 0.00000000000000000 
1 0.00000000000000000 0.00000000000000000 1.00000000000000000 0.00000000000000000 
1 0.00000000000000000 -10.00000000000000000 1.00000000000000000 0.00000000000000000 
1 0.00000000000000000 0.00000000000000000 1.00000000000000000 0.00000000000000000 
1 0.00000000000000000 -15.00000000000000000 1.00000000000000000 0.00000000000000000 
1 0.00000000000000000 0.00000000000000000 1.00000000000000000 0.00000000000000000 
1 0.00000000000000000 -15.00000000000000000 1.00000000000000000 0.00000000000000000 
1 0.00000000000000000 0.00000000000000000 1.00000000000000000 0.00000000000000000 
1 0.00000000000000000 -15.00000000000000000 1.00000000000000000 0.00000000000000000 
1 0.00000000000000000 0.00000000000000000 1.00000000000000000 0.00000000000000000 
1 0.00000000000000000 -15.00000000000000000 1.00000000000000000 0.00000000000000000 
Curves 12
1 3681.00000000000000000 3436.56403258783666388 -0.00000000000000000 -1.00000000000000000 0.00000000000000022 -0.00000000000000000 
1 3681.00000000000000000 3376.56403258783666388 -0.00000000000000000 -1.00000000000000000 0.00000000000000022 -0.00000000000000000 
1 3436.56403258783666388 0.00000000000000000 0.00000000000000000 -1.00000000000000000 0.00000000000000000 0.00000000000000000 
1 3681.00000000000000000 3376.56403258783666388 -140.00000000000000000 -1.00000000000000000 0.00000000000000022 -0.00000000000000000 
1 3376.56403258783666388 0.00000000000000000 0.00000000000000000 0.00000000000000000 -1.00000000000000000 0.00000000000000000 
1 3681.00000000000000000 3436.56403258783666388 -140.00000000000000000 -1.00000000000000000 0.00000000000000022 -0.00000000000000000 
1 3376.56403258783666388 -140.00000000000000000 0.00000000000000000 1.00000000000000000 0.00000000000000000 0.00000000000000000 
1 3436.56403258783666388 -140.00000000000000000 0.00000000000000000 0.00000000000000000 1.00000000000000000 0.00000000000000000 
1 3681.00000000000000000 3411.56403258783666388 -100.00000000000001421 -1.00000000000000000 0.00000000000000022 -0.00000000000000000 
2 3406.56403258783666388 -100.00000000000001421 0.00000000000000000 0.00000000000000000 0.00000000000000000 1.00000000000000000 1.00000000000000000 0.00000000000000000 -0.00000000000000000 -0.00000000000000000 1.00000000000000000 0.00000000000000000 5.00000000000000000
1 3681.00000000000000000 3411.56403258783666388 -40.00000000000000000 -1.00000000000000000 0.00000000000000022 -0.00000000000000000 
2 3406.56403258783666388 -40.00000000000000000 0.00000000000000000 0.00000000000000000 0.00000000000000000 1.00000000000000000 1.00000000000000000 0.00000000000000000 -0.00000000000000000 -0.00000000000000000 1.00000000000000000 0.00000000000000000 5.00000000000000000
Polygon3D 0
PolygonOnTriangulations 0
Surfaces 38
1 3681.00000000000000000 3436.56403258783666388 -0.00000000000000000 -0.00000000000000000 0.00000000000000000 1.00000000000000000 -0.00000000000000022 -1.00000000000000000 0.00000000000000000 1.00000000000000000 -0.00000000000000022 0.00000000000000000 
1 3681.00000000000000000 3436.56403258783666388 -140.00000000000000000 0.00000000000000022 1.00000000000000000 -0.00000000000000000 0.00000000000000000 0.00000000000000000 1.00000000000000000 1.00000000000000000 -0.00000000000000022 0.00000000000000000 
1 1869.74047976412657590 -0.00000000000095062 4281.19956248293055978 0.00000000000000000 1.00000000000000000 0.00000000000000022 0.00000000000000000 -0.00000000000000022 1.00000000000000000 1.00000000000000000 0.00000000000000000 -0.00000000000000000 
1 3681.00000000000000000 3376.56403258783666388 -0.00000000000000000 -0.00000000000000022 -1.00000000000000000 0.00000000000000000 0.00000000000000000 -0.00000000000000000 -1.00000000000000000 1.00000000000000000 -0.00000000000000022 0.00000000000000000 
1 3681.00000000000000000 3436.56403258783666388 -0.00000000000000000 0.00000000000000000 -0.00000000000000000 -1.00000000000000000 -0.00000000000000022 -1.00000000000000000 0.00000000000000000 -1.00000000000000000 0.00000000000000022 -0.00000000000000000 
1 3681.00000000000000000 69.99999999999924682 3406.56403258783666388 1.00000000000000000 0.00000000000000000 0.00000000000000000 -0.00000000000000000 0.00000000000000000 1.00000000000000000 0.00000000000000000 -1.00000000000000000 0.00000000000000000 
1 3681.00000000000000000 3436.56403258783666388 -0.00000000000000000 0.00000000000000000 -0.00000000000000000 -1.00000000000000000 -0.00000000000000022 -1.00000000000000000 0.00000000000000000 -1.00000000000000000 0.00000000000000022 -0.00000000000000000 
1 3681.00000000000000000 3436.56403258783666388 -0.00000000000000000 -0.00000000000000000 0.00000000000000000 1.00000000000000000 -0.00000000000000022 -1.00000000000000000 0.00000000000000000 1.00000000000000000 -0.00000000000000022 0.00000000000000000 
1 3681.00000000000000000 3436.56403258783666388 -0.00000000000000000 -0.00000000000000000 0.00000000000000000 1.00000000000000000 -0.00000000000000022 -1.00000000000000000 0.00000000000000000 1.00000000000000000 -0.00000000000000022 0.00000000000000000 
1 3681.00000000000000000 3436.56403258783666388 -0.00000000000000000 -0.00000000000000000 0.00000000000000000 1.00000000000000000 -0.00000000000000022 -1.00000000000000000 0.00000000000000000 1.00000000000000000 -0.00000000000000022 0.00000000000000000 
1 3681.00000000000000000 3436.56403258783666388 -0.00000000000000000 -0.00000000000000000 0.00000000000000000 1.00000000000000000 -0.00000000000000022 -1.00000000000000000 0.00000000000000000 1.00000000000000000 -0.00000000000000022 0.00000000000000000 
1 3681.00000000000000000 3376.56403258783666388 -0.00000000000000000 0.00000000000000022 1.00000000000000000 -0.00000000000000000 0.00000000000000000 -0.00000000000000000 -1.00000000000000000 -1.00000000000000000 0.00000000000000022 -0.00000000000000000 
1 3681.00000000000000000 3376.56403258783666388 -0.00000000000000000 0.00000000000000022 1.00000000000000000 -0.00000000000000000 0.00000000000000000 -0.00000000000000000 -1.00000000000000000 -1.00000000000000000 0.00000000000000022 -0.00000000000000000 
1 3681.00000000000000000 3376.56403258783666388 -0.00000000000000000 -0.00000000000000022 -1.00000000000000000 0.00000000000000000 0.00000000000000000 -0.00000000000000000 -1.00000000000000000 1.00000000000000000 -0.00000000000000022 0.00000000000000000 
1 3681.00000000000000000 3376.56403258783666388 -0.00000000000000000 -0.00000000000000022 -1.00000000000000000 0.00000000000000000 0.00000000000000000 -0.00000000000000000 -1.00000000000000000 1.00000000000000000 -0.00000000000000022 0.00000000000000000 
1 3681.00000000000000000 3376.56403258783666388 -0.00000000000000000 -0.00000000000000022 -1.00000000000000000 0.00000000000000000 0.00000000000000000 -0.00000000000000000 -1.00000000000000000 1.00000000000000000 -0.00000000000000022 0.00000000000000000 
1 3681.00000000000000000 3376.56403258783666388 -0.00000000000000000 -0.00000000000000022 -1.00000000000000000 0.00000000000000000 0.00000000000000000 -0.00000000000000000 -1.00000000000000000 1.00000000000000000 -0.00000000000000022 0.00000000000000000 
1 3681.00000000000000000 3376.56403258783666388 -140.00000000000000000 0.00000000000000000 -0.00000000000000000 -1.00000000000000000 0.00000000000000022 1.00000000000000000 0.00000000000000000 1.00000000000000000 -0.00000000000000022 0.00000000000000000 
1 3681.00000000000000000 3436.56403258783666388 -140.00000000000000000 -0.00000000000000022 -1.00000000000000000 0.00000000000000000 0.00000000000000000 0.00000000000000000 1.00000000000000000 -1.00000000000000000 0.00000000000000022 0.00000000000000000 
1 3681.00000000000000000 3436.56403258783666388 -140.00000000000000000 -0.00000000000000022 -1.00000000000000000 0.00000000000000000 0.00000000000000000 0.00000000000000000 1.00000000000000000 -1.00000000000000000 0.00000000000000022 0.00000000000000000 
1 3681.00000000000000000 3436.56403258783666388 -140.00000000000000000 0.00000000000000022 1.00000000000000000 -0.00000000000000000 0.00000000000000000 0.00000000000000000 1.00000000000000000 1.00000000000000000 -0.00000000000000022 0.00000000000000000 
1 3681.00000000000000000 3436.56403258783666388 -140.00000000000000000 0.00000000000000022 1.00000000000000000 -0.00000000000000000 0.00000000000000000 0.00000000000000000 1.00000000000000000 1.00000000000000000 -0.00000000000000022 0.00000000000000000 
1 3681.00000000000000000 3436.56403258783666388 -140.00000000000000000 0.00000000000000022 1.00000000000000000 -0.00000000000000000 0.00000000000000000 0.00000000000000000 1.00000000000000000 1.00000000000000000 -0.00000000000000022 0.00000000000000000 
1 3681.00000000000000000 3436.56403258783666388 -140.00000000000000000 0.00000000000000022 1.00000000000000000 -0.00000000000000000 0.00000000000000000 0.00000000000000000 1.00000000000000000 1.00000000000000000 -0.00000000000000022 0.00000000000000000 
2 3681.00000000000000000 3406.56403258783666388 -100.00000000000001421 1.00000000000000000 -0.00000000000000022 0.00000000000000000 0.00000000000000022 1.00000000000000000 0.00000000000000000 -0.00000000000000000 0.00000000000000000 1.00000000000000000 5.00000000000000000
2 3681.00000000000000000 3406.56403258783666388 -100.00000000000001421 -1.00000000000000000 0.00000000000000022 -0.00000000000000000 0.00000000000000022 1.00000000000000000 -0.00000000000000000 -0.00000000000000000 0.00000000000000000 1.00000000000000000 5.00000000000000000
2 3681.00000000000000000 3406.56403258783666388 -100.00000000000001421 -1.00000000000000000 0.00000000000000022 -0.00000000000000000 0.00000000000000022 1.00000000000000000 -0.00000000000000000 -0.00000000000000000 0.00000000000000000 1.00000000000000000 5.00000000000000000
2 3681.00000000000000000 3406.56403258783666388 -100.00000000000001421 1.00000000000000000 -0.00000000000000022 0.00000000000000000 0.00000000000000022 1.00000000000000000 0.00000000000000000 -0.00000000000000000 0.00000000000000000 1.00000000000000000 5.00000000000000000
2 3681.00000000000000000 3406.56403258783666388 -100.00000000000001421 1.00000000000000000 -0.00000000000000022 0.00000000000000000 0.00000000000000022 1.00000000000000000 0.00000000000000000 -0.00000000000000000 0.00000000000000000 1.00000000000000000 5.00000000000000000
2 3681.00000000000000000 3406.56403258783666388 -100.00000000000001421 1.00000000000000000 -0.00000000000000022 0.00000000000000000 0.00000000000000022 1.00000000000000000 0.00000000000000000 -0.00000000000000000 0.00000000000000000 1.00000000000000000 5.00000000000000000
2 3681.00000000000000000 3406.56403258783666388 -100.00000000000001421 1.00000000000000000 -0.00000000000000022 0.00000000000000000 0.00000000000000022 1.00000000000000000 0.00000000000000000 -0.00000000000000000 0.00000000000000000 1.00000000000000000 5.00000000000000000
2 3681.00000000000000000 3406.56403258783666388 -40.00000000000000000 1.00000000000000000 -0.00000000000000022 0.00000000000000000 0.00000000000000022 1.00000000000000000 0.00000000000000000 -0.00000000000000000 0.00000000000000000 1.00000000000000000 5.00000000000000000
2 3681.00000000000000000 3406.56403258783666388 -40.00000000000000000 -1.00000000000000000 0.00000000000000022 -0.00000000000000000 0.00000000000000022 1.00000000000000000 -0.00000000000000000 -0.00000000000000000 0.00000000000000000 1.00000000000000000 5.00000000000000000
2 3681.00000000000000000 3406.56403258783666388 -40.00000000000000000 -1.00000000000000000 0.00000000000000022 -0.00000000000000000 0.00000000000000022 1.00000000000000000 -0.00000000000000000 -0.00000000000000000 0.00000000000000000 1.00000000000000000 5.00000000000000000
2 3681.00000000000000000 3406.56403258783666388 -40.00000000000000000 1.00000000000000000 -0.00000000000000022 0.00000000000000000 0.00000000000000022 1.00000000000000000 0.00000000000000000 -0.00000000000000000 0.00000000000000000 1.00000000000000000 5.00000000000000000
2 3681.00000000000000000 3406.56403258783666388 -40.00000000000000000 1.00000000000000000 -0.00000000000000022 0.00000000000000000 0.00000000000000022 1.00000000000000000 0.00000000000000000 -0.00000000000000000 0.00000000000000000 1.00000000000000000 5.00000000000000000
2 3681.00000000000000000 3406.56403258783666388 -40.00000000000000000 1.00000000000000000 -0.00000000000000022 0.00000000000000000 0.00000000000000022 1.00000000000000000 0.00000000000000000 -0.00000000000000000 0.00000000000000000 1.00000000000000000 5.00000000000000000
2 3681.00000000000000000 3406.56403258783666388 -40.00000000000000000 1.00000000000000000 -0.00000000000000022 0.00000000000000000 0.00000000000000022 1.00000000000000000 0.00000000000000000 -0.00000000000000000 0.00000000000000000 1.00000000000000000 5.00000000000000000
Triangulations 0

TShapes 36
Ve
0.000000100000909
3436.564032587836664 0.000000000000000 0.000000000000000
0 0

0101101
*
Ed
 0.000000100000909 1 1 0
1  1 0 0.000000000000000 15.000000000000000
2  1 1 0 0.000000000000000 15.000000000000000
2  2 2 0 0.000000000000000 15.000000000000000
2  3 3 6 0.000000000000000 15.000000000000000
0

0101000
+36 9 -36 11 *
Ve
0.000000100000000
3376.564032587836664 0.000000000000000 0.000000000000000
0 0

0101101
*
Ed
 0.000000100000000 1 1 0
1  2 0 0.000000000000000 15.000000000000000
2  4 1 0 0.000000000000000 15.000000000000000
2  5 4 0 0.000000000000000 15.000000000000000
0

0101000
+34 9 -34 11 *
Ed
 0.000000100000000 1 1 0
1  3 0 0.000000000000000 60.000000000000000
2  6 5 15 0.000000000000000 60.000000000000000
2  7 5 17 0.000000000000000 60.000000000000000
2  8 6 18 0.000000000000000 60.000000000000000
2  9 7 22 0.000000000000000 60.000000000000000
2  10 7 24 0.000000000000000 60.000000000000000
2  11 8 28 0.000000000000000 60.000000000000000
2  12 8 30 0.000000000000000 60.000000000000000
2  13 3 31 0.000000000000000 60.000000000000000
2  14 9 35 0.000000000000000 60.000000000000000
2  15 9 37 0.000000000000000 60.000000000000000
2  16 3 38 0.000000000000000 60.000000000000000
2  17 10 42 0.000000000000000 60.000000000000000
2  18 10 44 0.000000000000000 60.000000000000000
2  19 3 45 0.000000000000000 60.000000000000000
2  20 11 49 0.000000000000000 60.000000000000000
2  21 11 51 0.000000000000000 60.000000000000000
2  22 3 52 0.000000000000000 60.000000000000000
2  23 1 53 0.000000000000000 60.000000000000000
2  24 1 54 0.000000000000000 60.000000000000000
2  25 3 55 0.000000000000000 60.000000000000000
0

0101000
+36 0 -34 0 *
Wi

0101100
+35 0 -33 0 -32 9 +32 11 *
Fa
0  0.000000100000000 1 0

0111000
+31 0 *
Ve
0.000000100000000
3376.564032587836664 -140.000000000000000 0.000000000000000
0 0

0101101
*
Ed
 0.000000100000000 1 1 0
1  4 0 0.000000000000000 15.000000000000000
2  26 4 0 0.000000000000000 15.000000000000000
0

0101000
+29 9 -29 11 *
Ed
 0.000000100000000 1 1 0
1  5 0 0.000000000000000 140.000000000000000
2  27 12 15 0.000000000000000 140.000000000000000
2  28 12 17 0.000000000000000 140.000000000000000
2  29 6 18 0.000000000000000 140.000000000000000
2  30 13 22 0.000000000000000 140.000000000000000
2  31 13 24 0.000000000000000 140.000000000000000
2  32 14 28 0.000000000000000 140.000000000000000
2  33 14 30 0.000000000000000 140.000000000000000
2  34 15 35 0.000000000000000 140.000000000000000
2  35 15 37 0.000000000000000 140.000000000000000
2  36 16 42 0.000000000000000 140.000000000000000
2  37 16 44 0.000000000000000 140.000000000000000
2  38 17 49 0.000000000000000 140.000000000000000
2  39 17 51 0.000000000000000 140.000000000000000
2  40 4 53 0.000000000000000 140.000000000000000
2  41 4 54 0.000000000000000 140.000000000000000
0

0101000
+34 0 -29 0 *
Wi

0101100
+33 0 -28 0 -27 9 +27 11 *
Fa
0  0.000000100000000 4 0

0111000
+26 0 *
Ve
0.000000100000000
3436.564032587836664 -140.000000000000000 0.000000000000000
0 0

0101101
*
Ed
 0.000000100000000 1 1 0
1  6 0 0.000000000000000 15.000000000000000
2  42 2 0 0.000000000000000 15.000000000000000
0

0101000
+24 9 -24 11 *
Ed
 0.000000100000000 1 1 0
1  7 0 0.000000000000000 60.000000000000000
2  43 6 18 0.000000000000000 60.000000000000000
0

0101000
+29 0 -24 0 *
Wi

0101100
+28 0 -23 0 -22 9 +22 11 *
Fa
0  0.000000100000000 18 0

0111000
+21 0 *
Ed
 0.000000100000000 1 1 0
1  8 0 0.000000000000000 140.000000000000000
2  44 6 18 0.000000000000000 140.000000000000000
2  45 19 15 0.000000000000000 140.000000000000000
2  46 19 17 0.000000000000000 140.000000000000000
2  47 20 22 0.000000000000000 140.000000000000000
2  48 20 24 0.000000000000000 140.000000000000000
2  49 21 28 0.000000000000000 140.000000000000000
2  50 21 30 0.000000000000000 140.000000000000000
2  51 22 35 0.000000000000000 140.000000000000000
2  52 22 37 0.000000000000000 140.000000000000000
2  53 23 42 0.000000000000000 140.000000000000000
2  54 23 44 0.000000000000000 140.000000000000000
2  55 24 49 0.000000000000000 140.000000000000000
2  56 24 51 0.000000000000000 140.000000000000000
2  57 2 53 0.000000000000000 140.000000000000000
2  58 2 54 0.000000000000000 140.000000000000000
0

0101000
+24 0 -36 0 *
Wi

0101100
+23 0 -35 0 -19 9 +19 11 *
Fa
0  0.000000100000000 2 0

0111000
+18 0 *
Ve
0.000000100000000
3411.564032587836664 -100.000000000000014 0.000000000000000
0 0

0101101
*
Ed
 0.000000100000000 1 1 0
1  9 0 0.000000000000000 15.000000000000000
3  59 60CN 25 0 0.000000000000000 15.000000000000000
0

0101000
+16 9 -16 11 *
Ed
 0.000000100000000 1 1 0
1  10 0 0.000000000000000 6.283185307179586
2  61 26 15 0.000000000000000 6.283185307179586
2  62 26 17 0.000000000000000 6.283185307179586
2  63 6 18 0.000000000000000 6.283185307179586
2  64 27 22 0.000000000000000 6.283185307179586
2  65 27 24 0.000000000000000 6.283185307179586
2  66 28 28 0.000000000000000 6.283185307179586
2  67 28 30 0.000000000000000 6.283185307179586
2  68 29 35 0.000000000000000 6.283185307179586
2  69 29 37 0.000000000000000 6.283185307179586
2  70 30 42 0.000000000000000 6.283185307179586
2  71 30 44 0.000000000000000 6.283185307179586
2  72 31 49 0.000000000000000 6.283185307179586
2  73 31 51 0.000000000000000 6.283185307179586
2  74 25 53 0.000000000000000 6.283185307179586
2  75 25 54 0.000000000000000 6.283185307179586
0

0101000
+16 0 -16 0 *
Wi

0101100
+15 0 -15 0 -14 9 +14 11 *
Fa
0  0.000000100000000 25 0

0111000
+13 0 *
Ve
0.000000100000000
3411.564032587836664 -40.000000000000000 0.000000000000000
0 0

0101101
*
Ed
 0.000000100000000 1 1 0
1  11 0 0.000000000000000 15.000000000000000
3  76 77CN 32 0 0.000000000000000 15.000000000000000
0

0101000
+11 9 -11 11 *
Ed
 0.000000100000000 1 1 0
1  12 0 0.000000000000000 6.283185307179586
2  78 33 15 0.000000000000000 6.283185307179586
2  79 33 17 0.000000000000000 6.283185307179586
2  80 6 18 0.000000000000000 6.283185307179586
2  81 34 22 0.000000000000000 6.283185307179586
2  82 34 24 0.000000000000000 6.283185307179586
2  83 35 28 0.000000000000000 6.283185307179586
2  84 35 30 0.000000000000000 6.283185307179586
2  85 36 35 0.000000000000000 6.283185307179586
2  86 36 37 0.000000000000000 6.283185307179586
2  87 37 42 0.000000000000000 6.283185307179586
2  88 37 44 0.000000000000000 6.283185307179586
2  89 38 49 0.000000000000000 6.283185307179586
2  90 38 51 0.000000000000000 6.283185307179586
2  91 32 53 0.000000000000000 6.283185307179586
2  92 32 54 0.000000000000000 6.283185307179586
0

0101000
+11 0 -11 0 *
Wi

0101100
+10 0 -10 0 -9 9 +9 11 *
Fa
0  0.000000100000000 32 0

0111000
+8 0 *
Wi

0101100
+32 58 +27 58 +22 58 +19 58 *
Wi

0101100
-14 58 *
Wi

0101100
-9 58 *
Fa
0  0.000000100000000 6 57

0111000
+6 0 +5 0 +4 0 *
Sh

0101100
+30 0 +25 0 +20 0 +17 0 -12 0 -7 0 +3 56 -3 59 *
So

1100000
+2 0 *

+1 0 