
CASCADE Topology V1, (c) Matra-Datavision
Locations 52
1
1.000000000000000 0.000000000000000 0.000000000000000 3110.000000000000000 
0.000000000000000 1.000000000000000 0.000000000000000 0.000000000000000 
0.000000000000000 0.000000000000000 1.000000000000000 0.000000000000000 
1
0.000000000000000 0.000000000000000 1.000000000000000 0.000000000000000 
1.000000000000000 0.000000000000000 0.000000000000000 0.000000000000000 
0.000000000000000 1.000000000000000 0.000000000000000 0.000000000000000 
1
0.000000000000000 0.000000000000000 1.000000000000000 0.000000000000000 
1.000000000000000 0.000000000000000 0.000000000000000 0.000000000000000 
0.000000000000000 1.000000000000000 0.000000000000000 0.000000000000000 
1
0.000000000000000 0.000000000000000 1.000000000000000 0.000000000000000 
1.000000000000000 0.000000000000000 0.000000000000000 0.000000000000000 
0.000000000000000 1.000000000000000 0.000000000000000 0.000000000000000 
1
0.000000000000000 0.000000000000000 1.000000000000000 0.000000000000000 
1.000000000000000 0.000000000000000 0.000000000000000 0.000000000000000 
0.000000000000000 1.000000000000000 0.000000000000000 0.000000000000000 
2  2 1 3 -1 4 1 5 -1 0
1
0.000000000000000 0.000000000000000 1.000000000000000 0.000000000000000 
1.000000000000000 0.000000000000000 0.000000000000000 0.000000000000000 
0.000000000000000 1.000000000000000 0.000000000000000 0.000000000000000 
2  7 -1 5 1 4 -1 3 1 2 -1 0
1
1.000000000000000 0.000000000000000 0.000000000000000 0.000000000000000 
0.000000000000000 1.000000000000000 0.000000000000000 0.000000000000000 
0.000000000000000 0.000000000000000 1.000000000000000 0.000000000000000 
1
0.000000000000000 -0.000000000000000 1.000000000000000 0.000000000000000 
1.000000000000000 0.000000000000000 -0.000000000000000 0.000000000000000 
-0.000000000000000 1.000000000000000 0.000000000000000 0.000000000000000 
1
-0.000000000000000 0.000000000000000 1.000000000000000 0.000000000000000 
1.000000000000000 -0.000000000000000 0.000000000000000 0.000000000000000 
0.000000000000000 1.000000000000000 -0.000000000000000 0.000000000000000 
2  9 1 10 1 11 -1 0
2  7 -1 5 1 4 -1 3 1 2 -1 11 1 10 -1 9 -1 0
1
1.000000000000000 0.000000000000000 0.000000000000000 -0.000000000000007 
0.000000000000000 1.000000000000000 0.000000000000000 0.000000000000004 
0.000000000000000 0.000000000000000 1.000000000000000 15.000000000000000 
2  9 1 10 1 11 -1 14 1 0
2  7 -1 5 1 4 -1 3 1 2 -1 14 -1 11 1 10 -1 9 -1 0
2  11 -1 2 1 3 -1 4 1 5 -1 0
2  9 1 10 1 11 -1 2 1 3 -1 4 1 5 -1 0
1
1.000000000000000 0.000000000000000 0.000000000000000 0.000000000000000 
0.000000000000000 1.000000000000000 0.000000000000000 0.000000000000000 
0.000000000000000 0.000000000000000 1.000000000000000 0.000000000000000 
1
0.000000000000000 0.000000000000000 -1.000000000000000 -0.000000000000012 
1.000000000000000 -0.000000000000000 0.000000000000000 0.000000000000000 
0.000000000000000 -1.000000000000000 -0.000000000000000 -0.000000000000000 
2  19 1 20 1 5 -1 0
2  7 -1 5 1 20 -1 19 -1 0
1
1.000000000000000 0.000000000000000 0.000000000000000 0.000000000000000 
0.000000000000000 1.000000000000000 0.000000000000000 0.000000000000000 
0.000000000000000 0.000000000000000 1.000000000000000 0.000000000000000 
1
0.000000000000000 0.000000000000000 -1.000000000000000 0.000000000000897 
1.000000000000000 0.000000000000000 0.000000000000000 -0.000000000000000 
0.000000000000000 -1.000000000000000 -0.000000000000000 0.000000000000000 
2  23 1 24 1 3 -1 4 1 5 -1 0
2  7 -1 5 1 4 -1 3 1 24 -1 23 -1 0
2  11 -1 14 1 2 1 3 -1 4 1 5 -1 0
2  9 1 10 1 11 -1 14 1 2 1 3 -1 4 1 5 -1 0
1
1.000000000000000 0.000000000000000 0.000000000000000 -0.000000000000003 
0.000000000000000 1.000000000000000 0.000000000000000 0.000000000000004 
0.000000000000000 0.000000000000000 1.000000000000000 15.000000000000000 
2  19 1 20 1 5 -1 29 1 0
2  7 -1 29 -1 5 1 20 -1 19 -1 0
1
1.000000000000000 0.000000000000000 0.000000000000000 -0.000000000000002 
0.000000000000000 1.000000000000000 0.000000000000000 0.000000000000006 
0.000000000000000 0.000000000000000 1.000000000000000 15.000000000000000 
2  23 1 24 1 3 -1 32 1 4 1 5 -1 0
2  7 -1 5 1 4 -1 32 -1 3 1 24 -1 23 -1 0
2  4 1 5 -1 0
2  2 1 3 -1 0
2  9 1 10 1 11 -1 2 1 3 -1 0
2  9 1 10 1 11 -1 14 1 2 1 3 -1 0
2  7 -1 5 1 4 -1 0
2  7 -1 0
2  5 -1 0
2  19 1 20 1 0
2  5 1 20 -1 19 -1 0
2  3 -1 4 1 5 -1 0
2  23 1 24 1 0
2  3 1 24 -1 23 -1 0
2  5 -1 29 1 0
2  29 -1 5 1 20 -1 19 -1 0
2  3 -1 32 1 4 1 5 -1 0
2  32 -1 3 1 24 -1 23 -1 0
2  23 1 24 1 3 -1 0
2  23 1 24 1 3 -1 32 1 0
Curve2ds 16
1 0.00000000000000000 0.00000000000000000 1.00000000000000000 0.00000000000000000 
1 0.00000000000000000 0.00000000000000000 1.00000000000000000 0.00000000000000000 
1 0.00000000000000000 0.00000000000000000 1.00000000000000000 0.00000000000000000 
1 0.00000000000000000 0.00000000000000000 1.00000000000000000 0.00000000000000000 
1 0.00000000000000000 -15.00000000000000000 1.00000000000000000 0.00000000000000000 
1 0.00000000000000000 -15.00000000000000000 1.00000000000000000 0.00000000000000000 
1 0.00000000000000000 -15.00000000000000000 1.00000000000000000 0.00000000000000000 
1 0.00000000000000000 -15.00000000000000000 1.00000000000000000 0.00000000000000000 
1 0.00000000000000000 0.00000000000000000 0.00000000000000000 -1.00000000000000000 
1 6.28318530717958623 0.00000000000000000 0.00000000000000000 -1.00000000000000000 
1 0.00000000000000000 0.00000000000000000 0.00000000000000000 -1.00000000000000000 
1 6.28318530717958623 0.00000000000000000 0.00000000000000000 -1.00000000000000000 
1 0.00000000000000000 0.00000000000000000 0.00000000000000000 -1.00000000000000000 
1 6.28318530717958623 0.00000000000000000 0.00000000000000000 -1.00000000000000000 
1 0.00000000000000000 0.00000000000000000 0.00000000000000000 -1.00000000000000000 
1 6.28318530717958623 0.00000000000000000 0.00000000000000000 -1.00000000000000000 
Curves 52
1 -0.00000000000222289 -801.99999999999954525 5872.00050000000101136 1.00000000000000000 -0.00000000000000033 0.00000000000000039 
1 -0.00000000000187983 228.00000000000076739 5872.00050000000101136 1.00000000000000000 -0.00000000000000033 0.00000000000000039 
1 0.00000000000056288 -802.00000000000056843 5872.00050000000010186 0.00000000000000011 1.00000000000000000 0.00000000000000011 
1 15.00000000000056843 -802.00000000000056843 5857.00050000000010186 0.00000000000000011 1.00000000000000000 0.00000000000000011 
1 -0.00000000000213962 -801.99999999999965894 5622.00050000000101136 1.00000000000000000 -0.00000000000000033 0.00000000000000039 
1 0.00000000000053513 -802.00000000000068212 5622.00050000000010186 0.00000000000000011 0.00000000000000011 1.00000000000000000 
1 15.00000000000054001 -802.00000000000068212 5607.00050000000010186 0.00000000000000011 0.00000000000000011 1.00000000000000000 
1 -0.00000000000179656 228.00000000000068212 5622.00050000000101136 1.00000000000000000 -0.00000000000000033 0.00000000000000039 
1 0.00000000000067724 227.99999999999940314 5872.00050000000010186 -0.00000000000000011 -0.00000000000000011 -1.00000000000000000 
1 15.00000000000068212 227.99999999999940314 5857.00050000000010186 -0.00000000000000011 -0.00000000000000011 -1.00000000000000000 
1 0.00000000000064948 227.99999999999937472 5622.00050000000010186 -0.00000000000000011 -1.00000000000000000 -0.00000000000000011 
1 0.00000000000034637 -167.99999999999724309 -5622.00050000000101136 -0.00000000000000028 1.00000000000000000 0.00000000000000028 
1 0.00000000000064948 227.99999999999937472 5622.00050000000010186 -0.00000000000000011 -1.00000000000000000 -0.00000000000000011 
1 -0.00000000000051616 742.00000000000250111 -5622.00050000000010186 0.00000000000000022 -1.00000000000000000 -0.00000000000000056 
1 0.00000000000064948 227.99999999999937472 5622.00050000000010186 -0.00000000000000011 -1.00000000000000000 -0.00000000000000011 
1 15.00000000000065548 227.99999999999937472 5607.00050000000010186 -0.00000000000000011 -1.00000000000000000 -0.00000000000000011 
1 15.00000000000034639 -167.99999999999724309 -5607.00050000000101136 -0.00000000000000028 1.00000000000000000 0.00000000000000028 
1 15.00000000000065548 227.99999999999937472 5607.00050000000010186 -0.00000000000000011 -1.00000000000000000 -0.00000000000000011 
1 14.99999999999948308 742.00000000000250111 -5607.00050000000010186 0.00000000000000022 -1.00000000000000000 -0.00000000000000056 
1 15.00000000000065548 227.99999999999937472 5607.00050000000010186 -0.00000000000000011 -1.00000000000000000 -0.00000000000000011 
1 -0.00000000000074586 -742.00000000000068212 5622.00050000000101136 1.00000000000000000 -0.00000000000000006 0.00000000000000044 
1 -0.00000000000121405 167.99999999999849365 5622.00050000000101136 1.00000000000000000 -0.00000000000000022 0.00000000000000028 
1 0.00000000000028087 52.00000000000274980 -5542.00050000000101136 0.00000000000000028 -1.00000000000000000 -0.00000000000000028 
1 0.00000000000034193 -167.99999999999727152 -5542.00050000000101136 0.00000000000000006 0.00000000000000017 -1.00000000000000000 
1 0.00000000000028531 52.00000000000276401 -5622.00050000000101136 -0.00000000000000006 -0.00000000000000017 1.00000000000000000 
2 0.00000000000029419 12.00000000000275513 -5582.00050000000101136 -1.00000000000000000 -0.00000000000000028 -0.00000000000000006 0.00000000000000028 -1.00000000000000000 -0.00000000000000028 -0.00000000000000006 -0.00000000000000028 1.00000000000000000 5.00000000000000000
2 0.00000000000033305 -127.99999999999725731 -5582.00050000000101136 -1.00000000000000000 -0.00000000000000028 -0.00000000000000006 0.00000000000000028 -1.00000000000000000 -0.00000000000000028 -0.00000000000000006 -0.00000000000000028 1.00000000000000000 5.00000000000000000
1 -0.00000000000072144 -522.00000000000068212 5622.00050000000101136 1.00000000000000000 -0.00000000000000006 0.00000000000000044 
1 -0.00000000000127511 -52.00000000000150635 5622.00050000000101136 1.00000000000000000 -0.00000000000000022 0.00000000000000028 
1 -0.00000000000046731 522.00000000000250111 -5622.00050000000010186 0.00000000000000022 -0.00000000000000033 1.00000000000000000 
1 -0.00000000000044955 522.00000000000250111 -5542.00050000000010186 -0.00000000000000022 1.00000000000000000 0.00000000000000056 
1 -0.00000000000049840 742.00000000000250111 -5542.00050000000010186 -0.00000000000000022 0.00000000000000033 -1.00000000000000000 
2 -0.00000000000046731 562.00000000000250111 -5582.00050000000010186 -1.00000000000000000 -0.00000000000000022 0.00000000000000022 0.00000000000000022 -1.00000000000000000 -0.00000000000000056 0.00000000000000022 -0.00000000000000056 1.00000000000000000 5.00000000000000000
2 -0.00000000000049840 702.00000000000250111 -5582.00050000000010186 -1.00000000000000000 -0.00000000000000022 0.00000000000000022 0.00000000000000022 -1.00000000000000000 -0.00000000000000056 0.00000000000000022 -0.00000000000000056 1.00000000000000000 5.00000000000000000
1 15.00000000000028066 52.00000000000274980 -5527.00050000000101136 0.00000000000000028 -1.00000000000000000 -0.00000000000000028 
1 15.00000000000034106 -167.99999999999727152 -5527.00050000000101136 0.00000000000000006 0.00000000000000017 -1.00000000000000000 
1 15.00000000000028599 52.00000000000276401 -5607.00050000000101136 -0.00000000000000006 -0.00000000000000017 1.00000000000000000 
2 15.00000000000029488 12.00000000000275868 -5567.00050000000101136 -1.00000000000000000 -0.00000000000000028 -0.00000000000000006 0.00000000000000028 -1.00000000000000000 -0.00000000000000028 -0.00000000000000006 -0.00000000000000028 1.00000000000000000 5.00000000000000000
2 15.00000000000033218 -127.99999999999725731 -5567.00050000000101136 -1.00000000000000000 -0.00000000000000028 -0.00000000000000006 0.00000000000000028 -1.00000000000000000 -0.00000000000000028 -0.00000000000000006 -0.00000000000000028 1.00000000000000000 5.00000000000000000
1 14.99999999999953282 522.00000000000250111 -5607.00050000000010186 0.00000000000000022 -0.00000000000000033 1.00000000000000000 
1 14.99999999999955058 522.00000000000250111 -5527.00050000000010186 -0.00000000000000022 1.00000000000000000 0.00000000000000056 
1 14.99999999999950084 742.00000000000250111 -5527.00050000000010186 -0.00000000000000022 0.00000000000000033 -1.00000000000000000 
2 14.99999999999953282 562.00000000000250111 -5567.00050000000010186 -1.00000000000000000 -0.00000000000000022 0.00000000000000022 0.00000000000000022 -1.00000000000000000 -0.00000000000000056 0.00000000000000022 -0.00000000000000056 1.00000000000000000 5.00000000000000000
2 14.99999999999950084 702.00000000000250111 -5567.00050000000010186 -1.00000000000000000 -0.00000000000000022 0.00000000000000022 0.00000000000000022 -1.00000000000000000 -0.00000000000000056 0.00000000000000022 -0.00000000000000056 1.00000000000000000 5.00000000000000000
1 -0.00000000000072366 -742.00000000000068212 5542.00050000000101136 1.00000000000000000 -0.00000000000000006 0.00000000000000044 
1 -0.00000000000119628 167.99999999999849365 5542.00050000000101136 1.00000000000000000 -0.00000000000000022 0.00000000000000028 
1 -0.00000000000125734 -52.00000000000152056 5542.00050000000101136 1.00000000000000000 -0.00000000000000022 0.00000000000000028 
1 -0.00000000000125374 -7.00000000000151612 5582.00050000000101136 1.00000000000000000 -0.00000000000000022 0.00000000000000028 
1 -0.00000000000121488 132.99999999999849365 5582.00050000000101136 1.00000000000000000 -0.00000000000000022 0.00000000000000028 
1 -0.00000000000069923 -522.00000000000068212 5542.00050000000101136 1.00000000000000000 -0.00000000000000006 0.00000000000000044 
1 -0.00000000000071422 -557.00000000000068212 5582.00050000000101136 1.00000000000000000 -0.00000000000000006 0.00000000000000044 
1 -0.00000000000072977 -697.00000000000068212 5582.00050000000101136 1.00000000000000000 -0.00000000000000006 0.00000000000000044 
Polygon3D 0
PolygonOnTriangulations 0
Surfaces 22
1 -0.00000000000222289 -801.99999999999954525 5872.00050000000101136 -0.00000000000000017 0.00000000000000055 1.00000000000000000 0.00000000000000033 1.00000000000000000 -0.00000000000000055 -1.00000000000000000 0.00000000000000033 -0.00000000000000017 
1 -0.00000000000213962 -801.99999999999965894 5622.00050000000101136 -0.00000000000000055 -1.00000000000000000 0.00000000000000011 -0.00000000000000033 0.00000000000000011 1.00000000000000000 -1.00000000000000000 0.00000000000000055 -0.00000000000000033 
1 -0.00000000000187983 228.00000000000076739 5872.00050000000101136 0.00000000000000055 1.00000000000000000 -0.00000000000000011 0.00000000000000033 -0.00000000000000011 -1.00000000000000000 -1.00000000000000000 0.00000000000000055 -0.00000000000000033 
1 5747.00050000000010186 -0.00000000000073364 -286.99999999999937472 -0.00000000000000033 -1.00000000000000000 0.00000000000000011 -0.00000000000000011 -0.00000000000000011 -1.00000000000000000 1.00000000000000000 -0.00000000000000033 -0.00000000000000011 
1 5732.00050000000010186 14.99999999999927169 -286.99999999999937472 -0.00000000000000033 -1.00000000000000000 0.00000000000000011 -0.00000000000000011 -0.00000000000000011 -1.00000000000000000 1.00000000000000000 -0.00000000000000033 -0.00000000000000011 
1 -0.00000000000179656 228.00000000000068212 5622.00050000000101136 0.00000000000000017 -0.00000000000000055 -1.00000000000000000 -0.00000000000000033 -1.00000000000000000 0.00000000000000055 -1.00000000000000000 0.00000000000000033 -0.00000000000000017 
1 -0.00000000000179656 228.00000000000068212 5622.00050000000101136 0.00000000000000017 -0.00000000000000055 -1.00000000000000000 -0.00000000000000033 -1.00000000000000000 0.00000000000000055 -1.00000000000000000 0.00000000000000033 -0.00000000000000017 
1 5582.00050000000101136 -0.00000000000092583 57.99999999999849365 0.00000000000000028 1.00000000000000000 -0.00000000000000017 0.00000000000000006 0.00000000000000017 1.00000000000000000 1.00000000000000000 -0.00000000000000028 -0.00000000000000006 
2 -0.00000000000125512 -12.00000000000151701 5582.00050000000101136 -1.00000000000000000 0.00000000000000028 -0.00000000000000022 0.00000000000000028 1.00000000000000000 0.00000000000000000 0.00000000000000022 -0.00000000000000000 -1.00000000000000000 5.00000000000000000
2 -0.00000000000121627 127.99999999999849365 5582.00050000000101136 -1.00000000000000000 0.00000000000000028 -0.00000000000000022 0.00000000000000028 1.00000000000000000 0.00000000000000000 0.00000000000000022 -0.00000000000000000 -1.00000000000000000 5.00000000000000000
1 -0.00000000000179656 228.00000000000068212 5622.00050000000101136 0.00000000000000017 -0.00000000000000055 -1.00000000000000000 -0.00000000000000033 -1.00000000000000000 0.00000000000000055 -1.00000000000000000 0.00000000000000033 -0.00000000000000017 
1 5582.00050000000101136 -0.00000000000041269 -632.00000000000068212 -0.00000000000000044 -1.00000000000000000 -0.00000000000000011 -1.00000000000000000 0.00000000000000044 -0.00000000000000011 0.00000000000000011 0.00000000000000011 -1.00000000000000000 
2 -0.00000000000071478 -562.00000000000068212 5582.00050000000101136 -1.00000000000000000 0.00000000000000000 -0.00000000000000039 -0.00000000000000000 1.00000000000000000 0.00000000000000017 0.00000000000000039 0.00000000000000017 -1.00000000000000000 5.00000000000000000
2 -0.00000000000073032 -702.00000000000068212 5582.00050000000101136 -1.00000000000000000 0.00000000000000000 -0.00000000000000039 -0.00000000000000000 1.00000000000000000 0.00000000000000017 0.00000000000000039 0.00000000000000017 -1.00000000000000000 5.00000000000000000
1 5567.00050000000101136 14.99999999999907629 57.99999999999848654 0.00000000000000028 1.00000000000000000 -0.00000000000000017 0.00000000000000006 0.00000000000000017 1.00000000000000000 1.00000000000000000 -0.00000000000000028 -0.00000000000000006 
1 5567.00050000000101136 14.99999999999958789 -632.00000000000068212 -0.00000000000000044 -1.00000000000000000 -0.00000000000000011 -1.00000000000000000 0.00000000000000044 -0.00000000000000011 0.00000000000000011 0.00000000000000011 -1.00000000000000000 
1 -0.00000000000072366 -742.00000000000068212 5542.00050000000101136 -0.00000000000000017 -1.00000000000000000 -0.00000000000000011 -0.00000000000000028 -0.00000000000000011 1.00000000000000000 -1.00000000000000000 0.00000000000000017 -0.00000000000000028 
1 -0.00000000000119628 167.99999999999849365 5542.00050000000101136 -0.00000000000000022 -1.00000000000000000 0.00000000000000006 -0.00000000000000022 0.00000000000000006 1.00000000000000000 -1.00000000000000000 0.00000000000000022 -0.00000000000000022 
1 -0.00000000000125734 -52.00000000000152056 5542.00050000000101136 -0.00000000000000028 0.00000000000000000 1.00000000000000000 0.00000000000000028 1.00000000000000000 0.00000000000000000 -1.00000000000000000 0.00000000000000028 -0.00000000000000028 
1 -0.00000000000127511 -52.00000000000151346 5622.00050000000101136 0.00000000000000022 1.00000000000000000 -0.00000000000000006 0.00000000000000022 -0.00000000000000006 -1.00000000000000000 -1.00000000000000000 0.00000000000000022 -0.00000000000000022 
1 -0.00000000000072144 -522.00000000000068212 5622.00050000000101136 0.00000000000000017 1.00000000000000000 0.00000000000000011 0.00000000000000028 0.00000000000000011 -1.00000000000000000 -1.00000000000000000 0.00000000000000017 -0.00000000000000028 
1 -0.00000000000069923 -522.00000000000068212 5542.00050000000101136 0.00000000000000033 0.00000000000000006 -1.00000000000000000 -0.00000000000000011 -1.00000000000000000 -0.00000000000000006 -1.00000000000000000 0.00000000000000011 -0.00000000000000033 
Triangulations 0

TShapes 138
Ve
0.000000100000000
5872.000500000000102 -0.000000000000089 -802.000000000000568
0 0

0101101
*
Ve
0.000000100000000
5872.000500000000102 14.999999999999911 -802.000000000000568
0 0

0101101
*
Ed
 0.000000100000000 1 1 0
1  1 0 0.000000000000000 15.000000000000000
0

0101000
+138 8 -137 8 *
Ve
0.000000100000000
5872.000500000000102 0.000000000000025 227.999999999999403
0 0

0101101
*
Ve
0.000000100000000
5872.000500000000102 15.000000000000025 227.999999999999403
0 0

0101101
*
Ed
 0.000000100000000 1 1 0
1  2 0 0.000000000000000 15.000000000000000
0

0101000
+135 8 -134 8 *
Ed
 0.000000100000000 1 1 0
1  3 0 0.000000000000000 1030.000000000000000
0

0101000
+138 13 -135 13 *
Ed
 0.000000100000000 1 1 0
1  4 0 0.000000000000000 1030.000000000000000
0

0101000
+137 16 -134 16 *
Wi

0101100
+136 0 -133 0 -132 12 +131 15 *
Fa
0  0.000000100000000 1 0

0111000
+130 0 *
Ve
0.000000100000000
5622.000500000000102 -0.000000000000089 -802.000000000000682
0 0

0101101
*
Ve
0.000000100000000
5622.000500000000102 14.999999999999911 -802.000000000000682
0 0

0101101
*
Ed
 0.000000100000000 1 1 0
1  5 0 0.000000000000000 15.000000000000000
0

0101000
+128 8 -127 8 *
Ed
 0.000000100000000 1 1 0
1  6 0 0.000000000000000 250.000000000000000
0

0101000
+128 13 -138 13 *
Ed
 0.000000100000000 1 1 0
1  7 0 0.000000000000000 250.000000000000000
0

0101000
+127 16 -137 16 *
Wi

0101100
+126 0 -136 0 -125 12 +124 15 *
Fa
0  0.000000100000000 2 0

0111000
+123 0 *
Ve
0.000000100000000
5622.000500000000102 0.000000000000025 227.999999999999375
0 0

0101101
*
Ve
0.000000100000000
5622.000500000000102 15.000000000000025 227.999999999999375
0 0

0101101
*
Ed
 0.000000100000000 1 1 0
1  8 0 0.000000000000000 15.000000000000000
0

0101000
+121 8 -120 8 *
Ed
 0.000000100000000 1 1 0
1  9 0 0.000000000000000 250.000000000000000
0

0101000
+135 13 -121 13 *
Ed
 0.000000100000000 1 1 0
1  10 0 0.000000000000000 250.000000000000000
0

0101000
+134 16 -120 16 *
Wi

0101100
+133 0 -119 0 -118 12 +117 15 *
Fa
0  0.000000100000000 3 0

0111000
+116 0 *
Ve
0.000000100001561
5622.000500000001011 -0.000000000001214 167.999999999998494
0 0

0101101
*
Ed
 0.000000100000000 1 1 0
1  11 0 0.000000000000000 60.000000000000881
0

0101000
+121 13 -114 13 *
Ve
0.000000100001562
5622.000500000001011 -0.000000000001275 -52.000000000001506
0 0

0101101
*
Ed
 0.000000100001561 1 1 0
1  12 0 0.000000000000000 220.000000000000000
0

0101000
+114 22 -112 22 *
Ve
0.000000100001334
5622.000500000001011 -0.000000000001034 -522.000000000000682
0 0

0101101
*
Ed
 0.000000100000000 1 1 0
1  13 0 280.000000000000909 750.000000000000114
0

0101000
+112 13 -110 13 *
Ve
0.000000100001334
5622.000500000001011 -0.000000000001058 -742.000000000000682
0 0

0101101
*
Ed
 0.000000100001334 1 1 0
1  14 0 0.000000000000000 220.000000000000000
0

0101000
+108 26 -110 26 *
Ed
 0.000000100000000 1 1 0
1  15 0 970.000000000000114 1030.000000000000000
0

0101000
+108 13 -128 13 *
Wi

0101100
+132 18 +118 18 +113 18 +111 21 +109 18 -107 25 +106 18 +125 18 *
Fa
0  0.000000100000000 4 17

0111000
+105 0 *
Ve
0.000000100001561
5622.000500000001011 14.999999999998785 167.999999999998494
0 0

0101101
*
Ed
 0.000000100000000 1 1 0
1  16 0 0.000000000000000 60.000000000000881
0

0101000
+120 16 -103 16 *
Ve
0.000000100001562
5622.000500000001011 14.999999999998725 -52.000000000001506
0 0

0101101
*
Ed
 0.000000100001561 1 1 0
1  17 0 0.000000000000000 220.000000000000000
0

0101000
+103 31 -101 31 *
Ve
0.000000100001334
5622.000500000001011 14.999999999998966 -522.000000000000682
0 0

0101101
*
Ed
 0.000000100000000 1 1 0
1  18 0 280.000000000000909 750.000000000000114
0

0101000
+101 16 -99 16 *
Ve
0.000000100001334
5622.000500000001011 14.999999999998941 -742.000000000000682
0 0

0101101
*
Ed
 0.000000100001334 1 1 0
1  19 0 0.000000000000000 220.000000000000000
0

0101000
+97 34 -99 34 *
Ed
 0.000000100000000 1 1 0
1  20 0 970.000000000000114 1030.000000000000000
0

0101000
+97 16 -127 16 *
Wi

0101100
+131 28 +117 28 +102 28 +100 30 +98 28 -96 33 +95 28 +124 28 *
Fa
0  0.000000100000000 5 27

0111000
+94 0 *
Ed
 0.000000100000909 1 1 0
1  21 0 0.000000000000000 15.000000000000000
0

0101000
+108 39 -97 39 *
Wi

0101100
-106 37 -126 36 +95 38 +92 0 *
Fa
0  0.000000100000000 6 36

0111000
+91 0 *
Ed
 0.000000100000000 1 1 0
1  22 0 0.000000000000000 15.000000000000000
0

0101000
+114 40 -103 40 *
Wi

0101100
-113 18 -89 0 +102 28 +119 6 *
Fa
0  0.000000100000000 7 6

0111000
+88 0 *
Ve
0.000000100000000
5542.000500000001011 -0.000000000001257 -52.000000000001521
0 0

0101101
*
Ve
0.000000100000000
5542.000500000001011 -0.000000000001196 167.999999999998494
0 0

0101101
*
Ed
 0.000000100000000 1 1 0
1  23 0 0.000000000000000 220.000000000000000
0

0101000
+86 22 -85 22 *
Ed
 0.000000100000000 1 1 0
1  24 0 0.000000000000000 80.000000000000000
0

0101000
+85 22 -114 22 *
Ed
 0.000000100000000 1 1 0
1  25 0 0.000000000000000 80.000000000000000
0

0101000
+112 22 -86 22 *
Wi

0101100
+84 42 +83 42 +111 42 +82 42 *
Ve
0.000000100000000
5582.000500000001011 -0.000000000001254 -7.000000000001516
0 0

0101101
*
Ed
 0.000000100000000 1 1 0
1  26 0 0.000000000000000 6.283185307179586
2  1 9 43 0.000000000000000 6.283185307179586
0

0101000
+80 22 -80 22 *
Wi

0101100
+79 42 *
Ve
0.000000100000000
5582.000500000001011 -0.000000000001215 132.999999999998494
0 0

0101101
*
Ed
 0.000000100000000 1 1 0
1  27 0 0.000000000000000 6.283185307179586
2  2 10 43 0.000000000000000 6.283185307179586
0

0101000
+77 22 -77 22 *
Wi

0101100
+76 42 *
Fa
0  0.000000100000000 8 0

0111000
+81 0 +78 0 +75 0 *
Ed
 0.000000100000000 1 1 0
1  28 0 0.000000000000000 15.000000000000000
0

0101000
+110 39 -99 39 *
Ed
 0.000000100000004 1 1 0
1  29 0 0.000000000000000 15.000000000000000
0

0101000
+112 40 -101 40 *
Wi

0101100
-109 18 -73 35 +98 28 +72 0 *
Fa
0  0.000000100000000 11 6

0111000
+71 0 *
Ve
0.000000100000000
5542.000500000001011 -0.000000000001007 -522.000000000000682
0 0

0101101
*
Ed
 0.000000100000000 1 1 0
1  30 0 0.000000000000000 80.000000000000000
0

0101000
+110 26 -69 26 *
Ve
0.000000100000000
5542.000500000001011 -0.000000000001031 -742.000000000000682
0 0

0101101
*
Ed
 0.000000100000000 1 1 0
1  31 0 0.000000000000000 220.000000000000000
0

0101000
+69 26 -67 26 *
Ed
 0.000000100000000 1 1 0
1  32 0 0.000000000000000 80.000000000000000
0

0101000
+67 26 -108 26 *
Wi

0101100
+107 45 +68 45 +66 45 +65 45 *
Ve
0.000000100000000
5582.000500000001011 -0.000000000001024 -557.000000000000682
0 0

0101101
*
Ed
 0.000000100000000 1 1 0
1  33 0 0.000000000000000 6.283185307179586
2  3 13 46 0.000000000000000 6.283185307179586
0

0101000
+63 26 -63 26 *
Wi

0101100
-62 45 *
Ve
0.000000100000000
5582.000500000001011 -0.000000000001040 -697.000000000000682
0 0

0101101
*
Ed
 0.000000100000000 1 1 0
1  34 0 0.000000000000000 6.283185307179586
2  4 14 46 0.000000000000000 6.283185307179586
0

0101000
+60 26 -60 26 *
Wi

0101100
-59 45 *
Fa
0  0.000000100000000 12 0

0111000
+64 0 +61 0 +58 0 *
Ve
0.000000100000000
5542.000500000001011 14.999999999998742 -52.000000000001521
0 0

0101101
*
Ve
0.000000100000000
5542.000500000001011 14.999999999998803 167.999999999998494
0 0

0101101
*
Ed
 0.000000100000000 1 1 0
1  35 0 0.000000000000000 220.000000000000000
0

0101000
+56 31 -55 31 *
Ed
 0.000000100000000 1 1 0
1  36 0 0.000000000000000 80.000000000000000
0

0101000
+55 31 -103 31 *
Ed
 0.000000100000000 1 1 0
1  37 0 0.000000000000000 80.000000000000000
0

0101000
+101 31 -56 31 *
Wi

0101100
+54 42 +53 42 +100 42 +52 42 *
Ve
0.000000100000000
5582.000500000001011 14.999999999998746 -7.000000000001520
0 0

0101101
*
Ed
 0.000000100000000 1 1 0
1  38 0 0.000000000000000 6.283185307179586
2  5 9 48 0.000000000000000 6.283185307179586
0

0101000
+50 31 -50 31 *
Wi

0101100
+49 42 *
Ve
0.000000100000000
5582.000500000001011 14.999999999998785 132.999999999998494
0 0

0101101
*
Ed
 0.000000100000000 1 1 0
1  39 0 0.000000000000000 6.283185307179586
2  6 10 48 0.000000000000000 6.283185307179586
0

0101000
+47 31 -47 31 *
Wi

0101100
+46 42 *
Fa
0  0.000000100000000 15 0

0111000
+51 0 +48 0 +45 0 *
Ve
0.000000100000000
5542.000500000001011 14.999999999998993 -522.000000000000682
0 0

0101101
*
Ed
 0.000000100000000 1 1 0
1  40 0 0.000000000000000 80.000000000000000
0

0101000
+99 34 -43 34 *
Ve
0.000000100000000
5542.000500000001011 14.999999999998968 -742.000000000000682
0 0

0101101
*
Ed
 0.000000100000000 1 1 0
1  41 0 0.000000000000000 220.000000000000000
0

0101000
+43 34 -41 34 *
Ed
 0.000000100000000 1 1 0
1  42 0 0.000000000000000 80.000000000000000
0

0101000
+41 34 -97 34 *
Wi

0101100
+96 45 +42 45 +40 45 +39 45 *
Ve
0.000000100000000
5582.000500000001011 14.999999999998977 -557.000000000000682
0 0

0101101
*
Ed
 0.000000100000000 1 1 0
1  43 0 0.000000000000000 6.283185307179586
2  7 13 50 0.000000000000000 6.283185307179586
0

0101000
+37 34 -37 34 *
Wi

0101100
-36 45 *
Ve
0.000000100000000
5582.000500000001011 14.999999999998961 -697.000000000000682
0 0

0101101
*
Ed
 0.000000100000000 1 1 0
1  44 0 0.000000000000000 6.283185307179586
2  8 14 50 0.000000000000000 6.283185307179586
0

0101000
+34 34 -34 34 *
Wi

0101100
-33 45 *
Fa
0  0.000000100000000 16 0

0111000
+38 0 +35 0 +32 0 *
Ed
 0.000000100000000 1 1 0
1  45 0 0.000000000000000 15.000000000000000
0

0101000
+67 39 -41 39 *
Wi

0101100
+30 0 -92 0 -65 51 +39 52 *
Fa
0  0.000000100000000 17 0

0111000
+29 0 *
Ed
 0.000000100000000 1 1 0
1  46 0 0.000000000000000 15.000000000000000
0

0101000
+85 40 -55 40 *
Wi

0101100
+27 0 -89 0 -83 21 +53 30 *
Fa
0  0.000000100000000 18 0

0111000
+26 0 *
Ed
 0.000000100000000 1 1 0
1  47 0 0.000000000000000 15.000000000000000
0

0101000
+86 40 -56 40 *
Wi

0101100
+24 0 -27 0 -84 21 +54 30 *
Fa
0  0.000000100000000 19 0

0111000
+23 0 *
Wi

0101100
+72 0 -24 0 -82 21 +52 30 *
Fa
0  0.000000100000000 20 0

0111000
+21 0 *
Ed
 0.000000100000000 1 1 0
1  48 0 0.000000000000000 15.000000000000000
3  9 10CN 9 0 0.000000000000000 15.000000000000000
0

0101000
+80 40 -50 40 *
Wi

0101100
+19 0 -19 0 -79 21 +49 30 *
Fa
0  0.000000100000000 9 0

0111000
+18 0 *
Ed
 0.000000100000000 1 1 0
1  49 0 0.000000000000000 15.000000000000000
3  11 12CN 10 0 0.000000000000000 15.000000000000000
0

0101000
+77 40 -47 40 *
Wi

0101100
+16 0 -16 0 -76 21 +46 30 *
Fa
0  0.000000100000000 10 0

0111000
+15 0 *
Ed
 0.000000100000000 1 1 0
1  50 0 0.000000000000000 15.000000000000000
0

0101000
+69 39 -43 39 *
Wi

0101100
+73 0 -13 0 -68 51 +42 52 *
Fa
0  0.000000100000000 21 0

0111000
+12 0 *
Wi

0101100
+13 0 -30 0 -66 51 +40 52 *
Fa
0  0.000000100000000 22 0

0111000
+10 0 *
Ed
 0.000000100000000 1 1 0
1  51 0 0.000000000000000 15.000000000000000
3  13 14CN 13 0 0.000000000000000 15.000000000000000
0

0101000
+63 39 -37 39 *
Wi

0101100
+8 0 -8 0 -62 51 +36 52 *
Fa
0  0.000000100000000 13 0

0111000
+7 0 *
Ed
 0.000000100000000 1 1 0
1  52 0 0.000000000000000 15.000000000000000
3  15 16CN 14 0 0.000000000000000 15.000000000000000
0

0101000
+60 39 -34 39 *
Wi

0101100
+5 0 -5 0 -59 51 +33 52 *
Fa
0  0.000000100000000 14 0

0111000
+4 0 *
Sh

0101100
+129 6 +122 6 +115 6 +104 0 -93 0 +90 35 +87 0 -74 41 +70 0 +57 44 
+44 47 -31 49 +28 35 -25 0 -22 0 -20 0 -17 0 -14 0 +11 35 +9 35 
-6 35 -3 35 *
So

0100000
+2 0 *

+1 1 