
CASCADE Topology V1, (c) Matra-Datavision
Locations 16
1
1.000000000000000 0.000000000000000 0.000000000000000 0.000000000000000 
0.000000000000000 -0.000000000000000 -1.000000000000000 0.000000000000000 
0.000000000000000 1.000000000000000 -0.000000000000000 0.000000000000000 
1
1.000000000000000 0.000000000000000 0.000000000000000 0.000000000000000 
0.000000000000000 -0.000000000000000 -1.000000000000000 0.000000000000000 
0.000000000000000 1.000000000000000 -0.000000000000000 0.000000000000000 
1
1.000000000000000 0.000000000000000 0.000000000000000 0.000000000000000 
0.000000000000000 -0.000000000000000 -1.000000000000000 0.000000000000000 
0.000000000000000 1.000000000000000 -0.000000000000000 0.000000000000000 
2  1 -1 2 1 3 -1 0
1
1.000000000000000 0.000000000000000 0.000000000000000 0.000000000000000 
0.000000000000000 1.000000000000000 0.000000000000000 0.000000000000000 
0.000000000000000 0.000000000000000 1.000000000000000 0.000000000000000 
1
0.000000000000000 -0.000000000000000 1.000000000000000 1858.000000000000000 
-0.000000000000000 -1.000000000000000 0.000000000000000 0.000000000000000 
1.000000000000000 0.000000000000000 -0.000000000000000 0.000000000000000 
2  5 1 6 1 3 -1 0
1
1.000000000000000 0.000000000000000 0.000000000000000 -12.000000000000000 
0.000000000000000 1.000000000000000 0.000000000000000 0.000000000000003 
0.000000000000000 0.000000000000000 1.000000000000000 -0.000000000000000 
2  5 1 6 1 3 -1 8 1 0
2  3 1 6 -1 5 -1 0
2  8 -1 3 1 6 -1 5 -1 0
2  6 -1 5 -1 0
2  1 -1 2 1 3 -1 8 -1 3 1 6 -1 5 -1 0
2  3 -1 0
2  5 1 6 1 0
2  3 -1 8 1 0
Curve2ds 28
1 0.00000000000000000 0.00000000000000000 -0.00000000000000000 -1.00000000000000000 
1 80.00000000000000000 -0.00000000000000000 -0.00000000000000000 -1.00000000000000000 
1 -257.49464770746999420 893.33979019802245602 -0.00000000000000022 -1.00000000000000000 
1 130.00000000000000000 0.00000000000002887 -0.00000000000000000 -1.00000000000000000 
1 0.00000000000000000 0.00000000000000000 0.00000000000000000 -1.00000000000000000 
1 0.00000000000000000 0.00000000000000000 1.00000000000000000 0.00000000000000000 
1 0.00000000000000266 -12.00000000000000000 1.00000000000000000 0.00000000000000000 
1 -39.99999999999997868 65.00000000000000000 -0.00000000000000022 -1.00000000000000000 
1 -257.49464770746999420 881.33979019802245602 1.00000000000000000 -0.00000000000000022 
1 80.00000000000000000 0.00000000000000000 0.00000000000000000 -1.00000000000000000 
1 0.00000000000000000 0.00000000000000000 1.00000000000000000 0.00000000000000000 
1 0.00000000000000000 -12.00000000000000000 1.00000000000000000 0.00000000000000000 
1 -40.00000000000000711 -65.00000000000000000 1.00000000000000000 -0.00000000000000022 
1 0.00000000000000000 0.00000000000000000 -0.00000000000000000 -1.00000000000000000 
1 39.99999999999999289 -65.00000000000000000 0.00000000000000022 1.00000000000000000 
1 40.00000000000002132 65.00000000000000000 -1.00000000000000000 0.00000000000000022 
1 0.00000000000000000 0.00000000000000000 1.00000000000000000 0.00000000000000000 
1 -0.00000000000000000 -12.00000000000000000 1.00000000000000000 0.00000000000000000 
1 0.00000000000000000 0.00000000000000000 0.00000000000000000 -1.00000000000000000 
1 6.28318530717958623 0.00000000000000000 0.00000000000000000 -1.00000000000000000 
1 0.00000000000000000 0.00000000000000000 1.00000000000000000 0.00000000000000000 
1 0.00000000000000000 -12.00000000000000000 1.00000000000000000 0.00000000000000000 
2 0.00000000000000000 -25.00000000000000000 0.00000000000000022 1.00000000000000000 1.00000000000000000 -0.00000000000000022 5.00000000000000000
1 0.00000000000000000 0.00000000000000000 0.00000000000000000 -1.00000000000000000 
1 6.28318530717958623 0.00000000000000000 0.00000000000000000 -1.00000000000000000 
1 0.00000000000000000 0.00000000000000000 1.00000000000000000 0.00000000000000000 
1 0.00000000000000000 -12.00000000000000000 1.00000000000000000 0.00000000000000000 
2 0.00000000000001421 25.00000000000000000 0.00000000000000022 1.00000000000000000 1.00000000000000000 -0.00000000000000022 5.00000000000000000
Curves 12
1 1858.00000000000068212 3014.00000000000000000 -0.00000000000000000 -1.00000000000000000 0.00000000000000022 -0.00000000000000000 
1 1858.00000000000068212 2884.00000000000000000 -0.00000000000000000 -1.00000000000000000 0.00000000000000022 -0.00000000000000000 
1 3014.00000000000000000 0.00000000000000000 0.00000000000000000 -1.00000000000000000 0.00000000000000000 0.00000000000000000 
1 1858.00000000000068212 2884.00000000000000000 80.00000000000000000 -1.00000000000000000 0.00000000000000022 -0.00000000000000000 
1 2884.00000000000000000 0.00000000000000000 0.00000000000000000 0.00000000000000000 1.00000000000000000 0.00000000000000000 
1 1858.00000000000068212 3014.00000000000000000 80.00000000000000000 -1.00000000000000000 0.00000000000000022 -0.00000000000000000 
1 2884.00000000000000000 80.00000000000000000 0.00000000000000000 1.00000000000000000 0.00000000000000000 0.00000000000000000 
1 3014.00000000000000000 80.00000000000000000 0.00000000000000000 0.00000000000000000 -1.00000000000000000 0.00000000000000000 
1 1858.00000000000068212 2929.00000000000000000 40.00000000000000000 -1.00000000000000000 0.00000000000000022 -0.00000000000000000 
2 2924.00000000000000000 40.00000000000000000 0.00000000000000000 0.00000000000000000 0.00000000000000000 1.00000000000000000 1.00000000000000000 0.00000000000000000 -0.00000000000000000 -0.00000000000000000 1.00000000000000000 0.00000000000000000 5.00000000000000000
1 1858.00000000000068212 2979.00000000000000000 40.00000000000000000 -1.00000000000000000 0.00000000000000022 -0.00000000000000000 
2 2974.00000000000000000 40.00000000000000000 0.00000000000000000 0.00000000000000000 0.00000000000000000 1.00000000000000000 1.00000000000000000 0.00000000000000000 -0.00000000000000000 -0.00000000000000000 1.00000000000000000 0.00000000000000000 5.00000000000000000
Polygon3D 0
PolygonOnTriangulations 0
Surfaces 8
1 1858.00000000000068212 3014.00000000000000000 -0.00000000000000000 -0.00000000000000000 0.00000000000000000 1.00000000000000000 -0.00000000000000022 -1.00000000000000000 0.00000000000000000 1.00000000000000000 -0.00000000000000022 0.00000000000000000 
1 1858.00000000000068212 3014.00000000000000000 80.00000000000000000 -0.00000000000000022 -1.00000000000000000 0.00000000000000000 0.00000000000000000 -0.00000000000000000 -1.00000000000000000 1.00000000000000000 -0.00000000000000022 0.00000000000000000 
1 964.66020980197822610 -0.00000000000061207 2756.50535229253000580 0.00000000000000000 -1.00000000000000000 -0.00000000000000022 0.00000000000000000 0.00000000000000022 -1.00000000000000000 1.00000000000000000 0.00000000000000000 0.00000000000000000 
1 1858.00000000000068212 2884.00000000000000000 -0.00000000000000000 0.00000000000000022 1.00000000000000000 -0.00000000000000000 0.00000000000000000 0.00000000000000000 1.00000000000000000 1.00000000000000000 -0.00000000000000022 0.00000000000000000 
1 1858.00000000000045475 -40.00000000000064659 2949.00000000000000000 -1.00000000000000000 -0.00000000000000000 -0.00000000000000000 0.00000000000000000 -1.00000000000000000 0.00000000000000000 -0.00000000000000000 0.00000000000000000 1.00000000000000000 
1 1858.00000000000068212 2884.00000000000000000 80.00000000000000000 0.00000000000000000 -0.00000000000000000 -1.00000000000000000 0.00000000000000022 1.00000000000000000 0.00000000000000000 1.00000000000000000 -0.00000000000000022 0.00000000000000000 
2 1858.00000000000068212 2924.00000000000000000 40.00000000000000000 1.00000000000000000 -0.00000000000000022 0.00000000000000000 0.00000000000000022 1.00000000000000000 0.00000000000000000 -0.00000000000000000 0.00000000000000000 1.00000000000000000 5.00000000000000000
2 1858.00000000000068212 2974.00000000000000000 40.00000000000000000 1.00000000000000000 -0.00000000000000022 0.00000000000000000 0.00000000000000022 1.00000000000000000 0.00000000000000000 -0.00000000000000000 0.00000000000000000 1.00000000000000000 5.00000000000000000
Triangulations 0

TShapes 36
Ve
0.000000100000682
3014.000000000000000 0.000000000000000 0.000000000000000
0 0

0101101
*
Ed
 0.000000100000000 1 1 0
1  1 0 0.000000000000000 12.000000000000000
2  1 1 0 0.000000000000000 12.000000000000000
2  2 2 0 0.000000000000000 12.000000000000000
2  3 3 4 0.000000000000000 12.000000000000000
0

0101000
+36 7 -36 9 *
Ve
0.000000100000000
2884.000000000000000 0.000000000000000 0.000000000000000
0 0

0101101
*
Ed
 0.000000100000000 1 1 0
1  2 0 0.000000000000000 12.000000000000000
2  4 1 0 0.000000000000000 12.000000000000000
2  5 4 0 0.000000000000000 12.000000000000000
0

0101000
+34 7 -34 9 *
Ed
 0.000000100000000 1 1 0
1  3 0 0.000000000000000 130.000000000000000
2  6 1 10 0.000000000000000 130.000000000000000
2  7 1 11 0.000000000000000 130.000000000000000
2  8 5 12 0.000000000000000 130.000000000000000
2  9 3 13 0.000000000000000 130.000000000000000
0

0101000
+36 0 -34 0 *
Wi

0101100
+35 0 -33 0 -32 7 +32 9 *
Fa
0  0.000000100000000 1 0

0111000
+31 0 *
Ve
0.000000100000000
2884.000000000000000 80.000000000000000 0.000000000000000
0 0

0101101
*
Ed
 0.000000100000000 1 1 0
1  4 0 0.000000000000000 12.000000000000000
2  10 4 0 0.000000000000000 12.000000000000000
0

0101000
+29 7 -29 9 *
Ed
 0.000000100000000 1 1 0
1  5 0 0.000000000000000 80.000000000000000
2  11 4 10 0.000000000000000 80.000000000000000
2  12 4 11 0.000000000000000 80.000000000000000
2  13 5 12 0.000000000000000 80.000000000000000
0

0101000
+34 0 -29 0 *
Wi

0101100
+33 0 -28 0 -27 7 +27 9 *
Fa
0  0.000000100000000 4 0

0111000
+26 0 *
Ve
0.000000100000000
3014.000000000000000 80.000000000000000 0.000000000000000
0 0

0101101
*
Ed
 0.000000100000000 1 1 0
1  6 0 0.000000000000000 12.000000000000000
2  14 2 0 0.000000000000000 12.000000000000000
0

0101000
+24 7 -24 9 *
Ed
 0.000000100000000 1 1 0
1  7 0 0.000000000000000 130.000000000000000
2  15 5 12 0.000000000000000 130.000000000000000
0

0101000
+29 0 -24 0 *
Wi

0101100
+28 0 -23 0 -22 7 +22 9 *
Fa
0  0.000000100000000 6 0

0111000
+21 0 *
Ed
 0.000000100000000 1 1 0
1  8 0 0.000000000000000 80.000000000000000
2  16 5 12 0.000000000000000 80.000000000000000
2  17 2 10 0.000000000000000 80.000000000000000
2  18 2 11 0.000000000000000 80.000000000000000
0

0101000
+24 0 -36 0 *
Wi

0101100
+23 0 -35 0 -19 7 +19 9 *
Fa
0  0.000000100000000 2 0

0111000
+18 0 *
Ve
0.000000100000000
2929.000000000000000 40.000000000000000 0.000000000000000
0 0

0101101
*
Ed
 0.000000100000000 1 1 0
1  9 0 0.000000000000000 12.000000000000000
3  19 20CN 7 0 0.000000000000000 12.000000000000000
0

0101000
+16 7 -16 9 *
Ed
 0.000000100000000 1 1 0
1  10 0 0.000000000000000 6.283185307179586
2  21 7 10 0.000000000000000 6.283185307179586
2  22 7 11 0.000000000000000 6.283185307179586
2  23 5 12 0.000000000000000 6.283185307179586
0

0101000
+16 0 -16 0 *
Wi

0101100
+15 0 -15 0 -14 7 +14 9 *
Fa
0  0.000000100000000 7 0

0111000
+13 0 *
Ve
0.000000100000000
2979.000000000000000 40.000000000000000 0.000000000000000
0 0

0101101
*
Ed
 0.000000100000000 1 1 0
1  11 0 0.000000000000000 12.000000000000000
3  24 25CN 8 0 0.000000000000000 12.000000000000000
0

0101000
+11 7 -11 9 *
Ed
 0.000000100000000 1 1 0
1  12 0 0.000000000000000 6.283185307179586
2  26 8 10 0.000000000000000 6.283185307179586
2  27 8 11 0.000000000000000 6.283185307179586
2  28 5 12 0.000000000000000 6.283185307179586
0

0101000
+11 0 -11 0 *
Wi

0101100
+10 0 -10 0 -9 7 +9 9 *
Fa
0  0.000000100000000 8 0

0111000
+8 0 *
Wi

0101100
+32 15 +27 15 +22 15 +19 15 *
Wi

0101100
+14 15 *
Wi

0101100
+9 15 *
Fa
0  0.000000100000000 5 0

0111000
+6 0 +5 0 +4 0 *
Sh

0101100
+30 0 +25 0 +20 0 +17 0 +12 0 +7 0 +3 14 -3 16 *
So

1100000
-2 0 *

+1 0 