
CASCADE Topology V1, (c) Matra-Datavision
Locations 81
1
1.000000000000000 0.000000000000000 0.000000000000000 3681.000000000000000 
0.000000000000000 1.000000000000000 0.000000000000000 0.000000000000000 
0.000000000000000 0.000000000000000 1.000000000000000 0.000000000000000 
1
0.000000000000000 -0.000000000000000 1.000000000000000 0.000000000000000 
1.000000000000000 0.000000000000000 0.000000000000000 0.000000000000000 
-0.000000000000000 1.000000000000000 0.000000000000000 0.000000000000000 
1
-0.000000000000000 0.000000000000000 1.000000000000000 0.000000000000000 
1.000000000000000 -0.000000000000000 0.000000000000000 0.000000000000000 
0.000000000000000 1.000000000000000 -0.000000000000000 0.000000000000000 
1
0.000000000000000 -0.000000000000000 1.000000000000000 0.000000000000000 
1.000000000000000 0.000000000000000 0.000000000000000 0.000000000000000 
-0.000000000000000 1.000000000000000 0.000000000000000 0.000000000000000 
1
-0.000000000000000 0.000000000000000 1.000000000000000 0.000000000000000 
1.000000000000000 -0.000000000000000 0.000000000000000 0.000000000000000 
0.000000000000000 1.000000000000000 -0.000000000000000 0.000000000000000 
1
0.000000000000000 -0.000000000000000 1.000000000000000 0.000000000000000 
1.000000000000000 0.000000000000000 0.000000000000000 0.000000000000000 
-0.000000000000000 1.000000000000000 0.000000000000000 0.000000000000000 
1
-0.000000000000000 0.000000000000000 1.000000000000000 0.000000000000000 
1.000000000000000 -0.000000000000000 0.000000000000000 0.000000000000000 
0.000000000000000 1.000000000000000 -0.000000000000000 0.000000000000000 
1
0.000000000000000 -0.000000000000000 1.000000000000000 0.000000000000000 
1.000000000000000 0.000000000000000 0.000000000000000 0.000000000000000 
-0.000000000000000 1.000000000000000 0.000000000000000 0.000000000000000 
1
-0.000000000000000 0.000000000000000 1.000000000000000 0.000000000000000 
1.000000000000000 -0.000000000000000 0.000000000000000 0.000000000000000 
0.000000000000000 1.000000000000000 -0.000000000000000 0.000000000000000 
2  2 1 3 -1 4 1 5 -1 6 1 7 -1 8 1 9 -1 0
1
0.000000000000000 -0.000000000000000 1.000000000000000 0.000000000000000 
1.000000000000000 0.000000000000000 0.000000000000000 0.000000000000000 
-0.000000000000000 1.000000000000000 0.000000000000000 0.000000000000000 
2  11 -1 9 1 8 -1 7 1 6 -1 5 1 4 -1 3 1 2 -1 0
1
1.000000000000000 0.000000000000000 0.000000000000000 0.000000000000000 
0.000000000000000 1.000000000000000 0.000000000000000 0.000000000000000 
0.000000000000000 0.000000000000000 1.000000000000000 0.000000000000000 
1
0.000000000000000 -0.000000000000000 1.000000000000000 0.000000000000000 
1.000000000000000 0.000000000000000 -0.000000000000000 0.000000000000000 
-0.000000000000000 1.000000000000000 0.000000000000000 0.000000000000000 
1
-0.000000000000000 0.000000000000000 1.000000000000000 0.000000000000000 
1.000000000000000 -0.000000000000000 0.000000000000000 0.000000000000000 
0.000000000000000 1.000000000000000 -0.000000000000000 0.000000000000000 
2  13 1 14 1 15 -1 0
2  11 -1 9 1 8 -1 7 1 6 -1 5 1 4 -1 3 1 2 -1 15 1 14 -1 13 -1 0
1
1.000000000000000 0.000000000000000 0.000000000000000 -0.000000000000007 
0.000000000000000 1.000000000000000 0.000000000000000 0.000000000000004 
0.000000000000000 0.000000000000000 1.000000000000000 15.000000000000000 
2  13 1 14 1 15 -1 18 1 0
2  11 -1 9 1 8 -1 7 1 6 -1 5 1 4 -1 3 1 2 -1 18 -1 15 1 14 -1 13 -1 0
2  6 1 7 -1 8 1 9 -1 0
2  2 1 3 -1 4 1 5 -1 0
2  13 1 14 1 15 -1 2 1 3 -1 4 1 5 -1 0
2  13 1 14 1 15 -1 18 1 2 1 3 -1 4 1 5 -1 0
2  4 1 5 -1 0
2  11 -1 9 1 8 -1 7 1 6 -1 5 1 4 -1 0
2  15 -1 2 1 3 -1 4 1 5 -1 6 1 7 -1 8 1 9 -1 0
2  13 1 14 1 15 -1 2 1 3 -1 4 1 5 -1 6 1 7 -1 8 1 9 -1 0
2  15 1 14 -1 13 -1 0
1
1.000000000000000 0.000000000000000 0.000000000000000 0.000000000000000 
0.000000000000000 1.000000000000000 0.000000000000000 0.000000000000000 
0.000000000000000 0.000000000000000 1.000000000000000 0.000000000000000 
1
0.000000000000001 0.000000000000001 -1.000000000000000 -0.000000000001330 
1.000000000000000 -0.000000000000000 0.000000000000001 0.000000000000000 
-0.000000000000000 -1.000000000000000 -0.000000000000001 -0.000000000000000 
2  30 1 31 1 7 -1 8 1 9 -1 0
2  7 1 31 -1 30 -1 0
2  11 -1 9 1 8 -1 7 1 31 -1 30 -1 0
2  15 -1 18 1 2 1 3 -1 4 1 5 -1 6 1 7 -1 8 1 9 -1 0
2  13 1 14 1 15 -1 18 1 2 1 3 -1 4 1 5 -1 6 1 7 -1 8 1 9 -1 0
1
1.000000000000000 0.000000000000000 0.000000000000000 0.000000000000000 
0.000000000000000 1.000000000000000 0.000000000000000 0.000000000000000 
0.000000000000000 0.000000000000000 1.000000000000000 0.000000000000000 
1
0.000000000000000 1.000000000000000 -0.000000000000001 -0.000000000000825 
-0.000000000000001 -0.000000000000001 -1.000000000000000 -1858.000000000003411 
-1.000000000000000 0.000000000000000 0.000000000000001 0.000000000002475 
2  37 1 38 1 9 -1 0
2  11 -1 9 1 38 -1 37 -1 0
2  18 -1 15 1 14 -1 13 -1 0
2  8 1 9 -1 0
2  11 -1 9 1 8 -1 0
1
1.000000000000000 0.000000000000000 0.000000000000000 0.000000000000000 
0.000000000000000 1.000000000000000 0.000000000000000 0.000000000000000 
0.000000000000000 0.000000000000000 1.000000000000000 0.000000000000000 
1
0.000000000000000 -0.000000000000000 1.000000000000000 14.999999999999556 
1.000000000000000 0.000000000000000 -0.000000000000000 -0.000000000000007 
0.000000000000000 1.000000000000000 0.000000000000000 0.000000000000005 
2  44 1 45 1 3 -1 4 1 5 -1 0
2  11 -1 9 1 8 -1 7 1 6 -1 5 1 4 -1 3 1 45 -1 44 -1 0
1
1.000000000000000 0.000000000000000 0.000000000000000 0.000000000000010 
0.000000000000000 1.000000000000000 0.000000000000000 -0.000000000000007 
0.000000000000000 0.000000000000000 1.000000000000000 -15.000000000000000 
2  44 1 45 1 3 -1 48 1 4 1 5 -1 0
2  11 -1 9 1 8 -1 7 1 6 -1 5 1 4 -1 48 -1 3 1 45 -1 44 -1 0
2  11 -1 9 1 8 -1 7 1 6 -1 0
1
1.000000000000000 0.000000000000000 0.000000000000000 0.000000000000000 
0.000000000000000 1.000000000000000 0.000000000000000 0.000000000000000 
0.000000000000000 0.000000000000000 1.000000000000000 0.000000000000000 
1
-0.000000000000000 1.000000000000000 0.000000000000001 -0.000000000000624 
0.000000000000000 -0.000000000000001 1.000000000000000 -937.000000000000227 
1.000000000000000 0.000000000000000 -0.000000000000000 0.000000000000104 
2  52 1 53 1 5 -1 0
2  11 -1 9 1 8 -1 7 1 6 -1 5 1 53 -1 52 -1 0
1
1.000000000000000 0.000000000000000 0.000000000000000 -15.000000000000000 
0.000000000000000 1.000000000000000 0.000000000000000 0.000000000000007 
0.000000000000000 0.000000000000000 1.000000000000000 -0.000000000000007 
2  52 1 53 1 5 -1 56 1 0
2  11 -1 9 1 8 -1 7 1 6 -1 56 -1 5 1 53 -1 52 -1 0
2  3 -1 48 1 4 1 5 -1 0
2  9 -1 0
2  9 1 38 -1 37 -1 0
2  4 1 5 -1 6 1 7 -1 8 1 9 -1 0
2  2 1 3 -1 0
2  13 1 14 1 15 -1 2 1 3 -1 0
2  13 1 14 1 15 -1 18 1 2 1 3 -1 0
2  30 1 31 1 7 -1 0
2  3 -1 0
2  44 1 45 1 3 -1 0
2  11 -1 0
1
1.000000000000000 0.000000000000000 0.000000000000000 -12.000000000000000 
0.000000000000000 1.000000000000000 0.000000000000000 0.000000000000017 
0.000000000000000 0.000000000000000 1.000000000000000 -0.000000000000007 
2  37 1 38 1 9 -1 70 1 0
2  11 -1 70 -1 9 1 38 -1 37 -1 0
2  5 -1 0
2  5 1 53 -1 52 -1 0
2  5 -1 56 1 6 1 7 -1 8 1 9 -1 0
2  52 1 53 1 0
2  56 -1 5 1 53 -1 52 -1 0
2  44 1 45 1 3 -1 48 1 0
2  70 -1 9 1 38 -1 37 -1 0
2  9 -1 70 1 0
2  37 1 38 1 0
Curve2ds 36
1 0.00000000000000000 0.00000000000000000 1.00000000000000000 0.00000000000000000 
1 0.00000000000000000 0.00000000000000000 1.00000000000000000 0.00000000000000000 
1 0.00000000000000000 0.00000000000000000 1.00000000000000000 0.00000000000000000 
1 0.00000000000000000 0.00000000000000000 1.00000000000000000 0.00000000000000000 
1 0.00000000000000000 0.00000000000000000 1.00000000000000000 0.00000000000000000 
1 0.00000000000000000 0.00000000000000000 1.00000000000000000 0.00000000000000000 
1 0.00000000000000000 -15.00000000000000000 1.00000000000000000 0.00000000000000000 
1 0.00000000000000000 -15.00000000000000000 1.00000000000000000 0.00000000000000000 
1 0.00000000000000000 -15.00000000000000000 1.00000000000000000 0.00000000000000000 
1 0.00000000000000000 -14.99999999999973888 1.00000000000000000 0.00000000000000000 
1 0.00000000000000000 -14.99999999999971223 1.00000000000000000 0.00000000000000000 
1 0.00000000000000000 -15.00000000000000000 1.00000000000000000 0.00000000000000000 
1 0.00000000000000000 0.00000000000000000 1.00000000000000000 0.00000000000000000 
1 0.00000000000000000 0.00000000000000000 0.00000000000000000 -1.00000000000000000 
1 6.28318530717958623 0.00000000000000000 0.00000000000000000 -1.00000000000000000 
1 0.00000000000000000 0.00000000000000000 0.00000000000000000 -1.00000000000000000 
1 6.28318530717958623 0.00000000000000000 0.00000000000000000 -1.00000000000000000 
1 0.00000000000000000 0.00000000000000000 0.00000000000000000 -1.00000000000000000 
1 6.28318530717958623 0.00000000000000000 0.00000000000000000 -1.00000000000000000 
1 0.00000000000000000 0.00000000000000000 0.00000000000000000 -1.00000000000000000 
1 6.28318530717958623 0.00000000000000000 0.00000000000000000 -1.00000000000000000 
1 0.00000000000000000 0.00000000000000000 0.00000000000000000 -1.00000000000000000 
1 6.28318530717958623 0.00000000000000000 0.00000000000000000 -1.00000000000000000 
1 0.00000000000000000 0.00000000000000000 0.00000000000000000 -1.00000000000000000 
1 6.28318530717958623 0.00000000000000000 0.00000000000000000 -1.00000000000000000 
1 0.00000000000000000 0.00000000000000000 1.00000000000000000 0.00000000000000000 
1 0.00000000000000000 0.00000000000000000 1.00000000000000000 0.00000000000000000 
1 0.00000000000000000 -15.00000000000000000 1.00000000000000000 0.00000000000000000 
1 0.00000000000000000 -15.00000000000000000 1.00000000000000000 0.00000000000000000 
1 0.00000000000000000 0.00000000000000000 0.00000000000000000 -1.00000000000000000 
1 6.28318530717958623 0.00000000000000000 0.00000000000000000 -1.00000000000000000 
1 0.00000000000000000 -12.00000000000000000 1.00000000000000000 0.00000000000000000 
1 0.00000000000000000 0.00000000000000000 0.00000000000000000 -1.00000000000000000 
1 6.28318530717958623 0.00000000000000000 0.00000000000000000 -1.00000000000000000 
1 0.00000000000000000 0.00000000000000000 0.00000000000000000 -1.00000000000000000 
1 6.28318530717958623 0.00000000000000000 0.00000000000000000 -1.00000000000000000 
Curves 90
1 -0.00000000000493028 -887.00000000000420641 3134.00000000000773070 1.00000000000000000 -0.00000000000000089 -0.00000000000000006 
1 -0.00000000000528636 -887.00000000000443379 3322.66713379609427648 1.00000000000000000 -0.00000000000000089 -0.00000000000000006 
1 -0.00000000000384048 -887.00000000000579803 3134.00000000000773070 -0.00000000000000167 -0.00000000000000100 1.00000000000000000 
1 14.99999999999620570 -887.00000000000579803 3119.00000000000773070 -0.00000000000000167 -0.00000000000000100 1.00000000000000000 
1 -0.00000000000345191 -1137.00000000000636646 3134.00000000000818545 -0.00000000000000155 1.00000000000000000 -0.00000000000000122 
1 14.99999999999659472 -1137.00000000000636646 3119.00000000000818545 -0.00000000000000155 1.00000000000000000 -0.00000000000000122 
1 14.99999999999453060 -937.00000000000318323 3134.00000000000727596 -1.00000000000000000 0.00000000000000100 -0.00000000000000022 
1 -0.00000000000500621 -1656.06183403108889252 3626.62000000000989530 1.00000000000000000 -0.00000000000000089 -0.00000000000000006 
1 -0.00000000000415468 -887.00000000000591172 3322.66713379609427648 0.00000000000000083 -0.92999992542572318 0.36755970767774515 
1 14.99999999999589129 -887.00000000000591172 3307.66713379609427648 0.00000000000000083 -0.92999992542572318 0.36755970767774515 
1 -0.00000000000345191 -1137.00000000000636646 3134.00000000000818545 -0.00000000000000155 1.00000000000000000 -0.00000000000000122 
1 -0.00000000000346550 -1656.06183403109093888 3626.62000000000989530 0.00000000000000155 -1.00000000000000000 0.00000000000000122 
1 -0.00000000000345191 -1137.00000000000636646 3134.00000000000818545 -0.00000000000000155 1.00000000000000000 -0.00000000000000122 
1 -0.00000000000315162 -1858.00000000000727596 3626.62000000001035005 0.00000000000000167 0.00000000000000100 -1.00000000000000000 
1 -0.00000000000315162 -1858.00000000000727596 3626.62000000001035005 0.00000000000000167 0.00000000000000100 -1.00000000000000000 
1 -0.00000000000315162 -1858.00000000000727596 3626.62000000001035005 0.00000000000000167 0.00000000000000100 -1.00000000000000000 
1 -0.00000000000348297 -1137.00000000000636646 3152.65628889393701684 0.00000000000000167 0.00000000000000100 -1.00000000000000000 
1 -0.00000000000273529 -1858.00000000000704858 3376.62000000022089807 -0.00000000000000155 1.00000000000000000 -0.00000000000134784 
1 -0.00000000000297516 -1703.67319696892218417 3376.62000000001307853 -0.00000000000000083 0.92999992542571663 -0.36755970767776169 
2 -0.00000000000396183 -977.00000000000613909 3290.86670000000867731 1.00000000000000000 0.00000000000000155 0.00000000000000167 -0.00000000000000155 1.00000000000000000 -0.00000000000000122 -0.00000000000000167 0.00000000000000122 1.00000000000000000 5.00000000000000000
2 -0.00000000000342829 -1320.26801004712115173 3290.86670000000867731 1.00000000000000000 0.00000000000000155 0.00000000000000167 -0.00000000000000155 1.00000000000000000 -0.00000000000000122 -0.00000000000000167 0.00000000000000122 1.00000000000000000 5.00000000000000000
2 -0.00000000000354947 -1437.15929903209848817 3472.73340000000916916 1.00000000000000000 0.00000000000000155 0.00000000000000167 -0.00000000000000155 1.00000000000000000 -0.00000000000000122 -0.00000000000000167 0.00000000000000122 1.00000000000000000 5.00000000000000000
2 -0.00000000000331305 1743.00000000000659384 -3406.56403258784030186 -1.00000000000000000 0.00000000000000006 0.00000000000000061 -0.00000000000000006 -1.00000000000000000 0.00000000000000011 0.00000000000000061 0.00000000000000011 1.00000000000000000 5.00000000000000000
2 -0.00000000000330972 1803.00000000000659384 -3406.56403258784030186 -1.00000000000000000 0.00000000000000006 0.00000000000000061 -0.00000000000000006 -1.00000000000000000 0.00000000000000011 0.00000000000000061 0.00000000000000011 1.00000000000000000 5.00000000000000000
2 -0.00000000000304301 -1763.00000000000795808 3472.73340000000962391 1.00000000000000000 0.00000000000000155 0.00000000000000167 -0.00000000000000155 1.00000000000000000 -0.00000000000000122 -0.00000000000000167 0.00000000000000122 1.00000000000000000 5.00000000000000000
1 14.99999999999659472 -1137.00000000000636646 3119.00000000000818545 -0.00000000000000155 1.00000000000000000 -0.00000000000000122 
1 14.99999999999658051 -1656.06183403109093888 3611.62000000000989530 0.00000000000000155 -1.00000000000000000 0.00000000000000122 
1 14.99999999999656275 -1137.00000000000636646 3137.65628889393701684 0.00000000000000167 0.00000000000000100 -1.00000000000000000 
1 14.99999999999689493 -1858.00000000000727596 3611.62000000001035005 0.00000000000000167 0.00000000000000100 -1.00000000000000000 
1 1858.00000000000090949 3596.62000000000762157 -1873.00000000000250111 0.00000000000000111 -1.00000000000000000 0.00000000000000033 
1 14.99999999999689493 -1858.00000000000727596 3611.62000000001035005 0.00000000000000167 0.00000000000000100 -1.00000000000000000 
1 14.99999999999707079 -1703.67319696892218417 3361.62000000001307853 -0.00000000000000083 0.92999992542571663 -0.36755970767776169 
1 14.99999999999731060 -1858.00000000000704858 3361.62000000022089807 -0.00000000000000155 1.00000000000000000 -0.00000000000134784 
2 14.99999999999608491 -977.00000000000613909 3275.86670000000867731 1.00000000000000000 0.00000000000000155 0.00000000000000167 -0.00000000000000155 1.00000000000000000 -0.00000000000000122 -0.00000000000000167 0.00000000000000122 1.00000000000000000 5.00000000000000000
2 14.99999999999661782 -1320.26801004712115173 3275.86670000000867731 1.00000000000000000 0.00000000000000155 0.00000000000000167 -0.00000000000000155 1.00000000000000000 -0.00000000000000122 -0.00000000000000167 0.00000000000000122 1.00000000000000000 5.00000000000000000
2 14.99999999999649702 -1437.15929903209848817 3457.73340000000916916 1.00000000000000000 0.00000000000000155 0.00000000000000167 -0.00000000000000155 1.00000000000000000 -0.00000000000000122 -0.00000000000000167 0.00000000000000122 1.00000000000000000 5.00000000000000000
2 14.99999999999348610 -1743.00000000000341061 3406.56403258783893762 -1.00000000000000000 0.00000000000000033 -0.00000000000000128 0.00000000000000033 1.00000000000000000 -0.00000000000000072 0.00000000000000128 -0.00000000000000072 -1.00000000000000000 5.00000000000000000
2 14.99999999999343991 -1803.00000000000363798 3406.56403258783939236 -1.00000000000000000 0.00000000000000033 -0.00000000000000128 0.00000000000000033 1.00000000000000000 -0.00000000000000072 0.00000000000000128 -0.00000000000000072 -1.00000000000000000 5.00000000000000000
2 14.99999999999700329 -1763.00000000000795808 3457.73340000000962391 1.00000000000000000 0.00000000000000155 0.00000000000000167 -0.00000000000000155 1.00000000000000000 -0.00000000000000122 -0.00000000000000167 0.00000000000000122 1.00000000000000000 5.00000000000000000
1 14.99999999999497646 -937.00000000000306954 2884.00000000000636646 -1.00000000000000000 0.00000000000000100 -0.00000000000000022 
1 14.99999999999614531 -937.00000000000557066 3119.00000000000773070 0.00000000000000133 0.00000000000000122 -1.00000000000000000 
1 -0.00000000000388944 -937.00000000000557066 3134.00000000000773070 0.00000000000000133 0.00000000000000122 -1.00000000000000000 
1 -0.00000000000478201 -1858.00000000000522959 3626.62000000000989530 1.00000000000000000 -0.00000000000000089 -0.00000000000000006 
1 -80.00000000000433431 -937.00000000000136424 3134.00000000000682121 0.00000000000000017 -1.00000000000000000 0.00000000000000105 
1 -937.00000000000306954 3134.00000000000545697 856.99999999999931788 -0.00000000000000083 -0.00000000000000078 1.00000000000000000 
1 -952.00000000000318323 3134.00000000000545697 871.99999999999943157 -0.00000000000000083 -0.00000000000000078 1.00000000000000000 
1 -952.00000000000329692 3134.00000000000545697 951.99999999999954525 0.00000000000000050 -1.00000000000000000 0.00000000000000056 
1 -0.00000000000349420 -1017.00000000000534328 2884.00000000000727596 -0.00000000000000078 1.00000000000000000 -0.00000000000000056 
1 -0.00000000000373401 -1137.00000000000682121 3134.00000000000773070 0.00000000000000086 0.43273106758477486 -0.90152305746827188 
1 1858.00000000000113687 3596.62000000000762157 -1778.00000000000250111 -0.00000000000000033 -0.00000000000000078 -1.00000000000000000 
1 1858.00000000000113687 3596.62000000000762157 -1778.00000000000250111 -0.00000000000000033 -0.00000000000000078 -1.00000000000000000 
1 1858.00000000000113687 3516.62000000000716682 -1778.00000000000250111 -0.00000000000000111 1.00000000000000000 -0.00000000000000033 
1 1858.00000000000113687 3516.62000000000716682 -1873.00000000000250111 0.00000000000000033 0.00000000000000078 1.00000000000000000 
2 1858.00000000000113687 3556.62000000000716682 -1818.00000000000250111 1.00000000000000000 0.00000000000000111 -0.00000000000000033 0.00000000000000111 -1.00000000000000000 0.00000000000000033 -0.00000000000000033 -0.00000000000000033 -1.00000000000000000 5.00000000000000000
1 -0.00000000000431017 -1858.00000000000545697 3376.62000000022089807 1.00000000000000000 -0.00000000000000089 -0.00000000000000006 
1 1858.00000000000113687 3516.62000000000716682 -1873.00000000000250111 0.00000000000000033 0.00000000000000078 1.00000000000000000 
1 -0.00000000000468793 -1137.00000000000477485 3152.65628889393656209 1.00000000000000000 -0.00000000000000089 -0.00000000000000006 
1 -0.00000000000465272 -1137.00000000000477485 3134.00000000000773070 1.00000000000000000 -0.00000000000000089 -0.00000000000000006 
1 -0.00000000000448150 -1703.67319696892036518 3376.62000000001307853 1.00000000000000000 -0.00000000000000089 -0.00000000000000006 
1 -0.00000000000513198 -972.00000000000443379 3290.86670000000822256 1.00000000000000000 -0.00000000000000089 -0.00000000000000006 
1 -0.00000000000475087 -1315.26801004711933274 3290.86670000000822256 1.00000000000000000 -0.00000000000000089 -0.00000000000000006 
1 -0.00000000000496435 -1432.15929903209666918 3472.73340000000871441 1.00000000000000000 -0.00000000000000089 -0.00000000000000006 
1 -0.00000000000625791 -1738.00000000000341061 3406.56403258783893762 1.00000000000000000 -0.00000000000000111 0.00000000000000067 
1 -0.00000000000627789 -1798.00000000000363798 3406.56403258783939236 1.00000000000000000 -0.00000000000000111 0.00000000000000067 
1 -0.00000000000460259 -1758.00000000000636646 3472.73340000000962391 1.00000000000000000 -0.00000000000000089 -0.00000000000000006 
1 14.99999999999630163 -1137.00000000000682121 3119.00000000000773070 0.00000000000000086 0.43273106758477486 -0.90152305746827188 
1 14.99999999999654143 -1017.00000000000534328 2869.00000000000727596 -0.00000000000000078 1.00000000000000000 -0.00000000000000056 
1 14.99999999999321787 -1857.99999999999909051 3596.62000000000716682 -0.00000000000000056 -1.00000000000000000 0.00000000000000155 
1 14.99999999999324451 -1857.99999999999909051 3516.62000000000716682 -0.00000000000000056 -1.00000000000000000 0.00000000000000155 
1 1870.00000000000090949 3596.62000000000762157 -1885.00000000000250111 0.00000000000000111 -1.00000000000000000 0.00000000000000033 
1 14.99999999999502087 -1017.00000000000318323 2884.00000000000636646 -1.00000000000000000 0.00000000000000100 -0.00000000000000022 
1 -0.00000000000349420 -1017.00000000000534328 2884.00000000000727596 -0.00000000000000078 1.00000000000000000 -0.00000000000000056 
1 -937.00000000000306954 2884.00000000000500222 936.99999999999954525 0.00000000000000083 0.00000000000000078 -1.00000000000000000 
1 -937.00000000000295586 2884.00000000000500222 856.99999999999943157 -0.00000000000000050 1.00000000000000000 -0.00000000000000056 
2 -937.00000000000306954 2984.00000000000545697 896.99999999999943157 1.00000000000000000 0.00000000000000050 0.00000000000000083 -0.00000000000000050 1.00000000000000000 -0.00000000000000056 -0.00000000000000083 0.00000000000000056 1.00000000000000000 5.00000000000000000
2 -937.00000000000306954 2924.00000000000545697 896.99999999999954525 1.00000000000000000 0.00000000000000050 0.00000000000000083 -0.00000000000000050 1.00000000000000000 -0.00000000000000056 -0.00000000000000083 0.00000000000000056 1.00000000000000000 5.00000000000000000
1 -80.00000000000403588 -937.00000000000125056 2884.00000000000591172 0.00000000000000017 -1.00000000000000000 0.00000000000000105 
1 -952.00000000000306954 2884.00000000000500222 871.99999999999954525 -0.00000000000000050 1.00000000000000000 -0.00000000000000056 
1 -952.00000000000318323 2884.00000000000500222 951.99999999999965894 0.00000000000000083 0.00000000000000078 -1.00000000000000000 
2 -952.00000000000318323 2984.00000000000545697 911.99999999999954525 1.00000000000000000 0.00000000000000050 0.00000000000000083 -0.00000000000000050 1.00000000000000000 -0.00000000000000056 -0.00000000000000083 0.00000000000000056 1.00000000000000000 5.00000000000000000
2 -952.00000000000318323 2924.00000000000545697 911.99999999999965894 1.00000000000000000 0.00000000000000050 0.00000000000000083 -0.00000000000000050 1.00000000000000000 -0.00000000000000056 -0.00000000000000083 0.00000000000000056 1.00000000000000000 5.00000000000000000
1 -80.00000000000679279 -1857.99999999999886313 3596.62000000000716682 -0.00000000000000056 -1.00000000000000000 0.00000000000000155 
1 1870.00000000000113687 3596.62000000000762157 -1790.00000000000250111 -0.00000000000000033 -0.00000000000000078 -1.00000000000000000 
1 -80.00000000000676437 -1857.99999999999909051 3516.62000000000716682 -0.00000000000000056 -1.00000000000000000 0.00000000000000155 
1 1870.00000000000113687 3516.62000000000716682 -1790.00000000000250111 -0.00000000000000111 1.00000000000000000 -0.00000000000000033 
1 1870.00000000000113687 3516.62000000000716682 -1885.00000000000250111 0.00000000000000033 0.00000000000000078 1.00000000000000000 
1 -40.00000000000677147 -1857.99999999999909051 3551.62000000000716682 -0.00000000000000056 -1.00000000000000000 0.00000000000000155 
2 1870.00000000000113687 3556.62000000000716682 -1830.00000000000250111 1.00000000000000000 0.00000000000000111 -0.00000000000000033 0.00000000000000111 -1.00000000000000000 0.00000000000000033 -0.00000000000000033 -0.00000000000000033 -1.00000000000000000 5.00000000000000000
1 -40.00000000000411404 -937.00000000000136424 2989.00000000000591172 0.00000000000000017 -1.00000000000000000 0.00000000000000105 
1 -40.00000000000404299 -937.00000000000147793 2929.00000000000591172 0.00000000000000017 -1.00000000000000000 0.00000000000000105 
Polygon3D 0
PolygonOnTriangulations 0
Surfaces 36
1 -0.00000000000493028 -887.00000000000420641 3134.00000000000773070 0.00000000000000089 -1.00000000000000000 0.00000000000000122 -0.00000000000000189 0.00000000000000122 1.00000000000000000 -1.00000000000000000 -0.00000000000000089 -0.00000000000000189 
1 -0.00000000000465272 -1137.00000000000477485 3134.00000000000773070 -0.00000000000000172 -0.00000000000000033 1.00000000000000000 -0.00000000000000111 1.00000000000000000 0.00000000000000033 -1.00000000000000000 -0.00000000000000111 -0.00000000000000172 
1 -0.00000000000528636 -887.00000000000443379 3322.66713379609427648 0.00000000000000193 -0.36755970767774421 -0.92999992542572363 0.00000000000000034 -0.92999992542572363 0.36755970767774421 -1.00000000000000000 -0.00000000000000103 -0.00000000000000167 
1 3377.25097898217018155 -0.00000000000453412 -1381.13214511046703592 -0.00000000000000033 1.00000000000000000 -0.00000000000000089 1.00000000000000000 0.00000000000000033 -0.00000000000000100 -0.00000000000000100 -0.00000000000000089 -1.00000000000000000 
2 -0.00000000000512643 -977.00000000000443379 3290.86670000000822256 -1.00000000000000000 0.00000000000000067 -0.00000000000000011 0.00000000000000067 1.00000000000000000 -0.00000000000000144 -0.00000000000000011 0.00000000000000144 1.00000000000000000 5.00000000000000000
2 -0.00000000000474532 -1320.26801004711933274 3290.86670000000822256 -1.00000000000000000 0.00000000000000067 -0.00000000000000011 0.00000000000000067 1.00000000000000000 -0.00000000000000144 -0.00000000000000011 0.00000000000000144 1.00000000000000000 5.00000000000000000
2 -0.00000000000495880 -1437.15929903209666918 3472.73340000000871441 -1.00000000000000000 0.00000000000000067 -0.00000000000000011 0.00000000000000067 1.00000000000000000 -0.00000000000000144 -0.00000000000000011 0.00000000000000144 1.00000000000000000 5.00000000000000000
2 -0.00000000000625957 -1743.00000000000341061 3406.56403258783893762 -1.00000000000000000 0.00000000000000078 -0.00000000000000083 0.00000000000000078 1.00000000000000000 -0.00000000000000072 0.00000000000000083 -0.00000000000000072 -1.00000000000000000 5.00000000000000000
2 -0.00000000000627955 -1803.00000000000363798 3406.56403258783939236 -1.00000000000000000 0.00000000000000078 -0.00000000000000083 0.00000000000000078 1.00000000000000000 -0.00000000000000072 0.00000000000000083 -0.00000000000000072 -1.00000000000000000 5.00000000000000000
2 -0.00000000000459704 -1763.00000000000636646 3472.73340000000962391 -1.00000000000000000 0.00000000000000067 -0.00000000000000011 0.00000000000000067 1.00000000000000000 -0.00000000000000144 -0.00000000000000011 0.00000000000000144 1.00000000000000000 5.00000000000000000
1 3362.25097898217018155 14.99999999999551648 -1381.13214511046703592 -0.00000000000000033 1.00000000000000000 -0.00000000000000089 1.00000000000000000 0.00000000000000033 -0.00000000000000100 -0.00000000000000100 -0.00000000000000089 -1.00000000000000000 
1 14.99999999999453060 -937.00000000000318323 3134.00000000000727596 0.00000000000000033 -1.00000000000000000 0.00000000000000078 0.00000000000000178 -0.00000000000000078 -1.00000000000000000 1.00000000000000000 0.00000000000000033 0.00000000000000178 
1 -0.00000000000500621 -1656.06183403108889252 3626.62000000000989530 0.00000000000000172 0.00000000000000033 -1.00000000000000000 0.00000000000000111 -1.00000000000000000 -0.00000000000000033 -1.00000000000000000 -0.00000000000000111 -0.00000000000000172 
1 -80.00000000000433431 -937.00000000000136424 3134.00000000000682121 -0.00000000000000100 0.00000000000000017 1.00000000000000000 1.00000000000000000 -0.00000000000000111 0.00000000000000100 0.00000000000000111 1.00000000000000000 -0.00000000000000017 
1 3042.58025790609281103 -0.00000000000505374 -1013.82712311931470595 0.00000000000000000 1.00000000000000000 -0.00000000000000100 1.00000000000000000 -0.00000000000000000 -0.00000000000000078 -0.00000000000000078 -0.00000000000000100 -1.00000000000000000 
1 -0.00000000000478201 -1858.00000000000522959 3626.62000000000989530 -0.00000000000000089 1.00000000000000000 -0.00000000000000122 0.00000000000000189 -0.00000000000000122 -1.00000000000000000 -1.00000000000000000 -0.00000000000000089 -0.00000000000000189 
1 3556.62000000000716682 -32.50000000000637357 -1858.00000000000045475 -0.00000000000000175 0.00000000000000097 1.00000000000000000 1.00000000000000000 -0.00000000000000033 0.00000000000000175 0.00000000000000033 1.00000000000000000 -0.00000000000000097 
2 -40.00000000000677858 -1857.99999999999909051 3556.62000000000716682 0.00000000000000089 1.00000000000000000 -0.00000000000000133 0.00000000000000033 -0.00000000000000133 -1.00000000000000000 1.00000000000000000 -0.00000000000000089 0.00000000000000033 5.00000000000000000
1 -0.00000000000478201 -1858.00000000000522959 3626.62000000000989530 -0.00000000000000089 1.00000000000000000 -0.00000000000000122 0.00000000000000189 -0.00000000000000122 -1.00000000000000000 -1.00000000000000000 -0.00000000000000089 -0.00000000000000189 
1 -0.00000000000468793 -1137.00000000000477485 3152.65628889393656209 -0.00000000000000089 1.00000000000000000 -0.00000000000000122 0.00000000000000189 -0.00000000000000122 -1.00000000000000000 -1.00000000000000000 -0.00000000000000089 -0.00000000000000189 
1 -0.00000000000431017 -1858.00000000000545697 3376.62000000022089807 -0.00000000000000172 0.00000000000134629 1.00000000000000000 -0.00000000000000111 1.00000000000000000 -0.00000000000134629 -1.00000000000000000 -0.00000000000000111 -0.00000000000000172 
1 -0.00000000000448150 -1703.67319696892036518 3376.62000000001307853 -0.00000000000000193 0.36755970767776075 0.92999992542571708 -0.00000000000000034 0.92999992542571708 -0.36755970767776075 -1.00000000000000000 -0.00000000000000103 -0.00000000000000167 
1 3027.58025790609281103 14.99999999999499067 -1013.82712311931470595 0.00000000000000000 1.00000000000000000 -0.00000000000000100 1.00000000000000000 -0.00000000000000000 -0.00000000000000078 -0.00000000000000078 -0.00000000000000100 -1.00000000000000000 
1 14.99999999999321787 -1857.99999999999909051 3596.62000000000716682 1.00000000000000000 -0.00000000000000056 0.00000000000000033 0.00000000000000033 -0.00000000000000133 -1.00000000000000000 0.00000000000000056 1.00000000000000000 -0.00000000000000133 
1 14.99999999999502087 -1017.00000000000318323 2884.00000000000636646 0.00000000000000155 0.00000000000000033 -1.00000000000000000 -0.00000000000000056 1.00000000000000000 0.00000000000000033 1.00000000000000000 0.00000000000000056 0.00000000000000155 
1 3009.00000000000727596 -40.00000000000393641 -937.00000000000250111 -0.00000000000000100 -0.00000000000000018 1.00000000000000000 -0.00000000000000033 1.00000000000000000 0.00000000000000018 -1.00000000000000000 -0.00000000000000033 -0.00000000000000100 
2 -40.00000000000411404 -937.00000000000136424 2984.00000000000591172 0.00000000000000022 1.00000000000000000 -0.00000000000000083 -0.00000000000000122 0.00000000000000083 1.00000000000000000 1.00000000000000000 -0.00000000000000022 0.00000000000000122 5.00000000000000089
2 -40.00000000000403588 -937.00000000000147793 2924.00000000000591172 0.00000000000000022 1.00000000000000000 -0.00000000000000083 -0.00000000000000122 0.00000000000000083 1.00000000000000000 1.00000000000000000 -0.00000000000000022 0.00000000000000122 5.00000000000000089
1 -80.00000000000403588 -937.00000000000125056 2884.00000000000591172 -1.00000000000000000 0.00000000000000072 -0.00000000000000033 -0.00000000000000033 -0.00000000000000006 1.00000000000000000 0.00000000000000072 1.00000000000000000 0.00000000000000006 
1 3009.00000000000727596 -25.00000000000391509 -952.00000000000250111 -0.00000000000000100 -0.00000000000000018 1.00000000000000000 -0.00000000000000033 1.00000000000000000 0.00000000000000018 -1.00000000000000000 -0.00000000000000033 -0.00000000000000100 
1 14.99999999999464251 -1137.00000000000454747 3134.00000000000773070 0.00000000000000097 -0.90152305746827255 -0.43273106758477348 0.00000000000000136 0.43273106758477348 -0.90152305746827255 1.00000000000000000 0.00000000000000029 0.00000000000000165 
1 -80.00000000000679279 -1857.99999999999886313 3596.62000000000716682 -0.00000000000000011 0.00000000000000155 1.00000000000000000 1.00000000000000000 -0.00000000000000089 0.00000000000000011 0.00000000000000089 1.00000000000000000 -0.00000000000000155 
1 -80.00000000000676437 -1857.99999999999909051 3516.62000000000716682 -1.00000000000000000 0.00000000000000056 -0.00000000000000033 -0.00000000000000033 0.00000000000000133 1.00000000000000000 0.00000000000000056 1.00000000000000000 -0.00000000000000133 
1 14.99999999999324451 -1857.99999999999909051 3516.62000000000716682 0.00000000000000011 -0.00000000000000155 -1.00000000000000000 -1.00000000000000000 0.00000000000000089 -0.00000000000000011 0.00000000000000089 1.00000000000000000 -0.00000000000000155 
1 3556.62000000000716682 -20.50000000000637357 -1870.00000000000045475 -0.00000000000000175 0.00000000000000097 1.00000000000000000 1.00000000000000000 -0.00000000000000033 0.00000000000000175 0.00000000000000033 1.00000000000000000 -0.00000000000000097 
1 -0.00000000000393417 -937.00000000000136424 2884.00000000000591172 0.00000000000000100 -0.00000000000000017 -1.00000000000000000 -1.00000000000000000 0.00000000000000111 -0.00000000000000100 0.00000000000000111 1.00000000000000000 -0.00000000000000017 
Triangulations 0

TShapes 238
Ve
0.000000100000000
3134.000000000005457 -0.000000000006210 -886.999999999998977
0 0

0101101
*
Ve
0.000000100000000
3134.000000000005457 14.999999999993804 -886.999999999998977
0 0

0101101
*
Ed
 0.000000100000000 1 1 0
1  1 0 0.000000000000000 15.000000000000000
0

0101000
+238 12 -237 12 *
Ve
0.000000100000000
3322.667133796091548 -0.000000000006567 -886.999999999998749
0 0

0101101
*
Ve
0.000000100000000
3322.667133796091548 14.999999999993449 -886.999999999998749
0 0

0101101
*
Ed
 0.000000100000000 1 1 0
1  2 0 0.000000000000000 15.000000000000000
0

0101000
+235 12 -234 12 *
Ed
 0.000000100000000 1 1 0
1  3 0 0.000000000000000 188.667133796086091
0

0101000
+238 17 -235 17 *
Ed
 0.000000100000000 1 1 0
1  4 0 0.000000000000000 188.667133796086091
0

0101000
+237 20 -234 20 *
Wi

0101100
+236 0 -233 0 -232 16 +231 19 *
Fa
0  0.000000100000000 1 0

0111000
+230 0 *
Ve
0.000000100003133
3134.000000000005912 -0.000000000005816 -936.999999999998977
0 0

0101101
*
Ed
 0.000000100000000 1 1 0
1  5 0 199.999999999999773 250.000000000000000
0

0101000
+228 17 -238 17 *
Ve
0.000000100000455
3134.000000000005457 14.999999999993481 -936.999999999999091
0 0

0101101
*
Ed
 0.000000100000000 1 1 0
1  6 0 199.999999999999773 250.000000000000000
0

0101000
+226 20 -237 20 *
Ed
 0.000000100000455 1 1 0
1  7 0 0.000000000000000 15.000000000000000
0

0101000
+226 26 -228 26 *
Wi

0101100
-227 23 -236 22 +225 24 -224 25 *
Fa
0  0.000000100000000 2 22

0111000
+223 0 *
Ve
0.000000100000000
3626.620000000007167 -0.000000000007396 -1656.061834031082299
0 0

0101101
*
Ve
0.000000100000000
3626.620000000007167 14.999999999992617 -1656.061834031082299
0 0

0101101
*
Ed
 0.000000100000000 1 1 0
1  8 0 0.000000000000000 15.000000000000000
0

0101000
+221 12 -220 12 *
Ed
 0.000000100000000 1 1 0
1  9 0 0.000000000000000 826.948274946400375
0

0101000
+235 17 -221 17 *
Ed
 0.000000100000000 1 1 0
1  10 0 0.000000000000000 826.948274946400375
0

0101000
+234 20 -220 20 *
Wi

0101100
+233 0 -219 0 -218 16 +217 19 *
Fa
0  0.000000100000000 3 0

0111000
+216 0 *
Ve
0.000000100001597
3134.000000000005457 -0.000000000004977 -951.999999999998522
0 0

0101101
*
Ed
 0.000000100001259 1 1 0
1  11 0 185.000000000000455 199.999999999999773
0

0101000
+214 17 -228 17 *
Ve
0.000000100000000
3626.620000000007622 -0.000000000007464 -1857.999999999998408
0 0

0101101
*
Ed
 0.000000100000000 1 1 0
1  12 0 0.000000000000000 201.938165968915882
0

0101000
+221 17 -212 17 *
Ve
0.000000100001645
3134.000000000005912 -0.000000000006466 -1136.999999999999545
0 0

0101101
*
Ed
 0.000000100000341 1 1 0
1  13 0 0.000000000000000 185.000000000000455
0

0101000
+210 17 -214 17 *
Ve
0.000000100000455
3596.620000000007167 -0.000000000007403 -1857.999999999998181
0 0

0101101
*
Ed
 0.000000100000000 1 1 0
1  14 0 0.000000000000000 30.000000000000000
0

0101000
+212 17 -208 17 *
Ve
0.000000100000455
3516.620000000007167 -0.000000000007256 -1857.999999999998408
0 0

0101101
*
Ed
 0.000000100000455 1 1 0
1  15 0 30.000000000000000 110.000000000000000
0

0101000
+208 17 -206 17 *
Ve
0.000000100000000
3376.620000000218624 -0.000000000006992 -1857.999999999998408
0 0

0101101
*
Ed
 0.000000100000000 1 1 0
1  16 0 110.000000000000000 249.999999999788542
0

0101000
+206 17 -204 17 *
Ve
0.000000100000000
3152.656288893934743 -0.000000000006329 -1136.999999999999091
0 0

0101101
*
Ed
 0.000000100000000 1 1 0
1  17 0 0.000000000000000 18.656288893928831
0

0101000
+202 17 -210 17 *
Ve
0.000000100000000
3376.620000000010350 -0.000000000006940 -1703.673196968913544
0 0

0101101
*
Ed
 0.000000100000000 1 1 0
1  18 0 0.000000000000000 154.326803031084637
0

0101000
+204 17 -200 17 *
Ed
 0.000000100000000 1 1 0
1  19 0 0.000000000000000 609.326067106418122
0

0101000
+200 17 -202 17 *
Wi

0101100
+232 28 +227 28 +218 28 +213 28 +211 28 +209 28 +207 28 +205 28 +203 28 +201 28 
+199 28 +198 28 *
Ve
0.000000100000000
3290.866700000005494 -0.000000000006535 -971.999999999998863
0 0

0101101
*
Ed
 0.000000100000000 1 1 0
1  20 0 0.000000000000000 6.283185307179586
2  1 5 29 0.000000000000000 6.283185307179586
0

0101000
+196 17 -196 17 *
Wi

0101100
-195 28 *
Ve
0.000000100000000
3290.866700000005494 -0.000000000006649 -1315.268010047113421
0 0

0101101
*
Ed
 0.000000100000000 1 1 0
1  21 0 0.000000000000000 6.283185307179586
2  2 6 29 0.000000000000000 6.283185307179586
0

0101000
+193 17 -193 17 *
Wi

0101100
-192 28 *
Ve
0.000000100000000
3472.733400000005986 -0.000000000007031 -1432.159299032090303
0 0

0101101
*
Ed
 0.000000100000000 1 1 0
1  22 0 0.000000000000000 6.283185307179586
2  3 7 29 0.000000000000000 6.283185307179586
0

0101000
+190 17 -190 17 *
Wi

0101100
-189 28 *
Ve
0.000000100000274
3406.564032587838483 -0.000000000007030 -1738.000000000001137
0 0

0101101
*
Ed
 0.000000100000274 1 1 0
1  23 0 0.000000000000000 6.283185307179586
2  4 8 33 0.000000000000000 6.283185307179586
0

0101000
+187 34 -187 34 *
Wi

0101100
+186 32 *
Ve
0.000000100000301
3406.564032587838483 -0.000000000007076 -1798.000000000001364
0 0

0101101
*
Ed
 0.000000100000301 1 1 0
1  24 0 0.000000000000000 6.283185307179586
2  5 9 33 0.000000000000000 6.283185307179586
0

0101000
+184 34 -184 34 *
Wi

0101100
+183 32 *
Ve
0.000000100000000
3472.733400000006441 -0.000000000007140 -1757.999999999999545
0 0

0101101
*
Ed
 0.000000100000000 1 1 0
1  25 0 0.000000000000000 6.283185307179586
2  6 10 29 0.000000000000000 6.283185307179586
0

0101000
+181 17 -181 17 *
Wi

0101100
-180 28 *
Fa
0  0.000000100000000 4 27

0111000
+197 0 +194 0 +191 0 +188 0 +185 0 +182 0 +179 0 *
Ve
0.000000100001645
3134.000000000005912 14.999999999993546 -1136.999999999999545
0 0

0101101
*
Ed
 0.000000100000346 1 1 0
1  26 0 0.000000000000000 199.999999999999773
0

0101000
+177 20 -226 20 *
Ve
0.000000100000000
3626.620000000007622 14.999999999992550 -1857.999999999998408
0 0

0101101
*
Ed
 0.000000100000000 1 1 0
1  27 0 0.000000000000000 201.938165968915882
0

0101000
+220 20 -175 20 *
Ve
0.000000100000000
3152.656288893934743 14.999999999993685 -1136.999999999999091
0 0

0101101
*
Ed
 0.000000100000000 1 1 0
1  28 0 0.000000000000000 18.656288893928831
0

0101000
+173 20 -177 20 *
Ve
0.000000100000609
3596.620000000007622 14.999999999993014 -1857.999999999998636
0 0

0101101
*
Ed
 0.000000100000000 1 1 0
1  29 0 0.000000000000000 30.000000000000000
0

0101000
+175 20 -171 20 *
Ve
0.000000100000602
3516.620000000007622 14.999999999993040 -1857.999999999998636
0 0

0101101
*
Ed
 0.000000100000602 1 1 0
1  30 0 0.000000000000000 80.000000000000000
0

0101000
+171 40 -169 40 *
Ve
0.000000100000000
3376.620000000218624 14.999999999993022 -1857.999999999998408
0 0

0101101
*
Ed
 0.000000100000000 1 1 0
1  31 0 110.000000000000000 249.999999999788542
0

0101000
+169 20 -167 20 *
Ve
0.000000100000000
3376.620000000010350 14.999999999993074 -1703.673196968913544
0 0

0101101
*
Ed
 0.000000100000000 1 1 0
1  32 0 0.000000000000000 609.326067106418122
0

0101000
+165 20 -173 20 *
Ed
 0.000000100000000 1 1 0
1  33 0 0.000000000000000 154.326803031084637
0

0101000
+167 20 -165 20 *
Wi

0101100
+231 36 +225 36 +217 36 +176 36 +174 36 +172 36 +170 36 +168 39 +166 36 +164 36 
+163 36 *
Ve
0.000000100000000
3290.866700000005494 14.999999999993479 -971.999999999998863
0 0

0101101
*
Ed
 0.000000100000000 1 1 0
1  34 0 0.000000000000000 6.283185307179586
2  7 5 41 0.000000000000000 6.283185307179586
0

0101000
+161 20 -161 20 *
Wi

0101100
-160 36 *
Ve
0.000000100000000
3290.866700000005494 14.999999999993365 -1315.268010047113421
0 0

0101101
*
Ed
 0.000000100000000 1 1 0
1  35 0 0.000000000000000 6.283185307179586
2  8 6 41 0.000000000000000 6.283185307179586
0

0101000
+158 20 -158 20 *
Wi

0101100
-157 36 *
Ve
0.000000100000000
3472.733400000005986 14.999999999992982 -1432.159299032090303
0 0

0101101
*
Ed
 0.000000100000000 1 1 0
1  36 0 0.000000000000000 6.283185307179586
2  9 7 41 0.000000000000000 6.283185307179586
0

0101000
+155 20 -155 20 *
Wi

0101100
-154 36 *
Ve
0.000000100000293
3406.564032587838938 14.999999999993005 -1738.000000000001592
0 0

0101101
*
Ed
 0.000000100000000 1 1 0
1  37 0 0.000000000000000 6.283185307179586
2  10 8 0 0.000000000000000 6.283185307179586
0

0101000
+152 43 -152 43 *
Wi

0101100
+151 42 *
Ve
0.000000100000345
3406.564032587839392 14.999999999992985 -1798.000000000001592
0 0

0101101
*
Ed
 0.000000100000000 1 1 0
1  38 0 0.000000000000000 6.283185307179586
2  11 9 0 0.000000000000000 6.283185307179586
0

0101000
+149 43 -149 43 *
Wi

0101100
+148 42 *
Ve
0.000000100000000
3472.733400000006441 14.999999999992873 -1757.999999999999545
0 0

0101101
*
Ed
 0.000000100000000 1 1 0
1  39 0 0.000000000000000 6.283185307179586
2  12 10 41 0.000000000000000 6.283185307179586
0

0101000
+146 20 -146 20 *
Wi

0101100
-145 36 *
Fa
0  0.000000100000000 11 35

0111000
+162 0 +159 0 +156 0 +153 0 +150 0 +147 0 +144 0 *
Ve
0.000000100000000
2884.000000000005457 14.999999999993925 -936.999999999999204
0 0

0101101
*
Ve
0.000000100003133
2884.000000000004547 -0.000000000005373 -936.999999999999091
0 0

0101101
*
Ed
 0.000000100000000 1 1 0
1  40 0 0.000000000000000 15.000000000000000
0

0101000
+142 26 -141 26 *
Ed
 0.000000100000000 1 1 0
1  41 0 0.000000000000000 250.000000000000000
0

0101000
+226 47 -142 47 *
Ed
 0.000000100003133 1 1 0
1  42 0 0.000000000000000 250.000000000000000
0

0101000
+228 50 -141 50 *
Wi

0101100
+224 25 -140 25 -139 46 +138 49 *
Fa
0  0.000000100000000 12 25

0111000
+137 0 *
Ed
 0.000000100000000 1 1 0
1  43 0 0.000000000000000 15.000000000000000
0

0101000
+212 12 -175 12 *
Wi

0101100
+219 0 -135 0 -211 16 +174 19 *
Fa
0  0.000000100000000 13 0

0111000
+134 0 *
Ve
0.000000100000000
3134.000000000005457 -80.000000000005031 -936.999999999998408
0 0

0101101
*
Ve
0.000000100000000
3134.000000000005457 -80.000000000005031 -951.999999999998408
0 0

0101101
*
Ed
 0.000000100000000 1 1 0
1  44 0 0.000000000000000 15.000000000000000
0

0101000
+132 51 -131 51 *
Ed
 0.000000100000000 1 1 0
1  45 0 0.000000000000000 80.000000000000000
0

0101000
+132 55 -228 55 *
Ed
 0.000000100000000 1 1 0
1  46 0 0.000000000000000 80.000000000000000
0

0101000
+131 58 -214 58 *
Wi

0101100
+130 0 +213 23 -129 54 +128 57 *
Fa
0  0.000000100000000 14 0

0111000
+127 0 *
Ve
0.000000100001492
2884.000000000004547 -0.000000000004672 -951.999999999998749
0 0

0101101
*
Ed
 0.000000100001483 1 1 0
1  47 0 0.000000000000000 250.000000000000000
0

0101000
+214 58 -125 58 *
Ve
0.000000100000000
2884.000000000005457 -0.000000000006130 -1016.999999999999318
0 0

0101101
*
Ed
 0.000000100000000 1 1 0
1  48 0 0.000000000000000 65.000000000000455
0

0101000
+123 50 -125 50 *
Ed
 0.000000100000000 1 1 0
1  49 0 0.000000000000000 277.308492477241316
0

0101000
+210 50 -123 50 *
Wi

0101100
-209 23 -124 57 +122 49 +121 49 *
Fa
0  0.000000100000000 15 59

0111000
+120 0 *
Ed
 0.000000100000227 1 1 0
1  50 0 79.999999999999602 95.000000000000000
0

0101000
+208 40 -171 40 *
Wi

0101100
-207 28 -118 39 +170 36 +135 10 *
Fa
0  0.000000100000000 16 10

0111000
+117 0 *
Ve
0.000000100000000
3596.620000000007622 -80.000000000007006 -1857.999999999998636
0 0

0101101
*
Ed
 0.000000100000000 1 1 0
1  51 0 0.000000000000000 79.999999999999602
0

0101000
+115 40 -208 40 *
Ve
0.000000100000000
3516.620000000007622 -80.000000000006978 -1857.999999999998636
0 0

0101101
*
Ed
 0.000000100000000 1 1 0
1  52 0 0.000000000000000 80.000000000000000
0

0101000
+113 40 -115 40 *
Ed
 0.000000100000000 1 1 0
1  53 0 15.000000000000295 95.000000000000000
0

0101000
+206 40 -113 40 *
Wi

0101100
+114 39 +112 39 +111 39 +205 28 *
Ve
0.000000100000000
3551.620000000007622 -40.000000000006978 -1857.999999999998636
0 0

0101101
*
Ed
 0.000000100000000 1 1 0
1  54 0 0.000000000000000 6.283185307179586
2  13 18 61 0.000000000000000 6.283185307179586
0

0101000
+109 40 -109 40 *
Wi

0101100
+108 39 *
Fa
0  0.000000100000000 17 60

0111000
+110 0 +107 0 *
Ed
 0.000000100000000 1 1 0
1  55 0 0.000000000000000 15.000000000000000
0

0101000
+204 12 -167 12 *
Ed
 0.000000100000227 1 1 0
1  56 0 0.000000000000000 15.000000000000295
0

0101000
+169 40 -206 40 *
Wi

0101100
-203 28 -105 10 +166 36 -104 39 *
Fa
0  0.000000100000000 19 10

0111000
+103 0 *
Ed
 0.000000100000000 1 1 0
1  57 0 0.000000000000000 15.000000000000000
0

0101000
+202 12 -173 12 *
Ed
 0.000000100001137 1 1 0
1  58 0 0.000000000000000 15.000000000000000
0

0101000
+210 12 -177 12 *
Wi

0101100
+101 63 -100 63 -201 64 +172 65 *
Fa
0  0.000000100000000 20 63

0111000
+99 0 *
Ed
 0.000000100000000 1 1 0
1  59 0 0.000000000000000 15.000000000000000
0

0101000
+200 12 -165 12 *
Wi

0101100
+105 0 -97 0 -199 16 +163 19 *
Fa
0  0.000000100000000 21 0

0111000
+96 0 *
Wi

0101100
+97 0 -101 0 -198 16 +164 19 *
Fa
0  0.000000100000000 22 0

0111000
+94 0 *
Ed
 0.000000100000000 1 1 0
1  60 0 0.000000000000000 15.000000000000000
3  14 15CN 5 0 0.000000000000000 15.000000000000000
0

0101000
+196 12 -161 12 *
Wi

0101100
+92 0 -92 0 -195 16 +160 19 *
Fa
0  0.000000100000000 5 0

0111000
+91 0 *
Ed
 0.000000100000000 1 1 0
1  61 0 0.000000000000000 15.000000000000000
3  16 17CN 6 0 0.000000000000000 15.000000000000000
0

0101000
+193 12 -158 12 *
Wi

0101100
+89 0 -89 0 -192 16 +157 19 *
Fa
0  0.000000100000000 6 0

0111000
+88 0 *
Ed
 0.000000100000000 1 1 0
1  62 0 0.000000000000000 15.000000000000000
3  18 19CN 7 0 0.000000000000000 15.000000000000000
0

0101000
+190 12 -155 12 *
Wi

0101100
+86 0 -86 0 -189 16 +154 19 *
Fa
0  0.000000100000000 7 0

0111000
+85 0 *
Ed
 0.000000100000000 1 1 0
1  63 0 0.000000000000000 15.000000000000032
3  20 21CN 8 0 0.000000000000000 15.000000000000032
0

0101000
+187 43 -152 43 *
Wi

0101100
-186 66 -83 0 +151 0 +83 0 *
Fa
0  0.000000100000000 8 0

0111000
+82 0 *
Ed
 0.000000100000000 1 1 0
1  64 0 0.000000000000000 15.000000000000059
3  22 23CN 9 0 0.000000000000000 15.000000000000059
0

0101000
+184 43 -149 43 *
Wi

0101100
-183 66 -80 0 +148 0 +80 0 *
Fa
0  0.000000100000000 9 0

0111000
+79 0 *
Ed
 0.000000100000000 1 1 0
1  65 0 0.000000000000000 15.000000000000000
3  24 25CN 10 0 0.000000000000000 15.000000000000000
0

0101000
+181 12 -146 12 *
Wi

0101100
+77 0 -77 0 -180 16 +145 19 *
Fa
0  0.000000100000000 10 0

0111000
+76 0 *
Ve
0.000000100000000
2884.000000000005457 14.999999999993880 -1016.999999999999318
0 0

0101101
*
Ed
 0.000000100000000 1 1 0
1  66 0 0.000000000000000 277.308492477241316
0

0101000
+177 47 -74 47 *
Ed
 0.000000100000000 1 1 0
1  67 0 0.000000000000000 80.000000000000000
0

0101000
+74 47 -142 47 *
Wi

0101100
-176 65 +73 68 +72 68 -139 68 *
Fa
0  0.000000100000000 23 67

0111000
+71 0 *
Ve
0.000000100000609
3596.620000000007622 14.999999999993006 -1869.999999999998636
0 0

0101101
*
Ed
 0.000000100000000 1 1 0
1  68 0 0.000000000000000 12.000000000000000
0

0101000
+171 69 -69 69 *
Ve
0.000000100000602
3516.620000000007622 14.999999999993033 -1869.999999999998636
0 0

0101101
*
Ed
 0.000000100000000 1 1 0
1  69 0 0.000000000000000 12.000000000000000
0

0101000
+169 69 -67 69 *
Ed
 0.000000100000602 1 1 0
1  70 0 0.000000000000000 80.000000000000000
0

0101000
+69 72 -67 72 *
Wi

0101100
+68 0 -66 0 -168 39 +65 71 *
Fa
0  0.000000100000000 24 0

0111000
+64 0 *
Ed
 0.000000100000000 1 1 0
1  71 0 0.000000000000000 15.000000000000000
0

0101000
+74 26 -123 26 *
Ed
 0.000000100001492 1 1 0
1  72 0 65.000000000000455 80.000000000000000
0

0101000
+125 50 -141 50 *
Wi

0101100
+62 25 -140 25 -72 46 +122 49 +61 49 *
Fa
0  0.000000100000000 25 25

0111000
+60 0 *
Ve
0.000000100000000
2884.000000000004547 -80.000000000004732 -936.999999999998636
0 0

0101101
*
Ed
 0.000000100000000 1 1 0
1  73 0 0.000000000000000 80.000000000000000
0

0101000
+141 55 -58 55 *
Ed
 0.000000100000000 1 1 0
1  74 0 0.000000000000000 250.000000000000000
0

0101000
+58 55 -132 55 *
Wi

0101100
+138 49 +57 54 +56 54 +129 54 *
Ve
0.000000100000000
2989.000000000004547 -40.000000000004832 -936.999999999998522
0 0

0101101
*
Ed
 0.000000100000000 1 1 0
1  75 0 0.000000000000000 6.283185307179586
2  26 27 74 0.000000000000000 6.283185307179586
0

0101000
+54 55 -54 55 *
Wi

0101100
-53 54 *
Ve
0.000000100000000
2929.000000000004547 -40.000000000004754 -936.999999999998636
0 0

0101101
*
Ed
 0.000000100000000 1 1 0
1  76 0 0.000000000000000 6.283185307179586
2  27 28 74 0.000000000000000 6.283185307179586
0

0101000
+51 55 -51 55 *
Wi

0101100
-50 54 *
Fa
0  0.000000100000000 26 73

0111000
+55 0 +52 0 +49 0 *
Ve
0.000000100000000
2884.000000000004547 -80.000000000004732 -951.999999999998636
0 0

0101101
*
Ed
 0.000000100000000 1 1 0
1  77 0 0.000000000000000 15.000000000000000
0

0101000
+58 51 -47 51 *
Ed
 0.000000100000000 1 1 0
1  78 0 0.000000000000000 250.000000000000000
0

0101000
+47 58 -131 58 *
Wi

0101100
+46 0 -130 0 -56 54 +45 57 *
Fa
0  0.000000100000000 29 0

0111000
+44 0 *
Ed
 0.000000100000000 1 1 0
1  79 0 0.000000000000000 80.000000000000000
0

0101000
+125 58 -47 58 *
Wi

0101100
+124 76 +42 76 +45 76 +128 76 *
Ve
0.000000100000000
2989.000000000004547 -40.000000000004839 -951.999999999998522
0 0

0101101
*
Ed
 0.000000100000000 1 1 0
1  80 0 0.000000000000000 6.283185307179586
2  28 27 77 0.000000000000000 6.283185307179586
0

0101000
+40 58 -40 58 *
Wi

0101100
-39 76 *
Ve
0.000000100000000
2929.000000000004547 -40.000000000004761 -951.999999999998636
0 0

0101101
*
Ed
 0.000000100000000 1 1 0
1  81 0 0.000000000000000 6.283185307179586
2  29 28 77 0.000000000000000 6.283185307179586
0

0101000
+37 58 -37 58 *
Wi

0101100
-36 76 *
Fa
0  0.000000100000000 30 0

0111000
+41 0 +38 0 +35 0 *
Wi

0101100
-100 63 -62 0 -73 68 +121 78 *
Fa
0  0.000000100000000 31 0

0111000
+33 0 *
Ve
0.000000100000000
3596.620000000007622 -80.000000000007020 -1869.999999999998636
0 0

0101101
*
Ed
 0.000000100000000 1 1 0
1  82 0 0.000000000000000 12.000000000000000
0

0101000
+115 69 -31 69 *
Ed
 0.000000100000000 1 1 0
1  83 0 0.000000000000000 95.000000000000000
0

0101000
+31 72 -69 72 *
Wi

0101100
+30 0 -68 0 -114 39 -118 39 +29 71 *
Fa
0  0.000000100000000 32 0

0111000
+28 0 *
Ve
0.000000100000000
3516.620000000007622 -80.000000000006992 -1869.999999999998636
0 0

0101101
*
Ed
 0.000000100000000 1 1 0
1  84 0 0.000000000000000 12.000000000000000
0

0101000
+113 69 -26 69 *
Ed
 0.000000100000000 1 1 0
1  85 0 0.000000000000000 80.000000000000000
0

0101000
+26 72 -31 72 *
Wi

0101100
+25 0 -30 0 -112 39 +24 71 *
Fa
0  0.000000100000000 33 0

0111000
+23 0 *
Ed
 0.000000100000000 1 1 0
1  86 0 0.000000000000000 95.000000000000000
0

0101000
+67 72 -26 72 *
Wi

0101100
+66 0 -25 0 -104 39 -111 39 +21 71 *
Fa
0  0.000000100000000 34 0

0111000
+20 0 *
Ve
0.000000100000000
3551.620000000007622 -40.000000000006985 -1869.999999999998636
0 0

0101101
*
Ed
 0.000000100000000 1 1 0
1  87 0 0.000000000000000 12.000000000000000
3  30 31CN 18 0 0.000000000000000 12.000000000000000
0

0101000
+109 69 -18 69 *
Ed
 0.000000100000000 1 1 0
1  88 0 0.000000000000000 6.283185307179586
2  32 18 79 0.000000000000000 6.283185307179586
0

0101000
+18 72 -18 72 *
Wi

0101100
+17 0 -17 0 -108 39 +16 71 *
Fa
0  0.000000100000000 18 0

0111000
+15 0 *
Wi

0101100
+65 81 +21 81 +24 81 +29 81 *
Wi

0101100
+16 81 *
Fa
0  0.000000100000000 35 0

0111000
+13 0 +12 0 *
Wi

0101100
-61 49 -46 0 -57 54 +42 57 *
Fa
0  0.000000100000000 36 0

0111000
+10 0 *
Ed
 0.000000100000000 1 1 0
1  89 0 0.000000000000000 15.000000000000000
3  33 34CN 27 0 0.000000000000000 15.000000000000000
0

0101000
+54 51 -40 51 *
Wi

0101100
+8 0 -8 0 -53 54 +39 57 *
Fa
0  0.000000100000000 27 0

0111000
+7 0 *
Ed
 0.000000100000000 1 1 0
1  90 0 0.000000000000000 15.000000000000000
3  35 36CN 28 0 0.000000000000000 15.000000000000000
0

0101000
+51 51 -37 51 *
Wi

0101100
+5 0 -5 0 -50 54 +36 57 *
Fa
0  0.000000100000000 28 0

0111000
+4 0 *
Sh

0101100
-229 10 -222 21 -215 10 -178 0 +143 0 -136 21 -133 10 +126 21 -119 21 -116 0 
+106 0 -102 0 -98 62 -95 10 -93 10 +90 10 +87 10 +84 10 -81 42 -78 42 
+75 10 +70 62 +63 0 +59 21 +48 21 +43 21 -34 75 +32 62 +27 0 +22 0 
+19 0 +14 0 -11 80 +9 21 -6 21 -3 21 *
So

0100000
+2 0 *

+1 1 