
CASCADE Topology V1, (c) Matra-Datavision
Locations 76
1
0.000000000000000 0.000000000000000 1.000000000000000 0.000000000000000 
1.000000000000000 0.000000000000000 0.000000000000000 0.000000000000000 
0.000000000000000 1.000000000000000 0.000000000000000 0.000000000000000 
1
0.000000000000000 0.000000000000000 1.000000000000000 0.000000000000000 
1.000000000000000 0.000000000000000 0.000000000000000 0.000000000000000 
0.000000000000000 1.000000000000000 0.000000000000000 0.000000000000000 
1
0.000000000000000 0.000000000000000 1.000000000000000 0.000000000000000 
1.000000000000000 0.000000000000000 0.000000000000000 0.000000000000000 
0.000000000000000 1.000000000000000 0.000000000000000 0.000000000000000 
1
0.000000000000000 0.000000000000000 1.000000000000000 0.000000000000000 
1.000000000000000 0.000000000000000 0.000000000000000 0.000000000000000 
0.000000000000000 1.000000000000000 0.000000000000000 0.000000000000000 
1
0.000000000000000 0.000000000000000 1.000000000000000 0.000000000000000 
1.000000000000000 0.000000000000000 0.000000000000000 0.000000000000000 
0.000000000000000 1.000000000000000 0.000000000000000 0.000000000000000 
1
0.000000000000000 0.000000000000000 1.000000000000000 0.000000000000000 
1.000000000000000 0.000000000000000 0.000000000000000 0.000000000000000 
0.000000000000000 1.000000000000000 0.000000000000000 0.000000000000000 
1
0.000000000000000 0.000000000000000 1.000000000000000 0.000000000000000 
1.000000000000000 0.000000000000000 0.000000000000000 0.000000000000000 
0.000000000000000 1.000000000000000 0.000000000000000 0.000000000000000 
2  2 1 3 -1 4 1 5 -1 6 1 7 -1 0
1
1.000000000000000 0.000000000000000 0.000000000000000 0.000000000000000 
0.000000000000000 1.000000000000000 0.000000000000000 0.000000000000000 
0.000000000000000 0.000000000000000 1.000000000000000 0.000000000000000 
1
0.000000000000000 -0.000000000000000 1.000000000000000 0.000000000000000 
1.000000000000000 0.000000000000000 -0.000000000000000 0.000000000000000 
-0.000000000000000 1.000000000000000 0.000000000000000 0.000000000000000 
1
-0.000000000000000 0.000000000000000 1.000000000000000 0.000000000000000 
1.000000000000000 -0.000000000000000 0.000000000000000 0.000000000000000 
0.000000000000000 1.000000000000000 -0.000000000000000 0.000000000000000 
2  9 1 10 1 11 -1 0
1
1.000000000000000 0.000000000000000 0.000000000000000 -0.000000000000007 
0.000000000000000 1.000000000000000 0.000000000000000 0.000000000000004 
0.000000000000000 0.000000000000000 1.000000000000000 15.000000000000000 
2  9 1 10 1 11 -1 13 1 0
2  10 -1 9 -1 0
2  11 1 10 -1 9 -1 0
2  13 -1 11 1 10 -1 9 -1 0
2  11 -1 2 1 3 -1 4 1 5 -1 6 1 7 -1 0
2  9 1 10 1 11 -1 2 1 3 -1 4 1 5 -1 6 1 7 -1 0
1
1.000000000000000 0.000000000000000 0.000000000000000 0.000000000000000 
0.000000000000000 1.000000000000000 0.000000000000000 0.000000000000000 
0.000000000000000 0.000000000000000 1.000000000000000 0.000000000000000 
1
0.000000000000000 0.000000000000000 -1.000000000000000 0.000000000000897 
1.000000000000000 0.000000000000000 0.000000000000000 -0.000000000000000 
0.000000000000000 -1.000000000000000 -0.000000000000000 0.000000000000000 
2  20 1 21 1 2 -1 11 1 10 -1 9 -1 0
1
1.000000000000000 0.000000000000000 0.000000000000000 0.000000000000000 
0.000000000000000 1.000000000000000 0.000000000000000 0.000000000000000 
0.000000000000000 0.000000000000000 1.000000000000000 0.000000000000000 
1
0.000000000000000 0.000000000000000 -1.000000000000000 -0.000000000000012 
1.000000000000000 -0.000000000000000 0.000000000000000 0.000000000000000 
0.000000000000000 -1.000000000000000 -0.000000000000000 -0.000000000000000 
2  23 1 24 1 4 -1 3 1 2 -1 11 1 10 -1 9 -1 0
2  20 1 21 1 3 -1 4 1 5 -1 6 1 7 -1 0
2  3 1 21 -1 20 -1 0
1
1.000000000000000 0.000000000000000 0.000000000000000 -0.000000000000002 
0.000000000000000 1.000000000000000 0.000000000000000 0.000000000000006 
0.000000000000000 0.000000000000000 1.000000000000000 15.000000000000000 
2  28 -1 3 1 21 -1 20 -1 0
2  21 -1 20 -1 0
2  2 1 21 -1 20 -1 0
2  2 1 3 -1 28 -1 3 1 21 -1 20 -1 0
2  11 -1 2 1 21 -1 20 -1 0
2  11 -1 13 1 2 1 3 -1 28 -1 3 1 21 -1 20 -1 0
2  23 1 24 1 5 -1 6 1 7 -1 0
2  5 1 24 -1 23 -1 0
1
1.000000000000000 0.000000000000000 0.000000000000000 -0.000000000000003 
0.000000000000000 1.000000000000000 0.000000000000000 0.000000000000004 
0.000000000000000 0.000000000000000 1.000000000000000 15.000000000000000 
2  37 -1 5 1 24 -1 23 -1 0
2  24 -1 23 -1 0
2  2 1 3 -1 4 1 24 -1 23 -1 0
2  2 1 3 -1 4 1 5 -1 37 -1 5 1 24 -1 23 -1 0
2  11 -1 13 1 2 1 3 -1 4 1 5 -1 37 -1 5 1 24 -1 23 -1 0
2  11 -1 2 1 3 -1 4 1 24 -1 23 -1 0
2  11 -1 13 1 2 1 3 -1 4 1 5 -1 6 1 7 -1 0
2  9 1 10 1 11 -1 13 1 2 1 3 -1 4 1 5 -1 6 1 7 -1 0
2  20 1 21 1 3 -1 28 1 3 1 2 -1 13 -1 11 1 10 -1 9 -1 0
2  23 1 24 1 5 -1 37 1 5 1 4 -1 3 1 2 -1 13 -1 11 1 10 -1 9 -1 0
2  20 1 21 1 3 -1 28 1 4 1 5 -1 6 1 7 -1 0
2  23 1 24 1 5 -1 37 1 6 1 7 -1 0
1
1.000000000000000 0.000000000000000 0.000000000000000 0.000000000000000 
0.000000000000000 1.000000000000000 0.000000000000000 0.000000000000000 
0.000000000000000 0.000000000000000 1.000000000000000 0.000000000000000 
1
0.000000000000000 -0.000000000000000 1.000000000000000 14.999999999999989 
1.000000000000000 0.000000000000000 -0.000000000000000 -0.000000000000003 
0.000000000000000 1.000000000000000 0.000000000000000 0.000000000000003 
2  50 1 51 1 7 -1 0
2  7 1 51 -1 50 -1 0
1
1.000000000000000 0.000000000000000 0.000000000000000 0.000000000000485 
0.000000000000000 1.000000000000000 0.000000000000000 -0.000000000000606 
0.000000000000000 0.000000000000000 1.000000000000000 -2184.987416439737444 
2  54 -1 7 1 51 -1 50 -1 0
2  51 -1 50 -1 0
2  11 -1 13 1 2 1 3 -1 4 1 5 -1 6 1 51 -1 50 -1 0
2  4 1 5 -1 6 1 7 -1 0
2  2 1 3 -1 0
2  9 1 10 1 11 -1 2 1 3 -1 0
2  9 1 10 1 11 -1 13 1 2 1 3 -1 0
2  20 1 21 1 3 -1 0
2  20 1 21 1 3 -1 28 1 0
2  6 1 7 -1 0
2  2 1 3 -1 4 1 5 -1 0
2  9 1 10 1 11 -1 2 1 3 -1 4 1 5 -1 0
2  23 1 24 1 5 -1 0
2  23 1 24 1 5 -1 37 1 0
2  9 1 10 1 11 -1 13 1 2 1 3 -1 4 1 5 -1 0
2  3 -1 4 1 5 -1 6 1 7 -1 0
2  20 1 21 1 0
2  5 -1 6 1 7 -1 0
2  23 1 24 1 0
2  4 1 5 -1 0
2  3 -1 28 1 4 1 5 -1 6 1 7 -1 0
2  5 -1 37 1 6 1 7 -1 0
Curve2ds 108
1 250.00000000000000000 0.00000000000000102 -0.00000000000000016 -1.00000000000000000 
1 515.00000000000000000 125.00000000000000000 -1.00000000000000000 -0.00000000000000022 
1 1030.00000000000022737 -0.00000000000000000 0.00000000000000022 -1.00000000000000000 
1 0.00000000000000000 0.00000000000000000 -0.00000000000000016 -1.00000000000000000 
1 515.00000000000000000 -125.00000000000000000 -0.00000000000000022 1.00000000000000000 
1 -0.00000000000090949 -0.00000000000267475 1.00000000000000000 -0.00000000000000044 
1 -0.00000000000091609 -15.00000000000267519 1.00000000000000000 -0.00000000000000044 
1 0.00000000000000000 0.00000000000000000 0.00000000000000022 -1.00000000000000000 
1 -515.00000000000000000 125.00000000000000000 0.00000000000000022 -1.00000000000000000 
1 -515.00000000000000000 -125.00000000000000000 1.00000000000000000 0.00000000000000022 
1 0.00000000000000000 0.00000000000000000 1.00000000000000000 0.00000000000000000 
1 -0.00000000000000333 -15.00000000000000000 1.00000000000000000 0.00000000000000000 
1 0.00000000000000000 0.00000000000000000 1.00000000000000000 0.00000000000000000 
1 0.00000000000000083 -15.00000000000000000 1.00000000000000000 0.00000000000000000 
1 -40.00000000000000000 110.00000000000000000 -0.00000000000000011 -1.00000000000000000 
1 970.00000000000136424 -0.00000000000168387 -1.00000000000000000 0.00000000000000022 
1 970.00000000000113687 -15.00000000000195399 -1.00000000000000000 0.00000000000000016 
1 455.00000000000125056 -124.99999999999909051 -1.00000000000000000 0.00000000000000011 
1 455.00000000000102318 -124.99999999999909051 -1.00000000000000000 0.00000000000000017 
1 -0.00000000000000000 0.00000000000000000 1.00000000000000000 0.00000000000000000 
1 -0.00000000000000416 -14.99999999999999822 1.00000000000000000 0.00000000000000000 
1 110.00000000000000000 40.00000000000000000 -1.00000000000000000 0.00000000000000000 
1 60.00000000000187583 -0.00000000000154795 1.00000000000000000 0.00000000000000000 
1 60.00000000000156319 -15.00000000000186873 1.00000000000000000 0.00000000000000006 
1 -454.99999999999852207 -124.99999999999909051 1.00000000000000000 -0.00000000000000011 
1 -454.99999999999818101 -124.99999999999909051 1.00000000000000000 -0.00000000000000006 
2 -459.99999999999675993 -54.99999999999992184 -1.00000000000000000 0.00000000000000017 0.00000000000000017 1.00000000000000000 5.00000000000000000
1 0.00000000000000000 -15.00000000000003908 1.00000000000000000 0.00000000000000000 
2 460.00000000000198952 -55.00000000000007816 -1.00000000000000000 0.00000000000000017 0.00000000000000017 1.00000000000000000 5.00000000000000000
1 0.00000000000000000 -14.99999999999998579 1.00000000000000000 0.00000000000000000 
2 -459.99999999999675993 5.00000000000007638 -1.00000000000000000 0.00000000000000017 0.00000000000000017 1.00000000000000000 5.00000000000000000
1 0.00000000000000000 -15.00000000000004796 1.00000000000000000 0.00000000000000000 
2 460.00000000000062528 4.99999999999992362 -1.00000000000000000 0.00000000000000017 0.00000000000000017 1.00000000000000000 5.00000000000000000
1 0.00000000000000000 -14.99999999999999467 1.00000000000000000 0.00000000000000000 
1 0.00000000000000000 0.00000000000000000 1.00000000000000000 0.00000000000000000 
1 0.00000000000000000 -2184.98741643973744431 1.00000000000000000 0.00000000000000000 
2 0.00000000000000000 0.00000000000000000 1.00000000000000000 0.00000000000000000 -0.00000000000000000 1.00000000000000000 5.00000000000000000
2 -459.99999999999738520 -55.00000000000000000 -1.00000000000000000 0.00000000000000011 0.00000000000000011 1.00000000000000000 5.00000000000000000
1 0.00000000000000000 0.00000000000000000 1.00000000000000000 0.00000000000000000 
1 0.00000000000000000 -2184.98741643973744431 1.00000000000000000 0.00000000000000000 
2 0.00000000000000000 0.00000000000000000 1.00000000000000000 0.00000000000000000 -0.00000000000000000 1.00000000000000000 5.00000000000000000
2 460.00000000000136424 -55.00000000000000000 -1.00000000000000000 0.00000000000000011 0.00000000000000011 1.00000000000000000 5.00000000000000000
1 0.00000000000000000 0.00000000000000000 1.00000000000000000 0.00000000000000000 
1 0.00000000000000000 -2184.98741643973744431 1.00000000000000000 0.00000000000000000 
2 -0.00000000000090949 0.00000000000000000 -0.00000000000000000 -1.00000000000000000 1.00000000000000000 -0.00000000000000000 5.00000000000000000
2 -459.99999999999738520 5.00000000000000000 -1.00000000000000000 0.00000000000000011 0.00000000000000011 1.00000000000000000 5.00000000000000000
1 0.00000000000000000 0.00000000000000000 1.00000000000000000 0.00000000000000000 
1 0.00000000000000000 -2184.98741643973744431 1.00000000000000000 0.00000000000000000 
2 -0.00000000000090949 0.00000000000000000 -0.00000000000000000 -1.00000000000000000 1.00000000000000000 -0.00000000000000000 5.00000000000000000
2 460.00000000000000000 5.00000000000000000 -1.00000000000000000 0.00000000000000011 0.00000000000000011 1.00000000000000000 5.00000000000000000
1 0.00000000000000000 0.00000000000000000 -0.00000000000000006 -1.00000000000000000 
1 80.00000000000000000 0.00000000000000000 0.00000000000000006 -1.00000000000000000 
1 970.00000000000113687 -0.00000000000195476 -0.00000000000000016 -1.00000000000000000 
1 80.00000000000000000 0.00000000000000000 0.00000000000000006 -1.00000000000000000 
1 -0.00000000000000000 0.00000000000000000 -0.00000000000000006 -1.00000000000000000 
1 60.00000000000156319 -0.00000000000186936 -0.00000000000000011 -1.00000000000000000 
1 0.00000000000000000 0.00000000000000000 1.00000000000000000 0.00000000000000000 
1 0.00000000000000500 -15.00000000000000178 1.00000000000000000 0.00000000000000000 
1 -40.00000000000000000 -110.00000000000000000 1.00000000000000000 -0.00000000000000011 
1 40.00000000000000000 -110.00000000000000000 0.00000000000000011 1.00000000000000000 
1 0.00000000000000000 0.00000000000000000 1.00000000000000000 0.00000000000000000 
1 -0.00000000000000500 -15.00000000000000000 1.00000000000000000 0.00000000000000000 
1 40.00000000000000000 110.00000000000000000 -1.00000000000000000 0.00000000000000011 
1 0.00000000000000000 0.00000000000000000 1.00000000000000000 0.00000000000000000 
1 0.00000000000000000 -15.00000000000000000 1.00000000000000000 0.00000000000000000 
2 0.00000000000000000 -70.00000000000000000 -0.00000000000000011 -1.00000000000000000 1.00000000000000000 -0.00000000000000011 5.00000000000000000
1 0.00000000000000000 0.00000000000000000 1.00000000000000000 0.00000000000000000 
1 0.00000000000000000 -15.00000000000000000 1.00000000000000000 0.00000000000000000 
2 0.00000000000000000 70.00000000000000000 -0.00000000000000011 -1.00000000000000000 1.00000000000000000 -0.00000000000000011 5.00000000000000000
1 -110.00000000000000000 -40.00000000000000000 1.00000000000000000 0.00000000000000000 
1 0.00000000000000000 0.00000000000000000 1.00000000000000000 0.00000000000000000 
1 -0.00000000000000333 -14.99999999999999822 1.00000000000000000 0.00000000000000000 
1 110.00000000000000000 -40.00000000000000000 0.00000000000000000 1.00000000000000000 
1 0.00000000000000000 0.00000000000000000 1.00000000000000000 -0.00000000000000000 
1 0.00000000000000333 -15.00000000000000000 1.00000000000000000 -0.00000000000000000 
1 -110.00000000000000000 40.00000000000000000 0.00000000000000000 -1.00000000000000000 
1 0.00000000000000000 0.00000000000000000 1.00000000000000000 0.00000000000000000 
1 0.00000000000000000 -15.00000000000000000 1.00000000000000000 0.00000000000000000 
2 -70.00000000000000000 0.00000000000000000 1.00000000000000000 0.00000000000000000 0.00000000000000000 -1.00000000000000000 5.00000000000000000
1 0.00000000000000000 0.00000000000000000 1.00000000000000000 0.00000000000000000 
1 0.00000000000000000 -15.00000000000000000 1.00000000000000000 0.00000000000000000 
2 70.00000000000000000 0.00000000000000000 1.00000000000000000 0.00000000000000000 0.00000000000000000 -1.00000000000000000 5.00000000000000000
1 220.00000000000000000 0.00000000000000000 -0.00000000000000006 -1.00000000000000000 
1 0.00000000000000000 0.00000000000000000 -0.00000000000000006 -1.00000000000000000 
1 750.00000000000113687 -0.00000000000191858 -0.00000000000000016 -1.00000000000000000 
1 220.00000000000000000 0.00000000000000000 -0.00000000000000006 -1.00000000000000000 
1 0.00000000000000000 0.00000000000000000 -0.00000000000000006 -1.00000000000000000 
1 280.00000000000159162 -0.00000000000185670 -0.00000000000000011 -1.00000000000000000 
1 0.00000000000000000 0.00000000000000000 0.00000000000000000 -1.00000000000000000 
1 6.28318530717958623 0.00000000000000000 0.00000000000000000 -1.00000000000000000 
1 0.00000000000000000 0.00000000000000000 0.00000000000000000 -1.00000000000000000 
1 6.28318530717958623 0.00000000000000000 0.00000000000000000 -1.00000000000000000 
1 0.00000000000000000 0.00000000000000000 0.00000000000000000 -1.00000000000000000 
1 6.28318530717958623 0.00000000000000000 0.00000000000000000 -1.00000000000000000 
1 0.00000000000000000 0.00000000000000000 0.00000000000000000 -1.00000000000000000 
1 6.28318530717958623 0.00000000000000000 0.00000000000000000 -1.00000000000000000 
1 0.00000000000000000 0.00000000000000000 0.00000000000000006 -1.00000000000000000 
1 0.00000000000000000 0.00000000000000000 0.00000000000000006 -1.00000000000000000 
1 80.00000000000000000 0.00000000000000000 -0.00000000000000006 -1.00000000000000000 
1 0.00000000000000000 0.00000000000000000 0.00000000000000000 -1.00000000000000000 
1 6.28318530717958623 0.00000000000000000 0.00000000000000000 -1.00000000000000000 
1 0.00000000000000000 0.00000000000000000 0.00000000000000000 -1.00000000000000000 
1 6.28318530717958623 0.00000000000000000 0.00000000000000000 -1.00000000000000000 
1 80.00000000000000000 0.00000000000000000 -0.00000000000000006 -1.00000000000000000 
1 0.00000000000000000 0.00000000000000000 0.00000000000000000 -1.00000000000000000 
1 6.28318530717958623 0.00000000000000000 0.00000000000000000 -1.00000000000000000 
1 0.00000000000000000 0.00000000000000000 0.00000000000000000 -1.00000000000000000 
1 6.28318530717958623 0.00000000000000000 0.00000000000000000 -1.00000000000000000 
Curves 44
1 -802.00000000000022737 5872.00050000000101136 -0.00000000000278577 -0.00000000000000044 0.00000000000000028 1.00000000000000000 
1 228.00000000000011369 5872.00050000000101136 -0.00000000000255707 -0.00000000000000044 0.00000000000000028 1.00000000000000000 
1 -802.00000000000125056 5872.00050000000010186 0.00000000000000000 1.00000000000000000 0.00000000000000000 0.00000000000000000 
1 -802.00000000000022737 5622.00050000000101136 -0.00000000000267475 -0.00000000000000044 0.00000000000000028 1.00000000000000000 
1 -802.00000000000125056 5622.00050000000010186 0.00000000000000000 0.00000000000000000 1.00000000000000000 0.00000000000000000 
1 228.00000000000005684 5622.00050000000101136 -0.00000000000244604 -0.00000000000000044 0.00000000000000028 1.00000000000000000 
1 227.99999999999874944 5872.00050000000010186 0.00000000000000000 0.00000000000000000 -1.00000000000000000 0.00000000000000000 
1 227.99999999999874944 5622.00050000000010186 0.00000000000000000 -1.00000000000000000 0.00000000000000000 0.00000000000000000 
1 -742.00000000000068212 -5622.00050000000101136 0.00000000000000000 1.00000000000000000 0.00000000000000000 0.00000000000000000 
1 167.99999999999818101 -5622.00050000000101136 0.00000000000000000 -1.00000000000000000 0.00000000000000000 0.00000000000000000 
2 172.99999999999772626 5692.00050000000010186 -0.00000000000126477 -0.00000000000000028 0.00000000000000022 1.00000000000000000 1.00000000000000000 0.00000000000000000 0.00000000000000028 0.00000000000000000 1.00000000000000000 -0.00000000000000022 5.00000000000000000
2 -747.00000000000102318 5692.00050000000010186 -0.00000000000146727 -0.00000000000000028 0.00000000000000022 1.00000000000000000 1.00000000000000000 0.00000000000000000 0.00000000000000028 0.00000000000000000 1.00000000000000000 -0.00000000000000022 5.00000000000000000
2 172.99999999999772626 5752.00050000000010186 -0.00000000000128786 -0.00000000000000028 0.00000000000000022 1.00000000000000000 1.00000000000000000 0.00000000000000000 0.00000000000000028 0.00000000000000000 1.00000000000000000 -0.00000000000000022 5.00000000000000000
2 -746.99999999999965894 5752.00050000000010186 -0.00000000000149036 -0.00000000000000028 0.00000000000000022 1.00000000000000000 1.00000000000000000 0.00000000000000000 0.00000000000000028 0.00000000000000000 1.00000000000000000 -0.00000000000000022 5.00000000000000000
2 172.99999999999741362 5692.00050000000010186 0.00000000000000000 0.00000000000000000 0.00000000000000000 1.00000000000000000 1.00000000000000000 0.00000000000000000 -0.00000000000000000 -0.00000000000000000 1.00000000000000000 0.00000000000000000 5.00000000000000000
2 -747.00000000000136424 5692.00050000000010186 0.00000000000000000 0.00000000000000000 0.00000000000000000 1.00000000000000000 1.00000000000000000 0.00000000000000000 -0.00000000000000000 -0.00000000000000000 1.00000000000000000 0.00000000000000000 5.00000000000000000
2 172.99999999999741362 5752.00050000000010186 0.00000000000000000 0.00000000000000000 0.00000000000000000 1.00000000000000000 1.00000000000000000 0.00000000000000000 -0.00000000000000000 -0.00000000000000000 1.00000000000000000 0.00000000000000000 5.00000000000000000
2 -747.00000000000000000 5752.00050000000010186 0.00000000000000000 0.00000000000000000 0.00000000000000000 1.00000000000000000 1.00000000000000000 0.00000000000000000 -0.00000000000000000 -0.00000000000000000 1.00000000000000000 0.00000000000000000 5.00000000000000000
1 -742.00000000000102318 5622.00050000000101136 -0.00000000000101676 -0.00000000000000011 0.00000000000000039 1.00000000000000000 
1 167.99999999999849365 5622.00050000000101136 -0.00000000000121405 -0.00000000000000022 0.00000000000000028 1.00000000000000000 
1 -522.00000000000068212 -5622.00050000000101136 0.00000000000000000 0.00000000000000000 1.00000000000000000 0.00000000000000000 
1 -522.00000000000068212 -5542.00050000000101136 0.00000000000000000 -1.00000000000000000 0.00000000000000000 0.00000000000000000 
1 -742.00000000000068212 -5542.00050000000101136 0.00000000000000000 0.00000000000000000 -1.00000000000000000 0.00000000000000000 
2 -562.00000000000068212 -5582.00050000000101136 0.00000000000000000 0.00000000000000000 0.00000000000000000 1.00000000000000000 1.00000000000000000 0.00000000000000000 -0.00000000000000000 -0.00000000000000000 1.00000000000000000 0.00000000000000000 5.00000000000000000
2 -702.00000000000068212 -5582.00050000000101136 0.00000000000000000 0.00000000000000000 0.00000000000000000 1.00000000000000000 1.00000000000000000 0.00000000000000000 -0.00000000000000000 -0.00000000000000000 1.00000000000000000 0.00000000000000000 5.00000000000000000
1 -52.00000000000182609 -5542.00050000000101136 0.00000000000000000 1.00000000000000000 0.00000000000000000 0.00000000000000000 
1 167.99999999999818101 -5542.00050000000101136 0.00000000000000000 0.00000000000000000 -1.00000000000000000 0.00000000000000000 
1 -52.00000000000182609 -5622.00050000000101136 0.00000000000000000 0.00000000000000000 1.00000000000000000 0.00000000000000000 
2 -12.00000000000182609 -5582.00050000000101136 0.00000000000000000 0.00000000000000000 0.00000000000000000 1.00000000000000000 1.00000000000000000 0.00000000000000000 -0.00000000000000000 -0.00000000000000000 1.00000000000000000 0.00000000000000000 5.00000000000000000
2 127.99999999999818101 -5582.00050000000101136 0.00000000000000000 0.00000000000000000 0.00000000000000000 1.00000000000000000 1.00000000000000000 0.00000000000000000 -0.00000000000000000 -0.00000000000000000 1.00000000000000000 0.00000000000000000 5.00000000000000000
1 -522.00000000000102318 5622.00050000000101136 -0.00000000000100455 -0.00000000000000011 0.00000000000000039 1.00000000000000000 
1 -52.00000000000150635 5622.00050000000101136 -0.00000000000127511 -0.00000000000000022 0.00000000000000028 1.00000000000000000 
1 177.99999999999772626 5692.00050000000010186 14.99999999999877431 0.00000000000000022 -0.00000000000000028 -1.00000000000000000 
1 -742.00000000000102318 5692.00050000000010186 14.99999999999852029 0.00000000000000022 -0.00000000000000028 -1.00000000000000000 
1 177.99999999999772626 5752.00050000000010186 14.99999999999876188 0.00000000000000022 -0.00000000000000028 -1.00000000000000000 
1 -741.99999999999965894 5752.00050000000010186 14.99999999999850608 0.00000000000000022 -0.00000000000000028 -1.00000000000000000 
1 -742.00000000000102318 5542.00050000000101136 -0.00000000000099011 -0.00000000000000011 0.00000000000000039 1.00000000000000000 
1 167.99999999999849365 5542.00050000000101136 -0.00000000000119628 -0.00000000000000022 0.00000000000000028 1.00000000000000000 
1 -522.00000000000102318 5542.00050000000101136 -0.00000000000097790 -0.00000000000000011 0.00000000000000039 1.00000000000000000 
1 -557.00000000000102318 5582.00050000000101136 -0.00000000000099317 -0.00000000000000011 0.00000000000000039 1.00000000000000000 
1 -697.00000000000102318 5582.00050000000101136 -0.00000000000100094 -0.00000000000000011 0.00000000000000039 1.00000000000000000 
1 -52.00000000000152056 5542.00050000000101136 -0.00000000000125734 -0.00000000000000022 0.00000000000000028 1.00000000000000000 
1 -7.00000000000151612 5582.00050000000101136 -0.00000000000125374 -0.00000000000000022 0.00000000000000028 1.00000000000000000 
1 132.99999999999849365 5582.00050000000101136 -0.00000000000121488 -0.00000000000000022 0.00000000000000028 1.00000000000000000 
Polygon3D 0
PolygonOnTriangulations 0
Surfaces 27
1 -802.00000000000022737 5872.00050000000101136 -0.00000000000278577 0.00000000000000044 1.00000000000000000 -0.00000000000000028 1.00000000000000000 -0.00000000000000044 0.00000000000000022 0.00000000000000022 -0.00000000000000028 -1.00000000000000000 
1 -802.00000000000022737 5622.00050000000101136 -0.00000000000267475 -1.00000000000000000 0.00000000000000022 -0.00000000000000044 0.00000000000000022 1.00000000000000000 -0.00000000000000044 0.00000000000000044 -0.00000000000000044 -1.00000000000000000 
1 -0.00000000000133982 -287.00000000000000000 5747.00050000000010186 -1.00000000000000000 0.00000000000000022 -0.00000000000000022 -0.00000000000000022 -1.00000000000000000 0.00000000000000000 -0.00000000000000022 0.00000000000000000 1.00000000000000000 
1 228.00000000000005684 5622.00050000000101136 -0.00000000000244604 -0.00000000000000044 -1.00000000000000000 0.00000000000000028 -1.00000000000000000 0.00000000000000044 -0.00000000000000022 0.00000000000000022 -0.00000000000000028 -1.00000000000000000 
1 228.00000000000011369 5872.00050000000101136 -0.00000000000255707 1.00000000000000000 -0.00000000000000022 0.00000000000000044 -0.00000000000000022 -1.00000000000000000 0.00000000000000044 0.00000000000000044 -0.00000000000000044 -1.00000000000000000 
1 -742.00000000000102318 5622.00050000000101136 -0.00000000000101676 -0.00000000000000011 1.00000000000000000 -0.00000000000000039 1.00000000000000000 0.00000000000000011 0.00000000000000006 0.00000000000000006 -0.00000000000000039 -1.00000000000000000 
1 -0.00000000000096225 -632.00000000000125056 5582.00050000000101136 -1.00000000000000000 -0.00000000000000000 -0.00000000000000033 0.00000000000000033 0.00000000000000000 -1.00000000000000000 0.00000000000000000 -1.00000000000000000 0.00000000000000000 
1 167.99999999999849365 5622.00050000000101136 -0.00000000000121405 -0.00000000000000000 -1.00000000000000000 0.00000000000000028 -1.00000000000000000 -0.00000000000000000 -0.00000000000000028 0.00000000000000028 -0.00000000000000028 -1.00000000000000000 
1 -0.00000000000123891 57.99999999999818101 5582.00050000000101136 1.00000000000000000 -0.00000000000000022 0.00000000000000022 0.00000000000000022 1.00000000000000000 0.00000000000000000 -0.00000000000000022 0.00000000000000000 1.00000000000000000 
2 172.99999999999772626 5692.00050000000010186 14.99999999999877431 -0.00000000000000028 0.00000000000000022 1.00000000000000000 1.00000000000000000 0.00000000000000000 0.00000000000000028 0.00000000000000000 1.00000000000000000 -0.00000000000000022 5.00000000000000000
2 -747.00000000000102318 5692.00050000000010186 14.99999999999851852 -0.00000000000000028 0.00000000000000022 1.00000000000000000 1.00000000000000000 0.00000000000000000 0.00000000000000028 0.00000000000000000 1.00000000000000000 -0.00000000000000022 5.00000000000000000
2 172.99999999999772626 5752.00050000000010186 14.99999999999876010 -0.00000000000000028 0.00000000000000022 1.00000000000000000 1.00000000000000000 0.00000000000000000 0.00000000000000028 0.00000000000000000 1.00000000000000000 -0.00000000000000022 5.00000000000000000
2 -746.99999999999965894 5752.00050000000010186 14.99999999999850431 -0.00000000000000028 0.00000000000000022 1.00000000000000000 1.00000000000000000 0.00000000000000000 0.00000000000000028 0.00000000000000000 1.00000000000000000 -0.00000000000000022 5.00000000000000000
1 14.99999999999876366 172.99999999999741362 5692.00050000000010186 1.00000000000000000 -0.00000000000000036 0.00000000000000021 0.00000000000000036 1.00000000000000000 0.00000000000000000 -0.00000000000000021 0.00000000000000000 1.00000000000000000 
1 14.99999999999856115 -747.00000000000136424 5692.00050000000010186 1.00000000000000000 -0.00000000000000036 0.00000000000000021 0.00000000000000036 1.00000000000000000 0.00000000000000000 -0.00000000000000021 0.00000000000000000 1.00000000000000000 
1 14.99999999999874767 172.99999999999741362 5752.00050000000101136 1.00000000000000000 -0.00000000000000012 0.00000000000000021 -0.00000000000000021 0.00000000000000000 1.00000000000000000 -0.00000000000000012 -1.00000000000000000 -0.00000000000000000 
1 14.99999999999854516 -747.00000000000000000 5752.00050000000101136 1.00000000000000000 -0.00000000000000012 0.00000000000000021 -0.00000000000000021 0.00000000000000000 1.00000000000000000 -0.00000000000000012 -1.00000000000000000 -0.00000000000000000 
1 -742.00000000000102318 5542.00050000000101136 -0.00000000000099011 -1.00000000000000000 -0.00000000000000006 -0.00000000000000011 -0.00000000000000006 1.00000000000000000 -0.00000000000000033 0.00000000000000011 -0.00000000000000033 -1.00000000000000000 
1 167.99999999999849365 5542.00050000000101136 -0.00000000000119628 -1.00000000000000000 0.00000000000000006 -0.00000000000000022 0.00000000000000006 1.00000000000000000 -0.00000000000000022 0.00000000000000022 -0.00000000000000022 -1.00000000000000000 
1 -522.00000000000102318 5622.00050000000101136 -0.00000000000100455 1.00000000000000000 0.00000000000000006 0.00000000000000011 0.00000000000000006 -1.00000000000000000 0.00000000000000033 0.00000000000000011 -0.00000000000000033 -1.00000000000000000 
2 -562.00000000000102318 5582.00050000000101136 -0.00000000000099344 0.00000000000000006 -0.00000000000000033 -1.00000000000000000 1.00000000000000000 0.00000000000000011 0.00000000000000006 0.00000000000000011 -1.00000000000000000 0.00000000000000033 5.00000000000000000
2 -702.00000000000102318 5582.00050000000101136 -0.00000000000100122 0.00000000000000006 -0.00000000000000033 -1.00000000000000000 1.00000000000000000 0.00000000000000011 0.00000000000000006 0.00000000000000011 -1.00000000000000000 0.00000000000000033 5.00000000000000000
1 -52.00000000000151346 5622.00050000000101136 -0.00000000000127511 1.00000000000000000 -0.00000000000000006 0.00000000000000022 -0.00000000000000006 -1.00000000000000000 0.00000000000000022 0.00000000000000022 -0.00000000000000022 -1.00000000000000000 
2 -12.00000000000151701 5582.00050000000101136 -0.00000000000125512 0.00000000000000028 -0.00000000000000022 -1.00000000000000000 1.00000000000000000 0.00000000000000000 0.00000000000000028 -0.00000000000000000 -1.00000000000000000 0.00000000000000022 5.00000000000000000
2 127.99999999999849365 5582.00050000000101136 -0.00000000000121627 0.00000000000000028 -0.00000000000000022 -1.00000000000000000 1.00000000000000000 0.00000000000000000 0.00000000000000028 -0.00000000000000000 -1.00000000000000000 0.00000000000000022 5.00000000000000000
1 -522.00000000000102318 5542.00050000000101136 -0.00000000000097790 0.00000000000000011 -1.00000000000000000 0.00000000000000039 -1.00000000000000000 -0.00000000000000011 -0.00000000000000006 0.00000000000000006 -0.00000000000000039 -1.00000000000000000 
1 -52.00000000000152056 5542.00050000000101136 -0.00000000000125734 0.00000000000000000 1.00000000000000000 -0.00000000000000028 1.00000000000000000 0.00000000000000000 0.00000000000000028 0.00000000000000028 -0.00000000000000028 -1.00000000000000000 
Triangulations 0

TShapes 135
Ve
0.000000100000000
-802.000000000001251 5872.000500000000102 0.000000000000000
0 0

0101101
*
Ed
 0.000000100000000 1 1 0
1  1 0 0.000000000000000 15.000000000000000
2  1 2 0 0.000000000000000 15.000000000000000
0

0101000
+135 12 -135 14 *
Ve
0.000000100000000
227.999999999998749 5872.000500000000102 0.000000000000000
0 0

0101101
*
Ed
 0.000000100000000 1 1 0
1  2 0 0.000000000000000 15.000000000000000
0

0101000
+133 12 -133 14 *
Ed
 0.000000100000000 1 1 0
1  3 0 0.000000000000000 1030.000000000000000
2  2 3 15 0.000000000000000 1030.000000000000000
0

0101000
+135 0 -133 0 *
Wi

0101100
+134 0 -132 0 -131 12 +131 14 *
Fa
0  0.000000100000000 1 0

0111000
+130 0 *
Ve
0.000000100000000
-802.000000000001251 5622.000500000000102 0.000000000000000
0 0

0101101
*
Ed
 0.000000100000000 1 1 0
1  4 0 0.000000000000000 15.000000000000000
2  3 4 0 0.000000000000000 15.000000000000000
2  4 2 0 0.000000000000000 15.000000000000000
0

0101000
+128 12 -128 14 *
Ed
 0.000000100000000 1 1 0
1  5 0 0.000000000000000 250.000000000000000
2  5 3 15 0.000000000000000 250.000000000000000
2  6 2 16 0.000000000000000 250.000000000000000
2  7 2 17 0.000000000000000 250.000000000000000
0

0101000
+128 0 -135 0 *
Wi

0101100
+127 0 -134 0 -126 12 +126 14 *
Fa
0  0.000000100000000 2 0

0111000
+125 0 *
Ve
0.000000100000000
227.999999999998749 5622.000500000000102 0.000000000000000
0 0

0101101
*
Ed
 0.000000100000000 1 1 0
1  6 0 0.000000000000000 15.000000000000000
2  8 4 0 0.000000000000000 15.000000000000000
0

0101000
+123 12 -123 14 *
Ed
 0.000000100000000 1 1 0
1  7 0 0.000000000000000 250.000000000000000
2  9 3 15 0.000000000000000 250.000000000000000
0

0101000
+133 0 -123 0 *
Wi

0101100
+132 0 -122 0 -121 12 +121 14 *
Fa
0  0.000000100000000 5 0

0111000
+120 0 *
Ve
0.000000100001334
-742.000000000000682 -5622.000500000001011 0.000000000000000
0 0

0101101
*
Ed
 0.000000100000000 1 1 0
1  8 0 970.000000000000114 1030.000000000000000
2  10 3 15 970.000000000000114 1030.000000000000000
2  11 4 16 970.000000000000114 1030.000000000000000
2  12 4 17 970.000000000000114 1030.000000000000000
0

0101000
+118 22 -128 0 *
Ve
0.000000100001561
167.999999999998181 -5622.000500000001011 0.000000000000000
0 0

0101101
*
Ed
 0.000000100000000 1 1 0
1  8 0 0.000000000000000 60.000000000000881
2  10 3 15 0.000000000000000 60.000000000000881
2  11 4 16 0.000000000000000 60.000000000000881
2  12 4 17 0.000000000000000 60.000000000000881
0

0101000
+123 0 -116 25 *
Ve
0.000000100001334
-522.000000000000682 -5622.000500000001011 0.000000000000000
0 0

0101101
*
Ed
 0.000000100001334 1 1 0
1  9 0 0.000000000000000 220.000000000000000
2  13 6 27 0.000000000000000 220.000000000000000
2  14 6 29 0.000000000000000 220.000000000000000
2  15 7 30 0.000000000000000 220.000000000000000
2  16 4 31 0.000000000000000 220.000000000000000
2  17 4 32 0.000000000000000 220.000000000000000
2  18 3 33 0.000000000000000 220.000000000000000
2  19 3 34 0.000000000000000 220.000000000000000
0

0101000
+118 0 -114 0 *
Ve
0.000000100001562
-52.000000000001819 -5622.000500000001011 0.000000000000000
0 0

0101101
*
Ed
 0.000000100001561 1 1 0
1  10 0 0.000000000000000 220.000000000000000
2  20 8 36 0.000000000000000 220.000000000000000
2  21 8 38 0.000000000000000 220.000000000000000
2  22 9 39 0.000000000000000 220.000000000000000
2  23 4 40 0.000000000000000 220.000000000000000
2  24 4 41 0.000000000000000 220.000000000000000
2  25 3 42 0.000000000000000 220.000000000000000
2  26 3 43 0.000000000000000 220.000000000000000
0

0101000
+116 0 -112 0 *
Ed
 0.000000100000000 1 1 0
1  8 0 280.000000000000909 750.000000000000114
2  10 3 15 280.000000000000909 750.000000000000114
2  11 4 16 280.000000000000909 750.000000000000114
2  12 4 17 280.000000000000909 750.000000000000114
0

0101000
+112 25 -114 22 *
Wi

0101100
+131 19 +126 19 +121 19 +117 19 +115 19 -113 26 +111 35 +110 19 *
Ve
0.000000100000068
177.999999999997726 5692.000500000000102 -0.000000000001195
0 0

0101101
*
Ed
 0.000000100000000 1 1 0
1  11 0 0.000000000000000 6.283185307179586
2  27 3 18 0.000000000000000 6.283185307179586
2  28 10 0 0.000000000000000 6.283185307179586
0

0101000
+108 0 -108 0 *
Wi

0101100
+107 0 *
Ve
0.000000100000085
-742.000000000001023 5692.000500000000102 -0.000000000001551
0 0

0101101
*
Ed
 0.000000100000000 1 1 0
1  12 0 0.000000000000000 6.283185307179586
2  29 3 18 0.000000000000000 6.283185307179586
2  30 11 0 0.000000000000000 6.283185307179586
0

0101000
+105 0 -105 0 *
Wi

0101100
+104 0 *
Ve
0.000000100000001
177.999999999997726 5752.000500000000102 -0.000000000001288
0 0

0101101
*
Ed
 0.000000100000000 1 1 0
1  13 0 0.000000000000000 6.283185307179586
2  31 3 18 0.000000000000000 6.283185307179586
2  32 12 0 0.000000000000000 6.283185307179586
0

0101000
+102 0 -102 0 *
Wi

0101100
+101 0 *
Ve
0.000000100000076
-741.999999999999659 5752.000500000000102 -0.000000000001565
0 0

0101101
*
Ed
 0.000000100000000 1 1 0
1  14 0 0.000000000000000 6.283185307179586
2  33 3 18 0.000000000000000 6.283185307179586
2  34 13 0 0.000000000000000 6.283185307179586
0

0101000
+99 0 -99 0 *
Wi

0101100
+98 0 *
Fa
0  0.000000100000000 3 18

0111000
+109 0 +106 0 +103 0 +100 0 +97 0 *
Ed
 0.000000100000000 1 1 0
1  8 0 970.000000000000114 1030.000000000000000
2  10 3 15 970.000000000000114 1030.000000000000000
2  11 4 16 970.000000000000114 1030.000000000000000
2  12 4 17 970.000000000000114 1030.000000000000000
0

0101000
+118 46 -128 0 *
Ed
 0.000000100000000 1 1 0
1  8 0 0.000000000000000 60.000000000000881
2  10 3 15 0.000000000000000 60.000000000000881
2  11 4 16 0.000000000000000 60.000000000000881
2  12 4 17 0.000000000000000 60.000000000000881
0

0101000
+123 0 -116 47 *
Ed
 0.000000100000000 1 1 0
1  8 0 280.000000000000909 750.000000000000114
2  10 3 15 280.000000000000909 750.000000000000114
2  11 4 16 280.000000000000909 750.000000000000114
2  12 4 17 280.000000000000909 750.000000000000114
0

0101000
+112 47 -114 46 *
Wi

0101100
+131 45 +126 45 +121 45 +95 45 +94 45 -113 48 +111 49 +93 45 *
Ve
0.000000100000041
177.999999999997414 5692.000500000000102 0.000000000000000
0 0

0101101
*
Ed
 0.000000100000041 1 1 0
1  15 0 0.000000000000000 6.283185307179586
2  35 10 53 0.000000000000000 6.283185307179586
2  36 10 55 0.000000000000000 6.283185307179586
2  37 14 56 0.000000000000000 6.283185307179586
2  38 3 57 0.000000000000000 6.283185307179586
0

0101000
+91 0 -91 0 *
Wi

0101100
+90 52 *
Ve
0.000000100000016
-742.000000000001364 5692.000500000000102 0.000000000000000
0 0

0101101
*
Ed
 0.000000100000016 1 1 0
1  16 0 0.000000000000000 6.283185307179586
2  39 11 53 0.000000000000000 6.283185307179586
2  40 11 55 0.000000000000000 6.283185307179586
2  41 15 56 0.000000000000000 6.283185307179586
2  42 3 57 0.000000000000000 6.283185307179586
0

0101000
+88 0 -88 0 *
Wi

0101100
+87 52 *
Ve
0.000000100000050
177.999999999997414 5752.000500000000102 0.000000000000000
0 0

0101101
*
Ed
 0.000000100000050 1 1 0
1  17 0 0.000000000000000 6.283185307179586
2  43 12 53 0.000000000000000 6.283185307179586
2  44 12 55 0.000000000000000 6.283185307179586
2  45 16 56 0.000000000000000 6.283185307179586
2  46 3 57 0.000000000000000 6.283185307179586
0

0101000
+85 0 -85 0 *
Wi

0101100
+84 52 *
Ve
0.000000100000007
-742.000000000000000 5752.000500000000102 0.000000000000000
0 0

0101101
*
Ed
 0.000000100000007 1 1 0
1  18 0 0.000000000000000 6.283185307179586
2  47 13 53 0.000000000000000 6.283185307179586
2  48 13 55 0.000000000000000 6.283185307179586
2  49 17 56 0.000000000000000 6.283185307179586
2  50 3 57 0.000000000000000 6.283185307179586
0

0101000
+82 0 -82 0 *
Wi

0101100
+81 52 *
Fa
0  0.000000100000000 3 44

0111000
+92 0 +89 0 +86 0 +83 0 +80 0 *
Ed
 0.000000100000909 1 1 0
1  19 0 0.000000000000000 15.000000000000000
2  51 6 0 0.000000000000000 15.000000000000000
2  52 18 0 0.000000000000000 15.000000000000000
2  53 4 59 0.000000000000000 15.000000000000000
0

0101000
+118 62 -118 63 *
Wi

0101100
-117 60 -127 59 +95 61 +78 0 *
Fa
0  0.000000100000000 4 59

0111000
+77 0 *
Ed
 0.000000100000000 1 1 0
1  20 0 0.000000000000000 15.000000000000000
2  54 19 0 0.000000000000000 15.000000000000000
2  55 8 0 0.000000000000000 15.000000000000000
2  56 4 65 0.000000000000000 15.000000000000000
0

0101000
+116 67 -116 68 *
Wi

0101100
-115 66 -75 0 +94 69 +122 65 *
Fa
0  0.000000100000000 4 65

0111000
+74 0 *
Ve
0.000000100000000
-522.000000000000682 -5542.000500000001011 0.000000000000000
0 0

0101101
*
Ed
 0.000000100000000 1 1 0
1  21 0 0.000000000000000 80.000000000000000
2  57 20 27 0.000000000000000 80.000000000000000
2  58 20 29 0.000000000000000 80.000000000000000
2  59 7 30 0.000000000000000 80.000000000000000
0

0101000
+114 0 -72 0 *
Ve
0.000000100000000
-742.000000000000682 -5542.000500000001011 0.000000000000000
0 0

0101101
*
Ed
 0.000000100000000 1 1 0
1  22 0 0.000000000000000 220.000000000000000
2  60 7 30 0.000000000000000 220.000000000000000
0

0101000
+72 0 -70 0 *
Ed
 0.000000100000000 1 1 0
1  23 0 0.000000000000000 80.000000000000000
2  61 18 27 0.000000000000000 80.000000000000000
2  62 18 29 0.000000000000000 80.000000000000000
2  63 7 30 0.000000000000000 80.000000000000000
0

0101000
+70 0 -118 0 *
Wi

0101100
+113 71 +71 71 +69 71 +68 71 *
Ve
0.000000100000000
-557.000000000000682 -5582.000500000001011 0.000000000000000
0 0

0101101
*
Ed
 0.000000100000000 1 1 0
1  24 0 0.000000000000000 6.283185307179586
2  64 21 27 0.000000000000000 6.283185307179586
2  65 21 29 0.000000000000000 6.283185307179586
2  66 7 30 0.000000000000000 6.283185307179586
0

0101000
+66 0 -66 0 *
Wi

0101100
-65 71 *
Ve
0.000000100000000
-697.000000000000682 -5582.000500000001011 0.000000000000000
0 0

0101101
*
Ed
 0.000000100000000 1 1 0
1  25 0 0.000000000000000 6.283185307179586
2  67 22 27 0.000000000000000 6.283185307179586
2  68 22 29 0.000000000000000 6.283185307179586
2  69 7 30 0.000000000000000 6.283185307179586
0

0101000
+63 0 -63 0 *
Wi

0101100
-62 71 *
Fa
0  0.000000100000000 7 0

0111000
+67 0 +64 0 +61 0 *
Ve
0.000000100000000
-52.000000000001826 -5542.000500000001011 0.000000000000000
0 0

0101101
*
Ve
0.000000100000000
167.999999999998181 -5542.000500000001011 0.000000000000000
0 0

0101101
*
Ed
 0.000000100000000 1 1 0
1  26 0 0.000000000000000 220.000000000000000
2  70 9 39 0.000000000000000 220.000000000000000
0

0101000
+59 0 -58 0 *
Ed
 0.000000100000000 1 1 0
1  27 0 0.000000000000000 80.000000000000000
2  71 19 36 0.000000000000000 80.000000000000000
2  72 19 38 0.000000000000000 80.000000000000000
2  73 9 39 0.000000000000000 80.000000000000000
0

0101000
+58 0 -116 0 *
Ed
 0.000000100000000 1 1 0
1  28 0 0.000000000000000 80.000000000000000
2  74 23 36 0.000000000000000 80.000000000000000
2  75 23 38 0.000000000000000 80.000000000000000
2  76 9 39 0.000000000000000 80.000000000000000
0

0101000
+112 0 -59 0 *
Wi

0101100
+57 73 +56 73 +111 73 +55 73 *
Ve
0.000000100000000
-7.000000000001826 -5582.000500000001011 0.000000000000000
0 0

0101101
*
Ed
 0.000000100000000 1 1 0
1  29 0 0.000000000000000 6.283185307179586
2  77 24 36 0.000000000000000 6.283185307179586
2  78 24 38 0.000000000000000 6.283185307179586
2  79 9 39 0.000000000000000 6.283185307179586
0

0101000
+53 0 -53 0 *
Wi

0101100
+52 73 *
Ve
0.000000100000000
132.999999999998181 -5582.000500000001011 0.000000000000000
0 0

0101101
*
Ed
 0.000000100000000 1 1 0
1  30 0 0.000000000000000 6.283185307179586
2  80 25 36 0.000000000000000 6.283185307179586
2  81 25 38 0.000000000000000 6.283185307179586
2  82 9 39 0.000000000000000 6.283185307179586
0

0101000
+50 0 -50 0 *
Wi

0101100
+49 73 *
Fa
0  0.000000100000000 9 0

0111000
+54 0 +51 0 +48 0 *
Ed
 0.000000100000000 1 1 0
1  31 0 0.000000000000000 15.000000000000000
2  83 6 0 0.000000000000000 15.000000000000000
2  84 20 0 0.000000000000000 15.000000000000000
2  85 4 59 0.000000000000000 15.000000000000000
0

0101000
+114 62 -114 63 *
Ed
 0.000000100000004 1 1 0
1  32 0 0.000000000000000 15.000000000000000
2  86 8 0 0.000000000000000 15.000000000000000
2  87 23 0 0.000000000000000 15.000000000000000
2  88 4 65 0.000000000000000 15.000000000000000
0

0101000
+112 67 -112 68 *
Wi

0101100
-110 66 -46 74 +93 69 +45 0 *
Fa
0  0.000000100000000 4 65

0111000
+44 0 *
Ed
 0.000000100000000 1 1 0
1  33 0 0.000000000000000 14.999999999999970
3  89 90CN 10 0 0.000000000000000 14.999999999999970
0

0101000
+91 52 -108 0 *
Wi

0101100
-90 52 -42 0 +107 0 +42 0 *
Fa
0  0.000000100000000 10 0

0111000
+41 0 *
Ed
 0.000000100000000 1 1 0
1  34 0 0.000000000000000 15.000000000000071
3  91 92CN 11 0 0.000000000000000 15.000000000000071
0

0101000
+88 52 -105 0 *
Wi

0101100
-87 52 -39 0 +104 0 +39 0 *
Fa
0  0.000000100000000 11 0

0111000
+38 0 *
Ed
 0.000000100000000 1 1 0
1  35 0 0.000000000000000 15.000000000000050
3  93 94CN 12 0 0.000000000000000 15.000000000000050
0

0101000
+85 52 -102 0 *
Wi

0101100
-84 52 -36 0 +101 0 +36 0 *
Fa
0  0.000000100000000 12 0

0111000
+35 0 *
Ed
 0.000000100000000 1 1 0
1  36 0 0.000000000000000 15.000000000000071
3  95 96CN 13 0 0.000000000000000 15.000000000000071
0

0101000
+82 52 -99 0 *
Wi

0101100
-81 52 -33 0 +98 0 +33 0 *
Fa
0  0.000000100000000 13 0

0111000
+32 0 *
Ed
 0.000000100000000 1 1 0
1  37 0 0.000000000000000 15.000000000000000
2  97 18 0 0.000000000000000 15.000000000000000
0

0101000
+70 62 -70 63 *
Wi

0101100
+30 0 -78 0 -68 62 +68 63 *
Fa
0  0.000000100000000 18 0

0111000
+29 0 *
Ed
 0.000000100000000 1 1 0
1  38 0 0.000000000000000 15.000000000000000
2  98 19 0 0.000000000000000 15.000000000000000
0

0101000
+58 67 -58 68 *
Wi

0101100
+27 0 -75 0 -56 67 +56 68 *
Fa
0  0.000000100000000 19 0

0111000
+26 0 *
Ed
 0.000000100000000 1 1 0
1  39 0 0.000000000000000 15.000000000000000
2  99 20 0 0.000000000000000 15.000000000000000
0

0101000
+72 62 -72 63 *
Wi

0101100
+46 0 -24 0 -71 62 +71 63 *
Fa
0  0.000000100000000 20 0

0111000
+23 0 *
Wi

0101100
+24 0 -30 0 -69 62 +69 63 *
Fa
0  0.000000100000000 26 0

0111000
+21 0 *
Ed
 0.000000100000000 1 1 0
1  40 0 0.000000000000000 15.000000000000000
3  100 101CN 21 0 0.000000000000000 15.000000000000000
0

0101000
+66 62 -66 63 *
Wi

0101100
+19 0 -19 0 -65 62 +65 63 *
Fa
0  0.000000100000000 21 0

0111000
+18 0 *
Ed
 0.000000100000000 1 1 0
1  41 0 0.000000000000000 15.000000000000000
3  102 103CN 22 0 0.000000000000000 15.000000000000000
0

0101000
+63 62 -63 63 *
Wi

0101100
+16 0 -16 0 -62 62 +62 63 *
Fa
0  0.000000100000000 22 0

0111000
+15 0 *
Ed
 0.000000100000000 1 1 0
1  42 0 0.000000000000000 15.000000000000000
2  104 23 0 0.000000000000000 15.000000000000000
0

0101000
+59 67 -59 68 *
Wi

0101100
+13 0 -27 0 -57 67 +57 68 *
Fa
0  0.000000100000000 27 0

0111000
+12 0 *
Wi

0101100
+45 0 -13 0 -55 67 +55 68 *
Fa
0  0.000000100000000 23 0

0111000
+10 0 *
Ed
 0.000000100000000 1 1 0
1  43 0 0.000000000000000 15.000000000000000
3  105 106CN 24 0 0.000000000000000 15.000000000000000
0

0101000
+53 67 -53 68 *
Wi

0101100
+8 0 -8 0 -52 67 +52 68 *
Fa
0  0.000000100000000 24 0

0111000
+7 0 *
Ed
 0.000000100000000 1 1 0
1  44 0 0.000000000000000 15.000000000000000
3  107 108CN 25 0 0.000000000000000 15.000000000000000
0

0101000
+50 67 -50 68 *
Wi

0101100
+5 0 -5 0 -49 67 +49 68 *
Fa
0  0.000000100000000 25 0

0111000
+4 0 *
Sh

0101100
+129 8 +124 8 +119 8 +96 0 -79 0 +76 58 +73 64 +60 70 -47 72 +43 64 
-40 0 -37 0 -34 0 -31 0 -60 75 +47 76 +28 58 -25 64 +22 58 +20 58 
-17 58 -14 58 -11 64 -9 64 -6 64 -3 64 *
So

0100000
+2 0 *

+1 1 