
CASCADE Topology V1, (c) Matra-Datavision
Locations 12
1
1.000000000000000 0.000000000000000 0.000000000000000 0.000000000000000 
0.000000000000000 1.000000000000000 0.000000000000000 0.000000000000000 
0.000000000000000 0.000000000000000 1.000000000000000 0.000000000000000 
1
1.000000000000000 0.000000000000000 0.000000000000000 0.000000000000000 
0.000000000000000 -0.000000000000000 -1.000000000000000 0.000000000000000 
0.000000000000000 1.000000000000000 -0.000000000000000 0.000000000000000 
1
1.000000000000000 0.000000000000000 0.000000000000000 0.000000000000000 
0.000000000000000 -0.000000000000000 -1.000000000000000 0.000000000000000 
0.000000000000000 1.000000000000000 -0.000000000000000 0.000000000000000 
2  1 1 2 1 3 -1 0
1
1.000000000000000 0.000000000000000 0.000000000000000 0.000000000000000 
0.000000000000000 1.000000000000000 0.000000000000000 0.000000000000000 
0.000000000000000 0.000000000000000 1.000000000000000 15.000000000000000 
2  1 1 2 1 3 -1 5 1 0
2  2 -1 1 -1 0
2  3 1 2 -1 1 -1 0
2  5 -1 3 1 2 -1 1 -1 0
2  3 -1 0
2  1 1 2 1 0
2  3 -1 5 1 0
Curve2ds 60
1 568.16652999079360598 -847.78643515850103540 -0.55582821424379891 0.83129717685707905 
1 0.00000000000000000 0.00000000000000000 0.00000000000000000 -1.00000000000000000 
1 -153.17822827085819881 231.05743371452149404 0.00000000000000000 1.00000000000000000 
1 250.00000000000000000 0.00000000000000000 0.00000000000000000 -1.00000000000000000 
1 -153.17822827085819881 1131.21356484149805510 -1.00000000000000000 -0.00000000000000000 
1 0.00000000000000000 0.00000000000000000 1.00000000000000000 0.00000000000000000 
1 0.00000000000000000 -15.00000000000000000 1.00000000000000000 0.00000000000000000 
1 -403.17822827085819881 1131.21356484149805510 0.00000000000000000 -1.00000000000000000 
1 0.00000000000000000 0.00000000000000000 0.00000000000000000 -1.00000000000000000 
1 -403.17822827085819881 155.17840363845766660 0.55582821424379858 -0.83129717685707916 
1 409.18628585281294363 0.00000000000000000 0.00000000000000000 -1.00000000000000000 
1 0.00000000000000000 0.00000000000000000 0.00000000000000000 -1.00000000000000000 
1 0.00000000000000000 0.00000000000000000 1.00000000000000000 0.00000000000000000 
1 0.00000000000000000 -15.00000000000000000 1.00000000000000000 0.00000000000000000 
1 336.96898587632858835 -951.78643515850194490 1.00000000000000000 0.00000000000000000 
1 40.00000000000000000 0.00000000000000000 0.00000000000000000 -1.00000000000000000 
1 0.00000000000000000 0.00000000000000000 1.00000000000000000 0.00000000000000000 
1 0.00000000000000000 -15.00000000000000000 1.00000000000000000 0.00000000000000000 
1 746.15527172914153198 -951.78643515850194490 0.00000000000000000 1.00000000000000000 
1 568.16652999079360598 -847.78643515850103540 0.94101531017864071 -0.33836398450396094 
1 0.00000000000000000 0.00000000000000000 0.00000000000000000 -1.00000000000000000 
1 6.28318530717958623 0.00000000000000000 0.00000000000000000 -1.00000000000000000 
1 0.00000000000000000 0.00000000000000000 1.00000000000000000 0.00000000000000000 
1 0.00000000000000000 -15.00000000000000000 1.00000000000000000 0.00000000000000000 
2 -186.31152827085770696 118.21356484149805510 0.00000000000000000 1.00000000000000000 -1.00000000000000000 0.00000000000000000 5.00000000000000000
1 0.00000000000000000 0.00000000000000000 0.00000000000000000 -1.00000000000000000 
1 6.28318530717958623 0.00000000000000000 0.00000000000000000 -1.00000000000000000 
1 0.00000000000000000 0.00000000000000000 1.00000000000000000 0.00000000000000000 
1 0.00000000000000000 -15.00000000000000000 1.00000000000000000 0.00000000000000000 
2 -186.31152827085770696 -33.78643515850194490 0.00000000000000000 1.00000000000000000 -1.00000000000000000 0.00000000000000000 5.00000000000000000
1 0.00000000000000000 0.00000000000000000 0.00000000000000000 -1.00000000000000000 
1 6.28318530717958623 0.00000000000000000 0.00000000000000000 -1.00000000000000000 
1 0.00000000000000000 0.00000000000000000 1.00000000000000000 0.00000000000000000 
1 0.00000000000000000 -15.00000000000000000 1.00000000000000000 0.00000000000000000 
2 -4.44482827085812460 -153.78643515850194490 0.00000000000000000 1.00000000000000000 -1.00000000000000000 0.00000000000000000 5.00000000000000000
1 0.00000000000000000 0.00000000000000000 0.00000000000000000 -1.00000000000000000 
1 6.28318530717958623 0.00000000000000000 0.00000000000000000 -1.00000000000000000 
1 0.00000000000000000 0.00000000000000000 1.00000000000000000 0.00000000000000000 
1 0.00000000000000000 -15.00000000000000000 1.00000000000000000 0.00000000000000000 
2 -4.44482827085812460 -305.78643515850194490 0.00000000000000000 1.00000000000000000 -1.00000000000000000 0.00000000000000000 5.00000000000000000
1 0.00000000000000000 0.00000000000000000 0.00000000000000000 -1.00000000000000000 
1 6.28318530717958623 0.00000000000000000 0.00000000000000000 -1.00000000000000000 
1 0.00000000000000000 0.00000000000000000 1.00000000000000000 0.00000000000000000 
1 0.00000000000000000 -15.00000000000000000 1.00000000000000000 0.00000000000000000 
2 177.42187172914145776 -425.78643515850194490 0.00000000000000000 1.00000000000000000 -1.00000000000000000 0.00000000000000000 5.00000000000000000
1 0.00000000000000000 0.00000000000000000 0.00000000000000000 -1.00000000000000000 
1 6.28318530717958623 0.00000000000000000 0.00000000000000000 -1.00000000000000000 
1 0.00000000000000000 0.00000000000000000 1.00000000000000000 0.00000000000000000 
1 0.00000000000000000 -15.00000000000000000 1.00000000000000000 0.00000000000000000 
2 177.42187172914145776 -577.78643515850194490 0.00000000000000000 1.00000000000000000 -1.00000000000000000 0.00000000000000000 5.00000000000000000
1 0.00000000000000000 0.00000000000000000 0.00000000000000000 -1.00000000000000000 
1 6.28318530717958623 0.00000000000000000 0.00000000000000000 -1.00000000000000000 
1 0.00000000000000000 0.00000000000000000 1.00000000000000000 0.00000000000000000 
1 0.00000000000000000 -15.00000000000000000 1.00000000000000000 0.00000000000000000 
2 359.28857172914194962 -697.78643515850217227 0.00000000000000000 1.00000000000000000 -1.00000000000000000 0.00000000000000000 5.00000000000000000
1 0.00000000000000000 0.00000000000000000 0.00000000000000000 -1.00000000000000000 
1 6.28318530717958623 0.00000000000000000 0.00000000000000000 -1.00000000000000000 
1 0.00000000000000000 0.00000000000000000 1.00000000000000000 0.00000000000000000 
1 0.00000000000000000 -15.00000000000000000 1.00000000000000000 0.00000000000000000 
2 359.28857172914194962 -849.78643515850194490 0.00000000000000000 1.00000000000000000 -1.00000000000000000 0.00000000000000000 5.00000000000000000
Curves 32
1 1131.00000000000090949 4900.65574173834829708 0.00000000000000000 0.00000000000000000 0.00000000000000000 1.00000000000000000 
1 2209.84386887302343894 5622.00050000000010186 0.00000000000000000 0.00000000000000000 0.00000000000000000 1.00000000000000000 
1 1131.00000000000090949 4900.65574173834829708 0.00000000000000000 0.83129717685707905 0.55582821424379891 0.00000000000000000 
1 3110.00000000000000000 5622.00050000000010186 0.00000000000000000 0.00000000000000000 0.00000000000000000 1.00000000000000000 
1 2209.84386887302343894 5622.00050000000010186 0.00000000000000000 1.00000000000000000 0.00000000000000000 0.00000000000000000 
1 3110.00000000000000000 5872.00050000000010186 0.00000000000000000 0.00000000000000000 0.00000000000000000 1.00000000000000000 
1 3110.00000000000000000 5622.00050000000010186 0.00000000000000000 0.00000000000000000 1.00000000000000000 0.00000000000000000 
1 2133.96483879695961150 5872.00050000000010186 0.00000000000000000 0.00000000000000000 0.00000000000000000 1.00000000000000000 
1 3110.00000000000000000 5872.00050000000010186 0.00000000000000000 -1.00000000000000000 0.00000000000000000 0.00000000000000000 
1 1027.00000000000000000 5131.85328585281331470 0.00000000000000000 0.00000000000000000 0.00000000000000000 1.00000000000000000 
1 2133.96483879695961150 5872.00050000000010186 0.00000000000000000 -0.83129717685707916 -0.55582821424379858 0.00000000000000000 
1 1027.00000000000000000 4722.66700000000037107 0.00000000000000000 0.00000000000000000 0.00000000000000000 1.00000000000000000 
1 1027.00000000000000000 5131.85328585281331470 0.00000000000000000 0.00000000000000000 -1.00000000000000000 0.00000000000000000 
1 1067.00000000000000000 4722.66700000000037107 0.00000000000000000 0.00000000000000000 0.00000000000000000 1.00000000000000000 
1 1027.00000000000000000 4722.66700000000037107 0.00000000000000000 1.00000000000000000 0.00000000000000000 0.00000000000000000 
1 1131.00000000000090949 4900.65574173834829708 0.00000000000000000 -0.33836398450396094 -0.94101531017864071 0.00000000000000000 
1 2102.00000000000000000 5655.13379999999961001 0.00000000000000000 0.00000000000000000 0.00000000000000000 1.00000000000000000 
2 2097.00000000000000000 5655.13379999999961001 0.00000000000000000 0.00000000000000000 0.00000000000000000 1.00000000000000000 1.00000000000000000 0.00000000000000000 -0.00000000000000000 -0.00000000000000000 1.00000000000000000 0.00000000000000000 5.00000000000000000
1 1950.00000000000000000 5655.13379999999961001 0.00000000000000000 0.00000000000000000 0.00000000000000000 1.00000000000000000 
2 1945.00000000000000000 5655.13379999999961001 0.00000000000000000 0.00000000000000000 0.00000000000000000 1.00000000000000000 1.00000000000000000 0.00000000000000000 -0.00000000000000000 -0.00000000000000000 1.00000000000000000 0.00000000000000000 5.00000000000000000
1 1830.00000000000000000 5473.26710000000002765 0.00000000000000000 0.00000000000000000 0.00000000000000000 1.00000000000000000 
2 1825.00000000000000000 5473.26710000000002765 0.00000000000000000 0.00000000000000000 0.00000000000000000 1.00000000000000000 1.00000000000000000 0.00000000000000000 -0.00000000000000000 -0.00000000000000000 1.00000000000000000 0.00000000000000000 5.00000000000000000
1 1678.00000000000000000 5473.26710000000002765 0.00000000000000000 0.00000000000000000 0.00000000000000000 1.00000000000000000 
2 1673.00000000000000000 5473.26710000000002765 0.00000000000000000 0.00000000000000000 0.00000000000000000 1.00000000000000000 1.00000000000000000 0.00000000000000000 -0.00000000000000000 -0.00000000000000000 1.00000000000000000 0.00000000000000000 5.00000000000000000
1 1558.00000000000000000 5291.40040000000044529 0.00000000000000000 0.00000000000000000 0.00000000000000000 1.00000000000000000 
2 1553.00000000000000000 5291.40040000000044529 0.00000000000000000 0.00000000000000000 0.00000000000000000 1.00000000000000000 1.00000000000000000 0.00000000000000000 -0.00000000000000000 -0.00000000000000000 1.00000000000000000 0.00000000000000000 5.00000000000000000
1 1406.00000000000000000 5291.40040000000044529 0.00000000000000000 0.00000000000000000 0.00000000000000000 1.00000000000000000 
2 1401.00000000000000000 5291.40040000000044529 0.00000000000000000 0.00000000000000000 0.00000000000000000 1.00000000000000000 1.00000000000000000 0.00000000000000000 -0.00000000000000000 -0.00000000000000000 1.00000000000000000 0.00000000000000000 5.00000000000000000
1 1285.99999999999977263 5109.53369999999995343 0.00000000000000000 0.00000000000000000 0.00000000000000000 1.00000000000000000 
2 1280.99999999999977263 5109.53369999999995343 0.00000000000000000 0.00000000000000000 0.00000000000000000 1.00000000000000000 1.00000000000000000 0.00000000000000000 -0.00000000000000000 -0.00000000000000000 1.00000000000000000 0.00000000000000000 5.00000000000000000
1 1134.00000000000000000 5109.53369999999995343 0.00000000000000000 0.00000000000000000 0.00000000000000000 1.00000000000000000 
2 1129.00000000000000000 5109.53369999999995343 0.00000000000000000 0.00000000000000000 0.00000000000000000 1.00000000000000000 1.00000000000000000 0.00000000000000000 -0.00000000000000000 -0.00000000000000000 1.00000000000000000 0.00000000000000000 5.00000000000000000
Polygon3D 0
PolygonOnTriangulations 0
Surfaces 17
1 1131.00000000000090949 4900.65574173834829708 0.00000000000000000 -0.55582821424379891 0.83129717685707905 0.00000000000000000 0.83129717685707905 0.55582821424379891 0.00000000000000000 0.00000000000000000 0.00000000000000000 -1.00000000000000000 
1 1978.78643515850194490 -0.00000000000121432 5468.82227172914190305 0.00000000000000000 -1.00000000000000000 -0.00000000000000022 0.00000000000000000 0.00000000000000022 -1.00000000000000000 1.00000000000000000 0.00000000000000000 0.00000000000000000 
1 2209.84386887302343894 5622.00050000000010186 0.00000000000000000 0.00000000000000000 1.00000000000000000 0.00000000000000000 1.00000000000000000 0.00000000000000000 0.00000000000000000 0.00000000000000000 0.00000000000000000 -1.00000000000000000 
1 3110.00000000000000000 5622.00050000000010186 0.00000000000000000 -1.00000000000000000 0.00000000000000000 0.00000000000000000 0.00000000000000000 1.00000000000000000 0.00000000000000000 0.00000000000000000 0.00000000000000000 -1.00000000000000000 
1 3110.00000000000000000 5872.00050000000010186 0.00000000000000000 0.00000000000000000 -1.00000000000000000 0.00000000000000000 -1.00000000000000000 0.00000000000000000 0.00000000000000000 -0.00000000000000000 -0.00000000000000000 -1.00000000000000000 
1 2133.96483879695961150 5872.00050000000010186 0.00000000000000000 0.55582821424379858 -0.83129717685707916 0.00000000000000000 -0.83129717685707916 -0.55582821424379858 0.00000000000000000 0.00000000000000000 -0.00000000000000000 -1.00000000000000000 
1 1027.00000000000000000 5131.85328585281331470 0.00000000000000000 1.00000000000000000 0.00000000000000000 -0.00000000000000000 0.00000000000000000 -1.00000000000000000 0.00000000000000000 0.00000000000000000 -0.00000000000000000 -1.00000000000000000 
1 1027.00000000000000000 4722.66700000000037107 0.00000000000000000 0.00000000000000000 1.00000000000000000 0.00000000000000000 1.00000000000000000 0.00000000000000000 0.00000000000000000 0.00000000000000000 0.00000000000000000 -1.00000000000000000 
1 1131.00000000000090949 4900.65574173834829708 0.00000000000000000 0.94101531017864071 -0.33836398450396094 0.00000000000000000 -0.33836398450396094 -0.94101531017864071 0.00000000000000000 0.00000000000000000 -0.00000000000000000 -1.00000000000000000 
2 2097.00000000000000000 5655.13379999999961001 0.00000000000000000 -0.00000000000000000 -0.00000000000000000 -1.00000000000000000 1.00000000000000000 0.00000000000000000 0.00000000000000000 -0.00000000000000000 1.00000000000000000 -0.00000000000000000 5.00000000000000000
2 1945.00000000000000000 5655.13379999999961001 0.00000000000000000 -0.00000000000000000 -0.00000000000000000 -1.00000000000000000 1.00000000000000000 0.00000000000000000 0.00000000000000000 -0.00000000000000000 1.00000000000000000 -0.00000000000000000 5.00000000000000000
2 1825.00000000000000000 5473.26710000000002765 0.00000000000000000 -0.00000000000000000 -0.00000000000000000 -1.00000000000000000 1.00000000000000000 0.00000000000000000 0.00000000000000000 -0.00000000000000000 1.00000000000000000 -0.00000000000000000 5.00000000000000000
2 1673.00000000000000000 5473.26710000000002765 0.00000000000000000 -0.00000000000000000 -0.00000000000000000 -1.00000000000000000 1.00000000000000000 0.00000000000000000 0.00000000000000000 -0.00000000000000000 1.00000000000000000 -0.00000000000000000 5.00000000000000000
2 1553.00000000000000000 5291.40040000000044529 0.00000000000000000 -0.00000000000000000 -0.00000000000000000 -1.00000000000000000 1.00000000000000000 0.00000000000000000 0.00000000000000000 -0.00000000000000000 1.00000000000000000 -0.00000000000000000 5.00000000000000000
2 1401.00000000000000000 5291.40040000000044529 0.00000000000000000 -0.00000000000000000 -0.00000000000000000 -1.00000000000000000 1.00000000000000000 0.00000000000000000 0.00000000000000000 -0.00000000000000000 1.00000000000000000 -0.00000000000000000 5.00000000000000000
2 1280.99999999999977263 5109.53369999999995343 0.00000000000000000 -0.00000000000000000 -0.00000000000000000 -1.00000000000000000 1.00000000000000000 0.00000000000000000 0.00000000000000000 -0.00000000000000000 1.00000000000000000 -0.00000000000000000 5.00000000000000000
2 1129.00000000000000000 5109.53369999999995343 0.00000000000000000 -0.00000000000000000 -0.00000000000000000 -1.00000000000000000 1.00000000000000000 0.00000000000000000 0.00000000000000000 -0.00000000000000000 1.00000000000000000 -0.00000000000000000 5.00000000000000000
Triangulations 0

TShapes 92
Ve
0.000000100000000
1131.000000000000909 4900.655741738348297 0.000000000000000
0 0

0101101
*
Ed
 0.000000100000000 1 1 0
1  1 0 0.000000000000000 15.000000000000000
0

0101000
+92 4 -92 6 *
Ve
0.000000100000000
2209.843868873023439 5622.000500000000102 0.000000000000000
0 0

0101101
*
Ed
 0.000000100000000 1 1 0
1  2 0 0.000000000000000 15.000000000000000
0

0101000
+90 4 -90 6 *
Ed
 0.000000100000000 1 1 0
1  3 0 0.000000000000000 1297.783631302411095
2  1 2 7 0.000000000000000 1297.783631302411095
0

0101000
+92 0 -90 0 *
Wi

0101100
+91 0 -89 0 -88 4 +88 6 *
Fa
0  0.000000100000000 1 0

0111000
+87 0 *
Ve
0.000000100000000
3110.000000000000000 5622.000500000000102 0.000000000000000
0 0

0101101
*
Ed
 0.000000100000000 1 1 0
1  4 0 0.000000000000000 15.000000000000000
2  2 4 0 0.000000000000000 15.000000000000000
0

0101000
+85 4 -85 6 *
Ed
 0.000000100000000 1 1 0
1  5 0 0.000000000000000 900.156131126976561
2  3 2 7 0.000000000000000 900.156131126976561
0

0101000
+90 0 -85 0 *
Wi

0101100
+89 0 -84 0 -83 4 +83 6 *
Fa
0  0.000000100000000 3 0

0111000
+82 0 *
Ve
0.000000100000000
3110.000000000000000 5872.000500000000102 0.000000000000000
0 0

0101101
*
Ed
 0.000000100000000 1 1 0
1  6 0 0.000000000000000 15.000000000000000
2  4 4 0 0.000000000000000 15.000000000000000
0

0101000
+80 4 -80 6 *
Ed
 0.000000100000000 1 1 0
1  7 0 0.000000000000000 250.000000000000000
2  5 2 7 0.000000000000000 250.000000000000000
2  6 4 8 0.000000000000000 250.000000000000000
2  7 4 9 0.000000000000000 250.000000000000000
0

0101000
+85 0 -80 0 *
Wi

0101100
+84 0 -79 0 -78 4 +78 6 *
Fa
0  0.000000100000000 4 0

0111000
+77 0 *
Ve
0.000000100000000
2133.964838796959611 5872.000500000000102 0.000000000000000
0 0

0101101
*
Ed
 0.000000100000000 1 1 0
1  8 0 0.000000000000000 15.000000000000000
0

0101000
+75 4 -75 6 *
Ed
 0.000000100000000 1 1 0
1  9 0 0.000000000000000 976.035161203040389
2  8 2 7 0.000000000000000 976.035161203040389
0

0101000
+80 0 -75 0 *
Wi

0101100
+79 0 -74 0 -73 4 +73 6 *
Fa
0  0.000000100000000 5 0

0111000
+72 0 *
Ve
0.000000100000000
1027.000000000000000 5131.853285852813315 0.000000000000000
0 0

0101101
*
Ed
 0.000000100000000 1 1 0
1  10 0 0.000000000000000 15.000000000000000
2  9 7 0 0.000000000000000 15.000000000000000
0

0101000
+70 4 -70 6 *
Ed
 0.000000100000000 1 1 0
1  11 0 0.000000000000000 1331.611449688917446
2  10 2 7 0.000000000000000 1331.611449688917446
0

0101000
+75 0 -70 0 *
Wi

0101100
+74 0 -69 0 -68 4 +68 6 *
Fa
0  0.000000100000000 6 0

0111000
+67 0 *
Ve
0.000000100000000
1027.000000000000000 4722.667000000000371 0.000000000000000
0 0

0101101
*
Ed
 0.000000100000000 1 1 0
1  12 0 0.000000000000000 15.000000000000000
2  11 7 0 0.000000000000000 15.000000000000000
2  12 8 0 0.000000000000000 15.000000000000000
0

0101000
+65 4 -65 6 *
Ed
 0.000000100000000 1 1 0
1  13 0 0.000000000000000 409.186285852812944
2  13 7 8 0.000000000000000 409.186285852812944
2  14 7 9 0.000000000000000 409.186285852812944
2  15 2 7 0.000000000000000 409.186285852812944
0

0101000
+70 0 -65 0 *
Wi

0101100
+69 0 -64 0 -63 4 +63 6 *
Fa
0  0.000000100000000 7 0

0111000
+62 0 *
Ve
0.000000100000000
1067.000000000000000 4722.667000000000371 0.000000000000000
0 0

0101101
*
Ed
 0.000000100000000 1 1 0
1  14 0 0.000000000000000 15.000000000000000
2  16 8 0 0.000000000000000 15.000000000000000
0

0101000
+60 4 -60 6 *
Ed
 0.000000100000000 1 1 0
1  15 0 0.000000000000000 40.000000000000000
2  17 8 8 0.000000000000000 40.000000000000000
2  18 8 9 0.000000000000000 40.000000000000000
2  19 2 7 0.000000000000000 40.000000000000000
0

0101000
+65 0 -60 0 *
Wi

0101100
+64 0 -59 0 -58 4 +58 6 *
Fa
0  0.000000100000000 8 0

0111000
+57 0 *
Ed
 0.000000100000000 1 1 0
1  16 0 0.000000000000000 189.145426023471259
2  20 2 7 0.000000000000000 189.145426023471259
0

0101000
+92 0 -60 0 *
Wi

0101100
+91 0 -59 0 -55 4 +55 6 *
Fa
0  0.000000100000000 9 0

0111000
+54 0 *
Ve
0.000000100000000
2102.000000000000000 5655.133799999999610 0.000000000000000
0 0

0101101
*
Ed
 0.000000100000000 1 1 0
1  17 0 0.000000000000000 15.000000000000000
3  21 22CN 10 0 0.000000000000000 15.000000000000000
0

0101000
+52 4 -52 6 *
Ed
 0.000000100000000 1 1 0
1  18 0 0.000000000000000 6.283185307179586
2  23 10 8 0.000000000000000 6.283185307179586
2  24 10 9 0.000000000000000 6.283185307179586
2  25 2 7 0.000000000000000 6.283185307179586
0

0101000
+52 0 -52 0 *
Wi

0101100
+51 0 -51 0 -50 4 +50 6 *
Fa
0  0.000000100000000 10 0

0111000
+49 0 *
Ve
0.000000100000000
1950.000000000000000 5655.133799999999610 0.000000000000000
0 0

0101101
*
Ed
 0.000000100000000 1 1 0
1  19 0 0.000000000000000 15.000000000000000
3  26 27CN 11 0 0.000000000000000 15.000000000000000
0

0101000
+47 4 -47 6 *
Ed
 0.000000100000000 1 1 0
1  20 0 0.000000000000000 6.283185307179586
2  28 11 8 0.000000000000000 6.283185307179586
2  29 11 9 0.000000000000000 6.283185307179586
2  30 2 7 0.000000000000000 6.283185307179586
0

0101000
+47 0 -47 0 *
Wi

0101100
+46 0 -46 0 -45 4 +45 6 *
Fa
0  0.000000100000000 11 0

0111000
+44 0 *
Ve
0.000000100000000
1830.000000000000000 5473.267100000000028 0.000000000000000
0 0

0101101
*
Ed
 0.000000100000000 1 1 0
1  21 0 0.000000000000000 15.000000000000000
3  31 32CN 12 0 0.000000000000000 15.000000000000000
0

0101000
+42 4 -42 6 *
Ed
 0.000000100000000 1 1 0
1  22 0 0.000000000000000 6.283185307179586
2  33 12 8 0.000000000000000 6.283185307179586
2  34 12 9 0.000000000000000 6.283185307179586
2  35 2 7 0.000000000000000 6.283185307179586
0

0101000
+42 0 -42 0 *
Wi

0101100
+41 0 -41 0 -40 4 +40 6 *
Fa
0  0.000000100000000 12 0

0111000
+39 0 *
Ve
0.000000100000000
1678.000000000000000 5473.267100000000028 0.000000000000000
0 0

0101101
*
Ed
 0.000000100000000 1 1 0
1  23 0 0.000000000000000 15.000000000000000
3  36 37CN 13 0 0.000000000000000 15.000000000000000
0

0101000
+37 4 -37 6 *
Ed
 0.000000100000000 1 1 0
1  24 0 0.000000000000000 6.283185307179586
2  38 13 8 0.000000000000000 6.283185307179586
2  39 13 9 0.000000000000000 6.283185307179586
2  40 2 7 0.000000000000000 6.283185307179586
0

0101000
+37 0 -37 0 *
Wi

0101100
+36 0 -36 0 -35 4 +35 6 *
Fa
0  0.000000100000000 13 0

0111000
+34 0 *
Ve
0.000000100000000
1558.000000000000000 5291.400400000000445 0.000000000000000
0 0

0101101
*
Ed
 0.000000100000000 1 1 0
1  25 0 0.000000000000000 15.000000000000000
3  41 42CN 14 0 0.000000000000000 15.000000000000000
0

0101000
+32 4 -32 6 *
Ed
 0.000000100000000 1 1 0
1  26 0 0.000000000000000 6.283185307179586
2  43 14 8 0.000000000000000 6.283185307179586
2  44 14 9 0.000000000000000 6.283185307179586
2  45 2 7 0.000000000000000 6.283185307179586
0

0101000
+32 0 -32 0 *
Wi

0101100
+31 0 -31 0 -30 4 +30 6 *
Fa
0  0.000000100000000 14 0

0111000
+29 0 *
Ve
0.000000100000000
1406.000000000000000 5291.400400000000445 0.000000000000000
0 0

0101101
*
Ed
 0.000000100000000 1 1 0
1  27 0 0.000000000000000 15.000000000000000
3  46 47CN 15 0 0.000000000000000 15.000000000000000
0

0101000
+27 4 -27 6 *
Ed
 0.000000100000000 1 1 0
1  28 0 0.000000000000000 6.283185307179586
2  48 15 8 0.000000000000000 6.283185307179586
2  49 15 9 0.000000000000000 6.283185307179586
2  50 2 7 0.000000000000000 6.283185307179586
0

0101000
+27 0 -27 0 *
Wi

0101100
+26 0 -26 0 -25 4 +25 6 *
Fa
0  0.000000100000000 15 0

0111000
+24 0 *
Ve
0.000000100000000
1285.999999999999773 5109.533699999999953 0.000000000000000
0 0

0101101
*
Ed
 0.000000100000000 1 1 0
1  29 0 0.000000000000000 15.000000000000000
3  51 52CN 16 0 0.000000000000000 15.000000000000000
0

0101000
+22 4 -22 6 *
Ed
 0.000000100000000 1 1 0
1  30 0 0.000000000000000 6.283185307179586
2  53 16 8 0.000000000000000 6.283185307179586
2  54 16 9 0.000000000000000 6.283185307179586
2  55 2 7 0.000000000000000 6.283185307179586
0

0101000
+22 0 -22 0 *
Wi

0101100
+21 0 -21 0 -20 4 +20 6 *
Fa
0  0.000000100000000 16 0

0111000
+19 0 *
Ve
0.000000100000000
1134.000000000000000 5109.533699999999953 0.000000000000000
0 0

0101101
*
Ed
 0.000000100000000 1 1 0
1  31 0 0.000000000000000 15.000000000000000
3  56 57CN 17 0 0.000000000000000 15.000000000000000
0

0101000
+17 4 -17 6 *
Ed
 0.000000100000000 1 1 0
1  32 0 0.000000000000000 6.283185307179586
2  58 17 8 0.000000000000000 6.283185307179586
2  59 17 9 0.000000000000000 6.283185307179586
2  60 2 7 0.000000000000000 6.283185307179586
0

0101000
+17 0 -17 0 *
Wi

0101100
+16 0 -16 0 -15 4 +15 6 *
Fa
0  0.000000100000000 17 0

0111000
+14 0 *
Wi

0101100
+88 11 +83 11 +78 11 +73 11 +68 11 +63 11 +58 11 -55 11 *
Wi

0101100
-50 11 *
Wi

0101100
-45 11 *
Wi

0101100
-40 11 *
Wi

0101100
-35 11 *
Wi

0101100
-30 11 *
Wi

0101100
-25 11 *
Wi

0101100
-20 11 *
Wi

0101100
-15 11 *
Fa
0  0.000000100000000 2 0

0111000
+12 0 +11 0 +10 0 +9 0 +8 0 +7 0 +6 0 +5 0 +4 0 *
Sh

0101100
+86 0 +81 0 +76 0 +71 0 +66 0 +61 0 +56 0 -53 0 -48 0 -43 0 
-38 0 -33 0 -28 0 -23 0 -18 0 -13 0 +3 10 -3 12 *
So

1100000
-2 0 *

+1 0 