
CASCADE Topology V1, (c) Matra-Datavision
Locations 13
1
1.000000000000000 0.000000000000000 0.000000000000000 0.000000000000000 
0.000000000000000 0.000000000000000 -1.000000000000000 0.000000000000000 
0.000000000000000 1.000000000000000 0.000000000000000 0.000000000000000 
1
1.000000000000000 0.000000000000000 0.000000000000000 0.000000000000000 
0.000000000000000 1.000000000000000 0.000000000000000 0.000000000000000 
0.000000000000000 0.000000000000000 1.000000000000000 0.000000000000000 
1
1.000000000000000 0.000000000000000 0.000000000000000 0.000000000000000 
0.000000000000000 -0.000000000000000 -1.000000000000000 0.000000000000000 
0.000000000000000 1.000000000000000 -0.000000000000000 0.000000000000000 
1
1.000000000000000 0.000000000000000 0.000000000000000 0.000000000000000 
0.000000000000000 -0.000000000000000 -1.000000000000000 0.000000000000000 
0.000000000000000 1.000000000000000 -0.000000000000000 0.000000000000000 
2  2 1 3 1 4 -1 0
1
1.000000000000000 0.000000000000000 0.000000000000000 -0.000000000000000 
0.000000000000000 1.000000000000000 0.000000000000000 -0.000000000000000 
0.000000000000000 0.000000000000000 1.000000000000000 -15.000000000000000 
2  2 1 3 1 4 -1 6 1 0
2  3 -1 2 -1 0
2  4 1 3 -1 2 -1 0
2  6 -1 4 1 3 -1 2 -1 0
2  4 -1 0
2  2 1 3 1 0
2  4 -1 6 1 0
Curve2ds 118
1 0.00000000000000000 0.00000000000000000 0.00000000000000000 -1.00000000000000000 
1 23.44745238377163332 372.64981355378495209 -0.86420031252792595 0.50314791048620611 
1 241.04854997216943957 0.00000000000000000 0.00000000000000000 -1.00000000000000000 
1 0.00000000000000000 0.00000000000000000 0.00000000000000000 -1.00000000000000000 
1 0.00000000000000000 0.00000000000000000 1.00000000000000000 0.00000000000000000 
1 0.00000000000000000 -15.00000000000000000 1.00000000000000000 0.00000000000000000 
1 -725.20041779586654229 808.52168968049181785 -1.00000000000000000 0.00000000000000000 
1 250.00000000000000000 0.00000000000000000 0.00000000000000000 -1.00000000000000000 
1 0.00000000000000000 0.00000000000000000 0.00000000000000000 -1.00000000000000000 
1 0.00000000000000000 0.00000000000000000 1.00000000000000000 0.00000000000000000 
1 0.00000000000000000 -15.00000000000000000 1.00000000000000000 0.00000000000000000 
1 -966.24896776803598186 808.52168968049181785 0.00000000000000000 -1.00000000000000000 
1 173.57351696406340125 0.00000000000000000 0.00000000000000000 -1.00000000000000000 
1 -966.24896776803598186 558.52168968049181785 1.00000000000000000 -0.00000000000000000 
1 0.00000000000000000 0.00000000000000000 1.00000000000000000 0.00000000000000000 
1 0.00000000000000000 -15.00000000000000000 1.00000000000000000 0.00000000000000000 
1 1393.17892155599020043 0.00000000000000000 0.00000000000000000 -1.00000000000000000 
1 -792.67545080397258062 558.52168968049181785 0.86420031252792595 -0.50314791048620600 
1 240.31563805814766965 0.00000000000000000 0.00000000000000000 -1.00000000000000000 
1 0.00000000000000000 0.00000000000000000 0.00000000000000000 -1.00000000000000000 
1 622.10239417381671956 -972.47831031950590841 -0.55582821424379880 0.83129717685707905 
1 0.00000000000000000 0.00000000000000000 1.00000000000000000 0.00000000000000000 
1 0.00000000000000000 -15.00000000000000000 1.00000000000000000 0.00000000000000000 
1 90.36297050157190824 0.00000000000000000 0.00000000000000000 -1.00000000000000000 
1 0.00000000000000000 0.00000000000000000 0.00000000000000000 -1.00000000000000000 
1 862.41803223196438921 -972.47831031950590841 -1.00000000000000000 0.00000000000000000 
1 0.00000000000000000 0.00000000000000000 1.00000000000000000 0.00000000000000000 
1 0.00000000000000000 -15.00000000000000000 1.00000000000000000 0.00000000000000000 
1 0.00000000000000000 0.00000000000000000 0.00000000000000000 -1.00000000000000000 
1 862.41803223196438921 -882.11533981793400017 0.00000000000000000 -1.00000000000000000 
1 0.00000000000000000 0.00000000000000000 1.00000000000000000 0.00000000000000000 
1 0.00000000000000000 -15.00000000000000000 1.00000000000000000 0.00000000000000000 
1 23.44745238377163332 372.64981355378495209 0.55582821424379902 -0.83129717685707893 
1 0.00000000000000000 0.00000000000000000 0.00000000000000000 -1.00000000000000000 
1 6.28318530717958623 0.00000000000000000 0.00000000000000000 -1.00000000000000000 
1 0.00000000000000000 0.00000000000000000 1.00000000000000000 0.00000000000000000 
1 0.00000000000000000 -15.00000000000000000 1.00000000000000000 0.00000000000000000 
2 645.55133223196389736 -845.15050102097598028 0.00000000000000000 1.00000000000000000 1.00000000000000000 -0.00000000000000000 5.00000000000000000
1 0.00000000000000000 0.00000000000000000 0.00000000000000000 -1.00000000000000000 
1 6.28318530717958623 0.00000000000000000 0.00000000000000000 -1.00000000000000000 
1 0.00000000000000000 0.00000000000000000 1.00000000000000000 0.00000000000000000 
1 0.00000000000000000 -15.00000000000000000 1.00000000000000000 0.00000000000000000 
2 645.55133223196389736 -693.15050102097575291 0.00000000000000000 1.00000000000000000 1.00000000000000000 -0.00000000000000000 5.00000000000000000
1 0.00000000000000000 0.00000000000000000 0.00000000000000000 -1.00000000000000000 
1 6.28318530717958623 0.00000000000000000 0.00000000000000000 -1.00000000000000000 
1 0.00000000000000000 0.00000000000000000 1.00000000000000000 0.00000000000000000 
1 0.00000000000000000 -15.00000000000000000 1.00000000000000000 0.00000000000000000 
2 281.81793223196382314 -149.15050102097552553 0.00000000000000000 1.00000000000000000 1.00000000000000000 -0.00000000000000000 5.00000000000000000
1 0.00000000000000000 0.00000000000000000 0.00000000000000000 -1.00000000000000000 
1 6.28318530717958623 0.00000000000000000 0.00000000000000000 -1.00000000000000000 
1 0.00000000000000000 0.00000000000000000 1.00000000000000000 0.00000000000000000 
1 0.00000000000000000 -15.00000000000000000 1.00000000000000000 0.00000000000000000 
2 281.81793223196382314 -301.15050102097575291 0.00000000000000000 1.00000000000000000 1.00000000000000000 -0.00000000000000000 5.00000000000000000
1 0.00000000000000000 0.00000000000000000 0.00000000000000000 -1.00000000000000000 
1 6.28318530717958623 0.00000000000000000 0.00000000000000000 -1.00000000000000000 
1 0.00000000000000000 0.00000000000000000 1.00000000000000000 0.00000000000000000 
1 0.00000000000000000 -15.00000000000000000 1.00000000000000000 0.00000000000000000 
2 463.68463223196431500 -573.15050102097575291 0.00000000000000000 1.00000000000000000 1.00000000000000000 -0.00000000000000000 5.00000000000000000
1 0.00000000000000000 0.00000000000000000 0.00000000000000000 -1.00000000000000000 
1 6.28318530717958623 0.00000000000000000 0.00000000000000000 -1.00000000000000000 
1 0.00000000000000000 0.00000000000000000 1.00000000000000000 0.00000000000000000 
1 0.00000000000000000 -15.00000000000000000 1.00000000000000000 0.00000000000000000 
2 463.68463223196431500 -421.15050102097575291 0.00000000000000000 1.00000000000000000 1.00000000000000000 -0.00000000000000000 5.00000000000000000
1 0.00000000000000000 0.00000000000000000 0.00000000000000000 -1.00000000000000000 
1 6.28318530717958623 0.00000000000000000 0.00000000000000000 -1.00000000000000000 
1 0.00000000000000000 0.00000000000000000 1.00000000000000000 0.00000000000000000 
1 0.00000000000000000 -15.00000000000000000 1.00000000000000000 0.00000000000000000 
2 99.95123223196424078 -29.15050102097552553 0.00000000000000000 1.00000000000000000 1.00000000000000000 -0.00000000000000000 5.00000000000000000
1 0.00000000000000000 0.00000000000000000 0.00000000000000000 -1.00000000000000000 
1 6.28318530717958623 0.00000000000000000 0.00000000000000000 -1.00000000000000000 
1 0.00000000000000000 0.00000000000000000 1.00000000000000000 0.00000000000000000 
1 0.00000000000000000 -15.00000000000000000 1.00000000000000000 0.00000000000000000 
2 99.95123223196424078 122.84949897902333760 0.00000000000000000 1.00000000000000000 1.00000000000000000 -0.00000000000000000 5.00000000000000000
1 0.00000000000000000 0.00000000000000000 0.00000000000000000 -1.00000000000000000 
1 6.28318530717958623 0.00000000000000000 0.00000000000000000 -1.00000000000000000 
1 0.00000000000000000 0.00000000000000000 1.00000000000000000 0.00000000000000000 
1 0.00000000000000000 -15.00000000000000000 1.00000000000000000 0.00000000000000000 
2 -81.91546776803579633 242.84949897902379234 0.00000000000000000 1.00000000000000000 1.00000000000000000 -0.00000000000000000 5.00000000000000000
1 0.00000000000000000 0.00000000000000000 0.00000000000000000 -1.00000000000000000 
1 6.28318530717958623 0.00000000000000000 0.00000000000000000 -1.00000000000000000 
1 0.00000000000000000 0.00000000000000000 1.00000000000000000 0.00000000000000000 
1 0.00000000000000000 -15.00000000000000000 1.00000000000000000 0.00000000000000000 
2 -81.91546776803579633 312.43168968048939860 0.00000000000000000 1.00000000000000000 1.00000000000000000 -0.00000000000000000 5.00000000000000000
1 0.00000000000000000 0.00000000000000000 0.00000000000000000 -1.00000000000000000 
1 6.28318530717958623 0.00000000000000000 0.00000000000000000 -1.00000000000000000 
1 0.00000000000000000 0.00000000000000000 1.00000000000000000 0.00000000000000000 
1 0.00000000000000000 -15.00000000000000000 1.00000000000000000 0.00000000000000000 
2 -263.78216776803583343 391.72007066762535032 0.00000000000000000 1.00000000000000000 1.00000000000000000 -0.00000000000000000 5.00000000000000000
1 0.00000000000000000 0.00000000000000000 0.00000000000000000 -1.00000000000000000 
1 6.28318530717958623 0.00000000000000000 0.00000000000000000 -1.00000000000000000 
1 0.00000000000000000 0.00000000000000000 1.00000000000000000 0.00000000000000000 
1 0.00000000000000000 -15.00000000000000000 1.00000000000000000 0.00000000000000000 
2 -263.78216776803583343 473.75168968049047180 0.00000000000000000 1.00000000000000000 1.00000000000000000 -0.00000000000000000 5.00000000000000000
1 0.00000000000000000 0.00000000000000000 0.00000000000000000 -1.00000000000000000 
1 6.28318530717958623 0.00000000000000000 0.00000000000000000 -1.00000000000000000 
1 0.00000000000000000 0.00000000000000000 1.00000000000000000 0.00000000000000000 
1 0.00000000000000000 -15.00000000000000000 1.00000000000000000 0.00000000000000000 
2 -445.64886776803587054 508.23932265181065304 0.00000000000000000 1.00000000000000000 1.00000000000000000 -0.00000000000000000 5.00000000000000000
1 0.00000000000000000 0.00000000000000000 0.00000000000000000 -1.00000000000000000 
1 6.28318530717958623 0.00000000000000000 0.00000000000000000 -1.00000000000000000 
1 0.00000000000000000 0.00000000000000000 1.00000000000000000 0.00000000000000000 
1 0.00000000000000000 -15.00000000000000000 1.00000000000000000 0.00000000000000000 
2 -445.64886776803587054 576.21168968049278192 0.00000000000000000 1.00000000000000000 1.00000000000000000 -0.00000000000000000 5.00000000000000000
1 0.00000000000000000 0.00000000000000000 0.00000000000000000 -1.00000000000000000 
1 6.28318530717958623 0.00000000000000000 0.00000000000000000 -1.00000000000000000 
1 0.00000000000000000 0.00000000000000000 1.00000000000000000 0.00000000000000000 
1 0.00000000000000000 -15.00000000000000000 1.00000000000000000 0.00000000000000000 
2 -627.51556776803590765 598.73600385021745751 0.00000000000000000 1.00000000000000000 1.00000000000000000 -0.00000000000000000 5.00000000000000000
1 0.00000000000000000 0.00000000000000000 0.00000000000000000 -1.00000000000000000 
1 6.28318530717958623 0.00000000000000000 0.00000000000000000 -1.00000000000000000 
1 0.00000000000000000 0.00000000000000000 1.00000000000000000 0.00000000000000000 
1 0.00000000000000000 -15.00000000000000000 1.00000000000000000 0.00000000000000000 
2 -627.51556776803590765 685.52168968049363684 0.00000000000000000 1.00000000000000000 1.00000000000000000 -0.00000000000000000 5.00000000000000000
1 0.00000000000000000 0.00000000000000000 0.00000000000000000 -1.00000000000000000 
1 6.28318530717958623 0.00000000000000000 0.00000000000000000 -1.00000000000000000 
1 0.00000000000000000 0.00000000000000000 1.00000000000000000 0.00000000000000000 
1 0.00000000000000000 -15.00000000000000000 1.00000000000000000 0.00000000000000000 
2 -809.38226776803594475 752.89999404033505925 0.00000000000000000 1.00000000000000000 1.00000000000000000 -0.00000000000000000 5.00000000000000000
Curves 52
1 2372.12812387329086050 4123.69642015180761518 0.00000000000000000 -0.00000000000000000 -0.00000000000000000 -1.00000000000000000 
1 2807.99999999999772626 3375.04854997216943957 0.00000000000000000 -0.00000000000000000 -0.00000000000000000 -1.00000000000000000 
1 2372.12812387329086050 4123.69642015180761518 0.00000000000000000 0.50314791048620611 -0.86420031252792595 0.00000000000000000 
1 2807.99999999999772626 3134.00000000000000000 0.00000000000000000 -0.00000000000000000 -0.00000000000000000 -1.00000000000000000 
1 2807.99999999999772626 3375.04854997216943957 0.00000000000000000 0.00000000000000000 -1.00000000000000000 0.00000000000000000 
1 2557.99999999999772626 3134.00000000000000000 0.00000000000000000 -0.00000000000000000 -0.00000000000000000 -1.00000000000000000 
1 2807.99999999999772626 3134.00000000000000000 0.00000000000000000 -1.00000000000000000 0.00000000000000000 0.00000000000000000 
1 2557.99999999999772626 3307.57351696406340125 0.00000000000000000 -0.00000000000000000 -0.00000000000000000 -1.00000000000000000 
1 2557.99999999999772626 3134.00000000000000000 0.00000000000000000 0.00000000000000000 1.00000000000000000 0.00000000000000000 
1 2185.14570434628467410 3947.98320985128520988 0.00000000000000000 -0.00000000000000000 -0.00000000000000000 -1.00000000000000000 
1 2557.99999999999772626 3307.57351696406340125 0.00000000000000000 -0.50314791048620600 0.86420031252792595 0.00000000000000000 
1 1027.00000000000000000 4722.35136194185270142 0.00000000000000000 -0.00000000000000000 -0.00000000000000000 -1.00000000000000000 
1 1027.00000000000000000 4722.35136194185270142 0.00000000000000000 0.83129717685707905 -0.55582821424379880 0.00000000000000000 
1 1027.00000000000000000 4962.66700000000037107 0.00000000000000000 -0.00000000000000000 -0.00000000000000000 -1.00000000000000000 
1 1027.00000000000000000 4962.66700000000037107 0.00000000000000000 0.00000000000000000 -1.00000000000000000 0.00000000000000000 
1 1117.36297050157190824 4962.66700000000037107 0.00000000000000000 -0.00000000000000000 -0.00000000000000000 -1.00000000000000000 
1 1117.36297050157190824 4962.66700000000037107 0.00000000000000000 -1.00000000000000000 0.00000000000000000 0.00000000000000000 
1 2372.12812387329086050 4123.69642015180761518 0.00000000000000000 -0.83129717685707893 0.55582821424379902 0.00000000000000000 
1 1159.32780929852992813 4745.80029999999987922 0.00000000000000000 -0.00000000000000000 -0.00000000000000000 -1.00000000000000000 
2 1154.32780929852992813 4745.80029999999987922 0.00000000000000000 0.00000000000000000 0.00000000000000000 1.00000000000000000 1.00000000000000000 0.00000000000000000 -0.00000000000000000 -0.00000000000000000 1.00000000000000000 0.00000000000000000 5.00000000000000000
1 1311.32780929853015550 4745.80029999999987922 0.00000000000000000 -0.00000000000000000 -0.00000000000000000 -1.00000000000000000 
2 1306.32780929853015550 4745.80029999999987922 0.00000000000000000 0.00000000000000000 0.00000000000000000 1.00000000000000000 1.00000000000000000 0.00000000000000000 -0.00000000000000000 -0.00000000000000000 1.00000000000000000 0.00000000000000000 5.00000000000000000
1 1855.32780929853038288 4382.06689999999980500 0.00000000000000000 -0.00000000000000000 -0.00000000000000000 -1.00000000000000000 
2 1850.32780929853038288 4382.06689999999980500 0.00000000000000000 0.00000000000000000 0.00000000000000000 1.00000000000000000 1.00000000000000000 0.00000000000000000 -0.00000000000000000 -0.00000000000000000 1.00000000000000000 0.00000000000000000 5.00000000000000000
1 1703.32780929853015550 4382.06689999999980500 0.00000000000000000 -0.00000000000000000 -0.00000000000000000 -1.00000000000000000 
2 1698.32780929853015550 4382.06689999999980500 0.00000000000000000 0.00000000000000000 0.00000000000000000 1.00000000000000000 1.00000000000000000 0.00000000000000000 -0.00000000000000000 -0.00000000000000000 1.00000000000000000 0.00000000000000000 5.00000000000000000
1 1431.32780929853015550 4563.93360000000029686 0.00000000000000000 -0.00000000000000000 -0.00000000000000000 -1.00000000000000000 
2 1426.32780929853015550 4563.93360000000029686 0.00000000000000000 0.00000000000000000 0.00000000000000000 1.00000000000000000 1.00000000000000000 0.00000000000000000 -0.00000000000000000 -0.00000000000000000 1.00000000000000000 0.00000000000000000 5.00000000000000000
1 1583.32780929853015550 4563.93360000000029686 0.00000000000000000 -0.00000000000000000 -0.00000000000000000 -1.00000000000000000 
2 1578.32780929853015550 4563.93360000000029686 0.00000000000000000 0.00000000000000000 0.00000000000000000 1.00000000000000000 1.00000000000000000 0.00000000000000000 -0.00000000000000000 -0.00000000000000000 1.00000000000000000 0.00000000000000000 5.00000000000000000
1 1975.32780929853038288 4200.20020000000022264 0.00000000000000000 -0.00000000000000000 -0.00000000000000000 -1.00000000000000000 
2 1970.32780929853038288 4200.20020000000022264 0.00000000000000000 0.00000000000000000 0.00000000000000000 1.00000000000000000 1.00000000000000000 0.00000000000000000 -0.00000000000000000 -0.00000000000000000 1.00000000000000000 0.00000000000000000 5.00000000000000000
1 2127.32780929852924601 4200.20020000000022264 0.00000000000000000 -0.00000000000000000 -0.00000000000000000 -1.00000000000000000 
2 2122.32780929852924601 4200.20020000000022264 0.00000000000000000 0.00000000000000000 0.00000000000000000 1.00000000000000000 1.00000000000000000 0.00000000000000000 -0.00000000000000000 -0.00000000000000000 1.00000000000000000 0.00000000000000000 5.00000000000000000
1 2247.32780929852970075 4018.33350000000018554 0.00000000000000000 -0.00000000000000000 -0.00000000000000000 -1.00000000000000000 
2 2242.32780929852970075 4018.33350000000018554 0.00000000000000000 0.00000000000000000 0.00000000000000000 1.00000000000000000 1.00000000000000000 0.00000000000000000 -0.00000000000000000 -0.00000000000000000 1.00000000000000000 0.00000000000000000 5.00000000000000000
1 2316.90999999999530701 4018.33350000000018554 0.00000000000000000 -0.00000000000000000 -0.00000000000000000 -1.00000000000000000 
2 2311.90999999999530701 4018.33350000000018554 0.00000000000000000 0.00000000000000000 0.00000000000000000 1.00000000000000000 1.00000000000000000 0.00000000000000000 -0.00000000000000000 -0.00000000000000000 1.00000000000000000 0.00000000000000000 5.00000000000000000
1 2396.19838098713125873 3836.46680000000014843 0.00000000000000000 -0.00000000000000000 -0.00000000000000000 -1.00000000000000000 
2 2391.19838098713125873 3836.46680000000014843 0.00000000000000000 0.00000000000000000 0.00000000000000000 1.00000000000000000 1.00000000000000000 0.00000000000000000 -0.00000000000000000 -0.00000000000000000 1.00000000000000000 0.00000000000000000 5.00000000000000000
1 2478.22999999999638021 3836.46680000000014843 0.00000000000000000 -0.00000000000000000 -0.00000000000000000 -1.00000000000000000 
2 2473.22999999999638021 3836.46680000000014843 0.00000000000000000 0.00000000000000000 0.00000000000000000 1.00000000000000000 1.00000000000000000 0.00000000000000000 -0.00000000000000000 -0.00000000000000000 1.00000000000000000 0.00000000000000000 5.00000000000000000
1 2512.71763297131656145 3654.60010000000011132 0.00000000000000000 -0.00000000000000000 -0.00000000000000000 -1.00000000000000000 
2 2507.71763297131656145 3654.60010000000011132 0.00000000000000000 0.00000000000000000 0.00000000000000000 1.00000000000000000 1.00000000000000000 0.00000000000000000 -0.00000000000000000 -0.00000000000000000 1.00000000000000000 0.00000000000000000 5.00000000000000000
1 2580.68999999999869033 3654.60010000000011132 0.00000000000000000 -0.00000000000000000 -0.00000000000000000 -1.00000000000000000 
2 2575.68999999999869033 3654.60010000000011132 0.00000000000000000 0.00000000000000000 0.00000000000000000 1.00000000000000000 1.00000000000000000 0.00000000000000000 -0.00000000000000000 -0.00000000000000000 1.00000000000000000 0.00000000000000000 5.00000000000000000
1 2603.21431416972336592 3472.73340000000007421 0.00000000000000000 -0.00000000000000000 -0.00000000000000000 -1.00000000000000000 
2 2598.21431416972336592 3472.73340000000007421 0.00000000000000000 0.00000000000000000 0.00000000000000000 1.00000000000000000 1.00000000000000000 0.00000000000000000 -0.00000000000000000 -0.00000000000000000 1.00000000000000000 0.00000000000000000 5.00000000000000000
1 2689.99999999999954525 3472.73340000000007421 0.00000000000000000 -0.00000000000000000 -0.00000000000000000 -1.00000000000000000 
2 2684.99999999999954525 3472.73340000000007421 0.00000000000000000 0.00000000000000000 0.00000000000000000 1.00000000000000000 1.00000000000000000 0.00000000000000000 -0.00000000000000000 -0.00000000000000000 1.00000000000000000 0.00000000000000000 5.00000000000000000
1 2757.37830435984096766 3290.86670000000003711 0.00000000000000000 -0.00000000000000000 -0.00000000000000000 -1.00000000000000000 
2 2752.37830435984096766 3290.86670000000003711 0.00000000000000000 0.00000000000000000 0.00000000000000000 1.00000000000000000 1.00000000000000000 0.00000000000000000 -0.00000000000000000 -0.00000000000000000 1.00000000000000000 0.00000000000000000 5.00000000000000000
Polygon3D 0
PolygonOnTriangulations 0
Surfaces 27
1 2372.12812387329086050 4123.69642015180761518 0.00000000000000000 -0.86420031252792595 -0.50314791048620611 0.00000000000000000 0.50314791048620611 -0.86420031252792595 0.00000000000000000 0.00000000000000000 0.00000000000000000 1.00000000000000000 
1 2807.99999999999772626 3375.04854997216943957 0.00000000000000000 -1.00000000000000000 0.00000000000000000 0.00000000000000000 0.00000000000000000 -1.00000000000000000 0.00000000000000000 0.00000000000000000 0.00000000000000000 1.00000000000000000 
1 1999.47831031950590841 -0.00000000000091044 4100.24896776803598186 0.00000000000000000 1.00000000000000000 0.00000000000000022 0.00000000000000000 -0.00000000000000022 1.00000000000000000 1.00000000000000000 0.00000000000000000 -0.00000000000000000 
1 2807.99999999999772626 3134.00000000000000000 0.00000000000000000 0.00000000000000000 1.00000000000000000 -0.00000000000000000 -1.00000000000000000 0.00000000000000000 0.00000000000000000 0.00000000000000000 0.00000000000000000 1.00000000000000000 
1 2557.99999999999772626 3134.00000000000000000 0.00000000000000000 1.00000000000000000 0.00000000000000000 0.00000000000000000 -0.00000000000000000 1.00000000000000000 0.00000000000000000 0.00000000000000000 -0.00000000000000000 1.00000000000000000 
1 2557.99999999999772626 3307.57351696406340125 0.00000000000000000 0.86420031252792595 0.50314791048620600 -0.00000000000000000 -0.50314791048620600 0.86420031252792595 0.00000000000000000 0.00000000000000000 0.00000000000000000 1.00000000000000000 
1 1027.00000000000000000 4722.35136194185270142 0.00000000000000000 -0.55582821424379880 -0.83129717685707905 0.00000000000000000 0.83129717685707905 -0.55582821424379880 0.00000000000000000 0.00000000000000000 0.00000000000000000 1.00000000000000000 
1 1027.00000000000000000 4962.66700000000037107 0.00000000000000000 -1.00000000000000000 0.00000000000000000 0.00000000000000000 0.00000000000000000 -1.00000000000000000 0.00000000000000000 0.00000000000000000 0.00000000000000000 1.00000000000000000 
1 1117.36297050157190824 4962.66700000000037107 0.00000000000000000 0.00000000000000000 1.00000000000000000 -0.00000000000000000 -1.00000000000000000 0.00000000000000000 0.00000000000000000 0.00000000000000000 0.00000000000000000 1.00000000000000000 
1 2372.12812387329086050 4123.69642015180761518 0.00000000000000000 0.55582821424379902 0.83129717685707893 -0.00000000000000000 -0.83129717685707893 0.55582821424379902 0.00000000000000000 0.00000000000000000 0.00000000000000000 1.00000000000000000 
2 1154.32780929852992813 4745.80029999999987922 0.00000000000000000 0.00000000000000000 0.00000000000000000 1.00000000000000000 1.00000000000000000 0.00000000000000000 -0.00000000000000000 -0.00000000000000000 1.00000000000000000 0.00000000000000000 5.00000000000000000
2 1306.32780929853015550 4745.80029999999987922 0.00000000000000000 0.00000000000000000 0.00000000000000000 1.00000000000000000 1.00000000000000000 0.00000000000000000 -0.00000000000000000 -0.00000000000000000 1.00000000000000000 0.00000000000000000 5.00000000000000000
2 1850.32780929853038288 4382.06689999999980500 0.00000000000000000 0.00000000000000000 0.00000000000000000 1.00000000000000000 1.00000000000000000 0.00000000000000000 -0.00000000000000000 -0.00000000000000000 1.00000000000000000 0.00000000000000000 5.00000000000000000
2 1698.32780929853015550 4382.06689999999980500 0.00000000000000000 0.00000000000000000 0.00000000000000000 1.00000000000000000 1.00000000000000000 0.00000000000000000 -0.00000000000000000 -0.00000000000000000 1.00000000000000000 0.00000000000000000 5.00000000000000000
2 1426.32780929853015550 4563.93360000000029686 0.00000000000000000 0.00000000000000000 0.00000000000000000 1.00000000000000000 1.00000000000000000 0.00000000000000000 -0.00000000000000000 -0.00000000000000000 1.00000000000000000 0.00000000000000000 5.00000000000000000
2 1578.32780929853015550 4563.93360000000029686 0.00000000000000000 0.00000000000000000 0.00000000000000000 1.00000000000000000 1.00000000000000000 0.00000000000000000 -0.00000000000000000 -0.00000000000000000 1.00000000000000000 0.00000000000000000 5.00000000000000000
2 1970.32780929853038288 4200.20020000000022264 0.00000000000000000 0.00000000000000000 0.00000000000000000 1.00000000000000000 1.00000000000000000 0.00000000000000000 -0.00000000000000000 -0.00000000000000000 1.00000000000000000 0.00000000000000000 5.00000000000000000
2 2122.32780929852924601 4200.20020000000022264 0.00000000000000000 0.00000000000000000 0.00000000000000000 1.00000000000000000 1.00000000000000000 0.00000000000000000 -0.00000000000000000 -0.00000000000000000 1.00000000000000000 0.00000000000000000 5.00000000000000000
2 2242.32780929852970075 4018.33350000000018554 0.00000000000000000 0.00000000000000000 0.00000000000000000 1.00000000000000000 1.00000000000000000 0.00000000000000000 -0.00000000000000000 -0.00000000000000000 1.00000000000000000 0.00000000000000000 5.00000000000000000
2 2311.90999999999530701 4018.33350000000018554 0.00000000000000000 0.00000000000000000 0.00000000000000000 1.00000000000000000 1.00000000000000000 0.00000000000000000 -0.00000000000000000 -0.00000000000000000 1.00000000000000000 0.00000000000000000 5.00000000000000000
2 2391.19838098713125873 3836.46680000000014843 0.00000000000000000 0.00000000000000000 0.00000000000000000 1.00000000000000000 1.00000000000000000 0.00000000000000000 -0.00000000000000000 -0.00000000000000000 1.00000000000000000 0.00000000000000000 5.00000000000000000
2 2473.22999999999638021 3836.46680000000014843 0.00000000000000000 0.00000000000000000 0.00000000000000000 1.00000000000000000 1.00000000000000000 0.00000000000000000 -0.00000000000000000 -0.00000000000000000 1.00000000000000000 0.00000000000000000 5.00000000000000000
2 2507.71763297131656145 3654.60010000000011132 0.00000000000000000 0.00000000000000000 0.00000000000000000 1.00000000000000000 1.00000000000000000 0.00000000000000000 -0.00000000000000000 -0.00000000000000000 1.00000000000000000 0.00000000000000000 5.00000000000000000
2 2575.68999999999869033 3654.60010000000011132 0.00000000000000000 0.00000000000000000 0.00000000000000000 1.00000000000000000 1.00000000000000000 0.00000000000000000 -0.00000000000000000 -0.00000000000000000 1.00000000000000000 0.00000000000000000 5.00000000000000000
2 2598.21431416972336592 3472.73340000000007421 0.00000000000000000 0.00000000000000000 0.00000000000000000 1.00000000000000000 1.00000000000000000 0.00000000000000000 -0.00000000000000000 -0.00000000000000000 1.00000000000000000 0.00000000000000000 5.00000000000000000
2 2684.99999999999954525 3472.73340000000007421 0.00000000000000000 0.00000000000000000 0.00000000000000000 1.00000000000000000 1.00000000000000000 0.00000000000000000 -0.00000000000000000 -0.00000000000000000 1.00000000000000000 0.00000000000000000 5.00000000000000000
2 2752.37830435984096766 3290.86670000000003711 0.00000000000000000 0.00000000000000000 0.00000000000000000 1.00000000000000000 1.00000000000000000 0.00000000000000000 -0.00000000000000000 -0.00000000000000000 1.00000000000000000 0.00000000000000000 5.00000000000000000
Triangulations 0

TShapes 151
Ve
0.000000100000000
2372.128123873290861 4123.696420151807615 0.000000000000000
0 0

0101101
*
Ed
 0.000000100000000 1 1 0
1  1 0 0.000000000000000 15.000000000000000
0

0101000
+151 5 -151 7 *
Ve
0.000000100000000
2807.999999999997726 3375.048549972169440 0.000000000000000
0 0

0101101
*
Ed
 0.000000100000000 1 1 0
1  2 0 0.000000000000000 15.000000000000000
2  1 2 0 0.000000000000000 15.000000000000000
0

0101000
+149 5 -149 7 *
Ed
 0.000000100000000 1 1 0
1  3 0 0.000000000000000 866.289747095464350
2  2 3 8 0.000000000000000 866.289747095464350
0

0101000
+151 0 -149 0 *
Wi

0101100
+150 0 -148 0 -147 5 +147 7 *
Fa
0  0.000000100000000 1 0

0111000
+146 0 *
Ve
0.000000100000000
2807.999999999997726 3134.000000000000000 0.000000000000000
0 0

0101101
*
Ed
 0.000000100000000 1 1 0
1  4 0 0.000000000000000 15.000000000000000
2  3 2 0 0.000000000000000 15.000000000000000
2  4 4 0 0.000000000000000 15.000000000000000
0

0101000
+144 5 -144 7 *
Ed
 0.000000100000000 1 1 0
1  5 0 0.000000000000000 241.048549972169440
2  5 2 9 0.000000000000000 241.048549972169440
2  6 2 10 0.000000000000000 241.048549972169440
2  7 3 8 0.000000000000000 241.048549972169440
0

0101000
+149 0 -144 0 *
Wi

0101100
+148 0 -143 0 -142 5 +142 7 *
Fa
0  0.000000100000000 2 0

0111000
+141 0 *
Ve
0.000000100000000
2557.999999999997726 3134.000000000000000 0.000000000000000
0 0

0101101
*
Ed
 0.000000100000000 1 1 0
1  6 0 0.000000000000000 15.000000000000000
2  8 4 0 0.000000000000000 15.000000000000000
2  9 5 0 0.000000000000000 15.000000000000000
0

0101000
+139 5 -139 7 *
Ed
 0.000000100000000 1 1 0
1  7 0 0.000000000000000 250.000000000000000
2  10 4 9 0.000000000000000 250.000000000000000
2  11 4 10 0.000000000000000 250.000000000000000
2  12 3 8 0.000000000000000 250.000000000000000
0

0101000
+144 0 -139 0 *
Wi

0101100
+143 0 -138 0 -137 5 +137 7 *
Fa
0  0.000000100000000 4 0

0111000
+136 0 *
Ve
0.000000100000000
2557.999999999997726 3307.573516964063401 0.000000000000000
0 0

0101101
*
Ed
 0.000000100000000 1 1 0
1  8 0 0.000000000000000 15.000000000000000
2  13 5 0 0.000000000000000 15.000000000000000
0

0101000
+134 5 -134 7 *
Ed
 0.000000100000000 1 1 0
1  9 0 0.000000000000000 173.573516964063401
2  14 3 8 0.000000000000000 173.573516964063401
2  15 5 9 0.000000000000000 173.573516964063401
2  16 5 10 0.000000000000000 173.573516964063401
0

0101000
+139 0 -134 0 *
Wi

0101100
+138 0 -133 0 -132 5 +132 7 *
Fa
0  0.000000100000000 5 0

0111000
+131 0 *
Ve
0.000000100000000
2185.145704346284674 3947.983209851285210 0.000000000000000
0 0

0101101
*
Ed
 0.000000100000000 1 1 0
1  10 0 0.000000000000000 15.000000000000000
2  17 7 0 0.000000000000000 15.000000000000000
0

0101000
+129 5 -129 7 *
Ed
 0.000000100000000 1 1 0
1  11 0 0.000000000000000 741.043116513021914
2  18 3 8 0.000000000000000 741.043116513021914
0

0101000
+134 0 -129 0 *
Wi

0101100
+133 0 -128 0 -127 5 +127 7 *
Fa
0  0.000000100000000 6 0

0111000
+126 0 *
Ve
0.000000100001364
1027.000000000000000 4722.351361941852701 0.000000000000000
0 0

0101101
*
Ed
 0.000000100000000 1 1 0
1  12 0 0.000000000000000 15.000000000000000
2  19 8 0 0.000000000000000 15.000000000000000
2  20 7 0 0.000000000000000 15.000000000000000
0

0101000
+124 5 -124 7 *
Ed
 0.000000100000000 1 1 0
1  13 0 0.000000000000000 1393.178921555990200
2  21 3 8 0.000000000000000 1393.178921555990200
2  22 7 9 0.000000000000000 1393.178921555990200
2  23 7 10 0.000000000000000 1393.178921555990200
0

0101000
+124 0 -129 0 *
Wi

0101100
+123 0 -128 0 -122 5 +122 7 *
Fa
0  0.000000100000000 7 0

0111000
+121 0 *
Ve
0.000000100001456
1027.000000000000000 4962.667000000000371 0.000000000000000
0 0

0101101
*
Ed
 0.000000100000000 1 1 0
1  14 0 0.000000000000000 15.000000000000000
2  24 9 0 0.000000000000000 15.000000000000000
2  25 8 0 0.000000000000000 15.000000000000000
0

0101000
+119 5 -119 7 *
Ed
 0.000000100000000 1 1 0
1  15 0 0.000000000000000 240.315638058147670
2  26 3 8 0.000000000000000 240.315638058147670
2  27 8 9 0.000000000000000 240.315638058147670
2  28 8 10 0.000000000000000 240.315638058147670
0

0101000
+119 0 -124 0 *
Wi

0101100
+118 0 -123 0 -117 5 +117 7 *
Fa
0  0.000000100000000 8 0

0111000
+116 0 *
Ve
0.000000100000000
1117.362970501571908 4962.667000000000371 0.000000000000000
0 0

0101101
*
Ed
 0.000000100000000 1 1 0
1  16 0 0.000000000000000 15.000000000000000
2  29 9 0 0.000000000000000 15.000000000000000
0

0101000
+114 5 -114 7 *
Ed
 0.000000100000000 1 1 0
1  17 0 0.000000000000000 90.362970501571908
2  30 3 8 0.000000000000000 90.362970501571908
2  31 9 9 0.000000000000000 90.362970501571908
2  32 9 10 0.000000000000000 90.362970501571908
0

0101000
+114 0 -119 0 *
Wi

0101100
+113 0 -118 0 -112 5 +112 7 *
Fa
0  0.000000100000000 9 0

0111000
+111 0 *
Ed
 0.000000100000000 1 1 0
1  18 0 0.000000000000000 1509.406248816655079
2  33 3 8 0.000000000000000 1509.406248816655079
0

0101000
+151 0 -114 0 *
Wi

0101100
+150 0 -113 0 -109 5 +109 7 *
Fa
0  0.000000100000000 10 0

0111000
+108 0 *
Ve
0.000000100000000
1159.327809298529928 4745.800299999999879 0.000000000000000
0 0

0101101
*
Ed
 0.000000100000000 1 1 0
1  19 0 0.000000000000000 15.000000000000000
3  34 35CN 11 0 0.000000000000000 15.000000000000000
0

0101000
+106 5 -106 7 *
Ed
 0.000000100000000 1 1 0
1  20 0 0.000000000000000 6.283185307179586
2  36 11 9 0.000000000000000 6.283185307179586
2  37 11 10 0.000000000000000 6.283185307179586
2  38 3 8 0.000000000000000 6.283185307179586
0

0101000
+106 0 -106 0 *
Wi

0101100
+105 0 -105 0 -104 5 +104 7 *
Fa
0  0.000000100000000 11 0

0111000
+103 0 *
Ve
0.000000100000000
1311.327809298530156 4745.800299999999879 0.000000000000000
0 0

0101101
*
Ed
 0.000000100000000 1 1 0
1  21 0 0.000000000000000 15.000000000000000
3  39 40CN 12 0 0.000000000000000 15.000000000000000
0

0101000
+101 5 -101 7 *
Ed
 0.000000100000000 1 1 0
1  22 0 0.000000000000000 6.283185307179586
2  41 12 9 0.000000000000000 6.283185307179586
2  42 12 10 0.000000000000000 6.283185307179586
2  43 3 8 0.000000000000000 6.283185307179586
0

0101000
+101 0 -101 0 *
Wi

0101100
+100 0 -100 0 -99 5 +99 7 *
Fa
0  0.000000100000000 12 0

0111000
+98 0 *
Ve
0.000000100000000
1855.327809298530383 4382.066899999999805 0.000000000000000
0 0

0101101
*
Ed
 0.000000100000000 1 1 0
1  23 0 0.000000000000000 15.000000000000000
3  44 45CN 13 0 0.000000000000000 15.000000000000000
0

0101000
+96 5 -96 7 *
Ed
 0.000000100000000 1 1 0
1  24 0 0.000000000000000 6.283185307179586
2  46 13 9 0.000000000000000 6.283185307179586
2  47 13 10 0.000000000000000 6.283185307179586
2  48 3 8 0.000000000000000 6.283185307179586
0

0101000
+96 0 -96 0 *
Wi

0101100
+95 0 -95 0 -94 5 +94 7 *
Fa
0  0.000000100000000 13 0

0111000
+93 0 *
Ve
0.000000100000000
1703.327809298530156 4382.066899999999805 0.000000000000000
0 0

0101101
*
Ed
 0.000000100000000 1 1 0
1  25 0 0.000000000000000 15.000000000000000
3  49 50CN 14 0 0.000000000000000 15.000000000000000
0

0101000
+91 5 -91 7 *
Ed
 0.000000100000000 1 1 0
1  26 0 0.000000000000000 6.283185307179586
2  51 14 9 0.000000000000000 6.283185307179586
2  52 14 10 0.000000000000000 6.283185307179586
2  53 3 8 0.000000000000000 6.283185307179586
0

0101000
+91 0 -91 0 *
Wi

0101100
+90 0 -90 0 -89 5 +89 7 *
Fa
0  0.000000100000000 14 0

0111000
+88 0 *
Ve
0.000000100000000
1431.327809298530156 4563.933600000000297 0.000000000000000
0 0

0101101
*
Ed
 0.000000100000000 1 1 0
1  27 0 0.000000000000000 15.000000000000000
3  54 55CN 15 0 0.000000000000000 15.000000000000000
0

0101000
+86 5 -86 7 *
Ed
 0.000000100000000 1 1 0
1  28 0 0.000000000000000 6.283185307179586
2  56 15 9 0.000000000000000 6.283185307179586
2  57 15 10 0.000000000000000 6.283185307179586
2  58 3 8 0.000000000000000 6.283185307179586
0

0101000
+86 0 -86 0 *
Wi

0101100
+85 0 -85 0 -84 5 +84 7 *
Fa
0  0.000000100000000 15 0

0111000
+83 0 *
Ve
0.000000100000000
1583.327809298530156 4563.933600000000297 0.000000000000000
0 0

0101101
*
Ed
 0.000000100000000 1 1 0
1  29 0 0.000000000000000 15.000000000000000
3  59 60CN 16 0 0.000000000000000 15.000000000000000
0

0101000
+81 5 -81 7 *
Ed
 0.000000100000000 1 1 0
1  30 0 0.000000000000000 6.283185307179586
2  61 16 9 0.000000000000000 6.283185307179586
2  62 16 10 0.000000000000000 6.283185307179586
2  63 3 8 0.000000000000000 6.283185307179586
0

0101000
+81 0 -81 0 *
Wi

0101100
+80 0 -80 0 -79 5 +79 7 *
Fa
0  0.000000100000000 16 0

0111000
+78 0 *
Ve
0.000000100000000
1975.327809298530383 4200.200200000000223 0.000000000000000
0 0

0101101
*
Ed
 0.000000100000000 1 1 0
1  31 0 0.000000000000000 15.000000000000000
3  64 65CN 17 0 0.000000000000000 15.000000000000000
0

0101000
+76 5 -76 7 *
Ed
 0.000000100000000 1 1 0
1  32 0 0.000000000000000 6.283185307179586
2  66 17 9 0.000000000000000 6.283185307179586
2  67 17 10 0.000000000000000 6.283185307179586
2  68 3 8 0.000000000000000 6.283185307179586
0

0101000
+76 0 -76 0 *
Wi

0101100
+75 0 -75 0 -74 5 +74 7 *
Fa
0  0.000000100000000 17 0

0111000
+73 0 *
Ve
0.000000100000000
2127.327809298529246 4200.200200000000223 0.000000000000000
0 0

0101101
*
Ed
 0.000000100000000 1 1 0
1  33 0 0.000000000000000 15.000000000000000
3  69 70CN 18 0 0.000000000000000 15.000000000000000
0

0101000
+71 5 -71 7 *
Ed
 0.000000100000000 1 1 0
1  34 0 0.000000000000000 6.283185307179586
2  71 18 9 0.000000000000000 6.283185307179586
2  72 18 10 0.000000000000000 6.283185307179586
2  73 3 8 0.000000000000000 6.283185307179586
0

0101000
+71 0 -71 0 *
Wi

0101100
+70 0 -70 0 -69 5 +69 7 *
Fa
0  0.000000100000000 18 0

0111000
+68 0 *
Ve
0.000000100000000
2247.327809298529701 4018.333500000000186 0.000000000000000
0 0

0101101
*
Ed
 0.000000100000000 1 1 0
1  35 0 0.000000000000000 15.000000000000000
3  74 75CN 19 0 0.000000000000000 15.000000000000000
0

0101000
+66 5 -66 7 *
Ed
 0.000000100000000 1 1 0
1  36 0 0.000000000000000 6.283185307179586
2  76 19 9 0.000000000000000 6.283185307179586
2  77 19 10 0.000000000000000 6.283185307179586
2  78 3 8 0.000000000000000 6.283185307179586
0

0101000
+66 0 -66 0 *
Wi

0101100
+65 0 -65 0 -64 5 +64 7 *
Fa
0  0.000000100000000 19 0

0111000
+63 0 *
Ve
0.000000100000000
2316.909999999995307 4018.333500000000186 0.000000000000000
0 0

0101101
*
Ed
 0.000000100000000 1 1 0
1  37 0 0.000000000000000 15.000000000000000
3  79 80CN 20 0 0.000000000000000 15.000000000000000
0

0101000
+61 5 -61 7 *
Ed
 0.000000100000000 1 1 0
1  38 0 0.000000000000000 6.283185307179586
2  81 20 9 0.000000000000000 6.283185307179586
2  82 20 10 0.000000000000000 6.283185307179586
2  83 3 8 0.000000000000000 6.283185307179586
0

0101000
+61 0 -61 0 *
Wi

0101100
+60 0 -60 0 -59 5 +59 7 *
Fa
0  0.000000100000000 20 0

0111000
+58 0 *
Ve
0.000000100000000
2396.198380987131259 3836.466800000000148 0.000000000000000
0 0

0101101
*
Ed
 0.000000100000000 1 1 0
1  39 0 0.000000000000000 15.000000000000000
3  84 85CN 21 0 0.000000000000000 15.000000000000000
0

0101000
+56 5 -56 7 *
Ed
 0.000000100000000 1 1 0
1  40 0 0.000000000000000 6.283185307179586
2  86 21 9 0.000000000000000 6.283185307179586
2  87 21 10 0.000000000000000 6.283185307179586
2  88 3 8 0.000000000000000 6.283185307179586
0

0101000
+56 0 -56 0 *
Wi

0101100
+55 0 -55 0 -54 5 +54 7 *
Fa
0  0.000000100000000 21 0

0111000
+53 0 *
Ve
0.000000100000000
2478.229999999996380 3836.466800000000148 0.000000000000000
0 0

0101101
*
Ed
 0.000000100000000 1 1 0
1  41 0 0.000000000000000 15.000000000000000
3  89 90CN 22 0 0.000000000000000 15.000000000000000
0

0101000
+51 5 -51 7 *
Ed
 0.000000100000000 1 1 0
1  42 0 0.000000000000000 6.283185307179586
2  91 22 9 0.000000000000000 6.283185307179586
2  92 22 10 0.000000000000000 6.283185307179586
2  93 3 8 0.000000000000000 6.283185307179586
0

0101000
+51 0 -51 0 *
Wi

0101100
+50 0 -50 0 -49 5 +49 7 *
Fa
0  0.000000100000000 22 0

0111000
+48 0 *
Ve
0.000000100000000
2512.717632971316561 3654.600100000000111 0.000000000000000
0 0

0101101
*
Ed
 0.000000100000000 1 1 0
1  43 0 0.000000000000000 15.000000000000000
3  94 95CN 23 0 0.000000000000000 15.000000000000000
0

0101000
+46 5 -46 7 *
Ed
 0.000000100000000 1 1 0
1  44 0 0.000000000000000 6.283185307179586
2  96 23 9 0.000000000000000 6.283185307179586
2  97 23 10 0.000000000000000 6.283185307179586
2  98 3 8 0.000000000000000 6.283185307179586
0

0101000
+46 0 -46 0 *
Wi

0101100
+45 0 -45 0 -44 5 +44 7 *
Fa
0  0.000000100000000 23 0

0111000
+43 0 *
Ve
0.000000100000000
2580.689999999998690 3654.600100000000111 0.000000000000000
0 0

0101101
*
Ed
 0.000000100000000 1 1 0
1  45 0 0.000000000000000 15.000000000000000
3  99 100CN 24 0 0.000000000000000 15.000000000000000
0

0101000
+41 5 -41 7 *
Ed
 0.000000100000000 1 1 0
1  46 0 0.000000000000000 6.283185307179586
2  101 24 9 0.000000000000000 6.283185307179586
2  102 24 10 0.000000000000000 6.283185307179586
2  103 3 8 0.000000000000000 6.283185307179586
0

0101000
+41 0 -41 0 *
Wi

0101100
+40 0 -40 0 -39 5 +39 7 *
Fa
0  0.000000100000000 24 0

0111000
+38 0 *
Ve
0.000000100000000
2603.214314169723366 3472.733400000000074 0.000000000000000
0 0

0101101
*
Ed
 0.000000100000000 1 1 0
1  47 0 0.000000000000000 15.000000000000000
3  104 105CN 25 0 0.000000000000000 15.000000000000000
0

0101000
+36 5 -36 7 *
Ed
 0.000000100000000 1 1 0
1  48 0 0.000000000000000 6.283185307179586
2  106 25 9 0.000000000000000 6.283185307179586
2  107 25 10 0.000000000000000 6.283185307179586
2  108 3 8 0.000000000000000 6.283185307179586
0

0101000
+36 0 -36 0 *
Wi

0101100
+35 0 -35 0 -34 5 +34 7 *
Fa
0  0.000000100000000 25 0

0111000
+33 0 *
Ve
0.000000100000000
2689.999999999999545 3472.733400000000074 0.000000000000000
0 0

0101101
*
Ed
 0.000000100000000 1 1 0
1  49 0 0.000000000000000 15.000000000000000
3  109 110CN 26 0 0.000000000000000 15.000000000000000
0

0101000
+31 5 -31 7 *
Ed
 0.000000100000000 1 1 0
1  50 0 0.000000000000000 6.283185307179586
2  111 26 9 0.000000000000000 6.283185307179586
2  112 26 10 0.000000000000000 6.283185307179586
2  113 3 8 0.000000000000000 6.283185307179586
0

0101000
+31 0 -31 0 *
Wi

0101100
+30 0 -30 0 -29 5 +29 7 *
Fa
0  0.000000100000000 26 0

0111000
+28 0 *
Ve
0.000000100000000
2757.378304359840968 3290.866700000000037 0.000000000000000
0 0

0101101
*
Ed
 0.000000100000000 1 1 0
1  51 0 0.000000000000000 15.000000000000000
3  114 115CN 27 0 0.000000000000000 15.000000000000000
0

0101000
+26 5 -26 7 *
Ed
 0.000000100000000 1 1 0
1  52 0 0.000000000000000 6.283185307179586
2  116 27 9 0.000000000000000 6.283185307179586
2  117 27 10 0.000000000000000 6.283185307179586
2  118 3 8 0.000000000000000 6.283185307179586
0

0101000
+26 0 -26 0 *
Wi

0101100
+25 0 -25 0 -24 5 +24 7 *
Fa
0  0.000000100000000 27 0

0111000
+23 0 *
Wi

0101100
+147 12 +142 12 +137 12 +132 12 +127 12 -122 12 -117 12 -112 12 -109 12 *
Wi

0101100
+104 12 *
Wi

0101100
+99 12 *
Wi

0101100
+94 12 *
Wi

0101100
+89 12 *
Wi

0101100
+84 12 *
Wi

0101100
+79 12 *
Wi

0101100
+74 12 *
Wi

0101100
+69 12 *
Wi

0101100
+64 12 *
Wi

0101100
+59 12 *
Wi

0101100
+54 12 *
Wi

0101100
+49 12 *
Wi

0101100
+44 12 *
Wi

0101100
+39 12 *
Wi

0101100
+34 12 *
Wi

0101100
+29 12 *
Wi

0101100
+24 12 *
Fa
0  0.000000100000000 3 0

0111000
+21 0 +20 0 +19 0 +18 0 +17 0 +16 0 +15 0 +14 0 +13 0 +12 0 
+11 0 +10 0 +9 0 +8 0 +7 0 +6 0 +5 0 +4 0 *
Sh

0101100
+145 0 +140 0 +135 0 +130 0 +125 0 -120 0 -115 0 -110 0 -107 0 +102 0 
+97 0 +92 0 +87 0 +82 0 +77 0 +72 0 +67 0 +62 0 +57 0 +52 0 
+47 0 +42 0 +37 0 +32 0 +27 0 +22 0 +3 11 -3 13 *
So

1100000
-2 0 *

+1 1 