
CASCADE Topology V1, (c) Matra-Datavision
Locations 17
1
1.000000000000000 0.000000000000000 0.000000000000000 0.000000000000000 
0.000000000000000 -0.000000000000000 -1.000000000000000 0.000000000000000 
0.000000000000000 1.000000000000000 -0.000000000000000 0.000000000000000 
1
1.000000000000000 0.000000000000000 0.000000000000000 0.000000000000000 
0.000000000000000 -0.000000000000000 -1.000000000000000 0.000000000000000 
0.000000000000000 1.000000000000000 -0.000000000000000 0.000000000000000 
1
1.000000000000000 0.000000000000000 0.000000000000000 0.000000000000000 
0.000000000000000 -0.000000000000000 -1.000000000000000 0.000000000000000 
0.000000000000000 1.000000000000000 -0.000000000000000 0.000000000000000 
2  1 -1 2 1 3 -1 0
1
1.000000000000000 0.000000000000000 0.000000000000000 0.000000000000000 
0.000000000000000 1.000000000000000 0.000000000000000 0.000000000000000 
0.000000000000000 0.000000000000000 1.000000000000000 0.000000000000000 
1
0.000000000000000 0.000000000000000 -1.000000000000000 27.000000000000000 
0.000000000000000 -1.000000000000000 0.000000000000000 0.000000000000000 
-1.000000000000000 0.000000000000000 0.000000000000000 0.000000000000000 
2  5 1 6 1 3 -1 0
1
1.000000000000000 0.000000000000000 0.000000000000000 15.000000000000000 
0.000000000000000 1.000000000000000 0.000000000000000 0.000000000000003 
0.000000000000000 0.000000000000000 1.000000000000000 -0.000000000000000 
2  5 1 6 1 3 -1 8 1 0
2  3 1 6 -1 5 -1 0
2  8 -1 3 1 6 -1 5 -1 0
2  6 -1 5 -1 0
2  1 -1 2 1 6 -1 5 -1 0
2  1 -1 2 1 3 -1 8 -1 3 1 6 -1 5 -1 0
2  3 -1 0
2  5 1 6 1 0
2  3 -1 8 1 0
Curve2ds 30
1 0.00000000000000000 0.00000000000000000 -0.00000000000000000 -1.00000000000000000 
1 80.00000000000000000 0.00000000000000000 0.00000000000000000 -1.00000000000000000 
1 1054.63807256897302977 -2387.08019550063818315 0.00000000000000022 1.00000000000000000 
1 140.00000000000000000 0.00000000000000266 -0.00000000000000000 -1.00000000000000000 
1 -0.00000000000000000 0.00000000000000000 -0.00000000000000000 -1.00000000000000000 
1 914.63807256897302977 -2387.08019550063818315 0.00000000000000022 1.00000000000000000 
1 0.00000000000000000 0.00000000000000000 1.00000000000000000 0.00000000000000000 
1 0.00000000000000333 -15.00000000000000000 1.00000000000000000 0.00000000000000000 
1 70.00000000000000000 40.00000000000000711 -1.00000000000000000 -0.00000000000000022 
1 1054.63807256897302977 -2387.08019550063818315 -1.00000000000000000 0.00000000000000022 
1 1054.63807256897302977 -2372.08019550063818315 -1.00000000000000000 0.00000000000000022 
1 80.00000000000000000 -0.00000000000000000 -0.00000000000000000 -1.00000000000000000 
1 -0.00000000000000000 0.00000000000000000 1.00000000000000000 0.00000000000000000 
1 0.00000000000000000 -15.00000000000000000 1.00000000000000000 0.00000000000000000 
1 -70.00000000000000000 39.99999999999997868 0.00000000000000022 -1.00000000000000000 
1 0.00000000000000000 0.00000000000000000 0.00000000000000000 -1.00000000000000000 
1 -70.00000000000000000 -40.00000000000002132 1.00000000000000000 0.00000000000000022 
1 0.00000000000000000 0.00000000000000000 1.00000000000000000 0.00000000000000000 
1 0.00000000000000000 -15.00000000000000000 1.00000000000000000 0.00000000000000000 
1 70.00000000000000000 -39.99999999999999289 -0.00000000000000022 1.00000000000000000 
1 0.00000000000000000 0.00000000000000000 0.00000000000000000 -1.00000000000000000 
1 6.28318530717958623 0.00000000000000000 0.00000000000000000 -1.00000000000000000 
1 0.00000000000000000 0.00000000000000000 1.00000000000000000 0.00000000000000000 
1 0.00000000000000000 -15.00000000000000000 1.00000000000000000 0.00000000000000000 
2 30.00000000000000000 0.00000000000000000 -1.00000000000000000 -0.00000000000000022 -0.00000000000000022 1.00000000000000000 5.00000000000000000
1 0.00000000000000000 0.00000000000000000 0.00000000000000000 -1.00000000000000000 
1 6.28318530717958623 0.00000000000000000 0.00000000000000000 -1.00000000000000000 
1 0.00000000000000000 0.00000000000000000 1.00000000000000000 0.00000000000000000 
1 0.00000000000000000 -15.00000000000000000 1.00000000000000000 0.00000000000000000 
2 -30.00000000000000000 -0.00000000000001421 -1.00000000000000000 -0.00000000000000022 -0.00000000000000022 1.00000000000000000 5.00000000000000000
Curves 12
1 26.99999999999940314 2692.50000000000000000 -0.00000000000000000 1.00000000000000000 0.00000000000000022 -0.00000000000000000 
1 26.99999999999943157 2552.50000000000000000 -0.00000000000000000 1.00000000000000000 0.00000000000000022 -0.00000000000000000 
1 -2692.50000000000000000 0.00000000000000000 0.00000000000000000 1.00000000000000000 0.00000000000000000 0.00000000000000000 
1 26.99999999999943157 2552.50000000000000000 -80.00000000000000000 1.00000000000000000 0.00000000000000022 -0.00000000000000000 
1 -2552.50000000000000000 0.00000000000000000 0.00000000000000000 0.00000000000000000 -1.00000000000000000 0.00000000000000000 
1 26.99999999999940314 2692.50000000000000000 -80.00000000000000000 1.00000000000000000 0.00000000000000022 -0.00000000000000000 
1 -2552.50000000000000000 -80.00000000000000000 0.00000000000000000 -1.00000000000000000 0.00000000000000000 0.00000000000000000 
1 -2692.50000000000000000 -80.00000000000000000 0.00000000000000000 0.00000000000000000 1.00000000000000000 0.00000000000000000 
1 26.99999999999941380 2647.50000000000000000 -40.00000000000000000 1.00000000000000000 0.00000000000000022 -0.00000000000000000 
2 -2652.50000000000000000 -40.00000000000000000 0.00000000000000000 0.00000000000000000 0.00000000000000000 1.00000000000000000 1.00000000000000000 0.00000000000000000 -0.00000000000000000 -0.00000000000000000 1.00000000000000000 0.00000000000000000 5.00000000000000000
1 26.99999999999942446 2587.50000000000000000 -40.00000000000000000 1.00000000000000000 0.00000000000000022 -0.00000000000000000 
2 -2592.50000000000000000 -40.00000000000000000 0.00000000000000000 0.00000000000000000 0.00000000000000000 1.00000000000000000 1.00000000000000000 0.00000000000000000 -0.00000000000000000 -0.00000000000000000 1.00000000000000000 0.00000000000000000 5.00000000000000000
Polygon3D 0
PolygonOnTriangulations 0
Surfaces 8
1 26.99999999999940314 2692.50000000000000000 -0.00000000000000000 -0.00000000000000000 -0.00000000000000000 -1.00000000000000000 0.00000000000000022 -1.00000000000000000 0.00000000000000000 -1.00000000000000000 -0.00000000000000022 0.00000000000000000 
1 26.99999999999940314 2692.50000000000000000 -80.00000000000000000 0.00000000000000022 -1.00000000000000000 0.00000000000000000 0.00000000000000000 0.00000000000000000 1.00000000000000000 -1.00000000000000000 -0.00000000000000022 0.00000000000000000 
1 2414.08019550063772840 -0.00000000000036368 1637.86192743102697023 -0.00000000000000000 1.00000000000000000 0.00000000000000022 0.00000000000000000 -0.00000000000000022 1.00000000000000000 1.00000000000000000 0.00000000000000000 0.00000000000000000 
1 26.99999999999943157 2552.50000000000000000 -0.00000000000000000 -0.00000000000000022 1.00000000000000000 -0.00000000000000000 0.00000000000000000 0.00000000000000000 -1.00000000000000000 -1.00000000000000000 -0.00000000000000022 -0.00000000000000000 
1 26.99999999999941735 39.99999999999941025 2622.50000000000000000 1.00000000000000000 -0.00000000000000000 0.00000000000000020 -0.00000000000000020 0.00000000000000000 1.00000000000000000 -0.00000000000000000 -1.00000000000000000 0.00000000000000000 
1 26.99999999999943157 2552.50000000000000000 -80.00000000000000000 0.00000000000000000 0.00000000000000000 1.00000000000000000 -0.00000000000000022 1.00000000000000000 0.00000000000000000 -1.00000000000000000 -0.00000000000000022 0.00000000000000000 
2 26.99999999999941025 2652.50000000000000000 -40.00000000000000000 -1.00000000000000000 -0.00000000000000022 0.00000000000000000 0.00000000000000022 -1.00000000000000000 0.00000000000000000 0.00000000000000000 0.00000000000000000 1.00000000000000000 5.00000000000000000
2 26.99999999999942446 2592.50000000000000000 -40.00000000000000000 -1.00000000000000000 -0.00000000000000022 0.00000000000000000 0.00000000000000022 -1.00000000000000000 0.00000000000000000 0.00000000000000000 0.00000000000000000 1.00000000000000000 5.00000000000000000
Triangulations 0

TShapes 36
Ve
0.000000100000597
-2692.500000000000000 0.000000000000000 0.000000000000000
0 0

0101101
*
Ed
 0.000000100000000 1 1 0
1  1 0 0.000000000000000 15.000000000000000
2  1 1 0 0.000000000000000 15.000000000000000
2  2 2 0 0.000000000000000 15.000000000000000
2  3 3 4 0.000000000000000 15.000000000000000
0

0101000
+36 7 -36 9 *
Ve
0.000000100000593
-2552.500000000000000 0.000000000000000 0.000000000000000
0 0

0101101
*
Ed
 0.000000100000000 1 1 0
1  2 0 0.000000000000000 15.000000000000000
2  4 1 0 0.000000000000000 15.000000000000000
2  5 4 0 0.000000000000000 15.000000000000000
2  6 3 4 0.000000000000000 15.000000000000000
0

0101000
+34 7 -34 9 *
Ed
 0.000000100000593 1 1 0
1  3 0 0.000000000000000 140.000000000000000
2  7 1 10 0.000000000000000 140.000000000000000
2  8 1 11 0.000000000000000 140.000000000000000
2  9 5 12 0.000000000000000 140.000000000000000
2  10 3 13 0.000000000000000 140.000000000000000
2  11 3 14 0.000000000000000 140.000000000000000
0

0101000
+36 0 -34 0 *
Wi

0101100
+35 0 -33 0 -32 7 +32 9 *
Fa
0  0.000000100000000 1 0

0111000
+31 0 *
Ve
0.000000100000000
-2552.500000000000000 -80.000000000000000 0.000000000000000
0 0

0101101
*
Ed
 0.000000100000000 1 1 0
1  4 0 0.000000000000000 15.000000000000000
2  12 4 0 0.000000000000000 15.000000000000000
0

0101000
+29 7 -29 9 *
Ed
 0.000000100000000 1 1 0
1  5 0 0.000000000000000 80.000000000000000
2  13 4 10 0.000000000000000 80.000000000000000
2  14 4 11 0.000000000000000 80.000000000000000
2  15 5 12 0.000000000000000 80.000000000000000
0

0101000
+34 0 -29 0 *
Wi

0101100
+33 0 -28 0 -27 7 +27 9 *
Fa
0  0.000000100000000 4 0

0111000
+26 0 *
Ve
0.000000100000000
-2692.500000000000000 -80.000000000000000 0.000000000000000
0 0

0101101
*
Ed
 0.000000100000000 1 1 0
1  6 0 0.000000000000000 15.000000000000000
2  16 2 0 0.000000000000000 15.000000000000000
0

0101000
+24 7 -24 9 *
Ed
 0.000000100000000 1 1 0
1  7 0 0.000000000000000 140.000000000000000
2  17 5 12 0.000000000000000 140.000000000000000
0

0101000
+29 0 -24 0 *
Wi

0101100
+28 0 -23 0 -22 7 +22 9 *
Fa
0  0.000000100000000 6 0

0111000
+21 0 *
Ed
 0.000000100000000 1 1 0
1  8 0 0.000000000000000 80.000000000000000
2  18 2 10 0.000000000000000 80.000000000000000
2  19 2 11 0.000000000000000 80.000000000000000
2  20 5 12 0.000000000000000 80.000000000000000
0

0101000
+24 0 -36 0 *
Wi

0101100
+23 0 -35 0 -19 7 +19 9 *
Fa
0  0.000000100000000 2 0

0111000
+18 0 *
Ve
0.000000100000000
-2647.500000000000000 -40.000000000000000 0.000000000000000
0 0

0101101
*
Ed
 0.000000100000000 1 1 0
1  9 0 0.000000000000000 15.000000000000000
3  21 22CN 7 0 0.000000000000000 15.000000000000000
0

0101000
+16 7 -16 9 *
Ed
 0.000000100000000 1 1 0
1  10 0 0.000000000000000 6.283185307179586
2  23 7 10 0.000000000000000 6.283185307179586
2  24 7 11 0.000000000000000 6.283185307179586
2  25 5 12 0.000000000000000 6.283185307179586
0

0101000
+16 0 -16 0 *
Wi

0101100
+15 0 -15 0 -14 7 +14 9 *
Fa
0  0.000000100000000 7 0

0111000
+13 0 *
Ve
0.000000100000000
-2587.500000000000000 -40.000000000000000 0.000000000000000
0 0

0101101
*
Ed
 0.000000100000000 1 1 0
1  11 0 0.000000000000000 15.000000000000000
3  26 27CN 8 0 0.000000000000000 15.000000000000000
0

0101000
+11 7 -11 9 *
Ed
 0.000000100000000 1 1 0
1  12 0 0.000000000000000 6.283185307179586
2  28 8 10 0.000000000000000 6.283185307179586
2  29 8 11 0.000000000000000 6.283185307179586
2  30 5 12 0.000000000000000 6.283185307179586
0

0101000
+11 0 -11 0 *
Wi

0101100
+10 0 -10 0 -9 7 +9 9 *
Fa
0  0.000000100000000 8 0

0111000
+8 0 *
Wi

0101100
+32 16 +27 16 +22 16 +19 16 *
Wi

0101100
+14 16 *
Wi

0101100
+9 16 *
Fa
0  0.000000100000000 5 0

0111000
+6 0 +5 0 +4 0 *
Sh

0101100
+30 0 +25 0 +20 0 +17 0 +12 0 +7 0 +3 15 -3 17 *
So

0100000
-2 0 *

+1 0 