
CASCADE Topology V1, (c) Matra-Datavision
Locations 28
1
1.000000000000000 0.000000000000000 0.000000000000000 0.000000000000000 
0.000000000000000 1.000000000000000 0.000000000000000 0.000000000000000 
0.000000000000000 0.000000000000000 1.000000000000000 0.000000000000000 
1
1.000000000000000 0.000000000000000 0.000000000000000 0.000000000000000 
0.000000000000000 1.000000000000000 0.000000000000000 0.000000000000000 
0.000000000000000 0.000000000000000 1.000000000000000 0.000000000000000 
1
1.000000000000000 0.000000000000000 0.000000000000000 0.000000000000000 
0.000000000000000 1.000000000000000 0.000000000000000 0.000000000000000 
0.000000000000000 0.000000000000000 1.000000000000000 0.000000000000000 
2  2 1 3 -1 0
1
1.000000000000000 0.000000000000000 0.000000000000000 0.000000000000000 
0.000000000000000 1.000000000000000 0.000000000000000 0.000000000000000 
0.000000000000000 0.000000000000000 1.000000000000000 0.000000000000000 
1
1.000000000000000 0.000000000000000 0.000000000000000 0.000000000000000 
0.000000000000000 1.000000000000000 0.000000000000000 0.000000000000000 
0.000000000000000 0.000000000000000 1.000000000000000 0.000000000000000 
1
1.000000000000000 0.000000000000000 0.000000000000000 0.000000000000000 
0.000000000000000 1.000000000000000 0.000000000000000 0.000000000000000 
0.000000000000000 0.000000000000000 1.000000000000000 0.000000000000000 
2  5 1 6 1 7 -1 0
1
1.000000000000000 0.000000000000000 0.000000000000000 -0.000000000000000 
0.000000000000000 1.000000000000000 0.000000000000000 -0.000000000000000 
0.000000000000000 0.000000000000000 1.000000000000000 -50.000000000000000 
2  5 1 6 1 7 -1 9 1 0
2  7 1 6 -1 5 -1 0
2  9 -1 7 1 6 -1 5 -1 0
2  5 1 6 1 7 -1 2 1 3 -1 0
2  5 1 6 1 7 -1 9 1 2 1 3 -1 0
1
1.000000000000000 0.000000000000000 0.000000000000000 0.000000000000000 
0.000000000000000 1.000000000000000 0.000000000000000 0.000000000000000 
0.000000000000000 0.000000000000000 1.000000000000000 0.000000000000000 
1
1.000000000000000 0.000000000000000 0.000000000000000 0.000000000000000 
0.000000000000000 0.000000000000000 -1.000000000000000 -1843.000000000000227 
0.000000000000000 1.000000000000000 0.000000000000000 0.000000000000000 
2  15 1 16 1 3 -1 0
2  3 1 16 -1 15 -1 0
1
1.000000000000000 0.000000000000000 0.000000000000000 0.000000000000000 
0.000000000000000 1.000000000000000 0.000000000000000 5.000000000000000 
0.000000000000000 0.000000000000000 1.000000000000000 -0.000000000000001 
2  19 -1 3 1 16 -1 15 -1 0
2  16 -1 15 -1 0
2  2 1 16 -1 15 -1 0
2  7 -1 2 1 3 -1 0
2  5 1 6 1 0
2  7 -1 9 1 2 1 3 -1 0
2  15 1 16 1 3 -1 19 1 0
2  3 -1 19 1 0
2  15 1 16 1 0
Curve2ds 24
1 249.72397097761768237 0.00000000000000000 0.00000000000000000 -1.00000000000000000 
1 0.00000000000000000 0.00000000000000000 0.00000000000000000 -1.00000000000000000 
1 832.92736402538741913 0.00000000000000000 0.00000000000000000 -1.00000000000000000 
1 0.00000000000000000 0.00000000000000000 0.00000000000000000 -1.00000000000000000 
1 0.00000000000000000 0.00000000000000000 1.00000000000000000 0.00000000000000000 
1 0.00000000000000000 -50.00000000000000000 1.00000000000000000 0.00000000000000000 
1 0.00000000000000000 0.00000000000000000 1.00000000000000000 0.00000000000000000 
1 0.00000000000000000 -50.00000000000000000 1.00000000000000000 0.00000000000000000 
1 377.93861032227187025 0.00000000000000000 0.00000000000000000 -1.00000000000000000 
1 0.00000000000000000 0.00000000000000000 0.00000000000000000 -1.00000000000000000 
1 0.00000000000000000 0.00000000000000000 1.00000000000000000 0.00000000000000000 
1 0.00000000000000000 -5.00000000000000000 1.00000000000000000 0.00000000000000000 
2 -0.00000000000045475 0.00000000000000355 -1.00000000000000000 -0.00000000000000000 0.00000000000000000 -1.00000000000000000 5.00000000000000000
2 80.00000000000000000 -25.00000000000000000 1.00000000000000000 0.00000000000000000 -0.00000000000000000 1.00000000000000000 5.00000000000000000
1 0.00000000000000000 0.00000000000000000 1.00000000000000000 0.00000000000000000 
1 0.00000000000000000 -5.00000000000000000 1.00000000000000000 0.00000000000000000 
2 -0.00000000000045475 0.00000000000000355 -1.00000000000000000 -0.00000000000000000 0.00000000000000000 -1.00000000000000000 5.00000000000000000
2 297.93861032227187025 -25.00000000000000000 1.00000000000000000 0.00000000000000000 -0.00000000000000000 1.00000000000000000 5.00000000000000000
1 0.00000000000000000 0.00000000000000000 1.00000000000000000 0.00000000000000000 
1 0.00000000000000000 -50.00000000000000000 1.00000000000000000 0.00000000000000000 
1 0.00000000000000000 0.00000000000000000 0.00000000000000000 -1.00000000000000000 
1 6.28318530717958623 0.00000000000000000 0.00000000000000000 -1.00000000000000000 
1 0.00000000000000000 0.00000000000000000 0.00000000000000000 -1.00000000000000000 
1 6.28318530717958623 0.00000000000000000 0.00000000000000000 -1.00000000000000000 
Curves 12
1 3135.06138967772812975 -1020.00000000000000000 0.00000000000000000 -0.00000000000000000 -0.00000000000000000 -1.00000000000000000 
1 3135.06138967772812975 -1843.00000000000022737 0.00000000000000000 -0.00000000000000000 -0.00000000000000000 -1.00000000000000000 
1 3135.06138967772812975 -1020.00000000000000000 0.00000000000000000 0.00000000000000000 -1.00000000000000000 0.00000000000000000 
1 3384.78536065534581212 -1020.00000000000000000 0.00000000000000000 -0.00000000000000000 -0.00000000000000000 -1.00000000000000000 
1 3384.78536065534581212 -1020.00000000000000000 0.00000000000000000 -1.00000000000000000 0.00000000000000000 0.00000000000000000 
1 3135.06138967772812975 -1843.00000000000022737 0.00000000000000000 1.00000000000000000 0.00000000000000000 0.00000000000000000 
1 3513.00000000000000000 -1843.00000000000022737 0.00000000000000000 -0.00000000000000000 -0.00000000000000000 -1.00000000000000000 
2 3215.06138967772812975 -25.00000000000000000 0.00000000000000000 0.00000000000000000 0.00000000000000000 1.00000000000000000 1.00000000000000000 0.00000000000000000 -0.00000000000000000 -0.00000000000000000 1.00000000000000000 0.00000000000000000 5.00000000000000000
2 3433.00000000000000000 -25.00000000000000000 0.00000000000000000 0.00000000000000000 0.00000000000000000 1.00000000000000000 1.00000000000000000 0.00000000000000000 -0.00000000000000000 -0.00000000000000000 1.00000000000000000 0.00000000000000000 5.00000000000000000
1 3513.00000000000000000 -1843.00000000000022737 0.00000000000000000 -0.15393255748618467 0.98808135684555987 0.00000000000000000 
1 3220.06138967772812975 -1843.00000000000022737 -25.00000000000000000 0.00000000000000000 1.00000000000000000 -0.00000000000000022 
1 3438.00000000000000000 -1843.00000000000022737 -25.00000000000000000 0.00000000000000000 1.00000000000000000 -0.00000000000000022 
Polygon3D 0
PolygonOnTriangulations 0
Surfaces 9
1 3135.06138967772812975 -1020.00000000000000000 0.00000000000000000 -1.00000000000000000 0.00000000000000000 0.00000000000000000 0.00000000000000000 -1.00000000000000000 0.00000000000000000 0.00000000000000000 0.00000000000000000 1.00000000000000000 
1 3384.78536065534581212 -1020.00000000000000000 0.00000000000000000 0.00000000000000000 1.00000000000000000 -0.00000000000000000 -1.00000000000000000 0.00000000000000000 0.00000000000000000 0.00000000000000000 0.00000000000000000 1.00000000000000000 
1 3135.06138967772812975 -1843.00000000000022737 0.00000000000000000 0.00000000000000000 -1.00000000000000000 0.00000000000000000 1.00000000000000000 0.00000000000000000 0.00000000000000000 -0.00000000000000000 0.00000000000000000 1.00000000000000000 
1 3513.00000000000000000 -1843.00000000000022737 0.00000000000000000 0.98808135684555987 0.15393255748618467 -0.00000000000000000 -0.15393255748618467 0.98808135684555987 0.00000000000000000 0.00000000000000000 0.00000000000000000 1.00000000000000000 
2 3215.06138967772812975 -1843.00000000000022737 -25.00000000000000000 0.00000000000000000 -1.00000000000000000 0.00000000000000022 1.00000000000000000 0.00000000000000000 0.00000000000000000 -0.00000000000000000 0.00000000000000022 1.00000000000000000 5.00000000000000000
1 3215.06138967772767501 -1843.00000000000000000 -24.99999999999999645 -0.00000000000000000 -1.00000000000000000 0.00000000000000000 -1.00000000000000000 0.00000000000000000 0.00000000000000000 -0.00000000000000000 0.00000000000000000 -1.00000000000000000 
2 3433.00000000000000000 -1843.00000000000022737 -25.00000000000000000 0.00000000000000000 -1.00000000000000000 0.00000000000000022 1.00000000000000000 0.00000000000000000 0.00000000000000000 -0.00000000000000000 0.00000000000000022 1.00000000000000000 5.00000000000000000
1 3432.99999999999954525 -1843.00000000000000000 -24.99999999999999645 -0.00000000000000000 -1.00000000000000000 0.00000000000000000 -1.00000000000000000 0.00000000000000000 0.00000000000000000 -0.00000000000000000 0.00000000000000000 -1.00000000000000000 
1 3294.45887600904734427 -1454.60411472879809480 0.00000000000000000 0.00000000000000000 0.00000000000000000 1.00000000000000000 1.00000000000000000 0.00000000000000000 -0.00000000000000000 -0.00000000000000000 1.00000000000000000 0.00000000000000000 
Triangulations 0

TShapes 40
Ve
0.000000100000000
3135.061389677728130 -1020.000000000000000 0.000000000000000
0 0

0101101
*
Ed
 0.000000100000000 1 1 0
1  1 0 0.000000000000000 50.000000000000000
2  1 2 0 0.000000000000000 50.000000000000000
0

0101000
+40 8 -40 10 *
Ve
0.000000100000000
3135.061389677728130 -1843.000000000000227 0.000000000000000
0 0

0101101
*
Ed
 0.000000100000000 1 1 0
1  2 0 0.000000000000000 50.000000000000000
2  2 3 0 0.000000000000000 50.000000000000000
0

0101000
+38 8 -38 10 *
Ed
 0.000000100000000 1 1 0
1  3 0 0.000000000000000 823.000000000000227
0

0101000
+40 0 -38 0 *
Wi

0101100
+39 0 -37 0 -36 8 +36 10 *
Fa
0  0.000000100000000 1 0

0111000
+35 0 *
Ve
0.000000100000000
3384.785360655345812 -1020.000000000000000 0.000000000000000
0 0

0101101
*
Ed
 0.000000100000000 1 1 0
1  4 0 0.000000000000000 50.000000000000000
2  3 4 0 0.000000000000000 50.000000000000000
2  4 2 0 0.000000000000000 50.000000000000000
0

0101000
+33 8 -33 10 *
Ed
 0.000000100000000 1 1 0
1  5 0 0.000000000000000 249.723970977617682
2  5 2 11 0.000000000000000 249.723970977617682
2  6 2 12 0.000000000000000 249.723970977617682
0

0101000
+33 0 -40 0 *
Wi

0101100
+32 0 -39 0 -31 8 +31 10 *
Fa
0  0.000000100000000 2 0

0111000
+30 0 *
Ve
0.000000100000000
3513.000000000000000 -1843.000000000000227 0.000000000000000
0 0

0101101
*
Ed
 0.000000100000000 1 1 0
1  6 0 0.000000000000000 377.938610322271870
2  7 3 11 0.000000000000000 377.938610322271870
2  8 3 12 0.000000000000000 377.938610322271870
0

0101000
+38 0 -28 0 *
Ed
 0.000000100000000 1 1 0
1  7 0 0.000000000000000 50.000000000000000
2  9 3 0 0.000000000000000 50.000000000000000
2  10 4 0 0.000000000000000 50.000000000000000
0

0101000
+28 8 -28 10 *
Wi

0101100
+37 4 -27 13 +27 14 -26 4 *
Ve
0.000000100000000
3220.061389677728130 -25.000000000000000 0.000000000000000
0 0

0101101
*
Ed
 0.000000100000000 1 1 0
1  8 0 0.000000000000000 6.283185307179586
2  11 5 18 0.000000000000000 6.283185307179586
2  12 5 20 0.000000000000000 6.283185307179586
2  13 6 21 0.000000000000000 6.283185307179586
2  14 3 22 0.000000000000000 6.283185307179586
0

0101000
+24 0 -24 0 *
Wi

0101100
-23 17 *
Ve
0.000000100000000
3438.000000000000000 -25.000000000000000 0.000000000000000
0 0

0101101
*
Ed
 0.000000100000000 1 1 0
1  9 0 0.000000000000000 6.283185307179586
2  15 7 18 0.000000000000000 6.283185307179586
2  16 7 20 0.000000000000000 6.283185307179586
2  17 8 21 0.000000000000000 6.283185307179586
2  18 3 22 0.000000000000000 6.283185307179586
0

0101000
+21 0 -21 0 *
Wi

0101100
-20 17 *
Fa
0  0.000000100000000 3 4

0111000
+25 0 +22 0 +19 0 *
Ed
 0.000000100000000 1 1 0
1  10 0 0.000000000000000 832.927364025387305
2  19 4 11 0.000000000000000 832.927364025387305
2  20 4 12 0.000000000000000 832.927364025387305
0

0101000
+28 0 -33 0 *
Wi

0101100
+36 0 +27 0 +17 0 +31 0 *
Fa
0  0.000000100000000 9 0

0111000
+16 24 *
Wi

0101100
+26 0 -32 0 -17 8 +17 10 *
Fa
0  0.000000100000000 4 0

0111000
+14 0 *
Ed
 0.000000100000000 1 1 0
1  11 0 0.000000000000000 5.000000000000000
3  21 22CN 5 0 0.000000000000000 5.000000000000000
0

0101000
+24 17 -24 26 *
Wi

0101100
+12 0 -12 0 -23 17 +23 26 *
Fa
0  0.000000100000000 5 0

0111000
+11 0 *
Ed
 0.000000100000000 1 1 0
1  12 0 0.000000000000000 5.000000000000000
3  23 24CN 7 0 0.000000000000000 5.000000000000000
0

0101000
+21 17 -21 26 *
Wi

0101100
+9 0 -9 0 -20 17 +20 26 *
Fa
0  0.000000100000000 7 0

0111000
+8 0 *
Wi

0101100
+23 0 *
Fa
0  0.000000100000000 6 0

0111000
+6 28 *
Wi

0101100
+20 0 *
Fa
0  0.000000100000000 8 0

0111000
+4 28 *
Sh

0101100
+34 4 +29 4 +18 0 +15 23 -15 25 +13 4 -10 0 -7 0 +5 27 +3 27 
*
So

0100000
+2 0 *

+1 1 