
CASCADE Topology V1, (c) Matra-Datavision
Locations 20
1
0.000000000000000 0.000000000000000 1.000000000000000 0.000000000000000 
1.000000000000000 0.000000000000000 0.000000000000000 0.000000000000000 
0.000000000000000 1.000000000000000 0.000000000000000 0.000000000000000 
1
0.000000000000000 0.000000000000000 1.000000000000000 0.000000000000000 
1.000000000000000 0.000000000000000 0.000000000000000 0.000000000000000 
0.000000000000000 1.000000000000000 0.000000000000000 0.000000000000000 
2  1 1 2 -1 0
1
1.000000000000000 0.000000000000000 0.000000000000000 0.000000000000000 
0.000000000000000 1.000000000000000 0.000000000000000 0.000000000000000 
0.000000000000000 0.000000000000000 1.000000000000000 0.000000000000000 
1
0.000000000000000 0.000000000000000 -1.000000000000000 0.000000000000897 
1.000000000000000 0.000000000000000 0.000000000000000 -0.000000000000000 
0.000000000000000 -1.000000000000000 -0.000000000000000 0.000000000000000 
2  4 1 5 1 2 -1 0
1
1.000000000000000 0.000000000000000 0.000000000000000 -0.000000000000002 
0.000000000000000 1.000000000000000 0.000000000000000 0.000000000000006 
0.000000000000000 0.000000000000000 1.000000000000000 15.000000000000000 
2  4 1 5 1 2 -1 7 1 0
2  2 1 5 -1 4 -1 0
2  7 -1 2 1 5 -1 4 -1 0
2  5 -1 4 -1 0
2  1 1 5 -1 4 -1 0
2  1 1 2 -1 7 -1 2 1 5 -1 4 -1 0
1
-0.000000000000000 0.000000000000000 1.000000000000000 0.000000000000000 
1.000000000000000 -0.000000000000000 0.000000000000000 0.000000000000000 
0.000000000000000 1.000000000000000 -0.000000000000000 0.000000000000000 
2  14 -1 1 1 5 -1 4 -1 0
1
1.000000000000000 0.000000000000000 0.000000000000000 -0.000000000000007 
0.000000000000000 1.000000000000000 0.000000000000000 0.000000000000004 
0.000000000000000 0.000000000000000 1.000000000000000 15.000000000000000 
2  14 -1 16 1 1 1 2 -1 7 -1 2 1 5 -1 4 -1 0
2  2 -1 0
2  4 1 5 1 0
2  2 -1 7 1 0
Curve2ds 32
1 0.00000000000000000 0.00000000000000000 -0.00000000000000006 -1.00000000000000000 
1 80.00000000000000000 0.00000000000000000 0.00000000000000006 -1.00000000000000000 
1 970.00000000000113687 -0.00000000000195476 -0.00000000000000016 -1.00000000000000000 
1 220.00000000000000000 0.00000000000000000 -0.00000000000000006 -1.00000000000000000 
1 0.00000000000000000 0.00000000000000000 -0.00000000000000006 -1.00000000000000000 
1 750.00000000000113687 -0.00000000000191858 -0.00000000000000016 -1.00000000000000000 
1 0.00000000000000000 0.00000000000000000 1.00000000000000000 0.00000000000000000 
1 0.00000000000000083 -15.00000000000000000 1.00000000000000000 0.00000000000000000 
1 -40.00000000000000000 110.00000000000000000 -0.00000000000000011 -1.00000000000000000 
1 970.00000000000136424 -0.00000000000168387 -1.00000000000000000 0.00000000000000022 
1 970.00000000000113687 -15.00000000000195399 -1.00000000000000000 0.00000000000000016 
1 455.00000000000125056 -124.99999999999909051 -1.00000000000000000 0.00000000000000011 
1 455.00000000000102318 -124.99999999999909051 -1.00000000000000000 0.00000000000000017 
1 80.00000000000000000 0.00000000000000000 -0.00000000000000006 -1.00000000000000000 
1 0.00000000000000000 0.00000000000000000 1.00000000000000000 0.00000000000000000 
1 0.00000000000000500 -15.00000000000000178 1.00000000000000000 0.00000000000000000 
1 -40.00000000000000000 -110.00000000000000000 1.00000000000000000 -0.00000000000000011 
1 0.00000000000000000 0.00000000000000000 0.00000000000000006 -1.00000000000000000 
1 40.00000000000000000 -110.00000000000000000 0.00000000000000011 1.00000000000000000 
1 0.00000000000000000 0.00000000000000000 1.00000000000000000 0.00000000000000000 
1 -0.00000000000000500 -15.00000000000000000 1.00000000000000000 0.00000000000000000 
1 40.00000000000000000 110.00000000000000000 -1.00000000000000000 0.00000000000000011 
1 0.00000000000000000 0.00000000000000000 0.00000000000000000 -1.00000000000000000 
1 6.28318530717958623 0.00000000000000000 0.00000000000000000 -1.00000000000000000 
1 0.00000000000000000 0.00000000000000000 1.00000000000000000 0.00000000000000000 
1 0.00000000000000000 -15.00000000000000000 1.00000000000000000 0.00000000000000000 
2 0.00000000000000000 -70.00000000000000000 -0.00000000000000011 -1.00000000000000000 1.00000000000000000 -0.00000000000000011 5.00000000000000000
1 0.00000000000000000 0.00000000000000000 0.00000000000000000 -1.00000000000000000 
1 6.28318530717958623 0.00000000000000000 0.00000000000000000 -1.00000000000000000 
1 0.00000000000000000 0.00000000000000000 1.00000000000000000 0.00000000000000000 
1 0.00000000000000000 -15.00000000000000000 1.00000000000000000 0.00000000000000000 
2 0.00000000000000000 70.00000000000000000 -0.00000000000000011 -1.00000000000000000 1.00000000000000000 -0.00000000000000011 5.00000000000000000
Curves 12
1 -742.00000000000102318 5622.00050000000101136 -0.00000000000101676 -0.00000000000000011 0.00000000000000039 1.00000000000000000 
1 -522.00000000000102318 5622.00050000000101136 -0.00000000000100455 -0.00000000000000011 0.00000000000000039 1.00000000000000000 
1 -742.00000000000068212 -5622.00050000000101136 0.00000000000000000 1.00000000000000000 0.00000000000000000 0.00000000000000000 
1 -522.00000000000102318 5542.00050000000101136 -0.00000000000097790 -0.00000000000000011 0.00000000000000039 1.00000000000000000 
1 -522.00000000000068212 -5622.00050000000101136 0.00000000000000000 0.00000000000000000 1.00000000000000000 0.00000000000000000 
1 -742.00000000000102318 5542.00050000000101136 -0.00000000000099011 -0.00000000000000011 0.00000000000000039 1.00000000000000000 
1 -522.00000000000068212 -5542.00050000000101136 0.00000000000000000 -1.00000000000000000 0.00000000000000000 0.00000000000000000 
1 -742.00000000000068212 -5542.00050000000101136 0.00000000000000000 0.00000000000000000 -1.00000000000000000 0.00000000000000000 
1 -557.00000000000102318 5582.00050000000101136 -0.00000000000099317 -0.00000000000000011 0.00000000000000039 1.00000000000000000 
2 -562.00000000000068212 -5582.00050000000101136 0.00000000000000000 0.00000000000000000 0.00000000000000000 1.00000000000000000 1.00000000000000000 0.00000000000000000 -0.00000000000000000 -0.00000000000000000 1.00000000000000000 0.00000000000000000 5.00000000000000000
1 -697.00000000000102318 5582.00050000000101136 -0.00000000000100094 -0.00000000000000011 0.00000000000000039 1.00000000000000000 
2 -702.00000000000068212 -5582.00050000000101136 0.00000000000000000 0.00000000000000000 0.00000000000000000 1.00000000000000000 1.00000000000000000 0.00000000000000000 -0.00000000000000000 -0.00000000000000000 1.00000000000000000 0.00000000000000000 5.00000000000000000
Polygon3D 0
PolygonOnTriangulations 0
Surfaces 9
1 -742.00000000000102318 5622.00050000000101136 -0.00000000000101676 -0.00000000000000011 1.00000000000000000 -0.00000000000000039 1.00000000000000000 0.00000000000000011 0.00000000000000006 0.00000000000000006 -0.00000000000000039 -1.00000000000000000 
1 -742.00000000000102318 5542.00050000000101136 -0.00000000000099011 -1.00000000000000000 -0.00000000000000006 -0.00000000000000011 -0.00000000000000006 1.00000000000000000 -0.00000000000000033 0.00000000000000011 -0.00000000000000033 -1.00000000000000000 
1 228.00000000000005684 5622.00050000000101136 -0.00000000000244604 -0.00000000000000044 -1.00000000000000000 0.00000000000000028 -1.00000000000000000 0.00000000000000044 -0.00000000000000022 0.00000000000000022 -0.00000000000000028 -1.00000000000000000 
1 -522.00000000000102318 5622.00050000000101136 -0.00000000000100455 1.00000000000000000 0.00000000000000006 0.00000000000000011 0.00000000000000006 -1.00000000000000000 0.00000000000000033 0.00000000000000011 -0.00000000000000033 -1.00000000000000000 
1 -0.00000000000096225 -632.00000000000125056 5582.00050000000101136 -1.00000000000000000 -0.00000000000000000 -0.00000000000000033 0.00000000000000033 0.00000000000000000 -1.00000000000000000 0.00000000000000000 -1.00000000000000000 0.00000000000000000 
1 -0.00000000000133982 -287.00000000000000000 5747.00050000000010186 -1.00000000000000000 0.00000000000000022 -0.00000000000000022 -0.00000000000000022 -1.00000000000000000 0.00000000000000000 -0.00000000000000022 0.00000000000000000 1.00000000000000000 
1 -522.00000000000102318 5542.00050000000101136 -0.00000000000097790 0.00000000000000011 -1.00000000000000000 0.00000000000000039 -1.00000000000000000 -0.00000000000000011 -0.00000000000000006 0.00000000000000006 -0.00000000000000039 -1.00000000000000000 
2 -562.00000000000102318 5582.00050000000101136 -0.00000000000099344 0.00000000000000006 -0.00000000000000033 -1.00000000000000000 1.00000000000000000 0.00000000000000011 0.00000000000000006 0.00000000000000011 -1.00000000000000000 0.00000000000000033 5.00000000000000000
2 -702.00000000000102318 5582.00050000000101136 -0.00000000000100122 0.00000000000000006 -0.00000000000000033 -1.00000000000000000 1.00000000000000000 0.00000000000000011 0.00000000000000006 0.00000000000000011 -1.00000000000000000 0.00000000000000033 5.00000000000000000
Triangulations 0

TShapes 36
Ve
0.000000100001334
-742.000000000000682 -5622.000500000001011 0.000000000000000
0 0

0101101
*
Ed
 0.000000100000909 1 1 0
1  1 0 0.000000000000000 15.000000000000000
2  1 1 0 0.000000000000000 15.000000000000000
2  2 2 0 0.000000000000000 15.000000000000000
2  3 3 3 0.000000000000000 15.000000000000000
0

0101000
+36 6 -36 8 *
Ve
0.000000100001334
-522.000000000000682 -5622.000500000001011 0.000000000000000
0 0

0101101
*
Ed
 0.000000100000000 1 1 0
1  2 0 0.000000000000000 15.000000000000000
2  4 1 0 0.000000000000000 15.000000000000000
2  5 4 0 0.000000000000000 15.000000000000000
2  6 3 3 0.000000000000000 15.000000000000000
0

0101000
+34 6 -34 8 *
Ed
 0.000000100001334 1 1 0
1  3 0 0.000000000000000 220.000000000000000
2  7 1 9 0.000000000000000 220.000000000000000
2  8 1 10 0.000000000000000 220.000000000000000
2  9 5 11 0.000000000000000 220.000000000000000
2  10 3 12 0.000000000000000 220.000000000000000
2  11 3 13 0.000000000000000 220.000000000000000
2  12 6 15 0.000000000000000 220.000000000000000
2  13 6 17 0.000000000000000 220.000000000000000
0

0101000
+36 0 -34 0 *
Wi

0101100
+35 0 -33 0 -32 6 +32 8 *
Fa
0  0.000000100000000 1 0

0111000
+31 0 *
Ve
0.000000100000000
-522.000000000000682 -5542.000500000001011 0.000000000000000
0 0

0101101
*
Ed
 0.000000100000000 1 1 0
1  4 0 0.000000000000000 15.000000000000000
2  14 4 0 0.000000000000000 15.000000000000000
0

0101000
+29 6 -29 8 *
Ed
 0.000000100000000 1 1 0
1  5 0 0.000000000000000 80.000000000000000
2  15 4 9 0.000000000000000 80.000000000000000
2  16 4 10 0.000000000000000 80.000000000000000
2  17 5 11 0.000000000000000 80.000000000000000
0

0101000
+34 0 -29 0 *
Wi

0101100
+33 0 -28 0 -27 6 +27 8 *
Fa
0  0.000000100000000 4 0

0111000
+26 0 *
Ve
0.000000100000000
-742.000000000000682 -5542.000500000001011 0.000000000000000
0 0

0101101
*
Ed
 0.000000100000000 1 1 0
1  6 0 0.000000000000000 15.000000000000000
2  18 2 0 0.000000000000000 15.000000000000000
0

0101000
+24 6 -24 8 *
Ed
 0.000000100000000 1 1 0
1  7 0 0.000000000000000 220.000000000000000
2  19 5 11 0.000000000000000 220.000000000000000
0

0101000
+29 0 -24 0 *
Wi

0101100
+28 0 -23 0 -22 6 +22 8 *
Fa
0  0.000000100000000 7 0

0111000
+21 0 *
Ed
 0.000000100000000 1 1 0
1  8 0 0.000000000000000 80.000000000000000
2  20 2 9 0.000000000000000 80.000000000000000
2  21 2 10 0.000000000000000 80.000000000000000
2  22 5 11 0.000000000000000 80.000000000000000
0

0101000
+24 0 -36 0 *
Wi

0101100
+23 0 -35 0 -19 6 +19 8 *
Fa
0  0.000000100000000 2 0

0111000
+18 0 *
Ve
0.000000100000000
-557.000000000000682 -5582.000500000001011 0.000000000000000
0 0

0101101
*
Ed
 0.000000100000000 1 1 0
1  9 0 0.000000000000000 15.000000000000000
3  23 24CN 8 0 0.000000000000000 15.000000000000000
0

0101000
+16 6 -16 8 *
Ed
 0.000000100000000 1 1 0
1  10 0 0.000000000000000 6.283185307179586
2  25 8 9 0.000000000000000 6.283185307179586
2  26 8 10 0.000000000000000 6.283185307179586
2  27 5 11 0.000000000000000 6.283185307179586
0

0101000
+16 0 -16 0 *
Wi

0101100
+15 0 -15 0 -14 6 +14 8 *
Fa
0  0.000000100000000 8 0

0111000
+13 0 *
Ve
0.000000100000000
-697.000000000000682 -5582.000500000001011 0.000000000000000
0 0

0101101
*
Ed
 0.000000100000000 1 1 0
1  11 0 0.000000000000000 15.000000000000000
3  28 29CN 9 0 0.000000000000000 15.000000000000000
0

0101000
+11 6 -11 8 *
Ed
 0.000000100000000 1 1 0
1  12 0 0.000000000000000 6.283185307179586
2  30 9 9 0.000000000000000 6.283185307179586
2  31 9 10 0.000000000000000 6.283185307179586
2  32 5 11 0.000000000000000 6.283185307179586
0

0101000
+11 0 -11 0 *
Wi

0101100
+10 0 -10 0 -9 6 +9 8 *
Fa
0  0.000000100000000 9 0

0111000
+8 0 *
Wi

0101100
+32 19 +27 19 +22 19 +19 19 *
Wi

0101100
-14 19 *
Wi

0101100
-9 19 *
Fa
0  0.000000100000000 5 0

0111000
+6 0 +5 0 +4 0 *
Sh

0101100
+30 0 +25 0 +20 0 +17 0 -12 0 -7 0 +3 18 -3 20 *
So

0100000
+2 0 *

+1 0 