
CASCADE Topology V1, (c) Matra-Datavision
Locations 11
1
1.000000000000000 0.000000000000000 0.000000000000000 0.000000000000000 
0.000000000000000 1.000000000000000 0.000000000000000 0.000000000000000 
0.000000000000000 0.000000000000000 1.000000000000000 0.000000000000000 
1
1.000000000000000 0.000000000000000 0.000000000000000 0.000000000000000 
0.000000000000000 1.000000000000000 0.000000000000000 0.000000000000000 
0.000000000000000 0.000000000000000 1.000000000000000 0.000000000000000 
1
1.000000000000000 0.000000000000000 0.000000000000000 0.000000000000000 
0.000000000000000 1.000000000000000 0.000000000000000 0.000000000000000 
0.000000000000000 0.000000000000000 1.000000000000000 0.000000000000000 
2  1 1 2 1 3 -1 0
1
1.000000000000000 0.000000000000000 0.000000000000000 -0.000000000000000 
0.000000000000000 1.000000000000000 0.000000000000000 -0.000000000000000 
0.000000000000000 0.000000000000000 1.000000000000000 -50.000000000000000 
2  1 1 2 1 3 -1 5 1 0
2  3 1 2 -1 1 -1 0
2  5 -1 3 1 2 -1 1 -1 0
2  3 -1 0
2  1 1 2 1 0
2  3 -1 5 1 0
Curve2ds 16
1 989.89398287380845431 0.00000000000000000 0.00000000000000000 -1.00000000000000000 
1 0.00000000000000000 0.00000000000000000 0.00000000000000000 -1.00000000000000000 
1 162.03161901286512148 0.00000000000000000 0.00000000000000000 -1.00000000000000000 
1 0.00000000000000000 0.00000000000000000 0.00000000000000000 -1.00000000000000000 
1 0.00000000000000000 0.00000000000000000 1.00000000000000000 0.00000000000000000 
1 0.00000000000000000 -50.00000000000000000 1.00000000000000000 0.00000000000000000 
1 0.00000000000000000 0.00000000000000000 0.00000000000000000 -1.00000000000000000 
1 885.47771352997540362 0.00000000000000000 0.00000000000000000 -1.00000000000000000 
1 0.00000000000000000 0.00000000000000000 1.00000000000000000 0.00000000000000000 
1 0.00000000000000000 -50.00000000000000000 1.00000000000000000 0.00000000000000000 
1 469.41427338899120514 0.00000000000000000 0.00000000000000000 -1.00000000000000000 
1 0.00000000000000000 0.00000000000000000 0.00000000000000000 -1.00000000000000000 
1 0.00000000000000000 0.00000000000000000 1.00000000000000000 0.00000000000000000 
1 0.00000000000000000 -50.00000000000000000 1.00000000000000000 0.00000000000000000 
1 0.00000000000000000 0.00000000000000000 1.00000000000000000 0.00000000000000000 
1 0.00000000000000000 -50.00000000000000000 1.00000000000000000 0.00000000000000000 
Curves 8
1 2513.22999999999638021 -973.00000000000000000 0.00000000000000000 -0.00000000000000000 -0.00000000000000000 -1.00000000000000000 
1 2351.19838098713125873 -973.00000000000000000 0.00000000000000000 -0.00000000000000000 -0.00000000000000000 -1.00000000000000000 
1 2513.22999999999638021 -973.00000000000000000 0.00000000000000000 -1.00000000000000000 0.00000000000000000 0.00000000000000000 
1 2516.03399958418413007 -1843.00000000000000000 0.00000000000000000 -0.00000000000000000 -0.00000000000000000 -1.00000000000000000 
1 2351.19838098713125873 -973.00000000000000000 0.00000000000000000 0.18615445208658302 -0.98252049340883685 0.00000000000000000 
1 2985.44827297317533521 -1843.00000000000000000 0.00000000000000000 -0.00000000000000000 -0.00000000000000000 -1.00000000000000000 
1 2516.03399958418413007 -1843.00000000000000000 0.00000000000000000 1.00000000000000000 0.00000000000000000 0.00000000000000000 
1 2985.44827297317533521 -1843.00000000000000000 0.00000000000000000 -0.47703923969944695 0.87888199650861754 0.00000000000000000 
Polygon3D 0
PolygonOnTriangulations 0
Surfaces 5
1 2513.22999999999638021 -973.00000000000000000 0.00000000000000000 0.00000000000000000 1.00000000000000000 -0.00000000000000000 -1.00000000000000000 0.00000000000000000 0.00000000000000000 0.00000000000000000 0.00000000000000000 1.00000000000000000 
1 2985.44827297317533521 -1843.00000000000000000 0.00000000000000000 0.87888199650861754 0.47703923969944695 -0.00000000000000000 -0.47703923969944695 0.87888199650861754 0.00000000000000000 0.00000000000000000 0.00000000000000000 1.00000000000000000 
1 2351.19838098713125873 -973.00000000000000000 0.00000000000000000 -0.98252049340883685 -0.18615445208658302 0.00000000000000000 0.18615445208658302 -0.98252049340883685 0.00000000000000000 0.00000000000000000 0.00000000000000000 1.00000000000000000 
1 2516.03399958418413007 -1843.00000000000000000 0.00000000000000000 0.00000000000000000 -1.00000000000000000 0.00000000000000000 1.00000000000000000 0.00000000000000000 0.00000000000000000 -0.00000000000000000 0.00000000000000000 1.00000000000000000 
1 2617.58173072207955556 -1461.33912417509441184 0.00000000000000000 0.00000000000000000 0.00000000000000000 1.00000000000000000 1.00000000000000000 0.00000000000000000 -0.00000000000000000 -0.00000000000000000 1.00000000000000000 0.00000000000000000 
Triangulations 0

TShapes 24
Ve
0.000000100000000
2513.229999999996380 -973.000000000000000 0.000000000000000
0 0

0101101
*
Ed
 0.000000100000000 1 1 0
1  1 0 0.000000000000000 50.000000000000000
2  1 2 0 0.000000000000000 50.000000000000000
2  2 1 0 0.000000000000000 50.000000000000000
0

0101000
+24 4 -24 6 *
Ve
0.000000100000000
2351.198380987131259 -973.000000000000000 0.000000000000000
0 0

0101101
*
Ed
 0.000000100000000 1 1 0
1  2 0 0.000000000000000 50.000000000000000
2  3 1 0 0.000000000000000 50.000000000000000
2  4 3 0 0.000000000000000 50.000000000000000
0

0101000
+22 4 -22 6 *
Ed
 0.000000100000000 1 1 0
1  3 0 0.000000000000000 162.031619012865121
2  5 1 7 0.000000000000000 162.031619012865121
2  6 1 8 0.000000000000000 162.031619012865121
0

0101000
+24 0 -22 0 *
Wi

0101100
+23 0 -21 0 -20 4 +20 6 *
Fa
0  0.000000100000000 1 0

0111000
+19 0 *
Ve
0.000000100000000
2516.033999584184130 -1843.000000000000000 0.000000000000000
0 0

0101101
*
Ed
 0.000000100000000 1 1 0
1  4 0 0.000000000000000 50.000000000000000
2  7 4 0 0.000000000000000 50.000000000000000
2  8 3 0 0.000000000000000 50.000000000000000
0

0101000
+17 4 -17 6 *
Ed
 0.000000100000000 1 1 0
1  5 0 0.000000000000000 885.477713529975404
2  9 3 7 0.000000000000000 885.477713529975404
2  10 3 8 0.000000000000000 885.477713529975404
0

0101000
+22 0 -17 0 *
Wi

0101100
+21 0 -16 0 -15 4 +15 6 *
Fa
0  0.000000100000000 3 0

0111000
+14 0 *
Ve
0.000000100000000
2985.448272973175335 -1843.000000000000000 0.000000000000000
0 0

0101101
*
Ed
 0.000000100000000 1 1 0
1  6 0 0.000000000000000 50.000000000000000
2  11 4 0 0.000000000000000 50.000000000000000
2  12 2 0 0.000000000000000 50.000000000000000
0

0101000
+12 4 -12 6 *
Ed
 0.000000100000000 1 1 0
1  7 0 0.000000000000000 469.414273388991205
2  13 4 7 0.000000000000000 469.414273388991205
2  14 4 8 0.000000000000000 469.414273388991205
0

0101000
+17 0 -12 0 *
Wi

0101100
+16 0 -11 0 -10 4 +10 6 *
Fa
0  0.000000100000000 4 0

0111000
+9 0 *
Ed
 0.000000100000000 1 1 0
1  8 0 0.000000000000000 989.893982873808454
2  15 2 7 0.000000000000000 989.893982873808454
2  16 2 8 0.000000000000000 989.893982873808454
0

0101000
+12 0 -24 0 *
Wi

0101100
+11 0 -23 0 -7 4 +7 6 *
Fa
0  0.000000100000000 2 0

0111000
+6 0 *
Wi

0101100
+20 0 +15 0 +10 0 +7 0 *
Fa
0  0.000000100000000 5 0

0111000
+4 10 *
Sh

0101100
+18 0 +13 0 +8 0 +5 0 +3 9 -3 11 *
So

1100000
+2 0 *

+1 0 