
CASCADE Topology V1, (c) Matra-Datavision
Locations 12
1
1.000000000000000 0.000000000000000 0.000000000000000 0.000000000000000 
0.000000000000000 1.000000000000000 0.000000000000000 0.000000000000000 
0.000000000000000 0.000000000000000 1.000000000000000 0.000000000000000 
1
1.000000000000000 0.000000000000000 0.000000000000000 0.000000000000000 
0.000000000000000 1.000000000000000 0.000000000000000 0.000000000000000 
0.000000000000000 0.000000000000000 1.000000000000000 0.000000000000000 
1
1.000000000000000 0.000000000000000 0.000000000000000 0.000000000000000 
0.000000000000000 1.000000000000000 0.000000000000000 0.000000000000000 
0.000000000000000 0.000000000000000 1.000000000000000 0.000000000000000 
1
1.000000000000000 0.000000000000000 0.000000000000000 0.000000000000000 
0.000000000000000 1.000000000000000 0.000000000000000 0.000000000000000 
0.000000000000000 0.000000000000000 1.000000000000000 0.000000000000000 
2  2 1 3 1 4 -1 0
1
1.000000000000000 0.000000000000000 0.000000000000000 -0.000000000000000 
0.000000000000000 1.000000000000000 0.000000000000000 -0.000000000000000 
0.000000000000000 0.000000000000000 1.000000000000000 -50.000000000000000 
2  2 1 3 1 4 -1 6 1 0
2  4 1 3 -1 2 -1 0
2  6 -1 4 1 3 -1 2 -1 0
2  4 -1 0
2  2 1 3 1 0
2  4 -1 6 1 0
Curve2ds 16
1 0.00000000000000000 0.00000000000000000 0.00000000000000000 -1.00000000000000000 
1 178.62982947869249983 0.00000000000000000 0.00000000000000000 -1.00000000000000000 
1 0.00000000000000000 0.00000000000000000 0.00000000000000000 -1.00000000000000000 
1 832.92736402538707807 0.00000000000000000 0.00000000000000000 -1.00000000000000000 
1 0.00000000000000000 0.00000000000000000 1.00000000000000000 0.00000000000000000 
1 0.00000000000000000 -50.00000000000000000 1.00000000000000000 0.00000000000000000 
1 454.48249642893733835 0.00000000000000000 0.00000000000000000 -1.00000000000000000 
1 0.00000000000000000 0.00000000000000000 0.00000000000000000 -1.00000000000000000 
1 0.00000000000000000 0.00000000000000000 1.00000000000000000 0.00000000000000000 
1 0.00000000000000000 -50.00000000000000000 1.00000000000000000 0.00000000000000000 
1 916.84207365086354002 0.00000000000000000 0.00000000000000000 -1.00000000000000000 
1 0.00000000000000000 0.00000000000000000 0.00000000000000000 -1.00000000000000000 
1 0.00000000000000000 0.00000000000000000 1.00000000000000000 0.00000000000000000 
1 0.00000000000000000 -50.00000000000000000 1.00000000000000000 0.00000000000000000 
1 0.00000000000000000 0.00000000000000000 1.00000000000000000 0.00000000000000000 
1 0.00000000000000000 -50.00000000000000000 1.00000000000000000 0.00000000000000000 
Curves 8
1 3344.30286422640892852 -1020.00000000000000000 0.00000000000000000 -0.00000000000000000 -0.00000000000000000 -1.00000000000000000 
1 3472.51750357106266165 -1843.00000000000000000 0.00000000000000000 -0.00000000000000000 -0.00000000000000000 -1.00000000000000000 
1 3344.30286422640892852 -1020.00000000000000000 0.00000000000000000 0.15393255748618415 -0.98808135684555987 0.00000000000000000 
1 3927.00000000000000000 -1843.00000000000000000 0.00000000000000000 -0.00000000000000000 -0.00000000000000000 -1.00000000000000000 
1 3472.51750357106266165 -1843.00000000000000000 0.00000000000000000 1.00000000000000000 0.00000000000000000 0.00000000000000000 
1 3522.93269370510142835 -1020.00000000000000000 0.00000000000000000 -0.00000000000000000 -0.00000000000000000 -1.00000000000000000 
1 3927.00000000000000000 -1843.00000000000000000 0.00000000000000000 -0.44071636534512787 0.89764641441771487 0.00000000000000000 
1 3522.93269370510142835 -1020.00000000000000000 0.00000000000000000 -1.00000000000000000 0.00000000000000000 0.00000000000000000 
Polygon3D 0
PolygonOnTriangulations 0
Surfaces 5
1 3344.30286422640892852 -1020.00000000000000000 0.00000000000000000 -0.98808135684555987 -0.15393255748618415 0.00000000000000000 0.15393255748618415 -0.98808135684555987 0.00000000000000000 0.00000000000000000 0.00000000000000000 1.00000000000000000 
1 3522.93269370510142835 -1020.00000000000000000 0.00000000000000000 0.00000000000000000 1.00000000000000000 -0.00000000000000000 -1.00000000000000000 0.00000000000000000 0.00000000000000000 0.00000000000000000 0.00000000000000000 1.00000000000000000 
1 3472.51750357106266165 -1843.00000000000000000 0.00000000000000000 0.00000000000000000 -1.00000000000000000 0.00000000000000000 1.00000000000000000 0.00000000000000000 0.00000000000000000 -0.00000000000000000 0.00000000000000000 1.00000000000000000 
1 3927.00000000000000000 -1843.00000000000000000 0.00000000000000000 0.89764641441771487 0.44071636534512787 -0.00000000000000000 -0.44071636534512787 0.89764641441771487 0.00000000000000000 0.00000000000000000 0.00000000000000000 1.00000000000000000 
1 3587.66694278201202906 -1479.13701421731457231 0.00000000000000000 0.00000000000000000 0.00000000000000000 1.00000000000000000 1.00000000000000000 0.00000000000000000 -0.00000000000000000 -0.00000000000000000 1.00000000000000000 0.00000000000000000 
Triangulations 0

TShapes 24
Ve
0.000000100000000
3344.302864226408929 -1020.000000000000000 0.000000000000000
0 0

0101101
*
Ed
 0.000000100000000 1 1 0
1  1 0 0.000000000000000 50.000000000000000
2  1 1 0 0.000000000000000 50.000000000000000
2  2 2 0 0.000000000000000 50.000000000000000
0

0101000
+24 5 -24 7 *
Ve
0.000000100000000
3472.517503571062662 -1843.000000000000000 0.000000000000000
0 0

0101101
*
Ed
 0.000000100000000 1 1 0
1  2 0 0.000000000000000 50.000000000000000
2  3 3 0 0.000000000000000 50.000000000000000
2  4 1 0 0.000000000000000 50.000000000000000
0

0101000
+22 5 -22 7 *
Ed
 0.000000100000000 1 1 0
1  3 0 0.000000000000000 832.927364025387078
2  5 1 8 0.000000000000000 832.927364025387078
2  6 1 9 0.000000000000000 832.927364025387078
0

0101000
+24 0 -22 0 *
Wi

0101100
+23 0 -21 0 -20 5 +20 7 *
Fa
0  0.000000100000000 1 0

0111000
+19 0 *
Ve
0.000000100000000
3927.000000000000000 -1843.000000000000000 0.000000000000000
0 0

0101101
*
Ed
 0.000000100000000 1 1 0
1  4 0 0.000000000000000 50.000000000000000
2  7 3 0 0.000000000000000 50.000000000000000
2  8 4 0 0.000000000000000 50.000000000000000
0

0101000
+17 5 -17 7 *
Ed
 0.000000100000000 1 1 0
1  5 0 0.000000000000000 454.482496428937338
2  9 3 8 0.000000000000000 454.482496428937338
2  10 3 9 0.000000000000000 454.482496428937338
0

0101000
+22 0 -17 0 *
Wi

0101100
+21 0 -16 0 -15 5 +15 7 *
Fa
0  0.000000100000000 3 0

0111000
+14 0 *
Ve
0.000000100000000
3522.932693705101428 -1020.000000000000000 0.000000000000000
0 0

0101101
*
Ed
 0.000000100000000 1 1 0
1  6 0 0.000000000000000 50.000000000000000
2  11 4 0 0.000000000000000 50.000000000000000
2  12 2 0 0.000000000000000 50.000000000000000
0

0101000
+12 5 -12 7 *
Ed
 0.000000100000000 1 1 0
1  7 0 0.000000000000000 916.842073650863540
2  13 4 8 0.000000000000000 916.842073650863540
2  14 4 9 0.000000000000000 916.842073650863540
0

0101000
+17 0 -12 0 *
Wi

0101100
+16 0 -11 0 -10 5 +10 7 *
Fa
0  0.000000100000000 4 0

0111000
+9 0 *
Ed
 0.000000100000000 1 1 0
1  8 0 0.000000000000000 178.629829478692500
2  15 2 8 0.000000000000000 178.629829478692500
2  16 2 9 0.000000000000000 178.629829478692500
0

0101000
+12 0 -24 0 *
Wi

0101100
+11 0 -23 0 -7 5 +7 7 *
Fa
0  0.000000100000000 2 0

0111000
+6 0 *
Wi

0101100
+20 0 +15 0 +10 0 +7 0 *
Fa
0  0.000000100000000 5 0

0111000
+4 11 *
Sh

0101100
+18 0 +13 0 +8 0 +5 0 +3 10 -3 12 *
So

1100000
+2 0 *

+1 1 