
CASCADE Topology V1, (c) Matra-Datavision
Locations 12
1
1.000000000000000 0.000000000000000 0.000000000000000 0.000000000000000 
0.000000000000000 1.000000000000000 0.000000000000000 0.000000000000000 
0.000000000000000 0.000000000000000 1.000000000000000 0.000000000000000 
1
1.000000000000000 0.000000000000000 0.000000000000000 0.000000000000000 
0.000000000000000 -0.000000000000000 -1.000000000000000 0.000000000000000 
0.000000000000000 1.000000000000000 -0.000000000000000 0.000000000000000 
1
1.000000000000000 0.000000000000000 0.000000000000000 0.000000000000000 
0.000000000000000 -0.000000000000000 -1.000000000000000 0.000000000000000 
0.000000000000000 1.000000000000000 -0.000000000000000 0.000000000000000 
2  1 1 2 1 3 -1 0
1
1.000000000000000 0.000000000000000 0.000000000000000 -0.000000000000000 
0.000000000000000 1.000000000000000 0.000000000000000 -0.000000000000000 
0.000000000000000 0.000000000000000 1.000000000000000 -15.000000000000000 
2  1 1 2 1 3 -1 5 1 0
2  2 -1 1 -1 0
2  3 1 2 -1 1 -1 0
2  5 -1 3 1 2 -1 1 -1 0
2  3 -1 0
2  1 1 2 1 0
2  3 -1 5 1 0
Curve2ds 56
1 -560.36748769641872059 571.32247601598737674 0.55582821424383277 -0.83129717685705629 
1 0.00000000000000000 0.00000000000000000 0.00000000000000000 -1.00000000000000000 
1 348.96601230358101020 -788.67752398389256996 0.00000000000000000 -1.00000000000000000 
1 250.00000000000000000 0.00000000000000000 0.00000000000000000 -1.00000000000000000 
1 348.96601230358101020 -1535.64236278088219478 1.00000000000000000 -0.00000000000000000 
1 0.00000000000000000 0.00000000000000000 1.00000000000000000 0.00000000000000000 
1 0.00000000000000000 -15.00000000000000000 1.00000000000000000 0.00000000000000000 
1 598.96601230358101020 -1535.64236278088219478 0.00000000000000000 1.00000000000000000 
1 598.96601230358101020 -712.79849390786193908 -0.55582821424383255 0.83129717685705640 
1 250.00000000000000000 0.00000000000000000 0.00000000000000000 -1.00000000000000000 
1 -310.36748769641872059 1547.35763721911780522 0.00000000000000000 -1.00000000000000000 
1 0.00000000000000000 0.00000000000000000 0.00000000000000000 -1.00000000000000000 
1 -560.36748769641872059 1547.35763721911780522 1.00000000000000000 -0.00000000000000000 
1 0.00000000000000000 0.00000000000000000 1.00000000000000000 0.00000000000000000 
1 0.00000000000000000 -15.00000000000000000 1.00000000000000000 0.00000000000000000 
1 -560.36748769641872059 571.32247601598737674 0.00000000000000000 1.00000000000000000 
1 0.00000000000000000 0.00000000000000000 0.00000000000000000 -1.00000000000000000 
1 6.28318530717958623 0.00000000000000000 0.00000000000000000 -1.00000000000000000 
1 0.00000000000000000 0.00000000000000000 1.00000000000000000 0.00000000000000000 
1 0.00000000000000000 -15.00000000000000000 1.00000000000000000 0.00000000000000000 
2 202.09931230358142784 -433.64236278088219478 0.00000000000000000 1.00000000000000000 -1.00000000000000000 0.00000000000000000 5.00000000000000000
1 0.00000000000000000 0.00000000000000000 0.00000000000000000 -1.00000000000000000 
1 6.28318530717958623 0.00000000000000000 0.00000000000000000 -1.00000000000000000 
1 0.00000000000000000 0.00000000000000000 1.00000000000000000 0.00000000000000000 
1 0.00000000000000000 -15.00000000000000000 1.00000000000000000 0.00000000000000000 
2 202.09931230358142784 -281.64236278088219478 0.00000000000000000 1.00000000000000000 -1.00000000000000000 0.00000000000000000 5.00000000000000000
1 0.00000000000000000 0.00000000000000000 0.00000000000000000 -1.00000000000000000 
1 6.28318530717958623 0.00000000000000000 0.00000000000000000 -1.00000000000000000 
1 0.00000000000000000 0.00000000000000000 1.00000000000000000 0.00000000000000000 
1 0.00000000000000000 -15.00000000000000000 1.00000000000000000 0.00000000000000000 
2 20.23261230358093599 -161.64236278088219478 0.00000000000000000 1.00000000000000000 -1.00000000000000000 0.00000000000000000 5.00000000000000000
1 0.00000000000000000 0.00000000000000000 0.00000000000000000 -1.00000000000000000 
1 6.28318530717958623 0.00000000000000000 0.00000000000000000 -1.00000000000000000 
1 0.00000000000000000 0.00000000000000000 1.00000000000000000 0.00000000000000000 
1 0.00000000000000000 -15.00000000000000000 1.00000000000000000 0.00000000000000000 
2 20.23261230358093599 -9.64236278088219478 0.00000000000000000 1.00000000000000000 -1.00000000000000000 0.00000000000000000 5.00000000000000000
1 0.00000000000000000 0.00000000000000000 0.00000000000000000 -1.00000000000000000 
1 6.28318530717958623 0.00000000000000000 0.00000000000000000 -1.00000000000000000 
1 0.00000000000000000 0.00000000000000000 1.00000000000000000 0.00000000000000000 
1 0.00000000000000000 -15.00000000000000000 1.00000000000000000 0.00000000000000000 
2 -161.63408769641864637 110.35763721911780522 0.00000000000000000 1.00000000000000000 -1.00000000000000000 0.00000000000000000 5.00000000000000000
1 0.00000000000000000 0.00000000000000000 0.00000000000000000 -1.00000000000000000 
1 6.28318530717958623 0.00000000000000000 0.00000000000000000 -1.00000000000000000 
1 0.00000000000000000 0.00000000000000000 1.00000000000000000 0.00000000000000000 
1 0.00000000000000000 -15.00000000000000000 1.00000000000000000 0.00000000000000000 
2 -161.63408769641864637 262.35763721911780522 0.00000000000000000 1.00000000000000000 -1.00000000000000000 0.00000000000000000 5.00000000000000000
1 0.00000000000000000 0.00000000000000000 0.00000000000000000 -1.00000000000000000 
1 6.28318530717958623 0.00000000000000000 0.00000000000000000 -1.00000000000000000 
1 0.00000000000000000 0.00000000000000000 1.00000000000000000 0.00000000000000000 
1 0.00000000000000000 -15.00000000000000000 1.00000000000000000 0.00000000000000000 
2 -343.50078769641822873 382.35763721911780522 0.00000000000000000 1.00000000000000000 -1.00000000000000000 0.00000000000000000 5.00000000000000000
1 0.00000000000000000 0.00000000000000000 0.00000000000000000 -1.00000000000000000 
1 6.28318530717958623 0.00000000000000000 0.00000000000000000 -1.00000000000000000 
1 0.00000000000000000 0.00000000000000000 1.00000000000000000 0.00000000000000000 
1 0.00000000000000000 -15.00000000000000000 1.00000000000000000 0.00000000000000000 
2 -343.50078769641822873 534.35763721911780522 0.00000000000000000 1.00000000000000000 -1.00000000000000000 0.00000000000000000 5.00000000000000000
Curves 32
1 2133.96483879686957152 5872.00050000000010186 0.00000000000000000 -0.00000000000000000 -0.00000000000000000 -1.00000000000000000 
1 773.96483879698962483 4962.66700000000037107 0.00000000000000000 -0.00000000000000000 -0.00000000000000000 -1.00000000000000000 
1 2133.96483879686957152 5872.00050000000010186 0.00000000000000000 -0.83129717685705629 -0.55582821424383277 0.00000000000000000 
1 27.00000000000000000 4962.66700000000037107 0.00000000000000000 -0.00000000000000000 -0.00000000000000000 -1.00000000000000000 
1 773.96483879698962483 4962.66700000000037107 0.00000000000000000 -1.00000000000000000 0.00000000000000000 0.00000000000000000 
1 27.00000000000000000 4712.66700000000037107 0.00000000000000000 -0.00000000000000000 -0.00000000000000000 -1.00000000000000000 
1 27.00000000000000000 4962.66700000000037107 0.00000000000000000 0.00000000000000000 -1.00000000000000000 0.00000000000000000 
1 849.84386887302025571 4712.66700000000037107 0.00000000000000000 -0.00000000000000000 -0.00000000000000000 -1.00000000000000000 
1 27.00000000000000000 4712.66700000000037107 0.00000000000000000 1.00000000000000000 0.00000000000000000 0.00000000000000000 
1 2209.84386887290065715 5622.00050000000010186 0.00000000000000000 -0.00000000000000000 -0.00000000000000000 -1.00000000000000000 
1 849.84386887302025571 4712.66700000000037107 0.00000000000000000 0.83129717685705640 0.55582821424383255 0.00000000000000000 
1 3110.00000000000000000 5622.00050000000010186 0.00000000000000000 -0.00000000000000000 -0.00000000000000000 -1.00000000000000000 
1 3110.00000000000000000 5622.00050000000010186 0.00000000000000000 -1.00000000000000000 0.00000000000000000 0.00000000000000000 
1 3110.00000000000000000 5872.00050000000010186 0.00000000000000000 -0.00000000000000000 -0.00000000000000000 -1.00000000000000000 
1 3110.00000000000000000 5872.00050000000010186 0.00000000000000000 0.00000000000000000 -1.00000000000000000 0.00000000000000000 
1 2133.96483879686957152 5872.00050000000010186 0.00000000000000000 1.00000000000000000 0.00000000000000000 0.00000000000000000 
1 1134.00000000000000000 5109.53369999999995343 0.00000000000000000 -0.00000000000000000 -0.00000000000000000 -1.00000000000000000 
2 1129.00000000000000000 5109.53369999999995343 0.00000000000000000 0.00000000000000000 0.00000000000000000 1.00000000000000000 1.00000000000000000 0.00000000000000000 -0.00000000000000000 -0.00000000000000000 1.00000000000000000 0.00000000000000000 5.00000000000000000
1 1286.00000000000000000 5109.53369999999995343 0.00000000000000000 -0.00000000000000000 -0.00000000000000000 -1.00000000000000000 
2 1281.00000000000000000 5109.53369999999995343 0.00000000000000000 0.00000000000000000 0.00000000000000000 1.00000000000000000 1.00000000000000000 0.00000000000000000 -0.00000000000000000 -0.00000000000000000 1.00000000000000000 0.00000000000000000 5.00000000000000000
1 1406.00000000000000000 5291.40040000000044529 0.00000000000000000 -0.00000000000000000 -0.00000000000000000 -1.00000000000000000 
2 1401.00000000000000000 5291.40040000000044529 0.00000000000000000 0.00000000000000000 0.00000000000000000 1.00000000000000000 1.00000000000000000 0.00000000000000000 -0.00000000000000000 -0.00000000000000000 1.00000000000000000 0.00000000000000000 5.00000000000000000
1 1558.00000000000000000 5291.40040000000044529 0.00000000000000000 -0.00000000000000000 -0.00000000000000000 -1.00000000000000000 
2 1553.00000000000000000 5291.40040000000044529 0.00000000000000000 0.00000000000000000 0.00000000000000000 1.00000000000000000 1.00000000000000000 0.00000000000000000 -0.00000000000000000 -0.00000000000000000 1.00000000000000000 0.00000000000000000 5.00000000000000000
1 1678.00000000000000000 5473.26710000000002765 0.00000000000000000 -0.00000000000000000 -0.00000000000000000 -1.00000000000000000 
2 1673.00000000000000000 5473.26710000000002765 0.00000000000000000 0.00000000000000000 0.00000000000000000 1.00000000000000000 1.00000000000000000 0.00000000000000000 -0.00000000000000000 -0.00000000000000000 1.00000000000000000 0.00000000000000000 5.00000000000000000
1 1830.00000000000000000 5473.26710000000002765 0.00000000000000000 -0.00000000000000000 -0.00000000000000000 -1.00000000000000000 
2 1825.00000000000000000 5473.26710000000002765 0.00000000000000000 0.00000000000000000 0.00000000000000000 1.00000000000000000 1.00000000000000000 0.00000000000000000 -0.00000000000000000 -0.00000000000000000 1.00000000000000000 0.00000000000000000 5.00000000000000000
1 1950.00000000000000000 5655.13379999999961001 0.00000000000000000 -0.00000000000000000 -0.00000000000000000 -1.00000000000000000 
2 1945.00000000000000000 5655.13379999999961001 0.00000000000000000 0.00000000000000000 0.00000000000000000 1.00000000000000000 1.00000000000000000 0.00000000000000000 -0.00000000000000000 -0.00000000000000000 1.00000000000000000 0.00000000000000000 5.00000000000000000
1 2102.00000000000000000 5655.13379999999961001 0.00000000000000000 -0.00000000000000000 -0.00000000000000000 -1.00000000000000000 
2 2097.00000000000000000 5655.13379999999961001 0.00000000000000000 0.00000000000000000 0.00000000000000000 1.00000000000000000 1.00000000000000000 0.00000000000000000 -0.00000000000000000 -0.00000000000000000 1.00000000000000000 0.00000000000000000 5.00000000000000000
Polygon3D 0
PolygonOnTriangulations 0
Surfaces 17
1 2133.96483879686957152 5872.00050000000010186 0.00000000000000000 -0.55582821424383277 0.83129717685705629 0.00000000000000000 -0.83129717685705629 -0.55582821424383277 0.00000000000000000 0.00000000000000000 0.00000000000000000 1.00000000000000000 
1 1562.64236278088219478 -0.00000000000117942 5311.63301230358138127 -0.00000000000000000 -1.00000000000000000 -0.00000000000000022 0.00000000000000000 0.00000000000000022 -1.00000000000000000 1.00000000000000000 -0.00000000000000000 0.00000000000000000 
1 773.96483879698962483 4962.66700000000037107 0.00000000000000000 0.00000000000000000 1.00000000000000000 -0.00000000000000000 -1.00000000000000000 0.00000000000000000 0.00000000000000000 0.00000000000000000 0.00000000000000000 1.00000000000000000 
1 27.00000000000000000 4962.66700000000037107 0.00000000000000000 -1.00000000000000000 0.00000000000000000 0.00000000000000000 0.00000000000000000 -1.00000000000000000 0.00000000000000000 0.00000000000000000 0.00000000000000000 1.00000000000000000 
1 27.00000000000000000 4712.66700000000037107 0.00000000000000000 0.00000000000000000 -1.00000000000000000 0.00000000000000000 1.00000000000000000 0.00000000000000000 0.00000000000000000 -0.00000000000000000 0.00000000000000000 1.00000000000000000 
1 849.84386887302025571 4712.66700000000037107 0.00000000000000000 0.55582821424383255 -0.83129717685705640 0.00000000000000000 0.83129717685705640 0.55582821424383255 0.00000000000000000 -0.00000000000000000 0.00000000000000000 1.00000000000000000 
1 3110.00000000000000000 5622.00050000000010186 0.00000000000000000 0.00000000000000000 1.00000000000000000 -0.00000000000000000 -1.00000000000000000 0.00000000000000000 0.00000000000000000 0.00000000000000000 0.00000000000000000 1.00000000000000000 
1 3110.00000000000000000 5872.00050000000010186 0.00000000000000000 -1.00000000000000000 0.00000000000000000 0.00000000000000000 0.00000000000000000 -1.00000000000000000 0.00000000000000000 0.00000000000000000 0.00000000000000000 1.00000000000000000 
1 2133.96483879686957152 5872.00050000000010186 0.00000000000000000 0.00000000000000000 -1.00000000000000000 0.00000000000000000 1.00000000000000000 0.00000000000000000 0.00000000000000000 -0.00000000000000000 0.00000000000000000 1.00000000000000000 
2 1129.00000000000000000 5109.53369999999995343 0.00000000000000000 0.00000000000000000 0.00000000000000000 1.00000000000000000 1.00000000000000000 0.00000000000000000 -0.00000000000000000 -0.00000000000000000 1.00000000000000000 0.00000000000000000 5.00000000000000000
2 1281.00000000000000000 5109.53369999999995343 0.00000000000000000 0.00000000000000000 0.00000000000000000 1.00000000000000000 1.00000000000000000 0.00000000000000000 -0.00000000000000000 -0.00000000000000000 1.00000000000000000 0.00000000000000000 5.00000000000000000
2 1401.00000000000000000 5291.40040000000044529 0.00000000000000000 0.00000000000000000 0.00000000000000000 1.00000000000000000 1.00000000000000000 0.00000000000000000 -0.00000000000000000 -0.00000000000000000 1.00000000000000000 0.00000000000000000 5.00000000000000000
2 1553.00000000000000000 5291.40040000000044529 0.00000000000000000 0.00000000000000000 0.00000000000000000 1.00000000000000000 1.00000000000000000 0.00000000000000000 -0.00000000000000000 -0.00000000000000000 1.00000000000000000 0.00000000000000000 5.00000000000000000
2 1673.00000000000000000 5473.26710000000002765 0.00000000000000000 0.00000000000000000 0.00000000000000000 1.00000000000000000 1.00000000000000000 0.00000000000000000 -0.00000000000000000 -0.00000000000000000 1.00000000000000000 0.00000000000000000 5.00000000000000000
2 1825.00000000000000000 5473.26710000000002765 0.00000000000000000 0.00000000000000000 0.00000000000000000 1.00000000000000000 1.00000000000000000 0.00000000000000000 -0.00000000000000000 -0.00000000000000000 1.00000000000000000 0.00000000000000000 5.00000000000000000
2 1945.00000000000000000 5655.13379999999961001 0.00000000000000000 0.00000000000000000 0.00000000000000000 1.00000000000000000 1.00000000000000000 0.00000000000000000 -0.00000000000000000 -0.00000000000000000 1.00000000000000000 0.00000000000000000 5.00000000000000000
2 2097.00000000000000000 5655.13379999999961001 0.00000000000000000 0.00000000000000000 0.00000000000000000 1.00000000000000000 1.00000000000000000 0.00000000000000000 -0.00000000000000000 -0.00000000000000000 1.00000000000000000 0.00000000000000000 5.00000000000000000
Triangulations 0

TShapes 92
Ve
0.000000100000000
2133.964838796869572 5872.000500000000102 0.000000000000000
0 0

0101101
*
Ed
 0.000000100000000 1 1 0
1  1 0 0.000000000000000 15.000000000000000
0

0101000
+92 4 -92 6 *
Ve
0.000000100000000
773.964838796989625 4962.667000000000371 0.000000000000000
0 0

0101101
*
Ed
 0.000000100000000 1 1 0
1  2 0 0.000000000000000 15.000000000000000
0

0101000
+90 4 -90 6 *
Ed
 0.000000100000000 1 1 0
1  3 0 0.000000000000000 1635.997375982590938
2  1 2 7 0.000000000000000 1635.997375982590938
0

0101000
+92 0 -90 0 *
Wi

0101100
+91 0 -89 0 -88 4 +88 6 *
Fa
0  0.000000100000000 1 0

0111000
+87 0 *
Ve
0.000000100000000
27.000000000000000 4962.667000000000371 0.000000000000000
0 0

0101101
*
Ed
 0.000000100000000 1 1 0
1  4 0 0.000000000000000 15.000000000000000
2  2 4 0 0.000000000000000 15.000000000000000
0

0101000
+85 4 -85 6 *
Ed
 0.000000100000000 1 1 0
1  5 0 0.000000000000000 746.964838796989625
2  3 2 7 0.000000000000000 746.964838796989625
0

0101000
+90 0 -85 0 *
Wi

0101100
+89 0 -84 0 -83 4 +83 6 *
Fa
0  0.000000100000000 3 0

0111000
+82 0 *
Ve
0.000000100000000
27.000000000000000 4712.667000000000371 0.000000000000000
0 0

0101101
*
Ed
 0.000000100000000 1 1 0
1  6 0 0.000000000000000 15.000000000000000
2  4 4 0 0.000000000000000 15.000000000000000
0

0101000
+80 4 -80 6 *
Ed
 0.000000100000000 1 1 0
1  7 0 0.000000000000000 250.000000000000000
2  5 2 7 0.000000000000000 250.000000000000000
2  6 4 8 0.000000000000000 250.000000000000000
2  7 4 9 0.000000000000000 250.000000000000000
0

0101000
+85 0 -80 0 *
Wi

0101100
+84 0 -79 0 -78 4 +78 6 *
Fa
0  0.000000100000000 4 0

0111000
+77 0 *
Ve
0.000000100000000
849.843868873020256 4712.667000000000371 0.000000000000000
0 0

0101101
*
Ed
 0.000000100000000 1 1 0
1  8 0 0.000000000000000 15.000000000000000
0

0101000
+75 4 -75 6 *
Ed
 0.000000100000000 1 1 0
1  9 0 0.000000000000000 822.843868873020256
2  8 2 7 0.000000000000000 822.843868873020256
0

0101000
+80 0 -75 0 *
Wi

0101100
+79 0 -74 0 -73 4 +73 6 *
Fa
0  0.000000100000000 5 0

0111000
+72 0 *
Ve
0.000000100000000
2209.843868872900657 5622.000500000000102 0.000000000000000
0 0

0101101
*
Ed
 0.000000100000000 1 1 0
1  10 0 0.000000000000000 15.000000000000000
0

0101000
+70 4 -70 6 *
Ed
 0.000000100000000 1 1 0
1  11 0 0.000000000000000 1635.997375982591393
2  9 2 7 0.000000000000000 1635.997375982591393
0

0101000
+75 0 -70 0 *
Wi

0101100
+74 0 -69 0 -68 4 +68 6 *
Fa
0  0.000000100000000 6 0

0111000
+67 0 *
Ve
0.000000100000000
3110.000000000000000 5622.000500000000102 0.000000000000000
0 0

0101101
*
Ed
 0.000000100000000 1 1 0
1  12 0 0.000000000000000 15.000000000000000
2  10 8 0 0.000000000000000 15.000000000000000
0

0101000
+65 4 -65 6 *
Ed
 0.000000100000000 1 1 0
1  13 0 0.000000000000000 900.156131127099343
2  11 2 7 0.000000000000000 900.156131127099343
0

0101000
+65 0 -70 0 *
Wi

0101100
+64 0 -69 0 -63 4 +63 6 *
Fa
0  0.000000100000000 7 0

0111000
+62 0 *
Ve
0.000000100000000
3110.000000000000000 5872.000500000000102 0.000000000000000
0 0

0101101
*
Ed
 0.000000100000000 1 1 0
1  14 0 0.000000000000000 15.000000000000000
2  12 8 0 0.000000000000000 15.000000000000000
0

0101000
+60 4 -60 6 *
Ed
 0.000000100000000 1 1 0
1  15 0 0.000000000000000 250.000000000000000
2  13 2 7 0.000000000000000 250.000000000000000
2  14 8 8 0.000000000000000 250.000000000000000
2  15 8 9 0.000000000000000 250.000000000000000
0

0101000
+60 0 -65 0 *
Wi

0101100
+59 0 -64 0 -58 4 +58 6 *
Fa
0  0.000000100000000 8 0

0111000
+57 0 *
Ed
 0.000000100000000 1 1 0
1  16 0 0.000000000000000 976.035161203130428
2  16 2 7 0.000000000000000 976.035161203130428
0

0101000
+92 0 -60 0 *
Wi

0101100
+91 0 -59 0 -55 4 +55 6 *
Fa
0  0.000000100000000 9 0

0111000
+54 0 *
Ve
0.000000100000000
1134.000000000000000 5109.533699999999953 0.000000000000000
0 0

0101101
*
Ed
 0.000000100000000 1 1 0
1  17 0 0.000000000000000 15.000000000000000
3  17 18CN 10 0 0.000000000000000 15.000000000000000
0

0101000
+52 4 -52 6 *
Ed
 0.000000100000000 1 1 0
1  18 0 0.000000000000000 6.283185307179586
2  19 10 8 0.000000000000000 6.283185307179586
2  20 10 9 0.000000000000000 6.283185307179586
2  21 2 7 0.000000000000000 6.283185307179586
0

0101000
+52 0 -52 0 *
Wi

0101100
+51 0 -51 0 -50 4 +50 6 *
Fa
0  0.000000100000000 10 0

0111000
+49 0 *
Ve
0.000000100000000
1286.000000000000000 5109.533699999999953 0.000000000000000
0 0

0101101
*
Ed
 0.000000100000000 1 1 0
1  19 0 0.000000000000000 15.000000000000000
3  22 23CN 11 0 0.000000000000000 15.000000000000000
0

0101000
+47 4 -47 6 *
Ed
 0.000000100000000 1 1 0
1  20 0 0.000000000000000 6.283185307179586
2  24 11 8 0.000000000000000 6.283185307179586
2  25 11 9 0.000000000000000 6.283185307179586
2  26 2 7 0.000000000000000 6.283185307179586
0

0101000
+47 0 -47 0 *
Wi

0101100
+46 0 -46 0 -45 4 +45 6 *
Fa
0  0.000000100000000 11 0

0111000
+44 0 *
Ve
0.000000100000000
1406.000000000000000 5291.400400000000445 0.000000000000000
0 0

0101101
*
Ed
 0.000000100000000 1 1 0
1  21 0 0.000000000000000 15.000000000000000
3  27 28CN 12 0 0.000000000000000 15.000000000000000
0

0101000
+42 4 -42 6 *
Ed
 0.000000100000000 1 1 0
1  22 0 0.000000000000000 6.283185307179586
2  29 12 8 0.000000000000000 6.283185307179586
2  30 12 9 0.000000000000000 6.283185307179586
2  31 2 7 0.000000000000000 6.283185307179586
0

0101000
+42 0 -42 0 *
Wi

0101100
+41 0 -41 0 -40 4 +40 6 *
Fa
0  0.000000100000000 12 0

0111000
+39 0 *
Ve
0.000000100000000
1558.000000000000000 5291.400400000000445 0.000000000000000
0 0

0101101
*
Ed
 0.000000100000000 1 1 0
1  23 0 0.000000000000000 15.000000000000000
3  32 33CN 13 0 0.000000000000000 15.000000000000000
0

0101000
+37 4 -37 6 *
Ed
 0.000000100000000 1 1 0
1  24 0 0.000000000000000 6.283185307179586
2  34 13 8 0.000000000000000 6.283185307179586
2  35 13 9 0.000000000000000 6.283185307179586
2  36 2 7 0.000000000000000 6.283185307179586
0

0101000
+37 0 -37 0 *
Wi

0101100
+36 0 -36 0 -35 4 +35 6 *
Fa
0  0.000000100000000 13 0

0111000
+34 0 *
Ve
0.000000100000000
1678.000000000000000 5473.267100000000028 0.000000000000000
0 0

0101101
*
Ed
 0.000000100000000 1 1 0
1  25 0 0.000000000000000 15.000000000000000
3  37 38CN 14 0 0.000000000000000 15.000000000000000
0

0101000
+32 4 -32 6 *
Ed
 0.000000100000000 1 1 0
1  26 0 0.000000000000000 6.283185307179586
2  39 14 8 0.000000000000000 6.283185307179586
2  40 14 9 0.000000000000000 6.283185307179586
2  41 2 7 0.000000000000000 6.283185307179586
0

0101000
+32 0 -32 0 *
Wi

0101100
+31 0 -31 0 -30 4 +30 6 *
Fa
0  0.000000100000000 14 0

0111000
+29 0 *
Ve
0.000000100000000
1830.000000000000000 5473.267100000000028 0.000000000000000
0 0

0101101
*
Ed
 0.000000100000000 1 1 0
1  27 0 0.000000000000000 15.000000000000000
3  42 43CN 15 0 0.000000000000000 15.000000000000000
0

0101000
+27 4 -27 6 *
Ed
 0.000000100000000 1 1 0
1  28 0 0.000000000000000 6.283185307179586
2  44 15 8 0.000000000000000 6.283185307179586
2  45 15 9 0.000000000000000 6.283185307179586
2  46 2 7 0.000000000000000 6.283185307179586
0

0101000
+27 0 -27 0 *
Wi

0101100
+26 0 -26 0 -25 4 +25 6 *
Fa
0  0.000000100000000 15 0

0111000
+24 0 *
Ve
0.000000100000000
1950.000000000000000 5655.133799999999610 0.000000000000000
0 0

0101101
*
Ed
 0.000000100000000 1 1 0
1  29 0 0.000000000000000 15.000000000000000
3  47 48CN 16 0 0.000000000000000 15.000000000000000
0

0101000
+22 4 -22 6 *
Ed
 0.000000100000000 1 1 0
1  30 0 0.000000000000000 6.283185307179586
2  49 16 8 0.000000000000000 6.283185307179586
2  50 16 9 0.000000000000000 6.283185307179586
2  51 2 7 0.000000000000000 6.283185307179586
0

0101000
+22 0 -22 0 *
Wi

0101100
+21 0 -21 0 -20 4 +20 6 *
Fa
0  0.000000100000000 16 0

0111000
+19 0 *
Ve
0.000000100000000
2102.000000000000000 5655.133799999999610 0.000000000000000
0 0

0101101
*
Ed
 0.000000100000000 1 1 0
1  31 0 0.000000000000000 15.000000000000000
3  52 53CN 17 0 0.000000000000000 15.000000000000000
0

0101000
+17 4 -17 6 *
Ed
 0.000000100000000 1 1 0
1  32 0 0.000000000000000 6.283185307179586
2  54 17 8 0.000000000000000 6.283185307179586
2  55 17 9 0.000000000000000 6.283185307179586
2  56 2 7 0.000000000000000 6.283185307179586
0

0101000
+17 0 -17 0 *
Wi

0101100
+16 0 -16 0 -15 4 +15 6 *
Fa
0  0.000000100000000 17 0

0111000
+14 0 *
Wi

0101100
+88 11 +83 11 +78 11 +73 11 +68 11 -63 11 -58 11 -55 11 *
Wi

0101100
-50 11 *
Wi

0101100
-45 11 *
Wi

0101100
-40 11 *
Wi

0101100
-35 11 *
Wi

0101100
-30 11 *
Wi

0101100
-25 11 *
Wi

0101100
-20 11 *
Wi

0101100
-15 11 *
Fa
0  0.000000100000000 2 0

0111000
+12 0 +11 0 +10 0 +9 0 +8 0 +7 0 +6 0 +5 0 +4 0 *
Sh

0101100
+86 0 +81 0 +76 0 +71 0 +66 0 -61 0 -56 0 -53 0 -48 0 -43 0 
-38 0 -33 0 -28 0 -23 0 -18 0 -13 0 +3 10 -3 12 *
So

1100000
+2 0 *

+1 0 