
CASCADE Topology V1, (c) Matra-Datavision
Locations 16
1
1.000000000000000 0.000000000000000 0.000000000000000 0.000000000000000 
0.000000000000000 1.000000000000000 0.000000000000000 0.000000000000000 
0.000000000000000 0.000000000000000 1.000000000000000 0.000000000000000 
1
-0.000000000000000 1.000000000000000 0.000000000000001 -0.000000000000624 
0.000000000000000 -0.000000000000001 1.000000000000000 -937.000000000000227 
1.000000000000000 0.000000000000000 -0.000000000000000 0.000000000000104 
1
-0.000000000000000 0.000000000000000 1.000000000000000 0.000000000000000 
1.000000000000000 -0.000000000000000 0.000000000000000 0.000000000000000 
0.000000000000000 1.000000000000000 -0.000000000000000 0.000000000000000 
2  1 1 2 1 3 -1 0
1
1.000000000000000 0.000000000000000 0.000000000000000 -15.000000000000000 
0.000000000000000 1.000000000000000 0.000000000000000 0.000000000000007 
0.000000000000000 0.000000000000000 1.000000000000000 -0.000000000000007 
2  1 1 2 1 3 -1 5 1 0
2  3 1 2 -1 1 -1 0
2  5 -1 3 1 2 -1 1 -1 0
2  2 -1 1 -1 0
1
-0.000000000000000 0.000000000000000 1.000000000000000 0.000000000000000 
1.000000000000000 -0.000000000000000 0.000000000000000 0.000000000000000 
0.000000000000000 1.000000000000000 -0.000000000000000 0.000000000000000 
1
1.000000000000000 0.000000000000000 0.000000000000000 0.000000000000010 
0.000000000000000 1.000000000000000 0.000000000000000 -0.000000000000007 
0.000000000000000 0.000000000000000 1.000000000000000 -15.000000000000000 
1
0.000000000000000 -0.000000000000000 1.000000000000000 0.000000000000000 
1.000000000000000 0.000000000000000 0.000000000000000 0.000000000000000 
-0.000000000000000 1.000000000000000 0.000000000000000 0.000000000000000 
2  10 -1 11 1 12 1 3 -1 5 -1 3 1 2 -1 1 -1 0
2  3 -1 0
2  1 1 2 1 0
2  3 -1 5 1 0
Curve2ds 27
1 0.00000000000000000 0.00000000000000000 -0.00000000000000022 -1.00000000000000000 
1 80.00000000000002842 0.00000000000007105 0.00000000000000039 -1.00000000000000000 
1 250.00000000000090949 -0.00000000000004430 -0.00000000000000022 -1.00000000000000000 
1 0.00000000000000000 0.00000000000000000 -0.00000000000000039 -1.00000000000000000 
1 0.00000000000000000 0.00000000000000000 1.00000000000000000 0.00000000000000000 
1 0.00000000000000416 -15.00000000000000000 1.00000000000000000 0.00000000000000000 
1 39.99999999999997158 -125.00000000000000000 0.00000000000000022 1.00000000000000000 
1 106.41974209391810291 -61.82712311930879423 -1.00000000000000000 -0.00000000000000028 
1 80.00000000000002842 0.00000000000004263 -0.00000000000000039 -1.00000000000000000 
1 0.00000000000000000 0.00000000000000000 1.00000000000000000 0.00000000000000000 
1 -0.00000000000000583 -15.00000000000000000 1.00000000000000000 0.00000000000000000 
1 40.00000000000002842 125.00000000000045475 -1.00000000000000000 0.00000000000000022 
1 0.00000000000000000 0.00000000000000000 0.00000000000000039 -1.00000000000000000 
1 -39.99999999999998579 125.00000000000045475 -0.00000000000000022 -1.00000000000000000 
1 0.00000000000000000 0.00000000000000000 1.00000000000000000 0.00000000000000000 
1 0.00000000000001332 -15.00000000000000000 1.00000000000000000 0.00000000000000000 
1 -40.00000000000004263 -125.00000000000000000 1.00000000000000000 -0.00000000000000022 
1 0.00000000000000000 0.00000000000000000 0.00000000000000000 -1.00000000000000000 
1 6.28318530717958623 0.00000000000000000 0.00000000000000000 -1.00000000000000000 
1 0.00000000000000000 0.00000000000000000 1.00000000000000000 0.00000000000000000 
1 0.00000000000000000 -15.00000000000000000 1.00000000000000000 0.00000000000000000 
2 0.00000000000000000 25.00000000000045475 -0.00000000000000022 -1.00000000000000000 1.00000000000000000 -0.00000000000000022 5.00000000000000000
1 0.00000000000000000 0.00000000000000000 0.00000000000000000 -1.00000000000000000 
1 6.28318530717958623 0.00000000000000000 0.00000000000000000 -1.00000000000000000 
1 0.00000000000000000 0.00000000000000000 1.00000000000000000 0.00000000000000000 
1 0.00000000000000000 -15.00000000000000000 1.00000000000000000 0.00000000000000000 
2 0.00000000000001421 85.00000000000045475 -0.00000000000000022 -1.00000000000000000 1.00000000000000000 -0.00000000000000022 5.00000000000000000
Curves 12
1 -936.99999999999954525 3134.00000000000363798 -0.00000000000242805 -1.00000000000000000 0.00000000000000050 -0.00000000000000050 
1 -936.99999999999965894 2884.00000000000272848 -0.00000000000231702 -1.00000000000000000 0.00000000000000050 -0.00000000000000050 
1 3134.00000000000136424 -0.00000000000041210 0.00000000000000000 -1.00000000000000000 0.00000000000000000 0.00000000000000000 
1 -936.99999999999954525 2884.00000000000272848 -80.00000000000234479 -1.00000000000000000 0.00000000000000050 -0.00000000000000050 
1 2884.00000000000136424 -0.00000000000041210 0.00000000000000000 0.00000000000000000 -1.00000000000000000 0.00000000000000000 
1 -936.99999999999954525 3134.00000000000363798 -80.00000000000245848 -1.00000000000000000 0.00000000000000050 -0.00000000000000050 
1 2884.00000000000136424 -80.00000000000041211 0.00000000000000000 1.00000000000000000 0.00000000000000000 0.00000000000000000 
1 3134.00000000000136424 -80.00000000000041211 0.00000000000000000 0.00000000000000000 1.00000000000000000 0.00000000000000000 
1 -936.99999999999954525 2989.00000000000272848 -40.00000000000238032 -1.00000000000000000 0.00000000000000050 -0.00000000000000050 
2 2984.00000000000136424 -40.00000000000041211 0.00000000000000000 0.00000000000000000 0.00000000000000000 1.00000000000000000 1.00000000000000000 0.00000000000000000 -0.00000000000000000 -0.00000000000000000 1.00000000000000000 0.00000000000000000 5.00000000000000000
1 -936.99999999999965894 2929.00000000000272848 -40.00000000000235190 -1.00000000000000000 0.00000000000000050 -0.00000000000000050 
2 2924.00000000000136424 -40.00000000000041211 0.00000000000000000 0.00000000000000000 0.00000000000000000 1.00000000000000000 1.00000000000000000 0.00000000000000000 -0.00000000000000000 -0.00000000000000000 1.00000000000000000 0.00000000000000000 5.00000000000000000
Polygon3D 0
PolygonOnTriangulations 0
Surfaces 8
1 -936.99999999999954525 3134.00000000000363798 -0.00000000000242804 -0.00000000000000050 0.00000000000000044 1.00000000000000000 -0.00000000000000028 -1.00000000000000000 0.00000000000000044 1.00000000000000000 -0.00000000000000028 0.00000000000000050 
1 -936.99999999999954525 3134.00000000000363798 -80.00000000000245848 0.00000000000000050 1.00000000000000000 -0.00000000000000022 -0.00000000000000089 0.00000000000000022 1.00000000000000000 1.00000000000000000 -0.00000000000000050 0.00000000000000089 
1 -936.99999999999965894 2884.00000000000272848 -0.00000000000231702 -0.00000000000000050 -1.00000000000000000 0.00000000000000022 0.00000000000000089 -0.00000000000000022 -1.00000000000000000 1.00000000000000000 -0.00000000000000050 0.00000000000000089 
1 -40.00000000000170530 -936.99999999999954525 3009.00000000000227374 0.00000000000000071 1.00000000000000000 -0.00000000000000023 1.00000000000000000 -0.00000000000000071 0.00000000000000000 -0.00000000000000000 -0.00000000000000023 -1.00000000000000000 
1 14.99999999999776001 -1013.82712311931049953 3027.58025790608644456 1.00000000000000000 -0.00000000000000044 0.00000000000000045 -0.00000000000000045 0.00000000000000000 1.00000000000000000 -0.00000000000000044 -1.00000000000000000 -0.00000000000000000 
1 -936.99999999999954525 2884.00000000000272848 -80.00000000000234479 0.00000000000000050 -0.00000000000000044 -1.00000000000000000 0.00000000000000028 1.00000000000000000 -0.00000000000000044 1.00000000000000000 -0.00000000000000028 0.00000000000000050 
2 -936.99999999999954525 2984.00000000000272848 -40.00000000000238032 1.00000000000000000 -0.00000000000000028 0.00000000000000089 0.00000000000000028 1.00000000000000000 -0.00000000000000044 -0.00000000000000089 0.00000000000000044 1.00000000000000000 5.00000000000000089
2 -936.99999999999965894 2924.00000000000272848 -40.00000000000235190 1.00000000000000000 -0.00000000000000028 0.00000000000000089 0.00000000000000028 1.00000000000000000 -0.00000000000000044 -0.00000000000000089 0.00000000000000044 1.00000000000000000 5.00000000000000089
Triangulations 0

TShapes 36
Ve
0.000000100001597
3134.000000000001364 -0.000000000000412 0.000000000000000
0 0

0101101
*
Ed
 0.000000100000000 1 1 0
1  1 0 0.000000000000000 15.000000000000000
2  1 1 0 0.000000000000000 15.000000000000000
2  2 2 0 0.000000000000000 15.000000000000000
0

0101000
+36 4 -36 6 *
Ve
0.000000100001492
2884.000000000001364 -0.000000000000412 0.000000000000000
0 0

0101101
*
Ed
 0.000000100000000 1 1 0
1  2 0 0.000000000000000 15.000000000000000
2  3 1 0 0.000000000000000 15.000000000000000
2  4 3 0 0.000000000000000 15.000000000000000
0

0101000
+34 4 -34 6 *
Ed
 0.000000100001483 1 1 0
1  3 0 0.000000000000000 250.000000000000000
2  5 1 7 0.000000000000000 250.000000000000000
2  6 1 8 0.000000000000000 250.000000000000000
2  7 4 9 0.000000000000000 250.000000000000000
2  8 5 13 0.000000000000000 250.000000000000000
0

0101000
+36 0 -34 0 *
Wi

0101100
+35 0 -33 0 -32 4 +32 6 *
Fa
0  0.000000100000000 1 0

0111000
+31 0 *
Ve
0.000000100000000
2884.000000000001364 -80.000000000000412 0.000000000000000
0 0

0101101
*
Ed
 0.000000100000000 1 1 0
1  4 0 0.000000000000000 15.000000000000000
2  9 3 0 0.000000000000000 15.000000000000000
0

0101000
+29 4 -29 6 *
Ed
 0.000000100000000 1 1 0
1  5 0 0.000000000000000 80.000000000000000
2  10 3 7 0.000000000000000 80.000000000000000
2  11 3 8 0.000000000000000 80.000000000000000
2  12 4 9 0.000000000000000 80.000000000000000
0

0101000
+34 0 -29 0 *
Wi

0101100
+33 0 -28 0 -27 4 +27 6 *
Fa
0  0.000000100000000 3 0

0111000
+26 0 *
Ve
0.000000100000000
3134.000000000001364 -80.000000000000412 0.000000000000000
0 0

0101101
*
Ed
 0.000000100000000 1 1 0
1  6 0 0.000000000000000 15.000000000000000
2  13 2 0 0.000000000000000 15.000000000000000
0

0101000
+24 4 -24 6 *
Ed
 0.000000100000000 1 1 0
1  7 0 0.000000000000000 250.000000000000000
2  14 4 9 0.000000000000000 250.000000000000000
0

0101000
+29 0 -24 0 *
Wi

0101100
+28 0 -23 0 -22 4 +22 6 *
Fa
0  0.000000100000000 6 0

0111000
+21 0 *
Ed
 0.000000100000000 1 1 0
1  8 0 0.000000000000000 80.000000000000000
2  15 2 7 0.000000000000000 80.000000000000000
2  16 2 8 0.000000000000000 80.000000000000000
2  17 4 9 0.000000000000000 80.000000000000000
0

0101000
+24 0 -36 0 *
Wi

0101100
+23 0 -35 0 -19 4 +19 6 *
Fa
0  0.000000100000000 2 0

0111000
+18 0 *
Ve
0.000000100000000
2989.000000000001364 -40.000000000000412 0.000000000000000
0 0

0101101
*
Ed
 0.000000100000000 1 1 0
1  9 0 0.000000000000000 15.000000000000000
3  18 19CN 7 0 0.000000000000000 15.000000000000000
0

0101000
+16 4 -16 6 *
Ed
 0.000000100000000 1 1 0
1  10 0 0.000000000000000 6.283185307179586
2  20 7 7 0.000000000000000 6.283185307179586
2  21 7 8 0.000000000000000 6.283185307179586
2  22 4 9 0.000000000000000 6.283185307179586
0

0101000
+16 0 -16 0 *
Wi

0101100
+15 0 -15 0 -14 4 +14 6 *
Fa
0  0.000000100000000 7 0

0111000
+13 0 *
Ve
0.000000100000000
2929.000000000001364 -40.000000000000412 0.000000000000000
0 0

0101101
*
Ed
 0.000000100000000 1 1 0
1  11 0 0.000000000000000 15.000000000000000
3  23 24CN 8 0 0.000000000000000 15.000000000000000
0

0101000
+11 4 -11 6 *
Ed
 0.000000100000000 1 1 0
1  12 0 0.000000000000000 6.283185307179586
2  25 8 7 0.000000000000000 6.283185307179586
2  26 8 8 0.000000000000000 6.283185307179586
2  27 4 9 0.000000000000000 6.283185307179586
0

0101000
+11 0 -11 0 *
Wi

0101100
+10 0 -10 0 -9 4 +9 6 *
Fa
0  0.000000100000000 8 0

0111000
+8 0 *
Wi

0101100
+32 15 +27 15 +22 15 +19 15 *
Wi

0101100
-14 15 *
Wi

0101100
-9 15 *
Fa
0  0.000000100000000 4 0

0111000
+6 0 +5 0 +4 0 *
Sh

0101100
+30 0 +25 0 +20 0 +17 0 -12 0 -7 0 +3 14 -3 16 *
So

1100000
+2 0 *

+1 0 