
CASCADE Topology V1, (c) Matra-Datavision
Locations 11
1
0.000000000000000 0.000000000000000 1.000000000000000 0.000000000000000 
1.000000000000000 0.000000000000000 0.000000000000000 0.000000000000000 
0.000000000000000 1.000000000000000 0.000000000000000 0.000000000000000 
1
1.000000000000000 0.000000000000000 0.000000000000000 0.000000000000000 
0.000000000000000 1.000000000000000 0.000000000000000 0.000000000000000 
0.000000000000000 0.000000000000000 1.000000000000000 0.000000000000000 
1
0.000000000000000 -0.000000000000000 1.000000000000000 0.000000000000000 
1.000000000000000 0.000000000000000 -0.000000000000000 0.000000000000000 
-0.000000000000000 1.000000000000000 0.000000000000000 0.000000000000000 
1
-0.000000000000000 0.000000000000000 1.000000000000000 0.000000000000000 
1.000000000000000 -0.000000000000000 0.000000000000000 0.000000000000000 
0.000000000000000 1.000000000000000 -0.000000000000000 0.000000000000000 
2  2 1 3 1 4 -1 0
1
1.000000000000000 0.000000000000000 0.000000000000000 0.000000000000007 
0.000000000000000 1.000000000000000 0.000000000000000 -0.000000000000004 
0.000000000000000 0.000000000000000 1.000000000000000 -15.000000000000000 
2  2 1 3 1 4 -1 6 1 0
2  3 -1 2 -1 0
2  4 -1 0
2  2 1 3 1 0
2  4 -1 6 1 0
Curve2ds 4
1 -125.00000000000000000 1043.00000000000000000 0.00000000000000022 -1.00000000000000000 
1 -125.00000000000000000 -1043.00000000000000000 1.00000000000000000 0.00000000000000022 
1 125.00000000000000000 -1043.00000000000000000 -0.00000000000000022 1.00000000000000000 
1 125.00000000000000000 1043.00000000000000000 -1.00000000000000000 -0.00000000000000022 
Curves 8
1 -1858.00000000000045475 4962.66700000000128057 -0.00000000000261643 0.00000000000000044 -0.00000000000000028 -1.00000000000000000 
1 228.00000000000002842 4962.66700000000037107 -0.00000000000215324 0.00000000000000044 -0.00000000000000028 -1.00000000000000000 
1 -1858.00000000000113687 4962.66699999999946158 0.00000000000000000 1.00000000000000000 0.00000000000000000 0.00000000000000000 
1 227.99999999999997158 4712.66700000000037107 -0.00000000000204222 0.00000000000000044 -0.00000000000000028 -1.00000000000000000 
1 227.99999999999886313 4962.66699999999946158 0.00000000000000000 0.00000000000000000 -1.00000000000000000 0.00000000000000000 
1 -1858.00000000000045475 4712.66700000000128057 -0.00000000000250540 0.00000000000000044 -0.00000000000000028 -1.00000000000000000 
1 227.99999999999886313 4712.66699999999946158 0.00000000000000000 -1.00000000000000000 0.00000000000000000 0.00000000000000000 
1 -1858.00000000000113687 4712.66699999999946158 0.00000000000000000 0.00000000000000000 1.00000000000000000 0.00000000000000000 
Polygon3D 0
PolygonOnTriangulations 0
Surfaces 5
1 -1858.00000000000045475 4962.66700000000128057 -0.00000000000261643 -0.00000000000000044 -1.00000000000000000 0.00000000000000028 1.00000000000000000 -0.00000000000000044 0.00000000000000022 -0.00000000000000022 0.00000000000000028 1.00000000000000000 
1 -0.00000000000125514 -815.00000000000000000 4837.66699999999946158 -1.00000000000000000 0.00000000000000022 -0.00000000000000022 0.00000000000000022 0.00000000000000000 -1.00000000000000000 -0.00000000000000022 -1.00000000000000000 -0.00000000000000000 
1 228.00000000000002842 4962.66700000000037107 -0.00000000000215324 -1.00000000000000000 0.00000000000000022 -0.00000000000000044 -0.00000000000000022 -1.00000000000000000 0.00000000000000044 -0.00000000000000044 0.00000000000000044 1.00000000000000000 
1 227.99999999999997158 4712.66700000000037107 -0.00000000000204222 0.00000000000000044 1.00000000000000000 -0.00000000000000028 -1.00000000000000000 0.00000000000000044 -0.00000000000000022 -0.00000000000000022 0.00000000000000028 1.00000000000000000 
1 -1858.00000000000045475 4712.66700000000128057 -0.00000000000250540 1.00000000000000000 -0.00000000000000022 0.00000000000000044 0.00000000000000022 1.00000000000000000 -0.00000000000000044 -0.00000000000000044 0.00000000000000044 1.00000000000000000 
Triangulations 0

TShapes 24
Ve
0.000000100000000
-1858.000000000001137 4962.666999999999462 0.000000000000000
0 0

0101101
*
Ed
 0.000000100000000 1 1 0
1  1 0 0.000000000000000 15.000000000000000
0

0101000
+24 5 -24 7 *
Ve
0.000000100000000
227.999999999998863 4962.666999999999462 0.000000000000000
0 0

0101101
*
Ed
 0.000000100000000 1 1 0
1  2 0 0.000000000000000 15.000000000000000
0

0101000
+22 5 -22 7 *
Ed
 0.000000100000000 1 1 0
1  3 0 0.000000000000000 2086.000000000000000
2  1 2 8 0.000000000000000 2086.000000000000000
0

0101000
+24 0 -22 0 *
Wi

0101100
+23 0 -21 0 -20 5 +20 7 *
Fa
0  0.000000100000000 1 0

0111000
+19 0 *
Ve
0.000000100000000
227.999999999998863 4712.666999999999462 0.000000000000000
0 0

0101101
*
Ed
 0.000000100000000 1 1 0
1  4 0 0.000000000000000 15.000000000000000
0

0101000
+17 5 -17 7 *
Ed
 0.000000100000000 1 1 0
1  5 0 0.000000000000000 250.000000000000000
2  2 2 8 0.000000000000000 250.000000000000000
0

0101000
+22 0 -17 0 *
Wi

0101100
+21 0 -16 0 -15 5 +15 7 *
Fa
0  0.000000100000000 3 0

0111000
+14 0 *
Ve
0.000000100000000
-1858.000000000001137 4712.666999999999462 0.000000000000000
0 0

0101101
*
Ed
 0.000000100000000 1 1 0
1  6 0 0.000000000000000 15.000000000000000
0

0101000
+12 5 -12 7 *
Ed
 0.000000100000000 1 1 0
1  7 0 0.000000000000000 2086.000000000000000
2  3 2 8 0.000000000000000 2086.000000000000000
0

0101000
+17 0 -12 0 *
Wi

0101100
+16 0 -11 0 -10 5 +10 7 *
Fa
0  0.000000100000000 4 0

0111000
+9 0 *
Ed
 0.000000100000000 1 1 0
1  8 0 0.000000000000000 250.000000000000000
2  4 2 8 0.000000000000000 250.000000000000000
0

0101000
+12 0 -24 0 *
Wi

0101100
+11 0 -23 0 -7 5 +7 7 *
Fa
0  0.000000100000000 5 0

0111000
+6 0 *
Wi

0101100
+20 0 +15 0 +10 0 +7 0 *
Fa
0  0.000000100000000 2 0

0111000
+4 10 *
Sh

0101100
+18 0 +13 0 +8 0 +5 0 +3 9 -3 11 *
So

1100000
-2 0 *

+1 1 