
CASCADE Topology V1, (c) Matra-Datavision
Locations 35
1
1.000000000000000 0.000000000000000 0.000000000000000 0.000000000000000 
0.000000000000000 0.000000000000000 -1.000000000000000 0.000000000000000 
0.000000000000000 1.000000000000000 0.000000000000000 0.000000000000000 
1
1.000000000000000 0.000000000000000 0.000000000000000 0.000000000000000 
0.000000000000000 -0.000000000000000 -1.000000000000000 0.000000000000000 
0.000000000000000 1.000000000000000 -0.000000000000000 0.000000000000000 
1
1.000000000000000 0.000000000000000 0.000000000000000 0.000000000000000 
0.000000000000000 -0.000000000000000 -1.000000000000000 0.000000000000000 
0.000000000000000 1.000000000000000 -0.000000000000000 0.000000000000000 
2  2 1 3 -1 0
1
1.000000000000000 0.000000000000000 0.000000000000000 0.000000000000000 
0.000000000000000 1.000000000000000 0.000000000000000 0.000000000000000 
0.000000000000000 0.000000000000000 1.000000000000000 0.000000000000000 
1
1.000000000000000 0.000000000000000 0.000000000000000 0.000000000000000 
0.000000000000000 -0.000000000000000 -1.000000000000000 0.000000000000000 
0.000000000000000 1.000000000000000 -0.000000000000000 0.000000000000000 
1
1.000000000000000 0.000000000000000 0.000000000000000 0.000000000000000 
0.000000000000000 -0.000000000000000 -1.000000000000000 0.000000000000000 
0.000000000000000 1.000000000000000 -0.000000000000000 0.000000000000000 
2  5 1 6 1 7 -1 0
1
1.000000000000000 0.000000000000000 0.000000000000000 -0.000000000000000 
0.000000000000000 1.000000000000000 0.000000000000000 -0.000000000000000 
0.000000000000000 0.000000000000000 1.000000000000000 -15.000000000000000 
2  5 1 6 1 7 -1 9 1 0
2  6 -1 5 -1 0
2  3 1 2 -1 0
2  5 1 6 1 7 -1 2 1 3 -1 0
2  7 1 6 -1 5 -1 0
2  9 -1 7 1 6 -1 5 -1 0
2  5 1 6 1 7 -1 9 1 2 1 3 -1 0
1
1.000000000000000 0.000000000000000 0.000000000000000 0.000000000000000 
0.000000000000000 1.000000000000000 0.000000000000000 0.000000000000000 
0.000000000000000 0.000000000000000 1.000000000000000 0.000000000000000 
1
0.000000000000000 -0.000000000000000 1.000000000000000 2807.999999999997726 
-0.000000000000000 -1.000000000000000 0.000000000000000 0.000000000000000 
1.000000000000000 0.000000000000000 -0.000000000000000 0.000000000000000 
2  17 1 18 1 2 -1 9 -1 7 1 6 -1 5 -1 0
2  2 -1 9 -1 7 1 6 -1 5 -1 0
2  3 1 2 -1 9 -1 7 1 6 -1 5 -1 0
2  7 -1 2 1 3 -1 0
2  5 1 6 1 0
2  7 -1 9 1 2 1 3 -1 0
1
1.000000000000000 0.000000000000000 0.000000000000000 -15.000000000000000 
0.000000000000000 1.000000000000000 0.000000000000000 0.000000000000003 
0.000000000000000 0.000000000000000 1.000000000000000 -0.000000000000000 
2  17 1 18 1 3 -1 25 1 3 1 2 -1 9 -1 7 1 6 -1 5 -1 0
2  17 1 18 1 3 -1 25 1 0
2  3 1 18 -1 17 -1 0
2  25 -1 3 1 18 -1 17 -1 0
2  18 -1 17 -1 0
2  7 -1 9 1 2 1 3 -1 25 -1 3 1 18 -1 17 -1 0
2  17 1 18 1 3 -1 0
2  3 -1 0
2  3 -1 25 1 0
2  17 1 18 1 0
Curve2ds 141
1 0.00000000000000000 0.00000000000000000 0.00000000000000000 -1.00000000000000000 
1 23.44745238377163332 372.64981355378495209 -0.86420031252792595 0.50314791048620611 
1 0.00000000000000000 0.00000000000000000 0.00000000000000000 -1.00000000000000000 
1 23.44745238377163332 372.64981355378495209 0.55582821424379902 -0.83129717685707893 
1 241.04854997216943957 0.00000000000000000 0.00000000000000000 -1.00000000000000000 
1 0.00000000000000000 0.00000000000000000 0.00000000000000000 -1.00000000000000000 
1 0.00000000000000000 0.00000000000000000 1.00000000000000000 0.00000000000000000 
1 0.00000000000000000 -15.00000000000000000 1.00000000000000000 0.00000000000000000 
1 -725.20041779586654229 808.52168968049181785 -1.00000000000000000 0.00000000000000000 
1 145.11519997217010314 35.50000000000113687 -1.00000000000000000 -0.00000000000000022 
1 0.00000000000000000 0.00000000000000000 1.00000000000000000 0.00000000000000000 
1 0.00000000000000000 -15.00000000000000000 1.00000000000000000 0.00000000000000000 
1 -966.24896776803598186 808.52168968049181785 0.00000000000000000 -1.00000000000000000 
1 -966.24896776803598186 558.52168968049181785 1.00000000000000000 -0.00000000000000000 
1 0.00000000000000000 0.00000000000000000 1.00000000000000000 0.00000000000000000 
1 0.00000000000000000 -15.00000000000000000 1.00000000000000000 0.00000000000000000 
1 -792.67545080397258062 558.52168968049181785 0.86420031252792595 -0.50314791048620600 
1 622.10239417381671956 -972.47831031950590841 -0.55582821424379880 0.83129717685707905 
1 0.00000000000000000 0.00000000000000000 1.00000000000000000 0.00000000000000000 
1 0.00000000000000000 -15.00000000000000000 1.00000000000000000 0.00000000000000000 
1 862.41803223196438921 -972.47831031950590841 -1.00000000000000000 0.00000000000000000 
1 0.00000000000000000 0.00000000000000000 1.00000000000000000 0.00000000000000000 
1 0.00000000000000000 -15.00000000000000000 1.00000000000000000 0.00000000000000000 
1 862.41803223196438921 -882.11533981793400017 0.00000000000000000 -1.00000000000000000 
1 0.00000000000000000 0.00000000000000000 1.00000000000000000 0.00000000000000000 
1 0.00000000000000000 -15.00000000000000000 1.00000000000000000 0.00000000000000000 
1 0.00000000000000000 0.00000000000000000 1.00000000000000000 0.00000000000000000 
1 0.00000000000000000 -15.00000000000000000 1.00000000000000000 0.00000000000000000 
2 645.55133223196389736 -845.15050102097598028 0.00000000000000000 1.00000000000000000 1.00000000000000000 -0.00000000000000000 5.00000000000000000
1 0.00000000000000000 0.00000000000000000 1.00000000000000000 0.00000000000000000 
1 0.00000000000000000 -15.00000000000000000 1.00000000000000000 0.00000000000000000 
2 645.55133223196389736 -693.15050102097575291 0.00000000000000000 1.00000000000000000 1.00000000000000000 -0.00000000000000000 5.00000000000000000
1 0.00000000000000000 0.00000000000000000 1.00000000000000000 0.00000000000000000 
1 0.00000000000000000 -15.00000000000000000 1.00000000000000000 0.00000000000000000 
2 281.81793223196382314 -149.15050102097552553 0.00000000000000000 1.00000000000000000 1.00000000000000000 -0.00000000000000000 5.00000000000000000
1 0.00000000000000000 0.00000000000000000 1.00000000000000000 0.00000000000000000 
1 0.00000000000000000 -15.00000000000000000 1.00000000000000000 0.00000000000000000 
2 281.81793223196382314 -301.15050102097575291 0.00000000000000000 1.00000000000000000 1.00000000000000000 -0.00000000000000000 5.00000000000000000
1 0.00000000000000000 0.00000000000000000 1.00000000000000000 0.00000000000000000 
1 0.00000000000000000 -15.00000000000000000 1.00000000000000000 0.00000000000000000 
2 463.68463223196431500 -573.15050102097575291 0.00000000000000000 1.00000000000000000 1.00000000000000000 -0.00000000000000000 5.00000000000000000
1 0.00000000000000000 0.00000000000000000 1.00000000000000000 0.00000000000000000 
1 0.00000000000000000 -15.00000000000000000 1.00000000000000000 0.00000000000000000 
2 463.68463223196431500 -421.15050102097575291 0.00000000000000000 1.00000000000000000 1.00000000000000000 -0.00000000000000000 5.00000000000000000
1 0.00000000000000000 0.00000000000000000 1.00000000000000000 0.00000000000000000 
1 0.00000000000000000 -15.00000000000000000 1.00000000000000000 0.00000000000000000 
2 99.95123223196424078 -29.15050102097552553 0.00000000000000000 1.00000000000000000 1.00000000000000000 -0.00000000000000000 5.00000000000000000
1 0.00000000000000000 0.00000000000000000 1.00000000000000000 0.00000000000000000 
1 0.00000000000000000 -15.00000000000000000 1.00000000000000000 0.00000000000000000 
2 99.95123223196424078 122.84949897902333760 0.00000000000000000 1.00000000000000000 1.00000000000000000 -0.00000000000000000 5.00000000000000000
1 0.00000000000000000 0.00000000000000000 1.00000000000000000 0.00000000000000000 
1 0.00000000000000000 -15.00000000000000000 1.00000000000000000 0.00000000000000000 
2 -81.91546776803579633 242.84949897902379234 0.00000000000000000 1.00000000000000000 1.00000000000000000 -0.00000000000000000 5.00000000000000000
1 0.00000000000000000 0.00000000000000000 1.00000000000000000 0.00000000000000000 
1 0.00000000000000000 -15.00000000000000000 1.00000000000000000 0.00000000000000000 
2 -81.91546776803579633 312.43168968048939860 0.00000000000000000 1.00000000000000000 1.00000000000000000 -0.00000000000000000 5.00000000000000000
1 0.00000000000000000 0.00000000000000000 1.00000000000000000 0.00000000000000000 
1 0.00000000000000000 -15.00000000000000000 1.00000000000000000 0.00000000000000000 
2 -263.78216776803583343 391.72007066762535032 0.00000000000000000 1.00000000000000000 1.00000000000000000 -0.00000000000000000 5.00000000000000000
1 0.00000000000000000 0.00000000000000000 1.00000000000000000 0.00000000000000000 
1 0.00000000000000000 -15.00000000000000000 1.00000000000000000 0.00000000000000000 
2 -263.78216776803583343 473.75168968049047180 0.00000000000000000 1.00000000000000000 1.00000000000000000 -0.00000000000000000 5.00000000000000000
1 0.00000000000000000 0.00000000000000000 1.00000000000000000 0.00000000000000000 
1 0.00000000000000000 -15.00000000000000000 1.00000000000000000 0.00000000000000000 
2 -445.64886776803587054 508.23932265181065304 0.00000000000000000 1.00000000000000000 1.00000000000000000 -0.00000000000000000 5.00000000000000000
1 0.00000000000000000 0.00000000000000000 1.00000000000000000 0.00000000000000000 
1 0.00000000000000000 -15.00000000000000000 1.00000000000000000 0.00000000000000000 
2 -445.64886776803587054 576.21168968049278192 0.00000000000000000 1.00000000000000000 1.00000000000000000 -0.00000000000000000 5.00000000000000000
1 0.00000000000000000 0.00000000000000000 1.00000000000000000 0.00000000000000000 
1 0.00000000000000000 -15.00000000000000000 1.00000000000000000 0.00000000000000000 
2 -627.51556776803590765 598.73600385021745751 0.00000000000000000 1.00000000000000000 1.00000000000000000 -0.00000000000000000 5.00000000000000000
1 0.00000000000000000 0.00000000000000000 1.00000000000000000 0.00000000000000000 
1 0.00000000000000000 -15.00000000000000000 1.00000000000000000 0.00000000000000000 
2 -627.51556776803590765 685.52168968049363684 0.00000000000000000 1.00000000000000000 1.00000000000000000 -0.00000000000000000 5.00000000000000000
1 0.00000000000000000 0.00000000000000000 1.00000000000000000 0.00000000000000000 
1 0.00000000000000000 -15.00000000000000000 1.00000000000000000 0.00000000000000000 
2 -809.38226776803594475 752.89999404033505925 0.00000000000000000 1.00000000000000000 1.00000000000000000 -0.00000000000000000 5.00000000000000000
1 0.00000000000000000 0.00000000000000000 1.00000000000000000 0.00000000000000000 
1 0.00000000000000333 -15.00000000000000000 1.00000000000000000 0.00000000000000000 
1 95.93335000000070067 35.49999999999892708 -1.00000000000000000 -0.00000000000000022 
1 -774.38226776803594475 793.52168968049272735 -1.00000000000000000 -0.00000000000000022 
1 0.00000000000000000 0.00000000000000000 -0.00000000000000000 -1.00000000000000000 
1 70.99999999999779732 0.00000000000000000 0.00000000000000000 -1.00000000000000000 
1 -774.38226776803594475 808.52168968049272735 0.00000000000000022 -1.00000000000000000 
1 90.36297050157190824 0.00000000000000000 0.00000000000000000 -1.00000000000000000 
1 0.00000000000000000 0.00000000000000000 0.00000000000000000 -1.00000000000000000 
1 250.00000000000000000 0.00000000000000000 0.00000000000000000 -1.00000000000000000 
1 0.00000000000000000 0.00000000000000000 0.00000000000000000 -1.00000000000000000 
1 -0.00000000000220268 -0.00000000000090949 -0.00000000000000000 -1.00000000000000000 
1 0.00000000000000000 0.00000000000000000 1.00000000000000000 0.00000000000000000 
1 -0.00000000000000000 -15.00000000000000000 1.00000000000000000 0.00000000000000000 
1 -95.93334999999933643 35.49999999999888445 0.00000000000000022 -1.00000000000000000 
1 -95.93334999999933643 -35.49999999999891287 1.00000000000000000 0.00000000000000022 
1 0.00000000000000000 0.00000000000000000 1.00000000000000000 0.00000000000000000 
1 0.00000000000000000 -15.00000000000000000 1.00000000000000000 0.00000000000000000 
1 95.93335000000070067 -35.49999999999887024 -0.00000000000000022 1.00000000000000000 
1 0.00000000000000000 0.00000000000000000 1.00000000000000000 0.00000000000000000 
1 0.00000000000000000 -15.00000000000000000 1.00000000000000000 0.00000000000000000 
2 60.93335000000070067 14.50000000000112266 1.00000000000000000 0.00000000000000022 -0.00000000000000022 1.00000000000000000 5.00000000000000000
1 173.57351696406340125 0.00000000000000000 0.00000000000000000 -1.00000000000000000 
1 1393.17892155599020043 0.00000000000000000 0.00000000000000000 -1.00000000000000000 
1 240.31563805814766965 0.00000000000000000 0.00000000000000000 -1.00000000000000000 
1 0.00000000000000000 0.00000000000000000 0.00000000000000000 -1.00000000000000000 
1 0.00000000000000000 0.00000000000000000 0.00000000000000000 -1.00000000000000000 
1 6.28318530717958623 0.00000000000000000 0.00000000000000000 -1.00000000000000000 
1 0.00000000000000000 0.00000000000000000 0.00000000000000000 -1.00000000000000000 
1 6.28318530717958623 0.00000000000000000 0.00000000000000000 -1.00000000000000000 
1 0.00000000000000000 0.00000000000000000 0.00000000000000000 -1.00000000000000000 
1 6.28318530717958623 0.00000000000000000 0.00000000000000000 -1.00000000000000000 
1 0.00000000000000000 0.00000000000000000 0.00000000000000000 -1.00000000000000000 
1 6.28318530717958623 0.00000000000000000 0.00000000000000000 -1.00000000000000000 
1 0.00000000000000000 0.00000000000000000 0.00000000000000000 -1.00000000000000000 
1 6.28318530717958623 0.00000000000000000 0.00000000000000000 -1.00000000000000000 
1 0.00000000000000000 0.00000000000000000 0.00000000000000000 -1.00000000000000000 
1 6.28318530717958623 0.00000000000000000 0.00000000000000000 -1.00000000000000000 
1 0.00000000000000000 0.00000000000000000 0.00000000000000000 -1.00000000000000000 
1 6.28318530717958623 0.00000000000000000 0.00000000000000000 -1.00000000000000000 
1 0.00000000000000000 0.00000000000000000 0.00000000000000000 -1.00000000000000000 
1 6.28318530717958623 0.00000000000000000 0.00000000000000000 -1.00000000000000000 
1 0.00000000000000000 0.00000000000000000 0.00000000000000000 -1.00000000000000000 
1 6.28318530717958623 0.00000000000000000 0.00000000000000000 -1.00000000000000000 
1 0.00000000000000000 0.00000000000000000 0.00000000000000000 -1.00000000000000000 
1 6.28318530717958623 0.00000000000000000 0.00000000000000000 -1.00000000000000000 
1 0.00000000000000000 0.00000000000000000 0.00000000000000000 -1.00000000000000000 
1 6.28318530717958623 0.00000000000000000 0.00000000000000000 -1.00000000000000000 
1 0.00000000000000000 0.00000000000000000 0.00000000000000000 -1.00000000000000000 
1 6.28318530717958623 0.00000000000000000 0.00000000000000000 -1.00000000000000000 
1 0.00000000000000000 0.00000000000000000 0.00000000000000000 -1.00000000000000000 
1 6.28318530717958623 0.00000000000000000 0.00000000000000000 -1.00000000000000000 
1 0.00000000000000000 0.00000000000000000 0.00000000000000000 -1.00000000000000000 
1 6.28318530717958623 0.00000000000000000 0.00000000000000000 -1.00000000000000000 
1 0.00000000000000000 0.00000000000000000 0.00000000000000000 -1.00000000000000000 
1 6.28318530717958623 0.00000000000000000 0.00000000000000000 -1.00000000000000000 
1 0.00000000000000000 0.00000000000000000 0.00000000000000000 -1.00000000000000000 
1 6.28318530717958623 0.00000000000000000 0.00000000000000000 -1.00000000000000000 
1 0.00000000000000000 0.00000000000000000 0.00000000000000000 -1.00000000000000000 
1 6.28318530717958623 0.00000000000000000 0.00000000000000000 -1.00000000000000000 
1 0.00000000000000000 0.00000000000000000 0.00000000000000000 -1.00000000000000000 
1 70.99999999999779732 -0.00000000000000000 -0.00000000000000000 -1.00000000000000000 
1 0.00000000000000000 0.00000000000000000 0.00000000000000000 -1.00000000000000000 
1 6.28318530717958623 0.00000000000000000 0.00000000000000000 -1.00000000000000000 
Curves 61
1 2372.12812387329086050 4123.69642015180761518 0.00000000000000000 -0.00000000000000000 -0.00000000000000000 -1.00000000000000000 
1 2807.99999999999772626 3375.04854997216943957 0.00000000000000000 -0.00000000000000000 -0.00000000000000000 -1.00000000000000000 
1 2372.12812387329086050 4123.69642015180761518 0.00000000000000000 0.50314791048620611 -0.86420031252792595 0.00000000000000000 
1 1117.36297050157190824 4962.66700000000037107 0.00000000000000000 -0.00000000000000000 -0.00000000000000000 -1.00000000000000000 
1 2372.12812387329086050 4123.69642015180761518 0.00000000000000000 -0.83129717685707893 0.55582821424379902 0.00000000000000000 
1 2807.99999999999772626 3134.00000000000000000 0.00000000000000000 -0.00000000000000000 -0.00000000000000000 -1.00000000000000000 
1 2807.99999999999772626 3375.04854997216943957 0.00000000000000000 0.00000000000000000 -1.00000000000000000 0.00000000000000000 
1 2807.99999999999772626 3134.00000000000000000 0.00000000000000000 -1.00000000000000000 0.00000000000000000 0.00000000000000000 
1 2557.99999999999772626 3134.00000000000000000 0.00000000000000000 0.00000000000000000 1.00000000000000000 0.00000000000000000 
1 2557.99999999999772626 3307.57351696406340125 0.00000000000000000 -0.50314791048620600 0.86420031252792595 0.00000000000000000 
1 1027.00000000000000000 4722.35136194185270142 0.00000000000000000 0.83129717685707905 -0.55582821424379880 0.00000000000000000 
1 1027.00000000000000000 4962.66700000000037107 0.00000000000000000 0.00000000000000000 -1.00000000000000000 0.00000000000000000 
1 1117.36297050157190824 4962.66700000000037107 0.00000000000000000 -1.00000000000000000 0.00000000000000000 0.00000000000000000 
2 1154.32780929852992813 4745.80029999999987922 0.00000000000000000 0.00000000000000000 0.00000000000000000 1.00000000000000000 1.00000000000000000 0.00000000000000000 -0.00000000000000000 -0.00000000000000000 1.00000000000000000 0.00000000000000000 5.00000000000000000
2 1306.32780929853015550 4745.80029999999987922 0.00000000000000000 0.00000000000000000 0.00000000000000000 1.00000000000000000 1.00000000000000000 0.00000000000000000 -0.00000000000000000 -0.00000000000000000 1.00000000000000000 0.00000000000000000 5.00000000000000000
2 1850.32780929853038288 4382.06689999999980500 0.00000000000000000 0.00000000000000000 0.00000000000000000 1.00000000000000000 1.00000000000000000 0.00000000000000000 -0.00000000000000000 -0.00000000000000000 1.00000000000000000 0.00000000000000000 5.00000000000000000
2 1698.32780929853015550 4382.06689999999980500 0.00000000000000000 0.00000000000000000 0.00000000000000000 1.00000000000000000 1.00000000000000000 0.00000000000000000 -0.00000000000000000 -0.00000000000000000 1.00000000000000000 0.00000000000000000 5.00000000000000000
2 1426.32780929853015550 4563.93360000000029686 0.00000000000000000 0.00000000000000000 0.00000000000000000 1.00000000000000000 1.00000000000000000 0.00000000000000000 -0.00000000000000000 -0.00000000000000000 1.00000000000000000 0.00000000000000000 5.00000000000000000
2 1578.32780929853015550 4563.93360000000029686 0.00000000000000000 0.00000000000000000 0.00000000000000000 1.00000000000000000 1.00000000000000000 0.00000000000000000 -0.00000000000000000 -0.00000000000000000 1.00000000000000000 0.00000000000000000 5.00000000000000000
2 1970.32780929853038288 4200.20020000000022264 0.00000000000000000 0.00000000000000000 0.00000000000000000 1.00000000000000000 1.00000000000000000 0.00000000000000000 -0.00000000000000000 -0.00000000000000000 1.00000000000000000 0.00000000000000000 5.00000000000000000
2 2122.32780929852924601 4200.20020000000022264 0.00000000000000000 0.00000000000000000 0.00000000000000000 1.00000000000000000 1.00000000000000000 0.00000000000000000 -0.00000000000000000 -0.00000000000000000 1.00000000000000000 0.00000000000000000 5.00000000000000000
2 2242.32780929852970075 4018.33350000000018554 0.00000000000000000 0.00000000000000000 0.00000000000000000 1.00000000000000000 1.00000000000000000 0.00000000000000000 -0.00000000000000000 -0.00000000000000000 1.00000000000000000 0.00000000000000000 5.00000000000000000
2 2311.90999999999530701 4018.33350000000018554 0.00000000000000000 0.00000000000000000 0.00000000000000000 1.00000000000000000 1.00000000000000000 0.00000000000000000 -0.00000000000000000 -0.00000000000000000 1.00000000000000000 0.00000000000000000 5.00000000000000000
2 2391.19838098713125873 3836.46680000000014843 0.00000000000000000 0.00000000000000000 0.00000000000000000 1.00000000000000000 1.00000000000000000 0.00000000000000000 -0.00000000000000000 -0.00000000000000000 1.00000000000000000 0.00000000000000000 5.00000000000000000
2 2473.22999999999638021 3836.46680000000014843 0.00000000000000000 0.00000000000000000 0.00000000000000000 1.00000000000000000 1.00000000000000000 0.00000000000000000 -0.00000000000000000 -0.00000000000000000 1.00000000000000000 0.00000000000000000 5.00000000000000000
2 2507.71763297131656145 3654.60010000000011132 0.00000000000000000 0.00000000000000000 0.00000000000000000 1.00000000000000000 1.00000000000000000 0.00000000000000000 -0.00000000000000000 -0.00000000000000000 1.00000000000000000 0.00000000000000000 5.00000000000000000
2 2575.68999999999869033 3654.60010000000011132 0.00000000000000000 0.00000000000000000 0.00000000000000000 1.00000000000000000 1.00000000000000000 0.00000000000000000 -0.00000000000000000 -0.00000000000000000 1.00000000000000000 0.00000000000000000 5.00000000000000000
2 2598.21431416972336592 3472.73340000000007421 0.00000000000000000 0.00000000000000000 0.00000000000000000 1.00000000000000000 1.00000000000000000 0.00000000000000000 -0.00000000000000000 -0.00000000000000000 1.00000000000000000 0.00000000000000000 5.00000000000000000
2 2684.99999999999954525 3472.73340000000007421 0.00000000000000000 0.00000000000000000 0.00000000000000000 1.00000000000000000 1.00000000000000000 0.00000000000000000 -0.00000000000000000 -0.00000000000000000 1.00000000000000000 0.00000000000000000 5.00000000000000000
2 2752.37830435984096766 3290.86670000000003711 0.00000000000000000 0.00000000000000000 0.00000000000000000 1.00000000000000000 1.00000000000000000 0.00000000000000000 -0.00000000000000000 -0.00000000000000000 1.00000000000000000 0.00000000000000000 5.00000000000000000
1 3325.86670000000003711 -15.00000000000220268 0.00000000000000000 -1.00000000000000000 0.00000000000000000 0.00000000000000000 
1 2807.99999999999863576 3325.86670000000003711 -15.00000000000220268 -1.00000000000000000 0.00000000000000022 -0.00000000000000000 
1 1027.00000000000000000 4962.66700000000037107 0.00000000000000000 -0.00000000000000000 -0.00000000000000000 -1.00000000000000000 
1 2557.99999999999772626 3134.00000000000000000 0.00000000000000000 -0.00000000000000000 -0.00000000000000000 -1.00000000000000000 
1 3134.00000000000000000 -15.00000000000220268 0.00000000000000000 0.00000000000000000 -1.00000000000000000 0.00000000000000000 
1 3134.00000000000000000 -86.00000000000000000 0.00000000000000000 1.00000000000000000 0.00000000000000000 0.00000000000000000 
1 3325.86670000000003711 -86.00000000000000000 0.00000000000000000 0.00000000000000000 1.00000000000000000 0.00000000000000000 
2 3290.86670000000003711 -36.00000000000000000 0.00000000000000000 0.00000000000000000 0.00000000000000000 1.00000000000000000 1.00000000000000000 0.00000000000000000 -0.00000000000000000 -0.00000000000000000 1.00000000000000000 0.00000000000000000 5.00000000000000000
1 2557.99999999999772626 3307.57351696406340125 0.00000000000000000 -0.00000000000000000 -0.00000000000000000 -1.00000000000000000 
1 2185.14570434628467410 3947.98320985128520988 0.00000000000000000 -0.00000000000000000 -0.00000000000000000 -1.00000000000000000 
1 1027.00000000000000000 4722.35136194185270142 0.00000000000000000 -0.00000000000000000 -0.00000000000000000 -1.00000000000000000 
1 1159.32780929852992813 4745.80029999999987922 0.00000000000000000 -0.00000000000000000 -0.00000000000000000 -1.00000000000000000 
1 1311.32780929853015550 4745.80029999999987922 0.00000000000000000 -0.00000000000000000 -0.00000000000000000 -1.00000000000000000 
1 1855.32780929853038288 4382.06689999999980500 0.00000000000000000 -0.00000000000000000 -0.00000000000000000 -1.00000000000000000 
1 1703.32780929853015550 4382.06689999999980500 0.00000000000000000 -0.00000000000000000 -0.00000000000000000 -1.00000000000000000 
1 1431.32780929853015550 4563.93360000000029686 0.00000000000000000 -0.00000000000000000 -0.00000000000000000 -1.00000000000000000 
1 1583.32780929853015550 4563.93360000000029686 0.00000000000000000 -0.00000000000000000 -0.00000000000000000 -1.00000000000000000 
1 1975.32780929853038288 4200.20020000000022264 0.00000000000000000 -0.00000000000000000 -0.00000000000000000 -1.00000000000000000 
1 2127.32780929852924601 4200.20020000000022264 0.00000000000000000 -0.00000000000000000 -0.00000000000000000 -1.00000000000000000 
1 2247.32780929852970075 4018.33350000000018554 0.00000000000000000 -0.00000000000000000 -0.00000000000000000 -1.00000000000000000 
1 2316.90999999999530701 4018.33350000000018554 0.00000000000000000 -0.00000000000000000 -0.00000000000000000 -1.00000000000000000 
1 2396.19838098713125873 3836.46680000000014843 0.00000000000000000 -0.00000000000000000 -0.00000000000000000 -1.00000000000000000 
1 2478.22999999999638021 3836.46680000000014843 0.00000000000000000 -0.00000000000000000 -0.00000000000000000 -1.00000000000000000 
1 2512.71763297131656145 3654.60010000000011132 0.00000000000000000 -0.00000000000000000 -0.00000000000000000 -1.00000000000000000 
1 2580.68999999999869033 3654.60010000000011132 0.00000000000000000 -0.00000000000000000 -0.00000000000000000 -1.00000000000000000 
1 2603.21431416972336592 3472.73340000000007421 0.00000000000000000 -0.00000000000000000 -0.00000000000000000 -1.00000000000000000 
1 2689.99999999999954525 3472.73340000000007421 0.00000000000000000 -0.00000000000000000 -0.00000000000000000 -1.00000000000000000 
1 2757.37830435984096766 3290.86670000000003711 0.00000000000000000 -0.00000000000000000 -0.00000000000000000 -1.00000000000000000 
1 2807.99999999999863576 3325.86670000000003711 -86.00000000000000000 -1.00000000000000000 0.00000000000000022 -0.00000000000000000 
1 2807.99999999999863576 3134.00000000000000000 -86.00000000000000000 -1.00000000000000000 0.00000000000000022 -0.00000000000000000 
1 2807.99999999999863576 3295.86670000000003711 -36.00000000000000000 -1.00000000000000000 0.00000000000000022 -0.00000000000000000 
Polygon3D 0
PolygonOnTriangulations 0
Surfaces 33
1 2372.12812387329086050 4123.69642015180761518 0.00000000000000000 -0.86420031252792595 -0.50314791048620611 0.00000000000000000 0.50314791048620611 -0.86420031252792595 0.00000000000000000 0.00000000000000000 0.00000000000000000 1.00000000000000000 
1 2807.99999999999772626 3375.04854997216943957 0.00000000000000000 -1.00000000000000000 0.00000000000000000 0.00000000000000000 0.00000000000000000 -1.00000000000000000 0.00000000000000000 0.00000000000000000 0.00000000000000000 1.00000000000000000 
1 1999.47831031950590841 -0.00000000000091044 4100.24896776803598186 0.00000000000000000 1.00000000000000000 0.00000000000000022 0.00000000000000000 -0.00000000000000022 1.00000000000000000 1.00000000000000000 0.00000000000000000 -0.00000000000000000 
1 2372.12812387329086050 4123.69642015180761518 0.00000000000000000 0.55582821424379902 0.83129717685707893 -0.00000000000000000 -0.83129717685707893 0.55582821424379902 0.00000000000000000 0.00000000000000000 0.00000000000000000 1.00000000000000000 
1 1117.36297050157190824 4962.66700000000037107 0.00000000000000000 0.00000000000000000 1.00000000000000000 -0.00000000000000000 -1.00000000000000000 0.00000000000000000 0.00000000000000000 0.00000000000000000 0.00000000000000000 1.00000000000000000 
1 2807.99999999999772626 3134.00000000000000000 0.00000000000000000 0.00000000000000000 1.00000000000000000 -0.00000000000000000 -1.00000000000000000 0.00000000000000000 0.00000000000000000 0.00000000000000000 0.00000000000000000 1.00000000000000000 
1 2807.99999999999909051 50.50000000000039080 3229.93334999999933643 1.00000000000000000 -0.00000000000000000 0.00000000000000000 -0.00000000000000000 0.00000000000000000 1.00000000000000000 -0.00000000000000000 -1.00000000000000000 0.00000000000000000 
1 2557.99999999999772626 3134.00000000000000000 0.00000000000000000 1.00000000000000000 0.00000000000000000 0.00000000000000000 -0.00000000000000000 1.00000000000000000 0.00000000000000000 0.00000000000000000 -0.00000000000000000 1.00000000000000000 
1 1027.00000000000000000 4722.35136194185270142 0.00000000000000000 -0.55582821424379880 -0.83129717685707905 0.00000000000000000 0.83129717685707905 -0.55582821424379880 0.00000000000000000 0.00000000000000000 0.00000000000000000 1.00000000000000000 
1 1027.00000000000000000 4962.66700000000037107 0.00000000000000000 -1.00000000000000000 0.00000000000000000 0.00000000000000000 0.00000000000000000 -1.00000000000000000 0.00000000000000000 0.00000000000000000 0.00000000000000000 1.00000000000000000 
2 1154.32780929852992813 4745.80029999999987922 0.00000000000000000 0.00000000000000000 0.00000000000000000 1.00000000000000000 1.00000000000000000 0.00000000000000000 -0.00000000000000000 -0.00000000000000000 1.00000000000000000 0.00000000000000000 5.00000000000000000
2 1306.32780929853015550 4745.80029999999987922 0.00000000000000000 0.00000000000000000 0.00000000000000000 1.00000000000000000 1.00000000000000000 0.00000000000000000 -0.00000000000000000 -0.00000000000000000 1.00000000000000000 0.00000000000000000 5.00000000000000000
2 1850.32780929853038288 4382.06689999999980500 0.00000000000000000 0.00000000000000000 0.00000000000000000 1.00000000000000000 1.00000000000000000 0.00000000000000000 -0.00000000000000000 -0.00000000000000000 1.00000000000000000 0.00000000000000000 5.00000000000000000
2 1698.32780929853015550 4382.06689999999980500 0.00000000000000000 0.00000000000000000 0.00000000000000000 1.00000000000000000 1.00000000000000000 0.00000000000000000 -0.00000000000000000 -0.00000000000000000 1.00000000000000000 0.00000000000000000 5.00000000000000000
2 1426.32780929853015550 4563.93360000000029686 0.00000000000000000 0.00000000000000000 0.00000000000000000 1.00000000000000000 1.00000000000000000 0.00000000000000000 -0.00000000000000000 -0.00000000000000000 1.00000000000000000 0.00000000000000000 5.00000000000000000
2 1578.32780929853015550 4563.93360000000029686 0.00000000000000000 0.00000000000000000 0.00000000000000000 1.00000000000000000 1.00000000000000000 0.00000000000000000 -0.00000000000000000 -0.00000000000000000 1.00000000000000000 0.00000000000000000 5.00000000000000000
2 1970.32780929853038288 4200.20020000000022264 0.00000000000000000 0.00000000000000000 0.00000000000000000 1.00000000000000000 1.00000000000000000 0.00000000000000000 -0.00000000000000000 -0.00000000000000000 1.00000000000000000 0.00000000000000000 5.00000000000000000
2 2122.32780929852924601 4200.20020000000022264 0.00000000000000000 0.00000000000000000 0.00000000000000000 1.00000000000000000 1.00000000000000000 0.00000000000000000 -0.00000000000000000 -0.00000000000000000 1.00000000000000000 0.00000000000000000 5.00000000000000000
2 2242.32780929852970075 4018.33350000000018554 0.00000000000000000 0.00000000000000000 0.00000000000000000 1.00000000000000000 1.00000000000000000 0.00000000000000000 -0.00000000000000000 -0.00000000000000000 1.00000000000000000 0.00000000000000000 5.00000000000000000
2 2311.90999999999530701 4018.33350000000018554 0.00000000000000000 0.00000000000000000 0.00000000000000000 1.00000000000000000 1.00000000000000000 0.00000000000000000 -0.00000000000000000 -0.00000000000000000 1.00000000000000000 0.00000000000000000 5.00000000000000000
2 2391.19838098713125873 3836.46680000000014843 0.00000000000000000 0.00000000000000000 0.00000000000000000 1.00000000000000000 1.00000000000000000 0.00000000000000000 -0.00000000000000000 -0.00000000000000000 1.00000000000000000 0.00000000000000000 5.00000000000000000
2 2473.22999999999638021 3836.46680000000014843 0.00000000000000000 0.00000000000000000 0.00000000000000000 1.00000000000000000 1.00000000000000000 0.00000000000000000 -0.00000000000000000 -0.00000000000000000 1.00000000000000000 0.00000000000000000 5.00000000000000000
2 2507.71763297131656145 3654.60010000000011132 0.00000000000000000 0.00000000000000000 0.00000000000000000 1.00000000000000000 1.00000000000000000 0.00000000000000000 -0.00000000000000000 -0.00000000000000000 1.00000000000000000 0.00000000000000000 5.00000000000000000
2 2575.68999999999869033 3654.60010000000011132 0.00000000000000000 0.00000000000000000 0.00000000000000000 1.00000000000000000 1.00000000000000000 0.00000000000000000 -0.00000000000000000 -0.00000000000000000 1.00000000000000000 0.00000000000000000 5.00000000000000000
2 2598.21431416972336592 3472.73340000000007421 0.00000000000000000 0.00000000000000000 0.00000000000000000 1.00000000000000000 1.00000000000000000 0.00000000000000000 -0.00000000000000000 -0.00000000000000000 1.00000000000000000 0.00000000000000000 5.00000000000000000
2 2684.99999999999954525 3472.73340000000007421 0.00000000000000000 0.00000000000000000 0.00000000000000000 1.00000000000000000 1.00000000000000000 0.00000000000000000 -0.00000000000000000 -0.00000000000000000 1.00000000000000000 0.00000000000000000 5.00000000000000000
2 2752.37830435984096766 3290.86670000000003711 0.00000000000000000 0.00000000000000000 0.00000000000000000 1.00000000000000000 1.00000000000000000 0.00000000000000000 -0.00000000000000000 -0.00000000000000000 1.00000000000000000 0.00000000000000000 5.00000000000000000
1 2807.99999999999863576 3325.86670000000003711 -15.00000000000220268 -0.00000000000000000 0.00000000000000000 1.00000000000000000 -0.00000000000000022 -1.00000000000000000 0.00000000000000000 1.00000000000000000 -0.00000000000000022 0.00000000000000000 
1 2807.99999999999863576 3325.86670000000003711 -86.00000000000000000 0.00000000000000022 1.00000000000000000 -0.00000000000000000 0.00000000000000000 0.00000000000000000 1.00000000000000000 1.00000000000000000 -0.00000000000000022 0.00000000000000000 
1 2807.99999999999863576 3134.00000000000000000 -15.00000000000220268 -0.00000000000000022 -1.00000000000000000 0.00000000000000000 0.00000000000000000 -0.00000000000000000 -1.00000000000000000 1.00000000000000000 -0.00000000000000022 0.00000000000000000 
2 2807.99999999999863576 3290.86670000000003711 -36.00000000000000000 1.00000000000000000 -0.00000000000000022 0.00000000000000000 0.00000000000000022 1.00000000000000000 0.00000000000000000 -0.00000000000000000 0.00000000000000000 1.00000000000000000 5.00000000000000000
1 2557.99999999999772626 3307.57351696406340125 0.00000000000000000 0.86420031252792595 0.50314791048620600 -0.00000000000000000 -0.50314791048620600 0.86420031252792595 0.00000000000000000 0.00000000000000000 0.00000000000000000 1.00000000000000000 
1 2807.99999999999863576 3134.00000000000000000 -86.00000000000000000 0.00000000000000000 -0.00000000000000000 -1.00000000000000000 0.00000000000000022 1.00000000000000000 0.00000000000000000 1.00000000000000000 -0.00000000000000022 0.00000000000000000 
Triangulations 0

TShapes 204
Ve
0.000000100000000
2372.128123873290861 4123.696420151807615 0.000000000000000
0 0

0101101
*
Ed
 0.000000100000000 1 1 0
1  1 0 0.000000000000000 15.000000000000000
0

0101000
+204 8 -204 10 *
Ve
0.000000100000000
2807.999999999997726 3375.048549972169440 0.000000000000000
0 0

0101101
*
Ed
 0.000000100000000 1 1 0
1  2 0 0.000000000000000 15.000000000000000
2  1 2 0 0.000000000000000 15.000000000000000
0

0101000
+202 8 -202 10 *
Ed
 0.000000100000000 1 1 0
1  3 0 0.000000000000000 866.289747095464350
2  2 3 11 0.000000000000000 866.289747095464350
0

0101000
+204 0 -202 0 *
Wi

0101100
+203 0 -201 0 -200 8 +200 10 *
Fa
0  0.000000100000000 1 0

0111000
+199 0 *
Ve
0.000000100000000
1117.362970501571908 4962.667000000000371 0.000000000000000
0 0

0101101
*
Ed
 0.000000100000000 1 1 0
1  4 0 0.000000000000000 15.000000000000000
2  3 5 0 0.000000000000000 15.000000000000000
0

0101000
+197 8 -197 10 *
Ed
 0.000000100000000 1 1 0
1  5 0 0.000000000000000 1509.406248816655079
2  4 3 11 0.000000000000000 1509.406248816655079
0

0101000
+204 0 -197 0 *
Wi

0101100
+203 0 -196 0 -195 8 +195 10 *
Fa
0  0.000000100000000 4 0

0111000
+194 0 *
Ve
0.000000100000000
2807.999999999997726 3134.000000000000000 0.000000000000000
0 0

0101101
*
Ve
0.000000100004586
2807.999999999998181 3134.000000000000000 -15.000000000001101
0 0

0101101
*
Ed
 0.000000100000000 1 1 0
1  6 0 0.000000000000000 15.000000000000000
2  5 2 0 0.000000000000000 15.000000000000000
2  6 6 0 0.000000000000000 15.000000000000000
0

0101000
+192 8 -191 12 *
Ed
 0.000000100000000 1 1 0
1  7 0 0.000000000000000 241.048549972169440
2  7 2 14 0.000000000000000 241.048549972169440
2  8 2 15 0.000000000000000 241.048549972169440
2  9 3 11 0.000000000000000 241.048549972169440
0

0101000
+202 0 -192 0 *
Ve
0.000000100004586
3325.866700000000037 -15.000000000002203 0.000000000000000
0 0

0101101
*
Ed
 0.000000100000000 1 1 0
1  7 0 0.000000000000000 49.181849972169402
2  7 2 14 0.000000000000000 49.181849972169402
2  8 2 15 0.000000000000000 49.181849972169402
2  9 3 11 0.000000000000000 49.181849972169402
0

0101000
+202 0 -188 19 *
Ed
 0.000000100004586 1 1 0
1  7 0 49.181849972169402 241.048549972169440
2  7 2 14 49.181849972169402 241.048549972169440
2  8 2 15 49.181849972169402 241.048549972169440
2  9 3 11 49.181849972169402 241.048549972169440
2  10 7 20 49.181849972169402 241.048549972169440
0

0101000
+188 19 -191 21 *
Wi

0101100
+201 4 -190 4 -189 13 +187 16 +186 16 *
Fa
0  0.000000100000000 2 4

0111000
+185 0 *
Ve
0.000000100000000
2557.999999999997726 3134.000000000000000 0.000000000000000
0 0

0101101
*
Ed
 0.000000100000000 1 1 0
1  8 0 0.000000000000000 250.000000000000000
2  11 6 14 0.000000000000000 250.000000000000000
2  12 6 15 0.000000000000000 250.000000000000000
2  13 3 11 0.000000000000000 250.000000000000000
0

0101000
+192 0 -183 0 *
Ve
0.000000100000000
2557.999999999997726 3307.573516964063401 0.000000000000000
0 0

0101101
*
Ed
 0.000000100000000 1 1 0
1  9 0 0.000000000000000 173.573516964063401
2  14 3 11 0.000000000000000 173.573516964063401
2  15 8 14 0.000000000000000 173.573516964063401
2  16 8 15 0.000000000000000 173.573516964063401
0

0101000
+183 0 -181 0 *
Ve
0.000000100000000
2185.145704346284674 3947.983209851285210 0.000000000000000
0 0

0101101
*
Ed
 0.000000100000000 1 1 0
1  10 0 0.000000000000000 741.043116513021914
2  17 3 11 0.000000000000000 741.043116513021914
0

0101000
+181 0 -179 0 *
Ve
0.000000100001364
1027.000000000000000 4722.351361941852701 0.000000000000000
0 0

0101101
*
Ed
 0.000000100000000 1 1 0
1  11 0 0.000000000000000 1393.178921555990200
2  18 3 11 0.000000000000000 1393.178921555990200
2  19 9 14 0.000000000000000 1393.178921555990200
2  20 9 15 0.000000000000000 1393.178921555990200
0

0101000
+177 0 -179 0 *
Ve
0.000000100001456
1027.000000000000000 4962.667000000000371 0.000000000000000
0 0

0101101
*
Ed
 0.000000100000000 1 1 0
1  12 0 0.000000000000000 240.315638058147670
2  21 3 11 0.000000000000000 240.315638058147670
2  22 10 14 0.000000000000000 240.315638058147670
2  23 10 15 0.000000000000000 240.315638058147670
0

0101000
+175 0 -177 0 *
Ed
 0.000000100000000 1 1 0
1  13 0 0.000000000000000 90.362970501571908
2  24 3 11 0.000000000000000 90.362970501571908
2  25 5 14 0.000000000000000 90.362970501571908
2  26 5 15 0.000000000000000 90.362970501571908
0

0101000
+197 0 -175 0 *
Wi

0101100
+200 23 +189 23 +182 23 +180 23 +178 23 -176 23 -174 23 -173 23 -195 23 *
Ve
0.000000100000000
1159.327809298529928 4745.800299999999879 0.000000000000000
0 0

0101101
*
Ed
 0.000000100000000 1 1 0
1  14 0 0.000000000000000 6.283185307179586
2  27 11 14 0.000000000000000 6.283185307179586
2  28 11 15 0.000000000000000 6.283185307179586
2  29 3 11 0.000000000000000 6.283185307179586
0

0101000
+171 0 -171 0 *
Wi

0101100
+170 23 *
Ve
0.000000100000000
1311.327809298530156 4745.800299999999879 0.000000000000000
0 0

0101101
*
Ed
 0.000000100000000 1 1 0
1  15 0 0.000000000000000 6.283185307179586
2  30 12 14 0.000000000000000 6.283185307179586
2  31 12 15 0.000000000000000 6.283185307179586
2  32 3 11 0.000000000000000 6.283185307179586
0

0101000
+168 0 -168 0 *
Wi

0101100
+167 23 *
Ve
0.000000100000000
1855.327809298530383 4382.066899999999805 0.000000000000000
0 0

0101101
*
Ed
 0.000000100000000 1 1 0
1  16 0 0.000000000000000 6.283185307179586
2  33 13 14 0.000000000000000 6.283185307179586
2  34 13 15 0.000000000000000 6.283185307179586
2  35 3 11 0.000000000000000 6.283185307179586
0

0101000
+165 0 -165 0 *
Wi

0101100
+164 23 *
Ve
0.000000100000000
1703.327809298530156 4382.066899999999805 0.000000000000000
0 0

0101101
*
Ed
 0.000000100000000 1 1 0
1  17 0 0.000000000000000 6.283185307179586
2  36 14 14 0.000000000000000 6.283185307179586
2  37 14 15 0.000000000000000 6.283185307179586
2  38 3 11 0.000000000000000 6.283185307179586
0

0101000
+162 0 -162 0 *
Wi

0101100
+161 23 *
Ve
0.000000100000000
1431.327809298530156 4563.933600000000297 0.000000000000000
0 0

0101101
*
Ed
 0.000000100000000 1 1 0
1  18 0 0.000000000000000 6.283185307179586
2  39 15 14 0.000000000000000 6.283185307179586
2  40 15 15 0.000000000000000 6.283185307179586
2  41 3 11 0.000000000000000 6.283185307179586
0

0101000
+159 0 -159 0 *
Wi

0101100
+158 23 *
Ve
0.000000100000000
1583.327809298530156 4563.933600000000297 0.000000000000000
0 0

0101101
*
Ed
 0.000000100000000 1 1 0
1  19 0 0.000000000000000 6.283185307179586
2  42 16 14 0.000000000000000 6.283185307179586
2  43 16 15 0.000000000000000 6.283185307179586
2  44 3 11 0.000000000000000 6.283185307179586
0

0101000
+156 0 -156 0 *
Wi

0101100
+155 23 *
Ve
0.000000100000000
1975.327809298530383 4200.200200000000223 0.000000000000000
0 0

0101101
*
Ed
 0.000000100000000 1 1 0
1  20 0 0.000000000000000 6.283185307179586
2  45 17 14 0.000000000000000 6.283185307179586
2  46 17 15 0.000000000000000 6.283185307179586
2  47 3 11 0.000000000000000 6.283185307179586
0

0101000
+153 0 -153 0 *
Wi

0101100
+152 23 *
Ve
0.000000100000000
2127.327809298529246 4200.200200000000223 0.000000000000000
0 0

0101101
*
Ed
 0.000000100000000 1 1 0
1  21 0 0.000000000000000 6.283185307179586
2  48 18 14 0.000000000000000 6.283185307179586
2  49 18 15 0.000000000000000 6.283185307179586
2  50 3 11 0.000000000000000 6.283185307179586
0

0101000
+150 0 -150 0 *
Wi

0101100
+149 23 *
Ve
0.000000100000000
2247.327809298529701 4018.333500000000186 0.000000000000000
0 0

0101101
*
Ed
 0.000000100000000 1 1 0
1  22 0 0.000000000000000 6.283185307179586
2  51 19 14 0.000000000000000 6.283185307179586
2  52 19 15 0.000000000000000 6.283185307179586
2  53 3 11 0.000000000000000 6.283185307179586
0

0101000
+147 0 -147 0 *
Wi

0101100
+146 23 *
Ve
0.000000100000000
2316.909999999995307 4018.333500000000186 0.000000000000000
0 0

0101101
*
Ed
 0.000000100000000 1 1 0
1  23 0 0.000000000000000 6.283185307179586
2  54 20 14 0.000000000000000 6.283185307179586
2  55 20 15 0.000000000000000 6.283185307179586
2  56 3 11 0.000000000000000 6.283185307179586
0

0101000
+144 0 -144 0 *
Wi

0101100
+143 23 *
Ve
0.000000100000000
2396.198380987131259 3836.466800000000148 0.000000000000000
0 0

0101101
*
Ed
 0.000000100000000 1 1 0
1  24 0 0.000000000000000 6.283185307179586
2  57 21 14 0.000000000000000 6.283185307179586
2  58 21 15 0.000000000000000 6.283185307179586
2  59 3 11 0.000000000000000 6.283185307179586
0

0101000
+141 0 -141 0 *
Wi

0101100
+140 23 *
Ve
0.000000100000000
2478.229999999996380 3836.466800000000148 0.000000000000000
0 0

0101101
*
Ed
 0.000000100000000 1 1 0
1  25 0 0.000000000000000 6.283185307179586
2  60 22 14 0.000000000000000 6.283185307179586
2  61 22 15 0.000000000000000 6.283185307179586
2  62 3 11 0.000000000000000 6.283185307179586
0

0101000
+138 0 -138 0 *
Wi

0101100
+137 23 *
Ve
0.000000100000000
2512.717632971316561 3654.600100000000111 0.000000000000000
0 0

0101101
*
Ed
 0.000000100000000 1 1 0
1  26 0 0.000000000000000 6.283185307179586
2  63 23 14 0.000000000000000 6.283185307179586
2  64 23 15 0.000000000000000 6.283185307179586
2  65 3 11 0.000000000000000 6.283185307179586
0

0101000
+135 0 -135 0 *
Wi

0101100
+134 23 *
Ve
0.000000100000000
2580.689999999998690 3654.600100000000111 0.000000000000000
0 0

0101101
*
Ed
 0.000000100000000 1 1 0
1  27 0 0.000000000000000 6.283185307179586
2  66 24 14 0.000000000000000 6.283185307179586
2  67 24 15 0.000000000000000 6.283185307179586
2  68 3 11 0.000000000000000 6.283185307179586
0

0101000
+132 0 -132 0 *
Wi

0101100
+131 23 *
Ve
0.000000100000000
2603.214314169723366 3472.733400000000074 0.000000000000000
0 0

0101101
*
Ed
 0.000000100000000 1 1 0
1  28 0 0.000000000000000 6.283185307179586
2  69 25 14 0.000000000000000 6.283185307179586
2  70 25 15 0.000000000000000 6.283185307179586
2  71 3 11 0.000000000000000 6.283185307179586
0

0101000
+129 0 -129 0 *
Wi

0101100
+128 23 *
Ve
0.000000100000000
2689.999999999999545 3472.733400000000074 0.000000000000000
0 0

0101101
*
Ed
 0.000000100000000 1 1 0
1  29 0 0.000000000000000 6.283185307179586
2  72 26 14 0.000000000000000 6.283185307179586
2  73 26 15 0.000000000000000 6.283185307179586
2  74 3 11 0.000000000000000 6.283185307179586
0

0101000
+126 0 -126 0 *
Wi

0101100
+125 23 *
Ve
0.000000100000000
2757.378304359840968 3290.866700000000037 0.000000000000000
0 0

0101101
*
Ed
 0.000000100000000 1 1 0
1  30 0 0.000000000000000 6.283185307179586
2  75 27 14 0.000000000000000 6.283185307179586
2  76 27 15 0.000000000000000 6.283185307179586
2  77 3 11 0.000000000000000 6.283185307179586
0

0101000
+123 0 -123 0 *
Wi

0101100
+122 23 *
Fa
0  0.000000100000000 3 0

0111000
+172 0 +169 0 +166 0 +163 0 +160 0 +157 0 +154 0 +151 0 +148 0 +145 0 
+142 0 +139 0 +136 0 +133 0 +130 0 +127 0 +124 0 +121 0 *
Ve
0.000000100002203
3134.000000000000000 -15.000000000002203 0.000000000000000
0 0

0101101
*
Ed
 0.000000100000000 1 1 0
1  8 0 14.999999999999091 250.000000000000000
2  11 6 14 14.999999999999091 250.000000000000000
2  12 6 15 14.999999999999091 250.000000000000000
2  13 3 11 14.999999999999091 250.000000000000000
0

0101000
+119 26 -183 0 *
Ed
 0.000000100002203 1 1 0
1  31 0 0.000000000000000 191.866700000000037
2  78 28 28 0.000000000000000 191.866700000000037
2  79 28 29 0.000000000000000 191.866700000000037
2  80 7 30 0.000000000000000 191.866700000000037
2  81 3 31 0.000000000000000 191.866700000000037
0

0101000
+188 0 -119 0 *
Ed
 0.000000100002203 1 1 0
1  32 0 0.000000000000000 15.000000000000000
2  82 28 0 0.000000000000000 15.000000000000000
2  83 29 0 0.000000000000000 15.000000000000000
2  84 3 24 0.000000000000000 15.000000000000000
0

0101000
+188 32 -188 27 *
Wi

0101100
-195 16 -173 16 -174 16 -176 16 +178 16 +180 16 +118 16 +117 27 +116 0 +187 16 
+200 16 *
Wi

0101100
+170 16 *
Wi

0101100
+167 16 *
Wi

0101100
+158 16 *
Wi

0101100
+161 16 *
Wi

0101100
+164 16 *
Wi

0101100
+155 16 *
Wi

0101100
+122 16 *
Wi

0101100
+128 16 *
Wi

0101100
+125 16 *
Wi

0101100
+134 16 *
Wi

0101100
+140 16 *
Wi

0101100
+137 16 *
Wi

0101100
+131 16 *
Wi

0101100
+152 16 *
Wi

0101100
+149 16 *
Wi

0101100
+146 16 *
Wi

0101100
+143 16 *
Fa
0  0.000000100000000 3 24

0111000
+115 0 +114 0 +113 0 +112 0 +111 0 +110 0 +109 0 +108 0 +107 0 +106 0 
+105 0 +104 0 +103 0 +102 0 +101 0 +100 0 +99 0 +98 0 *
Ed
 0.000000100000000 1 1 0
1  33 0 0.000000000000000 15.000000000000000
2  85 5 0 0.000000000000000 15.000000000000000
2  86 10 0 0.000000000000000 15.000000000000000
0

0101000
+175 8 -175 10 *
Wi

0101100
+196 0 -96 0 -173 8 +173 10 *
Fa
0  0.000000100000000 5 0

0111000
+95 0 *
Ed
 0.000000100000000 1 1 0
1  34 0 0.000000000000000 15.000000000000000
2  87 6 0 0.000000000000000 15.000000000000000
2  88 8 0 0.000000000000000 15.000000000000000
0

0101000
+183 8 -183 10 *
Ed
 0.000000100002203 1 1 0
1  8 0 0.000000000000000 14.999999999999091
2  11 6 14 0.000000000000000 14.999999999999091
2  12 6 15 0.000000000000000 14.999999999999091
2  13 3 11 0.000000000000000 14.999999999999091
2  89 30 21 0.000000000000000 14.999999999999091
0

0101000
+191 21 -119 26 *
Wi

0101100
+190 4 -93 4 -182 13 +92 16 +118 16 *
Fa
0  0.000000100000000 6 4

0111000
+91 0 *
Ve
0.000000100000000
3134.000000000000000 -86.000000000000000 0.000000000000000
0 0

0101101
*
Ed
 0.000000100000000 1 1 0
1  35 0 0.000000000000000 70.999999999997797
2  90 30 28 0.000000000000000 70.999999999997797
2  91 30 29 0.000000000000000 70.999999999997797
2  92 7 30 0.000000000000000 70.999999999997797
0

0101000
+191 28 -89 0 *
Ve
0.000000100000000
3325.866700000000037 -86.000000000000000 0.000000000000000
0 0

0101101
*
Ed
 0.000000100000000 1 1 0
1  36 0 0.000000000000000 191.866700000000037
2  93 7 30 0.000000000000000 191.866700000000037
0

0101000
+89 0 -87 0 *
Ed
 0.000000100000000 1 1 0
1  37 0 0.000000000000000 70.999999999997797
2  94 29 28 0.000000000000000 70.999999999997797
2  95 29 29 0.000000000000000 70.999999999997797
2  96 7 30 0.000000000000000 70.999999999997797
0

0101000
+87 0 -188 0 *
Wi

0101100
+186 16 +88 32 +86 32 +85 32 *
Ve
0.000000100000000
3295.866700000000037 -36.000000000000000 0.000000000000000
0 0

0101101
*
Ed
 0.000000100000000 1 1 0
1  38 0 0.000000000000000 6.283185307179586
2  97 31 28 0.000000000000000 6.283185307179586
2  98 31 29 0.000000000000000 6.283185307179586
2  99 7 30 0.000000000000000 6.283185307179586
0

0101000
+83 0 -83 0 *
Wi

0101100
-82 32 *
Fa
0  0.000000100000000 7 33

0111000
+84 0 +81 0 *
Ed
 0.000000100000000 1 1 0
1  39 0 0.000000000000000 15.000000000000000
2  100 8 0 0.000000000000000 15.000000000000000
0

0101000
+181 8 -181 10 *
Wi

0101100
+93 0 -79 0 -180 8 +180 10 *
Fa
0  0.000000100000000 8 0

0111000
+78 0 *
Ed
 0.000000100000000 1 1 0
1  40 0 0.000000000000000 15.000000000000000
2  101 9 0 0.000000000000000 15.000000000000000
0

0101000
+179 8 -179 10 *
Wi

0101100
+79 0 -76 0 -178 8 +178 10 *
Fa
0  0.000000100000000 32 0

0111000
+75 0 *
Ed
 0.000000100000000 1 1 0
1  41 0 0.000000000000000 15.000000000000000
2  102 10 0 0.000000000000000 15.000000000000000
2  103 9 0 0.000000000000000 15.000000000000000
0

0101000
+177 8 -177 10 *
Wi

0101100
+73 0 -76 0 -176 8 +176 10 *
Fa
0  0.000000100000000 9 0

0111000
+72 0 *
Wi

0101100
+96 0 -73 0 -174 8 +174 10 *
Fa
0  0.000000100000000 10 0

0111000
+70 0 *
Ed
 0.000000100000000 1 1 0
1  42 0 0.000000000000000 15.000000000000000
3  104 105CN 11 0 0.000000000000000 15.000000000000000
0

0101000
+171 8 -171 10 *
Wi

0101100
+68 0 -68 0 -170 8 +170 10 *
Fa
0  0.000000100000000 11 0

0111000
+67 0 *
Ed
 0.000000100000000 1 1 0
1  43 0 0.000000000000000 15.000000000000000
3  106 107CN 12 0 0.000000000000000 15.000000000000000
0

0101000
+168 8 -168 10 *
Wi

0101100
+65 0 -65 0 -167 8 +167 10 *
Fa
0  0.000000100000000 12 0

0111000
+64 0 *
Ed
 0.000000100000000 1 1 0
1  44 0 0.000000000000000 15.000000000000000
3  108 109CN 13 0 0.000000000000000 15.000000000000000
0

0101000
+165 8 -165 10 *
Wi

0101100
+62 0 -62 0 -164 8 +164 10 *
Fa
0  0.000000100000000 13 0

0111000
+61 0 *
Ed
 0.000000100000000 1 1 0
1  45 0 0.000000000000000 15.000000000000000
3  110 111CN 14 0 0.000000000000000 15.000000000000000
0

0101000
+162 8 -162 10 *
Wi

0101100
+59 0 -59 0 -161 8 +161 10 *
Fa
0  0.000000100000000 14 0

0111000
+58 0 *
Ed
 0.000000100000000 1 1 0
1  46 0 0.000000000000000 15.000000000000000
3  112 113CN 15 0 0.000000000000000 15.000000000000000
0

0101000
+159 8 -159 10 *
Wi

0101100
+56 0 -56 0 -158 8 +158 10 *
Fa
0  0.000000100000000 15 0

0111000
+55 0 *
Ed
 0.000000100000000 1 1 0
1  47 0 0.000000000000000 15.000000000000000
3  114 115CN 16 0 0.000000000000000 15.000000000000000
0

0101000
+156 8 -156 10 *
Wi

0101100
+53 0 -53 0 -155 8 +155 10 *
Fa
0  0.000000100000000 16 0

0111000
+52 0 *
Ed
 0.000000100000000 1 1 0
1  48 0 0.000000000000000 15.000000000000000
3  116 117CN 17 0 0.000000000000000 15.000000000000000
0

0101000
+153 8 -153 10 *
Wi

0101100
+50 0 -50 0 -152 8 +152 10 *
Fa
0  0.000000100000000 17 0

0111000
+49 0 *
Ed
 0.000000100000000 1 1 0
1  49 0 0.000000000000000 15.000000000000000
3  118 119CN 18 0 0.000000000000000 15.000000000000000
0

0101000
+150 8 -150 10 *
Wi

0101100
+47 0 -47 0 -149 8 +149 10 *
Fa
0  0.000000100000000 18 0

0111000
+46 0 *
Ed
 0.000000100000000 1 1 0
1  50 0 0.000000000000000 15.000000000000000
3  120 121CN 19 0 0.000000000000000 15.000000000000000
0

0101000
+147 8 -147 10 *
Wi

0101100
+44 0 -44 0 -146 8 +146 10 *
Fa
0  0.000000100000000 19 0

0111000
+43 0 *
Ed
 0.000000100000000 1 1 0
1  51 0 0.000000000000000 15.000000000000000
3  122 123CN 20 0 0.000000000000000 15.000000000000000
0

0101000
+144 8 -144 10 *
Wi

0101100
+41 0 -41 0 -143 8 +143 10 *
Fa
0  0.000000100000000 20 0

0111000
+40 0 *
Ed
 0.000000100000000 1 1 0
1  52 0 0.000000000000000 15.000000000000000
3  124 125CN 21 0 0.000000000000000 15.000000000000000
0

0101000
+141 8 -141 10 *
Wi

0101100
+38 0 -38 0 -140 8 +140 10 *
Fa
0  0.000000100000000 21 0

0111000
+37 0 *
Ed
 0.000000100000000 1 1 0
1  53 0 0.000000000000000 15.000000000000000
3  126 127CN 22 0 0.000000000000000 15.000000000000000
0

0101000
+138 8 -138 10 *
Wi

0101100
+35 0 -35 0 -137 8 +137 10 *
Fa
0  0.000000100000000 22 0

0111000
+34 0 *
Ed
 0.000000100000000 1 1 0
1  54 0 0.000000000000000 15.000000000000000
3  128 129CN 23 0 0.000000000000000 15.000000000000000
0

0101000
+135 8 -135 10 *
Wi

0101100
+32 0 -32 0 -134 8 +134 10 *
Fa
0  0.000000100000000 23 0

0111000
+31 0 *
Ed
 0.000000100000000 1 1 0
1  55 0 0.000000000000000 15.000000000000000
3  130 131CN 24 0 0.000000000000000 15.000000000000000
0

0101000
+132 8 -132 10 *
Wi

0101100
+29 0 -29 0 -131 8 +131 10 *
Fa
0  0.000000100000000 24 0

0111000
+28 0 *
Ed
 0.000000100000000 1 1 0
1  56 0 0.000000000000000 15.000000000000000
3  132 133CN 25 0 0.000000000000000 15.000000000000000
0

0101000
+129 8 -129 10 *
Wi

0101100
+26 0 -26 0 -128 8 +128 10 *
Fa
0  0.000000100000000 25 0

0111000
+25 0 *
Ed
 0.000000100000000 1 1 0
1  57 0 0.000000000000000 15.000000000000000
3  134 135CN 26 0 0.000000000000000 15.000000000000000
0

0101000
+126 8 -126 10 *
Wi

0101100
+23 0 -23 0 -125 8 +125 10 *
Fa
0  0.000000100000000 26 0

0111000
+22 0 *
Ed
 0.000000100000000 1 1 0
1  58 0 0.000000000000000 15.000000000000000
3  136 137CN 27 0 0.000000000000000 15.000000000000000
0

0101000
+123 8 -123 10 *
Wi

0101100
+20 0 -20 0 -122 8 +122 10 *
Fa
0  0.000000100000000 27 0

0111000
+19 0 *
Ed
 0.000000100000000 1 1 0
1  35 0 0.000000000000000 70.999999999997797
2  90 30 28 0.000000000000000 70.999999999997797
2  91 30 29 0.000000000000000 70.999999999997797
2  92 7 30 0.000000000000000 70.999999999997797
0

0101000
+119 0 -89 0 *
Wi

0101100
+117 35 +17 35 +86 35 +85 35 *
Wi

0101100
-82 35 *
Fa
0  0.000000100000000 7 0

0111000
+16 0 +15 0 *
Ed
 0.000000100000000 1 1 0
1  59 0 0.000000000000000 15.000000000000000
2  138 29 0 0.000000000000000 15.000000000000000
0

0101000
+87 32 -87 27 *
Wi

0101100
+13 0 -116 0 -85 32 +85 27 *
Fa
0  0.000000100000000 29 0

0111000
+12 0 *
Ed
 0.000000100000000 1 1 0
1  60 0 0.000000000000000 15.000000000000000
2  139 30 0 0.000000000000000 15.000000000000000
0

0101000
+89 32 -89 27 *
Wi

0101100
+92 16 -10 0 -88 32 +17 27 *
Fa
0  0.000000100000000 30 0

0111000
+9 0 *
Wi

0101100
+10 0 -13 0 -86 32 +86 27 *
Fa
0  0.000000100000000 33 0

0111000
+7 0 *
Ed
 0.000000100000000 1 1 0
1  61 0 0.000000000000000 15.000000000000000
3  140 141CN 31 0 0.000000000000000 15.000000000000000
0

0101000
+83 32 -83 27 *
Wi

0101100
+5 0 -5 0 -82 32 +82 27 *
Fa
0  0.000000100000000 31 0

0111000
+4 0 *
Sh

0101100
-198 4 +193 4 -184 0 -120 22 +97 0 +94 4 -90 0 +80 0 -77 4 -74 4 
+71 4 +69 4 -66 4 -63 4 -60 4 -57 4 -54 4 -51 4 -48 4 -45 4 
-42 4 -39 4 -36 4 -33 4 -30 4 -27 4 -24 4 -21 4 -18 4 -14 34 
+11 0 +8 0 +6 0 -3 0 *
So

0100000
+2 0 *

+1 1 