
CASCADE Topology V1, (c) Matra-Datavision
Locations 64
1
1.000000000000000 0.000000000000000 0.000000000000000 0.000000000000000 
0.000000000000000 -0.000000000000000 -1.000000000000000 0.000000000000000 
0.000000000000000 1.000000000000000 -0.000000000000000 0.000000000000000 
1
1.000000000000000 0.000000000000000 0.000000000000000 0.000000000000000 
0.000000000000000 -0.000000000000000 -1.000000000000000 0.000000000000000 
0.000000000000000 1.000000000000000 -0.000000000000000 0.000000000000000 
1
1.000000000000000 0.000000000000000 0.000000000000000 0.000000000000000 
0.000000000000000 -0.000000000000000 -1.000000000000000 0.000000000000000 
0.000000000000000 1.000000000000000 -0.000000000000000 0.000000000000000 
1
1.000000000000000 0.000000000000000 0.000000000000000 0.000000000000000 
0.000000000000000 -0.000000000000000 -1.000000000000000 0.000000000000000 
0.000000000000000 1.000000000000000 -0.000000000000000 0.000000000000000 
1
1.000000000000000 0.000000000000000 0.000000000000000 0.000000000000000 
0.000000000000000 -0.000000000000000 -1.000000000000000 0.000000000000000 
0.000000000000000 1.000000000000000 -0.000000000000000 0.000000000000000 
2  1 -1 2 1 3 -1 4 1 5 -1 0
1
1.000000000000000 0.000000000000000 0.000000000000000 0.000000000000000 
0.000000000000000 1.000000000000000 0.000000000000000 0.000000000000000 
0.000000000000000 0.000000000000000 1.000000000000000 0.000000000000000 
1
0.000000000000000 -0.000000000000000 1.000000000000000 4776.000000000000909 
-0.000000000000000 -1.000000000000000 0.000000000000000 0.000000000000000 
1.000000000000000 0.000000000000000 -0.000000000000000 0.000000000000000 
2  7 1 8 1 5 -1 0
1
1.000000000000000 0.000000000000000 0.000000000000000 -15.000000000000000 
0.000000000000000 1.000000000000000 0.000000000000000 0.000000000000003 
0.000000000000000 0.000000000000000 1.000000000000000 -0.000000000000000 
2  7 1 8 1 5 -1 10 1 0
1
1.000000000000000 0.000000000000000 0.000000000000000 0.000000000000000 
0.000000000000000 -0.000000000000000 -1.000000000000000 0.000000000000000 
0.000000000000000 1.000000000000000 -0.000000000000000 0.000000000000000 
1
0.000000000000000 -0.000000000000000 1.000000000000000 4776.000000000000909 
-0.000000000000000 -1.000000000000000 0.000000000000000 0.000000000000000 
1.000000000000000 0.000000000000000 -0.000000000000000 0.000000000000000 
1
1.000000000000000 0.000000000000000 0.000000000000000 0.000000000000000 
0.000000000000000 1.000000000000000 0.000000000000000 0.000000000000000 
0.000000000000000 0.000000000000000 1.000000000000000 0.000000000000000 
2  12 1 13 -1 14 -1 0
1
1.000000000000000 0.000000000000000 0.000000000000000 10.000000000000000 
0.000000000000000 1.000000000000000 0.000000000000000 -0.000000000000002 
0.000000000000000 0.000000000000000 1.000000000000000 0.000000000000000 
2  16 -1 12 1 13 -1 14 -1 0
2  13 -1 14 -1 0
1
1.000000000000000 0.000000000000000 0.000000000000000 0.000000000000000 
0.000000000000000 -0.000000000000000 -1.000000000000000 0.000000000000000 
0.000000000000000 1.000000000000000 -0.000000000000000 0.000000000000000 
1
0.000000000000000 -0.000000000000000 1.000000000000000 4776.000000000000909 
-0.000000000000000 -1.000000000000000 0.000000000000000 0.000000000000000 
1.000000000000000 0.000000000000000 -0.000000000000000 0.000000000000000 
1
1.000000000000000 0.000000000000000 0.000000000000000 0.000000000000000 
0.000000000000000 1.000000000000000 0.000000000000000 0.000000000000000 
0.000000000000000 0.000000000000000 1.000000000000000 0.000000000000000 
2  19 1 20 -1 21 -1 0
1
1.000000000000000 0.000000000000000 0.000000000000000 10.000000000000000 
0.000000000000000 1.000000000000000 0.000000000000000 -0.000000000000002 
0.000000000000000 0.000000000000000 1.000000000000000 0.000000000000000 
2  23 -1 19 1 20 -1 21 -1 0
1
1.000000000000000 0.000000000000000 0.000000000000000 0.000000000000000 
0.000000000000000 -0.000000000000000 -1.000000000000000 0.000000000000000 
0.000000000000000 1.000000000000000 -0.000000000000000 0.000000000000000 
1
0.000000000000000 -0.000000000000000 1.000000000000000 4776.000000000000909 
-0.000000000000000 -1.000000000000000 0.000000000000000 0.000000000000000 
1.000000000000000 0.000000000000000 -0.000000000000000 0.000000000000000 
1
1.000000000000000 0.000000000000000 0.000000000000000 0.000000000000000 
0.000000000000000 1.000000000000000 0.000000000000000 0.000000000000000 
0.000000000000000 0.000000000000000 1.000000000000000 0.000000000000000 
2  25 1 26 -1 27 -1 0
1
1.000000000000000 0.000000000000000 0.000000000000000 -10.000000000000000 
0.000000000000000 1.000000000000000 0.000000000000000 0.000000000000002 
0.000000000000000 0.000000000000000 1.000000000000000 -0.000000000000000 
2  29 -1 25 1 26 -1 27 -1 0
2  1 -1 2 1 3 -1 4 1 26 -1 27 -1 0
2  1 -1 2 1 3 -1 4 1 25 -1 29 -1 25 1 26 -1 27 -1 0
1
1.000000000000000 0.000000000000000 0.000000000000000 0.000000000000000 
0.000000000000000 -0.000000000000000 -1.000000000000000 0.000000000000000 
0.000000000000000 1.000000000000000 -0.000000000000000 0.000000000000000 
1
0.000000000000000 -0.000000000000000 1.000000000000000 4776.000000000000909 
-0.000000000000000 -1.000000000000000 0.000000000000000 0.000000000000000 
1.000000000000000 0.000000000000000 -0.000000000000000 0.000000000000000 
1
1.000000000000000 0.000000000000000 0.000000000000000 0.000000000000000 
0.000000000000000 1.000000000000000 0.000000000000000 0.000000000000000 
0.000000000000000 0.000000000000000 1.000000000000000 0.000000000000000 
2  33 1 34 -1 35 -1 0
1
1.000000000000000 0.000000000000000 0.000000000000000 -15.000000000000000 
0.000000000000000 1.000000000000000 0.000000000000000 0.000000000000003 
0.000000000000000 0.000000000000000 1.000000000000000 -0.000000000000000 
2  37 -1 33 1 34 -1 35 -1 0
2  1 -1 2 1 3 -1 4 1 34 -1 35 -1 0
2  1 -1 2 1 3 -1 4 1 33 -1 37 -1 33 1 34 -1 35 -1 0
1
1.000000000000000 0.000000000000000 0.000000000000000 0.000000000000000 
0.000000000000000 -0.000000000000000 -1.000000000000000 0.000000000000000 
0.000000000000000 1.000000000000000 -0.000000000000000 0.000000000000000 
1
0.000000000000000 -0.000000000000000 1.000000000000000 4776.000000000000909 
-0.000000000000000 -1.000000000000000 0.000000000000000 0.000000000000000 
1.000000000000000 0.000000000000000 -0.000000000000000 0.000000000000000 
1
1.000000000000000 0.000000000000000 0.000000000000000 0.000000000000000 
0.000000000000000 1.000000000000000 0.000000000000000 0.000000000000000 
0.000000000000000 0.000000000000000 1.000000000000000 0.000000000000000 
2  41 1 42 -1 43 -1 0
1
1.000000000000000 0.000000000000000 0.000000000000000 -15.000000000000000 
0.000000000000000 1.000000000000000 0.000000000000000 0.000000000000003 
0.000000000000000 0.000000000000000 1.000000000000000 -0.000000000000000 
2  45 -1 41 1 42 -1 43 -1 0
2  1 -1 2 1 3 -1 4 1 42 -1 43 -1 0
2  1 -1 2 1 3 -1 4 1 41 -1 45 -1 41 1 42 -1 43 -1 0
1
1.000000000000000 0.000000000000000 0.000000000000000 0.000000000000000 
0.000000000000000 -0.000000000000000 -1.000000000000000 0.000000000000000 
0.000000000000000 1.000000000000000 -0.000000000000000 0.000000000000000 
1
0.000000000000000 -0.000000000000000 1.000000000000000 4776.000000000000909 
-0.000000000000000 -1.000000000000000 0.000000000000000 0.000000000000000 
1.000000000000000 0.000000000000000 -0.000000000000000 0.000000000000000 
1
1.000000000000000 0.000000000000000 0.000000000000000 0.000000000000000 
0.000000000000000 1.000000000000000 0.000000000000000 0.000000000000000 
0.000000000000000 0.000000000000000 1.000000000000000 0.000000000000000 
2  49 1 50 -1 51 -1 0
1
1.000000000000000 0.000000000000000 0.000000000000000 -15.000000000000000 
0.000000000000000 1.000000000000000 0.000000000000000 0.000000000000003 
0.000000000000000 0.000000000000000 1.000000000000000 -0.000000000000000 
2  53 -1 49 1 50 -1 51 -1 0
2  1 -1 2 1 3 -1 4 1 50 -1 51 -1 0
2  1 -1 2 1 3 -1 4 1 49 -1 53 -1 49 1 50 -1 51 -1 0
2  5 1 8 -1 7 -1 0
2  10 -1 5 1 8 -1 7 -1 0
2  1 -1 2 1 3 -1 4 1 8 -1 7 -1 0
2  1 -1 2 1 3 -1 4 1 5 -1 10 -1 5 1 8 -1 7 -1 0
2  5 -1 0
2  13 -1 14 -1 7 1 8 1 0
2  7 1 8 1 0
2  5 -1 10 1 0
Curve2ds 98
1 0.00000000000000000 0.00000000000000000 -0.00000000000000000 -1.00000000000000000 
1 80.00000000000000000 0.00000000000000000 0.00000000000000000 -1.00000000000000000 
1 -1207.88349854737703026 2361.91980449936318109 0.00000000000000022 -1.00000000000000000 
1 140.00000000000000000 0.00000000000003109 -0.00000000000000000 -1.00000000000000000 
1 0.00000000000000000 0.00000000000000000 -0.00000000000000000 -1.00000000000000000 
1 -1347.88349854737703026 2361.91980449936318109 0.00000000000000022 -1.00000000000000000 
1 0.00000000000000000 0.00000000000000000 1.00000000000000000 -0.00000000000000000 
1 -0.00000000000000222 -10.00000000000000000 1.00000000000000000 -0.00000000000000000 
1 70.00000000000000000 40.00000000000000711 -1.00000000000000000 -0.00000000000000022 
1 0.00000000000000000 0.00000000000000000 1.00000000000000000 -0.00000000000000000 
1 -0.00000000000000222 -10.00000000000000000 1.00000000000000000 -0.00000000000000000 
1 0.00000000000000000 0.00000000000000000 1.00000000000000000 0.00000000000000000 
1 0.00000000000000222 -10.00000000000000000 1.00000000000000000 0.00000000000000000 
1 -1207.88349854737703026 2361.91980449936318109 -1.00000000000000000 -0.00000000000000022 
1 -1207.88349854737703026 2351.91980449936318109 -1.00000000000000000 -0.00000000000000022 
1 0.00000000000000000 0.00000000000000000 1.00000000000000000 0.00000000000000000 
1 0.00000000000000333 -15.00000000000000000 1.00000000000000000 0.00000000000000000 
1 -1207.88349854737703026 2361.91980449936318109 -1.00000000000000000 -0.00000000000000022 
1 -1207.88349854737703026 2346.91980449936318109 -1.00000000000000000 -0.00000000000000022 
1 0.00000000000000000 0.00000000000000000 1.00000000000000000 0.00000000000000000 
1 0.00000000000000333 -15.00000000000000000 1.00000000000000000 0.00000000000000000 
1 -1207.88349854737703026 2361.91980449936318109 -1.00000000000000000 -0.00000000000000022 
1 -1207.88349854737703026 2346.91980449936318109 -1.00000000000000000 -0.00000000000000022 
1 0.00000000000000000 0.00000000000000000 1.00000000000000000 0.00000000000000000 
1 0.00000000000000333 -15.00000000000000000 1.00000000000000000 0.00000000000000000 
1 -1207.88349854737703026 2361.91980449936318109 -1.00000000000000000 -0.00000000000000022 
1 -1207.88349854737703026 2346.91980449936318109 -1.00000000000000000 -0.00000000000000022 
1 0.00000000000000000 0.00000000000000000 1.00000000000000000 0.00000000000000000 
1 0.00000000000000333 -15.00000000000000000 1.00000000000000000 0.00000000000000000 
1 -1207.88349854737703026 2361.91980449936318109 -1.00000000000000000 -0.00000000000000022 
1 -1207.88349854737703026 2346.91980449936318109 -1.00000000000000000 -0.00000000000000022 
1 80.00000000000000000 -0.00000000000000000 -0.00000000000000000 -1.00000000000000000 
1 0.00000000000000000 0.00000000000000000 1.00000000000000000 0.00000000000000000 
1 0.00000000000000000 -10.00000000000000000 1.00000000000000000 0.00000000000000000 
1 -70.00000000000000000 39.99999999999997868 0.00000000000000022 -1.00000000000000000 
1 0.00000000000000000 0.00000000000000000 1.00000000000000000 0.00000000000000000 
1 0.00000000000000000 -10.00000000000000000 1.00000000000000000 0.00000000000000000 
1 0.00000000000000000 0.00000000000000000 1.00000000000000000 0.00000000000000000 
1 0.00000000000000000 -10.00000000000000000 1.00000000000000000 0.00000000000000000 
1 0.00000000000000000 0.00000000000000000 1.00000000000000000 0.00000000000000000 
1 0.00000000000000000 -15.00000000000000000 1.00000000000000000 0.00000000000000000 
1 0.00000000000000000 0.00000000000000000 1.00000000000000000 0.00000000000000000 
1 0.00000000000000000 -15.00000000000000000 1.00000000000000000 0.00000000000000000 
1 0.00000000000000000 0.00000000000000000 1.00000000000000000 0.00000000000000000 
1 0.00000000000000000 -15.00000000000000000 1.00000000000000000 0.00000000000000000 
1 0.00000000000000000 0.00000000000000000 1.00000000000000000 0.00000000000000000 
1 0.00000000000000000 -15.00000000000000000 1.00000000000000000 0.00000000000000000 
1 0.00000000000000000 0.00000000000000000 0.00000000000000000 -1.00000000000000000 
1 -70.00000000000000000 -40.00000000000001421 1.00000000000000000 0.00000000000000022 
1 0.00000000000000000 0.00000000000000000 1.00000000000000000 0.00000000000000000 
1 -0.00000000000000000 -10.00000000000000000 1.00000000000000000 0.00000000000000000 
1 70.00000000000000000 -39.99999999999998579 -0.00000000000000022 1.00000000000000000 
1 0.00000000000000000 0.00000000000000000 1.00000000000000000 0.00000000000000000 
1 -0.00000000000000000 -10.00000000000000000 1.00000000000000000 0.00000000000000000 
1 0.00000000000000000 0.00000000000000000 1.00000000000000000 0.00000000000000000 
1 0.00000000000000000 -10.00000000000000000 1.00000000000000000 0.00000000000000000 
1 0.00000000000000000 0.00000000000000000 1.00000000000000000 0.00000000000000000 
1 0.00000000000000000 -15.00000000000000000 1.00000000000000000 0.00000000000000000 
1 0.00000000000000000 0.00000000000000000 1.00000000000000000 0.00000000000000000 
1 0.00000000000000000 -15.00000000000000000 1.00000000000000000 0.00000000000000000 
1 0.00000000000000000 0.00000000000000000 1.00000000000000000 0.00000000000000000 
1 0.00000000000000000 -15.00000000000000000 1.00000000000000000 0.00000000000000000 
1 0.00000000000000000 0.00000000000000000 1.00000000000000000 0.00000000000000000 
1 0.00000000000000000 -15.00000000000000000 1.00000000000000000 0.00000000000000000 
1 0.00000000000000000 0.00000000000000000 0.00000000000000000 -1.00000000000000000 
1 6.28318530717958623 0.00000000000000000 0.00000000000000000 -1.00000000000000000 
1 0.00000000000000000 0.00000000000000000 1.00000000000000000 0.00000000000000000 
1 0.00000000000000000 -10.00000000000000000 1.00000000000000000 0.00000000000000000 
2 30.00000000000000000 0.00000000000000000 1.00000000000000000 0.00000000000000022 -0.00000000000000022 1.00000000000000000 5.00000000000000000
1 0.00000000000000000 0.00000000000000000 1.00000000000000000 0.00000000000000000 
1 0.00000000000000000 -10.00000000000000000 1.00000000000000000 0.00000000000000000 
1 0.00000000000000000 0.00000000000000000 1.00000000000000000 0.00000000000000000 
1 0.00000000000000000 -10.00000000000000000 1.00000000000000000 0.00000000000000000 
1 0.00000000000000000 0.00000000000000000 1.00000000000000000 0.00000000000000000 
1 0.00000000000000000 -15.00000000000000000 1.00000000000000000 0.00000000000000000 
1 0.00000000000000000 0.00000000000000000 1.00000000000000000 0.00000000000000000 
1 0.00000000000000000 -15.00000000000000000 1.00000000000000000 0.00000000000000000 
1 0.00000000000000000 0.00000000000000000 1.00000000000000000 0.00000000000000000 
1 0.00000000000000000 -15.00000000000000000 1.00000000000000000 0.00000000000000000 
1 0.00000000000000000 0.00000000000000000 1.00000000000000000 0.00000000000000000 
1 0.00000000000000000 -15.00000000000000000 1.00000000000000000 0.00000000000000000 
1 0.00000000000000000 0.00000000000000000 0.00000000000000000 -1.00000000000000000 
1 6.28318530717958623 0.00000000000000000 0.00000000000000000 -1.00000000000000000 
1 0.00000000000000000 0.00000000000000000 1.00000000000000000 0.00000000000000000 
1 0.00000000000000000 -10.00000000000000000 1.00000000000000000 0.00000000000000000 
2 -30.00000000000000000 -0.00000000000001421 1.00000000000000000 0.00000000000000022 -0.00000000000000022 1.00000000000000000 5.00000000000000000
1 0.00000000000000000 0.00000000000000000 1.00000000000000000 0.00000000000000000 
1 0.00000000000000000 -10.00000000000000000 1.00000000000000000 0.00000000000000000 
1 0.00000000000000000 0.00000000000000000 1.00000000000000000 0.00000000000000000 
1 0.00000000000000000 -10.00000000000000000 1.00000000000000000 0.00000000000000000 
1 0.00000000000000000 0.00000000000000000 1.00000000000000000 0.00000000000000000 
1 0.00000000000000000 -15.00000000000000000 1.00000000000000000 0.00000000000000000 
1 0.00000000000000000 0.00000000000000000 1.00000000000000000 0.00000000000000000 
1 0.00000000000000000 -15.00000000000000000 1.00000000000000000 0.00000000000000000 
1 0.00000000000000000 0.00000000000000000 1.00000000000000000 0.00000000000000000 
1 0.00000000000000000 -15.00000000000000000 1.00000000000000000 0.00000000000000000 
1 0.00000000000000000 0.00000000000000000 1.00000000000000000 0.00000000000000000 
1 0.00000000000000000 -15.00000000000000000 1.00000000000000000 0.00000000000000000 
Curves 12
1 4776.00000000000090949 429.97842888364993996 -0.00000000000000000 -1.00000000000000000 0.00000000000000022 -0.00000000000000000 
1 4776.00000000000090949 289.97842888364993996 -0.00000000000000000 -1.00000000000000000 0.00000000000000022 -0.00000000000000000 
1 429.97842888364993996 0.00000000000000000 0.00000000000000000 -1.00000000000000000 0.00000000000000000 0.00000000000000000 
1 4776.00000000000090949 289.97842888364993996 -80.00000000000000000 -1.00000000000000000 0.00000000000000022 -0.00000000000000000 
1 289.97842888364993996 0.00000000000000000 0.00000000000000000 0.00000000000000000 -1.00000000000000000 0.00000000000000000 
1 4776.00000000000090949 429.97842888364993996 -80.00000000000000000 -1.00000000000000000 0.00000000000000022 -0.00000000000000000 
1 289.97842888364993996 -80.00000000000000000 0.00000000000000000 1.00000000000000000 0.00000000000000000 0.00000000000000000 
1 429.97842888364993996 -80.00000000000000000 0.00000000000000000 0.00000000000000000 1.00000000000000000 0.00000000000000000 
1 4776.00000000000090949 394.97842888364993996 -40.00000000000000000 -1.00000000000000000 0.00000000000000022 -0.00000000000000000 
2 389.97842888364993996 -40.00000000000000000 0.00000000000000000 0.00000000000000000 0.00000000000000000 1.00000000000000000 1.00000000000000000 0.00000000000000000 -0.00000000000000000 -0.00000000000000000 1.00000000000000000 0.00000000000000000 5.00000000000000000
1 4776.00000000000090949 334.97842888364993996 -40.00000000000000000 -1.00000000000000000 0.00000000000000022 -0.00000000000000000 
2 329.97842888364993996 -40.00000000000000000 0.00000000000000000 0.00000000000000000 0.00000000000000000 1.00000000000000000 1.00000000000000000 0.00000000000000000 -0.00000000000000000 -0.00000000000000000 1.00000000000000000 0.00000000000000000 5.00000000000000000
Polygon3D 0
PolygonOnTriangulations 0
Surfaces 38
1 4776.00000000000090949 429.97842888364993996 -0.00000000000000000 -0.00000000000000000 0.00000000000000000 1.00000000000000000 -0.00000000000000022 -1.00000000000000000 0.00000000000000000 1.00000000000000000 -0.00000000000000022 0.00000000000000000 
1 4776.00000000000090949 429.97842888364993996 -80.00000000000000000 0.00000000000000022 1.00000000000000000 -0.00000000000000000 0.00000000000000000 0.00000000000000000 1.00000000000000000 1.00000000000000000 -0.00000000000000022 0.00000000000000000 
1 2414.08019550063772840 -0.00000000000036368 1637.86192743102697023 -0.00000000000000000 1.00000000000000000 0.00000000000000022 0.00000000000000000 -0.00000000000000022 1.00000000000000000 1.00000000000000000 0.00000000000000000 0.00000000000000000 
1 4776.00000000000090949 289.97842888364993996 -0.00000000000000000 -0.00000000000000022 -1.00000000000000000 0.00000000000000000 0.00000000000000000 -0.00000000000000000 -1.00000000000000000 1.00000000000000000 -0.00000000000000022 0.00000000000000000 
1 4776.00000000000090949 429.97842888364993996 -0.00000000000000000 0.00000000000000000 -0.00000000000000000 -1.00000000000000000 -0.00000000000000022 -1.00000000000000000 0.00000000000000000 -1.00000000000000000 0.00000000000000022 -0.00000000000000000 
1 4776.00000000000090949 39.99999999999991473 359.97842888364993996 1.00000000000000000 0.00000000000000000 0.00000000000000000 -0.00000000000000000 0.00000000000000000 1.00000000000000000 0.00000000000000000 -1.00000000000000000 0.00000000000000000 
1 4776.00000000000090949 429.97842888364993996 -0.00000000000000000 0.00000000000000000 -0.00000000000000000 -1.00000000000000000 -0.00000000000000022 -1.00000000000000000 0.00000000000000000 -1.00000000000000000 0.00000000000000022 -0.00000000000000000 
1 4776.00000000000090949 429.97842888364993996 -0.00000000000000000 -0.00000000000000000 0.00000000000000000 1.00000000000000000 -0.00000000000000022 -1.00000000000000000 0.00000000000000000 1.00000000000000000 -0.00000000000000022 0.00000000000000000 
1 4776.00000000000090949 429.97842888364993996 -0.00000000000000000 -0.00000000000000000 0.00000000000000000 1.00000000000000000 -0.00000000000000022 -1.00000000000000000 0.00000000000000000 1.00000000000000000 -0.00000000000000022 0.00000000000000000 
1 4776.00000000000090949 429.97842888364993996 -0.00000000000000000 -0.00000000000000000 0.00000000000000000 1.00000000000000000 -0.00000000000000022 -1.00000000000000000 0.00000000000000000 1.00000000000000000 -0.00000000000000022 0.00000000000000000 
1 4776.00000000000090949 429.97842888364993996 -0.00000000000000000 -0.00000000000000000 0.00000000000000000 1.00000000000000000 -0.00000000000000022 -1.00000000000000000 0.00000000000000000 1.00000000000000000 -0.00000000000000022 0.00000000000000000 
1 4776.00000000000090949 289.97842888364993996 -0.00000000000000000 0.00000000000000022 1.00000000000000000 -0.00000000000000000 0.00000000000000000 -0.00000000000000000 -1.00000000000000000 -1.00000000000000000 0.00000000000000022 -0.00000000000000000 
1 4776.00000000000090949 289.97842888364993996 -0.00000000000000000 0.00000000000000022 1.00000000000000000 -0.00000000000000000 0.00000000000000000 -0.00000000000000000 -1.00000000000000000 -1.00000000000000000 0.00000000000000022 -0.00000000000000000 
1 4776.00000000000090949 289.97842888364993996 -0.00000000000000000 -0.00000000000000022 -1.00000000000000000 0.00000000000000000 0.00000000000000000 -0.00000000000000000 -1.00000000000000000 1.00000000000000000 -0.00000000000000022 0.00000000000000000 
1 4776.00000000000090949 289.97842888364993996 -0.00000000000000000 -0.00000000000000022 -1.00000000000000000 0.00000000000000000 0.00000000000000000 -0.00000000000000000 -1.00000000000000000 1.00000000000000000 -0.00000000000000022 0.00000000000000000 
1 4776.00000000000090949 289.97842888364993996 -0.00000000000000000 -0.00000000000000022 -1.00000000000000000 0.00000000000000000 0.00000000000000000 -0.00000000000000000 -1.00000000000000000 1.00000000000000000 -0.00000000000000022 0.00000000000000000 
1 4776.00000000000090949 289.97842888364993996 -0.00000000000000000 -0.00000000000000022 -1.00000000000000000 0.00000000000000000 0.00000000000000000 -0.00000000000000000 -1.00000000000000000 1.00000000000000000 -0.00000000000000022 0.00000000000000000 
1 4776.00000000000090949 289.97842888364993996 -80.00000000000000000 0.00000000000000000 -0.00000000000000000 -1.00000000000000000 0.00000000000000022 1.00000000000000000 0.00000000000000000 1.00000000000000000 -0.00000000000000022 0.00000000000000000 
1 4776.00000000000090949 429.97842888364993996 -80.00000000000000000 -0.00000000000000022 -1.00000000000000000 0.00000000000000000 0.00000000000000000 0.00000000000000000 1.00000000000000000 -1.00000000000000000 0.00000000000000022 0.00000000000000000 
1 4776.00000000000090949 429.97842888364993996 -80.00000000000000000 -0.00000000000000022 -1.00000000000000000 0.00000000000000000 0.00000000000000000 0.00000000000000000 1.00000000000000000 -1.00000000000000000 0.00000000000000022 0.00000000000000000 
1 4776.00000000000090949 429.97842888364993996 -80.00000000000000000 0.00000000000000022 1.00000000000000000 -0.00000000000000000 0.00000000000000000 0.00000000000000000 1.00000000000000000 1.00000000000000000 -0.00000000000000022 0.00000000000000000 
1 4776.00000000000090949 429.97842888364993996 -80.00000000000000000 0.00000000000000022 1.00000000000000000 -0.00000000000000000 0.00000000000000000 0.00000000000000000 1.00000000000000000 1.00000000000000000 -0.00000000000000022 0.00000000000000000 
1 4776.00000000000090949 429.97842888364993996 -80.00000000000000000 0.00000000000000022 1.00000000000000000 -0.00000000000000000 0.00000000000000000 0.00000000000000000 1.00000000000000000 1.00000000000000000 -0.00000000000000022 0.00000000000000000 
1 4776.00000000000090949 429.97842888364993996 -80.00000000000000000 0.00000000000000022 1.00000000000000000 -0.00000000000000000 0.00000000000000000 0.00000000000000000 1.00000000000000000 1.00000000000000000 -0.00000000000000022 0.00000000000000000 
2 4776.00000000000090949 389.97842888364993996 -40.00000000000000000 1.00000000000000000 -0.00000000000000022 0.00000000000000000 0.00000000000000022 1.00000000000000000 0.00000000000000000 -0.00000000000000000 0.00000000000000000 1.00000000000000000 5.00000000000000000
2 4776.00000000000090949 389.97842888364993996 -40.00000000000000000 -1.00000000000000000 0.00000000000000022 -0.00000000000000000 0.00000000000000022 1.00000000000000000 -0.00000000000000000 -0.00000000000000000 0.00000000000000000 1.00000000000000000 5.00000000000000000
2 4776.00000000000090949 389.97842888364993996 -40.00000000000000000 -1.00000000000000000 0.00000000000000022 -0.00000000000000000 0.00000000000000022 1.00000000000000000 -0.00000000000000000 -0.00000000000000000 0.00000000000000000 1.00000000000000000 5.00000000000000000
2 4776.00000000000090949 389.97842888364993996 -40.00000000000000000 1.00000000000000000 -0.00000000000000022 0.00000000000000000 0.00000000000000022 1.00000000000000000 0.00000000000000000 -0.00000000000000000 0.00000000000000000 1.00000000000000000 5.00000000000000000
2 4776.00000000000090949 389.97842888364993996 -40.00000000000000000 1.00000000000000000 -0.00000000000000022 0.00000000000000000 0.00000000000000022 1.00000000000000000 0.00000000000000000 -0.00000000000000000 0.00000000000000000 1.00000000000000000 5.00000000000000000
2 4776.00000000000090949 389.97842888364993996 -40.00000000000000000 1.00000000000000000 -0.00000000000000022 0.00000000000000000 0.00000000000000022 1.00000000000000000 0.00000000000000000 -0.00000000000000000 0.00000000000000000 1.00000000000000000 5.00000000000000000
2 4776.00000000000090949 389.97842888364993996 -40.00000000000000000 1.00000000000000000 -0.00000000000000022 0.00000000000000000 0.00000000000000022 1.00000000000000000 0.00000000000000000 -0.00000000000000000 0.00000000000000000 1.00000000000000000 5.00000000000000000
2 4776.00000000000090949 329.97842888364993996 -40.00000000000000000 1.00000000000000000 -0.00000000000000022 0.00000000000000000 0.00000000000000022 1.00000000000000000 0.00000000000000000 -0.00000000000000000 0.00000000000000000 1.00000000000000000 5.00000000000000000
2 4776.00000000000090949 329.97842888364993996 -40.00000000000000000 -1.00000000000000000 0.00000000000000022 -0.00000000000000000 0.00000000000000022 1.00000000000000000 -0.00000000000000000 -0.00000000000000000 0.00000000000000000 1.00000000000000000 5.00000000000000000
2 4776.00000000000090949 329.97842888364993996 -40.00000000000000000 -1.00000000000000000 0.00000000000000022 -0.00000000000000000 0.00000000000000022 1.00000000000000000 -0.00000000000000000 -0.00000000000000000 0.00000000000000000 1.00000000000000000 5.00000000000000000
2 4776.00000000000090949 329.97842888364993996 -40.00000000000000000 1.00000000000000000 -0.00000000000000022 0.00000000000000000 0.00000000000000022 1.00000000000000000 0.00000000000000000 -0.00000000000000000 0.00000000000000000 1.00000000000000000 5.00000000000000000
2 4776.00000000000090949 329.97842888364993996 -40.00000000000000000 1.00000000000000000 -0.00000000000000022 0.00000000000000000 0.00000000000000022 1.00000000000000000 0.00000000000000000 -0.00000000000000000 0.00000000000000000 1.00000000000000000 5.00000000000000000
2 4776.00000000000090949 329.97842888364993996 -40.00000000000000000 1.00000000000000000 -0.00000000000000022 0.00000000000000000 0.00000000000000022 1.00000000000000000 0.00000000000000000 -0.00000000000000000 0.00000000000000000 1.00000000000000000 5.00000000000000000
2 4776.00000000000090949 329.97842888364993996 -40.00000000000000000 1.00000000000000000 -0.00000000000000022 0.00000000000000000 0.00000000000000022 1.00000000000000000 0.00000000000000000 -0.00000000000000000 0.00000000000000000 1.00000000000000000 5.00000000000000000
Triangulations 0

TShapes 36
Ve
0.000000100000000
429.978428883649940 0.000000000000000 0.000000000000000
0 0

0101101
*
Ed
 0.000000100000000 1 1 0
1  1 0 0.000000000000000 15.000000000000000
2  1 1 0 0.000000000000000 15.000000000000000
2  2 2 0 0.000000000000000 15.000000000000000
2  3 3 6 0.000000000000000 15.000000000000000
0

0101000
+36 9 -36 11 *
Ve
0.000000100000000
289.978428883649940 0.000000000000000 0.000000000000000
0 0

0101101
*
Ed
 0.000000100000000 1 1 0
1  2 0 0.000000000000000 15.000000000000000
2  4 1 0 0.000000000000000 15.000000000000000
2  5 4 0 0.000000000000000 15.000000000000000
2  6 3 6 0.000000000000000 15.000000000000000
0

0101000
+34 9 -34 11 *
Ed
 0.000000100000000 1 1 0
1  3 0 0.000000000000000 140.000000000000000
2  7 5 15 0.000000000000000 140.000000000000000
2  8 5 17 0.000000000000000 140.000000000000000
2  9 6 18 0.000000000000000 140.000000000000000
2  10 7 22 0.000000000000000 140.000000000000000
2  11 7 24 0.000000000000000 140.000000000000000
2  12 8 28 0.000000000000000 140.000000000000000
2  13 8 30 0.000000000000000 140.000000000000000
2  14 3 31 0.000000000000000 140.000000000000000
2  15 3 32 0.000000000000000 140.000000000000000
2  16 9 36 0.000000000000000 140.000000000000000
2  17 9 38 0.000000000000000 140.000000000000000
2  18 3 39 0.000000000000000 140.000000000000000
2  19 3 40 0.000000000000000 140.000000000000000
2  20 10 44 0.000000000000000 140.000000000000000
2  21 10 46 0.000000000000000 140.000000000000000
2  22 3 47 0.000000000000000 140.000000000000000
2  23 3 48 0.000000000000000 140.000000000000000
2  24 11 52 0.000000000000000 140.000000000000000
2  25 11 54 0.000000000000000 140.000000000000000
2  26 3 55 0.000000000000000 140.000000000000000
2  27 3 56 0.000000000000000 140.000000000000000
2  28 1 57 0.000000000000000 140.000000000000000
2  29 1 58 0.000000000000000 140.000000000000000
2  30 3 59 0.000000000000000 140.000000000000000
2  31 3 60 0.000000000000000 140.000000000000000
0

0101000
+36 0 -34 0 *
Wi

0101100
+35 0 -33 0 -32 9 +32 11 *
Fa
0  0.000000100000000 1 0

0111000
+31 0 *
Ve
0.000000100000000
289.978428883649940 -80.000000000000000 0.000000000000000
0 0

0101101
*
Ed
 0.000000100000000 1 1 0
1  4 0 0.000000000000000 15.000000000000000
2  32 4 0 0.000000000000000 15.000000000000000
0

0101000
+29 9 -29 11 *
Ed
 0.000000100000000 1 1 0
1  5 0 0.000000000000000 80.000000000000000
2  33 12 15 0.000000000000000 80.000000000000000
2  34 12 17 0.000000000000000 80.000000000000000
2  35 6 18 0.000000000000000 80.000000000000000
2  36 13 22 0.000000000000000 80.000000000000000
2  37 13 24 0.000000000000000 80.000000000000000
2  38 14 28 0.000000000000000 80.000000000000000
2  39 14 30 0.000000000000000 80.000000000000000
2  40 15 36 0.000000000000000 80.000000000000000
2  41 15 38 0.000000000000000 80.000000000000000
2  42 16 44 0.000000000000000 80.000000000000000
2  43 16 46 0.000000000000000 80.000000000000000
2  44 17 52 0.000000000000000 80.000000000000000
2  45 17 54 0.000000000000000 80.000000000000000
2  46 4 57 0.000000000000000 80.000000000000000
2  47 4 58 0.000000000000000 80.000000000000000
0

0101000
+34 0 -29 0 *
Wi

0101100
+33 0 -28 0 -27 9 +27 11 *
Fa
0  0.000000100000000 4 0

0111000
+26 0 *
Ve
0.000000100000000
429.978428883649940 -80.000000000000000 0.000000000000000
0 0

0101101
*
Ed
 0.000000100000000 1 1 0
1  6 0 0.000000000000000 15.000000000000000
2  48 2 0 0.000000000000000 15.000000000000000
0

0101000
+24 9 -24 11 *
Ed
 0.000000100000000 1 1 0
1  7 0 0.000000000000000 140.000000000000000
2  49 6 18 0.000000000000000 140.000000000000000
0

0101000
+29 0 -24 0 *
Wi

0101100
+28 0 -23 0 -22 9 +22 11 *
Fa
0  0.000000100000000 18 0

0111000
+21 0 *
Ed
 0.000000100000000 1 1 0
1  8 0 0.000000000000000 80.000000000000000
2  50 19 15 0.000000000000000 80.000000000000000
2  51 19 17 0.000000000000000 80.000000000000000
2  52 6 18 0.000000000000000 80.000000000000000
2  53 20 22 0.000000000000000 80.000000000000000
2  54 20 24 0.000000000000000 80.000000000000000
2  55 21 28 0.000000000000000 80.000000000000000
2  56 21 30 0.000000000000000 80.000000000000000
2  57 22 36 0.000000000000000 80.000000000000000
2  58 22 38 0.000000000000000 80.000000000000000
2  59 23 44 0.000000000000000 80.000000000000000
2  60 23 46 0.000000000000000 80.000000000000000
2  61 24 52 0.000000000000000 80.000000000000000
2  62 24 54 0.000000000000000 80.000000000000000
2  63 2 57 0.000000000000000 80.000000000000000
2  64 2 58 0.000000000000000 80.000000000000000
0

0101000
+24 0 -36 0 *
Wi

0101100
+23 0 -35 0 -19 9 +19 11 *
Fa
0  0.000000100000000 2 0

0111000
+18 0 *
Ve
0.000000100000000
394.978428883649940 -40.000000000000000 0.000000000000000
0 0

0101101
*
Ed
 0.000000100000000 1 1 0
1  9 0 0.000000000000000 15.000000000000000
3  65 66CN 25 0 0.000000000000000 15.000000000000000
0

0101000
+16 9 -16 11 *
Ed
 0.000000100000000 1 1 0
1  10 0 0.000000000000000 6.283185307179586
2  67 26 15 0.000000000000000 6.283185307179586
2  68 26 17 0.000000000000000 6.283185307179586
2  69 6 18 0.000000000000000 6.283185307179586
2  70 27 22 0.000000000000000 6.283185307179586
2  71 27 24 0.000000000000000 6.283185307179586
2  72 28 28 0.000000000000000 6.283185307179586
2  73 28 30 0.000000000000000 6.283185307179586
2  74 29 36 0.000000000000000 6.283185307179586
2  75 29 38 0.000000000000000 6.283185307179586
2  76 30 44 0.000000000000000 6.283185307179586
2  77 30 46 0.000000000000000 6.283185307179586
2  78 31 52 0.000000000000000 6.283185307179586
2  79 31 54 0.000000000000000 6.283185307179586
2  80 25 57 0.000000000000000 6.283185307179586
2  81 25 58 0.000000000000000 6.283185307179586
0

0101000
+16 0 -16 0 *
Wi

0101100
+15 0 -15 0 -14 9 +14 11 *
Fa
0  0.000000100000000 25 0

0111000
+13 0 *
Ve
0.000000100000000
334.978428883649940 -40.000000000000000 0.000000000000000
0 0

0101101
*
Ed
 0.000000100000000 1 1 0
1  11 0 0.000000000000000 15.000000000000000
3  82 83CN 32 0 0.000000000000000 15.000000000000000
0

0101000
+11 9 -11 11 *
Ed
 0.000000100000000 1 1 0
1  12 0 0.000000000000000 6.283185307179586
2  84 33 15 0.000000000000000 6.283185307179586
2  85 33 17 0.000000000000000 6.283185307179586
2  86 6 18 0.000000000000000 6.283185307179586
2  87 34 22 0.000000000000000 6.283185307179586
2  88 34 24 0.000000000000000 6.283185307179586
2  89 35 28 0.000000000000000 6.283185307179586
2  90 35 30 0.000000000000000 6.283185307179586
2  91 36 36 0.000000000000000 6.283185307179586
2  92 36 38 0.000000000000000 6.283185307179586
2  93 37 44 0.000000000000000 6.283185307179586
2  94 37 46 0.000000000000000 6.283185307179586
2  95 38 52 0.000000000000000 6.283185307179586
2  96 38 54 0.000000000000000 6.283185307179586
2  97 32 57 0.000000000000000 6.283185307179586
2  98 32 58 0.000000000000000 6.283185307179586
0

0101000
+11 0 -11 0 *
Wi

0101100
+10 0 -10 0 -9 9 +9 11 *
Fa
0  0.000000100000000 32 0

0111000
+8 0 *
Wi

0101100
+32 63 +27 63 +22 63 +19 63 *
Wi

0101100
-14 63 *
Wi

0101100
-9 63 *
Fa
0  0.000000100000000 6 62

0111000
+6 0 +5 0 +4 0 *
Sh

0101100
+30 0 +25 0 +20 0 +17 0 -12 0 -7 0 +3 61 -3 64 *
So

0100000
+2 0 *

+1 0 