
CASCADE Topology V1, (c) Matra-Datavision
Locations 65
1
1.000000000000000 0.000000000000000 0.000000000000000 0.000000000000000 
0.000000000000000 0.000000000000000 -1.000000000000000 0.000000000000000 
0.000000000000000 1.000000000000000 0.000000000000000 0.000000000000000 
1
1.000000000000000 0.000000000000000 0.000000000000000 0.000000000000000 
0.000000000000000 -0.000000000000000 -1.000000000000000 0.000000000000000 
0.000000000000000 1.000000000000000 -0.000000000000000 0.000000000000000 
1
1.000000000000000 0.000000000000000 0.000000000000000 0.000000000000000 
0.000000000000000 -0.000000000000000 -1.000000000000000 0.000000000000000 
0.000000000000000 1.000000000000000 -0.000000000000000 0.000000000000000 
1
1.000000000000000 0.000000000000000 0.000000000000000 0.000000000000000 
0.000000000000000 -0.000000000000000 -1.000000000000000 0.000000000000000 
0.000000000000000 1.000000000000000 -0.000000000000000 0.000000000000000 
1
1.000000000000000 0.000000000000000 0.000000000000000 0.000000000000000 
0.000000000000000 -0.000000000000000 -1.000000000000000 0.000000000000000 
0.000000000000000 1.000000000000000 -0.000000000000000 0.000000000000000 
1
1.000000000000000 0.000000000000000 0.000000000000000 0.000000000000000 
0.000000000000000 -0.000000000000000 -1.000000000000000 0.000000000000000 
0.000000000000000 1.000000000000000 -0.000000000000000 0.000000000000000 
1
1.000000000000000 0.000000000000000 0.000000000000000 0.000000000000000 
0.000000000000000 -0.000000000000000 -1.000000000000000 0.000000000000000 
0.000000000000000 1.000000000000000 -0.000000000000000 0.000000000000000 
2  2 1 3 -1 4 1 5 -1 6 1 7 -1 0
1
1.000000000000000 0.000000000000000 0.000000000000000 0.000000000000000 
0.000000000000000 1.000000000000000 0.000000000000000 0.000000000000000 
0.000000000000000 0.000000000000000 1.000000000000000 0.000000000000000 
1
1.000000000000000 0.000000000000000 0.000000000000000 0.000000000000000 
0.000000000000000 -0.000000000000000 -1.000000000000000 0.000000000000000 
0.000000000000000 1.000000000000000 -0.000000000000000 0.000000000000000 
1
1.000000000000000 0.000000000000000 0.000000000000000 0.000000000000000 
0.000000000000000 -0.000000000000000 -1.000000000000000 0.000000000000000 
0.000000000000000 1.000000000000000 -0.000000000000000 0.000000000000000 
2  9 1 10 1 11 -1 0
1
1.000000000000000 0.000000000000000 0.000000000000000 0.000000000000000 
0.000000000000000 1.000000000000000 0.000000000000000 0.000000000000000 
0.000000000000000 0.000000000000000 1.000000000000000 15.000000000000000 
2  9 1 10 1 11 -1 13 1 0
2  10 -1 9 -1 0
2  6 1 7 -1 0
2  11 -1 2 1 3 -1 4 1 5 -1 0
2  9 1 10 1 11 -1 2 1 3 -1 4 1 5 -1 0
2  11 1 10 -1 9 -1 0
2  13 -1 11 1 10 -1 9 -1 0
1
1.000000000000000 0.000000000000000 0.000000000000000 0.000000000000000 
0.000000000000000 1.000000000000000 0.000000000000000 0.000000000000000 
0.000000000000000 0.000000000000000 1.000000000000000 0.000000000000000 
1
1.000000000000000 0.000000000000000 -0.000000000000000 0.000000000000000 
0.000000000000000 0.000000000000000 1.000000000000000 -0.000000000000000 
0.000000000000000 -1.000000000000000 0.000000000000000 -0.000000000000000 
2  21 1 22 1 4 -1 3 1 2 -1 11 1 10 -1 9 -1 0
2  21 1 22 1 5 -1 0
2  5 1 22 -1 21 -1 0
1
1.000000000000000 0.000000000000000 0.000000000000000 -0.000000000000000 
0.000000000000000 1.000000000000000 0.000000000000000 0.000000000000000 
0.000000000000000 0.000000000000000 1.000000000000000 -80.000000000000000 
2  26 -1 5 1 22 -1 21 -1 0
2  22 -1 21 -1 0
2  11 -1 2 1 3 -1 4 1 22 -1 21 -1 0
2  4 1 5 -1 6 1 7 -1 0
2  11 -1 13 1 2 1 3 -1 0
2  9 1 10 1 11 -1 13 1 2 1 3 -1 0
1
1.000000000000000 0.000000000000000 0.000000000000000 0.000000000000000 
0.000000000000000 1.000000000000000 0.000000000000000 0.000000000000000 
0.000000000000000 0.000000000000000 1.000000000000000 0.000000000000000 
1
0.000000000000000 0.000000000000000 -1.000000000000000 1027.000000000000000 
0.000000000000000 -1.000000000000000 0.000000000000000 0.000000000000000 
-1.000000000000000 0.000000000000000 0.000000000000000 0.000000000000000 
1
1.000000000000000 0.000000000000000 0.000000000000000 15.000000000000000 
0.000000000000000 1.000000000000000 0.000000000000000 0.000000000000003 
0.000000000000000 0.000000000000000 1.000000000000000 -0.000000000000000 
2  33 1 34 1 3 -1 35 1 3 1 2 -1 13 -1 11 1 10 -1 9 -1 0
2  33 1 34 1 3 -1 35 1 0
2  3 1 34 -1 33 -1 0
2  35 -1 3 1 34 -1 33 -1 0
2  34 -1 33 -1 0
2  11 -1 13 1 2 1 3 -1 35 -1 3 1 34 -1 33 -1 0
2  33 1 34 1 3 -1 0
2  33 1 34 1 2 -1 13 -1 11 1 10 -1 9 -1 0
2  2 1 3 -1 0
2  3 1 2 -1 0
2  9 1 10 1 11 -1 2 1 3 -1 0
2  3 1 2 -1 13 -1 11 1 10 -1 9 -1 0
2  2 1 3 -1 4 1 5 -1 0
2  9 1 10 1 11 -1 13 1 2 1 3 -1 4 1 5 -1 0
2  21 1 22 1 5 -1 26 1 0
2  21 1 22 1 5 -1 6 1 7 -1 0
2  21 1 22 1 5 -1 26 1 6 1 7 -1 0
1
1.000000000000000 0.000000000000000 0.000000000000000 0.000000000000000 
0.000000000000000 1.000000000000000 0.000000000000000 0.000000000000000 
0.000000000000000 0.000000000000000 1.000000000000000 0.000000000000000 
1
0.000000000000000 0.000000000000000 -1.000000000000000 3095.000000000000000 
0.000000000000000 -1.000000000000000 0.000000000000000 0.000000000000000 
-1.000000000000000 0.000000000000000 0.000000000000000 0.000000000000000 
2  53 1 54 1 7 -1 0
2  7 1 54 -1 53 -1 0
1
1.000000000000000 0.000000000000000 0.000000000000000 4832.343915681548424 
0.000000000000000 1.000000000000000 0.000000000000000 0.000000000001073 
0.000000000000000 0.000000000000000 1.000000000000000 -0.000000000000000 
2  57 -1 7 1 54 -1 53 -1 0
2  54 -1 53 -1 0
2  6 1 54 -1 53 -1 0
2  3 -1 35 1 4 1 5 -1 6 1 7 -1 0
2  33 1 34 1 0
2  3 -1 0
2  5 -1 26 1 6 1 7 -1 0
2  21 1 22 1 0
Curve2ds 126
1 568.16652999079360598 -847.78643515850103540 -0.55582821424379891 0.83129717685707905 
1 40.00000000000000000 0.00000000000000000 0.00000000000000000 -1.00000000000000000 
1 568.16652999079360598 -847.78643515850103540 0.94101531017864071 -0.33836398450396094 
1 0.00000000000000000 0.00000000000000000 0.00000000000000000 -1.00000000000000000 
1 -153.17822827085819881 231.05743371452149404 0.00000000000000000 1.00000000000000000 
1 0.00000000000000000 0.00000000000000000 1.00000000000000000 0.00000000000000000 
1 0.00000000000000000 -15.00000000000000000 1.00000000000000000 0.00000000000000000 
1 746.15527172914153198 -951.78643515850194490 0.00000000000000000 1.00000000000000000 
1 0.00000000000000000 0.00000000000000000 1.00000000000000000 0.00000000000000000 
1 0.00000000000000000 -15.00000000000000000 1.00000000000000000 0.00000000000000000 
1 336.96898587632858835 -951.78643515850194490 1.00000000000000000 0.00000000000000000 
1 -403.17822827085819881 155.17840363845766660 0.55582821424379858 -0.83129717685707916 
1 -403.17822827085819881 1131.21356484149805510 0.00000000000000000 -1.00000000000000000 
1 -153.17822827085819881 1131.21356484149805510 -1.00000000000000000 -0.00000000000000000 
1 0.00000000000000000 0.00000000000000000 1.00000000000000000 0.00000000000000000 
1 0.00000000000000000 -15.00000000000000000 1.00000000000000000 0.00000000000000000 
1 0.00000000000000000 0.00000000000000000 1.00000000000000000 0.00000000000000000 
1 0.00000000000000000 -80.00000000000000000 1.00000000000000000 0.00000000000000000 
1 69.99999999999909051 -7.50000000000000000 0.00000000000000000 1.00000000000000000 
1 -323.17822827085819881 1116.21356484149805510 -0.00000000000000000 1.00000000000000000 
1 -70.00000000000090949 -7.50000000000000000 1.00000000000000000 0.00000000000000000 
1 0.00000000000000000 0.00000000000000000 1.00000000000000000 0.00000000000000000 
1 0.00000000000000000 -80.00000000000000000 1.00000000000000000 0.00000000000000000 
1 -183.17822827085819881 1116.21356484149805510 -1.00000000000000000 -0.00000000000000000 
1 0.00000000000000000 0.00000000000000000 1.00000000000000000 0.00000000000000000 
1 -0.00000000000000000 -80.00000000000000000 1.00000000000000000 0.00000000000000000 
1 -70.00000000000090949 7.50000000000000000 0.00000000000000000 -1.00000000000000000 
1 -183.17822827085819881 1131.21356484149805510 0.00000000000000000 -1.00000000000000000 
1 0.00000000000000000 0.00000000000000000 1.00000000000000000 0.00000000000000000 
1 0.00000000000000000 -15.00000000000000000 1.00000000000000000 0.00000000000000000 
2 359.28857172914194962 -849.78643515850194490 0.00000000000000000 1.00000000000000000 -1.00000000000000000 0.00000000000000000 5.00000000000000000
1 0.00000000000000000 0.00000000000000000 1.00000000000000000 0.00000000000000000 
1 0.00000000000000000 -15.00000000000000000 1.00000000000000000 0.00000000000000000 
2 359.28857172914194962 -697.78643515850217227 0.00000000000000000 1.00000000000000000 -1.00000000000000000 0.00000000000000000 5.00000000000000000
1 0.00000000000000000 0.00000000000000000 1.00000000000000000 0.00000000000000000 
1 0.00000000000000000 -15.00000000000000000 1.00000000000000000 0.00000000000000000 
2 177.42187172914145776 -577.78643515850194490 0.00000000000000000 1.00000000000000000 -1.00000000000000000 0.00000000000000000 5.00000000000000000
1 0.00000000000000000 0.00000000000000000 1.00000000000000000 0.00000000000000000 
1 0.00000000000000000 -15.00000000000000000 1.00000000000000000 0.00000000000000000 
2 177.42187172914145776 -425.78643515850194490 0.00000000000000000 1.00000000000000000 -1.00000000000000000 0.00000000000000000 5.00000000000000000
1 0.00000000000000000 0.00000000000000000 1.00000000000000000 0.00000000000000000 
1 0.00000000000000000 -15.00000000000000000 1.00000000000000000 0.00000000000000000 
2 -4.44482827085812460 -305.78643515850194490 0.00000000000000000 1.00000000000000000 -1.00000000000000000 0.00000000000000000 5.00000000000000000
1 0.00000000000000000 0.00000000000000000 1.00000000000000000 0.00000000000000000 
1 0.00000000000000000 -15.00000000000000000 1.00000000000000000 0.00000000000000000 
2 -4.44482827085812460 -153.78643515850194490 0.00000000000000000 1.00000000000000000 -1.00000000000000000 0.00000000000000000 5.00000000000000000
1 0.00000000000000000 0.00000000000000000 1.00000000000000000 0.00000000000000000 
1 0.00000000000000000 -15.00000000000000000 1.00000000000000000 0.00000000000000000 
2 -186.31152827085770696 -33.78643515850194490 0.00000000000000000 1.00000000000000000 -1.00000000000000000 0.00000000000000000 5.00000000000000000
1 0.00000000000000000 0.00000000000000000 1.00000000000000000 0.00000000000000000 
1 0.00000000000000000 -15.00000000000000000 1.00000000000000000 0.00000000000000000 
2 -186.31152827085770696 118.21356484149805510 0.00000000000000000 1.00000000000000000 -1.00000000000000000 0.00000000000000000 5.00000000000000000
1 0.00000000000000000 0.00000000000000000 1.00000000000000000 -0.00000000000000000 
1 -0.00000000000000333 -15.00000000000000000 1.00000000000000000 -0.00000000000000000 
1 -120.00000000000000000 -78.00000000000005684 1.00000000000000000 0.00000000000000022 
1 746.15527172914153198 -936.78643515850308177 -1.00000000000000000 -0.00000000000000022 
1 240.00000000000000000 -0.00000000000005329 0.00000000000000000 -1.00000000000000000 
1 0.00000000000000000 0.00000000000000000 0.00000000000000000 -1.00000000000000000 
1 506.15527172914153198 -951.78643515850308177 -0.00000000000000022 1.00000000000000000 
1 409.18628585281294363 0.00000000000000000 0.00000000000000000 -1.00000000000000000 
1 0.00000000000000000 0.00000000000000000 0.00000000000000000 -1.00000000000000000 
1 250.00000000000000000 0.00000000000000000 0.00000000000000000 -1.00000000000000000 
1 0.00000000000000000 0.00000000000000000 1.00000000000000000 0.00000000000000000 
1 0.00000000000000000 -80.00000000000000000 1.00000000000000000 0.00000000000000000 
1 69.99999999999909051 7.50000000000000000 -1.00000000000000000 0.00000000000000000 
1 -323.17822827085819881 1131.21356484149805510 1.00000000000000000 0.00000000000000000 
1 0.00000000000000000 0.00000000000000000 0.00000000000000000 -1.00000000000000000 
1 0.00000000000000000 0.00000000000000000 0.00000000000000000 -1.00000000000000000 
1 140.00000000000000000 0.00000000000000000 0.00000000000000000 -1.00000000000000000 
1 15.00000000000000000 0.00000000000000000 0.00000000000000000 -1.00000000000000000 
1 0.00000000000000000 0.00000000000000000 -0.00000000000000000 -1.00000000000000000 
1 15.00000000000000000 0.00000000000000000 0.00000000000000000 -1.00000000000000000 
1 0.00000000000000000 0.00000000000000000 0.00000000000000000 -1.00000000000000000 
1 0.00000000000000000 0.00000000000000000 1.00000000000000000 0.00000000000000000 
1 0.00000000000000000 -4832.34391568154842389 1.00000000000000000 0.00000000000000000 
2 0.00000000000000000 0.00000000000000000 1.00000000000000000 -0.00000000000000022 0.00000000000000022 1.00000000000000000 5.00000000000000000
2 40.00000000000000000 -40.00000000000000000 -1.00000000000000000 0.00000000000000000 0.00000000000000000 1.00000000000000000 5.00000000000000000
1 0.00000000000000000 0.00000000000000000 1.00000000000000000 0.00000000000000000 
1 0.00000000000000000 -4832.34391568154842389 1.00000000000000000 0.00000000000000000 
2 -0.00000000000090949 0.00000000000000000 1.00000000000000000 -0.00000000000000022 0.00000000000000022 1.00000000000000000 5.00000000000000000
2 100.00000000000000000 -40.00000000000000000 -1.00000000000000000 0.00000000000000000 0.00000000000000000 1.00000000000000000 5.00000000000000000
1 0.00000000000000000 0.00000000000000000 0.00000000000000000 -1.00000000000000000 
1 140.00000000000000000 0.00000000000000000 -0.00000000000000000 -1.00000000000000000 
1 0.00000000000000000 0.00000000000000000 0.00000000000000000 -1.00000000000000000 
1 6.28318530717958623 0.00000000000000000 0.00000000000000000 -1.00000000000000000 
1 0.00000000000000000 0.00000000000000000 0.00000000000000000 -1.00000000000000000 
1 6.28318530717958623 0.00000000000000000 0.00000000000000000 -1.00000000000000000 
1 0.00000000000000000 0.00000000000000000 0.00000000000000000 -1.00000000000000000 
1 6.28318530717958623 0.00000000000000000 0.00000000000000000 -1.00000000000000000 
1 0.00000000000000000 0.00000000000000000 0.00000000000000000 -1.00000000000000000 
1 6.28318530717958623 0.00000000000000000 0.00000000000000000 -1.00000000000000000 
1 0.00000000000000000 0.00000000000000000 0.00000000000000000 -1.00000000000000000 
1 6.28318530717958623 0.00000000000000000 0.00000000000000000 -1.00000000000000000 
1 0.00000000000000000 0.00000000000000000 0.00000000000000000 -1.00000000000000000 
1 6.28318530717958623 0.00000000000000000 0.00000000000000000 -1.00000000000000000 
1 0.00000000000000000 0.00000000000000000 0.00000000000000000 -1.00000000000000000 
1 6.28318530717958623 0.00000000000000000 0.00000000000000000 -1.00000000000000000 
1 0.00000000000000000 0.00000000000000000 0.00000000000000000 -1.00000000000000000 
1 6.28318530717958623 0.00000000000000000 0.00000000000000000 -1.00000000000000000 
1 0.00000000000000000 0.00000000000000000 1.00000000000000000 0.00000000000000000 
1 0.00000000000000000 -15.00000000000000000 1.00000000000000000 0.00000000000000000 
1 120.00000000000000000 -78.00000000000000000 -0.00000000000000022 1.00000000000000000 
1 120.00000000000000000 78.00000000000000000 -1.00000000000000000 -0.00000000000000022 
1 -0.00000000000000000 0.00000000000000000 1.00000000000000000 0.00000000000000000 
1 -0.00000000000000000 -15.00000000000000000 1.00000000000000000 0.00000000000000000 
1 -120.00000000000000000 77.99999999999994316 0.00000000000000022 -1.00000000000000000 
1 0.00000000000000000 0.00000000000000000 1.00000000000000000 0.00000000000000000 
1 0.00000000000000000 -15.00000000000000000 1.00000000000000000 0.00000000000000000 
2 -80.00000000000000000 -0.00000000000005684 -1.00000000000000000 -0.00000000000000022 -0.00000000000000022 1.00000000000000000 5.00000000000000000
1 0.00000000000000000 0.00000000000000000 1.00000000000000000 0.00000000000000000 
1 0.00000000000000000 -15.00000000000000000 1.00000000000000000 0.00000000000000000 
2 -20.00000000000000000 -0.00000000000004263 -1.00000000000000000 -0.00000000000000022 -0.00000000000000022 1.00000000000000000 5.00000000000000000
1 156.00000000000000000 0.00000000000000000 0.00000000000000000 -1.00000000000000000 
1 -0.00000000000000000 0.00000000000000000 -0.00000000000000000 -1.00000000000000000 
2 40.00000000000000000 -40.00000000000000000 1.00000000000000000 0.00000000000000000 -0.00000000000000000 1.00000000000000000 5.00000000000000000
1 0.00000000000000000 -15.00000000000136424 1.00000000000000000 0.00000000000000000 
2 100.00000000000000000 -40.00000000000000000 1.00000000000000000 0.00000000000000000 -0.00000000000000000 1.00000000000000000 5.00000000000000000
1 0.00000000000000000 -15.00000000000136424 1.00000000000000000 0.00000000000000000 
1 0.00000000000000000 0.00000000000000000 0.00000000000000000 -1.00000000000000000 
1 6.28318530717958623 0.00000000000000000 0.00000000000000000 -1.00000000000000000 
1 0.00000000000000000 0.00000000000000000 0.00000000000000000 -1.00000000000000000 
1 6.28318530717958623 0.00000000000000000 0.00000000000000000 -1.00000000000000000 
1 0.00000000000000000 0.00000000000000000 0.00000000000000000 -1.00000000000000000 
1 6.28318530717958623 0.00000000000000000 0.00000000000000000 -1.00000000000000000 
1 0.00000000000000000 0.00000000000000000 0.00000000000000000 -1.00000000000000000 
1 6.28318530717958623 0.00000000000000000 0.00000000000000000 -1.00000000000000000 
Curves 57
1 1131.00000000000090949 4900.65574173834829708 0.00000000000000000 0.00000000000000000 0.00000000000000000 1.00000000000000000 
1 2209.84386887302343894 5622.00050000000010186 0.00000000000000000 0.00000000000000000 0.00000000000000000 1.00000000000000000 
1 1131.00000000000090949 4900.65574173834829708 0.00000000000000000 0.83129717685707905 0.55582821424379891 0.00000000000000000 
1 1067.00000000000000000 4722.66700000000037107 0.00000000000000000 0.00000000000000000 0.00000000000000000 1.00000000000000000 
1 1131.00000000000090949 4900.65574173834829708 0.00000000000000000 -0.33836398450396094 -0.94101531017864071 0.00000000000000000 
1 3110.00000000000000000 5622.00050000000010186 0.00000000000000000 0.00000000000000000 0.00000000000000000 1.00000000000000000 
1 2209.84386887302343894 5622.00050000000010186 0.00000000000000000 1.00000000000000000 0.00000000000000000 0.00000000000000000 
1 1027.00000000000000000 4722.66700000000037107 0.00000000000000000 1.00000000000000000 0.00000000000000000 0.00000000000000000 
1 1027.00000000000000000 5131.85328585281331470 0.00000000000000000 0.00000000000000000 -1.00000000000000000 0.00000000000000000 
1 2133.96483879695961150 5872.00050000000010186 0.00000000000000000 -0.83129717685707916 -0.55582821424379858 0.00000000000000000 
1 3110.00000000000000000 5872.00050000000010186 0.00000000000000000 -1.00000000000000000 0.00000000000000000 0.00000000000000000 
1 3110.00000000000000000 5622.00050000000010186 0.00000000000000000 0.00000000000000000 1.00000000000000000 0.00000000000000000 
1 3095.00000000000000000 -5792.00050000000010186 0.00000000000000000 1.00000000000000000 0.00000000000000000 0.00000000000000000 
1 3095.00000000000000000 -5652.00050000000010186 0.00000000000000000 0.00000000000000000 -1.00000000000000000 0.00000000000000000 
1 3110.00000000000000000 -5652.00050000000010186 0.00000000000000000 -1.00000000000000000 0.00000000000000000 0.00000000000000000 
2 1129.00000000000000000 5109.53369999999995343 0.00000000000000000 0.00000000000000000 0.00000000000000000 1.00000000000000000 1.00000000000000000 0.00000000000000000 -0.00000000000000000 -0.00000000000000000 1.00000000000000000 0.00000000000000000 5.00000000000000000
2 1280.99999999999977263 5109.53369999999995343 0.00000000000000000 0.00000000000000000 0.00000000000000000 1.00000000000000000 1.00000000000000000 0.00000000000000000 -0.00000000000000000 -0.00000000000000000 1.00000000000000000 0.00000000000000000 5.00000000000000000
2 1401.00000000000000000 5291.40040000000044529 0.00000000000000000 0.00000000000000000 0.00000000000000000 1.00000000000000000 1.00000000000000000 0.00000000000000000 -0.00000000000000000 -0.00000000000000000 1.00000000000000000 0.00000000000000000 5.00000000000000000
2 1553.00000000000000000 5291.40040000000044529 0.00000000000000000 0.00000000000000000 0.00000000000000000 1.00000000000000000 1.00000000000000000 0.00000000000000000 -0.00000000000000000 -0.00000000000000000 1.00000000000000000 0.00000000000000000 5.00000000000000000
2 1673.00000000000000000 5473.26710000000002765 0.00000000000000000 0.00000000000000000 0.00000000000000000 1.00000000000000000 1.00000000000000000 0.00000000000000000 -0.00000000000000000 -0.00000000000000000 1.00000000000000000 0.00000000000000000 5.00000000000000000
2 1825.00000000000000000 5473.26710000000002765 0.00000000000000000 0.00000000000000000 0.00000000000000000 1.00000000000000000 1.00000000000000000 0.00000000000000000 -0.00000000000000000 -0.00000000000000000 1.00000000000000000 0.00000000000000000 5.00000000000000000
2 1945.00000000000000000 5655.13379999999961001 0.00000000000000000 0.00000000000000000 0.00000000000000000 1.00000000000000000 1.00000000000000000 0.00000000000000000 -0.00000000000000000 -0.00000000000000000 1.00000000000000000 0.00000000000000000 5.00000000000000000
2 2097.00000000000000000 5655.13379999999961001 0.00000000000000000 0.00000000000000000 0.00000000000000000 1.00000000000000000 1.00000000000000000 0.00000000000000000 -0.00000000000000000 -0.00000000000000000 1.00000000000000000 0.00000000000000000 5.00000000000000000
1 -4722.66700000000037107 15.00000000000000000 0.00000000000000000 -1.00000000000000000 0.00000000000000000 0.00000000000000000 
1 1026.99999999999886313 4962.66700000000037107 15.00000000000000000 1.00000000000000000 0.00000000000000022 -0.00000000000000000 
1 1027.00000000000000000 4722.66700000000037107 0.00000000000000000 0.00000000000000000 0.00000000000000000 1.00000000000000000 
1 3110.00000000000000000 5872.00050000000010186 0.00000000000000000 0.00000000000000000 0.00000000000000000 1.00000000000000000 
1 3110.00000000000000000 -5792.00050000000010186 0.00000000000000000 0.00000000000000000 1.00000000000000000 0.00000000000000000 
1 1027.00000000000000000 5131.85328585281331470 0.00000000000000000 0.00000000000000000 0.00000000000000000 1.00000000000000000 
1 2133.96483879695961150 5872.00050000000010186 0.00000000000000000 0.00000000000000000 0.00000000000000000 1.00000000000000000 
1 3095.00000000000000000 5792.00050000000010186 0.00000000000000000 -0.00000000000000000 0.00000000000000000 -1.00000000000000000 
1 3110.00000000000000000 5792.00050000000010186 0.00000000000000000 -0.00000000000000000 0.00000000000000000 -1.00000000000000000 
1 3095.00000000000000000 5652.00050000000010186 0.00000000000000000 -0.00000000000000000 0.00000000000000000 -1.00000000000000000 
2 -5692.00050000000010186 -40.00000000000000000 0.00000000000000000 0.00000000000000000 0.00000000000000000 1.00000000000000000 1.00000000000000000 0.00000000000000000 -0.00000000000000000 -0.00000000000000000 1.00000000000000000 0.00000000000000000 5.00000000000000000
2 -5752.00050000000010186 -40.00000000000000000 0.00000000000000000 0.00000000000000000 0.00000000000000000 1.00000000000000000 1.00000000000000000 0.00000000000000000 -0.00000000000000000 -0.00000000000000000 1.00000000000000000 0.00000000000000000 5.00000000000000000
1 3110.00000000000000000 5652.00050000000010186 0.00000000000000000 -0.00000000000000000 0.00000000000000000 -1.00000000000000000 
1 1134.00000000000000000 5109.53369999999995343 0.00000000000000000 0.00000000000000000 0.00000000000000000 1.00000000000000000 
1 1285.99999999999977263 5109.53369999999995343 0.00000000000000000 0.00000000000000000 0.00000000000000000 1.00000000000000000 
1 1406.00000000000000000 5291.40040000000044529 0.00000000000000000 0.00000000000000000 0.00000000000000000 1.00000000000000000 
1 1558.00000000000000000 5291.40040000000044529 0.00000000000000000 0.00000000000000000 0.00000000000000000 1.00000000000000000 
1 1678.00000000000000000 5473.26710000000002765 0.00000000000000000 0.00000000000000000 0.00000000000000000 1.00000000000000000 
1 1830.00000000000000000 5473.26710000000002765 0.00000000000000000 0.00000000000000000 0.00000000000000000 1.00000000000000000 
1 1950.00000000000000000 5655.13379999999961001 0.00000000000000000 0.00000000000000000 0.00000000000000000 1.00000000000000000 
1 2102.00000000000000000 5655.13379999999961001 0.00000000000000000 0.00000000000000000 0.00000000000000000 1.00000000000000000 
1 -4962.66700000000037107 15.00000000000000000 0.00000000000000000 0.00000000000000000 1.00000000000000000 0.00000000000000000 
1 -4962.66700000000037107 171.00000000000000000 0.00000000000000000 1.00000000000000000 0.00000000000000000 0.00000000000000000 
1 -4722.66700000000037107 171.00000000000000000 0.00000000000000000 0.00000000000000000 -1.00000000000000000 0.00000000000000000 
2 -4762.66700000000037107 93.00000000000000000 0.00000000000000000 0.00000000000000000 0.00000000000000000 1.00000000000000000 1.00000000000000000 0.00000000000000000 -0.00000000000000000 -0.00000000000000000 1.00000000000000000 0.00000000000000000 5.00000000000000000
2 -4822.66700000000037107 93.00000000000000000 0.00000000000000000 0.00000000000000000 0.00000000000000000 1.00000000000000000 1.00000000000000000 0.00000000000000000 -0.00000000000000000 -0.00000000000000000 1.00000000000000000 0.00000000000000000 5.00000000000000000
1 1026.99999999999886313 4962.66700000000037107 171.00000000000000000 1.00000000000000000 0.00000000000000022 -0.00000000000000000 
1 1026.99999999999886313 4722.66700000000037107 171.00000000000000000 1.00000000000000000 0.00000000000000022 -0.00000000000000000 
2 3110.00000000000000000 5752.00050000000010186 -40.00000000000000000 -1.00000000000000000 -0.00000000000000022 0.00000000000000000 0.00000000000000022 -1.00000000000000000 0.00000000000000000 0.00000000000000000 0.00000000000000000 1.00000000000000000 5.00000000000000000
2 3110.00000000000000000 5692.00050000000010186 -40.00000000000000000 -1.00000000000000000 -0.00000000000000022 0.00000000000000000 0.00000000000000022 -1.00000000000000000 0.00000000000000000 0.00000000000000000 0.00000000000000000 1.00000000000000000 5.00000000000000000
1 3094.99999999999863576 5687.00050000000010186 -40.00000000000000000 1.00000000000000000 0.00000000000000022 -0.00000000000000000 
1 3094.99999999999863576 5747.00050000000010186 -40.00000000000000000 1.00000000000000000 0.00000000000000022 -0.00000000000000000 
1 1026.99999999999886313 4757.66700000000037107 93.00000000000000000 1.00000000000000000 0.00000000000000022 -0.00000000000000000 
1 1026.99999999999886313 4817.66700000000037107 93.00000000000000000 1.00000000000000000 0.00000000000000022 -0.00000000000000000 
Polygon3D 0
PolygonOnTriangulations 0
Surfaces 33
1 1131.00000000000090949 4900.65574173834829708 0.00000000000000000 -0.55582821424379891 0.83129717685707905 0.00000000000000000 0.83129717685707905 0.55582821424379891 0.00000000000000000 0.00000000000000000 0.00000000000000000 -1.00000000000000000 
1 1978.78643515850194490 -0.00000000000121432 5468.82227172914190305 0.00000000000000000 -1.00000000000000000 -0.00000000000000022 0.00000000000000000 0.00000000000000022 -1.00000000000000000 1.00000000000000000 0.00000000000000000 0.00000000000000000 
1 1131.00000000000090949 4900.65574173834829708 0.00000000000000000 0.94101531017864071 -0.33836398450396094 0.00000000000000000 -0.33836398450396094 -0.94101531017864071 0.00000000000000000 0.00000000000000000 -0.00000000000000000 -1.00000000000000000 
1 1027.00000000000000000 4722.66700000000037107 0.00000000000000000 0.00000000000000000 1.00000000000000000 0.00000000000000000 1.00000000000000000 0.00000000000000000 0.00000000000000000 0.00000000000000000 0.00000000000000000 -1.00000000000000000 
1 2209.84386887302343894 5622.00050000000010186 0.00000000000000000 0.00000000000000000 1.00000000000000000 0.00000000000000000 1.00000000000000000 0.00000000000000000 0.00000000000000000 0.00000000000000000 0.00000000000000000 -1.00000000000000000 
1 3110.00000000000000000 5622.00050000000010186 0.00000000000000000 -1.00000000000000000 0.00000000000000000 0.00000000000000000 0.00000000000000000 1.00000000000000000 0.00000000000000000 0.00000000000000000 0.00000000000000000 -1.00000000000000000 
1 1027.00000000000000000 5131.85328585281331470 0.00000000000000000 1.00000000000000000 0.00000000000000000 -0.00000000000000000 0.00000000000000000 -1.00000000000000000 0.00000000000000000 0.00000000000000000 -0.00000000000000000 -1.00000000000000000 
1 3095.00000000000000000 5792.00050000000010186 0.00000000000000000 0.00000000000000000 -1.00000000000000000 -0.00000000000000000 1.00000000000000000 0.00000000000000000 0.00000000000000000 0.00000000000000000 -0.00000000000000000 1.00000000000000000 
1 3102.50000000000000000 -0.00000000000127054 5722.00050000000101136 0.00000000000000000 1.00000000000000000 0.00000000000000022 0.00000000000000000 -0.00000000000000022 1.00000000000000000 1.00000000000000000 0.00000000000000000 -0.00000000000000000 
1 3095.00000000000000000 5652.00050000000010186 0.00000000000000000 1.00000000000000000 -0.00000000000000000 -0.00000000000000000 0.00000000000000000 1.00000000000000000 0.00000000000000000 0.00000000000000000 -0.00000000000000000 1.00000000000000000 
1 3110.00000000000000000 5652.00050000000010186 0.00000000000000000 0.00000000000000000 1.00000000000000000 0.00000000000000000 -1.00000000000000000 0.00000000000000000 0.00000000000000000 0.00000000000000000 -0.00000000000000000 1.00000000000000000 
2 1129.00000000000000000 5109.53369999999995343 0.00000000000000000 -0.00000000000000000 -0.00000000000000000 -1.00000000000000000 1.00000000000000000 0.00000000000000000 0.00000000000000000 -0.00000000000000000 1.00000000000000000 -0.00000000000000000 5.00000000000000000
2 1280.99999999999977263 5109.53369999999995343 0.00000000000000000 -0.00000000000000000 -0.00000000000000000 -1.00000000000000000 1.00000000000000000 0.00000000000000000 0.00000000000000000 -0.00000000000000000 1.00000000000000000 -0.00000000000000000 5.00000000000000000
2 1401.00000000000000000 5291.40040000000044529 0.00000000000000000 -0.00000000000000000 -0.00000000000000000 -1.00000000000000000 1.00000000000000000 0.00000000000000000 0.00000000000000000 -0.00000000000000000 1.00000000000000000 -0.00000000000000000 5.00000000000000000
2 1553.00000000000000000 5291.40040000000044529 0.00000000000000000 -0.00000000000000000 -0.00000000000000000 -1.00000000000000000 1.00000000000000000 0.00000000000000000 0.00000000000000000 -0.00000000000000000 1.00000000000000000 -0.00000000000000000 5.00000000000000000
2 1673.00000000000000000 5473.26710000000002765 0.00000000000000000 -0.00000000000000000 -0.00000000000000000 -1.00000000000000000 1.00000000000000000 0.00000000000000000 0.00000000000000000 -0.00000000000000000 1.00000000000000000 -0.00000000000000000 5.00000000000000000
2 1825.00000000000000000 5473.26710000000002765 0.00000000000000000 -0.00000000000000000 -0.00000000000000000 -1.00000000000000000 1.00000000000000000 0.00000000000000000 0.00000000000000000 -0.00000000000000000 1.00000000000000000 -0.00000000000000000 5.00000000000000000
2 1945.00000000000000000 5655.13379999999961001 0.00000000000000000 -0.00000000000000000 -0.00000000000000000 -1.00000000000000000 1.00000000000000000 0.00000000000000000 0.00000000000000000 -0.00000000000000000 1.00000000000000000 -0.00000000000000000 5.00000000000000000
2 2097.00000000000000000 5655.13379999999961001 0.00000000000000000 -0.00000000000000000 -0.00000000000000000 -1.00000000000000000 1.00000000000000000 0.00000000000000000 0.00000000000000000 -0.00000000000000000 1.00000000000000000 -0.00000000000000000 5.00000000000000000
1 1026.99999999999886313 4722.66700000000037107 15.00000000000000000 0.00000000000000000 0.00000000000000000 1.00000000000000000 -0.00000000000000022 1.00000000000000000 0.00000000000000000 -1.00000000000000000 -0.00000000000000022 0.00000000000000000 
1 1026.99999999999886313 -93.00000000000110845 4842.66700000000037107 1.00000000000000000 0.00000000000000000 0.00000000000000000 -0.00000000000000000 0.00000000000000000 1.00000000000000000 0.00000000000000000 -1.00000000000000000 0.00000000000000000 
1 1026.99999999999886313 4962.66700000000037107 15.00000000000000000 0.00000000000000022 -1.00000000000000000 0.00000000000000000 0.00000000000000000 0.00000000000000000 1.00000000000000000 -1.00000000000000000 -0.00000000000000022 0.00000000000000000 
1 3110.00000000000000000 5792.00050000000010186 0.00000000000000000 -1.00000000000000000 0.00000000000000000 0.00000000000000000 0.00000000000000000 -1.00000000000000000 0.00000000000000000 0.00000000000000000 0.00000000000000000 1.00000000000000000 
1 2133.96483879695961150 5872.00050000000010186 0.00000000000000000 0.55582821424379858 -0.83129717685707916 0.00000000000000000 -0.83129717685707916 -0.55582821424379858 0.00000000000000000 0.00000000000000000 -0.00000000000000000 -1.00000000000000000 
1 3110.00000000000000000 5872.00050000000010186 0.00000000000000000 0.00000000000000000 -1.00000000000000000 0.00000000000000000 -1.00000000000000000 0.00000000000000000 0.00000000000000000 -0.00000000000000000 -0.00000000000000000 -1.00000000000000000 
2 3094.99999999999863576 5692.00050000000010186 -40.00000000000000000 -1.00000000000000000 -0.00000000000000022 0.00000000000000000 0.00000000000000022 -1.00000000000000000 0.00000000000000000 0.00000000000000000 0.00000000000000000 1.00000000000000000 5.00000000000000000
1 3094.99999999999909051 39.99999999999873523 5692.00050000000010186 -1.00000000000000000 -0.00000000000000000 0.00000000000000000 -0.00000000000000000 0.00000000000000000 -1.00000000000000000 0.00000000000000000 -1.00000000000000000 -0.00000000000000000 
2 3094.99999999999863576 5752.00050000000010186 -40.00000000000000000 -1.00000000000000000 -0.00000000000000022 0.00000000000000000 0.00000000000000022 -1.00000000000000000 0.00000000000000000 0.00000000000000000 0.00000000000000000 1.00000000000000000 5.00000000000000000
1 3094.99999999999909051 39.99999999999872102 5752.00049999999919237 -1.00000000000000000 -0.00000000000000000 -0.00000000000000000 0.00000000000000000 0.00000000000000000 -1.00000000000000000 0.00000000000000000 -1.00000000000000000 0.00000000000000000 
1 1026.99999999999886313 4722.66700000000037107 171.00000000000000000 -0.00000000000000022 1.00000000000000000 -0.00000000000000000 0.00000000000000000 0.00000000000000000 -1.00000000000000000 -1.00000000000000000 -0.00000000000000022 -0.00000000000000000 
2 1026.99999999999886313 4762.66700000000037107 93.00000000000000000 -1.00000000000000000 -0.00000000000000022 0.00000000000000000 0.00000000000000022 -1.00000000000000000 0.00000000000000000 0.00000000000000000 0.00000000000000000 1.00000000000000000 5.00000000000000000
2 1026.99999999999886313 4822.66700000000037107 93.00000000000000000 -1.00000000000000000 -0.00000000000000022 0.00000000000000000 0.00000000000000022 -1.00000000000000000 0.00000000000000000 0.00000000000000000 0.00000000000000000 1.00000000000000000 5.00000000000000000
1 1026.99999999999886313 4962.66700000000037107 171.00000000000000000 -0.00000000000000000 -0.00000000000000000 -1.00000000000000000 0.00000000000000022 -1.00000000000000000 0.00000000000000000 -1.00000000000000000 -0.00000000000000022 0.00000000000000000 
Triangulations 0

TShapes 185
Ve
0.000000100000000
1131.000000000000909 4900.655741738348297 0.000000000000000
0 0

0101101
*
Ed
 0.000000100000000 1 1 0
1  1 0 0.000000000000000 15.000000000000000
0

0101000
+185 12 -185 14 *
Ve
0.000000100000000
2209.843868873023439 5622.000500000000102 0.000000000000000
0 0

0101101
*
Ed
 0.000000100000000 1 1 0
1  2 0 0.000000000000000 15.000000000000000
0

0101000
+183 12 -183 14 *
Ed
 0.000000100000000 1 1 0
1  3 0 0.000000000000000 1297.783631302411095
2  1 2 15 0.000000000000000 1297.783631302411095
0

0101000
+185 0 -183 0 *
Wi

0101100
+184 0 -182 0 -181 12 +181 14 *
Fa
0  0.000000100000000 1 0

0111000
+180 0 *
Ve
0.000000100000000
1067.000000000000000 4722.667000000000371 0.000000000000000
0 0

0101101
*
Ed
 0.000000100000000 1 1 0
1  4 0 0.000000000000000 15.000000000000000
2  2 4 0 0.000000000000000 15.000000000000000
0

0101000
+178 12 -178 14 *
Ed
 0.000000100000000 1 1 0
1  5 0 0.000000000000000 189.145426023471259
2  3 2 15 0.000000000000000 189.145426023471259
0

0101000
+185 0 -178 0 *
Wi

0101100
+184 0 -177 0 -176 12 +176 14 *
Fa
0  0.000000100000000 3 0

0111000
+175 0 *
Ve
0.000000100000000
3110.000000000000000 5622.000500000000102 0.000000000000000
0 0

0101101
*
Ed
 0.000000100000000 1 1 0
1  6 0 0.000000000000000 15.000000000000000
2  4 6 0 0.000000000000000 15.000000000000000
0

0101000
+173 12 -173 14 *
Ed
 0.000000100000000 1 1 0
1  7 0 0.000000000000000 900.156131126976561
2  5 2 15 0.000000000000000 900.156131126976561
0

0101000
+183 0 -173 0 *
Wi

0101100
+182 0 -172 0 -171 12 +171 14 *
Fa
0  0.000000100000000 5 0

0111000
+170 0 *
Ve
0.000000100000000
1027.000000000000000 4722.667000000000371 0.000000000000000
0 0

0101101
*
Ed
 0.000000100000000 1 1 0
1  8 0 0.000000000000000 40.000000000000000
2  6 4 19 0.000000000000000 40.000000000000000
2  7 4 20 0.000000000000000 40.000000000000000
2  8 2 15 0.000000000000000 40.000000000000000
0

0101000
+168 0 -178 0 *
Ve
0.000000100000000
1027.000000000000000 5131.853285852813315 0.000000000000000
0 0

0101101
*
Ed
 0.000000100000000 1 1 0
1  9 0 0.000000000000000 409.186285852812944
2  9 7 19 0.000000000000000 409.186285852812944
2  10 7 20 0.000000000000000 409.186285852812944
2  11 2 15 0.000000000000000 409.186285852812944
0

0101000
+166 0 -168 0 *
Ve
0.000000100000000
2133.964838796959611 5872.000500000000102 0.000000000000000
0 0

0101101
*
Ed
 0.000000100000000 1 1 0
1  10 0 0.000000000000000 1331.611449688917446
2  12 2 15 0.000000000000000 1331.611449688917446
0

0101000
+164 0 -166 0 *
Ve
0.000000100000000
3110.000000000000000 5872.000500000000102 0.000000000000000
0 0

0101101
*
Ed
 0.000000100000000 1 1 0
1  11 0 0.000000000000000 976.035161203040389
2  13 2 15 0.000000000000000 976.035161203040389
0

0101000
+162 0 -164 0 *
Ve
0.000000100000000
3110.000000000000000 -5792.000500000000102 0.000000000000000
0 0

0101101
*
Ed
 0.000000100000000 1 1 0
1  12 0 170.000000000000000 250.000000000000000
2  14 2 15 170.000000000000000 250.000000000000000
2  15 6 19 170.000000000000000 250.000000000000000
2  16 6 20 170.000000000000000 250.000000000000000
0

0101000
+160 23 -162 0 *
Ve
0.000000100000000
3095.000000000000000 -5792.000500000000102 0.000000000000000
0 0

0101101
*
Ed
 0.000000100000000 1 1 0
1  13 0 0.000000000000000 15.000000000000000
2  17 8 25 0.000000000000000 15.000000000000000
2  18 8 27 0.000000000000000 15.000000000000000
2  19 9 28 0.000000000000000 15.000000000000000
2  20 2 29 0.000000000000000 15.000000000000000
0

0101000
+158 0 -160 0 *
Ve
0.000000100000000
3095.000000000000000 -5652.000500000000102 0.000000000000000
0 0

0101101
*
Ed
 0.000000100000000 1 1 0
1  14 0 0.000000000000000 140.000000000000000
2  21 9 28 0.000000000000000 140.000000000000000
2  22 10 25 0.000000000000000 140.000000000000000
2  23 10 27 0.000000000000000 140.000000000000000
2  24 2 29 0.000000000000000 140.000000000000000
0

0101000
+156 0 -158 0 *
Ve
0.000000100000000
3110.000000000000000 -5652.000500000000102 0.000000000000000
0 0

0101101
*
Ed
 0.000000100000000 1 1 0
1  15 0 0.000000000000000 15.000000000000000
2  25 11 25 0.000000000000000 15.000000000000000
2  26 11 27 0.000000000000000 15.000000000000000
2  27 9 28 0.000000000000000 15.000000000000000
2  28 2 29 0.000000000000000 15.000000000000000
0

0101000
+154 0 -156 0 *
Ed
 0.000000100000000 1 1 0
1  12 0 0.000000000000000 30.000000000000000
2  14 2 15 0.000000000000000 30.000000000000000
2  15 6 19 0.000000000000000 30.000000000000000
2  16 6 20 0.000000000000000 30.000000000000000
0

0101000
+173 0 -154 23 *
Wi

0101100
-176 18 +167 18 +165 18 +163 18 +161 18 +159 18 +157 24 +155 24 +153 24 +152 18 
+171 18 +181 18 *
Ve
0.000000100000000
1134.000000000000000 5109.533699999999953 0.000000000000000
0 0

0101101
*
Ed
 0.000000100000000 1 1 0
1  16 0 0.000000000000000 6.283185307179586
2  29 12 19 0.000000000000000 6.283185307179586
2  30 12 20 0.000000000000000 6.283185307179586
2  31 2 15 0.000000000000000 6.283185307179586
0

0101000
+150 0 -150 0 *
Wi

0101100
-149 18 *
Ve
0.000000100000000
1285.999999999999773 5109.533699999999953 0.000000000000000
0 0

0101101
*
Ed
 0.000000100000000 1 1 0
1  17 0 0.000000000000000 6.283185307179586
2  32 13 19 0.000000000000000 6.283185307179586
2  33 13 20 0.000000000000000 6.283185307179586
2  34 2 15 0.000000000000000 6.283185307179586
0

0101000
+147 0 -147 0 *
Wi

0101100
-146 18 *
Ve
0.000000100000000
1406.000000000000000 5291.400400000000445 0.000000000000000
0 0

0101101
*
Ed
 0.000000100000000 1 1 0
1  18 0 0.000000000000000 6.283185307179586
2  35 14 19 0.000000000000000 6.283185307179586
2  36 14 20 0.000000000000000 6.283185307179586
2  37 2 15 0.000000000000000 6.283185307179586
0

0101000
+144 0 -144 0 *
Wi

0101100
-143 18 *
Ve
0.000000100000000
1558.000000000000000 5291.400400000000445 0.000000000000000
0 0

0101101
*
Ed
 0.000000100000000 1 1 0
1  19 0 0.000000000000000 6.283185307179586
2  38 15 19 0.000000000000000 6.283185307179586
2  39 15 20 0.000000000000000 6.283185307179586
2  40 2 15 0.000000000000000 6.283185307179586
0

0101000
+141 0 -141 0 *
Wi

0101100
-140 18 *
Ve
0.000000100000000
1678.000000000000000 5473.267100000000028 0.000000000000000
0 0

0101101
*
Ed
 0.000000100000000 1 1 0
1  20 0 0.000000000000000 6.283185307179586
2  41 16 19 0.000000000000000 6.283185307179586
2  42 16 20 0.000000000000000 6.283185307179586
2  43 2 15 0.000000000000000 6.283185307179586
0

0101000
+138 0 -138 0 *
Wi

0101100
-137 18 *
Ve
0.000000100000000
1830.000000000000000 5473.267100000000028 0.000000000000000
0 0

0101101
*
Ed
 0.000000100000000 1 1 0
1  21 0 0.000000000000000 6.283185307179586
2  44 17 19 0.000000000000000 6.283185307179586
2  45 17 20 0.000000000000000 6.283185307179586
2  46 2 15 0.000000000000000 6.283185307179586
0

0101000
+135 0 -135 0 *
Wi

0101100
-134 18 *
Ve
0.000000100000000
1950.000000000000000 5655.133799999999610 0.000000000000000
0 0

0101101
*
Ed
 0.000000100000000 1 1 0
1  22 0 0.000000000000000 6.283185307179586
2  47 18 19 0.000000000000000 6.283185307179586
2  48 18 20 0.000000000000000 6.283185307179586
2  49 2 15 0.000000000000000 6.283185307179586
0

0101000
+132 0 -132 0 *
Wi

0101100
-131 18 *
Ve
0.000000100000000
2102.000000000000000 5655.133799999999610 0.000000000000000
0 0

0101101
*
Ed
 0.000000100000000 1 1 0
1  23 0 0.000000000000000 6.283185307179586
2  50 19 19 0.000000000000000 6.283185307179586
2  51 19 20 0.000000000000000 6.283185307179586
2  52 2 15 0.000000000000000 6.283185307179586
0

0101000
+129 0 -129 0 *
Wi

0101100
-128 18 *
Fa
0  0.000000100000000 2 17

0111000
+151 0 +148 0 +145 0 +142 0 +139 0 +136 0 +133 0 +130 0 +127 0 *
Ve
0.000000100000000
-4722.667000000000371 15.000000000000000 0.000000000000000
0 0

0101101
*
Ed
 0.000000100000000 1 1 0
1  8 0 14.999999999998863 40.000000000000000
2  6 4 19 14.999999999998863 40.000000000000000
2  7 4 20 14.999999999998863 40.000000000000000
2  8 2 15 14.999999999998863 40.000000000000000
0

0101000
+125 36 -178 0 *
Ve
0.000000100001137
-4962.667000000000371 15.000000000000000 0.000000000000000
0 0

0101101
*
Ed
 0.000000100000000 1 1 0
1  24 0 0.000000000000000 240.000000000000000
2  53 20 38 0.000000000000000 240.000000000000000
2  54 20 39 0.000000000000000 240.000000000000000
2  55 21 40 0.000000000000000 240.000000000000000
2  56 2 41 0.000000000000000 240.000000000000000
0

0101000
+125 0 -123 0 *
Ed
 0.000000100000000 1 1 0
1  25 0 0.000000000000000 15.000000000000000
2  57 20 0 0.000000000000000 15.000000000000000
2  58 22 0 0.000000000000000 15.000000000000000
2  59 2 31 0.000000000000000 15.000000000000000
0

0101000
+123 42 -123 37 *
Ed
 0.000000100000000 1 1 0
1  9 0 0.000000000000000 169.186285852812944
2  9 7 19 0.000000000000000 169.186285852812944
2  10 7 20 0.000000000000000 169.186285852812944
2  11 2 15 0.000000000000000 169.186285852812944
0

0101000
+166 0 -123 43 *
Ed
 0.000000100000000 1 1 0
1  12 0 0.000000000000000 250.000000000000000
2  14 2 15 0.000000000000000 250.000000000000000
2  15 6 19 0.000000000000000 250.000000000000000
2  16 6 20 0.000000000000000 250.000000000000000
0

0101000
+173 0 -162 0 *
Wi

0101100
-176 32 +124 32 -122 37 +121 0 +120 32 +163 32 +161 32 +119 32 +171 32 +181 32 
*
Wi

0101100
-149 32 *
Wi

0101100
-146 32 *
Wi

0101100
-143 32 *
Wi

0101100
-140 32 *
Wi

0101100
-137 32 *
Wi

0101100
-134 32 *
Wi

0101100
-131 32 *
Wi

0101100
-128 32 *
Fa
0  0.000000100000000 2 31

0111000
+118 0 +117 0 +116 0 +115 0 +114 0 +113 0 +112 0 +111 0 +110 0 *
Ve
0.000000100001364
1026.999999999999318 4722.667000000000371 15.000000000000000
0 0

0101101
*
Ed
 0.000000100000000 1 1 0
1  26 0 0.000000000000000 15.000000000000000
2  60 7 0 0.000000000000000 15.000000000000000
2  61 4 0 0.000000000000000 15.000000000000000
0

0101000
+168 12 -108 45 *
Ed
 0.000000100000000 1 1 0
1  8 0 0.000000000000000 14.999999999998863
2  6 4 19 0.000000000000000 14.999999999998863
2  7 4 20 0.000000000000000 14.999999999998863
2  8 2 15 0.000000000000000 14.999999999998863
0

0101000
+108 47 -125 36 *
Wi

0101100
+107 44 -177 44 -167 46 +106 32 +124 32 *
Fa
0  0.000000100000000 4 44

0111000
+105 0 *
Ed
 0.000000100000000 1 1 0
1  27 0 0.000000000000000 15.000000000000000
2  62 6 0 0.000000000000000 15.000000000000000
0

0101000
+162 12 -162 14 *
Ed
 0.000000100000000 1 1 0
1  28 0 0.000000000000000 140.000000000000000
2  63 23 25 0.000000000000000 140.000000000000000
2  64 23 27 0.000000000000000 140.000000000000000
2  65 9 28 0.000000000000000 140.000000000000000
2  66 2 29 0.000000000000000 140.000000000000000
0

0101000
+160 0 -154 0 *
Wi

0101100
+172 48 -103 48 -152 18 +102 24 -159 18 +119 49 *
Fa
0  0.000000100000000 6 48

0111000
+101 0 *
Ed
 0.000000100000000 1 1 0
1  29 0 0.000000000000000 15.000000000000000
2  67 7 0 0.000000000000000 15.000000000000000
0

0101000
+166 12 -166 14 *
Ed
 0.000000100001137 1 1 0
1  9 0 169.186285852812944 409.186285852812944
2  9 7 19 169.186285852812944 409.186285852812944
2  10 7 20 169.186285852812944 409.186285852812944
2  11 2 15 169.186285852812944 409.186285852812944
0

0101000
+123 43 -108 47 *
Wi

0101100
+99 44 -107 44 -165 46 +120 32 +98 32 *
Fa
0  0.000000100000000 7 44

0111000
+97 0 *
Ed
 0.000000100000000 1 1 0
1  30 0 0.000000000000000 15.000000000000000
0

0101000
+164 12 -164 14 *
Wi

0101100
+95 0 -99 0 -163 12 +163 14 *
Fa
0  0.000000100000000 24 0

0111000
+94 0 *
Wi

0101100
+103 0 -95 0 -161 12 +161 14 *
Fa
0  0.000000100000000 25 0

0111000
+92 0 *
Ed
 0.000000100000000 1 1 0
1  31 0 0.000000000000000 80.000000000000000
2  68 8 0 0.000000000000000 80.000000000000000
2  69 10 0 0.000000000000000 80.000000000000000
0

0101000
+158 24 -158 50 *
Ed
 0.000000100000000 1 1 0
1  32 0 0.000000000000000 80.000000000000000
2  70 8 0 0.000000000000000 80.000000000000000
2  71 23 0 0.000000000000000 80.000000000000000
0

0101000
+160 24 -160 50 *
Wi

0101100
+90 0 -89 0 -157 24 +157 50 *
Fa
0  0.000000100000000 8 0

0111000
+88 0 *
Ed
 0.000000100000000 1 1 0
1  33 0 0.000000000000000 80.000000000000000
2  72 11 0 0.000000000000000 80.000000000000000
2  73 10 0 0.000000000000000 80.000000000000000
0

0101000
+156 24 -156 50 *
Wi

0101100
+86 16 -155 51 +155 52 -90 16 *
Ve
0.000000100001364
-5687.000500000000102 -40.000000000000000 0.000000000000000
0 0

0101101
*
Ed
 0.000000100001364 1 1 0
1  34 0 0.000000000000000 6.283185307179586
2  74 26 56 0.000000000000000 6.283185307179586
2  75 26 58 0.000000000000000 6.283185307179586
2  76 27 59 0.000000000000000 6.283185307179586
2  77 10 60 0.000000000000000 6.283185307179586
0

0101000
+84 0 -84 0 *
Wi

0101100
+83 55 *
Ve
0.000000100001364
-5747.000500000000102 -40.000000000000000 0.000000000000000
0 0

0101101
*
Ed
 0.000000100001364 1 1 0
1  35 0 0.000000000000000 6.283185307179586
2  78 28 56 0.000000000000000 6.283185307179586
2  79 28 58 0.000000000000000 6.283185307179586
2  80 29 59 0.000000000000000 6.283185307179586
2  81 10 60 0.000000000000000 6.283185307179586
0

0101000
+81 0 -81 0 *
Wi

0101100
+80 55 *
Fa
0  0.000000100000000 10 16

0111000
+85 0 +82 0 +79 0 *
Ed
 0.000000100000000 1 1 0
1  36 0 0.000000000000000 80.000000000000000
2  82 11 0 0.000000000000000 80.000000000000000
2  83 23 0 0.000000000000000 80.000000000000000
0

0101000
+154 24 -154 50 *
Wi

0101100
+77 0 -86 0 -153 24 +153 50 *
Fa
0  0.000000100000000 11 0

0111000
+76 0 *
Ed
 0.000000100000000 1 1 0
1  37 0 0.000000000000000 15.000000000000000
3  84 85CN 12 0 0.000000000000000 15.000000000000000
0

0101000
+150 12 -150 14 *
Wi

0101100
+74 0 -74 0 -149 12 +149 14 *
Fa
0  0.000000100000000 12 0

0111000
+73 0 *
Ed
 0.000000100000000 1 1 0
1  38 0 0.000000000000000 15.000000000000000
3  86 87CN 13 0 0.000000000000000 15.000000000000000
0

0101000
+147 12 -147 14 *
Wi

0101100
+71 0 -71 0 -146 12 +146 14 *
Fa
0  0.000000100000000 13 0

0111000
+70 0 *
Ed
 0.000000100000000 1 1 0
1  39 0 0.000000000000000 15.000000000000000
3  88 89CN 14 0 0.000000000000000 15.000000000000000
0

0101000
+144 12 -144 14 *
Wi

0101100
+68 0 -68 0 -143 12 +143 14 *
Fa
0  0.000000100000000 14 0

0111000
+67 0 *
Ed
 0.000000100000000 1 1 0
1  40 0 0.000000000000000 15.000000000000000
3  90 91CN 15 0 0.000000000000000 15.000000000000000
0

0101000
+141 12 -141 14 *
Wi

0101100
+65 0 -65 0 -140 12 +140 14 *
Fa
0  0.000000100000000 15 0

0111000
+64 0 *
Ed
 0.000000100000000 1 1 0
1  41 0 0.000000000000000 15.000000000000000
3  92 93CN 16 0 0.000000000000000 15.000000000000000
0

0101000
+138 12 -138 14 *
Wi

0101100
+62 0 -62 0 -137 12 +137 14 *
Fa
0  0.000000100000000 16 0

0111000
+61 0 *
Ed
 0.000000100000000 1 1 0
1  42 0 0.000000000000000 15.000000000000000
3  94 95CN 17 0 0.000000000000000 15.000000000000000
0

0101000
+135 12 -135 14 *
Wi

0101100
+59 0 -59 0 -134 12 +134 14 *
Fa
0  0.000000100000000 17 0

0111000
+58 0 *
Ed
 0.000000100000000 1 1 0
1  43 0 0.000000000000000 15.000000000000000
3  96 97CN 18 0 0.000000000000000 15.000000000000000
0

0101000
+132 12 -132 14 *
Wi

0101100
+56 0 -56 0 -131 12 +131 14 *
Fa
0  0.000000100000000 18 0

0111000
+55 0 *
Ed
 0.000000100000000 1 1 0
1  44 0 0.000000000000000 15.000000000000000
3  98 99CN 19 0 0.000000000000000 15.000000000000000
0

0101000
+129 12 -129 14 *
Wi

0101100
+53 0 -53 0 -128 12 +128 14 *
Fa
0  0.000000100000000 19 0

0111000
+52 0 *
Ve
0.000000100000000
-4962.667000000000371 171.000000000000000 0.000000000000000
0 0

0101101
*
Ed
 0.000000100000000 1 1 0
1  45 0 0.000000000000000 156.000000000000000
2  100 22 38 0.000000000000000 156.000000000000000
2  101 22 39 0.000000000000000 156.000000000000000
2  102 21 40 0.000000000000000 156.000000000000000
0

0101000
+123 0 -50 0 *
Ve
0.000000100000000
-4722.667000000000371 171.000000000000000 0.000000000000000
0 0

0101101
*
Ed
 0.000000100000000 1 1 0
1  46 0 0.000000000000000 240.000000000000000
2  103 21 40 0.000000000000000 240.000000000000000
0

0101000
+50 0 -48 0 *
Ed
 0.000000100000000 1 1 0
1  47 0 0.000000000000000 156.000000000000000
2  104 30 38 0.000000000000000 156.000000000000000
2  105 30 39 0.000000000000000 156.000000000000000
2  106 21 40 0.000000000000000 156.000000000000000
0

0101000
+48 0 -125 0 *
Wi

0101100
+122 62 +49 62 +47 62 +46 62 *
Ve
0.000000100000000
-4757.667000000000371 93.000000000000000 0.000000000000000
0 0

0101101
*
Ed
 0.000000100000000 1 1 0
1  48 0 0.000000000000000 6.283185307179586
2  107 31 38 0.000000000000000 6.283185307179586
2  108 31 39 0.000000000000000 6.283185307179586
2  109 21 40 0.000000000000000 6.283185307179586
0

0101000
+44 0 -44 0 *
Wi

0101100
+43 62 *
Ve
0.000000100000000
-4817.667000000000371 93.000000000000000 0.000000000000000
0 0

0101101
*
Ed
 0.000000100000000 1 1 0
1  49 0 0.000000000000000 6.283185307179586
2  110 32 38 0.000000000000000 6.283185307179586
2  111 32 39 0.000000000000000 6.283185307179586
2  112 21 40 0.000000000000000 6.283185307179586
0

0101000
+41 0 -41 0 *
Wi

0101100
+40 62 *
Fa
0  0.000000100000000 21 0

0111000
+45 0 +42 0 +39 0 *
Ed
 0.000000100000000 1 1 0
1  50 0 0.000000000000000 15.000000000000000
2  113 22 0 0.000000000000000 15.000000000000000
0

0101000
+50 42 -50 37 *
Wi

0101100
+121 0 -37 0 -49 42 +49 37 *
Fa
0  0.000000100000000 22 0

0111000
+36 0 *
Ed
 0.000000100000000 1 1 0
1  51 0 0.000000000000000 15.000000000000000
2  114 30 0 0.000000000000000 15.000000000000000
0

0101000
+48 42 -48 37 *
Ed
 0.000000100000000 1 1 0
1  47 0 0.000000000000000 156.000000000000000
2  104 30 38 0.000000000000000 156.000000000000000
2  105 30 39 0.000000000000000 156.000000000000000
2  106 21 40 0.000000000000000 156.000000000000000
0

0101000
+48 0 -108 38 *
Wi

0101100
+34 0 -106 32 -33 42 +46 37 *
Fa
0  0.000000100000000 30 0

0111000
+32 0 *
Wi

0101100
+89 16 -102 51 +102 52 -77 16 *
Ve
0.000000100000000
3110.000000000000000 5747.000500000000102 -40.000000000000000
0 0

0101101
*
Ed
 0.000000100000000 1 1 0
1  52 0 0.000000000000000 6.283185307179586
2  115 23 16 0.000000000000000 6.283185307179586
2  116 28 0 0.000000000000000 6.283185307179586
0

0101000
+29 0 -29 0 *
Wi

0101100
-28 0 *
Ve
0.000000100000000
3110.000000000000000 5687.000500000000102 -40.000000000000000
0 0

0101101
*
Ed
 0.000000100000000 1 1 0
1  53 0 0.000000000000000 6.283185307179586
2  117 23 16 0.000000000000000 6.283185307179586
2  118 26 0 0.000000000000000 6.283185307179586
0

0101000
+26 0 -26 0 *
Wi

0101100
-25 0 *
Fa
0  0.000000100000000 23 16

0111000
+30 0 +27 0 +24 0 *
Wi

0101100
-98 32 +49 42 +47 42 +33 42 *
Wi

0101100
+43 42 *
Wi

0101100
+40 42 *
Fa
0  0.000000100000000 21 63

0111000
+22 0 +21 0 +20 0 *
Wi

0101100
+153 0 +155 0 +157 0 +102 0 *
Fa
0  0.000000100000000 9 0

0111000
+18 65 *
Ed
 0.000000100000000 1 1 0
1  54 0 0.000000000000000 15.000000000001364
3  119 120CN 26 0 0.000000000000000 15.000000000001364
0

0101000
+84 55 -26 0 *
Wi

0101100
-83 55 -16 0 +25 0 +16 0 *
Fa
0  0.000000100000000 26 0

0111000
+15 0 *
Ed
 0.000000100000000 1 1 0
1  55 0 0.000000000000000 15.000000000001364
3  121 122CN 28 0 0.000000000000000 15.000000000001364
0

0101000
+81 55 -29 0 *
Wi

0101100
-80 55 -13 0 +28 0 +13 0 *
Fa
0  0.000000100000000 28 0

0111000
+12 0 *
Wi

0101100
+37 0 -34 0 -47 42 +47 37 *
Fa
0  0.000000100000000 33 0

0111000
+10 0 *
Ed
 0.000000100000000 1 1 0
1  56 0 0.000000000000000 15.000000000000000
3  123 124CN 31 0 0.000000000000000 15.000000000000000
0

0101000
+44 42 -44 37 *
Wi

0101100
+8 0 -8 0 -43 42 +43 37 *
Fa
0  0.000000100000000 31 0

0111000
+7 0 *
Ed
 0.000000100000000 1 1 0
1  57 0 0.000000000000000 15.000000000000000
3  125 126CN 32 0 0.000000000000000 15.000000000000000
0

0101000
+41 42 -41 37 *
Wi

0101100
+5 0 -5 0 -40 42 +40 37 *
Fa
0  0.000000100000000 32 0

0111000
+4 0 *
Sh

0101100
-179 8 +174 8 -169 8 -126 16 +109 30 -104 30 -100 16 -96 30 -93 8 -91 8 
-87 16 -78 0 -75 16 +72 8 +69 8 +66 8 +63 8 +60 8 +57 8 +54 8 
+51 8 +38 61 -35 30 -31 30 -23 0 -19 30 +17 64 -14 0 -11 0 -9 30 
-6 30 -3 30 *
So

0100000
+2 0 *

+1 1 