
CASCADE Topology V1, (c) Matra-Datavision
Locations 28
1
1.000000000000000 0.000000000000000 0.000000000000000 0.000000000000000 
0.000000000000000 1.000000000000000 0.000000000000000 0.000000000000000 
0.000000000000000 0.000000000000000 1.000000000000000 0.000000000000000 
1
1.000000000000000 0.000000000000000 0.000000000000000 0.000000000000000 
0.000000000000000 1.000000000000000 0.000000000000000 0.000000000000000 
0.000000000000000 0.000000000000000 1.000000000000000 0.000000000000000 
1
1.000000000000000 0.000000000000000 0.000000000000000 0.000000000000000 
0.000000000000000 1.000000000000000 0.000000000000000 0.000000000000000 
0.000000000000000 0.000000000000000 1.000000000000000 0.000000000000000 
2  2 1 3 -1 0
1
1.000000000000000 0.000000000000000 0.000000000000000 0.000000000000000 
0.000000000000000 1.000000000000000 0.000000000000000 0.000000000000000 
0.000000000000000 0.000000000000000 1.000000000000000 0.000000000000000 
1
1.000000000000000 0.000000000000000 0.000000000000000 0.000000000000000 
0.000000000000000 1.000000000000000 0.000000000000000 0.000000000000000 
0.000000000000000 0.000000000000000 1.000000000000000 0.000000000000000 
1
1.000000000000000 0.000000000000000 0.000000000000000 0.000000000000000 
0.000000000000000 1.000000000000000 0.000000000000000 0.000000000000000 
0.000000000000000 0.000000000000000 1.000000000000000 0.000000000000000 
2  5 1 6 1 7 -1 0
1
1.000000000000000 0.000000000000000 0.000000000000000 -0.000000000000000 
0.000000000000000 1.000000000000000 0.000000000000000 -0.000000000000000 
0.000000000000000 0.000000000000000 1.000000000000000 -50.000000000000000 
2  5 1 6 1 7 -1 9 1 0
2  5 1 6 1 7 -1 2 1 3 -1 0
2  7 1 6 -1 5 -1 0
2  9 -1 7 1 6 -1 5 -1 0
2  5 1 6 1 7 -1 9 1 2 1 3 -1 0
1
1.000000000000000 0.000000000000000 0.000000000000000 0.000000000000000 
0.000000000000000 1.000000000000000 0.000000000000000 0.000000000000000 
0.000000000000000 0.000000000000000 1.000000000000000 0.000000000000000 
1
-1.000000000000000 0.000000000000000 -0.000000000000006 0.000000000006276 
-0.000000000000006 0.000000000000000 1.000000000000000 -1020.000000000029331 
0.000000000000000 1.000000000000000 -0.000000000000000 0.000000000000000 
2  15 1 16 1 3 -1 0
2  3 1 16 -1 15 -1 0
1
1.000000000000000 0.000000000000000 0.000000000000000 0.000000000000031 
0.000000000000000 1.000000000000000 0.000000000000000 -5.000000000000000 
0.000000000000000 0.000000000000000 1.000000000000000 0.000000000000001 
2  19 -1 3 1 16 -1 15 -1 0
2  16 -1 15 -1 0
2  2 1 16 -1 15 -1 0
2  7 -1 2 1 3 -1 0
2  5 1 6 1 0
2  7 -1 9 1 2 1 3 -1 0
2  15 1 16 1 3 -1 19 1 0
2  3 -1 19 1 0
2  15 1 16 1 0
Curve2ds 24
1 0.00000000000000000 0.00000000000000000 0.00000000000000000 -1.00000000000000000 
1 579.10980544585845564 0.00000000000000000 0.00000000000000000 -1.00000000000000000 
1 0.00000000000000000 0.00000000000000000 1.00000000000000000 0.00000000000000000 
1 -0.00000000000000000 -50.00000000000000000 1.00000000000000000 0.00000000000000000 
1 1053.23967163026190974 0.00000000000000000 0.00000000000000000 -1.00000000000000000 
1 0.00000000000000000 0.00000000000000000 1.00000000000000000 0.00000000000000000 
1 0.00000000000000000 -5.00000000000000000 1.00000000000000000 0.00000000000000000 
2 0.00000000000045475 0.00000000000000355 -1.00000000000000000 -0.00000000000000000 0.00000000000000000 -1.00000000000000000 5.00000000000000000
2 913.23967163026190974 -25.00000000000000000 1.00000000000000000 0.00000000000000000 -0.00000000000000000 1.00000000000000000 5.00000000000000000
1 0.00000000000000000 0.00000000000000000 1.00000000000000000 0.00000000000000000 
1 0.00000000000000000 -5.00000000000000000 1.00000000000000000 0.00000000000000000 
2 0.00000000000045475 0.00000000000000355 -1.00000000000000000 -0.00000000000000000 0.00000000000000000 -1.00000000000000000 5.00000000000000000
2 973.23967163026190974 -25.00000000000000000 1.00000000000000000 0.00000000000000000 -0.00000000000000000 1.00000000000000000 5.00000000000000000
1 0.00000000000000000 0.00000000000000000 0.00000000000000000 -1.00000000000000000 
1 1187.78591687753373662 0.00000000000000000 0.00000000000000000 -1.00000000000000000 
1 0.00000000000000000 0.00000000000000000 1.00000000000000000 0.00000000000000000 
1 0.00000000000000000 -50.00000000000000000 1.00000000000000000 0.00000000000000000 
1 0.00000000000000000 0.00000000000000000 1.00000000000000000 0.00000000000000000 
1 0.00000000000000000 -50.00000000000000000 1.00000000000000000 0.00000000000000000 
1 0.00000000000000000 0.00000000000000000 0.00000000000000000 -1.00000000000000000 
1 0.00000000000000000 0.00000000000000000 0.00000000000000000 -1.00000000000000000 
1 6.28318530717958623 0.00000000000000000 0.00000000000000000 -1.00000000000000000 
1 0.00000000000000000 0.00000000000000000 0.00000000000000000 -1.00000000000000000 
1 6.28318530717958623 0.00000000000000000 0.00000000000000000 -1.00000000000000000 
Curves 12
1 4776.00000000000000000 -1020.00000000000000000 0.00000000000000000 -0.00000000000000000 -0.00000000000000000 -1.00000000000000000 
1 4776.00000000000000000 -1020.00000000000000000 0.00000000000000000 -1.00000000000000000 -0.00000000000000615 0.00000000000000000 
1 3722.76032836973809026 -1020.00000000000648015 0.00000000000000000 -0.00000000000000000 -0.00000000000000000 -1.00000000000000000 
2 -3862.76032836973172380 -25.00000000000000000 0.00000000000000000 0.00000000000000000 0.00000000000000000 1.00000000000000000 1.00000000000000000 0.00000000000000000 -0.00000000000000000 -0.00000000000000000 1.00000000000000000 0.00000000000000000 5.00000000000000000
2 -3802.76032836973172380 -25.00000000000000000 0.00000000000000000 0.00000000000000000 0.00000000000000000 1.00000000000000000 1.00000000000000000 0.00000000000000000 -0.00000000000000000 -0.00000000000000000 1.00000000000000000 0.00000000000000000 5.00000000000000000
1 4776.00000000000000000 -1599.10980544585845564 0.00000000000000000 -0.00000000000000000 -0.00000000000000000 -1.00000000000000000 
1 4776.00000000000000000 -1599.10980544585845564 0.00000000000000000 0.00000000000000000 1.00000000000000000 0.00000000000000000 
1 3722.76032836973809026 -1020.00000000000648015 0.00000000000000000 0.00000000000000000 -1.00000000000000000 0.00000000000000000 
1 3722.76032836973809026 -1050.00000000000636646 0.00000000000000000 0.88672517215815405 -0.46229694900690416 0.00000000000000000 
1 3722.76032836973809026 -1050.00000000000636646 0.00000000000000000 -0.00000000000000000 -0.00000000000000000 -1.00000000000000000 
1 3857.76032836973809026 -1020.00000000000557066 -25.00000000000000000 0.00000000000000615 -1.00000000000000000 0.00000000000000022 
1 3797.76032836973809026 -1020.00000000000602540 -25.00000000000000000 0.00000000000000615 -1.00000000000000000 0.00000000000000022 
Polygon3D 0
PolygonOnTriangulations 0
Surfaces 9
1 4776.00000000000000000 -1020.00000000000000000 0.00000000000000000 -0.00000000000000615 1.00000000000000000 0.00000000000000000 -1.00000000000000000 -0.00000000000000615 0.00000000000000000 0.00000000000000000 0.00000000000000000 1.00000000000000000 
1 4776.00000000000000000 -1599.10980544585845564 0.00000000000000000 1.00000000000000000 0.00000000000000000 0.00000000000000000 -0.00000000000000000 1.00000000000000000 0.00000000000000000 0.00000000000000000 -0.00000000000000000 1.00000000000000000 
2 3862.76032836973809026 -1020.00000000000557066 -25.00000000000000000 -0.00000000000000615 1.00000000000000000 -0.00000000000000022 -1.00000000000000000 -0.00000000000000615 0.00000000000000000 -0.00000000000000000 0.00000000000000022 1.00000000000000000 5.00000000000000000
1 3862.76032836973763551 -1020.00000000000545697 -24.99999999999999645 0.00000000000000000 1.00000000000000000 -0.00000000000000000 1.00000000000000000 -0.00000000000000000 0.00000000000000000 0.00000000000000000 -0.00000000000000000 -1.00000000000000000 
2 3802.76032836973809026 -1020.00000000000591172 -25.00000000000000000 -0.00000000000000615 1.00000000000000000 -0.00000000000000022 -1.00000000000000000 -0.00000000000000615 0.00000000000000000 -0.00000000000000000 0.00000000000000022 1.00000000000000000 5.00000000000000000
1 3802.76032836973763551 -1020.00000000000591172 -24.99999999999999645 -0.00000000000001516 1.00000000000000000 -0.00000000000000000 1.00000000000000000 0.00000000000001516 0.00000000000000000 0.00000000000000000 0.00000000000000000 -1.00000000000000000 
1 3722.76032836973809026 -1050.00000000000636646 0.00000000000000000 -0.46229694900690416 -0.88672517215815405 0.00000000000000000 0.88672517215815405 -0.46229694900690416 0.00000000000000000 0.00000000000000000 0.00000000000000000 1.00000000000000000 
1 4350.83924441026192653 -1205.91401267328592439 0.00000000000000000 0.00000000000000000 0.00000000000000000 1.00000000000000000 1.00000000000000000 0.00000000000000000 -0.00000000000000000 -0.00000000000000000 1.00000000000000000 0.00000000000000000 
1 3722.76032836973809026 -1020.00000000000648015 0.00000000000000000 -1.00000000000000000 0.00000000000000000 0.00000000000000000 0.00000000000000000 -1.00000000000000000 0.00000000000000000 0.00000000000000000 0.00000000000000000 1.00000000000000000 
Triangulations 0

TShapes 40
Ve
0.000000100000000
4776.000000000000000 -1020.000000000000000 0.000000000000000
0 0

0101101
*
Ed
 0.000000100000000 1 1 0
1  1 0 0.000000000000000 50.000000000000000
2  1 1 0 0.000000000000000 50.000000000000000
2  2 2 0 0.000000000000000 50.000000000000000
0

0101000
+40 8 -40 10 *
Ve
0.000000100000000
3722.760328369738090 -1020.000000000006480 0.000000000000000
0 0

0101101
*
Ed
 0.000000100000000 1 1 0
1  2 0 0.000000000000000 1053.239671630261910
2  3 1 12 0.000000000000000 1053.239671630261910
2  4 1 13 0.000000000000000 1053.239671630261910
0

0101000
+40 0 -38 0 *
Ed
 0.000000100000000 1 1 0
1  3 0 0.000000000000000 50.000000000000000
2  5 1 0 0.000000000000000 50.000000000000000
0

0101000
+38 8 -38 10 *
Wi

0101100
+39 4 -37 11 +37 14 -36 4 *
Ve
0.000000100000114
-3857.760328369731724 -25.000000000000000 0.000000000000000
0 0

0101101
*
Ed
 0.000000100000114 1 1 0
1  4 0 0.000000000000000 6.283185307179586
2  6 3 18 0.000000000000000 6.283185307179586
2  7 3 20 0.000000000000000 6.283185307179586
2  8 4 21 0.000000000000000 6.283185307179586
2  9 1 22 0.000000000000000 6.283185307179586
0

0101000
+34 0 -34 0 *
Wi

0101100
-33 17 *
Ve
0.000000100000114
-3797.760328369731724 -25.000000000000000 0.000000000000000
0 0

0101101
*
Ed
 0.000000100000114 1 1 0
1  5 0 0.000000000000000 6.283185307179586
2  10 5 18 0.000000000000000 6.283185307179586
2  11 5 20 0.000000000000000 6.283185307179586
2  12 6 21 0.000000000000000 6.283185307179586
2  13 1 22 0.000000000000000 6.283185307179586
0

0101000
+31 0 -31 0 *
Wi

0101100
-30 17 *
Fa
0  0.000000100000000 1 4

0111000
+35 0 +32 0 +29 0 *
Ve
0.000000100000000
4776.000000000000000 -1599.109805445858456 0.000000000000000
0 0

0101101
*
Ed
 0.000000100000000 1 1 0
1  6 0 0.000000000000000 50.000000000000000
2  14 2 0 0.000000000000000 50.000000000000000
2  15 7 0 0.000000000000000 50.000000000000000
0

0101000
+27 8 -27 10 *
Ed
 0.000000100000000 1 1 0
1  7 0 0.000000000000000 579.109805445858456
2  16 2 12 0.000000000000000 579.109805445858456
2  17 2 13 0.000000000000000 579.109805445858456
0

0101000
+27 0 -40 0 *
Wi

0101100
+26 0 -39 0 -25 8 +25 10 *
Fa
0  0.000000100000000 2 0

0111000
+24 0 *
Ve
0.000000100000000
3722.760328369738090 -1050.000000000006366 0.000000000000000
0 0

0101101
*
Ed
 0.000000100000000 1 1 0
1  8 0 0.000000000000000 29.999999999999886
0

0101000
+38 0 -22 0 *
Ed
 0.000000100000000 1 1 0
1  9 0 0.000000000000000 1187.785916877533737
2  18 7 12 0.000000000000000 1187.785916877533737
2  19 7 13 0.000000000000000 1187.785916877533737
0

0101000
+22 0 -27 0 *
Wi

0101100
+37 0 +21 0 +20 0 +25 0 *
Fa
0  0.000000100000000 8 0

0111000
+19 24 *
Ed
 0.000000100000000 1 1 0
1  10 0 0.000000000000000 50.000000000000000
2  20 7 0 0.000000000000000 50.000000000000000
0

0101000
+22 8 -22 10 *
Wi

0101100
+36 0 -17 0 -21 8 +21 10 *
Fa
0  0.000000100000000 9 0

0111000
+16 0 *
Ed
 0.000000100000000 1 1 0
1  11 0 0.000000000000000 5.000000000000000
3  21 22CN 3 0 0.000000000000000 5.000000000000000
0

0101000
+34 17 -34 26 *
Wi

0101100
+14 0 -14 0 -33 17 +33 26 *
Fa
0  0.000000100000000 3 0

0111000
+13 0 *
Ed
 0.000000100000000 1 1 0
1  12 0 0.000000000000000 5.000000000000000
3  23 24CN 5 0 0.000000000000000 5.000000000000000
0

0101000
+31 17 -31 26 *
Wi

0101100
+11 0 -11 0 -30 17 +30 26 *
Fa
0  0.000000100000000 5 0

0111000
+10 0 *
Wi

0101100
+17 0 -26 0 -20 8 +20 10 *
Fa
0  0.000000100000000 7 0

0111000
+8 0 *
Wi

0101100
+33 0 *
Fa
0  0.000000100000000 4 0

0111000
+6 28 *
Wi

0101100
+30 0 *
Fa
0  0.000000100000000 6 0

0111000
+4 28 *
Sh

0101100
+28 0 +23 4 +18 23 -18 25 +15 4 -12 0 -9 0 +7 4 +5 27 +3 27 
*
So

0100000
+2 0 *

+1 1 