
CASCADE Topology V1, (c) Matra-Datavision
Locations 12
1
1.000000000000000 0.000000000000000 0.000000000000000 0.000000000000000 
0.000000000000000 1.000000000000000 0.000000000000000 0.000000000000000 
0.000000000000000 0.000000000000000 1.000000000000000 0.000000000000000 
1
1.000000000000000 0.000000000000000 0.000000000000000 0.000000000000000 
0.000000000000000 1.000000000000000 0.000000000000000 0.000000000000000 
0.000000000000000 0.000000000000000 1.000000000000000 0.000000000000000 
1
1.000000000000000 0.000000000000000 0.000000000000000 0.000000000000000 
0.000000000000000 1.000000000000000 0.000000000000000 0.000000000000000 
0.000000000000000 0.000000000000000 1.000000000000000 0.000000000000000 
1
1.000000000000000 0.000000000000000 0.000000000000000 0.000000000000000 
0.000000000000000 1.000000000000000 0.000000000000000 0.000000000000000 
0.000000000000000 0.000000000000000 1.000000000000000 0.000000000000000 
2  2 1 3 1 4 -1 0
1
1.000000000000000 0.000000000000000 0.000000000000000 -0.000000000000000 
0.000000000000000 1.000000000000000 0.000000000000000 -0.000000000000000 
0.000000000000000 0.000000000000000 1.000000000000000 -50.000000000000000 
2  2 1 3 1 4 -1 6 1 0
2  4 1 3 -1 2 -1 0
2  6 -1 4 1 3 -1 2 -1 0
2  4 -1 0
2  2 1 3 1 0
2  4 -1 6 1 0
Curve2ds 16
1 1250.09616680843919312 0.00000000000000000 0.00000000000000000 -1.00000000000000000 
1 0.00000000000000000 0.00000000000000000 0.00000000000000000 -1.00000000000000000 
1 147.97236702868212888 0.00000000000000000 0.00000000000000000 -1.00000000000000000 
1 0.00000000000000000 0.00000000000000000 0.00000000000000000 -1.00000000000000000 
1 0.00000000000000000 0.00000000000000000 1.00000000000000000 0.00000000000000000 
1 0.00000000000000000 -50.00000000000000000 1.00000000000000000 0.00000000000000000 
1 0.00000000000000000 0.00000000000000000 0.00000000000000000 -1.00000000000000000 
1 989.89398287380777219 0.00000000000000000 0.00000000000000000 -1.00000000000000000 
1 0.00000000000000000 0.00000000000000000 1.00000000000000000 0.00000000000000000 
1 0.00000000000000000 -50.00000000000000000 1.00000000000000000 0.00000000000000000 
1 573.44024537407813114 0.00000000000000000 0.00000000000000000 -1.00000000000000000 
1 0.00000000000000000 0.00000000000000000 0.00000000000000000 -1.00000000000000000 
1 0.00000000000000000 0.00000000000000000 1.00000000000000000 0.00000000000000000 
1 0.00000000000000000 -50.00000000000000000 1.00000000000000000 0.00000000000000000 
1 0.00000000000000000 0.00000000000000000 1.00000000000000000 0.00000000000000000 
1 0.00000000000000000 -50.00000000000000000 1.00000000000000000 0.00000000000000000 
Curves 8
1 2615.68999999999869033 -973.00000000000000000 0.00000000000000000 -0.00000000000000000 -0.00000000000000000 -1.00000000000000000 
1 2467.71763297131656145 -973.00000000000000000 0.00000000000000000 -0.00000000000000000 -0.00000000000000000 -1.00000000000000000 
1 2615.68999999999869033 -973.00000000000000000 0.00000000000000000 -1.00000000000000000 0.00000000000000000 0.00000000000000000 
1 2939.93590594449415221 -1843.00000000000000000 0.00000000000000000 -0.00000000000000000 -0.00000000000000000 -1.00000000000000000 
1 2467.71763297131656145 -973.00000000000000000 0.00000000000000000 0.47703923969944589 -0.87888199650861809 0.00000000000000000 
1 3513.37615131857228334 -1843.00000000000000000 0.00000000000000000 -0.00000000000000000 -0.00000000000000000 -1.00000000000000000 
1 2939.93590594449415221 -1843.00000000000000000 0.00000000000000000 1.00000000000000000 0.00000000000000000 0.00000000000000000 
1 3513.37615131857228334 -1843.00000000000000000 0.00000000000000000 -0.71809367563330206 0.69594645844019776 0.00000000000000000 
Polygon3D 0
PolygonOnTriangulations 0
Surfaces 5
1 2615.68999999999869033 -973.00000000000000000 0.00000000000000000 0.00000000000000000 1.00000000000000000 -0.00000000000000000 -1.00000000000000000 0.00000000000000000 0.00000000000000000 0.00000000000000000 0.00000000000000000 1.00000000000000000 
1 3513.37615131857228334 -1843.00000000000000000 0.00000000000000000 0.69594645844019776 0.71809367563330206 -0.00000000000000000 -0.71809367563330206 0.69594645844019776 0.00000000000000000 0.00000000000000000 0.00000000000000000 1.00000000000000000 
1 2467.71763297131656145 -973.00000000000000000 0.00000000000000000 -0.87888199650861809 -0.47703923969944589 0.00000000000000000 0.47703923969944589 -0.87888199650861809 0.00000000000000000 0.00000000000000000 0.00000000000000000 1.00000000000000000 
1 2939.93590594449415221 -1843.00000000000000000 0.00000000000000000 0.00000000000000000 -1.00000000000000000 0.00000000000000000 1.00000000000000000 0.00000000000000000 0.00000000000000000 -0.00000000000000000 0.00000000000000000 1.00000000000000000 
1 2949.23046854225367497 -1470.49691175068005577 0.00000000000000000 0.00000000000000000 0.00000000000000000 1.00000000000000000 1.00000000000000000 0.00000000000000000 -0.00000000000000000 -0.00000000000000000 1.00000000000000000 0.00000000000000000 
Triangulations 0

TShapes 24
Ve
0.000000100000000
2615.689999999998690 -973.000000000000000 0.000000000000000
0 0

0101101
*
Ed
 0.000000100000000 1 1 0
1  1 0 0.000000000000000 50.000000000000000
2  1 2 0 0.000000000000000 50.000000000000000
2  2 1 0 0.000000000000000 50.000000000000000
0

0101000
+24 5 -24 7 *
Ve
0.000000100000000
2467.717632971316561 -973.000000000000000 0.000000000000000
0 0

0101101
*
Ed
 0.000000100000000 1 1 0
1  2 0 0.000000000000000 50.000000000000000
2  3 1 0 0.000000000000000 50.000000000000000
2  4 3 0 0.000000000000000 50.000000000000000
0

0101000
+22 5 -22 7 *
Ed
 0.000000100000000 1 1 0
1  3 0 0.000000000000000 147.972367028682129
2  5 1 8 0.000000000000000 147.972367028682129
2  6 1 9 0.000000000000000 147.972367028682129
0

0101000
+24 0 -22 0 *
Wi

0101100
+23 0 -21 0 -20 5 +20 7 *
Fa
0  0.000000100000000 1 0

0111000
+19 0 *
Ve
0.000000100000000
2939.935905944494152 -1843.000000000000000 0.000000000000000
0 0

0101101
*
Ed
 0.000000100000000 1 1 0
1  4 0 0.000000000000000 50.000000000000000
2  7 4 0 0.000000000000000 50.000000000000000
2  8 3 0 0.000000000000000 50.000000000000000
0

0101000
+17 5 -17 7 *
Ed
 0.000000100000000 1 1 0
1  5 0 0.000000000000000 989.893982873807772
2  9 3 8 0.000000000000000 989.893982873807772
2  10 3 9 0.000000000000000 989.893982873807772
0

0101000
+22 0 -17 0 *
Wi

0101100
+21 0 -16 0 -15 5 +15 7 *
Fa
0  0.000000100000000 3 0

0111000
+14 0 *
Ve
0.000000100000000
3513.376151318572283 -1843.000000000000000 0.000000000000000
0 0

0101101
*
Ed
 0.000000100000000 1 1 0
1  6 0 0.000000000000000 50.000000000000000
2  11 4 0 0.000000000000000 50.000000000000000
2  12 2 0 0.000000000000000 50.000000000000000
0

0101000
+12 5 -12 7 *
Ed
 0.000000100000000 1 1 0
1  7 0 0.000000000000000 573.440245374078131
2  13 4 8 0.000000000000000 573.440245374078131
2  14 4 9 0.000000000000000 573.440245374078131
0

0101000
+17 0 -12 0 *
Wi

0101100
+16 0 -11 0 -10 5 +10 7 *
Fa
0  0.000000100000000 4 0

0111000
+9 0 *
Ed
 0.000000100000000 1 1 0
1  8 0 0.000000000000000 1250.096166808439193
2  15 2 8 0.000000000000000 1250.096166808439193
2  16 2 9 0.000000000000000 1250.096166808439193
0

0101000
+12 0 -24 0 *
Wi

0101100
+11 0 -23 0 -7 5 +7 7 *
Fa
0  0.000000100000000 2 0

0111000
+6 0 *
Wi

0101100
+20 0 +15 0 +10 0 +7 0 *
Fa
0  0.000000100000000 5 0

0111000
+4 11 *
Sh

0101100
+18 0 +13 0 +8 0 +5 0 +3 10 -3 12 *
So

1100000
+2 0 *

+1 1 