
CASCADE Topology V1, (c) Matra-Datavision
Locations 32
1
1.000000000000000 0.000000000000000 0.000000000000000 0.000000000000000 
0.000000000000000 0.000000000000000 -1.000000000000000 0.000000000000000 
0.000000000000000 1.000000000000000 0.000000000000000 0.000000000000000 
1
1.000000000000000 0.000000000000000 0.000000000000000 0.000000000000000 
0.000000000000000 -0.000000000000000 -1.000000000000000 0.000000000000000 
0.000000000000000 1.000000000000000 -0.000000000000000 0.000000000000000 
1
1.000000000000000 0.000000000000000 0.000000000000000 0.000000000000000 
0.000000000000000 -0.000000000000000 -1.000000000000000 0.000000000000000 
0.000000000000000 1.000000000000000 -0.000000000000000 0.000000000000000 
2  2 1 3 -1 0
1
1.000000000000000 0.000000000000000 0.000000000000000 0.000000000000000 
0.000000000000000 1.000000000000000 0.000000000000000 0.000000000000000 
0.000000000000000 0.000000000000000 1.000000000000000 0.000000000000000 
1
1.000000000000000 0.000000000000000 0.000000000000000 0.000000000000000 
0.000000000000000 -0.000000000000000 -1.000000000000000 0.000000000000000 
0.000000000000000 1.000000000000000 -0.000000000000000 0.000000000000000 
1
1.000000000000000 0.000000000000000 0.000000000000000 0.000000000000000 
0.000000000000000 -0.000000000000000 -1.000000000000000 0.000000000000000 
0.000000000000000 1.000000000000000 -0.000000000000000 0.000000000000000 
2  5 1 6 1 7 -1 0
1
1.000000000000000 0.000000000000000 0.000000000000000 0.000000000000000 
0.000000000000000 1.000000000000000 0.000000000000000 0.000000000000000 
0.000000000000000 0.000000000000000 1.000000000000000 15.000000000000000 
2  5 1 6 1 7 -1 9 1 0
2  6 -1 5 -1 0
2  7 1 6 -1 5 -1 0
2  9 -1 7 1 6 -1 5 -1 0
2  7 -1 2 1 3 -1 0
2  5 1 6 1 0
2  7 -1 9 1 2 1 3 -1 0
2  5 1 6 1 7 -1 9 1 2 1 3 -1 0
1
1.000000000000000 0.000000000000000 0.000000000000000 0.000000000000000 
0.000000000000000 1.000000000000000 0.000000000000000 0.000000000000000 
0.000000000000000 0.000000000000000 1.000000000000000 0.000000000000000 
1
1.000000000000000 0.000000000000000 0.000000000000000 0.000000000000000 
0.000000000000000 -0.000000000000000 -1.000000000000000 -15.000000000000000 
0.000000000000000 1.000000000000000 -0.000000000000000 -0.000000000000003 
2  18 1 19 1 2 -1 9 -1 7 1 6 -1 5 -1 0
2  18 1 19 1 3 -1 0
2  19 -1 18 -1 0
2  3 1 19 -1 18 -1 0
1
1.000000000000000 0.000000000000000 0.000000000000000 0.000000000000000 
0.000000000000000 1.000000000000000 0.000000000000000 0.000000000000000 
0.000000000000000 0.000000000000000 1.000000000000000 122.000000000000000 
2  24 -1 3 1 19 -1 18 -1 0
2  7 -1 9 1 2 1 19 -1 18 -1 0
2  3 1 2 -1 0
2  5 1 6 1 7 -1 2 1 3 -1 0
2  3 1 2 -1 9 -1 7 1 6 -1 5 -1 0
2  18 1 19 1 3 -1 24 1 0
2  3 -1 24 1 0
2  18 1 19 1 0
Curve2ds 70
1 250.00000000000000000 0.00000000000000000 0.00000000000000000 -1.00000000000000000 
1 -280.02438952777083614 436.95102724475054856 0.00000000000000000 -1.00000000000000000 
1 0.00000000000000000 0.00000000000000000 0.00000000000000000 -1.00000000000000000 
1 212.51306437876860400 0.00000000000000000 0.00000000000000000 -1.00000000000000000 
1 -30.02438952777083614 436.95102724475054856 -1.00000000000000000 0.00000000000000000 
1 0.00000000000000000 0.00000000000000000 1.00000000000000000 0.00000000000000000 
1 0.00000000000000000 -15.00000000000000000 1.00000000000000000 0.00000000000000000 
1 0.00000000000000000 -0.00000000000000000 0.00000000000000000 -1.00000000000000000 
1 -280.02438952777083614 147.21892803172977437 0.56394902148175152 -0.82580960346182397 
1 0.00000000000000000 -0.00000000000000000 1.00000000000000000 0.00000000000000000 
1 0.00000000000000000 -15.00000000000000000 1.00000000000000000 0.00000000000000000 
1 81.47561047222916386 -382.13773414861111632 0.00000000000000000 -1.00000000000000000 
1 0.00000000000000000 0.00000000000000000 1.00000000000000000 0.00000000000000000 
1 0.00000000000000000 -15.00000000000000000 1.00000000000000000 0.00000000000000000 
1 81.47561047222916386 -421.05897275524978340 1.00000000000000000 -0.00000000000000000 
1 0.00000000000000000 0.00000000000000000 1.00000000000000000 0.00000000000000000 
1 0.00000000000000000 -15.00000000000000000 1.00000000000000000 0.00000000000000000 
1 331.47561047222916386 -421.05897275524978340 0.00000000000000000 1.00000000000000000 
1 331.47561047222916386 -304.91869931435894614 -0.56394902148175152 0.82580960346182397 
1 -30.02438952777083614 224.43796286598194456 0.00000000000000000 1.00000000000000000 
1 0.00000000000000000 0.00000000000000000 1.00000000000000000 0.00000000000000000 
1 0.00000000000000000 -15.00000000000000000 1.00000000000000000 0.00000000000000000 
1 0.00000000000000000 0.00000000000000000 1.00000000000000000 0.00000000000000000 
1 0.00000000000000000 -15.00000000000000000 1.00000000000000000 0.00000000000000000 
2 -69.27438952777083614 -27.04897275524945144 0.00000000000000000 1.00000000000000000 -1.00000000000000000 0.00000000000000000 5.00000000000000000
1 0.00000000000000000 0.00000000000000000 1.00000000000000000 0.00000000000000000 
1 0.00000000000000000 -15.00000000000000000 1.00000000000000000 0.00000000000000000 
2 -69.27438952777083614 124.95102724475054856 0.00000000000000000 1.00000000000000000 -1.00000000000000000 0.00000000000000000 5.00000000000000000
1 0.00000000000000000 0.00000000000000000 1.00000000000000000 0.00000000000000000 
1 0.00000000000000000 -15.00000000000000000 1.00000000000000000 0.00000000000000000 
2 -255.02438952777083614 244.95102724475054856 0.00000000000000000 1.00000000000000000 -1.00000000000000000 0.00000000000000000 5.00000000000000000
1 0.00000000000000000 0.00000000000000000 1.00000000000000000 0.00000000000000000 
1 0.00000000000000000 -15.00000000000000000 1.00000000000000000 0.00000000000000000 
2 -255.02438952777083614 356.95102724475054856 0.00000000000000000 1.00000000000000000 -1.00000000000000000 0.00000000000000000 5.00000000000000000
1 125.00000000000000000 7.50000000000000000 -1.00000000000000000 0.00000000000000000 
1 0.00000000000000000 -0.00000000000000000 1.00000000000000000 0.00000000000000000 
1 0.00000000000000000 -122.00000000000000000 1.00000000000000000 0.00000000000000000 
1 81.47561047222916386 -406.05897275524978340 1.00000000000000000 -0.00000000000000000 
1 0.00000000000000000 0.00000000000000000 0.00000000000000000 -1.00000000000000000 
1 38.92123860663866708 0.00000000000000000 0.00000000000000000 -1.00000000000000000 
1 0.00000000000000000 0.00000000000000000 0.00000000000000000 -1.00000000000000000 
1 250.00000000000000000 0.00000000000000000 0.00000000000000000 -1.00000000000000000 
1 0.00000000000000000 0.00000000000000000 0.00000000000000000 -1.00000000000000000 
1 250.00000000000000000 0.00000000000000000 -1.00000000000000000 -0.00000000000000000 
1 116.14027344089083726 0.00000000000000000 0.00000000000000000 -1.00000000000000000 
1 0.00000000000000000 0.00000000000000000 0.00000000000000000 -1.00000000000000000 
1 6.28318530717958623 0.00000000000000000 0.00000000000000000 -1.00000000000000000 
1 0.00000000000000000 0.00000000000000000 0.00000000000000000 -1.00000000000000000 
1 6.28318530717958623 0.00000000000000000 0.00000000000000000 -1.00000000000000000 
1 0.00000000000000000 0.00000000000000000 0.00000000000000000 -1.00000000000000000 
1 6.28318530717958623 0.00000000000000000 0.00000000000000000 -1.00000000000000000 
1 0.00000000000000000 0.00000000000000000 0.00000000000000000 -1.00000000000000000 
1 6.28318530717958623 0.00000000000000000 0.00000000000000000 -1.00000000000000000 
1 15.00000000000000000 -0.00000000000000000 0.00000000000000000 -1.00000000000000000 
1 0.00000000000000000 -0.00000000000000000 0.00000000000000000 -1.00000000000000000 
1 0.00000000000000000 -0.00000000000000000 0.00000000000000000 -1.00000000000000000 
1 250.00000000000000000 0.00000000000000000 0.00000000000000000 -1.00000000000000000 
1 0.00000000000000000 0.00000000000000000 0.00000000000000000 -1.00000000000000000 
1 250.00000000000000000 0.00000000000000000 0.00000000000000000 -1.00000000000000000 
1 0.00000000000000000 0.00000000000000000 1.00000000000000000 0.00000000000000000 
1 -0.00000000000000000 -122.00000000000000000 1.00000000000000000 0.00000000000000000 
1 125.00000000000000000 -7.50000000000000000 -0.00000000000000000 1.00000000000000000 
1 0.00000000000000000 0.00000000000000000 0.00000000000000000 -1.00000000000000000 
1 15.00000000000000000 0.00000000000000000 0.00000000000000000 -1.00000000000000000 
1 0.00000000000000000 0.00000000000000000 1.00000000000000000 0.00000000000000000 
1 0.00000000000000000 -122.00000000000000000 1.00000000000000000 0.00000000000000000 
1 -125.00000000000000000 -7.50000000000000000 1.00000000000000000 0.00000000000000000 
1 -125.00000000000000000 7.50000000000000000 0.00000000000000000 -1.00000000000000000 
1 0.00000000000000000 -0.00000000000000000 1.00000000000000000 0.00000000000000000 
1 0.00000000000000000 -122.00000000000000000 1.00000000000000000 0.00000000000000000 
Curves 32
1 1858.00000000000000000 3134.00000000000000000 0.00000000000000000 0.00000000000000000 0.00000000000000000 1.00000000000000000 
1 1568.26790078697922581 3134.00000000000000000 0.00000000000000000 0.00000000000000000 0.00000000000000000 1.00000000000000000 
1 1858.00000000000000000 3134.00000000000000000 0.00000000000000000 -1.00000000000000000 0.00000000000000000 0.00000000000000000 
1 1858.00000000000000000 2884.00000000000000000 0.00000000000000000 0.00000000000000000 0.00000000000000000 1.00000000000000000 
1 1858.00000000000000000 2884.00000000000000000 0.00000000000000000 0.00000000000000000 1.00000000000000000 0.00000000000000000 
1 1038.91123860663833511 2772.50000000000000000 0.00000000000000000 0.00000000000000000 0.00000000000000000 1.00000000000000000 
1 1568.26790078697922581 3134.00000000000000000 0.00000000000000000 -0.82580960346182397 -0.56394902148175152 0.00000000000000000 
1 1038.91123860663833511 2772.50000000000000000 0.00000000000000000 -1.00000000000000000 0.00000000000000000 0.00000000000000000 
1 999.98999999999966803 2772.50000000000000000 0.00000000000000000 0.00000000000000000 -1.00000000000000000 0.00000000000000000 
1 999.98999999999966803 2522.50000000000000000 0.00000000000000000 1.00000000000000000 0.00000000000000000 0.00000000000000000 
1 1116.13027344089050530 2522.50000000000000000 0.00000000000000000 0.82580960346182397 0.56394902148175152 0.00000000000000000 
1 1645.48693562123139600 2884.00000000000000000 0.00000000000000000 1.00000000000000000 0.00000000000000000 0.00000000000000000 
2 1394.00000000000000000 2923.25000000000000000 0.00000000000000000 0.00000000000000000 0.00000000000000000 1.00000000000000000 1.00000000000000000 0.00000000000000000 -0.00000000000000000 -0.00000000000000000 1.00000000000000000 0.00000000000000000 5.00000000000000000
2 1546.00000000000000000 2923.25000000000000000 0.00000000000000000 0.00000000000000000 0.00000000000000000 1.00000000000000000 1.00000000000000000 0.00000000000000000 -0.00000000000000000 -0.00000000000000000 1.00000000000000000 0.00000000000000000 5.00000000000000000
2 1666.00000000000000000 3109.00000000000000000 0.00000000000000000 0.00000000000000000 0.00000000000000000 1.00000000000000000 1.00000000000000000 0.00000000000000000 -0.00000000000000000 -0.00000000000000000 1.00000000000000000 0.00000000000000000 5.00000000000000000
2 1778.00000000000000000 3109.00000000000000000 0.00000000000000000 0.00000000000000000 0.00000000000000000 1.00000000000000000 1.00000000000000000 0.00000000000000000 -0.00000000000000000 -0.00000000000000000 1.00000000000000000 0.00000000000000000 5.00000000000000000
1 1014.98999999999966803 2772.50000000000000000 0.00000000000000000 0.00000000000000000 -1.00000000000000000 0.00000000000000000 
1 1645.48693562123139600 2884.00000000000000000 0.00000000000000000 0.00000000000000000 0.00000000000000000 1.00000000000000000 
1 999.98999999999966803 2772.50000000000000000 0.00000000000000000 0.00000000000000000 0.00000000000000000 1.00000000000000000 
1 999.98999999999966803 2522.50000000000000000 0.00000000000000000 0.00000000000000000 0.00000000000000000 1.00000000000000000 
1 1116.13027344089050530 2522.50000000000000000 0.00000000000000000 0.00000000000000000 0.00000000000000000 1.00000000000000000 
1 1399.00000000000000000 2923.25000000000000000 0.00000000000000000 0.00000000000000000 0.00000000000000000 1.00000000000000000 
1 1551.00000000000000000 2923.25000000000000000 0.00000000000000000 0.00000000000000000 0.00000000000000000 1.00000000000000000 
1 1671.00000000000000000 3109.00000000000000000 0.00000000000000000 0.00000000000000000 0.00000000000000000 1.00000000000000000 
1 1783.00000000000000000 3109.00000000000000000 0.00000000000000000 0.00000000000000000 0.00000000000000000 1.00000000000000000 
1 1014.98999999999966803 2772.50000000000000000 15.00000000000000000 0.00000000000000000 0.00000000000000000 1.00000000000000000 
1 1014.98999999999966803 2522.50000000000000000 15.00000000000000000 0.00000000000000000 0.00000000000000000 1.00000000000000000 
1 999.98999999999966803 2772.50000000000000000 15.00000000000000000 0.00000000000000000 0.00000000000000000 1.00000000000000000 
1 999.98999999999966803 2772.50000000000000000 0.00000000000000000 1.00000000000000000 0.00000000000000000 0.00000000000000000 
1 999.98999999999966803 2522.50000000000000000 15.00000000000000000 0.00000000000000000 0.00000000000000000 1.00000000000000000 
1 999.98999999999966803 2522.50000000000000000 0.00000000000000000 0.00000000000000000 1.00000000000000000 0.00000000000000000 
1 1014.98999999999966803 2522.50000000000000000 0.00000000000000000 -1.00000000000000000 0.00000000000000000 0.00000000000000000 
Polygon3D 0
PolygonOnTriangulations 0
Surfaces 18
1 1858.00000000000000000 3134.00000000000000000 0.00000000000000000 0.00000000000000000 -1.00000000000000000 0.00000000000000000 -1.00000000000000000 0.00000000000000000 0.00000000000000000 -0.00000000000000000 -0.00000000000000000 -1.00000000000000000 
1 1858.00000000000000000 2884.00000000000000000 0.00000000000000000 -1.00000000000000000 0.00000000000000000 0.00000000000000000 0.00000000000000000 1.00000000000000000 0.00000000000000000 0.00000000000000000 0.00000000000000000 -1.00000000000000000 
1 1421.04897275524945144 -0.00000000000063371 2853.97561047222916386 0.00000000000000000 -1.00000000000000000 -0.00000000000000022 0.00000000000000000 0.00000000000000022 -1.00000000000000000 1.00000000000000000 0.00000000000000000 0.00000000000000000 
1 1645.48693562123139600 2884.00000000000000000 0.00000000000000000 0.00000000000000000 1.00000000000000000 0.00000000000000000 1.00000000000000000 0.00000000000000000 0.00000000000000000 0.00000000000000000 0.00000000000000000 -1.00000000000000000 
1 1568.26790078697922581 3134.00000000000000000 0.00000000000000000 0.56394902148175152 -0.82580960346182397 0.00000000000000000 -0.82580960346182397 -0.56394902148175152 0.00000000000000000 0.00000000000000000 -0.00000000000000000 -1.00000000000000000 
1 1038.91123860663833511 2772.50000000000000000 0.00000000000000000 0.00000000000000000 -1.00000000000000000 0.00000000000000000 -1.00000000000000000 0.00000000000000000 0.00000000000000000 -0.00000000000000000 -0.00000000000000000 -1.00000000000000000 
1 999.98999999999966803 2772.50000000000000000 0.00000000000000000 1.00000000000000000 0.00000000000000000 -0.00000000000000000 0.00000000000000000 -1.00000000000000000 0.00000000000000000 0.00000000000000000 -0.00000000000000000 -1.00000000000000000 
1 999.98999999999966803 2522.50000000000000000 0.00000000000000000 0.00000000000000000 1.00000000000000000 0.00000000000000000 1.00000000000000000 0.00000000000000000 0.00000000000000000 0.00000000000000000 0.00000000000000000 -1.00000000000000000 
2 1394.00000000000000000 2923.25000000000000000 0.00000000000000000 -0.00000000000000000 -0.00000000000000000 -1.00000000000000000 1.00000000000000000 0.00000000000000000 0.00000000000000000 -0.00000000000000000 1.00000000000000000 -0.00000000000000000 5.00000000000000000
2 1546.00000000000000000 2923.25000000000000000 0.00000000000000000 -0.00000000000000000 -0.00000000000000000 -1.00000000000000000 1.00000000000000000 0.00000000000000000 0.00000000000000000 -0.00000000000000000 1.00000000000000000 -0.00000000000000000 5.00000000000000000
2 1666.00000000000000000 3109.00000000000000000 0.00000000000000000 -0.00000000000000000 -0.00000000000000000 -1.00000000000000000 1.00000000000000000 0.00000000000000000 0.00000000000000000 -0.00000000000000000 1.00000000000000000 -0.00000000000000000 5.00000000000000000
2 1778.00000000000000000 3109.00000000000000000 0.00000000000000000 -0.00000000000000000 -0.00000000000000000 -1.00000000000000000 1.00000000000000000 0.00000000000000000 0.00000000000000000 -0.00000000000000000 1.00000000000000000 -0.00000000000000000 5.00000000000000000
1 1007.48999999999966803 -15.00000000000058797 2647.50000000000000000 0.00000000000000000 1.00000000000000000 0.00000000000000023 0.00000000000000000 -0.00000000000000023 1.00000000000000000 1.00000000000000000 0.00000000000000000 -0.00000000000000000 
1 1014.98999999999966803 2772.50000000000000000 15.00000000000000000 1.00000000000000000 0.00000000000000000 -0.00000000000000000 0.00000000000000000 -1.00000000000000000 0.00000000000000000 0.00000000000000000 -0.00000000000000000 -1.00000000000000000 
1 999.98999999999966803 2522.50000000000000000 15.00000000000000000 -1.00000000000000000 0.00000000000000000 0.00000000000000000 0.00000000000000000 1.00000000000000000 0.00000000000000000 0.00000000000000000 0.00000000000000000 -1.00000000000000000 
1 1116.13027344089050530 2522.50000000000000000 0.00000000000000000 -0.56394902148175152 0.82580960346182397 0.00000000000000000 0.82580960346182397 0.56394902148175152 0.00000000000000000 0.00000000000000000 0.00000000000000000 -1.00000000000000000 
1 999.98999999999966803 2772.50000000000000000 15.00000000000000000 -0.00000000000000000 1.00000000000000000 0.00000000000000000 1.00000000000000000 0.00000000000000000 -0.00000000000000000 -0.00000000000000000 0.00000000000000000 -1.00000000000000000 
1 1014.98999999999966803 2522.50000000000000000 15.00000000000000000 0.00000000000000000 -1.00000000000000000 0.00000000000000000 -1.00000000000000000 0.00000000000000000 0.00000000000000000 -0.00000000000000000 -0.00000000000000000 -1.00000000000000000 
Triangulations 0

TShapes 103
Ve
0.000000100000000
1858.000000000000000 3134.000000000000000 0.000000000000000
0 0

0101101
*
Ed
 0.000000100000000 1 1 0
1  1 0 0.000000000000000 15.000000000000000
2  1 2 0 0.000000000000000 15.000000000000000
0

0101000
+103 8 -103 10 *
Ve
0.000000100000000
1568.267900786979226 3134.000000000000000 0.000000000000000
0 0

0101101
*
Ed
 0.000000100000000 1 1 0
1  2 0 0.000000000000000 15.000000000000000
0

0101000
+101 8 -101 10 *
Ed
 0.000000100000000 1 1 0
1  3 0 0.000000000000000 289.732099213020774
2  2 3 11 0.000000000000000 289.732099213020774
0

0101000
+103 0 -101 0 *
Wi

0101100
+102 0 -100 0 -99 8 +99 10 *
Fa
0  0.000000100000000 1 0

0111000
+98 0 *
Ve
0.000000100000000
1858.000000000000000 2884.000000000000000 0.000000000000000
0 0

0101101
*
Ed
 0.000000100000000 1 1 0
1  4 0 0.000000000000000 15.000000000000000
2  3 2 0 0.000000000000000 15.000000000000000
2  4 4 0 0.000000000000000 15.000000000000000
0

0101000
+96 8 -96 10 *
Ed
 0.000000100000000 1 1 0
1  5 0 0.000000000000000 250.000000000000000
2  5 3 11 0.000000000000000 250.000000000000000
2  6 2 12 0.000000000000000 250.000000000000000
2  7 2 13 0.000000000000000 250.000000000000000
0

0101000
+96 0 -103 0 *
Wi

0101100
+95 0 -102 0 -94 8 +94 10 *
Fa
0  0.000000100000000 2 0

0111000
+93 0 *
Ve
0.000000100000000
1038.911238606638335 2772.500000000000000 0.000000000000000
0 0

0101101
*
Ed
 0.000000100000000 1 1 0
1  6 0 0.000000000000000 15.000000000000000
2  8 6 0 0.000000000000000 15.000000000000000
0

0101000
+91 8 -91 10 *
Ed
 0.000000100000000 1 1 0
1  7 0 0.000000000000000 641.015386550675203
2  9 3 11 0.000000000000000 641.015386550675203
0

0101000
+101 0 -91 0 *
Wi

0101100
+100 0 -90 0 -89 8 +89 10 *
Fa
0  0.000000100000000 5 0

0111000
+88 0 *
Ve
0.000000100000000
999.989999999999668 2772.500000000000000 0.000000000000000
0 0

0101101
*
Ed
 0.000000100000000 1 1 0
1  8 0 0.000000000000000 38.921238606638667
2  10 6 12 0.000000000000000 38.921238606638667
2  11 6 13 0.000000000000000 38.921238606638667
2  12 3 11 0.000000000000000 38.921238606638667
0

0101000
+91 0 -86 0 *
Ve
0.000000100000000
999.989999999999668 2522.500000000000000 0.000000000000000
0 0

0101101
*
Ed
 0.000000100000000 1 1 0
1  9 0 0.000000000000000 250.000000000000000
2  13 7 12 0.000000000000000 250.000000000000000
2  14 7 13 0.000000000000000 250.000000000000000
2  15 3 11 0.000000000000000 250.000000000000000
0

0101000
+86 0 -84 0 *
Ve
0.000000100000000
1116.130273440890505 2522.500000000000000 0.000000000000000
0 0

0101101
*
Ed
 0.000000100000000 1 1 0
1  10 0 0.000000000000000 116.140273440890837
2  16 8 12 0.000000000000000 116.140273440890837
2  17 8 13 0.000000000000000 116.140273440890837
2  18 3 11 0.000000000000000 116.140273440890837
0

0101000
+84 0 -82 0 *
Ve
0.000000100000000
1645.486935621231396 2884.000000000000000 0.000000000000000
0 0

0101101
*
Ed
 0.000000100000000 1 1 0
1  11 0 0.000000000000000 641.015386550675203
2  19 3 11 0.000000000000000 641.015386550675203
0

0101000
+82 0 -80 0 *
Ed
 0.000000100000000 1 1 0
1  12 0 0.000000000000000 212.513064378768604
2  20 3 11 0.000000000000000 212.513064378768604
2  21 4 12 0.000000000000000 212.513064378768604
2  22 4 13 0.000000000000000 212.513064378768604
0

0101000
+80 0 -96 0 *
Wi

0101100
+99 15 +89 15 +85 15 +83 15 +81 15 +79 15 +78 15 +94 15 *
Ve
0.000000100000000
1399.000000000000000 2923.250000000000000 0.000000000000000
0 0

0101101
*
Ed
 0.000000100000000 1 1 0
1  13 0 0.000000000000000 6.283185307179586
2  23 9 12 0.000000000000000 6.283185307179586
2  24 9 13 0.000000000000000 6.283185307179586
2  25 3 11 0.000000000000000 6.283185307179586
0

0101000
+76 0 -76 0 *
Wi

0101100
-75 15 *
Ve
0.000000100000000
1551.000000000000000 2923.250000000000000 0.000000000000000
0 0

0101101
*
Ed
 0.000000100000000 1 1 0
1  14 0 0.000000000000000 6.283185307179586
2  26 10 12 0.000000000000000 6.283185307179586
2  27 10 13 0.000000000000000 6.283185307179586
2  28 3 11 0.000000000000000 6.283185307179586
0

0101000
+73 0 -73 0 *
Wi

0101100
-72 15 *
Ve
0.000000100000000
1671.000000000000000 3109.000000000000000 0.000000000000000
0 0

0101101
*
Ed
 0.000000100000000 1 1 0
1  15 0 0.000000000000000 6.283185307179586
2  29 11 12 0.000000000000000 6.283185307179586
2  30 11 13 0.000000000000000 6.283185307179586
2  31 3 11 0.000000000000000 6.283185307179586
0

0101000
+70 0 -70 0 *
Wi

0101100
-69 15 *
Ve
0.000000100000000
1783.000000000000000 3109.000000000000000 0.000000000000000
0 0

0101101
*
Ed
 0.000000100000000 1 1 0
1  16 0 0.000000000000000 6.283185307179586
2  32 12 12 0.000000000000000 6.283185307179586
2  33 12 13 0.000000000000000 6.283185307179586
2  34 3 11 0.000000000000000 6.283185307179586
0

0101000
+67 0 -67 0 *
Wi

0101100
-66 15 *
Fa
0  0.000000100000000 3 0

0111000
+77 0 +74 0 +71 0 +68 0 +65 0 *
Ve
0.000000100000000
1014.989999999999668 2522.500000000000000 0.000000000000000
0 0

0101101
*
Ed
 0.000000100000000 1 1 0
1  10 0 15.000000000000000 116.140273440890837
2  16 8 12 15.000000000000000 116.140273440890837
2  17 8 13 15.000000000000000 116.140273440890837
2  18 3 11 15.000000000000000 116.140273440890837
0

0101000
+63 20 -82 0 *
Ve
0.000000100000000
1014.989999999999668 2772.500000000000000 0.000000000000000
0 0

0101101
*
Ed
 0.000000100000000 1 1 0
1  17 0 0.000000000000000 250.000000000000000
2  35 13 22 0.000000000000000 250.000000000000000
2  36 14 23 0.000000000000000 250.000000000000000
2  37 14 25 0.000000000000000 250.000000000000000
2  38 3 26 0.000000000000000 250.000000000000000
0

0101000
+61 0 -63 0 *
Ed
 0.000000100000000 1 1 0
1  8 0 0.000000000000000 23.921238606638667
2  10 6 12 0.000000000000000 23.921238606638667
2  11 6 13 0.000000000000000 23.921238606638667
2  12 3 11 0.000000000000000 23.921238606638667
0

0101000
+91 0 -61 20 *
Wi

0101100
+94 17 +78 17 +79 17 +62 17 +60 21 +59 17 +89 17 +99 17 *
Wi

0101100
-75 17 *
Wi

0101100
-72 17 *
Wi

0101100
-69 17 *
Wi

0101100
-66 17 *
Fa
0  0.000000100000000 3 16

0111000
+58 0 +57 0 +56 0 +55 0 +54 0 *
Ed
 0.000000100000000 1 1 0
1  18 0 0.000000000000000 15.000000000000000
2  39 4 0 0.000000000000000 15.000000000000000
0

0101000
+80 8 -80 10 *
Wi

0101100
+52 0 -95 0 -78 8 +78 10 *
Fa
0  0.000000100000000 4 0

0111000
+51 0 *
Ve
0.000000100000000
999.989999999999668 2772.500000000000000 15.000000000000000
0 0

0101101
*
Ed
 0.000000100000000 1 1 0
1  19 0 0.000000000000000 15.000000000000000
2  40 6 0 0.000000000000000 15.000000000000000
2  41 7 0 0.000000000000000 15.000000000000000
0

0101000
+86 8 -49 27 *
Ed
 0.000000100000000 1 1 0
1  8 0 23.921238606638667 38.921238606638667
2  10 6 12 23.921238606638667 38.921238606638667
2  11 6 13 23.921238606638667 38.921238606638667
2  12 3 11 23.921238606638667 38.921238606638667
0

0101000
+61 20 -49 29 *
Wi

0101100
+90 4 -48 4 -85 28 +59 17 +47 17 *
Fa
0  0.000000100000000 6 4

0111000
+46 0 *
Ve
0.000000100000000
999.989999999999668 2522.500000000000000 15.000000000000000
0 0

0101101
*
Ed
 0.000000100000000 1 1 0
1  20 0 0.000000000000000 15.000000000000000
2  42 7 0 0.000000000000000 15.000000000000000
2  43 8 0 0.000000000000000 15.000000000000000
0

0101000
+84 8 -44 27 *
Ed
 0.000000100000000 1 1 0
1  9 0 0.000000000000000 250.000000000000000
2  13 7 12 0.000000000000000 250.000000000000000
2  14 7 13 0.000000000000000 250.000000000000000
2  15 3 11 0.000000000000000 250.000000000000000
2  44 15 29 0.000000000000000 250.000000000000000
0

0101000
+49 29 -44 29 *
Wi

0101100
+48 4 -43 4 -83 28 +42 17 *
Fa
0  0.000000100000000 7 4

0111000
+41 0 *
Ed
 0.000000100000000 1 1 0
1  21 0 0.000000000000000 15.000000000000000
2  45 8 0 0.000000000000000 15.000000000000000
0

0101000
+82 8 -82 10 *
Ed
 0.000000100000000 1 1 0
1  10 0 0.000000000000000 15.000000000000000
2  16 8 12 0.000000000000000 15.000000000000000
2  17 8 13 0.000000000000000 15.000000000000000
2  18 3 11 0.000000000000000 15.000000000000000
0

0101000
+44 29 -63 20 *
Wi

0101100
+43 4 -39 4 -81 28 +38 17 +62 17 *
Fa
0  0.000000100000000 8 4

0111000
+37 0 *
Wi

0101100
+39 0 -52 0 -79 8 +79 10 *
Fa
0  0.000000100000000 16 0

0111000
+35 0 *
Ed
 0.000000100000000 1 1 0
1  22 0 0.000000000000000 15.000000000000000
3  46 47CN 9 0 0.000000000000000 15.000000000000000
0

0101000
+76 8 -76 10 *
Wi

0101100
+33 0 -33 0 -75 8 +75 10 *
Fa
0  0.000000100000000 9 0

0111000
+32 0 *
Ed
 0.000000100000000 1 1 0
1  23 0 0.000000000000000 15.000000000000000
3  48 49CN 10 0 0.000000000000000 15.000000000000000
0

0101000
+73 8 -73 10 *
Wi

0101100
+30 0 -30 0 -72 8 +72 10 *
Fa
0  0.000000100000000 10 0

0111000
+29 0 *
Ed
 0.000000100000000 1 1 0
1  24 0 0.000000000000000 15.000000000000000
3  50 51CN 11 0 0.000000000000000 15.000000000000000
0

0101000
+70 8 -70 10 *
Wi

0101100
+27 0 -27 0 -69 8 +69 10 *
Fa
0  0.000000100000000 11 0

0111000
+26 0 *
Ed
 0.000000100000000 1 1 0
1  25 0 0.000000000000000 15.000000000000000
3  52 53CN 12 0 0.000000000000000 15.000000000000000
0

0101000
+67 8 -67 10 *
Wi

0101100
+24 0 -24 0 -66 8 +66 10 *
Fa
0  0.000000100000000 12 0

0111000
+23 0 *
Ed
 0.000000100000000 1 1 0
1  26 0 0.000000000000000 122.000000000000000
2  54 17 0 0.000000000000000 122.000000000000000
2  55 14 0 0.000000000000000 122.000000000000000
0

0101000
+61 21 -61 30 *
Ed
 0.000000100000000 1 1 0
1  27 0 0.000000000000000 122.000000000000000
2  56 18 0 0.000000000000000 122.000000000000000
2  57 14 0 0.000000000000000 122.000000000000000
0

0101000
+63 21 -63 30 *
Wi

0101100
+21 0 -20 0 -60 21 +60 30 *
Fa
0  0.000000100000000 14 0

0111000
+19 0 *
Ve
0.000000100000000
999.989999999999668 2772.500000000000000 0.000000000000000
0 0

0101101
*
Ed
 0.000000100000000 1 1 0
1  28 0 0.000000000000000 122.000000000000000
2  58 17 0 0.000000000000000 122.000000000000000
2  59 15 0 0.000000000000000 122.000000000000000
0

0101000
+49 0 -17 30 *
Ed
 0.000000100000000 1 1 0
1  29 0 0.000000000000000 15.000000000000000
2  60 17 23 0.000000000000000 15.000000000000000
2  61 17 25 0.000000000000000 15.000000000000000
2  62 13 22 0.000000000000000 15.000000000000000
0

0101000
+17 0 -61 0 *
Wi

0101100
+16 0 -21 0 +47 17 +15 30 *
Fa
0  0.000000100000000 17 0

0111000
+14 0 *
Ve
0.000000100000000
999.989999999999668 2522.500000000000000 0.000000000000000
0 0

0101101
*
Ed
 0.000000100000000 1 1 0
1  30 0 0.000000000000000 122.000000000000000
2  63 15 0 0.000000000000000 122.000000000000000
2  64 18 0 0.000000000000000 122.000000000000000
0

0101000
+44 0 -12 30 *
Ed
 0.000000100000000 1 1 0
1  31 0 0.000000000000000 250.000000000000000
2  65 15 23 0.000000000000000 250.000000000000000
2  66 15 25 0.000000000000000 250.000000000000000
2  67 13 22 0.000000000000000 250.000000000000000
0

0101000
+12 0 -17 0 *
Wi

0101100
+11 0 -16 0 +42 17 +10 30 *
Fa
0  0.000000100000000 15 0

0111000
+9 0 *
Ed
 0.000000100000000 1 1 0
1  32 0 0.000000000000000 15.000000000000000
2  68 13 22 0.000000000000000 15.000000000000000
2  69 18 23 0.000000000000000 15.000000000000000
2  70 18 25 0.000000000000000 15.000000000000000
0

0101000
+63 0 -12 0 *
Wi

0101100
+20 0 -11 0 +38 17 +7 30 *
Fa
0  0.000000100000000 18 0

0111000
+6 0 *
Wi

0101100
+15 0 +60 0 +7 0 +10 0 *
Fa
0  0.000000100000000 13 0

0111000
+4 32 *
Sh

0101100
-97 4 -92 4 -87 4 -64 14 +53 0 -50 4 -45 0 -40 0 -36 0 -34 4 
+31 4 +28 4 +25 4 +22 4 +18 0 +13 0 +8 0 +5 0 -3 31 *
So

0100000
+2 0 *

+1 1 