
CASCADE Topology V1, (c) Matra-Datavision
Locations 50
1
0.000000000000000 0.000000000000000 1.000000000000000 0.000000000000000 
1.000000000000000 0.000000000000000 0.000000000000000 0.000000000000000 
0.000000000000000 1.000000000000000 0.000000000000000 0.000000000000000 
1
0.000000000000000 -0.000000000000000 1.000000000000000 0.000000000000000 
1.000000000000000 0.000000000000000 0.000000000000000 0.000000000000000 
-0.000000000000000 1.000000000000000 0.000000000000000 0.000000000000000 
1
-0.000000000000000 0.000000000000000 1.000000000000000 0.000000000000000 
1.000000000000000 -0.000000000000000 0.000000000000000 0.000000000000000 
0.000000000000000 1.000000000000000 -0.000000000000000 0.000000000000000 
1
0.000000000000000 0.000000000000000 1.000000000000000 0.000000000000000 
1.000000000000000 0.000000000000000 0.000000000000000 0.000000000000000 
0.000000000000000 1.000000000000000 0.000000000000000 0.000000000000000 
1
0.000000000000000 0.000000000000000 1.000000000000000 0.000000000000000 
1.000000000000000 0.000000000000000 0.000000000000000 0.000000000000000 
0.000000000000000 1.000000000000000 0.000000000000000 0.000000000000000 
2  2 1 3 -1 4 1 5 -1 0
1
1.000000000000000 0.000000000000000 0.000000000000000 0.000000000000000 
0.000000000000000 1.000000000000000 0.000000000000000 0.000000000000000 
0.000000000000000 0.000000000000000 1.000000000000000 0.000000000000000 
1
0.000000000000000 -0.000000000000000 1.000000000000000 0.000000000000000 
1.000000000000000 0.000000000000000 -0.000000000000000 0.000000000000000 
-0.000000000000000 1.000000000000000 0.000000000000000 0.000000000000000 
1
-0.000000000000000 0.000000000000000 1.000000000000000 0.000000000000000 
1.000000000000000 -0.000000000000000 0.000000000000000 0.000000000000000 
0.000000000000000 1.000000000000000 -0.000000000000000 0.000000000000000 
2  7 1 8 1 9 -1 0
1
1.000000000000000 0.000000000000000 0.000000000000000 0.000000000000007 
0.000000000000000 1.000000000000000 0.000000000000000 -0.000000000000004 
0.000000000000000 0.000000000000000 1.000000000000000 -15.000000000000000 
2  7 1 8 1 9 -1 11 1 0
2  8 -1 7 -1 0
2  9 -1 2 1 3 -1 4 1 5 -1 0
2  7 1 8 1 9 -1 2 1 3 -1 4 1 5 -1 0
1
1.000000000000000 0.000000000000000 0.000000000000000 0.000000000000000 
0.000000000000000 1.000000000000000 0.000000000000000 0.000000000000000 
0.000000000000000 0.000000000000000 1.000000000000000 0.000000000000000 
1
0.000000000000000 -0.000000000000000 1.000000000000000 -0.000000000000893 
1.000000000000000 0.000000000000000 -0.000000000000000 0.000000000000000 
0.000000000000000 1.000000000000000 0.000000000000000 -0.000000000000000 
2  16 1 17 1 3 -1 4 1 5 -1 0
2  3 1 17 -1 16 -1 0
1
1.000000000000000 0.000000000000000 0.000000000000000 0.000000000002827 
0.000000000000000 1.000000000000000 0.000000000000000 -0.000000000001885 
0.000000000000000 0.000000000000000 1.000000000000000 -4243.981541948556696 
2  20 -1 3 1 17 -1 16 -1 0
2  17 -1 16 -1 0
2  9 -1 2 1 17 -1 16 -1 0
1
1.000000000000000 0.000000000000000 0.000000000000000 0.000000000000000 
0.000000000000000 1.000000000000000 0.000000000000000 0.000000000000000 
0.000000000000000 0.000000000000000 1.000000000000000 0.000000000000000 
1
0.000000000000000 -0.000000000000000 1.000000000000000 -0.000000000000012 
1.000000000000000 0.000000000000000 -0.000000000000000 0.000000000000000 
0.000000000000000 1.000000000000000 0.000000000000000 -0.000000000000000 
2  24 1 25 1 5 -1 0
1
0.000000000000000 0.000000000000000 1.000000000000000 0.000000000000000 
1.000000000000000 0.000000000000000 0.000000000000000 0.000000000000000 
0.000000000000000 1.000000000000000 0.000000000000000 0.000000000000000 
1
0.000000000000000 -0.000000000000000 1.000000000000000 -0.000000000000012 
1.000000000000000 0.000000000000000 -0.000000000000000 0.000000000000000 
0.000000000000000 1.000000000000000 0.000000000000000 -0.000000000000000 
1
1.000000000000000 0.000000000000000 0.000000000000000 0.000000000000000 
0.000000000000000 1.000000000000000 0.000000000000000 0.000000000000000 
0.000000000000000 0.000000000000000 1.000000000000000 0.000000000000000 
2  27 1 28 -1 29 -1 0
1
1.000000000000000 0.000000000000000 0.000000000000000 0.000000000000001 
0.000000000000000 1.000000000000000 0.000000000000000 -0.000000000000001 
0.000000000000000 0.000000000000000 1.000000000000000 -5.000000000000000 
2  31 -1 27 1 28 -1 29 -1 0
2  28 -1 29 -1 0
2  9 -1 2 1 3 -1 4 1 28 -1 29 -1 0
1
0.000000000000000 0.000000000000000 1.000000000000000 0.000000000000000 
1.000000000000000 0.000000000000000 0.000000000000000 0.000000000000000 
0.000000000000000 1.000000000000000 0.000000000000000 0.000000000000000 
1
0.000000000000000 -0.000000000000000 1.000000000000000 -0.000000000000012 
1.000000000000000 0.000000000000000 -0.000000000000000 0.000000000000000 
0.000000000000000 1.000000000000000 0.000000000000000 -0.000000000000000 
1
1.000000000000000 0.000000000000000 0.000000000000000 0.000000000000000 
0.000000000000000 1.000000000000000 0.000000000000000 0.000000000000000 
0.000000000000000 0.000000000000000 1.000000000000000 0.000000000000000 
2  35 1 36 -1 37 -1 0
1
1.000000000000000 0.000000000000000 0.000000000000000 0.000000000000942 
0.000000000000000 1.000000000000000 0.000000000000000 -0.000000000001178 
0.000000000000000 0.000000000000000 1.000000000000000 -4243.981541948551239 
2  39 -1 35 1 36 -1 37 -1 0
2  9 -1 2 1 3 -1 4 1 36 -1 37 -1 0
2  5 1 25 -1 24 -1 0
1
1.000000000000000 0.000000000000000 0.000000000000000 0.000000000000942 
0.000000000000000 1.000000000000000 0.000000000000000 -0.000000000001178 
0.000000000000000 0.000000000000000 1.000000000000000 -4243.981541948551239 
2  43 -1 5 1 25 -1 24 -1 0
2  9 -1 2 1 3 -1 4 1 25 -1 24 -1 0
2  9 -1 11 1 2 1 3 -1 4 1 5 -1 0
2  7 1 8 1 9 -1 11 1 2 1 3 -1 4 1 5 -1 0
2  4 1 5 -1 0
2  9 -1 11 1 2 1 3 -1 0
2  16 1 17 1 3 -1 0
Curve2ds 92
1 -125.00000000000000000 1043.00000000000000000 0.00000000000000022 -1.00000000000000000 
1 125.00000000000000000 1043.00000000000000000 -1.00000000000000000 -0.00000000000000022 
1 -125.00000000000000000 -1043.00000000000000000 1.00000000000000000 0.00000000000000022 
1 125.00000000000000000 -1043.00000000000000000 -0.00000000000000022 1.00000000000000000 
1 0.00000000000000000 0.00000000000000000 1.00000000000000000 0.00000000000000000 
1 0.00000000000000000 -4243.98154194855669630 1.00000000000000000 0.00000000000000000 
2 0.00000000000000000 -0.00000000000000000 -0.00000000000000000 -1.00000000000000000 1.00000000000000000 -0.00000000000000000 5.00000000000000000
2 -5.00000000000181899 -987.99999999999727152 -0.00000000000000011 -1.00000000000000000 -1.00000000000000000 0.00000000000000011 5.00000000000000000
1 0.00000000000000000 0.00000000000000000 1.00000000000000000 0.00000000000000000 
1 0.00000000000000000 -4243.98154194855669630 1.00000000000000000 0.00000000000000000 
2 0.00000000000000000 -0.00000000000000000 -0.00000000000000000 -1.00000000000000000 1.00000000000000000 -0.00000000000000000 5.00000000000000000
2 54.99999999999818101 -987.99999999999738520 -0.00000000000000011 -1.00000000000000000 -1.00000000000000000 0.00000000000000011 5.00000000000000000
1 0.00000000000000000 0.00000000000000000 1.00000000000000000 0.00000000000000000 
1 0.00000000000000000 -5.00000000000000000 1.00000000000000000 0.00000000000000000 
2 0.00000000000000000 -0.00000000000000355 -0.00000000000000000 -1.00000000000000000 1.00000000000000000 -0.00000000000000000 5.00000000000000000
2 65.00000000000000000 -792.99999999999909051 0.00000000000000000 -1.00000000000000000 -1.00000000000000000 -0.00000000000000000 5.00000000000000000
1 0.00000000000000000 0.00000000000000000 1.00000000000000000 0.00000000000000000 
1 0.00000000000000000 -4243.98154194855123933 1.00000000000000000 0.00000000000000000 
2 65.00000000000000000 -792.99999999999909051 0.00000000000000000 -1.00000000000000000 -1.00000000000000000 -0.00000000000000000 5.00000000000000000
1 0.00000000000000000 0.00000000000000000 1.00000000000000000 0.00000000000000000 
1 0.00000000000000000 -4243.98154194855123933 1.00000000000000000 0.00000000000000000 
2 65.00000000000000000 -792.99999999999909051 0.00000000000000000 -1.00000000000000000 -1.00000000000000000 -0.00000000000000000 5.00000000000000000
1 0.00000000000000000 0.00000000000000000 1.00000000000000000 0.00000000000000000 
1 0.00000000000000000 -5.00000000000000000 1.00000000000000000 0.00000000000000000 
2 0.00000000000000000 -0.00000000000000000 -0.00000000000000000 -1.00000000000000000 1.00000000000000000 -0.00000000000000000 5.00000000000000000
2 65.00000000000000000 -642.99999999999909051 0.00000000000000000 -1.00000000000000000 -1.00000000000000000 -0.00000000000000000 5.00000000000000000
1 0.00000000000000000 0.00000000000000000 1.00000000000000000 0.00000000000000000 
1 0.00000000000000000 -4243.98154194855123933 1.00000000000000000 0.00000000000000000 
2 65.00000000000000000 -642.99999999999909051 0.00000000000000000 -1.00000000000000000 -1.00000000000000000 -0.00000000000000000 5.00000000000000000
1 0.00000000000000000 0.00000000000000000 1.00000000000000000 0.00000000000000000 
1 0.00000000000000000 -4243.98154194855123933 1.00000000000000000 0.00000000000000000 
2 65.00000000000000000 -642.99999999999909051 0.00000000000000000 -1.00000000000000000 -1.00000000000000000 -0.00000000000000000 5.00000000000000000
1 0.00000000000000000 0.00000000000000000 1.00000000000000000 0.00000000000000000 
1 0.00000000000000000 -4243.98154194855669630 1.00000000000000000 0.00000000000000000 
2 0.00000000000000000 -0.00000000000000000 -0.00000000000000000 -1.00000000000000000 1.00000000000000000 -0.00000000000000000 5.00000000000000000
2 -5.00000000000181899 988.00000000000318323 -0.00000000000000011 -1.00000000000000000 -1.00000000000000000 0.00000000000000011 5.00000000000000000
1 0.00000000000000000 0.00000000000000000 1.00000000000000000 0.00000000000000000 
1 0.00000000000000000 -5.00000000000000000 1.00000000000000000 0.00000000000000000 
2 0.00000000000000000 -0.00000000000000000 -0.00000000000000000 -1.00000000000000000 1.00000000000000000 -0.00000000000000000 5.00000000000000000
2 65.00000000000000000 643.00000000000113687 0.00000000000000000 -1.00000000000000000 -1.00000000000000000 -0.00000000000000000 5.00000000000000000
1 0.00000000000000000 0.00000000000000000 1.00000000000000000 0.00000000000000000 
1 0.00000000000000000 -4243.98154194855123933 1.00000000000000000 0.00000000000000000 
2 65.00000000000000000 643.00000000000113687 0.00000000000000000 -1.00000000000000000 -1.00000000000000000 -0.00000000000000000 5.00000000000000000
1 0.00000000000000000 0.00000000000000000 1.00000000000000000 0.00000000000000000 
1 0.00000000000000000 -4243.98154194855123933 1.00000000000000000 0.00000000000000000 
2 65.00000000000000000 643.00000000000113687 0.00000000000000000 -1.00000000000000000 -1.00000000000000000 -0.00000000000000000 5.00000000000000000
1 0.00000000000000000 0.00000000000000000 1.00000000000000000 0.00000000000000000 
1 0.00000000000000000 -4243.98154194855669630 1.00000000000000000 0.00000000000000000 
2 0.00000000000000000 -0.00000000000000000 -0.00000000000000000 -1.00000000000000000 1.00000000000000000 -0.00000000000000000 5.00000000000000000
2 54.99999999999818101 988.00000000000318323 -0.00000000000000011 -1.00000000000000000 -1.00000000000000000 0.00000000000000011 5.00000000000000000
1 0.00000000000000000 0.00000000000000000 1.00000000000000000 0.00000000000000000 
1 0.00000000000000000 -5.00000000000000000 1.00000000000000000 0.00000000000000000 
2 0.00000000000022737 0.00000000000000000 1.00000000000000000 0.00000000000000000 -0.00000000000000000 1.00000000000000000 5.00000000000000000
2 65.00000000000000000 793.00000000000113687 0.00000000000000000 -1.00000000000000000 -1.00000000000000000 -0.00000000000000000 5.00000000000000000
1 0.00000000000000000 0.00000000000000000 1.00000000000000000 0.00000000000000000 
1 0.00000000000000000 -4243.98154194855123933 1.00000000000000000 0.00000000000000000 
2 65.00000000000000000 793.00000000000113687 0.00000000000000000 -1.00000000000000000 -1.00000000000000000 -0.00000000000000000 5.00000000000000000
1 0.00000000000000000 0.00000000000000000 1.00000000000000000 0.00000000000000000 
1 0.00000000000000000 -4243.98154194855123933 1.00000000000000000 0.00000000000000000 
2 65.00000000000000000 793.00000000000113687 0.00000000000000000 -1.00000000000000000 -1.00000000000000000 -0.00000000000000000 5.00000000000000000
2 -5.00000000000011013 -987.99999999999874944 0.00000000000000011 -1.00000000000000000 -1.00000000000000000 -0.00000000000000011 5.00000000000000000
1 0.00000000000000000 -14.99999999999924505 1.00000000000000000 0.00000000000000000 
2 54.99999999999989342 -987.99999999999874944 0.00000000000000011 -1.00000000000000000 -1.00000000000000000 -0.00000000000000011 5.00000000000000000
1 0.00000000000000000 -14.99999999999926459 1.00000000000000000 0.00000000000000000 
2 64.99999999999995737 -792.99999999999909051 -0.00000000000000006 -1.00000000000000000 -1.00000000000000000 0.00000000000000006 5.00000000000000000
1 0.00000000000000000 -15.00000000000003020 1.00000000000000000 0.00000000000000000 
2 64.99999999999995737 -642.99999999999909051 -0.00000000000000006 -1.00000000000000000 -1.00000000000000000 0.00000000000000006 5.00000000000000000
1 0.00000000000000000 -15.00000000000002309 1.00000000000000000 0.00000000000000000 
2 -4.99999999999988987 988.00000000000181899 0.00000000000000011 -1.00000000000000000 -1.00000000000000000 -0.00000000000000011 5.00000000000000000
1 0.00000000000000000 -14.99999999999968381 1.00000000000000000 0.00000000000000000 
2 65.00000000000004263 643.00000000000113687 -0.00000000000000006 -1.00000000000000000 -1.00000000000000000 0.00000000000000006 5.00000000000000000
1 0.00000000000000000 -14.99999999999994849 1.00000000000000000 0.00000000000000000 
2 55.00000000000010658 988.00000000000181899 0.00000000000000011 -1.00000000000000000 -1.00000000000000000 -0.00000000000000011 5.00000000000000000
1 0.00000000000000000 -14.99999999999970335 1.00000000000000000 0.00000000000000000 
2 65.00000000000004263 793.00000000000113687 -0.00000000000000006 -1.00000000000000000 -1.00000000000000000 0.00000000000000006 5.00000000000000000
1 0.00000000000000000 -14.99999999999993960 1.00000000000000000 0.00000000000000000 
1 0.00000000000000000 0.00000000000000000 0.00000000000000000 -1.00000000000000000 
1 6.28318530717958623 0.00000000000000000 0.00000000000000000 -1.00000000000000000 
1 0.00000000000000000 0.00000000000000000 0.00000000000000000 -1.00000000000000000 
1 6.28318530717958623 0.00000000000000000 0.00000000000000000 -1.00000000000000000 
1 0.00000000000000000 0.00000000000000000 0.00000000000000000 -1.00000000000000000 
1 6.28318530717958623 0.00000000000000000 0.00000000000000000 -1.00000000000000000 
1 0.00000000000000000 0.00000000000000000 0.00000000000000000 -1.00000000000000000 
1 6.28318530717958623 0.00000000000000000 0.00000000000000000 -1.00000000000000000 
1 0.00000000000000000 0.00000000000000000 0.00000000000000000 -1.00000000000000000 
1 6.28318530717958623 0.00000000000000000 0.00000000000000000 -1.00000000000000000 
1 0.00000000000000000 0.00000000000000000 0.00000000000000000 -1.00000000000000000 
1 6.28318530717958623 0.00000000000000000 0.00000000000000000 -1.00000000000000000 
1 0.00000000000000000 0.00000000000000000 0.00000000000000000 -1.00000000000000000 
1 6.28318530717958623 0.00000000000000000 0.00000000000000000 -1.00000000000000000 
1 0.00000000000000000 0.00000000000000000 0.00000000000000000 -1.00000000000000000 
1 6.28318530717958623 0.00000000000000000 0.00000000000000000 -1.00000000000000000 
Curves 32
1 -1858.00000000000045475 4962.66700000000128057 -0.00000000000261643 0.00000000000000044 -0.00000000000000028 -1.00000000000000000 
1 228.00000000000002842 4962.66700000000037107 -0.00000000000215324 0.00000000000000044 -0.00000000000000028 -1.00000000000000000 
1 -1858.00000000000113687 4962.66699999999946158 0.00000000000000000 1.00000000000000000 0.00000000000000000 0.00000000000000000 
1 -1858.00000000000045475 4712.66700000000128057 -0.00000000000250540 0.00000000000000044 -0.00000000000000028 -1.00000000000000000 
1 -1858.00000000000113687 4712.66699999999946158 0.00000000000000000 0.00000000000000000 1.00000000000000000 0.00000000000000000 
1 227.99999999999997158 4712.66700000000037107 -0.00000000000204222 0.00000000000000044 -0.00000000000000028 -1.00000000000000000 
1 227.99999999999886313 4962.66699999999946158 0.00000000000000000 0.00000000000000000 -1.00000000000000000 0.00000000000000000 
1 227.99999999999886313 4712.66699999999946158 0.00000000000000000 -1.00000000000000000 0.00000000000000000 0.00000000000000000 
2 172.99999999999891998 4842.66700000000037107 0.00000000000000000 0.00000000000000000 0.00000000000000000 1.00000000000000000 1.00000000000000000 0.00000000000000000 -0.00000000000000000 -0.00000000000000000 1.00000000000000000 0.00000000000000000 5.00000000000000000
2 172.99999999999891998 4782.66700000000037107 0.00000000000000000 0.00000000000000000 0.00000000000000000 1.00000000000000000 1.00000000000000000 0.00000000000000000 -0.00000000000000000 -0.00000000000000000 1.00000000000000000 0.00000000000000000 5.00000000000000000
2 -22.00000000000090239 4772.66699999999946158 0.00000000000000000 0.00000000000000000 0.00000000000000000 1.00000000000000000 1.00000000000000000 0.00000000000000000 -0.00000000000000000 -0.00000000000000000 1.00000000000000000 0.00000000000000000 5.00000000000000000
2 -172.00000000000096634 4772.66699999999946158 0.00000000000000000 0.00000000000000000 0.00000000000000000 1.00000000000000000 1.00000000000000000 0.00000000000000000 -0.00000000000000000 -0.00000000000000000 1.00000000000000000 0.00000000000000000 5.00000000000000000
2 -1803.00000000000113687 4842.66700000000037107 0.00000000000000000 0.00000000000000000 0.00000000000000000 1.00000000000000000 1.00000000000000000 0.00000000000000000 -0.00000000000000000 -0.00000000000000000 1.00000000000000000 0.00000000000000000 5.00000000000000000
2 -1458.00000000000113687 4772.66699999999946158 0.00000000000000000 0.00000000000000000 0.00000000000000000 1.00000000000000000 1.00000000000000000 0.00000000000000000 -0.00000000000000000 -0.00000000000000000 1.00000000000000000 0.00000000000000000 5.00000000000000000
2 -1803.00000000000113687 4782.66700000000037107 0.00000000000000000 0.00000000000000000 0.00000000000000000 1.00000000000000000 1.00000000000000000 0.00000000000000000 -0.00000000000000000 -0.00000000000000000 1.00000000000000000 0.00000000000000000 5.00000000000000000
2 -1608.00000000000113687 4772.66699999999946158 0.00000000000000000 0.00000000000000000 0.00000000000000000 1.00000000000000000 1.00000000000000000 0.00000000000000000 -0.00000000000000000 -0.00000000000000000 1.00000000000000000 0.00000000000000000 5.00000000000000000
2 172.99999999999894840 4842.66700000000128057 -15.00000000000328804 -0.00000000000000044 0.00000000000000067 1.00000000000000000 1.00000000000000000 -0.00000000000000022 0.00000000000000044 0.00000000000000022 1.00000000000000000 -0.00000000000000067 5.00000000000000000
2 172.99999999999894840 4782.66700000000128057 -15.00000000000326672 -0.00000000000000044 0.00000000000000067 1.00000000000000000 1.00000000000000000 -0.00000000000000022 0.00000000000000044 0.00000000000000022 1.00000000000000000 -0.00000000000000067 5.00000000000000000
2 -22.00000000000063238 4772.66699999999946158 -15.00000000000110845 -0.00000000000000028 0.00000000000000022 1.00000000000000000 1.00000000000000000 0.00000000000000000 0.00000000000000028 0.00000000000000000 1.00000000000000000 -0.00000000000000022 5.00000000000000000
2 -172.00000000000071054 4772.66699999999946158 -15.00000000000114220 -0.00000000000000028 0.00000000000000022 1.00000000000000000 1.00000000000000000 0.00000000000000000 0.00000000000000028 0.00000000000000000 1.00000000000000000 -0.00000000000000022 5.00000000000000000
2 -1803.00000000000159162 4842.66700000000128057 -15.00000000000460432 -0.00000000000000044 0.00000000000000067 1.00000000000000000 1.00000000000000000 -0.00000000000000022 0.00000000000000044 0.00000000000000022 1.00000000000000000 -0.00000000000000067 5.00000000000000000
2 -1458.00000000000090949 4772.66699999999946158 -15.00000000000142464 -0.00000000000000028 0.00000000000000022 1.00000000000000000 1.00000000000000000 0.00000000000000000 0.00000000000000028 0.00000000000000000 1.00000000000000000 -0.00000000000000022 5.00000000000000000
2 -1803.00000000000159162 4782.66700000000128057 -15.00000000000458300 -0.00000000000000044 0.00000000000000067 1.00000000000000000 1.00000000000000000 -0.00000000000000022 0.00000000000000044 0.00000000000000022 1.00000000000000000 -0.00000000000000067 5.00000000000000000
2 -1608.00000000000090949 4772.66699999999946158 -15.00000000000145661 -0.00000000000000028 0.00000000000000022 1.00000000000000000 1.00000000000000000 0.00000000000000000 0.00000000000000028 0.00000000000000000 1.00000000000000000 -0.00000000000000022 5.00000000000000000
1 177.99999999999894840 4842.66700000000128057 -0.00000000000404003 0.00000000000000067 -0.00000000000000044 -1.00000000000000000 
1 177.99999999999894840 4782.66700000000128057 -0.00000000000400006 0.00000000000000067 -0.00000000000000044 -1.00000000000000000 
1 -17.00000000000063594 4772.66699999999946158 -0.00000000000107602 0.00000000000000022 -0.00000000000000028 -1.00000000000000000 
1 -167.00000000000071054 4772.66699999999946158 -0.00000000000111765 0.00000000000000022 -0.00000000000000028 -1.00000000000000000 
1 -1798.00000000000159162 4842.66700000000128057 -0.00000000000491755 0.00000000000000067 -0.00000000000000044 -1.00000000000000000 
1 -1453.00000000000090949 4772.66699999999946158 -0.00000000000147459 0.00000000000000022 -0.00000000000000028 -1.00000000000000000 
1 -1798.00000000000159162 4782.66700000000128057 -0.00000000000487758 0.00000000000000067 -0.00000000000000044 -1.00000000000000000 
1 -1603.00000000000090949 4772.66699999999946158 -0.00000000000151622 0.00000000000000022 -0.00000000000000028 -1.00000000000000000 
Polygon3D 0
PolygonOnTriangulations 0
Surfaces 29
1 -1858.00000000000045475 4962.66700000000128057 -0.00000000000261643 -0.00000000000000044 -1.00000000000000000 0.00000000000000028 1.00000000000000000 -0.00000000000000044 0.00000000000000022 -0.00000000000000022 0.00000000000000028 1.00000000000000000 
1 -0.00000000000125514 -815.00000000000000000 4837.66699999999946158 -1.00000000000000000 0.00000000000000022 -0.00000000000000022 0.00000000000000022 0.00000000000000000 -1.00000000000000000 -0.00000000000000022 -1.00000000000000000 -0.00000000000000000 
1 -1858.00000000000045475 4712.66700000000128057 -0.00000000000250540 1.00000000000000000 -0.00000000000000022 0.00000000000000044 0.00000000000000022 1.00000000000000000 -0.00000000000000044 -0.00000000000000044 0.00000000000000044 1.00000000000000000 
1 228.00000000000002842 4962.66700000000037107 -0.00000000000215324 -1.00000000000000000 0.00000000000000022 -0.00000000000000044 -0.00000000000000022 -1.00000000000000000 0.00000000000000044 -0.00000000000000044 0.00000000000000044 1.00000000000000000 
2 172.99999999999894840 4842.66700000000128057 -0.00000000000404225 -0.00000000000000044 0.00000000000000067 1.00000000000000000 1.00000000000000000 -0.00000000000000022 0.00000000000000044 0.00000000000000022 1.00000000000000000 -0.00000000000000067 5.00000000000000000
1 -0.00000000000296696 172.99999999999891998 4842.66700000000037107 1.00000000000000000 -0.00000000000000044 0.00000000000000044 -0.00000000000000044 0.00000000000000000 1.00000000000000000 -0.00000000000000044 -1.00000000000000000 -0.00000000000000000 
2 172.99999999999894840 4782.66700000000128057 -0.00000000000400228 -0.00000000000000044 0.00000000000000067 1.00000000000000000 1.00000000000000000 -0.00000000000000022 0.00000000000000044 0.00000000000000022 1.00000000000000000 -0.00000000000000067 5.00000000000000000
1 -0.00000000000294031 172.99999999999891998 4782.66700000000037107 1.00000000000000000 -0.00000000000000044 0.00000000000000044 -0.00000000000000044 0.00000000000000000 1.00000000000000000 -0.00000000000000044 -1.00000000000000000 -0.00000000000000000 
2 -22.00000000000063594 4772.66699999999946158 -0.00000000000107740 -0.00000000000000028 0.00000000000000022 1.00000000000000000 1.00000000000000000 0.00000000000000000 0.00000000000000028 0.00000000000000000 1.00000000000000000 -0.00000000000000022 5.00000000000000000
1 -0.00000000000107618 -22.00000000000090594 4772.66699999999946158 1.00000000000000000 -0.00000000000000022 0.00000000000000022 -0.00000000000000022 0.00000000000000000 1.00000000000000000 -0.00000000000000022 -1.00000000000000000 -0.00000000000000000 
2 -22.00000000000063594 4772.66699999999946158 -0.00000000000107740 -0.00000000000000028 0.00000000000000022 1.00000000000000000 1.00000000000000000 0.00000000000000000 0.00000000000000028 0.00000000000000000 1.00000000000000000 -0.00000000000000022 5.00000000000000000
2 -22.00000000000063594 4772.66699999999946158 -0.00000000000107740 -0.00000000000000028 0.00000000000000022 1.00000000000000000 1.00000000000000000 0.00000000000000000 0.00000000000000028 0.00000000000000000 1.00000000000000000 -0.00000000000000022 5.00000000000000000
2 -172.00000000000071054 4772.66699999999946158 -0.00000000000111904 -0.00000000000000028 0.00000000000000022 1.00000000000000000 1.00000000000000000 0.00000000000000000 0.00000000000000028 0.00000000000000000 1.00000000000000000 -0.00000000000000022 5.00000000000000000
1 -0.00000000000110949 -172.00000000000096634 4772.66699999999946158 1.00000000000000000 -0.00000000000000022 0.00000000000000022 -0.00000000000000022 0.00000000000000000 1.00000000000000000 -0.00000000000000022 -1.00000000000000000 -0.00000000000000000 
2 -172.00000000000071054 4772.66699999999946158 -0.00000000000111904 -0.00000000000000028 0.00000000000000022 1.00000000000000000 1.00000000000000000 0.00000000000000000 0.00000000000000028 0.00000000000000000 1.00000000000000000 -0.00000000000000022 5.00000000000000000
2 -172.00000000000071054 4772.66699999999946158 -0.00000000000111904 -0.00000000000000028 0.00000000000000022 1.00000000000000000 1.00000000000000000 0.00000000000000000 0.00000000000000028 0.00000000000000000 1.00000000000000000 -0.00000000000000022 5.00000000000000000
2 -1803.00000000000159162 4842.66700000000128057 -0.00000000000491977 -0.00000000000000044 0.00000000000000067 1.00000000000000000 1.00000000000000000 -0.00000000000000022 0.00000000000000044 0.00000000000000022 1.00000000000000000 -0.00000000000000067 5.00000000000000000
1 -0.00000000000384448 -1803.00000000000113687 4842.66700000000037107 1.00000000000000000 -0.00000000000000044 0.00000000000000044 -0.00000000000000044 0.00000000000000000 1.00000000000000000 -0.00000000000000044 -1.00000000000000000 -0.00000000000000000 
2 -1458.00000000000090949 4772.66699999999946158 -0.00000000000147597 -0.00000000000000028 0.00000000000000022 1.00000000000000000 1.00000000000000000 0.00000000000000000 0.00000000000000028 0.00000000000000000 1.00000000000000000 -0.00000000000000022 5.00000000000000000
1 -0.00000000000139504 -1458.00000000000113687 4772.66699999999946158 1.00000000000000000 -0.00000000000000022 0.00000000000000022 -0.00000000000000022 0.00000000000000000 1.00000000000000000 -0.00000000000000022 -1.00000000000000000 -0.00000000000000000 
2 -1458.00000000000090949 4772.66699999999946158 -0.00000000000147597 -0.00000000000000028 0.00000000000000022 1.00000000000000000 1.00000000000000000 0.00000000000000000 0.00000000000000028 0.00000000000000000 1.00000000000000000 -0.00000000000000022 5.00000000000000000
2 -1458.00000000000090949 4772.66699999999946158 -0.00000000000147597 -0.00000000000000028 0.00000000000000022 1.00000000000000000 1.00000000000000000 0.00000000000000000 0.00000000000000028 0.00000000000000000 1.00000000000000000 -0.00000000000000022 5.00000000000000000
2 -1803.00000000000159162 4782.66700000000128057 -0.00000000000487980 -0.00000000000000044 0.00000000000000067 1.00000000000000000 1.00000000000000000 -0.00000000000000022 0.00000000000000044 0.00000000000000022 1.00000000000000000 -0.00000000000000067 5.00000000000000000
1 -0.00000000000381784 -1803.00000000000113687 4782.66700000000037107 1.00000000000000000 -0.00000000000000044 0.00000000000000044 -0.00000000000000044 0.00000000000000000 1.00000000000000000 -0.00000000000000044 -1.00000000000000000 -0.00000000000000000 
2 -1608.00000000000090949 4772.66699999999946158 -0.00000000000151761 -0.00000000000000028 0.00000000000000022 1.00000000000000000 1.00000000000000000 0.00000000000000000 0.00000000000000028 0.00000000000000000 1.00000000000000000 -0.00000000000000022 5.00000000000000000
1 -0.00000000000142835 -1608.00000000000136424 4772.66699999999946158 1.00000000000000000 -0.00000000000000022 0.00000000000000022 0.00000000000000022 1.00000000000000000 0.00000000000000000 -0.00000000000000022 0.00000000000000000 1.00000000000000000 
2 -1608.00000000000090949 4772.66699999999946158 -0.00000000000151761 -0.00000000000000028 0.00000000000000022 1.00000000000000000 1.00000000000000000 0.00000000000000000 0.00000000000000028 0.00000000000000000 1.00000000000000000 -0.00000000000000022 5.00000000000000000
2 -1608.00000000000090949 4772.66699999999946158 -0.00000000000151761 -0.00000000000000028 0.00000000000000022 1.00000000000000000 1.00000000000000000 0.00000000000000000 0.00000000000000028 0.00000000000000000 1.00000000000000000 -0.00000000000000022 5.00000000000000000
1 227.99999999999997158 4712.66700000000037107 -0.00000000000204222 0.00000000000000044 1.00000000000000000 -0.00000000000000028 -1.00000000000000000 0.00000000000000044 -0.00000000000000022 -0.00000000000000022 0.00000000000000028 1.00000000000000000 
Triangulations 0

TShapes 98
Ve
0.000000100000000
-1858.000000000001137 4962.666999999999462 0.000000000000000
0 0

0101101
*
Ed
 0.000000100000000 1 1 0
1  1 0 0.000000000000000 15.000000000000000
0

0101000
+98 10 -98 12 *
Ve
0.000000100000000
227.999999999998863 4962.666999999999462 0.000000000000000
0 0

0101101
*
Ed
 0.000000100000000 1 1 0
1  2 0 0.000000000000000 15.000000000000000
0

0101000
+96 10 -96 12 *
Ed
 0.000000100000000 1 1 0
1  3 0 0.000000000000000 2086.000000000000000
2  1 2 13 0.000000000000000 2086.000000000000000
0

0101000
+98 0 -96 0 *
Wi

0101100
+97 0 -95 0 -94 10 +94 12 *
Fa
0  0.000000100000000 1 0

0111000
+93 0 *
Ve
0.000000100000000
-1858.000000000001137 4712.666999999999462 0.000000000000000
0 0

0101101
*
Ed
 0.000000100000000 1 1 0
1  4 0 0.000000000000000 15.000000000000000
0

0101000
+91 10 -91 12 *
Ed
 0.000000100000000 1 1 0
1  5 0 0.000000000000000 250.000000000000000
2  2 2 13 0.000000000000000 250.000000000000000
0

0101000
+91 0 -98 0 *
Wi

0101100
+90 0 -97 0 -89 10 +89 12 *
Fa
0  0.000000100000000 3 0

0111000
+88 0 *
Ve
0.000000100000000
227.999999999998863 4712.666999999999462 0.000000000000000
0 0

0101101
*
Ed
 0.000000100000000 1 1 0
1  6 0 0.000000000000000 15.000000000000000
0

0101000
+86 10 -86 12 *
Ed
 0.000000100000000 1 1 0
1  7 0 0.000000000000000 250.000000000000000
2  3 2 13 0.000000000000000 250.000000000000000
0

0101000
+96 0 -86 0 *
Wi

0101100
+95 0 -85 0 -84 10 +84 12 *
Fa
0  0.000000100000000 4 0

0111000
+83 0 *
Ed
 0.000000100000000 1 1 0
1  8 0 0.000000000000000 2086.000000000000000
2  4 2 13 0.000000000000000 2086.000000000000000
0

0101000
+86 0 -91 0 *
Wi

0101100
+94 15 +89 15 +84 15 +81 15 *
Ve
0.000000100000760
177.999999999998920 4842.667000000000371 0.000000000000000
0 0

0101101
*
Ed
 0.000000100000760 1 1 0
1  9 0 0.000000000000000 6.283185307179586
2  5 5 19 0.000000000000000 6.283185307179586
2  6 5 21 0.000000000000000 6.283185307179586
2  7 6 22 0.000000000000000 6.283185307179586
2  8 2 23 0.000000000000000 6.283185307179586
0

0101000
+79 0 -79 0 *
Wi

0101100
+78 18 *
Ve
0.000000100000740
177.999999999998920 4782.667000000000371 0.000000000000000
0 0

0101101
*
Ed
 0.000000100000740 1 1 0
1  10 0 0.000000000000000 6.283185307179586
2  9 7 19 0.000000000000000 6.283185307179586
2  10 7 21 0.000000000000000 6.283185307179586
2  11 8 22 0.000000000000000 6.283185307179586
2  12 2 23 0.000000000000000 6.283185307179586
0

0101000
+76 0 -76 0 *
Wi

0101100
+75 18 *
Ve
0.000000100000031
-17.000000000000902 4772.666999999999462 0.000000000000000
0 0

0101101
*
Ed
 0.000000100000031 1 1 0
1  11 0 0.000000000000000 6.283185307179586
2  13 9 30 0.000000000000000 6.283185307179586
2  14 9 32 0.000000000000000 6.283185307179586
2  15 10 33 0.000000000000000 6.283185307179586
2  16 2 34 0.000000000000000 6.283185307179586
2  17 11 38 0.000000000000000 6.283185307179586
2  18 11 40 0.000000000000000 6.283185307179586
2  19 2 41 0.000000000000000 6.283185307179586
2  20 12 42 0.000000000000000 6.283185307179586
2  21 12 44 0.000000000000000 6.283185307179586
2  22 2 45 0.000000000000000 6.283185307179586
0

0101000
+73 0 -73 0 *
Wi

0101100
+72 26 *
Ve
0.000000100000022
-167.000000000000966 4772.666999999999462 0.000000000000000
0 0

0101101
*
Ed
 0.000000100000022 1 1 0
1  12 0 0.000000000000000 6.283185307179586
2  23 13 30 0.000000000000000 6.283185307179586
2  24 13 32 0.000000000000000 6.283185307179586
2  25 14 33 0.000000000000000 6.283185307179586
2  26 2 34 0.000000000000000 6.283185307179586
2  27 15 38 0.000000000000000 6.283185307179586
2  28 15 40 0.000000000000000 6.283185307179586
2  29 2 41 0.000000000000000 6.283185307179586
2  30 16 42 0.000000000000000 6.283185307179586
2  31 16 44 0.000000000000000 6.283185307179586
2  32 2 45 0.000000000000000 6.283185307179586
0

0101000
+70 0 -70 0 *
Wi

0101100
+69 26 *
Ve
0.000000100000321
-1798.000000000001137 4842.667000000000371 0.000000000000000
0 0

0101101
*
Ed
 0.000000100000321 1 1 0
1  13 0 0.000000000000000 6.283185307179586
2  33 17 19 0.000000000000000 6.283185307179586
2  34 17 21 0.000000000000000 6.283185307179586
2  35 18 22 0.000000000000000 6.283185307179586
2  36 2 23 0.000000000000000 6.283185307179586
0

0101000
+67 0 -67 0 *
Wi

0101100
+66 18 *
Ve
0.000000100000052
-1453.000000000001137 4772.666999999999462 0.000000000000000
0 0

0101101
*
Ed
 0.000000100000052 1 1 0
1  14 0 0.000000000000000 6.283185307179586
2  37 19 30 0.000000000000000 6.283185307179586
2  38 19 32 0.000000000000000 6.283185307179586
2  39 20 33 0.000000000000000 6.283185307179586
2  40 2 34 0.000000000000000 6.283185307179586
2  41 21 38 0.000000000000000 6.283185307179586
2  42 21 40 0.000000000000000 6.283185307179586
2  43 2 41 0.000000000000000 6.283185307179586
2  44 22 42 0.000000000000000 6.283185307179586
2  45 22 44 0.000000000000000 6.283185307179586
2  46 2 45 0.000000000000000 6.283185307179586
0

0101000
+64 0 -64 0 *
Wi

0101100
+63 26 *
Ve
0.000000100000301
-1798.000000000001137 4782.667000000000371 0.000000000000000
0 0

0101101
*
Ed
 0.000000100000301 1 1 0
1  15 0 0.000000000000000 6.283185307179586
2  47 23 19 0.000000000000000 6.283185307179586
2  48 23 21 0.000000000000000 6.283185307179586
2  49 24 22 0.000000000000000 6.283185307179586
2  50 2 23 0.000000000000000 6.283185307179586
0

0101000
+61 0 -61 0 *
Wi

0101100
+60 18 *
Ve
0.000000100000061
-1603.000000000001137 4772.666999999999462 0.000000000000000
0 0

0101101
*
Ed
 0.000000100000061 1 1 0
1  16 0 0.000000000000000 6.283185307179586
2  51 25 30 0.000000000000000 6.283185307179586
2  52 25 32 0.000000000000000 6.283185307179586
2  53 26 33 0.000000000000000 6.283185307179586
2  54 2 34 0.000000000000000 6.283185307179586
2  55 27 38 0.000000000000000 6.283185307179586
2  56 27 40 0.000000000000000 6.283185307179586
2  57 2 41 0.000000000000000 6.283185307179586
2  58 28 42 0.000000000000000 6.283185307179586
2  59 28 44 0.000000000000000 6.283185307179586
2  60 2 45 0.000000000000000 6.283185307179586
0

0101000
+58 0 -58 0 *
Wi

0101100
+57 26 *
Fa
0  0.000000100000000 2 14

0111000
+80 0 +77 0 +74 0 +71 0 +68 0 +65 0 +62 0 +59 0 +56 0 *
Wi

0101100
+94 47 +89 47 +84 47 +81 47 *
Ve
0.000000100000004
177.999999999998948 4842.667000000001281 -15.000000000003283
0 0

0101101
*
Ed
 0.000000100000000 1 1 0
1  17 0 0.000000000000000 6.283185307179586
2  61 2 49 0.000000000000000 6.283185307179586
2  62 5 0 0.000000000000000 6.283185307179586
0

0101000
+53 0 -53 0 *
Wi

0101100
+52 48 *
Ve
0.000000100000002
177.999999999998948 4782.667000000001281 -15.000000000003263
0 0

0101101
*
Ed
 0.000000100000000 1 1 0
1  18 0 0.000000000000000 6.283185307179586
2  63 2 49 0.000000000000000 6.283185307179586
2  64 7 0 0.000000000000000 6.283185307179586
0

0101000
+50 0 -50 0 *
Wi

0101100
+49 48 *
Ve
0.000000100000033
-17.000000000000632 4772.666999999999462 -15.000000000001108
0 0

0101101
*
Ed
 0.000000100000031 1 1 0
1  19 0 0.000000000000000 6.283185307179586
2  65 2 46 0.000000000000000 6.283185307179586
2  66 12 0 0.000000000000000 6.283185307179586
0

0101000
+47 0 -47 0 *
Wi

0101100
+46 0 *
Ve
0.000000100000022
-167.000000000000711 4772.666999999999462 -15.000000000001140
0 0

0101101
*
Ed
 0.000000100000022 1 1 0
1  20 0 0.000000000000000 6.283185307179586
2  67 2 46 0.000000000000000 6.283185307179586
2  68 16 0 0.000000000000000 6.283185307179586
0

0101000
+44 0 -44 0 *
Wi

0101100
+43 0 *
Ve
0.000000100000437
-1798.000000000001592 4842.667000000001281 -15.000000000004166
0 0

0101101
*
Ed
 0.000000100000000 1 1 0
1  21 0 0.000000000000000 6.283185307179586
2  69 2 49 0.000000000000000 6.283185307179586
2  70 17 0 0.000000000000000 6.283185307179586
0

0101000
+41 0 -41 0 *
Wi

0101100
+40 48 *
Ve
0.000000100000092
-1453.000000000000909 4772.666999999999462 -15.000000000001462
0 0

0101101
*
Ed
 0.000000100000052 1 1 0
1  22 0 0.000000000000000 6.283185307179586
2  71 2 46 0.000000000000000 6.283185307179586
2  72 22 0 0.000000000000000 6.283185307179586
0

0101000
+38 0 -38 0 *
Wi

0101100
+37 0 *
Ve
0.000000100000462
-1798.000000000001592 4782.667000000001281 -15.000000000004119
0 0

0101101
*
Ed
 0.000000100000000 1 1 0
1  23 0 0.000000000000000 6.283185307179586
2  73 2 49 0.000000000000000 6.283185307179586
2  74 23 0 0.000000000000000 6.283185307179586
0

0101000
+35 0 -35 0 *
Wi

0101100
+34 48 *
Ve
0.000000100000109
-1603.000000000000909 4772.666999999999462 -15.000000000001503
0 0

0101101
*
Ed
 0.000000100000061 1 1 0
1  24 0 0.000000000000000 6.283185307179586
2  75 2 46 0.000000000000000 6.283185307179586
2  76 28 0 0.000000000000000 6.283185307179586
0

0101000
+32 0 -32 0 *
Wi

0101100
+31 0 *
Fa
0  0.000000100000000 2 46

0111000
+54 0 +51 0 +48 0 +45 0 +42 0 +39 0 +36 0 +33 0 +30 0 *
Wi

0101100
+85 0 -90 0 -81 10 +81 12 *
Fa
0  0.000000100000000 29 0

0111000
+28 0 *
Ed
 0.000000100000000 1 1 0
1  25 0 0.000000000000000 14.999999999999243
3  77 78CN 5 0 0.000000000000000 14.999999999999243
0

0101000
+79 50 -53 0 *
Wi

0101100
-78 50 -26 0 +52 0 +26 0 *
Fa
0  0.000000100000000 5 0

0111000
+25 0 *
Ed
 0.000000100000000 1 1 0
1  26 0 0.000000000000000 14.999999999999263
3  79 80CN 7 0 0.000000000000000 14.999999999999263
0

0101000
+76 50 -50 0 *
Wi

0101100
-75 50 -23 0 +49 0 +23 0 *
Fa
0  0.000000100000000 7 0

0111000
+22 0 *
Ed
 0.000000100000031 1 1 0
1  27 0 0.000000000000000 15.000000000000032
3  81 82CN 12 0 0.000000000000000 15.000000000000032
0

0101000
+73 26 -47 0 *
Wi

0101100
-72 26 -20 0 +46 0 +20 0 *
Fa
0  0.000000100000031 12 0

0111000
+19 0 *
Ed
 0.000000100000022 1 1 0
1  28 0 0.000000000000000 15.000000000000023
3  83 84CN 16 0 0.000000000000000 15.000000000000023
0

0101000
+70 26 -44 0 *
Wi

0101100
-69 26 -17 0 +43 0 +17 0 *
Fa
0  0.000000100000022 16 0

0111000
+16 0 *
Ed
 0.000000100000000 1 1 0
1  29 0 0.000000000000000 14.999999999999249
3  85 86CN 17 0 0.000000000000000 14.999999999999249
0

0101000
+67 50 -41 0 *
Wi

0101100
-66 50 -14 0 +40 0 +14 0 *
Fa
0  0.000000100000000 17 0

0111000
+13 0 *
Ed
 0.000000100000052 1 1 0
1  30 0 0.000000000000000 14.999999999999988
3  87 88CN 22 0 0.000000000000000 14.999999999999988
0

0101000
+64 26 -38 0 *
Wi

0101100
-63 26 -11 0 +37 0 +11 0 *
Fa
0  0.000000100000052 22 0

0111000
+10 0 *
Ed
 0.000000100000000 1 1 0
1  31 0 0.000000000000000 14.999999999999241
3  89 90CN 23 0 0.000000000000000 14.999999999999241
0

0101000
+61 50 -35 0 *
Wi

0101100
-60 50 -8 0 +34 0 +8 0 *
Fa
0  0.000000100000000 23 0

0111000
+7 0 *
Ed
 0.000000100000061 1 1 0
1  32 0 0.000000000000000 14.999999999999986
3  91 92CN 28 0 0.000000000000000 14.999999999999986
0

0101000
+58 26 -32 0 *
Wi

0101100
-57 26 -5 0 +31 0 +5 0 *
Fa
0  0.000000100000061 28 0

0111000
+4 0 *
Sh

0101100
-92 6 -87 6 -82 6 -55 0 +29 0 -27 6 -24 48 -21 48 -18 0 -15 0 
-12 48 -9 0 -6 48 -3 0 *
So

0100000
+2 0 *

+1 1 