
CASCADE Topology V1, (c) Matra-Datavision
Locations 14
1
1.000000000000000 0.000000000000000 0.000000000000000 0.000000000000000 
0.000000000000000 1.000000000000000 0.000000000000000 0.000000000000000 
0.000000000000000 0.000000000000000 1.000000000000000 2762.500000000000000 
1
1.000000000000000 0.000000000000000 0.000000000000000 0.000000000000000 
0.000000000000000 1.000000000000000 0.000000000000000 0.000000000000000 
0.000000000000000 0.000000000000000 1.000000000000000 0.000000000000000 
2  2 -1 0
1
1.000000000000000 0.000000000000000 0.000000000000000 0.000000000000000 
0.000000000000000 1.000000000000000 0.000000000000000 0.000000000000000 
0.000000000000000 0.000000000000000 1.000000000000000 0.000000000000000 
1
1.000000000000000 0.000000000000000 0.000000000000000 0.000000000000000 
0.000000000000000 1.000000000000000 0.000000000000000 0.000000000000000 
0.000000000000000 0.000000000000000 1.000000000000000 0.000000000000000 
1
1.000000000000000 0.000000000000000 0.000000000000000 0.000000000000000 
0.000000000000000 1.000000000000000 0.000000000000000 0.000000000000000 
0.000000000000000 0.000000000000000 1.000000000000000 0.000000000000000 
2  4 1 5 1 6 -1 0
2  2 -1 6 1 5 -1 4 -1 0
1
1.000000000000000 0.000000000000000 0.000000000000000 -0.000000000000000 
0.000000000000000 1.000000000000000 0.000000000000000 -0.000000000000000 
0.000000000000000 0.000000000000000 1.000000000000000 -50.000000000000000 
2  4 1 5 1 6 -1 9 1 0
2  2 -1 9 -1 6 1 5 -1 4 -1 0
2  6 -1 0
2  4 1 5 1 0
2  6 -1 9 1 0
Curve2ds 0
Curves 18
1 1354.00000000000000000 63.00000000000000000 0.00000000000000000 -0.00000000000000000 -0.00000000000000000 -1.00000000000000000 
1 27.00000000000000000 63.00000000000000000 0.00000000000000000 -0.00000000000000000 -0.00000000000000000 -1.00000000000000000 
1 1354.00000000000000000 63.00000000000000000 0.00000000000000000 -1.00000000000000000 0.00000000000000000 0.00000000000000000 
1 1354.00000000000000000 63.00000000000000000 0.00000000000000000 -1.00000000000000000 0.00000000000000000 0.00000000000000000 
1 27.00000000000000000 -1843.00000000000000000 0.00000000000000000 -0.00000000000000000 -0.00000000000000000 -1.00000000000000000 
1 27.00000000000000000 63.00000000000000000 0.00000000000000000 0.00000000000000000 -1.00000000000000000 0.00000000000000000 
1 27.00000000000000000 63.00000000000000000 0.00000000000000000 0.00000000000000000 -1.00000000000000000 0.00000000000000000 
1 999.98999999999966803 -1843.00000000000000000 0.00000000000000000 -0.00000000000000000 -0.00000000000000000 -1.00000000000000000 
1 27.00000000000000000 -1843.00000000000000000 0.00000000000000000 1.00000000000000000 0.00000000000000000 0.00000000000000000 
1 27.00000000000000000 -1843.00000000000000000 0.00000000000000000 1.00000000000000000 0.00000000000000000 0.00000000000000000 
1 999.98999999999966803 -868.00000000000034106 0.00000000000000000 -0.00000000000000000 -0.00000000000000000 -1.00000000000000000 
1 999.98999999999966803 -1843.00000000000000000 0.00000000000000000 0.00000000000000000 1.00000000000000000 0.00000000000000000 
1 999.98999999999966803 -1843.00000000000000000 0.00000000000000000 0.00000000000000000 1.00000000000000000 0.00000000000000000 
1 1354.00000000000000000 -868.00000000000034106 0.00000000000000000 -0.00000000000000000 -0.00000000000000000 -1.00000000000000000 
1 999.98999999999966803 -868.00000000000034106 0.00000000000000000 1.00000000000000000 0.00000000000000000 0.00000000000000000 
1 999.98999999999966803 -868.00000000000034106 0.00000000000000000 1.00000000000000000 0.00000000000000000 0.00000000000000000 
1 1354.00000000000000000 -868.00000000000034106 0.00000000000000000 0.00000000000000000 1.00000000000000000 0.00000000000000000 
1 1354.00000000000000000 -868.00000000000034106 0.00000000000000000 0.00000000000000000 1.00000000000000000 0.00000000000000000 
Polygon3D 0
PolygonOnTriangulations 0
Surfaces 8
1 1354.00000000000000000 63.00000000000000000 0.00000000000000000 0.00000000000000000 1.00000000000000000 0.00000000000000000 -1.00000000000000000 0.00000000000000000 0.00000000000000000 0.00000000000000000 -0.00000000000000000 1.00000000000000000 
1 27.00000000000000000 63.00000000000000000 0.00000000000000000 -1.00000000000000000 0.00000000000000000 0.00000000000000000 0.00000000000000000 -1.00000000000000000 0.00000000000000000 0.00000000000000000 0.00000000000000000 1.00000000000000000 
1 27.00000000000000000 -1843.00000000000000000 0.00000000000000000 0.00000000000000000 -1.00000000000000000 0.00000000000000000 1.00000000000000000 0.00000000000000000 0.00000000000000000 -0.00000000000000000 0.00000000000000000 1.00000000000000000 
1 999.98999999999966803 -1843.00000000000000000 0.00000000000000000 1.00000000000000000 0.00000000000000000 0.00000000000000000 -0.00000000000000000 1.00000000000000000 0.00000000000000000 0.00000000000000000 -0.00000000000000000 1.00000000000000000 
1 999.98999999999966803 -868.00000000000034106 0.00000000000000000 0.00000000000000000 -1.00000000000000000 0.00000000000000000 1.00000000000000000 0.00000000000000000 0.00000000000000000 -0.00000000000000000 0.00000000000000000 1.00000000000000000 
1 1354.00000000000000000 -868.00000000000034106 0.00000000000000000 1.00000000000000000 0.00000000000000000 0.00000000000000000 -0.00000000000000000 1.00000000000000000 0.00000000000000000 0.00000000000000000 -0.00000000000000000 1.00000000000000000 
1 637.11927776059371809 -836.61927776059371809 0.00000000000000000 0.00000000000000000 0.00000000000000000 1.00000000000000000 1.00000000000000000 0.00000000000000000 -0.00000000000000000 -0.00000000000000000 1.00000000000000000 0.00000000000000000 
1 637.11927776059371809 -836.61927776059371809 0.00000000000000000 0.00000000000000000 0.00000000000000000 1.00000000000000000 1.00000000000000000 0.00000000000000000 -0.00000000000000000 -0.00000000000000000 1.00000000000000000 0.00000000000000000 
Triangulations 0

TShapes 48
Ve
0.000000100000000
1354.000000000000000 63.000000000000000 0.000000000000000
0 0

0101101
*
Ve
0.000000100000000
1354.000000000000000 63.000000000000000 -50.000000000000000
0 0

0101101
*
Ed
 0.000000100000000 1 1 0
1  1 0 0.000000000000000 50.000000000000000
0

0101000
+48 3 -47 3 *
Ve
0.000000100000000
27.000000000000000 63.000000000000000 0.000000000000000
0 0

0101101
*
Ve
0.000000100000000
27.000000000000000 63.000000000000000 -50.000000000000000
0 0

0101101
*
Ed
 0.000000100000000 1 1 0
1  2 0 0.000000000000000 50.000000000000000
0

0101000
+45 3 -44 3 *
Ed
 0.000000100000000 1 1 0
1  3 0 0.000000000000000 1327.000000000000000
0

0101000
+48 8 -45 8 *
Ed
 0.000000100000000 1 1 0
1  4 0 0.000000000000000 1327.000000000000000
0

0101000
+47 11 -44 11 *
Wi

0101100
+46 0 -43 0 -42 7 +41 10 *
Fa
0  0.000000100000000 1 0

0111000
+40 0 *
Ve
0.000000100000000
27.000000000000000 -1843.000000000000000 0.000000000000000
0 0

0101101
*
Ve
0.000000100000000
27.000000000000000 -1843.000000000000000 -50.000000000000000
0 0

0101101
*
Ed
 0.000000100000000 1 1 0
1  5 0 0.000000000000000 50.000000000000000
0

0101000
+38 3 -37 3 *
Ed
 0.000000100000000 1 1 0
1  6 0 0.000000000000000 1906.000000000000000
0

0101000
+45 8 -38 8 *
Ed
 0.000000100000000 1 1 0
1  7 0 0.000000000000000 1906.000000000000000
0

0101000
+44 11 -37 11 *
Wi

0101100
+43 0 -36 0 -35 7 +34 10 *
Fa
0  0.000000100000000 2 0

0111000
+33 0 *
Ve
0.000000100000000
999.989999999999668 -1843.000000000000000 0.000000000000000
0 0

0101101
*
Ve
0.000000100000000
999.989999999999668 -1843.000000000000000 -50.000000000000000
0 0

0101101
*
Ed
 0.000000100000000 1 1 0
1  8 0 0.000000000000000 50.000000000000000
0

0101000
+31 3 -30 3 *
Ed
 0.000000100000000 1 1 0
1  9 0 0.000000000000000 972.989999999999668
0

0101000
+38 8 -31 8 *
Ed
 0.000000100000000 1 1 0
1  10 0 0.000000000000000 972.989999999999668
0

0101000
+37 11 -30 11 *
Wi

0101100
+36 0 -29 0 -28 7 +27 10 *
Fa
0  0.000000100000000 3 0

0111000
+26 0 *
Ve
0.000000100000000
999.989999999999668 -868.000000000000341 0.000000000000000
0 0

0101101
*
Ve
0.000000100000000
999.989999999999668 -868.000000000000341 -50.000000000000000
0 0

0101101
*
Ed
 0.000000100000000 1 1 0
1  11 0 0.000000000000000 50.000000000000000
0

0101000
+24 3 -23 3 *
Ed
 0.000000100000000 1 1 0
1  12 0 0.000000000000000 974.999999999999659
0

0101000
+31 8 -24 8 *
Ed
 0.000000100000000 1 1 0
1  13 0 0.000000000000000 974.999999999999659
0

0101000
+30 11 -23 11 *
Wi

0101100
+29 0 -22 0 -21 7 +20 10 *
Fa
0  0.000000100000000 4 0

0111000
+19 0 *
Ve
0.000000100000000
1354.000000000000000 -868.000000000000341 0.000000000000000
0 0

0101101
*
Ve
0.000000100000000
1354.000000000000000 -868.000000000000341 -50.000000000000000
0 0

0101101
*
Ed
 0.000000100000000 1 1 0
1  14 0 0.000000000000000 50.000000000000000
0

0101000
+17 3 -16 3 *
Ed
 0.000000100000000 1 1 0
1  15 0 0.000000000000000 354.010000000000332
0

0101000
+24 8 -17 8 *
Ed
 0.000000100000000 1 1 0
1  16 0 0.000000000000000 354.010000000000332
0

0101000
+23 11 -16 11 *
Wi

0101100
+22 0 -15 0 -14 7 +13 10 *
Fa
0  0.000000100000000 5 0

0111000
+12 0 *
Ed
 0.000000100000000 1 1 0
1  17 0 0.000000000000000 931.000000000000341
0

0101000
+17 8 -48 8 *
Ed
 0.000000100000000 1 1 0
1  18 0 0.000000000000000 931.000000000000341
0

0101000
+16 11 -47 11 *
Wi

0101100
+15 0 -46 0 -10 7 +9 10 *
Fa
0  0.000000100000000 6 0

0111000
+8 0 *
Wi

0101100
+42 0 +35 0 +28 0 +21 0 +14 0 +10 0 *
Fa
0  0.000000100000000 7 0

0111000
+6 13 *
Wi

0101100
+41 0 +34 0 +27 0 +20 0 +13 0 +9 0 *
Fa
0  0.000000100000000 8 0

0111000
+4 13 *
Sh

0101100
+39 0 +32 0 +25 0 +18 0 +11 0 +7 0 +5 12 -3 14 *
So

0100000
+2 0 *

+1 1 