
CASCADE Topology V1, (c) Matra-Datavision
Locations 68
1
1.000000000000000 0.000000000000000 0.000000000000000 0.000000000000000 
0.000000000000000 0.000000000000000 -1.000000000000000 0.000000000000000 
0.000000000000000 1.000000000000000 0.000000000000000 0.000000000000000 
1
1.000000000000000 0.000000000000000 0.000000000000000 0.000000000000000 
0.000000000000000 -0.000000000000000 -1.000000000000000 0.000000000000000 
0.000000000000000 1.000000000000000 -0.000000000000000 0.000000000000000 
1
1.000000000000000 0.000000000000000 0.000000000000000 0.000000000000000 
0.000000000000000 -0.000000000000000 -1.000000000000000 0.000000000000000 
0.000000000000000 1.000000000000000 -0.000000000000000 0.000000000000000 
1
1.000000000000000 0.000000000000000 0.000000000000000 0.000000000000000 
0.000000000000000 -0.000000000000000 -1.000000000000000 0.000000000000000 
0.000000000000000 1.000000000000000 -0.000000000000000 0.000000000000000 
1
1.000000000000000 0.000000000000000 0.000000000000000 0.000000000000000 
0.000000000000000 -0.000000000000000 -1.000000000000000 0.000000000000000 
0.000000000000000 1.000000000000000 -0.000000000000000 0.000000000000000 
1
1.000000000000000 0.000000000000000 0.000000000000000 0.000000000000000 
0.000000000000000 -0.000000000000000 -1.000000000000000 0.000000000000000 
0.000000000000000 1.000000000000000 -0.000000000000000 0.000000000000000 
1
1.000000000000000 0.000000000000000 0.000000000000000 0.000000000000000 
0.000000000000000 -0.000000000000000 -1.000000000000000 0.000000000000000 
0.000000000000000 1.000000000000000 -0.000000000000000 0.000000000000000 
2  2 1 3 -1 4 1 5 -1 6 1 7 -1 0
1
1.000000000000000 0.000000000000000 0.000000000000000 0.000000000000000 
0.000000000000000 1.000000000000000 0.000000000000000 0.000000000000000 
0.000000000000000 0.000000000000000 1.000000000000000 0.000000000000000 
1
1.000000000000000 0.000000000000000 0.000000000000000 0.000000000000000 
0.000000000000000 -0.000000000000000 -1.000000000000000 0.000000000000000 
0.000000000000000 1.000000000000000 -0.000000000000000 0.000000000000000 
1
1.000000000000000 0.000000000000000 0.000000000000000 0.000000000000000 
0.000000000000000 -0.000000000000000 -1.000000000000000 0.000000000000000 
0.000000000000000 1.000000000000000 -0.000000000000000 0.000000000000000 
2  9 1 10 1 11 -1 0
1
1.000000000000000 0.000000000000000 0.000000000000000 0.000000000000000 
0.000000000000000 1.000000000000000 0.000000000000000 0.000000000000000 
0.000000000000000 0.000000000000000 1.000000000000000 15.000000000000000 
2  9 1 10 1 11 -1 13 1 0
2  10 -1 9 -1 0
2  7 1 6 -1 5 1 4 -1 3 1 2 -1 0
2  9 1 10 1 11 -1 2 1 3 -1 4 1 5 -1 6 1 7 -1 0
2  11 1 10 -1 9 -1 0
2  13 -1 11 1 10 -1 9 -1 0
2  7 1 6 -1 5 1 4 -1 3 1 2 -1 11 1 10 -1 9 -1 0
1
1.000000000000000 0.000000000000000 0.000000000000000 0.000000000000000 
0.000000000000000 1.000000000000000 0.000000000000000 0.000000000000000 
0.000000000000000 0.000000000000000 1.000000000000000 0.000000000000000 
1
0.000000000000000 -0.000000000000000 1.000000000000000 1858.000000000000000 
-0.000000000000000 -1.000000000000000 0.000000000000000 0.000000000000000 
1.000000000000000 0.000000000000000 -0.000000000000000 0.000000000000000 
2  21 1 22 1 6 -1 5 1 4 -1 3 1 2 -1 11 1 10 -1 9 -1 0
2  9 1 10 1 11 -1 13 1 2 1 3 -1 4 1 5 -1 6 1 7 -1 0
2  11 -1 2 1 3 -1 4 1 5 -1 6 1 7 -1 0
2  21 1 22 1 7 -1 0
1
1.000000000000000 0.000000000000000 0.000000000000000 -12.000000000000000 
0.000000000000000 1.000000000000000 0.000000000000000 0.000000000000003 
0.000000000000000 0.000000000000000 1.000000000000000 -0.000000000000000 
2  21 1 22 1 7 -1 27 1 0
2  7 1 22 -1 21 -1 0
2  27 -1 7 1 22 -1 21 -1 0
2  22 -1 21 -1 0
2  11 -1 2 1 3 -1 4 1 5 -1 6 1 7 -1 27 -1 7 1 22 -1 21 -1 0
2  21 1 22 1 7 -1 27 1 7 1 6 -1 5 1 4 -1 3 1 2 -1 11 1 10 -1 9 -1 0
2  4 1 5 -1 6 1 7 -1 0
2  11 -1 13 1 2 1 3 -1 0
2  9 1 10 1 11 -1 13 1 2 1 3 -1 0
1
1.000000000000000 0.000000000000000 0.000000000000000 0.000000000000000 
0.000000000000000 1.000000000000000 0.000000000000000 0.000000000000000 
0.000000000000000 0.000000000000000 1.000000000000000 0.000000000000000 
1
1.000000000000000 0.000000000000000 0.000000000000000 0.000000000000000 
0.000000000000000 -0.000000000000000 -1.000000000000000 -15.000000000000000 
0.000000000000000 1.000000000000000 -0.000000000000000 -0.000000000000003 
2  37 1 38 1 2 -1 13 -1 11 1 10 -1 9 -1 0
2  37 1 38 1 3 -1 0
2  38 -1 37 -1 0
2  3 1 38 -1 37 -1 0
1
1.000000000000000 0.000000000000000 0.000000000000000 0.000000000000000 
0.000000000000000 1.000000000000000 0.000000000000000 0.000000000000000 
0.000000000000000 0.000000000000000 1.000000000000000 122.000000000000000 
2  43 -1 3 1 38 -1 37 -1 0
2  11 -1 13 1 2 1 38 -1 37 -1 0
2  7 -1 0
2  2 1 3 -1 0
2  3 1 2 -1 0
2  9 1 10 1 11 -1 2 1 3 -1 0
2  3 1 2 -1 13 -1 11 1 10 -1 9 -1 0
2  7 -1 27 1 0
2  21 1 22 1 0
2  6 1 7 -1 0
2  4 1 5 -1 0
2  37 1 38 1 3 -1 43 1 0
2  37 1 38 1 3 -1 4 1 5 -1 0
2  37 1 38 1 3 -1 43 1 4 1 5 -1 0
2  9 1 10 1 11 -1 13 1 2 1 3 -1 4 1 5 -1 0
1
1.000000000000000 0.000000000000000 0.000000000000000 0.000000000000000 
0.000000000000000 1.000000000000000 0.000000000000000 0.000000000000000 
0.000000000000000 0.000000000000000 1.000000000000000 0.000000000000000 
1
0.000000000000000 0.000000000000000 -1.000000000000000 999.989999999999668 
0.000000000000000 -1.000000000000000 0.000000000000000 0.000000000000000 
-1.000000000000000 0.000000000000000 0.000000000000000 0.000000000000000 
2  59 1 60 1 5 -1 0
2  5 1 60 -1 59 -1 0
1
1.000000000000000 0.000000000000000 0.000000000000000 2146.227337951887421 
0.000000000000000 1.000000000000000 0.000000000000000 0.000000000000477 
0.000000000000000 0.000000000000000 1.000000000000000 -0.000000000000000 
2  63 -1 5 1 60 -1 59 -1 0
2  60 -1 59 -1 0
2  4 1 60 -1 59 -1 0
2  3 -1 43 1 4 1 5 -1 6 1 7 -1 0
2  37 1 38 1 0
Curve2ds 112
1 250.00000000000000000 0.00000000000000000 0.00000000000000000 -1.00000000000000000 
1 -280.02438952777083614 436.95102724475054856 0.00000000000000000 -1.00000000000000000 
1 0.00000000000000000 0.00000000000000000 0.00000000000000000 -1.00000000000000000 
1 212.51306437876860400 0.00000000000000000 0.00000000000000000 -1.00000000000000000 
1 -30.02438952777083614 436.95102724475054856 -1.00000000000000000 0.00000000000000000 
1 0.00000000000000000 0.00000000000000000 1.00000000000000000 0.00000000000000000 
1 0.00000000000000000 -15.00000000000000000 1.00000000000000000 0.00000000000000000 
1 0.00000000000000000 -0.00000000000000000 0.00000000000000000 -1.00000000000000000 
1 -280.02438952777083614 147.21892803172977437 0.56394902148175152 -0.82580960346182397 
1 0.00000000000000000 0.00000000000000000 -0.00000000000000000 -1.00000000000000000 
1 80.00000000000000000 0.00000000000000000 0.00000000000000000 -1.00000000000000000 
1 -160.02438952777083614 436.95102724475123068 -0.00000000000000022 -1.00000000000000000 
1 0.00000000000000000 0.00000000000000000 1.00000000000000000 0.00000000000000000 
1 0.00000000000000266 -12.00000000000000000 1.00000000000000000 0.00000000000000000 
1 -40.00000000000002132 65.00000000000000000 0.00000000000000022 -1.00000000000000000 
1 -160.02438952777083614 424.95102724475123068 1.00000000000000000 -0.00000000000000022 
1 -30.02438952777083614 224.43796286598194456 0.00000000000000000 1.00000000000000000 
1 0.00000000000000000 0.00000000000000000 1.00000000000000000 0.00000000000000000 
1 0.00000000000000000 -15.00000000000000000 1.00000000000000000 0.00000000000000000 
1 331.47561047222916386 -304.91869931435894614 -0.56394902148175152 0.82580960346182397 
1 0.00000000000000000 0.00000000000000000 1.00000000000000000 0.00000000000000000 
1 0.00000000000000000 -15.00000000000000000 1.00000000000000000 0.00000000000000000 
1 331.47561047222916386 -421.05897275524978340 0.00000000000000000 1.00000000000000000 
1 0.00000000000000000 0.00000000000000000 1.00000000000000000 0.00000000000000000 
1 0.00000000000000000 -15.00000000000000000 1.00000000000000000 0.00000000000000000 
1 81.47561047222916386 -421.05897275524978340 1.00000000000000000 -0.00000000000000000 
1 0.00000000000000000 -0.00000000000000000 1.00000000000000000 0.00000000000000000 
1 0.00000000000000000 -15.00000000000000000 1.00000000000000000 0.00000000000000000 
1 81.47561047222916386 -382.13773414861111632 0.00000000000000000 -1.00000000000000000 
1 0.00000000000000000 0.00000000000000000 1.00000000000000000 0.00000000000000000 
1 0.00000000000000000 -15.00000000000000000 1.00000000000000000 0.00000000000000000 
2 -69.27438952777083614 -27.04897275524945144 0.00000000000000000 1.00000000000000000 -1.00000000000000000 0.00000000000000000 5.00000000000000000
1 0.00000000000000000 0.00000000000000000 1.00000000000000000 0.00000000000000000 
1 0.00000000000000000 -15.00000000000000000 1.00000000000000000 0.00000000000000000 
2 -69.27438952777083614 124.95102724475054856 0.00000000000000000 1.00000000000000000 -1.00000000000000000 0.00000000000000000 5.00000000000000000
1 0.00000000000000000 0.00000000000000000 1.00000000000000000 0.00000000000000000 
1 0.00000000000000000 -15.00000000000000000 1.00000000000000000 0.00000000000000000 
2 -255.02438952777083614 244.95102724475054856 0.00000000000000000 1.00000000000000000 -1.00000000000000000 0.00000000000000000 5.00000000000000000
1 0.00000000000000000 0.00000000000000000 1.00000000000000000 0.00000000000000000 
1 0.00000000000000000 -15.00000000000000000 1.00000000000000000 0.00000000000000000 
2 -255.02438952777083614 356.95102724475054856 0.00000000000000000 1.00000000000000000 -1.00000000000000000 0.00000000000000000 5.00000000000000000
1 125.00000000000000000 7.50000000000000000 -1.00000000000000000 0.00000000000000000 
1 0.00000000000000000 -0.00000000000000000 1.00000000000000000 0.00000000000000000 
1 0.00000000000000000 -122.00000000000000000 1.00000000000000000 0.00000000000000000 
1 81.47561047222916386 -406.05897275524978340 1.00000000000000000 -0.00000000000000000 
1 0.00000000000000000 0.00000000000000000 0.00000000000000000 -1.00000000000000000 
1 0.00000000000000000 0.00000000000000000 1.00000000000000000 0.00000000000000000 
1 0.00000000000000000 -12.00000000000000000 1.00000000000000000 0.00000000000000000 
1 -39.99999999999999289 -65.00000000000000000 1.00000000000000000 0.00000000000000022 
1 40.00000000000000711 -65.00000000000000000 -0.00000000000000022 1.00000000000000000 
1 0.00000000000000000 0.00000000000000000 1.00000000000000000 0.00000000000000000 
1 0.00000000000000000 -12.00000000000000000 1.00000000000000000 0.00000000000000000 
1 39.99999999999997868 65.00000000000000000 -1.00000000000000000 -0.00000000000000022 
1 0.00000000000000000 0.00000000000000000 1.00000000000000000 0.00000000000000000 
1 0.00000000000000000 -12.00000000000000000 1.00000000000000000 0.00000000000000000 
2 0.00000000000000000 -25.00000000000000000 -0.00000000000000022 1.00000000000000000 -1.00000000000000000 -0.00000000000000022 5.00000000000000000
1 0.00000000000000000 0.00000000000000000 1.00000000000000000 0.00000000000000000 
1 0.00000000000000000 -12.00000000000000000 1.00000000000000000 0.00000000000000000 
2 -0.00000000000001421 25.00000000000000000 -0.00000000000000022 1.00000000000000000 -1.00000000000000000 -0.00000000000000022 5.00000000000000000
1 38.92123860663866708 0.00000000000000000 0.00000000000000000 -1.00000000000000000 
1 0.00000000000000000 0.00000000000000000 0.00000000000000000 -1.00000000000000000 
1 0.00000000000000000 0.00000000000000000 0.00000000000000000 -1.00000000000000000 
1 116.14027344089083726 0.00000000000000000 0.00000000000000000 -1.00000000000000000 
1 250.00000000000000000 0.00000000000000000 0.00000000000000000 -1.00000000000000000 
1 0.00000000000000000 0.00000000000000000 0.00000000000000000 -1.00000000000000000 
1 250.00000000000000000 0.00000000000000000 -1.00000000000000000 -0.00000000000000000 
1 0.00000000000000000 0.00000000000000000 0.00000000000000000 -1.00000000000000000 
1 6.28318530717958623 0.00000000000000000 0.00000000000000000 -1.00000000000000000 
1 0.00000000000000000 0.00000000000000000 0.00000000000000000 -1.00000000000000000 
1 6.28318530717958623 0.00000000000000000 0.00000000000000000 -1.00000000000000000 
1 0.00000000000000000 0.00000000000000000 0.00000000000000000 -1.00000000000000000 
1 6.28318530717958623 0.00000000000000000 0.00000000000000000 -1.00000000000000000 
1 0.00000000000000000 0.00000000000000000 0.00000000000000000 -1.00000000000000000 
1 6.28318530717958623 0.00000000000000000 0.00000000000000000 -1.00000000000000000 
1 15.00000000000000000 -0.00000000000000000 0.00000000000000000 -1.00000000000000000 
1 0.00000000000000000 -0.00000000000000000 0.00000000000000000 -1.00000000000000000 
1 0.00000000000000000 -0.00000000000000000 0.00000000000000000 -1.00000000000000000 
1 250.00000000000000000 0.00000000000000000 0.00000000000000000 -1.00000000000000000 
2 120.00000000000000000 -61.00000000000000000 1.00000000000000000 -0.00000000000000000 -0.00000000000000000 -1.00000000000000000 5.00000000000000000
1 0.00000000000000000 -15.00000000000056843 1.00000000000000000 0.00000000000000000 
2 210.00000000000000000 -61.00000000000000000 1.00000000000000000 -0.00000000000000000 -0.00000000000000000 -1.00000000000000000 5.00000000000000000
1 0.00000000000000000 -15.00000000000056843 1.00000000000000000 0.00000000000000000 
1 80.00000000000000000 -0.00000000000000000 -0.00000000000000000 -1.00000000000000000 
1 0.00000000000000000 0.00000000000000000 0.00000000000000000 -1.00000000000000000 
1 6.28318530717958623 0.00000000000000000 0.00000000000000000 -1.00000000000000000 
1 0.00000000000000000 0.00000000000000000 0.00000000000000000 -1.00000000000000000 
1 6.28318530717958623 0.00000000000000000 0.00000000000000000 -1.00000000000000000 
1 0.00000000000000000 0.00000000000000000 0.00000000000000000 -1.00000000000000000 
1 250.00000000000000000 0.00000000000000000 0.00000000000000000 -1.00000000000000000 
1 0.00000000000000000 0.00000000000000000 1.00000000000000000 0.00000000000000000 
1 -0.00000000000000000 -122.00000000000000000 1.00000000000000000 0.00000000000000000 
1 125.00000000000000000 -7.50000000000000000 -0.00000000000000000 1.00000000000000000 
1 0.00000000000000000 0.00000000000000000 0.00000000000000000 -1.00000000000000000 
1 15.00000000000000000 0.00000000000000000 0.00000000000000000 -1.00000000000000000 
1 -125.00000000000000000 7.50000000000000000 0.00000000000000000 -1.00000000000000000 
1 0.00000000000000000 -0.00000000000000000 1.00000000000000000 0.00000000000000000 
1 0.00000000000000000 -122.00000000000000000 1.00000000000000000 0.00000000000000000 
1 0.00000000000000000 0.00000000000000000 1.00000000000000000 0.00000000000000000 
1 0.00000000000000000 -122.00000000000000000 1.00000000000000000 0.00000000000000000 
1 -125.00000000000000000 -7.50000000000000000 1.00000000000000000 0.00000000000000000 
1 0.00000000000000000 0.00000000000000000 1.00000000000000000 0.00000000000000000 
1 0.00000000000000000 -2146.22733795188742079 1.00000000000000000 0.00000000000000000 
2 0.00000000000000000 0.00000000000000000 1.00000000000000000 -0.00000000000000022 0.00000000000000022 1.00000000000000000 5.00000000000000000
2 40.00000000000000000 -61.00000000000000000 -1.00000000000000000 -0.00000000000000000 0.00000000000000000 -1.00000000000000000 5.00000000000000000
1 0.00000000000000000 0.00000000000000000 1.00000000000000000 0.00000000000000000 
1 0.00000000000000000 -2146.22733795188742079 1.00000000000000000 0.00000000000000000 
2 0.00000000000000000 0.00000000000000000 1.00000000000000000 -0.00000000000000022 0.00000000000000022 1.00000000000000000 5.00000000000000000
2 130.00000000000000000 -61.00000000000000000 -1.00000000000000000 -0.00000000000000000 0.00000000000000000 -1.00000000000000000 5.00000000000000000
1 0.00000000000000000 0.00000000000000000 0.00000000000000000 -1.00000000000000000 
1 6.28318530717958623 0.00000000000000000 0.00000000000000000 -1.00000000000000000 
1 0.00000000000000000 0.00000000000000000 0.00000000000000000 -1.00000000000000000 
1 6.28318530717958623 0.00000000000000000 0.00000000000000000 -1.00000000000000000 
Curves 49
1 1858.00000000000000000 3134.00000000000000000 0.00000000000000000 0.00000000000000000 0.00000000000000000 1.00000000000000000 
1 1568.26790078697922581 3134.00000000000000000 0.00000000000000000 0.00000000000000000 0.00000000000000000 1.00000000000000000 
1 1858.00000000000000000 3134.00000000000000000 0.00000000000000000 -1.00000000000000000 0.00000000000000000 0.00000000000000000 
1 1858.00000000000000000 2884.00000000000000000 0.00000000000000000 0.00000000000000000 0.00000000000000000 1.00000000000000000 
1 1858.00000000000000000 2884.00000000000000000 0.00000000000000000 0.00000000000000000 1.00000000000000000 0.00000000000000000 
1 1038.91123860663833511 2772.50000000000000000 0.00000000000000000 0.00000000000000000 0.00000000000000000 1.00000000000000000 
1 1568.26790078697922581 3134.00000000000000000 0.00000000000000000 -0.82580960346182397 -0.56394902148175152 0.00000000000000000 
1 1858.00000000000068212 3014.00000000000000000 -0.00000000000000000 -1.00000000000000000 0.00000000000000022 -0.00000000000000000 
1 3014.00000000000000000 0.00000000000000000 0.00000000000000000 -1.00000000000000000 0.00000000000000000 0.00000000000000000 
1 1645.48693562123139600 2884.00000000000000000 0.00000000000000000 1.00000000000000000 0.00000000000000000 0.00000000000000000 
1 1116.13027344089050530 2522.50000000000000000 0.00000000000000000 0.82580960346182397 0.56394902148175152 0.00000000000000000 
1 999.98999999999966803 2522.50000000000000000 0.00000000000000000 1.00000000000000000 0.00000000000000000 0.00000000000000000 
1 999.98999999999966803 2772.50000000000000000 0.00000000000000000 0.00000000000000000 -1.00000000000000000 0.00000000000000000 
1 1038.91123860663833511 2772.50000000000000000 0.00000000000000000 -1.00000000000000000 0.00000000000000000 0.00000000000000000 
2 1394.00000000000000000 2923.25000000000000000 0.00000000000000000 0.00000000000000000 0.00000000000000000 1.00000000000000000 1.00000000000000000 0.00000000000000000 -0.00000000000000000 -0.00000000000000000 1.00000000000000000 0.00000000000000000 5.00000000000000000
2 1546.00000000000000000 2923.25000000000000000 0.00000000000000000 0.00000000000000000 0.00000000000000000 1.00000000000000000 1.00000000000000000 0.00000000000000000 -0.00000000000000000 -0.00000000000000000 1.00000000000000000 0.00000000000000000 5.00000000000000000
2 1666.00000000000000000 3109.00000000000000000 0.00000000000000000 0.00000000000000000 0.00000000000000000 1.00000000000000000 1.00000000000000000 0.00000000000000000 -0.00000000000000000 -0.00000000000000000 1.00000000000000000 0.00000000000000000 5.00000000000000000
2 1778.00000000000000000 3109.00000000000000000 0.00000000000000000 0.00000000000000000 0.00000000000000000 1.00000000000000000 1.00000000000000000 0.00000000000000000 -0.00000000000000000 -0.00000000000000000 1.00000000000000000 0.00000000000000000 5.00000000000000000
1 1014.98999999999966803 2772.50000000000000000 0.00000000000000000 0.00000000000000000 -1.00000000000000000 0.00000000000000000 
1 1645.48693562123139600 2884.00000000000000000 0.00000000000000000 0.00000000000000000 0.00000000000000000 1.00000000000000000 
1 2884.00000000000000000 0.00000000000000000 0.00000000000000000 0.00000000000000000 -1.00000000000000000 0.00000000000000000 
1 2884.00000000000000000 -80.00000000000000000 0.00000000000000000 1.00000000000000000 0.00000000000000000 0.00000000000000000 
1 3014.00000000000000000 -80.00000000000000000 0.00000000000000000 0.00000000000000000 1.00000000000000000 0.00000000000000000 
2 2924.00000000000000000 -40.00000000000000000 0.00000000000000000 0.00000000000000000 0.00000000000000000 1.00000000000000000 1.00000000000000000 0.00000000000000000 -0.00000000000000000 -0.00000000000000000 1.00000000000000000 0.00000000000000000 5.00000000000000000
2 2974.00000000000000000 -40.00000000000000000 0.00000000000000000 0.00000000000000000 0.00000000000000000 1.00000000000000000 1.00000000000000000 0.00000000000000000 -0.00000000000000000 -0.00000000000000000 1.00000000000000000 0.00000000000000000 5.00000000000000000
1 999.98999999999966803 2772.50000000000000000 0.00000000000000000 0.00000000000000000 0.00000000000000000 1.00000000000000000 
1 1858.00000000000068212 3014.00000000000000000 -80.00000000000000000 -1.00000000000000000 0.00000000000000022 -0.00000000000000000 
1 1116.13027344089050530 2522.50000000000000000 0.00000000000000000 0.00000000000000000 0.00000000000000000 1.00000000000000000 
1 999.98999999999966803 2522.50000000000000000 0.00000000000000000 0.00000000000000000 0.00000000000000000 1.00000000000000000 
1 1399.00000000000000000 2923.25000000000000000 0.00000000000000000 0.00000000000000000 0.00000000000000000 1.00000000000000000 
1 1551.00000000000000000 2923.25000000000000000 0.00000000000000000 0.00000000000000000 0.00000000000000000 1.00000000000000000 
1 1671.00000000000000000 3109.00000000000000000 0.00000000000000000 0.00000000000000000 0.00000000000000000 1.00000000000000000 
1 1783.00000000000000000 3109.00000000000000000 0.00000000000000000 0.00000000000000000 0.00000000000000000 1.00000000000000000 
1 1014.98999999999966803 2772.50000000000000000 15.00000000000000000 0.00000000000000000 0.00000000000000000 1.00000000000000000 
1 1014.98999999999966803 2522.50000000000000000 15.00000000000000000 0.00000000000000000 0.00000000000000000 1.00000000000000000 
2 1014.98999999999966803 2652.50000000000000000 76.00000000000000000 -1.00000000000000000 -0.00000000000000022 0.00000000000000000 0.00000000000000022 -1.00000000000000000 0.00000000000000000 0.00000000000000000 0.00000000000000000 1.00000000000000000 5.00000000000000000
2 1014.98999999999966803 2562.50000000000000000 76.00000000000000000 -1.00000000000000000 -0.00000000000000022 0.00000000000000000 0.00000000000000022 -1.00000000000000000 0.00000000000000000 0.00000000000000000 0.00000000000000000 1.00000000000000000 5.00000000000000000
1 1858.00000000000068212 2884.00000000000000000 -80.00000000000000000 -1.00000000000000000 0.00000000000000022 -0.00000000000000000 
1 1858.00000000000068212 2929.00000000000000000 -40.00000000000000000 -1.00000000000000000 0.00000000000000022 -0.00000000000000000 
1 1858.00000000000068212 2979.00000000000000000 -40.00000000000000000 -1.00000000000000000 0.00000000000000022 -0.00000000000000000 
1 999.98999999999966803 2772.50000000000000000 15.00000000000000000 0.00000000000000000 0.00000000000000000 1.00000000000000000 
1 999.98999999999966803 2772.50000000000000000 0.00000000000000000 1.00000000000000000 0.00000000000000000 0.00000000000000000 
1 999.98999999999966803 2522.50000000000000000 15.00000000000000000 0.00000000000000000 0.00000000000000000 1.00000000000000000 
1 1014.98999999999966803 2522.50000000000000000 0.00000000000000000 -1.00000000000000000 0.00000000000000000 0.00000000000000000 
1 999.98999999999966803 2522.50000000000000000 0.00000000000000000 0.00000000000000000 1.00000000000000000 0.00000000000000000 
2 -2562.50000000000000000 76.00000000000000000 0.00000000000000000 0.00000000000000000 0.00000000000000000 1.00000000000000000 1.00000000000000000 0.00000000000000000 -0.00000000000000000 -0.00000000000000000 1.00000000000000000 0.00000000000000000 5.00000000000000000
2 -2652.50000000000000000 76.00000000000000000 0.00000000000000000 0.00000000000000000 0.00000000000000000 1.00000000000000000 1.00000000000000000 0.00000000000000000 -0.00000000000000000 -0.00000000000000000 1.00000000000000000 0.00000000000000000 5.00000000000000000
1 999.98999999999909960 2647.50000000000000000 76.00000000000000000 1.00000000000000000 0.00000000000000022 -0.00000000000000000 
1 999.98999999999909960 2557.50000000000000000 76.00000000000000000 1.00000000000000000 0.00000000000000022 -0.00000000000000000 
Polygon3D 0
PolygonOnTriangulations 0
Surfaces 29
1 1858.00000000000000000 3134.00000000000000000 0.00000000000000000 0.00000000000000000 -1.00000000000000000 0.00000000000000000 -1.00000000000000000 0.00000000000000000 0.00000000000000000 -0.00000000000000000 -0.00000000000000000 -1.00000000000000000 
1 1858.00000000000000000 2884.00000000000000000 0.00000000000000000 -1.00000000000000000 0.00000000000000000 0.00000000000000000 0.00000000000000000 1.00000000000000000 0.00000000000000000 0.00000000000000000 0.00000000000000000 -1.00000000000000000 
1 1421.04897275524945144 -0.00000000000063371 2853.97561047222916386 0.00000000000000000 -1.00000000000000000 -0.00000000000000022 0.00000000000000000 0.00000000000000022 -1.00000000000000000 1.00000000000000000 0.00000000000000000 0.00000000000000000 
1 1645.48693562123139600 2884.00000000000000000 0.00000000000000000 0.00000000000000000 1.00000000000000000 0.00000000000000000 1.00000000000000000 0.00000000000000000 0.00000000000000000 0.00000000000000000 0.00000000000000000 -1.00000000000000000 
1 1568.26790078697922581 3134.00000000000000000 0.00000000000000000 0.56394902148175152 -0.82580960346182397 0.00000000000000000 -0.82580960346182397 -0.56394902148175152 0.00000000000000000 0.00000000000000000 -0.00000000000000000 -1.00000000000000000 
1 1038.91123860663833511 2772.50000000000000000 0.00000000000000000 0.00000000000000000 -1.00000000000000000 0.00000000000000000 -1.00000000000000000 0.00000000000000000 0.00000000000000000 -0.00000000000000000 -0.00000000000000000 -1.00000000000000000 
1 1858.00000000000068212 3014.00000000000000000 -0.00000000000000000 -0.00000000000000000 0.00000000000000000 1.00000000000000000 -0.00000000000000022 -1.00000000000000000 0.00000000000000000 1.00000000000000000 -0.00000000000000022 0.00000000000000000 
1 1858.00000000000068212 3014.00000000000000000 -80.00000000000000000 0.00000000000000022 1.00000000000000000 -0.00000000000000000 0.00000000000000000 0.00000000000000000 1.00000000000000000 1.00000000000000000 -0.00000000000000022 0.00000000000000000 
1 1858.00000000000045475 39.99999999999935341 2949.00000000000000000 1.00000000000000000 0.00000000000000000 0.00000000000000000 -0.00000000000000000 1.00000000000000000 0.00000000000000000 0.00000000000000000 -0.00000000000000000 1.00000000000000000 
1 999.98999999999966803 2522.50000000000000000 0.00000000000000000 0.00000000000000000 1.00000000000000000 0.00000000000000000 1.00000000000000000 0.00000000000000000 0.00000000000000000 0.00000000000000000 0.00000000000000000 -1.00000000000000000 
1 999.98999999999966803 2772.50000000000000000 0.00000000000000000 1.00000000000000000 0.00000000000000000 -0.00000000000000000 0.00000000000000000 -1.00000000000000000 0.00000000000000000 0.00000000000000000 -0.00000000000000000 -1.00000000000000000 
2 1394.00000000000000000 2923.25000000000000000 0.00000000000000000 -0.00000000000000000 -0.00000000000000000 -1.00000000000000000 1.00000000000000000 0.00000000000000000 0.00000000000000000 -0.00000000000000000 1.00000000000000000 -0.00000000000000000 5.00000000000000000
2 1546.00000000000000000 2923.25000000000000000 0.00000000000000000 -0.00000000000000000 -0.00000000000000000 -1.00000000000000000 1.00000000000000000 0.00000000000000000 0.00000000000000000 -0.00000000000000000 1.00000000000000000 -0.00000000000000000 5.00000000000000000
2 1666.00000000000000000 3109.00000000000000000 0.00000000000000000 -0.00000000000000000 -0.00000000000000000 -1.00000000000000000 1.00000000000000000 0.00000000000000000 0.00000000000000000 -0.00000000000000000 1.00000000000000000 -0.00000000000000000 5.00000000000000000
2 1778.00000000000000000 3109.00000000000000000 0.00000000000000000 -0.00000000000000000 -0.00000000000000000 -1.00000000000000000 1.00000000000000000 0.00000000000000000 0.00000000000000000 -0.00000000000000000 1.00000000000000000 -0.00000000000000000 5.00000000000000000
1 1007.48999999999966803 -15.00000000000058797 2647.50000000000000000 0.00000000000000000 1.00000000000000000 0.00000000000000023 0.00000000000000000 -0.00000000000000023 1.00000000000000000 1.00000000000000000 0.00000000000000000 -0.00000000000000000 
1 1014.98999999999966803 2772.50000000000000000 15.00000000000000000 1.00000000000000000 0.00000000000000000 -0.00000000000000000 0.00000000000000000 -1.00000000000000000 0.00000000000000000 0.00000000000000000 -0.00000000000000000 -1.00000000000000000 
1 1858.00000000000068212 2884.00000000000000000 -0.00000000000000000 -0.00000000000000022 -1.00000000000000000 0.00000000000000000 0.00000000000000000 -0.00000000000000000 -1.00000000000000000 1.00000000000000000 -0.00000000000000022 0.00000000000000000 
2 1858.00000000000068212 2924.00000000000000000 -40.00000000000000000 1.00000000000000000 -0.00000000000000022 0.00000000000000000 0.00000000000000022 1.00000000000000000 0.00000000000000000 -0.00000000000000000 0.00000000000000000 1.00000000000000000 5.00000000000000000
2 1858.00000000000068212 2974.00000000000000000 -40.00000000000000000 1.00000000000000000 -0.00000000000000022 0.00000000000000000 0.00000000000000022 1.00000000000000000 0.00000000000000000 -0.00000000000000000 0.00000000000000000 1.00000000000000000 5.00000000000000000
1 1116.13027344089050530 2522.50000000000000000 0.00000000000000000 -0.56394902148175152 0.82580960346182397 0.00000000000000000 0.82580960346182397 0.56394902148175152 0.00000000000000000 0.00000000000000000 0.00000000000000000 -1.00000000000000000 
1 999.98999999999966803 2522.50000000000000000 15.00000000000000000 -1.00000000000000000 0.00000000000000000 0.00000000000000000 0.00000000000000000 1.00000000000000000 0.00000000000000000 0.00000000000000000 0.00000000000000000 -1.00000000000000000 
1 999.98999999999966803 2772.50000000000000000 15.00000000000000000 -0.00000000000000000 1.00000000000000000 0.00000000000000000 1.00000000000000000 0.00000000000000000 -0.00000000000000000 -0.00000000000000000 0.00000000000000000 -1.00000000000000000 
1 1014.98999999999966803 2522.50000000000000000 15.00000000000000000 0.00000000000000000 -1.00000000000000000 0.00000000000000000 -1.00000000000000000 0.00000000000000000 0.00000000000000000 -0.00000000000000000 -0.00000000000000000 -1.00000000000000000 
2 999.98999999999909960 2652.50000000000000000 76.00000000000000000 -1.00000000000000000 -0.00000000000000022 0.00000000000000000 0.00000000000000022 -1.00000000000000000 0.00000000000000000 0.00000000000000000 0.00000000000000000 1.00000000000000000 5.00000000000000000
2 999.98999999999909960 2562.50000000000000000 76.00000000000000000 -1.00000000000000000 -0.00000000000000022 0.00000000000000000 0.00000000000000022 -1.00000000000000000 0.00000000000000000 0.00000000000000000 0.00000000000000000 1.00000000000000000 5.00000000000000000
1 1858.00000000000068212 2884.00000000000000000 -80.00000000000000000 0.00000000000000000 -0.00000000000000000 -1.00000000000000000 0.00000000000000022 1.00000000000000000 0.00000000000000000 1.00000000000000000 -0.00000000000000022 0.00000000000000000 
1 999.98999999999898591 -76.00000000000056843 2562.50000000000000000 -1.00000000000000000 -0.00000000000000000 0.00000000000000000 -0.00000000000000000 0.00000000000000000 -1.00000000000000000 0.00000000000000000 -1.00000000000000000 -0.00000000000000000 
1 999.98999999999898591 -76.00000000000058265 2652.50000000000000000 -1.00000000000000000 -0.00000000000000000 0.00000000000000000 -0.00000000000000000 0.00000000000000000 -1.00000000000000000 0.00000000000000000 -1.00000000000000000 -0.00000000000000000 
Triangulations 0

TShapes 162
Ve
0.000000100000000
1858.000000000000000 3134.000000000000000 0.000000000000000
0 0

0101101
*
Ed
 0.000000100000000 1 1 0
1  1 0 0.000000000000000 15.000000000000000
2  1 2 0 0.000000000000000 15.000000000000000
0

0101000
+162 12 -162 14 *
Ve
0.000000100000000
1568.267900786979226 3134.000000000000000 0.000000000000000
0 0

0101101
*
Ed
 0.000000100000000 1 1 0
1  2 0 0.000000000000000 15.000000000000000
0

0101000
+160 12 -160 14 *
Ed
 0.000000100000000 1 1 0
1  3 0 0.000000000000000 289.732099213020774
2  2 3 15 0.000000000000000 289.732099213020774
0

0101000
+162 0 -160 0 *
Wi

0101100
+161 0 -159 0 -158 12 +158 14 *
Fa
0  0.000000100000000 1 0

0111000
+157 0 *
Ve
0.000000100000909
1858.000000000000227 2884.000000000000000 -0.000000000000000
0 0

0101101
*
Ve
0.000000100000000
1858.000000000000000 2884.000000000000000 0.000000000000000
0 0

0101101
*
Ed
 0.000000100000000 1 1 0
1  4 0 0.000000000000000 15.000000000000000
2  3 2 0 0.000000000000000 15.000000000000000
2  4 4 0 0.000000000000000 15.000000000000000
0

0101000
+155 16 -154 14 *
Ve
0.000000100000682
3014.000000000000000 0.000000000000000 0.000000000000000
0 0

0101101
*
Ed
 0.000000100000682 1 1 0
1  5 0 0.000000000000000 130.000000000000000
2  5 3 15 0.000000000000000 130.000000000000000
2  6 2 18 0.000000000000000 130.000000000000000
2  7 2 19 0.000000000000000 130.000000000000000
0

0101000
+155 20 -152 23 *
Ed
 0.000000100000000 1 1 0
1  5 0 130.000000000000000 250.000000000000000
2  5 3 15 130.000000000000000 250.000000000000000
2  6 2 18 130.000000000000000 250.000000000000000
2  7 2 19 130.000000000000000 250.000000000000000
0

0101000
+152 23 -162 0 *
Ed
 0.000000100000000 1 1 0
1  5 0 0.000000000000000 250.000000000000000
2  5 3 15 0.000000000000000 250.000000000000000
2  6 2 18 0.000000000000000 250.000000000000000
2  7 2 19 0.000000000000000 250.000000000000000
0

0101000
+154 0 -162 0 *
Wi

0101100
+153 8 -161 8 -151 17 -150 17 +149 24 *
Fa
0  0.000000100000000 2 8

0111000
+148 0 *
Ve
0.000000100000000
1038.911238606638335 2772.500000000000000 0.000000000000000
0 0

0101101
*
Ed
 0.000000100000000 1 1 0
1  6 0 0.000000000000000 15.000000000000000
2  8 6 0 0.000000000000000 15.000000000000000
0

0101000
+146 12 -146 14 *
Ed
 0.000000100000000 1 1 0
1  7 0 0.000000000000000 641.015386550675203
2  9 3 15 0.000000000000000 641.015386550675203
0

0101000
+160 0 -146 0 *
Wi

0101100
+159 0 -145 0 -144 12 +144 14 *
Fa
0  0.000000100000000 5 0

0111000
+143 0 *
Ed
 0.000000100000000 1 1 0
1  8 0 0.000000000000000 12.000000000000000
2  10 7 0 0.000000000000000 12.000000000000000
2  11 8 0 0.000000000000000 12.000000000000000
2  12 3 25 0.000000000000000 12.000000000000000
0

0101000
+152 26 -152 28 *
Ve
0.000000100000000
2884.000000000000000 0.000000000000000 0.000000000000000
0 0

0101101
*
Ed
 0.000000100000000 1 1 0
1  9 0 0.000000000000000 130.000000000000000
2  13 7 29 0.000000000000000 130.000000000000000
2  14 7 30 0.000000000000000 130.000000000000000
2  15 9 31 0.000000000000000 130.000000000000000
2  16 3 32 0.000000000000000 130.000000000000000
0

0101000
+152 0 -140 0 *
Ve
0.000000100000000
1645.486935621231396 2884.000000000000000 0.000000000000000
0 0

0101101
*
Ed
 0.000000100000000 1 1 0
1  10 0 0.000000000000000 200.513064378769286
2  17 3 15 0.000000000000000 200.513064378769286
2  18 4 18 0.000000000000000 200.513064378769286
2  19 4 19 0.000000000000000 200.513064378769286
0

0101000
+138 0 -140 33 *
Ve
0.000000100000000
1116.130273440890505 2522.500000000000000 0.000000000000000
0 0

0101101
*
Ed
 0.000000100000000 1 1 0
1  11 0 0.000000000000000 641.015386550675203
2  20 3 15 0.000000000000000 641.015386550675203
0

0101000
+136 0 -138 0 *
Ve
0.000000100000000
999.989999999999668 2522.500000000000000 0.000000000000000
0 0

0101101
*
Ed
 0.000000100000000 1 1 0
1  12 0 0.000000000000000 116.140273440890837
2  21 10 18 0.000000000000000 116.140273440890837
2  22 10 19 0.000000000000000 116.140273440890837
2  23 3 15 0.000000000000000 116.140273440890837
0

0101000
+134 0 -136 0 *
Ve
0.000000100000000
999.989999999999668 2772.500000000000000 0.000000000000000
0 0

0101101
*
Ed
 0.000000100000000 1 1 0
1  13 0 0.000000000000000 250.000000000000000
2  24 11 18 0.000000000000000 250.000000000000000
2  25 11 19 0.000000000000000 250.000000000000000
2  26 3 15 0.000000000000000 250.000000000000000
0

0101000
+132 0 -134 0 *
Ed
 0.000000100000000 1 1 0
1  14 0 0.000000000000000 38.921238606638667
2  27 6 18 0.000000000000000 38.921238606638667
2  28 6 19 0.000000000000000 38.921238606638667
2  29 3 15 0.000000000000000 38.921238606638667
0

0101000
+146 0 -132 0 *
Wi

0101100
+150 17 -141 0 -139 28 +137 17 +135 17 +133 17 +131 17 +130 17 +144 17 +158 17 
*
Ve
0.000000100000000
1399.000000000000000 2923.250000000000000 0.000000000000000
0 0

0101101
*
Ed
 0.000000100000000 1 1 0
1  15 0 0.000000000000000 6.283185307179586
2  30 12 18 0.000000000000000 6.283185307179586
2  31 12 19 0.000000000000000 6.283185307179586
2  32 3 15 0.000000000000000 6.283185307179586
0

0101000
+128 0 -128 0 *
Wi

0101100
-127 17 *
Ve
0.000000100000000
1551.000000000000000 2923.250000000000000 0.000000000000000
0 0

0101101
*
Ed
 0.000000100000000 1 1 0
1  16 0 0.000000000000000 6.283185307179586
2  33 13 18 0.000000000000000 6.283185307179586
2  34 13 19 0.000000000000000 6.283185307179586
2  35 3 15 0.000000000000000 6.283185307179586
0

0101000
+125 0 -125 0 *
Wi

0101100
-124 17 *
Ve
0.000000100000000
1671.000000000000000 3109.000000000000000 0.000000000000000
0 0

0101101
*
Ed
 0.000000100000000 1 1 0
1  17 0 0.000000000000000 6.283185307179586
2  36 14 18 0.000000000000000 6.283185307179586
2  37 14 19 0.000000000000000 6.283185307179586
2  38 3 15 0.000000000000000 6.283185307179586
0

0101000
+122 0 -122 0 *
Wi

0101100
-121 17 *
Ve
0.000000100000000
1783.000000000000000 3109.000000000000000 0.000000000000000
0 0

0101101
*
Ed
 0.000000100000000 1 1 0
1  18 0 0.000000000000000 6.283185307179586
2  39 15 18 0.000000000000000 6.283185307179586
2  40 15 19 0.000000000000000 6.283185307179586
2  41 3 15 0.000000000000000 6.283185307179586
0

0101000
+119 0 -119 0 *
Wi

0101100
-118 17 *
Fa
0  0.000000100000000 3 25

0111000
+129 0 +126 0 +123 0 +120 0 +117 0 *
Ed
 0.000000100000000 1 1 0
1  10 0 0.000000000000000 212.513064378768604
2  17 3 15 0.000000000000000 212.513064378768604
2  18 4 18 0.000000000000000 212.513064378768604
2  19 4 19 0.000000000000000 212.513064378768604
0

0101000
+138 0 -154 0 *
Ve
0.000000100000000
1014.989999999999668 2522.500000000000000 0.000000000000000
0 0

0101101
*
Ed
 0.000000100000000 1 1 0
1  12 0 15.000000000000000 116.140273440890837
2  21 10 18 15.000000000000000 116.140273440890837
2  22 10 19 15.000000000000000 116.140273440890837
2  23 3 15 15.000000000000000 116.140273440890837
0

0101000
+114 39 -136 0 *
Ve
0.000000100000000
1014.989999999999668 2772.500000000000000 0.000000000000000
0 0

0101101
*
Ed
 0.000000100000000 1 1 0
1  19 0 0.000000000000000 250.000000000000000
2  42 16 41 0.000000000000000 250.000000000000000
2  43 17 42 0.000000000000000 250.000000000000000
2  44 17 44 0.000000000000000 250.000000000000000
2  45 3 45 0.000000000000000 250.000000000000000
0

0101000
+112 0 -114 0 *
Ed
 0.000000100000000 1 1 0
1  14 0 0.000000000000000 23.921238606638667
2  27 6 18 0.000000000000000 23.921238606638667
2  28 6 19 0.000000000000000 23.921238606638667
2  29 3 15 0.000000000000000 23.921238606638667
0

0101000
+146 0 -112 39 *
Wi

0101100
+149 36 +115 36 +135 36 +113 36 +111 40 +110 36 +144 36 +158 36 *
Wi

0101100
-127 36 *
Wi

0101100
-124 36 *
Wi

0101100
-121 36 *
Wi

0101100
-118 36 *
Fa
0  0.000000100000000 3 35

0111000
+109 0 +108 0 +107 0 +106 0 +105 0 *
Ed
 0.000000100000000 1 1 0
1  20 0 0.000000000000000 15.000000000000000
2  46 4 0 0.000000000000000 15.000000000000000
0

0101000
+138 12 -138 14 *
Ed
 0.000000100000000 1 1 0
1  10 0 200.513064378769286 212.513064378768604
2  17 3 15 200.513064378769286 212.513064378768604
2  18 4 18 200.513064378769286 212.513064378768604
2  19 4 19 200.513064378769286 212.513064378768604
0

0101000
+140 33 -155 20 *
Wi

0101100
+103 8 -153 8 -137 17 -102 17 +115 24 *
Fa
0  0.000000100000000 4 8

0111000
+101 0 *
Ve
0.000000100000000
2884.000000000000000 -80.000000000000000 0.000000000000000
0 0

0101101
*
Ed
 0.000000100000000 1 1 0
1  21 0 0.000000000000000 80.000000000000000
2  47 18 29 0.000000000000000 80.000000000000000
2  48 18 30 0.000000000000000 80.000000000000000
2  49 9 31 0.000000000000000 80.000000000000000
0

0101000
+155 29 -99 0 *
Ve
0.000000100000000
3014.000000000000000 -80.000000000000000 0.000000000000000
0 0

0101101
*
Ed
 0.000000100000000 1 1 0
1  22 0 0.000000000000000 130.000000000000000
2  50 9 31 0.000000000000000 130.000000000000000
0

0101000
+99 0 -97 0 *
Ed
 0.000000100000000 1 1 0
1  23 0 0.000000000000000 80.000000000000000
2  51 8 29 0.000000000000000 80.000000000000000
2  52 8 30 0.000000000000000 80.000000000000000
2  53 9 31 0.000000000000000 80.000000000000000
0

0101000
+97 0 -152 0 *
Wi

0101100
-151 17 +98 26 +96 26 +95 26 *
Ve
0.000000100000000
2929.000000000000000 -40.000000000000000 0.000000000000000
0 0

0101101
*
Ed
 0.000000100000000 1 1 0
1  24 0 0.000000000000000 6.283185307179586
2  54 19 29 0.000000000000000 6.283185307179586
2  55 19 30 0.000000000000000 6.283185307179586
2  56 9 31 0.000000000000000 6.283185307179586
0

0101000
+93 0 -93 0 *
Wi

0101100
-92 26 *
Ve
0.000000100000000
2979.000000000000000 -40.000000000000000 0.000000000000000
0 0

0101101
*
Ed
 0.000000100000000 1 1 0
1  25 0 0.000000000000000 6.283185307179586
2  57 20 29 0.000000000000000 6.283185307179586
2  58 20 30 0.000000000000000 6.283185307179586
2  59 9 31 0.000000000000000 6.283185307179586
0

0101000
+90 0 -90 0 *
Wi

0101100
-89 26 *
Fa
0  0.000000100000000 9 46

0111000
+94 0 +91 0 +88 0 *
Ve
0.000000100000000
999.989999999999668 2772.500000000000000 15.000000000000000
0 0

0101101
*
Ed
 0.000000100000000 1 1 0
1  26 0 0.000000000000000 15.000000000000000
2  60 6 0 0.000000000000000 15.000000000000000
2  61 11 0 0.000000000000000 15.000000000000000
0

0101000
+132 12 -86 48 *
Ed
 0.000000100000000 1 1 0
1  14 0 23.921238606638667 38.921238606638667
2  27 6 18 23.921238606638667 38.921238606638667
2  28 6 19 23.921238606638667 38.921238606638667
2  29 3 15 23.921238606638667 38.921238606638667
0

0101000
+112 39 -86 50 *
Wi

0101100
+145 47 -85 47 -130 49 +110 36 +84 36 *
Fa
0  0.000000100000000 6 47

0111000
+83 0 *
Ed
 0.000000100000000 1 1 0
1  27 0 0.000000000000000 12.000000000000000
2  62 8 0 0.000000000000000 12.000000000000000
0

0101000
+97 26 -97 28 *
Wi

0101100
+81 0 -141 0 -95 26 +95 28 *
Fa
0  0.000000100000000 8 0

0111000
+80 0 *
Ed
 0.000000100000000 1 1 0
1  21 0 0.000000000000000 80.000000000000000
2  47 18 29 0.000000000000000 80.000000000000000
2  48 18 30 0.000000000000000 80.000000000000000
2  49 9 31 0.000000000000000 80.000000000000000
0

0101000
+140 0 -99 0 *
Wi

0101100
+139 52 +78 52 +96 52 +95 52 *
Wi

0101100
-92 52 *
Wi

0101100
-89 52 *
Fa
0  0.000000100000000 9 0

0111000
+77 0 +76 0 +75 0 *
Ed
 0.000000100000000 1 1 0
1  28 0 0.000000000000000 15.000000000000000
2  63 10 0 0.000000000000000 15.000000000000000
0

0101000
+136 12 -136 14 *
Wi

0101100
+73 0 -103 0 -135 12 +135 14 *
Fa
0  0.000000100000000 21 0

0111000
+72 0 *
Ve
0.000000100000000
999.989999999999668 2522.500000000000000 15.000000000000000
0 0

0101101
*
Ed
 0.000000100000000 1 1 0
1  29 0 0.000000000000000 15.000000000000000
2  64 11 0 0.000000000000000 15.000000000000000
2  65 10 0 0.000000000000000 15.000000000000000
0

0101000
+134 12 -70 48 *
Ed
 0.000000100000000 1 1 0
1  12 0 0.000000000000000 15.000000000000000
2  21 10 18 0.000000000000000 15.000000000000000
2  22 10 19 0.000000000000000 15.000000000000000
2  23 3 15 0.000000000000000 15.000000000000000
0

0101000
+70 50 -114 39 *
Wi

0101100
+69 47 -73 47 -133 49 +68 36 +113 36 *
Fa
0  0.000000100000000 10 47

0111000
+67 0 *
Ed
 0.000000100000000 1 1 0
1  13 0 0.000000000000000 250.000000000000000
2  24 11 18 0.000000000000000 250.000000000000000
2  25 11 19 0.000000000000000 250.000000000000000
2  26 3 15 0.000000000000000 250.000000000000000
2  66 22 50 0.000000000000000 250.000000000000000
0

0101000
+86 50 -70 50 *
Wi

0101100
+85 47 -69 47 -131 49 +65 36 *
Fa
0  0.000000100000000 11 47

0111000
+64 0 *
Ed
 0.000000100000000 1 1 0
1  30 0 0.000000000000000 15.000000000000000
3  67 68CN 12 0 0.000000000000000 15.000000000000000
0

0101000
+128 12 -128 14 *
Wi

0101100
+62 0 -62 0 -127 12 +127 14 *
Fa
0  0.000000100000000 12 0

0111000
+61 0 *
Ed
 0.000000100000000 1 1 0
1  31 0 0.000000000000000 15.000000000000000
3  69 70CN 13 0 0.000000000000000 15.000000000000000
0

0101000
+125 12 -125 14 *
Wi

0101100
+59 0 -59 0 -124 12 +124 14 *
Fa
0  0.000000100000000 13 0

0111000
+58 0 *
Ed
 0.000000100000000 1 1 0
1  32 0 0.000000000000000 15.000000000000000
3  71 72CN 14 0 0.000000000000000 15.000000000000000
0

0101000
+122 12 -122 14 *
Wi

0101100
+56 0 -56 0 -121 12 +121 14 *
Fa
0  0.000000100000000 14 0

0111000
+55 0 *
Ed
 0.000000100000000 1 1 0
1  33 0 0.000000000000000 15.000000000000000
3  73 74CN 15 0 0.000000000000000 15.000000000000000
0

0101000
+119 12 -119 14 *
Wi

0101100
+53 0 -53 0 -118 12 +118 14 *
Fa
0  0.000000100000000 15 0

0111000
+52 0 *
Ed
 0.000000100000000 1 1 0
1  34 0 0.000000000000000 122.000000000000000
2  75 23 0 0.000000000000000 122.000000000000000
2  76 17 0 0.000000000000000 122.000000000000000
0

0101000
+112 40 -112 55 *
Ed
 0.000000100000000 1 1 0
1  35 0 0.000000000000000 122.000000000000000
2  77 24 0 0.000000000000000 122.000000000000000
2  78 17 0 0.000000000000000 122.000000000000000
0

0101000
+114 40 -114 55 *
Wi

0101100
+50 54 -111 56 +111 57 -49 54 *
Ve
0.000000100000000
1014.989999999999668 2647.500000000000000 76.000000000000000
0 0

0101101
*
Ed
 0.000000100000000 1 1 0
1  36 0 0.000000000000000 6.283185307179586
2  79 17 54 0.000000000000000 6.283185307179586
2  80 25 0 0.000000000000000 6.283185307179586
0

0101000
+47 0 -47 0 *
Wi

0101100
+46 0 *
Ve
0.000000100000000
1014.989999999999668 2557.500000000000000 76.000000000000000
0 0

0101101
*
Ed
 0.000000100000000 1 1 0
1  37 0 0.000000000000000 6.283185307179586
2  81 17 54 0.000000000000000 6.283185307179586
2  82 26 0 0.000000000000000 6.283185307179586
0

0101000
+44 0 -44 0 *
Wi

0101100
+43 0 *
Fa
0  0.000000100000000 17 54

0111000
+48 0 +45 0 +42 0 *
Ed
 0.000000100000000 1 1 0
1  38 0 0.000000000000000 12.000000000000000
2  83 18 0 0.000000000000000 12.000000000000000
0

0101000
+99 26 -99 28 *
Wi

0101100
-102 17 -40 0 -98 26 +78 28 *
Fa
0  0.000000100000000 18 0

0111000
+39 0 *
Wi

0101100
+40 0 -81 0 -96 26 +96 28 *
Fa
0  0.000000100000000 27 0

0111000
+37 0 *
Ed
 0.000000100000000 1 1 0
1  39 0 0.000000000000000 12.000000000000000
3  84 85CN 19 0 0.000000000000000 12.000000000000000
0

0101000
+93 26 -93 28 *
Wi

0101100
+35 0 -35 0 -92 26 +92 28 *
Fa
0  0.000000100000000 19 0

0111000
+34 0 *
Ed
 0.000000100000000 1 1 0
1  40 0 0.000000000000000 12.000000000000000
3  86 87CN 20 0 0.000000000000000 12.000000000000000
0

0101000
+90 26 -90 28 *
Wi

0101100
+32 0 -32 0 -89 26 +89 28 *
Fa
0  0.000000100000000 20 0

0111000
+31 0 *
Ve
0.000000100000000
999.989999999999668 2772.500000000000000 0.000000000000000
0 0

0101101
*
Ed
 0.000000100000000 1 1 0
1  41 0 0.000000000000000 122.000000000000000
2  88 23 0 0.000000000000000 122.000000000000000
2  89 22 0 0.000000000000000 122.000000000000000
0

0101000
+86 0 -29 55 *
Ed
 0.000000100000000 1 1 0
1  42 0 0.000000000000000 15.000000000000000
2  90 23 42 0.000000000000000 15.000000000000000
2  91 23 44 0.000000000000000 15.000000000000000
2  92 16 41 0.000000000000000 15.000000000000000
0

0101000
+29 0 -112 0 *
Wi

0101100
+28 0 -50 0 +84 36 +27 55 *
Fa
0  0.000000100000000 23 0

0111000
+26 0 *
Ve
0.000000100000000
999.989999999999668 2522.500000000000000 0.000000000000000
0 0

0101101
*
Ed
 0.000000100000000 1 1 0
1  43 0 0.000000000000000 122.000000000000000
2  93 22 0 0.000000000000000 122.000000000000000
2  94 24 0 0.000000000000000 122.000000000000000
0

0101000
+70 0 -24 55 *
Ed
 0.000000100000000 1 1 0
1  44 0 0.000000000000000 15.000000000000000
2  95 16 41 0.000000000000000 15.000000000000000
2  96 24 42 0.000000000000000 15.000000000000000
2  97 24 44 0.000000000000000 15.000000000000000
0

0101000
+114 0 -24 0 *
Wi

0101100
+49 0 -23 0 +68 36 +22 55 *
Fa
0  0.000000100000000 24 0

0111000
+21 0 *
Ed
 0.000000100000000 1 1 0
1  45 0 0.000000000000000 250.000000000000000
2  98 22 42 0.000000000000000 250.000000000000000
2  99 22 44 0.000000000000000 250.000000000000000
2  100 16 41 0.000000000000000 250.000000000000000
0

0101000
+24 0 -29 0 *
Wi

0101100
+23 54 +65 58 +19 57 -28 54 *
Ve
0.000000100000568
-2557.500000000000000 76.000000000000000 0.000000000000000
0 0

0101101
*
Ed
 0.000000100000568 1 1 0
1  46 0 0.000000000000000 6.283185307179586
2  101 26 62 0.000000000000000 6.283185307179586
2  102 26 64 0.000000000000000 6.283185307179586
2  103 28 65 0.000000000000000 6.283185307179586
2  104 22 66 0.000000000000000 6.283185307179586
0

0101000
+17 0 -17 0 *
Wi

0101100
-16 61 *
Ve
0.000000100000568
-2647.500000000000000 76.000000000000000 0.000000000000000
0 0

0101101
*
Ed
 0.000000100000568 1 1 0
1  47 0 0.000000000000000 6.283185307179586
2  105 25 62 0.000000000000000 6.283185307179586
2  106 25 64 0.000000000000000 6.283185307179586
2  107 29 65 0.000000000000000 6.283185307179586
2  108 22 66 0.000000000000000 6.283185307179586
0

0101000
+14 0 -14 0 *
Wi

0101100
-13 61 *
Fa
0  0.000000100000000 22 54

0111000
+18 0 +15 0 +12 0 *
Wi

0101100
+27 0 +111 0 +22 0 +19 0 *
Fa
0  0.000000100000000 16 0

0111000
+10 68 *
Ed
 0.000000100000000 1 1 0
1  48 0 0.000000000000000 15.000000000000568
3  109 110CN 25 0 0.000000000000000 15.000000000000568
0

0101000
+14 61 -47 0 *
Wi

0101100
-13 61 -8 0 +46 0 +8 0 *
Fa
0  0.000000100000000 25 0

0111000
+7 0 *
Ed
 0.000000100000000 1 1 0
1  49 0 0.000000000000000 15.000000000000568
3  111 112CN 26 0 0.000000000000000 15.000000000000568
0

0101000
+17 61 -44 0 *
Wi

0101100
-16 61 -5 0 +43 0 +5 0 *
Fa
0  0.000000100000000 26 0

0111000
+4 0 *
Sh

0101100
-156 8 -147 0 -142 8 -116 0 +104 34 -100 0 +87 0 -82 34 +79 0 -74 51 
-71 8 -66 34 -63 34 +60 8 +57 8 +54 8 +51 8 +41 53 +38 0 +36 0 
-33 0 -30 0 +25 34 +20 34 +11 53 -9 67 -6 53 -3 53 *
So

0100000
+2 0 *

+1 1 