
CASCADE Topology V1, (c) Matra-Datavision
Locations 49
1
1.000000000000000 0.000000000000000 0.000000000000000 0.000000000000000 
0.000000000000000 1.000000000000000 0.000000000000000 0.000000000000000 
0.000000000000000 0.000000000000000 1.000000000000000 308.750000000000000 
1
1.000000000000000 0.000000000000000 0.000000000000000 0.000000000000000 
0.000000000000000 1.000000000000000 0.000000000000000 0.000000000000000 
0.000000000000000 0.000000000000000 1.000000000000000 0.000000000000000 
1
1.000000000000000 0.000000000000000 0.000000000000000 0.000000000000000 
0.000000000000000 1.000000000000000 0.000000000000000 0.000000000000000 
0.000000000000000 0.000000000000000 1.000000000000000 0.000000000000000 
2  2 1 3 -1 0
1
1.000000000000000 0.000000000000000 0.000000000000000 0.000000000000000 
0.000000000000000 1.000000000000000 0.000000000000000 0.000000000000000 
0.000000000000000 0.000000000000000 1.000000000000000 0.000000000000000 
1
1.000000000000000 0.000000000000000 0.000000000000000 0.000000000000000 
0.000000000000000 1.000000000000000 0.000000000000000 0.000000000000000 
0.000000000000000 0.000000000000000 1.000000000000000 0.000000000000000 
2  5 1 6 -1 0
1
1.000000000000000 0.000000000000000 0.000000000000000 0.000000000000000 
0.000000000000000 1.000000000000000 0.000000000000000 0.000000000000000 
0.000000000000000 0.000000000000000 1.000000000000000 0.000000000000000 
2  8 -1 3 1 2 -1 6 1 5 -1 0
1
1.000000000000000 0.000000000000000 0.000000000000000 0.000000000000000 
0.000000000000000 1.000000000000000 0.000000000000000 0.000000000000000 
0.000000000000000 0.000000000000000 1.000000000000000 0.000000000000000 
1
1.000000000000000 0.000000000000000 0.000000000000000 0.000000000000000 
0.000000000000000 1.000000000000000 0.000000000000000 0.000000000000000 
0.000000000000000 0.000000000000000 1.000000000000000 0.000000000000000 
1
1.000000000000000 0.000000000000000 0.000000000000000 0.000000000000000 
0.000000000000000 1.000000000000000 0.000000000000000 0.000000000000000 
0.000000000000000 0.000000000000000 1.000000000000000 0.000000000000000 
2  10 1 11 1 12 -1 5 1 6 -1 0
2  8 -1 3 1 2 -1 6 1 5 -1 12 1 11 -1 10 -1 0
1
1.000000000000000 0.000000000000000 0.000000000000000 -0.000000000000000 
0.000000000000000 1.000000000000000 0.000000000000000 -0.000000000000000 
0.000000000000000 0.000000000000000 1.000000000000000 -50.000000000000000 
2  10 1 11 1 12 -1 15 1 5 1 6 -1 0
2  8 -1 3 1 2 -1 6 1 5 -1 15 -1 12 1 11 -1 10 -1 0
1
1.000000000000000 0.000000000000000 0.000000000000000 0.000000000000000 
0.000000000000000 1.000000000000000 0.000000000000000 0.000000000000000 
0.000000000000000 0.000000000000000 1.000000000000000 0.000000000000000 
1
-1.000000000000000 0.000000000000000 -0.000000000000006 0.000000000006276 
-0.000000000000006 0.000000000000000 1.000000000000000 -1020.000000000029331 
0.000000000000000 1.000000000000000 -0.000000000000000 0.000000000000000 
2  18 1 19 1 6 -1 0
2  6 1 19 -1 18 -1 0
2  8 -1 3 1 2 -1 6 1 19 -1 18 -1 0
2  5 1 6 -1 2 1 3 -1 0
2  10 1 11 1 12 -1 5 1 6 -1 2 1 3 -1 0
2  10 1 11 1 12 -1 15 1 5 1 6 -1 2 1 3 -1 0
1
1.000000000000000 0.000000000000000 0.000000000000000 0.000000000000000 
0.000000000000000 1.000000000000000 0.000000000000000 0.000000000000000 
0.000000000000000 0.000000000000000 1.000000000000000 0.000000000000000 
1
0.000000000000000 0.000000000000000 1.000000000000000 4776.000000000000000 
1.000000000000000 0.000000000000000 0.000000000000000 0.000000000000000 
0.000000000000000 1.000000000000000 0.000000000000000 0.000000000000000 
2  26 1 27 1 3 -1 0
2  3 1 27 -1 26 -1 0
2  8 -1 3 1 27 -1 26 -1 0
2  12 -1 5 1 6 -1 2 1 3 -1 0
2  10 1 11 1 0
2  12 -1 15 1 5 1 6 -1 2 1 3 -1 0
2  10 1 11 1 12 -1 0
2  10 1 11 1 12 -1 15 1 0
2  8 -1 3 1 2 -1 0
1
1.000000000000000 0.000000000000000 0.000000000000000 0.000000000000031 
0.000000000000000 1.000000000000000 0.000000000000000 -5.000000000000000 
0.000000000000000 0.000000000000000 1.000000000000000 0.000000000000001 
2  18 1 19 1 6 -1 37 1 0
2  37 -1 6 1 19 -1 18 -1 0
2  8 -1 3 1 2 -1 37 -1 6 1 19 -1 18 -1 0
2  8 -1 0
1
1.000000000000000 0.000000000000000 0.000000000000000 -5.000000000000000 
0.000000000000000 1.000000000000000 0.000000000000000 -0.000000000000000 
0.000000000000000 0.000000000000000 1.000000000000000 -0.000000000000000 
2  26 1 27 1 3 -1 42 1 0
2  42 -1 3 1 27 -1 26 -1 0
2  8 -1 42 -1 3 1 27 -1 26 -1 0
2  6 -1 37 1 2 1 3 -1 0
2  18 1 19 1 0
2  3 -1 42 1 0
2  26 1 27 1 0
Curve2ds 16
1 0.00000000000000000 0.00000000000000000 1.00000000000000000 0.00000000000000000 
1 0.00000000000000000 0.00000000000000000 1.00000000000000000 0.00000000000000000 
1 0.00000000000000000 0.00000000000000000 1.00000000000000000 0.00000000000000000 
1 0.00000000000000000 0.00000000000000000 1.00000000000000000 0.00000000000000000 
1 0.00000000000000000 0.00000000000000000 0.00000000000000000 -1.00000000000000000 
1 6.28318530717958623 0.00000000000000000 0.00000000000000000 -1.00000000000000000 
1 0.00000000000000000 -5.00000000000000000 1.00000000000000000 0.00000000000000000 
1 0.00000000000000000 0.00000000000000000 0.00000000000000000 -1.00000000000000000 
1 6.28318530717958623 0.00000000000000000 0.00000000000000000 -1.00000000000000000 
1 0.00000000000000000 -5.00000000000000000 1.00000000000000000 0.00000000000000000 
1 0.00000000000000000 0.00000000000000000 0.00000000000000000 -1.00000000000000000 
1 6.28318530717958623 0.00000000000000000 0.00000000000000000 -1.00000000000000000 
1 0.00000000000000000 -5.00000000000000000 1.00000000000000000 0.00000000000000000 
1 0.00000000000000000 0.00000000000000000 0.00000000000000000 -1.00000000000000000 
1 6.28318530717958623 0.00000000000000000 0.00000000000000000 -1.00000000000000000 
1 0.00000000000000000 -5.00000000000000000 1.00000000000000000 0.00000000000000000 
Curves 24
1 4776.00000000000000000 -1020.00000000000000000 0.00000000000000000 -0.00000000000000000 -0.00000000000000000 -1.00000000000000000 
1 4776.00000000000000000 -1020.00000000000000000 0.00000000000000000 -1.00000000000000000 -0.00000000000000615 0.00000000000000000 
1 4776.00000000000000000 -1020.00000000000000000 0.00000000000000000 -1.00000000000000000 -0.00000000000000615 0.00000000000000000 
1 3722.76032836973809026 -1020.00000000000648015 0.00000000000000000 -0.00000000000000000 -0.00000000000000000 -1.00000000000000000 
2 -3862.76032836973172380 -25.00000000000000000 0.00000000000000000 0.00000000000000000 -0.00000000000000000 1.00000000000000000 1.00000000000000000 0.00000000000000000 0.00000000000000000 -0.00000000000000000 1.00000000000000000 0.00000000000000000 5.00000000000000000
2 -3802.76032836973172380 -25.00000000000000000 0.00000000000000000 0.00000000000000000 -0.00000000000000000 1.00000000000000000 1.00000000000000000 0.00000000000000000 0.00000000000000000 -0.00000000000000000 1.00000000000000000 0.00000000000000000 5.00000000000000000
1 4776.00000000000000000 -1599.10980544585845564 0.00000000000000000 -0.00000000000000000 -0.00000000000000000 -1.00000000000000000 
1 4776.00000000000000000 -1599.10980544585845564 0.00000000000000000 0.00000000000000000 1.00000000000000000 0.00000000000000000 
1 4776.00000000000000000 -1599.10980544585845564 0.00000000000000000 0.00000000000000000 1.00000000000000000 0.00000000000000000 
2 -1519.10980544585845564 -25.00000000000000000 0.00000000000000000 0.00000000000000000 0.00000000000000000 1.00000000000000000 1.00000000000000000 0.00000000000000000 -0.00000000000000000 -0.00000000000000000 1.00000000000000000 0.00000000000000000 5.00000000000000000
2 -1100.00000000000000000 -25.00000000000000000 0.00000000000000000 0.00000000000000000 0.00000000000000000 1.00000000000000000 1.00000000000000000 0.00000000000000000 -0.00000000000000000 -0.00000000000000000 1.00000000000000000 0.00000000000000000 5.00000000000000000
1 3722.76032836973809026 -1020.00000000000648015 0.00000000000000000 0.00000000000000000 -1.00000000000000000 0.00000000000000000 
1 3722.76032836973809026 -1050.00000000000636646 0.00000000000000000 0.88672517215815405 -0.46229694900690416 0.00000000000000000 
1 3722.76032836973809026 -1020.00000000000648015 0.00000000000000000 0.00000000000000000 -1.00000000000000000 0.00000000000000000 
1 3722.76032836973809026 -1050.00000000000636646 0.00000000000000000 0.88672517215815405 -0.46229694900690416 0.00000000000000000 
1 3722.76032836973809026 -1050.00000000000636646 0.00000000000000000 -0.00000000000000000 -0.00000000000000000 -1.00000000000000000 
1 3857.76032836973809026 -1020.00000000000557066 -25.00000000000000000 0.00000000000000615 -1.00000000000000000 0.00000000000000022 
2 -3862.76032836973172380 -25.00000000000000000 0.00000000000000000 0.00000000000000000 -0.00000000000000000 1.00000000000000000 1.00000000000000000 0.00000000000000000 0.00000000000000000 -0.00000000000000000 1.00000000000000000 0.00000000000000000 5.00000000000000000
1 3797.76032836973809026 -1020.00000000000602540 -25.00000000000000000 0.00000000000000615 -1.00000000000000000 0.00000000000000022 
2 -3802.76032836973172380 -25.00000000000000000 0.00000000000000000 0.00000000000000000 -0.00000000000000000 1.00000000000000000 1.00000000000000000 0.00000000000000000 0.00000000000000000 -0.00000000000000000 1.00000000000000000 0.00000000000000000 5.00000000000000000
1 4776.00000000000000000 -1514.10980544585845564 -25.00000000000000000 -1.00000000000000000 -0.00000000000000000 -0.00000000000000000 
2 -1519.10980544585845564 -25.00000000000000000 0.00000000000000000 0.00000000000000000 0.00000000000000000 1.00000000000000000 1.00000000000000000 0.00000000000000000 -0.00000000000000000 -0.00000000000000000 1.00000000000000000 0.00000000000000000 5.00000000000000000
1 4776.00000000000000000 -1095.00000000000000000 -25.00000000000000000 -1.00000000000000000 -0.00000000000000000 -0.00000000000000000 
2 -1100.00000000000000000 -25.00000000000000000 0.00000000000000000 0.00000000000000000 0.00000000000000000 1.00000000000000000 1.00000000000000000 0.00000000000000000 -0.00000000000000000 -0.00000000000000000 1.00000000000000000 0.00000000000000000 5.00000000000000000
Polygon3D 0
PolygonOnTriangulations 0
Surfaces 14
1 4776.00000000000000000 -1020.00000000000000000 0.00000000000000000 -0.00000000000000615 1.00000000000000000 0.00000000000000000 -1.00000000000000000 -0.00000000000000615 0.00000000000000000 0.00000000000000000 0.00000000000000000 1.00000000000000000 
2 3862.76032836973809026 -1020.00000000000557066 -25.00000000000000000 -0.00000000000000615 1.00000000000000000 -0.00000000000000022 -1.00000000000000000 -0.00000000000000615 0.00000000000000000 -0.00000000000000000 0.00000000000000022 1.00000000000000000 5.00000000000000000
2 3802.76032836973809026 -1020.00000000000591172 -25.00000000000000000 -0.00000000000000615 1.00000000000000000 -0.00000000000000022 -1.00000000000000000 -0.00000000000000615 0.00000000000000000 -0.00000000000000000 0.00000000000000022 1.00000000000000000 5.00000000000000000
1 4776.00000000000000000 -1599.10980544585845564 0.00000000000000000 1.00000000000000000 0.00000000000000000 0.00000000000000000 -0.00000000000000000 1.00000000000000000 0.00000000000000000 0.00000000000000000 -0.00000000000000000 1.00000000000000000 
2 4776.00000000000000000 -1519.10980544585845564 -25.00000000000000000 1.00000000000000000 0.00000000000000000 0.00000000000000000 -0.00000000000000000 1.00000000000000000 0.00000000000000000 0.00000000000000000 -0.00000000000000000 1.00000000000000000 5.00000000000000000
2 4776.00000000000000000 -1100.00000000000000000 -25.00000000000000000 1.00000000000000000 0.00000000000000000 0.00000000000000000 -0.00000000000000000 1.00000000000000000 0.00000000000000000 0.00000000000000000 -0.00000000000000000 1.00000000000000000 5.00000000000000000
1 4350.83924441026192653 -1205.91401267328592439 0.00000000000000000 0.00000000000000000 0.00000000000000000 1.00000000000000000 1.00000000000000000 0.00000000000000000 -0.00000000000000000 -0.00000000000000000 1.00000000000000000 0.00000000000000000 
1 4350.83924441026192653 -1205.91401267328592439 0.00000000000000000 0.00000000000000000 0.00000000000000000 1.00000000000000000 1.00000000000000000 0.00000000000000000 -0.00000000000000000 -0.00000000000000000 1.00000000000000000 0.00000000000000000 
1 3722.76032836973809026 -1020.00000000000648015 0.00000000000000000 -1.00000000000000000 0.00000000000000000 0.00000000000000000 0.00000000000000000 -1.00000000000000000 0.00000000000000000 0.00000000000000000 0.00000000000000000 1.00000000000000000 
1 3722.76032836973809026 -1050.00000000000636646 0.00000000000000000 -0.46229694900690416 -0.88672517215815405 0.00000000000000000 0.88672517215815405 -0.46229694900690416 0.00000000000000000 0.00000000000000000 0.00000000000000000 1.00000000000000000 
1 3862.76032836973763551 -1020.00000000000545697 -24.99999999999999645 0.00000000000000000 1.00000000000000000 -0.00000000000000000 1.00000000000000000 -0.00000000000000000 0.00000000000000000 0.00000000000000000 -0.00000000000000000 -1.00000000000000000 
1 3802.76032836973763551 -1020.00000000000591172 -24.99999999999999645 -0.00000000000001516 1.00000000000000000 -0.00000000000000000 1.00000000000000000 0.00000000000001516 0.00000000000000000 0.00000000000000000 0.00000000000000000 -1.00000000000000000 
1 4776.00000000000000000 -1519.10980544585822827 -24.99999999999999645 1.00000000000000000 0.00000000000000000 0.00000000000000000 0.00000000000000000 0.00000000000000000 1.00000000000000000 0.00000000000000000 -1.00000000000000000 0.00000000000000000 
1 4776.00000000000000000 -1100.00000000000000000 -24.99999999999999645 1.00000000000000000 0.00000000000000000 0.00000000000000000 0.00000000000000000 0.00000000000000000 1.00000000000000000 0.00000000000000000 -1.00000000000000000 0.00000000000000000 
Triangulations 0

TShapes 74
Ve
0.000000100000000
4776.000000000000000 -1020.000000000000000 0.000000000000000
0 0

0101101
*
Ve
0.000000100000000
4776.000000000000000 -1020.000000000000000 -50.000000000000000
0 0

0101101
*
Ed
 0.000000100000000 1 1 0
1  1 0 0.000000000000000 50.000000000000000
0

0101000
+74 9 -73 9 *
Ve
0.000000100000000
3722.760328369738090 -1020.000000000006480 0.000000000000000
0 0

0101101
*
Ed
 0.000000100000000 1 1 0
1  2 0 0.000000000000000 1053.239671630261910
0

0101000
+74 14 -71 14 *
Ve
0.000000100000000
3722.760328369738090 -1020.000000000006480 -50.000000000000000
0 0

0101101
*
Ed
 0.000000100000000 1 1 0
1  3 0 0.000000000000000 1053.239671630261910
0

0101000
+73 17 -69 17 *
Ed
 0.000000100000000 1 1 0
1  4 0 0.000000000000000 50.000000000000000
0

0101000
+71 9 -69 9 *
Wi

0101100
+72 7 -70 13 +68 16 -67 7 *
Ve
0.000000100000114
3857.760328369738090 -1020.000000000005571 -25.000000000000000
0 0

0101101
*
Ed
 0.000000100000114 1 1 0
1  5 0 0.000000000000000 6.283185307179586
2  1 2 21 0.000000000000000 6.283185307179586
0

0101000
+65 22 -65 22 *
Wi

0101100
-64 20 *
Ve
0.000000100000114
3797.760328369738090 -1020.000000000006025 -25.000000000000000
0 0

0101101
*
Ed
 0.000000100000114 1 1 0
1  6 0 0.000000000000000 6.283185307179586
2  2 3 21 0.000000000000000 6.283185307179586
0

0101000
+62 22 -62 22 *
Wi

0101100
-61 20 *
Fa
0  0.000000100000000 1 7

0111000
+66 0 +63 0 +60 0 *
Ve
0.000000100000000
4776.000000000000000 -1599.109805445858456 0.000000000000000
0 0

0101101
*
Ve
0.000000100000000
4776.000000000000000 -1599.109805445858456 -50.000000000000000
0 0

0101101
*
Ed
 0.000000100000000 1 1 0
1  7 0 0.000000000000000 50.000000000000000
0

0101000
+58 9 -57 9 *
Ed
 0.000000100000000 1 1 0
1  8 0 0.000000000000000 579.109805445858456
0

0101000
+58 14 -74 14 *
Ed
 0.000000100000000 1 1 0
1  9 0 0.000000000000000 579.109805445858456
0

0101000
+57 17 -73 17 *
Wi

0101100
+56 23 -55 24 +54 25 -72 23 *
Ve
0.000000100000000
4776.000000000000000 -1514.109805445858456 -25.000000000000000
0 0

0101101
*
Ed
 0.000000100000000 1 1 0
1  10 0 0.000000000000000 6.283185307179586
2  3 5 29 0.000000000000000 6.283185307179586
0

0101000
+52 30 -52 30 *
Wi

0101100
-51 28 *
Ve
0.000000100000000
4776.000000000000000 -1095.000000000000000 -25.000000000000000
0 0

0101101
*
Ed
 0.000000100000000 1 1 0
1  11 0 0.000000000000000 6.283185307179586
2  4 6 29 0.000000000000000 6.283185307179586
0

0101000
+49 30 -49 30 *
Wi

0101100
-48 28 *
Fa
0  0.000000100000000 4 23

0111000
+53 0 +50 0 +47 0 *
Ve
0.000000100000000
3722.760328369738090 -1050.000000000006366 0.000000000000000
0 0

0101101
*
Ed
 0.000000100000000 1 1 0
1  12 0 0.000000000000000 29.999999999999886
0

0101000
+71 14 -45 14 *
Ed
 0.000000100000000 1 1 0
1  13 0 0.000000000000000 1187.785916877533737
0

0101000
+45 14 -58 14 *
Wi

0101100
+70 0 +44 0 +43 0 +55 0 *
Fa
0  0.000000100000000 7 0

0111000
+42 32 *
Ve
0.000000100000000
3722.760328369738090 -1050.000000000006366 -50.000000000000000
0 0

0101101
*
Ed
 0.000000100000000 1 1 0
1  14 0 0.000000000000000 29.999999999999886
0

0101000
+69 17 -40 17 *
Ed
 0.000000100000000 1 1 0
1  15 0 0.000000000000000 1187.785916877533737
0

0101000
+40 17 -57 17 *
Wi

0101100
+68 0 +39 0 +38 0 +54 0 *
Fa
0  0.000000100000000 8 0

0111000
+37 32 *
Ed
 0.000000100000000 1 1 0
1  16 0 0.000000000000000 50.000000000000000
0

0101000
+45 9 -40 9 *
Wi

0101100
+67 0 -35 0 -44 34 +39 35 *
Fa
0  0.000000100000000 9 0

0111000
+34 0 *
Ve
0.000000100000114
3857.760328369738090 -1025.000000000005684 -25.000000000000000
0 0

0101101
*
Ed
 0.000000100000000 1 1 0
1  17 0 0.000000000000000 5.000000000000000
3  5 6CN 2 0 0.000000000000000 5.000000000000000
0

0101000
+65 36 -32 36 *
Ed
 0.000000100000114 1 1 0
1  18 0 0.000000000000000 6.283185307179586
2  7 2 39 0.000000000000000 6.283185307179586
0

0101000
+32 40 -32 40 *
Wi

0101100
+31 0 -31 0 -64 20 +30 38 *
Fa
0  0.000000100000000 2 0

0111000
+29 0 *
Ve
0.000000100000114
3797.760328369738090 -1025.000000000005912 -25.000000000000000
0 0

0101101
*
Ed
 0.000000100000000 1 1 0
1  19 0 0.000000000000000 5.000000000000000
3  8 9CN 3 0 0.000000000000000 5.000000000000000
0

0101000
+62 36 -27 36 *
Ed
 0.000000100000114 1 1 0
1  20 0 0.000000000000000 6.283185307179586
2  10 3 39 0.000000000000000 6.283185307179586
0

0101000
+27 40 -27 40 *
Wi

0101100
+26 0 -26 0 -61 20 +25 38 *
Fa
0  0.000000100000000 3 0

0111000
+24 0 *
Wi

0101100
+35 0 -56 0 -43 34 +38 35 *
Fa
0  0.000000100000000 10 0

0111000
+22 0 *
Ve
0.000000100000000
4771.000000000000000 -1514.109805445858456 -25.000000000000000
0 0

0101101
*
Ed
 0.000000100000000 1 1 0
1  21 0 0.000000000000000 5.000000000000000
3  11 12CN 5 0 0.000000000000000 5.000000000000000
0

0101000
+52 41 -20 41 *
Ed
 0.000000100000000 1 1 0
1  22 0 0.000000000000000 6.283185307179586
2  13 5 44 0.000000000000000 6.283185307179586
0

0101000
+20 45 -20 45 *
Wi

0101100
+19 0 -19 0 -51 28 +18 43 *
Fa
0  0.000000100000000 5 0

0111000
+17 0 *
Ve
0.000000100000000
4771.000000000000000 -1095.000000000000000 -25.000000000000000
0 0

0101101
*
Ed
 0.000000100000000 1 1 0
1  23 0 0.000000000000000 5.000000000000000
3  14 15CN 6 0 0.000000000000000 5.000000000000000
0

0101000
+49 41 -15 41 *
Ed
 0.000000100000000 1 1 0
1  24 0 0.000000000000000 6.283185307179586
2  16 6 44 0.000000000000000 6.283185307179586
0

0101000
+15 45 -15 45 *
Wi

0101100
+14 0 -14 0 -48 28 +13 43 *
Fa
0  0.000000100000000 6 0

0111000
+12 0 *
Wi

0101100
+30 0 *
Fa
0  0.000000100000000 11 0

0111000
+10 47 *
Wi

0101100
+25 0 *
Fa
0  0.000000100000000 12 0

0111000
+8 47 *
Wi

0101100
+18 0 *
Fa
0  0.000000100000000 13 0

0111000
+6 49 *
Wi

0101100
+13 0 *
Fa
0  0.000000100000000 14 0

0111000
+4 49 *
Sh

0101100
+59 4 +46 0 +41 31 -36 33 +33 23 -28 4 -23 4 +21 23 -16 0 -11 0 
+9 46 +7 46 +5 48 +3 48 *
So

0100000
+2 0 *

+1 1 