
CASCADE Topology V1, (c) Matra-Datavision
Locations 49
1
1.000000000000000 0.000000000000000 0.000000000000000 0.000000000000000 
0.000000000000000 1.000000000000000 0.000000000000000 0.000000000000000 
0.000000000000000 0.000000000000000 1.000000000000000 686.250000000000000 
1
1.000000000000000 0.000000000000000 0.000000000000000 0.000000000000000 
0.000000000000000 1.000000000000000 0.000000000000000 0.000000000000000 
0.000000000000000 0.000000000000000 1.000000000000000 0.000000000000000 
1
1.000000000000000 0.000000000000000 0.000000000000000 0.000000000000000 
0.000000000000000 1.000000000000000 0.000000000000000 0.000000000000000 
0.000000000000000 0.000000000000000 1.000000000000000 0.000000000000000 
1
1.000000000000000 0.000000000000000 0.000000000000000 0.000000000000000 
0.000000000000000 1.000000000000000 0.000000000000000 0.000000000000000 
0.000000000000000 0.000000000000000 1.000000000000000 0.000000000000000 
1
1.000000000000000 0.000000000000000 0.000000000000000 0.000000000000000 
0.000000000000000 1.000000000000000 0.000000000000000 0.000000000000000 
0.000000000000000 0.000000000000000 1.000000000000000 0.000000000000000 
2  2 1 3 -1 4 1 5 -1 0
1
1.000000000000000 0.000000000000000 0.000000000000000 0.000000000000000 
0.000000000000000 1.000000000000000 0.000000000000000 0.000000000000000 
0.000000000000000 0.000000000000000 1.000000000000000 0.000000000000000 
2  7 -1 5 1 4 -1 3 1 2 -1 0
1
1.000000000000000 0.000000000000000 0.000000000000000 0.000000000000000 
0.000000000000000 1.000000000000000 0.000000000000000 0.000000000000000 
0.000000000000000 0.000000000000000 1.000000000000000 0.000000000000000 
1
1.000000000000000 0.000000000000000 0.000000000000000 0.000000000000000 
0.000000000000000 1.000000000000000 0.000000000000000 0.000000000000000 
0.000000000000000 0.000000000000000 1.000000000000000 0.000000000000000 
1
1.000000000000000 0.000000000000000 0.000000000000000 0.000000000000000 
0.000000000000000 1.000000000000000 0.000000000000000 0.000000000000000 
0.000000000000000 0.000000000000000 1.000000000000000 0.000000000000000 
2  9 1 10 1 11 -1 0
2  7 -1 5 1 4 -1 3 1 2 -1 11 1 10 -1 9 -1 0
1
1.000000000000000 0.000000000000000 0.000000000000000 -0.000000000000000 
0.000000000000000 1.000000000000000 0.000000000000000 -0.000000000000000 
0.000000000000000 0.000000000000000 1.000000000000000 -50.000000000000000 
2  9 1 10 1 11 -1 14 1 0
2  7 -1 5 1 4 -1 3 1 2 -1 14 -1 11 1 10 -1 9 -1 0
2  9 1 10 1 11 -1 2 1 3 -1 4 1 5 -1 0
2  9 1 10 1 11 -1 14 1 2 1 3 -1 4 1 5 -1 0
1
1.000000000000000 0.000000000000000 0.000000000000000 0.000000000000000 
0.000000000000000 1.000000000000000 0.000000000000000 0.000000000000000 
0.000000000000000 0.000000000000000 1.000000000000000 0.000000000000000 
1
-1.000000000000000 0.000000000000000 0.000000000000000 0.000000000000000 
0.000000000000000 0.000000000000000 1.000000000000000 -1020.000000000000000 
0.000000000000000 1.000000000000000 -0.000000000000000 0.000000000000000 
2  19 1 20 1 5 -1 0
2  5 1 20 -1 19 -1 0
2  7 -1 5 1 20 -1 19 -1 0
2  4 1 5 -1 0
2  2 1 3 -1 0
2  9 1 10 1 11 -1 2 1 3 -1 0
2  9 1 10 1 11 -1 14 1 2 1 3 -1 0
1
1.000000000000000 0.000000000000000 0.000000000000000 0.000000000000000 
0.000000000000000 1.000000000000000 0.000000000000000 0.000000000000000 
0.000000000000000 0.000000000000000 1.000000000000000 0.000000000000000 
1
1.000000000000000 0.000000000000000 0.000000000000000 0.000000000000000 
0.000000000000000 0.000000000000000 -1.000000000000000 -1843.000000000000227 
0.000000000000000 1.000000000000000 0.000000000000000 0.000000000000000 
2  28 1 29 1 3 -1 0
2  3 1 29 -1 28 -1 0
2  7 -1 5 1 4 -1 3 1 29 -1 28 -1 0
2  11 -1 2 1 3 -1 4 1 5 -1 0
2  9 1 10 1 0
2  11 -1 14 1 2 1 3 -1 4 1 5 -1 0
2  7 -1 0
1
1.000000000000000 0.000000000000000 0.000000000000000 0.000000000000000 
0.000000000000000 1.000000000000000 0.000000000000000 -5.000000000000000 
0.000000000000000 0.000000000000000 1.000000000000000 0.000000000000001 
2  19 1 20 1 5 -1 37 1 0
2  37 -1 5 1 20 -1 19 -1 0
2  7 -1 37 -1 5 1 20 -1 19 -1 0
2  7 -1 5 1 4 -1 0
1
1.000000000000000 0.000000000000000 0.000000000000000 0.000000000000000 
0.000000000000000 1.000000000000000 0.000000000000000 5.000000000000000 
0.000000000000000 0.000000000000000 1.000000000000000 -0.000000000000001 
2  28 1 29 1 3 -1 42 1 0
2  42 -1 3 1 29 -1 28 -1 0
2  7 -1 5 1 4 -1 42 -1 3 1 29 -1 28 -1 0
2  5 -1 37 1 0
2  19 1 20 1 0
2  3 -1 42 1 4 1 5 -1 0
2  28 1 29 1 0
Curve2ds 16
1 0.00000000000000000 0.00000000000000000 1.00000000000000000 0.00000000000000000 
1 0.00000000000000000 0.00000000000000000 1.00000000000000000 0.00000000000000000 
1 0.00000000000000000 0.00000000000000000 1.00000000000000000 0.00000000000000000 
1 0.00000000000000000 0.00000000000000000 1.00000000000000000 0.00000000000000000 
1 0.00000000000000000 0.00000000000000000 0.00000000000000000 -1.00000000000000000 
1 6.28318530717958623 0.00000000000000000 0.00000000000000000 -1.00000000000000000 
1 0.00000000000000000 -5.00000000000000000 1.00000000000000000 0.00000000000000000 
1 0.00000000000000000 0.00000000000000000 0.00000000000000000 -1.00000000000000000 
1 6.28318530717958623 0.00000000000000000 0.00000000000000000 -1.00000000000000000 
1 0.00000000000000000 -5.00000000000000000 1.00000000000000000 0.00000000000000000 
1 0.00000000000000000 0.00000000000000000 0.00000000000000000 -1.00000000000000000 
1 6.28318530717958623 0.00000000000000000 0.00000000000000000 -1.00000000000000000 
1 0.00000000000000000 -5.00000000000000000 1.00000000000000000 0.00000000000000000 
1 0.00000000000000000 0.00000000000000000 0.00000000000000000 -1.00000000000000000 
1 6.28318530717958623 0.00000000000000000 0.00000000000000000 -1.00000000000000000 
1 0.00000000000000000 -5.00000000000000000 1.00000000000000000 0.00000000000000000 
Curves 24
1 3478.37171807200911644 -1020.00000000000000000 0.00000000000000000 -0.00000000000000000 -0.00000000000000000 -1.00000000000000000 
1 3882.43902436690814284 -1843.00000000000022737 0.00000000000000000 -0.00000000000000000 -0.00000000000000000 -1.00000000000000000 
1 3478.37171807200911644 -1020.00000000000000000 0.00000000000000000 0.44071636534512815 -0.89764641441771464 0.00000000000000000 
1 3478.37171807200911644 -1020.00000000000000000 0.00000000000000000 0.44071636534512815 -0.89764641441771464 0.00000000000000000 
1 3625.41064912849424218 -1020.00000000000000000 0.00000000000000000 -0.00000000000000000 -0.00000000000000000 -1.00000000000000000 
1 3625.41064912849424218 -1020.00000000000000000 0.00000000000000000 -1.00000000000000000 0.00000000000000000 0.00000000000000000 
1 3625.41064912849424218 -1020.00000000000000000 0.00000000000000000 -1.00000000000000000 0.00000000000000000 0.00000000000000000 
2 -3585.41064912849424218 -25.00000000000000000 0.00000000000000000 0.00000000000000000 0.00000000000000000 1.00000000000000000 1.00000000000000000 0.00000000000000000 -0.00000000000000000 -0.00000000000000000 1.00000000000000000 0.00000000000000000 5.00000000000000000
2 -3518.37171807200911644 -25.00000000000000000 0.00000000000000000 0.00000000000000000 0.00000000000000000 1.00000000000000000 1.00000000000000000 0.00000000000000000 -0.00000000000000000 -0.00000000000000000 1.00000000000000000 0.00000000000000000 5.00000000000000000
1 3882.43902436690814284 -1843.00000000000022737 0.00000000000000000 1.00000000000000000 0.00000000000000000 0.00000000000000000 
1 3882.43902436690814284 -1843.00000000000022737 0.00000000000000000 1.00000000000000000 0.00000000000000000 0.00000000000000000 
1 4401.00000000000000000 -1843.00000000000022737 0.00000000000000000 -0.00000000000000000 -0.00000000000000000 -1.00000000000000000 
2 3962.43902436690814284 -25.00000000000000000 0.00000000000000000 0.00000000000000000 0.00000000000000000 1.00000000000000000 1.00000000000000000 0.00000000000000000 -0.00000000000000000 -0.00000000000000000 1.00000000000000000 0.00000000000000000 5.00000000000000000
2 4321.00000000000000000 -25.00000000000000000 0.00000000000000000 0.00000000000000000 0.00000000000000000 1.00000000000000000 1.00000000000000000 0.00000000000000000 -0.00000000000000000 -0.00000000000000000 1.00000000000000000 0.00000000000000000 5.00000000000000000
1 4401.00000000000000000 -1843.00000000000022737 0.00000000000000000 -0.68583398863455336 0.72775802299501957 0.00000000000000000 
1 4401.00000000000000000 -1843.00000000000022737 0.00000000000000000 -0.68583398863455336 0.72775802299501957 0.00000000000000000 
1 3580.41064912849424218 -1020.00000000000000000 -25.00000000000000000 0.00000000000000000 -1.00000000000000000 0.00000000000000022 
2 -3585.41064912849424218 -25.00000000000000000 0.00000000000000000 0.00000000000000000 0.00000000000000000 1.00000000000000000 1.00000000000000000 0.00000000000000000 -0.00000000000000000 -0.00000000000000000 1.00000000000000000 0.00000000000000000 5.00000000000000000
1 3513.37171807200911644 -1020.00000000000000000 -25.00000000000000000 0.00000000000000000 -1.00000000000000000 0.00000000000000022 
2 -3518.37171807200911644 -25.00000000000000000 0.00000000000000000 0.00000000000000000 0.00000000000000000 1.00000000000000000 1.00000000000000000 0.00000000000000000 -0.00000000000000000 -0.00000000000000000 1.00000000000000000 0.00000000000000000 5.00000000000000000
1 3967.43902436690814284 -1843.00000000000022737 -25.00000000000000000 0.00000000000000000 1.00000000000000000 -0.00000000000000022 
2 3962.43902436690814284 -25.00000000000000000 0.00000000000000000 0.00000000000000000 0.00000000000000000 1.00000000000000000 1.00000000000000000 0.00000000000000000 -0.00000000000000000 -0.00000000000000000 1.00000000000000000 0.00000000000000000 5.00000000000000000
1 4326.00000000000000000 -1843.00000000000022737 -25.00000000000000000 0.00000000000000000 1.00000000000000000 -0.00000000000000022 
2 4321.00000000000000000 -25.00000000000000000 0.00000000000000000 0.00000000000000000 0.00000000000000000 1.00000000000000000 1.00000000000000000 0.00000000000000000 -0.00000000000000000 -0.00000000000000000 1.00000000000000000 0.00000000000000000 5.00000000000000000
Polygon3D 0
PolygonOnTriangulations 0
Surfaces 14
1 3478.37171807200911644 -1020.00000000000000000 0.00000000000000000 -0.89764641441771464 -0.44071636534512815 0.00000000000000000 0.44071636534512815 -0.89764641441771464 0.00000000000000000 0.00000000000000000 0.00000000000000000 1.00000000000000000 
1 3625.41064912849424218 -1020.00000000000000000 0.00000000000000000 0.00000000000000000 1.00000000000000000 0.00000000000000000 -1.00000000000000000 0.00000000000000000 0.00000000000000000 0.00000000000000000 -0.00000000000000000 1.00000000000000000 
2 3585.41064912849424218 -1020.00000000000000000 -25.00000000000000000 0.00000000000000000 1.00000000000000000 -0.00000000000000022 -1.00000000000000000 0.00000000000000000 0.00000000000000000 0.00000000000000000 0.00000000000000022 1.00000000000000000 5.00000000000000000
2 3518.37171807200911644 -1020.00000000000000000 -25.00000000000000000 0.00000000000000000 1.00000000000000000 -0.00000000000000022 -1.00000000000000000 0.00000000000000000 0.00000000000000000 0.00000000000000000 0.00000000000000022 1.00000000000000000 5.00000000000000000
1 3882.43902436690814284 -1843.00000000000022737 0.00000000000000000 0.00000000000000000 -1.00000000000000000 0.00000000000000000 1.00000000000000000 0.00000000000000000 0.00000000000000000 -0.00000000000000000 0.00000000000000000 1.00000000000000000 
2 3962.43902436690814284 -1843.00000000000022737 -25.00000000000000000 0.00000000000000000 -1.00000000000000000 0.00000000000000022 1.00000000000000000 0.00000000000000000 0.00000000000000000 -0.00000000000000000 0.00000000000000022 1.00000000000000000 5.00000000000000000
2 4321.00000000000000000 -1843.00000000000022737 -25.00000000000000000 0.00000000000000000 -1.00000000000000000 0.00000000000000022 1.00000000000000000 0.00000000000000000 0.00000000000000000 -0.00000000000000000 0.00000000000000022 1.00000000000000000 5.00000000000000000
1 3900.31242722303386472 -1487.84490262141184758 0.00000000000000000 0.00000000000000000 0.00000000000000000 1.00000000000000000 1.00000000000000000 0.00000000000000000 -0.00000000000000000 -0.00000000000000000 1.00000000000000000 0.00000000000000000 
1 3900.31242722303386472 -1487.84490262141184758 0.00000000000000000 0.00000000000000000 0.00000000000000000 1.00000000000000000 1.00000000000000000 0.00000000000000000 -0.00000000000000000 -0.00000000000000000 1.00000000000000000 0.00000000000000000 
1 4401.00000000000000000 -1843.00000000000022737 0.00000000000000000 0.72775802299501957 0.68583398863455336 0.00000000000000000 -0.68583398863455336 0.72775802299501957 0.00000000000000000 0.00000000000000000 -0.00000000000000000 1.00000000000000000 
1 3585.41064912849378743 -1020.00000000000000000 -24.99999999999999645 0.00000000000000000 1.00000000000000000 0.00000000000000000 0.00000000000000000 -0.00000000000000000 1.00000000000000000 1.00000000000000000 0.00000000000000000 -0.00000000000000000 
1 3518.37171807200866169 -1020.00000000000000000 -24.99999999999999645 0.00000000000000000 1.00000000000000000 0.00000000000000000 0.00000000000000000 -0.00000000000000000 1.00000000000000000 1.00000000000000000 0.00000000000000000 -0.00000000000000000 
1 3962.43902436690768809 -1843.00000000000000000 -24.99999999999999645 -0.00000000000000000 -1.00000000000000000 0.00000000000000000 -1.00000000000000000 0.00000000000000000 0.00000000000000000 -0.00000000000000000 0.00000000000000000 -1.00000000000000000 
1 4321.00000000000000000 -1843.00000000000000000 -24.99999999999999645 -0.00000000000000000 -1.00000000000000000 0.00000000000000000 0.00000000000000000 -0.00000000000000000 -1.00000000000000000 1.00000000000000000 0.00000000000000000 0.00000000000000000 
Triangulations 0

TShapes 74
Ve
0.000000100000000
3478.371718072009116 -1020.000000000000000 0.000000000000000
0 0

0101101
*
Ve
0.000000100000000
3478.371718072009116 -1020.000000000000000 -50.000000000000000
0 0

0101101
*
Ed
 0.000000100000000 1 1 0
1  1 0 0.000000000000000 50.000000000000000
0

0101000
+74 8 -73 8 *
Ve
0.000000100000000
3882.439024366908143 -1843.000000000000227 0.000000000000000
0 0

0101101
*
Ve
0.000000100000000
3882.439024366908143 -1843.000000000000227 -50.000000000000000
0 0

0101101
*
Ed
 0.000000100000000 1 1 0
1  2 0 0.000000000000000 50.000000000000000
0

0101000
+71 8 -70 8 *
Ed
 0.000000100000000 1 1 0
1  3 0 0.000000000000000 916.842073650863881
0

0101000
+74 13 -71 13 *
Ed
 0.000000100000000 1 1 0
1  4 0 0.000000000000000 916.842073650863881
0

0101000
+73 16 -70 16 *
Wi

0101100
+72 0 -69 0 -68 12 +67 15 *
Fa
0  0.000000100000000 1 0

0111000
+66 0 *
Ve
0.000000100000000
3625.410649128494242 -1020.000000000000000 0.000000000000000
0 0

0101101
*
Ve
0.000000100000000
3625.410649128494242 -1020.000000000000000 -50.000000000000000
0 0

0101101
*
Ed
 0.000000100000000 1 1 0
1  5 0 0.000000000000000 50.000000000000000
0

0101000
+64 8 -63 8 *
Ed
 0.000000100000000 1 1 0
1  6 0 0.000000000000000 147.038931056485126
0

0101000
+64 13 -74 13 *
Ed
 0.000000100000000 1 1 0
1  7 0 0.000000000000000 147.038931056485126
0

0101000
+63 16 -73 16 *
Wi

0101100
+62 6 -61 17 +60 18 -72 6 *
Ve
0.000000100000000
3580.410649128494242 -1020.000000000000000 -25.000000000000000
0 0

0101101
*
Ed
 0.000000100000000 1 1 0
1  8 0 0.000000000000000 6.283185307179586
2  1 3 22 0.000000000000000 6.283185307179586
0

0101000
+58 23 -58 23 *
Wi

0101100
-57 21 *
Ve
0.000000100000000
3513.371718072009116 -1020.000000000000000 -25.000000000000000
0 0

0101101
*
Ed
 0.000000100000000 1 1 0
1  9 0 0.000000000000000 6.283185307179586
2  2 4 22 0.000000000000000 6.283185307179586
0

0101000
+55 23 -55 23 *
Wi

0101100
-54 21 *
Fa
0  0.000000100000000 2 6

0111000
+59 0 +56 0 +53 0 *
Ve
0.000000100000000
4401.000000000000000 -1843.000000000000227 0.000000000000000
0 0

0101101
*
Ed
 0.000000100000000 1 1 0
1  10 0 0.000000000000000 518.560975633091857
0

0101000
+71 13 -51 13 *
Ve
0.000000100000000
4401.000000000000000 -1843.000000000000227 -50.000000000000000
0 0

0101101
*
Ed
 0.000000100000000 1 1 0
1  11 0 0.000000000000000 518.560975633091857
0

0101000
+70 16 -49 16 *
Ed
 0.000000100000000 1 1 0
1  12 0 0.000000000000000 50.000000000000000
0

0101000
+51 8 -49 8 *
Wi

0101100
+69 25 -50 26 +48 27 -47 25 *
Ve
0.000000100000000
3967.439024366908143 -1843.000000000000227 -25.000000000000000
0 0

0101101
*
Ed
 0.000000100000000 1 1 0
1  13 0 0.000000000000000 6.283185307179586
2  3 6 31 0.000000000000000 6.283185307179586
0

0101000
+45 32 -45 32 *
Wi

0101100
-44 30 *
Ve
0.000000100000000
4326.000000000000000 -1843.000000000000227 -25.000000000000000
0 0

0101101
*
Ed
 0.000000100000000 1 1 0
1  14 0 0.000000000000000 6.283185307179586
2  4 7 31 0.000000000000000 6.283185307179586
0

0101000
+42 32 -42 32 *
Wi

0101100
-41 30 *
Fa
0  0.000000100000000 5 25

0111000
+46 0 +43 0 +40 0 *
Ed
 0.000000100000000 1 1 0
1  15 0 0.000000000000000 1130.870390975589999
0

0101000
+51 13 -64 13 *
Wi

0101100
+68 0 +50 0 +38 0 +61 0 *
Fa
0  0.000000100000000 8 0

0111000
+37 34 *
Ed
 0.000000100000000 1 1 0
1  16 0 0.000000000000000 1130.870390975589999
0

0101000
+49 16 -63 16 *
Wi

0101100
+67 0 +48 0 +35 0 +60 0 *
Fa
0  0.000000100000000 9 0

0111000
+34 34 *
Wi

0101100
+47 0 -62 0 -38 12 +35 15 *
Fa
0  0.000000100000000 10 0

0111000
+32 0 *
Ve
0.000000100000000
3580.410649128494242 -1025.000000000000000 -25.000000000000000
0 0

0101101
*
Ed
 0.000000100000000 1 1 0
1  17 0 0.000000000000000 5.000000000000000
3  5 6CN 3 0 0.000000000000000 5.000000000000000
0

0101000
+58 36 -30 36 *
Ed
 0.000000100000000 1 1 0
1  18 0 0.000000000000000 6.283185307179586
2  7 3 39 0.000000000000000 6.283185307179586
0

0101000
+30 40 -30 40 *
Wi

0101100
+29 0 -29 0 -57 21 +28 38 *
Fa
0  0.000000100000000 3 0

0111000
+27 0 *
Ve
0.000000100000000
3513.371718072009116 -1025.000000000000000 -25.000000000000000
0 0

0101101
*
Ed
 0.000000100000000 1 1 0
1  19 0 0.000000000000000 5.000000000000000
3  8 9CN 4 0 0.000000000000000 5.000000000000000
0

0101000
+55 36 -25 36 *
Ed
 0.000000100000000 1 1 0
1  20 0 0.000000000000000 6.283185307179586
2  10 4 39 0.000000000000000 6.283185307179586
0

0101000
+25 40 -25 40 *
Wi

0101100
+24 0 -24 0 -54 21 +23 38 *
Fa
0  0.000000100000000 4 0

0111000
+22 0 *
Ve
0.000000100000000
3967.439024366908143 -1838.000000000000227 -25.000000000000000
0 0

0101101
*
Ed
 0.000000100000000 1 1 0
1  21 0 0.000000000000000 5.000000000000000
3  11 12CN 6 0 0.000000000000000 5.000000000000000
0

0101000
+45 41 -20 41 *
Ed
 0.000000100000000 1 1 0
1  22 0 0.000000000000000 6.283185307179586
2  13 6 44 0.000000000000000 6.283185307179586
0

0101000
+20 45 -20 45 *
Wi

0101100
+19 0 -19 0 -44 30 +18 43 *
Fa
0  0.000000100000000 6 0

0111000
+17 0 *
Ve
0.000000100000000
4326.000000000000000 -1838.000000000000227 -25.000000000000000
0 0

0101101
*
Ed
 0.000000100000000 1 1 0
1  23 0 0.000000000000000 5.000000000000000
3  14 15CN 7 0 0.000000000000000 5.000000000000000
0

0101000
+42 41 -15 41 *
Ed
 0.000000100000000 1 1 0
1  24 0 0.000000000000000 6.283185307179586
2  16 7 44 0.000000000000000 6.283185307179586
0

0101000
+15 45 -15 45 *
Wi

0101100
+14 0 -14 0 -41 30 +13 43 *
Fa
0  0.000000100000000 7 0

0111000
+12 0 *
Wi

0101100
+28 0 *
Fa
0  0.000000100000000 11 0

0111000
+10 47 *
Wi

0101100
+23 0 *
Fa
0  0.000000100000000 12 0

0111000
+8 47 *
Wi

0101100
+18 0 *
Fa
0  0.000000100000000 13 0

0111000
+6 49 *
Wi

0101100
+13 0 *
Fa
0  0.000000100000000 14 0

0111000
+4 49 *
Sh

0101100
+65 6 +52 0 +39 24 +36 33 -33 35 +31 6 -26 0 -21 0 -16 24 -11 24 
+9 46 +7 46 +5 48 +3 48 *
So

0100000
+2 0 *

+1 1 