
CASCADE Topology V1, (c) Matra-Datavision
Locations 34
1
0.000000000000000 0.000000000000000 1.000000000000000 0.000000000000000 
1.000000000000000 0.000000000000000 0.000000000000000 0.000000000000000 
0.000000000000000 1.000000000000000 0.000000000000000 0.000000000000000 
1
0.000000000000000 0.000000000000000 1.000000000000000 0.000000000000000 
1.000000000000000 0.000000000000000 0.000000000000000 0.000000000000000 
0.000000000000000 1.000000000000000 0.000000000000000 0.000000000000000 
1
0.000000000000000 0.000000000000000 1.000000000000000 0.000000000000000 
1.000000000000000 0.000000000000000 0.000000000000000 0.000000000000000 
0.000000000000000 1.000000000000000 0.000000000000000 0.000000000000000 
2  2 1 3 -1 0
1
1.000000000000000 0.000000000000000 0.000000000000000 0.000000000000000 
0.000000000000000 1.000000000000000 0.000000000000000 0.000000000000000 
0.000000000000000 0.000000000000000 1.000000000000000 0.000000000000000 
1
0.000000000000000 -0.000000000000000 1.000000000000000 0.000000000000000 
1.000000000000000 0.000000000000000 -0.000000000000000 0.000000000000000 
-0.000000000000000 1.000000000000000 0.000000000000000 0.000000000000000 
1
-0.000000000000000 0.000000000000000 1.000000000000000 0.000000000000000 
1.000000000000000 -0.000000000000000 0.000000000000000 0.000000000000000 
0.000000000000000 1.000000000000000 -0.000000000000000 0.000000000000000 
2  5 1 6 1 7 -1 0
1
1.000000000000000 0.000000000000000 0.000000000000000 -0.000000000000007 
0.000000000000000 1.000000000000000 0.000000000000000 0.000000000000004 
0.000000000000000 0.000000000000000 1.000000000000000 15.000000000000000 
2  5 1 6 1 7 -1 9 1 0
2  6 -1 5 -1 0
2  7 1 6 -1 5 -1 0
2  9 -1 7 1 6 -1 5 -1 0
2  7 -1 2 1 3 -1 0
2  5 1 6 1 7 -1 2 1 3 -1 0
1
1.000000000000000 0.000000000000000 0.000000000000000 0.000000000000000 
0.000000000000000 1.000000000000000 0.000000000000000 0.000000000000000 
0.000000000000000 0.000000000000000 1.000000000000000 0.000000000000000 
1
0.000000000000000 0.000000000000000 -1.000000000000000 0.000000000000897 
1.000000000000000 0.000000000000000 0.000000000000000 -0.000000000000000 
0.000000000000000 -1.000000000000000 -0.000000000000000 0.000000000000000 
2  16 1 17 1 2 -1 7 1 6 -1 5 -1 0
2  16 1 17 1 3 -1 0
2  3 1 17 -1 16 -1 0
1
1.000000000000000 0.000000000000000 0.000000000000000 -0.000000000000002 
0.000000000000000 1.000000000000000 0.000000000000000 0.000000000000006 
0.000000000000000 0.000000000000000 1.000000000000000 15.000000000000000 
2  21 -1 3 1 17 -1 16 -1 0
2  17 -1 16 -1 0
2  2 1 17 -1 16 -1 0
2  2 1 3 -1 21 -1 3 1 17 -1 16 -1 0
2  7 -1 2 1 17 -1 16 -1 0
2  7 -1 9 1 2 1 3 -1 21 -1 3 1 17 -1 16 -1 0
2  7 -1 9 1 2 1 3 -1 0
2  5 1 6 1 7 -1 9 1 2 1 3 -1 0
2  16 1 17 1 3 -1 21 1 3 1 2 -1 9 -1 7 1 6 -1 5 -1 0
2  16 1 17 1 3 -1 21 1 0
2  3 -1 0
2  16 1 17 1 0
2  3 -1 21 1 0
Curve2ds 44
1 250.00000000000000000 0.00000000000000102 -0.00000000000000016 -1.00000000000000000 
1 515.00000000000000000 125.00000000000000000 -1.00000000000000000 -0.00000000000000022 
1 1030.00000000000022737 -0.00000000000000000 0.00000000000000022 -1.00000000000000000 
1 0.00000000000000000 0.00000000000000000 -0.00000000000000016 -1.00000000000000000 
1 515.00000000000000000 -125.00000000000000000 -0.00000000000000022 1.00000000000000000 
1 -0.00000000000090949 -0.00000000000267475 1.00000000000000000 -0.00000000000000044 
1 -0.00000000000091609 -15.00000000000267519 1.00000000000000000 -0.00000000000000044 
1 0.00000000000000000 0.00000000000000000 0.00000000000000022 -1.00000000000000000 
1 -515.00000000000000000 125.00000000000000000 0.00000000000000022 -1.00000000000000000 
1 -515.00000000000000000 -125.00000000000000000 1.00000000000000000 0.00000000000000022 
1 0.00000000000000000 0.00000000000000000 1.00000000000000000 0.00000000000000000 
1 -0.00000000000000333 -15.00000000000000000 1.00000000000000000 0.00000000000000000 
1 0.00000000000000000 0.00000000000000000 1.00000000000000000 0.00000000000000000 
1 0.00000000000000083 -15.00000000000000000 1.00000000000000000 0.00000000000000000 
1 -40.00000000000000000 110.00000000000000000 -0.00000000000000011 -1.00000000000000000 
1 970.00000000000136424 -0.00000000000168387 -1.00000000000000000 0.00000000000000022 
1 970.00000000000113687 -15.00000000000195399 -1.00000000000000000 0.00000000000000016 
1 455.00000000000125056 -124.99999999999909051 -1.00000000000000000 0.00000000000000011 
1 455.00000000000102318 -124.99999999999909051 -1.00000000000000000 0.00000000000000017 
1 0.00000000000000000 0.00000000000000000 -0.00000000000000006 -1.00000000000000000 
1 80.00000000000000000 0.00000000000000000 0.00000000000000006 -1.00000000000000000 
1 970.00000000000113687 -0.00000000000195476 -0.00000000000000016 -1.00000000000000000 
1 220.00000000000000000 0.00000000000000000 -0.00000000000000006 -1.00000000000000000 
1 0.00000000000000000 0.00000000000000000 -0.00000000000000006 -1.00000000000000000 
1 750.00000000000113687 -0.00000000000191858 -0.00000000000000016 -1.00000000000000000 
1 0.00000000000000000 0.00000000000000000 1.00000000000000000 0.00000000000000000 
1 0.00000000000000500 -15.00000000000000178 1.00000000000000000 0.00000000000000000 
1 -40.00000000000000000 -110.00000000000000000 1.00000000000000000 -0.00000000000000011 
1 40.00000000000000000 -110.00000000000000000 0.00000000000000011 1.00000000000000000 
1 0.00000000000000000 0.00000000000000000 1.00000000000000000 0.00000000000000000 
1 -0.00000000000000500 -15.00000000000000000 1.00000000000000000 0.00000000000000000 
1 40.00000000000000000 110.00000000000000000 -1.00000000000000000 0.00000000000000011 
1 0.00000000000000000 0.00000000000000000 1.00000000000000000 0.00000000000000000 
1 0.00000000000000000 -15.00000000000000000 1.00000000000000000 0.00000000000000000 
2 0.00000000000000000 -70.00000000000000000 -0.00000000000000011 -1.00000000000000000 1.00000000000000000 -0.00000000000000011 5.00000000000000000
1 0.00000000000000000 0.00000000000000000 1.00000000000000000 0.00000000000000000 
1 0.00000000000000000 -15.00000000000000000 1.00000000000000000 0.00000000000000000 
2 0.00000000000000000 70.00000000000000000 -0.00000000000000011 -1.00000000000000000 1.00000000000000000 -0.00000000000000011 5.00000000000000000
1 0.00000000000000000 0.00000000000000000 0.00000000000000006 -1.00000000000000000 
1 80.00000000000000000 0.00000000000000000 -0.00000000000000006 -1.00000000000000000 
1 0.00000000000000000 0.00000000000000000 0.00000000000000000 -1.00000000000000000 
1 6.28318530717958623 0.00000000000000000 0.00000000000000000 -1.00000000000000000 
1 0.00000000000000000 0.00000000000000000 0.00000000000000000 -1.00000000000000000 
1 6.28318530717958623 0.00000000000000000 0.00000000000000000 -1.00000000000000000 
Curves 20
1 -802.00000000000022737 5872.00050000000101136 -0.00000000000278577 -0.00000000000000044 0.00000000000000028 1.00000000000000000 
1 228.00000000000011369 5872.00050000000101136 -0.00000000000255707 -0.00000000000000044 0.00000000000000028 1.00000000000000000 
1 -802.00000000000125056 5872.00050000000010186 0.00000000000000000 1.00000000000000000 0.00000000000000000 0.00000000000000000 
1 -802.00000000000022737 5622.00050000000101136 -0.00000000000267475 -0.00000000000000044 0.00000000000000028 1.00000000000000000 
1 -802.00000000000125056 5622.00050000000010186 0.00000000000000000 0.00000000000000000 1.00000000000000000 0.00000000000000000 
1 228.00000000000005684 5622.00050000000101136 -0.00000000000244604 -0.00000000000000044 0.00000000000000028 1.00000000000000000 
1 227.99999999999874944 5872.00050000000010186 0.00000000000000000 0.00000000000000000 -1.00000000000000000 0.00000000000000000 
1 227.99999999999874944 5622.00050000000010186 0.00000000000000000 -1.00000000000000000 0.00000000000000000 0.00000000000000000 
1 -742.00000000000068212 -5622.00050000000101136 0.00000000000000000 1.00000000000000000 0.00000000000000000 0.00000000000000000 
1 -742.00000000000102318 5622.00050000000101136 -0.00000000000101676 -0.00000000000000011 0.00000000000000039 1.00000000000000000 
1 -522.00000000000102318 5622.00050000000101136 -0.00000000000100455 -0.00000000000000011 0.00000000000000039 1.00000000000000000 
1 -522.00000000000068212 -5622.00050000000101136 0.00000000000000000 0.00000000000000000 1.00000000000000000 0.00000000000000000 
1 -522.00000000000068212 -5542.00050000000101136 0.00000000000000000 -1.00000000000000000 0.00000000000000000 0.00000000000000000 
1 -742.00000000000068212 -5542.00050000000101136 0.00000000000000000 0.00000000000000000 -1.00000000000000000 0.00000000000000000 
2 -562.00000000000068212 -5582.00050000000101136 0.00000000000000000 0.00000000000000000 0.00000000000000000 1.00000000000000000 1.00000000000000000 0.00000000000000000 -0.00000000000000000 -0.00000000000000000 1.00000000000000000 0.00000000000000000 5.00000000000000000
2 -702.00000000000068212 -5582.00050000000101136 0.00000000000000000 0.00000000000000000 0.00000000000000000 1.00000000000000000 1.00000000000000000 0.00000000000000000 -0.00000000000000000 -0.00000000000000000 1.00000000000000000 0.00000000000000000 5.00000000000000000
1 -742.00000000000102318 5542.00050000000101136 -0.00000000000099011 -0.00000000000000011 0.00000000000000039 1.00000000000000000 
1 -522.00000000000102318 5542.00050000000101136 -0.00000000000097790 -0.00000000000000011 0.00000000000000039 1.00000000000000000 
1 -557.00000000000102318 5582.00050000000101136 -0.00000000000099317 -0.00000000000000011 0.00000000000000039 1.00000000000000000 
1 -697.00000000000102318 5582.00050000000101136 -0.00000000000100094 -0.00000000000000011 0.00000000000000039 1.00000000000000000 
Polygon3D 0
PolygonOnTriangulations 0
Surfaces 12
1 -802.00000000000022737 5872.00050000000101136 -0.00000000000278577 0.00000000000000044 1.00000000000000000 -0.00000000000000028 1.00000000000000000 -0.00000000000000044 0.00000000000000022 0.00000000000000022 -0.00000000000000028 -1.00000000000000000 
1 -802.00000000000022737 5622.00050000000101136 -0.00000000000267475 -1.00000000000000000 0.00000000000000022 -0.00000000000000044 0.00000000000000022 1.00000000000000000 -0.00000000000000044 0.00000000000000044 -0.00000000000000044 -1.00000000000000000 
1 -0.00000000000133982 -287.00000000000000000 5747.00050000000010186 -1.00000000000000000 0.00000000000000022 -0.00000000000000022 -0.00000000000000022 -1.00000000000000000 0.00000000000000000 -0.00000000000000022 0.00000000000000000 1.00000000000000000 
1 228.00000000000005684 5622.00050000000101136 -0.00000000000244604 -0.00000000000000044 -1.00000000000000000 0.00000000000000028 -1.00000000000000000 0.00000000000000044 -0.00000000000000022 0.00000000000000022 -0.00000000000000028 -1.00000000000000000 
1 228.00000000000011369 5872.00050000000101136 -0.00000000000255707 1.00000000000000000 -0.00000000000000022 0.00000000000000044 -0.00000000000000022 -1.00000000000000000 0.00000000000000044 0.00000000000000044 -0.00000000000000044 -1.00000000000000000 
1 -742.00000000000102318 5622.00050000000101136 -0.00000000000101676 -0.00000000000000011 1.00000000000000000 -0.00000000000000039 1.00000000000000000 0.00000000000000011 0.00000000000000006 0.00000000000000006 -0.00000000000000039 -1.00000000000000000 
1 -0.00000000000096225 -632.00000000000125056 5582.00050000000101136 -1.00000000000000000 -0.00000000000000000 -0.00000000000000033 0.00000000000000033 0.00000000000000000 -1.00000000000000000 0.00000000000000000 -1.00000000000000000 0.00000000000000000 
1 -742.00000000000102318 5542.00050000000101136 -0.00000000000099011 -1.00000000000000000 -0.00000000000000006 -0.00000000000000011 -0.00000000000000006 1.00000000000000000 -0.00000000000000033 0.00000000000000011 -0.00000000000000033 -1.00000000000000000 
1 -522.00000000000102318 5622.00050000000101136 -0.00000000000100455 1.00000000000000000 0.00000000000000006 0.00000000000000011 0.00000000000000006 -1.00000000000000000 0.00000000000000033 0.00000000000000011 -0.00000000000000033 -1.00000000000000000 
2 -562.00000000000102318 5582.00050000000101136 -0.00000000000099344 0.00000000000000006 -0.00000000000000033 -1.00000000000000000 1.00000000000000000 0.00000000000000011 0.00000000000000006 0.00000000000000011 -1.00000000000000000 0.00000000000000033 5.00000000000000000
2 -702.00000000000102318 5582.00050000000101136 -0.00000000000100122 0.00000000000000006 -0.00000000000000033 -1.00000000000000000 1.00000000000000000 0.00000000000000011 0.00000000000000006 0.00000000000000011 -1.00000000000000000 0.00000000000000033 5.00000000000000000
1 -522.00000000000102318 5542.00050000000101136 -0.00000000000097790 0.00000000000000011 -1.00000000000000000 0.00000000000000039 -1.00000000000000000 -0.00000000000000011 -0.00000000000000006 0.00000000000000006 -0.00000000000000039 -1.00000000000000000 
Triangulations 0

TShapes 63
Ve
0.000000100000000
-802.000000000001251 5872.000500000000102 0.000000000000000
0 0

0101101
*
Ed
 0.000000100000000 1 1 0
1  1 0 0.000000000000000 15.000000000000000
2  1 2 0 0.000000000000000 15.000000000000000
0

0101000
+63 8 -63 10 *
Ve
0.000000100000000
227.999999999998749 5872.000500000000102 0.000000000000000
0 0

0101101
*
Ed
 0.000000100000000 1 1 0
1  2 0 0.000000000000000 15.000000000000000
0

0101000
+61 8 -61 10 *
Ed
 0.000000100000000 1 1 0
1  3 0 0.000000000000000 1030.000000000000000
2  2 3 11 0.000000000000000 1030.000000000000000
0

0101000
+63 0 -61 0 *
Wi

0101100
+62 0 -60 0 -59 8 +59 10 *
Fa
0  0.000000100000000 1 0

0111000
+58 0 *
Ve
0.000000100000000
-802.000000000001251 5622.000500000000102 0.000000000000000
0 0

0101101
*
Ed
 0.000000100000000 1 1 0
1  4 0 0.000000000000000 15.000000000000000
2  3 4 0 0.000000000000000 15.000000000000000
2  4 2 0 0.000000000000000 15.000000000000000
0

0101000
+56 8 -56 10 *
Ed
 0.000000100000000 1 1 0
1  5 0 0.000000000000000 250.000000000000000
2  5 3 11 0.000000000000000 250.000000000000000
2  6 2 12 0.000000000000000 250.000000000000000
2  7 2 13 0.000000000000000 250.000000000000000
0

0101000
+56 0 -63 0 *
Wi

0101100
+55 0 -62 0 -54 8 +54 10 *
Fa
0  0.000000100000000 2 0

0111000
+53 0 *
Ve
0.000000100000000
227.999999999998749 5622.000500000000102 0.000000000000000
0 0

0101101
*
Ed
 0.000000100000000 1 1 0
1  6 0 0.000000000000000 15.000000000000000
2  8 4 0 0.000000000000000 15.000000000000000
0

0101000
+51 8 -51 10 *
Ed
 0.000000100000000 1 1 0
1  7 0 0.000000000000000 250.000000000000000
2  9 3 11 0.000000000000000 250.000000000000000
0

0101000
+61 0 -51 0 *
Wi

0101100
+60 0 -50 0 -49 8 +49 10 *
Fa
0  0.000000100000000 5 0

0111000
+48 0 *
Ve
0.000000100001334
-522.000000000000682 -5622.000500000001011 0.000000000000000
0 0

0101101
*
Ed
 0.000000100000000 1 1 0
1  8 0 0.000000000000000 750.000000000000114
2  10 3 11 0.000000000000000 750.000000000000114
2  11 4 12 0.000000000000000 750.000000000000114
2  12 4 13 0.000000000000000 750.000000000000114
0

0101000
+51 0 -46 18 *
Ve
0.000000100001334
-742.000000000000682 -5622.000500000001011 0.000000000000000
0 0

0101101
*
Ed
 0.000000100001334 1 1 0
1  9 0 0.000000000000000 220.000000000000000
2  13 6 20 0.000000000000000 220.000000000000000
2  14 6 22 0.000000000000000 220.000000000000000
2  15 7 23 0.000000000000000 220.000000000000000
2  16 4 24 0.000000000000000 220.000000000000000
2  17 4 25 0.000000000000000 220.000000000000000
2  18 3 26 0.000000000000000 220.000000000000000
2  19 3 27 0.000000000000000 220.000000000000000
0

0101000
+44 0 -46 0 *
Ed
 0.000000100000000 1 1 0
1  8 0 970.000000000000114 1030.000000000000000
2  10 3 11 970.000000000000114 1030.000000000000000
2  11 4 12 970.000000000000114 1030.000000000000000
2  12 4 13 970.000000000000114 1030.000000000000000
0

0101000
+44 18 -56 0 *
Wi

0101100
+59 15 +49 15 +45 15 -43 19 +42 15 +54 15 *
Fa
0  0.000000100000000 3 14

0111000
+41 0 *
Ed
 0.000000100000000 1 1 0
1  8 0 0.000000000000000 750.000000000000114
2  10 3 11 0.000000000000000 750.000000000000114
2  11 4 12 0.000000000000000 750.000000000000114
2  12 4 13 0.000000000000000 750.000000000000114
0

0101000
+51 0 -46 30 *
Ed
 0.000000100000000 1 1 0
1  8 0 970.000000000000114 1030.000000000000000
2  10 3 11 970.000000000000114 1030.000000000000000
2  11 4 12 970.000000000000114 1030.000000000000000
2  12 4 13 970.000000000000114 1030.000000000000000
0

0101000
+44 30 -56 0 *
Wi

0101100
+59 29 +49 29 +39 29 -43 31 +38 29 +54 29 *
Fa
0  0.000000100000000 3 28

0111000
+37 0 *
Ed
 0.000000100000909 1 1 0
1  10 0 0.000000000000000 15.000000000000000
2  20 6 0 0.000000000000000 15.000000000000000
2  21 8 0 0.000000000000000 15.000000000000000
2  22 4 4 0.000000000000000 15.000000000000000
0

0101000
+44 19 -44 31 *
Wi

0101100
-42 15 -55 4 +38 29 +35 0 *
Fa
0  0.000000100000000 4 4

0111000
+34 0 *
Ed
 0.000000100000000 1 1 0
1  11 0 0.000000000000000 15.000000000000000
2  23 6 0 0.000000000000000 15.000000000000000
2  24 9 0 0.000000000000000 15.000000000000000
2  25 4 4 0.000000000000000 15.000000000000000
0

0101000
+46 19 -46 31 *
Wi

0101100
-45 15 -32 0 +39 29 +50 4 *
Fa
0  0.000000100000000 4 4

0111000
+31 0 *
Ve
0.000000100000000
-522.000000000000682 -5542.000500000001011 0.000000000000000
0 0

0101101
*
Ed
 0.000000100000000 1 1 0
1  12 0 0.000000000000000 80.000000000000000
2  26 9 20 0.000000000000000 80.000000000000000
2  27 9 22 0.000000000000000 80.000000000000000
2  28 7 23 0.000000000000000 80.000000000000000
0

0101000
+46 0 -29 0 *
Ve
0.000000100000000
-742.000000000000682 -5542.000500000001011 0.000000000000000
0 0

0101101
*
Ed
 0.000000100000000 1 1 0
1  13 0 0.000000000000000 220.000000000000000
2  29 7 23 0.000000000000000 220.000000000000000
0

0101000
+29 0 -27 0 *
Ed
 0.000000100000000 1 1 0
1  14 0 0.000000000000000 80.000000000000000
2  30 8 20 0.000000000000000 80.000000000000000
2  31 8 22 0.000000000000000 80.000000000000000
2  32 7 23 0.000000000000000 80.000000000000000
0

0101000
+27 0 -44 0 *
Wi

0101100
+43 33 +28 33 +26 33 +25 33 *
Ve
0.000000100000000
-557.000000000000682 -5582.000500000001011 0.000000000000000
0 0

0101101
*
Ed
 0.000000100000000 1 1 0
1  15 0 0.000000000000000 6.283185307179586
2  33 10 20 0.000000000000000 6.283185307179586
2  34 10 22 0.000000000000000 6.283185307179586
2  35 7 23 0.000000000000000 6.283185307179586
0

0101000
+23 0 -23 0 *
Wi

0101100
-22 33 *
Ve
0.000000100000000
-697.000000000000682 -5582.000500000001011 0.000000000000000
0 0

0101101
*
Ed
 0.000000100000000 1 1 0
1  16 0 0.000000000000000 6.283185307179586
2  36 11 20 0.000000000000000 6.283185307179586
2  37 11 22 0.000000000000000 6.283185307179586
2  38 7 23 0.000000000000000 6.283185307179586
0

0101000
+20 0 -20 0 *
Wi

0101100
-19 33 *
Fa
0  0.000000100000000 7 0

0111000
+24 0 +21 0 +18 0 *
Ed
 0.000000100000000 1 1 0
1  17 0 0.000000000000000 15.000000000000000
2  39 8 0 0.000000000000000 15.000000000000000
0

0101000
+27 19 -27 31 *
Wi

0101100
+16 0 -35 0 -25 19 +25 31 *
Fa
0  0.000000100000000 8 0

0111000
+15 0 *
Ed
 0.000000100000000 1 1 0
1  18 0 0.000000000000000 15.000000000000000
2  40 9 0 0.000000000000000 15.000000000000000
0

0101000
+29 19 -29 31 *
Wi

0101100
+32 0 -13 0 -28 19 +28 31 *
Fa
0  0.000000100000000 9 0

0111000
+12 0 *
Wi

0101100
+13 0 -16 0 -26 19 +26 31 *
Fa
0  0.000000100000000 12 0

0111000
+10 0 *
Ed
 0.000000100000000 1 1 0
1  19 0 0.000000000000000 15.000000000000000
3  41 42CN 10 0 0.000000000000000 15.000000000000000
0

0101000
+23 19 -23 31 *
Wi

0101100
+8 0 -8 0 -22 19 +22 31 *
Fa
0  0.000000100000000 10 0

0111000
+7 0 *
Ed
 0.000000100000000 1 1 0
1  20 0 0.000000000000000 15.000000000000000
3  43 44CN 11 0 0.000000000000000 15.000000000000000
0

0101000
+20 19 -20 31 *
Wi

0101100
+5 0 -5 0 -19 19 +19 31 *
Fa
0  0.000000100000000 11 0

0111000
+4 0 *
Sh

0101100
+57 4 +52 4 +47 4 +40 0 -36 0 +33 0 +30 0 +17 32 -17 34 +14 0 
+11 0 +9 0 -6 0 -3 0 *
So

0100000
+2 0 *

+1 1 