
CASCADE Topology V1, (c) Matra-Datavision
Locations 13
1
1.000000000000000 0.000000000000000 0.000000000000000 0.000000000000000 
0.000000000000000 0.000000000000000 -1.000000000000000 0.000000000000000 
0.000000000000000 1.000000000000000 0.000000000000000 0.000000000000000 
1
1.000000000000000 0.000000000000000 0.000000000000000 0.000000000000000 
0.000000000000000 1.000000000000000 0.000000000000000 0.000000000000000 
0.000000000000000 0.000000000000000 1.000000000000000 0.000000000000000 
1
1.000000000000000 0.000000000000000 0.000000000000000 0.000000000000000 
0.000000000000000 -0.000000000000000 -1.000000000000000 0.000000000000000 
0.000000000000000 1.000000000000000 -0.000000000000000 0.000000000000000 
1
1.000000000000000 0.000000000000000 0.000000000000000 0.000000000000000 
0.000000000000000 -0.000000000000000 -1.000000000000000 0.000000000000000 
0.000000000000000 1.000000000000000 -0.000000000000000 0.000000000000000 
2  2 1 3 1 4 -1 0
1
1.000000000000000 0.000000000000000 0.000000000000000 0.000000000000000 
0.000000000000000 1.000000000000000 0.000000000000000 0.000000000000000 
0.000000000000000 0.000000000000000 1.000000000000000 15.000000000000000 
2  2 1 3 1 4 -1 6 1 0
2  3 -1 2 -1 0
2  4 1 3 -1 2 -1 0
2  6 -1 4 1 3 -1 2 -1 0
2  4 -1 0
2  2 1 3 1 0
2  4 -1 6 1 0
Curve2ds 48
1 250.00000000000000000 0.00000000000000000 0.00000000000000000 -1.00000000000000000 
1 -280.02438952777083614 436.95102724475054856 0.00000000000000000 -1.00000000000000000 
1 0.00000000000000000 -0.00000000000000000 0.00000000000000000 -1.00000000000000000 
1 -280.02438952777083614 147.21892803172977437 0.56394902148175152 -0.82580960346182397 
1 38.92123860663866708 0.00000000000000000 0.00000000000000000 -1.00000000000000000 
1 0.00000000000000000 0.00000000000000000 0.00000000000000000 -1.00000000000000000 
1 0.00000000000000000 -0.00000000000000000 1.00000000000000000 0.00000000000000000 
1 0.00000000000000000 -15.00000000000000000 1.00000000000000000 0.00000000000000000 
1 81.47561047222916386 -382.13773414861111632 0.00000000000000000 -1.00000000000000000 
1 250.00000000000000000 0.00000000000000000 0.00000000000000000 -1.00000000000000000 
1 0.00000000000000000 0.00000000000000000 0.00000000000000000 -1.00000000000000000 
1 0.00000000000000000 0.00000000000000000 1.00000000000000000 0.00000000000000000 
1 0.00000000000000000 -15.00000000000000000 1.00000000000000000 0.00000000000000000 
1 81.47561047222916386 -421.05897275524978340 1.00000000000000000 -0.00000000000000000 
1 116.14027344089083726 0.00000000000000000 0.00000000000000000 -1.00000000000000000 
1 0.00000000000000000 0.00000000000000000 1.00000000000000000 0.00000000000000000 
1 0.00000000000000000 -15.00000000000000000 1.00000000000000000 0.00000000000000000 
1 331.47561047222916386 -421.05897275524978340 0.00000000000000000 1.00000000000000000 
1 0.00000000000000000 0.00000000000000000 0.00000000000000000 -1.00000000000000000 
1 331.47561047222916386 -304.91869931435894614 -0.56394902148175152 0.82580960346182397 
1 0.00000000000000000 0.00000000000000000 0.00000000000000000 -1.00000000000000000 
1 212.51306437876860400 0.00000000000000000 0.00000000000000000 -1.00000000000000000 
1 -30.02438952777083614 224.43796286598194456 0.00000000000000000 1.00000000000000000 
1 0.00000000000000000 0.00000000000000000 1.00000000000000000 0.00000000000000000 
1 0.00000000000000000 -15.00000000000000000 1.00000000000000000 0.00000000000000000 
1 -30.02438952777083614 436.95102724475054856 -1.00000000000000000 0.00000000000000000 
1 0.00000000000000000 0.00000000000000000 1.00000000000000000 0.00000000000000000 
1 0.00000000000000000 -15.00000000000000000 1.00000000000000000 0.00000000000000000 
1 0.00000000000000000 0.00000000000000000 0.00000000000000000 -1.00000000000000000 
1 6.28318530717958623 0.00000000000000000 0.00000000000000000 -1.00000000000000000 
1 0.00000000000000000 0.00000000000000000 1.00000000000000000 0.00000000000000000 
1 0.00000000000000000 -15.00000000000000000 1.00000000000000000 0.00000000000000000 
2 -69.27438952777083614 -27.04897275524945144 0.00000000000000000 1.00000000000000000 -1.00000000000000000 0.00000000000000000 5.00000000000000000
1 0.00000000000000000 0.00000000000000000 0.00000000000000000 -1.00000000000000000 
1 6.28318530717958623 0.00000000000000000 0.00000000000000000 -1.00000000000000000 
1 0.00000000000000000 0.00000000000000000 1.00000000000000000 0.00000000000000000 
1 0.00000000000000000 -15.00000000000000000 1.00000000000000000 0.00000000000000000 
2 -69.27438952777083614 124.95102724475054856 0.00000000000000000 1.00000000000000000 -1.00000000000000000 0.00000000000000000 5.00000000000000000
1 0.00000000000000000 0.00000000000000000 0.00000000000000000 -1.00000000000000000 
1 6.28318530717958623 0.00000000000000000 0.00000000000000000 -1.00000000000000000 
1 0.00000000000000000 0.00000000000000000 1.00000000000000000 0.00000000000000000 
1 0.00000000000000000 -15.00000000000000000 1.00000000000000000 0.00000000000000000 
2 -255.02438952777083614 244.95102724475054856 0.00000000000000000 1.00000000000000000 -1.00000000000000000 0.00000000000000000 5.00000000000000000
1 0.00000000000000000 0.00000000000000000 0.00000000000000000 -1.00000000000000000 
1 6.28318530717958623 0.00000000000000000 0.00000000000000000 -1.00000000000000000 
1 0.00000000000000000 0.00000000000000000 1.00000000000000000 0.00000000000000000 
1 0.00000000000000000 -15.00000000000000000 1.00000000000000000 0.00000000000000000 
2 -255.02438952777083614 356.95102724475054856 0.00000000000000000 1.00000000000000000 -1.00000000000000000 0.00000000000000000 5.00000000000000000
Curves 24
1 1858.00000000000000000 3134.00000000000000000 0.00000000000000000 0.00000000000000000 0.00000000000000000 1.00000000000000000 
1 1568.26790078697922581 3134.00000000000000000 0.00000000000000000 0.00000000000000000 0.00000000000000000 1.00000000000000000 
1 1858.00000000000000000 3134.00000000000000000 0.00000000000000000 -1.00000000000000000 0.00000000000000000 0.00000000000000000 
1 1038.91123860663833511 2772.50000000000000000 0.00000000000000000 0.00000000000000000 0.00000000000000000 1.00000000000000000 
1 1568.26790078697922581 3134.00000000000000000 0.00000000000000000 -0.82580960346182397 -0.56394902148175152 0.00000000000000000 
1 999.98999999999966803 2772.50000000000000000 0.00000000000000000 0.00000000000000000 0.00000000000000000 1.00000000000000000 
1 1038.91123860663833511 2772.50000000000000000 0.00000000000000000 -1.00000000000000000 0.00000000000000000 0.00000000000000000 
1 999.98999999999966803 2522.50000000000000000 0.00000000000000000 0.00000000000000000 0.00000000000000000 1.00000000000000000 
1 999.98999999999966803 2772.50000000000000000 0.00000000000000000 0.00000000000000000 -1.00000000000000000 0.00000000000000000 
1 1116.13027344089050530 2522.50000000000000000 0.00000000000000000 0.00000000000000000 0.00000000000000000 1.00000000000000000 
1 999.98999999999966803 2522.50000000000000000 0.00000000000000000 1.00000000000000000 0.00000000000000000 0.00000000000000000 
1 1645.48693562123139600 2884.00000000000000000 0.00000000000000000 0.00000000000000000 0.00000000000000000 1.00000000000000000 
1 1116.13027344089050530 2522.50000000000000000 0.00000000000000000 0.82580960346182397 0.56394902148175152 0.00000000000000000 
1 1858.00000000000000000 2884.00000000000000000 0.00000000000000000 0.00000000000000000 0.00000000000000000 1.00000000000000000 
1 1645.48693562123139600 2884.00000000000000000 0.00000000000000000 1.00000000000000000 0.00000000000000000 0.00000000000000000 
1 1858.00000000000000000 2884.00000000000000000 0.00000000000000000 0.00000000000000000 1.00000000000000000 0.00000000000000000 
1 1399.00000000000000000 2923.25000000000000000 0.00000000000000000 0.00000000000000000 0.00000000000000000 1.00000000000000000 
2 1394.00000000000000000 2923.25000000000000000 0.00000000000000000 0.00000000000000000 0.00000000000000000 1.00000000000000000 1.00000000000000000 0.00000000000000000 -0.00000000000000000 -0.00000000000000000 1.00000000000000000 0.00000000000000000 5.00000000000000000
1 1551.00000000000000000 2923.25000000000000000 0.00000000000000000 0.00000000000000000 0.00000000000000000 1.00000000000000000 
2 1546.00000000000000000 2923.25000000000000000 0.00000000000000000 0.00000000000000000 0.00000000000000000 1.00000000000000000 1.00000000000000000 0.00000000000000000 -0.00000000000000000 -0.00000000000000000 1.00000000000000000 0.00000000000000000 5.00000000000000000
1 1671.00000000000000000 3109.00000000000000000 0.00000000000000000 0.00000000000000000 0.00000000000000000 1.00000000000000000 
2 1666.00000000000000000 3109.00000000000000000 0.00000000000000000 0.00000000000000000 0.00000000000000000 1.00000000000000000 1.00000000000000000 0.00000000000000000 -0.00000000000000000 -0.00000000000000000 1.00000000000000000 0.00000000000000000 5.00000000000000000
1 1783.00000000000000000 3109.00000000000000000 0.00000000000000000 0.00000000000000000 0.00000000000000000 1.00000000000000000 
2 1778.00000000000000000 3109.00000000000000000 0.00000000000000000 0.00000000000000000 0.00000000000000000 1.00000000000000000 1.00000000000000000 0.00000000000000000 -0.00000000000000000 -0.00000000000000000 1.00000000000000000 0.00000000000000000 5.00000000000000000
Polygon3D 0
PolygonOnTriangulations 0
Surfaces 13
1 1858.00000000000000000 3134.00000000000000000 0.00000000000000000 0.00000000000000000 -1.00000000000000000 0.00000000000000000 -1.00000000000000000 0.00000000000000000 0.00000000000000000 -0.00000000000000000 -0.00000000000000000 -1.00000000000000000 
1 1858.00000000000000000 2884.00000000000000000 0.00000000000000000 -1.00000000000000000 0.00000000000000000 0.00000000000000000 0.00000000000000000 1.00000000000000000 0.00000000000000000 0.00000000000000000 0.00000000000000000 -1.00000000000000000 
1 1421.04897275524945144 -0.00000000000063371 2853.97561047222916386 0.00000000000000000 -1.00000000000000000 -0.00000000000000022 0.00000000000000000 0.00000000000000022 -1.00000000000000000 1.00000000000000000 0.00000000000000000 0.00000000000000000 
1 1568.26790078697922581 3134.00000000000000000 0.00000000000000000 0.56394902148175152 -0.82580960346182397 0.00000000000000000 -0.82580960346182397 -0.56394902148175152 0.00000000000000000 0.00000000000000000 -0.00000000000000000 -1.00000000000000000 
1 1038.91123860663833511 2772.50000000000000000 0.00000000000000000 0.00000000000000000 -1.00000000000000000 0.00000000000000000 -1.00000000000000000 0.00000000000000000 0.00000000000000000 -0.00000000000000000 -0.00000000000000000 -1.00000000000000000 
1 999.98999999999966803 2772.50000000000000000 0.00000000000000000 1.00000000000000000 0.00000000000000000 -0.00000000000000000 0.00000000000000000 -1.00000000000000000 0.00000000000000000 0.00000000000000000 -0.00000000000000000 -1.00000000000000000 
1 999.98999999999966803 2522.50000000000000000 0.00000000000000000 0.00000000000000000 1.00000000000000000 0.00000000000000000 1.00000000000000000 0.00000000000000000 0.00000000000000000 0.00000000000000000 0.00000000000000000 -1.00000000000000000 
1 1116.13027344089050530 2522.50000000000000000 0.00000000000000000 -0.56394902148175152 0.82580960346182397 0.00000000000000000 0.82580960346182397 0.56394902148175152 0.00000000000000000 0.00000000000000000 0.00000000000000000 -1.00000000000000000 
1 1645.48693562123139600 2884.00000000000000000 0.00000000000000000 0.00000000000000000 1.00000000000000000 0.00000000000000000 1.00000000000000000 0.00000000000000000 0.00000000000000000 0.00000000000000000 0.00000000000000000 -1.00000000000000000 
2 1394.00000000000000000 2923.25000000000000000 0.00000000000000000 -0.00000000000000000 -0.00000000000000000 -1.00000000000000000 1.00000000000000000 0.00000000000000000 0.00000000000000000 -0.00000000000000000 1.00000000000000000 -0.00000000000000000 5.00000000000000000
2 1546.00000000000000000 2923.25000000000000000 0.00000000000000000 -0.00000000000000000 -0.00000000000000000 -1.00000000000000000 1.00000000000000000 0.00000000000000000 0.00000000000000000 -0.00000000000000000 1.00000000000000000 -0.00000000000000000 5.00000000000000000
2 1666.00000000000000000 3109.00000000000000000 0.00000000000000000 -0.00000000000000000 -0.00000000000000000 -1.00000000000000000 1.00000000000000000 0.00000000000000000 0.00000000000000000 -0.00000000000000000 1.00000000000000000 -0.00000000000000000 5.00000000000000000
2 1778.00000000000000000 3109.00000000000000000 0.00000000000000000 -0.00000000000000000 -0.00000000000000000 -1.00000000000000000 1.00000000000000000 0.00000000000000000 0.00000000000000000 -0.00000000000000000 1.00000000000000000 -0.00000000000000000 5.00000000000000000
Triangulations 0

TShapes 68
Ve
0.000000100000000
1858.000000000000000 3134.000000000000000 0.000000000000000
0 0

0101101
*
Ed
 0.000000100000000 1 1 0
1  1 0 0.000000000000000 15.000000000000000
2  1 2 0 0.000000000000000 15.000000000000000
0

0101000
+68 5 -68 7 *
Ve
0.000000100000000
1568.267900786979226 3134.000000000000000 0.000000000000000
0 0

0101101
*
Ed
 0.000000100000000 1 1 0
1  2 0 0.000000000000000 15.000000000000000
0

0101000
+66 5 -66 7 *
Ed
 0.000000100000000 1 1 0
1  3 0 0.000000000000000 289.732099213020774
2  2 3 8 0.000000000000000 289.732099213020774
0

0101000
+68 0 -66 0 *
Wi

0101100
+67 0 -65 0 -64 5 +64 7 *
Fa
0  0.000000100000000 1 0

0111000
+63 0 *
Ve
0.000000100000000
1038.911238606638335 2772.500000000000000 0.000000000000000
0 0

0101101
*
Ed
 0.000000100000000 1 1 0
1  4 0 0.000000000000000 15.000000000000000
2  3 5 0 0.000000000000000 15.000000000000000
0

0101000
+61 5 -61 7 *
Ed
 0.000000100000000 1 1 0
1  5 0 0.000000000000000 641.015386550675203
2  4 3 8 0.000000000000000 641.015386550675203
0

0101000
+66 0 -61 0 *
Wi

0101100
+65 0 -60 0 -59 5 +59 7 *
Fa
0  0.000000100000000 4 0

0111000
+58 0 *
Ve
0.000000100000000
999.989999999999668 2772.500000000000000 0.000000000000000
0 0

0101101
*
Ed
 0.000000100000000 1 1 0
1  6 0 0.000000000000000 15.000000000000000
2  5 5 0 0.000000000000000 15.000000000000000
2  6 6 0 0.000000000000000 15.000000000000000
0

0101000
+56 5 -56 7 *
Ed
 0.000000100000000 1 1 0
1  7 0 0.000000000000000 38.921238606638667
2  7 5 9 0.000000000000000 38.921238606638667
2  8 5 10 0.000000000000000 38.921238606638667
2  9 3 8 0.000000000000000 38.921238606638667
0

0101000
+61 0 -56 0 *
Wi

0101100
+60 0 -55 0 -54 5 +54 7 *
Fa
0  0.000000100000000 5 0

0111000
+53 0 *
Ve
0.000000100000000
999.989999999999668 2522.500000000000000 0.000000000000000
0 0

0101101
*
Ed
 0.000000100000000 1 1 0
1  8 0 0.000000000000000 15.000000000000000
2  10 6 0 0.000000000000000 15.000000000000000
2  11 7 0 0.000000000000000 15.000000000000000
0

0101000
+51 5 -51 7 *
Ed
 0.000000100000000 1 1 0
1  9 0 0.000000000000000 250.000000000000000
2  12 6 9 0.000000000000000 250.000000000000000
2  13 6 10 0.000000000000000 250.000000000000000
2  14 3 8 0.000000000000000 250.000000000000000
0

0101000
+56 0 -51 0 *
Wi

0101100
+55 0 -50 0 -49 5 +49 7 *
Fa
0  0.000000100000000 6 0

0111000
+48 0 *
Ve
0.000000100000000
1116.130273440890505 2522.500000000000000 0.000000000000000
0 0

0101101
*
Ed
 0.000000100000000 1 1 0
1  10 0 0.000000000000000 15.000000000000000
2  15 7 0 0.000000000000000 15.000000000000000
0

0101000
+46 5 -46 7 *
Ed
 0.000000100000000 1 1 0
1  11 0 0.000000000000000 116.140273440890837
2  16 7 9 0.000000000000000 116.140273440890837
2  17 7 10 0.000000000000000 116.140273440890837
2  18 3 8 0.000000000000000 116.140273440890837
0

0101000
+51 0 -46 0 *
Wi

0101100
+50 0 -45 0 -44 5 +44 7 *
Fa
0  0.000000100000000 7 0

0111000
+43 0 *
Ve
0.000000100000000
1645.486935621231396 2884.000000000000000 0.000000000000000
0 0

0101101
*
Ed
 0.000000100000000 1 1 0
1  12 0 0.000000000000000 15.000000000000000
2  19 9 0 0.000000000000000 15.000000000000000
0

0101000
+41 5 -41 7 *
Ed
 0.000000100000000 1 1 0
1  13 0 0.000000000000000 641.015386550675203
2  20 3 8 0.000000000000000 641.015386550675203
0

0101000
+46 0 -41 0 *
Wi

0101100
+45 0 -40 0 -39 5 +39 7 *
Fa
0  0.000000100000000 8 0

0111000
+38 0 *
Ve
0.000000100000000
1858.000000000000000 2884.000000000000000 0.000000000000000
0 0

0101101
*
Ed
 0.000000100000000 1 1 0
1  14 0 0.000000000000000 15.000000000000000
2  21 2 0 0.000000000000000 15.000000000000000
2  22 9 0 0.000000000000000 15.000000000000000
0

0101000
+36 5 -36 7 *
Ed
 0.000000100000000 1 1 0
1  15 0 0.000000000000000 212.513064378768604
2  23 3 8 0.000000000000000 212.513064378768604
2  24 9 9 0.000000000000000 212.513064378768604
2  25 9 10 0.000000000000000 212.513064378768604
0

0101000
+41 0 -36 0 *
Wi

0101100
+40 0 -35 0 -34 5 +34 7 *
Fa
0  0.000000100000000 9 0

0111000
+33 0 *
Ed
 0.000000100000000 1 1 0
1  16 0 0.000000000000000 250.000000000000000
2  26 3 8 0.000000000000000 250.000000000000000
2  27 2 9 0.000000000000000 250.000000000000000
2  28 2 10 0.000000000000000 250.000000000000000
0

0101000
+36 0 -68 0 *
Wi

0101100
+35 0 -67 0 -31 5 +31 7 *
Fa
0  0.000000100000000 2 0

0111000
+30 0 *
Ve
0.000000100000000
1399.000000000000000 2923.250000000000000 0.000000000000000
0 0

0101101
*
Ed
 0.000000100000000 1 1 0
1  17 0 0.000000000000000 15.000000000000000
3  29 30CN 10 0 0.000000000000000 15.000000000000000
0

0101000
+28 5 -28 7 *
Ed
 0.000000100000000 1 1 0
1  18 0 0.000000000000000 6.283185307179586
2  31 10 9 0.000000000000000 6.283185307179586
2  32 10 10 0.000000000000000 6.283185307179586
2  33 3 8 0.000000000000000 6.283185307179586
0

0101000
+28 0 -28 0 *
Wi

0101100
+27 0 -27 0 -26 5 +26 7 *
Fa
0  0.000000100000000 10 0

0111000
+25 0 *
Ve
0.000000100000000
1551.000000000000000 2923.250000000000000 0.000000000000000
0 0

0101101
*
Ed
 0.000000100000000 1 1 0
1  19 0 0.000000000000000 15.000000000000000
3  34 35CN 11 0 0.000000000000000 15.000000000000000
0

0101000
+23 5 -23 7 *
Ed
 0.000000100000000 1 1 0
1  20 0 0.000000000000000 6.283185307179586
2  36 11 9 0.000000000000000 6.283185307179586
2  37 11 10 0.000000000000000 6.283185307179586
2  38 3 8 0.000000000000000 6.283185307179586
0

0101000
+23 0 -23 0 *
Wi

0101100
+22 0 -22 0 -21 5 +21 7 *
Fa
0  0.000000100000000 11 0

0111000
+20 0 *
Ve
0.000000100000000
1671.000000000000000 3109.000000000000000 0.000000000000000
0 0

0101101
*
Ed
 0.000000100000000 1 1 0
1  21 0 0.000000000000000 15.000000000000000
3  39 40CN 12 0 0.000000000000000 15.000000000000000
0

0101000
+18 5 -18 7 *
Ed
 0.000000100000000 1 1 0
1  22 0 0.000000000000000 6.283185307179586
2  41 12 9 0.000000000000000 6.283185307179586
2  42 12 10 0.000000000000000 6.283185307179586
2  43 3 8 0.000000000000000 6.283185307179586
0

0101000
+18 0 -18 0 *
Wi

0101100
+17 0 -17 0 -16 5 +16 7 *
Fa
0  0.000000100000000 12 0

0111000
+15 0 *
Ve
0.000000100000000
1783.000000000000000 3109.000000000000000 0.000000000000000
0 0

0101101
*
Ed
 0.000000100000000 1 1 0
1  23 0 0.000000000000000 15.000000000000000
3  44 45CN 13 0 0.000000000000000 15.000000000000000
0

0101000
+13 5 -13 7 *
Ed
 0.000000100000000 1 1 0
1  24 0 0.000000000000000 6.283185307179586
2  46 13 9 0.000000000000000 6.283185307179586
2  47 13 10 0.000000000000000 6.283185307179586
2  48 3 8 0.000000000000000 6.283185307179586
0

0101000
+13 0 -13 0 *
Wi

0101100
+12 0 -12 0 -11 5 +11 7 *
Fa
0  0.000000100000000 13 0

0111000
+10 0 *
Wi

0101100
+64 12 +59 12 +54 12 +49 12 +44 12 +39 12 +34 12 +31 12 *
Wi

0101100
-26 12 *
Wi

0101100
-21 12 *
Wi

0101100
-16 12 *
Wi

0101100
-11 12 *
Fa
0  0.000000100000000 3 0

0111000
+8 0 +7 0 +6 0 +5 0 +4 0 *
Sh

0101100
+62 0 +57 0 +52 0 +47 0 +42 0 +37 0 +32 0 +29 0 -24 0 -19 0 
-14 0 -9 0 +3 11 -3 13 *
So

1100000
-2 0 *

+1 1 