
CASCADE Topology V1, (c) Matra-Datavision
Locations 23
1
1.000000000000000 0.000000000000000 0.000000000000000 0.000000000000000 
0.000000000000000 1.000000000000000 0.000000000000000 0.000000000000000 
0.000000000000000 0.000000000000000 1.000000000000000 0.000000000000000 
1
1.000000000000000 0.000000000000000 0.000000000000000 0.000000000000000 
0.000000000000000 1.000000000000000 0.000000000000000 0.000000000000000 
0.000000000000000 0.000000000000000 1.000000000000000 0.000000000000000 
1
1.000000000000000 0.000000000000000 0.000000000000000 0.000000000000000 
0.000000000000000 1.000000000000000 0.000000000000000 0.000000000000000 
0.000000000000000 0.000000000000000 1.000000000000000 0.000000000000000 
2  2 1 3 -1 0
1
1.000000000000000 0.000000000000000 0.000000000000000 0.000000000000000 
0.000000000000000 1.000000000000000 0.000000000000000 0.000000000000000 
0.000000000000000 0.000000000000000 1.000000000000000 0.000000000000000 
2  5 -1 3 1 2 -1 0
1
1.000000000000000 0.000000000000000 0.000000000000000 0.000000000000000 
0.000000000000000 1.000000000000000 0.000000000000000 0.000000000000000 
0.000000000000000 0.000000000000000 1.000000000000000 0.000000000000000 
1
1.000000000000000 0.000000000000000 0.000000000000000 0.000000000000000 
0.000000000000000 1.000000000000000 0.000000000000000 0.000000000000000 
0.000000000000000 0.000000000000000 1.000000000000000 0.000000000000000 
1
1.000000000000000 0.000000000000000 0.000000000000000 0.000000000000000 
0.000000000000000 1.000000000000000 0.000000000000000 0.000000000000000 
0.000000000000000 0.000000000000000 1.000000000000000 0.000000000000000 
2  7 1 8 1 9 -1 0
2  5 -1 3 1 2 -1 9 1 8 -1 7 -1 0
1
1.000000000000000 0.000000000000000 0.000000000000000 0.000000000000000 
0.000000000000000 1.000000000000000 0.000000000000000 0.000000000000000 
0.000000000000000 0.000000000000000 1.000000000000000 130.000000000000000 
2  7 1 8 1 9 -1 12 1 0
2  5 -1 3 1 2 -1 12 -1 9 1 8 -1 7 -1 0
2  9 -1 2 1 3 -1 0
2  7 1 8 1 9 -1 2 1 3 -1 0
1
1.000000000000000 0.000000000000000 0.000000000000000 0.000000000000000 
0.000000000000000 1.000000000000000 0.000000000000000 0.000000000000000 
0.000000000000000 0.000000000000000 1.000000000000000 0.000000000000000 
1
1.000000000000000 0.000000000000000 0.000000000000000 0.000000000000000 
0.000000000000000 1.000000000000000 0.000000000000000 0.000000000000000 
0.000000000000000 0.000000000000000 1.000000000000000 0.000000000000000 
2  17 1 18 1 3 -1 0
2  5 -1 3 1 18 -1 17 -1 0
2  9 -1 12 1 2 1 3 -1 0
2  7 1 8 1 9 -1 12 1 2 1 3 -1 0
2  5 -1 0
Curve2ds 0
Curves 36
1 0.00000000000000000 0.00000000000000000 0.00000000000000000 0.00000000000000000 0.00000000000000000 1.00000000000000000 
1 4803.00000000000000000 0.00000000000000000 0.00000000000000000 0.00000000000000000 0.00000000000000000 1.00000000000000000 
1 0.00000000000000000 0.00000000000000000 0.00000000000000000 1.00000000000000000 0.00000000000000000 0.00000000000000000 
1 0.00000000000000000 0.00000000000000000 0.00000000000000000 1.00000000000000000 0.00000000000000000 0.00000000000000000 
1 0.00000000000000000 -1870.00000000000000000 0.00000000000000000 0.00000000000000000 0.00000000000000000 1.00000000000000000 
1 0.00000000000000000 -1870.00000000000000000 0.00000000000000000 0.00000000000000000 1.00000000000000000 0.00000000000000000 
1 0.00000000000000000 -1870.00000000000000000 0.00000000000000000 0.00000000000000000 1.00000000000000000 0.00000000000000000 
1 4803.00000000000000000 -1870.00000000000000000 0.00000000000000000 0.00000000000000000 0.00000000000000000 1.00000000000000000 
1 4803.00000000000000000 0.00000000000000000 0.00000000000000000 0.00000000000000000 -1.00000000000000000 0.00000000000000000 
1 4803.00000000000000000 0.00000000000000000 0.00000000000000000 0.00000000000000000 -1.00000000000000000 0.00000000000000000 
1 4803.00000000000000000 -1870.00000000000000000 0.00000000000000000 -1.00000000000000000 0.00000000000000000 0.00000000000000000 
1 4791.00000000000000000 -1009.99999999999465672 0.00000000000000000 0.00000000000000000 -1.00000000000000000 0.00000000000000000 
1 4695.99999999999636202 -1009.99999999999465672 0.00000000000000000 1.00000000000000000 0.00000000000000000 0.00000000000000000 
1 4695.99999999999636202 -1260.00000000000113687 0.00000000000000000 0.00000000000000000 1.00000000000000000 0.00000000000000000 
1 4791.00000000000000000 -1260.00000000000113687 0.00000000000000000 -1.00000000000000000 0.00000000000000000 0.00000000000000000 
1 3902.76032836973899975 -1005.00000000000000000 0.00000000000000000 0.00000000000000000 -1.00000000000000000 0.00000000000000000 
1 3652.76032836973945450 -1005.00000000000000000 0.00000000000000000 1.00000000000000000 0.00000000000000000 0.00000000000000000 
1 3652.76032836973945450 -1100.00000000000227374 0.00000000000000000 0.00000000000000000 1.00000000000000000 0.00000000000000000 
1 3902.76032836973899975 -1100.00000000000227374 0.00000000000000000 -1.00000000000000000 0.00000000000000000 0.00000000000000000 
1 4803.00000000000000000 -1870.00000000000000000 0.00000000000000000 -1.00000000000000000 0.00000000000000000 0.00000000000000000 
1 3596.25000000000000000 -1260.00000000000113687 130.00000000000000000 1.00000000000000000 0.00000000000000000 0.00000000000000000 
1 4791.00000000000000000 -972.49999999999727152 130.00000000000000000 0.00000000000000000 1.00000000000000000 0.00000000000000000 
1 3548.74999999999818101 -1009.99999999999465672 130.00000000000000000 -1.00000000000000000 0.00000000000000000 0.00000000000000000 
1 4695.99999999999636202 -1097.50000000000045475 130.00000000000000000 0.00000000000000000 -1.00000000000000000 0.00000000000000000 
1 3152.13016418486949988 -1100.00000000000227374 130.00000000000000000 1.00000000000000000 0.00000000000000000 0.00000000000000000 
1 3902.76032836973899975 -970.00000000000000000 130.00000000000000000 0.00000000000000000 1.00000000000000000 0.00000000000000000 
1 3027.13016418486949988 -1005.00000000000000000 130.00000000000000000 -1.00000000000000000 0.00000000000000000 0.00000000000000000 
1 3652.76032836973945450 -1017.50000000000113687 130.00000000000000000 0.00000000000000000 -1.00000000000000000 0.00000000000000000 
1 4791.00000000000000000 -1260.00000000000113687 0.00000000000000000 0.00000000000000000 0.00000000000000000 1.00000000000000000 
1 4791.00000000000000000 -1009.99999999999465672 0.00000000000000000 0.00000000000000000 0.00000000000000000 1.00000000000000000 
1 4695.99999999999636202 -1009.99999999999465672 0.00000000000000000 0.00000000000000000 0.00000000000000000 1.00000000000000000 
1 4695.99999999999636202 -1260.00000000000113687 0.00000000000000000 0.00000000000000000 0.00000000000000000 1.00000000000000000 
1 3902.76032836973899975 -1100.00000000000227374 0.00000000000000000 0.00000000000000000 0.00000000000000000 1.00000000000000000 
1 3902.76032836973899975 -1005.00000000000000000 0.00000000000000000 0.00000000000000000 0.00000000000000000 1.00000000000000000 
1 3652.76032836973945450 -1005.00000000000000000 0.00000000000000000 0.00000000000000000 0.00000000000000000 1.00000000000000000 
1 3652.76032836973945450 -1100.00000000000227374 0.00000000000000000 0.00000000000000000 0.00000000000000000 1.00000000000000000 
Polygon3D 0
PolygonOnTriangulations 0
Surfaces 14
1 0.00000000000000000 0.00000000000000000 0.00000000000000000 0.00000000000000000 1.00000000000000000 0.00000000000000000 1.00000000000000000 0.00000000000000000 0.00000000000000000 0.00000000000000000 0.00000000000000000 -1.00000000000000000 
1 0.00000000000000000 -1870.00000000000000000 0.00000000000000000 -1.00000000000000000 0.00000000000000000 0.00000000000000000 0.00000000000000000 1.00000000000000000 0.00000000000000000 0.00000000000000000 0.00000000000000000 -1.00000000000000000 
1 4803.00000000000000000 0.00000000000000000 0.00000000000000000 1.00000000000000000 0.00000000000000000 0.00000000000000000 0.00000000000000000 -1.00000000000000000 0.00000000000000000 0.00000000000000000 0.00000000000000000 -1.00000000000000000 
1 2401.50000000000000000 -935.00000000000000000 0.00000000000000000 0.00000000000000000 0.00000000000000000 1.00000000000000000 1.00000000000000000 0.00000000000000000 0.00000000000000000 0.00000000000000000 1.00000000000000000 0.00000000000000000 
1 2401.50000000000000000 -935.00000000000000000 0.00000000000000000 0.00000000000000000 0.00000000000000000 1.00000000000000000 1.00000000000000000 0.00000000000000000 0.00000000000000000 0.00000000000000000 1.00000000000000000 0.00000000000000000 
1 4803.00000000000000000 -1870.00000000000000000 0.00000000000000000 0.00000000000000000 -1.00000000000000000 0.00000000000000000 -1.00000000000000000 0.00000000000000000 0.00000000000000000 -0.00000000000000000 -0.00000000000000000 -1.00000000000000000 
1 4791.00000000000000000 -1009.99999999999465672 0.00000000000000000 1.00000000000000000 0.00000000000000000 0.00000000000000000 0.00000000000000000 -1.00000000000000000 0.00000000000000000 0.00000000000000000 0.00000000000000000 -1.00000000000000000 
1 4695.99999999999636202 -1009.99999999999465672 0.00000000000000000 0.00000000000000000 1.00000000000000000 0.00000000000000000 1.00000000000000000 0.00000000000000000 0.00000000000000000 0.00000000000000000 0.00000000000000000 -1.00000000000000000 
1 4695.99999999999636202 -1260.00000000000113687 0.00000000000000000 -1.00000000000000000 0.00000000000000000 0.00000000000000000 0.00000000000000000 1.00000000000000000 0.00000000000000000 0.00000000000000000 0.00000000000000000 -1.00000000000000000 
1 4791.00000000000000000 -1260.00000000000113687 0.00000000000000000 0.00000000000000000 -1.00000000000000000 0.00000000000000000 -1.00000000000000000 0.00000000000000000 0.00000000000000000 -0.00000000000000000 -0.00000000000000000 -1.00000000000000000 
1 3902.76032836973899975 -1005.00000000000000000 0.00000000000000000 1.00000000000000000 0.00000000000000000 0.00000000000000000 0.00000000000000000 -1.00000000000000000 0.00000000000000000 0.00000000000000000 0.00000000000000000 -1.00000000000000000 
1 3652.76032836973945450 -1005.00000000000000000 0.00000000000000000 0.00000000000000000 1.00000000000000000 0.00000000000000000 1.00000000000000000 0.00000000000000000 0.00000000000000000 0.00000000000000000 0.00000000000000000 -1.00000000000000000 
1 3652.76032836973945450 -1100.00000000000227374 0.00000000000000000 -1.00000000000000000 0.00000000000000000 0.00000000000000000 0.00000000000000000 1.00000000000000000 0.00000000000000000 0.00000000000000000 0.00000000000000000 -1.00000000000000000 
1 3902.76032836973899975 -1100.00000000000227374 0.00000000000000000 0.00000000000000000 -1.00000000000000000 0.00000000000000000 -1.00000000000000000 0.00000000000000000 0.00000000000000000 -0.00000000000000000 -0.00000000000000000 -1.00000000000000000 
Triangulations 0

TShapes 94
Ve
0.000000100000000
0.000000000000000 0.000000000000000 0.000000000000000
0 0

0101101
*
Ve
0.000000100000000
0.000000000000000 0.000000000000000 130.000000000000000
0 0

0101101
*
Ed
 0.000000100000000 1 1 0
1  1 0 0.000000000000000 130.000000000000000
0

0101000
+94 6 -93 6 *
Ve
0.000000100000000
4803.000000000000000 0.000000000000000 0.000000000000000
0 0

0101101
*
Ve
0.000000100000000
4803.000000000000000 0.000000000000000 130.000000000000000
0 0

0101101
*
Ed
 0.000000100000000 1 1 0
1  2 0 0.000000000000000 130.000000000000000
0

0101000
+91 6 -90 6 *
Ed
 0.000000100000000 1 1 0
1  3 0 0.000000000000000 4803.000000000000000
0

0101000
+94 11 -91 11 *
Ed
 0.000000100000000 1 1 0
1  4 0 0.000000000000000 4803.000000000000000
0

0101000
+93 14 -90 14 *
Wi

0101100
+92 0 -89 0 -88 10 +87 13 *
Fa
0  0.000000100000000 1 0

0111000
+86 0 *
Ve
0.000000100000000
0.000000000000000 -1870.000000000000000 0.000000000000000
0 0

0101101
*
Ve
0.000000100000000
0.000000000000000 -1870.000000000000000 130.000000000000000
0 0

0101101
*
Ed
 0.000000100000000 1 1 0
1  5 0 0.000000000000000 130.000000000000000
0

0101000
+84 6 -83 6 *
Ed
 0.000000100000000 1 1 0
1  6 0 0.000000000000000 1870.000000000000000
0

0101000
+84 11 -94 11 *
Ed
 0.000000100000000 1 1 0
1  7 0 0.000000000000000 1870.000000000000000
0

0101000
+83 14 -93 14 *
Wi

0101100
+82 0 -92 0 -81 10 +80 13 *
Fa
0  0.000000100000000 2 0

0111000
+79 0 *
Ve
0.000000100000000
4803.000000000000000 -1870.000000000000000 0.000000000000000
0 0

0101101
*
Ve
0.000000100000000
4803.000000000000000 -1870.000000000000000 130.000000000000000
0 0

0101101
*
Ed
 0.000000100000000 1 1 0
1  8 0 0.000000000000000 130.000000000000000
0

0101000
+77 6 -76 6 *
Ed
 0.000000100000000 1 1 0
1  9 0 0.000000000000000 1870.000000000000000
0

0101000
+91 11 -77 11 *
Ed
 0.000000100000000 1 1 0
1  10 0 0.000000000000000 1870.000000000000000
0

0101000
+90 14 -76 14 *
Wi

0101100
+89 0 -75 0 -74 10 +73 13 *
Fa
0  0.000000100000000 3 0

0111000
+72 0 *
Ed
 0.000000100000000 1 1 0
1  11 0 0.000000000000000 4803.000000000000000
0

0101000
+77 11 -84 11 *
Wi

0101100
-88 16 -81 16 -74 16 -70 16 *
Ve
0.000000100000000
4791.000000000000000 -1009.999999999994657 0.000000000000000
0 0

0101101
*
Ve
0.000000100000000
4791.000000000000000 -1260.000000000001137 0.000000000000000
0 0

0101101
*
Ed
 0.000000100000000 1 1 0
1  12 0 0.000000000000000 250.000000000006480
0

0101000
+68 20 -67 20 *
Ve
0.000000100000000
4695.999999999996362 -1009.999999999994657 0.000000000000000
0 0

0101101
*
Ed
 0.000000100000000 1 1 0
1  13 0 0.000000000000000 95.000000000003638
0

0101000
+65 20 -68 20 *
Ve
0.000000100000000
4695.999999999996362 -1260.000000000001137 0.000000000000000
0 0

0101101
*
Ed
 0.000000100000000 1 1 0
1  14 0 0.000000000000000 250.000000000006480
0

0101000
+63 20 -65 20 *
Ed
 0.000000100000000 1 1 0
1  15 0 0.000000000000000 95.000000000003638
0

0101000
+67 20 -63 20 *
Wi

0101100
+66 19 +64 19 +62 19 +61 19 *
Ve
0.000000100000000
3902.760328369739000 -1005.000000000000000 0.000000000000000
0 0

0101101
*
Ve
0.000000100000000
3902.760328369739000 -1100.000000000002274 0.000000000000000
0 0

0101101
*
Ed
 0.000000100000000 1 1 0
1  16 0 0.000000000000000 95.000000000002274
0

0101000
+59 20 -58 20 *
Ve
0.000000100000000
3652.760328369739455 -1005.000000000000000 0.000000000000000
0 0

0101101
*
Ed
 0.000000100000000 1 1 0
1  17 0 0.000000000000000 249.999999999999545
0

0101000
+56 20 -59 20 *
Ve
0.000000100000000
3652.760328369739455 -1100.000000000002274 0.000000000000000
0 0

0101101
*
Ed
 0.000000100000000 1 1 0
1  18 0 0.000000000000000 95.000000000002274
0

0101000
+54 20 -56 20 *
Ed
 0.000000100000000 1 1 0
1  19 0 0.000000000000000 249.999999999999545
0

0101000
+58 20 -54 20 *
Wi

0101100
+57 19 +55 19 +53 19 +52 19 *
Fa
0  0.000000100000000 4 15

0111000
+69 0 +60 0 +51 0 *
Ed
 0.000000100000000 1 1 0
1  20 0 0.000000000000000 4803.000000000000000
0

0101000
+76 14 -83 14 *
Wi

0101100
-87 22 -80 22 -73 22 -49 22 *
Ve
0.000000150000000
4695.999999999996362 -1260.000000000001137 130.000000000000000
0 0

0101101
*
Ve
0.000000150000000
4791.000000000000000 -1260.000000000001137 130.000000000000000
0 0

0101101
*
Ed
 0.000000150000000 1 1 0
1  21 0 1099.749999999996362 1194.750000000000000
0

0101000
+47 23 -46 23 *
Ve
0.000000150000000
4791.000000000000000 -1009.999999999994657 130.000000000000000
0 0

0101101
*
Ed
 0.000000150000000 1 1 0
1  22 0 -287.500000000003865 -37.499999999997385
0

0101000
+46 23 -44 23 *
Ve
0.000000150000000
4695.999999999996362 -1009.999999999994657 130.000000000000000
0 0

0101101
*
Ed
 0.000000150000000 1 1 0
1  23 0 -1242.250000000001819 -1147.249999999998181
0

0101000
+44 23 -42 23 *
Ed
 0.000000150000000 1 1 0
1  24 0 -87.500000000005798 162.500000000000682
0

0101000
+42 23 -47 23 *
Wi

0101100
-45 0 -43 0 -41 0 -40 0 *
Ve
0.000000150000000
3652.760328369739455 -1100.000000000002274 130.000000000000000
0 0

0101101
*
Ve
0.000000150000000
3902.760328369739000 -1100.000000000002274 130.000000000000000
0 0

0101101
*
Ed
 0.000000150000000 1 1 0
1  25 0 500.630164184869955 750.630164184869500
0

0101000
+38 23 -37 23 *
Ve
0.000000150000000
3902.760328369739000 -1005.000000000000000 130.000000000000000
0 0

0101101
*
Ed
 0.000000150000000 1 1 0
1  26 0 -130.000000000002274 -35.000000000000000
0

0101000
+37 23 -35 23 *
Ve
0.000000150000000
3652.760328369739455 -1005.000000000000000 130.000000000000000
0 0

0101101
*
Ed
 0.000000150000000 1 1 0
1  27 0 -875.630164184869500 -625.630164184869955
0

0101000
+35 23 -33 23 *
Ed
 0.000000150000000 1 1 0
1  28 0 -12.500000000001137 82.500000000001137
0

0101000
+33 23 -38 23 *
Wi

0101100
-36 0 -34 0 -32 0 -31 0 *
Fa
0  0.000000100000000 5 21

0111000
+48 0 +39 0 +30 0 *
Wi

0101100
+75 0 -82 0 -70 10 +49 13 *
Fa
0  0.000000100000000 6 0

0111000
+28 0 *
Ed
 0.000000100000000 1 1 0
1  29 0 0.000000000000000 130.000000000000000
0

0101000
+67 23 -46 23 *
Ed
 0.000000100000000 1 1 0
1  30 0 0.000000000000000 130.000000000000000
0

0101000
+68 23 -44 23 *
Wi

0101100
-66 19 -26 0 -43 0 +25 0 *
Fa
0  0.000000100000000 7 0

0111000
+24 0 *
Ed
 0.000000100000000 1 1 0
1  31 0 0.000000000000000 130.000000000000000
0

0101000
+65 23 -42 23 *
Wi

0101100
-64 19 -25 0 -41 0 +22 0 *
Fa
0  0.000000100000000 8 0

0111000
+21 0 *
Ed
 0.000000100000000 1 1 0
1  32 0 0.000000000000000 130.000000000000000
0

0101000
+63 23 -47 23 *
Wi

0101100
-62 19 -22 0 -40 0 +19 0 *
Fa
0  0.000000100000000 9 0

0111000
+18 0 *
Wi

0101100
-61 19 -19 0 -45 0 +26 0 *
Fa
0  0.000000100000000 10 0

0111000
+16 0 *
Ed
 0.000000100000000 1 1 0
1  33 0 0.000000000000000 130.000000000000000
0

0101000
+58 23 -37 23 *
Ed
 0.000000100000000 1 1 0
1  34 0 0.000000000000000 130.000000000000000
0

0101000
+59 23 -35 23 *
Wi

0101100
-57 19 -14 0 -34 0 +13 0 *
Fa
0  0.000000100000000 11 0

0111000
+12 0 *
Ed
 0.000000100000000 1 1 0
1  35 0 0.000000000000000 130.000000000000000
0

0101000
+56 23 -33 23 *
Wi

0101100
-55 19 -13 0 -32 0 +10 0 *
Fa
0  0.000000100000000 12 0

0111000
+9 0 *
Ed
 0.000000100000000 1 1 0
1  36 0 0.000000000000000 130.000000000000000
0

0101000
+54 23 -38 23 *
Wi

0101100
-53 19 -10 0 -31 0 +7 0 *
Fa
0  0.000000100000000 13 0

0111000
+6 0 *
Wi

0101100
-52 19 -7 0 -36 0 +14 0 *
Fa
0  0.000000100000000 14 0

0111000
+4 0 *
Sh

0101100
+85 4 +78 4 +71 4 -50 0 +29 0 +27 4 -23 0 -20 0 -17 0 -15 0 
-11 0 -8 0 -5 0 -3 0 *
So

0100000
+2 0 *

+1 1 