
CASCADE Topology V1, (c) Matra-Datavision
Locations 13
1
1.000000000000000 0.000000000000000 0.000000000000000 0.000000000000000 
0.000000000000000 0.000000000000000 -1.000000000000000 0.000000000000000 
0.000000000000000 1.000000000000000 0.000000000000000 0.000000000000000 
1
1.000000000000000 0.000000000000000 0.000000000000000 0.000000000000000 
0.000000000000000 1.000000000000000 0.000000000000000 0.000000000000000 
0.000000000000000 0.000000000000000 1.000000000000000 0.000000000000000 
1
1.000000000000000 0.000000000000000 0.000000000000000 0.000000000000000 
0.000000000000000 -0.000000000000000 -1.000000000000000 0.000000000000000 
0.000000000000000 1.000000000000000 -0.000000000000000 0.000000000000000 
1
1.000000000000000 0.000000000000000 0.000000000000000 0.000000000000000 
0.000000000000000 -0.000000000000000 -1.000000000000000 0.000000000000000 
0.000000000000000 1.000000000000000 -0.000000000000000 0.000000000000000 
2  2 1 3 1 4 -1 0
1
1.000000000000000 0.000000000000000 0.000000000000000 0.000000000000000 
0.000000000000000 1.000000000000000 0.000000000000000 0.000000000000000 
0.000000000000000 0.000000000000000 1.000000000000000 15.000000000000000 
2  2 1 3 1 4 -1 6 1 0
2  3 -1 2 -1 0
2  4 1 3 -1 2 -1 0
2  6 -1 4 1 3 -1 2 -1 0
2  4 -1 0
2  2 1 3 1 0
2  4 -1 6 1 0
Curve2ds 137
1 0.00000000000000000 0.00000000000000000 0.00000000000000000 -1.00000000000000000 
1 250.00000000000000000 0.00000000000000000 0.00000000000000000 -1.00000000000000000 
1 -1107.88349854737703026 2361.91980449936318109 -1.00000000000000000 0.00000000000000000 
1 0.00000000000000000 0.00000000000000000 1.00000000000000000 0.00000000000000000 
1 0.00000000000000000 -15.00000000000000000 1.00000000000000000 0.00000000000000000 
1 -1357.88349854737703026 2361.91980449936318109 0.00000000000000000 -1.00000000000000000 
1 -1357.88349854737703026 2310.31141722421716622 0.39599197533386449 -0.91825397111647944 
1 -709.77521395854944330 807.43246232766296089 0.57027700837695006 -0.82145245371636455 
1 0.00000000000000000 0.00000000000000000 0.00000000000000000 -1.00000000000000000 
1 884.63807256897257503 -1489.23159253859648743 0.00000000000000000 -1.00000000000000000 
1 250.00000000000045475 0.00000000000000000 0.00000000000000000 -1.00000000000000000 
1 884.63807256897257503 -2387.08019550063772840 1.00000000000000000 -0.00000000000000000 
1 0.00000000000000000 0.00000000000000000 1.00000000000000000 0.00000000000000000 
1 0.00000000000000000 -15.00000000000000000 1.00000000000000000 0.00000000000000000 
1 1134.63807256897302977 -2387.08019550063772840 0.00000000000000000 1.00000000000000000 
1 1134.63807256897302977 -1410.95930395738969310 -0.57027700837695017 0.82145245371636455 
1 -490.12941095753149057 929.42829094140506641 -0.39599197533386443 0.91825397111647944 
1 0.00000000000000000 0.00000000000000000 0.00000000000000000 -1.00000000000000000 
1 6.28318530717958623 0.00000000000000000 0.00000000000000000 -1.00000000000000000 
1 0.00000000000000000 0.00000000000000000 1.00000000000000000 0.00000000000000000 
1 0.00000000000000000 -15.00000000000000000 1.00000000000000000 0.00000000000000000 
2 910.88807256897302977 -1374.09019550063749193 0.00000000000000000 1.00000000000000000 1.00000000000000000 -0.00000000000000000 5.00000000000000000
1 0.00000000000000000 0.00000000000000000 0.00000000000000000 -1.00000000000000000 
1 6.28318530717958623 0.00000000000000000 0.00000000000000000 -1.00000000000000000 
1 0.00000000000000000 0.00000000000000000 1.00000000000000000 0.00000000000000000 
1 0.00000000000000000 -15.00000000000000000 1.00000000000000000 0.00000000000000000 
2 910.88807256897302977 -1222.20627179092161896 0.00000000000000000 1.00000000000000000 1.00000000000000000 -0.00000000000000000 5.00000000000000000
1 0.00000000000000000 0.00000000000000000 0.00000000000000000 -1.00000000000000000 
1 6.28318530717958623 0.00000000000000000 0.00000000000000000 -1.00000000000000000 
1 0.00000000000000000 0.00000000000000000 1.00000000000000000 0.00000000000000000 
1 0.00000000000000000 -15.00000000000000000 1.00000000000000000 0.00000000000000000 
2 722.13807256897302977 -1102.20627179092161896 0.00000000000000000 1.00000000000000000 1.00000000000000000 -0.00000000000000000 5.00000000000000000
1 0.00000000000000000 0.00000000000000000 0.00000000000000000 -1.00000000000000000 
1 6.28318530717958623 0.00000000000000000 0.00000000000000000 -1.00000000000000000 
1 0.00000000000000000 0.00000000000000000 1.00000000000000000 0.00000000000000000 
1 0.00000000000000000 -15.00000000000000000 1.00000000000000000 0.00000000000000000 
2 722.13807256897302977 -950.32234808120529124 0.00000000000000000 1.00000000000000000 1.00000000000000000 -0.00000000000000000 5.00000000000000000
1 0.00000000000000000 0.00000000000000000 0.00000000000000000 -1.00000000000000000 
1 6.28318530717958623 0.00000000000000000 0.00000000000000000 -1.00000000000000000 
1 0.00000000000000000 0.00000000000000000 1.00000000000000000 0.00000000000000000 
1 0.00000000000000000 -15.00000000000000000 1.00000000000000000 0.00000000000000000 
2 533.38807256897302977 -830.32234808120551861 0.00000000000000000 1.00000000000000000 1.00000000000000000 -0.00000000000000000 5.00000000000000000
1 0.00000000000000000 0.00000000000000000 0.00000000000000000 -1.00000000000000000 
1 6.28318530717958623 0.00000000000000000 0.00000000000000000 -1.00000000000000000 
1 0.00000000000000000 0.00000000000000000 1.00000000000000000 0.00000000000000000 
1 0.00000000000000000 -15.00000000000000000 1.00000000000000000 0.00000000000000000 
2 533.38807256897302977 -678.43842437148919089 0.00000000000000000 1.00000000000000000 1.00000000000000000 -0.00000000000000000 5.00000000000000000
1 0.00000000000000000 0.00000000000000000 0.00000000000000000 -1.00000000000000000 
1 6.28318530717958623 0.00000000000000000 0.00000000000000000 -1.00000000000000000 
1 0.00000000000000000 0.00000000000000000 1.00000000000000000 0.00000000000000000 
1 0.00000000000000000 -15.00000000000000000 1.00000000000000000 0.00000000000000000 
2 344.63807256897302977 -558.43842437148919089 0.00000000000000000 1.00000000000000000 1.00000000000000000 -0.00000000000000000 5.00000000000000000
1 0.00000000000000000 0.00000000000000000 0.00000000000000000 -1.00000000000000000 
1 6.28318530717958623 0.00000000000000000 0.00000000000000000 -1.00000000000000000 
1 0.00000000000000000 0.00000000000000000 1.00000000000000000 0.00000000000000000 
1 0.00000000000000000 -15.00000000000000000 1.00000000000000000 0.00000000000000000 
2 344.63807256897302977 -406.55450066177309054 0.00000000000000000 1.00000000000000000 1.00000000000000000 -0.00000000000000000 5.00000000000000000
1 0.00000000000000000 0.00000000000000000 0.00000000000000000 -1.00000000000000000 
1 6.28318530717958623 0.00000000000000000 0.00000000000000000 -1.00000000000000000 
1 0.00000000000000000 0.00000000000000000 1.00000000000000000 0.00000000000000000 
1 0.00000000000000000 -15.00000000000000000 1.00000000000000000 0.00000000000000000 
2 155.88807256897302977 -286.55450066177263579 0.00000000000000000 1.00000000000000000 1.00000000000000000 -0.00000000000000000 5.00000000000000000
1 0.00000000000000000 0.00000000000000000 0.00000000000000000 -1.00000000000000000 
1 6.28318530717958623 0.00000000000000000 0.00000000000000000 -1.00000000000000000 
1 0.00000000000000000 0.00000000000000000 1.00000000000000000 0.00000000000000000 
1 0.00000000000000000 -15.00000000000000000 1.00000000000000000 0.00000000000000000 
2 155.88807256897302977 -134.67057695205812706 0.00000000000000000 1.00000000000000000 1.00000000000000000 -0.00000000000000000 5.00000000000000000
1 0.00000000000000000 0.00000000000000000 0.00000000000000000 -1.00000000000000000 
1 6.28318530717958623 0.00000000000000000 0.00000000000000000 -1.00000000000000000 
1 0.00000000000000000 0.00000000000000000 1.00000000000000000 0.00000000000000000 
1 0.00000000000000000 -15.00000000000000000 1.00000000000000000 0.00000000000000000 
2 -32.86192743102697023 -14.67057695205858181 0.00000000000000000 1.00000000000000000 1.00000000000000000 -0.00000000000000000 5.00000000000000000
1 0.00000000000000000 0.00000000000000000 0.00000000000000000 -1.00000000000000000 
1 6.28318530717958623 0.00000000000000000 0.00000000000000000 -1.00000000000000000 
1 0.00000000000000000 0.00000000000000000 1.00000000000000000 0.00000000000000000 
1 0.00000000000000000 -15.00000000000000000 1.00000000000000000 0.00000000000000000 
2 -32.86192743102697023 137.21334675765820066 0.00000000000000000 1.00000000000000000 1.00000000000000000 -0.00000000000000000 5.00000000000000000
1 0.00000000000000000 0.00000000000000000 0.00000000000000000 -1.00000000000000000 
1 6.28318530717958623 0.00000000000000000 0.00000000000000000 -1.00000000000000000 
1 0.00000000000000000 0.00000000000000000 1.00000000000000000 0.00000000000000000 
1 0.00000000000000000 -15.00000000000000000 1.00000000000000000 0.00000000000000000 
2 -221.61192743102697023 257.21334675765820066 0.00000000000000000 1.00000000000000000 1.00000000000000000 -0.00000000000000000 5.00000000000000000
1 0.00000000000000000 0.00000000000000000 0.00000000000000000 -1.00000000000000000 
1 6.28318530717958623 0.00000000000000000 0.00000000000000000 -1.00000000000000000 
1 0.00000000000000000 0.00000000000000000 1.00000000000000000 0.00000000000000000 
1 0.00000000000000000 -15.00000000000000000 1.00000000000000000 0.00000000000000000 
2 -221.61192743102697023 409.09727046737407363 0.00000000000000000 1.00000000000000000 1.00000000000000000 -0.00000000000000000 5.00000000000000000
1 0.00000000000000000 0.00000000000000000 0.00000000000000000 -1.00000000000000000 
1 6.28318530717958623 0.00000000000000000 0.00000000000000000 -1.00000000000000000 
1 0.00000000000000000 0.00000000000000000 1.00000000000000000 0.00000000000000000 
1 0.00000000000000000 -15.00000000000000000 1.00000000000000000 0.00000000000000000 
2 -410.36192743102697023 529.09727046737452838 0.00000000000000000 1.00000000000000000 1.00000000000000000 -0.00000000000000000 5.00000000000000000
1 0.00000000000000000 0.00000000000000000 0.00000000000000000 -1.00000000000000000 
1 6.28318530717958623 0.00000000000000000 0.00000000000000000 -1.00000000000000000 
1 0.00000000000000000 0.00000000000000000 1.00000000000000000 0.00000000000000000 
1 0.00000000000000000 -15.00000000000000000 1.00000000000000000 0.00000000000000000 
2 -410.36192743102697023 680.98119417708994661 0.00000000000000000 1.00000000000000000 1.00000000000000000 -0.00000000000000000 5.00000000000000000
1 0.00000000000000000 0.00000000000000000 0.00000000000000000 -1.00000000000000000 
1 6.28318530717958623 0.00000000000000000 0.00000000000000000 -1.00000000000000000 
1 0.00000000000000000 0.00000000000000000 1.00000000000000000 0.00000000000000000 
1 0.00000000000000000 -15.00000000000000000 1.00000000000000000 0.00000000000000000 
2 -599.11192743102697023 800.98119417709040135 0.00000000000000000 1.00000000000000000 1.00000000000000000 -0.00000000000000000 5.00000000000000000
1 0.00000000000000000 0.00000000000000000 0.00000000000000000 -1.00000000000000000 
1 6.28318530717958623 0.00000000000000000 0.00000000000000000 -1.00000000000000000 
1 0.00000000000000000 0.00000000000000000 1.00000000000000000 0.00000000000000000 
1 0.00000000000000000 -15.00000000000000000 1.00000000000000000 0.00000000000000000 
2 -599.11192743102697023 1018.91980449936227160 0.00000000000000000 1.00000000000000000 1.00000000000000000 -0.00000000000000000 5.00000000000000000
1 0.00000000000000000 0.00000000000000000 0.00000000000000000 -1.00000000000000000 
1 6.28318530717958623 0.00000000000000000 0.00000000000000000 -1.00000000000000000 
1 0.00000000000000000 0.00000000000000000 1.00000000000000000 0.00000000000000000 
1 0.00000000000000000 -15.00000000000000000 1.00000000000000000 0.00000000000000000 
2 -787.86192743102697023 1138.43730807042493325 0.00000000000000000 1.00000000000000000 1.00000000000000000 -0.00000000000000000 5.00000000000000000
1 0.00000000000000000 0.00000000000000000 0.00000000000000000 -1.00000000000000000 
1 6.28318530717958623 0.00000000000000000 0.00000000000000000 -1.00000000000000000 
1 0.00000000000000000 0.00000000000000000 1.00000000000000000 0.00000000000000000 
1 0.00000000000000000 -15.00000000000000000 1.00000000000000000 0.00000000000000000 
2 -787.86192743102697023 1432.91980449936227160 0.00000000000000000 1.00000000000000000 1.00000000000000000 -0.00000000000000000 5.00000000000000000
1 0.00000000000000000 0.00000000000000000 0.00000000000000000 -1.00000000000000000 
1 6.28318530717958623 0.00000000000000000 0.00000000000000000 -1.00000000000000000 
1 0.00000000000000000 0.00000000000000000 1.00000000000000000 0.00000000000000000 
1 0.00000000000000000 -15.00000000000000000 1.00000000000000000 0.00000000000000000 
2 -976.61192743102697023 1548.35882886627041444 0.00000000000000000 1.00000000000000000 1.00000000000000000 -0.00000000000000000 5.00000000000000000
1 0.00000000000000000 0.00000000000000000 0.00000000000000000 -1.00000000000000000 
1 6.28318530717958623 0.00000000000000000 0.00000000000000000 -1.00000000000000000 
1 0.00000000000000000 0.00000000000000000 1.00000000000000000 0.00000000000000000 
1 0.00000000000000000 -15.00000000000000000 1.00000000000000000 0.00000000000000000 
2 -976.61192743102697023 1906.91980449936227160 0.00000000000000000 1.00000000000000000 1.00000000000000000 -0.00000000000000000 5.00000000000000000
1 0.00000000000000000 0.00000000000000000 0.00000000000000000 -1.00000000000000000 
1 6.28318530717958623 0.00000000000000000 0.00000000000000000 -1.00000000000000000 
1 0.00000000000000000 0.00000000000000000 1.00000000000000000 0.00000000000000000 
1 0.00000000000000000 -15.00000000000000000 1.00000000000000000 0.00000000000000000 
2 -1165.36192743102697023 2011.95648051512534948 0.00000000000000000 1.00000000000000000 1.00000000000000000 -0.00000000000000000 5.00000000000000000
1 0.00000000000000000 0.00000000000000000 0.00000000000000000 -1.00000000000000000 
1 6.28318530717958623 0.00000000000000000 0.00000000000000000 -1.00000000000000000 
1 0.00000000000000000 0.00000000000000000 1.00000000000000000 0.00000000000000000 
1 0.00000000000000000 -15.00000000000000000 1.00000000000000000 0.00000000000000000 
2 -1165.36192743102697023 2281.91980449936227160 0.00000000000000000 1.00000000000000000 1.00000000000000000 -0.00000000000000000 5.00000000000000000
Curves 66
1 4776.00000000000090949 529.97842888364993996 0.00000000000000000 0.00000000000000000 0.00000000000000000 1.00000000000000000 
1 4776.00000000000090949 279.97842888364993996 0.00000000000000000 0.00000000000000000 0.00000000000000000 1.00000000000000000 
1 4776.00000000000090949 529.97842888364993996 0.00000000000000000 0.00000000000000000 -1.00000000000000000 0.00000000000000000 
1 4724.39161272485489462 279.97842888364993996 0.00000000000000000 0.00000000000000000 0.00000000000000000 1.00000000000000000 
1 4776.00000000000090949 279.97842888364993996 0.00000000000000000 -1.00000000000000000 0.00000000000000000 0.00000000000000000 
1 3221.51265782830068929 928.08671347247752692 0.00000000000000000 0.00000000000000000 0.00000000000000000 1.00000000000000000 
1 4724.39161272485489462 279.97842888364993996 0.00000000000000000 -0.91825397111647944 0.39599197533386449 0.00000000000000000 
1 924.84860296204124097 2522.49999999999954525 0.00000000000000000 0.00000000000000000 0.00000000000000000 1.00000000000000000 
1 3221.51265782830068929 928.08671347247752692 0.00000000000000000 -0.82145245371636455 0.57027700837695006 0.00000000000000000 
1 27.00000000000000000 2522.49999999999954525 0.00000000000000000 0.00000000000000000 0.00000000000000000 1.00000000000000000 
1 924.84860296204124097 2522.49999999999954525 0.00000000000000000 -1.00000000000000000 0.00000000000000000 0.00000000000000000 
1 27.00000000000000000 2772.50000000000000000 0.00000000000000000 0.00000000000000000 0.00000000000000000 1.00000000000000000 
1 27.00000000000000000 2522.49999999999954525 0.00000000000000000 0.00000000000000000 1.00000000000000000 0.00000000000000000 
1 1003.12089154324814899 2772.50000000000000000 0.00000000000000000 0.00000000000000000 0.00000000000000000 1.00000000000000000 
1 27.00000000000000000 2772.50000000000000000 0.00000000000000000 1.00000000000000000 0.00000000000000000 0.00000000000000000 
1 3343.50848644204279481 1147.73251647349547966 0.00000000000000000 0.00000000000000000 0.00000000000000000 1.00000000000000000 
1 1003.12089154324814899 2772.50000000000000000 0.00000000000000000 0.82145245371636455 -0.57027700837695017 0.00000000000000000 
1 3343.50848644204279481 1147.73251647349547966 0.00000000000000000 0.91825397111647944 -0.39599197533386443 0.00000000000000000 
1 1044.99000000000023647 2548.75000000000000000 0.00000000000000000 0.00000000000000000 0.00000000000000000 1.00000000000000000 
2 1039.99000000000023647 2548.75000000000000000 0.00000000000000000 0.00000000000000000 0.00000000000000000 1.00000000000000000 1.00000000000000000 0.00000000000000000 -0.00000000000000000 -0.00000000000000000 1.00000000000000000 0.00000000000000000 5.00000000000000000
1 1196.87392370971610944 2548.75000000000000000 0.00000000000000000 0.00000000000000000 0.00000000000000000 1.00000000000000000 
2 1191.87392370971610944 2548.75000000000000000 0.00000000000000000 0.00000000000000000 0.00000000000000000 1.00000000000000000 1.00000000000000000 0.00000000000000000 -0.00000000000000000 -0.00000000000000000 1.00000000000000000 0.00000000000000000 5.00000000000000000
1 1316.87392370971610944 2360.00000000000000000 0.00000000000000000 0.00000000000000000 0.00000000000000000 1.00000000000000000 
2 1311.87392370971610944 2360.00000000000000000 0.00000000000000000 0.00000000000000000 0.00000000000000000 1.00000000000000000 1.00000000000000000 0.00000000000000000 -0.00000000000000000 -0.00000000000000000 1.00000000000000000 0.00000000000000000 5.00000000000000000
1 1468.75784741943243716 2360.00000000000000000 0.00000000000000000 0.00000000000000000 0.00000000000000000 1.00000000000000000 
2 1463.75784741943243716 2360.00000000000000000 0.00000000000000000 0.00000000000000000 0.00000000000000000 1.00000000000000000 1.00000000000000000 0.00000000000000000 -0.00000000000000000 -0.00000000000000000 1.00000000000000000 0.00000000000000000 5.00000000000000000
1 1588.75784741943220979 2171.25000000000000000 0.00000000000000000 0.00000000000000000 0.00000000000000000 1.00000000000000000 
2 1583.75784741943220979 2171.25000000000000000 0.00000000000000000 0.00000000000000000 0.00000000000000000 1.00000000000000000 1.00000000000000000 0.00000000000000000 -0.00000000000000000 -0.00000000000000000 1.00000000000000000 0.00000000000000000 5.00000000000000000
1 1740.64177112914853751 2171.25000000000000000 0.00000000000000000 0.00000000000000000 0.00000000000000000 1.00000000000000000 
2 1735.64177112914853751 2171.25000000000000000 0.00000000000000000 0.00000000000000000 0.00000000000000000 1.00000000000000000 1.00000000000000000 0.00000000000000000 -0.00000000000000000 -0.00000000000000000 1.00000000000000000 0.00000000000000000 5.00000000000000000
1 1860.64177112914853751 1982.50000000000000000 0.00000000000000000 0.00000000000000000 0.00000000000000000 1.00000000000000000 
2 1855.64177112914853751 1982.50000000000000000 0.00000000000000000 0.00000000000000000 0.00000000000000000 1.00000000000000000 1.00000000000000000 0.00000000000000000 -0.00000000000000000 -0.00000000000000000 1.00000000000000000 0.00000000000000000 5.00000000000000000
1 2012.52569483886463786 1982.50000000000000000 0.00000000000000000 0.00000000000000000 0.00000000000000000 1.00000000000000000 
2 2007.52569483886463786 1982.50000000000000000 0.00000000000000000 0.00000000000000000 0.00000000000000000 1.00000000000000000 1.00000000000000000 0.00000000000000000 -0.00000000000000000 -0.00000000000000000 1.00000000000000000 0.00000000000000000 5.00000000000000000
1 2132.52569483886509261 1793.75000000000000000 0.00000000000000000 0.00000000000000000 0.00000000000000000 1.00000000000000000 
2 2127.52569483886509261 1793.75000000000000000 0.00000000000000000 0.00000000000000000 0.00000000000000000 1.00000000000000000 1.00000000000000000 0.00000000000000000 -0.00000000000000000 -0.00000000000000000 1.00000000000000000 0.00000000000000000 5.00000000000000000
1 2284.40961854857960134 1793.75000000000000000 0.00000000000000000 0.00000000000000000 0.00000000000000000 1.00000000000000000 
2 2279.40961854857960134 1793.75000000000000000 0.00000000000000000 0.00000000000000000 0.00000000000000000 1.00000000000000000 1.00000000000000000 0.00000000000000000 -0.00000000000000000 -0.00000000000000000 1.00000000000000000 0.00000000000000000 5.00000000000000000
1 2404.40961854857914659 1605.00000000000000000 0.00000000000000000 0.00000000000000000 0.00000000000000000 1.00000000000000000 
2 2399.40961854857914659 1605.00000000000000000 0.00000000000000000 0.00000000000000000 0.00000000000000000 1.00000000000000000 1.00000000000000000 0.00000000000000000 -0.00000000000000000 -0.00000000000000000 1.00000000000000000 0.00000000000000000 5.00000000000000000
1 2556.29354225829592906 1605.00000000000000000 0.00000000000000000 0.00000000000000000 0.00000000000000000 1.00000000000000000 
2 2551.29354225829592906 1605.00000000000000000 0.00000000000000000 0.00000000000000000 0.00000000000000000 1.00000000000000000 1.00000000000000000 0.00000000000000000 -0.00000000000000000 -0.00000000000000000 1.00000000000000000 0.00000000000000000 5.00000000000000000
1 2676.29354225829592906 1416.25000000000000000 0.00000000000000000 0.00000000000000000 0.00000000000000000 1.00000000000000000 
2 2671.29354225829592906 1416.25000000000000000 0.00000000000000000 0.00000000000000000 0.00000000000000000 1.00000000000000000 1.00000000000000000 0.00000000000000000 -0.00000000000000000 -0.00000000000000000 1.00000000000000000 0.00000000000000000 5.00000000000000000
1 2828.17746596801180203 1416.25000000000000000 0.00000000000000000 0.00000000000000000 0.00000000000000000 1.00000000000000000 
2 2823.17746596801180203 1416.25000000000000000 0.00000000000000000 0.00000000000000000 0.00000000000000000 1.00000000000000000 1.00000000000000000 0.00000000000000000 -0.00000000000000000 -0.00000000000000000 1.00000000000000000 0.00000000000000000 5.00000000000000000
1 2948.17746596801225678 1227.50000000000000000 0.00000000000000000 0.00000000000000000 0.00000000000000000 1.00000000000000000 
2 2943.17746596801225678 1227.50000000000000000 0.00000000000000000 0.00000000000000000 0.00000000000000000 1.00000000000000000 1.00000000000000000 0.00000000000000000 -0.00000000000000000 -0.00000000000000000 1.00000000000000000 0.00000000000000000 5.00000000000000000
1 3100.06138967772767501 1227.50000000000000000 0.00000000000000000 0.00000000000000000 0.00000000000000000 1.00000000000000000 
2 3095.06138967772767501 1227.50000000000000000 0.00000000000000000 0.00000000000000000 0.00000000000000000 1.00000000000000000 1.00000000000000000 0.00000000000000000 -0.00000000000000000 -0.00000000000000000 1.00000000000000000 0.00000000000000000 5.00000000000000000
1 3220.06138967772812975 1038.75000000000000000 0.00000000000000000 0.00000000000000000 0.00000000000000000 1.00000000000000000 
2 3215.06138967772812975 1038.75000000000000000 0.00000000000000000 0.00000000000000000 0.00000000000000000 1.00000000000000000 1.00000000000000000 0.00000000000000000 -0.00000000000000000 -0.00000000000000000 1.00000000000000000 0.00000000000000000 5.00000000000000000
1 3438.00000000000000000 1038.75000000000000000 0.00000000000000000 0.00000000000000000 0.00000000000000000 1.00000000000000000 
2 3433.00000000000000000 1038.75000000000000000 0.00000000000000000 0.00000000000000000 0.00000000000000000 1.00000000000000000 1.00000000000000000 0.00000000000000000 -0.00000000000000000 -0.00000000000000000 1.00000000000000000 0.00000000000000000 5.00000000000000000
1 3557.51750357106266165 850.00000000000000000 0.00000000000000000 0.00000000000000000 0.00000000000000000 1.00000000000000000 
2 3552.51750357106266165 850.00000000000000000 0.00000000000000000 0.00000000000000000 0.00000000000000000 1.00000000000000000 1.00000000000000000 0.00000000000000000 -0.00000000000000000 -0.00000000000000000 1.00000000000000000 0.00000000000000000 5.00000000000000000
1 3852.00000000000000000 850.00000000000000000 0.00000000000000000 0.00000000000000000 0.00000000000000000 1.00000000000000000 
2 3847.00000000000000000 850.00000000000000000 0.00000000000000000 0.00000000000000000 0.00000000000000000 1.00000000000000000 1.00000000000000000 0.00000000000000000 -0.00000000000000000 -0.00000000000000000 1.00000000000000000 0.00000000000000000 5.00000000000000000
1 3967.43902436690814284 661.25000000000000000 0.00000000000000000 0.00000000000000000 0.00000000000000000 1.00000000000000000 
2 3962.43902436690814284 661.25000000000000000 0.00000000000000000 0.00000000000000000 0.00000000000000000 1.00000000000000000 1.00000000000000000 0.00000000000000000 -0.00000000000000000 -0.00000000000000000 1.00000000000000000 0.00000000000000000 5.00000000000000000
1 4326.00000000000000000 661.25000000000000000 0.00000000000000000 0.00000000000000000 0.00000000000000000 1.00000000000000000 
2 4321.00000000000000000 661.25000000000000000 0.00000000000000000 0.00000000000000000 0.00000000000000000 1.00000000000000000 1.00000000000000000 0.00000000000000000 -0.00000000000000000 -0.00000000000000000 1.00000000000000000 0.00000000000000000 5.00000000000000000
1 4431.03667601576307788 472.50000000000000000 0.00000000000000000 0.00000000000000000 0.00000000000000000 1.00000000000000000 
2 4426.03667601576307788 472.50000000000000000 0.00000000000000000 0.00000000000000000 0.00000000000000000 1.00000000000000000 1.00000000000000000 0.00000000000000000 -0.00000000000000000 -0.00000000000000000 1.00000000000000000 0.00000000000000000 5.00000000000000000
1 4701.00000000000000000 472.50000000000000000 0.00000000000000000 0.00000000000000000 0.00000000000000000 1.00000000000000000 
2 4696.00000000000000000 472.50000000000000000 0.00000000000000000 0.00000000000000000 0.00000000000000000 1.00000000000000000 1.00000000000000000 0.00000000000000000 -0.00000000000000000 -0.00000000000000000 1.00000000000000000 0.00000000000000000 5.00000000000000000
Polygon3D 0
PolygonOnTriangulations 0
Surfaces 34
1 4776.00000000000090949 529.97842888364993996 0.00000000000000000 1.00000000000000000 0.00000000000000000 -0.00000000000000000 0.00000000000000000 -1.00000000000000000 0.00000000000000000 0.00000000000000000 -0.00000000000000000 -1.00000000000000000 
1 2414.08019550063772840 -0.00000000000036368 1637.86192743102697023 -0.00000000000000000 1.00000000000000000 0.00000000000000022 0.00000000000000000 -0.00000000000000022 1.00000000000000000 1.00000000000000000 0.00000000000000000 0.00000000000000000 
1 4776.00000000000090949 279.97842888364993996 0.00000000000000000 0.00000000000000000 -1.00000000000000000 0.00000000000000000 -1.00000000000000000 0.00000000000000000 0.00000000000000000 -0.00000000000000000 -0.00000000000000000 -1.00000000000000000 
1 4724.39161272485489462 279.97842888364993996 0.00000000000000000 -0.39599197533386449 -0.91825397111647944 0.00000000000000000 -0.91825397111647944 0.39599197533386449 0.00000000000000000 -0.00000000000000000 0.00000000000000000 -1.00000000000000000 
1 3221.51265782830068929 928.08671347247752692 0.00000000000000000 -0.57027700837695006 -0.82145245371636455 0.00000000000000000 -0.82145245371636455 0.57027700837695006 0.00000000000000000 -0.00000000000000000 0.00000000000000000 -1.00000000000000000 
1 924.84860296204124097 2522.49999999999954525 0.00000000000000000 0.00000000000000000 -1.00000000000000000 0.00000000000000000 -1.00000000000000000 0.00000000000000000 0.00000000000000000 -0.00000000000000000 -0.00000000000000000 -1.00000000000000000 
1 27.00000000000000000 2522.49999999999954525 0.00000000000000000 -1.00000000000000000 0.00000000000000000 0.00000000000000000 0.00000000000000000 1.00000000000000000 0.00000000000000000 0.00000000000000000 0.00000000000000000 -1.00000000000000000 
1 27.00000000000000000 2772.50000000000000000 0.00000000000000000 0.00000000000000000 1.00000000000000000 0.00000000000000000 1.00000000000000000 0.00000000000000000 0.00000000000000000 0.00000000000000000 0.00000000000000000 -1.00000000000000000 
1 1003.12089154324814899 2772.50000000000000000 0.00000000000000000 0.57027700837695017 0.82145245371636455 -0.00000000000000000 0.82145245371636455 -0.57027700837695017 0.00000000000000000 0.00000000000000000 -0.00000000000000000 -1.00000000000000000 
1 3343.50848644204279481 1147.73251647349547966 0.00000000000000000 0.39599197533386443 0.91825397111647944 -0.00000000000000000 0.91825397111647944 -0.39599197533386443 0.00000000000000000 0.00000000000000000 -0.00000000000000000 -1.00000000000000000 
2 1039.99000000000023647 2548.75000000000000000 0.00000000000000000 -0.00000000000000000 -0.00000000000000000 -1.00000000000000000 1.00000000000000000 0.00000000000000000 0.00000000000000000 -0.00000000000000000 1.00000000000000000 -0.00000000000000000 5.00000000000000000
2 1191.87392370971610944 2548.75000000000000000 0.00000000000000000 -0.00000000000000000 -0.00000000000000000 -1.00000000000000000 1.00000000000000000 0.00000000000000000 0.00000000000000000 -0.00000000000000000 1.00000000000000000 -0.00000000000000000 5.00000000000000000
2 1311.87392370971610944 2360.00000000000000000 0.00000000000000000 -0.00000000000000000 -0.00000000000000000 -1.00000000000000000 1.00000000000000000 0.00000000000000000 0.00000000000000000 -0.00000000000000000 1.00000000000000000 -0.00000000000000000 5.00000000000000000
2 1463.75784741943243716 2360.00000000000000000 0.00000000000000000 -0.00000000000000000 -0.00000000000000000 -1.00000000000000000 1.00000000000000000 0.00000000000000000 0.00000000000000000 -0.00000000000000000 1.00000000000000000 -0.00000000000000000 5.00000000000000000
2 1583.75784741943220979 2171.25000000000000000 0.00000000000000000 -0.00000000000000000 -0.00000000000000000 -1.00000000000000000 1.00000000000000000 0.00000000000000000 0.00000000000000000 -0.00000000000000000 1.00000000000000000 -0.00000000000000000 5.00000000000000000
2 1735.64177112914853751 2171.25000000000000000 0.00000000000000000 -0.00000000000000000 -0.00000000000000000 -1.00000000000000000 1.00000000000000000 0.00000000000000000 0.00000000000000000 -0.00000000000000000 1.00000000000000000 -0.00000000000000000 5.00000000000000000
2 1855.64177112914853751 1982.50000000000000000 0.00000000000000000 -0.00000000000000000 -0.00000000000000000 -1.00000000000000000 1.00000000000000000 0.00000000000000000 0.00000000000000000 -0.00000000000000000 1.00000000000000000 -0.00000000000000000 5.00000000000000000
2 2007.52569483886463786 1982.50000000000000000 0.00000000000000000 -0.00000000000000000 -0.00000000000000000 -1.00000000000000000 1.00000000000000000 0.00000000000000000 0.00000000000000000 -0.00000000000000000 1.00000000000000000 -0.00000000000000000 5.00000000000000000
2 2127.52569483886509261 1793.75000000000000000 0.00000000000000000 -0.00000000000000000 -0.00000000000000000 -1.00000000000000000 1.00000000000000000 0.00000000000000000 0.00000000000000000 -0.00000000000000000 1.00000000000000000 -0.00000000000000000 5.00000000000000000
2 2279.40961854857960134 1793.75000000000000000 0.00000000000000000 -0.00000000000000000 -0.00000000000000000 -1.00000000000000000 1.00000000000000000 0.00000000000000000 0.00000000000000000 -0.00000000000000000 1.00000000000000000 -0.00000000000000000 5.00000000000000000
2 2399.40961854857914659 1605.00000000000000000 0.00000000000000000 -0.00000000000000000 -0.00000000000000000 -1.00000000000000000 1.00000000000000000 0.00000000000000000 0.00000000000000000 -0.00000000000000000 1.00000000000000000 -0.00000000000000000 5.00000000000000000
2 2551.29354225829592906 1605.00000000000000000 0.00000000000000000 -0.00000000000000000 -0.00000000000000000 -1.00000000000000000 1.00000000000000000 0.00000000000000000 0.00000000000000000 -0.00000000000000000 1.00000000000000000 -0.00000000000000000 5.00000000000000000
2 2671.29354225829592906 1416.25000000000000000 0.00000000000000000 -0.00000000000000000 -0.00000000000000000 -1.00000000000000000 1.00000000000000000 0.00000000000000000 0.00000000000000000 -0.00000000000000000 1.00000000000000000 -0.00000000000000000 5.00000000000000000
2 2823.17746596801180203 1416.25000000000000000 0.00000000000000000 -0.00000000000000000 -0.00000000000000000 -1.00000000000000000 1.00000000000000000 0.00000000000000000 0.00000000000000000 -0.00000000000000000 1.00000000000000000 -0.00000000000000000 5.00000000000000000
2 2943.17746596801225678 1227.50000000000000000 0.00000000000000000 -0.00000000000000000 -0.00000000000000000 -1.00000000000000000 1.00000000000000000 0.00000000000000000 0.00000000000000000 -0.00000000000000000 1.00000000000000000 -0.00000000000000000 5.00000000000000000
2 3095.06138967772767501 1227.50000000000000000 0.00000000000000000 -0.00000000000000000 -0.00000000000000000 -1.00000000000000000 1.00000000000000000 0.00000000000000000 0.00000000000000000 -0.00000000000000000 1.00000000000000000 -0.00000000000000000 5.00000000000000000
2 3215.06138967772812975 1038.75000000000000000 0.00000000000000000 -0.00000000000000000 -0.00000000000000000 -1.00000000000000000 1.00000000000000000 0.00000000000000000 0.00000000000000000 -0.00000000000000000 1.00000000000000000 -0.00000000000000000 5.00000000000000000
2 3433.00000000000000000 1038.75000000000000000 0.00000000000000000 -0.00000000000000000 -0.00000000000000000 -1.00000000000000000 1.00000000000000000 0.00000000000000000 0.00000000000000000 -0.00000000000000000 1.00000000000000000 -0.00000000000000000 5.00000000000000000
2 3552.51750357106266165 850.00000000000000000 0.00000000000000000 -0.00000000000000000 -0.00000000000000000 -1.00000000000000000 1.00000000000000000 0.00000000000000000 0.00000000000000000 -0.00000000000000000 1.00000000000000000 -0.00000000000000000 5.00000000000000000
2 3847.00000000000000000 850.00000000000000000 0.00000000000000000 -0.00000000000000000 -0.00000000000000000 -1.00000000000000000 1.00000000000000000 0.00000000000000000 0.00000000000000000 -0.00000000000000000 1.00000000000000000 -0.00000000000000000 5.00000000000000000
2 3962.43902436690814284 661.25000000000000000 0.00000000000000000 -0.00000000000000000 -0.00000000000000000 -1.00000000000000000 1.00000000000000000 0.00000000000000000 0.00000000000000000 -0.00000000000000000 1.00000000000000000 -0.00000000000000000 5.00000000000000000
2 4321.00000000000000000 661.25000000000000000 0.00000000000000000 -0.00000000000000000 -0.00000000000000000 -1.00000000000000000 1.00000000000000000 0.00000000000000000 0.00000000000000000 -0.00000000000000000 1.00000000000000000 -0.00000000000000000 5.00000000000000000
2 4426.03667601576307788 472.50000000000000000 0.00000000000000000 -0.00000000000000000 -0.00000000000000000 -1.00000000000000000 1.00000000000000000 0.00000000000000000 0.00000000000000000 -0.00000000000000000 1.00000000000000000 -0.00000000000000000 5.00000000000000000
2 4696.00000000000000000 472.50000000000000000 0.00000000000000000 -0.00000000000000000 -0.00000000000000000 -1.00000000000000000 1.00000000000000000 0.00000000000000000 0.00000000000000000 -0.00000000000000000 1.00000000000000000 -0.00000000000000000 5.00000000000000000
Triangulations 0

TShapes 193
Ve
0.000000100000000
4776.000000000000909 529.978428883649940 0.000000000000000
0 0

0101101
*
Ed
 0.000000100000000 1 1 0
1  1 0 0.000000000000000 15.000000000000000
2  1 1 0 0.000000000000000 15.000000000000000
0

0101000
+193 5 -193 7 *
Ve
0.000000100000000
4776.000000000000909 279.978428883649940 0.000000000000000
0 0

0101101
*
Ed
 0.000000100000000 1 1 0
1  2 0 0.000000000000000 15.000000000000000
2  2 1 0 0.000000000000000 15.000000000000000
0

0101000
+191 5 -191 7 *
Ed
 0.000000100000000 1 1 0
1  3 0 0.000000000000000 250.000000000000000
2  3 2 8 0.000000000000000 250.000000000000000
2  4 1 9 0.000000000000000 250.000000000000000
2  5 1 10 0.000000000000000 250.000000000000000
0

0101000
+193 0 -191 0 *
Wi

0101100
+192 0 -190 0 -189 5 +189 7 *
Fa
0  0.000000100000000 1 0

0111000
+188 0 *
Ve
0.000000100000000
4724.391612724854895 279.978428883649940 0.000000000000000
0 0

0101101
*
Ed
 0.000000100000000 1 1 0
1  4 0 0.000000000000000 15.000000000000000
0

0101000
+186 5 -186 7 *
Ed
 0.000000100000000 1 1 0
1  5 0 0.000000000000000 51.608387275146015
2  6 2 8 0.000000000000000 51.608387275146015
0

0101000
+191 0 -186 0 *
Wi

0101100
+190 0 -185 0 -184 5 +184 7 *
Fa
0  0.000000100000000 3 0

0111000
+183 0 *
Ve
0.000000100000000
3221.512657828300689 928.086713472477527 0.000000000000000
0 0

0101101
*
Ed
 0.000000100000000 1 1 0
1  6 0 0.000000000000000 15.000000000000000
0

0101000
+181 5 -181 7 *
Ed
 0.000000100000000 1 1 0
1  7 0 0.000000000000000 1636.670248285717207
2  7 2 8 0.000000000000000 1636.670248285717207
0

0101000
+186 0 -181 0 *
Wi

0101100
+185 0 -180 0 -179 5 +179 7 *
Fa
0  0.000000100000000 4 0

0111000
+178 0 *
Ve
0.000000100000000
924.848602962041241 2522.499999999999545 0.000000000000000
0 0

0101101
*
Ed
 0.000000100000000 1 1 0
1  8 0 0.000000000000000 15.000000000000000
0

0101000
+176 5 -176 7 *
Ed
 0.000000100000000 1 1 0
1  9 0 0.000000000000000 2795.857562389440318
2  8 2 8 0.000000000000000 2795.857562389440318
0

0101000
+181 0 -176 0 *
Wi

0101100
+180 0 -175 0 -174 5 +174 7 *
Fa
0  0.000000100000000 5 0

0111000
+173 0 *
Ve
0.000000100000000
27.000000000000000 2522.499999999999545 0.000000000000000
0 0

0101101
*
Ed
 0.000000100000000 1 1 0
1  10 0 0.000000000000000 15.000000000000000
2  9 7 0 0.000000000000000 15.000000000000000
0

0101000
+171 5 -171 7 *
Ed
 0.000000100000000 1 1 0
1  11 0 0.000000000000000 897.848602962041241
2  10 2 8 0.000000000000000 897.848602962041241
0

0101000
+176 0 -171 0 *
Wi

0101100
+175 0 -170 0 -169 5 +169 7 *
Fa
0  0.000000100000000 6 0

0111000
+168 0 *
Ve
0.000000100000000
27.000000000000000 2772.500000000000000 0.000000000000000
0 0

0101101
*
Ed
 0.000000100000000 1 1 0
1  12 0 0.000000000000000 15.000000000000000
2  11 7 0 0.000000000000000 15.000000000000000
0

0101000
+166 5 -166 7 *
Ed
 0.000000100000000 1 1 0
1  13 0 0.000000000000000 250.000000000000455
2  12 2 8 0.000000000000000 250.000000000000455
2  13 7 9 0.000000000000000 250.000000000000455
2  14 7 10 0.000000000000000 250.000000000000455
0

0101000
+171 0 -166 0 *
Wi

0101100
+170 0 -165 0 -164 5 +164 7 *
Fa
0  0.000000100000000 7 0

0111000
+163 0 *
Ve
0.000000100000000
1003.120891543248149 2772.500000000000000 0.000000000000000
0 0

0101101
*
Ed
 0.000000100000000 1 1 0
1  14 0 0.000000000000000 15.000000000000000
0

0101000
+161 5 -161 7 *
Ed
 0.000000100000000 1 1 0
1  15 0 0.000000000000000 976.120891543248149
2  15 2 8 0.000000000000000 976.120891543248149
0

0101000
+166 0 -161 0 *
Wi

0101100
+165 0 -160 0 -159 5 +159 7 *
Fa
0  0.000000100000000 8 0

0111000
+158 0 *
Ve
0.000000100000000
3343.508486442042795 1147.732516473495480 0.000000000000000
0 0

0101101
*
Ed
 0.000000100000000 1 1 0
1  16 0 0.000000000000000 15.000000000000000
0

0101000
+156 5 -156 7 *
Ed
 0.000000100000000 1 1 0
1  17 0 0.000000000000000 2849.084672290596700
2  16 2 8 0.000000000000000 2849.084672290596700
0

0101000
+161 0 -156 0 *
Wi

0101100
+160 0 -155 0 -154 5 +154 7 *
Fa
0  0.000000100000000 9 0

0111000
+153 0 *
Ed
 0.000000100000000 1 1 0
1  18 0 0.000000000000000 1560.016682330523054
2  17 2 8 0.000000000000000 1560.016682330523054
0

0101000
+156 0 -193 0 *
Wi

0101100
+155 0 -192 0 -151 5 +151 7 *
Fa
0  0.000000100000000 10 0

0111000
+150 0 *
Ve
0.000000100000000
1044.990000000000236 2548.750000000000000 0.000000000000000
0 0

0101101
*
Ed
 0.000000100000000 1 1 0
1  19 0 0.000000000000000 15.000000000000000
3  18 19CN 11 0 0.000000000000000 15.000000000000000
0

0101000
+148 5 -148 7 *
Ed
 0.000000100000000 1 1 0
1  20 0 0.000000000000000 6.283185307179586
2  20 11 9 0.000000000000000 6.283185307179586
2  21 11 10 0.000000000000000 6.283185307179586
2  22 2 8 0.000000000000000 6.283185307179586
0

0101000
+148 0 -148 0 *
Wi

0101100
+147 0 -147 0 -146 5 +146 7 *
Fa
0  0.000000100000000 11 0

0111000
+145 0 *
Ve
0.000000100000000
1196.873923709716109 2548.750000000000000 0.000000000000000
0 0

0101101
*
Ed
 0.000000100000000 1 1 0
1  21 0 0.000000000000000 15.000000000000000
3  23 24CN 12 0 0.000000000000000 15.000000000000000
0

0101000
+143 5 -143 7 *
Ed
 0.000000100000000 1 1 0
1  22 0 0.000000000000000 6.283185307179586
2  25 12 9 0.000000000000000 6.283185307179586
2  26 12 10 0.000000000000000 6.283185307179586
2  27 2 8 0.000000000000000 6.283185307179586
0

0101000
+143 0 -143 0 *
Wi

0101100
+142 0 -142 0 -141 5 +141 7 *
Fa
0  0.000000100000000 12 0

0111000
+140 0 *
Ve
0.000000100000000
1316.873923709716109 2360.000000000000000 0.000000000000000
0 0

0101101
*
Ed
 0.000000100000000 1 1 0
1  23 0 0.000000000000000 15.000000000000000
3  28 29CN 13 0 0.000000000000000 15.000000000000000
0

0101000
+138 5 -138 7 *
Ed
 0.000000100000000 1 1 0
1  24 0 0.000000000000000 6.283185307179586
2  30 13 9 0.000000000000000 6.283185307179586
2  31 13 10 0.000000000000000 6.283185307179586
2  32 2 8 0.000000000000000 6.283185307179586
0

0101000
+138 0 -138 0 *
Wi

0101100
+137 0 -137 0 -136 5 +136 7 *
Fa
0  0.000000100000000 13 0

0111000
+135 0 *
Ve
0.000000100000000
1468.757847419432437 2360.000000000000000 0.000000000000000
0 0

0101101
*
Ed
 0.000000100000000 1 1 0
1  25 0 0.000000000000000 15.000000000000000
3  33 34CN 14 0 0.000000000000000 15.000000000000000
0

0101000
+133 5 -133 7 *
Ed
 0.000000100000000 1 1 0
1  26 0 0.000000000000000 6.283185307179586
2  35 14 9 0.000000000000000 6.283185307179586
2  36 14 10 0.000000000000000 6.283185307179586
2  37 2 8 0.000000000000000 6.283185307179586
0

0101000
+133 0 -133 0 *
Wi

0101100
+132 0 -132 0 -131 5 +131 7 *
Fa
0  0.000000100000000 14 0

0111000
+130 0 *
Ve
0.000000100000000
1588.757847419432210 2171.250000000000000 0.000000000000000
0 0

0101101
*
Ed
 0.000000100000000 1 1 0
1  27 0 0.000000000000000 15.000000000000000
3  38 39CN 15 0 0.000000000000000 15.000000000000000
0

0101000
+128 5 -128 7 *
Ed
 0.000000100000000 1 1 0
1  28 0 0.000000000000000 6.283185307179586
2  40 15 9 0.000000000000000 6.283185307179586
2  41 15 10 0.000000000000000 6.283185307179586
2  42 2 8 0.000000000000000 6.283185307179586
0

0101000
+128 0 -128 0 *
Wi

0101100
+127 0 -127 0 -126 5 +126 7 *
Fa
0  0.000000100000000 15 0

0111000
+125 0 *
Ve
0.000000100000000
1740.641771129148538 2171.250000000000000 0.000000000000000
0 0

0101101
*
Ed
 0.000000100000000 1 1 0
1  29 0 0.000000000000000 15.000000000000000
3  43 44CN 16 0 0.000000000000000 15.000000000000000
0

0101000
+123 5 -123 7 *
Ed
 0.000000100000000 1 1 0
1  30 0 0.000000000000000 6.283185307179586
2  45 16 9 0.000000000000000 6.283185307179586
2  46 16 10 0.000000000000000 6.283185307179586
2  47 2 8 0.000000000000000 6.283185307179586
0

0101000
+123 0 -123 0 *
Wi

0101100
+122 0 -122 0 -121 5 +121 7 *
Fa
0  0.000000100000000 16 0

0111000
+120 0 *
Ve
0.000000100000000
1860.641771129148538 1982.500000000000000 0.000000000000000
0 0

0101101
*
Ed
 0.000000100000000 1 1 0
1  31 0 0.000000000000000 15.000000000000000
3  48 49CN 17 0 0.000000000000000 15.000000000000000
0

0101000
+118 5 -118 7 *
Ed
 0.000000100000000 1 1 0
1  32 0 0.000000000000000 6.283185307179586
2  50 17 9 0.000000000000000 6.283185307179586
2  51 17 10 0.000000000000000 6.283185307179586
2  52 2 8 0.000000000000000 6.283185307179586
0

0101000
+118 0 -118 0 *
Wi

0101100
+117 0 -117 0 -116 5 +116 7 *
Fa
0  0.000000100000000 17 0

0111000
+115 0 *
Ve
0.000000100000000
2012.525694838864638 1982.500000000000000 0.000000000000000
0 0

0101101
*
Ed
 0.000000100000000 1 1 0
1  33 0 0.000000000000000 15.000000000000000
3  53 54CN 18 0 0.000000000000000 15.000000000000000
0

0101000
+113 5 -113 7 *
Ed
 0.000000100000000 1 1 0
1  34 0 0.000000000000000 6.283185307179586
2  55 18 9 0.000000000000000 6.283185307179586
2  56 18 10 0.000000000000000 6.283185307179586
2  57 2 8 0.000000000000000 6.283185307179586
0

0101000
+113 0 -113 0 *
Wi

0101100
+112 0 -112 0 -111 5 +111 7 *
Fa
0  0.000000100000000 18 0

0111000
+110 0 *
Ve
0.000000100000000
2132.525694838865093 1793.750000000000000 0.000000000000000
0 0

0101101
*
Ed
 0.000000100000000 1 1 0
1  35 0 0.000000000000000 15.000000000000000
3  58 59CN 19 0 0.000000000000000 15.000000000000000
0

0101000
+108 5 -108 7 *
Ed
 0.000000100000000 1 1 0
1  36 0 0.000000000000000 6.283185307179586
2  60 19 9 0.000000000000000 6.283185307179586
2  61 19 10 0.000000000000000 6.283185307179586
2  62 2 8 0.000000000000000 6.283185307179586
0

0101000
+108 0 -108 0 *
Wi

0101100
+107 0 -107 0 -106 5 +106 7 *
Fa
0  0.000000100000000 19 0

0111000
+105 0 *
Ve
0.000000100000000
2284.409618548579601 1793.750000000000000 0.000000000000000
0 0

0101101
*
Ed
 0.000000100000000 1 1 0
1  37 0 0.000000000000000 15.000000000000000
3  63 64CN 20 0 0.000000000000000 15.000000000000000
0

0101000
+103 5 -103 7 *
Ed
 0.000000100000000 1 1 0
1  38 0 0.000000000000000 6.283185307179586
2  65 20 9 0.000000000000000 6.283185307179586
2  66 20 10 0.000000000000000 6.283185307179586
2  67 2 8 0.000000000000000 6.283185307179586
0

0101000
+103 0 -103 0 *
Wi

0101100
+102 0 -102 0 -101 5 +101 7 *
Fa
0  0.000000100000000 20 0

0111000
+100 0 *
Ve
0.000000100000000
2404.409618548579147 1605.000000000000000 0.000000000000000
0 0

0101101
*
Ed
 0.000000100000000 1 1 0
1  39 0 0.000000000000000 15.000000000000000
3  68 69CN 21 0 0.000000000000000 15.000000000000000
0

0101000
+98 5 -98 7 *
Ed
 0.000000100000000 1 1 0
1  40 0 0.000000000000000 6.283185307179586
2  70 21 9 0.000000000000000 6.283185307179586
2  71 21 10 0.000000000000000 6.283185307179586
2  72 2 8 0.000000000000000 6.283185307179586
0

0101000
+98 0 -98 0 *
Wi

0101100
+97 0 -97 0 -96 5 +96 7 *
Fa
0  0.000000100000000 21 0

0111000
+95 0 *
Ve
0.000000100000000
2556.293542258295929 1605.000000000000000 0.000000000000000
0 0

0101101
*
Ed
 0.000000100000000 1 1 0
1  41 0 0.000000000000000 15.000000000000000
3  73 74CN 22 0 0.000000000000000 15.000000000000000
0

0101000
+93 5 -93 7 *
Ed
 0.000000100000000 1 1 0
1  42 0 0.000000000000000 6.283185307179586
2  75 22 9 0.000000000000000 6.283185307179586
2  76 22 10 0.000000000000000 6.283185307179586
2  77 2 8 0.000000000000000 6.283185307179586
0

0101000
+93 0 -93 0 *
Wi

0101100
+92 0 -92 0 -91 5 +91 7 *
Fa
0  0.000000100000000 22 0

0111000
+90 0 *
Ve
0.000000100000000
2676.293542258295929 1416.250000000000000 0.000000000000000
0 0

0101101
*
Ed
 0.000000100000000 1 1 0
1  43 0 0.000000000000000 15.000000000000000
3  78 79CN 23 0 0.000000000000000 15.000000000000000
0

0101000
+88 5 -88 7 *
Ed
 0.000000100000000 1 1 0
1  44 0 0.000000000000000 6.283185307179586
2  80 23 9 0.000000000000000 6.283185307179586
2  81 23 10 0.000000000000000 6.283185307179586
2  82 2 8 0.000000000000000 6.283185307179586
0

0101000
+88 0 -88 0 *
Wi

0101100
+87 0 -87 0 -86 5 +86 7 *
Fa
0  0.000000100000000 23 0

0111000
+85 0 *
Ve
0.000000100000000
2828.177465968011802 1416.250000000000000 0.000000000000000
0 0

0101101
*
Ed
 0.000000100000000 1 1 0
1  45 0 0.000000000000000 15.000000000000000
3  83 84CN 24 0 0.000000000000000 15.000000000000000
0

0101000
+83 5 -83 7 *
Ed
 0.000000100000000 1 1 0
1  46 0 0.000000000000000 6.283185307179586
2  85 24 9 0.000000000000000 6.283185307179586
2  86 24 10 0.000000000000000 6.283185307179586
2  87 2 8 0.000000000000000 6.283185307179586
0

0101000
+83 0 -83 0 *
Wi

0101100
+82 0 -82 0 -81 5 +81 7 *
Fa
0  0.000000100000000 24 0

0111000
+80 0 *
Ve
0.000000100000000
2948.177465968012257 1227.500000000000000 0.000000000000000
0 0

0101101
*
Ed
 0.000000100000000 1 1 0
1  47 0 0.000000000000000 15.000000000000000
3  88 89CN 25 0 0.000000000000000 15.000000000000000
0

0101000
+78 5 -78 7 *
Ed
 0.000000100000000 1 1 0
1  48 0 0.000000000000000 6.283185307179586
2  90 25 9 0.000000000000000 6.283185307179586
2  91 25 10 0.000000000000000 6.283185307179586
2  92 2 8 0.000000000000000 6.283185307179586
0

0101000
+78 0 -78 0 *
Wi

0101100
+77 0 -77 0 -76 5 +76 7 *
Fa
0  0.000000100000000 25 0

0111000
+75 0 *
Ve
0.000000100000000
3100.061389677727675 1227.500000000000000 0.000000000000000
0 0

0101101
*
Ed
 0.000000100000000 1 1 0
1  49 0 0.000000000000000 15.000000000000000
3  93 94CN 26 0 0.000000000000000 15.000000000000000
0

0101000
+73 5 -73 7 *
Ed
 0.000000100000000 1 1 0
1  50 0 0.000000000000000 6.283185307179586
2  95 26 9 0.000000000000000 6.283185307179586
2  96 26 10 0.000000000000000 6.283185307179586
2  97 2 8 0.000000000000000 6.283185307179586
0

0101000
+73 0 -73 0 *
Wi

0101100
+72 0 -72 0 -71 5 +71 7 *
Fa
0  0.000000100000000 26 0

0111000
+70 0 *
Ve
0.000000100000000
3220.061389677728130 1038.750000000000000 0.000000000000000
0 0

0101101
*
Ed
 0.000000100000000 1 1 0
1  51 0 0.000000000000000 15.000000000000000
3  98 99CN 27 0 0.000000000000000 15.000000000000000
0

0101000
+68 5 -68 7 *
Ed
 0.000000100000000 1 1 0
1  52 0 0.000000000000000 6.283185307179586
2  100 27 9 0.000000000000000 6.283185307179586
2  101 27 10 0.000000000000000 6.283185307179586
2  102 2 8 0.000000000000000 6.283185307179586
0

0101000
+68 0 -68 0 *
Wi

0101100
+67 0 -67 0 -66 5 +66 7 *
Fa
0  0.000000100000000 27 0

0111000
+65 0 *
Ve
0.000000100000000
3438.000000000000000 1038.750000000000000 0.000000000000000
0 0

0101101
*
Ed
 0.000000100000000 1 1 0
1  53 0 0.000000000000000 15.000000000000000
3  103 104CN 28 0 0.000000000000000 15.000000000000000
0

0101000
+63 5 -63 7 *
Ed
 0.000000100000000 1 1 0
1  54 0 0.000000000000000 6.283185307179586
2  105 28 9 0.000000000000000 6.283185307179586
2  106 28 10 0.000000000000000 6.283185307179586
2  107 2 8 0.000000000000000 6.283185307179586
0

0101000
+63 0 -63 0 *
Wi

0101100
+62 0 -62 0 -61 5 +61 7 *
Fa
0  0.000000100000000 28 0

0111000
+60 0 *
Ve
0.000000100000000
3557.517503571062662 850.000000000000000 0.000000000000000
0 0

0101101
*
Ed
 0.000000100000000 1 1 0
1  55 0 0.000000000000000 15.000000000000000
3  108 109CN 29 0 0.000000000000000 15.000000000000000
0

0101000
+58 5 -58 7 *
Ed
 0.000000100000000 1 1 0
1  56 0 0.000000000000000 6.283185307179586
2  110 29 9 0.000000000000000 6.283185307179586
2  111 29 10 0.000000000000000 6.283185307179586
2  112 2 8 0.000000000000000 6.283185307179586
0

0101000
+58 0 -58 0 *
Wi

0101100
+57 0 -57 0 -56 5 +56 7 *
Fa
0  0.000000100000000 29 0

0111000
+55 0 *
Ve
0.000000100000000
3852.000000000000000 850.000000000000000 0.000000000000000
0 0

0101101
*
Ed
 0.000000100000000 1 1 0
1  57 0 0.000000000000000 15.000000000000000
3  113 114CN 30 0 0.000000000000000 15.000000000000000
0

0101000
+53 5 -53 7 *
Ed
 0.000000100000000 1 1 0
1  58 0 0.000000000000000 6.283185307179586
2  115 30 9 0.000000000000000 6.283185307179586
2  116 30 10 0.000000000000000 6.283185307179586
2  117 2 8 0.000000000000000 6.283185307179586
0

0101000
+53 0 -53 0 *
Wi

0101100
+52 0 -52 0 -51 5 +51 7 *
Fa
0  0.000000100000000 30 0

0111000
+50 0 *
Ve
0.000000100000000
3967.439024366908143 661.250000000000000 0.000000000000000
0 0

0101101
*
Ed
 0.000000100000000 1 1 0
1  59 0 0.000000000000000 15.000000000000000
3  118 119CN 31 0 0.000000000000000 15.000000000000000
0

0101000
+48 5 -48 7 *
Ed
 0.000000100000000 1 1 0
1  60 0 0.000000000000000 6.283185307179586
2  120 31 9 0.000000000000000 6.283185307179586
2  121 31 10 0.000000000000000 6.283185307179586
2  122 2 8 0.000000000000000 6.283185307179586
0

0101000
+48 0 -48 0 *
Wi

0101100
+47 0 -47 0 -46 5 +46 7 *
Fa
0  0.000000100000000 31 0

0111000
+45 0 *
Ve
0.000000100000000
4326.000000000000000 661.250000000000000 0.000000000000000
0 0

0101101
*
Ed
 0.000000100000000 1 1 0
1  61 0 0.000000000000000 15.000000000000000
3  123 124CN 32 0 0.000000000000000 15.000000000000000
0

0101000
+43 5 -43 7 *
Ed
 0.000000100000000 1 1 0
1  62 0 0.000000000000000 6.283185307179586
2  125 32 9 0.000000000000000 6.283185307179586
2  126 32 10 0.000000000000000 6.283185307179586
2  127 2 8 0.000000000000000 6.283185307179586
0

0101000
+43 0 -43 0 *
Wi

0101100
+42 0 -42 0 -41 5 +41 7 *
Fa
0  0.000000100000000 32 0

0111000
+40 0 *
Ve
0.000000100000000
4431.036676015763078 472.500000000000000 0.000000000000000
0 0

0101101
*
Ed
 0.000000100000000 1 1 0
1  63 0 0.000000000000000 15.000000000000000
3  128 129CN 33 0 0.000000000000000 15.000000000000000
0

0101000
+38 5 -38 7 *
Ed
 0.000000100000000 1 1 0
1  64 0 0.000000000000000 6.283185307179586
2  130 33 9 0.000000000000000 6.283185307179586
2  131 33 10 0.000000000000000 6.283185307179586
2  132 2 8 0.000000000000000 6.283185307179586
0

0101000
+38 0 -38 0 *
Wi

0101100
+37 0 -37 0 -36 5 +36 7 *
Fa
0  0.000000100000000 33 0

0111000
+35 0 *
Ve
0.000000100000000
4701.000000000000000 472.500000000000000 0.000000000000000
0 0

0101101
*
Ed
 0.000000100000000 1 1 0
1  65 0 0.000000000000000 15.000000000000000
3  133 134CN 34 0 0.000000000000000 15.000000000000000
0

0101000
+33 5 -33 7 *
Ed
 0.000000100000000 1 1 0
1  66 0 0.000000000000000 6.283185307179586
2  135 34 9 0.000000000000000 6.283185307179586
2  136 34 10 0.000000000000000 6.283185307179586
2  137 2 8 0.000000000000000 6.283185307179586
0

0101000
+33 0 -33 0 *
Wi

0101100
+32 0 -32 0 -31 5 +31 7 *
Fa
0  0.000000100000000 34 0

0111000
+30 0 *
Wi

0101100
+189 12 +184 12 +179 12 +174 12 +169 12 +164 12 +159 12 +154 12 +151 12 *
Wi

0101100
+146 12 *
Wi

0101100
+141 12 *
Wi

0101100
+136 12 *
Wi

0101100
+131 12 *
Wi

0101100
+126 12 *
Wi

0101100
+121 12 *
Wi

0101100
+116 12 *
Wi

0101100
+111 12 *
Wi

0101100
+106 12 *
Wi

0101100
+101 12 *
Wi

0101100
+96 12 *
Wi

0101100
+91 12 *
Wi

0101100
+86 12 *
Wi

0101100
+81 12 *
Wi

0101100
+76 12 *
Wi

0101100
+71 12 *
Wi

0101100
+66 12 *
Wi

0101100
+61 12 *
Wi

0101100
+56 12 *
Wi

0101100
+51 12 *
Wi

0101100
+46 12 *
Wi

0101100
+41 12 *
Wi

0101100
+36 12 *
Wi

0101100
+31 12 *
Fa
0  0.000000100000000 2 0

0111000
+28 0 +27 0 +26 0 +25 0 +24 0 +23 0 +22 0 +21 0 +20 0 +19 0 
+18 0 +17 0 +16 0 +15 0 +14 0 +13 0 +12 0 +11 0 +10 0 +9 0 
+8 0 +7 0 +6 0 +5 0 +4 0 *
Sh

0101100
+187 0 +182 0 +177 0 +172 0 +167 0 +162 0 +157 0 +152 0 +149 0 +144 0 
+139 0 +134 0 +129 0 +124 0 +119 0 +114 0 +109 0 +104 0 +99 0 +94 0 
+89 0 +84 0 +79 0 +74 0 +69 0 +64 0 +59 0 +54 0 +49 0 +44 0 
+39 0 +34 0 +29 0 +3 11 -3 13 *
So

1100000
+2 0 *

+1 1 