
CASCADE Topology V1, (c) Matra-Datavision
Locations 45
1
1.000000000000000 0.000000000000000 0.000000000000000 0.000000000000000 
0.000000000000000 1.000000000000000 0.000000000000000 0.000000000000000 
0.000000000000000 0.000000000000000 1.000000000000000 0.000000000000000 
1
1.000000000000000 0.000000000000000 0.000000000000000 0.000000000000000 
0.000000000000000 1.000000000000000 0.000000000000000 0.000000000000000 
0.000000000000000 0.000000000000000 1.000000000000000 0.000000000000000 
1
1.000000000000000 0.000000000000000 0.000000000000000 0.000000000000000 
0.000000000000000 1.000000000000000 0.000000000000000 0.000000000000000 
0.000000000000000 0.000000000000000 1.000000000000000 0.000000000000000 
1
1.000000000000000 0.000000000000000 0.000000000000000 0.000000000000000 
0.000000000000000 1.000000000000000 0.000000000000000 0.000000000000000 
0.000000000000000 0.000000000000000 1.000000000000000 0.000000000000000 
1
1.000000000000000 0.000000000000000 0.000000000000000 0.000000000000000 
0.000000000000000 1.000000000000000 0.000000000000000 0.000000000000000 
0.000000000000000 0.000000000000000 1.000000000000000 0.000000000000000 
2  2 1 3 -1 4 1 5 -1 0
1
1.000000000000000 0.000000000000000 0.000000000000000 0.000000000000000 
0.000000000000000 1.000000000000000 0.000000000000000 0.000000000000000 
0.000000000000000 0.000000000000000 1.000000000000000 0.000000000000000 
1
1.000000000000000 0.000000000000000 0.000000000000000 0.000000000000000 
0.000000000000000 1.000000000000000 0.000000000000000 0.000000000000000 
0.000000000000000 0.000000000000000 1.000000000000000 0.000000000000000 
1
1.000000000000000 0.000000000000000 0.000000000000000 0.000000000000000 
0.000000000000000 1.000000000000000 0.000000000000000 0.000000000000000 
0.000000000000000 0.000000000000000 1.000000000000000 0.000000000000000 
2  7 1 8 1 9 -1 0
1
1.000000000000000 0.000000000000000 0.000000000000000 -0.000000000000000 
0.000000000000000 1.000000000000000 0.000000000000000 -0.000000000000000 
0.000000000000000 0.000000000000000 1.000000000000000 -50.000000000000000 
2  7 1 8 1 9 -1 11 1 0
2  9 1 8 -1 7 -1 0
2  11 -1 9 1 8 -1 7 -1 0
2  9 -1 2 1 3 -1 4 1 5 -1 0
2  7 1 8 1 0
2  9 -1 11 1 2 1 3 -1 4 1 5 -1 0
2  4 1 5 -1 0
2  2 1 3 -1 0
2  7 1 8 1 9 -1 2 1 3 -1 0
2  7 1 8 1 9 -1 11 1 2 1 3 -1 0
1
1.000000000000000 0.000000000000000 0.000000000000000 0.000000000000000 
0.000000000000000 1.000000000000000 0.000000000000000 0.000000000000000 
0.000000000000000 0.000000000000000 1.000000000000000 0.000000000000000 
1
0.000000000000000 0.000000000000000 1.000000000000000 3680.999999999999091 
1.000000000000000 0.000000000000000 0.000000000000000 0.000000000000000 
0.000000000000000 1.000000000000000 0.000000000000000 0.000000000000000 
2  22 1 23 1 3 -1 0
2  3 1 23 -1 22 -1 0
1
1.000000000000000 0.000000000000000 0.000000000000000 -5.000000000000000 
0.000000000000000 1.000000000000000 0.000000000000000 -0.000000000000000 
0.000000000000000 0.000000000000000 1.000000000000000 -0.000000000000000 
2  26 -1 3 1 23 -1 22 -1 0
2  23 -1 22 -1 0
2  2 1 23 -1 22 -1 0
2  7 1 8 1 9 -1 2 1 3 -1 4 1 5 -1 0
2  7 1 8 1 9 -1 11 1 2 1 3 -1 4 1 5 -1 0
1
1.000000000000000 0.000000000000000 0.000000000000000 0.000000000000000 
0.000000000000000 1.000000000000000 0.000000000000000 0.000000000000000 
0.000000000000000 0.000000000000000 1.000000000000000 0.000000000000000 
1
1.000000000000000 0.000000000000000 0.000000000000000 0.000000000000000 
0.000000000000000 0.000000000000000 -1.000000000000000 -1843.000000000000000 
0.000000000000000 1.000000000000000 0.000000000000000 0.000000000000000 
2  32 1 33 1 5 -1 0
2  5 1 33 -1 32 -1 0
1
1.000000000000000 0.000000000000000 0.000000000000000 0.000000000000000 
0.000000000000000 1.000000000000000 0.000000000000000 5.000000000000000 
0.000000000000000 0.000000000000000 1.000000000000000 -0.000000000000001 
2  36 -1 5 1 33 -1 32 -1 0
2  33 -1 32 -1 0
2  2 1 3 -1 4 1 33 -1 32 -1 0
2  22 1 23 1 3 -1 26 1 0
2  32 1 33 1 5 -1 36 1 0
2  3 -1 26 1 4 1 5 -1 0
2  22 1 23 1 0
2  5 -1 36 1 0
2  32 1 33 1 0
Curve2ds 40
1 0.00000000000000000 0.00000000000000000 0.00000000000000000 -1.00000000000000000 
1 166.78568583027617933 0.00000000000000000 0.00000000000000000 -1.00000000000000000 
1 0.00000000000000000 0.00000000000000000 0.00000000000000000 -1.00000000000000000 
1 0.00000000000000000 0.00000000000000000 1.00000000000000000 0.00000000000000000 
1 0.00000000000000000 -50.00000000000000000 1.00000000000000000 0.00000000000000000 
1 485.84070096790878779 0.00000000000000000 0.00000000000000000 -1.00000000000000000 
1 0.00000000000000000 0.00000000000000000 0.00000000000000000 -1.00000000000000000 
1 1250.09616680844192160 0.00000000000000000 0.00000000000000000 -1.00000000000000000 
1 0.00000000000000000 0.00000000000000000 1.00000000000000000 0.00000000000000000 
1 0.00000000000000000 -50.00000000000000000 1.00000000000000000 0.00000000000000000 
1 0.00000000000000000 0.00000000000000000 1.00000000000000000 0.00000000000000000 
1 0.00000000000000000 -50.00000000000000000 1.00000000000000000 0.00000000000000000 
1 0.00000000000000000 0.00000000000000000 1.00000000000000000 0.00000000000000000 
1 0.00000000000000000 -50.00000000000000000 1.00000000000000000 0.00000000000000000 
1 0.00000000000000000 0.00000000000000000 0.00000000000000000 -1.00000000000000000 
1 225.09953451169849359 0.00000000000000000 0.00000000000000000 -1.00000000000000000 
1 0.00000000000000000 0.00000000000000000 1.00000000000000000 0.00000000000000000 
1 0.00000000000000000 -5.00000000000000000 1.00000000000000000 0.00000000000000000 
2 -0.00000000000000355 0.00000000000045475 0.00000000000000000 -1.00000000000000000 1.00000000000000000 0.00000000000000000 5.00000000000000000
2 80.00000000000000000 -25.00000000000000000 1.00000000000000000 0.00000000000000000 -0.00000000000000000 1.00000000000000000 5.00000000000000000
1 0.00000000000000000 0.00000000000000000 1.00000000000000000 0.00000000000000000 
1 0.00000000000000000 -5.00000000000000000 1.00000000000000000 0.00000000000000000 
2 -0.00000000000000355 0.00000000000022737 0.00000000000000000 -1.00000000000000000 1.00000000000000000 0.00000000000000000 5.00000000000000000
2 405.84070096790878779 -25.00000000000000000 1.00000000000000000 0.00000000000000000 -0.00000000000000000 1.00000000000000000 5.00000000000000000
1 0.00000000000000000 0.00000000000000000 1.00000000000000000 0.00000000000000000 
1 0.00000000000000000 -5.00000000000000000 1.00000000000000000 0.00000000000000000 
2 0.00000000000000355 0.00000000000045475 0.00000000000000000 1.00000000000000000 -1.00000000000000000 0.00000000000000000 5.00000000000000000
2 80.00000000000000000 -25.00000000000000000 1.00000000000000000 0.00000000000000000 -0.00000000000000000 1.00000000000000000 5.00000000000000000
1 0.00000000000000000 0.00000000000000000 1.00000000000000000 0.00000000000000000 
1 0.00000000000000000 -5.00000000000000000 1.00000000000000000 0.00000000000000000 
2 0.00000000000000355 0.00000000000090949 0.00000000000000000 1.00000000000000000 -1.00000000000000000 0.00000000000000000 5.00000000000000000
2 145.09953451169849359 -25.00000000000000000 1.00000000000000000 0.00000000000000000 -0.00000000000000000 1.00000000000000000 5.00000000000000000
1 0.00000000000000000 0.00000000000000000 0.00000000000000000 -1.00000000000000000 
1 6.28318530717958623 0.00000000000000000 0.00000000000000000 -1.00000000000000000 
1 0.00000000000000000 0.00000000000000000 0.00000000000000000 -1.00000000000000000 
1 6.28318530717958623 0.00000000000000000 0.00000000000000000 -1.00000000000000000 
1 0.00000000000000000 0.00000000000000000 0.00000000000000000 -1.00000000000000000 
1 6.28318530717958623 0.00000000000000000 0.00000000000000000 -1.00000000000000000 
1 0.00000000000000000 0.00000000000000000 0.00000000000000000 -1.00000000000000000 
1 6.28318530717958623 0.00000000000000000 0.00000000000000000 -1.00000000000000000 
Curves 18
1 2724.99999999999954525 -973.00000000000000000 0.00000000000000000 -0.00000000000000000 -0.00000000000000000 -1.00000000000000000 
1 2558.21431416972336592 -973.00000000000000000 0.00000000000000000 -0.00000000000000000 -0.00000000000000000 -1.00000000000000000 
1 2724.99999999999954525 -973.00000000000000000 0.00000000000000000 -1.00000000000000000 0.00000000000000000 0.00000000000000000 
1 3680.99999999999909051 -1357.15929903209121221 0.00000000000000000 -0.00000000000000000 -0.00000000000000000 -1.00000000000000000 
1 3680.99999999999909051 -1357.15929903209121221 0.00000000000000000 -0.92788670916328264 0.37286224662485429 0.00000000000000000 
1 3455.90046548830059692 -1843.00000000000000000 0.00000000000000000 -0.00000000000000000 -0.00000000000000000 -1.00000000000000000 
1 2558.21431416972336592 -973.00000000000000000 0.00000000000000000 0.71809367563330351 -0.69594645844019642 0.00000000000000000 
1 3455.90046548830059692 -1843.00000000000000000 0.00000000000000000 1.00000000000000000 0.00000000000000000 0.00000000000000000 
1 3680.99999999999909051 -1843.00000000000000000 0.00000000000000000 0.00000000000000000 1.00000000000000000 0.00000000000000000 
1 3680.99999999999909051 -1843.00000000000000000 0.00000000000000000 -0.00000000000000000 -0.00000000000000000 -1.00000000000000000 
2 -1763.00000000000000000 -25.00000000000000000 0.00000000000000000 0.00000000000000000 0.00000000000000000 1.00000000000000000 1.00000000000000000 0.00000000000000000 -0.00000000000000000 -0.00000000000000000 1.00000000000000000 0.00000000000000000 5.00000000000000000
2 -1437.15929903209121221 -25.00000000000000000 0.00000000000000000 0.00000000000000000 0.00000000000000000 1.00000000000000000 1.00000000000000000 0.00000000000000000 -0.00000000000000000 -0.00000000000000000 1.00000000000000000 0.00000000000000000 5.00000000000000000
2 3535.90046548830059692 -25.00000000000000000 0.00000000000000000 0.00000000000000000 0.00000000000000000 1.00000000000000000 1.00000000000000000 0.00000000000000000 -0.00000000000000000 -0.00000000000000000 1.00000000000000000 0.00000000000000000 5.00000000000000000
2 3600.99999999999909051 -25.00000000000000000 0.00000000000000000 0.00000000000000000 0.00000000000000000 1.00000000000000000 1.00000000000000000 0.00000000000000000 -0.00000000000000000 -0.00000000000000000 1.00000000000000000 0.00000000000000000 5.00000000000000000
1 3680.99999999999909051 -1758.00000000000000000 -25.00000000000000000 -1.00000000000000000 -0.00000000000000000 -0.00000000000000000 
1 3680.99999999999909051 -1432.15929903209121221 -25.00000000000000000 -1.00000000000000000 -0.00000000000000000 -0.00000000000000000 
1 3540.90046548830059692 -1843.00000000000000000 -25.00000000000000000 0.00000000000000000 1.00000000000000000 -0.00000000000000022 
1 3605.99999999999909051 -1843.00000000000000000 -25.00000000000000000 0.00000000000000000 1.00000000000000000 -0.00000000000000022 
Polygon3D 0
PolygonOnTriangulations 0
Surfaces 14
1 2724.99999999999954525 -973.00000000000000000 0.00000000000000000 0.00000000000000000 1.00000000000000000 -0.00000000000000000 -1.00000000000000000 0.00000000000000000 0.00000000000000000 0.00000000000000000 0.00000000000000000 1.00000000000000000 
1 2558.21431416972336592 -973.00000000000000000 0.00000000000000000 -0.69594645844019642 -0.71809367563330351 0.00000000000000000 0.71809367563330351 -0.69594645844019642 0.00000000000000000 0.00000000000000000 0.00000000000000000 1.00000000000000000 
1 3680.99999999999909051 -1357.15929903209121221 0.00000000000000000 0.37286224662485429 0.92788670916328264 -0.00000000000000000 -0.92788670916328264 0.37286224662485429 0.00000000000000000 0.00000000000000000 0.00000000000000000 1.00000000000000000 
1 3680.99999999999909051 -1843.00000000000000000 0.00000000000000000 1.00000000000000000 0.00000000000000000 0.00000000000000000 -0.00000000000000000 1.00000000000000000 0.00000000000000000 0.00000000000000000 -0.00000000000000000 1.00000000000000000 
1 3455.90046548830059692 -1843.00000000000000000 0.00000000000000000 0.00000000000000000 -1.00000000000000000 0.00000000000000000 1.00000000000000000 0.00000000000000000 0.00000000000000000 -0.00000000000000000 0.00000000000000000 1.00000000000000000 
1 3195.37367113074651570 -1366.33161794169768655 0.00000000000000000 0.00000000000000000 0.00000000000000000 1.00000000000000000 1.00000000000000000 0.00000000000000000 -0.00000000000000000 -0.00000000000000000 1.00000000000000000 0.00000000000000000 
2 3680.99999999999909051 -1763.00000000000000000 -25.00000000000000000 1.00000000000000000 0.00000000000000000 0.00000000000000000 -0.00000000000000000 1.00000000000000000 0.00000000000000000 0.00000000000000000 -0.00000000000000000 1.00000000000000000 5.00000000000000000
1 3680.99999999999909051 -1762.99999999999954525 -24.99999999999999645 1.00000000000000000 0.00000000000000000 0.00000000000000000 -0.00000000000000000 0.00000000000000000 1.00000000000000000 0.00000000000000000 -1.00000000000000000 0.00000000000000000 
2 3680.99999999999909051 -1437.15929903209121221 -25.00000000000000000 1.00000000000000000 0.00000000000000000 0.00000000000000000 -0.00000000000000000 1.00000000000000000 0.00000000000000000 0.00000000000000000 -0.00000000000000000 1.00000000000000000 5.00000000000000000
1 3680.99999999999909051 -1437.15929903209098484 -24.99999999999999645 1.00000000000000000 0.00000000000000000 0.00000000000000000 -0.00000000000000000 0.00000000000000000 1.00000000000000000 0.00000000000000000 -1.00000000000000000 0.00000000000000000 
2 3535.90046548830059692 -1843.00000000000000000 -25.00000000000000000 0.00000000000000000 -1.00000000000000000 0.00000000000000022 1.00000000000000000 0.00000000000000000 0.00000000000000000 -0.00000000000000000 0.00000000000000022 1.00000000000000000 5.00000000000000000
1 3535.90046548830014217 -1843.00000000000000000 -24.99999999999999645 -0.00000000000000000 -1.00000000000000000 -0.00000000000000000 0.00000000000000000 0.00000000000000000 -1.00000000000000000 1.00000000000000000 -0.00000000000000000 0.00000000000000000 
2 3600.99999999999909051 -1843.00000000000000000 -25.00000000000000000 0.00000000000000000 -1.00000000000000000 0.00000000000000022 1.00000000000000000 0.00000000000000000 0.00000000000000000 -0.00000000000000000 0.00000000000000022 1.00000000000000000 5.00000000000000000
1 3600.99999999999818101 -1843.00000000000000000 -24.99999999999999645 -0.00000000000000000 -1.00000000000000000 -0.00000000000000000 0.00000000000000000 0.00000000000000000 -1.00000000000000000 1.00000000000000000 -0.00000000000000000 0.00000000000000000 
Triangulations 0

TShapes 61
Ve
0.000000100000000
2724.999999999999545 -973.000000000000000 0.000000000000000
0 0

0101101
*
Ed
 0.000000100000000 1 1 0
1  1 0 0.000000000000000 50.000000000000000
2  1 1 0 0.000000000000000 50.000000000000000
0

0101000
+61 10 -61 12 *
Ve
0.000000100000000
2558.214314169723366 -973.000000000000000 0.000000000000000
0 0

0101101
*
Ed
 0.000000100000000 1 1 0
1  2 0 0.000000000000000 50.000000000000000
2  2 1 0 0.000000000000000 50.000000000000000
2  3 2 0 0.000000000000000 50.000000000000000
0

0101000
+59 10 -59 12 *
Ed
 0.000000100000000 1 1 0
1  3 0 0.000000000000000 166.785685830276179
2  4 1 13 0.000000000000000 166.785685830276179
2  5 1 14 0.000000000000000 166.785685830276179
0

0101000
+61 0 -59 0 *
Wi

0101100
+60 0 -58 0 -57 10 +57 12 *
Fa
0  0.000000100000000 1 0

0111000
+56 0 *
Ve
0.000000100000000
3680.999999999999091 -1357.159299032091212 0.000000000000000
0 0

0101101
*
Ed
 0.000000100000000 1 1 0
1  4 0 0.000000000000000 50.000000000000000
2  6 4 0 0.000000000000000 50.000000000000000
0

0101000
+54 10 -54 12 *
Ed
 0.000000100000000 1 1 0
1  5 0 0.000000000000000 1030.298193259032587
0

0101000
+54 0 -61 0 *
Wi

0101100
+53 0 -60 0 -52 10 +52 12 *
Fa
0  0.000000100000000 3 0

0111000
+51 0 *
Ve
0.000000100000000
3455.900465488300597 -1843.000000000000000 0.000000000000000
0 0

0101101
*
Ed
 0.000000100000000 1 1 0
1  6 0 0.000000000000000 50.000000000000000
2  7 5 0 0.000000000000000 50.000000000000000
2  8 2 0 0.000000000000000 50.000000000000000
0

0101000
+49 10 -49 12 *
Ed
 0.000000100000000 1 1 0
1  7 0 0.000000000000000 1250.096166808441922
2  9 2 13 0.000000000000000 1250.096166808441922
2  10 2 14 0.000000000000000 1250.096166808441922
0

0101000
+59 0 -49 0 *
Wi

0101100
+58 0 -48 0 -47 10 +47 12 *
Fa
0  0.000000100000000 2 0

0111000
+46 0 *
Ve
0.000000100000000
3680.999999999999091 -1843.000000000000000 0.000000000000000
0 0

0101101
*
Ed
 0.000000100000000 1 1 0
1  8 0 0.000000000000000 225.099534511698494
2  11 5 13 0.000000000000000 225.099534511698494
2  12 5 14 0.000000000000000 225.099534511698494
0

0101000
+49 0 -44 0 *
Ed
 0.000000100000000 1 1 0
1  9 0 0.000000000000000 485.840700967908788
2  13 4 13 0.000000000000000 485.840700967908788
2  14 4 14 0.000000000000000 485.840700967908788
0

0101000
+44 0 -54 0 *
Wi

0101100
+57 0 +47 0 +43 0 +42 0 +52 0 *
Fa
0  0.000000100000000 6 0

0111000
+41 16 *
Ed
 0.000000100000000 1 1 0
1  10 0 0.000000000000000 50.000000000000000
2  15 4 0 0.000000000000000 50.000000000000000
2  16 5 0 0.000000000000000 50.000000000000000
0

0101000
+44 10 -44 12 *
Wi

0101100
+39 19 -42 20 +42 21 -53 19 *
Ve
0.000000100000000
-1758.000000000000000 -25.000000000000000 0.000000000000000
0 0

0101101
*
Ed
 0.000000100000000 1 1 0
1  11 0 0.000000000000000 6.283185307179586
2  17 7 25 0.000000000000000 6.283185307179586
2  18 7 27 0.000000000000000 6.283185307179586
2  19 8 28 0.000000000000000 6.283185307179586
2  20 4 29 0.000000000000000 6.283185307179586
0

0101000
+37 0 -37 0 *
Wi

0101100
-36 24 *
Ve
0.000000100000000
-1432.159299032091212 -25.000000000000000 0.000000000000000
0 0

0101101
*
Ed
 0.000000100000000 1 1 0
1  12 0 0.000000000000000 6.283185307179586
2  21 9 25 0.000000000000000 6.283185307179586
2  22 9 27 0.000000000000000 6.283185307179586
2  23 10 28 0.000000000000000 6.283185307179586
2  24 4 29 0.000000000000000 6.283185307179586
0

0101000
+34 0 -34 0 *
Wi

0101100
-33 24 *
Fa
0  0.000000100000000 4 19

0111000
+38 0 +35 0 +32 0 *
Wi

0101100
+48 6 -43 30 +43 31 -39 6 *
Ve
0.000000100000000
3540.900465488300597 -25.000000000000000 0.000000000000000
0 0

0101101
*
Ed
 0.000000100000000 1 1 0
1  13 0 0.000000000000000 6.283185307179586
2  25 11 35 0.000000000000000 6.283185307179586
2  26 11 37 0.000000000000000 6.283185307179586
2  27 12 38 0.000000000000000 6.283185307179586
2  28 5 39 0.000000000000000 6.283185307179586
0

0101000
+29 0 -29 0 *
Wi

0101100
-28 34 *
Ve
0.000000100000000
3605.999999999999091 -25.000000000000000 0.000000000000000
0 0

0101101
*
Ed
 0.000000100000000 1 1 0
1  14 0 0.000000000000000 6.283185307179586
2  29 13 35 0.000000000000000 6.283185307179586
2  30 13 37 0.000000000000000 6.283185307179586
2  31 14 38 0.000000000000000 6.283185307179586
2  32 5 39 0.000000000000000 6.283185307179586
0

0101000
+26 0 -26 0 *
Wi

0101100
-25 34 *
Fa
0  0.000000100000000 5 6

0111000
+30 0 +27 0 +24 0 *
Ed
 0.000000100000000 1 1 0
1  15 0 0.000000000000000 5.000000000000000
3  33 34CN 7 0 0.000000000000000 5.000000000000000
0

0101000
+37 24 -37 40 *
Wi

0101100
+22 0 -22 0 -36 24 +36 40 *
Fa
0  0.000000100000000 7 0

0111000
+21 0 *
Ed
 0.000000100000000 1 1 0
1  16 0 0.000000000000000 5.000000000000000
3  35 36CN 9 0 0.000000000000000 5.000000000000000
0

0101000
+34 24 -34 40 *
Wi

0101100
+19 0 -19 0 -33 24 +33 40 *
Fa
0  0.000000100000000 9 0

0111000
+18 0 *
Ed
 0.000000100000000 1 1 0
1  17 0 0.000000000000000 5.000000000000000
3  37 38CN 11 0 0.000000000000000 5.000000000000000
0

0101000
+29 34 -29 41 *
Wi

0101100
+16 0 -16 0 -28 34 +28 41 *
Fa
0  0.000000100000000 11 0

0111000
+15 0 *
Ed
 0.000000100000000 1 1 0
1  18 0 0.000000000000000 5.000000000000000
3  39 40CN 13 0 0.000000000000000 5.000000000000000
0

0101000
+26 34 -26 41 *
Wi

0101100
+13 0 -13 0 -25 34 +25 41 *
Fa
0  0.000000100000000 13 0

0111000
+12 0 *
Wi

0101100
+36 0 *
Fa
0  0.000000100000000 8 0

0111000
+10 43 *
Wi

0101100
+33 0 *
Fa
0  0.000000100000000 10 0

0111000
+8 43 *
Wi

0101100
+28 0 *
Fa
0  0.000000100000000 12 0

0111000
+6 45 *
Wi

0101100
+25 0 *
Fa
0  0.000000100000000 14 0

0111000
+4 45 *
Sh

0101100
+55 6 +50 6 +45 6 +40 15 -40 17 +31 18 +23 0 -20 18 -17 18 -14 0 
-11 0 +9 42 +7 42 +5 44 +3 44 *
So

0100000
+2 0 *

+1 1 