
CASCADE Topology V1, (c) Matra-Datavision
Locations 28
1
1.000000000000000 0.000000000000000 0.000000000000000 0.000000000000000 
0.000000000000000 1.000000000000000 0.000000000000000 0.000000000000000 
0.000000000000000 0.000000000000000 1.000000000000000 0.000000000000000 
1
1.000000000000000 0.000000000000000 0.000000000000000 0.000000000000000 
0.000000000000000 1.000000000000000 0.000000000000000 0.000000000000000 
0.000000000000000 0.000000000000000 1.000000000000000 0.000000000000000 
1
1.000000000000000 0.000000000000000 0.000000000000000 0.000000000000000 
0.000000000000000 1.000000000000000 0.000000000000000 0.000000000000000 
0.000000000000000 0.000000000000000 1.000000000000000 0.000000000000000 
2  2 1 3 -1 0
1
1.000000000000000 0.000000000000000 0.000000000000000 0.000000000000000 
0.000000000000000 1.000000000000000 0.000000000000000 0.000000000000000 
0.000000000000000 0.000000000000000 1.000000000000000 0.000000000000000 
1
1.000000000000000 0.000000000000000 0.000000000000000 0.000000000000000 
0.000000000000000 1.000000000000000 0.000000000000000 0.000000000000000 
0.000000000000000 0.000000000000000 1.000000000000000 0.000000000000000 
1
1.000000000000000 0.000000000000000 0.000000000000000 0.000000000000000 
0.000000000000000 1.000000000000000 0.000000000000000 0.000000000000000 
0.000000000000000 0.000000000000000 1.000000000000000 0.000000000000000 
2  5 1 6 1 7 -1 0
1
1.000000000000000 0.000000000000000 0.000000000000000 -0.000000000000000 
0.000000000000000 1.000000000000000 0.000000000000000 -0.000000000000000 
0.000000000000000 0.000000000000000 1.000000000000000 -50.000000000000000 
2  5 1 6 1 7 -1 9 1 0
2  7 1 6 -1 5 -1 0
2  9 -1 7 1 6 -1 5 -1 0
2  7 -1 2 1 3 -1 0
2  5 1 6 1 0
2  7 -1 9 1 2 1 3 -1 0
2  5 1 6 1 7 -1 2 1 3 -1 0
2  5 1 6 1 7 -1 9 1 2 1 3 -1 0
1
1.000000000000000 0.000000000000000 0.000000000000000 0.000000000000000 
0.000000000000000 1.000000000000000 0.000000000000000 0.000000000000000 
0.000000000000000 0.000000000000000 1.000000000000000 0.000000000000000 
1
0.000000000000000 0.000000000000000 1.000000000000000 3680.999999999999091 
1.000000000000000 0.000000000000000 0.000000000000000 0.000000000000000 
0.000000000000000 1.000000000000000 0.000000000000000 0.000000000000000 
2  18 1 19 1 3 -1 0
2  3 1 19 -1 18 -1 0
1
1.000000000000000 0.000000000000000 0.000000000000000 -5.000000000000000 
0.000000000000000 1.000000000000000 0.000000000000000 -0.000000000000000 
0.000000000000000 0.000000000000000 1.000000000000000 -0.000000000000000 
2  22 -1 3 1 19 -1 18 -1 0
2  19 -1 18 -1 0
2  2 1 19 -1 18 -1 0
2  18 1 19 1 3 -1 22 1 0
2  3 -1 22 1 0
2  18 1 19 1 0
Curve2ds 28
1 0.00000000000000000 0.00000000000000000 0.00000000000000000 -1.00000000000000000 
1 166.78568583027617933 0.00000000000000000 0.00000000000000000 -1.00000000000000000 
1 0.00000000000000000 0.00000000000000000 0.00000000000000000 -1.00000000000000000 
1 0.00000000000000000 0.00000000000000000 1.00000000000000000 0.00000000000000000 
1 0.00000000000000000 -50.00000000000000000 1.00000000000000000 0.00000000000000000 
1 485.84070096790878779 0.00000000000000000 0.00000000000000000 -1.00000000000000000 
1 0.00000000000000000 0.00000000000000000 0.00000000000000000 -1.00000000000000000 
1 1250.09616680844192160 0.00000000000000000 0.00000000000000000 -1.00000000000000000 
1 0.00000000000000000 0.00000000000000000 1.00000000000000000 0.00000000000000000 
1 0.00000000000000000 -50.00000000000000000 1.00000000000000000 0.00000000000000000 
1 0.00000000000000000 0.00000000000000000 1.00000000000000000 0.00000000000000000 
1 0.00000000000000000 -50.00000000000000000 1.00000000000000000 0.00000000000000000 
1 0.00000000000000000 0.00000000000000000 1.00000000000000000 0.00000000000000000 
1 0.00000000000000000 -50.00000000000000000 1.00000000000000000 0.00000000000000000 
1 0.00000000000000000 0.00000000000000000 0.00000000000000000 -1.00000000000000000 
1 225.09953451169849359 0.00000000000000000 0.00000000000000000 -1.00000000000000000 
1 0.00000000000000000 0.00000000000000000 1.00000000000000000 0.00000000000000000 
1 0.00000000000000000 -5.00000000000000000 1.00000000000000000 0.00000000000000000 
2 -0.00000000000000355 0.00000000000045475 0.00000000000000000 -1.00000000000000000 1.00000000000000000 0.00000000000000000 5.00000000000000000
2 80.00000000000000000 -25.00000000000000000 1.00000000000000000 0.00000000000000000 -0.00000000000000000 1.00000000000000000 5.00000000000000000
1 0.00000000000000000 0.00000000000000000 1.00000000000000000 0.00000000000000000 
1 0.00000000000000000 -5.00000000000000000 1.00000000000000000 0.00000000000000000 
2 -0.00000000000000355 0.00000000000022737 0.00000000000000000 -1.00000000000000000 1.00000000000000000 0.00000000000000000 5.00000000000000000
2 405.84070096790878779 -25.00000000000000000 1.00000000000000000 0.00000000000000000 -0.00000000000000000 1.00000000000000000 5.00000000000000000
1 0.00000000000000000 0.00000000000000000 0.00000000000000000 -1.00000000000000000 
1 6.28318530717958623 0.00000000000000000 0.00000000000000000 -1.00000000000000000 
1 0.00000000000000000 0.00000000000000000 0.00000000000000000 -1.00000000000000000 
1 6.28318530717958623 0.00000000000000000 0.00000000000000000 -1.00000000000000000 
Curves 14
1 2724.99999999999954525 -973.00000000000000000 0.00000000000000000 -0.00000000000000000 -0.00000000000000000 -1.00000000000000000 
1 2558.21431416972336592 -973.00000000000000000 0.00000000000000000 -0.00000000000000000 -0.00000000000000000 -1.00000000000000000 
1 2724.99999999999954525 -973.00000000000000000 0.00000000000000000 -1.00000000000000000 0.00000000000000000 0.00000000000000000 
1 3680.99999999999909051 -1357.15929903209121221 0.00000000000000000 -0.00000000000000000 -0.00000000000000000 -1.00000000000000000 
1 3680.99999999999909051 -1357.15929903209121221 0.00000000000000000 -0.92788670916328264 0.37286224662485429 0.00000000000000000 
1 3455.90046548830059692 -1843.00000000000000000 0.00000000000000000 -0.00000000000000000 -0.00000000000000000 -1.00000000000000000 
1 2558.21431416972336592 -973.00000000000000000 0.00000000000000000 0.71809367563330351 -0.69594645844019642 0.00000000000000000 
1 3455.90046548830059692 -1843.00000000000000000 0.00000000000000000 1.00000000000000000 0.00000000000000000 0.00000000000000000 
1 3680.99999999999909051 -1843.00000000000000000 0.00000000000000000 0.00000000000000000 1.00000000000000000 0.00000000000000000 
1 3680.99999999999909051 -1843.00000000000000000 0.00000000000000000 -0.00000000000000000 -0.00000000000000000 -1.00000000000000000 
2 -1763.00000000000000000 -25.00000000000000000 0.00000000000000000 0.00000000000000000 0.00000000000000000 1.00000000000000000 1.00000000000000000 0.00000000000000000 -0.00000000000000000 -0.00000000000000000 1.00000000000000000 0.00000000000000000 5.00000000000000000
2 -1437.15929903209121221 -25.00000000000000000 0.00000000000000000 0.00000000000000000 0.00000000000000000 1.00000000000000000 1.00000000000000000 0.00000000000000000 -0.00000000000000000 -0.00000000000000000 1.00000000000000000 0.00000000000000000 5.00000000000000000
1 3680.99999999999909051 -1758.00000000000000000 -25.00000000000000000 -1.00000000000000000 -0.00000000000000000 -0.00000000000000000 
1 3680.99999999999909051 -1432.15929903209121221 -25.00000000000000000 -1.00000000000000000 -0.00000000000000000 -0.00000000000000000 
Polygon3D 0
PolygonOnTriangulations 0
Surfaces 10
1 2724.99999999999954525 -973.00000000000000000 0.00000000000000000 0.00000000000000000 1.00000000000000000 -0.00000000000000000 -1.00000000000000000 0.00000000000000000 0.00000000000000000 0.00000000000000000 0.00000000000000000 1.00000000000000000 
1 2558.21431416972336592 -973.00000000000000000 0.00000000000000000 -0.69594645844019642 -0.71809367563330351 0.00000000000000000 0.71809367563330351 -0.69594645844019642 0.00000000000000000 0.00000000000000000 0.00000000000000000 1.00000000000000000 
1 3680.99999999999909051 -1357.15929903209121221 0.00000000000000000 0.37286224662485429 0.92788670916328264 -0.00000000000000000 -0.92788670916328264 0.37286224662485429 0.00000000000000000 0.00000000000000000 0.00000000000000000 1.00000000000000000 
1 3680.99999999999909051 -1843.00000000000000000 0.00000000000000000 1.00000000000000000 0.00000000000000000 0.00000000000000000 -0.00000000000000000 1.00000000000000000 0.00000000000000000 0.00000000000000000 -0.00000000000000000 1.00000000000000000 
1 3455.90046548830059692 -1843.00000000000000000 0.00000000000000000 0.00000000000000000 -1.00000000000000000 0.00000000000000000 1.00000000000000000 0.00000000000000000 0.00000000000000000 -0.00000000000000000 0.00000000000000000 1.00000000000000000 
1 3195.37367113074651570 -1366.33161794169768655 0.00000000000000000 0.00000000000000000 0.00000000000000000 1.00000000000000000 1.00000000000000000 0.00000000000000000 -0.00000000000000000 -0.00000000000000000 1.00000000000000000 0.00000000000000000 
2 3680.99999999999909051 -1763.00000000000000000 -25.00000000000000000 1.00000000000000000 0.00000000000000000 0.00000000000000000 -0.00000000000000000 1.00000000000000000 0.00000000000000000 0.00000000000000000 -0.00000000000000000 1.00000000000000000 5.00000000000000000
1 3680.99999999999909051 -1762.99999999999954525 -24.99999999999999645 1.00000000000000000 0.00000000000000000 0.00000000000000000 -0.00000000000000000 0.00000000000000000 1.00000000000000000 0.00000000000000000 -1.00000000000000000 0.00000000000000000 
2 3680.99999999999909051 -1437.15929903209121221 -25.00000000000000000 1.00000000000000000 0.00000000000000000 0.00000000000000000 -0.00000000000000000 1.00000000000000000 0.00000000000000000 0.00000000000000000 -0.00000000000000000 1.00000000000000000 5.00000000000000000
1 3680.99999999999909051 -1437.15929903209098484 -24.99999999999999645 1.00000000000000000 0.00000000000000000 0.00000000000000000 -0.00000000000000000 0.00000000000000000 1.00000000000000000 0.00000000000000000 -1.00000000000000000 0.00000000000000000 
Triangulations 0

TShapes 45
Ve
0.000000100000000
2724.999999999999545 -973.000000000000000 0.000000000000000
0 0

0101101
*
Ed
 0.000000100000000 1 1 0
1  1 0 0.000000000000000 50.000000000000000
2  1 1 0 0.000000000000000 50.000000000000000
0

0101000
+45 8 -45 10 *
Ve
0.000000100000000
2558.214314169723366 -973.000000000000000 0.000000000000000
0 0

0101101
*
Ed
 0.000000100000000 1 1 0
1  2 0 0.000000000000000 50.000000000000000
2  2 1 0 0.000000000000000 50.000000000000000
2  3 2 0 0.000000000000000 50.000000000000000
0

0101000
+43 8 -43 10 *
Ed
 0.000000100000000 1 1 0
1  3 0 0.000000000000000 166.785685830276179
2  4 1 11 0.000000000000000 166.785685830276179
2  5 1 12 0.000000000000000 166.785685830276179
0

0101000
+45 0 -43 0 *
Wi

0101100
+44 0 -42 0 -41 8 +41 10 *
Fa
0  0.000000100000000 1 0

0111000
+40 0 *
Ve
0.000000100000000
3680.999999999999091 -1357.159299032091212 0.000000000000000
0 0

0101101
*
Ed
 0.000000100000000 1 1 0
1  4 0 0.000000000000000 50.000000000000000
2  6 4 0 0.000000000000000 50.000000000000000
0

0101000
+38 8 -38 10 *
Ed
 0.000000100000000 1 1 0
1  5 0 0.000000000000000 1030.298193259032587
0

0101000
+38 0 -45 0 *
Wi

0101100
+37 0 -44 0 -36 8 +36 10 *
Fa
0  0.000000100000000 3 0

0111000
+35 0 *
Ve
0.000000100000000
3455.900465488300597 -1843.000000000000000 0.000000000000000
0 0

0101101
*
Ed
 0.000000100000000 1 1 0
1  6 0 0.000000000000000 50.000000000000000
2  7 5 0 0.000000000000000 50.000000000000000
2  8 2 0 0.000000000000000 50.000000000000000
0

0101000
+33 8 -33 10 *
Ed
 0.000000100000000 1 1 0
1  7 0 0.000000000000000 1250.096166808441922
2  9 2 11 0.000000000000000 1250.096166808441922
2  10 2 12 0.000000000000000 1250.096166808441922
0

0101000
+43 0 -33 0 *
Wi

0101100
+42 0 -32 0 -31 8 +31 10 *
Fa
0  0.000000100000000 2 0

0111000
+30 0 *
Ve
0.000000100000000
3680.999999999999091 -1843.000000000000000 0.000000000000000
0 0

0101101
*
Ed
 0.000000100000000 1 1 0
1  8 0 0.000000000000000 225.099534511698494
2  11 5 11 0.000000000000000 225.099534511698494
2  12 5 12 0.000000000000000 225.099534511698494
0

0101000
+33 0 -28 0 *
Ed
 0.000000100000000 1 1 0
1  9 0 0.000000000000000 485.840700967908788
2  13 4 11 0.000000000000000 485.840700967908788
2  14 4 12 0.000000000000000 485.840700967908788
0

0101000
+28 0 -38 0 *
Wi

0101100
+41 0 +31 0 +27 0 +26 0 +36 0 *
Fa
0  0.000000100000000 6 0

0111000
+25 14 *
Ed
 0.000000100000000 1 1 0
1  10 0 0.000000000000000 50.000000000000000
2  15 4 0 0.000000000000000 50.000000000000000
2  16 5 0 0.000000000000000 50.000000000000000
0

0101000
+28 8 -28 10 *
Wi

0101100
+23 4 -26 16 +26 17 -37 4 *
Ve
0.000000100000000
-1758.000000000000000 -25.000000000000000 0.000000000000000
0 0

0101101
*
Ed
 0.000000100000000 1 1 0
1  11 0 0.000000000000000 6.283185307179586
2  17 7 21 0.000000000000000 6.283185307179586
2  18 7 23 0.000000000000000 6.283185307179586
2  19 8 24 0.000000000000000 6.283185307179586
2  20 4 25 0.000000000000000 6.283185307179586
0

0101000
+21 0 -21 0 *
Wi

0101100
-20 20 *
Ve
0.000000100000000
-1432.159299032091212 -25.000000000000000 0.000000000000000
0 0

0101101
*
Ed
 0.000000100000000 1 1 0
1  12 0 0.000000000000000 6.283185307179586
2  21 9 21 0.000000000000000 6.283185307179586
2  22 9 23 0.000000000000000 6.283185307179586
2  23 10 24 0.000000000000000 6.283185307179586
2  24 4 25 0.000000000000000 6.283185307179586
0

0101000
+18 0 -18 0 *
Wi

0101100
-17 20 *
Fa
0  0.000000100000000 4 4

0111000
+22 0 +19 0 +16 0 *
Wi

0101100
+32 0 -23 0 -27 8 +27 10 *
Fa
0  0.000000100000000 5 0

0111000
+14 0 *
Ed
 0.000000100000000 1 1 0
1  13 0 0.000000000000000 5.000000000000000
3  25 26CN 7 0 0.000000000000000 5.000000000000000
0

0101000
+21 20 -21 26 *
Wi

0101100
+12 0 -12 0 -20 20 +20 26 *
Fa
0  0.000000100000000 7 0

0111000
+11 0 *
Ed
 0.000000100000000 1 1 0
1  14 0 0.000000000000000 5.000000000000000
3  27 28CN 9 0 0.000000000000000 5.000000000000000
0

0101000
+18 20 -18 26 *
Wi

0101100
+9 0 -9 0 -17 20 +17 26 *
Fa
0  0.000000100000000 9 0

0111000
+8 0 *
Wi

0101100
+20 0 *
Fa
0  0.000000100000000 8 0

0111000
+6 28 *
Wi

0101100
+17 0 *
Fa
0  0.000000100000000 10 0

0111000
+4 28 *
Sh

0101100
+39 4 +34 4 +29 4 +24 13 -24 15 +15 0 +13 4 -10 0 -7 0 +5 27 
+3 27 *
So

0100000
+2 0 *

+1 1 