
CASCADE Topology V1, (c) Matra-Datavision
Locations 28
1
1.000000000000000 0.000000000000000 0.000000000000000 0.000000000000000 
0.000000000000000 1.000000000000000 0.000000000000000 0.000000000000000 
0.000000000000000 0.000000000000000 1.000000000000000 0.000000000000000 
1
1.000000000000000 0.000000000000000 0.000000000000000 0.000000000000000 
0.000000000000000 1.000000000000000 0.000000000000000 0.000000000000000 
0.000000000000000 0.000000000000000 1.000000000000000 0.000000000000000 
1
1.000000000000000 0.000000000000000 0.000000000000000 0.000000000000000 
0.000000000000000 1.000000000000000 0.000000000000000 0.000000000000000 
0.000000000000000 0.000000000000000 1.000000000000000 0.000000000000000 
2  2 1 3 -1 0
1
1.000000000000000 0.000000000000000 0.000000000000000 0.000000000000000 
0.000000000000000 1.000000000000000 0.000000000000000 0.000000000000000 
0.000000000000000 0.000000000000000 1.000000000000000 0.000000000000000 
1
1.000000000000000 0.000000000000000 0.000000000000000 0.000000000000000 
0.000000000000000 1.000000000000000 0.000000000000000 0.000000000000000 
0.000000000000000 0.000000000000000 1.000000000000000 0.000000000000000 
1
1.000000000000000 0.000000000000000 0.000000000000000 0.000000000000000 
0.000000000000000 1.000000000000000 0.000000000000000 0.000000000000000 
0.000000000000000 0.000000000000000 1.000000000000000 0.000000000000000 
2  5 1 6 1 7 -1 0
1
1.000000000000000 0.000000000000000 0.000000000000000 -0.000000000000000 
0.000000000000000 1.000000000000000 0.000000000000000 -0.000000000000000 
0.000000000000000 0.000000000000000 1.000000000000000 -50.000000000000000 
2  5 1 6 1 7 -1 9 1 0
2  7 1 6 -1 5 -1 0
2  9 -1 7 1 6 -1 5 -1 0
2  5 1 6 1 7 -1 2 1 3 -1 0
2  5 1 6 1 7 -1 9 1 2 1 3 -1 0
1
1.000000000000000 0.000000000000000 0.000000000000000 0.000000000000000 
0.000000000000000 1.000000000000000 0.000000000000000 0.000000000000000 
0.000000000000000 0.000000000000000 1.000000000000000 0.000000000000000 
1
1.000000000000000 0.000000000000000 0.000000000000000 0.000000000000000 
0.000000000000000 0.000000000000000 -1.000000000000000 -1843.000000000000000 
0.000000000000000 1.000000000000000 0.000000000000000 0.000000000000000 
2  15 1 16 1 3 -1 0
2  3 1 16 -1 15 -1 0
1
1.000000000000000 0.000000000000000 0.000000000000000 0.000000000000000 
0.000000000000000 1.000000000000000 0.000000000000000 5.000000000000000 
0.000000000000000 0.000000000000000 1.000000000000000 -0.000000000000001 
2  19 -1 3 1 16 -1 15 -1 0
2  16 -1 15 -1 0
2  2 1 16 -1 15 -1 0
2  7 -1 2 1 3 -1 0
2  5 1 6 1 0
2  7 -1 9 1 2 1 3 -1 0
2  15 1 16 1 3 -1 19 1 0
2  3 -1 19 1 0
2  15 1 16 1 0
Curve2ds 28
1 0.00000000000000000 0.00000000000000000 0.00000000000000000 -1.00000000000000000 
1 178.62982947869249983 0.00000000000000000 0.00000000000000000 -1.00000000000000000 
1 0.00000000000000000 0.00000000000000000 0.00000000000000000 -1.00000000000000000 
1 832.92736402538707807 0.00000000000000000 0.00000000000000000 -1.00000000000000000 
1 0.00000000000000000 0.00000000000000000 1.00000000000000000 0.00000000000000000 
1 0.00000000000000000 -50.00000000000000000 1.00000000000000000 0.00000000000000000 
1 916.84207365086354002 0.00000000000000000 0.00000000000000000 -1.00000000000000000 
1 0.00000000000000000 0.00000000000000000 0.00000000000000000 -1.00000000000000000 
1 0.00000000000000000 0.00000000000000000 1.00000000000000000 0.00000000000000000 
1 0.00000000000000000 -50.00000000000000000 1.00000000000000000 0.00000000000000000 
1 0.00000000000000000 0.00000000000000000 1.00000000000000000 0.00000000000000000 
1 0.00000000000000000 -50.00000000000000000 1.00000000000000000 0.00000000000000000 
1 454.48249642893733835 0.00000000000000000 0.00000000000000000 -1.00000000000000000 
1 0.00000000000000000 0.00000000000000000 0.00000000000000000 -1.00000000000000000 
1 0.00000000000000000 0.00000000000000000 1.00000000000000000 0.00000000000000000 
1 0.00000000000000000 -5.00000000000000000 1.00000000000000000 0.00000000000000000 
2 0.00000000000000355 0.00000000000045475 0.00000000000000000 1.00000000000000000 -1.00000000000000000 0.00000000000000000 5.00000000000000000
2 80.00000000000000000 -25.00000000000000000 1.00000000000000000 0.00000000000000000 -0.00000000000000000 1.00000000000000000 5.00000000000000000
1 0.00000000000000000 0.00000000000000000 1.00000000000000000 0.00000000000000000 
1 0.00000000000000000 -5.00000000000000000 1.00000000000000000 0.00000000000000000 
2 0.00000000000000355 0.00000000000045475 0.00000000000000000 1.00000000000000000 -1.00000000000000000 0.00000000000000000 5.00000000000000000
2 374.48249642893733835 -25.00000000000000000 1.00000000000000000 0.00000000000000000 -0.00000000000000000 1.00000000000000000 5.00000000000000000
1 0.00000000000000000 0.00000000000000000 1.00000000000000000 0.00000000000000000 
1 0.00000000000000000 -50.00000000000000000 1.00000000000000000 0.00000000000000000 
1 0.00000000000000000 0.00000000000000000 0.00000000000000000 -1.00000000000000000 
1 6.28318530717958623 0.00000000000000000 0.00000000000000000 -1.00000000000000000 
1 0.00000000000000000 0.00000000000000000 0.00000000000000000 -1.00000000000000000 
1 6.28318530717958623 0.00000000000000000 0.00000000000000000 -1.00000000000000000 
Curves 12
1 3344.30286422640892852 -1020.00000000000000000 0.00000000000000000 -0.00000000000000000 -0.00000000000000000 -1.00000000000000000 
1 3472.51750357106266165 -1843.00000000000000000 0.00000000000000000 -0.00000000000000000 -0.00000000000000000 -1.00000000000000000 
1 3344.30286422640892852 -1020.00000000000000000 0.00000000000000000 0.15393255748618415 -0.98808135684555987 0.00000000000000000 
1 3522.93269370510142835 -1020.00000000000000000 0.00000000000000000 -0.00000000000000000 -0.00000000000000000 -1.00000000000000000 
1 3522.93269370510142835 -1020.00000000000000000 0.00000000000000000 -1.00000000000000000 0.00000000000000000 0.00000000000000000 
1 3472.51750357106266165 -1843.00000000000000000 0.00000000000000000 1.00000000000000000 0.00000000000000000 0.00000000000000000 
1 3927.00000000000000000 -1843.00000000000000000 0.00000000000000000 -0.00000000000000000 -0.00000000000000000 -1.00000000000000000 
2 3552.51750357106266165 -25.00000000000000000 0.00000000000000000 0.00000000000000000 0.00000000000000000 1.00000000000000000 1.00000000000000000 0.00000000000000000 -0.00000000000000000 -0.00000000000000000 1.00000000000000000 0.00000000000000000 5.00000000000000000
2 3847.00000000000000000 -25.00000000000000000 0.00000000000000000 0.00000000000000000 0.00000000000000000 1.00000000000000000 1.00000000000000000 0.00000000000000000 -0.00000000000000000 -0.00000000000000000 1.00000000000000000 0.00000000000000000 5.00000000000000000
1 3927.00000000000000000 -1843.00000000000000000 0.00000000000000000 -0.44071636534512787 0.89764641441771487 0.00000000000000000 
1 3557.51750357106266165 -1843.00000000000000000 -25.00000000000000000 0.00000000000000000 1.00000000000000000 -0.00000000000000022 
1 3852.00000000000000000 -1843.00000000000000000 -25.00000000000000000 0.00000000000000000 1.00000000000000000 -0.00000000000000022 
Polygon3D 0
PolygonOnTriangulations 0
Surfaces 9
1 3344.30286422640892852 -1020.00000000000000000 0.00000000000000000 -0.98808135684555987 -0.15393255748618415 0.00000000000000000 0.15393255748618415 -0.98808135684555987 0.00000000000000000 0.00000000000000000 0.00000000000000000 1.00000000000000000 
1 3522.93269370510142835 -1020.00000000000000000 0.00000000000000000 0.00000000000000000 1.00000000000000000 -0.00000000000000000 -1.00000000000000000 0.00000000000000000 0.00000000000000000 0.00000000000000000 0.00000000000000000 1.00000000000000000 
1 3472.51750357106266165 -1843.00000000000000000 0.00000000000000000 0.00000000000000000 -1.00000000000000000 0.00000000000000000 1.00000000000000000 0.00000000000000000 0.00000000000000000 -0.00000000000000000 0.00000000000000000 1.00000000000000000 
1 3927.00000000000000000 -1843.00000000000000000 0.00000000000000000 0.89764641441771487 0.44071636534512787 -0.00000000000000000 -0.44071636534512787 0.89764641441771487 0.00000000000000000 0.00000000000000000 0.00000000000000000 1.00000000000000000 
2 3552.51750357106266165 -1843.00000000000000000 -25.00000000000000000 0.00000000000000000 -1.00000000000000000 0.00000000000000022 1.00000000000000000 0.00000000000000000 0.00000000000000000 -0.00000000000000000 0.00000000000000022 1.00000000000000000 5.00000000000000000
1 3552.51750357106220690 -1843.00000000000000000 -24.99999999999999645 -0.00000000000000000 -1.00000000000000000 -0.00000000000000000 0.00000000000000000 0.00000000000000000 -1.00000000000000000 1.00000000000000000 -0.00000000000000000 0.00000000000000000 
2 3847.00000000000000000 -1843.00000000000000000 -25.00000000000000000 0.00000000000000000 -1.00000000000000000 0.00000000000000022 1.00000000000000000 0.00000000000000000 0.00000000000000000 -0.00000000000000000 0.00000000000000022 1.00000000000000000 5.00000000000000000
1 3846.99999999999954525 -1843.00000000000000000 -24.99999999999999645 -0.00000000000000000 -1.00000000000000000 -0.00000000000000000 0.00000000000000000 0.00000000000000000 -1.00000000000000000 1.00000000000000000 -0.00000000000000000 0.00000000000000000 
1 3587.66694278201202906 -1479.13701421731457231 0.00000000000000000 0.00000000000000000 0.00000000000000000 1.00000000000000000 1.00000000000000000 0.00000000000000000 -0.00000000000000000 -0.00000000000000000 1.00000000000000000 0.00000000000000000 
Triangulations 0

TShapes 40
Ve
0.000000100000000
3344.302864226408929 -1020.000000000000000 0.000000000000000
0 0

0101101
*
Ed
 0.000000100000000 1 1 0
1  1 0 0.000000000000000 50.000000000000000
2  1 1 0 0.000000000000000 50.000000000000000
2  2 2 0 0.000000000000000 50.000000000000000
0

0101000
+40 8 -40 10 *
Ve
0.000000100000000
3472.517503571062662 -1843.000000000000000 0.000000000000000
0 0

0101101
*
Ed
 0.000000100000000 1 1 0
1  2 0 0.000000000000000 50.000000000000000
2  3 3 0 0.000000000000000 50.000000000000000
2  4 1 0 0.000000000000000 50.000000000000000
0

0101000
+38 8 -38 10 *
Ed
 0.000000100000000 1 1 0
1  3 0 0.000000000000000 832.927364025387078
2  5 1 11 0.000000000000000 832.927364025387078
2  6 1 12 0.000000000000000 832.927364025387078
0

0101000
+40 0 -38 0 *
Wi

0101100
+39 0 -37 0 -36 8 +36 10 *
Fa
0  0.000000100000000 1 0

0111000
+35 0 *
Ve
0.000000100000000
3522.932693705101428 -1020.000000000000000 0.000000000000000
0 0

0101101
*
Ed
 0.000000100000000 1 1 0
1  4 0 0.000000000000000 50.000000000000000
2  7 4 0 0.000000000000000 50.000000000000000
2  8 2 0 0.000000000000000 50.000000000000000
0

0101000
+33 8 -33 10 *
Ed
 0.000000100000000 1 1 0
1  5 0 0.000000000000000 178.629829478692500
2  9 2 11 0.000000000000000 178.629829478692500
2  10 2 12 0.000000000000000 178.629829478692500
0

0101000
+33 0 -40 0 *
Wi

0101100
+32 0 -39 0 -31 8 +31 10 *
Fa
0  0.000000100000000 2 0

0111000
+30 0 *
Ve
0.000000100000000
3927.000000000000000 -1843.000000000000000 0.000000000000000
0 0

0101101
*
Ed
 0.000000100000000 1 1 0
1  6 0 0.000000000000000 454.482496428937338
2  11 3 11 0.000000000000000 454.482496428937338
2  12 3 12 0.000000000000000 454.482496428937338
0

0101000
+38 0 -28 0 *
Ed
 0.000000100000000 1 1 0
1  7 0 0.000000000000000 50.000000000000000
2  13 3 0 0.000000000000000 50.000000000000000
2  14 4 0 0.000000000000000 50.000000000000000
0

0101000
+28 8 -28 10 *
Wi

0101100
+37 4 -27 13 +27 14 -26 4 *
Ve
0.000000100000000
3557.517503571062662 -25.000000000000000 0.000000000000000
0 0

0101101
*
Ed
 0.000000100000000 1 1 0
1  8 0 0.000000000000000 6.283185307179586
2  15 5 18 0.000000000000000 6.283185307179586
2  16 5 20 0.000000000000000 6.283185307179586
2  17 6 21 0.000000000000000 6.283185307179586
2  18 3 22 0.000000000000000 6.283185307179586
0

0101000
+24 0 -24 0 *
Wi

0101100
-23 17 *
Ve
0.000000100000000
3852.000000000000000 -25.000000000000000 0.000000000000000
0 0

0101101
*
Ed
 0.000000100000000 1 1 0
1  9 0 0.000000000000000 6.283185307179586
2  19 7 18 0.000000000000000 6.283185307179586
2  20 7 20 0.000000000000000 6.283185307179586
2  21 8 21 0.000000000000000 6.283185307179586
2  22 3 22 0.000000000000000 6.283185307179586
0

0101000
+21 0 -21 0 *
Wi

0101100
-20 17 *
Fa
0  0.000000100000000 3 4

0111000
+25 0 +22 0 +19 0 *
Ed
 0.000000100000000 1 1 0
1  10 0 0.000000000000000 916.842073650863540
2  23 4 11 0.000000000000000 916.842073650863540
2  24 4 12 0.000000000000000 916.842073650863540
0

0101000
+28 0 -33 0 *
Wi

0101100
+36 0 +27 0 +17 0 +31 0 *
Fa
0  0.000000100000000 9 0

0111000
+16 24 *
Wi

0101100
+26 0 -32 0 -17 8 +17 10 *
Fa
0  0.000000100000000 4 0

0111000
+14 0 *
Ed
 0.000000100000000 1 1 0
1  11 0 0.000000000000000 5.000000000000000
3  25 26CN 5 0 0.000000000000000 5.000000000000000
0

0101000
+24 17 -24 26 *
Wi

0101100
+12 0 -12 0 -23 17 +23 26 *
Fa
0  0.000000100000000 5 0

0111000
+11 0 *
Ed
 0.000000100000000 1 1 0
1  12 0 0.000000000000000 5.000000000000000
3  27 28CN 7 0 0.000000000000000 5.000000000000000
0

0101000
+21 17 -21 26 *
Wi

0101100
+9 0 -9 0 -20 17 +20 26 *
Fa
0  0.000000100000000 7 0

0111000
+8 0 *
Wi

0101100
+23 0 *
Fa
0  0.000000100000000 6 0

0111000
+6 28 *
Wi

0101100
+20 0 *
Fa
0  0.000000100000000 8 0

0111000
+4 28 *
Sh

0101100
+34 4 +29 4 +18 0 +15 23 -15 25 +13 4 -10 0 -7 0 +5 27 +3 27 
*
So

0100000
+2 0 *

+1 1 