
CASCADE Topology V1, (c) Matra-Datavision
Locations 13
1
1.000000000000000 0.000000000000000 0.000000000000000 0.000000000000000 
0.000000000000000 0.000000000000000 -1.000000000000000 0.000000000000000 
0.000000000000000 1.000000000000000 0.000000000000000 0.000000000000000 
1
1.000000000000000 0.000000000000000 0.000000000000000 0.000000000000000 
0.000000000000000 1.000000000000000 0.000000000000000 0.000000000000000 
0.000000000000000 0.000000000000000 1.000000000000000 0.000000000000000 
1
1.000000000000000 0.000000000000000 0.000000000000000 0.000000000000000 
0.000000000000000 -0.000000000000000 -1.000000000000000 0.000000000000000 
0.000000000000000 1.000000000000000 -0.000000000000000 0.000000000000000 
1
1.000000000000000 0.000000000000000 0.000000000000000 0.000000000000000 
0.000000000000000 -0.000000000000000 -1.000000000000000 0.000000000000000 
0.000000000000000 1.000000000000000 -0.000000000000000 0.000000000000000 
2  2 1 3 1 4 -1 0
1
1.000000000000000 0.000000000000000 0.000000000000000 -0.000000000000000 
0.000000000000000 1.000000000000000 0.000000000000000 -0.000000000000000 
0.000000000000000 0.000000000000000 1.000000000000000 -15.000000000000000 
2  2 1 3 1 4 -1 6 1 0
2  3 -1 2 -1 0
2  4 1 3 -1 2 -1 0
2  6 -1 4 1 3 -1 2 -1 0
2  4 -1 0
2  2 1 3 1 0
2  4 -1 6 1 0
Curve2ds 40
1 250.00000000000000000 0.00000000000000000 0.00000000000000000 -1.00000000000000000 
1 -377.49464770746999420 893.33979019802177390 0.00000000000000000 -1.00000000000000000 
1 -377.49464770746999420 639.07188941100980628 0.56394902148174875 -0.82580960346182586 
1 0.00000000000000000 0.00000000000000000 0.00000000000000000 -1.00000000000000000 
1 -15.99464770746999420 109.71522723066505023 0.00000000000000000 -1.00000000000000000 
1 250.00000000000000000 0.00000000000000000 0.00000000000000000 -1.00000000000000000 
1 -15.99464770746999420 -937.66020980197822610 1.00000000000000000 0.00000000000000000 
1 0.00000000000000000 0.00000000000000000 1.00000000000000000 0.00000000000000000 
1 0.00000000000000000 -15.00000000000000000 1.00000000000000000 0.00000000000000000 
1 234.00535229253000580 -937.66020980197822610 0.00000000000000000 1.00000000000000000 
1 0.00000000000000000 0.00000000000000000 0.00000000000000000 -1.00000000000000000 
1 234.00535229253000580 186.93426206476488005 -0.56394902148174875 0.82580960346182586 
1 177.04886595291213780 0.00000000000000000 0.00000000000000000 -1.00000000000000000 
1 0.00000000000000000 0.00000000000000000 0.00000000000000000 -1.00000000000000000 
1 0.00000000000000000 0.00000000000000000 1.00000000000000000 0.00000000000000000 
1 0.00000000000000000 -15.00000000000000000 1.00000000000000000 0.00000000000000000 
1 -127.49464770746999420 716.29092424510963610 0.00000000000000000 1.00000000000000000 
1 0.00000000000000000 0.00000000000000000 1.00000000000000000 0.00000000000000000 
1 0.00000000000000000 -15.00000000000000000 1.00000000000000000 0.00000000000000000 
1 -127.49464770746999420 893.33979019802177390 -1.00000000000000000 0.00000000000000000 
1 0.00000000000000000 0.00000000000000000 0.00000000000000000 -1.00000000000000000 
1 6.28318530717958623 0.00000000000000000 0.00000000000000000 -1.00000000000000000 
1 0.00000000000000000 0.00000000000000000 1.00000000000000000 0.00000000000000000 
1 0.00000000000000000 -15.00000000000000000 1.00000000000000000 0.00000000000000000 
2 -166.74464770746999420 429.33979019802177390 0.00000000000000000 1.00000000000000000 -1.00000000000000000 0.00000000000000000 5.00000000000000000
1 0.00000000000000000 0.00000000000000000 0.00000000000000000 -1.00000000000000000 
1 6.28318530717958623 0.00000000000000000 0.00000000000000000 -1.00000000000000000 
1 0.00000000000000000 0.00000000000000000 1.00000000000000000 0.00000000000000000 
1 0.00000000000000000 -15.00000000000000000 1.00000000000000000 0.00000000000000000 
2 -166.74464770746999420 581.33979019802177390 0.00000000000000000 1.00000000000000000 -1.00000000000000000 0.00000000000000000 5.00000000000000000
1 0.00000000000000000 0.00000000000000000 0.00000000000000000 -1.00000000000000000 
1 6.28318530717958623 0.00000000000000000 0.00000000000000000 -1.00000000000000000 
1 0.00000000000000000 0.00000000000000000 1.00000000000000000 0.00000000000000000 
1 0.00000000000000000 -15.00000000000000000 1.00000000000000000 0.00000000000000000 
2 -352.49464770746999420 701.33979019802177390 0.00000000000000000 1.00000000000000000 -1.00000000000000000 0.00000000000000000 5.00000000000000000
1 0.00000000000000000 0.00000000000000000 0.00000000000000000 -1.00000000000000000 
1 6.28318530717958623 0.00000000000000000 0.00000000000000000 -1.00000000000000000 
1 0.00000000000000000 0.00000000000000000 1.00000000000000000 0.00000000000000000 
1 0.00000000000000000 -15.00000000000000000 1.00000000000000000 0.00000000000000000 
2 -352.49464770746999420 813.33979019802177390 0.00000000000000000 1.00000000000000000 -1.00000000000000000 0.00000000000000000 5.00000000000000000
Curves 24
1 1858.00000000000000000 3134.00000000000000000 0.00000000000000000 -0.00000000000000000 -0.00000000000000000 -1.00000000000000000 
1 1603.73209921298803238 3134.00000000000000000 0.00000000000000000 -0.00000000000000000 -0.00000000000000000 -1.00000000000000000 
1 1858.00000000000000000 3134.00000000000000000 0.00000000000000000 -1.00000000000000000 0.00000000000000000 0.00000000000000000 
1 1074.37543703264327632 2772.50000000000000000 0.00000000000000000 -0.00000000000000000 -0.00000000000000000 -1.00000000000000000 
1 1603.73209921298803238 3134.00000000000000000 0.00000000000000000 -0.82580960346182586 -0.56394902148174875 0.00000000000000000 
1 27.00000000000000000 2772.50000000000000000 0.00000000000000000 -0.00000000000000000 -0.00000000000000000 -1.00000000000000000 
1 1074.37543703264327632 2772.50000000000000000 0.00000000000000000 -1.00000000000000000 0.00000000000000000 0.00000000000000000 
1 27.00000000000000000 2522.50000000000000000 0.00000000000000000 -0.00000000000000000 -0.00000000000000000 -1.00000000000000000 
1 27.00000000000000000 2772.50000000000000000 0.00000000000000000 0.00000000000000000 -1.00000000000000000 0.00000000000000000 
1 1151.59447186674310615 2522.50000000000000000 0.00000000000000000 -0.00000000000000000 -0.00000000000000000 -1.00000000000000000 
1 27.00000000000000000 2522.50000000000000000 0.00000000000000000 1.00000000000000000 0.00000000000000000 0.00000000000000000 
1 1680.95113404708786220 2884.00000000000000000 0.00000000000000000 -0.00000000000000000 -0.00000000000000000 -1.00000000000000000 
1 1151.59447186674310615 2522.50000000000000000 0.00000000000000000 0.82580960346182586 0.56394902148174875 0.00000000000000000 
1 1858.00000000000000000 2884.00000000000000000 0.00000000000000000 -0.00000000000000000 -0.00000000000000000 -1.00000000000000000 
1 1680.95113404708786220 2884.00000000000000000 0.00000000000000000 1.00000000000000000 0.00000000000000000 0.00000000000000000 
1 1858.00000000000000000 2884.00000000000000000 0.00000000000000000 0.00000000000000000 1.00000000000000000 0.00000000000000000 
1 1399.00000000000000000 2923.25000000000000000 0.00000000000000000 -0.00000000000000000 -0.00000000000000000 -1.00000000000000000 
2 1394.00000000000000000 2923.25000000000000000 0.00000000000000000 0.00000000000000000 0.00000000000000000 1.00000000000000000 1.00000000000000000 0.00000000000000000 -0.00000000000000000 -0.00000000000000000 1.00000000000000000 0.00000000000000000 5.00000000000000000
1 1551.00000000000000000 2923.25000000000000000 0.00000000000000000 -0.00000000000000000 -0.00000000000000000 -1.00000000000000000 
2 1546.00000000000000000 2923.25000000000000000 0.00000000000000000 0.00000000000000000 0.00000000000000000 1.00000000000000000 1.00000000000000000 0.00000000000000000 -0.00000000000000000 -0.00000000000000000 1.00000000000000000 0.00000000000000000 5.00000000000000000
1 1671.00000000000000000 3109.00000000000000000 0.00000000000000000 -0.00000000000000000 -0.00000000000000000 -1.00000000000000000 
2 1666.00000000000000000 3109.00000000000000000 0.00000000000000000 0.00000000000000000 0.00000000000000000 1.00000000000000000 1.00000000000000000 0.00000000000000000 -0.00000000000000000 -0.00000000000000000 1.00000000000000000 0.00000000000000000 5.00000000000000000
1 1783.00000000000000000 3109.00000000000000000 0.00000000000000000 -0.00000000000000000 -0.00000000000000000 -1.00000000000000000 
2 1778.00000000000000000 3109.00000000000000000 0.00000000000000000 0.00000000000000000 0.00000000000000000 1.00000000000000000 1.00000000000000000 0.00000000000000000 -0.00000000000000000 -0.00000000000000000 1.00000000000000000 0.00000000000000000 5.00000000000000000
Polygon3D 0
PolygonOnTriangulations 0
Surfaces 13
1 1858.00000000000000000 3134.00000000000000000 0.00000000000000000 0.00000000000000000 1.00000000000000000 -0.00000000000000000 -1.00000000000000000 0.00000000000000000 0.00000000000000000 0.00000000000000000 0.00000000000000000 1.00000000000000000 
1 1858.00000000000000000 2884.00000000000000000 0.00000000000000000 1.00000000000000000 0.00000000000000000 0.00000000000000000 -0.00000000000000000 1.00000000000000000 0.00000000000000000 0.00000000000000000 -0.00000000000000000 1.00000000000000000 
1 964.66020980197822610 -0.00000000000061207 2756.50535229253000580 0.00000000000000000 -1.00000000000000000 -0.00000000000000022 0.00000000000000000 0.00000000000000022 -1.00000000000000000 1.00000000000000000 0.00000000000000000 0.00000000000000000 
1 1603.73209921298803238 3134.00000000000000000 0.00000000000000000 -0.56394902148174875 0.82580960346182586 0.00000000000000000 -0.82580960346182586 -0.56394902148174875 0.00000000000000000 0.00000000000000000 0.00000000000000000 1.00000000000000000 
1 1074.37543703264327632 2772.50000000000000000 0.00000000000000000 0.00000000000000000 1.00000000000000000 -0.00000000000000000 -1.00000000000000000 0.00000000000000000 0.00000000000000000 0.00000000000000000 0.00000000000000000 1.00000000000000000 
1 27.00000000000000000 2772.50000000000000000 0.00000000000000000 -1.00000000000000000 0.00000000000000000 0.00000000000000000 0.00000000000000000 -1.00000000000000000 0.00000000000000000 0.00000000000000000 0.00000000000000000 1.00000000000000000 
1 27.00000000000000000 2522.50000000000000000 0.00000000000000000 0.00000000000000000 -1.00000000000000000 0.00000000000000000 1.00000000000000000 0.00000000000000000 0.00000000000000000 -0.00000000000000000 0.00000000000000000 1.00000000000000000 
1 1151.59447186674310615 2522.50000000000000000 0.00000000000000000 0.56394902148174875 -0.82580960346182586 0.00000000000000000 0.82580960346182586 0.56394902148174875 0.00000000000000000 -0.00000000000000000 0.00000000000000000 1.00000000000000000 
1 1680.95113404708786220 2884.00000000000000000 0.00000000000000000 0.00000000000000000 -1.00000000000000000 0.00000000000000000 1.00000000000000000 0.00000000000000000 0.00000000000000000 -0.00000000000000000 0.00000000000000000 1.00000000000000000 
2 1394.00000000000000000 2923.25000000000000000 0.00000000000000000 0.00000000000000000 0.00000000000000000 1.00000000000000000 1.00000000000000000 0.00000000000000000 -0.00000000000000000 -0.00000000000000000 1.00000000000000000 0.00000000000000000 5.00000000000000000
2 1546.00000000000000000 2923.25000000000000000 0.00000000000000000 0.00000000000000000 0.00000000000000000 1.00000000000000000 1.00000000000000000 0.00000000000000000 -0.00000000000000000 -0.00000000000000000 1.00000000000000000 0.00000000000000000 5.00000000000000000
2 1666.00000000000000000 3109.00000000000000000 0.00000000000000000 0.00000000000000000 0.00000000000000000 1.00000000000000000 1.00000000000000000 0.00000000000000000 -0.00000000000000000 -0.00000000000000000 1.00000000000000000 0.00000000000000000 5.00000000000000000
2 1778.00000000000000000 3109.00000000000000000 0.00000000000000000 0.00000000000000000 0.00000000000000000 1.00000000000000000 1.00000000000000000 0.00000000000000000 -0.00000000000000000 -0.00000000000000000 1.00000000000000000 0.00000000000000000 5.00000000000000000
Triangulations 0

TShapes 68
Ve
0.000000100000000
1858.000000000000000 3134.000000000000000 0.000000000000000
0 0

0101101
*
Ed
 0.000000100000000 1 1 0
1  1 0 0.000000000000000 15.000000000000000
2  1 2 0 0.000000000000000 15.000000000000000
0

0101000
+68 5 -68 7 *
Ve
0.000000100000000
1603.732099212988032 3134.000000000000000 0.000000000000000
0 0

0101101
*
Ed
 0.000000100000000 1 1 0
1  2 0 0.000000000000000 15.000000000000000
0

0101000
+66 5 -66 7 *
Ed
 0.000000100000000 1 1 0
1  3 0 0.000000000000000 254.267900787011968
2  2 3 8 0.000000000000000 254.267900787011968
0

0101000
+68 0 -66 0 *
Wi

0101100
+67 0 -65 0 -64 5 +64 7 *
Fa
0  0.000000100000000 1 0

0111000
+63 0 *
Ve
0.000000100000000
1074.375437032643276 2772.500000000000000 0.000000000000000
0 0

0101101
*
Ed
 0.000000100000000 1 1 0
1  4 0 0.000000000000000 15.000000000000000
0

0101000
+61 5 -61 7 *
Ed
 0.000000100000000 1 1 0
1  5 0 0.000000000000000 641.015386550678386
2  3 3 8 0.000000000000000 641.015386550678386
0

0101000
+66 0 -61 0 *
Wi

0101100
+65 0 -60 0 -59 5 +59 7 *
Fa
0  0.000000100000000 4 0

0111000
+58 0 *
Ve
0.000000100000000
27.000000000000000 2772.500000000000000 0.000000000000000
0 0

0101101
*
Ed
 0.000000100000000 1 1 0
1  6 0 0.000000000000000 15.000000000000000
2  4 6 0 0.000000000000000 15.000000000000000
0

0101000
+56 5 -56 7 *
Ed
 0.000000100000000 1 1 0
1  7 0 0.000000000000000 1047.375437032643276
2  5 3 8 0.000000000000000 1047.375437032643276
0

0101000
+61 0 -56 0 *
Wi

0101100
+60 0 -55 0 -54 5 +54 7 *
Fa
0  0.000000100000000 5 0

0111000
+53 0 *
Ve
0.000000100000000
27.000000000000000 2522.500000000000000 0.000000000000000
0 0

0101101
*
Ed
 0.000000100000000 1 1 0
1  8 0 0.000000000000000 15.000000000000000
2  6 6 0 0.000000000000000 15.000000000000000
0

0101000
+51 5 -51 7 *
Ed
 0.000000100000000 1 1 0
1  9 0 0.000000000000000 250.000000000000000
2  7 3 8 0.000000000000000 250.000000000000000
2  8 6 9 0.000000000000000 250.000000000000000
2  9 6 10 0.000000000000000 250.000000000000000
0

0101000
+56 0 -51 0 *
Wi

0101100
+55 0 -50 0 -49 5 +49 7 *
Fa
0  0.000000100000000 6 0

0111000
+48 0 *
Ve
0.000000100000000
1151.594471866743106 2522.500000000000000 0.000000000000000
0 0

0101101
*
Ed
 0.000000100000000 1 1 0
1  10 0 0.000000000000000 15.000000000000000
0

0101000
+46 5 -46 7 *
Ed
 0.000000100000000 1 1 0
1  11 0 0.000000000000000 1124.594471866743106
2  10 3 8 0.000000000000000 1124.594471866743106
0

0101000
+51 0 -46 0 *
Wi

0101100
+50 0 -45 0 -44 5 +44 7 *
Fa
0  0.000000100000000 7 0

0111000
+43 0 *
Ve
0.000000100000000
1680.951134047087862 2884.000000000000000 0.000000000000000
0 0

0101101
*
Ed
 0.000000100000000 1 1 0
1  12 0 0.000000000000000 15.000000000000000
2  11 9 0 0.000000000000000 15.000000000000000
0

0101000
+41 5 -41 7 *
Ed
 0.000000100000000 1 1 0
1  13 0 0.000000000000000 641.015386550678386
2  12 3 8 0.000000000000000 641.015386550678386
0

0101000
+46 0 -41 0 *
Wi

0101100
+45 0 -40 0 -39 5 +39 7 *
Fa
0  0.000000100000000 8 0

0111000
+38 0 *
Ve
0.000000100000000
1858.000000000000000 2884.000000000000000 0.000000000000000
0 0

0101101
*
Ed
 0.000000100000000 1 1 0
1  14 0 0.000000000000000 15.000000000000000
2  13 9 0 0.000000000000000 15.000000000000000
2  14 2 0 0.000000000000000 15.000000000000000
0

0101000
+36 5 -36 7 *
Ed
 0.000000100000000 1 1 0
1  15 0 0.000000000000000 177.048865952912138
2  15 9 9 0.000000000000000 177.048865952912138
2  16 9 10 0.000000000000000 177.048865952912138
2  17 3 8 0.000000000000000 177.048865952912138
0

0101000
+41 0 -36 0 *
Wi

0101100
+40 0 -35 0 -34 5 +34 7 *
Fa
0  0.000000100000000 9 0

0111000
+33 0 *
Ed
 0.000000100000000 1 1 0
1  16 0 0.000000000000000 250.000000000000000
2  18 2 9 0.000000000000000 250.000000000000000
2  19 2 10 0.000000000000000 250.000000000000000
2  20 3 8 0.000000000000000 250.000000000000000
0

0101000
+36 0 -68 0 *
Wi

0101100
+35 0 -67 0 -31 5 +31 7 *
Fa
0  0.000000100000000 2 0

0111000
+30 0 *
Ve
0.000000100000000
1399.000000000000000 2923.250000000000000 0.000000000000000
0 0

0101101
*
Ed
 0.000000100000000 1 1 0
1  17 0 0.000000000000000 15.000000000000000
3  21 22CN 10 0 0.000000000000000 15.000000000000000
0

0101000
+28 5 -28 7 *
Ed
 0.000000100000000 1 1 0
1  18 0 0.000000000000000 6.283185307179586
2  23 10 9 0.000000000000000 6.283185307179586
2  24 10 10 0.000000000000000 6.283185307179586
2  25 3 8 0.000000000000000 6.283185307179586
0

0101000
+28 0 -28 0 *
Wi

0101100
+27 0 -27 0 -26 5 +26 7 *
Fa
0  0.000000100000000 10 0

0111000
+25 0 *
Ve
0.000000100000000
1551.000000000000000 2923.250000000000000 0.000000000000000
0 0

0101101
*
Ed
 0.000000100000000 1 1 0
1  19 0 0.000000000000000 15.000000000000000
3  26 27CN 11 0 0.000000000000000 15.000000000000000
0

0101000
+23 5 -23 7 *
Ed
 0.000000100000000 1 1 0
1  20 0 0.000000000000000 6.283185307179586
2  28 11 9 0.000000000000000 6.283185307179586
2  29 11 10 0.000000000000000 6.283185307179586
2  30 3 8 0.000000000000000 6.283185307179586
0

0101000
+23 0 -23 0 *
Wi

0101100
+22 0 -22 0 -21 5 +21 7 *
Fa
0  0.000000100000000 11 0

0111000
+20 0 *
Ve
0.000000100000000
1671.000000000000000 3109.000000000000000 0.000000000000000
0 0

0101101
*
Ed
 0.000000100000000 1 1 0
1  21 0 0.000000000000000 15.000000000000000
3  31 32CN 12 0 0.000000000000000 15.000000000000000
0

0101000
+18 5 -18 7 *
Ed
 0.000000100000000 1 1 0
1  22 0 0.000000000000000 6.283185307179586
2  33 12 9 0.000000000000000 6.283185307179586
2  34 12 10 0.000000000000000 6.283185307179586
2  35 3 8 0.000000000000000 6.283185307179586
0

0101000
+18 0 -18 0 *
Wi

0101100
+17 0 -17 0 -16 5 +16 7 *
Fa
0  0.000000100000000 12 0

0111000
+15 0 *
Ve
0.000000100000000
1783.000000000000000 3109.000000000000000 0.000000000000000
0 0

0101101
*
Ed
 0.000000100000000 1 1 0
1  23 0 0.000000000000000 15.000000000000000
3  36 37CN 13 0 0.000000000000000 15.000000000000000
0

0101000
+13 5 -13 7 *
Ed
 0.000000100000000 1 1 0
1  24 0 0.000000000000000 6.283185307179586
2  38 13 9 0.000000000000000 6.283185307179586
2  39 13 10 0.000000000000000 6.283185307179586
2  40 3 8 0.000000000000000 6.283185307179586
0

0101000
+13 0 -13 0 *
Wi

0101100
+12 0 -12 0 -11 5 +11 7 *
Fa
0  0.000000100000000 13 0

0111000
+10 0 *
Wi

0101100
+64 12 +59 12 +54 12 +49 12 +44 12 +39 12 +34 12 +31 12 *
Wi

0101100
-26 12 *
Wi

0101100
-21 12 *
Wi

0101100
-16 12 *
Wi

0101100
-11 12 *
Fa
0  0.000000100000000 3 0

0111000
+8 0 +7 0 +6 0 +5 0 +4 0 *
Sh

0101100
+62 0 +57 0 +52 0 +47 0 +42 0 +37 0 +32 0 +29 0 -24 0 -19 0 
-14 0 -9 0 +3 11 -3 13 *
So

1100000
+2 0 *

+1 1 