
CASCADE Topology V1, (c) Matra-Datavision
Locations 23
1
1.000000000000000 0.000000000000000 0.000000000000000 0.000000000000000 
0.000000000000000 1.000000000000000 0.000000000000000 0.000000000000000 
0.000000000000000 0.000000000000000 1.000000000000000 0.000000000000000 
1
0.000000000000000 0.000000000000000 -1.000000000000000 3707.999999999998636 
-1.000000000000000 0.000000000000000 0.000000000000000 0.000000000000000 
-0.000000000000000 1.000000000000000 -0.000000000000000 0.000000000000000 
1
1.000000000000000 0.000000000000000 0.000000000000000 0.000000000000000 
0.000000000000000 -0.000000000000000 -1.000000000000000 0.000000000000000 
0.000000000000000 1.000000000000000 -0.000000000000000 0.000000000000000 
2  1 1 2 1 3 -1 0
1
1.000000000000000 0.000000000000000 0.000000000000000 21913.732967425959941 
0.000000000000000 1.000000000000000 0.000000000000000 0.000000000006082 
0.000000000000000 0.000000000000000 1.000000000000000 -0.000000000002433 
2  1 1 2 1 3 -1 5 1 0
2  2 -1 1 -1 0
2  3 1 2 -1 1 -1 0
2  5 -1 3 1 2 -1 1 -1 0
1
1.000000000000000 0.000000000000000 0.000000000000000 0.000000000000000 
0.000000000000000 -0.000000000000000 -1.000000000000000 0.000000000000000 
0.000000000000000 1.000000000000000 -0.000000000000000 0.000000000000000 
1
1.000000000000000 0.000000000000000 0.000000000000000 0.000000000000000 
0.000000000000000 -0.000000000000000 -1.000000000000000 0.000000000000000 
0.000000000000000 1.000000000000000 -0.000000000000000 0.000000000000000 
1
1.000000000000000 0.000000000000000 0.000000000000000 0.000000000000000 
0.000000000000000 -0.000000000000000 -1.000000000000000 0.000000000000000 
0.000000000000000 1.000000000000000 -0.000000000000000 0.000000000000000 
2  10 1 11 -1 12 1 2 -1 1 -1 0
1
1.000000000000000 0.000000000000000 0.000000000000000 0.000000000000000 
0.000000000000000 -0.000000000000000 -1.000000000000000 0.000000000000000 
0.000000000000000 1.000000000000000 -0.000000000000000 0.000000000000000 
1
1.000000000000000 0.000000000000000 0.000000000000000 0.000000000000000 
0.000000000000000 -0.000000000000000 -1.000000000000000 0.000000000000000 
0.000000000000000 1.000000000000000 -0.000000000000000 0.000000000000000 
1
1.000000000000000 0.000000000000000 0.000000000000000 0.000000000000000 
0.000000000000000 -0.000000000000000 -1.000000000000000 0.000000000000000 
0.000000000000000 1.000000000000000 -0.000000000000000 0.000000000000000 
1
1.000000000000000 0.000000000000000 0.000000000000000 0.000000000000000 
0.000000000000000 -0.000000000000000 -1.000000000000000 0.000000000000000 
0.000000000000000 1.000000000000000 -0.000000000000000 0.000000000000000 
1
1.000000000000000 0.000000000000000 0.000000000000000 0.000000000000000 
0.000000000000000 -0.000000000000000 -1.000000000000000 0.000000000000000 
0.000000000000000 1.000000000000000 -0.000000000000000 0.000000000000000 
1
1.000000000000000 0.000000000000000 0.000000000000000 0.000000000000000 
0.000000000000000 -0.000000000000000 -1.000000000000000 0.000000000000000 
0.000000000000000 1.000000000000000 -0.000000000000000 0.000000000000000 
2  14 1 15 -1 16 1 17 -1 18 1 19 -1 3 1 2 -1 1 -1 0
2  3 -1 0
2  1 1 2 1 0
2  3 -1 5 1 0
Curve2ds 26
1 2140.00000000000045475 -0.00000000000013922 -0.00000000000000000 -1.00000000000000000 
1 0.00000000000000000 -0.00000000000000000 0.00000000000000011 -1.00000000000000000 
1 0.00000000000000000 0.00000000000000000 0.00000000000000000 -1.00000000000000000 
1 994.99000000000353339 0.00000000000000000 0.00000000000000011 -1.00000000000000000 
1 -1070.00000000000000000 497.49500000000199407 -0.00000000000000028 -1.00000000000000000 
1 0.00000000000000000 -0.00000000000000000 1.00000000000000000 0.00000000000000000 
1 0.00000000000238742 -21913.73296742596357944 1.00000000000000000 0.00000000000000000 
1 376.99999999999363354 -1305.00000000000181899 -0.00000000000000006 1.00000000000000000 
1 2140.00000000000045475 0.00000000000013922 0.00000000000000000 -1.00000000000000000 
1 0.00000000000000000 -0.00000000000000000 -0.00000000000000011 -1.00000000000000000 
1 0.00000000000000000 0.00000000000000000 1.00000000000000000 -0.00000000000000000 
1 -0.00000000000028418 -21913.73296742596357944 1.00000000000000000 -0.00000000000000000 
1 -1070.00000000000000000 -497.49500000000148248 1.00000000000000000 -0.00000000000000028 
1 376.99999999999363354 -310.00999999999845613 1.00000000000000000 0.00000000000000006 
1 994.99000000000341970 -0.00000000000000000 -0.00000000000000011 -1.00000000000000000 
1 0.00000000000000000 0.00000000000000000 -0.00000000000000000 -1.00000000000000000 
1 0.00000000000000000 -0.00000000000000000 1.00000000000000000 0.00000000000000000 
1 -0.00000000000243006 -21913.73296742596357944 1.00000000000000000 0.00000000000000000 
1 1070.00000000000045475 -497.49500000000205091 0.00000000000000028 1.00000000000000000 
1 2516.99999999999408828 -310.00999999999834245 0.00000000000000006 -1.00000000000000000 
1 0.00000000000090949 -310.00999999999834245 0.00000000000000000 -1.00000000000000000 
1 1026.99000000000000909 -0.00000000000045475 -1.00000000000000000 0.00000000000000006 
1 0.00000000000000000 0.00000000000000000 1.00000000000000000 0.00000000000000000 
1 -0.00000000000017057 -21913.73296742596357944 1.00000000000000000 0.00000000000000000 
1 1070.00000000000090949 497.49500000000131195 -1.00000000000000000 0.00000000000000028 
1 2516.99999999999408828 -1305.00000000000181899 -1.00000000000000000 -0.00000000000000006 
Curves 8
1 3707.99999999999727152 5154.00000000000090949 905.00000000000193268 1.00000000000000000 0.00000000000000028 -0.00000000000000011 
1 3707.99999999999727152 5154.00000000000090949 -89.99000000000155808 1.00000000000000000 0.00000000000000028 -0.00000000000000011 
1 905.00000000000136424 5154.00000000000000000 0.00000000000000000 -1.00000000000000000 0.00000000000000000 0.00000000000000000 
1 3707.99999999999772626 3014.00000000000045475 -89.99000000000167176 1.00000000000000000 0.00000000000000028 -0.00000000000000011 
1 -89.99000000000182808 5154.00000000000000000 0.00000000000000000 0.00000000000000000 -1.00000000000000000 0.00000000000000000 
1 3707.99999999999772626 3014.00000000000045475 905.00000000000170530 1.00000000000000000 0.00000000000000028 -0.00000000000000011 
1 -89.99000000000182808 3014.00000000000000000 0.00000000000000000 1.00000000000000000 0.00000000000000000 0.00000000000000000 
1 905.00000000000136424 3014.00000000000000000 0.00000000000000000 0.00000000000000000 1.00000000000000000 0.00000000000000000 
Polygon3D 0
PolygonOnTriangulations 0
Surfaces 8
1 3707.99999999999727152 5154.00000000000090949 905.00000000000193268 -0.00000000000000028 1.00000000000000000 0.00000000000000006 0.00000000000000000 0.00000000000000006 -1.00000000000000000 -1.00000000000000000 -0.00000000000000028 -0.00000000000000000 
1 3707.99999999999772626 3014.00000000000045475 905.00000000000170530 0.00000000000000011 -0.00000000000000006 1.00000000000000000 -0.00000000000000028 1.00000000000000000 0.00000000000000006 -1.00000000000000000 -0.00000000000000028 0.00000000000000011 
1 3707.99999999999727152 5154.00000000000090949 -89.99000000000155808 -0.00000000000000011 0.00000000000000006 -1.00000000000000000 0.00000000000000028 -1.00000000000000000 -0.00000000000000006 -1.00000000000000000 -0.00000000000000028 0.00000000000000011 
1 3707.99999999999818101 -407.50500000000107548 4084.00000000000090949 -1.00000000000000000 -0.00000000000000000 -0.00000000000000021 0.00000000000000021 0.00000000000000000 -1.00000000000000000 0.00000000000000000 -1.00000000000000000 0.00000000000000000 
1 3707.99999999999863576 5530.99999999999454303 -400.00000000000000000 1.00000000000000000 0.00000000000000000 -0.00000000000000000 0.00000000000000000 -1.00000000000000000 0.00000000000000000 0.00000000000000000 -0.00000000000000000 -1.00000000000000000 
1 3707.99999999999772626 3014.00000000000045475 -89.99000000000167176 0.00000000000000028 -1.00000000000000000 -0.00000000000000006 0.00000000000000000 -0.00000000000000006 1.00000000000000000 -1.00000000000000000 -0.00000000000000028 -0.00000000000000000 
1 3707.99999999999863576 3014.00000000000000000 -400.00000000000000000 0.00000000000000000 -1.00000000000000000 0.00000000000000000 -1.00000000000000000 0.00000000000000000 0.00000000000000000 -0.00000000000000000 -0.00000000000000000 -1.00000000000000000 
1 3707.99999999999863576 3014.00000000000000000 936.99999999999840838 -1.00000000000000000 0.00000000000000000 0.00000000000000000 0.00000000000000000 0.00000000000000000 -1.00000000000000000 -0.00000000000000000 -1.00000000000000000 -0.00000000000000000 
Triangulations 0

TShapes 24
Ve
0.000000100001364
905.000000000001364 5154.000000000000000 0.000000000000000
0 0

0101101
*
Ed
 0.000000100000000 1 1 0
1  1 0 0.000000000000000 21913.732967425959941
2  1 2 0 0.000000000000000 21913.732967425959941
2  2 1 0 0.000000000000000 21913.732967425959941
0

0101000
+24 4 -24 6 *
Ve
0.000000100001364
-89.990000000001828 5154.000000000000000 0.000000000000000
0 0

0101101
*
Ed
 0.000000100000000 1 1 0
1  2 0 0.000000000000000 21913.732967425959941
2  3 3 0 0.000000000000000 21913.732967425959941
2  4 1 0 0.000000000000000 21913.732967425959941
0

0101000
+22 4 -22 6 *
Ed
 0.000000100001364 1 1 0
1  3 0 0.000000000000000 994.990000000003192
2  5 4 7 0.000000000000000 994.990000000003192
2  6 1 8 0.000000000000000 994.990000000003192
2  7 1 9 0.000000000000000 994.990000000003192
2  8 5 13 0.000000000000000 994.990000000003192
0

0101000
+24 0 -22 0 *
Wi

0101100
+23 0 -21 0 -20 4 +20 6 *
Fa
0  0.000000100000000 1 0

0111000
+19 0 *
Ve
0.000000100001364
-89.990000000001828 3014.000000000000000 0.000000000000000
0 0

0101101
*
Ed
 0.000000100000000 1 1 0
1  4 0 0.000000000000000 21913.732967425959941
2  9 3 0 0.000000000000000 21913.732967425959941
2  10 6 0 0.000000000000000 21913.732967425959941
0

0101000
+17 4 -17 6 *
Ed
 0.000000100001364 1 1 0
1  5 0 0.000000000000000 2140.000000000000000
2  11 3 8 0.000000000000000 2140.000000000000000
2  12 3 9 0.000000000000000 2140.000000000000000
2  13 4 7 0.000000000000000 2140.000000000000000
2  14 5 13 0.000000000000000 2140.000000000000000
0

0101000
+22 0 -17 0 *
Wi

0101100
+21 0 -16 0 -15 4 +15 6 *
Fa
0  0.000000100000000 3 0

0111000
+14 0 *
Ve
0.000000100001364
905.000000000001364 3014.000000000000000 0.000000000000000
0 0

0101101
*
Ed
 0.000000100000000 1 1 0
1  6 0 0.000000000000000 21913.732967425959941
2  15 6 0 0.000000000000000 21913.732967425959941
2  16 2 0 0.000000000000000 21913.732967425959941
0

0101000
+12 4 -12 6 *
Ed
 0.000000100001023 1 1 0
1  7 0 0.000000000000000 994.990000000003192
2  17 6 8 0.000000000000000 994.990000000003192
2  18 6 9 0.000000000000000 994.990000000003192
2  19 4 7 0.000000000000000 994.990000000003192
2  20 5 13 0.000000000000000 994.990000000003192
2  21 7 13 0.000000000000000 994.990000000003192
2  22 8 20 0.000000000000000 994.990000000003192
0

0101000
+17 0 -12 0 *
Wi

0101100
+16 0 -11 0 -10 4 +10 6 *
Fa
0  0.000000100000000 6 0

0111000
+9 0 *
Ed
 0.000000100001364 1 1 0
1  8 0 0.000000000000000 2140.000000000000000
2  23 2 8 0.000000000000000 2140.000000000000000
2  24 2 9 0.000000000000000 2140.000000000000000
2  25 4 7 0.000000000000000 2140.000000000000000
2  26 5 13 0.000000000000000 2140.000000000000000
0

0101000
+12 0 -24 0 *
Wi

0101100
+11 0 -23 0 -7 4 +7 6 *
Fa
0  0.000000100000000 2 0

0111000
+6 0 *
Wi

0101100
+20 0 +15 0 +10 0 +7 0 *
Fa
0  0.000000100000000 4 0

0111000
+4 22 *
Sh

0101100
+18 0 +13 0 +8 0 +5 0 +3 21 -3 23 *
So

1100000
+2 0 *

+1 0 