
CASCADE Topology V1, (c) Matra-Datavision
Locations 15
1
1.000000000000000 0.000000000000000 0.000000000000000 0.000000000000000 
0.000000000000000 1.000000000000000 0.000000000000000 0.000000000000000 
0.000000000000000 0.000000000000000 1.000000000000000 0.000000000000000 
1
0.000000000000000 -0.000000000000000 1.000000000000000 0.000000000000383 
1.000000000000000 -0.000000000000000 -0.000000000000000 -0.000000000000000 
0.000000000000000 1.000000000000000 0.000000000000000 0.000000000000000 
1
0.000000000000000 0.000000000000000 1.000000000000000 0.000000000000000 
1.000000000000000 0.000000000000000 0.000000000000000 0.000000000000000 
0.000000000000000 1.000000000000000 0.000000000000000 0.000000000000000 
2  1 1 2 1 3 -1 0
1
1.000000000000000 0.000000000000000 0.000000000000000 0.000000000000438 
0.000000000000000 1.000000000000000 0.000000000000000 -0.000000000001751 
0.000000000000000 0.000000000000000 1.000000000000000 -3943.307496049478232 
2  1 1 2 1 3 -1 5 1 0
2  3 1 2 -1 1 -1 0
2  5 -1 3 1 2 -1 1 -1 0
2  2 -1 1 -1 0
1
-0.000000000000000 0.000000000000000 1.000000000000000 0.000000000000000 
1.000000000000000 -0.000000000000000 0.000000000000000 0.000000000000000 
0.000000000000000 1.000000000000000 -0.000000000000000 0.000000000000000 
1
0.000000000000000 0.000000000000000 1.000000000000000 0.000000000000000 
1.000000000000000 0.000000000000000 0.000000000000000 0.000000000000000 
0.000000000000000 1.000000000000000 0.000000000000000 0.000000000000000 
2  10 -1 11 1 2 -1 1 -1 0
2  3 -1 0
2  1 1 2 1 0
2  3 -1 5 1 0
Curve2ds 24
1 0.00000000000000000 0.00000000000000000 0.00000000000000000 -1.00000000000000000 
1 6.28318530717958623 0.00000000000000000 0.00000000000000000 -1.00000000000000000 
1 0.00000000000000000 0.00000000000000000 1.00000000000000000 0.00000000000000000 
1 0.00000000000000000 -3943.30749604947823173 1.00000000000000000 0.00000000000000000 
2 0.00000000000000000 -768.00000000000034106 0.00000000000000011 -1.00000000000000000 1.00000000000000000 0.00000000000000011 5.00000000000000000
2 -64.99999999999954525 -767.99999999999920419 0.00000000000000011 -1.00000000000000000 1.00000000000000000 0.00000000000000011 5.00000000000000000
1 0.00000000000000000 0.00000000000000000 0.00000000000000000 -1.00000000000000000 
1 6.28318530717958623 0.00000000000000000 0.00000000000000000 -1.00000000000000000 
1 0.00000000000000000 0.00000000000000000 1.00000000000000000 0.00000000000000000 
1 0.00000000000000000 -3943.30749604947823173 1.00000000000000000 0.00000000000000000 
2 0.00000000000000000 -618.00000000000034106 0.00000000000000011 -1.00000000000000000 1.00000000000000000 0.00000000000000011 5.00000000000000000
2 -64.99999999999954525 -617.99999999999920419 0.00000000000000011 -1.00000000000000000 1.00000000000000000 0.00000000000000011 5.00000000000000000
1 0.00000000000000000 0.00000000000000000 0.00000000000000000 -1.00000000000000000 
1 6.28318530717958623 0.00000000000000000 0.00000000000000000 -1.00000000000000000 
1 0.00000000000000000 0.00000000000000000 1.00000000000000000 0.00000000000000000 
1 0.00000000000000000 -3943.30749604947823173 1.00000000000000000 0.00000000000000000 
2 0.00000000000000000 617.99999999999965894 0.00000000000000011 -1.00000000000000000 1.00000000000000000 0.00000000000000011 5.00000000000000000
2 -64.99999999999954525 618.00000000000079581 0.00000000000000011 -1.00000000000000000 1.00000000000000000 0.00000000000000011 5.00000000000000000
1 0.00000000000000000 0.00000000000000000 0.00000000000000000 -1.00000000000000000 
1 6.28318530717958623 0.00000000000000000 0.00000000000000000 -1.00000000000000000 
1 0.00000000000000000 0.00000000000000000 1.00000000000000000 0.00000000000000000 
1 0.00000000000000000 -3943.30749604947823173 1.00000000000000000 0.00000000000000000 
2 0.00000000000000000 767.99999999999965894 0.00000000000000011 -1.00000000000000000 1.00000000000000000 0.00000000000000011 5.00000000000000000
2 -64.99999999999954525 768.00000000000079581 0.00000000000000011 -1.00000000000000000 1.00000000000000000 0.00000000000000011 5.00000000000000000
Curves 8
1 -116.99999999999992895 2582.50000000000000000 -0.00000000000049012 0.00000000000000011 -0.00000000000000044 -1.00000000000000000 
2 -121.99999999999994316 2582.50000000000045475 0.00000000000000000 0.00000000000000000 0.00000000000000000 1.00000000000000000 1.00000000000000000 0.00000000000000000 0.00000000000000000 0.00000000000000000 1.00000000000000000 0.00000000000000000 5.00000000000000000
1 -266.99999999999988631 2582.50000000000000000 -0.00000000000050677 0.00000000000000011 -0.00000000000000044 -1.00000000000000000 
2 -271.99999999999994316 2582.50000000000045475 0.00000000000000000 0.00000000000000000 0.00000000000000000 1.00000000000000000 1.00000000000000000 0.00000000000000000 0.00000000000000000 0.00000000000000000 1.00000000000000000 0.00000000000000000 5.00000000000000000
1 -1502.99999999999977263 2582.50000000000000000 -0.00000000000064400 0.00000000000000011 -0.00000000000000044 -1.00000000000000000 
2 -1508.00000000000000000 2582.50000000000045475 0.00000000000000000 0.00000000000000000 0.00000000000000000 1.00000000000000000 1.00000000000000000 0.00000000000000000 0.00000000000000000 0.00000000000000000 1.00000000000000000 0.00000000000000000 5.00000000000000000
1 -1652.99999999999977263 2582.50000000000000000 -0.00000000000066065 0.00000000000000011 -0.00000000000000044 -1.00000000000000000 
2 -1658.00000000000000000 2582.50000000000045475 0.00000000000000000 0.00000000000000000 0.00000000000000000 1.00000000000000000 1.00000000000000000 0.00000000000000000 0.00000000000000000 0.00000000000000000 1.00000000000000000 0.00000000000000000 5.00000000000000000
Polygon3D 0
PolygonOnTriangulations 0
Surfaces 9
2 -121.99999999999992895 2582.50000000000000000 -0.00000000000049068 -0.00000000000000011 0.00000000000000033 1.00000000000000000 1.00000000000000000 0.00000000000000011 0.00000000000000011 0.00000000000000000 1.00000000000000000 -0.00000000000000033 5.00000000000000000
1 -0.00000000000047713 -890.00000000000056843 2582.50000000000045475 1.00000000000000000 0.00000000000000000 0.00000000000000033 -0.00000000000000033 0.00000000000000000 1.00000000000000000 0.00000000000000000 -1.00000000000000000 0.00000000000000000 
1 -0.00000000000078548 -889.99999999999943157 2647.50000000000000000 1.00000000000000000 -0.00000000000000022 0.00000000000000022 -0.00000000000000022 0.00000000000000000 1.00000000000000000 -0.00000000000000022 -1.00000000000000000 -0.00000000000000000 
2 -271.99999999999988631 2582.50000000000000000 -0.00000000000050733 -0.00000000000000011 0.00000000000000033 1.00000000000000000 1.00000000000000000 0.00000000000000011 0.00000000000000011 0.00000000000000000 1.00000000000000000 -0.00000000000000033 5.00000000000000000
1 -0.00000000000047713 -890.00000000000056843 2582.50000000000045475 1.00000000000000000 0.00000000000000000 0.00000000000000033 -0.00000000000000033 0.00000000000000000 1.00000000000000000 0.00000000000000000 -1.00000000000000000 0.00000000000000000 
2 -1507.99999999999977263 2582.50000000000000000 -0.00000000000064455 -0.00000000000000011 0.00000000000000033 1.00000000000000000 1.00000000000000000 0.00000000000000011 0.00000000000000011 0.00000000000000000 1.00000000000000000 -0.00000000000000033 5.00000000000000000
1 -0.00000000000047713 -890.00000000000056843 2582.50000000000045475 1.00000000000000000 0.00000000000000000 0.00000000000000033 -0.00000000000000033 0.00000000000000000 1.00000000000000000 0.00000000000000000 -1.00000000000000000 0.00000000000000000 
2 -1657.99999999999977263 2582.50000000000000000 -0.00000000000066121 -0.00000000000000011 0.00000000000000033 1.00000000000000000 1.00000000000000000 0.00000000000000011 0.00000000000000011 0.00000000000000000 1.00000000000000000 -0.00000000000000033 5.00000000000000000
1 -0.00000000000047713 -890.00000000000056843 2582.50000000000045475 1.00000000000000000 0.00000000000000000 0.00000000000000033 -0.00000000000000033 0.00000000000000000 1.00000000000000000 0.00000000000000000 -1.00000000000000000 0.00000000000000000 
Triangulations 0

TShapes 37
Ve
0.000000100000204
-116.999999999999943 2582.500000000000455 0.000000000000000
0 0

0101101
*
Ed
 0.000000100000000 1 1 0
1  1 0 0.000000000000000 3943.307496049478232
3  1 2CN 1 0 0.000000000000000 3943.307496049478232
0

0101000
+37 4 -37 6 *
Ed
 0.000000100000204 1 1 0
1  2 0 0.000000000000000 6.283185307179586
2  3 1 7 0.000000000000000 6.283185307179586
2  4 1 8 0.000000000000000 6.283185307179586
2  5 2 9 0.000000000000000 6.283185307179586
2  6 3 12 0.000000000000000 6.283185307179586
0

0101100
+37 0 -37 0 *
Wi

0101100
+36 0 -36 0 -35 4 +35 6 *
Fa
0  0.000000100000000 1 0

0101000
+34 0 *
Wi

0101100
+35 0 *
Fa
0  0.000000100000000 2 0

0101000
+32 14 *
Sh

0101100
+33 0 +31 13 -31 15 *
So

0100000
+30 0 *
Ve
0.000000100000220
-266.999999999999943 2582.500000000000455 0.000000000000000
0 0

0101101
*
Ed
 0.000000100000000 1 1 0
1  3 0 0.000000000000000 3943.307496049478232
3  7 8CN 4 0 0.000000000000000 3943.307496049478232
0

0101000
+28 4 -28 6 *
Ed
 0.000000100000220 1 1 0
1  4 0 0.000000000000000 6.283185307179586
2  9 4 7 0.000000000000000 6.283185307179586
2  10 4 8 0.000000000000000 6.283185307179586
2  11 5 9 0.000000000000000 6.283185307179586
2  12 3 12 0.000000000000000 6.283185307179586
0

0101100
+28 0 -28 0 *
Wi

0101100
+27 0 -27 0 -26 4 +26 6 *
Fa
0  0.000000100000000 4 0

0101000
+25 0 *
Wi

0101100
+26 0 *
Fa
0  0.000000100000000 5 0

0101000
+23 14 *
Sh

0101100
+24 0 +22 13 -22 15 *
So

0100000
+21 0 *
Ve
0.000000100000355
-1503.000000000000000 2582.500000000000455 0.000000000000000
0 0

0101101
*
Ed
 0.000000100000000 1 1 0
1  5 0 0.000000000000000 3943.307496049478232
3  13 14CN 6 0 0.000000000000000 3943.307496049478232
0

0101000
+19 4 -19 6 *
Ed
 0.000000100000355 1 1 0
1  6 0 0.000000000000000 6.283185307179586
2  15 6 7 0.000000000000000 6.283185307179586
2  16 6 8 0.000000000000000 6.283185307179586
2  17 7 9 0.000000000000000 6.283185307179586
2  18 3 12 0.000000000000000 6.283185307179586
0

0101100
+19 0 -19 0 *
Wi

0101100
+18 0 -18 0 -17 4 +17 6 *
Fa
0  0.000000100000000 6 0

0101000
+16 0 *
Wi

0101100
+17 0 *
Fa
0  0.000000100000000 7 0

0101000
+14 14 *
Sh

0101100
+15 0 +13 13 -13 15 *
So

0100000
+12 0 *
Ve
0.000000100000371
-1653.000000000000000 2582.500000000000455 0.000000000000000
0 0

0101101
*
Ed
 0.000000100000000 1 1 0
1  7 0 0.000000000000000 3943.307496049478232
3  19 20CN 8 0 0.000000000000000 3943.307496049478232
0

0101000
+10 4 -10 6 *
Ed
 0.000000100000371 1 1 0
1  8 0 0.000000000000000 6.283185307179586
2  21 8 7 0.000000000000000 6.283185307179586
2  22 8 8 0.000000000000000 6.283185307179586
2  23 9 9 0.000000000000000 6.283185307179586
2  24 3 12 0.000000000000000 6.283185307179586
0

0101100
+10 0 -10 0 *
Wi

0101100
+9 0 -9 0 -8 4 +8 6 *
Fa
0  0.000000100000000 8 0

0101000
+7 0 *
Wi

0101100
+8 0 *
Fa
0  0.000000100000000 9 0

0101000
+5 14 *
Sh

0101100
+6 0 +4 13 -4 15 *
So

0100000
+3 0 *
Co

1100000
+29 0 +20 0 +11 0 +2 0 *

+1 0 