
CASCADE Topology V1, (c) Matra-Datavision
Locations 13
1
0.000000000000000 0.000000000000000 1.000000000000000 0.000000000000000 
1.000000000000000 0.000000000000000 0.000000000000000 0.000000000000000 
0.000000000000000 1.000000000000000 0.000000000000000 0.000000000000000 
1
1.000000000000000 0.000000000000000 0.000000000000000 0.000000000000000 
0.000000000000000 1.000000000000000 0.000000000000000 0.000000000000000 
0.000000000000000 0.000000000000000 1.000000000000000 0.000000000000000 
1
0.000000000000000 -0.000000000000000 1.000000000000000 0.000000000000000 
1.000000000000000 0.000000000000000 -0.000000000000000 0.000000000000000 
-0.000000000000000 1.000000000000000 0.000000000000000 0.000000000000000 
1
-0.000000000000000 0.000000000000000 1.000000000000000 0.000000000000000 
1.000000000000000 -0.000000000000000 0.000000000000000 0.000000000000000 
0.000000000000000 1.000000000000000 -0.000000000000000 0.000000000000000 
2  2 1 3 1 4 -1 0
1
1.000000000000000 0.000000000000000 0.000000000000000 -0.000000000000007 
0.000000000000000 1.000000000000000 0.000000000000000 0.000000000000004 
0.000000000000000 0.000000000000000 1.000000000000000 15.000000000000000 
2  2 1 3 1 4 -1 6 1 0
2  3 -1 2 -1 0
2  4 1 3 -1 2 -1 0
2  6 -1 4 1 3 -1 2 -1 0
2  4 -1 0
2  2 1 3 1 0
2  4 -1 6 1 0
Curve2ds 40
1 250.00000000000000000 -0.00000000000000000 -0.00000000000000022 -1.00000000000000000 
1 -243.25097898216108661 -494.13214511046066946 1.00000000000000000 -0.00000000000000022 
1 -54.58384518607499558 -494.13214511046066946 0.36755970767774454 0.92999992542572341 
1 0.00000000000000000 0.00000000000000000 0.00000000000000017 -1.00000000000000000 
1 249.36902101783925900 274.92968892062208397 0.00000000000000022 1.00000000000000000 
1 249.99999999978854248 0.00000000000000000 0.00000000000000017 -1.00000000000000000 
1 249.36902101783925900 476.86785488953796630 -1.00000000000000000 0.00000000000000022 
1 0.00000000000000000 0.00000000000000000 1.00000000000000000 0.00000000000000000 
1 0.00000000000000666 -15.00000000000000000 1.00000000000000000 0.00000000000000000 
1 -0.63097898194928348 476.86785488953819367 -0.00000000000134684 -1.00000000000000000 
1 0.00000000000000000 0.00000000000000000 0.00000000000000017 -1.00000000000000000 
1 -0.63097898215710302 322.54105185845355663 -0.36755970767776108 -0.92999992542571686 
1 18.65628889392883138 0.00000000000000000 0.00000000000000017 -1.00000000000000000 
1 0.00000000000000000 0.00000000000000000 -0.00000000000000022 -1.00000000000000000 
1 0.00000000000000000 0.00000000000000000 1.00000000000000000 0.00000000000000000 
1 0.00000000000000666 -15.00000000000000000 1.00000000000000000 0.00000000000000000 
1 -224.59469008823180047 -244.13214511046066946 -1.00000000000000000 0.00000000000000022 
1 0.00000000000000000 0.00000000000000000 1.00000000000000000 0.00000000000000000 
1 0.00000000000000333 -15.00000000000000000 1.00000000000000000 0.00000000000000000 
1 -243.25097898216063186 -244.13214511046066946 -0.00000000000000022 -1.00000000000000000 
1 0.00000000000000000 0.00000000000000000 0.00000000000000000 -1.00000000000000000 
1 6.28318530717958623 0.00000000000000000 0.00000000000000000 -1.00000000000000000 
1 0.00000000000000000 0.00000000000000000 1.00000000000000000 0.00000000000000000 
1 0.00000000000000000 -15.00000000000000000 1.00000000000000000 0.00000000000000000 
2 -86.38427898216104950 -404.13214511046066946 -0.00000000000000022 -1.00000000000000000 1.00000000000000000 -0.00000000000000022 5.00000000000000000
1 0.00000000000000000 0.00000000000000000 0.00000000000000000 -1.00000000000000000 
1 6.28318530717958623 0.00000000000000000 0.00000000000000000 -1.00000000000000000 
1 0.00000000000000000 0.00000000000000000 1.00000000000000000 0.00000000000000000 
1 0.00000000000000000 -15.00000000000000000 1.00000000000000000 0.00000000000000000 
2 -86.38427898216104950 -60.86413506334633894 -0.00000000000000022 -1.00000000000000000 1.00000000000000000 -0.00000000000000022 5.00000000000000000
1 0.00000000000000000 0.00000000000000000 0.00000000000000000 -1.00000000000000000 
1 6.28318530717958623 0.00000000000000000 0.00000000000000000 -1.00000000000000000 
1 0.00000000000000000 0.00000000000000000 1.00000000000000000 0.00000000000000000 
1 0.00000000000000000 -15.00000000000000000 1.00000000000000000 0.00000000000000000 
2 95.48242101783898761 56.02715392163054275 -0.00000000000000022 -1.00000000000000000 1.00000000000000000 -0.00000000000000022 5.00000000000000000
1 0.00000000000000000 0.00000000000000000 0.00000000000000000 -1.00000000000000000 
1 6.28318530717958623 0.00000000000000000 0.00000000000000000 -1.00000000000000000 
1 0.00000000000000000 0.00000000000000000 1.00000000000000000 0.00000000000000000 
1 0.00000000000000000 -15.00000000000000000 1.00000000000000000 0.00000000000000000 
2 95.48242101783898761 381.86785488953933054 -0.00000000000000022 -1.00000000000000000 1.00000000000000000 -0.00000000000000022 5.00000000000000000
Curves 24
1 -887.00000000000022737 3134.00000000000136424 -0.00000000000158873 -0.00000000000000044 0.00000000000000028 1.00000000000000000 
1 -887.00000000000022737 3322.66713379608745527 -0.00000000000167251 -0.00000000000000044 0.00000000000000028 1.00000000000000000 
1 -887.00000000000068212 3134.00000000000000000 0.00000000000000000 0.00000000000000000 1.00000000000000000 0.00000000000000000 
1 -1656.06183403108320817 3626.62000000000170985 -0.00000000000197826 -0.00000000000000044 0.00000000000000028 1.00000000000000000 
1 -887.00000000000068212 3322.66713379608609102 0.00000000000000000 -0.92999992542572341 0.36755970767774426 0.00000000000000000 
1 -1857.99999999999909051 3626.62000000000170985 -0.00000000000202310 -0.00000000000000044 0.00000000000000028 1.00000000000000000 
1 -1656.06183403108366292 3626.61999999999989086 0.00000000000000000 -1.00000000000000000 0.00000000000000000 0.00000000000000000 
1 -1857.99999999999931788 3376.62000000021316737 -0.00000000000191208 -0.00000000000000044 0.00000000000000028 1.00000000000000000 
1 -1857.99999999999954525 3626.61999999999989086 0.00000000000000000 0.00000000000000000 -1.00000000000000000 0.00000000000000000 
1 -1703.67319696891468084 3376.62000000000534783 -0.00000000000187781 -0.00000000000000044 0.00000000000000028 1.00000000000000000 
1 -1857.99999999999954525 3376.62000000021134838 0.00000000000000000 1.00000000000000000 -0.00000000000134662 0.00000000000000000 
1 -1137.00000000000022737 3152.65628889393019563 -0.00000000000165253 -0.00000000000000044 0.00000000000000028 1.00000000000000000 
1 -1703.67319696891490821 3376.62000000000352884 0.00000000000000000 0.92999992542571697 -0.36755970767776086 0.00000000000000000 
1 -1137.00000000000022737 3134.00000000000136424 -0.00000000000164424 -0.00000000000000044 0.00000000000000028 1.00000000000000000 
1 -1137.00000000000068212 3152.65628889392883138 0.00000000000000000 0.00000000000000000 -1.00000000000000000 0.00000000000000000 
1 -1137.00000000000068212 3134.00000000000000000 0.00000000000000000 1.00000000000000000 0.00000000000000000 0.00000000000000000 
1 -972.00000000000022737 3290.86670000000140135 -0.00000000000167727 -0.00000000000000044 0.00000000000000028 1.00000000000000000 
2 -977.00000000000068212 3290.86670000000003711 0.00000000000000000 0.00000000000000000 0.00000000000000000 1.00000000000000000 1.00000000000000000 0.00000000000000000 -0.00000000000000000 -0.00000000000000000 1.00000000000000000 0.00000000000000000 5.00000000000000000
1 -1315.26801004711455789 3290.86670000000094660 -0.00000000000175349 -0.00000000000000044 0.00000000000000028 1.00000000000000000 
2 -1320.26801004711501264 3290.86669999999958236 0.00000000000000000 0.00000000000000000 0.00000000000000000 1.00000000000000000 1.00000000000000000 0.00000000000000000 -0.00000000000000000 -0.00000000000000000 1.00000000000000000 0.00000000000000000 5.00000000000000000
1 -1432.15929903209143959 3472.73340000000098371 -0.00000000000186021 -0.00000000000000044 0.00000000000000028 1.00000000000000000 
2 -1437.15929903209189433 3472.73339999999961947 0.00000000000000000 0.00000000000000000 0.00000000000000000 1.00000000000000000 1.00000000000000000 0.00000000000000000 -0.00000000000000000 -0.00000000000000000 1.00000000000000000 0.00000000000000000 5.00000000000000000
1 -1758.00000000000045475 3472.73340000000143846 -0.00000000000193256 -0.00000000000000044 0.00000000000000028 1.00000000000000000 
2 -1763.00000000000068212 3472.73339999999961947 0.00000000000000000 0.00000000000000000 0.00000000000000000 1.00000000000000000 1.00000000000000000 0.00000000000000000 -0.00000000000000000 -0.00000000000000000 1.00000000000000000 0.00000000000000000 5.00000000000000000
Polygon3D 0
PolygonOnTriangulations 0
Surfaces 13
1 -887.00000000000022737 3134.00000000000136424 -0.00000000000158873 -1.00000000000000000 0.00000000000000022 -0.00000000000000044 0.00000000000000022 1.00000000000000000 -0.00000000000000044 0.00000000000000044 -0.00000000000000044 -1.00000000000000000 
1 -1137.00000000000022737 3134.00000000000136424 -0.00000000000164424 0.00000000000000044 1.00000000000000000 -0.00000000000000028 1.00000000000000000 -0.00000000000000044 0.00000000000000022 0.00000000000000022 -0.00000000000000028 -1.00000000000000000 
1 -0.00000000000105657 -1381.13214511046066946 3377.25097898216108661 1.00000000000000000 -0.00000000000000022 0.00000000000000022 -0.00000000000000022 0.00000000000000000 1.00000000000000000 -0.00000000000000022 -1.00000000000000000 -0.00000000000000000 
1 -887.00000000000022737 3322.66713379608745527 -0.00000000000167251 -0.36755970767774465 -0.92999992542572330 0.00000000000000009 -0.92999992542572330 0.36755970767774465 -0.00000000000000037 0.00000000000000031 -0.00000000000000022 -1.00000000000000000 
1 -1656.06183403108320817 3626.62000000000170985 -0.00000000000197826 -0.00000000000000044 -1.00000000000000000 0.00000000000000028 -1.00000000000000000 0.00000000000000044 -0.00000000000000022 0.00000000000000022 -0.00000000000000028 -1.00000000000000000 
1 -1857.99999999999909051 3626.62000000000170985 -0.00000000000202310 1.00000000000000000 -0.00000000000000022 0.00000000000000044 -0.00000000000000022 -1.00000000000000000 0.00000000000000044 0.00000000000000044 -0.00000000000000044 -1.00000000000000000 
1 -1857.99999999999931788 3376.62000000021316737 -0.00000000000191208 0.00000000000134706 1.00000000000000000 -0.00000000000000028 1.00000000000000000 -0.00000000000134706 0.00000000000000022 0.00000000000000022 -0.00000000000000028 -1.00000000000000000 
1 -1703.67319696891468084 3376.62000000000534783 -0.00000000000187781 0.36755970767776119 0.92999992542571674 -0.00000000000000009 0.92999992542571674 -0.36755970767776119 0.00000000000000037 0.00000000000000031 -0.00000000000000022 -1.00000000000000000 
1 -1137.00000000000022737 3152.65628889393019563 -0.00000000000165253 1.00000000000000000 -0.00000000000000022 0.00000000000000044 -0.00000000000000022 -1.00000000000000000 0.00000000000000044 0.00000000000000044 -0.00000000000000044 -1.00000000000000000 
2 -977.00000000000022737 3290.86670000000140135 -0.00000000000167838 0.00000000000000022 -0.00000000000000044 -1.00000000000000000 1.00000000000000000 -0.00000000000000044 0.00000000000000022 0.00000000000000044 1.00000000000000000 -0.00000000000000044 5.00000000000000000
2 -1320.26801004711455789 3290.86670000000094660 -0.00000000000175460 0.00000000000000022 -0.00000000000000044 -1.00000000000000000 1.00000000000000000 -0.00000000000000044 0.00000000000000022 0.00000000000000044 1.00000000000000000 -0.00000000000000044 5.00000000000000000
2 -1437.15929903209143959 3472.73340000000098371 -0.00000000000186132 0.00000000000000022 -0.00000000000000044 -1.00000000000000000 1.00000000000000000 -0.00000000000000044 0.00000000000000022 0.00000000000000044 1.00000000000000000 -0.00000000000000044 5.00000000000000000
2 -1763.00000000000045475 3472.73340000000143846 -0.00000000000193367 0.00000000000000022 -0.00000000000000044 -1.00000000000000000 1.00000000000000000 -0.00000000000000044 0.00000000000000022 0.00000000000000044 1.00000000000000000 -0.00000000000000044 5.00000000000000000
Triangulations 0

TShapes 68
Ve
0.000000100000000
-887.000000000000682 3134.000000000000000 0.000000000000000
0 0

0101101
*
Ed
 0.000000100000000 1 1 0
1  1 0 0.000000000000000 15.000000000000000
2  1 2 0 0.000000000000000 15.000000000000000
0

0101000
+68 5 -68 7 *
Ve
0.000000100000000
-887.000000000000682 3322.667133796086091 0.000000000000000
0 0

0101101
*
Ed
 0.000000100000000 1 1 0
1  2 0 0.000000000000000 15.000000000000000
0

0101000
+66 5 -66 7 *
Ed
 0.000000100000000 1 1 0
1  3 0 0.000000000000000 188.667133796086091
2  2 3 8 0.000000000000000 188.667133796086091
0

0101000
+68 0 -66 0 *
Wi

0101100
+67 0 -65 0 -64 5 +64 7 *
Fa
0  0.000000100000000 1 0

0111000
+63 0 *
Ve
0.000000100000000
-1656.061834031083663 3626.619999999999891 0.000000000000000
0 0

0101101
*
Ed
 0.000000100000000 1 1 0
1  4 0 0.000000000000000 15.000000000000000
0

0101000
+61 5 -61 7 *
Ed
 0.000000100000000 1 1 0
1  5 0 0.000000000000000 826.948274946400375
2  3 3 8 0.000000000000000 826.948274946400375
0

0101000
+66 0 -61 0 *
Wi

0101100
+65 0 -60 0 -59 5 +59 7 *
Fa
0  0.000000100000000 4 0

0111000
+58 0 *
Ve
0.000000100000000
-1857.999999999999545 3626.619999999999891 0.000000000000000
0 0

0101101
*
Ed
 0.000000100000000 1 1 0
1  6 0 0.000000000000000 15.000000000000000
2  4 6 0 0.000000000000000 15.000000000000000
0

0101000
+56 5 -56 7 *
Ed
 0.000000100000000 1 1 0
1  7 0 0.000000000000000 201.938165968915882
2  5 3 8 0.000000000000000 201.938165968915882
0

0101000
+61 0 -56 0 *
Wi

0101100
+60 0 -55 0 -54 5 +54 7 *
Fa
0  0.000000100000000 5 0

0111000
+53 0 *
Ve
0.000000100000000
-1857.999999999999545 3376.620000000211348 0.000000000000000
0 0

0101101
*
Ed
 0.000000100000000 1 1 0
1  8 0 0.000000000000000 15.000000000000000
2  6 6 0 0.000000000000000 15.000000000000000
0

0101000
+51 5 -51 7 *
Ed
 0.000000100000000 1 1 0
1  9 0 0.000000000000000 249.999999999788542
2  7 3 8 0.000000000000000 249.999999999788542
2  8 6 9 0.000000000000000 249.999999999788542
2  9 6 10 0.000000000000000 249.999999999788542
0

0101000
+56 0 -51 0 *
Wi

0101100
+55 0 -50 0 -49 5 +49 7 *
Fa
0  0.000000100000000 6 0

0111000
+48 0 *
Ve
0.000000100000000
-1703.673196968914908 3376.620000000003529 0.000000000000000
0 0

0101101
*
Ed
 0.000000100000000 1 1 0
1  10 0 0.000000000000000 15.000000000000000
0

0101000
+46 5 -46 7 *
Ed
 0.000000100000000 1 1 0
1  11 0 0.000000000000000 154.326803031084637
2  10 3 8 0.000000000000000 154.326803031084637
0

0101000
+51 0 -46 0 *
Wi

0101100
+50 0 -45 0 -44 5 +44 7 *
Fa
0  0.000000100000000 7 0

0111000
+43 0 *
Ve
0.000000100000000
-1137.000000000000682 3152.656288893928831 0.000000000000000
0 0

0101101
*
Ed
 0.000000100000000 1 1 0
1  12 0 0.000000000000000 15.000000000000000
2  11 9 0 0.000000000000000 15.000000000000000
0

0101000
+41 5 -41 7 *
Ed
 0.000000100000000 1 1 0
1  13 0 0.000000000000000 609.326067106418122
2  12 3 8 0.000000000000000 609.326067106418122
0

0101000
+46 0 -41 0 *
Wi

0101100
+45 0 -40 0 -39 5 +39 7 *
Fa
0  0.000000100000000 8 0

0111000
+38 0 *
Ve
0.000000100000000
-1137.000000000000682 3134.000000000000000 0.000000000000000
0 0

0101101
*
Ed
 0.000000100000000 1 1 0
1  14 0 0.000000000000000 15.000000000000000
2  13 9 0 0.000000000000000 15.000000000000000
2  14 2 0 0.000000000000000 15.000000000000000
0

0101000
+36 5 -36 7 *
Ed
 0.000000100000000 1 1 0
1  15 0 0.000000000000000 18.656288893928831
2  15 9 9 0.000000000000000 18.656288893928831
2  16 9 10 0.000000000000000 18.656288893928831
2  17 3 8 0.000000000000000 18.656288893928831
0

0101000
+41 0 -36 0 *
Wi

0101100
+40 0 -35 0 -34 5 +34 7 *
Fa
0  0.000000100000000 9 0

0111000
+33 0 *
Ed
 0.000000100000000 1 1 0
1  16 0 0.000000000000000 250.000000000000000
2  18 2 9 0.000000000000000 250.000000000000000
2  19 2 10 0.000000000000000 250.000000000000000
2  20 3 8 0.000000000000000 250.000000000000000
0

0101000
+36 0 -68 0 *
Wi

0101100
+35 0 -67 0 -31 5 +31 7 *
Fa
0  0.000000100000000 2 0

0111000
+30 0 *
Ve
0.000000100000000
-972.000000000000682 3290.866700000000037 0.000000000000000
0 0

0101101
*
Ed
 0.000000100000000 1 1 0
1  17 0 0.000000000000000 15.000000000000000
3  21 22CN 10 0 0.000000000000000 15.000000000000000
0

0101000
+28 5 -28 7 *
Ed
 0.000000100000000 1 1 0
1  18 0 0.000000000000000 6.283185307179586
2  23 10 9 0.000000000000000 6.283185307179586
2  24 10 10 0.000000000000000 6.283185307179586
2  25 3 8 0.000000000000000 6.283185307179586
0

0101000
+28 0 -28 0 *
Wi

0101100
+27 0 -27 0 -26 5 +26 7 *
Fa
0  0.000000100000000 10 0

0111000
+25 0 *
Ve
0.000000100000000
-1315.268010047115013 3290.866699999999582 0.000000000000000
0 0

0101101
*
Ed
 0.000000100000000 1 1 0
1  19 0 0.000000000000000 15.000000000000000
3  26 27CN 11 0 0.000000000000000 15.000000000000000
0

0101000
+23 5 -23 7 *
Ed
 0.000000100000000 1 1 0
1  20 0 0.000000000000000 6.283185307179586
2  28 11 9 0.000000000000000 6.283185307179586
2  29 11 10 0.000000000000000 6.283185307179586
2  30 3 8 0.000000000000000 6.283185307179586
0

0101000
+23 0 -23 0 *
Wi

0101100
+22 0 -22 0 -21 5 +21 7 *
Fa
0  0.000000100000000 11 0

0111000
+20 0 *
Ve
0.000000100000000
-1432.159299032091894 3472.733399999999619 0.000000000000000
0 0

0101101
*
Ed
 0.000000100000000 1 1 0
1  21 0 0.000000000000000 15.000000000000000
3  31 32CN 12 0 0.000000000000000 15.000000000000000
0

0101000
+18 5 -18 7 *
Ed
 0.000000100000000 1 1 0
1  22 0 0.000000000000000 6.283185307179586
2  33 12 9 0.000000000000000 6.283185307179586
2  34 12 10 0.000000000000000 6.283185307179586
2  35 3 8 0.000000000000000 6.283185307179586
0

0101000
+18 0 -18 0 *
Wi

0101100
+17 0 -17 0 -16 5 +16 7 *
Fa
0  0.000000100000000 12 0

0111000
+15 0 *
Ve
0.000000100000000
-1758.000000000000682 3472.733399999999619 0.000000000000000
0 0

0101101
*
Ed
 0.000000100000000 1 1 0
1  23 0 0.000000000000000 15.000000000000000
3  36 37CN 13 0 0.000000000000000 15.000000000000000
0

0101000
+13 5 -13 7 *
Ed
 0.000000100000000 1 1 0
1  24 0 0.000000000000000 6.283185307179586
2  38 13 9 0.000000000000000 6.283185307179586
2  39 13 10 0.000000000000000 6.283185307179586
2  40 3 8 0.000000000000000 6.283185307179586
0

0101000
+13 0 -13 0 *
Wi

0101100
+12 0 -12 0 -11 5 +11 7 *
Fa
0  0.000000100000000 13 0

0111000
+10 0 *
Wi

0101100
+64 12 +59 12 +54 12 +49 12 +44 12 +39 12 +34 12 +31 12 *
Wi

0101100
-26 12 *
Wi

0101100
-21 12 *
Wi

0101100
-16 12 *
Wi

0101100
-11 12 *
Fa
0  0.000000100000000 3 0

0111000
+8 0 +7 0 +6 0 +5 0 +4 0 *
Sh

0101100
+62 0 +57 0 +52 0 +47 0 +42 0 +37 0 +32 0 +29 0 -24 0 -19 0 
-14 0 -9 0 +3 11 -3 13 *
So

1100000
-2 0 *

+1 1 