
CASCADE Topology V1, (c) Matra-Datavision
Locations 20
1
1.000000000000000 0.000000000000000 0.000000000000000 0.000000000000000 
0.000000000000000 1.000000000000000 0.000000000000000 0.000000000000000 
0.000000000000000 0.000000000000000 1.000000000000000 0.000000000000000 
1
0.000000000000000 1.000000000000000 -0.000000000000001 -0.000000000000825 
-0.000000000000001 -0.000000000000001 -1.000000000000000 -1858.000000000003411 
-1.000000000000000 0.000000000000000 0.000000000000001 0.000000000002475 
1
-0.000000000000000 0.000000000000000 1.000000000000000 0.000000000000000 
1.000000000000000 -0.000000000000000 0.000000000000000 0.000000000000000 
0.000000000000000 1.000000000000000 -0.000000000000000 0.000000000000000 
2  1 1 2 1 3 -1 0
1
1.000000000000000 0.000000000000000 0.000000000000000 -12.000000000000000 
0.000000000000000 1.000000000000000 0.000000000000000 0.000000000000017 
0.000000000000000 0.000000000000000 1.000000000000000 -0.000000000000007 
2  1 1 2 1 3 -1 5 1 0
2  2 -1 1 -1 0
2  3 1 2 -1 1 -1 0
2  5 -1 3 1 2 -1 1 -1 0
1
0.000000000000000 -0.000000000000000 1.000000000000000 0.000000000000000 
1.000000000000000 0.000000000000000 0.000000000000000 0.000000000000000 
-0.000000000000000 1.000000000000000 0.000000000000000 0.000000000000000 
1
-0.000000000000000 0.000000000000000 1.000000000000000 0.000000000000000 
1.000000000000000 -0.000000000000000 0.000000000000000 0.000000000000000 
0.000000000000000 1.000000000000000 -0.000000000000000 0.000000000000000 
1
0.000000000000000 -0.000000000000000 1.000000000000000 0.000000000000000 
1.000000000000000 0.000000000000000 0.000000000000000 0.000000000000000 
-0.000000000000000 1.000000000000000 0.000000000000000 0.000000000000000 
1
-0.000000000000000 0.000000000000000 1.000000000000000 0.000000000000000 
1.000000000000000 -0.000000000000000 0.000000000000000 0.000000000000000 
0.000000000000000 1.000000000000000 -0.000000000000000 0.000000000000000 
1
0.000000000000000 -0.000000000000000 1.000000000000000 0.000000000000000 
1.000000000000000 0.000000000000000 0.000000000000000 0.000000000000000 
-0.000000000000000 1.000000000000000 0.000000000000000 0.000000000000000 
1
-0.000000000000000 0.000000000000000 1.000000000000000 0.000000000000000 
1.000000000000000 -0.000000000000000 0.000000000000000 0.000000000000000 
0.000000000000000 1.000000000000000 -0.000000000000000 0.000000000000000 
1
0.000000000000000 -0.000000000000000 1.000000000000000 0.000000000000000 
1.000000000000000 0.000000000000000 0.000000000000000 0.000000000000000 
-0.000000000000000 1.000000000000000 0.000000000000000 0.000000000000000 
2  10 1 11 -1 12 1 13 -1 14 1 15 -1 16 1 2 -1 1 -1 0
2  3 -1 0
2  1 1 2 1 0
2  3 -1 5 1 0
Curve2ds 22
1 95.00000000000001421 -0.00000000000014300 0.00000000000000033 -1.00000000000000000 
1 0.00000000000000000 0.00000000000000000 -0.00000000000000022 -1.00000000000000000 
1 0.00000000000000000 0.00000000000000000 -0.00000000000000033 -1.00000000000000000 
1 80.00000000000000000 0.00000000000009770 -0.00000000000000022 -1.00000000000000000 
1 40.00000000000045475 47.50000000000000000 -1.00000000000000000 -0.00000000000000000 
1 0.00000000000000000 0.00000000000000000 1.00000000000000000 -0.00000000000000000 
1 0.00000000000001465 -12.00000000000000000 1.00000000000000000 -0.00000000000000000 
1 29.99999999999409539 -14.99999999999926992 1.00000000000000000 0.00000000000000089 
1 95.00000000000001421 -0.00000000000008438 -0.00000000000000033 -1.00000000000000000 
1 0.00000000000000000 0.00000000000000000 1.00000000000000000 0.00000000000000000 
1 -0.00000000000000533 -12.00000000000000000 1.00000000000000000 0.00000000000000000 
1 -39.99999999999954525 47.50000000000000000 0.00000000000000000 -1.00000000000000000 
1 0.00000000000000000 0.00000000000000000 0.00000000000000033 -1.00000000000000000 
1 -39.99999999999954525 -47.50000000000000000 1.00000000000000000 0.00000000000000000 
1 0.00000000000000000 0.00000000000000000 1.00000000000000000 0.00000000000000000 
1 -0.00000000000000355 -12.00000000000000000 1.00000000000000000 0.00000000000000000 
1 40.00000000000045475 -47.50000000000000000 -0.00000000000000000 1.00000000000000000 
1 0.00000000000000000 0.00000000000000000 0.00000000000000000 -1.00000000000000000 
1 6.28318530717958623 0.00000000000000000 0.00000000000000000 -1.00000000000000000 
1 0.00000000000000000 0.00000000000000000 1.00000000000000000 0.00000000000000000 
1 0.00000000000000000 -12.00000000000000000 1.00000000000000000 0.00000000000000000 
2 0.00000000000045475 -7.50000000000000000 -1.00000000000000000 -0.00000000000000000 -0.00000000000000000 1.00000000000000000 5.00000000000000000
Curves 10
1 -1857.99999999999954525 3596.62000000000716682 14.99999999999361755 -1.00000000000000000 0.00000000000000144 -0.00000000000000056 
1 -1857.99999999999954525 3516.62000000000716682 14.99999999999363531 -1.00000000000000000 0.00000000000000144 -0.00000000000000056 
1 -3596.62000000000352884 14.99999999999523936 0.00000000000000000 1.00000000000000000 0.00000000000000000 0.00000000000000000 
1 -1857.99999999999954525 3516.62000000000716682 -80.00000000000638067 -1.00000000000000000 0.00000000000000144 -0.00000000000000056 
1 -3516.62000000000352884 14.99999999999523936 0.00000000000000000 0.00000000000000000 -1.00000000000000000 0.00000000000000000 
1 -1857.99999999999931788 3596.62000000000716682 -80.00000000000639488 -1.00000000000000000 0.00000000000000144 -0.00000000000000056 
1 -3516.62000000000352884 -80.00000000000476064 0.00000000000000000 -1.00000000000000000 0.00000000000000000 0.00000000000000000 
1 -3596.62000000000352884 -80.00000000000476064 0.00000000000000000 0.00000000000000000 1.00000000000000000 0.00000000000000000 
1 -1857.99999999999954525 3551.62000000000716682 -40.00000000000638067 -1.00000000000000000 0.00000000000000144 -0.00000000000000056 
2 -3556.62000000000352884 -40.00000000000476064 0.00000000000000000 0.00000000000000000 0.00000000000000000 1.00000000000000000 1.00000000000000000 0.00000000000000000 -0.00000000000000000 -0.00000000000000000 1.00000000000000000 0.00000000000000000 5.00000000000000000
Polygon3D 0
PolygonOnTriangulations 0
Surfaces 7
1 -1857.99999999999954525 3596.62000000000716682 14.99999999999361755 -0.00000000000000056 0.00000000000000022 1.00000000000000000 -0.00000000000000122 -1.00000000000000000 0.00000000000000022 1.00000000000000000 -0.00000000000000122 0.00000000000000056 
1 -1857.99999999999931788 3596.62000000000716682 -80.00000000000639488 0.00000000000000144 1.00000000000000000 0.00000000000000000 -0.00000000000000089 0.00000000000000000 1.00000000000000000 1.00000000000000000 -0.00000000000000144 0.00000000000000089 
1 -1857.99999999999954525 3516.62000000000716682 14.99999999999363531 -0.00000000000000144 -1.00000000000000000 -0.00000000000000000 0.00000000000000089 -0.00000000000000000 -1.00000000000000000 1.00000000000000000 -0.00000000000000144 0.00000000000000089 
1 -32.50000000000558487 -1857.99999999999909051 3556.62000000000534783 0.00000000000000120 1.00000000000000000 -0.00000000000000142 0.00000000000000000 0.00000000000000142 1.00000000000000000 1.00000000000000000 -0.00000000000000120 0.00000000000000000 
1 -1857.99999999999909051 3626.62000000000170985 -0.00000000000202310 1.00000000000000000 -0.00000000000000022 0.00000000000000044 -0.00000000000000022 -1.00000000000000000 0.00000000000000044 0.00000000000000044 -0.00000000000000044 -1.00000000000000000 
1 -1857.99999999999954525 3516.62000000000716682 -80.00000000000638067 0.00000000000000056 -0.00000000000000022 -1.00000000000000000 0.00000000000000122 1.00000000000000000 -0.00000000000000022 1.00000000000000000 -0.00000000000000122 0.00000000000000056 
2 -1857.99999999999954525 3556.62000000000716682 -40.00000000000638067 1.00000000000000000 -0.00000000000000122 0.00000000000000089 -0.00000000000000122 -1.00000000000000000 0.00000000000000022 -0.00000000000000089 0.00000000000000022 1.00000000000000000 5.00000000000000000
Triangulations 0

TShapes 30
Ve
0.000000100000609
-3596.620000000003529 14.999999999995239 0.000000000000000
0 0

0101101
*
Ed
 0.000000100000000 1 1 0
1  1 0 0.000000000000000 12.000000000000000
2  1 2 0 0.000000000000000 12.000000000000000
2  2 1 0 0.000000000000000 12.000000000000000
0

0101000
+30 4 -30 6 *
Ve
0.000000100000602
-3516.620000000003529 14.999999999995239 0.000000000000000
0 0

0101101
*
Ed
 0.000000100000000 1 1 0
1  2 0 0.000000000000000 12.000000000000000
2  3 3 0 0.000000000000000 12.000000000000000
2  4 1 0 0.000000000000000 12.000000000000000
0

0101000
+28 4 -28 6 *
Ed
 0.000000100000602 1 1 0
1  3 0 0.000000000000000 80.000000000000000
2  5 4 7 0.000000000000000 80.000000000000000
2  6 1 8 0.000000000000000 80.000000000000000
2  7 1 9 0.000000000000000 80.000000000000000
2  8 5 17 0.000000000000000 80.000000000000000
0

0101000
+30 0 -28 0 *
Wi

0101100
+29 0 -27 0 -26 4 +26 6 *
Fa
0  0.000000100000000 1 0

0111000
+25 0 *
Ve
0.000000100000000
-3516.620000000003529 -80.000000000004761 0.000000000000000
0 0

0101101
*
Ed
 0.000000100000000 1 1 0
1  4 0 0.000000000000000 12.000000000000000
2  9 3 0 0.000000000000000 12.000000000000000
0

0101000
+23 4 -23 6 *
Ed
 0.000000100000000 1 1 0
1  5 0 0.000000000000000 95.000000000000000
2  10 3 8 0.000000000000000 95.000000000000000
2  11 3 9 0.000000000000000 95.000000000000000
2  12 4 7 0.000000000000000 95.000000000000000
0

0101000
+28 0 -23 0 *
Wi

0101100
+27 0 -22 0 -21 4 +21 6 *
Fa
0  0.000000100000000 3 0

0111000
+20 0 *
Ve
0.000000100000000
-3596.620000000003529 -80.000000000004761 0.000000000000000
0 0

0101101
*
Ed
 0.000000100000000 1 1 0
1  6 0 0.000000000000000 12.000000000000000
2  13 2 0 0.000000000000000 12.000000000000000
0

0101000
+18 4 -18 6 *
Ed
 0.000000100000000 1 1 0
1  7 0 0.000000000000000 80.000000000000000
2  14 4 7 0.000000000000000 80.000000000000000
0

0101000
+23 0 -18 0 *
Wi

0101100
+22 0 -17 0 -16 4 +16 6 *
Fa
0  0.000000100000000 6 0

0111000
+15 0 *
Ed
 0.000000100000000 1 1 0
1  8 0 0.000000000000000 95.000000000000000
2  15 2 8 0.000000000000000 95.000000000000000
2  16 2 9 0.000000000000000 95.000000000000000
2  17 4 7 0.000000000000000 95.000000000000000
0

0101000
+18 0 -30 0 *
Wi

0101100
+17 0 -29 0 -13 4 +13 6 *
Fa
0  0.000000100000000 2 0

0111000
+12 0 *
Ve
0.000000100000000
-3551.620000000003529 -40.000000000004761 0.000000000000000
0 0

0101101
*
Ed
 0.000000100000000 1 1 0
1  9 0 0.000000000000000 12.000000000000000
3  18 19CN 7 0 0.000000000000000 12.000000000000000
0

0101000
+10 4 -10 6 *
Ed
 0.000000100000000 1 1 0
1  10 0 0.000000000000000 6.283185307179586
2  20 7 8 0.000000000000000 6.283185307179586
2  21 7 9 0.000000000000000 6.283185307179586
2  22 4 7 0.000000000000000 6.283185307179586
0

0101000
+10 0 -10 0 *
Wi

0101100
+9 0 -9 0 -8 4 +8 6 *
Fa
0  0.000000100000000 7 0

0111000
+7 0 *
Wi

0101100
+26 19 +21 19 +16 19 +13 19 *
Wi

0101100
+8 19 *
Fa
0  0.000000100000000 4 0

0111000
+5 0 +4 0 *
Sh

0101100
+24 0 +19 0 +14 0 +11 0 +6 0 +3 18 -3 20 *
So

1100000
+2 0 *

+1 0 