
CASCADE Topology V1, (c) Matra-Datavision
Locations 13
1
0.000000000000000 0.000000000000000 1.000000000000000 0.000000000000000 
1.000000000000000 0.000000000000000 0.000000000000000 0.000000000000000 
0.000000000000000 1.000000000000000 0.000000000000000 0.000000000000000 
1
1.000000000000000 0.000000000000000 0.000000000000000 0.000000000000000 
0.000000000000000 1.000000000000000 0.000000000000000 0.000000000000000 
0.000000000000000 0.000000000000000 1.000000000000000 0.000000000000000 
1
0.000000000000000 -0.000000000000000 1.000000000000000 0.000000000000000 
1.000000000000000 0.000000000000000 -0.000000000000000 0.000000000000000 
-0.000000000000000 1.000000000000000 0.000000000000000 0.000000000000000 
1
-0.000000000000000 0.000000000000000 1.000000000000000 0.000000000000000 
1.000000000000000 -0.000000000000000 0.000000000000000 0.000000000000000 
0.000000000000000 1.000000000000000 -0.000000000000000 0.000000000000000 
2  2 1 3 1 4 -1 0
1
1.000000000000000 0.000000000000000 0.000000000000000 -0.000000000000007 
0.000000000000000 1.000000000000000 0.000000000000000 0.000000000000004 
0.000000000000000 0.000000000000000 1.000000000000000 15.000000000000000 
2  2 1 3 1 4 -1 6 1 0
2  3 -1 2 -1 0
2  4 1 3 -1 2 -1 0
2  6 -1 4 1 3 -1 2 -1 0
2  4 -1 0
2  2 1 3 1 0
2  4 -1 6 1 0
Curve2ds 12
1 250.00000000000000000 0.00000000000000102 -0.00000000000000016 -1.00000000000000000 
1 515.00000000000000000 125.00000000000000000 -1.00000000000000000 -0.00000000000000022 
1 0.00000000000000000 0.00000000000000000 0.00000000000000022 -1.00000000000000000 
1 -515.00000000000000000 125.00000000000000000 0.00000000000000022 -1.00000000000000000 
1 1030.00000000000022737 -0.00000000000000000 0.00000000000000022 -1.00000000000000000 
1 0.00000000000000000 0.00000000000000000 -0.00000000000000016 -1.00000000000000000 
1 -515.00000000000000000 -125.00000000000000000 1.00000000000000000 0.00000000000000022 
1 0.00000000000000000 0.00000000000000000 1.00000000000000000 0.00000000000000000 
1 -0.00000000000000333 -15.00000000000000000 1.00000000000000000 0.00000000000000000 
1 515.00000000000000000 -125.00000000000000000 -0.00000000000000022 1.00000000000000000 
1 -0.00000000000090949 -0.00000000000267475 1.00000000000000000 -0.00000000000000044 
1 -0.00000000000091609 -15.00000000000267519 1.00000000000000000 -0.00000000000000044 
Curves 8
1 -802.00000000000022737 5872.00050000000101136 -0.00000000000278577 -0.00000000000000044 0.00000000000000028 1.00000000000000000 
1 228.00000000000011369 5872.00050000000101136 -0.00000000000255707 -0.00000000000000044 0.00000000000000028 1.00000000000000000 
1 -802.00000000000125056 5872.00050000000010186 0.00000000000000000 1.00000000000000000 0.00000000000000000 0.00000000000000000 
1 228.00000000000005684 5622.00050000000101136 -0.00000000000244604 -0.00000000000000044 0.00000000000000028 1.00000000000000000 
1 227.99999999999874944 5872.00050000000010186 0.00000000000000000 0.00000000000000000 -1.00000000000000000 0.00000000000000000 
1 -802.00000000000022737 5622.00050000000101136 -0.00000000000267475 -0.00000000000000044 0.00000000000000028 1.00000000000000000 
1 227.99999999999874944 5622.00050000000010186 0.00000000000000000 -1.00000000000000000 0.00000000000000000 0.00000000000000000 
1 -802.00000000000125056 5622.00050000000010186 0.00000000000000000 0.00000000000000000 1.00000000000000000 0.00000000000000000 
Polygon3D 0
PolygonOnTriangulations 0
Surfaces 5
1 -802.00000000000022737 5872.00050000000101136 -0.00000000000278577 0.00000000000000044 1.00000000000000000 -0.00000000000000028 1.00000000000000000 -0.00000000000000044 0.00000000000000022 0.00000000000000022 -0.00000000000000028 -1.00000000000000000 
1 -802.00000000000022737 5622.00050000000101136 -0.00000000000267475 -1.00000000000000000 0.00000000000000022 -0.00000000000000044 0.00000000000000022 1.00000000000000000 -0.00000000000000044 0.00000000000000044 -0.00000000000000044 -1.00000000000000000 
1 -0.00000000000133982 -287.00000000000000000 5747.00050000000010186 -1.00000000000000000 0.00000000000000022 -0.00000000000000022 -0.00000000000000022 -1.00000000000000000 0.00000000000000000 -0.00000000000000022 0.00000000000000000 1.00000000000000000 
1 228.00000000000011369 5872.00050000000101136 -0.00000000000255707 1.00000000000000000 -0.00000000000000022 0.00000000000000044 -0.00000000000000022 -1.00000000000000000 0.00000000000000044 0.00000000000000044 -0.00000000000000044 -1.00000000000000000 
1 228.00000000000005684 5622.00050000000101136 -0.00000000000244604 -0.00000000000000044 -1.00000000000000000 0.00000000000000028 -1.00000000000000000 0.00000000000000044 -0.00000000000000022 0.00000000000000022 -0.00000000000000028 -1.00000000000000000 
Triangulations 0

TShapes 24
Ve
0.000000100000000
-802.000000000001251 5872.000500000000102 0.000000000000000
0 0

0101101
*
Ed
 0.000000100000000 1 1 0
1  1 0 0.000000000000000 15.000000000000000
2  1 2 0 0.000000000000000 15.000000000000000
0

0101000
+24 5 -24 7 *
Ve
0.000000100000000
227.999999999998749 5872.000500000000102 0.000000000000000
0 0

0101101
*
Ed
 0.000000100000000 1 1 0
1  2 0 0.000000000000000 15.000000000000000
0

0101000
+22 5 -22 7 *
Ed
 0.000000100000000 1 1 0
1  3 0 0.000000000000000 1030.000000000000000
2  2 3 8 0.000000000000000 1030.000000000000000
0

0101000
+24 0 -22 0 *
Wi

0101100
+23 0 -21 0 -20 5 +20 7 *
Fa
0  0.000000100000000 1 0

0111000
+19 0 *
Ve
0.000000100000000
227.999999999998749 5622.000500000000102 0.000000000000000
0 0

0101101
*
Ed
 0.000000100000000 1 1 0
1  4 0 0.000000000000000 15.000000000000000
2  3 5 0 0.000000000000000 15.000000000000000
0

0101000
+17 5 -17 7 *
Ed
 0.000000100000000 1 1 0
1  5 0 0.000000000000000 250.000000000000000
2  4 3 8 0.000000000000000 250.000000000000000
0

0101000
+22 0 -17 0 *
Wi

0101100
+21 0 -16 0 -15 5 +15 7 *
Fa
0  0.000000100000000 4 0

0111000
+14 0 *
Ve
0.000000100000000
-802.000000000001251 5622.000500000000102 0.000000000000000
0 0

0101101
*
Ed
 0.000000100000000 1 1 0
1  6 0 0.000000000000000 15.000000000000000
2  5 5 0 0.000000000000000 15.000000000000000
2  6 2 0 0.000000000000000 15.000000000000000
0

0101000
+12 5 -12 7 *
Ed
 0.000000100000000 1 1 0
1  7 0 0.000000000000000 1030.000000000000000
2  7 3 8 0.000000000000000 1030.000000000000000
2  8 5 9 0.000000000000000 1030.000000000000000
2  9 5 10 0.000000000000000 1030.000000000000000
0

0101000
+17 0 -12 0 *
Wi

0101100
+16 0 -11 0 -10 5 +10 7 *
Fa
0  0.000000100000000 5 0

0111000
+9 0 *
Ed
 0.000000100000000 1 1 0
1  8 0 0.000000000000000 250.000000000000000
2  10 3 8 0.000000000000000 250.000000000000000
2  11 2 9 0.000000000000000 250.000000000000000
2  12 2 10 0.000000000000000 250.000000000000000
0

0101000
+12 0 -24 0 *
Wi

0101100
+11 0 -23 0 -7 5 +7 7 *
Fa
0  0.000000100000000 2 0

0111000
+6 0 *
Wi

0101100
+20 0 +15 0 +10 0 +7 0 *
Fa
0  0.000000100000000 3 0

0111000
+4 12 *
Sh

0101100
+18 0 +13 0 +8 0 +5 0 +3 11 -3 13 *
So

0100000
+2 0 *

+1 1 