
CASCADE Topology V1, (c) Matra-Datavision
Locations 45
1
1.000000000000000 0.000000000000000 0.000000000000000 0.000000000000000 
0.000000000000000 1.000000000000000 0.000000000000000 0.000000000000000 
0.000000000000000 0.000000000000000 1.000000000000000 0.000000000000000 
1
1.000000000000000 0.000000000000000 0.000000000000000 0.000000000000000 
0.000000000000000 1.000000000000000 0.000000000000000 0.000000000000000 
0.000000000000000 0.000000000000000 1.000000000000000 0.000000000000000 
1
1.000000000000000 0.000000000000000 0.000000000000000 0.000000000000000 
0.000000000000000 1.000000000000000 0.000000000000000 0.000000000000000 
0.000000000000000 0.000000000000000 1.000000000000000 0.000000000000000 
2  2 1 3 -1 0
1
1.000000000000000 0.000000000000000 0.000000000000000 0.000000000000000 
0.000000000000000 1.000000000000000 0.000000000000000 0.000000000000000 
0.000000000000000 0.000000000000000 1.000000000000000 0.000000000000000 
1
1.000000000000000 0.000000000000000 0.000000000000000 0.000000000000000 
0.000000000000000 1.000000000000000 0.000000000000000 0.000000000000000 
0.000000000000000 0.000000000000000 1.000000000000000 0.000000000000000 
2  5 1 6 -1 0
1
1.000000000000000 0.000000000000000 0.000000000000000 0.000000000000000 
0.000000000000000 1.000000000000000 0.000000000000000 0.000000000000000 
0.000000000000000 0.000000000000000 1.000000000000000 0.000000000000000 
1
1.000000000000000 0.000000000000000 0.000000000000000 0.000000000000000 
0.000000000000000 1.000000000000000 0.000000000000000 0.000000000000000 
0.000000000000000 0.000000000000000 1.000000000000000 0.000000000000000 
1
1.000000000000000 0.000000000000000 0.000000000000000 0.000000000000000 
0.000000000000000 1.000000000000000 0.000000000000000 0.000000000000000 
0.000000000000000 0.000000000000000 1.000000000000000 0.000000000000000 
2  8 1 9 1 10 -1 0
1
1.000000000000000 0.000000000000000 0.000000000000000 -0.000000000000000 
0.000000000000000 1.000000000000000 0.000000000000000 -0.000000000000000 
0.000000000000000 0.000000000000000 1.000000000000000 -50.000000000000000 
2  8 1 9 1 10 -1 12 1 0
2  8 1 9 1 10 -1 5 1 6 -1 0
2  10 1 9 -1 8 -1 0
2  12 -1 10 1 9 -1 8 -1 0
2  8 1 9 1 10 -1 12 1 5 1 6 -1 0
1
1.000000000000000 0.000000000000000 0.000000000000000 0.000000000000000 
0.000000000000000 1.000000000000000 0.000000000000000 0.000000000000000 
0.000000000000000 0.000000000000000 1.000000000000000 0.000000000000000 
1
-1.000000000000000 0.000000000000000 -0.000000000000006 0.000000000006276 
-0.000000000000006 0.000000000000000 1.000000000000000 -1020.000000000029331 
0.000000000000000 1.000000000000000 -0.000000000000000 0.000000000000000 
2  18 1 19 1 6 -1 0
2  6 1 19 -1 18 -1 0
1
1.000000000000000 0.000000000000000 0.000000000000000 0.000000000000031 
0.000000000000000 1.000000000000000 0.000000000000000 -5.000000000000000 
0.000000000000000 0.000000000000000 1.000000000000000 0.000000000000001 
2  22 -1 6 1 19 -1 18 -1 0
2  19 -1 18 -1 0
2  5 1 19 -1 18 -1 0
2  5 1 6 -1 2 1 3 -1 0
2  8 1 9 1 10 -1 5 1 6 -1 2 1 3 -1 0
2  8 1 9 1 10 -1 12 1 5 1 6 -1 2 1 3 -1 0
1
1.000000000000000 0.000000000000000 0.000000000000000 0.000000000000000 
0.000000000000000 1.000000000000000 0.000000000000000 0.000000000000000 
0.000000000000000 0.000000000000000 1.000000000000000 0.000000000000000 
1
0.000000000000000 0.000000000000000 1.000000000000000 4776.000000000000000 
1.000000000000000 0.000000000000000 0.000000000000000 0.000000000000000 
0.000000000000000 1.000000000000000 0.000000000000000 0.000000000000000 
2  29 1 30 1 3 -1 0
2  3 1 30 -1 29 -1 0
1
1.000000000000000 0.000000000000000 0.000000000000000 -5.000000000000000 
0.000000000000000 1.000000000000000 0.000000000000000 -0.000000000000000 
0.000000000000000 0.000000000000000 1.000000000000000 -0.000000000000000 
2  33 -1 3 1 30 -1 29 -1 0
2  30 -1 29 -1 0
2  5 1 6 -1 2 1 30 -1 29 -1 0
2  10 -1 5 1 6 -1 2 1 3 -1 0
2  8 1 9 1 0
2  10 -1 12 1 5 1 6 -1 2 1 3 -1 0
2  18 1 19 1 6 -1 22 1 0
2  29 1 30 1 3 -1 33 1 0
2  6 -1 22 1 2 1 3 -1 0
2  18 1 19 1 0
2  3 -1 33 1 0
2  29 1 30 1 0
Curve2ds 36
1 0.00000000000000000 0.00000000000000000 0.00000000000000000 -1.00000000000000000 
1 579.10980544585845564 0.00000000000000000 0.00000000000000000 -1.00000000000000000 
1 0.00000000000000000 0.00000000000000000 1.00000000000000000 0.00000000000000000 
1 -0.00000000000000000 -50.00000000000000000 1.00000000000000000 0.00000000000000000 
1 1053.23967163026190974 0.00000000000000000 0.00000000000000000 -1.00000000000000000 
1 0.00000000000000000 0.00000000000000000 1.00000000000000000 0.00000000000000000 
1 0.00000000000000000 -5.00000000000000000 1.00000000000000000 0.00000000000000000 
2 0.00000000000045475 0.00000000000000355 -1.00000000000000000 -0.00000000000000000 0.00000000000000000 -1.00000000000000000 5.00000000000000000
2 913.23967163026190974 -25.00000000000000000 1.00000000000000000 0.00000000000000000 -0.00000000000000000 1.00000000000000000 5.00000000000000000
1 0.00000000000000000 0.00000000000000000 1.00000000000000000 0.00000000000000000 
1 0.00000000000000000 -5.00000000000000000 1.00000000000000000 0.00000000000000000 
2 0.00000000000045475 0.00000000000000355 -1.00000000000000000 -0.00000000000000000 0.00000000000000000 -1.00000000000000000 5.00000000000000000
2 973.23967163026190974 -25.00000000000000000 1.00000000000000000 0.00000000000000000 -0.00000000000000000 1.00000000000000000 5.00000000000000000
1 0.00000000000000000 0.00000000000000000 0.00000000000000000 -1.00000000000000000 
1 1187.78591687753373662 0.00000000000000000 0.00000000000000000 -1.00000000000000000 
1 0.00000000000000000 0.00000000000000000 1.00000000000000000 0.00000000000000000 
1 0.00000000000000000 -50.00000000000000000 1.00000000000000000 0.00000000000000000 
1 0.00000000000000000 0.00000000000000000 1.00000000000000000 0.00000000000000000 
1 0.00000000000000000 -5.00000000000000000 1.00000000000000000 0.00000000000000000 
2 -0.00000000000000355 0.00000000000022737 0.00000000000000000 -1.00000000000000000 1.00000000000000000 0.00000000000000000 5.00000000000000000
2 80.00000000000000000 -25.00000000000000000 1.00000000000000000 0.00000000000000000 -0.00000000000000000 1.00000000000000000 5.00000000000000000
1 0.00000000000000000 0.00000000000000000 1.00000000000000000 0.00000000000000000 
1 0.00000000000000000 -5.00000000000000000 1.00000000000000000 0.00000000000000000 
2 -0.00000000000000355 0.00000000000000000 0.00000000000000000 -1.00000000000000000 1.00000000000000000 0.00000000000000000 5.00000000000000000
2 499.10980544585845564 -25.00000000000000000 1.00000000000000000 0.00000000000000000 -0.00000000000000000 1.00000000000000000 5.00000000000000000
1 0.00000000000000000 0.00000000000000000 1.00000000000000000 0.00000000000000000 
1 0.00000000000000000 -50.00000000000000000 1.00000000000000000 0.00000000000000000 
1 0.00000000000000000 0.00000000000000000 0.00000000000000000 -1.00000000000000000 
1 0.00000000000000000 0.00000000000000000 0.00000000000000000 -1.00000000000000000 
1 6.28318530717958623 0.00000000000000000 0.00000000000000000 -1.00000000000000000 
1 0.00000000000000000 0.00000000000000000 0.00000000000000000 -1.00000000000000000 
1 6.28318530717958623 0.00000000000000000 0.00000000000000000 -1.00000000000000000 
1 0.00000000000000000 0.00000000000000000 0.00000000000000000 -1.00000000000000000 
1 6.28318530717958623 0.00000000000000000 0.00000000000000000 -1.00000000000000000 
1 0.00000000000000000 0.00000000000000000 0.00000000000000000 -1.00000000000000000 
1 6.28318530717958623 0.00000000000000000 0.00000000000000000 -1.00000000000000000 
Curves 16
1 4776.00000000000000000 -1020.00000000000000000 0.00000000000000000 -0.00000000000000000 -0.00000000000000000 -1.00000000000000000 
1 4776.00000000000000000 -1020.00000000000000000 0.00000000000000000 -1.00000000000000000 -0.00000000000000615 0.00000000000000000 
1 3722.76032836973809026 -1020.00000000000648015 0.00000000000000000 -0.00000000000000000 -0.00000000000000000 -1.00000000000000000 
2 -3862.76032836973172380 -25.00000000000000000 0.00000000000000000 0.00000000000000000 0.00000000000000000 1.00000000000000000 1.00000000000000000 0.00000000000000000 -0.00000000000000000 -0.00000000000000000 1.00000000000000000 0.00000000000000000 5.00000000000000000
2 -3802.76032836973172380 -25.00000000000000000 0.00000000000000000 0.00000000000000000 0.00000000000000000 1.00000000000000000 1.00000000000000000 0.00000000000000000 -0.00000000000000000 -0.00000000000000000 1.00000000000000000 0.00000000000000000 5.00000000000000000
1 4776.00000000000000000 -1599.10980544585845564 0.00000000000000000 -0.00000000000000000 -0.00000000000000000 -1.00000000000000000 
1 4776.00000000000000000 -1599.10980544585845564 0.00000000000000000 0.00000000000000000 1.00000000000000000 0.00000000000000000 
2 -1519.10980544585845564 -25.00000000000000000 0.00000000000000000 0.00000000000000000 0.00000000000000000 1.00000000000000000 1.00000000000000000 0.00000000000000000 -0.00000000000000000 -0.00000000000000000 1.00000000000000000 0.00000000000000000 5.00000000000000000
2 -1100.00000000000000000 -25.00000000000000000 0.00000000000000000 0.00000000000000000 0.00000000000000000 1.00000000000000000 1.00000000000000000 0.00000000000000000 -0.00000000000000000 -0.00000000000000000 1.00000000000000000 0.00000000000000000 5.00000000000000000
1 3722.76032836973809026 -1020.00000000000648015 0.00000000000000000 0.00000000000000000 -1.00000000000000000 0.00000000000000000 
1 3722.76032836973809026 -1050.00000000000636646 0.00000000000000000 0.88672517215815405 -0.46229694900690416 0.00000000000000000 
1 3722.76032836973809026 -1050.00000000000636646 0.00000000000000000 -0.00000000000000000 -0.00000000000000000 -1.00000000000000000 
1 3857.76032836973809026 -1020.00000000000557066 -25.00000000000000000 0.00000000000000615 -1.00000000000000000 0.00000000000000022 
1 3797.76032836973809026 -1020.00000000000602540 -25.00000000000000000 0.00000000000000615 -1.00000000000000000 0.00000000000000022 
1 4776.00000000000000000 -1514.10980544585845564 -25.00000000000000000 -1.00000000000000000 -0.00000000000000000 -0.00000000000000000 
1 4776.00000000000000000 -1095.00000000000000000 -25.00000000000000000 -1.00000000000000000 -0.00000000000000000 -0.00000000000000000 
Polygon3D 0
PolygonOnTriangulations 0
Surfaces 13
1 4776.00000000000000000 -1020.00000000000000000 0.00000000000000000 -0.00000000000000615 1.00000000000000000 0.00000000000000000 -1.00000000000000000 -0.00000000000000615 0.00000000000000000 0.00000000000000000 0.00000000000000000 1.00000000000000000 
1 4776.00000000000000000 -1599.10980544585845564 0.00000000000000000 1.00000000000000000 0.00000000000000000 0.00000000000000000 -0.00000000000000000 1.00000000000000000 0.00000000000000000 0.00000000000000000 -0.00000000000000000 1.00000000000000000 
2 3862.76032836973809026 -1020.00000000000557066 -25.00000000000000000 -0.00000000000000615 1.00000000000000000 -0.00000000000000022 -1.00000000000000000 -0.00000000000000615 0.00000000000000000 -0.00000000000000000 0.00000000000000022 1.00000000000000000 5.00000000000000000
1 3862.76032836973763551 -1020.00000000000545697 -24.99999999999999645 0.00000000000000000 1.00000000000000000 -0.00000000000000000 1.00000000000000000 -0.00000000000000000 0.00000000000000000 0.00000000000000000 -0.00000000000000000 -1.00000000000000000 
2 3802.76032836973809026 -1020.00000000000591172 -25.00000000000000000 -0.00000000000000615 1.00000000000000000 -0.00000000000000022 -1.00000000000000000 -0.00000000000000615 0.00000000000000000 -0.00000000000000000 0.00000000000000022 1.00000000000000000 5.00000000000000000
1 3802.76032836973763551 -1020.00000000000591172 -24.99999999999999645 -0.00000000000001516 1.00000000000000000 -0.00000000000000000 1.00000000000000000 0.00000000000001516 0.00000000000000000 0.00000000000000000 0.00000000000000000 -1.00000000000000000 
1 3722.76032836973809026 -1050.00000000000636646 0.00000000000000000 -0.46229694900690416 -0.88672517215815405 0.00000000000000000 0.88672517215815405 -0.46229694900690416 0.00000000000000000 0.00000000000000000 0.00000000000000000 1.00000000000000000 
2 4776.00000000000000000 -1519.10980544585845564 -25.00000000000000000 1.00000000000000000 0.00000000000000000 0.00000000000000000 -0.00000000000000000 1.00000000000000000 0.00000000000000000 0.00000000000000000 -0.00000000000000000 1.00000000000000000 5.00000000000000000
1 4776.00000000000000000 -1519.10980544585822827 -24.99999999999999645 1.00000000000000000 0.00000000000000000 0.00000000000000000 -0.00000000000000000 0.00000000000000000 1.00000000000000000 0.00000000000000000 -1.00000000000000000 0.00000000000000000 
2 4776.00000000000000000 -1100.00000000000000000 -25.00000000000000000 1.00000000000000000 0.00000000000000000 0.00000000000000000 -0.00000000000000000 1.00000000000000000 0.00000000000000000 0.00000000000000000 -0.00000000000000000 1.00000000000000000 5.00000000000000000
1 4776.00000000000000000 -1100.00000000000000000 -24.99999999999999645 1.00000000000000000 0.00000000000000000 0.00000000000000000 -0.00000000000000000 0.00000000000000000 1.00000000000000000 0.00000000000000000 -1.00000000000000000 0.00000000000000000 
1 4350.83924441026192653 -1205.91401267328592439 0.00000000000000000 0.00000000000000000 0.00000000000000000 1.00000000000000000 1.00000000000000000 0.00000000000000000 -0.00000000000000000 -0.00000000000000000 1.00000000000000000 0.00000000000000000 
1 3722.76032836973809026 -1020.00000000000648015 0.00000000000000000 -1.00000000000000000 0.00000000000000000 0.00000000000000000 0.00000000000000000 -1.00000000000000000 0.00000000000000000 0.00000000000000000 0.00000000000000000 1.00000000000000000 
Triangulations 0

TShapes 56
Ve
0.000000100000000
4776.000000000000000 -1020.000000000000000 0.000000000000000
0 0

0101101
*
Ed
 0.000000100000000 1 1 0
1  1 0 0.000000000000000 50.000000000000000
2  1 1 0 0.000000000000000 50.000000000000000
2  2 2 0 0.000000000000000 50.000000000000000
0

0101000
+56 11 -56 13 *
Ve
0.000000100000000
3722.760328369738090 -1020.000000000006480 0.000000000000000
0 0

0101101
*
Ed
 0.000000100000000 1 1 0
1  2 0 0.000000000000000 1053.239671630261910
2  3 1 15 0.000000000000000 1053.239671630261910
2  4 1 16 0.000000000000000 1053.239671630261910
0

0101000
+56 0 -54 0 *
Ed
 0.000000100000000 1 1 0
1  3 0 0.000000000000000 50.000000000000000
2  5 1 0 0.000000000000000 50.000000000000000
0

0101000
+54 11 -54 13 *
Wi

0101100
+55 7 -53 14 +53 17 -52 7 *
Ve
0.000000100000114
-3857.760328369731724 -25.000000000000000 0.000000000000000
0 0

0101101
*
Ed
 0.000000100000114 1 1 0
1  4 0 0.000000000000000 6.283185307179586
2  6 3 21 0.000000000000000 6.283185307179586
2  7 3 23 0.000000000000000 6.283185307179586
2  8 4 24 0.000000000000000 6.283185307179586
2  9 1 25 0.000000000000000 6.283185307179586
0

0101000
+50 0 -50 0 *
Wi

0101100
-49 20 *
Ve
0.000000100000114
-3797.760328369731724 -25.000000000000000 0.000000000000000
0 0

0101101
*
Ed
 0.000000100000114 1 1 0
1  5 0 0.000000000000000 6.283185307179586
2  10 5 21 0.000000000000000 6.283185307179586
2  11 5 23 0.000000000000000 6.283185307179586
2  12 6 24 0.000000000000000 6.283185307179586
2  13 1 25 0.000000000000000 6.283185307179586
0

0101000
+47 0 -47 0 *
Wi

0101100
-46 20 *
Fa
0  0.000000100000000 1 7

0111000
+51 0 +48 0 +45 0 *
Ve
0.000000100000000
4776.000000000000000 -1599.109805445858456 0.000000000000000
0 0

0101101
*
Ed
 0.000000100000000 1 1 0
1  6 0 0.000000000000000 50.000000000000000
2  14 2 0 0.000000000000000 50.000000000000000
2  15 7 0 0.000000000000000 50.000000000000000
0

0101000
+43 11 -43 13 *
Ed
 0.000000100000000 1 1 0
1  7 0 0.000000000000000 579.109805445858456
2  16 2 15 0.000000000000000 579.109805445858456
2  17 2 16 0.000000000000000 579.109805445858456
0

0101000
+43 0 -56 0 *
Wi

0101100
+42 26 -41 27 +41 28 -55 26 *
Ve
0.000000100000000
-1514.109805445858456 -25.000000000000000 0.000000000000000
0 0

0101101
*
Ed
 0.000000100000000 1 1 0
1  8 0 0.000000000000000 6.283185307179586
2  18 8 32 0.000000000000000 6.283185307179586
2  19 8 34 0.000000000000000 6.283185307179586
2  20 9 35 0.000000000000000 6.283185307179586
2  21 2 36 0.000000000000000 6.283185307179586
0

0101000
+39 0 -39 0 *
Wi

0101100
-38 31 *
Ve
0.000000100000000
-1095.000000000000000 -25.000000000000000 0.000000000000000
0 0

0101101
*
Ed
 0.000000100000000 1 1 0
1  9 0 0.000000000000000 6.283185307179586
2  22 10 32 0.000000000000000 6.283185307179586
2  23 10 34 0.000000000000000 6.283185307179586
2  24 11 35 0.000000000000000 6.283185307179586
2  25 2 36 0.000000000000000 6.283185307179586
0

0101000
+36 0 -36 0 *
Wi

0101100
-35 31 *
Fa
0  0.000000100000000 2 26

0111000
+40 0 +37 0 +34 0 *
Ve
0.000000100000000
3722.760328369738090 -1050.000000000006366 0.000000000000000
0 0

0101101
*
Ed
 0.000000100000000 1 1 0
1  10 0 0.000000000000000 29.999999999999886
0

0101000
+54 0 -32 0 *
Ed
 0.000000100000000 1 1 0
1  11 0 0.000000000000000 1187.785916877533737
2  26 7 15 0.000000000000000 1187.785916877533737
2  27 7 16 0.000000000000000 1187.785916877533737
0

0101000
+32 0 -43 0 *
Wi

0101100
+53 0 +31 0 +30 0 +41 0 *
Fa
0  0.000000100000000 12 0

0111000
+29 38 *
Ed
 0.000000100000000 1 1 0
1  12 0 0.000000000000000 50.000000000000000
2  28 7 0 0.000000000000000 50.000000000000000
0

0101000
+32 11 -32 13 *
Wi

0101100
+52 0 -27 0 -31 11 +31 13 *
Fa
0  0.000000100000000 13 0

0111000
+26 0 *
Ed
 0.000000100000000 1 1 0
1  13 0 0.000000000000000 5.000000000000000
3  29 30CN 3 0 0.000000000000000 5.000000000000000
0

0101000
+50 20 -50 40 *
Wi

0101100
+24 0 -24 0 -49 20 +49 40 *
Fa
0  0.000000100000000 3 0

0111000
+23 0 *
Ed
 0.000000100000000 1 1 0
1  14 0 0.000000000000000 5.000000000000000
3  31 32CN 5 0 0.000000000000000 5.000000000000000
0

0101000
+47 20 -47 40 *
Wi

0101100
+21 0 -21 0 -46 20 +46 40 *
Fa
0  0.000000100000000 5 0

0111000
+20 0 *
Wi

0101100
+27 0 -42 0 -30 11 +30 13 *
Fa
0  0.000000100000000 7 0

0111000
+18 0 *
Ed
 0.000000100000000 1 1 0
1  15 0 0.000000000000000 5.000000000000000
3  33 34CN 8 0 0.000000000000000 5.000000000000000
0

0101000
+39 31 -39 41 *
Wi

0101100
+16 0 -16 0 -38 31 +38 41 *
Fa
0  0.000000100000000 8 0

0111000
+15 0 *
Ed
 0.000000100000000 1 1 0
1  16 0 0.000000000000000 5.000000000000000
3  35 36CN 10 0 0.000000000000000 5.000000000000000
0

0101000
+36 31 -36 41 *
Wi

0101100
+13 0 -13 0 -35 31 +35 41 *
Fa
0  0.000000100000000 10 0

0111000
+12 0 *
Wi

0101100
+49 0 *
Fa
0  0.000000100000000 4 0

0111000
+10 43 *
Wi

0101100
+46 0 *
Fa
0  0.000000100000000 6 0

0111000
+8 43 *
Wi

0101100
+38 0 *
Fa
0  0.000000100000000 9 0

0111000
+6 45 *
Wi

0101100
+35 0 *
Fa
0  0.000000100000000 11 0

0111000
+4 45 *
Sh

0101100
+44 4 +33 0 +28 37 -28 39 +25 26 -22 4 -19 4 +17 26 -14 0 -11 0 
+9 42 +7 42 +5 44 +3 44 *
So

0100000
+2 0 *

+1 1 