
CASCADE Topology V1, (c) Matra-Datavision
Locations 62
1
1.000000000000000 0.000000000000000 0.000000000000000 0.000000000000000 
0.000000000000000 1.000000000000000 0.000000000000000 -868.000000000000000 
0.000000000000000 0.000000000000000 1.000000000000000 0.000000000000000 
1
1.000000000000000 0.000000000000000 0.000000000000000 0.000000000000000 
0.000000000000000 -0.000000000000000 -1.000000000000000 0.000000000000000 
0.000000000000000 1.000000000000000 -0.000000000000000 0.000000000000000 
1
1.000000000000000 0.000000000000000 0.000000000000000 0.000000000000000 
0.000000000000000 -0.000000000000000 -1.000000000000000 0.000000000000000 
0.000000000000000 1.000000000000000 -0.000000000000000 0.000000000000000 
1
1.000000000000000 0.000000000000000 0.000000000000000 0.000000000000000 
0.000000000000000 -0.000000000000000 -1.000000000000000 0.000000000000000 
0.000000000000000 1.000000000000000 -0.000000000000000 0.000000000000000 
1
1.000000000000000 0.000000000000000 0.000000000000000 0.000000000000000 
0.000000000000000 -0.000000000000000 -1.000000000000000 0.000000000000000 
0.000000000000000 1.000000000000000 -0.000000000000000 0.000000000000000 
1
1.000000000000000 0.000000000000000 0.000000000000000 0.000000000000000 
0.000000000000000 -0.000000000000000 -1.000000000000000 0.000000000000000 
0.000000000000000 1.000000000000000 -0.000000000000000 0.000000000000000 
1
1.000000000000000 0.000000000000000 0.000000000000000 0.000000000000000 
0.000000000000000 -0.000000000000000 -1.000000000000000 0.000000000000000 
0.000000000000000 1.000000000000000 -0.000000000000000 0.000000000000000 
2  2 1 3 -1 4 1 5 -1 6 1 7 -1 0
1
1.000000000000000 0.000000000000000 0.000000000000000 0.000000000000000 
0.000000000000000 -0.000000000000000 -1.000000000000000 0.000000000000000 
0.000000000000000 1.000000000000000 -0.000000000000000 0.000000000000000 
2  9 -1 7 1 6 -1 5 1 4 -1 3 1 2 -1 0
1
1.000000000000000 0.000000000000000 0.000000000000000 0.000000000000000 
0.000000000000000 1.000000000000000 0.000000000000000 0.000000000000000 
0.000000000000000 0.000000000000000 1.000000000000000 0.000000000000000 
1
1.000000000000000 0.000000000000000 0.000000000000000 0.000000000000000 
0.000000000000000 -0.000000000000000 -1.000000000000000 0.000000000000000 
0.000000000000000 1.000000000000000 -0.000000000000000 0.000000000000000 
1
1.000000000000000 0.000000000000000 0.000000000000000 0.000000000000000 
0.000000000000000 -0.000000000000000 -1.000000000000000 0.000000000000000 
0.000000000000000 1.000000000000000 -0.000000000000000 0.000000000000000 
2  11 1 12 1 13 -1 0
2  9 -1 7 1 6 -1 5 1 4 -1 3 1 2 -1 13 1 12 -1 11 -1 0
1
1.000000000000000 0.000000000000000 0.000000000000000 0.000000000000000 
0.000000000000000 1.000000000000000 0.000000000000000 0.000000000000000 
0.000000000000000 0.000000000000000 1.000000000000000 15.000000000000000 
2  11 1 12 1 13 -1 16 1 0
2  9 -1 7 1 6 -1 5 1 4 -1 3 1 2 -1 16 -1 13 1 12 -1 11 -1 0
2  11 1 12 1 13 -1 2 1 3 -1 4 1 5 -1 6 1 7 -1 0
2  11 1 12 1 13 -1 16 1 2 1 3 -1 4 1 5 -1 6 1 7 -1 0
2  13 -1 2 1 3 -1 4 1 5 -1 6 1 7 -1 0
2  9 -1 0
1
1.000000000000000 0.000000000000000 0.000000000000000 0.000000000000000 
0.000000000000000 1.000000000000000 0.000000000000000 0.000000000000000 
0.000000000000000 0.000000000000000 1.000000000000000 0.000000000000000 
1
0.000000000000000 -0.000000000000000 1.000000000000000 1858.000000000000000 
-0.000000000000000 -1.000000000000000 0.000000000000000 0.000000000000000 
1.000000000000000 0.000000000000000 -0.000000000000000 0.000000000000000 
1
1.000000000000000 0.000000000000000 0.000000000000000 -12.000000000000000 
0.000000000000000 1.000000000000000 0.000000000000000 0.000000000000003 
0.000000000000000 0.000000000000000 1.000000000000000 -0.000000000000000 
2  23 1 24 1 7 -1 25 1 0
2  9 -1 25 -1 7 1 24 -1 23 -1 0
2  13 1 12 -1 11 -1 0
2  4 1 5 -1 6 1 7 -1 0
2  13 -1 16 1 2 1 3 -1 0
2  11 1 12 1 13 -1 16 1 2 1 3 -1 0
1
1.000000000000000 0.000000000000000 0.000000000000000 0.000000000000000 
0.000000000000000 1.000000000000000 0.000000000000000 0.000000000000000 
0.000000000000000 0.000000000000000 1.000000000000000 0.000000000000000 
1
1.000000000000000 0.000000000000000 0.000000000000000 0.000000000000000 
0.000000000000000 -0.000000000000000 -1.000000000000000 -15.000000000000000 
0.000000000000000 1.000000000000000 -0.000000000000000 -0.000000000000003 
2  32 1 33 1 3 -1 0
2  9 -1 7 1 6 -1 5 1 4 -1 3 1 33 -1 32 -1 0
2  16 -1 13 1 12 -1 11 -1 0
2  7 -1 0
2  23 1 24 1 7 -1 0
2  9 -1 7 1 24 -1 23 -1 0
2  7 1 24 -1 23 -1 0
2  2 1 3 -1 0
2  11 1 12 1 13 -1 2 1 3 -1 0
2  7 -1 25 1 0
2  23 1 24 1 0
2  25 -1 7 1 24 -1 23 -1 0
2  6 1 7 -1 0
2  4 1 5 -1 0
2  9 -1 7 1 6 -1 5 1 4 -1 0
2  32 1 33 1 3 -1 4 1 5 -1 0
1
1.000000000000000 0.000000000000000 0.000000000000000 0.000000000000000 
0.000000000000000 1.000000000000000 0.000000000000000 0.000000000000000 
0.000000000000000 0.000000000000000 1.000000000000000 122.000000000000000 
2  32 1 33 1 3 -1 50 1 4 1 5 -1 0
2  9 -1 7 1 6 -1 5 1 4 -1 50 -1 3 1 33 -1 32 -1 0
2  9 -1 7 1 6 -1 0
2  32 1 33 1 3 -1 50 1 0
2  11 1 12 1 13 -1 16 1 2 1 3 -1 4 1 5 -1 0
1
1.000000000000000 0.000000000000000 0.000000000000000 0.000000000000000 
0.000000000000000 1.000000000000000 0.000000000000000 0.000000000000000 
0.000000000000000 0.000000000000000 1.000000000000000 0.000000000000000 
1
0.000000000000000 0.000000000000000 -1.000000000000000 999.989999999999668 
0.000000000000000 -1.000000000000000 0.000000000000000 0.000000000000000 
-1.000000000000000 0.000000000000000 0.000000000000000 0.000000000000000 
2  56 1 57 1 5 -1 0
2  5 1 57 -1 56 -1 0
2  9 -1 7 1 6 -1 5 1 57 -1 56 -1 0
2  3 -1 50 1 4 1 5 -1 6 1 7 -1 0
2  32 1 33 1 0
Curve2ds 32
1 0.00000000000000000 0.00000000000000000 1.00000000000000000 0.00000000000000000 
1 0.00000000000000000 0.00000000000000000 1.00000000000000000 0.00000000000000000 
1 0.00000000000000000 0.00000000000000000 1.00000000000000000 0.00000000000000000 
1 0.00000000000000000 0.00000000000000000 1.00000000000000000 0.00000000000000000 
1 0.00000000000000000 -15.00000000000000000 1.00000000000000000 0.00000000000000000 
1 0.00000000000000000 -15.00000000000000000 1.00000000000000000 0.00000000000000000 
1 0.00000000000000000 -15.00000000000000000 1.00000000000000000 0.00000000000000000 
1 0.00000000000000000 -15.00000000000000000 1.00000000000000000 0.00000000000000000 
1 0.00000000000000000 0.00000000000000000 1.00000000000000000 0.00000000000000000 
1 0.00000000000000000 0.00000000000000000 1.00000000000000000 0.00000000000000000 
1 0.00000000000000000 -12.00000000000000000 1.00000000000000000 0.00000000000000000 
1 0.00000000000000000 -12.00000000000000000 1.00000000000000000 0.00000000000000000 
1 0.00000000000000000 0.00000000000000000 0.00000000000000000 -1.00000000000000000 
1 6.28318530717958623 0.00000000000000000 0.00000000000000000 -1.00000000000000000 
1 0.00000000000000000 0.00000000000000000 0.00000000000000000 -1.00000000000000000 
1 6.28318530717958623 0.00000000000000000 0.00000000000000000 -1.00000000000000000 
1 0.00000000000000000 0.00000000000000000 0.00000000000000000 -1.00000000000000000 
1 6.28318530717958623 0.00000000000000000 0.00000000000000000 -1.00000000000000000 
1 0.00000000000000000 0.00000000000000000 0.00000000000000000 -1.00000000000000000 
1 6.28318530717958623 0.00000000000000000 0.00000000000000000 -1.00000000000000000 
1 0.00000000000000000 -15.00000000000056843 1.00000000000000000 0.00000000000000000 
1 0.00000000000000000 -15.00000000000056843 1.00000000000000000 0.00000000000000000 
1 0.00000000000000000 0.00000000000000000 0.00000000000000000 -1.00000000000000000 
1 6.28318530717958623 0.00000000000000000 0.00000000000000000 -1.00000000000000000 
1 0.00000000000000000 0.00000000000000000 0.00000000000000000 -1.00000000000000000 
1 6.28318530717958623 0.00000000000000000 0.00000000000000000 -1.00000000000000000 
1 0.00000000000000000 0.00000000000000000 1.00000000000000000 0.00000000000000000 
1 0.00000000000000000 0.00000000000000000 1.00000000000000000 0.00000000000000000 
1 0.00000000000000000 0.00000000000000000 0.00000000000000000 -1.00000000000000000 
1 6.28318530717958623 0.00000000000000000 0.00000000000000000 -1.00000000000000000 
1 0.00000000000000000 0.00000000000000000 0.00000000000000000 -1.00000000000000000 
1 6.28318530717958623 0.00000000000000000 0.00000000000000000 -1.00000000000000000 
Curves 71
1 1858.00000000000000000 -0.00000000000069589 3134.00000000000000000 0.00000000000000000 -1.00000000000000000 -0.00000000000000022 
1 1568.26790078697922581 -0.00000000000069589 3134.00000000000000000 0.00000000000000000 -1.00000000000000000 -0.00000000000000022 
1 1858.00000000000000000 -0.00000000000069589 3134.00000000000000000 -1.00000000000000000 -0.00000000000000000 0.00000000000000000 
1 1858.00000000000000000 -15.00000000000069633 3119.00000000000000000 -1.00000000000000000 -0.00000000000000000 0.00000000000000000 
1 1858.00000000000000000 -0.00000000000064038 2884.00000000000000000 0.00000000000000000 -1.00000000000000000 -0.00000000000000022 
1 1858.00000000000000000 -0.00000000000064038 2884.00000000000000000 0.00000000000000000 -0.00000000000000022 1.00000000000000000 
1 1858.00000000000000000 -0.00000000000064038 2884.00000000000000000 0.00000000000000000 -0.00000000000000022 1.00000000000000000 
1 1858.00000000000000000 -15.00000000000063949 2869.00000000000000000 0.00000000000000000 -0.00000000000000022 1.00000000000000000 
1 1038.91123860663833511 -0.00000000000061562 2772.50000000000000000 0.00000000000000000 -1.00000000000000000 -0.00000000000000022 
1 1568.26790078697922581 -0.00000000000069589 3134.00000000000000000 -0.82580960346182397 0.00000000000000013 -0.56394902148175152 
1 1568.26790078697922581 -15.00000000000069633 3119.00000000000000000 -0.82580960346182397 0.00000000000000013 -0.56394902148175152 
1 1858.00000000000068212 -0.00000000000066924 3014.00000000000000000 -1.00000000000000000 -0.00000000000000000 0.00000000000000022 
1 -0.00000000000067191 3014.00000000000000000 0.00000000000066924 0.00000000000000022 -1.00000000000000000 -0.00000000000000022 
1 1645.48693562123139600 -0.00000000000064038 2884.00000000000000000 1.00000000000000000 0.00000000000000000 0.00000000000000000 
1 1116.13027344089050530 -0.00000000000056011 2522.50000000000000000 0.82580960346182397 -0.00000000000000013 0.56394902148175152 
1 999.98999999999966803 -0.00000000000056011 2522.50000000000000000 1.00000000000000000 0.00000000000000000 0.00000000000000000 
1 999.98999999999966803 -0.00000000000061562 2772.50000000000000000 0.00000000000000000 0.00000000000000022 -1.00000000000000000 
1 1038.91123860663833511 -0.00000000000061562 2772.50000000000000000 -1.00000000000000000 -0.00000000000000000 0.00000000000000000 
2 1394.00000000000000000 -0.00000000000064909 2923.25000000000000000 0.00000000000000000 -1.00000000000000000 -0.00000000000000022 1.00000000000000000 0.00000000000000000 0.00000000000000000 0.00000000000000000 -0.00000000000000022 1.00000000000000000 5.00000000000000000
2 1546.00000000000000000 -0.00000000000064909 2923.25000000000000000 0.00000000000000000 -1.00000000000000000 -0.00000000000000022 1.00000000000000000 0.00000000000000000 0.00000000000000000 0.00000000000000000 -0.00000000000000022 1.00000000000000000 5.00000000000000000
2 1666.00000000000000000 -0.00000000000069034 3109.00000000000000000 0.00000000000000000 -1.00000000000000000 -0.00000000000000022 1.00000000000000000 0.00000000000000000 0.00000000000000000 0.00000000000000000 -0.00000000000000022 1.00000000000000000 5.00000000000000000
2 1778.00000000000000000 -0.00000000000069034 3109.00000000000000000 0.00000000000000000 -1.00000000000000000 -0.00000000000000022 1.00000000000000000 0.00000000000000000 0.00000000000000000 0.00000000000000000 -0.00000000000000022 1.00000000000000000 5.00000000000000000
1 1645.48693562123139600 -15.00000000000063949 2869.00000000000000000 1.00000000000000000 0.00000000000000000 0.00000000000000000 
1 1116.13027344089050530 -15.00000000000055955 2507.50000000000000000 0.82580960346182397 -0.00000000000000013 0.56394902148175152 
1 999.98999999999966803 -15.00000000000055955 2507.50000000000000000 1.00000000000000000 0.00000000000000000 0.00000000000000000 
1 1014.98999999999966803 -15.00000000000061640 2757.50000000000000000 0.00000000000000000 0.00000000000000022 -1.00000000000000000 
1 1038.91123860663833511 -15.00000000000061640 2757.50000000000000000 -1.00000000000000000 -0.00000000000000000 0.00000000000000000 
2 1394.00000000000000000 -15.00000000000064837 2908.25000000000000000 0.00000000000000000 -1.00000000000000000 -0.00000000000000022 1.00000000000000000 0.00000000000000000 0.00000000000000000 0.00000000000000000 -0.00000000000000022 1.00000000000000000 5.00000000000000000
2 1546.00000000000000000 -15.00000000000064837 2908.25000000000000000 0.00000000000000000 -1.00000000000000000 -0.00000000000000022 1.00000000000000000 0.00000000000000000 0.00000000000000000 0.00000000000000000 -0.00000000000000022 1.00000000000000000 5.00000000000000000
2 1666.00000000000000000 -15.00000000000069100 3094.00000000000000000 0.00000000000000000 -1.00000000000000000 -0.00000000000000022 1.00000000000000000 0.00000000000000000 0.00000000000000000 0.00000000000000000 -0.00000000000000022 1.00000000000000000 5.00000000000000000
2 1778.00000000000000000 -15.00000000000069100 3094.00000000000000000 0.00000000000000000 -1.00000000000000000 -0.00000000000000022 1.00000000000000000 0.00000000000000000 0.00000000000000000 0.00000000000000000 -0.00000000000000022 1.00000000000000000 5.00000000000000000
1 1645.48693562123139600 -0.00000000000064038 2884.00000000000000000 0.00000000000000000 -1.00000000000000000 -0.00000000000000022 
1 1645.48693562123139600 -0.00000000000064038 2884.00000000000000000 1.00000000000000000 0.00000000000000000 0.00000000000000000 
1 -0.00000000000064038 2884.00000000000000000 0.00000000000064038 1.00000000000000000 0.00000000000000022 -0.00000000000000022 
1 79.99999999999936051 2884.00000000000000000 0.00000000000062261 -0.00000000000000022 1.00000000000000000 0.00000000000000022 
1 79.99999999999933209 3014.00000000000000000 0.00000000000065148 -1.00000000000000000 -0.00000000000000022 0.00000000000000022 
2 39.99999999999935341 2924.00000000000000000 0.00000000000064038 0.00000000000000022 -0.00000000000000022 1.00000000000000000 -0.00000000000000022 1.00000000000000000 0.00000000000000022 -1.00000000000000000 -0.00000000000000022 0.00000000000000022 5.00000000000000000
2 39.99999999999933920 2974.00000000000000000 0.00000000000065148 0.00000000000000022 -0.00000000000000022 1.00000000000000000 -0.00000000000000022 1.00000000000000000 0.00000000000000022 -1.00000000000000000 -0.00000000000000022 0.00000000000000022 5.00000000000000000
1 999.98999999999966803 -0.00000000000061562 2772.50000000000000000 0.00000000000000000 -1.00000000000000000 -0.00000000000000022 
1 1038.91123860663833511 -15.00000000000061640 2757.50000000000000000 -1.00000000000000000 -0.00000000000000000 0.00000000000000000 
1 1858.00000000000068212 79.99999999999933209 3014.00000000000000000 -1.00000000000000000 -0.00000000000000000 0.00000000000000022 
1 79.99999999999933209 3014.00000000000000000 0.00000000000065148 -1.00000000000000000 -0.00000000000000022 0.00000000000000022 
1 -0.00000000000064304 2884.00000000000000000 0.00000000000064038 1.00000000000000000 0.00000000000000022 -0.00000000000000022 
1 79.99999999999936051 2884.00000000000000000 0.00000000000062261 -0.00000000000000022 1.00000000000000000 0.00000000000000022 
2 39.99999999999935341 2924.00000000000000000 0.00000000000064038 0.00000000000000022 -0.00000000000000022 1.00000000000000000 -0.00000000000000022 1.00000000000000000 0.00000000000000022 -1.00000000000000000 -0.00000000000000022 0.00000000000000022 5.00000000000000000
2 39.99999999999933920 2974.00000000000000000 0.00000000000065148 0.00000000000000022 -0.00000000000000022 1.00000000000000000 -0.00000000000000022 1.00000000000000000 0.00000000000000022 -1.00000000000000000 -0.00000000000000022 0.00000000000000022 5.00000000000000000
1 1116.13027344089050530 -0.00000000000056011 2522.50000000000000000 0.00000000000000000 -1.00000000000000000 -0.00000000000000022 
1 999.98999999999966803 -0.00000000000056011 2522.50000000000000000 0.00000000000000000 -1.00000000000000000 -0.00000000000000022 
1 999.98999999999966803 -15.00000000000055955 2507.50000000000000000 1.00000000000000000 0.00000000000000000 0.00000000000000000 
1 999.98999999999966803 -15.00000000000061640 2757.50000000000000000 0.00000000000000000 0.00000000000000022 -1.00000000000000000 
1 1399.00000000000000000 -0.00000000000064909 2923.25000000000000000 0.00000000000000000 -1.00000000000000000 -0.00000000000000022 
1 1551.00000000000000000 -0.00000000000064909 2923.25000000000000000 0.00000000000000000 -1.00000000000000000 -0.00000000000000022 
1 1671.00000000000000000 -0.00000000000069034 3109.00000000000000000 0.00000000000000000 -1.00000000000000000 -0.00000000000000022 
1 1783.00000000000000000 -0.00000000000069034 3109.00000000000000000 0.00000000000000000 -1.00000000000000000 -0.00000000000000022 
1 1014.98999999999966803 -15.00000000000061640 2772.50000000000000000 0.00000000000000000 -1.00000000000000000 -0.00000000000000022 
1 1014.98999999999966803 -137.00000000000062528 2635.50000000000000000 0.00000000000000000 0.00000000000000022 -1.00000000000000000 
1 1014.98999999999966803 -15.00000000000055955 2522.50000000000000000 0.00000000000000000 -1.00000000000000000 -0.00000000000000022 
2 1014.98999999999966803 -76.00000000000058265 2652.50000000000000000 -1.00000000000000000 0.00000000000000000 -0.00000000000000022 0.00000000000000022 0.00000000000000022 -1.00000000000000000 0.00000000000000000 -1.00000000000000000 -0.00000000000000022 5.00000000000000000
2 1014.98999999999966803 -76.00000000000056843 2562.50000000000000000 -1.00000000000000000 0.00000000000000000 -0.00000000000000022 0.00000000000000022 0.00000000000000022 -1.00000000000000000 0.00000000000000000 -1.00000000000000000 -0.00000000000000022 5.00000000000000000
1 1858.00000000000068212 79.99999999999936051 2884.00000000000000000 -1.00000000000000000 -0.00000000000000000 0.00000000000000022 
1 1858.00000000000068212 39.99999999999934630 2929.00000000000000000 -1.00000000000000000 -0.00000000000000000 0.00000000000000022 
1 1858.00000000000068212 39.99999999999933920 2979.00000000000000000 -1.00000000000000000 -0.00000000000000000 0.00000000000000022 
1 999.98999999999966803 -15.00000000000061640 2772.50000000000000000 0.00000000000000000 -1.00000000000000000 -0.00000000000000022 
1 999.98999999999966803 -137.00000000000062528 2635.50000000000000000 1.00000000000000000 0.00000000000000000 0.00000000000000000 
1 999.98999999999966803 -15.00000000000055955 2522.50000000000000000 0.00000000000000000 -1.00000000000000000 -0.00000000000000022 
1 1014.98999999999966803 -137.00000000000056843 2385.50000000000000000 -1.00000000000000000 -0.00000000000000000 -0.00000000000000000 
1 999.98999999999966803 -137.00000000000056843 2385.50000000000000000 -0.00000000000000000 -0.00000000000000022 1.00000000000000000 
2 76.00000000000056843 2562.50000000000000000 0.00000000000058586 -0.00000000000000022 -0.00000000000000022 1.00000000000000000 -0.00000000000000022 -1.00000000000000000 -0.00000000000000022 1.00000000000000000 -0.00000000000000022 0.00000000000000022 5.00000000000000000
2 76.00000000000058265 2652.50000000000000000 0.00000000000060585 -0.00000000000000022 -0.00000000000000022 1.00000000000000000 -0.00000000000000022 -1.00000000000000000 -0.00000000000000022 1.00000000000000000 -0.00000000000000022 0.00000000000000022 5.00000000000000000
1 999.98999999999909960 -76.00000000000058265 2647.50000000000000000 1.00000000000000000 0.00000000000000000 0.00000000000000022 
1 999.98999999999909960 -76.00000000000056843 2557.50000000000000000 1.00000000000000000 0.00000000000000000 0.00000000000000022 
Polygon3D 0
PolygonOnTriangulations 0
Surfaces 28
1 1858.00000000000000000 -0.00000000000069589 3134.00000000000000000 0.00000000000000000 0.00000000000000022 -1.00000000000000000 -1.00000000000000000 0.00000000000000000 -0.00000000000000000 0.00000000000000000 1.00000000000000000 0.00000000000000022 
1 1858.00000000000000000 -0.00000000000064038 2884.00000000000000000 -1.00000000000000000 -0.00000000000000000 0.00000000000000000 0.00000000000000000 -0.00000000000000022 1.00000000000000000 0.00000000000000000 1.00000000000000000 0.00000000000000022 
1 1568.26790078697922581 -0.00000000000069589 3134.00000000000000000 0.56394902148175152 0.00000000000000018 -0.82580960346182397 -0.82580960346182397 0.00000000000000013 -0.56394902148175152 0.00000000000000001 1.00000000000000000 0.00000000000000022 
1 1421.04897275524945144 -2853.97561047222916386 -0.00000000000126742 0.00000000000000000 0.00000000000000044 -1.00000000000000000 0.00000000000000000 1.00000000000000000 0.00000000000000044 1.00000000000000000 -0.00000000000000000 0.00000000000000000 
2 1394.00000000000000000 -0.00000000000064909 2923.25000000000000000 -0.00000000000000000 1.00000000000000000 0.00000000000000022 1.00000000000000000 0.00000000000000000 0.00000000000000000 -0.00000000000000000 -0.00000000000000022 1.00000000000000000 5.00000000000000000
2 1546.00000000000000000 -0.00000000000064909 2923.25000000000000000 -0.00000000000000000 1.00000000000000000 0.00000000000000022 1.00000000000000000 0.00000000000000000 0.00000000000000000 -0.00000000000000000 -0.00000000000000022 1.00000000000000000 5.00000000000000000
2 1666.00000000000000000 -0.00000000000069034 3109.00000000000000000 -0.00000000000000000 1.00000000000000000 0.00000000000000022 1.00000000000000000 0.00000000000000000 0.00000000000000000 -0.00000000000000000 -0.00000000000000022 1.00000000000000000 5.00000000000000000
2 1778.00000000000000000 -0.00000000000069034 3109.00000000000000000 -0.00000000000000000 1.00000000000000000 0.00000000000000022 1.00000000000000000 0.00000000000000000 0.00000000000000000 -0.00000000000000000 -0.00000000000000022 1.00000000000000000 5.00000000000000000
1 1421.04897275524945144 -2838.97561047222916386 -15.00000000000126299 0.00000000000000000 0.00000000000000044 -1.00000000000000000 0.00000000000000000 1.00000000000000000 0.00000000000000044 1.00000000000000000 -0.00000000000000000 0.00000000000000000 
1 1645.48693562123139600 -0.00000000000064038 2884.00000000000000000 0.00000000000000000 -0.00000000000000022 1.00000000000000000 1.00000000000000000 0.00000000000000000 0.00000000000000000 -0.00000000000000000 1.00000000000000000 0.00000000000000022 
1 1858.00000000000045475 -2949.00000000000000000 39.99999999999869971 1.00000000000000000 -0.00000000000000000 0.00000000000000000 -0.00000000000000000 -0.00000000000000022 1.00000000000000000 0.00000000000000000 -1.00000000000000000 -0.00000000000000022 
2 1858.00000000000068212 39.99999999999935341 2924.00000000000000000 1.00000000000000000 0.00000000000000000 -0.00000000000000022 0.00000000000000022 -0.00000000000000022 1.00000000000000000 -0.00000000000000000 -1.00000000000000000 -0.00000000000000022 5.00000000000000000
2 1858.00000000000068212 39.99999999999933920 2974.00000000000000000 1.00000000000000000 0.00000000000000000 -0.00000000000000022 0.00000000000000022 -0.00000000000000022 1.00000000000000000 -0.00000000000000000 -1.00000000000000000 -0.00000000000000022 5.00000000000000000
1 1038.91123860663833511 -0.00000000000061562 2772.50000000000000000 0.00000000000000000 0.00000000000000022 -1.00000000000000000 -1.00000000000000000 0.00000000000000000 -0.00000000000000000 0.00000000000000000 1.00000000000000000 0.00000000000000022 
1 1858.00000000000068212 79.99999999999933209 3014.00000000000000000 0.00000000000000022 -0.00000000000000022 1.00000000000000000 0.00000000000000000 -1.00000000000000000 -0.00000000000000022 1.00000000000000000 0.00000000000000000 -0.00000000000000022 
1 1858.00000000000045475 -2949.00000000000000000 39.99999999999869971 1.00000000000000000 -0.00000000000000000 0.00000000000000000 -0.00000000000000000 -0.00000000000000022 1.00000000000000000 0.00000000000000000 -1.00000000000000000 -0.00000000000000022 
1 1116.13027344089050530 -0.00000000000056011 2522.50000000000000000 -0.56394902148175152 -0.00000000000000018 0.82580960346182397 0.82580960346182397 -0.00000000000000013 0.56394902148175152 0.00000000000000001 1.00000000000000000 0.00000000000000022 
1 999.98999999999966803 -0.00000000000056011 2522.50000000000000000 0.00000000000000000 -0.00000000000000022 1.00000000000000000 1.00000000000000000 0.00000000000000000 0.00000000000000000 -0.00000000000000000 1.00000000000000000 0.00000000000000022 
1 999.98999999999966803 -0.00000000000061562 2772.50000000000000000 1.00000000000000000 0.00000000000000000 0.00000000000000000 0.00000000000000000 0.00000000000000022 -1.00000000000000000 -0.00000000000000000 1.00000000000000000 0.00000000000000022 
1 1014.98999999999966803 -15.00000000000061640 2772.50000000000000000 1.00000000000000000 0.00000000000000000 0.00000000000000000 0.00000000000000000 0.00000000000000022 -1.00000000000000000 -0.00000000000000000 1.00000000000000000 0.00000000000000022 
2 999.98999999999909960 -76.00000000000058265 2652.50000000000000000 -1.00000000000000000 0.00000000000000000 -0.00000000000000022 0.00000000000000022 0.00000000000000022 -1.00000000000000000 0.00000000000000000 -1.00000000000000000 -0.00000000000000022 5.00000000000000000
2 999.98999999999909960 -76.00000000000056843 2562.50000000000000000 -1.00000000000000000 0.00000000000000000 -0.00000000000000022 0.00000000000000022 0.00000000000000022 -1.00000000000000000 0.00000000000000000 -1.00000000000000000 -0.00000000000000022 5.00000000000000000
1 1858.00000000000068212 -0.00000000000064038 2884.00000000000000000 -0.00000000000000022 0.00000000000000022 -1.00000000000000000 0.00000000000000000 1.00000000000000000 0.00000000000000022 1.00000000000000000 0.00000000000000000 -0.00000000000000022 
1 1858.00000000000068212 79.99999999999936051 2884.00000000000000000 0.00000000000000000 1.00000000000000000 0.00000000000000022 0.00000000000000022 -0.00000000000000022 1.00000000000000000 1.00000000000000000 0.00000000000000000 -0.00000000000000022 
1 999.98999999999966803 -15.00000000000061640 2772.50000000000000000 0.00000000000000000 -0.00000000000000022 1.00000000000000000 1.00000000000000000 0.00000000000000000 0.00000000000000000 -0.00000000000000000 1.00000000000000000 0.00000000000000022 
1 1014.98999999999966803 -15.00000000000055955 2522.50000000000000000 0.00000000000000000 0.00000000000000022 -1.00000000000000000 -1.00000000000000000 0.00000000000000000 -0.00000000000000000 0.00000000000000000 1.00000000000000000 0.00000000000000022 
1 999.98999999999966803 -15.00000000000055955 2522.50000000000000000 -1.00000000000000000 -0.00000000000000000 -0.00000000000000000 0.00000000000000000 -0.00000000000000022 1.00000000000000000 -0.00000000000000000 1.00000000000000000 0.00000000000000022 
1 1007.48999999999966803 -2525.50000000000000000 -137.00000000000113687 0.00000000000000000 -0.00000000000000045 1.00000000000000000 0.00000000000000000 -1.00000000000000000 -0.00000000000000045 1.00000000000000000 0.00000000000000000 0.00000000000000000 
Triangulations 0

TShapes 190
Ve
0.000000100000000
1858.000000000000000 -3134.000000000000000 -0.000000000001392
0 0

0101101
*
Ve
0.000000100000000
1858.000000000000000 -3134.000000000000000 -15.000000000001393
0 0

0101101
*
Ed
 0.000000100000000 1 1 0
1  1 0 0.000000000000000 15.000000000000000
0

0101000
+190 10 -189 10 *
Ve
0.000000100000000
1568.267900786979226 -3134.000000000000000 -0.000000000001392
0 0

0101101
*
Ve
0.000000100000000
1568.267900786979226 -3134.000000000000000 -15.000000000001393
0 0

0101101
*
Ed
 0.000000100000000 1 1 0
1  2 0 0.000000000000000 15.000000000000000
0

0101000
+187 10 -186 10 *
Ed
 0.000000100000000 1 1 0
1  3 0 0.000000000000000 289.732099213020774
0

0101000
+190 15 -187 15 *
Ed
 0.000000100000000 1 1 0
1  4 0 0.000000000000000 289.732099213020774
0

0101000
+189 18 -186 18 *
Wi

0101100
+188 0 -185 0 -184 14 +183 17 *
Fa
0  0.000000100000000 1 0

0111000
+182 0 *
Ve
0.000000100000909
1858.000000000000227 -2884.000000000000000 -0.000000000001281
0 0

0101101
*
Ve
0.000000100000000
1858.000000000000000 -2884.000000000000000 -15.000000000001279
0 0

0101101
*
Ed
 0.000000100000000 1 1 0
1  5 0 0.000000000000000 15.000000000000000
0

0101000
+180 10 -179 10 *
Ve
0.000000100000682
1858.000000000000682 -3014.000000000000000 -0.000000000001338
0 0

0101101
*
Ed
 0.000000100000682 1 1 0
1  6 0 0.000000000000000 130.000000000000000
0

0101000
+180 15 -177 15 *
Ed
 0.000000100000000 1 1 0
1  7 0 130.000000000000000 250.000000000000000
0

0101000
+177 15 -190 15 *
Ed
 0.000000100000000 1 1 0
1  8 0 0.000000000000000 250.000000000000000
0

0101000
+179 18 -189 18 *
Wi

0101100
+178 8 -188 8 -176 19 -175 19 +174 20 *
Fa
0  0.000000100000000 2 8

0111000
+173 0 *
Ve
0.000000100000000
1038.911238606638335 -2772.500000000000000 -0.000000000001231
0 0

0101101
*
Ve
0.000000100000000
1038.911238606638335 -2772.500000000000000 -15.000000000001233
0 0

0101101
*
Ed
 0.000000100000000 1 1 0
1  9 0 0.000000000000000 15.000000000000000
0

0101000
+171 10 -170 10 *
Ed
 0.000000100000000 1 1 0
1  10 0 0.000000000000000 641.015386550675203
0

0101000
+187 15 -171 15 *
Ed
 0.000000100000000 1 1 0
1  11 0 0.000000000000000 641.015386550675203
0

0101000
+186 18 -170 18 *
Wi

0101100
+185 0 -169 0 -168 14 +167 17 *
Fa
0  0.000000100000000 3 0

0111000
+166 0 *
Ve
0.000000100000682
1846.000000000000682 -3014.000000000000000 -0.000000000001338
0 0

0101101
*
Ed
 0.000000100000000 1 1 0
1  12 0 0.000000000000000 12.000000000000000
0

0101000
+177 22 -164 22 *
Ve
0.000000100000000
1846.000000000000682 -2884.000000000000000 -0.000000000001281
0 0

0101101
*
Ed
 0.000000100000000 1 1 0
1  13 0 0.000000000000000 130.000000000000000
0

0101000
+164 27 -162 27 *
Ve
0.000000100000000
1645.486935621231396 -2884.000000000000000 -0.000000000001281
0 0

0101101
*
Ed
 0.000000100000000 1 1 0
1  14 0 0.000000000000000 200.513064378769286
0

0101000
+160 15 -162 15 *
Ve
0.000000100000000
1116.130273440890505 -2522.500000000000000 -0.000000000001120
0 0

0101101
*
Ed
 0.000000100000000 1 1 0
1  15 0 0.000000000000000 641.015386550675203
0

0101000
+158 15 -160 15 *
Ve
0.000000100000000
999.989999999999668 -2522.500000000000000 -0.000000000001120
0 0

0101101
*
Ed
 0.000000100000000 1 1 0
1  16 0 0.000000000000000 116.140273440890837
0

0101000
+156 15 -158 15 *
Ve
0.000000100000000
999.989999999999668 -2772.500000000000000 -0.000000000001231
0 0

0101101
*
Ed
 0.000000100000000 1 1 0
1  17 0 0.000000000000000 250.000000000000000
0

0101000
+154 15 -156 15 *
Ed
 0.000000100000000 1 1 0
1  18 0 0.000000000000000 38.921238606638667
0

0101000
+171 15 -154 15 *
Wi

0101100
+175 19 -163 0 -161 26 +159 19 +157 19 +155 19 +153 19 +152 19 +168 19 +184 19 
*
Ve
0.000000100000000
1399.000000000000000 -2923.250000000000000 -0.000000000001298
0 0

0101101
*
Ed
 0.000000100000000 1 1 0
1  19 0 0.000000000000000 6.283185307179586
2  1 5 28 0.000000000000000 6.283185307179586
0

0101000
+150 15 -150 15 *
Wi

0101100
-149 19 *
Ve
0.000000100000000
1551.000000000000000 -2923.250000000000000 -0.000000000001298
0 0

0101101
*
Ed
 0.000000100000000 1 1 0
1  20 0 0.000000000000000 6.283185307179586
2  2 6 28 0.000000000000000 6.283185307179586
0

0101000
+147 15 -147 15 *
Wi

0101100
-146 19 *
Ve
0.000000100000000
1671.000000000000000 -3109.000000000000000 -0.000000000001381
0 0

0101101
*
Ed
 0.000000100000000 1 1 0
1  21 0 0.000000000000000 6.283185307179586
2  3 7 28 0.000000000000000 6.283185307179586
0

0101000
+144 15 -144 15 *
Wi

0101100
-143 19 *
Ve
0.000000100000000
1783.000000000000000 -3109.000000000000000 -0.000000000001381
0 0

0101101
*
Ed
 0.000000100000000 1 1 0
1  22 0 0.000000000000000 6.283185307179586
2  4 8 28 0.000000000000000 6.283185307179586
0

0101000
+141 15 -141 15 *
Wi

0101100
-140 19 *
Fa
0  0.000000100000000 4 21

0111000
+151 0 +148 0 +145 0 +142 0 +139 0 *
Ve
0.000000100000000
1645.486935621231396 -2884.000000000000000 -15.000000000001279
0 0

0101101
*
Ed
 0.000000100000000 1 1 0
1  23 0 0.000000000000000 212.513064378768604
0

0101000
+137 18 -179 18 *
Ve
0.000000100000000
1116.130273440890505 -2522.500000000000000 -15.000000000001119
0 0

0101101
*
Ed
 0.000000100000000 1 1 0
1  24 0 0.000000000000000 641.015386550675203
0

0101000
+135 18 -137 18 *
Ve
0.000000100000000
1014.989999999999668 -2522.500000000000000 -15.000000000001119
0 0

0101101
*
Ed
 0.000000100000000 1 1 0
1  25 0 15.000000000000000 116.140273440890837
0

0101000
+133 18 -135 18 *
Ve
0.000000100000000
1014.989999999999668 -2772.500000000000000 -15.000000000001233
0 0

0101101
*
Ed
 0.000000100000000 1 1 0
1  26 0 0.000000000000000 250.000000000000000
0

0101000
+131 35 -133 35 *
Ed
 0.000000100000000 1 1 0
1  27 0 0.000000000000000 23.921238606638667
0

0101000
+170 18 -131 18 *
Wi

0101100
+174 31 +136 31 +134 31 +132 31 +130 34 +129 31 +167 31 +183 31 *
Ve
0.000000100000000
1399.000000000000000 -2923.250000000000000 -15.000000000001297
0 0

0101101
*
Ed
 0.000000100000000 1 1 0
1  28 0 0.000000000000000 6.283185307179586
2  5 5 36 0.000000000000000 6.283185307179586
0

0101000
+127 18 -127 18 *
Wi

0101100
-126 31 *
Ve
0.000000100000000
1551.000000000000000 -2923.250000000000000 -15.000000000001297
0 0

0101101
*
Ed
 0.000000100000000 1 1 0
1  29 0 0.000000000000000 6.283185307179586
2  6 6 36 0.000000000000000 6.283185307179586
0

0101000
+124 18 -124 18 *
Wi

0101100
-123 31 *
Ve
0.000000100000000
1671.000000000000000 -3109.000000000000000 -15.000000000001382
0 0

0101101
*
Ed
 0.000000100000000 1 1 0
1  30 0 0.000000000000000 6.283185307179586
2  7 7 36 0.000000000000000 6.283185307179586
0

0101000
+121 18 -121 18 *
Wi

0101100
-120 31 *
Ve
0.000000100000000
1783.000000000000000 -3109.000000000000000 -15.000000000001382
0 0

0101101
*
Ed
 0.000000100000000 1 1 0
1  31 0 0.000000000000000 6.283185307179586
2  8 8 36 0.000000000000000 6.283185307179586
0

0101000
+118 18 -118 18 *
Wi

0101100
-117 31 *
Fa
0  0.000000100000000 9 30

0111000
+128 0 +125 0 +122 0 +119 0 +116 0 *
Ed
 0.000000100000000 1 1 0
1  32 0 0.000000000000000 15.000000000000000
0

0101000
+160 10 -137 10 *
Ed
 0.000000100000000 1 1 0
1  33 0 200.513064378769286 212.513064378768604
0

0101000
+162 15 -180 15 *
Wi

0101100
+114 8 -178 8 -159 19 -113 19 +136 20 *
Fa
0  0.000000100000000 10 8

0111000
+112 0 *
Ve
0.000000100000000
1858.000000000000682 -2884.000000000000000 79.999999999998721
0 0

0101101
*
Ed
 0.000000100000000 1 1 0
1  34 0 0.000000000000000 80.000000000000000
0

0101000
+180 39 -110 39 *
Ve
0.000000100000000
1858.000000000000682 -3014.000000000000000 79.999999999998664
0 0

0101101
*
Ed
 0.000000100000000 1 1 0
1  35 0 0.000000000000000 130.000000000000000
0

0101000
+110 39 -108 39 *
Ed
 0.000000100000000 1 1 0
1  36 0 0.000000000000000 80.000000000000000
0

0101000
+108 39 -177 39 *
Wi

0101100
-176 19 +109 38 +107 38 +106 38 *
Ve
0.000000100000000
1858.000000000000682 -2929.000000000000000 39.999999999998693
0 0

0101101
*
Ed
 0.000000100000000 1 1 0
1  37 0 0.000000000000000 6.283185307179586
2  9 12 40 0.000000000000000 6.283185307179586
0

0101000
+104 39 -104 39 *
Wi

0101100
-103 38 *
Ve
0.000000100000000
1858.000000000000682 -2979.000000000000000 39.999999999998678
0 0

0101101
*
Ed
 0.000000100000000 1 1 0
1  38 0 0.000000000000000 6.283185307179586
2  10 13 40 0.000000000000000 6.283185307179586
0

0101000
+101 39 -101 39 *
Wi

0101100
-100 38 *
Fa
0  0.000000100000000 11 37

0111000
+105 0 +102 0 +99 0 *
Ve
0.000000100000000
999.989999999999668 -2772.500000000000000 -15.000000000001233
0 0

0101101
*
Ed
 0.000000100000000 1 1 0
1  39 0 0.000000000000000 15.000000000000000
0

0101000
+154 10 -97 10 *
Ed
 0.000000100000000 1 1 0
1  40 0 23.921238606638667 38.921238606638667
0

0101000
+131 18 -97 18 *
Wi

0101100
+169 41 -96 41 -152 42 +129 31 +95 31 *
Fa
0  0.000000100000000 14 41

0111000
+94 0 *
Ve
0.000000100000000
1846.000000000000682 -3014.000000000000000 79.999999999998664
0 0

0101101
*
Ed
 0.000000100000000 1 1 0
1  41 0 0.000000000000000 12.000000000000000
0

0101000
+108 22 -92 22 *
Ed
 0.000000100000000 1 1 0
1  42 0 0.000000000000000 80.000000000000000
0

0101000
+92 27 -164 27 *
Wi

0101100
+91 0 -163 0 -106 38 +90 26 *
Fa
0  0.000000100000000 15 0

0111000
+89 0 *
Ve
0.000000100000000
1846.000000000000682 -2884.000000000000000 79.999999999998721
0 0

0101101
*
Ed
 0.000000100000000 1 1 0
1  43 0 0.000000000000000 80.000000000000000
0

0101000
+162 27 -87 27 *
Ed
 0.000000100000000 1 1 0
1  44 0 0.000000000000000 130.000000000000000
0

0101000
+87 27 -92 27 *
Wi

0101100
+161 44 +86 44 +85 44 +90 44 *
Ve
0.000000100000000
1846.000000000000682 -2929.000000000000000 39.999999999998693
0 0

0101101
*
Ed
 0.000000100000000 1 1 0
1  45 0 0.000000000000000 6.283185307179586
2  11 12 45 0.000000000000000 6.283185307179586
0

0101000
+83 27 -83 27 *
Wi

0101100
-82 44 *
Ve
0.000000100000000
1846.000000000000682 -2979.000000000000000 39.999999999998678
0 0

0101101
*
Ed
 0.000000100000000 1 1 0
1  46 0 0.000000000000000 6.283185307179586
2  12 13 45 0.000000000000000 6.283185307179586
0

0101000
+80 27 -80 27 *
Wi

0101100
-79 44 *
Fa
0  0.000000100000000 16 0

0111000
+84 0 +81 0 +78 0 *
Ed
 0.000000100000000 1 1 0
1  47 0 0.000000000000000 15.000000000000000
0

0101000
+158 10 -135 10 *
Wi

0101100
+76 0 -114 0 -157 14 +134 17 *
Fa
0  0.000000100000000 17 0

0111000
+75 0 *
Ve
0.000000100000000
999.989999999999668 -2522.500000000000000 -15.000000000001119
0 0

0101101
*
Ed
 0.000000100000000 1 1 0
1  48 0 0.000000000000000 15.000000000000000
0

0101000
+156 10 -73 10 *
Ed
 0.000000100000000 1 1 0
1  49 0 0.000000000000000 15.000000000000000
0

0101000
+73 18 -133 18 *
Wi

0101100
+72 41 -76 41 -155 42 +71 31 +132 31 *
Fa
0  0.000000100000000 18 41

0111000
+70 0 *
Ed
 0.000000100000000 1 1 0
1  50 0 0.000000000000000 250.000000000000000
0

0101000
+97 18 -73 18 *
Wi

0101100
+96 41 -72 41 -153 42 +68 31 *
Fa
0  0.000000100000000 19 41

0111000
+67 0 *
Ed
 0.000000100000000 1 1 0
1  51 0 0.000000000000000 15.000000000000000
3  13 14CN 5 0 0.000000000000000 15.000000000000000
0

0101000
+150 10 -127 10 *
Wi

0101100
+65 0 -65 0 -149 14 +126 17 *
Fa
0  0.000000100000000 5 0

0111000
+64 0 *
Ed
 0.000000100000000 1 1 0
1  52 0 0.000000000000000 15.000000000000000
3  15 16CN 6 0 0.000000000000000 15.000000000000000
0

0101000
+147 10 -124 10 *
Wi

0101100
+62 0 -62 0 -146 14 +123 17 *
Fa
0  0.000000100000000 6 0

0111000
+61 0 *
Ed
 0.000000100000000 1 1 0
1  53 0 0.000000000000000 15.000000000000000
3  17 18CN 7 0 0.000000000000000 15.000000000000000
0

0101000
+144 10 -121 10 *
Wi

0101100
+59 0 -59 0 -143 14 +120 17 *
Fa
0  0.000000100000000 7 0

0111000
+58 0 *
Ed
 0.000000100000000 1 1 0
1  54 0 0.000000000000000 15.000000000000000
3  19 20CN 8 0 0.000000000000000 15.000000000000000
0

0101000
+141 10 -118 10 *
Wi

0101100
+56 0 -56 0 -140 14 +117 17 *
Fa
0  0.000000100000000 8 0

0111000
+55 0 *
Ve
0.000000100000000
1014.989999999999668 -2772.500000000000000 -137.000000000001251
0 0

0101101
*
Ed
 0.000000100000000 1 1 0
1  55 0 0.000000000000000 122.000000000000000
0

0101000
+131 48 -53 48 *
Ve
0.000000100000000
1014.989999999999668 -2522.500000000000000 -137.000000000001137
0 0

0101101
*
Ed
 0.000000100000000 1 1 0
1  56 0 0.000000000000000 250.000000000000000
0

0101000
+53 52 -51 52 *
Ed
 0.000000100000000 1 1 0
1  57 0 0.000000000000000 122.000000000000000
0

0101000
+133 48 -51 48 *
Wi

0101100
+52 47 -130 49 +50 51 -49 47 *
Ve
0.000000100000000
1014.989999999999668 -2647.500000000000000 -76.000000000001165
0 0

0101101
*
Ed
 0.000000100000000 1 1 0
1  58 0 0.000000000000000 6.283185307179586
2  21 21 0 0.000000000000000 6.283185307179586
0

0101000
+47 53 -47 53 *
Wi

0101100
+46 0 *
Ve
0.000000100000000
1014.989999999999668 -2557.500000000000000 -76.000000000001137
0 0

0101101
*
Ed
 0.000000100000000 1 1 0
1  59 0 0.000000000000000 6.283185307179586
2  22 22 0 0.000000000000000 6.283185307179586
0

0101000
+44 53 -44 53 *
Wi

0101100
+43 0 *
Fa
0  0.000000100000000 20 47

0111000
+48 0 +45 0 +42 0 *
Ed
 0.000000100000000 1 1 0
1  60 0 0.000000000000000 12.000000000000000
0

0101000
+110 22 -87 22 *
Wi

0101100
-113 19 -40 0 -109 38 +86 26 *
Fa
0  0.000000100000000 23 0

0111000
+39 0 *
Wi

0101100
+40 0 -91 0 -107 38 +85 26 *
Fa
0  0.000000100000000 24 0

0111000
+37 0 *
Ed
 0.000000100000000 1 1 0
1  61 0 0.000000000000000 12.000000000000000
3  23 24CN 12 0 0.000000000000000 12.000000000000000
0

0101000
+104 22 -83 22 *
Wi

0101100
+35 0 -35 0 -103 38 +82 26 *
Fa
0  0.000000100000000 12 0

0111000
+34 0 *
Ed
 0.000000100000000 1 1 0
1  62 0 0.000000000000000 12.000000000000000
3  25 26CN 13 0 0.000000000000000 12.000000000000000
0

0101000
+101 22 -80 22 *
Wi

0101100
+32 0 -32 0 -100 38 +79 26 *
Fa
0  0.000000100000000 13 0

0111000
+31 0 *
Ve
0.000000100000000
999.989999999999668 -2772.500000000000000 -137.000000000001251
0 0

0101101
*
Ed
 0.000000100000000 1 1 0
1  63 0 0.000000000000000 122.000000000000000
0

0101000
+97 48 -29 48 *
Ed
 0.000000100000000 1 1 0
1  64 0 0.000000000000000 15.000000000000000
0

0101000
+29 52 -53 52 *
Wi

0101100
+28 0 -52 0 +95 31 +27 54 *
Fa
0  0.000000100000000 25 0

0111000
+26 0 *
Ve
0.000000100000000
999.989999999999668 -2522.500000000000000 -137.000000000001137
0 0

0101101
*
Ed
 0.000000100000000 1 1 0
1  65 0 0.000000000000000 122.000000000000000
0

0101000
+73 48 -24 48 *
Ed
 0.000000100000000 1 1 0
1  66 0 0.000000000000000 15.000000000000000
0

0101000
+51 52 -24 52 *
Wi

0101100
+49 0 -23 0 +71 31 +22 54 *
Fa
0  0.000000100000000 26 0

0111000
+21 0 *
Ed
 0.000000100000000 1 1 0
1  67 0 0.000000000000000 250.000000000000000
0

0101000
+24 52 -29 52 *
Wi

0101100
+23 47 +68 55 +19 51 -28 47 *
Ve
0.000000100000568
999.989999999999100 -2557.500000000000000 -76.000000000001137
0 0

0101101
*
Ed
 0.000000100000568 1 1 0
1  68 0 0.000000000000000 6.283185307179586
2  27 22 59 0.000000000000000 6.283185307179586
0

0101000
+17 60 -17 60 *
Wi

0101100
-16 58 *
Ve
0.000000100000568
999.989999999999100 -2647.500000000000000 -76.000000000001165
0 0

0101101
*
Ed
 0.000000100000568 1 1 0
1  69 0 0.000000000000000 6.283185307179586
2  28 21 59 0.000000000000000 6.283185307179586
0

0101000
+14 60 -14 60 *
Wi

0101100
-13 58 *
Fa
0  0.000000100000000 27 47

0111000
+18 0 +15 0 +12 0 *
Wi

0101100
+27 0 +50 0 +22 0 +19 0 *
Fa
0  0.000000100000000 28 0

0111000
+10 62 *
Ed
 0.000000100000000 1 1 0
1  70 0 0.000000000000000 15.000000000000568
3  29 30CN 21 0 0.000000000000000 15.000000000000568
0

0101000
+14 53 -47 53 *
Wi

0101100
-13 58 -8 0 +46 0 +8 0 *
Fa
0  0.000000100000000 21 0

0111000
+7 0 *
Ed
 0.000000100000000 1 1 0
1  71 0 0.000000000000000 15.000000000000568
3  31 32CN 22 0 0.000000000000000 15.000000000000568
0

0101000
+17 53 -44 53 *
Wi

0101100
-16 58 -5 0 +43 0 +5 0 *
Fa
0  0.000000100000000 22 0

0111000
+4 0 *
Sh

0101100
-181 8 -172 0 -165 8 -138 0 +115 29 -111 0 +98 0 -93 29 +88 0 -77 43 
-74 8 -69 29 -66 29 +63 8 +60 8 +57 8 +54 8 +41 46 +38 0 +36 0 
-33 0 -30 0 +25 29 +20 29 +11 46 -9 61 -6 46 -3 46 *
So

0100000
+2 0 *

+1 1 