
CASCADE Topology V1, (c) Matra-Datavision
Locations 63
1
1.000000000000000 0.000000000000000 0.000000000000000 0.000000000000000 
0.000000000000000 1.000000000000000 0.000000000000000 213.000000000000000 
0.000000000000000 0.000000000000000 1.000000000000000 0.000000000000000 
1
1.000000000000000 0.000000000000000 0.000000000000000 0.000000000000000 
0.000000000000000 -0.000000000000000 -1.000000000000000 0.000000000000000 
0.000000000000000 1.000000000000000 -0.000000000000000 0.000000000000000 
1
1.000000000000000 0.000000000000000 0.000000000000000 0.000000000000000 
0.000000000000000 -0.000000000000000 -1.000000000000000 0.000000000000000 
0.000000000000000 1.000000000000000 -0.000000000000000 0.000000000000000 
1
1.000000000000000 0.000000000000000 0.000000000000000 0.000000000000000 
0.000000000000000 -0.000000000000000 -1.000000000000000 0.000000000000000 
0.000000000000000 1.000000000000000 -0.000000000000000 0.000000000000000 
1
1.000000000000000 0.000000000000000 0.000000000000000 0.000000000000000 
0.000000000000000 -0.000000000000000 -1.000000000000000 0.000000000000000 
0.000000000000000 1.000000000000000 -0.000000000000000 0.000000000000000 
1
1.000000000000000 0.000000000000000 0.000000000000000 0.000000000000000 
0.000000000000000 -0.000000000000000 -1.000000000000000 0.000000000000000 
0.000000000000000 1.000000000000000 -0.000000000000000 0.000000000000000 
1
1.000000000000000 0.000000000000000 0.000000000000000 0.000000000000000 
0.000000000000000 -0.000000000000000 -1.000000000000000 0.000000000000000 
0.000000000000000 1.000000000000000 -0.000000000000000 0.000000000000000 
2  2 1 3 -1 4 1 5 -1 6 1 7 -1 0
1
1.000000000000000 0.000000000000000 0.000000000000000 0.000000000000000 
0.000000000000000 -0.000000000000000 -1.000000000000000 0.000000000000000 
0.000000000000000 1.000000000000000 -0.000000000000000 0.000000000000000 
2  9 -1 7 1 6 -1 5 1 4 -1 3 1 2 -1 0
1
1.000000000000000 0.000000000000000 0.000000000000000 0.000000000000000 
0.000000000000000 1.000000000000000 0.000000000000000 0.000000000000000 
0.000000000000000 0.000000000000000 1.000000000000000 0.000000000000000 
1
1.000000000000000 0.000000000000000 0.000000000000000 0.000000000000000 
0.000000000000000 -0.000000000000000 -1.000000000000000 0.000000000000000 
0.000000000000000 1.000000000000000 -0.000000000000000 0.000000000000000 
1
1.000000000000000 0.000000000000000 0.000000000000000 0.000000000000000 
0.000000000000000 -0.000000000000000 -1.000000000000000 0.000000000000000 
0.000000000000000 1.000000000000000 -0.000000000000000 0.000000000000000 
2  11 1 12 1 13 -1 0
2  9 -1 7 1 6 -1 5 1 4 -1 3 1 2 -1 13 1 12 -1 11 -1 0
1
1.000000000000000 0.000000000000000 0.000000000000000 -0.000000000000000 
0.000000000000000 1.000000000000000 0.000000000000000 -0.000000000000000 
0.000000000000000 0.000000000000000 1.000000000000000 -15.000000000000000 
2  11 1 12 1 13 -1 16 1 0
2  9 -1 7 1 6 -1 5 1 4 -1 3 1 2 -1 16 -1 13 1 12 -1 11 -1 0
2  13 -1 2 1 3 -1 4 1 5 -1 6 1 7 -1 0
2  11 1 12 1 13 -1 2 1 3 -1 4 1 5 -1 6 1 7 -1 0
1
1.000000000000000 0.000000000000000 0.000000000000000 0.000000000000000 
0.000000000000000 1.000000000000000 0.000000000000000 0.000000000000000 
0.000000000000000 0.000000000000000 1.000000000000000 0.000000000000000 
1
1.000000000000000 0.000000000000000 -0.000000000000000 -0.000000000000000 
-0.000000000000000 0.000000000000000 -1.000000000000000 -0.000000000000000 
-0.000000000000000 1.000000000000000 0.000000000000000 -0.000000000000000 
2  21 1 22 1 3 -1 4 1 5 -1 6 1 7 -1 0
2  9 -1 7 1 6 -1 5 1 4 -1 3 1 22 -1 21 -1 0
2  9 -1 0
1
1.000000000000000 0.000000000000000 0.000000000000000 0.000000000000000 
0.000000000000000 1.000000000000000 0.000000000000000 0.000000000000000 
0.000000000000000 0.000000000000000 1.000000000000000 0.000000000000000 
1
0.000000000000000 0.000000000000000 -1.000000000000000 27.000000000000000 
0.000000000000000 -1.000000000000000 0.000000000000000 0.000000000000000 
-1.000000000000000 0.000000000000000 0.000000000000000 0.000000000000000 
1
1.000000000000000 0.000000000000000 0.000000000000000 15.000000000000000 
0.000000000000000 1.000000000000000 0.000000000000000 0.000000000000003 
0.000000000000000 0.000000000000000 1.000000000000000 -0.000000000000000 
2  26 1 27 1 7 -1 28 1 0
2  9 -1 28 -1 7 1 27 -1 26 -1 0
2  13 1 12 -1 11 -1 0
2  13 -1 16 1 2 1 3 -1 4 1 5 -1 6 1 7 -1 0
2  11 1 12 1 0
2  16 -1 13 1 12 -1 11 -1 0
2  4 1 5 -1 6 1 7 -1 0
2  2 1 3 -1 0
2  11 1 12 1 13 -1 2 1 3 -1 0
2  21 1 22 1 3 -1 0
2  11 1 12 1 13 -1 16 1 2 1 3 -1 0
2  26 1 27 1 7 -1 0
2  9 -1 7 1 27 -1 26 -1 0
2  11 1 12 1 13 -1 16 1 2 1 3 -1 4 1 5 -1 6 1 7 -1 0
2  9 -1 7 1 6 -1 5 1 4 -1 0
1
1.000000000000000 0.000000000000000 0.000000000000000 -0.000000000000000 
0.000000000000000 1.000000000000000 0.000000000000000 0.000000000000000 
0.000000000000000 0.000000000000000 1.000000000000000 80.000000000000000 
2  21 1 22 1 3 -1 44 1 0
2  9 -1 7 1 6 -1 5 1 4 -1 44 -1 3 1 22 -1 21 -1 0
2  6 1 7 -1 0
2  4 1 5 -1 0
2  21 1 22 1 3 -1 4 1 5 -1 0
2  21 1 22 1 3 -1 44 1 4 1 5 -1 0
1
1.000000000000000 0.000000000000000 0.000000000000000 0.000000000000000 
0.000000000000000 1.000000000000000 0.000000000000000 0.000000000000000 
0.000000000000000 0.000000000000000 1.000000000000000 0.000000000000000 
1
-0.000000000000000 0.000000000000000 -1.000000000000000 3095.000000000000000 
0.000000000000000 -1.000000000000000 0.000000000000000 -0.000000000000000 
-1.000000000000000 0.000000000000000 0.000000000000000 -0.000000000000000 
2  51 1 52 1 5 -1 0
2  5 1 52 -1 51 -1 0
2  9 -1 7 1 6 -1 5 1 52 -1 51 -1 0
2  7 -1 28 1 0
2  26 1 27 1 0
2  28 -1 7 1 27 -1 26 -1 0
2  9 -1 7 1 6 -1 0
2  7 -1 0
2  7 1 27 -1 26 -1 0
2  3 -1 44 1 4 1 5 -1 6 1 7 -1 0
2  21 1 22 1 0
Curve2ds 48
1 0.00000000000000000 0.00000000000000000 1.00000000000000000 0.00000000000000000 
1 0.00000000000000000 0.00000000000000000 1.00000000000000000 0.00000000000000000 
1 0.00000000000000000 0.00000000000000000 1.00000000000000000 0.00000000000000000 
1 0.00000000000000000 0.00000000000000000 1.00000000000000000 0.00000000000000000 
1 0.00000000000000000 0.00000000000000000 1.00000000000000000 0.00000000000000000 
1 0.00000000000000000 0.00000000000000000 1.00000000000000000 0.00000000000000000 
1 0.00000000000000000 0.00000000000000000 1.00000000000000000 0.00000000000000000 
1 0.00000000000000000 0.00000000000000000 1.00000000000000000 0.00000000000000000 
1 0.00000000000000000 -15.00000000000000000 1.00000000000000000 0.00000000000000000 
1 0.00000000000000000 -15.00000000000000000 1.00000000000000000 0.00000000000000000 
1 0.00000000000000000 -15.00000000000000000 1.00000000000000000 0.00000000000000000 
1 0.00000000000000000 -15.00000000000000000 1.00000000000000000 0.00000000000000000 
1 0.00000000000000000 -15.00000000000000000 1.00000000000000000 0.00000000000000000 
1 0.00000000000000000 -15.00000000000000000 1.00000000000000000 0.00000000000000000 
1 0.00000000000000000 -15.00000000000000000 1.00000000000000000 0.00000000000000000 
1 0.00000000000000000 -15.00000000000000000 1.00000000000000000 0.00000000000000000 
1 0.00000000000000000 0.00000000000000000 1.00000000000000000 0.00000000000000000 
1 0.00000000000000000 0.00000000000000000 1.00000000000000000 0.00000000000000000 
1 0.00000000000000000 -15.00000000000000000 1.00000000000000000 0.00000000000000000 
1 0.00000000000000000 -15.00000000000000000 1.00000000000000000 0.00000000000000000 
1 0.00000000000000000 0.00000000000000000 0.00000000000000000 -1.00000000000000000 
1 6.28318530717958623 0.00000000000000000 0.00000000000000000 -1.00000000000000000 
1 0.00000000000000000 0.00000000000000000 0.00000000000000000 -1.00000000000000000 
1 6.28318530717958623 0.00000000000000000 0.00000000000000000 -1.00000000000000000 
1 0.00000000000000000 0.00000000000000000 0.00000000000000000 -1.00000000000000000 
1 6.28318530717958623 0.00000000000000000 0.00000000000000000 -1.00000000000000000 
1 0.00000000000000000 0.00000000000000000 0.00000000000000000 -1.00000000000000000 
1 6.28318530717958623 0.00000000000000000 0.00000000000000000 -1.00000000000000000 
1 0.00000000000000000 0.00000000000000000 0.00000000000000000 -1.00000000000000000 
1 6.28318530717958623 0.00000000000000000 0.00000000000000000 -1.00000000000000000 
1 0.00000000000000000 0.00000000000000000 0.00000000000000000 -1.00000000000000000 
1 6.28318530717958623 0.00000000000000000 0.00000000000000000 -1.00000000000000000 
1 0.00000000000000000 0.00000000000000000 0.00000000000000000 -1.00000000000000000 
1 6.28318530717958623 0.00000000000000000 0.00000000000000000 -1.00000000000000000 
1 0.00000000000000000 0.00000000000000000 0.00000000000000000 -1.00000000000000000 
1 6.28318530717958623 0.00000000000000000 0.00000000000000000 -1.00000000000000000 
1 0.00000000000000000 -14.99999999999863576 1.00000000000000000 0.00000000000000000 
1 0.00000000000000000 -14.99999999999863576 1.00000000000000000 0.00000000000000000 
1 0.00000000000000000 0.00000000000000000 1.00000000000000000 0.00000000000000000 
1 0.00000000000000000 0.00000000000000000 1.00000000000000000 0.00000000000000000 
1 0.00000000000000000 0.00000000000000000 0.00000000000000000 -1.00000000000000000 
1 6.28318530717958623 0.00000000000000000 0.00000000000000000 -1.00000000000000000 
1 0.00000000000000000 0.00000000000000000 0.00000000000000000 -1.00000000000000000 
1 6.28318530717958623 0.00000000000000000 0.00000000000000000 -1.00000000000000000 
1 0.00000000000000000 0.00000000000000000 0.00000000000000000 -1.00000000000000000 
1 6.28318530717958623 0.00000000000000000 0.00000000000000000 -1.00000000000000000 
1 0.00000000000000000 0.00000000000000000 0.00000000000000000 -1.00000000000000000 
1 6.28318530717958623 0.00000000000000000 0.00000000000000000 -1.00000000000000000 
Curves 86
1 2133.96483879686957152 -0.00000000000130385 5872.00050000000010186 -0.00000000000000000 1.00000000000000000 0.00000000000000022 
1 773.96483879698962483 -0.00000000000110193 4962.66700000000037107 -0.00000000000000000 1.00000000000000000 0.00000000000000022 
1 2133.96483879686957152 -0.00000000000130385 5872.00050000000010186 -0.83129717685705629 0.00000000000000012 -0.55582821424383277 
1 2133.96483879686957152 14.99999999999869615 5887.00050000000010186 -0.83129717685705629 0.00000000000000012 -0.55582821424383277 
1 3110.00000000000000000 -0.00000000000130385 5872.00050000000010186 -0.00000000000000000 1.00000000000000000 0.00000000000000022 
1 2133.96483879686957152 -0.00000000000130385 5872.00050000000010186 1.00000000000000000 0.00000000000000000 0.00000000000000000 
1 2133.96483879686957152 14.99999999999869615 5887.00050000000010186 1.00000000000000000 0.00000000000000000 0.00000000000000000 
1 27.00000000000000000 -0.00000000000110193 4962.66700000000037107 -0.00000000000000000 1.00000000000000000 0.00000000000000022 
1 773.96483879698962483 -0.00000000000110193 4962.66700000000037107 -1.00000000000000000 -0.00000000000000000 0.00000000000000000 
1 773.96483879698962483 14.99999999999889866 4977.66700000000037107 -1.00000000000000000 -0.00000000000000000 0.00000000000000000 
1 3110.00000000000000000 -0.00000000000130385 5872.00050000000010186 0.00000000000000000 0.00000000000000022 -1.00000000000000000 
1 3110.00000000000000000 -0.00000000000128608 5792.00050000000010186 -1.00000000000000000 0.00000000000000000 0.00000000000000000 
1 3095.00000000000000000 -0.00000000000128608 5792.00050000000010186 -0.00000000000000000 0.00000000000000022 -1.00000000000000000 
1 3095.00000000000000000 -0.00000000000125500 5652.00050000000010186 1.00000000000000000 -0.00000000000000000 -0.00000000000000000 
1 3110.00000000000000000 -0.00000000000130385 5872.00050000000010186 0.00000000000000000 0.00000000000000022 -1.00000000000000000 
1 3110.00000000000000000 -0.00000000000124833 5622.00050000000010186 -1.00000000000000000 -0.00000000000000000 0.00000000000000000 
1 849.84386887302025571 -0.00000000000104642 4712.66700000000037107 0.83129717685705640 -0.00000000000000012 0.55582821424383255 
1 27.00000000000000000 -0.00000000000104642 4712.66700000000037107 1.00000000000000000 0.00000000000000000 0.00000000000000000 
1 27.00000000000000000 -0.00000000000110193 4962.66700000000037107 0.00000000000000000 0.00000000000000022 -1.00000000000000000 
1 26.99999999999894840 -0.00000000000105308 4742.66700000000037107 1.00000000000000000 -0.00000000000000000 0.00000000000000022 
1 0.00000000000105641 4742.66700000000037107 0.00000000000105308 0.00000000000000022 1.00000000000000000 0.00000000000000022 
1 26.99999999999891642 -0.00000000000108417 4882.66700000000037107 1.00000000000000000 -0.00000000000000000 0.00000000000000022 
1 27.00000000000000000 -0.00000000000110193 4962.66700000000037107 0.00000000000000000 0.00000000000000022 -1.00000000000000000 
2 1129.00000000000000000 -0.00000000000113454 5109.53369999999995343 0.00000000000000000 -1.00000000000000000 -0.00000000000000022 1.00000000000000000 0.00000000000000000 0.00000000000000000 0.00000000000000000 -0.00000000000000022 1.00000000000000000 5.00000000000000000
2 1281.00000000000000000 -0.00000000000113454 5109.53369999999995343 0.00000000000000000 -1.00000000000000000 -0.00000000000000022 1.00000000000000000 0.00000000000000000 0.00000000000000000 0.00000000000000000 -0.00000000000000022 1.00000000000000000 5.00000000000000000
2 1401.00000000000000000 -0.00000000000117493 5291.40040000000044529 0.00000000000000000 -1.00000000000000000 -0.00000000000000022 1.00000000000000000 0.00000000000000000 0.00000000000000000 0.00000000000000000 -0.00000000000000022 1.00000000000000000 5.00000000000000000
2 1553.00000000000000000 -0.00000000000117493 5291.40040000000044529 0.00000000000000000 -1.00000000000000000 -0.00000000000000022 1.00000000000000000 0.00000000000000000 0.00000000000000000 0.00000000000000000 -0.00000000000000022 1.00000000000000000 5.00000000000000000
2 1673.00000000000000000 -0.00000000000121531 5473.26710000000002765 0.00000000000000000 -1.00000000000000000 -0.00000000000000022 1.00000000000000000 0.00000000000000000 0.00000000000000000 0.00000000000000000 -0.00000000000000022 1.00000000000000000 5.00000000000000000
2 1825.00000000000000000 -0.00000000000121531 5473.26710000000002765 0.00000000000000000 -1.00000000000000000 -0.00000000000000022 1.00000000000000000 0.00000000000000000 0.00000000000000000 0.00000000000000000 -0.00000000000000022 1.00000000000000000 5.00000000000000000
2 1945.00000000000000000 -0.00000000000125569 5655.13379999999961001 0.00000000000000000 -1.00000000000000000 -0.00000000000000022 1.00000000000000000 0.00000000000000000 0.00000000000000000 0.00000000000000000 -0.00000000000000022 1.00000000000000000 5.00000000000000000
2 2097.00000000000000000 -0.00000000000125569 5655.13379999999961001 0.00000000000000000 -1.00000000000000000 -0.00000000000000022 1.00000000000000000 0.00000000000000000 0.00000000000000000 0.00000000000000000 -0.00000000000000022 1.00000000000000000 5.00000000000000000
1 27.00000000000000000 14.99999999999889866 4977.66700000000037107 0.00000000000000000 0.00000000000000022 -1.00000000000000000 
1 27.00000000000000000 14.99999999999895373 4727.66700000000037107 1.00000000000000000 0.00000000000000000 0.00000000000000000 
1 849.84386887302025571 14.99999999999895373 4727.66700000000037107 0.83129717685705640 -0.00000000000000012 0.55582821424383255 
1 3110.00000000000000000 14.99999999999875122 5637.00050000000010186 -1.00000000000000000 -0.00000000000000000 0.00000000000000000 
1 3110.00000000000000000 14.99999999999869615 5887.00050000000010186 0.00000000000000000 0.00000000000000022 -1.00000000000000000 
2 1129.00000000000000000 14.99999999999886491 5124.53369999999995343 0.00000000000000000 -1.00000000000000000 -0.00000000000000022 1.00000000000000000 0.00000000000000000 0.00000000000000000 0.00000000000000000 -0.00000000000000022 1.00000000000000000 5.00000000000000000
2 1281.00000000000000000 14.99999999999886491 5124.53369999999995343 0.00000000000000000 -1.00000000000000000 -0.00000000000000022 1.00000000000000000 0.00000000000000000 0.00000000000000000 0.00000000000000000 -0.00000000000000022 1.00000000000000000 5.00000000000000000
2 1401.00000000000000000 14.99999999999882583 5306.40040000000044529 0.00000000000000000 -1.00000000000000000 -0.00000000000000022 1.00000000000000000 0.00000000000000000 0.00000000000000000 0.00000000000000000 -0.00000000000000022 1.00000000000000000 5.00000000000000000
2 1553.00000000000000000 14.99999999999882583 5306.40040000000044529 0.00000000000000000 -1.00000000000000000 -0.00000000000000022 1.00000000000000000 0.00000000000000000 0.00000000000000000 0.00000000000000000 -0.00000000000000022 1.00000000000000000 5.00000000000000000
2 1673.00000000000000000 14.99999999999878497 5488.26710000000002765 0.00000000000000000 -1.00000000000000000 -0.00000000000000022 1.00000000000000000 0.00000000000000000 0.00000000000000000 0.00000000000000000 -0.00000000000000022 1.00000000000000000 5.00000000000000000
2 1825.00000000000000000 14.99999999999878497 5488.26710000000002765 0.00000000000000000 -1.00000000000000000 -0.00000000000000022 1.00000000000000000 0.00000000000000000 0.00000000000000000 0.00000000000000000 -0.00000000000000022 1.00000000000000000 5.00000000000000000
2 1945.00000000000000000 14.99999999999874412 5670.13379999999961001 0.00000000000000000 -1.00000000000000000 -0.00000000000000022 1.00000000000000000 0.00000000000000000 0.00000000000000000 0.00000000000000000 -0.00000000000000022 1.00000000000000000 5.00000000000000000
2 2097.00000000000000000 14.99999999999874412 5670.13379999999961001 0.00000000000000000 -1.00000000000000000 -0.00000000000000022 1.00000000000000000 0.00000000000000000 0.00000000000000000 0.00000000000000000 -0.00000000000000022 1.00000000000000000 5.00000000000000000
1 3110.00000000000000000 -0.00000000000124833 5622.00050000000010186 -0.00000000000000000 1.00000000000000000 0.00000000000000022 
1 3110.00000000000000000 -0.00000000000125500 5652.00050000000010186 0.00000000000000000 -0.00000000000000022 1.00000000000000000 
1 27.00000000000000000 -0.00000000000104642 4712.66700000000037107 -0.00000000000000000 1.00000000000000000 0.00000000000000022 
1 0.00000000000105308 4742.66700000000037107 0.00000000000105308 0.00000000000000022 1.00000000000000000 0.00000000000000022 
1 3110.00000000000000000 -0.00000000000128608 5792.00050000000010186 -0.00000000000000000 -1.00000000000000000 -0.00000000000000022 
1 3095.00000000000000000 -0.00000000000128608 5792.00050000000010186 -0.00000000000000000 -1.00000000000000000 -0.00000000000000022 
1 3110.00000000000000000 -80.00000000000129319 5712.00050000000010186 -1.00000000000000000 0.00000000000000000 0.00000000000000000 
1 3095.00000000000000000 -80.00000000000129319 5712.00050000000010186 -0.00000000000000000 0.00000000000000022 -1.00000000000000000 
1 3095.00000000000000000 -0.00000000000125500 5652.00050000000010186 -0.00000000000000000 -1.00000000000000000 -0.00000000000000022 
2 40.00000000000127898 5752.00050000000010186 -0.00000000000128608 0.00000000000000022 0.00000000000000022 1.00000000000000000 -0.00000000000000022 -1.00000000000000000 0.00000000000000022 1.00000000000000000 -0.00000000000000022 -0.00000000000000022 5.00000000000000000
2 40.00000000000126477 5692.00050000000010186 -0.00000000000127276 0.00000000000000022 0.00000000000000022 1.00000000000000000 -0.00000000000000022 -1.00000000000000000 0.00000000000000022 1.00000000000000000 -0.00000000000000022 -0.00000000000000022 5.00000000000000000
1 3110.00000000000000000 -0.00000000000125500 5652.00050000000010186 -0.00000000000000000 -1.00000000000000000 -0.00000000000000022 
1 3095.00000000000000000 -80.00000000000125056 5572.00050000000010186 1.00000000000000000 -0.00000000000000000 -0.00000000000000000 
1 2209.84386887290065715 -0.00000000000124833 5622.00050000000010186 -0.00000000000000000 1.00000000000000000 0.00000000000000022 
1 849.84386887302025571 -0.00000000000104642 4712.66700000000037107 -0.00000000000000000 1.00000000000000000 0.00000000000000022 
1 26.99999999999894840 -80.00000000000105160 4742.66700000000037107 1.00000000000000000 -0.00000000000000000 0.00000000000000022 
1 80.00000000000105160 4742.66700000000037107 0.00000000000107085 -1.00000000000000000 0.00000000000000022 -0.00000000000000022 
1 80.00000000000105160 4742.66700000000037107 0.00000000000107085 -1.00000000000000000 0.00000000000000022 -0.00000000000000022 
1 0.00000000000108750 4882.66700000000037107 0.00000000000108417 1.00000000000000000 -0.00000000000000022 0.00000000000000022 
1 80.00000000000108002 4882.66700000000037107 0.00000000000110193 -0.00000000000000022 -1.00000000000000000 -0.00000000000000022 
2 40.00000000000107292 4842.66700000000037107 0.00000000000108417 -0.00000000000000022 -0.00000000000000022 1.00000000000000000 -0.00000000000000022 -1.00000000000000000 -0.00000000000000022 1.00000000000000000 -0.00000000000000022 0.00000000000000022 5.00000000000000000
2 40.00000000000105871 4782.66700000000037107 0.00000000000107085 -0.00000000000000022 -0.00000000000000022 1.00000000000000000 -0.00000000000000022 -1.00000000000000000 -0.00000000000000022 1.00000000000000000 -0.00000000000000022 0.00000000000000022 5.00000000000000000
1 26.99999999999891642 -80.00000000000108002 4882.66700000000037107 1.00000000000000000 -0.00000000000000000 0.00000000000000022 
1 0.00000000000108417 4882.66700000000037107 0.00000000000108417 1.00000000000000000 -0.00000000000000022 0.00000000000000022 
1 1134.00000000000000000 -0.00000000000113454 5109.53369999999995343 -0.00000000000000000 1.00000000000000000 0.00000000000000022 
1 1286.00000000000000000 -0.00000000000113454 5109.53369999999995343 -0.00000000000000000 1.00000000000000000 0.00000000000000022 
1 1406.00000000000000000 -0.00000000000117493 5291.40040000000044529 -0.00000000000000000 1.00000000000000000 0.00000000000000022 
1 1558.00000000000000000 -0.00000000000117493 5291.40040000000044529 -0.00000000000000000 1.00000000000000000 0.00000000000000022 
1 1678.00000000000000000 -0.00000000000121531 5473.26710000000002765 -0.00000000000000000 1.00000000000000000 0.00000000000000022 
1 1830.00000000000000000 -0.00000000000121531 5473.26710000000002765 -0.00000000000000000 1.00000000000000000 0.00000000000000022 
1 1950.00000000000000000 -0.00000000000125569 5655.13379999999961001 -0.00000000000000000 1.00000000000000000 0.00000000000000022 
1 2102.00000000000000000 -0.00000000000125569 5655.13379999999961001 -0.00000000000000000 1.00000000000000000 0.00000000000000022 
1 3110.00000000000000000 -80.00000000000125056 5572.00050000000010186 0.00000000000000000 -0.00000000000000022 1.00000000000000000 
2 3110.00000000000000000 -40.00000000000126477 5692.00050000000010186 -1.00000000000000000 -0.00000000000000000 0.00000000000000022 -0.00000000000000022 0.00000000000000022 -1.00000000000000000 -0.00000000000000000 -1.00000000000000000 -0.00000000000000022 5.00000000000000000
2 3110.00000000000000000 -40.00000000000127898 5752.00050000000010186 -1.00000000000000000 -0.00000000000000000 0.00000000000000022 -0.00000000000000022 0.00000000000000022 -1.00000000000000000 -0.00000000000000000 -1.00000000000000000 -0.00000000000000022 5.00000000000000000
1 80.00000000000108002 4882.66700000000037107 0.00000000000110193 -0.00000000000000022 -1.00000000000000000 -0.00000000000000022 
2 40.00000000000107292 4842.66700000000037107 0.00000000000108417 -0.00000000000000022 -0.00000000000000022 1.00000000000000000 -0.00000000000000022 -1.00000000000000000 -0.00000000000000022 1.00000000000000000 -0.00000000000000022 0.00000000000000022 5.00000000000000000
2 40.00000000000105871 4782.66700000000037107 0.00000000000107085 -0.00000000000000022 -0.00000000000000022 1.00000000000000000 -0.00000000000000022 -1.00000000000000000 -0.00000000000000022 1.00000000000000000 -0.00000000000000022 0.00000000000000022 5.00000000000000000
1 3095.00000000000136424 -40.00000000000127898 5747.00050000000010186 1.00000000000000000 0.00000000000000000 -0.00000000000000022 
1 3095.00000000000136424 -40.00000000000126477 5687.00050000000010186 1.00000000000000000 0.00000000000000000 -0.00000000000000022 
1 26.99999999999892708 -40.00000000000107292 4837.66700000000037107 1.00000000000000000 -0.00000000000000000 0.00000000000000022 
1 26.99999999999893774 -40.00000000000105871 4777.66700000000037107 1.00000000000000000 -0.00000000000000000 0.00000000000000022 
Polygon3D 0
PolygonOnTriangulations 0
Surfaces 32
1 2133.96483879686957152 -0.00000000000130385 5872.00050000000010186 -0.55582821424383277 -0.00000000000000018 0.83129717685705629 -0.83129717685705629 0.00000000000000012 -0.55582821424383277 0.00000000000000000 -1.00000000000000000 -0.00000000000000022 
1 2133.96483879686957152 -0.00000000000130385 5872.00050000000010186 0.00000000000000000 0.00000000000000022 -1.00000000000000000 1.00000000000000000 0.00000000000000000 0.00000000000000000 0.00000000000000000 -1.00000000000000000 -0.00000000000000022 
1 773.96483879698962483 -0.00000000000110193 4962.66700000000037107 0.00000000000000000 -0.00000000000000022 1.00000000000000000 -1.00000000000000000 0.00000000000000000 0.00000000000000000 -0.00000000000000000 -1.00000000000000000 -0.00000000000000022 
1 1562.64236278088219478 -5311.63301230358138127 -0.00000000000235884 -0.00000000000000000 0.00000000000000044 -1.00000000000000000 0.00000000000000000 1.00000000000000000 0.00000000000000044 1.00000000000000000 0.00000000000000000 -0.00000000000000000 
2 1129.00000000000000000 -0.00000000000113454 5109.53369999999995343 0.00000000000000000 -1.00000000000000000 -0.00000000000000022 1.00000000000000000 0.00000000000000000 0.00000000000000000 0.00000000000000000 -0.00000000000000022 1.00000000000000000 5.00000000000000000
2 1281.00000000000000000 -0.00000000000113454 5109.53369999999995343 0.00000000000000000 -1.00000000000000000 -0.00000000000000022 1.00000000000000000 0.00000000000000000 0.00000000000000000 0.00000000000000000 -0.00000000000000022 1.00000000000000000 5.00000000000000000
2 1401.00000000000000000 -0.00000000000117493 5291.40040000000044529 0.00000000000000000 -1.00000000000000000 -0.00000000000000022 1.00000000000000000 0.00000000000000000 0.00000000000000000 0.00000000000000000 -0.00000000000000022 1.00000000000000000 5.00000000000000000
2 1553.00000000000000000 -0.00000000000117493 5291.40040000000044529 0.00000000000000000 -1.00000000000000000 -0.00000000000000022 1.00000000000000000 0.00000000000000000 0.00000000000000000 0.00000000000000000 -0.00000000000000022 1.00000000000000000 5.00000000000000000
2 1673.00000000000000000 -0.00000000000121531 5473.26710000000002765 0.00000000000000000 -1.00000000000000000 -0.00000000000000022 1.00000000000000000 0.00000000000000000 0.00000000000000000 0.00000000000000000 -0.00000000000000022 1.00000000000000000 5.00000000000000000
2 1825.00000000000000000 -0.00000000000121531 5473.26710000000002765 0.00000000000000000 -1.00000000000000000 -0.00000000000000022 1.00000000000000000 0.00000000000000000 0.00000000000000000 0.00000000000000000 -0.00000000000000022 1.00000000000000000 5.00000000000000000
2 1945.00000000000000000 -0.00000000000125569 5655.13379999999961001 0.00000000000000000 -1.00000000000000000 -0.00000000000000022 1.00000000000000000 0.00000000000000000 0.00000000000000000 0.00000000000000000 -0.00000000000000022 1.00000000000000000 5.00000000000000000
2 2097.00000000000000000 -0.00000000000125569 5655.13379999999961001 0.00000000000000000 -1.00000000000000000 -0.00000000000000022 1.00000000000000000 0.00000000000000000 0.00000000000000000 0.00000000000000000 -0.00000000000000022 1.00000000000000000 5.00000000000000000
1 1562.64236278088219478 -5326.63301230358138127 14.99999999999763745 -0.00000000000000000 0.00000000000000044 -1.00000000000000000 0.00000000000000000 1.00000000000000000 0.00000000000000044 1.00000000000000000 0.00000000000000000 -0.00000000000000000 
1 3110.00000000000000000 -0.00000000000130385 5872.00050000000010186 -1.00000000000000000 -0.00000000000000000 0.00000000000000000 -0.00000000000000000 0.00000000000000022 -1.00000000000000000 0.00000000000000000 -1.00000000000000000 -0.00000000000000022 
1 27.00000000000000000 -0.00000000000110193 4962.66700000000037107 -1.00000000000000000 -0.00000000000000000 0.00000000000000000 -0.00000000000000000 0.00000000000000022 -1.00000000000000000 0.00000000000000000 -1.00000000000000000 -0.00000000000000022 
1 3110.00000000000000000 -0.00000000000128608 5792.00050000000010186 0.00000000000000000 0.00000000000000022 -1.00000000000000000 -1.00000000000000000 0.00000000000000000 0.00000000000000000 0.00000000000000000 1.00000000000000000 0.00000000000000022 
1 3095.00000000000000000 -0.00000000000128608 5792.00050000000010186 1.00000000000000000 -0.00000000000000000 -0.00000000000000000 0.00000000000000000 0.00000000000000022 -1.00000000000000000 0.00000000000000000 1.00000000000000000 0.00000000000000022 
2 3095.00000000000136424 -40.00000000000127898 5752.00050000000010186 -1.00000000000000000 -0.00000000000000000 0.00000000000000022 -0.00000000000000022 0.00000000000000022 -1.00000000000000000 -0.00000000000000000 -1.00000000000000000 -0.00000000000000022 5.00000000000000000
2 3095.00000000000136424 -40.00000000000126477 5692.00050000000010186 -1.00000000000000000 -0.00000000000000000 0.00000000000000022 -0.00000000000000022 0.00000000000000022 -1.00000000000000000 -0.00000000000000000 -1.00000000000000000 -0.00000000000000022 5.00000000000000000
1 3095.00000000000000000 -0.00000000000125500 5652.00050000000010186 0.00000000000000000 -0.00000000000000022 1.00000000000000000 1.00000000000000000 0.00000000000000000 0.00000000000000000 -0.00000000000000000 1.00000000000000000 0.00000000000000022 
1 3110.00000000000000000 -0.00000000000124833 5622.00050000000010186 0.00000000000000000 -0.00000000000000022 1.00000000000000000 -1.00000000000000000 0.00000000000000000 0.00000000000000000 -0.00000000000000000 -1.00000000000000000 -0.00000000000000022 
1 849.84386887302025571 -0.00000000000104642 4712.66700000000037107 0.55582821424383255 0.00000000000000018 -0.83129717685705640 0.83129717685705640 -0.00000000000000012 0.55582821424383255 0.00000000000000000 -1.00000000000000000 -0.00000000000000022 
1 27.00000000000000000 -0.00000000000104642 4712.66700000000037107 0.00000000000000000 0.00000000000000022 -1.00000000000000000 1.00000000000000000 0.00000000000000000 0.00000000000000000 0.00000000000000000 -1.00000000000000000 -0.00000000000000022 
1 26.99999999999894840 -80.00000000000105160 4742.66700000000037107 -0.00000000000000022 -0.00000000000000022 1.00000000000000000 0.00000000000000000 1.00000000000000000 0.00000000000000022 -1.00000000000000000 0.00000000000000000 -0.00000000000000022 
1 26.99999999999893419 -4812.66700000000037107 -40.00000000000213873 1.00000000000000000 -0.00000000000000023 -0.00000000000000000 -0.00000000000000023 -1.00000000000000000 -0.00000000000000022 0.00000000000000000 0.00000000000000022 -1.00000000000000000 
2 26.99999999999892353 -40.00000000000107292 4842.66700000000037107 -1.00000000000000000 0.00000000000000000 -0.00000000000000022 0.00000000000000022 0.00000000000000022 -1.00000000000000000 0.00000000000000000 -1.00000000000000000 -0.00000000000000022 5.00000000000000000
2 26.99999999999893774 -40.00000000000105871 4782.66700000000037107 -1.00000000000000000 0.00000000000000000 -0.00000000000000022 0.00000000000000022 0.00000000000000022 -1.00000000000000000 0.00000000000000000 -1.00000000000000000 -0.00000000000000022 5.00000000000000000
1 26.99999999999891642 -0.00000000000108417 4882.66700000000037107 0.00000000000000022 0.00000000000000022 -1.00000000000000000 0.00000000000000000 -1.00000000000000000 -0.00000000000000022 -1.00000000000000000 0.00000000000000000 -0.00000000000000022 
1 3110.00000000000000000 -0.00000000000125500 5652.00050000000010186 -1.00000000000000000 0.00000000000000000 0.00000000000000000 0.00000000000000000 -0.00000000000000022 1.00000000000000000 0.00000000000000000 1.00000000000000000 0.00000000000000022 
1 26.99999999999893419 -4812.66700000000037107 -40.00000000000213873 1.00000000000000000 -0.00000000000000023 -0.00000000000000000 -0.00000000000000023 -1.00000000000000000 -0.00000000000000022 0.00000000000000000 0.00000000000000022 -1.00000000000000000 
1 3102.50000000000000000 -5642.00050000000101136 -80.00000000000252953 -0.00000000000000000 0.00000000000000044 -1.00000000000000000 0.00000000000000000 1.00000000000000000 0.00000000000000044 1.00000000000000000 0.00000000000000000 -0.00000000000000000 
1 26.99999999999891642 -80.00000000000108002 4882.66700000000037107 -0.00000000000000000 1.00000000000000000 0.00000000000000022 0.00000000000000022 0.00000000000000022 -1.00000000000000000 -1.00000000000000000 0.00000000000000000 -0.00000000000000022 
Triangulations 0

TShapes 232
Ve
0.000000100000000
2133.964838796869572 -5872.000500000000102 -0.000000000002608
0 0

0101101
*
Ve
0.000000100000000
2133.964838796869572 -5872.000500000000102 14.999999999997392
0 0

0101101
*
Ed
 0.000000100000000 1 1 0
1  1 0 0.000000000000000 15.000000000000000
0

0101000
+232 10 -231 10 *
Ve
0.000000100000000
773.964838796989625 -4962.667000000000371 -0.000000000002204
0 0

0101101
*
Ve
0.000000100000000
773.964838796989625 -4962.667000000000371 14.999999999997797
0 0

0101101
*
Ed
 0.000000100000000 1 1 0
1  2 0 0.000000000000000 15.000000000000000
0

0101000
+229 10 -228 10 *
Ed
 0.000000100000000 1 1 0
1  3 0 0.000000000000000 1635.997375982590938
0

0101000
+232 15 -229 15 *
Ed
 0.000000100000000 1 1 0
1  4 0 0.000000000000000 1635.997375982590938
0

0101000
+231 18 -228 18 *
Wi

0101100
+230 0 -227 0 -226 14 +225 17 *
Fa
0  0.000000100000000 1 0

0111000
+224 0 *
Ve
0.000000100000000
3110.000000000000000 -5872.000500000000102 -0.000000000002608
0 0

0101101
*
Ve
0.000000100000000
3110.000000000000000 -5872.000500000000102 14.999999999997392
0 0

0101101
*
Ed
 0.000000100000000 1 1 0
1  5 0 0.000000000000000 15.000000000000000
0

0101000
+222 10 -221 10 *
Ed
 0.000000100000000 1 1 0
1  6 0 0.000000000000000 976.035161203130428
0

0101000
+232 15 -222 15 *
Ed
 0.000000100000000 1 1 0
1  7 0 0.000000000000000 976.035161203130428
0

0101000
+231 18 -221 18 *
Wi

0101100
+230 0 -220 0 -219 14 +218 17 *
Fa
0  0.000000100000000 2 0

0111000
+217 0 *
Ve
0.000000100000000
27.000000000000000 -4962.667000000000371 -0.000000000002204
0 0

0101101
*
Ve
0.000000100000000
27.000000000000000 -4962.667000000000371 14.999999999997797
0 0

0101101
*
Ed
 0.000000100000000 1 1 0
1  8 0 0.000000000000000 15.000000000000000
0

0101000
+215 10 -214 10 *
Ed
 0.000000100000000 1 1 0
1  9 0 0.000000000000000 746.964838796989625
0

0101000
+229 15 -215 15 *
Ed
 0.000000100000000 1 1 0
1  10 0 0.000000000000000 746.964838796989625
0

0101000
+228 18 -214 18 *
Wi

0101100
+227 0 -213 0 -212 14 +211 17 *
Fa
0  0.000000100000000 3 0

0111000
+210 0 *
Ve
0.000000100000000
3110.000000000000000 -5792.000500000000102 -0.000000000002572
0 0

0101101
*
Ed
 0.000000100000000 1 1 0
1  11 0 0.000000000000000 80.000000000000000
0

0101000
+222 15 -208 15 *
Ve
0.000000100000000
3095.000000000000000 -5792.000500000000102 -0.000000000002572
0 0

0101101
*
Ed
 0.000000100000000 1 1 0
1  12 0 0.000000000000000 15.000000000000000
0

0101000
+208 24 -206 24 *
Ve
0.000000100000000
3095.000000000000000 -5652.000500000000102 -0.000000000002510
0 0

0101101
*
Ed
 0.000000100000000 1 1 0
1  13 0 0.000000000000000 140.000000000000000
0

0101000
+206 24 -204 24 *
Ve
0.000000100000000
3110.000000000000000 -5652.000500000000102 -0.000000000002510
0 0

0101101
*
Ed
 0.000000100000000 1 1 0
1  14 0 0.000000000000000 15.000000000000000
0

0101000
+204 24 -202 24 *
Ve
0.000000100000000
3110.000000000000000 -5622.000500000000102 -0.000000000002497
0 0

0101101
*
Ed
 0.000000100000000 1 1 0
1  15 0 220.000000000000000 250.000000000000000
0

0101000
+202 15 -200 15 *
Ve
0.000000100000000
2209.843868872900657 -5622.000500000000102 -0.000000000002497
0 0

0101101
*
Ed
 0.000000100000000 1 1 0
1  16 0 0.000000000000000 900.156131127099343
0

0101000
+200 15 -198 15 *
Ve
0.000000100000000
849.843868873020256 -4712.667000000000371 -0.000000000002093
0 0

0101101
*
Ed
 0.000000100000000 1 1 0
1  17 0 0.000000000000000 1635.997375982591393
0

0101000
+196 15 -198 15 *
Ve
0.000000100000000
27.000000000000000 -4712.667000000000371 -0.000000000002093
0 0

0101101
*
Ed
 0.000000100000000 1 1 0
1  18 0 0.000000000000000 822.843868873020256
0

0101000
+194 15 -196 15 *
Ve
0.000000100001080
26.999999999998948 -4742.667000000000371 -0.000000000002106
0 0

0101101
*
Ed
 0.000000100000000 1 1 0
1  19 0 220.000000000000000 250.000000000000000
0

0101000
+192 15 -194 15 *
Ve
0.000000100001080
41.999999999998948 -4742.667000000000371 -0.000000000002106
0 0

0101101
*
Ed
 0.000000100000000 1 1 0
1  20 0 0.000000000000000 15.000000000000000
0

0101000
+192 25 -190 25 *
Ve
0.000000100001084
41.999999999998913 -4882.667000000000371 -0.000000000002168
0 0

0101101
*
Ed
 0.000000100001080 1 1 0
1  21 0 0.000000000000000 140.000000000000000
0

0101000
+190 30 -188 30 *
Ve
0.000000100001084
26.999999999998916 -4882.667000000000371 -0.000000000002168
0 0

0101101
*
Ed
 0.000000100000000 1 1 0
1  22 0 0.000000000000000 15.000000000000000
0

0101000
+186 25 -188 25 *
Ed
 0.000000100000000 1 1 0
1  23 0 0.000000000000000 80.000000000000000
0

0101000
+215 15 -186 15 *
Wi

0101100
-219 20 -207 20 -205 23 -203 23 -201 23 -199 20 -197 20 +195 20 +193 20 +191 20 
-189 0 -187 29 +185 0 +184 20 +212 20 +226 20 *
Ve
0.000000100000000
1134.000000000000000 -5109.533699999999953 -0.000000000002269
0 0

0101101
*
Ed
 0.000000100000000 1 1 0
1  24 0 0.000000000000000 6.283185307179586
2  1 5 31 0.000000000000000 6.283185307179586
0

0101000
+182 15 -182 15 *
Wi

0101100
-181 20 *
Ve
0.000000100000000
1286.000000000000000 -5109.533699999999953 -0.000000000002269
0 0

0101101
*
Ed
 0.000000100000000 1 1 0
1  25 0 0.000000000000000 6.283185307179586
2  2 6 31 0.000000000000000 6.283185307179586
0

0101000
+179 15 -179 15 *
Wi

0101100
-178 20 *
Ve
0.000000100000000
1406.000000000000000 -5291.400400000000445 -0.000000000002350
0 0

0101101
*
Ed
 0.000000100000000 1 1 0
1  26 0 0.000000000000000 6.283185307179586
2  3 7 31 0.000000000000000 6.283185307179586
0

0101000
+176 15 -176 15 *
Wi

0101100
-175 20 *
Ve
0.000000100000000
1558.000000000000000 -5291.400400000000445 -0.000000000002350
0 0

0101101
*
Ed
 0.000000100000000 1 1 0
1  27 0 0.000000000000000 6.283185307179586
2  4 8 31 0.000000000000000 6.283185307179586
0

0101000
+173 15 -173 15 *
Wi

0101100
-172 20 *
Ve
0.000000100000000
1678.000000000000000 -5473.267100000000028 -0.000000000002431
0 0

0101101
*
Ed
 0.000000100000000 1 1 0
1  28 0 0.000000000000000 6.283185307179586
2  5 9 31 0.000000000000000 6.283185307179586
0

0101000
+170 15 -170 15 *
Wi

0101100
-169 20 *
Ve
0.000000100000000
1830.000000000000000 -5473.267100000000028 -0.000000000002431
0 0

0101101
*
Ed
 0.000000100000000 1 1 0
1  29 0 0.000000000000000 6.283185307179586
2  6 10 31 0.000000000000000 6.283185307179586
0

0101000
+167 15 -167 15 *
Wi

0101100
-166 20 *
Ve
0.000000100000000
1950.000000000000000 -5655.133799999999610 -0.000000000002511
0 0

0101101
*
Ed
 0.000000100000000 1 1 0
1  30 0 0.000000000000000 6.283185307179586
2  7 11 31 0.000000000000000 6.283185307179586
0

0101000
+164 15 -164 15 *
Wi

0101100
-163 20 *
Ve
0.000000100000000
2102.000000000000000 -5655.133799999999610 -0.000000000002511
0 0

0101101
*
Ed
 0.000000100000000 1 1 0
1  31 0 0.000000000000000 6.283185307179586
2  8 12 31 0.000000000000000 6.283185307179586
0

0101000
+161 15 -161 15 *
Wi

0101100
-160 20 *
Fa
0  0.000000100000000 4 19

0111000
+183 0 +180 0 +177 0 +174 0 +171 0 +168 0 +165 0 +162 0 +159 0 *
Ve
0.000000100000000
27.000000000000000 -4712.667000000000371 14.999999999997907
0 0

0101101
*
Ed
 0.000000100000000 1 1 0
1  32 0 0.000000000000000 250.000000000000000
0

0101000
+214 18 -157 18 *
Ve
0.000000100000000
849.843868873020256 -4712.667000000000371 14.999999999997907
0 0

0101101
*
Ed
 0.000000100000000 1 1 0
1  33 0 0.000000000000000 822.843868873020256
0

0101000
+157 18 -155 18 *
Ve
0.000000100000000
2209.843868872900657 -5622.000500000000102 14.999999999997502
0 0

0101101
*
Ed
 0.000000100000000 1 1 0
1  34 0 0.000000000000000 1635.997375982591393
0

0101000
+155 18 -153 18 *
Ve
0.000000100000000
3110.000000000000000 -5622.000500000000102 14.999999999997502
0 0

0101101
*
Ed
 0.000000100000000 1 1 0
1  35 0 0.000000000000000 900.156131127099343
0

0101000
+151 18 -153 18 *
Ed
 0.000000100000000 1 1 0
1  36 0 0.000000000000000 250.000000000000000
0

0101000
+221 18 -151 18 *
Wi

0101100
+225 33 +211 33 +156 33 +154 33 +152 33 -150 33 -149 33 -218 33 *
Ve
0.000000100000000
1134.000000000000000 -5109.533699999999953 14.999999999997730
0 0

0101101
*
Ed
 0.000000100000000 1 1 0
1  37 0 0.000000000000000 6.283185307179586
2  9 5 34 0.000000000000000 6.283185307179586
0

0101000
+147 18 -147 18 *
Wi

0101100
-146 33 *
Ve
0.000000100000000
1286.000000000000000 -5109.533699999999953 14.999999999997730
0 0

0101101
*
Ed
 0.000000100000000 1 1 0
1  38 0 0.000000000000000 6.283185307179586
2  10 6 34 0.000000000000000 6.283185307179586
0

0101000
+144 18 -144 18 *
Wi

0101100
-143 33 *
Ve
0.000000100000000
1406.000000000000000 -5291.400400000000445 14.999999999997652
0 0

0101101
*
Ed
 0.000000100000000 1 1 0
1  39 0 0.000000000000000 6.283185307179586
2  11 7 34 0.000000000000000 6.283185307179586
0

0101000
+141 18 -141 18 *
Wi

0101100
-140 33 *
Ve
0.000000100000000
1558.000000000000000 -5291.400400000000445 14.999999999997652
0 0

0101101
*
Ed
 0.000000100000000 1 1 0
1  40 0 0.000000000000000 6.283185307179586
2  12 8 34 0.000000000000000 6.283185307179586
0

0101000
+138 18 -138 18 *
Wi

0101100
-137 33 *
Ve
0.000000100000000
1678.000000000000000 -5473.267100000000028 14.999999999997570
0 0

0101101
*
Ed
 0.000000100000000 1 1 0
1  41 0 0.000000000000000 6.283185307179586
2  13 9 34 0.000000000000000 6.283185307179586
0

0101000
+135 18 -135 18 *
Wi

0101100
-134 33 *
Ve
0.000000100000000
1830.000000000000000 -5473.267100000000028 14.999999999997570
0 0

0101101
*
Ed
 0.000000100000000 1 1 0
1  42 0 0.000000000000000 6.283185307179586
2  14 10 34 0.000000000000000 6.283185307179586
0

0101000
+132 18 -132 18 *
Wi

0101100
-131 33 *
Ve
0.000000100000000
1950.000000000000000 -5655.133799999999610 14.999999999997488
0 0

0101101
*
Ed
 0.000000100000000 1 1 0
1  43 0 0.000000000000000 6.283185307179586
2  15 11 34 0.000000000000000 6.283185307179586
0

0101000
+129 18 -129 18 *
Wi

0101100
-128 33 *
Ve
0.000000100000000
2102.000000000000000 -5655.133799999999610 14.999999999997488
0 0

0101101
*
Ed
 0.000000100000000 1 1 0
1  44 0 0.000000000000000 6.283185307179586
2  16 12 34 0.000000000000000 6.283185307179586
0

0101000
+126 18 -126 18 *
Wi

0101100
-125 33 *
Fa
0  0.000000100000000 13 0

0111000
+148 0 +145 0 +142 0 +139 0 +136 0 +133 0 +130 0 +127 0 +124 0 *
Ed
 0.000000100000000 1 1 0
1  45 0 0.000000000000000 15.000000000000000
0

0101000
+200 10 -151 10 *
Ed
 0.000000100000000 1 1 0
1  46 0 0.000000000000000 140.000000000000000
0

0101000
+202 24 -208 24 *
Wi

0101100
+220 36 -122 36 -207 37 +121 38 -199 37 +149 39 *
Fa
0  0.000000100000000 14 36

0111000
+120 0 *
Ed
 0.000000100000000 1 1 0
1  47 0 0.000000000000000 15.000000000000000
0

0101000
+194 10 -157 10 *
Ed
 0.000000100001080 1 1 0
1  48 0 0.000000000000000 140.000000000000000
0

0101000
+192 41 -186 41 *
Wi

0101100
+213 8 -118 8 -184 20 +117 40 -191 20 +156 42 *
Fa
0  0.000000100000000 15 8

0111000
+116 0 *
Ve
0.000000100000000
3110.000000000000000 -5792.000500000000102 -80.000000000002586
0 0

0101101
*
Ed
 0.000000100000000 1 1 0
1  49 0 0.000000000000000 80.000000000000000
0

0101000
+208 43 -114 43 *
Ve
0.000000100000000
3095.000000000000000 -5792.000500000000102 -80.000000000002586
0 0

0101101
*
Ed
 0.000000100000000 1 1 0
1  50 0 0.000000000000000 80.000000000000000
0

0101000
+206 43 -112 43 *
Ed
 0.000000100000000 1 1 0
1  51 0 0.000000000000000 15.000000000000000
0

0101000
+114 46 -112 46 *
Wi

0101100
+113 0 -111 0 -205 38 +110 45 *
Fa
0  0.000000100000000 16 0

0111000
+109 0 *
Ve
0.000000100000000
3095.000000000000000 -5652.000500000000102 -80.000000000002501
0 0

0101101
*
Ed
 0.000000100000000 1 1 0
1  52 0 0.000000000000000 140.000000000000000
0

0101000
+112 46 -107 46 *
Ed
 0.000000100000000 1 1 0
1  53 0 0.000000000000000 80.000000000000000
0

0101000
+204 43 -107 43 *
Wi

0101100
+111 48 -203 49 +106 50 -105 48 *
Ve
0.000000100001364
3095.000000000001364 -5747.000500000000102 -40.000000000002558
0 0

0101101
*
Ed
 0.000000100001364 1 1 0
1  54 0 0.000000000000000 6.283185307179586
2  17 18 54 0.000000000000000 6.283185307179586
0

0101000
+103 55 -103 55 *
Wi

0101100
+102 53 *
Ve
0.000000100001364
3095.000000000001364 -5687.000500000000102 -40.000000000002530
0 0

0101101
*
Ed
 0.000000100001364 1 1 0
1  55 0 0.000000000000000 6.283185307179586
2  18 19 54 0.000000000000000 6.283185307179586
0

0101000
+100 55 -100 55 *
Wi

0101100
+99 53 *
Fa
0  0.000000100000000 17 48

0111000
+104 0 +101 0 +98 0 *
Ve
0.000000100000000
3110.000000000000000 -5652.000500000000102 -80.000000000002501
0 0

0101101
*
Ed
 0.000000100000000 1 1 0
1  56 0 0.000000000000000 80.000000000000000
0

0101000
+202 43 -96 43 *
Ed
 0.000000100000000 1 1 0
1  57 0 0.000000000000000 15.000000000000000
0

0101000
+107 46 -96 46 *
Wi

0101100
+105 0 -95 0 -201 38 +94 45 *
Fa
0  0.000000100000000 20 0

0111000
+93 0 *
Ed
 0.000000100000000 1 1 0
1  58 0 0.000000000000000 15.000000000000000
0

0101000
+198 10 -153 10 *
Wi

0101100
+122 0 -91 0 -197 14 +150 17 *
Fa
0  0.000000100000000 21 0

0111000
+90 0 *
Ed
 0.000000100000000 1 1 0
1  59 0 0.000000000000000 15.000000000000000
0

0101000
+196 10 -155 10 *
Wi

0101100
+88 0 -91 0 -195 14 +152 17 *
Fa
0  0.000000100000000 22 0

0111000
+87 0 *
Wi

0101100
+118 0 -88 0 -193 14 +154 17 *
Fa
0  0.000000100000000 23 0

0111000
+85 0 *
Ve
0.000000100000000
26.999999999998948 -4742.667000000000371 -80.000000000002103
0 0

0101101
*
Ve
0.000000100000000
41.999999999998948 -4742.667000000000371 -80.000000000002103
0 0

0101101
*
Ed
 0.000000100000000 1 1 0
1  60 0 0.000000000000000 15.000000000000000
0

0101000
+83 25 -82 25 *
Ed
 0.000000100000000 1 1 0
1  61 0 0.000000000000000 80.000000000000000
0

0101000
+83 41 -192 41 *
Ed
 0.000000100000000 1 1 0
1  62 0 0.000000000000000 80.000000000000000
0

0101000
+82 30 -190 30 *
Wi

0101100
+81 0 -189 0 -80 40 +79 29 *
Fa
0  0.000000100000000 24 0

0111000
+78 0 *
Ve
0.000000100000000
41.999999999998913 -4882.667000000000371 -80.000000000002160
0 0

0101101
*
Ed
 0.000000100000000 1 1 0
1  63 0 0.000000000000000 80.000000000000000
0

0101000
+188 30 -76 30 *
Ed
 0.000000100000000 1 1 0
1  64 0 0.000000000000000 140.000000000000000
0

0101000
+76 30 -82 30 *
Wi

0101100
+187 57 +75 57 +74 57 +79 57 *
Ve
0.000000100000000
41.999999999998927 -4837.667000000000371 -40.000000000002146
0 0

0101101
*
Ed
 0.000000100000000 1 1 0
1  65 0 0.000000000000000 6.283185307179586
2  19 26 58 0.000000000000000 6.283185307179586
0

0101000
+72 30 -72 30 *
Wi

0101100
+71 57 *
Ve
0.000000100000000
41.999999999998941 -4777.667000000000371 -40.000000000002117
0 0

0101101
*
Ed
 0.000000100000000 1 1 0
1  66 0 0.000000000000000 6.283185307179586
2  20 27 58 0.000000000000000 6.283185307179586
0

0101000
+69 30 -69 30 *
Wi

0101100
+68 57 *
Fa
0  0.000000100000000 25 0

0111000
+73 0 +70 0 +67 0 *
Ve
0.000000100000000
26.999999999998916 -4882.667000000000371 -80.000000000002160
0 0

0101101
*
Ed
 0.000000100000000 1 1 0
1  67 0 0.000000000000000 15.000000000000000
0

0101000
+65 25 -76 25 *
Ed
 0.000000100000000 1 1 0
1  68 0 0.000000000000000 80.000000000000000
0

0101000
+186 41 -65 41 *
Wi

0101100
+185 0 -64 0 -63 40 +75 29 *
Fa
0  0.000000100000000 28 0

0111000
+62 0 *
Ed
 0.000000100000000 1 1 0
1  69 0 0.000000000000000 15.000000000000000
3  21 22CN 5 0 0.000000000000000 15.000000000000000
0

0101000
+182 10 -147 10 *
Wi

0101100
+60 0 -60 0 -181 14 +146 17 *
Fa
0  0.000000100000000 5 0

0111000
+59 0 *
Ed
 0.000000100000000 1 1 0
1  70 0 0.000000000000000 15.000000000000000
3  23 24CN 6 0 0.000000000000000 15.000000000000000
0

0101000
+179 10 -144 10 *
Wi

0101100
+57 0 -57 0 -178 14 +143 17 *
Fa
0  0.000000100000000 6 0

0111000
+56 0 *
Ed
 0.000000100000000 1 1 0
1  71 0 0.000000000000000 15.000000000000000
3  25 26CN 7 0 0.000000000000000 15.000000000000000
0

0101000
+176 10 -141 10 *
Wi

0101100
+54 0 -54 0 -175 14 +140 17 *
Fa
0  0.000000100000000 7 0

0111000
+53 0 *
Ed
 0.000000100000000 1 1 0
1  72 0 0.000000000000000 15.000000000000000
3  27 28CN 8 0 0.000000000000000 15.000000000000000
0

0101000
+173 10 -138 10 *
Wi

0101100
+51 0 -51 0 -172 14 +137 17 *
Fa
0  0.000000100000000 8 0

0111000
+50 0 *
Ed
 0.000000100000000 1 1 0
1  73 0 0.000000000000000 15.000000000000000
3  29 30CN 9 0 0.000000000000000 15.000000000000000
0

0101000
+170 10 -135 10 *
Wi

0101100
+48 0 -48 0 -169 14 +134 17 *
Fa
0  0.000000100000000 9 0

0111000
+47 0 *
Ed
 0.000000100000000 1 1 0
1  74 0 0.000000000000000 15.000000000000000
3  31 32CN 10 0 0.000000000000000 15.000000000000000
0

0101000
+167 10 -132 10 *
Wi

0101100
+45 0 -45 0 -166 14 +131 17 *
Fa
0  0.000000100000000 10 0

0111000
+44 0 *
Ed
 0.000000100000000 1 1 0
1  75 0 0.000000000000000 15.000000000000000
3  33 34CN 11 0 0.000000000000000 15.000000000000000
0

0101000
+164 10 -129 10 *
Wi

0101100
+42 0 -42 0 -163 14 +128 17 *
Fa
0  0.000000100000000 11 0

0111000
+41 0 *
Ed
 0.000000100000000 1 1 0
1  76 0 0.000000000000000 15.000000000000000
3  35 36CN 12 0 0.000000000000000 15.000000000000000
0

0101000
+161 10 -126 10 *
Wi

0101100
+39 0 -39 0 -160 14 +125 17 *
Fa
0  0.000000100000000 12 0

0111000
+38 0 *
Ed
 0.000000100000000 1 1 0
1  77 0 0.000000000000000 140.000000000000000
0

0101000
+96 46 -114 46 *
Wi

0101100
+95 48 -121 49 +36 50 -113 48 *
Ve
0.000000100000000
3110.000000000000000 -5687.000500000000102 -40.000000000002530
0 0

0101101
*
Ed
 0.000000100000000 1 1 0
1  78 0 0.000000000000000 6.283185307179586
2  37 19 0 0.000000000000000 6.283185307179586
0

0101000
+34 59 -34 59 *
Wi

0101100
-33 0 *
Ve
0.000000100000000
3110.000000000000000 -5747.000500000000102 -40.000000000002558
0 0

0101101
*
Ed
 0.000000100000000 1 1 0
1  79 0 0.000000000000000 6.283185307179586
2  38 18 0 0.000000000000000 6.283185307179586
0

0101000
+31 59 -31 59 *
Wi

0101100
-30 0 *
Fa
0  0.000000100000000 29 48

0111000
+35 0 +32 0 +29 0 *
Ed
 0.000000100000000 1 1 0
1  80 0 0.000000000000000 140.000000000000000
0

0101000
+65 41 -83 41 *
Wi

0101100
+117 57 +63 57 +27 57 +80 57 *
Ve
0.000000100000000
26.999999999998927 -4837.667000000000371 -40.000000000002146
0 0

0101101
*
Ed
 0.000000100000000 1 1 0
1  81 0 0.000000000000000 6.283185307179586
2  39 26 61 0.000000000000000 6.283185307179586
0

0101000
+25 41 -25 41 *
Wi

0101100
+24 57 *
Ve
0.000000100000000
26.999999999998938 -4777.667000000000371 -40.000000000002117
0 0

0101101
*
Ed
 0.000000100000000 1 1 0
1  82 0 0.000000000000000 6.283185307179586
2  40 27 61 0.000000000000000 6.283185307179586
0

0101000
+22 41 -22 41 *
Wi

0101100
+21 57 *
Fa
0  0.000000100000000 30 0

0111000
+26 0 +23 0 +20 0 *
Wi

0101100
+110 0 +106 0 +94 0 +36 0 *
Fa
0  0.000000100000000 31 0

0111000
+18 63 *
Ed
 0.000000100000000 1 1 0
1  83 0 0.000000000000000 14.999999999998636
3  41 42CN 18 0 0.000000000000000 14.999999999998636
0

0101000
+103 59 -31 59 *
Wi

0101100
-102 53 -16 0 +30 0 +16 0 *
Fa
0  0.000000100000000 18 0

0111000
+15 0 *
Ed
 0.000000100000000 1 1 0
1  84 0 0.000000000000000 14.999999999998636
3  43 44CN 19 0 0.000000000000000 14.999999999998636
0

0101000
+100 59 -34 59 *
Wi

0101100
-99 53 -13 0 +33 0 +13 0 *
Fa
0  0.000000100000000 19 0

0111000
+12 0 *
Wi

0101100
+64 0 -81 0 -27 40 +74 29 *
Fa
0  0.000000100000000 32 0

0111000
+10 0 *
Ed
 0.000000100000000 1 1 0
1  85 0 0.000000000000000 15.000000000000000
3  45 46CN 26 0 0.000000000000000 15.000000000000000
0

0101000
+25 25 -72 25 *
Wi

0101100
+8 0 -8 0 -24 40 +71 29 *
Fa
0  0.000000100000000 26 0

0111000
+7 0 *
Ed
 0.000000100000000 1 1 0
1  86 0 0.000000000000000 15.000000000000000
3  47 48CN 27 0 0.000000000000000 15.000000000000000
0

0101000
+22 25 -69 25 *
Wi

0101100
+5 0 -5 0 -21 40 +68 29 *
Fa
0  0.000000100000000 27 0

0111000
+4 0 *
Sh

0101100
+223 8 -216 8 +209 8 +158 0 -123 32 -119 35 +115 0 -108 35 -97 47 -92 35 
-89 8 +86 8 +84 8 -77 0 +66 56 -61 0 -58 8 -55 8 -52 8 -49 8 
-46 8 -43 8 -40 8 -37 8 -28 47 -19 60 +17 62 -14 47 -11 47 -9 0 
-6 0 -3 0 *
So

0100000
+2 0 *

+1 1 