
CASCADE Topology V1, (c) Matra-Datavision
Locations 12
1
1.000000000000000 0.000000000000000 0.000000000000000 0.000000000000000 
0.000000000000000 1.000000000000000 0.000000000000000 0.000000000000000 
0.000000000000000 0.000000000000000 1.000000000000000 0.000000000000000 
1
-1.000000000000000 0.000000000000000 0.000000000000000 0.000000000000000 
0.000000000000000 -1.000000000000000 0.000000000000000 -0.000000000000669 
0.000000000000000 0.000000000000000 1.000000000000000 3014.000000000000000 
1
1.000000000000000 0.000000000000000 0.000000000000000 0.000000000000000 
0.000000000000000 -0.000000000000000 -1.000000000000000 0.000000000000000 
0.000000000000000 1.000000000000000 -0.000000000000000 0.000000000000000 
2  1 1 2 1 3 -1 0
1
1.000000000000000 0.000000000000000 0.000000000000000 0.000000000000000 
0.000000000000000 1.000000000000000 0.000000000000000 120.000000000000000 
0.000000000000000 0.000000000000000 1.000000000000000 0.000000000000000 
2  1 1 2 1 3 -1 5 1 0
2  3 1 2 -1 1 -1 0
2  5 -1 3 1 2 -1 1 -1 0
2  2 -1 1 -1 0
2  3 -1 0
2  1 1 2 1 0
2  3 -1 5 1 0
Curve2ds 20
1 1027.00000000000113687 0.00000000000000000 0.00000000000000000 -1.00000000000000000 
1 0.00000000000000000 0.00000000000000000 0.00000000000000000 -1.00000000000000000 
1 0.00000000000000000 0.00000000000000000 0.00000000000000000 -1.00000000000000000 
1 1849.99999999999886313 0.00000000000000000 0.00000000000000000 -1.00000000000000000 
1 0.00000000000000000 0.00000000000000000 1.00000000000000000 0.00000000000000000 
1 0.00000000000000000 -120.00000000000000000 1.00000000000000000 0.00000000000000000 
1 513.50000000000056843 -924.99999999999954525 0.00000000000000000 1.00000000000000000 
1 0.00000000000000000 0.00000000000000000 0.00000000000000000 -1.00000000000000000 
1 1027.00000000000113687 0.00000000000000000 0.00000000000000000 -1.00000000000000000 
1 0.00000000000000000 0.00000000000000000 1.00000000000000000 0.00000000000000000 
1 0.00000000000000000 -120.00000000000000000 1.00000000000000000 0.00000000000000000 
1 513.50000000000056843 924.99999999999931788 -1.00000000000000000 0.00000000000000000 
1 1849.99999999999886313 0.00000000000000000 0.00000000000000000 -1.00000000000000000 
1 0.00000000000000000 -0.00000000000000000 0.00000000000000000 -1.00000000000000000 
1 0.00000000000000000 0.00000000000000000 1.00000000000000000 0.00000000000000000 
1 0.00000000000000000 -120.00000000000000000 1.00000000000000000 0.00000000000000000 
1 -513.50000000000068212 924.99999999999931788 0.00000000000000000 -1.00000000000000000 
1 0.00000000000000000 -0.00000000000000000 1.00000000000000000 0.00000000000000000 
1 0.00000000000000000 -120.00000000000000000 1.00000000000000000 0.00000000000000000 
1 -513.50000000000068212 -924.99999999999954525 1.00000000000000000 -0.00000000000000000 
Curves 8
1 3707.99999999999863576 3014.00000000000000000 -90.00000000000272848 0.00000000000000000 1.00000000000000000 0.00000000000000000 
1 1857.99999999999977263 3014.00000000000000000 -90.00000000000272848 0.00000000000000000 1.00000000000000000 0.00000000000000000 
1 -3707.99999999999863576 -90.00000000000272848 0.00000000000000000 1.00000000000000000 0.00000000000000000 0.00000000000000000 
1 1857.99999999999977263 3014.00000000000000000 936.99999999999840838 0.00000000000000000 1.00000000000000000 0.00000000000000000 
1 -1857.99999999999977263 -90.00000000000272848 0.00000000000000000 0.00000000000000000 1.00000000000000000 0.00000000000000000 
1 3707.99999999999863576 3014.00000000000000000 936.99999999999840838 0.00000000000000000 1.00000000000000000 0.00000000000000000 
1 -1857.99999999999977263 936.99999999999840838 0.00000000000000000 -1.00000000000000000 0.00000000000000000 0.00000000000000000 
1 -3707.99999999999863576 936.99999999999840838 0.00000000000000000 0.00000000000000000 -1.00000000000000000 0.00000000000000000 
Polygon3D 0
PolygonOnTriangulations 0
Surfaces 5
1 3707.99999999999863576 3014.00000000000000000 -90.00000000000272848 0.00000000000000000 -0.00000000000000000 1.00000000000000000 -1.00000000000000000 0.00000000000000000 0.00000000000000000 -0.00000000000000000 -1.00000000000000000 0.00000000000000000 
1 3707.99999999999863576 3014.00000000000000000 936.99999999999840838 -1.00000000000000000 0.00000000000000000 0.00000000000000000 0.00000000000000000 0.00000000000000000 -1.00000000000000000 -0.00000000000000000 -1.00000000000000000 -0.00000000000000000 
1 1857.99999999999977263 3014.00000000000000000 -90.00000000000272848 1.00000000000000000 0.00000000000000000 0.00000000000000000 0.00000000000000000 0.00000000000000000 1.00000000000000000 0.00000000000000000 -1.00000000000000000 0.00000000000000000 
1 2782.99999999999909051 -423.49999999999846523 3013.99999999999954525 -0.00000000000000000 0.00000000000000000 1.00000000000000000 0.00000000000000000 1.00000000000000000 -0.00000000000000000 -1.00000000000000000 0.00000000000000000 -0.00000000000000000 
1 1857.99999999999977263 3014.00000000000000000 936.99999999999840838 0.00000000000000000 0.00000000000000000 -1.00000000000000000 1.00000000000000000 0.00000000000000000 0.00000000000000000 0.00000000000000000 -1.00000000000000000 0.00000000000000000 
Triangulations 0

TShapes 24
Ve
0.000000150003051
-3707.999999999998636 -90.000000000002728 0.000000000000000
0 0

0101101
*
Ed
 0.000000100000000 1 1 0
1  1 0 0.000000000000000 120.000000000000000
2  1 2 0 0.000000000000000 120.000000000000000
2  2 1 0 0.000000000000000 120.000000000000000
0

0101000
+24 4 -24 6 *
Ve
0.000000100002728
-1857.999999999999773 -90.000000000002728 0.000000000000000
0 0

0101101
*
Ed
 0.000000100000000 1 1 0
1  2 0 0.000000000000000 120.000000000000000
2  3 3 0 0.000000000000000 120.000000000000000
2  4 1 0 0.000000000000000 120.000000000000000
0

0101000
+22 4 -22 6 *
Ed
 0.000000100000000 1 1 0
1  3 0 0.000000000000000 1849.999999999998863
2  5 1 7 0.000000000000000 1849.999999999998863
2  6 1 8 0.000000000000000 1849.999999999998863
2  7 4 9 0.000000000000000 1849.999999999998863
0

0101000
+24 0 -22 0 *
Wi

0101100
+23 0 -21 0 -20 4 +20 6 *
Fa
0  0.000000100000000 1 0

0111000
+19 0 *
Ve
0.000000100000000
-1857.999999999999773 936.999999999998408 0.000000000000000
0 0

0101101
*
Ed
 0.000000100000000 1 1 0
1  4 0 0.000000000000000 120.000000000000000
2  8 5 0 0.000000000000000 120.000000000000000
2  9 3 0 0.000000000000000 120.000000000000000
0

0101000
+17 4 -17 6 *
Ed
 0.000000100000000 1 1 0
1  5 0 0.000000000000000 1027.000000000001137
2  10 3 7 0.000000000000000 1027.000000000001137
2  11 3 8 0.000000000000000 1027.000000000001137
2  12 4 9 0.000000000000000 1027.000000000001137
0

0101000
+22 0 -17 0 *
Wi

0101100
+21 0 -16 0 -15 4 +15 6 *
Fa
0  0.000000100000000 3 0

0111000
+14 0 *
Ve
0.000000100000000
-3707.999999999998636 936.999999999998408 0.000000000000000
0 0

0101101
*
Ed
 0.000000100000000 1 1 0
1  6 0 0.000000000000000 120.000000000000000
2  13 5 0 0.000000000000000 120.000000000000000
2  14 2 0 0.000000000000000 120.000000000000000
0

0101000
+12 4 -12 6 *
Ed
 0.000000100000000 1 1 0
1  7 0 0.000000000000000 1849.999999999998863
2  15 5 7 0.000000000000000 1849.999999999998863
2  16 5 8 0.000000000000000 1849.999999999998863
2  17 4 9 0.000000000000000 1849.999999999998863
0

0101000
+17 0 -12 0 *
Wi

0101100
+16 0 -11 0 -10 4 +10 6 *
Fa
0  0.000000100000000 5 0

0111000
+9 0 *
Ed
 0.000000100000000 1 1 0
1  8 0 0.000000000000000 1027.000000000001137
2  18 2 7 0.000000000000000 1027.000000000001137
2  19 2 8 0.000000000000000 1027.000000000001137
2  20 4 9 0.000000000000000 1027.000000000001137
0

0101000
+12 0 -24 0 *
Wi

0101100
+11 0 -23 0 -7 4 +7 6 *
Fa
0  0.000000100000000 2 0

0111000
+6 0 *
Wi

0101100
+20 0 +15 0 +10 0 +7 0 *
Fa
0  0.000000100000000 4 0

0111000
+4 11 *
Sh

0101100
+18 0 +13 0 +8 0 +5 0 +3 10 -3 12 *
So

1100000
-2 0 *

+1 0 