
CASCADE Topology V1, (c) Matra-Datavision
Locations 25
1
1.000000000000000 0.000000000000000 0.000000000000000 0.000000000000000 
0.000000000000000 1.000000000000000 0.000000000000000 0.000000000000000 
0.000000000000000 0.000000000000000 1.000000000000000 3134.000000000000000 
1
1.000000000000000 0.000000000000000 0.000000000000000 0.000000000000000 
0.000000000000000 1.000000000000000 0.000000000000000 0.000000000000000 
0.000000000000000 0.000000000000000 1.000000000000000 0.000000000000000 
1
1.000000000000000 0.000000000000000 0.000000000000000 0.000000000000000 
0.000000000000000 1.000000000000000 0.000000000000000 0.000000000000000 
0.000000000000000 0.000000000000000 1.000000000000000 0.000000000000000 
2  2 1 3 -1 0
1
1.000000000000000 0.000000000000000 0.000000000000000 0.000000000000000 
0.000000000000000 1.000000000000000 0.000000000000000 0.000000000000000 
0.000000000000000 0.000000000000000 1.000000000000000 0.000000000000000 
2  5 -1 3 1 2 -1 0
1
1.000000000000000 0.000000000000000 0.000000000000000 0.000000000000000 
0.000000000000000 1.000000000000000 0.000000000000000 0.000000000000000 
0.000000000000000 0.000000000000000 1.000000000000000 0.000000000000000 
1
1.000000000000000 0.000000000000000 0.000000000000000 0.000000000000000 
0.000000000000000 1.000000000000000 0.000000000000000 0.000000000000000 
0.000000000000000 0.000000000000000 1.000000000000000 0.000000000000000 
1
1.000000000000000 0.000000000000000 0.000000000000000 0.000000000000000 
0.000000000000000 1.000000000000000 0.000000000000000 0.000000000000000 
0.000000000000000 0.000000000000000 1.000000000000000 0.000000000000000 
2  7 1 8 1 9 -1 2 1 3 -1 0
2  5 -1 3 1 2 -1 9 1 8 -1 7 -1 0
1
1.000000000000000 0.000000000000000 0.000000000000000 -0.000000000000000 
0.000000000000000 1.000000000000000 0.000000000000000 -0.000000000000000 
0.000000000000000 0.000000000000000 1.000000000000000 -50.000000000000000 
2  7 1 8 1 9 -1 12 1 2 1 3 -1 0
2  5 -1 3 1 2 -1 12 -1 9 1 8 -1 7 -1 0
2  5 -1 0
2  7 1 8 1 9 -1 0
2  7 1 8 1 9 -1 12 1 0
2  9 -1 2 1 3 -1 0
2  7 1 8 1 0
2  9 -1 12 1 2 1 3 -1 0
1
1.000000000000000 0.000000000000000 0.000000000000000 0.000000000000000 
0.000000000000000 1.000000000000000 0.000000000000000 0.000000000000000 
0.000000000000000 0.000000000000000 1.000000000000000 0.000000000000000 
1
1.000000000000000 0.000000000000000 0.000000000000000 0.000000000000000 
0.000000000000000 0.000000000000000 -1.000000000000000 -868.000000000000455 
0.000000000000000 1.000000000000000 0.000000000000000 0.000000000000000 
2  21 1 22 1 3 -1 0
2  3 1 22 -1 21 -1 0
2  5 -1 3 1 22 -1 21 -1 0
Curve2ds 8
1 0.00000000000000000 -931.00000000000045475 1.00000000000000000 0.00000000000000000 
1 0.00000000000000000 -931.00000000000045475 1.00000000000000000 0.00000000000000000 
1 0.00000000000000000 0.00000000000000000 1.00000000000000000 0.00000000000000000 
1 0.00000000000000000 0.00000000000000000 0.00000000000000000 -1.00000000000000000 
1 6.28318530717958623 0.00000000000000000 0.00000000000000000 -1.00000000000000000 
1 0.00000000000000000 0.00000000000000000 1.00000000000000000 0.00000000000000000 
1 0.00000000000000000 0.00000000000000000 0.00000000000000000 -1.00000000000000000 
1 6.28318530717958623 0.00000000000000000 0.00000000000000000 -1.00000000000000000 
Curves 18
1 1858.00000000000000000 63.00000000000000000 0.00000000000000000 -0.00000000000000000 -0.00000000000000000 -1.00000000000000000 
1 1858.00000000000000000 63.00000000000000000 0.00000000000000000 -1.00000000000000000 0.00000000000000000 0.00000000000000000 
1 1858.00000000000000000 63.00000000000000000 0.00000000000000000 -1.00000000000000000 0.00000000000000000 0.00000000000000000 
1 1586.00000000000000000 63.00000000000000000 0.00000000000000000 -0.00000000000000000 -0.00000000000000000 -1.00000000000000000 
2 1778.00000000000000000 63.00000000000000000 -25.00000000000020606 0.00000000000000000 -1.00000000000000000 0.00000000000000022 1.00000000000000000 0.00000000000000000 0.00000000000000000 -0.00000000000000000 0.00000000000000022 1.00000000000000000 5.00000000000000000
2 1666.00000000000000000 63.00000000000000000 -25.00000000000020606 0.00000000000000000 -1.00000000000000000 0.00000000000000022 1.00000000000000000 0.00000000000000000 0.00000000000000000 -0.00000000000000000 0.00000000000000022 1.00000000000000000 5.00000000000000000
1 1858.00000000000000000 -868.00000000000045475 0.00000000000000000 -0.00000000000000000 -0.00000000000000000 -1.00000000000000000 
1 1858.00000000000000000 -868.00000000000045475 0.00000000000000000 0.00000000000000000 1.00000000000000000 0.00000000000000000 
1 1858.00000000000000000 -868.00000000000045475 0.00000000000000000 0.00000000000000000 1.00000000000000000 0.00000000000000000 
1 1586.00000000000000000 63.00000000000000000 0.00000000000000000 0.00000000000000000 -1.00000000000000000 0.00000000000000000 
1 1586.00000000000000000 -868.00000000000045475 0.00000000000000000 1.00000000000000000 0.00000000000000000 0.00000000000000000 
1 1586.00000000000000000 63.00000000000000000 0.00000000000000000 0.00000000000000000 -1.00000000000000000 0.00000000000000000 
1 1586.00000000000000000 -868.00000000000045475 0.00000000000000000 1.00000000000000000 0.00000000000000000 0.00000000000000000 
1 1586.00000000000000000 -868.00000000000045475 0.00000000000000000 -0.00000000000000000 -0.00000000000000000 -1.00000000000000000 
2 1778.00000000000000000 -25.00000000000000000 0.00000000000000000 0.00000000000000000 0.00000000000000000 1.00000000000000000 1.00000000000000000 0.00000000000000000 -0.00000000000000000 -0.00000000000000000 1.00000000000000000 0.00000000000000000 5.00000000000000000
1 1783.00000000000000000 -868.00000000000045475 -25.00000000000000000 0.00000000000000000 1.00000000000000000 -0.00000000000000022 
2 1666.00000000000000000 -25.00000000000000000 0.00000000000000000 0.00000000000000000 0.00000000000000000 1.00000000000000000 1.00000000000000000 0.00000000000000000 -0.00000000000000000 -0.00000000000000000 1.00000000000000000 0.00000000000000000 5.00000000000000000
1 1671.00000000000000000 -868.00000000000045475 -25.00000000000000000 0.00000000000000000 1.00000000000000000 -0.00000000000000022 
Polygon3D 0
PolygonOnTriangulations 0
Surfaces 8
1 1858.00000000000000000 63.00000000000000000 0.00000000000000000 0.00000000000000000 1.00000000000000000 0.00000000000000000 -1.00000000000000000 0.00000000000000000 0.00000000000000000 0.00000000000000000 -0.00000000000000000 1.00000000000000000 
2 1778.00000000000000000 -868.00000000000045475 -25.00000000000000000 0.00000000000000000 -1.00000000000000000 0.00000000000000022 1.00000000000000000 0.00000000000000000 0.00000000000000000 -0.00000000000000000 0.00000000000000022 1.00000000000000000 5.00000000000000000
2 1666.00000000000000000 -868.00000000000045475 -25.00000000000000000 0.00000000000000000 -1.00000000000000000 0.00000000000000022 1.00000000000000000 0.00000000000000000 0.00000000000000000 -0.00000000000000000 0.00000000000000022 1.00000000000000000 5.00000000000000000
1 1858.00000000000000000 -868.00000000000045475 0.00000000000000000 1.00000000000000000 0.00000000000000000 0.00000000000000000 -0.00000000000000000 1.00000000000000000 0.00000000000000000 0.00000000000000000 -0.00000000000000000 1.00000000000000000 
1 1722.00000000000022737 -402.50000000000022737 0.00000000000000000 0.00000000000000000 0.00000000000000000 1.00000000000000000 1.00000000000000000 0.00000000000000000 -0.00000000000000000 -0.00000000000000000 1.00000000000000000 0.00000000000000000 
1 1722.00000000000022737 -402.50000000000022737 0.00000000000000000 0.00000000000000000 0.00000000000000000 1.00000000000000000 1.00000000000000000 0.00000000000000000 -0.00000000000000000 -0.00000000000000000 1.00000000000000000 0.00000000000000000 
1 1586.00000000000000000 63.00000000000000000 0.00000000000000000 -1.00000000000000000 0.00000000000000000 0.00000000000000000 0.00000000000000000 -1.00000000000000000 0.00000000000000000 0.00000000000000000 0.00000000000000000 1.00000000000000000 
1 1586.00000000000000000 -868.00000000000045475 0.00000000000000000 0.00000000000000000 -1.00000000000000000 0.00000000000000000 1.00000000000000000 0.00000000000000000 0.00000000000000000 -0.00000000000000000 0.00000000000000000 1.00000000000000000 
Triangulations 0

TShapes 52
Ve
0.000000100000000
1858.000000000000000 63.000000000000000 0.000000000000000
0 0

0101101
*
Ve
0.000000100000000
1858.000000000000000 63.000000000000000 -50.000000000000000
0 0

0101101
*
Ed
 0.000000100000000 1 1 0
1  1 0 0.000000000000000 50.000000000000000
0

0101000
+52 6 -51 6 *
Ve
0.000000100000000
1586.000000000000000 63.000000000000000 0.000000000000000
0 0

0101101
*
Ed
 0.000000100000000 1 1 0
1  2 0 0.000000000000000 272.000000000000000
0

0101000
+52 11 -49 11 *
Ve
0.000000100000000
1586.000000000000000 63.000000000000000 -50.000000000000000
0 0

0101101
*
Ed
 0.000000100000000 1 1 0
1  3 0 0.000000000000000 272.000000000000000
0

0101000
+51 14 -47 14 *
Ed
 0.000000100000000 1 1 0
1  4 0 0.000000000000000 50.000000000000000
0

0101000
+49 6 -47 6 *
Wi

0101100
+50 4 -48 10 +46 13 -45 4 *
Ve
0.000000100000000
1783.000000000000000 63.000000000000000 -25.000000000000206
0 0

0101101
*
Ed
 0.000000100000000 1 1 0
1  5 0 0.000000000000000 6.283185307179586
2  1 2 0 0.000000000000000 6.283185307179586
0

0101000
+43 15 -43 15 *
Wi

0101100
+42 0 *
Ve
0.000000100000000
1671.000000000000000 63.000000000000000 -25.000000000000206
0 0

0101101
*
Ed
 0.000000100000000 1 1 0
1  6 0 0.000000000000000 6.283185307179586
2  2 3 0 0.000000000000000 6.283185307179586
0

0101000
+40 15 -40 15 *
Wi

0101100
+39 0 *
Fa
0  0.000000100000000 1 4

0111000
+44 0 +41 0 +38 0 *
Ve
0.000000100000000
1858.000000000000000 -868.000000000000455 0.000000000000000
0 0

0101101
*
Ve
0.000000100000000
1858.000000000000000 -868.000000000000455 -50.000000000000000
0 0

0101101
*
Ed
 0.000000100000000 1 1 0
1  7 0 0.000000000000000 50.000000000000000
0

0101000
+36 6 -35 6 *
Ed
 0.000000100000000 1 1 0
1  8 0 0.000000000000000 931.000000000000455
0

0101000
+36 11 -52 11 *
Ed
 0.000000100000000 1 1 0
1  9 0 0.000000000000000 931.000000000000455
0

0101000
+35 14 -51 14 *
Wi

0101100
+34 0 -50 0 -33 16 +32 17 *
Fa
0  0.000000100000000 4 0

0111000
+31 0 *
Ve
0.000000100000000
1586.000000000000000 -868.000000000000455 0.000000000000000
0 0

0101101
*
Ed
 0.000000100000000 1 1 0
1  10 0 0.000000000000000 931.000000000000455
0

0101000
+49 11 -29 11 *
Ed
 0.000000100000000 1 1 0
1  11 0 0.000000000000000 272.000000000000000
0

0101000
+29 11 -36 11 *
Wi

0101100
+48 0 +28 0 +27 0 +33 0 *
Fa
0  0.000000100000000 5 0

0111000
+26 19 *
Ve
0.000000100000000
1586.000000000000000 -868.000000000000455 -50.000000000000000
0 0

0101101
*
Ed
 0.000000100000000 1 1 0
1  12 0 0.000000000000000 931.000000000000455
0

0101000
+47 14 -24 14 *
Ed
 0.000000100000000 1 1 0
1  13 0 0.000000000000000 272.000000000000000
0

0101000
+24 14 -35 14 *
Wi

0101100
+46 0 +23 0 +22 0 +32 0 *
Fa
0  0.000000100000000 6 0

0111000
+21 19 *
Ed
 0.000000100000000 1 1 0
1  14 0 0.000000000000000 50.000000000000000
0

0101000
+29 6 -24 6 *
Wi

0101100
+45 0 -19 0 -28 16 +23 17 *
Fa
0  0.000000100000000 7 0

0111000
+18 0 *
Ve
0.000000100000000
1783.000000000000000 -868.000000000000455 -25.000000000000000
0 0

0101101
*
Ed
 0.000000100000000 1 1 0
1  15 0 0.000000000000000 6.283185307179586
2  3 2 24 0.000000000000000 6.283185307179586
0

0101000
+16 25 -16 25 *
Ed
 0.000000100000000 1 1 0
1  16 0 0.000000000000000 931.000000000000455
3  4 5CN 2 0 0.000000000000000 931.000000000000455
0

0101000
+16 15 -43 15 *
Wi

0101100
-15 23 -14 0 +42 0 +14 0 *
Fa
0  0.000000100000000 2 0

0111000
+13 0 *
Ve
0.000000100000000
1671.000000000000000 -868.000000000000455 -25.000000000000000
0 0

0101101
*
Ed
 0.000000100000000 1 1 0
1  17 0 0.000000000000000 6.283185307179586
2  6 3 24 0.000000000000000 6.283185307179586
0

0101000
+11 25 -11 25 *
Ed
 0.000000100000000 1 1 0
1  18 0 0.000000000000000 931.000000000000455
3  7 8CN 3 0 0.000000000000000 931.000000000000455
0

0101000
+11 15 -40 15 *
Wi

0101100
-10 23 -9 0 +39 0 +9 0 *
Fa
0  0.000000100000000 3 0

0111000
+8 0 *
Wi

0101100
+19 4 -27 10 +22 13 -34 4 *
Wi

0101100
-10 23 *
Wi

0101100
-15 23 *
Fa
0  0.000000100000000 8 4

0111000
+6 0 +5 0 +4 0 *
Sh

0101100
+37 0 +30 4 +25 18 -20 20 +17 4 -12 0 -7 0 +3 0 *
So

0100000
+2 0 *

+1 1 