
CASCADE Topology V1, (c) Matra-Datavision
Locations 45
1
1.000000000000000 0.000000000000000 0.000000000000000 0.000000000000000 
0.000000000000000 1.000000000000000 0.000000000000000 0.000000000000000 
0.000000000000000 0.000000000000000 1.000000000000000 0.000000000000000 
1
1.000000000000000 0.000000000000000 0.000000000000000 0.000000000000000 
0.000000000000000 1.000000000000000 0.000000000000000 0.000000000000000 
0.000000000000000 0.000000000000000 1.000000000000000 0.000000000000000 
1
1.000000000000000 0.000000000000000 0.000000000000000 0.000000000000000 
0.000000000000000 1.000000000000000 0.000000000000000 0.000000000000000 
0.000000000000000 0.000000000000000 1.000000000000000 0.000000000000000 
1
1.000000000000000 0.000000000000000 0.000000000000000 0.000000000000000 
0.000000000000000 1.000000000000000 0.000000000000000 0.000000000000000 
0.000000000000000 0.000000000000000 1.000000000000000 0.000000000000000 
1
1.000000000000000 0.000000000000000 0.000000000000000 0.000000000000000 
0.000000000000000 1.000000000000000 0.000000000000000 0.000000000000000 
0.000000000000000 0.000000000000000 1.000000000000000 0.000000000000000 
2  2 1 3 -1 4 1 5 -1 0
1
1.000000000000000 0.000000000000000 0.000000000000000 0.000000000000000 
0.000000000000000 1.000000000000000 0.000000000000000 0.000000000000000 
0.000000000000000 0.000000000000000 1.000000000000000 0.000000000000000 
1
1.000000000000000 0.000000000000000 0.000000000000000 0.000000000000000 
0.000000000000000 1.000000000000000 0.000000000000000 0.000000000000000 
0.000000000000000 0.000000000000000 1.000000000000000 0.000000000000000 
1
1.000000000000000 0.000000000000000 0.000000000000000 0.000000000000000 
0.000000000000000 1.000000000000000 0.000000000000000 0.000000000000000 
0.000000000000000 0.000000000000000 1.000000000000000 0.000000000000000 
2  7 1 8 1 9 -1 0
1
1.000000000000000 0.000000000000000 0.000000000000000 -0.000000000000000 
0.000000000000000 1.000000000000000 0.000000000000000 -0.000000000000000 
0.000000000000000 0.000000000000000 1.000000000000000 -50.000000000000000 
2  7 1 8 1 9 -1 11 1 0
2  4 1 5 -1 0
2  2 1 3 -1 0
2  7 1 8 1 9 -1 2 1 3 -1 0
2  9 1 8 -1 7 -1 0
2  11 -1 9 1 8 -1 7 -1 0
2  7 1 8 1 9 -1 11 1 2 1 3 -1 0
1
1.000000000000000 0.000000000000000 0.000000000000000 0.000000000000000 
0.000000000000000 1.000000000000000 0.000000000000000 0.000000000000000 
0.000000000000000 0.000000000000000 1.000000000000000 0.000000000000000 
1
0.000000000000000 0.000000000000000 1.000000000000000 3681.000000000000455 
1.000000000000000 0.000000000000000 0.000000000000000 0.000000000000000 
0.000000000000000 1.000000000000000 0.000000000000000 0.000000000000000 
2  19 1 20 1 3 -1 0
2  3 1 20 -1 19 -1 0
1
1.000000000000000 0.000000000000000 0.000000000000000 -5.000000000000000 
0.000000000000000 1.000000000000000 0.000000000000000 -0.000000000000000 
0.000000000000000 0.000000000000000 1.000000000000000 -0.000000000000000 
2  23 -1 3 1 20 -1 19 -1 0
2  20 -1 19 -1 0
2  2 1 20 -1 19 -1 0
2  9 -1 2 1 3 -1 4 1 5 -1 0
2  7 1 8 1 0
2  9 -1 11 1 2 1 3 -1 4 1 5 -1 0
2  19 1 20 1 3 -1 23 1 0
2  7 1 8 1 9 -1 2 1 3 -1 4 1 5 -1 0
2  7 1 8 1 9 -1 11 1 2 1 3 -1 4 1 5 -1 0
1
1.000000000000000 0.000000000000000 0.000000000000000 0.000000000000000 
0.000000000000000 1.000000000000000 0.000000000000000 0.000000000000000 
0.000000000000000 0.000000000000000 1.000000000000000 0.000000000000000 
1
-1.000000000000000 0.000000000000000 0.000000000000000 0.000000000000000 
0.000000000000000 0.000000000000000 1.000000000000000 -973.000000000000000 
0.000000000000000 1.000000000000000 -0.000000000000000 0.000000000000000 
2  33 1 34 1 5 -1 0
2  5 1 34 -1 33 -1 0
1
1.000000000000000 0.000000000000000 0.000000000000000 0.000000000000000 
0.000000000000000 1.000000000000000 0.000000000000000 -5.000000000000000 
0.000000000000000 0.000000000000000 1.000000000000000 0.000000000000001 
2  37 -1 5 1 34 -1 33 -1 0
2  34 -1 33 -1 0
2  2 1 3 -1 4 1 34 -1 33 -1 0
2  3 -1 23 1 4 1 5 -1 0
2  19 1 20 1 0
2  33 1 34 1 5 -1 37 1 0
2  5 -1 37 1 0
2  33 1 34 1 0
Curve2ds 34
1 503.26801004711433052 0.00000000000000000 0.00000000000000000 -1.00000000000000000 
1 0.00000000000000000 0.00000000000000000 0.00000000000000000 -1.00000000000000000 
1 1065.45517451332398196 0.00000000000000000 0.00000000000000000 -1.00000000000000000 
1 0.00000000000000000 0.00000000000000000 0.00000000000000000 -1.00000000000000000 
1 0.00000000000000000 0.00000000000000000 1.00000000000000000 0.00000000000000000 
1 0.00000000000000000 -50.00000000000000000 1.00000000000000000 0.00000000000000000 
1 0.00000000000000000 0.00000000000000000 1.00000000000000000 0.00000000000000000 
1 0.00000000000000000 -5.00000000000000000 1.00000000000000000 0.00000000000000000 
2 -0.00000000000022737 -0.00000000000000355 1.00000000000000000 -0.00000000000000000 0.00000000000000000 1.00000000000000000 5.00000000000000000
2 80.00000000000000000 -25.00000000000000000 1.00000000000000000 0.00000000000000000 -0.00000000000000000 1.00000000000000000 5.00000000000000000
1 0.00000000000000000 0.00000000000000000 1.00000000000000000 0.00000000000000000 
1 0.00000000000000000 -5.00000000000000000 1.00000000000000000 0.00000000000000000 
2 -0.00000000000011369 -0.00000000000000355 1.00000000000000000 -0.00000000000000000 0.00000000000000000 1.00000000000000000 5.00000000000000000
2 423.26801004711433052 -25.00000000000000000 1.00000000000000000 0.00000000000000000 -0.00000000000000000 1.00000000000000000 5.00000000000000000
1 0.00000000000000000 0.00000000000000000 0.00000000000000000 -1.00000000000000000 
1 76.00000000000000000 0.00000000000000000 0.00000000000000000 -1.00000000000000000 
1 0.00000000000000000 0.00000000000000000 1.00000000000000000 0.00000000000000000 
1 0.00000000000000000 -50.00000000000000000 1.00000000000000000 0.00000000000000000 
1 0.00000000000000000 0.00000000000000000 1.00000000000000000 0.00000000000000000 
1 0.00000000000000000 -50.00000000000000000 1.00000000000000000 0.00000000000000000 
1 0.00000000000000000 0.00000000000000000 1.00000000000000000 0.00000000000000000 
1 0.00000000000000000 -50.00000000000000000 1.00000000000000000 0.00000000000000000 
1 0.00000000000000000 0.00000000000000000 0.00000000000000000 -1.00000000000000000 
1 0.00000000000000000 0.00000000000000000 0.00000000000000000 -1.00000000000000000 
1 6.28318530717958623 0.00000000000000000 0.00000000000000000 -1.00000000000000000 
1 0.00000000000000000 0.00000000000000000 0.00000000000000000 -1.00000000000000000 
1 6.28318530717958623 0.00000000000000000 0.00000000000000000 -1.00000000000000000 
1 115.62169564015675860 0.00000000000000000 0.00000000000000000 -1.00000000000000000 
1 0.00000000000000000 0.00000000000000000 1.00000000000000000 0.00000000000000000 
1 0.00000000000000000 -5.00000000000000000 1.00000000000000000 0.00000000000000000 
2 -0.00000000000000355 0.00000000000000000 0.00000000000000000 -1.00000000000000000 1.00000000000000000 0.00000000000000000 5.00000000000000000
2 55.62169564015675860 -25.00000000000000000 1.00000000000000000 0.00000000000000000 -0.00000000000000000 1.00000000000000000 5.00000000000000000
1 0.00000000000000000 0.00000000000000000 0.00000000000000000 -1.00000000000000000 
1 6.28318530717958623 0.00000000000000000 0.00000000000000000 -1.00000000000000000 
Curves 18
1 3681.00000000000045475 -897.00000000000000000 0.00000000000000000 -0.00000000000000000 -0.00000000000000000 -1.00000000000000000 
1 2807.99999999999772626 -897.00000000000000000 0.00000000000000000 -0.00000000000000000 -0.00000000000000000 -1.00000000000000000 
1 3681.00000000000045475 -897.00000000000000000 0.00000000000000000 -1.00000000000000000 0.00000000000000000 0.00000000000000000 
1 3681.00000000000045475 -1400.26801004711433052 0.00000000000000000 -0.00000000000000000 -0.00000000000000000 -1.00000000000000000 
1 3681.00000000000045475 -1400.26801004711433052 0.00000000000000000 0.00000000000000000 1.00000000000000000 0.00000000000000000 
2 -1320.26801004711433052 -25.00000000000000000 0.00000000000000000 0.00000000000000000 0.00000000000000000 1.00000000000000000 1.00000000000000000 0.00000000000000000 -0.00000000000000000 -0.00000000000000000 1.00000000000000000 0.00000000000000000 5.00000000000000000
2 -977.00000000000000000 -25.00000000000000000 0.00000000000000000 0.00000000000000000 0.00000000000000000 1.00000000000000000 1.00000000000000000 0.00000000000000000 -0.00000000000000000 -0.00000000000000000 1.00000000000000000 0.00000000000000000 5.00000000000000000
1 2807.99999999999772626 -973.00000000000000000 0.00000000000000000 -0.00000000000000000 -0.00000000000000000 -1.00000000000000000 
1 2807.99999999999772626 -897.00000000000000000 0.00000000000000000 0.00000000000000000 -1.00000000000000000 0.00000000000000000 
1 2807.99999999999772626 -973.00000000000000000 0.00000000000000000 -1.00000000000000000 0.00000000000000000 0.00000000000000000 
1 2692.37830435984096766 -973.00000000000000000 0.00000000000000000 0.00000000000000000 -1.00000000000000000 0.00000000000000000 
1 2692.37830435984096766 -1003.00000000000079581 0.00000000000000000 0.92788670916328297 -0.37286224662485373 0.00000000000000000 
1 2692.37830435984096766 -1003.00000000000079581 0.00000000000000000 -0.00000000000000000 -0.00000000000000000 -1.00000000000000000 
1 3681.00000000000045475 -1315.26801004711433052 -25.00000000000000000 -1.00000000000000000 -0.00000000000000000 -0.00000000000000000 
1 3681.00000000000045475 -972.00000000000000000 -25.00000000000000000 -1.00000000000000000 -0.00000000000000000 -0.00000000000000000 
1 2692.37830435984096766 -973.00000000000000000 0.00000000000000000 -0.00000000000000000 -0.00000000000000000 -1.00000000000000000 
2 -2752.37830435984096766 -25.00000000000000000 0.00000000000000000 0.00000000000000000 0.00000000000000000 1.00000000000000000 1.00000000000000000 0.00000000000000000 -0.00000000000000000 -0.00000000000000000 1.00000000000000000 0.00000000000000000 5.00000000000000000
1 2747.37830435984096766 -973.00000000000000000 -25.00000000000000000 0.00000000000000000 -1.00000000000000000 0.00000000000000022 
Polygon3D 0
PolygonOnTriangulations 0
Surfaces 13
1 3681.00000000000045475 -897.00000000000000000 0.00000000000000000 0.00000000000000000 1.00000000000000000 -0.00000000000000000 -1.00000000000000000 0.00000000000000000 0.00000000000000000 0.00000000000000000 0.00000000000000000 1.00000000000000000 
1 3681.00000000000045475 -1400.26801004711433052 0.00000000000000000 1.00000000000000000 0.00000000000000000 0.00000000000000000 -0.00000000000000000 1.00000000000000000 0.00000000000000000 0.00000000000000000 -0.00000000000000000 1.00000000000000000 
1 2807.99999999999772626 -897.00000000000000000 0.00000000000000000 -1.00000000000000000 0.00000000000000000 0.00000000000000000 0.00000000000000000 -1.00000000000000000 0.00000000000000000 0.00000000000000000 0.00000000000000000 1.00000000000000000 
1 2692.37830435984096766 -1003.00000000000079581 0.00000000000000000 -0.37286224662485373 -0.92788670916328297 0.00000000000000000 0.92788670916328297 -0.37286224662485373 0.00000000000000000 0.00000000000000000 0.00000000000000000 1.00000000000000000 
2 3681.00000000000045475 -1320.26801004711433052 -25.00000000000000000 1.00000000000000000 0.00000000000000000 0.00000000000000000 -0.00000000000000000 1.00000000000000000 0.00000000000000000 0.00000000000000000 -0.00000000000000000 1.00000000000000000 5.00000000000000000
1 3681.00000000000000000 -1320.26801004711410314 -24.99999999999999645 1.00000000000000000 0.00000000000000000 0.00000000000000000 -0.00000000000000000 1.00000000000000000 0.00000000000000000 0.00000000000000000 -0.00000000000000000 1.00000000000000000 
2 3681.00000000000045475 -977.00000000000000000 -25.00000000000000000 1.00000000000000000 0.00000000000000000 0.00000000000000000 -0.00000000000000000 1.00000000000000000 0.00000000000000000 0.00000000000000000 -0.00000000000000000 1.00000000000000000 5.00000000000000000
1 3681.00000000000000000 -976.99999999999988631 -24.99999999999999645 1.00000000000000000 0.00000000000000000 0.00000000000000000 -0.00000000000000000 1.00000000000000000 0.00000000000000000 0.00000000000000000 -0.00000000000000000 1.00000000000000000 
1 2807.99999999999772626 -973.00000000000000000 0.00000000000000000 0.00000000000000000 1.00000000000000000 -0.00000000000000000 -1.00000000000000000 0.00000000000000000 0.00000000000000000 0.00000000000000000 0.00000000000000000 1.00000000000000000 
1 3263.72053375277346277 -1071.82470042972477131 0.00000000000000000 0.00000000000000000 0.00000000000000000 1.00000000000000000 1.00000000000000000 0.00000000000000000 -0.00000000000000000 -0.00000000000000000 1.00000000000000000 0.00000000000000000 
2 2752.37830435984096766 -973.00000000000000000 -25.00000000000000000 0.00000000000000000 1.00000000000000000 -0.00000000000000022 -1.00000000000000000 0.00000000000000000 0.00000000000000000 0.00000000000000000 0.00000000000000022 1.00000000000000000 5.00000000000000000
1 2752.37830435984096766 -972.99999999999988631 -24.99999999999999645 -0.00000000000000000 1.00000000000000000 -0.00000000000000000 0.00000000000000000 0.00000000000000000 1.00000000000000000 1.00000000000000000 0.00000000000000000 -0.00000000000000000 
1 2692.37830435984096766 -973.00000000000000000 0.00000000000000000 -1.00000000000000000 0.00000000000000000 0.00000000000000000 0.00000000000000000 -1.00000000000000000 0.00000000000000000 0.00000000000000000 0.00000000000000000 1.00000000000000000 
Triangulations 0

TShapes 58
Ve
0.000000100000000
3681.000000000000455 -897.000000000000000 0.000000000000000
0 0

0101101
*
Ed
 0.000000100000000 1 1 0
1  1 0 0.000000000000000 50.000000000000000
2  1 2 0 0.000000000000000 50.000000000000000
0

0101000
+58 10 -58 12 *
Ve
0.000000100000000
2807.999999999997726 -897.000000000000000 0.000000000000000
0 0

0101101
*
Ed
 0.000000100000000 1 1 0
1  2 0 0.000000000000000 50.000000000000000
2  2 3 0 0.000000000000000 50.000000000000000
0

0101000
+56 10 -56 12 *
Ed
 0.000000100000000 1 1 0
1  3 0 0.000000000000000 873.000000000002728
0

0101000
+58 0 -56 0 *
Wi

0101100
+57 0 -55 0 -54 10 +54 12 *
Fa
0  0.000000100000000 1 0

0111000
+53 0 *
Ve
0.000000100000000
3681.000000000000455 -1400.268010047114331 0.000000000000000
0 0

0101101
*
Ed
 0.000000100000000 1 1 0
1  4 0 0.000000000000000 50.000000000000000
2  3 4 0 0.000000000000000 50.000000000000000
2  4 2 0 0.000000000000000 50.000000000000000
0

0101000
+51 10 -51 12 *
Ed
 0.000000100000000 1 1 0
1  5 0 0.000000000000000 503.268010047114331
2  5 2 16 0.000000000000000 503.268010047114331
2  6 2 17 0.000000000000000 503.268010047114331
0

0101000
+51 0 -58 0 *
Wi

0101100
+50 14 -49 15 +49 18 -57 14 *
Ve
0.000000100000000
-1315.268010047114331 -25.000000000000000 0.000000000000000
0 0

0101101
*
Ed
 0.000000100000000 1 1 0
1  6 0 0.000000000000000 6.283185307179586
2  7 5 22 0.000000000000000 6.283185307179586
2  8 5 24 0.000000000000000 6.283185307179586
2  9 6 25 0.000000000000000 6.283185307179586
2  10 2 26 0.000000000000000 6.283185307179586
0

0101000
+47 0 -47 0 *
Wi

0101100
-46 21 *
Ve
0.000000100000000
-972.000000000000000 -25.000000000000000 0.000000000000000
0 0

0101101
*
Ed
 0.000000100000000 1 1 0
1  7 0 0.000000000000000 6.283185307179586
2  11 7 22 0.000000000000000 6.283185307179586
2  12 7 24 0.000000000000000 6.283185307179586
2  13 8 25 0.000000000000000 6.283185307179586
2  14 2 26 0.000000000000000 6.283185307179586
0

0101000
+44 0 -44 0 *
Wi

0101100
-43 21 *
Fa
0  0.000000100000000 2 14

0111000
+48 0 +45 0 +42 0 *
Ve
0.000000100000000
2807.999999999997726 -973.000000000000000 0.000000000000000
0 0

0101101
*
Ed
 0.000000100000000 1 1 0
1  8 0 0.000000000000000 50.000000000000000
2  15 9 0 0.000000000000000 50.000000000000000
2  16 3 0 0.000000000000000 50.000000000000000
0

0101000
+40 10 -40 12 *
Ed
 0.000000100000000 1 1 0
1  9 0 0.000000000000000 76.000000000000000
2  17 3 16 0.000000000000000 76.000000000000000
2  18 3 17 0.000000000000000 76.000000000000000
0

0101000
+56 0 -40 0 *
Wi

0101100
+55 0 -39 0 -38 10 +38 12 *
Fa
0  0.000000100000000 3 0

0111000
+37 0 *
Ve
0.000000100000000
2692.378304359840968 -973.000000000000000 0.000000000000000
0 0

0101101
*
Ed
 0.000000100000000 1 1 0
1  10 0 0.000000000000000 115.621695640156759
2  19 9 16 0.000000000000000 115.621695640156759
2  20 9 17 0.000000000000000 115.621695640156759
0

0101000
+40 0 -35 0 *
Ve
0.000000100000000
2692.378304359840968 -1003.000000000000796 0.000000000000000
0 0

0101101
*
Ed
 0.000000100000000 1 1 0
1  11 0 0.000000000000000 30.000000000000796
0

0101000
+35 0 -33 0 *
Ed
 0.000000100000000 1 1 0
1  12 0 0.000000000000000 1065.455174513323982
2  21 4 16 0.000000000000000 1065.455174513323982
2  22 4 17 0.000000000000000 1065.455174513323982
0

0101000
+33 0 -51 0 *
Wi

0101100
+54 0 +38 0 +34 0 +32 0 +31 0 +49 0 *
Fa
0  0.000000100000000 10 0

0111000
+30 28 *
Ed
 0.000000100000000 1 1 0
1  13 0 0.000000000000000 50.000000000000000
2  23 4 0 0.000000000000000 50.000000000000000
0

0101000
+33 10 -33 12 *
Wi

0101100
+28 0 -50 0 -31 10 +31 12 *
Fa
0  0.000000100000000 4 0

0111000
+27 0 *
Ed
 0.000000100000000 1 1 0
1  14 0 0.000000000000000 5.000000000000000
3  24 25CN 5 0 0.000000000000000 5.000000000000000
0

0101000
+47 21 -47 30 *
Wi

0101100
+25 0 -25 0 -46 21 +46 30 *
Fa
0  0.000000100000000 5 0

0111000
+24 0 *
Ed
 0.000000100000000 1 1 0
1  15 0 0.000000000000000 5.000000000000000
3  26 27CN 7 0 0.000000000000000 5.000000000000000
0

0101000
+44 21 -44 30 *
Wi

0101100
+22 0 -22 0 -43 21 +43 30 *
Fa
0  0.000000100000000 7 0

0111000
+21 0 *
Ed
 0.000000100000000 1 1 0
1  16 0 0.000000000000000 50.000000000000000
2  28 9 0 0.000000000000000 50.000000000000000
0

0101000
+35 10 -35 12 *
Wi

0101100
+39 6 -34 31 +34 32 -19 6 *
Ve
0.000000100000000
-2747.378304359840968 -25.000000000000000 0.000000000000000
0 0

0101101
*
Ed
 0.000000100000000 1 1 0
1  17 0 0.000000000000000 6.283185307179586
2  29 11 36 0.000000000000000 6.283185307179586
2  30 11 38 0.000000000000000 6.283185307179586
2  31 12 39 0.000000000000000 6.283185307179586
2  32 9 40 0.000000000000000 6.283185307179586
0

0101000
+17 0 -17 0 *
Wi

0101100
-16 35 *
Fa
0  0.000000100000000 9 6

0111000
+18 0 +15 0 *
Wi

0101100
+19 0 -28 0 -32 10 +32 12 *
Fa
0  0.000000100000000 13 0

0111000
+13 0 *
Wi

0101100
+46 0 *
Fa
0  0.000000100000000 6 0

0111000
+11 42 *
Wi

0101100
+43 0 *
Fa
0  0.000000100000000 8 0

0111000
+9 42 *
Ed
 0.000000100000000 1 1 0
1  18 0 0.000000000000000 5.000000000000000
3  33 34CN 11 0 0.000000000000000 5.000000000000000
0

0101000
+17 35 -17 43 *
Wi

0101100
+7 0 -7 0 -16 35 +16 43 *
Fa
0  0.000000100000000 11 0

0111000
+6 0 *
Wi

0101100
+16 0 *
Fa
0  0.000000100000000 12 0

0111000
+4 45 *
Sh

0101100
+52 6 +41 13 +36 6 +29 27 -29 29 +26 6 -23 13 -20 13 +14 0 +12 6 
+10 41 +8 41 -5 0 +3 44 *
So

0100000
+2 0 *

+1 1 