
CASCADE Topology V1, (c) Matra-Datavision
Locations 34
1
1.000000000000000 0.000000000000000 0.000000000000000 27.000000000000000 
0.000000000000000 1.000000000000000 0.000000000000000 0.000000000000000 
0.000000000000000 0.000000000000000 1.000000000000000 0.000000000000000 
1
0.000000000000000 -0.000000000000000 1.000000000000000 0.000000000000000 
1.000000000000000 0.000000000000000 0.000000000000000 0.000000000000000 
-0.000000000000000 1.000000000000000 0.000000000000000 0.000000000000000 
1
-0.000000000000000 0.000000000000000 1.000000000000000 0.000000000000000 
1.000000000000000 -0.000000000000000 0.000000000000000 0.000000000000000 
0.000000000000000 1.000000000000000 -0.000000000000000 0.000000000000000 
1
0.000000000000000 0.000000000000000 1.000000000000000 0.000000000000000 
1.000000000000000 0.000000000000000 0.000000000000000 0.000000000000000 
0.000000000000000 1.000000000000000 0.000000000000000 0.000000000000000 
1
0.000000000000000 0.000000000000000 1.000000000000000 0.000000000000000 
1.000000000000000 0.000000000000000 0.000000000000000 0.000000000000000 
0.000000000000000 1.000000000000000 0.000000000000000 0.000000000000000 
2  2 1 3 -1 4 1 5 -1 0
1
0.000000000000000 0.000000000000000 1.000000000000000 0.000000000000000 
1.000000000000000 0.000000000000000 0.000000000000000 0.000000000000000 
0.000000000000000 1.000000000000000 0.000000000000000 0.000000000000000 
2  7 -1 5 1 4 -1 3 1 2 -1 0
1
1.000000000000000 0.000000000000000 0.000000000000000 0.000000000000000 
0.000000000000000 1.000000000000000 0.000000000000000 0.000000000000000 
0.000000000000000 0.000000000000000 1.000000000000000 0.000000000000000 
1
0.000000000000000 -0.000000000000000 1.000000000000000 0.000000000000000 
1.000000000000000 0.000000000000000 -0.000000000000000 0.000000000000000 
-0.000000000000000 1.000000000000000 0.000000000000000 0.000000000000000 
1
-0.000000000000000 0.000000000000000 1.000000000000000 0.000000000000000 
1.000000000000000 -0.000000000000000 0.000000000000000 0.000000000000000 
0.000000000000000 1.000000000000000 -0.000000000000000 0.000000000000000 
2  9 1 10 1 11 -1 0
2  7 -1 5 1 4 -1 3 1 2 -1 11 1 10 -1 9 -1 0
1
1.000000000000000 0.000000000000000 0.000000000000000 0.000000000000007 
0.000000000000000 1.000000000000000 0.000000000000000 -0.000000000000004 
0.000000000000000 0.000000000000000 1.000000000000000 -15.000000000000000 
2  9 1 10 1 11 -1 14 1 0
2  7 -1 5 1 4 -1 3 1 2 -1 14 -1 11 1 10 -1 9 -1 0
2  11 -1 2 1 3 -1 4 1 5 -1 0
2  9 1 10 1 11 -1 2 1 3 -1 4 1 5 -1 0
1
1.000000000000000 0.000000000000000 0.000000000000000 0.000000000000000 
0.000000000000000 1.000000000000000 0.000000000000000 0.000000000000000 
0.000000000000000 0.000000000000000 1.000000000000000 0.000000000000000 
1
0.000000000000000 -0.000000000000000 1.000000000000000 -0.000000000000893 
1.000000000000000 0.000000000000000 -0.000000000000000 0.000000000000000 
0.000000000000000 1.000000000000000 0.000000000000000 -0.000000000000000 
2  19 1 20 1 3 -1 4 1 5 -1 0
2  3 1 20 -1 19 -1 0
2  7 -1 5 1 4 -1 3 1 20 -1 19 -1 0
1
1.000000000000000 0.000000000000000 0.000000000000000 0.000000000000000 
0.000000000000000 1.000000000000000 0.000000000000000 0.000000000000000 
0.000000000000000 0.000000000000000 1.000000000000000 0.000000000000000 
1
0.000000000000000 -0.000000000000000 1.000000000000000 -0.000000000000012 
1.000000000000000 0.000000000000000 -0.000000000000000 0.000000000000000 
0.000000000000000 1.000000000000000 0.000000000000000 -0.000000000000000 
2  24 1 25 1 5 -1 0
2  5 1 25 -1 24 -1 0
2  7 -1 5 1 25 -1 24 -1 0
2  11 -1 14 1 2 1 3 -1 4 1 5 -1 0
2  9 1 10 1 11 -1 14 1 2 1 3 -1 4 1 5 -1 0
2  4 1 5 -1 0
2  7 -1 5 1 4 -1 0
2  7 -1 0
2  19 1 20 1 3 -1 0
Curve2ds 32
1 0.00000000000000000 0.00000000000000000 1.00000000000000000 0.00000000000000000 
1 0.00000000000000000 0.00000000000000000 1.00000000000000000 0.00000000000000000 
1 0.00000000000000000 0.00000000000000000 1.00000000000000000 0.00000000000000000 
1 0.00000000000000000 0.00000000000000000 1.00000000000000000 0.00000000000000000 
1 0.00000000000000000 0.00000000000000000 1.00000000000000000 0.00000000000000000 
1 0.00000000000000000 0.00000000000000000 1.00000000000000000 0.00000000000000000 
1 0.00000000000000000 0.00000000000000000 1.00000000000000000 0.00000000000000000 
1 0.00000000000000000 0.00000000000000000 1.00000000000000000 0.00000000000000000 
1 0.00000000000000000 -14.99999999999924505 1.00000000000000000 0.00000000000000000 
1 0.00000000000000000 -14.99999999999926459 1.00000000000000000 0.00000000000000000 
1 0.00000000000000000 -15.00000000000003020 1.00000000000000000 0.00000000000000000 
1 0.00000000000000000 -15.00000000000002309 1.00000000000000000 0.00000000000000000 
1 0.00000000000000000 -14.99999999999968381 1.00000000000000000 0.00000000000000000 
1 0.00000000000000000 -14.99999999999994849 1.00000000000000000 0.00000000000000000 
1 0.00000000000000000 -14.99999999999970335 1.00000000000000000 0.00000000000000000 
1 0.00000000000000000 -14.99999999999993960 1.00000000000000000 0.00000000000000000 
1 0.00000000000000000 0.00000000000000000 0.00000000000000000 -1.00000000000000000 
1 6.28318530717958623 0.00000000000000000 0.00000000000000000 -1.00000000000000000 
1 0.00000000000000000 0.00000000000000000 0.00000000000000000 -1.00000000000000000 
1 6.28318530717958623 0.00000000000000000 0.00000000000000000 -1.00000000000000000 
1 0.00000000000000000 0.00000000000000000 0.00000000000000000 -1.00000000000000000 
1 6.28318530717958623 0.00000000000000000 0.00000000000000000 -1.00000000000000000 
1 0.00000000000000000 0.00000000000000000 0.00000000000000000 -1.00000000000000000 
1 6.28318530717958623 0.00000000000000000 0.00000000000000000 -1.00000000000000000 
1 0.00000000000000000 0.00000000000000000 0.00000000000000000 -1.00000000000000000 
1 6.28318530717958623 0.00000000000000000 0.00000000000000000 -1.00000000000000000 
1 0.00000000000000000 0.00000000000000000 0.00000000000000000 -1.00000000000000000 
1 6.28318530717958623 0.00000000000000000 0.00000000000000000 -1.00000000000000000 
1 0.00000000000000000 0.00000000000000000 0.00000000000000000 -1.00000000000000000 
1 6.28318530717958623 0.00000000000000000 0.00000000000000000 -1.00000000000000000 
1 0.00000000000000000 0.00000000000000000 0.00000000000000000 -1.00000000000000000 
1 6.28318530717958623 0.00000000000000000 0.00000000000000000 -1.00000000000000000 
Curves 36
1 -0.00000000000244409 -1858.00000000000022737 4962.66700000000128057 -1.00000000000000000 0.00000000000000038 -0.00000000000000034 
1 -0.00000000000186510 228.00000000000031264 4962.66700000000037107 -1.00000000000000000 0.00000000000000038 -0.00000000000000034 
1 0.00000000000017234 -1858.00000000000090949 4962.66699999999946158 0.00000000000000006 1.00000000000000000 0.00000000000000006 
1 -14.99999999999983302 -1858.00000000000090949 4977.66699999999946158 0.00000000000000006 1.00000000000000000 0.00000000000000006 
1 -0.00000000000234693 -1858.00000000000022737 4712.66700000000128057 -1.00000000000000000 0.00000000000000038 -0.00000000000000034 
1 0.00000000000015847 -1858.00000000000090949 4712.66699999999946158 0.00000000000000006 0.00000000000000006 1.00000000000000000 
1 -14.99999999999984723 -1858.00000000000090949 4727.66699999999946158 0.00000000000000006 0.00000000000000006 1.00000000000000000 
1 -0.00000000000176796 228.00000000000022737 4712.66700000000037107 -1.00000000000000000 0.00000000000000038 -0.00000000000000034 
1 0.00000000000028814 227.99999999999914735 4962.66699999999946158 -0.00000000000000006 -0.00000000000000006 -1.00000000000000000 
1 -14.99999999999971756 227.99999999999914735 4977.66699999999946158 -0.00000000000000006 -0.00000000000000006 -1.00000000000000000 
1 0.00000000000027426 227.99999999999911893 4712.66699999999946158 -0.00000000000000006 -1.00000000000000000 -0.00000000000000006 
2 -0.00000000000061457 172.99999999999917577 4842.66700000000128057 1.00000000000000000 -0.00000000000000006 -0.00000000000000006 0.00000000000000006 1.00000000000000000 0.00000000000000006 0.00000000000000006 -0.00000000000000006 1.00000000000000000 5.00000000000000000
2 -0.00000000000061791 172.99999999999917577 4782.66700000000128057 1.00000000000000000 -0.00000000000000006 -0.00000000000000006 0.00000000000000006 1.00000000000000000 0.00000000000000006 0.00000000000000006 -0.00000000000000006 1.00000000000000000 5.00000000000000000
2 0.00000000000024728 -22.00000000000169820 4772.66699999999946158 1.00000000000000000 -0.00000000000000028 -0.00000000000000006 0.00000000000000028 1.00000000000000000 0.00000000000000028 0.00000000000000006 -0.00000000000000028 1.00000000000000000 5.00000000000000000
2 0.00000000000020564 -172.00000000000176215 4772.66699999999946158 1.00000000000000000 -0.00000000000000028 -0.00000000000000006 0.00000000000000028 1.00000000000000000 0.00000000000000028 0.00000000000000006 -0.00000000000000028 1.00000000000000000 5.00000000000000000
2 -0.00000000000072426 -1803.00000000000090949 4842.66700000000128057 1.00000000000000000 -0.00000000000000006 -0.00000000000000006 0.00000000000000006 1.00000000000000000 0.00000000000000006 0.00000000000000006 -0.00000000000000006 1.00000000000000000 5.00000000000000000
2 -0.00000000000015129 -1458.00000000000181899 4772.66699999999946158 1.00000000000000000 -0.00000000000000028 -0.00000000000000006 0.00000000000000028 1.00000000000000000 0.00000000000000028 0.00000000000000006 -0.00000000000000028 1.00000000000000000 5.00000000000000000
2 -0.00000000000072760 -1803.00000000000090949 4782.66700000000128057 1.00000000000000000 -0.00000000000000006 -0.00000000000000006 0.00000000000000006 1.00000000000000000 0.00000000000000006 0.00000000000000006 -0.00000000000000006 1.00000000000000000 5.00000000000000000
2 -0.00000000000019293 -1608.00000000000181899 4772.66699999999946158 1.00000000000000000 -0.00000000000000028 -0.00000000000000006 0.00000000000000028 1.00000000000000000 0.00000000000000028 0.00000000000000006 -0.00000000000000028 1.00000000000000000 5.00000000000000000
1 -14.99999999999973177 227.99999999999911893 4727.66699999999946158 -0.00000000000000006 -1.00000000000000000 -0.00000000000000006 
2 -15.00000000000300915 172.99999999999920419 4842.66700000000128057 1.00000000000000000 -0.00000000000000050 0.00000000000000061 0.00000000000000050 1.00000000000000000 -0.00000000000000016 -0.00000000000000061 0.00000000000000016 1.00000000000000000 5.00000000000000000
2 -15.00000000000299138 172.99999999999920419 4782.66700000000128057 1.00000000000000000 -0.00000000000000050 0.00000000000000061 0.00000000000000050 1.00000000000000000 -0.00000000000000016 -0.00000000000000061 0.00000000000000016 1.00000000000000000 5.00000000000000000
2 -15.00000000000110845 -22.00000000000063238 4772.66699999999946158 1.00000000000000000 -0.00000000000000028 0.00000000000000022 0.00000000000000028 1.00000000000000000 0.00000000000000000 -0.00000000000000022 0.00000000000000000 1.00000000000000000 5.00000000000000000
2 -15.00000000000114220 -172.00000000000071054 4772.66699999999946158 1.00000000000000000 -0.00000000000000028 0.00000000000000022 0.00000000000000028 1.00000000000000000 0.00000000000000000 -0.00000000000000022 0.00000000000000000 1.00000000000000000 5.00000000000000000
2 -15.00000000000443556 -1803.00000000000136424 4842.66700000000128057 1.00000000000000000 -0.00000000000000050 0.00000000000000061 0.00000000000000050 1.00000000000000000 -0.00000000000000016 -0.00000000000000061 0.00000000000000016 1.00000000000000000 5.00000000000000000
2 -15.00000000000142464 -1458.00000000000090949 4772.66699999999946158 1.00000000000000000 -0.00000000000000028 0.00000000000000022 0.00000000000000028 1.00000000000000000 0.00000000000000000 -0.00000000000000022 0.00000000000000000 1.00000000000000000 5.00000000000000000
2 -15.00000000000441780 -1803.00000000000136424 4782.66700000000128057 1.00000000000000000 -0.00000000000000050 0.00000000000000061 0.00000000000000050 1.00000000000000000 -0.00000000000000016 -0.00000000000000061 0.00000000000000016 1.00000000000000000 5.00000000000000000
2 -15.00000000000145661 -1608.00000000000090949 4772.66699999999946158 1.00000000000000000 -0.00000000000000028 0.00000000000000022 0.00000000000000028 1.00000000000000000 0.00000000000000000 -0.00000000000000022 0.00000000000000000 1.00000000000000000 5.00000000000000000
1 -0.00000000000376133 177.99999999999920419 4842.66700000000128057 -1.00000000000000000 0.00000000000000061 -0.00000000000000050 
1 -0.00000000000372469 177.99999999999920419 4782.66700000000128057 -1.00000000000000000 0.00000000000000061 -0.00000000000000050 
1 -0.00000000000107602 -17.00000000000063594 4772.66699999999946158 -1.00000000000000000 0.00000000000000022 -0.00000000000000028 
1 -0.00000000000111765 -167.00000000000071054 4772.66699999999946158 -1.00000000000000000 0.00000000000000022 -0.00000000000000028 
1 -0.00000000000474854 -1798.00000000000136424 4842.66700000000128057 -1.00000000000000000 0.00000000000000061 -0.00000000000000050 
1 -0.00000000000147459 -1453.00000000000090949 4772.66699999999946158 -1.00000000000000000 0.00000000000000022 -0.00000000000000028 
1 -0.00000000000471190 -1798.00000000000136424 4782.66700000000128057 -1.00000000000000000 0.00000000000000061 -0.00000000000000050 
1 -0.00000000000151622 -1603.00000000000090949 4772.66699999999946158 -1.00000000000000000 0.00000000000000022 -0.00000000000000028 
Polygon3D 0
PolygonOnTriangulations 0
Surfaces 14
1 -0.00000000000244409 -1858.00000000000022737 4962.66700000000128057 0.00000000000000022 -0.00000000000000050 -1.00000000000000000 0.00000000000000028 1.00000000000000000 -0.00000000000000050 1.00000000000000000 -0.00000000000000028 0.00000000000000022 
1 -0.00000000000234693 -1858.00000000000022737 4712.66700000000128057 0.00000000000000050 1.00000000000000000 -0.00000000000000016 -0.00000000000000038 0.00000000000000016 1.00000000000000000 1.00000000000000000 -0.00000000000000050 0.00000000000000038 
1 -0.00000000000186510 228.00000000000031264 4962.66700000000037107 -0.00000000000000050 -1.00000000000000000 0.00000000000000016 0.00000000000000038 -0.00000000000000016 -1.00000000000000000 1.00000000000000000 -0.00000000000000050 0.00000000000000038 
1 4837.66699999999946158 -0.00000000000103184 -814.99999999999977263 -0.00000000000000028 -1.00000000000000000 0.00000000000000016 -1.00000000000000000 0.00000000000000028 -0.00000000000000006 0.00000000000000006 -0.00000000000000016 -1.00000000000000000 
2 -0.00000000000376382 172.99999999999920419 4842.66700000000128057 1.00000000000000000 -0.00000000000000038 0.00000000000000073 0.00000000000000038 1.00000000000000000 -0.00000000000000016 -0.00000000000000073 0.00000000000000016 1.00000000000000000 5.00000000000000000
2 -0.00000000000372719 172.99999999999920419 4782.66700000000128057 1.00000000000000000 -0.00000000000000038 0.00000000000000073 0.00000000000000038 1.00000000000000000 -0.00000000000000016 -0.00000000000000073 0.00000000000000016 1.00000000000000000 5.00000000000000000
2 -0.00000000000107740 -22.00000000000063594 4772.66699999999946158 1.00000000000000000 -0.00000000000000028 0.00000000000000022 0.00000000000000028 1.00000000000000000 0.00000000000000000 -0.00000000000000022 0.00000000000000000 1.00000000000000000 5.00000000000000000
2 -0.00000000000111904 -172.00000000000071054 4772.66699999999946158 1.00000000000000000 -0.00000000000000028 0.00000000000000022 0.00000000000000028 1.00000000000000000 0.00000000000000000 -0.00000000000000022 0.00000000000000000 1.00000000000000000 5.00000000000000000
2 -0.00000000000475103 -1803.00000000000136424 4842.66700000000128057 1.00000000000000000 -0.00000000000000038 0.00000000000000073 0.00000000000000038 1.00000000000000000 -0.00000000000000016 -0.00000000000000073 0.00000000000000016 1.00000000000000000 5.00000000000000000
2 -0.00000000000147597 -1458.00000000000090949 4772.66699999999946158 1.00000000000000000 -0.00000000000000028 0.00000000000000022 0.00000000000000028 1.00000000000000000 0.00000000000000000 -0.00000000000000022 0.00000000000000000 1.00000000000000000 5.00000000000000000
2 -0.00000000000471440 -1803.00000000000136424 4782.66700000000128057 1.00000000000000000 -0.00000000000000038 0.00000000000000073 0.00000000000000038 1.00000000000000000 -0.00000000000000016 -0.00000000000000073 0.00000000000000016 1.00000000000000000 5.00000000000000000
2 -0.00000000000151761 -1608.00000000000090949 4772.66699999999946158 1.00000000000000000 -0.00000000000000028 0.00000000000000022 0.00000000000000028 1.00000000000000000 0.00000000000000000 -0.00000000000000022 0.00000000000000000 1.00000000000000000 5.00000000000000000
1 4852.66699999999946158 -15.00000000000103739 -814.99999999999977263 -0.00000000000000028 -1.00000000000000000 0.00000000000000016 -1.00000000000000000 0.00000000000000028 -0.00000000000000006 0.00000000000000006 -0.00000000000000016 -1.00000000000000000 
1 -0.00000000000176796 228.00000000000022737 4712.66700000000037107 -0.00000000000000022 0.00000000000000050 1.00000000000000000 -0.00000000000000028 -1.00000000000000000 0.00000000000000050 1.00000000000000000 -0.00000000000000028 0.00000000000000022 
Triangulations 0

TShapes 106
Ve
0.000000100000000
4962.666999999999462 -0.000000000000103 -1858.000000000000909
0 0

0101101
*
Ve
0.000000100000000
4962.666999999999462 -15.000000000000103 -1858.000000000000909
0 0

0101101
*
Ed
 0.000000100000000 1 1 0
1  1 0 0.000000000000000 15.000000000000000
0

0101000
+106 8 -105 8 *
Ve
0.000000100000000
4962.666999999999462 0.000000000000013 227.999999999999147
0 0

0101101
*
Ve
0.000000100000000
4962.666999999999462 -14.999999999999988 227.999999999999147
0 0

0101101
*
Ed
 0.000000100000000 1 1 0
1  2 0 0.000000000000000 15.000000000000000
0

0101000
+103 8 -102 8 *
Ed
 0.000000100000000 1 1 0
1  3 0 0.000000000000000 2086.000000000000000
0

0101000
+106 13 -103 13 *
Ed
 0.000000100000000 1 1 0
1  4 0 0.000000000000000 2086.000000000000000
0

0101000
+105 16 -102 16 *
Wi

0101100
+104 0 -101 0 -100 12 +99 15 *
Fa
0  0.000000100000000 1 0

0111000
+98 0 *
Ve
0.000000100000000
4712.666999999999462 -0.000000000000103 -1858.000000000000909
0 0

0101101
*
Ve
0.000000100000000
4712.666999999999462 -15.000000000000103 -1858.000000000000909
0 0

0101101
*
Ed
 0.000000100000000 1 1 0
1  5 0 0.000000000000000 15.000000000000000
0

0101000
+96 8 -95 8 *
Ed
 0.000000100000000 1 1 0
1  6 0 0.000000000000000 250.000000000000000
0

0101000
+96 13 -106 13 *
Ed
 0.000000100000000 1 1 0
1  7 0 0.000000000000000 250.000000000000000
0

0101000
+95 16 -105 16 *
Wi

0101100
+94 0 -104 0 -93 12 +92 15 *
Fa
0  0.000000100000000 2 0

0111000
+91 0 *
Ve
0.000000100000000
4712.666999999999462 0.000000000000013 227.999999999999119
0 0

0101101
*
Ve
0.000000100000000
4712.666999999999462 -14.999999999999988 227.999999999999119
0 0

0101101
*
Ed
 0.000000100000000 1 1 0
1  8 0 0.000000000000000 15.000000000000000
0

0101000
+89 8 -88 8 *
Ed
 0.000000100000000 1 1 0
1  9 0 0.000000000000000 250.000000000000000
0

0101000
+103 13 -89 13 *
Ed
 0.000000100000000 1 1 0
1  10 0 0.000000000000000 250.000000000000000
0

0101000
+102 16 -88 16 *
Wi

0101100
+101 0 -87 0 -86 12 +85 15 *
Fa
0  0.000000100000000 3 0

0111000
+84 0 *
Ed
 0.000000100000000 1 1 0
1  11 0 0.000000000000000 2086.000000000000000
0

0101000
+89 13 -96 13 *
Wi

0101100
+100 18 +93 18 +86 18 +82 18 *
Ve
0.000000100000760
4842.667000000000371 -0.000000000000883 177.999999999999176
0 0

0101101
*
Ed
 0.000000100000760 1 1 0
1  12 0 0.000000000000000 6.283185307179586
2  1 5 22 0.000000000000000 6.283185307179586
0

0101000
+80 23 -80 23 *
Wi

0101100
+79 21 *
Ve
0.000000100000740
4782.667000000000371 -0.000000000000883 177.999999999999176
0 0

0101101
*
Ed
 0.000000100000740 1 1 0
1  13 0 0.000000000000000 6.283185307179586
2  2 6 22 0.000000000000000 6.283185307179586
0

0101000
+77 23 -77 23 *
Wi

0101100
+76 21 *
Ve
0.000000100000031
4772.666999999999462 -0.000000000001076 -17.000000000000636
0 0

0101101
*
Ed
 0.000000100000031 1 1 0
1  14 0 0.000000000000000 6.283185307179586
2  3 7 27 0.000000000000000 6.283185307179586
0

0101000
+74 28 -74 28 *
Wi

0101100
+73 26 *
Ve
0.000000100000022
4772.666999999999462 -0.000000000001118 -167.000000000000711
0 0

0101101
*
Ed
 0.000000100000022 1 1 0
1  15 0 0.000000000000000 6.283185307179586
2  4 8 27 0.000000000000000 6.283185307179586
0

0101000
+71 28 -71 28 *
Wi

0101100
+70 26 *
Ve
0.000000100000321
4842.667000000000371 -0.000000000000993 -1798.000000000000909
0 0

0101101
*
Ed
 0.000000100000321 1 1 0
1  16 0 0.000000000000000 6.283185307179586
2  5 9 22 0.000000000000000 6.283185307179586
0

0101000
+68 23 -68 23 *
Wi

0101100
+67 21 *
Ve
0.000000100000052
4772.666999999999462 -0.000000000001475 -1453.000000000000909
0 0

0101101
*
Ed
 0.000000100000052 1 1 0
1  17 0 0.000000000000000 6.283185307179586
2  6 10 27 0.000000000000000 6.283185307179586
0

0101000
+65 28 -65 28 *
Wi

0101100
+64 26 *
Ve
0.000000100000301
4782.667000000000371 -0.000000000000993 -1798.000000000000909
0 0

0101101
*
Ed
 0.000000100000301 1 1 0
1  18 0 0.000000000000000 6.283185307179586
2  7 11 22 0.000000000000000 6.283185307179586
0

0101000
+62 23 -62 23 *
Wi

0101100
+61 21 *
Ve
0.000000100000061
4772.666999999999462 -0.000000000001516 -1603.000000000000909
0 0

0101101
*
Ed
 0.000000100000061 1 1 0
1  19 0 0.000000000000000 6.283185307179586
2  8 12 27 0.000000000000000 6.283185307179586
0

0101000
+59 28 -59 28 *
Wi

0101100
+58 26 *
Fa
0  0.000000100000000 4 17

0111000
+81 0 +78 0 +75 0 +72 0 +69 0 +66 0 +63 0 +60 0 +57 0 *
Ed
 0.000000100000000 1 1 0
1  20 0 0.000000000000000 2086.000000000000000
0

0101000
+88 16 -95 16 *
Wi

0101100
+99 30 +92 30 +85 30 +55 30 *
Ve
0.000000100000004
4842.667000000001281 -15.000000000003272 177.999999999999204
0 0

0101101
*
Ed
 0.000000100000000 1 1 0
1  21 0 0.000000000000000 6.283185307179586
2  9 5 0 0.000000000000000 6.283185307179586
0

0101000
+53 32 -53 32 *
Wi

0101100
+52 31 *
Ve
0.000000100000002
4782.667000000001281 -15.000000000003253 177.999999999999204
0 0

0101101
*
Ed
 0.000000100000000 1 1 0
1  22 0 0.000000000000000 6.283185307179586
2  10 6 0 0.000000000000000 6.283185307179586
0

0101000
+50 32 -50 32 *
Wi

0101100
+49 31 *
Ve
0.000000100000033
4772.666999999999462 -15.000000000001108 -17.000000000000632
0 0

0101101
*
Ed
 0.000000100000031 1 1 0
1  23 0 0.000000000000000 6.283185307179586
2  11 7 0 0.000000000000000 6.283185307179586
0

0101000
+47 33 -47 33 *
Wi

0101100
+46 0 *
Ve
0.000000100000022
4772.666999999999462 -15.000000000001140 -167.000000000000711
0 0

0101101
*
Ed
 0.000000100000022 1 1 0
1  24 0 0.000000000000000 6.283185307179586
2  12 8 0 0.000000000000000 6.283185307179586
0

0101000
+44 33 -44 33 *
Wi

0101100
+43 0 *
Ve
0.000000100000437
4842.667000000001281 -15.000000000004265 -1798.000000000001364
0 0

0101101
*
Ed
 0.000000100000000 1 1 0
1  25 0 0.000000000000000 6.283185307179586
2  13 9 0 0.000000000000000 6.283185307179586
0

0101000
+41 32 -41 32 *
Wi

0101100
+40 31 *
Ve
0.000000100000092
4772.666999999999462 -15.000000000001462 -1453.000000000000909
0 0

0101101
*
Ed
 0.000000100000052 1 1 0
1  26 0 0.000000000000000 6.283185307179586
2  14 10 0 0.000000000000000 6.283185307179586
0

0101000
+38 33 -38 33 *
Wi

0101100
+37 0 *
Ve
0.000000100000462
4782.667000000001281 -15.000000000004219 -1798.000000000001364
0 0

0101101
*
Ed
 0.000000100000000 1 1 0
1  27 0 0.000000000000000 6.283185307179586
2  15 11 0 0.000000000000000 6.283185307179586
0

0101000
+35 32 -35 32 *
Wi

0101100
+34 31 *
Ve
0.000000100000109
4772.666999999999462 -15.000000000001503 -1603.000000000000909
0 0

0101101
*
Ed
 0.000000100000061 1 1 0
1  28 0 0.000000000000000 6.283185307179586
2  16 12 0 0.000000000000000 6.283185307179586
0

0101000
+32 33 -32 33 *
Wi

0101100
+31 0 *
Fa
0  0.000000100000000 13 29

0111000
+54 0 +51 0 +48 0 +45 0 +42 0 +39 0 +36 0 +33 0 +30 0 *
Wi

0101100
+87 0 -94 0 -82 12 +55 15 *
Fa
0  0.000000100000000 14 0

0111000
+28 0 *
Ed
 0.000000100000000 1 1 0
1  29 0 0.000000000000000 14.999999999999243
3  17 18CN 5 0 0.000000000000000 14.999999999999243
0

0101000
+80 32 -53 32 *
Wi

0101100
-79 34 -26 0 +52 0 +26 0 *
Fa
0  0.000000100000000 5 0

0111000
+25 0 *
Ed
 0.000000100000000 1 1 0
1  30 0 0.000000000000000 14.999999999999263
3  19 20CN 6 0 0.000000000000000 14.999999999999263
0

0101000
+77 32 -50 32 *
Wi

0101100
-76 34 -23 0 +49 0 +23 0 *
Fa
0  0.000000100000000 6 0

0111000
+22 0 *
Ed
 0.000000100000031 1 1 0
1  31 0 0.000000000000000 15.000000000000032
3  21 22CN 7 0 0.000000000000000 15.000000000000032
0

0101000
+74 33 -47 33 *
Wi

0101100
-73 26 -20 0 +46 0 +20 0 *
Fa
0  0.000000100000031 7 0

0111000
+19 0 *
Ed
 0.000000100000022 1 1 0
1  32 0 0.000000000000000 15.000000000000023
3  23 24CN 8 0 0.000000000000000 15.000000000000023
0

0101000
+71 33 -44 33 *
Wi

0101100
-70 26 -17 0 +43 0 +17 0 *
Fa
0  0.000000100000022 8 0

0111000
+16 0 *
Ed
 0.000000100000000 1 1 0
1  33 0 0.000000000000000 14.999999999999249
3  25 26CN 9 0 0.000000000000000 14.999999999999249
0

0101000
+68 32 -41 32 *
Wi

0101100
-67 34 -14 0 +40 0 +14 0 *
Fa
0  0.000000100000000 9 0

0111000
+13 0 *
Ed
 0.000000100000052 1 1 0
1  34 0 0.000000000000000 14.999999999999988
3  27 28CN 10 0 0.000000000000000 14.999999999999988
0

0101000
+65 33 -38 33 *
Wi

0101100
-64 26 -11 0 +37 0 +11 0 *
Fa
0  0.000000100000052 10 0

0111000
+10 0 *
Ed
 0.000000100000000 1 1 0
1  35 0 0.000000000000000 14.999999999999241
3  29 30CN 11 0 0.000000000000000 14.999999999999241
0

0101000
+62 32 -35 32 *
Wi

0101100
-61 34 -8 0 +34 0 +8 0 *
Fa
0  0.000000100000000 11 0

0111000
+7 0 *
Ed
 0.000000100000061 1 1 0
1  36 0 0.000000000000000 14.999999999999986
3  31 32CN 12 0 0.000000000000000 14.999999999999986
0

0101000
+59 33 -32 33 *
Wi

0101100
-58 26 -5 0 +31 0 +5 0 *
Fa
0  0.000000100000061 12 0

0111000
+4 0 *
Sh

0101100
-97 6 -90 6 -83 6 -56 0 +29 0 -27 6 -24 31 -21 31 -18 0 -15 0 
-12 31 -9 0 -6 31 -3 0 *
So

0100000
+2 0 *

+1 1 