
CASCADE Topology V1, (c) Matra-Datavision
Locations 33
1
0.000000000000000 0.000000000000000 1.000000000000000 0.000000000000000 
1.000000000000000 0.000000000000000 0.000000000000000 0.000000000000000 
0.000000000000000 1.000000000000000 0.000000000000000 0.000000000000000 
1
0.000000000000000 -0.000000000000000 1.000000000000000 0.000000000000000 
1.000000000000000 0.000000000000000 0.000000000000000 0.000000000000000 
-0.000000000000000 1.000000000000000 0.000000000000000 0.000000000000000 
1
-0.000000000000000 0.000000000000000 1.000000000000000 0.000000000000000 
1.000000000000000 -0.000000000000000 0.000000000000000 0.000000000000000 
0.000000000000000 1.000000000000000 -0.000000000000000 0.000000000000000 
2  2 1 3 -1 0
1
1.000000000000000 0.000000000000000 0.000000000000000 0.000000000000000 
0.000000000000000 1.000000000000000 0.000000000000000 0.000000000000000 
0.000000000000000 0.000000000000000 1.000000000000000 0.000000000000000 
1
0.000000000000000 -0.000000000000000 1.000000000000000 0.000000000000000 
1.000000000000000 0.000000000000000 -0.000000000000000 0.000000000000000 
-0.000000000000000 1.000000000000000 0.000000000000000 0.000000000000000 
1
-0.000000000000000 0.000000000000000 1.000000000000000 0.000000000000000 
1.000000000000000 -0.000000000000000 0.000000000000000 0.000000000000000 
0.000000000000000 1.000000000000000 -0.000000000000000 0.000000000000000 
2  5 1 6 1 7 -1 0
1
1.000000000000000 0.000000000000000 0.000000000000000 -0.000000000000007 
0.000000000000000 1.000000000000000 0.000000000000000 0.000000000000004 
0.000000000000000 0.000000000000000 1.000000000000000 15.000000000000000 
2  5 1 6 1 7 -1 9 1 0
2  6 -1 5 -1 0
2  5 1 6 1 7 -1 2 1 3 -1 0
2  7 1 6 -1 5 -1 0
2  9 -1 7 1 6 -1 5 -1 0
1
1.000000000000000 0.000000000000000 0.000000000000000 0.000000000000000 
0.000000000000000 1.000000000000000 0.000000000000000 0.000000000000000 
0.000000000000000 0.000000000000000 1.000000000000000 0.000000000000000 
1
0.000000000000000 -0.000000000000000 1.000000000000000 14.999999999999556 
1.000000000000000 0.000000000000000 -0.000000000000000 -0.000000000000007 
0.000000000000000 1.000000000000000 0.000000000000000 0.000000000000005 
1
1.000000000000000 0.000000000000000 0.000000000000000 0.000000000000010 
0.000000000000000 1.000000000000000 0.000000000000000 -0.000000000000007 
0.000000000000000 0.000000000000000 1.000000000000000 -15.000000000000000 
2  15 1 16 1 3 -1 17 1 3 1 2 -1 7 1 6 -1 5 -1 0
2  5 1 6 1 7 -1 9 1 2 1 3 -1 0
2  15 1 16 1 2 -1 9 -1 7 1 6 -1 5 -1 0
2  15 1 16 1 3 -1 0
2  15 1 16 1 3 -1 17 1 0
2  7 -1 2 1 3 -1 0
2  3 1 2 -1 7 1 6 -1 5 -1 0
2  3 -1 17 1 3 1 2 -1 7 1 6 -1 5 -1 0
2  7 -1 9 1 2 1 3 -1 0
2  3 1 2 -1 9 -1 7 1 6 -1 5 -1 0
2  16 -1 15 -1 0
2  3 1 16 -1 15 -1 0
2  17 -1 3 1 16 -1 15 -1 0
2  3 1 2 -1 0
2  3 -1 17 1 0
2  3 -1 0
Curve2ds 57
1 250.00000000000000000 -0.00000000000000000 -0.00000000000000022 -1.00000000000000000 
1 -243.25097898216108661 -494.13214511046066946 1.00000000000000000 -0.00000000000000022 
1 0.00000000000000000 0.00000000000000000 1.00000000000000000 0.00000000000000000 
1 0.00000000000000333 -15.00000000000000000 1.00000000000000000 0.00000000000000000 
1 -243.25097898216063186 -244.13214511046066946 -0.00000000000000022 -1.00000000000000000 
1 0.00000000000000000 0.00000000000000000 -0.00000000000000022 -1.00000000000000000 
1 0.00000000000000000 0.00000000000000000 -0.00000000000000022 -1.00000000000000000 
1 199.99999999999874944 -14.99999999999921485 0.00000000000000044 1.00000000000000000 
1 -54.58384518607499558 -494.13214511046066946 0.36755970767774454 0.92999992542572341 
1 249.36902101783925900 274.92968892062208397 0.00000000000000022 1.00000000000000000 
1 249.36902101783925900 476.86785488953796630 -1.00000000000000000 0.00000000000000022 
1 0.00000000000000000 0.00000000000000000 1.00000000000000000 0.00000000000000000 
1 0.00000000000000666 -15.00000000000000000 1.00000000000000000 0.00000000000000000 
1 -0.63097898194928348 476.86785488953819367 -0.00000000000134684 -1.00000000000000000 
1 -0.63097898215710302 322.54105185845355663 -0.36755970767776108 -0.92999992542571686 
1 0.00000000000000000 0.00000000000000000 1.00000000000000000 0.00000000000000000 
1 0.00000000000000666 -15.00000000000000000 1.00000000000000000 0.00000000000000000 
1 -224.59469008823180047 -244.13214511046066946 -1.00000000000000000 0.00000000000000022 
1 106.41974209391673867 123.17287688069040996 -0.00000000000000078 -1.00000000000000000 
1 0.00000000000000000 0.00000000000000000 1.00000000000000000 0.00000000000000000 
1 0.00000000000000000 -15.00000000000000000 1.00000000000000000 0.00000000000000000 
2 -86.38427898216104950 -404.13214511046066946 -0.00000000000000022 -1.00000000000000000 1.00000000000000000 -0.00000000000000022 5.00000000000000000
1 0.00000000000000000 0.00000000000000000 1.00000000000000000 0.00000000000000000 
1 0.00000000000000000 -15.00000000000000000 1.00000000000000000 0.00000000000000000 
2 -86.38427898216104950 -60.86413506334633894 -0.00000000000000022 -1.00000000000000000 1.00000000000000000 -0.00000000000000022 5.00000000000000000
1 0.00000000000000000 0.00000000000000000 1.00000000000000000 0.00000000000000000 
1 0.00000000000000000 -15.00000000000000000 1.00000000000000000 0.00000000000000000 
2 95.48242101783898761 56.02715392163054275 -0.00000000000000022 -1.00000000000000000 1.00000000000000000 -0.00000000000000022 5.00000000000000000
1 0.00000000000000000 0.00000000000000000 1.00000000000000000 0.00000000000000000 
1 0.00000000000000000 -15.00000000000000000 1.00000000000000000 0.00000000000000000 
2 95.48242101783898761 381.86785488953933054 -0.00000000000000022 -1.00000000000000000 1.00000000000000000 -0.00000000000000022 5.00000000000000000
1 250.00000000000045475 0.00000000000000044 -0.00000000000000022 -1.00000000000000000 
1 80.00000000000000000 0.00000000000000000 0.00000000000000022 -1.00000000000000000 
1 106.41974209391491968 -76.82712311931049953 -1.00000000000000000 0.00000000000000000 
1 0.00000000000000000 0.00000000000000000 1.00000000000000000 0.00000000000000000 
1 -0.00000000000000999 -15.00000000000000000 1.00000000000000000 0.00000000000000000 
1 0.00000000000000000 0.00000000000000000 0.00000000000000017 -1.00000000000000000 
1 249.99999999978854248 0.00000000000000000 0.00000000000000017 -1.00000000000000000 
1 0.00000000000000000 0.00000000000000000 0.00000000000000017 -1.00000000000000000 
1 18.65628889392883138 0.00000000000000000 0.00000000000000017 -1.00000000000000000 
1 0.00000000000000000 0.00000000000000000 -0.00000000000000022 -1.00000000000000000 
1 0.00000000000000000 0.00000000000000000 1.00000000000000000 -0.00000000000000000 
1 -0.00000000000001189 -15.00000000000000000 1.00000000000000000 -0.00000000000000000 
1 106.41974209391491968 123.17287688069040996 -0.90152305746827233 -0.43273106758477403 
1 -143.58025790608508032 3.17287688068950047 -0.00000000000000000 -1.00000000000000000 
1 0.00000000000000000 0.00000000000000000 1.00000000000000000 0.00000000000000000 
1 -0.00000000000000666 -15.00000000000000000 1.00000000000000000 0.00000000000000000 
1 0.00000000000000000 0.00000000000000000 0.00000000000000000 -1.00000000000000000 
1 6.28318530717958623 0.00000000000000000 0.00000000000000000 -1.00000000000000000 
1 0.00000000000000000 0.00000000000000000 0.00000000000000000 -1.00000000000000000 
1 6.28318530717958623 0.00000000000000000 0.00000000000000000 -1.00000000000000000 
1 0.00000000000000000 0.00000000000000000 0.00000000000000000 -1.00000000000000000 
1 6.28318530717958623 0.00000000000000000 0.00000000000000000 -1.00000000000000000 
1 0.00000000000000000 0.00000000000000000 0.00000000000000000 -1.00000000000000000 
1 6.28318530717958623 0.00000000000000000 0.00000000000000000 -1.00000000000000000 
1 277.30849247724233919 0.00000000000000044 -0.00000000000000010 -1.00000000000000000 
1 0.00000000000000000 0.00000000000000000 0.00000000000000022 -1.00000000000000000 
Curves 30
1 -887.00000000000022737 3134.00000000000136424 -0.00000000000158873 -0.00000000000000044 0.00000000000000028 1.00000000000000000 
1 -887.00000000000022737 3322.66713379608745527 -0.00000000000167251 -0.00000000000000044 0.00000000000000028 1.00000000000000000 
1 -887.00000000000068212 3134.00000000000000000 0.00000000000000000 0.00000000000000000 1.00000000000000000 0.00000000000000000 
1 -1137.00000000000068212 3134.00000000000000000 0.00000000000000000 1.00000000000000000 0.00000000000000000 0.00000000000000000 
1 -937.00000000000022737 3134.00000000000227374 14.99999999999705480 0.00000000000000067 -0.00000000000000044 -1.00000000000000000 
1 -1656.06183403108320817 3626.62000000000170985 -0.00000000000197826 -0.00000000000000044 0.00000000000000028 1.00000000000000000 
1 -887.00000000000068212 3322.66713379608609102 0.00000000000000000 -0.92999992542572341 0.36755970767774426 0.00000000000000000 
1 -1656.06183403108366292 3626.61999999999989086 0.00000000000000000 -1.00000000000000000 0.00000000000000000 0.00000000000000000 
1 -1857.99999999999954525 3626.61999999999989086 0.00000000000000000 0.00000000000000000 -1.00000000000000000 0.00000000000000000 
1 -1857.99999999999954525 3376.62000000021134838 0.00000000000000000 1.00000000000000000 -0.00000000000134662 0.00000000000000000 
1 -1703.67319696891490821 3376.62000000000352884 0.00000000000000000 0.92999992542571697 -0.36755970767776086 0.00000000000000000 
1 -1137.00000000000068212 3152.65628889392883138 0.00000000000000000 0.00000000000000000 -1.00000000000000000 0.00000000000000000 
2 -977.00000000000068212 3290.86670000000003711 0.00000000000000000 0.00000000000000000 0.00000000000000000 1.00000000000000000 1.00000000000000000 0.00000000000000000 -0.00000000000000000 -0.00000000000000000 1.00000000000000000 0.00000000000000000 5.00000000000000000
2 -1320.26801004711501264 3290.86669999999958236 0.00000000000000000 0.00000000000000000 0.00000000000000000 1.00000000000000000 1.00000000000000000 0.00000000000000000 -0.00000000000000000 -0.00000000000000000 1.00000000000000000 0.00000000000000000 5.00000000000000000
2 -1437.15929903209189433 3472.73339999999961947 0.00000000000000000 0.00000000000000000 0.00000000000000000 1.00000000000000000 1.00000000000000000 0.00000000000000000 -0.00000000000000000 -0.00000000000000000 1.00000000000000000 0.00000000000000000 5.00000000000000000
2 -1763.00000000000068212 3472.73339999999961947 0.00000000000000000 0.00000000000000000 0.00000000000000000 1.00000000000000000 1.00000000000000000 0.00000000000000000 -0.00000000000000000 -0.00000000000000000 1.00000000000000000 0.00000000000000000 5.00000000000000000
1 -937.00000000000022737 2884.00000000000181899 14.99999999999722178 0.00000000000000067 -0.00000000000000044 -1.00000000000000000 
1 -937.00000000000000000 3134.00000000000136424 0.00000000000000000 0.00000000000000000 -1.00000000000000000 0.00000000000000000 
1 -1857.99999999999909051 3626.62000000000170985 -0.00000000000202310 -0.00000000000000044 0.00000000000000028 1.00000000000000000 
1 -1857.99999999999931788 3376.62000000021316737 -0.00000000000191208 -0.00000000000000044 0.00000000000000028 1.00000000000000000 
1 -1703.67319696891468084 3376.62000000000534783 -0.00000000000187781 -0.00000000000000044 0.00000000000000028 1.00000000000000000 
1 -1137.00000000000022737 3152.65628889393019563 -0.00000000000165253 -0.00000000000000044 0.00000000000000028 1.00000000000000000 
1 -1137.00000000000022737 3134.00000000000136424 -0.00000000000164424 -0.00000000000000044 0.00000000000000028 1.00000000000000000 
1 -1137.00000000000090949 3134.00000000000136424 0.00000000000000000 0.43273106758477403 -0.90152305746827233 0.00000000000000000 
1 -1017.00000000000000000 2884.00000000000136424 0.00000000000000000 1.00000000000000000 0.00000000000000000 0.00000000000000000 
1 -972.00000000000022737 3290.86670000000140135 -0.00000000000167727 -0.00000000000000044 0.00000000000000028 1.00000000000000000 
1 -1315.26801004711455789 3290.86670000000094660 -0.00000000000175349 -0.00000000000000044 0.00000000000000028 1.00000000000000000 
1 -1432.15929903209143959 3472.73340000000098371 -0.00000000000186021 -0.00000000000000044 0.00000000000000028 1.00000000000000000 
1 -1758.00000000000045475 3472.73340000000143846 -0.00000000000193256 -0.00000000000000044 0.00000000000000028 1.00000000000000000 
1 -1017.00000000000022737 2884.00000000000181899 14.99999999999718625 0.00000000000000067 -0.00000000000000044 -1.00000000000000000 
Polygon3D 0
PolygonOnTriangulations 0
Surfaces 18
1 -887.00000000000022737 3134.00000000000136424 -0.00000000000158873 -1.00000000000000000 0.00000000000000022 -0.00000000000000044 0.00000000000000022 1.00000000000000000 -0.00000000000000044 0.00000000000000044 -0.00000000000000044 -1.00000000000000000 
1 -1137.00000000000022737 3134.00000000000136424 -0.00000000000164424 0.00000000000000044 1.00000000000000000 -0.00000000000000028 1.00000000000000000 -0.00000000000000044 0.00000000000000022 0.00000000000000022 -0.00000000000000028 -1.00000000000000000 
1 -0.00000000000105657 -1381.13214511046066946 3377.25097898216108661 1.00000000000000000 -0.00000000000000022 0.00000000000000022 -0.00000000000000022 0.00000000000000000 1.00000000000000000 -0.00000000000000022 -1.00000000000000000 -0.00000000000000000 
1 -937.00000000000022737 3134.00000000000227374 14.99999999999705480 0.00000000000000022 1.00000000000000000 -0.00000000000000044 -1.00000000000000000 0.00000000000000022 -0.00000000000000044 -0.00000000000000044 0.00000000000000044 1.00000000000000000 
1 -937.00000000000022737 3134.00000000000227374 14.99999999999705480 -1.00000000000000000 -0.00000000000000000 -0.00000000000000067 -0.00000000000000000 -1.00000000000000000 0.00000000000000067 -0.00000000000000067 0.00000000000000067 1.00000000000000000 
1 -887.00000000000022737 3322.66713379608745527 -0.00000000000167251 -0.36755970767774465 -0.92999992542572330 0.00000000000000009 -0.92999992542572330 0.36755970767774465 -0.00000000000000037 0.00000000000000031 -0.00000000000000022 -1.00000000000000000 
1 -1857.99999999999909051 3626.62000000000170985 -0.00000000000202310 1.00000000000000000 -0.00000000000000022 0.00000000000000044 -0.00000000000000022 -1.00000000000000000 0.00000000000000044 0.00000000000000044 -0.00000000000000044 -1.00000000000000000 
1 -1137.00000000000022737 3152.65628889393019563 -0.00000000000165253 1.00000000000000000 -0.00000000000000022 0.00000000000000044 -0.00000000000000022 -1.00000000000000000 0.00000000000000044 0.00000000000000044 -0.00000000000000044 -1.00000000000000000 
1 14.99999999999776001 -1013.82712311931049953 3027.58025790608644456 1.00000000000000000 -0.00000000000000044 0.00000000000000045 -0.00000000000000045 0.00000000000000000 1.00000000000000000 -0.00000000000000044 -1.00000000000000000 -0.00000000000000000 
2 -977.00000000000022737 3290.86670000000140135 -0.00000000000167838 0.00000000000000022 -0.00000000000000044 -1.00000000000000000 1.00000000000000000 -0.00000000000000044 0.00000000000000022 0.00000000000000044 1.00000000000000000 -0.00000000000000044 5.00000000000000000
2 -1320.26801004711455789 3290.86670000000094660 -0.00000000000175460 0.00000000000000022 -0.00000000000000044 -1.00000000000000000 1.00000000000000000 -0.00000000000000044 0.00000000000000022 0.00000000000000044 1.00000000000000000 -0.00000000000000044 5.00000000000000000
2 -1437.15929903209143959 3472.73340000000098371 -0.00000000000186132 0.00000000000000022 -0.00000000000000044 -1.00000000000000000 1.00000000000000000 -0.00000000000000044 0.00000000000000022 0.00000000000000044 1.00000000000000000 -0.00000000000000044 5.00000000000000000
2 -1763.00000000000045475 3472.73340000000143846 -0.00000000000193367 0.00000000000000022 -0.00000000000000044 -1.00000000000000000 1.00000000000000000 -0.00000000000000044 0.00000000000000022 0.00000000000000044 1.00000000000000000 -0.00000000000000044 5.00000000000000000
1 -1017.00000000000022737 2884.00000000000181899 14.99999999999718625 -0.00000000000000022 -1.00000000000000000 0.00000000000000044 1.00000000000000000 -0.00000000000000022 0.00000000000000044 -0.00000000000000044 0.00000000000000044 1.00000000000000000 
1 -1656.06183403108320817 3626.62000000000170985 -0.00000000000197826 -0.00000000000000044 -1.00000000000000000 0.00000000000000028 -1.00000000000000000 0.00000000000000044 -0.00000000000000022 0.00000000000000022 -0.00000000000000028 -1.00000000000000000 
1 -1857.99999999999931788 3376.62000000021316737 -0.00000000000191208 0.00000000000134706 1.00000000000000000 -0.00000000000000028 1.00000000000000000 -0.00000000000134706 0.00000000000000022 0.00000000000000022 -0.00000000000000028 -1.00000000000000000 
1 -1703.67319696891468084 3376.62000000000534783 -0.00000000000187781 0.36755970767776119 0.92999992542571674 -0.00000000000000009 0.92999992542571674 -0.36755970767776119 0.00000000000000037 0.00000000000000031 -0.00000000000000022 -1.00000000000000000 
1 -1137.00000000000113687 3134.00000000000272848 14.99999999999696598 -0.90152305746827233 -0.43273106758477403 -0.00000000000000041 0.43273106758477403 -0.90152305746827233 0.00000000000000079 -0.00000000000000071 0.00000000000000053 1.00000000000000000 
Triangulations 0

TShapes 99
Ve
0.000000100000000
-887.000000000000682 3134.000000000000000 0.000000000000000
0 0

0101101
*
Ed
 0.000000100000000 1 1 0
1  1 0 0.000000000000000 15.000000000000000
2  1 2 0 0.000000000000000 15.000000000000000
0

0101000
+99 8 -99 10 *
Ve
0.000000100000000
-887.000000000000682 3322.667133796086091 0.000000000000000
0 0

0101101
*
Ed
 0.000000100000000 1 1 0
1  2 0 0.000000000000000 15.000000000000000
0

0101000
+97 8 -97 10 *
Ed
 0.000000100000000 1 1 0
1  3 0 0.000000000000000 188.667133796086091
2  2 3 11 0.000000000000000 188.667133796086091
0

0101000
+99 0 -97 0 *
Wi

0101100
+98 0 -96 0 -95 8 +95 10 *
Fa
0  0.000000100000000 1 0

0111000
+94 0 *
Ve
0.000000100000455
-937.000000000000000 3134.000000000001364 0.000000000000000
0 0

0101101
*
Ed
 0.000000100000000 1 1 0
1  4 0 199.999999999999773 250.000000000000000
2  3 2 13 199.999999999999773 250.000000000000000
2  4 2 14 199.999999999999773 250.000000000000000
2  5 3 11 199.999999999999773 250.000000000000000
0

0101000
+92 18 -99 0 *
Ed
 0.000000100000000 1 1 0
1  4 0 199.999999999999773 250.000000000000000
2  3 2 13 199.999999999999773 250.000000000000000
2  4 2 14 199.999999999999773 250.000000000000000
2  5 3 11 199.999999999999773 250.000000000000000
0

0101000
+92 20 -99 0 *
Ed
 0.000000100000455 1 1 0
1  5 0 0.000000000000000 15.000000000000000
2  6 4 0 0.000000000000000 15.000000000000000
2  7 5 0 0.000000000000000 15.000000000000000
2  8 2 4 0.000000000000000 15.000000000000000
0

0101000
+92 21 -92 22 *
Wi

0101100
-91 12 -98 4 +90 19 -89 0 *
Fa
0  0.000000100000000 2 4

0111000
+88 0 *
Ve
0.000000100000000
-1656.061834031083663 3626.619999999999891 0.000000000000000
0 0

0101101
*
Ed
 0.000000100000000 1 1 0
1  6 0 0.000000000000000 15.000000000000000
0

0101000
+86 8 -86 10 *
Ed
 0.000000100000000 1 1 0
1  7 0 0.000000000000000 826.948274946400375
2  9 3 11 0.000000000000000 826.948274946400375
0

0101000
+97 0 -86 0 *
Wi

0101100
+96 0 -85 0 -84 8 +84 10 *
Fa
0  0.000000100000000 6 0

0111000
+83 0 *
Ve
0.000000100000000
-1857.999999999999545 3626.619999999999891 0.000000000000000
0 0

0101101
*
Ed
 0.000000100000000 1 1 0
1  8 0 0.000000000000000 201.938165968915882
2  10 3 11 0.000000000000000 201.938165968915882
0

0101000
+86 0 -81 0 *
Ve
0.000000100000000
-1857.999999999999545 3376.620000000211348 0.000000000000000
0 0

0101101
*
Ed
 0.000000100000000 1 1 0
1  9 0 0.000000000000000 249.999999999788542
2  11 3 11 0.000000000000000 249.999999999788542
2  12 7 13 0.000000000000000 249.999999999788542
2  13 7 14 0.000000000000000 249.999999999788542
0

0101000
+81 0 -79 0 *
Ve
0.000000100000000
-1703.673196968914908 3376.620000000003529 0.000000000000000
0 0

0101101
*
Ed
 0.000000100000000 1 1 0
1  10 0 0.000000000000000 154.326803031084637
2  14 3 11 0.000000000000000 154.326803031084637
0

0101000
+79 0 -77 0 *
Ve
0.000000100000000
-1137.000000000000682 3152.656288893928831 0.000000000000000
0 0

0101101
*
Ed
 0.000000100000000 1 1 0
1  11 0 0.000000000000000 609.326067106418122
2  15 3 11 0.000000000000000 609.326067106418122
0

0101000
+77 0 -75 0 *
Ve
0.000000100001645
-1137.000000000000682 3134.000000000002274 -0.000000000002861
0 0

0101101
*
Ed
 0.000000100000000 1 1 0
1  12 0 0.000000000000000 18.656288893928831
2  16 8 13 0.000000000000000 18.656288893928831
2  17 8 14 0.000000000000000 18.656288893928831
2  18 3 11 0.000000000000000 18.656288893928831
0

0101000
+75 0 -73 24 *
Ed
 0.000000100000341 1 1 0
1  4 0 0.000000000000000 199.999999999999773
2  3 2 13 0.000000000000000 199.999999999999773
2  4 2 14 0.000000000000000 199.999999999999773
2  5 3 11 0.000000000000000 199.999999999999773
2  19 9 25 0.000000000000000 199.999999999999773
0

0101000
+73 24 -92 18 *
Wi

0101100
+95 12 +84 12 +80 12 +78 12 +76 12 +74 12 +72 12 +71 12 +91 12 *
Ve
0.000000100000000
-972.000000000000682 3290.866700000000037 0.000000000000000
0 0

0101101
*
Ed
 0.000000100000000 1 1 0
1  13 0 0.000000000000000 6.283185307179586
2  20 10 13 0.000000000000000 6.283185307179586
2  21 10 14 0.000000000000000 6.283185307179586
2  22 3 11 0.000000000000000 6.283185307179586
0

0101000
+69 0 -69 0 *
Wi

0101100
-68 12 *
Ve
0.000000100000000
-1315.268010047115013 3290.866699999999582 0.000000000000000
0 0

0101101
*
Ed
 0.000000100000000 1 1 0
1  14 0 0.000000000000000 6.283185307179586
2  23 11 13 0.000000000000000 6.283185307179586
2  24 11 14 0.000000000000000 6.283185307179586
2  25 3 11 0.000000000000000 6.283185307179586
0

0101000
+66 0 -66 0 *
Wi

0101100
-65 12 *
Ve
0.000000100000000
-1432.159299032091894 3472.733399999999619 0.000000000000000
0 0

0101101
*
Ed
 0.000000100000000 1 1 0
1  15 0 0.000000000000000 6.283185307179586
2  26 12 13 0.000000000000000 6.283185307179586
2  27 12 14 0.000000000000000 6.283185307179586
2  28 3 11 0.000000000000000 6.283185307179586
0

0101000
+63 0 -63 0 *
Wi

0101100
-62 12 *
Ve
0.000000100000000
-1758.000000000000682 3472.733399999999619 0.000000000000000
0 0

0101101
*
Ed
 0.000000100000000 1 1 0
1  16 0 0.000000000000000 6.283185307179586
2  29 13 13 0.000000000000000 6.283185307179586
2  30 13 14 0.000000000000000 6.283185307179586
2  31 3 11 0.000000000000000 6.283185307179586
0

0101000
+60 0 -60 0 *
Wi

0101100
-59 12 *
Fa
0  0.000000100000000 3 23

0111000
+70 0 +67 0 +64 0 +61 0 +58 0 *
Ve
0.000000100001645
-1137.000000000000682 3134.000000000002274 14.999999999997142
0 0

0101101
*
Ed
 0.000000100000000 1 1 0
1  12 0 0.000000000000000 18.656288893928831
2  16 8 13 0.000000000000000 18.656288893928831
2  17 8 14 0.000000000000000 18.656288893928831
2  18 3 11 0.000000000000000 18.656288893928831
0

0101000
+75 0 -56 27 *
Ed
 0.000000100000346 1 1 0
1  4 0 0.000000000000000 199.999999999999773
2  3 2 13 0.000000000000000 199.999999999999773
2  4 2 14 0.000000000000000 199.999999999999773
2  5 3 11 0.000000000000000 199.999999999999773
0

0101000
+56 27 -92 20 *
Wi

0101100
+95 19 +84 19 +80 19 +78 19 +76 19 +74 19 +55 19 +54 19 +90 19 *
Wi

0101100
-68 19 *
Wi

0101100
-65 19 *
Wi

0101100
-62 19 *
Wi

0101100
-59 19 *
Fa
0  0.000000100000000 3 26

0111000
+53 0 +52 0 +51 0 +50 0 +49 0 *
Ve
0.000000100000000
-937.000000000000000 2884.000000000001364 0.000000000000000
0 0

0101101
*
Ed
 0.000000100000000 1 1 0
1  17 0 0.000000000000000 15.000000000000000
2  32 5 0 0.000000000000000 15.000000000000000
2  33 14 0 0.000000000000000 15.000000000000000
0

0101000
+47 21 -47 22 *
Ed
 0.000000100000000 1 1 0
1  18 0 0.000000000000000 250.000000000000000
2  34 9 28 0.000000000000000 250.000000000000000
2  35 5 29 0.000000000000000 250.000000000000000
2  36 5 30 0.000000000000000 250.000000000000000
0

0101000
+92 0 -47 0 *
Wi

0101100
+89 0 -46 0 -45 21 +45 22 *
Fa
0  0.000000100000000 5 0

0111000
+44 0 *
Ed
 0.000000100000000 1 1 0
1  19 0 0.000000000000000 15.000000000000000
2  37 7 0 0.000000000000000 15.000000000000000
0

0101000
+81 8 -81 10 *
Wi

0101100
+85 0 -42 0 -80 8 +80 10 *
Fa
0  0.000000100000000 15 0

0111000
+41 0 *
Ed
 0.000000100000000 1 1 0
1  20 0 0.000000000000000 15.000000000000000
2  38 7 0 0.000000000000000 15.000000000000000
0

0101000
+79 8 -79 10 *
Wi

0101100
+42 0 -39 0 -78 8 +78 10 *
Fa
0  0.000000100000000 7 0

0111000
+38 0 *
Ed
 0.000000100000000 1 1 0
1  21 0 0.000000000000000 15.000000000000000
0

0101000
+77 8 -77 10 *
Wi

0101100
+39 0 -36 0 -76 8 +76 10 *
Fa
0  0.000000100000000 16 0

0111000
+35 0 *
Ed
 0.000000100000000 1 1 0
1  22 0 0.000000000000000 15.000000000000000
2  39 8 0 0.000000000000000 15.000000000000000
0

0101000
+75 8 -75 10 *
Wi

0101100
+36 0 -33 0 -74 8 +74 10 *
Fa
0  0.000000100000000 17 0

0111000
+32 0 *
Ed
 0.000000100001137 1 1 0
1  23 0 0.000000000000000 15.000000000000000
2  40 8 0 0.000000000000000 15.000000000000000
2  41 2 0 0.000000000000000 15.000000000000000
0

0101000
+73 31 -56 31 *
Wi

0101100
+33 4 -30 4 -72 12 +55 19 *
Fa
0  0.000000100000000 8 4

0111000
+29 0 *
Ve
0.000000100000000
-1017.000000000000000 2884.000000000001364 0.000000000000000
0 0

0101101
*
Ed
 0.000000100000000 1 1 0
1  24 0 0.000000000000000 277.308492477241316
2  42 18 29 0.000000000000000 277.308492477241316
2  43 18 30 0.000000000000000 277.308492477241316
2  44 9 28 0.000000000000000 277.308492477241316
0

0101000
+73 30 -27 0 *
Ed
 0.000000100000000 1 1 0
1  25 0 0.000000000000000 80.000000000000000
2  45 9 28 0.000000000000000 80.000000000000000
2  46 14 29 0.000000000000000 80.000000000000000
2  47 14 30 0.000000000000000 80.000000000000000
0

0101000
+27 0 -47 0 *
Wi

0101100
-71 12 +26 22 +25 22 -45 22 *
Fa
0  0.000000100000000 9 32

0111000
+24 0 *
Ed
 0.000000100000000 1 1 0
1  26 0 0.000000000000000 15.000000000000000
3  48 49CN 10 0 0.000000000000000 15.000000000000000
0

0101000
+69 8 -69 10 *
Wi

0101100
+22 0 -22 0 -68 8 +68 10 *
Fa
0  0.000000100000000 10 0

0111000
+21 0 *
Ed
 0.000000100000000 1 1 0
1  27 0 0.000000000000000 15.000000000000000
3  50 51CN 11 0 0.000000000000000 15.000000000000000
0

0101000
+66 8 -66 10 *
Wi

0101100
+19 0 -19 0 -65 8 +65 10 *
Fa
0  0.000000100000000 11 0

0111000
+18 0 *
Ed
 0.000000100000000 1 1 0
1  28 0 0.000000000000000 15.000000000000000
3  52 53CN 12 0 0.000000000000000 15.000000000000000
0

0101000
+63 8 -63 10 *
Wi

0101100
+16 0 -16 0 -62 8 +62 10 *
Fa
0  0.000000100000000 12 0

0111000
+15 0 *
Ed
 0.000000100000000 1 1 0
1  29 0 0.000000000000000 15.000000000000000
3  54 55CN 13 0 0.000000000000000 15.000000000000000
0

0101000
+60 8 -60 10 *
Wi

0101100
+13 0 -13 0 -59 8 +59 10 *
Fa
0  0.000000100000000 13 0

0111000
+12 0 *
Ed
 0.000000100000000 1 1 0
1  24 0 0.000000000000000 277.308492477241316
2  42 18 29 0.000000000000000 277.308492477241316
2  43 18 30 0.000000000000000 277.308492477241316
2  44 9 28 0.000000000000000 277.308492477241316
0

0101000
+56 29 -27 0 *
Wi

0101100
-54 19 +10 21 +25 21 -45 21 *
Fa
0  0.000000100000000 9 33

0111000
+9 0 *
Ed
 0.000000100000000 1 1 0
1  30 0 0.000000000000000 15.000000000000000
2  56 18 0 0.000000000000000 15.000000000000000
2  57 14 0 0.000000000000000 15.000000000000000
0

0101000
+27 21 -27 22 *
Wi

0101100
+7 0 -46 0 -25 21 +25 22 *
Fa
0  0.000000100000000 14 0

0111000
+6 0 *
Wi

0101100
-30 4 -7 0 -10 21 +26 22 *
Fa
0  0.000000100000000 18 0

0111000
+4 0 *
Sh

0101100
-93 4 -87 0 -82 4 -57 0 +48 0 -43 0 -40 4 -37 4 -34 4 -31 4 
-28 0 -23 0 +20 4 +17 4 +14 4 +11 4 +8 0 +5 0 +3 0 *
So

0100000
+2 0 *

+1 1 