
CASCADE Topology V1, (c) Matra-Datavision
Locations 76
1
1.000000000000000 0.000000000000000 0.000000000000000 0.000000000000000 
0.000000000000000 -0.000000000000000 -1.000000000000000 0.000000000000000 
0.000000000000000 1.000000000000000 -0.000000000000000 0.000000000000000 
1
1.000000000000000 0.000000000000000 0.000000000000000 0.000000000000000 
0.000000000000000 -0.000000000000000 -1.000000000000000 0.000000000000000 
0.000000000000000 1.000000000000000 -0.000000000000000 0.000000000000000 
1
1.000000000000000 0.000000000000000 0.000000000000000 0.000000000000000 
0.000000000000000 -0.000000000000000 -1.000000000000000 0.000000000000000 
0.000000000000000 1.000000000000000 -0.000000000000000 0.000000000000000 
2  1 -1 2 1 3 -1 0
1
1.000000000000000 0.000000000000000 0.000000000000000 0.000000000000000 
0.000000000000000 1.000000000000000 0.000000000000000 0.000000000000000 
0.000000000000000 0.000000000000000 1.000000000000000 0.000000000000000 
1
0.000000000000000 0.000000000000000 -1.000000000000000 27.000000000000000 
0.000000000000000 -1.000000000000000 0.000000000000000 0.000000000000000 
-1.000000000000000 0.000000000000000 0.000000000000000 0.000000000000000 
2  5 1 6 1 3 -1 0
1
1.000000000000000 0.000000000000000 0.000000000000000 15.000000000000000 
0.000000000000000 1.000000000000000 0.000000000000000 0.000000000000003 
0.000000000000000 0.000000000000000 1.000000000000000 -0.000000000000000 
2  5 1 6 1 3 -1 8 1 0
1
1.000000000000000 0.000000000000000 0.000000000000000 0.000000000000000 
0.000000000000000 -0.000000000000000 -1.000000000000000 0.000000000000000 
0.000000000000000 1.000000000000000 -0.000000000000000 0.000000000000000 
1
0.000000000000000 0.000000000000000 -1.000000000000000 27.000000000000000 
0.000000000000000 -1.000000000000000 0.000000000000000 0.000000000000000 
-1.000000000000000 0.000000000000000 0.000000000000000 0.000000000000000 
1
1.000000000000000 0.000000000000000 0.000000000000000 0.000000000000000 
0.000000000000000 1.000000000000000 0.000000000000000 0.000000000000000 
0.000000000000000 0.000000000000000 1.000000000000000 0.000000000000000 
2  10 1 11 -1 12 -1 0
1
1.000000000000000 0.000000000000000 0.000000000000000 -10.000000000000000 
0.000000000000000 1.000000000000000 0.000000000000000 -0.000000000000002 
0.000000000000000 0.000000000000000 1.000000000000000 0.000000000000000 
2  14 -1 10 1 11 -1 12 -1 0
2  11 -1 12 -1 0
1
1.000000000000000 0.000000000000000 0.000000000000000 0.000000000000000 
0.000000000000000 -0.000000000000000 -1.000000000000000 0.000000000000000 
0.000000000000000 1.000000000000000 -0.000000000000000 0.000000000000000 
1
0.000000000000000 0.000000000000000 -1.000000000000000 27.000000000000000 
0.000000000000000 -1.000000000000000 0.000000000000000 0.000000000000000 
-1.000000000000000 0.000000000000000 0.000000000000000 0.000000000000000 
1
1.000000000000000 0.000000000000000 0.000000000000000 0.000000000000000 
0.000000000000000 1.000000000000000 0.000000000000000 0.000000000000000 
0.000000000000000 0.000000000000000 1.000000000000000 0.000000000000000 
2  17 1 18 -1 19 -1 0
1
1.000000000000000 0.000000000000000 0.000000000000000 -10.000000000000000 
0.000000000000000 1.000000000000000 0.000000000000000 -0.000000000000002 
0.000000000000000 0.000000000000000 1.000000000000000 0.000000000000000 
2  21 -1 17 1 18 -1 19 -1 0
1
1.000000000000000 0.000000000000000 0.000000000000000 0.000000000000000 
0.000000000000000 -0.000000000000000 -1.000000000000000 0.000000000000000 
0.000000000000000 1.000000000000000 -0.000000000000000 0.000000000000000 
1
0.000000000000000 0.000000000000000 -1.000000000000000 27.000000000000000 
0.000000000000000 -1.000000000000000 0.000000000000000 0.000000000000000 
-1.000000000000000 0.000000000000000 0.000000000000000 0.000000000000000 
1
1.000000000000000 0.000000000000000 0.000000000000000 0.000000000000000 
0.000000000000000 1.000000000000000 0.000000000000000 0.000000000000000 
0.000000000000000 0.000000000000000 1.000000000000000 0.000000000000000 
2  23 1 24 -1 25 -1 0
1
1.000000000000000 0.000000000000000 0.000000000000000 10.000000000000000 
0.000000000000000 1.000000000000000 0.000000000000000 0.000000000000002 
0.000000000000000 0.000000000000000 1.000000000000000 -0.000000000000000 
2  27 -1 23 1 24 -1 25 -1 0
2  1 -1 2 1 24 -1 25 -1 0
2  1 -1 2 1 23 -1 27 -1 23 1 24 -1 25 -1 0
1
1.000000000000000 0.000000000000000 0.000000000000000 0.000000000000000 
0.000000000000000 -0.000000000000000 -1.000000000000000 0.000000000000000 
0.000000000000000 1.000000000000000 -0.000000000000000 0.000000000000000 
1
0.000000000000000 0.000000000000000 -1.000000000000000 27.000000000000000 
0.000000000000000 -1.000000000000000 0.000000000000000 0.000000000000000 
-1.000000000000000 0.000000000000000 0.000000000000000 0.000000000000000 
1
1.000000000000000 0.000000000000000 0.000000000000000 0.000000000000000 
0.000000000000000 1.000000000000000 0.000000000000000 0.000000000000000 
0.000000000000000 0.000000000000000 1.000000000000000 0.000000000000000 
2  31 1 32 -1 33 -1 0
1
1.000000000000000 0.000000000000000 0.000000000000000 15.000000000000000 
0.000000000000000 1.000000000000000 0.000000000000000 0.000000000000003 
0.000000000000000 0.000000000000000 1.000000000000000 -0.000000000000000 
2  35 -1 31 1 32 -1 33 -1 0
2  1 -1 2 1 32 -1 33 -1 0
2  1 -1 2 1 31 -1 35 -1 31 1 32 -1 33 -1 0
1
1.000000000000000 0.000000000000000 0.000000000000000 0.000000000000000 
0.000000000000000 -0.000000000000000 -1.000000000000000 0.000000000000000 
0.000000000000000 1.000000000000000 -0.000000000000000 0.000000000000000 
1
0.000000000000000 0.000000000000000 -1.000000000000000 27.000000000000000 
0.000000000000000 -1.000000000000000 0.000000000000000 0.000000000000000 
-1.000000000000000 0.000000000000000 0.000000000000000 0.000000000000000 
1
1.000000000000000 0.000000000000000 0.000000000000000 0.000000000000000 
0.000000000000000 1.000000000000000 0.000000000000000 0.000000000000000 
0.000000000000000 0.000000000000000 1.000000000000000 0.000000000000000 
2  39 1 40 -1 41 -1 0
1
1.000000000000000 0.000000000000000 0.000000000000000 15.000000000000000 
0.000000000000000 1.000000000000000 0.000000000000000 0.000000000000003 
0.000000000000000 0.000000000000000 1.000000000000000 -0.000000000000000 
2  43 -1 39 1 40 -1 41 -1 0
2  1 -1 2 1 40 -1 41 -1 0
2  1 -1 2 1 39 -1 43 -1 39 1 40 -1 41 -1 0
1
1.000000000000000 0.000000000000000 0.000000000000000 0.000000000000000 
0.000000000000000 -0.000000000000000 -1.000000000000000 0.000000000000000 
0.000000000000000 1.000000000000000 -0.000000000000000 0.000000000000000 
1
0.000000000000000 0.000000000000000 -1.000000000000000 27.000000000000000 
0.000000000000000 -1.000000000000000 0.000000000000000 0.000000000000000 
-1.000000000000000 0.000000000000000 0.000000000000000 0.000000000000000 
1
1.000000000000000 0.000000000000000 0.000000000000000 0.000000000000000 
0.000000000000000 1.000000000000000 0.000000000000000 0.000000000000000 
0.000000000000000 0.000000000000000 1.000000000000000 0.000000000000000 
2  47 1 48 -1 49 -1 0
1
1.000000000000000 0.000000000000000 0.000000000000000 -15.000000000000000 
0.000000000000000 1.000000000000000 0.000000000000000 -0.000000000000003 
0.000000000000000 0.000000000000000 1.000000000000000 0.000000000000000 
2  51 -1 47 1 48 -1 49 -1 0
1
1.000000000000000 0.000000000000000 0.000000000000000 0.000000000000000 
0.000000000000000 -0.000000000000000 -1.000000000000000 0.000000000000000 
0.000000000000000 1.000000000000000 -0.000000000000000 0.000000000000000 
1
0.000000000000000 0.000000000000000 -1.000000000000000 27.000000000000000 
0.000000000000000 -1.000000000000000 0.000000000000000 0.000000000000000 
-1.000000000000000 0.000000000000000 0.000000000000000 0.000000000000000 
1
1.000000000000000 0.000000000000000 0.000000000000000 0.000000000000000 
0.000000000000000 1.000000000000000 0.000000000000000 0.000000000000000 
0.000000000000000 0.000000000000000 1.000000000000000 0.000000000000000 
2  53 1 54 -1 55 -1 0
1
1.000000000000000 0.000000000000000 0.000000000000000 15.000000000000000 
0.000000000000000 1.000000000000000 0.000000000000000 0.000000000000003 
0.000000000000000 0.000000000000000 1.000000000000000 -0.000000000000000 
2  57 -1 53 1 54 -1 55 -1 0
2  1 -1 2 1 54 -1 55 -1 0
2  1 -1 2 1 53 -1 57 -1 53 1 54 -1 55 -1 0
1
1.000000000000000 0.000000000000000 0.000000000000000 0.000000000000000 
0.000000000000000 -0.000000000000000 -1.000000000000000 0.000000000000000 
0.000000000000000 1.000000000000000 -0.000000000000000 0.000000000000000 
1
0.000000000000000 0.000000000000000 -1.000000000000000 27.000000000000000 
0.000000000000000 -1.000000000000000 0.000000000000000 0.000000000000000 
-1.000000000000000 0.000000000000000 0.000000000000000 0.000000000000000 
1
1.000000000000000 0.000000000000000 0.000000000000000 0.000000000000000 
0.000000000000000 1.000000000000000 0.000000000000000 0.000000000000000 
0.000000000000000 0.000000000000000 1.000000000000000 0.000000000000000 
2  61 1 62 -1 63 -1 0
1
1.000000000000000 0.000000000000000 0.000000000000000 15.000000000000000 
0.000000000000000 1.000000000000000 0.000000000000000 0.000000000000003 
0.000000000000000 0.000000000000000 1.000000000000000 -0.000000000000000 
2  65 -1 61 1 62 -1 63 -1 0
2  1 -1 2 1 62 -1 63 -1 0
2  1 -1 2 1 61 -1 65 -1 61 1 62 -1 63 -1 0
2  3 1 6 -1 5 -1 0
2  8 -1 3 1 6 -1 5 -1 0
2  1 -1 2 1 6 -1 5 -1 0
2  1 -1 2 1 3 -1 8 -1 3 1 6 -1 5 -1 0
2  3 -1 0
2  11 -1 12 -1 5 1 6 1 0
2  5 1 6 1 0
2  3 -1 8 1 0
Curve2ds 120
1 0.00000000000000000 0.00000000000000000 -0.00000000000000000 -1.00000000000000000 
1 80.00000000000000000 0.00000000000000000 0.00000000000000000 -1.00000000000000000 
1 601.46743751706981129 -1842.74047976412771277 0.00000000000000022 1.00000000000000000 
1 140.00000000000000000 -0.00000000000000089 -0.00000000000000000 -1.00000000000000000 
1 -0.00000000000000000 0.00000000000000000 -0.00000000000000000 -1.00000000000000000 
1 461.46743751706981129 -1842.74047976412771277 0.00000000000000022 1.00000000000000000 
1 0.00000000000000000 0.00000000000000000 1.00000000000000000 -0.00000000000000000 
1 -0.00000000000000222 -10.00000000000000000 1.00000000000000000 -0.00000000000000000 
1 70.00000000000000000 40.00000000000002132 -1.00000000000000000 -0.00000000000000022 
1 0.00000000000000000 0.00000000000000000 1.00000000000000000 -0.00000000000000000 
1 -0.00000000000000222 -10.00000000000000000 1.00000000000000000 -0.00000000000000000 
1 0.00000000000000000 0.00000000000000000 1.00000000000000000 0.00000000000000000 
1 0.00000000000000222 -9.99999999999999645 1.00000000000000000 0.00000000000000000 
1 601.46743751706981129 -1842.74047976412771277 -1.00000000000000000 0.00000000000000022 
1 601.46743751706981129 -1832.74047976412771277 -1.00000000000000000 0.00000000000000022 
1 0.00000000000000000 0.00000000000000000 1.00000000000000000 0.00000000000000000 
1 0.00000000000000333 -14.99999999999999645 1.00000000000000000 0.00000000000000000 
1 601.46743751706981129 -1842.74047976412771277 -1.00000000000000000 0.00000000000000022 
1 601.46743751706981129 -1827.74047976412771277 -1.00000000000000000 0.00000000000000022 
1 0.00000000000000000 0.00000000000000000 1.00000000000000000 0.00000000000000000 
1 0.00000000000000333 -14.99999999999999645 1.00000000000000000 0.00000000000000000 
1 601.46743751706981129 -1842.74047976412771277 -1.00000000000000000 0.00000000000000022 
1 601.46743751706981129 -1827.74047976412771277 -1.00000000000000000 0.00000000000000022 
1 0.00000000000000000 0.00000000000000000 1.00000000000000000 -0.00000000000000000 
1 -0.00000000000000333 -15.00000000000000000 1.00000000000000000 -0.00000000000000000 
1 0.00000000000000000 0.00000000000000000 1.00000000000000000 0.00000000000000000 
1 0.00000000000000333 -14.99999999999999645 1.00000000000000000 0.00000000000000000 
1 601.46743751706981129 -1842.74047976412771277 -1.00000000000000000 0.00000000000000022 
1 601.46743751706981129 -1827.74047976412771277 -1.00000000000000000 0.00000000000000022 
1 0.00000000000000000 0.00000000000000000 1.00000000000000000 0.00000000000000000 
1 0.00000000000000333 -14.99999999999999645 1.00000000000000000 0.00000000000000000 
1 601.46743751706981129 -1842.74047976412771277 -1.00000000000000000 0.00000000000000022 
1 601.46743751706981129 -1827.74047976412771277 -1.00000000000000000 0.00000000000000022 
1 0.00000000000000000 0.00000000000000000 1.00000000000000000 0.00000000000000000 
1 0.00000000000000333 -14.99999999999999645 1.00000000000000000 0.00000000000000000 
1 601.46743751706981129 -1842.74047976412771277 -1.00000000000000000 0.00000000000000022 
1 601.46743751706981129 -1827.74047976412771277 -1.00000000000000000 0.00000000000000022 
1 80.00000000000000000 -0.00000000000000000 -0.00000000000000000 -1.00000000000000000 
1 -0.00000000000000000 0.00000000000000000 1.00000000000000000 0.00000000000000000 
1 0.00000000000000000 -10.00000000000000000 1.00000000000000000 0.00000000000000000 
1 -70.00000000000000000 39.99999999999998579 0.00000000000000022 -1.00000000000000000 
1 -0.00000000000000000 0.00000000000000000 1.00000000000000000 0.00000000000000000 
1 0.00000000000000000 -10.00000000000000000 1.00000000000000000 0.00000000000000000 
1 -0.00000000000000000 0.00000000000000000 1.00000000000000000 0.00000000000000000 
1 0.00000000000000000 -10.00000000000000000 1.00000000000000000 0.00000000000000000 
1 -0.00000000000000000 0.00000000000000000 1.00000000000000000 0.00000000000000000 
1 0.00000000000000000 -15.00000000000000000 1.00000000000000000 0.00000000000000000 
1 -0.00000000000000000 0.00000000000000000 1.00000000000000000 0.00000000000000000 
1 0.00000000000000000 -15.00000000000000000 1.00000000000000000 0.00000000000000000 
1 -0.00000000000000000 0.00000000000000000 1.00000000000000000 0.00000000000000000 
1 0.00000000000000000 -15.00000000000000178 1.00000000000000000 0.00000000000000000 
1 -0.00000000000000000 0.00000000000000000 1.00000000000000000 0.00000000000000000 
1 0.00000000000000000 -15.00000000000000000 1.00000000000000000 0.00000000000000000 
1 -0.00000000000000000 0.00000000000000000 1.00000000000000000 0.00000000000000000 
1 0.00000000000000000 -15.00000000000000000 1.00000000000000000 0.00000000000000000 
1 -0.00000000000000000 0.00000000000000000 1.00000000000000000 0.00000000000000000 
1 0.00000000000000000 -15.00000000000000000 1.00000000000000000 0.00000000000000000 
1 0.00000000000000000 0.00000000000000000 0.00000000000000000 -1.00000000000000000 
1 -70.00000000000000000 -40.00000000000001421 1.00000000000000000 0.00000000000000022 
1 0.00000000000000000 0.00000000000000000 1.00000000000000000 0.00000000000000000 
1 -0.00000000000000000 -10.00000000000000000 1.00000000000000000 0.00000000000000000 
1 70.00000000000000000 -39.99999999999998579 -0.00000000000000022 1.00000000000000000 
1 0.00000000000000000 0.00000000000000000 1.00000000000000000 0.00000000000000000 
1 -0.00000000000000000 -10.00000000000000000 1.00000000000000000 0.00000000000000000 
1 0.00000000000000000 0.00000000000000000 1.00000000000000000 0.00000000000000000 
1 0.00000000000000000 -9.99999999999999645 1.00000000000000000 0.00000000000000000 
1 0.00000000000000000 0.00000000000000000 1.00000000000000000 0.00000000000000000 
1 0.00000000000000000 -14.99999999999999645 1.00000000000000000 0.00000000000000000 
1 0.00000000000000000 0.00000000000000000 1.00000000000000000 0.00000000000000000 
1 0.00000000000000000 -14.99999999999999645 1.00000000000000000 0.00000000000000000 
1 0.00000000000000000 0.00000000000000000 1.00000000000000000 0.00000000000000000 
1 -0.00000000000000000 -15.00000000000000000 1.00000000000000000 0.00000000000000000 
1 0.00000000000000000 0.00000000000000000 1.00000000000000000 0.00000000000000000 
1 0.00000000000000000 -14.99999999999999645 1.00000000000000000 0.00000000000000000 
1 0.00000000000000000 0.00000000000000000 1.00000000000000000 0.00000000000000000 
1 0.00000000000000000 -14.99999999999999645 1.00000000000000000 0.00000000000000000 
1 0.00000000000000000 0.00000000000000000 1.00000000000000000 0.00000000000000000 
1 0.00000000000000000 -14.99999999999999645 1.00000000000000000 0.00000000000000000 
1 0.00000000000000000 0.00000000000000000 0.00000000000000000 -1.00000000000000000 
1 6.28318530717958623 0.00000000000000000 0.00000000000000000 -1.00000000000000000 
1 0.00000000000000000 0.00000000000000000 1.00000000000000000 0.00000000000000000 
1 0.00000000000000000 -10.00000000000000000 1.00000000000000000 0.00000000000000000 
2 30.00000000000000000 0.00000000000000711 -1.00000000000000000 -0.00000000000000022 -0.00000000000000022 1.00000000000000000 5.00000000000000000
1 0.00000000000000000 0.00000000000000000 1.00000000000000000 0.00000000000000000 
1 0.00000000000000000 -10.00000000000000000 1.00000000000000000 0.00000000000000000 
1 0.00000000000000000 0.00000000000000000 1.00000000000000000 0.00000000000000000 
1 0.00000000000000000 -10.00000000000000000 1.00000000000000000 0.00000000000000000 
1 0.00000000000000000 0.00000000000000000 1.00000000000000000 0.00000000000000000 
1 0.00000000000000000 -15.00000000000000000 1.00000000000000000 0.00000000000000000 
1 0.00000000000000000 0.00000000000000000 1.00000000000000000 0.00000000000000000 
1 0.00000000000000000 -15.00000000000000000 1.00000000000000000 0.00000000000000000 
1 0.00000000000000000 0.00000000000000000 1.00000000000000000 0.00000000000000000 
1 0.00000000000000000 -15.00000000000000000 1.00000000000000000 0.00000000000000000 
1 0.00000000000000000 0.00000000000000000 1.00000000000000000 0.00000000000000000 
1 0.00000000000000000 -15.00000000000000000 1.00000000000000000 0.00000000000000000 
1 0.00000000000000000 0.00000000000000000 1.00000000000000000 0.00000000000000000 
1 0.00000000000000000 -15.00000000000000000 1.00000000000000000 0.00000000000000000 
1 0.00000000000000000 0.00000000000000000 1.00000000000000000 0.00000000000000000 
1 0.00000000000000000 -15.00000000000000000 1.00000000000000000 0.00000000000000000 
1 0.00000000000000000 0.00000000000000000 0.00000000000000000 -1.00000000000000000 
1 6.28318530717958623 0.00000000000000000 0.00000000000000000 -1.00000000000000000 
1 0.00000000000000000 0.00000000000000000 1.00000000000000000 0.00000000000000000 
1 0.00000000000000000 -10.00000000000000000 1.00000000000000000 0.00000000000000000 
2 -30.00000000000000000 -0.00000000000000711 -1.00000000000000000 -0.00000000000000022 -0.00000000000000022 1.00000000000000000 5.00000000000000000
1 0.00000000000000000 0.00000000000000000 1.00000000000000000 0.00000000000000000 
1 0.00000000000000000 -10.00000000000000000 1.00000000000000000 0.00000000000000000 
1 0.00000000000000000 0.00000000000000000 1.00000000000000000 0.00000000000000000 
1 0.00000000000000000 -10.00000000000000000 1.00000000000000000 0.00000000000000000 
1 0.00000000000000000 0.00000000000000000 1.00000000000000000 0.00000000000000000 
1 0.00000000000000000 -15.00000000000000000 1.00000000000000000 0.00000000000000000 
1 0.00000000000000000 0.00000000000000000 1.00000000000000000 0.00000000000000000 
1 0.00000000000000000 -15.00000000000000000 1.00000000000000000 0.00000000000000000 
1 0.00000000000000000 0.00000000000000000 1.00000000000000000 0.00000000000000000 
1 0.00000000000000000 -15.00000000000000000 1.00000000000000000 0.00000000000000000 
1 0.00000000000000000 0.00000000000000000 1.00000000000000000 0.00000000000000000 
1 0.00000000000000000 -15.00000000000000000 1.00000000000000000 0.00000000000000000 
1 0.00000000000000000 0.00000000000000000 1.00000000000000000 0.00000000000000000 
1 0.00000000000000000 -15.00000000000000000 1.00000000000000000 0.00000000000000000 
1 0.00000000000000000 0.00000000000000000 1.00000000000000000 0.00000000000000000 
1 0.00000000000000000 -15.00000000000000000 1.00000000000000000 0.00000000000000000 
Curves 12
1 26.99999999999891642 4882.66700000000037107 0.00000000000000000 1.00000000000000000 0.00000000000000022 -0.00000000000000000 
1 26.99999999999894840 4742.66700000000037107 0.00000000000000000 1.00000000000000000 0.00000000000000022 -0.00000000000000000 
1 -4882.66700000000037107 0.00000000000000000 0.00000000000000000 1.00000000000000000 0.00000000000000000 0.00000000000000000 
1 26.99999999999894840 4742.66700000000037107 -80.00000000000000000 1.00000000000000000 0.00000000000000022 -0.00000000000000000 
1 -4742.66700000000037107 0.00000000000000000 0.00000000000000000 0.00000000000000000 -1.00000000000000000 0.00000000000000000 
1 26.99999999999891642 4882.66700000000037107 -80.00000000000000000 1.00000000000000000 0.00000000000000022 -0.00000000000000000 
1 -4742.66700000000037107 -80.00000000000000000 0.00000000000000000 -1.00000000000000000 0.00000000000000000 0.00000000000000000 
1 -4882.66700000000037107 -80.00000000000000000 0.00000000000000000 0.00000000000000000 1.00000000000000000 0.00000000000000000 
1 26.99999999999892708 4837.66700000000037107 -40.00000000000000000 1.00000000000000000 0.00000000000000022 -0.00000000000000000 
2 -4842.66700000000037107 -40.00000000000000000 0.00000000000000000 0.00000000000000000 0.00000000000000000 1.00000000000000000 1.00000000000000000 0.00000000000000000 -0.00000000000000000 -0.00000000000000000 1.00000000000000000 0.00000000000000000 5.00000000000000000
1 26.99999999999893774 4777.66700000000037107 -40.00000000000000000 1.00000000000000000 0.00000000000000022 -0.00000000000000000 
2 -4782.66700000000037107 -40.00000000000000000 0.00000000000000000 0.00000000000000000 0.00000000000000000 1.00000000000000000 1.00000000000000000 0.00000000000000000 -0.00000000000000000 -0.00000000000000000 1.00000000000000000 0.00000000000000000 5.00000000000000000
Polygon3D 0
PolygonOnTriangulations 0
Surfaces 48
1 26.99999999999891642 4882.66700000000037107 0.00000000000000000 -0.00000000000000000 -0.00000000000000000 -1.00000000000000000 0.00000000000000022 -1.00000000000000000 0.00000000000000000 -1.00000000000000000 -0.00000000000000022 0.00000000000000000 
1 26.99999999999891642 4882.66700000000037107 -80.00000000000000000 0.00000000000000022 -1.00000000000000000 0.00000000000000000 0.00000000000000000 0.00000000000000000 1.00000000000000000 -1.00000000000000000 -0.00000000000000022 0.00000000000000000 
1 1869.74047976412657590 -0.00000000000095062 4281.19956248293055978 0.00000000000000000 1.00000000000000000 0.00000000000000022 0.00000000000000000 -0.00000000000000022 1.00000000000000000 1.00000000000000000 0.00000000000000000 -0.00000000000000000 
1 26.99999999999894840 4742.66700000000037107 0.00000000000000000 -0.00000000000000022 1.00000000000000000 -0.00000000000000000 0.00000000000000000 0.00000000000000000 -1.00000000000000000 -1.00000000000000000 -0.00000000000000022 -0.00000000000000000 
1 26.99999999999891642 4882.66700000000037107 0.00000000000000000 0.00000000000000000 0.00000000000000000 1.00000000000000000 0.00000000000000022 -1.00000000000000000 0.00000000000000000 1.00000000000000000 0.00000000000000022 -0.00000000000000000 
1 26.99999999999893063 39.99999999999893419 4812.66700000000037107 1.00000000000000000 0.00000000000000000 0.00000000000000023 -0.00000000000000023 0.00000000000000000 1.00000000000000000 0.00000000000000000 -1.00000000000000000 0.00000000000000000 
1 26.99999999999891642 4882.66700000000037107 0.00000000000000000 0.00000000000000000 0.00000000000000000 1.00000000000000000 0.00000000000000022 -1.00000000000000000 0.00000000000000000 1.00000000000000000 0.00000000000000022 -0.00000000000000000 
1 26.99999999999891642 4882.66700000000037107 0.00000000000000000 -0.00000000000000000 -0.00000000000000000 -1.00000000000000000 0.00000000000000022 -1.00000000000000000 0.00000000000000000 -1.00000000000000000 -0.00000000000000022 0.00000000000000000 
1 26.99999999999891642 4882.66700000000037107 0.00000000000000000 -0.00000000000000000 -0.00000000000000000 -1.00000000000000000 0.00000000000000022 -1.00000000000000000 0.00000000000000000 -1.00000000000000000 -0.00000000000000022 0.00000000000000000 
1 26.99999999999891642 4882.66700000000037107 0.00000000000000000 -0.00000000000000000 -0.00000000000000000 -1.00000000000000000 0.00000000000000022 -1.00000000000000000 0.00000000000000000 -1.00000000000000000 -0.00000000000000022 0.00000000000000000 
1 26.99999999999891642 4882.66700000000037107 0.00000000000000000 0.00000000000000000 0.00000000000000000 1.00000000000000000 0.00000000000000022 -1.00000000000000000 0.00000000000000000 1.00000000000000000 0.00000000000000022 -0.00000000000000000 
1 26.99999999999891642 4882.66700000000037107 0.00000000000000000 -0.00000000000000000 -0.00000000000000000 -1.00000000000000000 0.00000000000000022 -1.00000000000000000 0.00000000000000000 -1.00000000000000000 -0.00000000000000022 0.00000000000000000 
1 26.99999999999891642 4882.66700000000037107 0.00000000000000000 -0.00000000000000000 -0.00000000000000000 -1.00000000000000000 0.00000000000000022 -1.00000000000000000 0.00000000000000000 -1.00000000000000000 -0.00000000000000022 0.00000000000000000 
1 26.99999999999894840 4742.66700000000037107 0.00000000000000000 0.00000000000000022 -1.00000000000000000 0.00000000000000000 0.00000000000000000 -0.00000000000000000 -1.00000000000000000 1.00000000000000000 0.00000000000000022 0.00000000000000000 
1 26.99999999999894840 4742.66700000000037107 0.00000000000000000 0.00000000000000022 -1.00000000000000000 0.00000000000000000 0.00000000000000000 -0.00000000000000000 -1.00000000000000000 1.00000000000000000 0.00000000000000022 0.00000000000000000 
1 26.99999999999894840 4742.66700000000037107 0.00000000000000000 -0.00000000000000022 1.00000000000000000 -0.00000000000000000 0.00000000000000000 0.00000000000000000 -1.00000000000000000 -1.00000000000000000 -0.00000000000000022 -0.00000000000000000 
1 26.99999999999894840 4742.66700000000037107 0.00000000000000000 -0.00000000000000022 1.00000000000000000 -0.00000000000000000 0.00000000000000000 0.00000000000000000 -1.00000000000000000 -1.00000000000000000 -0.00000000000000022 -0.00000000000000000 
1 26.99999999999894840 4742.66700000000037107 0.00000000000000000 -0.00000000000000022 1.00000000000000000 -0.00000000000000000 0.00000000000000000 0.00000000000000000 -1.00000000000000000 -1.00000000000000000 -0.00000000000000022 -0.00000000000000000 
1 26.99999999999894840 4742.66700000000037107 0.00000000000000000 0.00000000000000022 -1.00000000000000000 0.00000000000000000 0.00000000000000000 -0.00000000000000000 -1.00000000000000000 1.00000000000000000 0.00000000000000022 0.00000000000000000 
1 26.99999999999894840 4742.66700000000037107 0.00000000000000000 -0.00000000000000022 1.00000000000000000 -0.00000000000000000 0.00000000000000000 0.00000000000000000 -1.00000000000000000 -1.00000000000000000 -0.00000000000000022 -0.00000000000000000 
1 26.99999999999894840 4742.66700000000037107 0.00000000000000000 -0.00000000000000022 1.00000000000000000 -0.00000000000000000 0.00000000000000000 0.00000000000000000 -1.00000000000000000 -1.00000000000000000 -0.00000000000000022 -0.00000000000000000 
1 26.99999999999894840 4742.66700000000037107 -80.00000000000000000 0.00000000000000000 0.00000000000000000 1.00000000000000000 -0.00000000000000022 1.00000000000000000 0.00000000000000000 -1.00000000000000000 -0.00000000000000022 0.00000000000000000 
1 26.99999999999891642 4882.66700000000037107 -80.00000000000000000 -0.00000000000000022 1.00000000000000000 -0.00000000000000000 0.00000000000000000 0.00000000000000000 1.00000000000000000 1.00000000000000000 0.00000000000000022 -0.00000000000000000 
1 26.99999999999891642 4882.66700000000037107 -80.00000000000000000 -0.00000000000000022 1.00000000000000000 -0.00000000000000000 0.00000000000000000 0.00000000000000000 1.00000000000000000 1.00000000000000000 0.00000000000000022 -0.00000000000000000 
1 26.99999999999891642 4882.66700000000037107 -80.00000000000000000 0.00000000000000022 -1.00000000000000000 0.00000000000000000 0.00000000000000000 0.00000000000000000 1.00000000000000000 -1.00000000000000000 -0.00000000000000022 0.00000000000000000 
1 26.99999999999891642 4882.66700000000037107 -80.00000000000000000 0.00000000000000022 -1.00000000000000000 0.00000000000000000 0.00000000000000000 0.00000000000000000 1.00000000000000000 -1.00000000000000000 -0.00000000000000022 0.00000000000000000 
1 26.99999999999891642 4882.66700000000037107 -80.00000000000000000 0.00000000000000022 -1.00000000000000000 0.00000000000000000 0.00000000000000000 0.00000000000000000 1.00000000000000000 -1.00000000000000000 -0.00000000000000022 0.00000000000000000 
1 26.99999999999891642 4882.66700000000037107 -80.00000000000000000 -0.00000000000000022 1.00000000000000000 -0.00000000000000000 0.00000000000000000 0.00000000000000000 1.00000000000000000 1.00000000000000000 0.00000000000000022 -0.00000000000000000 
1 26.99999999999891642 4882.66700000000037107 -80.00000000000000000 0.00000000000000022 -1.00000000000000000 0.00000000000000000 0.00000000000000000 0.00000000000000000 1.00000000000000000 -1.00000000000000000 -0.00000000000000022 0.00000000000000000 
1 26.99999999999891642 4882.66700000000037107 -80.00000000000000000 0.00000000000000022 -1.00000000000000000 0.00000000000000000 0.00000000000000000 0.00000000000000000 1.00000000000000000 -1.00000000000000000 -0.00000000000000022 0.00000000000000000 
2 26.99999999999892353 4842.66700000000037107 -40.00000000000000000 -1.00000000000000000 -0.00000000000000022 0.00000000000000000 0.00000000000000022 -1.00000000000000000 0.00000000000000000 0.00000000000000000 0.00000000000000000 1.00000000000000000 5.00000000000000000
2 26.99999999999892353 4842.66700000000037107 -40.00000000000000000 1.00000000000000000 0.00000000000000022 -0.00000000000000000 0.00000000000000022 -1.00000000000000000 0.00000000000000000 -0.00000000000000000 0.00000000000000000 1.00000000000000000 5.00000000000000000
2 26.99999999999892353 4842.66700000000037107 -40.00000000000000000 1.00000000000000000 0.00000000000000022 -0.00000000000000000 0.00000000000000022 -1.00000000000000000 0.00000000000000000 -0.00000000000000000 0.00000000000000000 1.00000000000000000 5.00000000000000000
2 26.99999999999892353 4842.66700000000037107 -40.00000000000000000 -1.00000000000000000 -0.00000000000000022 0.00000000000000000 0.00000000000000022 -1.00000000000000000 0.00000000000000000 0.00000000000000000 0.00000000000000000 1.00000000000000000 5.00000000000000000
2 26.99999999999892353 4842.66700000000037107 -40.00000000000000000 -1.00000000000000000 -0.00000000000000022 0.00000000000000000 0.00000000000000022 -1.00000000000000000 0.00000000000000000 0.00000000000000000 0.00000000000000000 1.00000000000000000 5.00000000000000000
2 26.99999999999892353 4842.66700000000037107 -40.00000000000000000 -1.00000000000000000 -0.00000000000000022 0.00000000000000000 0.00000000000000022 -1.00000000000000000 0.00000000000000000 0.00000000000000000 0.00000000000000000 1.00000000000000000 5.00000000000000000
2 26.99999999999892353 4842.66700000000037107 -40.00000000000000000 1.00000000000000000 0.00000000000000022 -0.00000000000000000 0.00000000000000022 -1.00000000000000000 0.00000000000000000 -0.00000000000000000 0.00000000000000000 1.00000000000000000 5.00000000000000000
2 26.99999999999892353 4842.66700000000037107 -40.00000000000000000 -1.00000000000000000 -0.00000000000000022 0.00000000000000000 0.00000000000000022 -1.00000000000000000 0.00000000000000000 0.00000000000000000 0.00000000000000000 1.00000000000000000 5.00000000000000000
2 26.99999999999892353 4842.66700000000037107 -40.00000000000000000 -1.00000000000000000 -0.00000000000000022 0.00000000000000000 0.00000000000000022 -1.00000000000000000 0.00000000000000000 0.00000000000000000 0.00000000000000000 1.00000000000000000 5.00000000000000000
2 26.99999999999893774 4782.66700000000037107 -40.00000000000000000 -1.00000000000000000 -0.00000000000000022 0.00000000000000000 0.00000000000000022 -1.00000000000000000 0.00000000000000000 0.00000000000000000 0.00000000000000000 1.00000000000000000 5.00000000000000000
2 26.99999999999893774 4782.66700000000037107 -40.00000000000000000 1.00000000000000000 0.00000000000000022 -0.00000000000000000 0.00000000000000022 -1.00000000000000000 0.00000000000000000 -0.00000000000000000 0.00000000000000000 1.00000000000000000 5.00000000000000000
2 26.99999999999893774 4782.66700000000037107 -40.00000000000000000 1.00000000000000000 0.00000000000000022 -0.00000000000000000 0.00000000000000022 -1.00000000000000000 0.00000000000000000 -0.00000000000000000 0.00000000000000000 1.00000000000000000 5.00000000000000000
2 26.99999999999893774 4782.66700000000037107 -40.00000000000000000 -1.00000000000000000 -0.00000000000000022 0.00000000000000000 0.00000000000000022 -1.00000000000000000 0.00000000000000000 0.00000000000000000 0.00000000000000000 1.00000000000000000 5.00000000000000000
2 26.99999999999893774 4782.66700000000037107 -40.00000000000000000 -1.00000000000000000 -0.00000000000000022 0.00000000000000000 0.00000000000000022 -1.00000000000000000 0.00000000000000000 0.00000000000000000 0.00000000000000000 1.00000000000000000 5.00000000000000000
2 26.99999999999893774 4782.66700000000037107 -40.00000000000000000 -1.00000000000000000 -0.00000000000000022 0.00000000000000000 0.00000000000000022 -1.00000000000000000 0.00000000000000000 0.00000000000000000 0.00000000000000000 1.00000000000000000 5.00000000000000000
2 26.99999999999893774 4782.66700000000037107 -40.00000000000000000 1.00000000000000000 0.00000000000000022 -0.00000000000000000 0.00000000000000022 -1.00000000000000000 0.00000000000000000 -0.00000000000000000 0.00000000000000000 1.00000000000000000 5.00000000000000000
2 26.99999999999893774 4782.66700000000037107 -40.00000000000000000 -1.00000000000000000 -0.00000000000000022 0.00000000000000000 0.00000000000000022 -1.00000000000000000 0.00000000000000000 0.00000000000000000 0.00000000000000000 1.00000000000000000 5.00000000000000000
2 26.99999999999893774 4782.66700000000037107 -40.00000000000000000 -1.00000000000000000 -0.00000000000000022 0.00000000000000000 0.00000000000000022 -1.00000000000000000 0.00000000000000000 0.00000000000000000 0.00000000000000000 1.00000000000000000 5.00000000000000000
Triangulations 0

TShapes 36
Ve
0.000000100002160
-4882.667000000000371 0.000000000000000 0.000000000000000
0 0

0101101
*
Ed
 0.000000100002160 1 1 0
1  1 0 0.000000000000000 15.000000000000000
2  1 1 0 0.000000000000000 15.000000000000000
2  2 2 0 0.000000000000000 15.000000000000000
2  3 3 4 0.000000000000000 15.000000000000000
0

0101000
+36 7 -36 9 *
Ve
0.000000100002160
-4742.667000000000371 0.000000000000000 0.000000000000000
0 0

0101101
*
Ed
 0.000000100002160 1 1 0
1  2 0 0.000000000000000 15.000000000000000
2  4 1 0 0.000000000000000 15.000000000000000
2  5 4 0 0.000000000000000 15.000000000000000
2  6 3 4 0.000000000000000 15.000000000000000
0

0101000
+34 7 -34 9 *
Ed
 0.000000100001080 1 1 0
1  3 0 0.000000000000000 140.000000000000000
2  7 5 13 0.000000000000000 140.000000000000000
2  8 5 15 0.000000000000000 140.000000000000000
2  9 6 16 0.000000000000000 140.000000000000000
2  10 7 20 0.000000000000000 140.000000000000000
2  11 7 22 0.000000000000000 140.000000000000000
2  12 8 26 0.000000000000000 140.000000000000000
2  13 8 28 0.000000000000000 140.000000000000000
2  14 3 29 0.000000000000000 140.000000000000000
2  15 3 30 0.000000000000000 140.000000000000000
2  16 9 34 0.000000000000000 140.000000000000000
2  17 9 36 0.000000000000000 140.000000000000000
2  18 3 37 0.000000000000000 140.000000000000000
2  19 3 38 0.000000000000000 140.000000000000000
2  20 10 42 0.000000000000000 140.000000000000000
2  21 10 44 0.000000000000000 140.000000000000000
2  22 3 45 0.000000000000000 140.000000000000000
2  23 3 46 0.000000000000000 140.000000000000000
2  24 11 50 0.000000000000000 140.000000000000000
2  25 11 52 0.000000000000000 140.000000000000000
2  26 12 56 0.000000000000000 140.000000000000000
2  27 12 58 0.000000000000000 140.000000000000000
2  28 3 59 0.000000000000000 140.000000000000000
2  29 3 60 0.000000000000000 140.000000000000000
2  30 13 64 0.000000000000000 140.000000000000000
2  31 13 66 0.000000000000000 140.000000000000000
2  32 3 67 0.000000000000000 140.000000000000000
2  33 3 68 0.000000000000000 140.000000000000000
2  34 1 69 0.000000000000000 140.000000000000000
2  35 1 70 0.000000000000000 140.000000000000000
2  36 3 71 0.000000000000000 140.000000000000000
2  37 3 72 0.000000000000000 140.000000000000000
0

0101000
+36 0 -34 0 *
Wi

0101100
+35 0 -33 0 -32 7 +32 9 *
Fa
0  0.000000100001080 1 0

0111000
+31 0 *
Ve
0.000000100001080
-4742.667000000000371 -80.000000000000000 0.000000000000000
0 0

0101101
*
Ed
 0.000000100001080 1 1 0
1  4 0 0.000000000000000 15.000000000000000
2  38 4 0 0.000000000000000 15.000000000000000
0

0101000
+29 7 -29 9 *
Ed
 0.000000100001080 1 1 0
1  5 0 0.000000000000000 80.000000000000000
2  39 14 13 0.000000000000000 80.000000000000000
2  40 14 15 0.000000000000000 80.000000000000000
2  41 6 16 0.000000000000000 80.000000000000000
2  42 15 20 0.000000000000000 80.000000000000000
2  43 15 22 0.000000000000000 80.000000000000000
2  44 16 26 0.000000000000000 80.000000000000000
2  45 16 28 0.000000000000000 80.000000000000000
2  46 17 34 0.000000000000000 80.000000000000000
2  47 17 36 0.000000000000000 80.000000000000000
2  48 18 42 0.000000000000000 80.000000000000000
2  49 18 44 0.000000000000000 80.000000000000000
2  50 19 50 0.000000000000000 80.000000000000000
2  51 19 52 0.000000000000000 80.000000000000000
2  52 20 56 0.000000000000000 80.000000000000000
2  53 20 58 0.000000000000000 80.000000000000000
2  54 21 64 0.000000000000000 80.000000000000000
2  55 21 66 0.000000000000000 80.000000000000000
2  56 4 69 0.000000000000000 80.000000000000000
2  57 4 70 0.000000000000000 80.000000000000000
0

0101000
+34 0 -29 0 *
Wi

0101100
+33 0 -28 0 -27 7 +27 9 *
Fa
0  0.000000100001080 4 0

0111000
+26 0 *
Ve
0.000000100001080
-4882.667000000000371 -80.000000000000000 0.000000000000000
0 0

0101101
*
Ed
 0.000000100001080 1 1 0
1  6 0 0.000000000000000 15.000000000000000
2  58 2 0 0.000000000000000 15.000000000000000
0

0101000
+24 7 -24 9 *
Ed
 0.000000100001080 1 1 0
1  7 0 0.000000000000000 140.000000000000000
2  59 6 16 0.000000000000000 140.000000000000000
0

0101000
+29 0 -24 0 *
Wi

0101100
+28 0 -23 0 -22 7 +22 9 *
Fa
0  0.000000100001080 22 0

0111000
+21 0 *
Ed
 0.000000100001080 1 1 0
1  8 0 0.000000000000000 80.000000000000000
2  60 23 13 0.000000000000000 80.000000000000000
2  61 23 15 0.000000000000000 80.000000000000000
2  62 6 16 0.000000000000000 80.000000000000000
2  63 24 20 0.000000000000000 80.000000000000000
2  64 24 22 0.000000000000000 80.000000000000000
2  65 25 26 0.000000000000000 80.000000000000000
2  66 25 28 0.000000000000000 80.000000000000000
2  67 26 34 0.000000000000000 80.000000000000000
2  68 26 36 0.000000000000000 80.000000000000000
2  69 27 42 0.000000000000000 80.000000000000000
2  70 27 44 0.000000000000000 80.000000000000000
2  71 28 50 0.000000000000000 80.000000000000000
2  72 28 52 0.000000000000000 80.000000000000000
2  73 29 56 0.000000000000000 80.000000000000000
2  74 29 58 0.000000000000000 80.000000000000000
2  75 30 64 0.000000000000000 80.000000000000000
2  76 30 66 0.000000000000000 80.000000000000000
2  77 2 69 0.000000000000000 80.000000000000000
2  78 2 70 0.000000000000000 80.000000000000000
0

0101000
+24 0 -36 0 *
Wi

0101100
+23 0 -35 0 -19 7 +19 9 *
Fa
0  0.000000100001080 2 0

0111000
+18 0 *
Ve
0.000000100001080
-4837.667000000000371 -40.000000000000000 0.000000000000000
0 0

0101101
*
Ed
 0.000000100001080 1 1 0
1  9 0 0.000000000000000 15.000000000000000
3  79 80CN 31 0 0.000000000000000 15.000000000000000
0

0101000
+16 7 -16 9 *
Ed
 0.000000100001080 1 1 0
1  10 0 0.000000000000000 6.283185307179586
2  81 32 13 0.000000000000000 6.283185307179586
2  82 32 15 0.000000000000000 6.283185307179586
2  83 6 16 0.000000000000000 6.283185307179586
2  84 33 20 0.000000000000000 6.283185307179586
2  85 33 22 0.000000000000000 6.283185307179586
2  86 34 26 0.000000000000000 6.283185307179586
2  87 34 28 0.000000000000000 6.283185307179586
2  88 35 34 0.000000000000000 6.283185307179586
2  89 35 36 0.000000000000000 6.283185307179586
2  90 36 42 0.000000000000000 6.283185307179586
2  91 36 44 0.000000000000000 6.283185307179586
2  92 37 50 0.000000000000000 6.283185307179586
2  93 37 52 0.000000000000000 6.283185307179586
2  94 38 56 0.000000000000000 6.283185307179586
2  95 38 58 0.000000000000000 6.283185307179586
2  96 39 64 0.000000000000000 6.283185307179586
2  97 39 66 0.000000000000000 6.283185307179586
2  98 31 69 0.000000000000000 6.283185307179586
2  99 31 70 0.000000000000000 6.283185307179586
0

0101000
+16 0 -16 0 *
Wi

0101100
+15 0 -15 0 -14 7 +14 9 *
Fa
0  0.000000100001080 31 0

0111000
+13 0 *
Ve
0.000000100001080
-4777.667000000000371 -40.000000000000000 0.000000000000000
0 0

0101101
*
Ed
 0.000000100001080 1 1 0
1  11 0 0.000000000000000 15.000000000000000
3  100 101CN 40 0 0.000000000000000 15.000000000000000
0

0101000
+11 7 -11 9 *
Ed
 0.000000100001080 1 1 0
1  12 0 0.000000000000000 6.283185307179586
2  102 41 13 0.000000000000000 6.283185307179586
2  103 41 15 0.000000000000000 6.283185307179586
2  104 6 16 0.000000000000000 6.283185307179586
2  105 42 20 0.000000000000000 6.283185307179586
2  106 42 22 0.000000000000000 6.283185307179586
2  107 43 26 0.000000000000000 6.283185307179586
2  108 43 28 0.000000000000000 6.283185307179586
2  109 44 34 0.000000000000000 6.283185307179586
2  110 44 36 0.000000000000000 6.283185307179586
2  111 45 42 0.000000000000000 6.283185307179586
2  112 45 44 0.000000000000000 6.283185307179586
2  113 46 50 0.000000000000000 6.283185307179586
2  114 46 52 0.000000000000000 6.283185307179586
2  115 47 56 0.000000000000000 6.283185307179586
2  116 47 58 0.000000000000000 6.283185307179586
2  117 48 64 0.000000000000000 6.283185307179586
2  118 48 66 0.000000000000000 6.283185307179586
2  119 40 69 0.000000000000000 6.283185307179586
2  120 40 70 0.000000000000000 6.283185307179586
0

0101000
+11 0 -11 0 *
Wi

0101100
+10 0 -10 0 -9 7 +9 9 *
Fa
0  0.000000100001080 40 0

0111000
+8 0 *
Wi

0101100
+32 0 +27 0 +22 0 +19 0 *
Wi

0101100
+14 0 *
Wi

0101100
+9 0 *
Fa
0  0.000000100001080 6 74

0111000
+6 75 +5 75 +4 75 *
Sh

0101100
+30 0 +25 0 +20 0 +17 0 +12 0 +7 0 +3 73 -3 76 *
So

0100000
-2 0 *

+1 0 