
CASCADE Topology V1, (c) Matra-Datavision
Locations 56
1
1.000000000000000 0.000000000000000 0.000000000000000 0.000000000000000 
0.000000000000000 1.000000000000000 0.000000000000000 0.000000000000000 
0.000000000000000 0.000000000000000 1.000000000000000 0.000000000000000 
1
0.000000000000000 1.000000000000000 0.000000000000000 -0.000000000000000 
1.000000000000000 -0.000000000000000 -0.000000000000000 0.000000000000000 
-0.000000000000000 0.000000000000000 -1.000000000000000 0.000000000000005 
1
0.000000000000000 0.000000000000000 1.000000000000000 0.000000000000000 
1.000000000000000 0.000000000000000 0.000000000000000 0.000000000000000 
0.000000000000000 1.000000000000000 0.000000000000000 0.000000000000000 
2  1 1 2 1 3 -1 0
1
1.000000000000000 0.000000000000000 0.000000000000000 0.000000000000007 
0.000000000000000 1.000000000000000 0.000000000000000 15.000000000000000 
0.000000000000000 0.000000000000000 1.000000000000000 -0.000000000000004 
2  1 1 2 1 3 -1 5 1 0
1
0.000000000000000 0.000000000000000 1.000000000000000 0.000000000000000 
1.000000000000000 0.000000000000000 0.000000000000000 0.000000000000000 
0.000000000000000 1.000000000000000 0.000000000000000 0.000000000000000 
1
0.000000000000000 1.000000000000000 0.000000000000000 -0.000000000000000 
1.000000000000000 -0.000000000000000 -0.000000000000000 0.000000000000000 
-0.000000000000000 0.000000000000000 -1.000000000000000 0.000000000000005 
1
1.000000000000000 0.000000000000000 0.000000000000000 0.000000000000000 
0.000000000000000 1.000000000000000 0.000000000000000 0.000000000000000 
0.000000000000000 0.000000000000000 1.000000000000000 0.000000000000000 
2  7 1 8 -1 9 -1 0
1
1.000000000000000 0.000000000000000 0.000000000000000 -0.000000000000005 
0.000000000000000 1.000000000000000 0.000000000000000 -10.000000000000000 
0.000000000000000 0.000000000000000 1.000000000000000 0.000000000000003 
2  11 -1 7 1 8 -1 9 -1 0
2  8 -1 9 -1 0
1
0.000000000000000 0.000000000000000 1.000000000000000 0.000000000000000 
1.000000000000000 0.000000000000000 0.000000000000000 0.000000000000000 
0.000000000000000 1.000000000000000 0.000000000000000 0.000000000000000 
1
0.000000000000000 1.000000000000000 0.000000000000000 -0.000000000000000 
1.000000000000000 -0.000000000000000 -0.000000000000000 0.000000000000000 
-0.000000000000000 0.000000000000000 -1.000000000000000 0.000000000000005 
1
1.000000000000000 0.000000000000000 0.000000000000000 0.000000000000000 
0.000000000000000 1.000000000000000 0.000000000000000 0.000000000000000 
0.000000000000000 0.000000000000000 1.000000000000000 0.000000000000000 
2  14 1 15 -1 16 -1 0
1
1.000000000000000 0.000000000000000 0.000000000000000 -0.000000000000005 
0.000000000000000 1.000000000000000 0.000000000000000 -10.000000000000000 
0.000000000000000 0.000000000000000 1.000000000000000 0.000000000000003 
2  18 -1 14 1 15 -1 16 -1 0
1
0.000000000000000 0.000000000000000 1.000000000000000 0.000000000000000 
1.000000000000000 0.000000000000000 0.000000000000000 0.000000000000000 
0.000000000000000 1.000000000000000 0.000000000000000 0.000000000000000 
1
0.000000000000000 1.000000000000000 0.000000000000000 -0.000000000000000 
1.000000000000000 -0.000000000000000 -0.000000000000000 0.000000000000000 
-0.000000000000000 0.000000000000000 -1.000000000000000 0.000000000000005 
1
1.000000000000000 0.000000000000000 0.000000000000000 0.000000000000000 
0.000000000000000 1.000000000000000 0.000000000000000 0.000000000000000 
0.000000000000000 0.000000000000000 1.000000000000000 0.000000000000000 
2  20 1 21 -1 22 -1 0
1
1.000000000000000 0.000000000000000 0.000000000000000 0.000000000000005 
0.000000000000000 1.000000000000000 0.000000000000000 10.000000000000000 
0.000000000000000 0.000000000000000 1.000000000000000 -0.000000000000003 
2  24 -1 20 1 21 -1 22 -1 0
1
-0.000000000000000 0.000000000000000 1.000000000000000 0.000000000000000 
1.000000000000000 -0.000000000000000 0.000000000000000 0.000000000000000 
0.000000000000000 1.000000000000000 -0.000000000000000 0.000000000000000 
1
0.000000000000000 0.000000000000000 1.000000000000000 0.000000000000000 
1.000000000000000 0.000000000000000 0.000000000000000 0.000000000000000 
0.000000000000000 1.000000000000000 0.000000000000000 0.000000000000000 
2  26 -1 27 1 20 -1 24 -1 20 1 21 -1 22 -1 0
1
0.000000000000000 0.000000000000000 1.000000000000000 0.000000000000000 
1.000000000000000 0.000000000000000 0.000000000000000 0.000000000000000 
0.000000000000000 1.000000000000000 0.000000000000000 0.000000000000000 
1
0.000000000000000 1.000000000000000 0.000000000000000 -0.000000000000000 
1.000000000000000 -0.000000000000000 -0.000000000000000 0.000000000000000 
-0.000000000000000 0.000000000000000 -1.000000000000000 0.000000000000005 
1
1.000000000000000 0.000000000000000 0.000000000000000 0.000000000000000 
0.000000000000000 1.000000000000000 0.000000000000000 0.000000000000000 
0.000000000000000 0.000000000000000 1.000000000000000 0.000000000000000 
2  29 1 30 -1 31 -1 0
1
1.000000000000000 0.000000000000000 0.000000000000000 0.000000000000007 
0.000000000000000 1.000000000000000 0.000000000000000 15.000000000000000 
0.000000000000000 0.000000000000000 1.000000000000000 -0.000000000000004 
2  33 -1 29 1 30 -1 31 -1 0
2  26 -1 27 1 29 -1 33 -1 29 1 30 -1 31 -1 0
1
0.000000000000000 0.000000000000000 1.000000000000000 0.000000000000000 
1.000000000000000 0.000000000000000 0.000000000000000 0.000000000000000 
0.000000000000000 1.000000000000000 0.000000000000000 0.000000000000000 
1
0.000000000000000 1.000000000000000 0.000000000000000 -0.000000000000000 
1.000000000000000 -0.000000000000000 -0.000000000000000 0.000000000000000 
-0.000000000000000 0.000000000000000 -1.000000000000000 0.000000000000005 
1
1.000000000000000 0.000000000000000 0.000000000000000 0.000000000000000 
0.000000000000000 1.000000000000000 0.000000000000000 0.000000000000000 
0.000000000000000 0.000000000000000 1.000000000000000 0.000000000000000 
2  36 1 37 -1 38 -1 0
1
1.000000000000000 0.000000000000000 0.000000000000000 0.000000000000007 
0.000000000000000 1.000000000000000 0.000000000000000 15.000000000000000 
0.000000000000000 0.000000000000000 1.000000000000000 -0.000000000000004 
2  40 -1 36 1 37 -1 38 -1 0
2  26 -1 27 1 36 -1 40 -1 36 1 37 -1 38 -1 0
1
0.000000000000000 0.000000000000000 1.000000000000000 0.000000000000000 
1.000000000000000 0.000000000000000 0.000000000000000 0.000000000000000 
0.000000000000000 1.000000000000000 0.000000000000000 0.000000000000000 
1
0.000000000000000 1.000000000000000 0.000000000000000 -0.000000000000000 
1.000000000000000 -0.000000000000000 -0.000000000000000 0.000000000000000 
-0.000000000000000 0.000000000000000 -1.000000000000000 0.000000000000005 
1
1.000000000000000 0.000000000000000 0.000000000000000 0.000000000000000 
0.000000000000000 1.000000000000000 0.000000000000000 0.000000000000000 
0.000000000000000 0.000000000000000 1.000000000000000 0.000000000000000 
2  43 1 44 -1 45 -1 0
1
1.000000000000000 0.000000000000000 0.000000000000000 0.000000000000007 
0.000000000000000 1.000000000000000 0.000000000000000 15.000000000000000 
0.000000000000000 0.000000000000000 1.000000000000000 -0.000000000000004 
2  47 -1 43 1 44 -1 45 -1 0
2  26 -1 27 1 43 -1 47 -1 43 1 44 -1 45 -1 0
2  3 1 2 -1 1 -1 0
2  5 -1 3 1 2 -1 1 -1 0
2  26 -1 27 1 3 -1 5 -1 3 1 2 -1 1 -1 0
2  3 -1 0
2  8 -1 9 -1 1 1 2 1 0
2  1 1 2 1 0
2  3 -1 5 1 0
Curve2ds 91
1 0.00000000000000000 0.00000000000000000 -0.00000000000000006 -1.00000000000000000 
1 80.00000000000000000 -0.00000000000000000 0.00000000000000006 -1.00000000000000000 
1 249.99999999999988631 0.00000000000000000 -0.00000000000000006 -1.00000000000000000 
1 0.00000000000000000 0.00000000000000000 -0.00000000000000006 -1.00000000000000000 
1 0.00000000000000000 0.00000000000000000 1.00000000000000000 -0.00000000000000000 
1 -0.00000000000000440 -10.00000000000000000 1.00000000000000000 -0.00000000000000000 
1 -124.99999999999988631 -40.00000000000002132 1.00000000000000000 0.00000000000000022 
1 0.00000000000000000 0.00000000000000000 1.00000000000000000 -0.00000000000000000 
1 -0.00000000000000440 -10.00000000000000000 1.00000000000000000 -0.00000000000000000 
1 0.00000000000000000 0.00000000000000000 1.00000000000000000 0.00000000000000000 
1 0.00000000000000440 -10.00000000000000000 1.00000000000000000 0.00000000000000000 
1 -276.86941964372340408 -400.71577261951313176 0.00000000000000038 1.00000000000000000 
1 0.00000000000000000 0.00000000000000000 1.00000000000000000 0.00000000000000000 
1 0.00000000000000660 -15.00000000000000000 1.00000000000000000 0.00000000000000000 
1 -271.86941964372340408 -400.71577261951313176 0.00000000000000038 1.00000000000000000 
1 0.00000000000000000 0.00000000000000000 1.00000000000000000 0.00000000000000000 
1 0.00000000000000660 -15.00000000000000000 1.00000000000000000 0.00000000000000000 
1 -271.86941964372340408 -400.71577261951313176 0.00000000000000038 1.00000000000000000 
1 0.00000000000000000 0.00000000000000000 1.00000000000000000 0.00000000000000000 
1 0.00000000000000660 -15.00000000000000000 1.00000000000000000 0.00000000000000000 
1 -271.86941964372340408 -400.71577261951313176 0.00000000000000038 1.00000000000000000 
1 0.00000000000000000 0.00000000000000000 1.00000000000000000 0.00000000000000000 
1 0.00000000000000660 -15.00000000000000000 1.00000000000000000 0.00000000000000000 
1 -271.86941964372340408 -400.71577261951313176 0.00000000000000038 1.00000000000000000 
1 80.00000000000000000 -0.00000000000000000 -0.00000000000000006 -1.00000000000000000 
1 125.00000000000000000 -39.99999999999997158 -0.00000000000000022 1.00000000000000000 
1 0.00000000000000000 0.00000000000000000 1.00000000000000000 0.00000000000000000 
1 0.00000000000000056 -10.00000000000000000 1.00000000000000000 0.00000000000000000 
1 0.00000000000000000 0.00000000000000000 1.00000000000000000 0.00000000000000000 
1 0.00000000000000056 -10.00000000000000000 1.00000000000000000 0.00000000000000000 
1 0.00000000000000000 0.00000000000000000 1.00000000000000000 0.00000000000000000 
1 -0.00000000000000056 -10.00000000000000000 1.00000000000000000 0.00000000000000000 
1 0.00000000000000000 0.00000000000000000 1.00000000000000000 0.00000000000000000 
1 -0.00000000000000083 -15.00000000000000000 1.00000000000000000 0.00000000000000000 
1 0.00000000000000000 0.00000000000000000 1.00000000000000000 0.00000000000000000 
1 -0.00000000000000083 -15.00000000000000000 1.00000000000000000 0.00000000000000000 
1 0.00000000000000000 0.00000000000000000 1.00000000000000000 0.00000000000000000 
1 -0.00000000000000083 -15.00000000000000000 1.00000000000000000 0.00000000000000000 
1 0.00000000000000000 0.00000000000000000 1.00000000000000000 0.00000000000000000 
1 -0.00000000000000083 -15.00000000000000000 1.00000000000000000 0.00000000000000000 
1 0.00000000000000000 0.00000000000000000 0.00000000000000006 -1.00000000000000000 
1 125.00000000000000000 40.00000000000003553 -1.00000000000000000 -0.00000000000000022 
1 0.00000000000000000 0.00000000000000000 1.00000000000000000 0.00000000000000000 
1 -0.00000000000000336 -10.00000000000000000 1.00000000000000000 0.00000000000000000 
1 -124.99999999999988631 39.99999999999997868 0.00000000000000022 -1.00000000000000000 
1 0.00000000000000000 0.00000000000000000 1.00000000000000000 0.00000000000000000 
1 -0.00000000000000336 -10.00000000000000000 1.00000000000000000 0.00000000000000000 
1 0.00000000000000000 0.00000000000000000 1.00000000000000000 0.00000000000000000 
1 0.00000000000000336 -10.00000000000000000 1.00000000000000000 0.00000000000000000 
1 0.00000000000000000 0.00000000000000000 1.00000000000000000 0.00000000000000000 
1 0.00000000000000503 -15.00000000000000000 1.00000000000000000 0.00000000000000000 
1 0.00000000000000000 0.00000000000000000 1.00000000000000000 0.00000000000000000 
1 0.00000000000000503 -15.00000000000000000 1.00000000000000000 0.00000000000000000 
1 0.00000000000000000 0.00000000000000000 1.00000000000000000 0.00000000000000000 
1 0.00000000000000503 -15.00000000000000000 1.00000000000000000 0.00000000000000000 
1 0.00000000000000000 0.00000000000000000 1.00000000000000000 0.00000000000000000 
1 0.00000000000000503 -15.00000000000000000 1.00000000000000000 0.00000000000000000 
1 0.00000000000000000 0.00000000000000000 0.00000000000000000 -1.00000000000000000 
1 6.28318530717958623 0.00000000000000000 0.00000000000000000 -1.00000000000000000 
1 0.00000000000000000 0.00000000000000000 1.00000000000000000 0.00000000000000000 
1 0.00000000000000000 -10.00000000000000000 1.00000000000000000 0.00000000000000000 
2 -85.00000000000000000 -0.00000000000001421 -1.00000000000000000 -0.00000000000000022 0.00000000000000022 -1.00000000000000000 5.00000000000000000
1 0.00000000000000000 0.00000000000000000 1.00000000000000000 0.00000000000000000 
1 0.00000000000000000 -10.00000000000000000 1.00000000000000000 0.00000000000000000 
1 0.00000000000000000 0.00000000000000000 1.00000000000000000 0.00000000000000000 
1 0.00000000000000000 -10.00000000000000000 1.00000000000000000 0.00000000000000000 
1 0.00000000000000000 0.00000000000000000 1.00000000000000000 0.00000000000000000 
1 0.00000000000000000 -15.00000000000000000 1.00000000000000000 0.00000000000000000 
1 0.00000000000000000 0.00000000000000000 1.00000000000000000 0.00000000000000000 
1 0.00000000000000000 -15.00000000000000000 1.00000000000000000 0.00000000000000000 
1 0.00000000000000000 0.00000000000000000 1.00000000000000000 0.00000000000000000 
1 0.00000000000000000 -15.00000000000000000 1.00000000000000000 0.00000000000000000 
1 0.00000000000000000 0.00000000000000000 1.00000000000000000 0.00000000000000000 
1 0.00000000000000000 -15.00000000000000000 1.00000000000000000 0.00000000000000000 
1 0.00000000000000000 0.00000000000000000 0.00000000000000000 -1.00000000000000000 
1 6.28318530717958623 0.00000000000000000 0.00000000000000000 -1.00000000000000000 
1 0.00000000000000000 0.00000000000000000 1.00000000000000000 0.00000000000000000 
1 0.00000000000000000 -10.00000000000000000 1.00000000000000000 0.00000000000000000 
2 85.00000000000000000 0.00000000000002132 -1.00000000000000000 -0.00000000000000022 0.00000000000000022 -1.00000000000000000 5.00000000000000000
1 0.00000000000000000 0.00000000000000000 1.00000000000000000 0.00000000000000000 
1 0.00000000000000000 -10.00000000000000000 1.00000000000000000 0.00000000000000000 
1 0.00000000000000000 0.00000000000000000 1.00000000000000000 0.00000000000000000 
1 0.00000000000000000 -10.00000000000000000 1.00000000000000000 0.00000000000000000 
1 0.00000000000000000 0.00000000000000000 1.00000000000000000 0.00000000000000000 
1 0.00000000000000000 -15.00000000000000000 1.00000000000000000 0.00000000000000000 
1 0.00000000000000000 0.00000000000000000 1.00000000000000000 0.00000000000000000 
1 0.00000000000000000 -15.00000000000000000 1.00000000000000000 0.00000000000000000 
1 0.00000000000000000 0.00000000000000000 1.00000000000000000 0.00000000000000000 
1 0.00000000000000000 -15.00000000000000000 1.00000000000000000 0.00000000000000000 
1 0.00000000000000000 0.00000000000000000 1.00000000000000000 0.00000000000000000 
1 0.00000000000000000 -15.00000000000000000 1.00000000000000000 0.00000000000000000 
Curves 12
1 -1010.00000000000011369 0.00000000000044955 -0.00000000000005296 0.00000000000000050 1.00000000000000000 -0.00000000000000028 
1 -1260.00000000000000000 0.00000000000055955 -0.00000000000012235 0.00000000000000050 1.00000000000000000 -0.00000000000000028 
1 -1010.00000000000011369 0.00000000000022737 0.00000000000000000 -1.00000000000000000 0.00000000000000000 0.00000000000000000 
1 -1260.00000000000000000 0.00000000000053271 -80.00000000000012790 0.00000000000000050 1.00000000000000000 -0.00000000000000028 
1 -1260.00000000000000000 0.00000000000022737 0.00000000000000000 0.00000000000000000 -1.00000000000000000 0.00000000000000000 
1 -1010.00000000000011369 0.00000000000042271 -80.00000000000005684 0.00000000000000050 1.00000000000000000 -0.00000000000000028 
1 -1260.00000000000000000 -79.99999999999977263 0.00000000000000000 1.00000000000000000 0.00000000000000000 0.00000000000000000 
1 -1010.00000000000011369 -79.99999999999977263 0.00000000000000000 0.00000000000000000 1.00000000000000000 0.00000000000000000 
1 -1045.00000000000000000 0.00000000000045153 -40.00000000000006395 0.00000000000000050 1.00000000000000000 -0.00000000000000028 
2 -1050.00000000000000000 -39.99999999999977263 0.00000000000000000 0.00000000000000000 0.00000000000000000 1.00000000000000000 1.00000000000000000 0.00000000000000000 -0.00000000000000000 -0.00000000000000000 1.00000000000000000 0.00000000000000000 5.00000000000000000
1 -1215.00000000000000000 0.00000000000052633 -40.00000000000010658 0.00000000000000050 1.00000000000000000 -0.00000000000000028 
2 -1220.00000000000000000 -39.99999999999977263 0.00000000000000000 0.00000000000000000 0.00000000000000000 1.00000000000000000 1.00000000000000000 0.00000000000000000 -0.00000000000000000 -0.00000000000000000 1.00000000000000000 0.00000000000000000 5.00000000000000000
Polygon3D 0
PolygonOnTriangulations 0
Surfaces 38
1 -1010.00000000000011369 0.00000000000044955 -0.00000000000005296 -0.00000000000000028 0.00000000000000028 1.00000000000000000 -1.00000000000000000 0.00000000000000044 -0.00000000000000028 -0.00000000000000044 -1.00000000000000000 0.00000000000000028 
1 -1010.00000000000011369 0.00000000000042271 -80.00000000000005684 1.00000000000000000 -0.00000000000000050 0.00000000000000022 -0.00000000000000022 0.00000000000000034 1.00000000000000000 -0.00000000000000050 -1.00000000000000000 0.00000000000000034 
1 -1260.00000000000000000 0.00000000000055955 -0.00000000000012235 -1.00000000000000000 0.00000000000000050 -0.00000000000000022 0.00000000000000022 -0.00000000000000034 -1.00000000000000000 -0.00000000000000050 -1.00000000000000000 0.00000000000000034 
1 -1010.00000000000011369 0.00000000000044955 -0.00000000000005296 0.00000000000000028 -0.00000000000000028 -1.00000000000000000 -1.00000000000000000 0.00000000000000044 -0.00000000000000028 0.00000000000000044 1.00000000000000000 -0.00000000000000028 
1 -40.00000000000002132 -1135.00000000000000000 0.00000000000049335 0.00000000000000028 -0.00000000000000044 -1.00000000000000000 0.00000000000000000 -1.00000000000000000 0.00000000000000044 -1.00000000000000000 -0.00000000000000000 -0.00000000000000028 
1 -1010.00000000000011369 0.00000000000044955 -0.00000000000005296 0.00000000000000028 -0.00000000000000028 -1.00000000000000000 -1.00000000000000000 0.00000000000000044 -0.00000000000000028 0.00000000000000044 1.00000000000000000 -0.00000000000000028 
1 -1010.00000000000011369 0.00000000000044955 -0.00000000000005296 -0.00000000000000028 0.00000000000000028 1.00000000000000000 -1.00000000000000000 0.00000000000000044 -0.00000000000000028 -0.00000000000000044 -1.00000000000000000 0.00000000000000028 
1 -0.00000000000037694 -1410.71577261951324544 286.86941964372380198 1.00000000000000000 -0.00000000000000022 0.00000000000000022 -0.00000000000000022 0.00000000000000000 1.00000000000000000 -0.00000000000000022 -1.00000000000000000 -0.00000000000000000 
1 -1010.00000000000011369 0.00000000000044955 -0.00000000000005296 -0.00000000000000028 0.00000000000000028 1.00000000000000000 -1.00000000000000000 0.00000000000000044 -0.00000000000000028 -0.00000000000000044 -1.00000000000000000 0.00000000000000028 
1 -1010.00000000000011369 0.00000000000044955 -0.00000000000005296 -0.00000000000000028 0.00000000000000028 1.00000000000000000 -1.00000000000000000 0.00000000000000044 -0.00000000000000028 -0.00000000000000044 -1.00000000000000000 0.00000000000000028 
1 -1010.00000000000011369 0.00000000000044955 -0.00000000000005296 -0.00000000000000028 0.00000000000000028 1.00000000000000000 -1.00000000000000000 0.00000000000000044 -0.00000000000000028 -0.00000000000000044 -1.00000000000000000 0.00000000000000028 
1 -1260.00000000000000000 0.00000000000055955 -0.00000000000012235 1.00000000000000000 -0.00000000000000050 0.00000000000000022 0.00000000000000022 -0.00000000000000034 -1.00000000000000000 0.00000000000000050 1.00000000000000000 -0.00000000000000034 
1 -1260.00000000000000000 0.00000000000055955 -0.00000000000012235 1.00000000000000000 -0.00000000000000050 0.00000000000000022 0.00000000000000022 -0.00000000000000034 -1.00000000000000000 0.00000000000000050 1.00000000000000000 -0.00000000000000034 
1 -1260.00000000000000000 0.00000000000055955 -0.00000000000012235 -1.00000000000000000 0.00000000000000050 -0.00000000000000022 0.00000000000000022 -0.00000000000000034 -1.00000000000000000 -0.00000000000000050 -1.00000000000000000 0.00000000000000034 
1 -1260.00000000000000000 0.00000000000055955 -0.00000000000012235 -1.00000000000000000 0.00000000000000050 -0.00000000000000022 0.00000000000000022 -0.00000000000000034 -1.00000000000000000 -0.00000000000000050 -1.00000000000000000 0.00000000000000034 
1 -1260.00000000000000000 0.00000000000055955 -0.00000000000012235 -1.00000000000000000 0.00000000000000050 -0.00000000000000022 0.00000000000000022 -0.00000000000000034 -1.00000000000000000 -0.00000000000000050 -1.00000000000000000 0.00000000000000034 
1 -1260.00000000000000000 0.00000000000055955 -0.00000000000012235 -1.00000000000000000 0.00000000000000050 -0.00000000000000022 0.00000000000000022 -0.00000000000000034 -1.00000000000000000 -0.00000000000000050 -1.00000000000000000 0.00000000000000034 
1 -1260.00000000000000000 0.00000000000053271 -80.00000000000012790 0.00000000000000028 -0.00000000000000028 -1.00000000000000000 1.00000000000000000 -0.00000000000000044 0.00000000000000028 -0.00000000000000044 -1.00000000000000000 0.00000000000000028 
1 -1010.00000000000011369 0.00000000000042271 -80.00000000000005684 -1.00000000000000000 0.00000000000000050 -0.00000000000000022 -0.00000000000000022 0.00000000000000034 1.00000000000000000 0.00000000000000050 1.00000000000000000 -0.00000000000000034 
1 -1010.00000000000011369 0.00000000000042271 -80.00000000000005684 -1.00000000000000000 0.00000000000000050 -0.00000000000000022 -0.00000000000000022 0.00000000000000034 1.00000000000000000 0.00000000000000050 1.00000000000000000 -0.00000000000000034 
1 -1010.00000000000011369 0.00000000000042271 -80.00000000000005684 1.00000000000000000 -0.00000000000000050 0.00000000000000022 -0.00000000000000022 0.00000000000000034 1.00000000000000000 -0.00000000000000050 -1.00000000000000000 0.00000000000000034 
1 -1010.00000000000011369 0.00000000000042271 -80.00000000000005684 1.00000000000000000 -0.00000000000000050 0.00000000000000022 -0.00000000000000022 0.00000000000000034 1.00000000000000000 -0.00000000000000050 -1.00000000000000000 0.00000000000000034 
1 -1010.00000000000011369 0.00000000000042271 -80.00000000000005684 1.00000000000000000 -0.00000000000000050 0.00000000000000022 -0.00000000000000022 0.00000000000000034 1.00000000000000000 -0.00000000000000050 -1.00000000000000000 0.00000000000000034 
1 -1010.00000000000011369 0.00000000000042271 -80.00000000000005684 1.00000000000000000 -0.00000000000000050 0.00000000000000022 -0.00000000000000022 0.00000000000000034 1.00000000000000000 -0.00000000000000050 -1.00000000000000000 0.00000000000000034 
2 -1050.00000000000000000 0.00000000000045373 -40.00000000000006395 -0.00000000000000044 -1.00000000000000000 0.00000000000000034 1.00000000000000000 -0.00000000000000044 0.00000000000000028 -0.00000000000000028 0.00000000000000034 1.00000000000000000 5.00000000000000000
2 -1050.00000000000000000 0.00000000000045373 -40.00000000000006395 0.00000000000000044 1.00000000000000000 -0.00000000000000034 1.00000000000000000 -0.00000000000000044 0.00000000000000028 -0.00000000000000028 0.00000000000000034 1.00000000000000000 5.00000000000000000
2 -1050.00000000000000000 0.00000000000045373 -40.00000000000006395 0.00000000000000044 1.00000000000000000 -0.00000000000000034 1.00000000000000000 -0.00000000000000044 0.00000000000000028 -0.00000000000000028 0.00000000000000034 1.00000000000000000 5.00000000000000000
2 -1050.00000000000000000 0.00000000000045373 -40.00000000000006395 -0.00000000000000044 -1.00000000000000000 0.00000000000000034 1.00000000000000000 -0.00000000000000044 0.00000000000000028 -0.00000000000000028 0.00000000000000034 1.00000000000000000 5.00000000000000000
2 -1050.00000000000000000 0.00000000000045373 -40.00000000000006395 -0.00000000000000044 -1.00000000000000000 0.00000000000000034 1.00000000000000000 -0.00000000000000044 0.00000000000000028 -0.00000000000000028 0.00000000000000034 1.00000000000000000 5.00000000000000000
2 -1050.00000000000000000 0.00000000000045373 -40.00000000000006395 -0.00000000000000044 -1.00000000000000000 0.00000000000000034 1.00000000000000000 -0.00000000000000044 0.00000000000000028 -0.00000000000000028 0.00000000000000034 1.00000000000000000 5.00000000000000000
2 -1050.00000000000000000 0.00000000000045373 -40.00000000000006395 -0.00000000000000044 -1.00000000000000000 0.00000000000000034 1.00000000000000000 -0.00000000000000044 0.00000000000000028 -0.00000000000000028 0.00000000000000034 1.00000000000000000 5.00000000000000000
2 -1220.00000000000000000 0.00000000000052853 -40.00000000000011369 -0.00000000000000044 -1.00000000000000000 0.00000000000000034 1.00000000000000000 -0.00000000000000044 0.00000000000000028 -0.00000000000000028 0.00000000000000034 1.00000000000000000 5.00000000000000000
2 -1220.00000000000000000 0.00000000000052853 -40.00000000000011369 0.00000000000000044 1.00000000000000000 -0.00000000000000034 1.00000000000000000 -0.00000000000000044 0.00000000000000028 -0.00000000000000028 0.00000000000000034 1.00000000000000000 5.00000000000000000
2 -1220.00000000000000000 0.00000000000052853 -40.00000000000011369 0.00000000000000044 1.00000000000000000 -0.00000000000000034 1.00000000000000000 -0.00000000000000044 0.00000000000000028 -0.00000000000000028 0.00000000000000034 1.00000000000000000 5.00000000000000000
2 -1220.00000000000000000 0.00000000000052853 -40.00000000000011369 -0.00000000000000044 -1.00000000000000000 0.00000000000000034 1.00000000000000000 -0.00000000000000044 0.00000000000000028 -0.00000000000000028 0.00000000000000034 1.00000000000000000 5.00000000000000000
2 -1220.00000000000000000 0.00000000000052853 -40.00000000000011369 -0.00000000000000044 -1.00000000000000000 0.00000000000000034 1.00000000000000000 -0.00000000000000044 0.00000000000000028 -0.00000000000000028 0.00000000000000034 1.00000000000000000 5.00000000000000000
2 -1220.00000000000000000 0.00000000000052853 -40.00000000000011369 -0.00000000000000044 -1.00000000000000000 0.00000000000000034 1.00000000000000000 -0.00000000000000044 0.00000000000000028 -0.00000000000000028 0.00000000000000034 1.00000000000000000 5.00000000000000000
2 -1220.00000000000000000 0.00000000000052853 -40.00000000000011369 -0.00000000000000044 -1.00000000000000000 0.00000000000000034 1.00000000000000000 -0.00000000000000044 0.00000000000000028 -0.00000000000000028 0.00000000000000034 1.00000000000000000 5.00000000000000000
Triangulations 0

TShapes 36
Ve
0.000000100000245
-1010.000000000000114 0.000000000000227 0.000000000000000
0 0

0101101
*
Ed
 0.000000100000242 1 1 0
1  1 0 0.000000000000000 15.000000000000000
2  1 1 0 0.000000000000000 15.000000000000000
2  2 2 0 0.000000000000000 15.000000000000000
0

0101000
+36 4 -36 6 *
Ve
0.000000100000459
-1260.000000000000000 0.000000000000227 0.000000000000000
0 0

0101101
*
Ed
 0.000000100000403 1 1 0
1  2 0 0.000000000000000 15.000000000000000
2  3 1 0 0.000000000000000 15.000000000000000
2  4 3 0 0.000000000000000 15.000000000000000
0

0101000
+34 4 -34 6 *
Ed
 0.000000100000234 1 1 0
1  3 0 0.000000000000000 249.999999999999886
2  5 4 10 0.000000000000000 249.999999999999886
2  6 4 12 0.000000000000000 249.999999999999886
2  7 5 13 0.000000000000000 249.999999999999886
2  8 6 17 0.000000000000000 249.999999999999886
2  9 6 19 0.000000000000000 249.999999999999886
2  10 7 23 0.000000000000000 249.999999999999886
2  11 7 25 0.000000000000000 249.999999999999886
2  12 8 28 0.000000000000000 249.999999999999886
2  13 9 32 0.000000000000000 249.999999999999886
2  14 9 34 0.000000000000000 249.999999999999886
2  15 8 35 0.000000000000000 249.999999999999886
2  16 10 39 0.000000000000000 249.999999999999886
2  17 10 41 0.000000000000000 249.999999999999886
2  18 8 42 0.000000000000000 249.999999999999886
2  19 11 46 0.000000000000000 249.999999999999886
2  20 11 48 0.000000000000000 249.999999999999886
2  21 8 49 0.000000000000000 249.999999999999886
2  22 1 50 0.000000000000000 249.999999999999886
2  23 1 51 0.000000000000000 249.999999999999886
2  24 8 52 0.000000000000000 249.999999999999886
0

0101000
+36 0 -34 0 *
Wi

0101100
+35 0 -33 0 -32 4 +32 6 *
Fa
0  0.000000100000234 1 0

0111000
+31 0 *
Ve
0.000000100000234
-1260.000000000000000 -79.999999999999773 0.000000000000000
0 0

0101101
*
Ed
 0.000000100000234 1 1 0
1  4 0 0.000000000000000 15.000000000000000
2  25 3 0 0.000000000000000 15.000000000000000
0

0101000
+29 4 -29 6 *
Ed
 0.000000100000234 1 1 0
1  5 0 0.000000000000000 80.000000000000000
2  26 5 13 0.000000000000000 80.000000000000000
2  27 12 10 0.000000000000000 80.000000000000000
2  28 12 12 0.000000000000000 80.000000000000000
2  29 13 17 0.000000000000000 80.000000000000000
2  30 13 19 0.000000000000000 80.000000000000000
2  31 14 23 0.000000000000000 80.000000000000000
2  32 14 25 0.000000000000000 80.000000000000000
2  33 15 32 0.000000000000000 80.000000000000000
2  34 15 34 0.000000000000000 80.000000000000000
2  35 16 39 0.000000000000000 80.000000000000000
2  36 16 41 0.000000000000000 80.000000000000000
2  37 17 46 0.000000000000000 80.000000000000000
2  38 17 48 0.000000000000000 80.000000000000000
2  39 3 50 0.000000000000000 80.000000000000000
2  40 3 51 0.000000000000000 80.000000000000000
0

0101000
+34 0 -29 0 *
Wi

0101100
+33 0 -28 0 -27 4 +27 6 *
Fa
0  0.000000100000234 3 0

0111000
+26 0 *
Ve
0.000000100000234
-1010.000000000000114 -79.999999999999773 0.000000000000000
0 0

0101101
*
Ed
 0.000000100000234 1 1 0
1  6 0 0.000000000000000 15.000000000000000
2  41 2 0 0.000000000000000 15.000000000000000
0

0101000
+24 4 -24 6 *
Ed
 0.000000100000234 1 1 0
1  7 0 0.000000000000000 249.999999999999886
2  42 5 13 0.000000000000000 249.999999999999886
0

0101000
+29 0 -24 0 *
Wi

0101100
+28 0 -23 0 -22 4 +22 6 *
Fa
0  0.000000100000234 18 0

0111000
+21 0 *
Ed
 0.000000100000234 1 1 0
1  8 0 0.000000000000000 80.000000000000000
2  43 19 10 0.000000000000000 80.000000000000000
2  44 19 12 0.000000000000000 80.000000000000000
2  45 5 13 0.000000000000000 80.000000000000000
2  46 20 17 0.000000000000000 80.000000000000000
2  47 20 19 0.000000000000000 80.000000000000000
2  48 21 23 0.000000000000000 80.000000000000000
2  49 21 25 0.000000000000000 80.000000000000000
2  50 22 32 0.000000000000000 80.000000000000000
2  51 22 34 0.000000000000000 80.000000000000000
2  52 23 39 0.000000000000000 80.000000000000000
2  53 23 41 0.000000000000000 80.000000000000000
2  54 24 46 0.000000000000000 80.000000000000000
2  55 24 48 0.000000000000000 80.000000000000000
2  56 2 50 0.000000000000000 80.000000000000000
2  57 2 51 0.000000000000000 80.000000000000000
0

0101000
+24 0 -36 0 *
Wi

0101100
+23 0 -35 0 -19 4 +19 6 *
Fa
0  0.000000100000234 2 0

0111000
+18 0 *
Ve
0.000000100000234
-1045.000000000000000 -39.999999999999773 0.000000000000000
0 0

0101101
*
Ed
 0.000000100000234 1 1 0
1  9 0 0.000000000000000 15.000000000000000
3  58 59CN 25 0 0.000000000000000 15.000000000000000
0

0101000
+16 4 -16 6 *
Ed
 0.000000100000234 1 1 0
1  10 0 0.000000000000000 6.283185307179586
2  60 26 10 0.000000000000000 6.283185307179586
2  61 26 12 0.000000000000000 6.283185307179586
2  62 5 13 0.000000000000000 6.283185307179586
2  63 27 17 0.000000000000000 6.283185307179586
2  64 27 19 0.000000000000000 6.283185307179586
2  65 28 23 0.000000000000000 6.283185307179586
2  66 28 25 0.000000000000000 6.283185307179586
2  67 29 32 0.000000000000000 6.283185307179586
2  68 29 34 0.000000000000000 6.283185307179586
2  69 30 39 0.000000000000000 6.283185307179586
2  70 30 41 0.000000000000000 6.283185307179586
2  71 31 46 0.000000000000000 6.283185307179586
2  72 31 48 0.000000000000000 6.283185307179586
2  73 25 50 0.000000000000000 6.283185307179586
2  74 25 51 0.000000000000000 6.283185307179586
0

0101000
+16 0 -16 0 *
Wi

0101100
+15 0 -15 0 -14 4 +14 6 *
Fa
0  0.000000100000234 25 0

0111000
+13 0 *
Ve
0.000000100000234
-1215.000000000000000 -39.999999999999773 0.000000000000000
0 0

0101101
*
Ed
 0.000000100000234 1 1 0
1  11 0 0.000000000000000 15.000000000000000
3  75 76CN 32 0 0.000000000000000 15.000000000000000
0

0101000
+11 4 -11 6 *
Ed
 0.000000100000234 1 1 0
1  12 0 0.000000000000000 6.283185307179586
2  77 33 10 0.000000000000000 6.283185307179586
2  78 33 12 0.000000000000000 6.283185307179586
2  79 5 13 0.000000000000000 6.283185307179586
2  80 34 17 0.000000000000000 6.283185307179586
2  81 34 19 0.000000000000000 6.283185307179586
2  82 35 23 0.000000000000000 6.283185307179586
2  83 35 25 0.000000000000000 6.283185307179586
2  84 36 32 0.000000000000000 6.283185307179586
2  85 36 34 0.000000000000000 6.283185307179586
2  86 37 39 0.000000000000000 6.283185307179586
2  87 37 41 0.000000000000000 6.283185307179586
2  88 38 46 0.000000000000000 6.283185307179586
2  89 38 48 0.000000000000000 6.283185307179586
2  90 32 50 0.000000000000000 6.283185307179586
2  91 32 51 0.000000000000000 6.283185307179586
0

0101000
+11 0 -11 0 *
Wi

0101100
+10 0 -10 0 -9 4 +9 6 *
Fa
0  0.000000100000234 32 0

0111000
+8 0 *
Wi

0101100
+32 55 +27 55 +22 55 +19 55 *
Wi

0101100
-14 55 *
Wi

0101100
-9 55 *
Fa
0  0.000000100000234 5 54

0111000
+6 0 +5 0 +4 0 *
Sh

0101100
+30 0 +25 0 +20 0 +17 0 -12 0 -7 0 +3 53 -3 56 *
So

1100000
+2 0 *

+1 0 