
CASCADE Topology V1, (c) Matra-Datavision
Locations 23
1
0.000000000000000 0.000000000000000 1.000000000000000 0.000000000000000 
1.000000000000000 0.000000000000000 0.000000000000000 0.000000000000000 
0.000000000000000 1.000000000000000 0.000000000000000 0.000000000000000 
1
0.000000000000000 0.000000000000000 1.000000000000000 0.000000000000000 
1.000000000000000 0.000000000000000 0.000000000000000 0.000000000000000 
0.000000000000000 1.000000000000000 0.000000000000000 0.000000000000000 
1
0.000000000000000 0.000000000000000 1.000000000000000 0.000000000000000 
1.000000000000000 0.000000000000000 0.000000000000000 0.000000000000000 
0.000000000000000 1.000000000000000 0.000000000000000 0.000000000000000 
2  2 1 3 -1 0
1
1.000000000000000 0.000000000000000 0.000000000000000 0.000000000000000 
0.000000000000000 1.000000000000000 0.000000000000000 0.000000000000000 
0.000000000000000 0.000000000000000 1.000000000000000 0.000000000000000 
1
0.000000000000000 -0.000000000000000 1.000000000000000 0.000000000000000 
1.000000000000000 0.000000000000000 -0.000000000000000 0.000000000000000 
-0.000000000000000 1.000000000000000 0.000000000000000 0.000000000000000 
1
-0.000000000000000 0.000000000000000 1.000000000000000 0.000000000000000 
1.000000000000000 -0.000000000000000 0.000000000000000 0.000000000000000 
0.000000000000000 1.000000000000000 -0.000000000000000 0.000000000000000 
2  5 1 6 1 7 -1 0
1
1.000000000000000 0.000000000000000 0.000000000000000 0.000000000000007 
0.000000000000000 1.000000000000000 0.000000000000000 -0.000000000000004 
0.000000000000000 0.000000000000000 1.000000000000000 -15.000000000000000 
2  5 1 6 1 7 -1 9 1 0
2  6 -1 5 -1 0
2  7 -1 2 1 3 -1 0
2  5 1 6 1 7 -1 2 1 3 -1 0
1
1.000000000000000 0.000000000000000 0.000000000000000 0.000000000000000 
0.000000000000000 1.000000000000000 0.000000000000000 0.000000000000000 
0.000000000000000 0.000000000000000 1.000000000000000 0.000000000000000 
1
0.000000000000000 -0.000000000000000 1.000000000000000 0.000000000000383 
1.000000000000000 -0.000000000000000 -0.000000000000000 -0.000000000000000 
0.000000000000000 1.000000000000000 0.000000000000000 0.000000000000000 
2  14 1 15 1 3 -1 0
2  3 1 15 -1 14 -1 0
1
1.000000000000000 0.000000000000000 0.000000000000000 0.000000000000438 
0.000000000000000 1.000000000000000 0.000000000000000 -0.000000000001751 
0.000000000000000 0.000000000000000 1.000000000000000 -3943.307496049478232 
2  18 -1 3 1 15 -1 14 -1 0
2  15 -1 14 -1 0
2  7 -1 2 1 15 -1 14 -1 0
2  7 -1 9 1 2 1 3 -1 0
2  5 1 6 1 7 -1 9 1 2 1 3 -1 0
Curve2ds 36
1 125.00000000000000000 -968.00000000000000000 0.00000000000000022 1.00000000000000000 
1 -125.00000000000000000 -968.00000000000000000 1.00000000000000000 -0.00000000000000022 
1 125.00000000000045475 967.99999999999988631 -1.00000000000000000 0.00000000000000022 
1 -124.99999999999954525 968.00000000000011369 -0.00000000000000022 -1.00000000000000000 
1 0.00000000000000000 0.00000000000000000 1.00000000000000000 0.00000000000000000 
1 0.00000000000000000 -3943.30749604947823173 1.00000000000000000 0.00000000000000000 
2 0.00000000000000000 -768.00000000000034106 0.00000000000000011 -1.00000000000000000 1.00000000000000000 0.00000000000000011 5.00000000000000000
2 -64.99999999999954525 -767.99999999999920419 0.00000000000000011 -1.00000000000000000 1.00000000000000000 0.00000000000000011 5.00000000000000000
1 0.00000000000000000 0.00000000000000000 1.00000000000000000 0.00000000000000000 
1 0.00000000000000000 -3943.30749604947823173 1.00000000000000000 0.00000000000000000 
2 0.00000000000000000 -618.00000000000034106 0.00000000000000011 -1.00000000000000000 1.00000000000000000 0.00000000000000011 5.00000000000000000
2 -64.99999999999954525 -617.99999999999920419 0.00000000000000011 -1.00000000000000000 1.00000000000000000 0.00000000000000011 5.00000000000000000
1 0.00000000000000000 0.00000000000000000 1.00000000000000000 0.00000000000000000 
1 0.00000000000000000 -3943.30749604947823173 1.00000000000000000 0.00000000000000000 
2 0.00000000000000000 617.99999999999965894 0.00000000000000011 -1.00000000000000000 1.00000000000000000 0.00000000000000011 5.00000000000000000
2 -64.99999999999954525 618.00000000000079581 0.00000000000000011 -1.00000000000000000 1.00000000000000000 0.00000000000000011 5.00000000000000000
1 0.00000000000000000 0.00000000000000000 1.00000000000000000 0.00000000000000000 
1 0.00000000000000000 -3943.30749604947823173 1.00000000000000000 0.00000000000000000 
2 0.00000000000000000 767.99999999999965894 0.00000000000000011 -1.00000000000000000 1.00000000000000000 0.00000000000000011 5.00000000000000000
2 -64.99999999999954525 768.00000000000079581 0.00000000000000011 -1.00000000000000000 1.00000000000000000 0.00000000000000011 5.00000000000000000
2 -64.99999999999945999 -767.99999999999909051 0.00000000000000022 -1.00000000000000000 1.00000000000000000 0.00000000000000022 5.00000000000000000
1 0.00000000000000000 -15.00000000000020073 1.00000000000000000 0.00000000000000000 
2 -64.99999999999947420 -617.99999999999909051 0.00000000000000022 -1.00000000000000000 1.00000000000000000 0.00000000000000022 5.00000000000000000
1 0.00000000000000000 -15.00000000000021672 1.00000000000000000 0.00000000000000000 
2 -64.99999999999961631 618.00000000000079581 0.00000000000000022 -1.00000000000000000 1.00000000000000000 0.00000000000000022 5.00000000000000000
1 0.00000000000000000 -15.00000000000035172 1.00000000000000000 0.00000000000000000 
2 -64.99999999999963052 768.00000000000079581 0.00000000000000022 -1.00000000000000000 1.00000000000000000 0.00000000000000022 5.00000000000000000
1 0.00000000000000000 -15.00000000000036771 1.00000000000000000 0.00000000000000000 
1 0.00000000000000000 0.00000000000000000 0.00000000000000000 -1.00000000000000000 
1 6.28318530717958623 0.00000000000000000 0.00000000000000000 -1.00000000000000000 
1 0.00000000000000000 0.00000000000000000 0.00000000000000000 -1.00000000000000000 
1 6.28318530717958623 0.00000000000000000 0.00000000000000000 -1.00000000000000000 
1 0.00000000000000000 0.00000000000000000 0.00000000000000000 -1.00000000000000000 
1 6.28318530717958623 0.00000000000000000 0.00000000000000000 -1.00000000000000000 
1 0.00000000000000000 0.00000000000000000 0.00000000000000000 -1.00000000000000000 
1 6.28318530717958623 0.00000000000000000 0.00000000000000000 -1.00000000000000000 
Curves 20
1 78.00000000000062528 2772.50000000000045475 -0.00000000000121392 0.00000000000000044 -0.00000000000000028 -1.00000000000000000 
1 -1857.99999999999977263 2772.50000000000136424 -0.00000000000164380 0.00000000000000044 -0.00000000000000028 -1.00000000000000000 
1 78.00000000000000000 2772.50000000000000000 0.00000000000000000 -1.00000000000000000 0.00000000000000000 0.00000000000000000 
1 78.00000000000056843 2522.50000000000045475 -0.00000000000110290 0.00000000000000044 -0.00000000000000028 -1.00000000000000000 
1 78.00000000000000000 2522.50000000000000000 0.00000000000000000 0.00000000000000000 1.00000000000000000 0.00000000000000000 
1 -1858.00000000000000000 2522.50000000000136424 -0.00000000000153277 0.00000000000000044 -0.00000000000000028 -1.00000000000000000 
1 -1858.00000000000000000 2772.50000000000000000 0.00000000000000000 0.00000000000000000 -1.00000000000000000 0.00000000000000000 
1 -1858.00000000000000000 2522.50000000000000000 0.00000000000000000 1.00000000000000000 0.00000000000000000 0.00000000000000000 
2 -121.99999999999994316 2582.50000000000045475 0.00000000000000000 0.00000000000000000 0.00000000000000000 1.00000000000000000 1.00000000000000000 0.00000000000000000 0.00000000000000000 0.00000000000000000 1.00000000000000000 0.00000000000000000 5.00000000000000000
2 -271.99999999999994316 2582.50000000000045475 0.00000000000000000 0.00000000000000000 0.00000000000000000 1.00000000000000000 1.00000000000000000 0.00000000000000000 0.00000000000000000 0.00000000000000000 1.00000000000000000 0.00000000000000000 5.00000000000000000
2 -1508.00000000000000000 2582.50000000000045475 0.00000000000000000 0.00000000000000000 0.00000000000000000 1.00000000000000000 1.00000000000000000 0.00000000000000000 0.00000000000000000 0.00000000000000000 1.00000000000000000 0.00000000000000000 5.00000000000000000
2 -1658.00000000000000000 2582.50000000000045475 0.00000000000000000 0.00000000000000000 0.00000000000000000 1.00000000000000000 1.00000000000000000 0.00000000000000000 0.00000000000000000 0.00000000000000000 1.00000000000000000 0.00000000000000000 5.00000000000000000
2 -121.99999999999992895 2582.50000000000000000 -15.00000000000069100 -0.00000000000000011 0.00000000000000033 1.00000000000000000 1.00000000000000000 0.00000000000000011 0.00000000000000011 -0.00000000000000011 1.00000000000000000 -0.00000000000000033 5.00000000000000000
2 -271.99999999999988631 2582.50000000000000000 -15.00000000000072475 -0.00000000000000011 0.00000000000000033 1.00000000000000000 1.00000000000000000 0.00000000000000011 0.00000000000000011 -0.00000000000000011 1.00000000000000000 -0.00000000000000033 5.00000000000000000
2 -1507.99999999999977263 2582.50000000000000000 -15.00000000000099654 -0.00000000000000011 0.00000000000000033 1.00000000000000000 1.00000000000000000 0.00000000000000011 0.00000000000000011 -0.00000000000000011 1.00000000000000000 -0.00000000000000033 5.00000000000000000
2 -1657.99999999999977263 2582.50000000000000000 -15.00000000000102851 -0.00000000000000011 0.00000000000000033 1.00000000000000000 1.00000000000000000 0.00000000000000011 0.00000000000000011 -0.00000000000000011 1.00000000000000000 -0.00000000000000033 5.00000000000000000
1 -116.99999999999992895 2582.50000000000000000 -0.00000000000049012 0.00000000000000011 -0.00000000000000044 -1.00000000000000000 
1 -266.99999999999988631 2582.50000000000000000 -0.00000000000050677 0.00000000000000011 -0.00000000000000044 -1.00000000000000000 
1 -1502.99999999999977263 2582.50000000000000000 -0.00000000000064400 0.00000000000000011 -0.00000000000000044 -1.00000000000000000 
1 -1652.99999999999977263 2582.50000000000000000 -0.00000000000066065 0.00000000000000011 -0.00000000000000044 -1.00000000000000000 
Polygon3D 0
PolygonOnTriangulations 0
Surfaces 13
1 78.00000000000062528 2772.50000000000045475 -0.00000000000121392 0.00000000000000044 1.00000000000000000 -0.00000000000000028 -1.00000000000000000 0.00000000000000044 -0.00000000000000022 -0.00000000000000022 0.00000000000000028 1.00000000000000000 
1 -0.00000000000078548 -889.99999999999943157 2647.50000000000000000 1.00000000000000000 -0.00000000000000022 0.00000000000000022 -0.00000000000000022 0.00000000000000000 1.00000000000000000 -0.00000000000000022 -1.00000000000000000 -0.00000000000000000 
1 78.00000000000056843 2522.50000000000045475 -0.00000000000110290 1.00000000000000000 -0.00000000000000022 0.00000000000000044 0.00000000000000022 1.00000000000000000 -0.00000000000000044 -0.00000000000000044 0.00000000000000044 1.00000000000000000 
1 -1857.99999999999977263 2772.50000000000136424 -0.00000000000164380 -1.00000000000000000 0.00000000000000022 -0.00000000000000044 -0.00000000000000022 -1.00000000000000000 0.00000000000000044 -0.00000000000000044 0.00000000000000044 1.00000000000000000 
2 -121.99999999999992895 2582.50000000000000000 -0.00000000000049068 -0.00000000000000011 0.00000000000000033 1.00000000000000000 1.00000000000000000 0.00000000000000011 0.00000000000000011 0.00000000000000000 1.00000000000000000 -0.00000000000000033 5.00000000000000000
1 -0.00000000000047713 -890.00000000000056843 2582.50000000000045475 1.00000000000000000 0.00000000000000000 0.00000000000000033 -0.00000000000000033 0.00000000000000000 1.00000000000000000 0.00000000000000000 -1.00000000000000000 0.00000000000000000 
2 -271.99999999999988631 2582.50000000000000000 -0.00000000000050733 -0.00000000000000011 0.00000000000000033 1.00000000000000000 1.00000000000000000 0.00000000000000011 0.00000000000000011 0.00000000000000000 1.00000000000000000 -0.00000000000000033 5.00000000000000000
1 -0.00000000000047713 -890.00000000000056843 2582.50000000000045475 1.00000000000000000 0.00000000000000000 0.00000000000000033 -0.00000000000000033 0.00000000000000000 1.00000000000000000 0.00000000000000000 -1.00000000000000000 0.00000000000000000 
2 -1507.99999999999977263 2582.50000000000000000 -0.00000000000064455 -0.00000000000000011 0.00000000000000033 1.00000000000000000 1.00000000000000000 0.00000000000000011 0.00000000000000011 0.00000000000000000 1.00000000000000000 -0.00000000000000033 5.00000000000000000
1 -0.00000000000047713 -890.00000000000056843 2582.50000000000045475 1.00000000000000000 0.00000000000000000 0.00000000000000033 -0.00000000000000033 0.00000000000000000 1.00000000000000000 0.00000000000000000 -1.00000000000000000 0.00000000000000000 
2 -1657.99999999999977263 2582.50000000000000000 -0.00000000000066121 -0.00000000000000011 0.00000000000000033 1.00000000000000000 1.00000000000000000 0.00000000000000011 0.00000000000000011 0.00000000000000000 1.00000000000000000 -0.00000000000000033 5.00000000000000000
1 -0.00000000000047713 -890.00000000000056843 2582.50000000000045475 1.00000000000000000 0.00000000000000000 0.00000000000000033 -0.00000000000000033 0.00000000000000000 1.00000000000000000 0.00000000000000000 -1.00000000000000000 0.00000000000000000 
1 -1858.00000000000000000 2522.50000000000136424 -0.00000000000153277 -0.00000000000000044 -1.00000000000000000 0.00000000000000028 1.00000000000000000 -0.00000000000000044 0.00000000000000022 -0.00000000000000022 0.00000000000000028 1.00000000000000000 
Triangulations 0

TShapes 62
Ve
0.000000100000000
78.000000000000000 2772.500000000000000 0.000000000000000
0 0

0101101
*
Ed
 0.000000100000000 1 1 0
1  1 0 0.000000000000000 15.000000000000000
0

0101000
+62 8 -62 10 *
Ve
0.000000100000000
-1858.000000000000000 2772.500000000000000 0.000000000000000
0 0

0101101
*
Ed
 0.000000100000000 1 1 0
1  2 0 0.000000000000000 15.000000000000000
0

0101000
+60 8 -60 10 *
Ed
 0.000000100000000 1 1 0
1  3 0 0.000000000000000 1936.000000000000000
2  1 2 11 0.000000000000000 1936.000000000000000
0

0101000
+62 0 -60 0 *
Wi

0101100
+61 0 -59 0 -58 8 +58 10 *
Fa
0  0.000000100000000 1 0

0111000
+57 0 *
Ve
0.000000100000000
78.000000000000000 2522.500000000000000 0.000000000000000
0 0

0101101
*
Ed
 0.000000100000000 1 1 0
1  4 0 0.000000000000000 15.000000000000000
0

0101000
+55 8 -55 10 *
Ed
 0.000000100000000 1 1 0
1  5 0 0.000000000000000 250.000000000000000
2  2 2 11 0.000000000000000 250.000000000000000
0

0101000
+55 0 -62 0 *
Wi

0101100
+54 0 -61 0 -53 8 +53 10 *
Fa
0  0.000000100000000 3 0

0111000
+52 0 *
Ve
0.000000100000000
-1858.000000000000000 2522.500000000000000 0.000000000000000
0 0

0101101
*
Ed
 0.000000100000000 1 1 0
1  6 0 0.000000000000000 15.000000000000000
0

0101000
+50 8 -50 10 *
Ed
 0.000000100000000 1 1 0
1  7 0 0.000000000000000 250.000000000000000
2  3 2 11 0.000000000000000 250.000000000000000
0

0101000
+60 0 -50 0 *
Wi

0101100
+59 0 -49 0 -48 8 +48 10 *
Fa
0  0.000000100000000 4 0

0111000
+47 0 *
Ed
 0.000000100000000 1 1 0
1  8 0 0.000000000000000 1936.000000000000000
2  4 2 11 0.000000000000000 1936.000000000000000
0

0101000
+50 0 -55 0 *
Wi

0101100
+58 13 +53 13 +48 13 +45 13 *
Ve
0.000000100000204
-116.999999999999943 2582.500000000000455 0.000000000000000
0 0

0101101
*
Ed
 0.000000100000204 1 1 0
1  9 0 0.000000000000000 6.283185307179586
2  5 5 17 0.000000000000000 6.283185307179586
2  6 5 19 0.000000000000000 6.283185307179586
2  7 6 20 0.000000000000000 6.283185307179586
2  8 2 21 0.000000000000000 6.283185307179586
0

0101100
+43 0 -43 0 *
Wi

0101100
-42 16 *
Ve
0.000000100000220
-266.999999999999943 2582.500000000000455 0.000000000000000
0 0

0101101
*
Ed
 0.000000100000220 1 1 0
1  10 0 0.000000000000000 6.283185307179586
2  9 7 17 0.000000000000000 6.283185307179586
2  10 7 19 0.000000000000000 6.283185307179586
2  11 8 20 0.000000000000000 6.283185307179586
2  12 2 21 0.000000000000000 6.283185307179586
0

0101100
+40 0 -40 0 *
Wi

0101100
-39 16 *
Ve
0.000000100000355
-1503.000000000000000 2582.500000000000455 0.000000000000000
0 0

0101101
*
Ed
 0.000000100000355 1 1 0
1  11 0 0.000000000000000 6.283185307179586
2  13 9 17 0.000000000000000 6.283185307179586
2  14 9 19 0.000000000000000 6.283185307179586
2  15 10 20 0.000000000000000 6.283185307179586
2  16 2 21 0.000000000000000 6.283185307179586
0

0101100
+37 0 -37 0 *
Wi

0101100
-36 16 *
Ve
0.000000100000371
-1653.000000000000000 2582.500000000000455 0.000000000000000
0 0

0101101
*
Ed
 0.000000100000371 1 1 0
1  12 0 0.000000000000000 6.283185307179586
2  17 11 17 0.000000000000000 6.283185307179586
2  18 11 19 0.000000000000000 6.283185307179586
2  19 12 20 0.000000000000000 6.283185307179586
2  20 2 21 0.000000000000000 6.283185307179586
0

0101100
+34 0 -34 0 *
Wi

0101100
-33 16 *
Fa
0  0.000000100000000 2 12

0111000
+44 0 +41 0 +38 0 +35 0 +32 0 *
Wi

0101100
+58 23 +53 23 +48 23 +45 23 *
Ve
0.000000100000000
-116.999999999999929 2582.500000000000000 -15.000000000000691
0 0

0101101
*
Ed
 0.000000100000000 1 1 0
1  13 0 0.000000000000000 6.283185307179586
2  21 2 22 0.000000000000000 6.283185307179586
2  22 5 0 0.000000000000000 6.283185307179586
0

0101100
+29 0 -29 0 *
Wi

0101100
-28 0 *
Ve
0.000000100000062
-266.999999999999886 2582.500000000000000 -15.000000000000663
0 0

0101101
*
Ed
 0.000000100000000 1 1 0
1  14 0 0.000000000000000 6.283185307179586
2  23 2 22 0.000000000000000 6.283185307179586
2  24 7 0 0.000000000000000 6.283185307179586
0

0101100
+26 0 -26 0 *
Wi

0101100
-25 0 *
Ve
0.000000100000075
-1502.999999999999773 2582.500000000000000 -15.000000000001071
0 0

0101101
*
Ed
 0.000000100000000 1 1 0
1  15 0 0.000000000000000 6.283185307179586
2  25 2 22 0.000000000000000 6.283185307179586
2  26 9 0 0.000000000000000 6.283185307179586
0

0101100
+23 0 -23 0 *
Wi

0101100
-22 0 *
Ve
0.000000100000092
-1652.999999999999773 2582.500000000000000 -15.000000000001121
0 0

0101101
*
Ed
 0.000000100000000 1 1 0
1  16 0 0.000000000000000 6.283185307179586
2  27 2 22 0.000000000000000 6.283185307179586
2  28 11 0 0.000000000000000 6.283185307179586
0

0101100
+20 0 -20 0 *
Wi

0101100
-19 0 *
Fa
0  0.000000100000000 2 22

0111000
+30 0 +27 0 +24 0 +21 0 +18 0 *
Wi

0101100
+49 0 -54 0 -45 8 +45 10 *
Fa
0  0.000000100000000 13 0

0111000
+16 0 *
Ed
 0.000000100000000 1 1 0
1  17 0 0.000000000000000 15.000000000000201
3  29 30CN 5 0 0.000000000000000 15.000000000000201
0

0101000
+43 16 -29 0 *
Wi

0101100
-42 16 -14 0 +28 0 +14 0 *
Fa
0  0.000000100000000 5 0

0111000
+13 0 *
Ed
 0.000000100000000 1 1 0
1  18 0 0.000000000000000 15.000000000000156
3  31 32CN 7 0 0.000000000000000 15.000000000000156
0

0101000
+40 16 -26 0 *
Wi

0101100
-39 16 -11 0 +25 0 +11 0 *
Fa
0  0.000000100000000 7 0

0111000
+10 0 *
Ed
 0.000000100000000 1 1 0
1  19 0 0.000000000000000 15.000000000000426
3  33 34CN 9 0 0.000000000000000 15.000000000000426
0

0101000
+37 16 -23 0 *
Wi

0101100
-36 16 -8 0 +22 0 +8 0 *
Fa
0  0.000000100000000 9 0

0111000
+7 0 *
Ed
 0.000000100000000 1 1 0
1  20 0 0.000000000000000 15.000000000000460
3  35 36CN 11 0 0.000000000000000 15.000000000000460
0

0101000
+34 16 -20 0 *
Wi

0101100
-33 16 -5 0 +19 0 +5 0 *
Fa
0  0.000000100000000 11 0

0111000
+4 0 *
Sh

0101100
+56 4 +51 4 +46 4 +31 0 -17 0 +15 4 -12 0 -9 0 -6 0 -3 0 
*
So

0100000
+2 0 *

+1 1 