
CASCADE Topology V1, (c) Matra-Datavision
Locations 17
1
1.000000000000000 0.000000000000000 0.000000000000000 0.000000000000000 
0.000000000000000 1.000000000000000 0.000000000000000 0.000000000000000 
0.000000000000000 0.000000000000000 1.000000000000000 0.000000000000000 
1
0.000000000000000 0.000000000000000 -1.000000000000000 1027.000000000000000 
0.000000000000000 -1.000000000000000 0.000000000000000 0.000000000000000 
-1.000000000000000 0.000000000000000 0.000000000000000 0.000000000000000 
1
1.000000000000000 0.000000000000000 0.000000000000000 0.000000000000000 
0.000000000000000 -0.000000000000000 -1.000000000000000 0.000000000000000 
0.000000000000000 1.000000000000000 -0.000000000000000 0.000000000000000 
2  1 1 2 1 3 -1 0
1
1.000000000000000 0.000000000000000 0.000000000000000 15.000000000000000 
0.000000000000000 1.000000000000000 0.000000000000000 0.000000000000003 
0.000000000000000 0.000000000000000 1.000000000000000 -0.000000000000000 
2  1 1 2 1 3 -1 5 1 0
1
1.000000000000000 0.000000000000000 0.000000000000000 0.000000000000000 
0.000000000000000 -0.000000000000000 -1.000000000000000 0.000000000000000 
0.000000000000000 1.000000000000000 -0.000000000000000 0.000000000000000 
1
1.000000000000000 0.000000000000000 0.000000000000000 0.000000000000000 
0.000000000000000 1.000000000000000 0.000000000000000 0.000000000000000 
0.000000000000000 0.000000000000000 1.000000000000000 15.000000000000000 
1
1.000000000000000 0.000000000000000 0.000000000000000 0.000000000000000 
0.000000000000000 -0.000000000000000 -1.000000000000000 0.000000000000000 
0.000000000000000 1.000000000000000 -0.000000000000000 0.000000000000000 
2  7 -1 8 1 9 1 3 -1 0
2  3 1 2 -1 1 -1 0
2  5 -1 3 1 2 -1 1 -1 0
2  2 -1 1 -1 0
2  7 -1 8 1 9 1 3 -1 5 -1 3 1 2 -1 1 -1 0
2  3 -1 0
2  1 1 2 1 0
2  3 -1 5 1 0
Curve2ds 28
1 0.00000000000000000 0.00000000000000000 0.00000000000000000 -1.00000000000000000 
1 156.00000000000000000 -0.00000000000000000 -0.00000000000000000 -1.00000000000000000 
1 240.00000000000000000 -0.00000000000005329 0.00000000000000000 -1.00000000000000000 
1 0.00000000000000000 0.00000000000000000 0.00000000000000000 -1.00000000000000000 
1 506.15527172914153198 -951.78643515850308177 -0.00000000000000022 1.00000000000000000 
1 0.00000000000000000 0.00000000000000000 1.00000000000000000 -0.00000000000000000 
1 -0.00000000000000333 -15.00000000000000000 1.00000000000000000 -0.00000000000000000 
1 -120.00000000000000000 -78.00000000000005684 1.00000000000000000 0.00000000000000022 
1 746.15527172914153198 -936.78643515850308177 -1.00000000000000000 -0.00000000000000022 
1 156.00000000000000000 0.00000000000000000 0.00000000000000000 -1.00000000000000000 
1 0.00000000000000000 0.00000000000000000 1.00000000000000000 0.00000000000000000 
1 0.00000000000000000 -15.00000000000000000 1.00000000000000000 0.00000000000000000 
1 120.00000000000000000 -78.00000000000000000 -0.00000000000000022 1.00000000000000000 
1 -0.00000000000000000 0.00000000000000000 -0.00000000000000000 -1.00000000000000000 
1 120.00000000000000000 78.00000000000000000 -1.00000000000000000 -0.00000000000000022 
1 -0.00000000000000000 0.00000000000000000 1.00000000000000000 0.00000000000000000 
1 -0.00000000000000000 -15.00000000000000000 1.00000000000000000 0.00000000000000000 
1 -120.00000000000000000 77.99999999999994316 0.00000000000000022 -1.00000000000000000 
1 0.00000000000000000 0.00000000000000000 0.00000000000000000 -1.00000000000000000 
1 6.28318530717958623 0.00000000000000000 0.00000000000000000 -1.00000000000000000 
1 0.00000000000000000 0.00000000000000000 1.00000000000000000 0.00000000000000000 
1 0.00000000000000000 -15.00000000000000000 1.00000000000000000 0.00000000000000000 
2 -80.00000000000000000 -0.00000000000005684 -1.00000000000000000 -0.00000000000000022 -0.00000000000000022 1.00000000000000000 5.00000000000000000
1 0.00000000000000000 0.00000000000000000 0.00000000000000000 -1.00000000000000000 
1 6.28318530717958623 0.00000000000000000 0.00000000000000000 -1.00000000000000000 
1 0.00000000000000000 0.00000000000000000 1.00000000000000000 0.00000000000000000 
1 0.00000000000000000 -15.00000000000000000 1.00000000000000000 0.00000000000000000 
2 -20.00000000000000000 -0.00000000000004263 -1.00000000000000000 -0.00000000000000022 -0.00000000000000022 1.00000000000000000 5.00000000000000000
Curves 12
1 1026.99999999999886313 4722.66700000000037107 15.00000000000000000 1.00000000000000000 0.00000000000000022 -0.00000000000000000 
1 1026.99999999999886313 4962.66700000000037107 15.00000000000000000 1.00000000000000000 0.00000000000000022 -0.00000000000000000 
1 -4722.66700000000037107 15.00000000000000000 0.00000000000000000 -1.00000000000000000 0.00000000000000000 0.00000000000000000 
1 1026.99999999999886313 4962.66700000000037107 171.00000000000000000 1.00000000000000000 0.00000000000000022 -0.00000000000000000 
1 -4962.66700000000037107 15.00000000000000000 0.00000000000000000 0.00000000000000000 1.00000000000000000 0.00000000000000000 
1 1026.99999999999886313 4722.66700000000037107 171.00000000000000000 1.00000000000000000 0.00000000000000022 -0.00000000000000000 
1 -4962.66700000000037107 171.00000000000000000 0.00000000000000000 1.00000000000000000 0.00000000000000000 0.00000000000000000 
1 -4722.66700000000037107 171.00000000000000000 0.00000000000000000 0.00000000000000000 -1.00000000000000000 0.00000000000000000 
1 1026.99999999999886313 4757.66700000000037107 93.00000000000000000 1.00000000000000000 0.00000000000000022 -0.00000000000000000 
2 -4762.66700000000037107 93.00000000000000000 0.00000000000000000 0.00000000000000000 0.00000000000000000 1.00000000000000000 1.00000000000000000 0.00000000000000000 -0.00000000000000000 -0.00000000000000000 1.00000000000000000 0.00000000000000000 5.00000000000000000
1 1026.99999999999886313 4817.66700000000037107 93.00000000000000000 1.00000000000000000 0.00000000000000022 -0.00000000000000000 
2 -4822.66700000000037107 93.00000000000000000 0.00000000000000000 0.00000000000000000 0.00000000000000000 1.00000000000000000 1.00000000000000000 0.00000000000000000 -0.00000000000000000 -0.00000000000000000 1.00000000000000000 0.00000000000000000 5.00000000000000000
Polygon3D 0
PolygonOnTriangulations 0
Surfaces 8
1 1026.99999999999886313 4722.66700000000037107 15.00000000000000000 0.00000000000000000 0.00000000000000000 1.00000000000000000 -0.00000000000000022 1.00000000000000000 0.00000000000000000 -1.00000000000000000 -0.00000000000000022 0.00000000000000000 
1 1026.99999999999886313 4722.66700000000037107 171.00000000000000000 -0.00000000000000022 1.00000000000000000 -0.00000000000000000 0.00000000000000000 0.00000000000000000 -1.00000000000000000 -1.00000000000000000 -0.00000000000000022 -0.00000000000000000 
1 1026.99999999999886313 4962.66700000000037107 15.00000000000000000 0.00000000000000022 -1.00000000000000000 0.00000000000000000 0.00000000000000000 0.00000000000000000 1.00000000000000000 -1.00000000000000000 -0.00000000000000022 0.00000000000000000 
1 1978.78643515850194490 -0.00000000000121432 5468.82227172914190305 0.00000000000000000 -1.00000000000000000 -0.00000000000000022 0.00000000000000000 0.00000000000000022 -1.00000000000000000 1.00000000000000000 0.00000000000000000 0.00000000000000000 
1 1026.99999999999886313 -93.00000000000110845 4842.66700000000037107 1.00000000000000000 0.00000000000000000 0.00000000000000000 -0.00000000000000000 0.00000000000000000 1.00000000000000000 0.00000000000000000 -1.00000000000000000 0.00000000000000000 
1 1026.99999999999886313 4962.66700000000037107 171.00000000000000000 -0.00000000000000000 -0.00000000000000000 -1.00000000000000000 0.00000000000000022 -1.00000000000000000 0.00000000000000000 -1.00000000000000000 -0.00000000000000022 0.00000000000000000 
2 1026.99999999999886313 4762.66700000000037107 93.00000000000000000 -1.00000000000000000 -0.00000000000000022 0.00000000000000000 0.00000000000000022 -1.00000000000000000 0.00000000000000000 0.00000000000000000 0.00000000000000000 1.00000000000000000 5.00000000000000000
2 1026.99999999999886313 4822.66700000000037107 93.00000000000000000 -1.00000000000000000 -0.00000000000000022 0.00000000000000000 0.00000000000000022 -1.00000000000000000 0.00000000000000000 0.00000000000000000 0.00000000000000000 1.00000000000000000 5.00000000000000000
Triangulations 0

TShapes 36
Ve
0.000000100000000
-4722.667000000000371 15.000000000000000 0.000000000000000
0 0

0101101
*
Ed
 0.000000100000000 1 1 0
1  1 0 0.000000000000000 15.000000000000000
2  1 1 0 0.000000000000000 15.000000000000000
2  2 2 0 0.000000000000000 15.000000000000000
0

0101000
+36 4 -36 6 *
Ve
0.000000100001137
-4962.667000000000371 15.000000000000000 0.000000000000000
0 0

0101101
*
Ed
 0.000000100000000 1 1 0
1  2 0 0.000000000000000 15.000000000000000
2  3 1 0 0.000000000000000 15.000000000000000
2  4 3 0 0.000000000000000 15.000000000000000
2  5 4 10 0.000000000000000 15.000000000000000
0

0101000
+34 4 -34 6 *
Ed
 0.000000100000000 1 1 0
1  3 0 0.000000000000000 240.000000000000000
2  6 1 11 0.000000000000000 240.000000000000000
2  7 1 12 0.000000000000000 240.000000000000000
2  8 5 13 0.000000000000000 240.000000000000000
2  9 4 14 0.000000000000000 240.000000000000000
0

0101000
+36 0 -34 0 *
Wi

0101100
+35 0 -33 0 -32 4 +32 6 *
Fa
0  0.000000100000000 1 0

0111000
+31 0 *
Ve
0.000000100000000
-4962.667000000000371 171.000000000000000 0.000000000000000
0 0

0101101
*
Ed
 0.000000100000000 1 1 0
1  4 0 0.000000000000000 15.000000000000000
2  10 3 0 0.000000000000000 15.000000000000000
0

0101000
+29 4 -29 6 *
Ed
 0.000000100000000 1 1 0
1  5 0 0.000000000000000 156.000000000000000
2  11 3 11 0.000000000000000 156.000000000000000
2  12 3 12 0.000000000000000 156.000000000000000
2  13 5 13 0.000000000000000 156.000000000000000
0

0101000
+34 0 -29 0 *
Wi

0101100
+33 0 -28 0 -27 4 +27 6 *
Fa
0  0.000000100000000 3 0

0111000
+26 0 *
Ve
0.000000100000000
-4722.667000000000371 171.000000000000000 0.000000000000000
0 0

0101101
*
Ed
 0.000000100000000 1 1 0
1  6 0 0.000000000000000 15.000000000000000
2  14 2 0 0.000000000000000 15.000000000000000
0

0101000
+24 4 -24 6 *
Ed
 0.000000100000000 1 1 0
1  7 0 0.000000000000000 240.000000000000000
2  15 5 13 0.000000000000000 240.000000000000000
0

0101000
+29 0 -24 0 *
Wi

0101100
+28 0 -23 0 -22 4 +22 6 *
Fa
0  0.000000100000000 6 0

0111000
+21 0 *
Ed
 0.000000100000000 1 1 0
1  8 0 0.000000000000000 156.000000000000000
2  16 2 11 0.000000000000000 156.000000000000000
2  17 2 12 0.000000000000000 156.000000000000000
2  18 5 13 0.000000000000000 156.000000000000000
0

0101000
+24 0 -36 0 *
Wi

0101100
+23 0 -35 0 -19 4 +19 6 *
Fa
0  0.000000100000000 2 0

0111000
+18 0 *
Ve
0.000000100000000
-4757.667000000000371 93.000000000000000 0.000000000000000
0 0

0101101
*
Ed
 0.000000100000000 1 1 0
1  9 0 0.000000000000000 15.000000000000000
3  19 20CN 7 0 0.000000000000000 15.000000000000000
0

0101000
+16 4 -16 6 *
Ed
 0.000000100000000 1 1 0
1  10 0 0.000000000000000 6.283185307179586
2  21 7 11 0.000000000000000 6.283185307179586
2  22 7 12 0.000000000000000 6.283185307179586
2  23 5 13 0.000000000000000 6.283185307179586
0

0101000
+16 0 -16 0 *
Wi

0101100
+15 0 -15 0 -14 4 +14 6 *
Fa
0  0.000000100000000 7 0

0111000
+13 0 *
Ve
0.000000100000000
-4817.667000000000371 93.000000000000000 0.000000000000000
0 0

0101101
*
Ed
 0.000000100000000 1 1 0
1  11 0 0.000000000000000 15.000000000000000
3  24 25CN 8 0 0.000000000000000 15.000000000000000
0

0101000
+11 4 -11 6 *
Ed
 0.000000100000000 1 1 0
1  12 0 0.000000000000000 6.283185307179586
2  26 8 11 0.000000000000000 6.283185307179586
2  27 8 12 0.000000000000000 6.283185307179586
2  28 5 13 0.000000000000000 6.283185307179586
0

0101000
+11 0 -11 0 *
Wi

0101100
+10 0 -10 0 -9 4 +9 6 *
Fa
0  0.000000100000000 8 0

0111000
+8 0 *
Wi

0101100
+32 16 +27 16 +22 16 +19 16 *
Wi

0101100
+14 16 *
Wi

0101100
+9 16 *
Fa
0  0.000000100000000 5 0

0111000
+6 0 +5 0 +4 0 *
Sh

0101100
+30 0 +25 0 +20 0 +17 0 +12 0 +7 0 +3 15 -3 17 *
So

1100000
-2 0 *

+1 0 