
CASCADE Topology V1, (c) Matra-Datavision
Locations 74
1
0.000000000000000 0.000000000000000 1.000000000000000 0.000000000000000 
1.000000000000000 0.000000000000000 0.000000000000000 0.000000000000000 
0.000000000000000 1.000000000000000 0.000000000000000 0.000000000000000 
1
0.000000000000000 0.000000000000000 1.000000000000000 0.000000000000000 
1.000000000000000 0.000000000000000 0.000000000000000 0.000000000000000 
0.000000000000000 1.000000000000000 0.000000000000000 0.000000000000000 
1
0.000000000000000 0.000000000000000 1.000000000000000 0.000000000000000 
1.000000000000000 0.000000000000000 0.000000000000000 0.000000000000000 
0.000000000000000 1.000000000000000 0.000000000000000 0.000000000000000 
2  2 1 3 -1 0
2  3 1 2 -1 0
1
1.000000000000000 0.000000000000000 0.000000000000000 0.000000000000000 
0.000000000000000 1.000000000000000 0.000000000000000 0.000000000000000 
0.000000000000000 0.000000000000000 1.000000000000000 0.000000000000000 
1
0.000000000000000 -0.000000000000000 1.000000000000000 0.000000000000000 
1.000000000000000 0.000000000000000 -0.000000000000000 0.000000000000000 
-0.000000000000000 1.000000000000000 0.000000000000000 0.000000000000000 
1
-0.000000000000000 0.000000000000000 1.000000000000000 0.000000000000000 
1.000000000000000 -0.000000000000000 0.000000000000000 0.000000000000000 
0.000000000000000 1.000000000000000 -0.000000000000000 0.000000000000000 
1
1.000000000000000 0.000000000000000 0.000000000000000 -0.000000000000007 
0.000000000000000 1.000000000000000 0.000000000000000 0.000000000000004 
0.000000000000000 0.000000000000000 1.000000000000000 15.000000000000000 
2  6 1 7 1 8 -1 9 1 0
2  6 1 7 1 8 -1 0
2  6 1 7 1 8 -1 2 1 3 -1 0
2  8 1 7 -1 6 -1 0
2  9 -1 8 1 7 -1 6 -1 0
2  7 -1 6 -1 0
2  3 1 2 -1 8 1 7 -1 6 -1 0
1
1.000000000000000 0.000000000000000 0.000000000000000 0.000000000000000 
0.000000000000000 1.000000000000000 0.000000000000000 0.000000000000000 
0.000000000000000 0.000000000000000 1.000000000000000 0.000000000000000 
1
0.000000000000000 1.000000000000000 0.000000000000000 -0.000000000000000 
1.000000000000000 -0.000000000000000 -0.000000000000000 0.000000000000000 
-0.000000000000000 0.000000000000000 -1.000000000000000 0.000000000000005 
1
1.000000000000000 0.000000000000000 0.000000000000000 0.000000000000007 
0.000000000000000 1.000000000000000 0.000000000000000 15.000000000000000 
0.000000000000000 0.000000000000000 1.000000000000000 -0.000000000000004 
2  17 1 18 1 3 -1 19 1 3 1 2 -1 8 1 7 -1 6 -1 0
2  6 1 7 1 8 -1 9 1 2 1 3 -1 0
2  17 1 18 1 3 -1 0
2  17 1 18 1 3 -1 19 1 0
1
0.000000000000000 0.000000000000000 1.000000000000000 0.000000000000000 
1.000000000000000 0.000000000000000 0.000000000000000 0.000000000000000 
0.000000000000000 1.000000000000000 0.000000000000000 0.000000000000000 
1
0.000000000000000 1.000000000000000 0.000000000000000 -0.000000000000000 
1.000000000000000 -0.000000000000000 -0.000000000000000 0.000000000000000 
-0.000000000000000 0.000000000000000 -1.000000000000000 0.000000000000005 
1
1.000000000000000 0.000000000000000 0.000000000000000 0.000000000000000 
0.000000000000000 1.000000000000000 0.000000000000000 0.000000000000000 
0.000000000000000 0.000000000000000 1.000000000000000 0.000000000000000 
2  24 1 25 -1 26 -1 0
1
1.000000000000000 0.000000000000000 0.000000000000000 -0.000000000000005 
0.000000000000000 1.000000000000000 0.000000000000000 -10.000000000000000 
0.000000000000000 0.000000000000000 1.000000000000000 0.000000000000003 
2  28 -1 24 1 25 -1 26 -1 0
2  25 -1 26 -1 0
1
0.000000000000000 0.000000000000000 1.000000000000000 0.000000000000000 
1.000000000000000 0.000000000000000 0.000000000000000 0.000000000000000 
0.000000000000000 1.000000000000000 0.000000000000000 0.000000000000000 
1
0.000000000000000 1.000000000000000 0.000000000000000 -0.000000000000000 
1.000000000000000 -0.000000000000000 -0.000000000000000 0.000000000000000 
-0.000000000000000 0.000000000000000 -1.000000000000000 0.000000000000005 
1
1.000000000000000 0.000000000000000 0.000000000000000 0.000000000000000 
0.000000000000000 1.000000000000000 0.000000000000000 0.000000000000000 
0.000000000000000 0.000000000000000 1.000000000000000 0.000000000000000 
2  31 1 32 -1 33 -1 0
1
1.000000000000000 0.000000000000000 0.000000000000000 -0.000000000000005 
0.000000000000000 1.000000000000000 0.000000000000000 -10.000000000000000 
0.000000000000000 0.000000000000000 1.000000000000000 0.000000000000003 
2  35 -1 31 1 32 -1 33 -1 0
1
0.000000000000000 0.000000000000000 1.000000000000000 0.000000000000000 
1.000000000000000 0.000000000000000 0.000000000000000 0.000000000000000 
0.000000000000000 1.000000000000000 0.000000000000000 0.000000000000000 
1
0.000000000000000 1.000000000000000 0.000000000000000 -0.000000000000000 
1.000000000000000 -0.000000000000000 -0.000000000000000 0.000000000000000 
-0.000000000000000 0.000000000000000 -1.000000000000000 0.000000000000005 
1
1.000000000000000 0.000000000000000 0.000000000000000 0.000000000000000 
0.000000000000000 1.000000000000000 0.000000000000000 0.000000000000000 
0.000000000000000 0.000000000000000 1.000000000000000 0.000000000000000 
2  37 1 38 -1 39 -1 0
1
1.000000000000000 0.000000000000000 0.000000000000000 0.000000000000005 
0.000000000000000 1.000000000000000 0.000000000000000 10.000000000000000 
0.000000000000000 0.000000000000000 1.000000000000000 -0.000000000000003 
2  41 -1 37 1 38 -1 39 -1 0
1
0.000000000000000 0.000000000000000 1.000000000000000 0.000000000000000 
1.000000000000000 0.000000000000000 0.000000000000000 0.000000000000000 
0.000000000000000 1.000000000000000 0.000000000000000 0.000000000000000 
1
0.000000000000000 1.000000000000000 0.000000000000000 -0.000000000000000 
1.000000000000000 -0.000000000000000 -0.000000000000000 0.000000000000000 
-0.000000000000000 0.000000000000000 -1.000000000000000 0.000000000000005 
1
1.000000000000000 0.000000000000000 0.000000000000000 0.000000000000000 
0.000000000000000 1.000000000000000 0.000000000000000 0.000000000000000 
0.000000000000000 0.000000000000000 1.000000000000000 0.000000000000000 
2  43 1 44 -1 45 -1 0
1
1.000000000000000 0.000000000000000 0.000000000000000 0.000000000000007 
0.000000000000000 1.000000000000000 0.000000000000000 15.000000000000000 
0.000000000000000 0.000000000000000 1.000000000000000 -0.000000000000004 
2  47 -1 43 1 44 -1 45 -1 0
1
0.000000000000000 0.000000000000000 1.000000000000000 0.000000000000000 
1.000000000000000 0.000000000000000 0.000000000000000 0.000000000000000 
0.000000000000000 1.000000000000000 0.000000000000000 0.000000000000000 
1
0.000000000000000 1.000000000000000 0.000000000000000 -0.000000000000000 
1.000000000000000 -0.000000000000000 -0.000000000000000 0.000000000000000 
-0.000000000000000 0.000000000000000 -1.000000000000000 0.000000000000005 
1
1.000000000000000 0.000000000000000 0.000000000000000 0.000000000000000 
0.000000000000000 1.000000000000000 0.000000000000000 0.000000000000000 
0.000000000000000 0.000000000000000 1.000000000000000 0.000000000000000 
2  49 1 50 -1 51 -1 0
1
1.000000000000000 0.000000000000000 0.000000000000000 0.000000000000007 
0.000000000000000 1.000000000000000 0.000000000000000 15.000000000000000 
0.000000000000000 0.000000000000000 1.000000000000000 -0.000000000000004 
2  53 -1 49 1 50 -1 51 -1 0
1
0.000000000000000 0.000000000000000 1.000000000000000 0.000000000000000 
1.000000000000000 0.000000000000000 0.000000000000000 0.000000000000000 
0.000000000000000 1.000000000000000 0.000000000000000 0.000000000000000 
1
0.000000000000000 1.000000000000000 0.000000000000000 -0.000000000000000 
1.000000000000000 -0.000000000000000 -0.000000000000000 0.000000000000000 
-0.000000000000000 0.000000000000000 -1.000000000000000 0.000000000000005 
1
1.000000000000000 0.000000000000000 0.000000000000000 0.000000000000000 
0.000000000000000 1.000000000000000 0.000000000000000 0.000000000000000 
0.000000000000000 0.000000000000000 1.000000000000000 0.000000000000000 
2  55 1 56 -1 57 -1 0
1
1.000000000000000 0.000000000000000 0.000000000000000 0.000000000000007 
0.000000000000000 1.000000000000000 0.000000000000000 15.000000000000000 
0.000000000000000 0.000000000000000 1.000000000000000 -0.000000000000004 
2  59 -1 55 1 56 -1 57 -1 0
2  3 1 18 -1 17 -1 0
2  19 -1 3 1 18 -1 17 -1 0
2  8 -1 2 1 3 -1 0
2  8 -1 2 1 37 -1 41 -1 37 1 38 -1 39 -1 0
2  8 -1 2 1 43 -1 47 -1 43 1 44 -1 45 -1 0
2  8 -1 2 1 49 -1 53 -1 49 1 50 -1 51 -1 0
2  8 -1 2 1 55 -1 59 -1 55 1 56 -1 57 -1 0
2  8 -1 2 1 3 -1 19 -1 3 1 18 -1 17 -1 0
2  8 -1 9 1 2 1 3 -1 0
2  6 1 7 1 0
2  25 -1 26 -1 17 1 18 1 3 -1 0
2  3 -1 19 1 0
2  25 -1 26 -1 17 1 18 1 0
2  17 1 18 1 0
Curve2ds 127
1 0.00000000000000000 0.00000000000000000 -0.00000000000000016 -1.00000000000000000 
1 249.99999999999988631 -0.00000000000000051 -0.00000000000000022 -1.00000000000000000 
1 318.74999999999977263 0.00000000000000130 -0.00000000000000016 -1.00000000000000000 
1 -0.00000000000044853 -0.00000000000022427 1.00000000000000000 -0.00000000000000044 
1 -0.00000000000045113 -15.00000000000022382 1.00000000000000000 -0.00000000000000044 
1 -286.86941964372380198 -400.71577261951313176 1.00000000000000000 -0.00000000000000000 
1 141.05264146730823427 -0.00000000000000058 0.00000000000000016 -1.00000000000000000 
1 0.00000000000000000 0.00000000000000000 -0.00000000000000022 -1.00000000000000000 
1 0.00000000000022737 -0.00000000000027978 1.00000000000000000 0.00000000000000022 
1 0.00000000000023067 -15.00000000000028066 1.00000000000000000 0.00000000000000022 
1 -286.86941964372380198 -150.71577261951324544 0.00000000000000000 -1.00000000000000000 
1 31.88058035627591380 -400.71577261951313176 0.32870799479740659 0.94443160374707291 
1 0.00000000000000000 0.00000000000000000 0.00000000000000006 -1.00000000000000000 
1 0.00000000000000000 0.00000000000000000 1.00000000000000000 0.00000000000000000 
1 -0.00000000000000336 -10.00000000000000000 1.00000000000000000 0.00000000000000000 
1 -124.99999999999988631 39.99999999999997868 0.00000000000000022 -1.00000000000000000 
1 0.00000000000000000 0.00000000000000000 1.00000000000000000 0.00000000000000000 
1 -0.00000000000000336 -10.00000000000000000 1.00000000000000000 0.00000000000000000 
1 0.00000000000000000 0.00000000000000000 1.00000000000000000 0.00000000000000000 
1 0.00000000000000336 -10.00000000000000000 1.00000000000000000 0.00000000000000000 
1 0.00000000000000000 0.00000000000000000 1.00000000000000000 0.00000000000000000 
1 0.00000000000000503 -15.00000000000000000 1.00000000000000000 0.00000000000000000 
1 0.00000000000000000 0.00000000000000000 1.00000000000000000 0.00000000000000000 
1 0.00000000000000503 -15.00000000000000000 1.00000000000000000 0.00000000000000000 
1 0.00000000000000000 0.00000000000000000 1.00000000000000000 0.00000000000000000 
1 0.00000000000000503 -15.00000000000000000 1.00000000000000000 0.00000000000000000 
1 0.00000000000000000 0.00000000000000000 1.00000000000000000 0.00000000000000000 
1 0.00000000000000503 -15.00000000000000000 1.00000000000000000 0.00000000000000000 
1 0.00000000000000000 0.00000000000000000 1.00000000000000000 -0.00000000000000000 
1 -0.00000000000000440 -10.00000000000000000 1.00000000000000000 -0.00000000000000000 
1 -124.99999999999988631 -40.00000000000002132 1.00000000000000000 0.00000000000000022 
1 0.00000000000000000 0.00000000000000000 1.00000000000000000 -0.00000000000000000 
1 -0.00000000000000440 -10.00000000000000000 1.00000000000000000 -0.00000000000000000 
1 0.00000000000000000 0.00000000000000000 1.00000000000000000 0.00000000000000000 
1 0.00000000000000440 -10.00000000000000000 1.00000000000000000 0.00000000000000000 
1 -276.86941964372340408 -400.71577261951313176 0.00000000000000038 1.00000000000000000 
1 0.00000000000000000 0.00000000000000000 1.00000000000000000 0.00000000000000000 
1 0.00000000000000660 -15.00000000000000000 1.00000000000000000 0.00000000000000000 
1 -271.86941964372340408 -400.71577261951313176 0.00000000000000038 1.00000000000000000 
1 0.00000000000000000 0.00000000000000000 1.00000000000000000 0.00000000000000000 
1 0.00000000000000660 -15.00000000000000000 1.00000000000000000 0.00000000000000000 
1 -271.86941964372340408 -400.71577261951313176 0.00000000000000038 1.00000000000000000 
1 0.00000000000000000 0.00000000000000000 1.00000000000000000 0.00000000000000000 
1 0.00000000000000660 -15.00000000000000000 1.00000000000000000 0.00000000000000000 
1 -271.86941964372340408 -400.71577261951313176 0.00000000000000038 1.00000000000000000 
1 0.00000000000000000 0.00000000000000000 1.00000000000000000 0.00000000000000000 
1 0.00000000000000660 -15.00000000000000000 1.00000000000000000 0.00000000000000000 
1 -271.86941964372340408 -400.71577261951313176 0.00000000000000038 1.00000000000000000 
1 0.00000000000059686 -0.00000000000034242 1.00000000000000000 0.00000000000000044 
1 0.00000000000060346 -15.00000000000034284 1.00000000000000000 0.00000000000000044 
1 -145.81677817641559614 -150.71577261951324544 -1.00000000000000000 0.00000000000000000 
1 -6.86941964372385883 248.50261796550626059 -0.32870799479740653 -0.94443160374707291 
1 -6.86941964372385883 447.28422738048516294 0.00000000000000000 -1.00000000000000000 
1 243.13058035627619802 447.28422738048516294 -1.00000000000000000 0.00000000000000000 
1 243.13058035627619802 206.23988239744085149 0.00000000000000000 1.00000000000000000 
1 0.00000000000000000 0.00000000000000000 1.00000000000000000 0.00000000000000000 
1 0.00000000000000000 -15.00000000000000000 1.00000000000000000 0.00000000000000000 
2 -3.11941964372380198 -310.71577261951324544 0.00000000000000000 -1.00000000000000000 1.00000000000000000 0.00000000000000000 5.00000000000000000
1 0.00000000000000000 0.00000000000000000 1.00000000000000000 0.00000000000000000 
1 0.00000000000000000 -15.00000000000000000 1.00000000000000000 0.00000000000000000 
2 -3.11941964372380198 108.39403282634521020 0.00000000000000000 -1.00000000000000000 1.00000000000000000 0.00000000000000000 5.00000000000000000
1 0.00000000000000000 0.00000000000000000 1.00000000000000000 0.00000000000000000 
1 0.00000000000000000 -15.00000000000000000 1.00000000000000000 0.00000000000000000 
2 185.63058035627619802 223.28422738048675456 0.00000000000000000 -1.00000000000000000 1.00000000000000000 0.00000000000000000 5.00000000000000000
1 0.00000000000000000 0.00000000000000000 1.00000000000000000 0.00000000000000000 
1 0.00000000000000000 -15.00000000000000000 1.00000000000000000 0.00000000000000000 
2 185.63058035627619802 352.28422738048675456 0.00000000000000000 -1.00000000000000000 1.00000000000000000 0.00000000000000000 5.00000000000000000
1 0.00000000000000000 0.00000000000000000 0.00000000000000016 -1.00000000000000000 
1 125.00000000000000000 -39.99999999999997158 -0.00000000000000022 1.00000000000000000 
1 0.00000000000000000 0.00000000000000000 1.00000000000000000 0.00000000000000000 
1 0.00000000000000056 -10.00000000000000000 1.00000000000000000 0.00000000000000000 
1 0.00000000000000000 0.00000000000000000 1.00000000000000000 0.00000000000000000 
1 0.00000000000000056 -10.00000000000000000 1.00000000000000000 0.00000000000000000 
1 0.00000000000000000 0.00000000000000000 1.00000000000000000 0.00000000000000000 
1 -0.00000000000000056 -10.00000000000000000 1.00000000000000000 0.00000000000000000 
1 0.00000000000000000 0.00000000000000000 1.00000000000000000 0.00000000000000000 
1 -0.00000000000000083 -15.00000000000000000 1.00000000000000000 0.00000000000000000 
1 0.00000000000000000 0.00000000000000000 1.00000000000000000 0.00000000000000000 
1 -0.00000000000000083 -15.00000000000000000 1.00000000000000000 0.00000000000000000 
1 0.00000000000000000 0.00000000000000000 1.00000000000000000 0.00000000000000000 
1 -0.00000000000000083 -15.00000000000000000 1.00000000000000000 0.00000000000000000 
1 0.00000000000000000 0.00000000000000000 1.00000000000000000 0.00000000000000000 
1 -0.00000000000000083 -15.00000000000000000 1.00000000000000000 0.00000000000000000 
1 125.00000000000000000 40.00000000000003553 -1.00000000000000000 -0.00000000000000022 
1 0.00000000000000000 0.00000000000000000 1.00000000000000000 0.00000000000000000 
1 0.00000000000000000 -10.00000000000000000 1.00000000000000000 0.00000000000000000 
2 -85.00000000000000000 -0.00000000000001421 -1.00000000000000000 -0.00000000000000022 0.00000000000000022 -1.00000000000000000 5.00000000000000000
1 0.00000000000000000 0.00000000000000000 1.00000000000000000 0.00000000000000000 
1 0.00000000000000000 -10.00000000000000000 1.00000000000000000 0.00000000000000000 
1 0.00000000000000000 0.00000000000000000 1.00000000000000000 0.00000000000000000 
1 0.00000000000000000 -10.00000000000000000 1.00000000000000000 0.00000000000000000 
1 0.00000000000000000 0.00000000000000000 1.00000000000000000 0.00000000000000000 
1 0.00000000000000000 -15.00000000000000000 1.00000000000000000 0.00000000000000000 
1 0.00000000000000000 0.00000000000000000 1.00000000000000000 0.00000000000000000 
1 0.00000000000000000 -15.00000000000000000 1.00000000000000000 0.00000000000000000 
1 0.00000000000000000 0.00000000000000000 1.00000000000000000 0.00000000000000000 
1 0.00000000000000000 -15.00000000000000000 1.00000000000000000 0.00000000000000000 
1 0.00000000000000000 0.00000000000000000 1.00000000000000000 0.00000000000000000 
1 0.00000000000000000 -15.00000000000000000 1.00000000000000000 0.00000000000000000 
1 0.00000000000000000 0.00000000000000000 1.00000000000000000 0.00000000000000000 
1 0.00000000000000000 -10.00000000000000000 1.00000000000000000 0.00000000000000000 
2 85.00000000000000000 0.00000000000002132 -1.00000000000000000 -0.00000000000000022 0.00000000000000022 -1.00000000000000000 5.00000000000000000
1 0.00000000000000000 0.00000000000000000 1.00000000000000000 0.00000000000000000 
1 0.00000000000000000 -10.00000000000000000 1.00000000000000000 0.00000000000000000 
1 0.00000000000000000 0.00000000000000000 1.00000000000000000 0.00000000000000000 
1 0.00000000000000000 -10.00000000000000000 1.00000000000000000 0.00000000000000000 
1 0.00000000000000000 0.00000000000000000 1.00000000000000000 0.00000000000000000 
1 0.00000000000000000 -15.00000000000000000 1.00000000000000000 0.00000000000000000 
1 0.00000000000000000 0.00000000000000000 1.00000000000000000 0.00000000000000000 
1 0.00000000000000000 -15.00000000000000000 1.00000000000000000 0.00000000000000000 
1 0.00000000000000000 0.00000000000000000 1.00000000000000000 0.00000000000000000 
1 0.00000000000000000 -15.00000000000000000 1.00000000000000000 0.00000000000000000 
1 0.00000000000000000 0.00000000000000000 1.00000000000000000 0.00000000000000000 
1 0.00000000000000000 -15.00000000000000000 1.00000000000000000 0.00000000000000000 
1 80.00000000000000000 -0.00000000000000000 -0.00000000000000006 -1.00000000000000000 
1 0.00000000000000000 0.00000000000000000 0.00000000000000000 -1.00000000000000000 
1 6.28318530717958623 0.00000000000000000 0.00000000000000000 -1.00000000000000000 
1 0.00000000000000000 0.00000000000000000 0.00000000000000000 -1.00000000000000000 
1 6.28318530717958623 0.00000000000000000 0.00000000000000000 -1.00000000000000000 
1 0.00000000000000000 0.00000000000000000 0.00000000000000000 -1.00000000000000000 
1 6.28318530717958623 0.00000000000000000 0.00000000000000000 -1.00000000000000000 
1 0.00000000000000000 0.00000000000000000 0.00000000000000000 -1.00000000000000000 
1 6.28318530717958623 0.00000000000000000 0.00000000000000000 -1.00000000000000000 
1 0.00000000000000000 0.00000000000000000 0.00000000000000000 -1.00000000000000000 
1 6.28318530717958623 0.00000000000000000 0.00000000000000000 -1.00000000000000000 
1 0.00000000000000000 0.00000000000000000 0.00000000000000000 -1.00000000000000000 
1 6.28318530717958623 0.00000000000000000 0.00000000000000000 -1.00000000000000000 
Curves 34
1 -1010.00000000000034106 0.00000000000044853 -0.00000000000022427 -0.00000000000000044 0.00000000000000028 1.00000000000000000 
1 -1010.00000000000022737 318.75000000000022737 -0.00000000000036582 -0.00000000000000044 0.00000000000000028 1.00000000000000000 
1 -1010.00000000000011369 0.00000000000000000 0.00000000000000000 0.00000000000000000 1.00000000000000000 0.00000000000000000 
1 -1260.00000000000022737 0.00000000000055955 -0.00000000000027978 -0.00000000000000044 0.00000000000000028 1.00000000000000000 
1 -1260.00000000000000000 0.00000000000000000 0.00000000000000000 1.00000000000000000 0.00000000000000000 0.00000000000000000 
1 -1616.95565501695432431 530.00000000000079581 -0.00000000000059440 -0.00000000000000044 0.00000000000000028 1.00000000000000000 
1 -1010.00000000000011369 318.74999999999971578 0.00000000000000000 -0.94443160374707291 0.32870799479740659 0.00000000000000000 
1 -1010.00000000000011369 0.00000000000042271 -80.00000000000005684 0.00000000000000050 1.00000000000000000 -0.00000000000000028 
1 -1010.00000000000011369 -79.99999999999977263 0.00000000000000000 0.00000000000000000 1.00000000000000000 0.00000000000000000 
1 -1010.00000000000011369 0.00000000000022737 0.00000000000000000 -1.00000000000000000 0.00000000000000000 0.00000000000000000 
1 -1260.00000000000000000 141.05264146730820585 0.00000000000000000 0.00000000000000000 -1.00000000000000000 0.00000000000000000 
1 -1659.21839058501950603 279.99999999999994316 0.00000000000000000 0.94443160374707291 -0.32870799479740653 0.00000000000000000 
1 -1857.99999999999840838 279.99999999999994316 0.00000000000000000 1.00000000000000000 0.00000000000000000 0.00000000000000000 
1 -1857.99999999999840838 530.00000000000000000 0.00000000000000000 0.00000000000000000 -1.00000000000000000 0.00000000000000000 
1 -1616.95565501695409694 530.00000000000000000 0.00000000000000000 -1.00000000000000000 0.00000000000000000 0.00000000000000000 
2 -1100.00000000000000000 283.75000000000000000 0.00000000000000000 0.00000000000000000 0.00000000000000000 1.00000000000000000 1.00000000000000000 0.00000000000000000 -0.00000000000000000 -0.00000000000000000 1.00000000000000000 0.00000000000000000 5.00000000000000000
2 -1519.10980544585845564 283.75000000000000000 0.00000000000000000 0.00000000000000000 0.00000000000000000 1.00000000000000000 1.00000000000000000 0.00000000000000000 -0.00000000000000000 -0.00000000000000000 1.00000000000000000 0.00000000000000000 5.00000000000000000
2 -1634.00000000000000000 472.50000000000000000 0.00000000000000000 0.00000000000000000 0.00000000000000000 1.00000000000000000 1.00000000000000000 0.00000000000000000 -0.00000000000000000 -0.00000000000000000 1.00000000000000000 0.00000000000000000 5.00000000000000000
2 -1763.00000000000000000 472.50000000000000000 0.00000000000000000 0.00000000000000000 0.00000000000000000 1.00000000000000000 1.00000000000000000 0.00000000000000000 -0.00000000000000000 -0.00000000000000000 1.00000000000000000 0.00000000000000000 5.00000000000000000
1 -1260.00000000000022737 141.05264146730880270 -0.00000000000034242 -0.00000000000000044 0.00000000000000028 1.00000000000000000 
1 -1260.00000000000000000 0.00000000000022737 0.00000000000000000 0.00000000000000000 -1.00000000000000000 0.00000000000000000 
1 -1260.00000000000000000 -79.99999999999977263 0.00000000000000000 1.00000000000000000 0.00000000000000000 0.00000000000000000 
2 -1050.00000000000000000 -39.99999999999977263 0.00000000000000000 0.00000000000000000 0.00000000000000000 1.00000000000000000 1.00000000000000000 0.00000000000000000 -0.00000000000000000 -0.00000000000000000 1.00000000000000000 0.00000000000000000 5.00000000000000000
2 -1220.00000000000000000 -39.99999999999977263 0.00000000000000000 0.00000000000000000 0.00000000000000000 1.00000000000000000 1.00000000000000000 0.00000000000000000 -0.00000000000000000 -0.00000000000000000 1.00000000000000000 0.00000000000000000 5.00000000000000000
1 -1857.99999999999863576 530.00000000000090949 -0.00000000000064793 -0.00000000000000044 0.00000000000000028 1.00000000000000000 
1 -1260.00000000000000000 0.00000000000053271 -80.00000000000012790 0.00000000000000050 1.00000000000000000 -0.00000000000000028 
1 -1659.21839058501996078 280.00000000000073896 -0.00000000000049277 -0.00000000000000044 0.00000000000000028 1.00000000000000000 
1 -1857.99999999999886313 280.00000000000085265 -0.00000000000053690 -0.00000000000000044 0.00000000000000028 1.00000000000000000 
1 -1095.00000000000022737 283.75000000000056843 -0.00000000000036915 -0.00000000000000044 0.00000000000000028 1.00000000000000000 
1 -1514.10980544585868302 283.75000000000073896 -0.00000000000046221 -0.00000000000000044 0.00000000000000028 1.00000000000000000 
1 -1629.00000000000045475 472.50000000000085265 -0.00000000000057154 -0.00000000000000044 0.00000000000000028 1.00000000000000000 
1 -1758.00000000000045475 472.50000000000090949 -0.00000000000060019 -0.00000000000000044 0.00000000000000028 1.00000000000000000 
1 -1045.00000000000000000 0.00000000000045153 -40.00000000000006395 0.00000000000000050 1.00000000000000000 -0.00000000000000028 
1 -1215.00000000000000000 0.00000000000052633 -40.00000000000010658 0.00000000000000050 1.00000000000000000 -0.00000000000000028 
Polygon3D 0
PolygonOnTriangulations 0
Surfaces 50
1 -1010.00000000000034106 0.00000000000044853 -0.00000000000022427 -1.00000000000000000 0.00000000000000022 -0.00000000000000044 0.00000000000000022 1.00000000000000000 -0.00000000000000044 0.00000000000000044 -0.00000000000000044 -1.00000000000000000 
1 -1260.00000000000022737 0.00000000000055955 -0.00000000000027978 0.00000000000000044 1.00000000000000000 -0.00000000000000028 1.00000000000000000 -0.00000000000000044 0.00000000000000022 0.00000000000000022 -0.00000000000000028 -1.00000000000000000 
1 -0.00000000000037694 -1410.71577261951324544 286.86941964372380198 1.00000000000000000 -0.00000000000000022 0.00000000000000022 -0.00000000000000022 0.00000000000000000 1.00000000000000000 -0.00000000000000022 -1.00000000000000000 -0.00000000000000000 
1 -1260.00000000000022737 141.05264146730880270 -0.00000000000034242 1.00000000000000000 -0.00000000000000022 0.00000000000000044 -0.00000000000000022 -1.00000000000000000 0.00000000000000044 0.00000000000000044 -0.00000000000000044 -1.00000000000000000 
1 -1010.00000000000022737 318.75000000000022737 -0.00000000000036582 -0.32870799479740703 -0.94443160374707280 0.00000000000000012 -0.94443160374707280 0.32870799479740703 -0.00000000000000036 0.00000000000000030 -0.00000000000000023 -1.00000000000000000 
1 -1010.00000000000011369 0.00000000000042271 -80.00000000000005684 1.00000000000000000 -0.00000000000000050 0.00000000000000022 -0.00000000000000022 0.00000000000000034 1.00000000000000000 -0.00000000000000050 -1.00000000000000000 0.00000000000000034 
1 -1010.00000000000011369 0.00000000000042271 -80.00000000000005684 -1.00000000000000000 0.00000000000000050 -0.00000000000000022 -0.00000000000000022 0.00000000000000034 1.00000000000000000 0.00000000000000050 1.00000000000000000 -0.00000000000000034 
1 -40.00000000000002132 -1135.00000000000000000 0.00000000000049335 0.00000000000000028 -0.00000000000000044 -1.00000000000000000 0.00000000000000000 -1.00000000000000000 0.00000000000000044 -1.00000000000000000 -0.00000000000000000 -0.00000000000000028 
1 -1010.00000000000011369 0.00000000000042271 -80.00000000000005684 -1.00000000000000000 0.00000000000000050 -0.00000000000000022 -0.00000000000000022 0.00000000000000034 1.00000000000000000 0.00000000000000050 1.00000000000000000 -0.00000000000000034 
1 -1010.00000000000011369 0.00000000000042271 -80.00000000000005684 1.00000000000000000 -0.00000000000000050 0.00000000000000022 -0.00000000000000022 0.00000000000000034 1.00000000000000000 -0.00000000000000050 -1.00000000000000000 0.00000000000000034 
1 -1010.00000000000011369 0.00000000000042271 -80.00000000000005684 1.00000000000000000 -0.00000000000000050 0.00000000000000022 -0.00000000000000022 0.00000000000000034 1.00000000000000000 -0.00000000000000050 -1.00000000000000000 0.00000000000000034 
1 -1010.00000000000011369 0.00000000000042271 -80.00000000000005684 1.00000000000000000 -0.00000000000000050 0.00000000000000022 -0.00000000000000022 0.00000000000000034 1.00000000000000000 -0.00000000000000050 -1.00000000000000000 0.00000000000000034 
1 -1010.00000000000011369 0.00000000000042271 -80.00000000000005684 1.00000000000000000 -0.00000000000000050 0.00000000000000022 -0.00000000000000022 0.00000000000000034 1.00000000000000000 -0.00000000000000050 -1.00000000000000000 0.00000000000000034 
1 -1010.00000000000011369 0.00000000000044955 -0.00000000000005296 0.00000000000000028 -0.00000000000000028 -1.00000000000000000 -1.00000000000000000 0.00000000000000044 -0.00000000000000028 0.00000000000000044 1.00000000000000000 -0.00000000000000028 
1 -1010.00000000000011369 0.00000000000044955 -0.00000000000005296 0.00000000000000028 -0.00000000000000028 -1.00000000000000000 -1.00000000000000000 0.00000000000000044 -0.00000000000000028 0.00000000000000044 1.00000000000000000 -0.00000000000000028 
1 -1010.00000000000011369 0.00000000000044955 -0.00000000000005296 -0.00000000000000028 0.00000000000000028 1.00000000000000000 -1.00000000000000000 0.00000000000000044 -0.00000000000000028 -0.00000000000000044 -1.00000000000000000 0.00000000000000028 
1 -1010.00000000000011369 0.00000000000044955 -0.00000000000005296 -0.00000000000000028 0.00000000000000028 1.00000000000000000 -1.00000000000000000 0.00000000000000044 -0.00000000000000028 -0.00000000000000044 -1.00000000000000000 0.00000000000000028 
1 -1010.00000000000011369 0.00000000000044955 -0.00000000000005296 -0.00000000000000028 0.00000000000000028 1.00000000000000000 -1.00000000000000000 0.00000000000000044 -0.00000000000000028 -0.00000000000000044 -1.00000000000000000 0.00000000000000028 
1 -1010.00000000000011369 0.00000000000044955 -0.00000000000005296 -0.00000000000000028 0.00000000000000028 1.00000000000000000 -1.00000000000000000 0.00000000000000044 -0.00000000000000028 -0.00000000000000044 -1.00000000000000000 0.00000000000000028 
1 -1010.00000000000011369 0.00000000000044955 -0.00000000000005296 -0.00000000000000028 0.00000000000000028 1.00000000000000000 -1.00000000000000000 0.00000000000000044 -0.00000000000000028 -0.00000000000000044 -1.00000000000000000 0.00000000000000028 
2 -1100.00000000000022737 283.75000000000056843 -0.00000000000037026 0.00000000000000022 -0.00000000000000044 -1.00000000000000000 1.00000000000000000 -0.00000000000000044 0.00000000000000022 0.00000000000000044 1.00000000000000000 -0.00000000000000044 5.00000000000000000
2 -1519.10980544585868302 283.75000000000073896 -0.00000000000046332 0.00000000000000022 -0.00000000000000044 -1.00000000000000000 1.00000000000000000 -0.00000000000000044 0.00000000000000022 0.00000000000000044 1.00000000000000000 -0.00000000000000044 5.00000000000000000
2 -1634.00000000000045475 472.50000000000085265 -0.00000000000057265 0.00000000000000022 -0.00000000000000044 -1.00000000000000000 1.00000000000000000 -0.00000000000000044 0.00000000000000022 0.00000000000000044 1.00000000000000000 -0.00000000000000044 5.00000000000000000
2 -1763.00000000000045475 472.50000000000090949 -0.00000000000060130 0.00000000000000022 -0.00000000000000044 -1.00000000000000000 1.00000000000000000 -0.00000000000000044 0.00000000000000022 0.00000000000000044 1.00000000000000000 -0.00000000000000044 5.00000000000000000
1 -1260.00000000000000000 0.00000000000055955 -0.00000000000012235 1.00000000000000000 -0.00000000000000050 0.00000000000000022 0.00000000000000022 -0.00000000000000034 -1.00000000000000000 0.00000000000000050 1.00000000000000000 -0.00000000000000034 
1 -1260.00000000000000000 0.00000000000055955 -0.00000000000012235 1.00000000000000000 -0.00000000000000050 0.00000000000000022 0.00000000000000022 -0.00000000000000034 -1.00000000000000000 0.00000000000000050 1.00000000000000000 -0.00000000000000034 
1 -1260.00000000000000000 0.00000000000055955 -0.00000000000012235 -1.00000000000000000 0.00000000000000050 -0.00000000000000022 0.00000000000000022 -0.00000000000000034 -1.00000000000000000 -0.00000000000000050 -1.00000000000000000 0.00000000000000034 
1 -1260.00000000000000000 0.00000000000055955 -0.00000000000012235 -1.00000000000000000 0.00000000000000050 -0.00000000000000022 0.00000000000000022 -0.00000000000000034 -1.00000000000000000 -0.00000000000000050 -1.00000000000000000 0.00000000000000034 
1 -1260.00000000000000000 0.00000000000055955 -0.00000000000012235 -1.00000000000000000 0.00000000000000050 -0.00000000000000022 0.00000000000000022 -0.00000000000000034 -1.00000000000000000 -0.00000000000000050 -1.00000000000000000 0.00000000000000034 
1 -1260.00000000000000000 0.00000000000055955 -0.00000000000012235 -1.00000000000000000 0.00000000000000050 -0.00000000000000022 0.00000000000000022 -0.00000000000000034 -1.00000000000000000 -0.00000000000000050 -1.00000000000000000 0.00000000000000034 
1 -1260.00000000000000000 0.00000000000055955 -0.00000000000012235 -1.00000000000000000 0.00000000000000050 -0.00000000000000022 0.00000000000000022 -0.00000000000000034 -1.00000000000000000 -0.00000000000000050 -1.00000000000000000 0.00000000000000034 
2 -1050.00000000000000000 0.00000000000045373 -40.00000000000006395 0.00000000000000044 1.00000000000000000 -0.00000000000000034 1.00000000000000000 -0.00000000000000044 0.00000000000000028 -0.00000000000000028 0.00000000000000034 1.00000000000000000 5.00000000000000000
2 -1050.00000000000000000 0.00000000000045373 -40.00000000000006395 0.00000000000000044 1.00000000000000000 -0.00000000000000034 1.00000000000000000 -0.00000000000000044 0.00000000000000028 -0.00000000000000028 0.00000000000000034 1.00000000000000000 5.00000000000000000
2 -1050.00000000000000000 0.00000000000045373 -40.00000000000006395 -0.00000000000000044 -1.00000000000000000 0.00000000000000034 1.00000000000000000 -0.00000000000000044 0.00000000000000028 -0.00000000000000028 0.00000000000000034 1.00000000000000000 5.00000000000000000
2 -1050.00000000000000000 0.00000000000045373 -40.00000000000006395 -0.00000000000000044 -1.00000000000000000 0.00000000000000034 1.00000000000000000 -0.00000000000000044 0.00000000000000028 -0.00000000000000028 0.00000000000000034 1.00000000000000000 5.00000000000000000
2 -1050.00000000000000000 0.00000000000045373 -40.00000000000006395 -0.00000000000000044 -1.00000000000000000 0.00000000000000034 1.00000000000000000 -0.00000000000000044 0.00000000000000028 -0.00000000000000028 0.00000000000000034 1.00000000000000000 5.00000000000000000
2 -1050.00000000000000000 0.00000000000045373 -40.00000000000006395 -0.00000000000000044 -1.00000000000000000 0.00000000000000034 1.00000000000000000 -0.00000000000000044 0.00000000000000028 -0.00000000000000028 0.00000000000000034 1.00000000000000000 5.00000000000000000
2 -1050.00000000000000000 0.00000000000045373 -40.00000000000006395 -0.00000000000000044 -1.00000000000000000 0.00000000000000034 1.00000000000000000 -0.00000000000000044 0.00000000000000028 -0.00000000000000028 0.00000000000000034 1.00000000000000000 5.00000000000000000
2 -1220.00000000000000000 0.00000000000052853 -40.00000000000011369 0.00000000000000044 1.00000000000000000 -0.00000000000000034 1.00000000000000000 -0.00000000000000044 0.00000000000000028 -0.00000000000000028 0.00000000000000034 1.00000000000000000 5.00000000000000000
2 -1220.00000000000000000 0.00000000000052853 -40.00000000000011369 0.00000000000000044 1.00000000000000000 -0.00000000000000034 1.00000000000000000 -0.00000000000000044 0.00000000000000028 -0.00000000000000028 0.00000000000000034 1.00000000000000000 5.00000000000000000
2 -1220.00000000000000000 0.00000000000052853 -40.00000000000011369 -0.00000000000000044 -1.00000000000000000 0.00000000000000034 1.00000000000000000 -0.00000000000000044 0.00000000000000028 -0.00000000000000028 0.00000000000000034 1.00000000000000000 5.00000000000000000
2 -1220.00000000000000000 0.00000000000052853 -40.00000000000011369 -0.00000000000000044 -1.00000000000000000 0.00000000000000034 1.00000000000000000 -0.00000000000000044 0.00000000000000028 -0.00000000000000028 0.00000000000000034 1.00000000000000000 5.00000000000000000
2 -1220.00000000000000000 0.00000000000052853 -40.00000000000011369 -0.00000000000000044 -1.00000000000000000 0.00000000000000034 1.00000000000000000 -0.00000000000000044 0.00000000000000028 -0.00000000000000028 0.00000000000000034 1.00000000000000000 5.00000000000000000
2 -1220.00000000000000000 0.00000000000052853 -40.00000000000011369 -0.00000000000000044 -1.00000000000000000 0.00000000000000034 1.00000000000000000 -0.00000000000000044 0.00000000000000028 -0.00000000000000028 0.00000000000000034 1.00000000000000000 5.00000000000000000
2 -1220.00000000000000000 0.00000000000052853 -40.00000000000011369 -0.00000000000000044 -1.00000000000000000 0.00000000000000034 1.00000000000000000 -0.00000000000000044 0.00000000000000028 -0.00000000000000028 0.00000000000000034 1.00000000000000000 5.00000000000000000
1 -1616.95565501695432431 530.00000000000079581 -0.00000000000059440 -0.00000000000000044 -1.00000000000000000 0.00000000000000028 -1.00000000000000000 0.00000000000000044 -0.00000000000000022 0.00000000000000022 -0.00000000000000028 -1.00000000000000000 
1 -1260.00000000000000000 0.00000000000053271 -80.00000000000012790 0.00000000000000028 -0.00000000000000028 -1.00000000000000000 1.00000000000000000 -0.00000000000000044 0.00000000000000028 -0.00000000000000044 -1.00000000000000000 0.00000000000000028 
1 -1659.21839058501996078 280.00000000000073896 -0.00000000000049277 0.32870799479740698 0.94443160374707280 -0.00000000000000012 0.94443160374707280 -0.32870799479740698 0.00000000000000036 0.00000000000000030 -0.00000000000000023 -1.00000000000000000 
1 -1857.99999999999886313 280.00000000000085265 -0.00000000000053690 0.00000000000000044 1.00000000000000000 -0.00000000000000028 1.00000000000000000 -0.00000000000000044 0.00000000000000022 0.00000000000000022 -0.00000000000000028 -1.00000000000000000 
1 -1857.99999999999863576 530.00000000000090949 -0.00000000000064793 1.00000000000000000 -0.00000000000000022 0.00000000000000044 -0.00000000000000022 -1.00000000000000000 0.00000000000000044 0.00000000000000044 -0.00000000000000044 -1.00000000000000000 
Triangulations 0

TShapes 117
Ve
0.000000100000867
-1010.000000000000114 0.000000000000265 -0.000000000000054
0 0

0101101
*
Ve
0.000000100000000
-1010.000000000000114 0.000000000000000 0.000000000000000
0 0

0101101
*
Ed
 0.000000100000000 1 1 0
1  1 0 0.000000000000000 15.000000000000000
2  1 1 0 0.000000000000000 15.000000000000000
2  2 2 0 0.000000000000000 15.000000000000000
0

0101000
+117 5 -116 10 *
Ve
0.000000100000000
-1010.000000000000114 318.749999999999716 0.000000000000000
0 0

0101101
*
Ed
 0.000000100000000 1 1 0
1  2 0 0.000000000000000 15.000000000000000
2  3 1 0 0.000000000000000 15.000000000000000
0

0101000
+114 11 -114 10 *
Ve
0.000000100000245
-1010.000000000000114 0.000000000000227 0.000000000000000
0 0

0101101
*
Ed
 0.000000100000245 1 1 0
1  3 0 0.000000000000000 15.000000000000449
2  4 1 13 0.000000000000000 15.000000000000449
2  5 1 14 0.000000000000000 15.000000000000449
2  6 3 15 0.000000000000000 15.000000000000449
0

0101000
+117 16 -112 20 *
Ed
 0.000000100000000 1 1 0
1  3 0 15.000000000000449 318.749999999999716
2  4 1 13 15.000000000000449 318.749999999999716
2  5 1 14 15.000000000000449 318.749999999999716
2  6 3 15 15.000000000000449 318.749999999999716
0

0101000
+112 20 -114 0 *
Ed
 0.000000100000000 1 1 0
1  3 0 0.000000000000000 318.749999999999716
2  4 1 13 0.000000000000000 318.749999999999716
2  5 1 14 0.000000000000000 318.749999999999716
2  6 3 15 0.000000000000000 318.749999999999716
0

0101000
+116 0 -114 0 *
Wi

0101100
+115 4 -113 4 -111 12 -110 12 +109 21 *
Fa
0  0.000000100000000 1 4

0111000
+108 0 *
Ve
0.000000100000921
-1260.000000000000000 0.000000000000347 -0.000000000000102
0 0

0101101
*
Ve
0.000000100000000
-1260.000000000000000 0.000000000000000 0.000000000000000
0 0

0101101
*
Ed
 0.000000100000000 1 1 0
1  4 0 0.000000000000000 15.000000000000000
2  7 4 0 0.000000000000000 15.000000000000000
2  8 2 0 0.000000000000000 15.000000000000000
0

0101000
+106 5 -105 10 *
Ed
 0.000000100000786 1 1 0
1  5 0 0.000000000000000 249.999999999999886
2  9 2 13 0.000000000000000 249.999999999999886
2  10 2 14 0.000000000000000 249.999999999999886
2  11 3 15 0.000000000000000 249.999999999999886
0

0101000
+106 16 -117 16 *
Ed
 0.000000100000000 1 1 0
1  5 0 0.000000000000000 249.999999999999886
2  9 2 13 0.000000000000000 249.999999999999886
2  10 2 14 0.000000000000000 249.999999999999886
2  11 3 15 0.000000000000000 249.999999999999886
0

0101000
+105 0 -116 0 *
Wi

0101100
+104 4 -115 4 -103 12 +102 21 *
Fa
0  0.000000100000000 2 4

0111000
+101 0 *
Ve
0.000000100000000
-1616.955655016954097 530.000000000000000 0.000000000000000
0 0

0101101
*
Ed
 0.000000100000000 1 1 0
1  6 0 0.000000000000000 15.000000000000000
0

0101000
+99 11 -99 10 *
Ed
 0.000000100000000 1 1 0
1  7 0 0.000000000000000 642.667666571969221
2  12 3 15 0.000000000000000 642.667666571969221
0

0101000
+114 0 -99 0 *
Wi

0101100
+113 0 -98 0 -97 11 +97 10 *
Fa
0  0.000000100000000 5 0

0111000
+96 0 *
Ve
0.000000100000234
-1010.000000000000114 -79.999999999999773 0.000000000000000
0 0

0101101
*
Ed
 0.000000100000234 1 1 0
1  8 0 0.000000000000000 15.000000000000000
2  13 6 0 0.000000000000000 15.000000000000000
0

0101000
+94 22 -94 23 *
Ed
 0.000000100000234 1 1 0
1  9 0 0.000000000000000 80.000000000000000
2  14 7 27 0.000000000000000 80.000000000000000
2  15 7 29 0.000000000000000 80.000000000000000
2  16 8 30 0.000000000000000 80.000000000000000
2  17 9 34 0.000000000000000 80.000000000000000
2  18 9 36 0.000000000000000 80.000000000000000
2  19 10 40 0.000000000000000 80.000000000000000
2  20 10 42 0.000000000000000 80.000000000000000
2  21 11 46 0.000000000000000 80.000000000000000
2  22 11 48 0.000000000000000 80.000000000000000
2  23 12 52 0.000000000000000 80.000000000000000
2  24 12 54 0.000000000000000 80.000000000000000
2  25 13 58 0.000000000000000 80.000000000000000
2  26 13 60 0.000000000000000 80.000000000000000
2  27 6 61 0.000000000000000 80.000000000000000
2  28 6 62 0.000000000000000 80.000000000000000
0

0101000
+94 0 -117 61 *
Ed
 0.000000100000234 1 1 0
1  9 0 0.000000000000000 80.000000000000000
2  14 7 27 0.000000000000000 80.000000000000000
2  15 7 29 0.000000000000000 80.000000000000000
2  16 8 30 0.000000000000000 80.000000000000000
2  17 9 34 0.000000000000000 80.000000000000000
2  18 9 36 0.000000000000000 80.000000000000000
2  19 10 40 0.000000000000000 80.000000000000000
2  20 10 42 0.000000000000000 80.000000000000000
2  21 11 46 0.000000000000000 80.000000000000000
2  22 11 48 0.000000000000000 80.000000000000000
2  23 12 52 0.000000000000000 80.000000000000000
2  24 12 54 0.000000000000000 80.000000000000000
2  25 13 58 0.000000000000000 80.000000000000000
2  26 13 60 0.000000000000000 80.000000000000000
2  27 6 61 0.000000000000000 80.000000000000000
2  28 6 62 0.000000000000000 80.000000000000000
0

0101000
+94 0 -112 0 *
Wi

0101100
+93 0 -111 12 -92 22 +91 23 *
Fa
0  0.000000100000234 6 0

0111000
+90 0 *
Ve
0.000000100000459
-1260.000000000000000 0.000000000000227 0.000000000000000
0 0

0101101
*
Ed
 0.000000100000234 1 1 0
1  10 0 0.000000000000000 249.999999999999886
2  29 14 27 0.000000000000000 249.999999999999886
2  30 14 29 0.000000000000000 249.999999999999886
2  31 8 30 0.000000000000000 249.999999999999886
2  32 15 34 0.000000000000000 249.999999999999886
2  33 15 36 0.000000000000000 249.999999999999886
2  34 16 40 0.000000000000000 249.999999999999886
2  35 16 42 0.000000000000000 249.999999999999886
2  36 3 64 0.000000000000000 249.999999999999886
2  37 17 46 0.000000000000000 249.999999999999886
2  38 17 48 0.000000000000000 249.999999999999886
2  39 3 65 0.000000000000000 249.999999999999886
2  40 18 52 0.000000000000000 249.999999999999886
2  41 18 54 0.000000000000000 249.999999999999886
2  42 3 66 0.000000000000000 249.999999999999886
2  43 19 58 0.000000000000000 249.999999999999886
2  44 19 60 0.000000000000000 249.999999999999886
2  45 3 67 0.000000000000000 249.999999999999886
2  46 20 61 0.000000000000000 249.999999999999886
2  47 20 62 0.000000000000000 249.999999999999886
2  48 3 68 0.000000000000000 249.999999999999886
0

0101000
+112 0 -88 0 *
Ve
0.000000100000000
-1260.000000000000000 141.052641467308206 0.000000000000000
0 0

0101101
*
Ed
 0.000000100000000 1 1 0
1  11 0 0.000000000000000 126.052641467307652
2  49 4 13 0.000000000000000 126.052641467307652
2  50 4 14 0.000000000000000 126.052641467307652
2  51 3 15 0.000000000000000 126.052641467307652
0

0101000
+86 0 -88 20 *
Ve
0.000000100000000
-1659.218390585019506 279.999999999999943 0.000000000000000
0 0

0101101
*
Ed
 0.000000100000000 1 1 0
1  12 0 0.000000000000000 422.707572471212757
2  52 3 15 0.000000000000000 422.707572471212757
0

0101000
+84 0 -86 0 *
Ve
0.000000100000000
-1857.999999999998408 279.999999999999943 0.000000000000000
0 0

0101101
*
Ed
 0.000000100000000 1 1 0
1  13 0 0.000000000000000 198.781609414978902
2  53 3 15 0.000000000000000 198.781609414978902
0

0101000
+82 0 -84 0 *
Ve
0.000000100000000
-1857.999999999998408 530.000000000000000 0.000000000000000
0 0

0101101
*
Ed
 0.000000100000000 1 1 0
1  14 0 0.000000000000000 250.000000000000057
2  54 3 15 0.000000000000000 250.000000000000057
0

0101000
+80 0 -82 0 *
Ed
 0.000000100000000 1 1 0
1  15 0 0.000000000000000 241.044344983044311
2  55 3 15 0.000000000000000 241.044344983044311
0

0101000
+99 0 -80 0 *
Wi

0101100
-87 23 +85 12 +83 12 +81 12 +79 12 +78 12 +97 12 +110 12 *
Ve
0.000000100000000
-1095.000000000000000 283.750000000000000 0.000000000000000
0 0

0101101
*
Ed
 0.000000100000000 1 1 0
1  16 0 0.000000000000000 6.283185307179586
2  56 21 13 0.000000000000000 6.283185307179586
2  57 21 14 0.000000000000000 6.283185307179586
2  58 3 15 0.000000000000000 6.283185307179586
0

0101000
+76 0 -76 0 *
Wi

0101100
-75 12 *
Ve
0.000000100000000
-1514.109805445858456 283.750000000000000 0.000000000000000
0 0

0101101
*
Ed
 0.000000100000000 1 1 0
1  17 0 0.000000000000000 6.283185307179586
2  59 22 13 0.000000000000000 6.283185307179586
2  60 22 14 0.000000000000000 6.283185307179586
2  61 3 15 0.000000000000000 6.283185307179586
0

0101000
+73 0 -73 0 *
Wi

0101100
-72 12 *
Ve
0.000000100000000
-1629.000000000000000 472.500000000000000 0.000000000000000
0 0

0101101
*
Ed
 0.000000100000000 1 1 0
1  18 0 0.000000000000000 6.283185307179586
2  62 23 13 0.000000000000000 6.283185307179586
2  63 23 14 0.000000000000000 6.283185307179586
2  64 3 15 0.000000000000000 6.283185307179586
0

0101000
+70 0 -70 0 *
Wi

0101100
-69 12 *
Ve
0.000000100000000
-1758.000000000000000 472.500000000000000 0.000000000000000
0 0

0101101
*
Ed
 0.000000100000000 1 1 0
1  19 0 0.000000000000000 6.283185307179586
2  65 24 13 0.000000000000000 6.283185307179586
2  66 24 14 0.000000000000000 6.283185307179586
2  67 3 15 0.000000000000000 6.283185307179586
0

0101000
+67 0 -67 0 *
Wi

0101100
-66 12 *
Fa
0  0.000000100000000 3 63

0111000
+77 0 +74 0 +71 0 +68 0 +65 0 *
Ed
 0.000000100000000 1 1 0
1  11 0 0.000000000000000 141.052641467308206
2  49 4 13 0.000000000000000 141.052641467308206
2  50 4 14 0.000000000000000 141.052641467308206
2  51 3 15 0.000000000000000 141.052641467308206
0

0101000
+86 0 -105 0 *
Wi

0101100
+109 70 +97 70 +78 70 +79 70 +81 70 +83 70 +63 70 +102 70 *
Wi

0101100
-69 70 *
Wi

0101100
-66 70 *
Wi

0101100
-75 70 *
Wi

0101100
-72 70 *
Fa
0  0.000000100000000 3 0

0111000
+62 0 +61 0 +60 0 +59 0 +58 0 *
Ed
 0.000000100000000 1 1 0
1  20 0 0.000000000000000 15.000000000000000
2  68 4 0 0.000000000000000 15.000000000000000
0

0101000
+86 11 -86 10 *
Ed
 0.000000100000459 1 1 0
1  11 0 126.052641467307652 141.052641467308206
2  49 4 13 126.052641467307652 141.052641467308206
2  50 4 14 126.052641467307652 141.052641467308206
2  51 3 15 126.052641467307652 141.052641467308206
0

0101000
+88 20 -106 16 *
Wi

0101100
+56 4 -104 4 -85 12 -55 12 +63 21 *
Fa
0  0.000000100000000 4 4

0111000
+54 0 *
Ve
0.000000100000234
-1260.000000000000000 -79.999999999999773 0.000000000000000
0 0

0101101
*
Ed
 0.000000100000234 1 1 0
1  21 0 0.000000000000000 80.000000000000000
2  69 8 30 0.000000000000000 80.000000000000000
2  70 25 27 0.000000000000000 80.000000000000000
2  71 25 29 0.000000000000000 80.000000000000000
2  72 26 34 0.000000000000000 80.000000000000000
2  73 26 36 0.000000000000000 80.000000000000000
2  74 27 40 0.000000000000000 80.000000000000000
2  75 27 42 0.000000000000000 80.000000000000000
2  76 28 46 0.000000000000000 80.000000000000000
2  77 28 48 0.000000000000000 80.000000000000000
2  78 29 52 0.000000000000000 80.000000000000000
2  79 29 54 0.000000000000000 80.000000000000000
2  80 30 58 0.000000000000000 80.000000000000000
2  81 30 60 0.000000000000000 80.000000000000000
2  82 31 61 0.000000000000000 80.000000000000000
2  83 31 62 0.000000000000000 80.000000000000000
0

0101000
+106 61 -52 0 *
Ed
 0.000000100000234 1 1 0
1  22 0 0.000000000000000 249.999999999999886
2  84 8 30 0.000000000000000 249.999999999999886
0

0101000
+52 0 -94 0 *
Wi

0101100
-103 12 +51 22 +50 22 +92 22 *
Ve
0.000000100000234
-1045.000000000000000 -39.999999999999773 0.000000000000000
0 0

0101101
*
Ed
 0.000000100000234 1 1 0
1  23 0 0.000000000000000 6.283185307179586
2  85 32 27 0.000000000000000 6.283185307179586
2  86 32 29 0.000000000000000 6.283185307179586
2  87 8 30 0.000000000000000 6.283185307179586
2  88 33 34 0.000000000000000 6.283185307179586
2  89 33 36 0.000000000000000 6.283185307179586
2  90 34 40 0.000000000000000 6.283185307179586
2  91 34 42 0.000000000000000 6.283185307179586
2  92 35 46 0.000000000000000 6.283185307179586
2  93 35 48 0.000000000000000 6.283185307179586
2  94 36 52 0.000000000000000 6.283185307179586
2  95 36 54 0.000000000000000 6.283185307179586
2  96 37 58 0.000000000000000 6.283185307179586
2  97 37 60 0.000000000000000 6.283185307179586
2  98 38 61 0.000000000000000 6.283185307179586
2  99 38 62 0.000000000000000 6.283185307179586
0

0101000
+48 0 -48 0 *
Wi

0101100
-47 22 *
Ve
0.000000100000234
-1215.000000000000000 -39.999999999999773 0.000000000000000
0 0

0101101
*
Ed
 0.000000100000234 1 1 0
1  24 0 0.000000000000000 6.283185307179586
2  100 39 27 0.000000000000000 6.283185307179586
2  101 39 29 0.000000000000000 6.283185307179586
2  102 8 30 0.000000000000000 6.283185307179586
2  103 40 34 0.000000000000000 6.283185307179586
2  104 40 36 0.000000000000000 6.283185307179586
2  105 41 40 0.000000000000000 6.283185307179586
2  106 41 42 0.000000000000000 6.283185307179586
2  107 42 46 0.000000000000000 6.283185307179586
2  108 42 48 0.000000000000000 6.283185307179586
2  109 43 52 0.000000000000000 6.283185307179586
2  110 43 54 0.000000000000000 6.283185307179586
2  111 44 58 0.000000000000000 6.283185307179586
2  112 44 60 0.000000000000000 6.283185307179586
2  113 45 61 0.000000000000000 6.283185307179586
2  114 45 62 0.000000000000000 6.283185307179586
0

0101000
+45 0 -45 0 *
Wi

0101100
-44 22 *
Fa
0  0.000000100000234 8 71

0111000
+49 0 +46 0 +43 0 *
Ed
 0.000000100000000 1 1 0
1  25 0 0.000000000000000 15.000000000000000
0

0101000
+80 11 -80 10 *
Wi

0101100
+98 0 -41 0 -78 11 +78 10 *
Fa
0  0.000000100000000 46 0

0111000
+40 0 *
Ed
 0.000000100000234 1 1 0
1  26 0 0.000000000000000 15.000000000000000
2  115 31 0 0.000000000000000 15.000000000000000
0

0101000
+52 22 -52 23 *
Wi

0101100
+38 0 -93 0 -50 22 +50 23 *
Fa
0  0.000000100000234 47 0

0111000
+37 0 *
Ed
 0.000000100000234 1 1 0
1  21 0 0.000000000000000 80.000000000000000
2  69 8 30 0.000000000000000 80.000000000000000
2  70 25 27 0.000000000000000 80.000000000000000
2  71 25 29 0.000000000000000 80.000000000000000
2  72 26 34 0.000000000000000 80.000000000000000
2  73 26 36 0.000000000000000 80.000000000000000
2  74 27 40 0.000000000000000 80.000000000000000
2  75 27 42 0.000000000000000 80.000000000000000
2  76 28 46 0.000000000000000 80.000000000000000
2  77 28 48 0.000000000000000 80.000000000000000
2  78 29 52 0.000000000000000 80.000000000000000
2  79 29 54 0.000000000000000 80.000000000000000
2  80 30 58 0.000000000000000 80.000000000000000
2  81 30 60 0.000000000000000 80.000000000000000
2  82 31 61 0.000000000000000 80.000000000000000
2  83 31 62 0.000000000000000 80.000000000000000
0

0101000
+88 0 -52 0 *
Wi

0101100
+87 74 +35 74 +50 74 +91 74 *
Wi

0101100
-47 74 *
Wi

0101100
-44 74 *
Fa
0  0.000000100000234 8 73

0111000
+34 0 +33 0 +32 0 *
Ed
 0.000000100000000 1 1 0
1  27 0 0.000000000000000 15.000000000000000
0

0101000
+84 11 -84 10 *
Wi

0101100
+30 0 -56 0 -83 11 +83 10 *
Fa
0  0.000000100000000 48 0

0111000
+29 0 *
Ed
 0.000000100000000 1 1 0
1  28 0 0.000000000000000 15.000000000000000
0

0101000
+82 11 -82 10 *
Wi

0101100
+27 0 -30 0 -81 11 +81 10 *
Fa
0  0.000000100000000 49 0

0111000
+26 0 *
Wi

0101100
+41 0 -27 0 -79 11 +79 10 *
Fa
0  0.000000100000000 50 0

0111000
+24 0 *
Ed
 0.000000100000000 1 1 0
1  29 0 0.000000000000000 15.000000000000000
3  116 117CN 21 0 0.000000000000000 15.000000000000000
0

0101000
+76 11 -76 10 *
Wi

0101100
+22 0 -22 0 -75 11 +75 10 *
Fa
0  0.000000100000000 21 0

0111000
+21 0 *
Ed
 0.000000100000000 1 1 0
1  30 0 0.000000000000000 15.000000000000000
3  118 119CN 22 0 0.000000000000000 15.000000000000000
0

0101000
+73 11 -73 10 *
Wi

0101100
+19 0 -19 0 -72 11 +72 10 *
Fa
0  0.000000100000000 22 0

0111000
+18 0 *
Ed
 0.000000100000000 1 1 0
1  31 0 0.000000000000000 15.000000000000000
3  120 121CN 23 0 0.000000000000000 15.000000000000000
0

0101000
+70 11 -70 10 *
Wi

0101100
+16 0 -16 0 -69 11 +69 10 *
Fa
0  0.000000100000000 23 0

0111000
+15 0 *
Ed
 0.000000100000000 1 1 0
1  32 0 0.000000000000000 15.000000000000000
3  122 123CN 24 0 0.000000000000000 15.000000000000000
0

0101000
+67 11 -67 10 *
Wi

0101100
+13 0 -13 0 -66 11 +66 10 *
Fa
0  0.000000100000000 24 0

0111000
+12 0 *
Wi

0101100
-55 12 -38 0 -51 22 +35 23 *
Fa
0  0.000000100000234 31 0

0111000
+10 0 *
Ed
 0.000000100000234 1 1 0
1  33 0 0.000000000000000 15.000000000000000
3  124 125CN 38 0 0.000000000000000 15.000000000000000
0

0101000
+48 22 -48 23 *
Wi

0101100
+8 0 -8 0 -47 22 +47 23 *
Fa
0  0.000000100000234 38 0

0111000
+7 0 *
Ed
 0.000000100000234 1 1 0
1  34 0 0.000000000000000 15.000000000000000
3  126 127CN 45 0 0.000000000000000 15.000000000000000
0

0101000
+45 22 -45 23 *
Wi

0101100
+5 0 -5 0 -44 22 +44 23 *
Fa
0  0.000000100000234 45 0

0111000
+4 0 *
Sh

0101100
-107 0 -100 0 -95 4 +89 0 -64 0 +57 69 -53 0 +42 0 -39 4 +36 0 
-31 72 -28 4 -25 4 -23 4 +20 4 +17 4 +14 4 +11 4 +9 0 -6 0 
-3 0 *
So

0100000
+2 0 *

+1 1 