
CASCADE Topology V1, (c) Matra-Datavision
Locations 11
1
1.000000000000000 0.000000000000000 0.000000000000000 0.000000000000000 
0.000000000000000 1.000000000000000 0.000000000000000 0.000000000000000 
0.000000000000000 0.000000000000000 1.000000000000000 0.000000000000000 
1
1.000000000000000 0.000000000000000 0.000000000000000 0.000000000000000 
0.000000000000000 1.000000000000000 0.000000000000000 0.000000000000000 
0.000000000000000 0.000000000000000 1.000000000000000 0.000000000000000 
1
1.000000000000000 0.000000000000000 0.000000000000000 0.000000000000000 
0.000000000000000 1.000000000000000 0.000000000000000 0.000000000000000 
0.000000000000000 0.000000000000000 1.000000000000000 0.000000000000000 
2  1 1 2 1 3 -1 0
1
1.000000000000000 0.000000000000000 0.000000000000000 -0.000000000000000 
0.000000000000000 1.000000000000000 0.000000000000000 -0.000000000000000 
0.000000000000000 0.000000000000000 1.000000000000000 -50.000000000000000 
2  1 1 2 1 3 -1 5 1 0
2  3 1 2 -1 1 -1 0
2  5 -1 3 1 2 -1 1 -1 0
2  3 -1 0
2  1 1 2 1 0
2  3 -1 5 1 0
Curve2ds 16
1 0.00000000000000000 0.00000000000000000 0.00000000000000000 -1.00000000000000000 
1 181.29490514817871372 0.00000000000000000 0.00000000000000000 -1.00000000000000000 
1 0.00000000000000000 0.00000000000000000 0.00000000000000000 -1.00000000000000000 
1 0.00000000000000000 0.00000000000000000 1.00000000000000000 0.00000000000000000 
1 0.00000000000000000 -50.00000000000000000 1.00000000000000000 0.00000000000000000 
1 0.00000000000000000 0.00000000000000000 0.00000000000000000 -1.00000000000000000 
1 1130.87039097563433643 0.00000000000000000 0.00000000000000000 -1.00000000000000000 
1 0.00000000000000000 0.00000000000000000 1.00000000000000000 0.00000000000000000 
1 0.00000000000000000 -50.00000000000000000 1.00000000000000000 0.00000000000000000 
1 429.96332398423692212 0.00000000000000000 0.00000000000000000 -1.00000000000000000 
1 0.00000000000000000 0.00000000000000000 0.00000000000000000 -1.00000000000000000 
1 0.00000000000000000 0.00000000000000000 1.00000000000000000 0.00000000000000000 
1 0.00000000000000000 -50.00000000000000000 1.00000000000000000 0.00000000000000000 
1 288.99999999999840838 0.00000000000000000 0.00000000000000000 -1.00000000000000000 
1 0.00000000000000000 0.00000000000000000 1.00000000000000000 0.00000000000000000 
1 0.00000000000000000 -50.00000000000000000 1.00000000000000000 0.00000000000000000 
Curves 10
1 3751.74223029236964067 -1020.00000000000000000 0.00000000000000000 -0.00000000000000000 -0.00000000000000000 -1.00000000000000000 
1 3570.44732514419092695 -1020.00000000000000000 0.00000000000000000 -0.00000000000000000 -0.00000000000000000 -1.00000000000000000 
1 3751.74223029236964067 -1020.00000000000000000 0.00000000000000000 -1.00000000000000000 0.00000000000000000 0.00000000000000000 
1 4346.03667601576307788 -1842.99999999999840838 0.00000000000000000 -0.00000000000000000 -0.00000000000000000 -1.00000000000000000 
1 3570.44732514419092695 -1020.00000000000000000 0.00000000000000000 0.68583398863458522 -0.72775802299498948 0.00000000000000000 
1 4776.00000000000000000 -1842.99999999999840838 0.00000000000000000 -0.00000000000000000 -0.00000000000000000 -1.00000000000000000 
1 4346.03667601576307788 -1842.99999999999840838 0.00000000000000000 1.00000000000000000 0.00000000000000000 0.00000000000000000 
1 4776.00000000000000000 -1554.00000000000000000 0.00000000000000000 -0.00000000000000000 -0.00000000000000000 -1.00000000000000000 
1 4776.00000000000000000 -1842.99999999999840838 0.00000000000000000 0.00000000000000000 1.00000000000000000 0.00000000000000000 
1 4776.00000000000000000 -1554.00000000000000000 0.00000000000000000 -0.88672517215815383 0.46229694900690449 0.00000000000000000 
Polygon3D 0
PolygonOnTriangulations 0
Surfaces 6
1 3751.74223029236964067 -1020.00000000000000000 0.00000000000000000 0.00000000000000000 1.00000000000000000 -0.00000000000000000 -1.00000000000000000 0.00000000000000000 0.00000000000000000 0.00000000000000000 0.00000000000000000 1.00000000000000000 
1 3570.44732514419092695 -1020.00000000000000000 0.00000000000000000 -0.72775802299498948 -0.68583398863458522 0.00000000000000000 0.68583398863458522 -0.72775802299498948 0.00000000000000000 0.00000000000000000 0.00000000000000000 1.00000000000000000 
1 4346.03667601576307788 -1842.99999999999840838 0.00000000000000000 0.00000000000000000 -1.00000000000000000 0.00000000000000000 1.00000000000000000 0.00000000000000000 0.00000000000000000 -0.00000000000000000 0.00000000000000000 1.00000000000000000 
1 4776.00000000000000000 -1842.99999999999840838 0.00000000000000000 1.00000000000000000 0.00000000000000000 0.00000000000000000 -0.00000000000000000 1.00000000000000000 0.00000000000000000 0.00000000000000000 -0.00000000000000000 1.00000000000000000 
1 4776.00000000000000000 -1554.00000000000000000 0.00000000000000000 0.46229694900690449 0.88672517215815383 -0.00000000000000000 -0.88672517215815383 0.46229694900690449 0.00000000000000000 0.00000000000000000 0.00000000000000000 1.00000000000000000 
1 4207.64808014275058667 -1435.44756648862403381 0.00000000000000000 0.00000000000000000 0.00000000000000000 1.00000000000000000 1.00000000000000000 0.00000000000000000 -0.00000000000000000 -0.00000000000000000 1.00000000000000000 0.00000000000000000 
Triangulations 0

TShapes 29
Ve
0.000000100000000
3751.742230292369641 -1020.000000000000000 0.000000000000000
0 0

0101101
*
Ed
 0.000000100000000 1 1 0
1  1 0 0.000000000000000 50.000000000000000
2  1 1 0 0.000000000000000 50.000000000000000
0

0101000
+29 4 -29 6 *
Ve
0.000000100000000
3570.447325144190927 -1020.000000000000000 0.000000000000000
0 0

0101101
*
Ed
 0.000000100000000 1 1 0
1  2 0 0.000000000000000 50.000000000000000
2  2 1 0 0.000000000000000 50.000000000000000
2  3 2 0 0.000000000000000 50.000000000000000
0

0101000
+27 4 -27 6 *
Ed
 0.000000100000000 1 1 0
1  3 0 0.000000000000000 181.294905148178714
2  4 1 7 0.000000000000000 181.294905148178714
2  5 1 8 0.000000000000000 181.294905148178714
0

0101000
+29 0 -27 0 *
Wi

0101100
+28 0 -26 0 -25 4 +25 6 *
Fa
0  0.000000100000000 1 0

0111000
+24 0 *
Ve
0.000000100000000
4346.036676015763078 -1842.999999999998408 0.000000000000000
0 0

0101101
*
Ed
 0.000000100000000 1 1 0
1  4 0 0.000000000000000 50.000000000000000
2  6 3 0 0.000000000000000 50.000000000000000
2  7 2 0 0.000000000000000 50.000000000000000
0

0101000
+22 4 -22 6 *
Ed
 0.000000100000000 1 1 0
1  5 0 0.000000000000000 1130.870390975634336
2  8 2 7 0.000000000000000 1130.870390975634336
2  9 2 8 0.000000000000000 1130.870390975634336
0

0101000
+27 0 -22 0 *
Wi

0101100
+26 0 -21 0 -20 4 +20 6 *
Fa
0  0.000000100000000 2 0

0111000
+19 0 *
Ve
0.000000100000000
4776.000000000000000 -1842.999999999998408 0.000000000000000
0 0

0101101
*
Ed
 0.000000100000000 1 1 0
1  6 0 0.000000000000000 50.000000000000000
2  10 3 0 0.000000000000000 50.000000000000000
2  11 4 0 0.000000000000000 50.000000000000000
0

0101000
+17 4 -17 6 *
Ed
 0.000000100000000 1 1 0
1  7 0 0.000000000000000 429.963323984236922
2  12 3 7 0.000000000000000 429.963323984236922
2  13 3 8 0.000000000000000 429.963323984236922
0

0101000
+22 0 -17 0 *
Wi

0101100
+21 0 -16 0 -15 4 +15 6 *
Fa
0  0.000000100000000 3 0

0111000
+14 0 *
Ve
0.000000100000000
4776.000000000000000 -1554.000000000000000 0.000000000000000
0 0

0101101
*
Ed
 0.000000100000000 1 1 0
1  8 0 0.000000000000000 50.000000000000000
2  14 4 0 0.000000000000000 50.000000000000000
0

0101000
+12 4 -12 6 *
Ed
 0.000000100000000 1 1 0
1  9 0 0.000000000000000 288.999999999998408
2  15 4 7 0.000000000000000 288.999999999998408
2  16 4 8 0.000000000000000 288.999999999998408
0

0101000
+17 0 -12 0 *
Wi

0101100
+16 0 -11 0 -10 4 +10 6 *
Fa
0  0.000000100000000 4 0

0111000
+9 0 *
Ed
 0.000000100000000 1 1 0
1  10 0 0.000000000000000 1155.101717948012265
0

0101000
+12 0 -29 0 *
Wi

0101100
+11 0 -28 0 -7 4 +7 6 *
Fa
0  0.000000100000000 5 0

0111000
+6 0 *
Wi

0101100
+25 0 +20 0 +15 0 +10 0 +7 0 *
Fa
0  0.000000100000000 6 0

0111000
+4 10 *
Sh

0101100
+23 0 +18 0 +13 0 +8 0 +5 0 +3 9 -3 11 *
So

1100000
+2 0 *

+1 0 