
CASCADE Topology V1, (c) Matra-Datavision
Locations 12
1
1.000000000000000 0.000000000000000 0.000000000000000 0.000000000000000 
0.000000000000000 1.000000000000000 0.000000000000000 0.000000000000000 
0.000000000000000 0.000000000000000 1.000000000000000 0.000000000000000 
1
1.000000000000000 0.000000000000000 0.000000000000000 0.000000000000000 
0.000000000000000 1.000000000000000 0.000000000000000 0.000000000000000 
0.000000000000000 0.000000000000000 1.000000000000000 0.000000000000000 
1
1.000000000000000 0.000000000000000 0.000000000000000 0.000000000000000 
0.000000000000000 1.000000000000000 0.000000000000000 0.000000000000000 
0.000000000000000 0.000000000000000 1.000000000000000 0.000000000000000 
1
1.000000000000000 0.000000000000000 0.000000000000000 0.000000000000000 
0.000000000000000 1.000000000000000 0.000000000000000 0.000000000000000 
0.000000000000000 0.000000000000000 1.000000000000000 0.000000000000000 
2  2 1 3 1 4 -1 0
1
1.000000000000000 0.000000000000000 0.000000000000000 -0.000000000000000 
0.000000000000000 1.000000000000000 0.000000000000000 -0.000000000000000 
0.000000000000000 0.000000000000000 1.000000000000000 -50.000000000000000 
2  2 1 3 1 4 -1 6 1 0
2  4 1 3 -1 2 -1 0
2  6 -1 4 1 3 -1 2 -1 0
2  4 -1 0
2  2 1 3 1 0
2  4 -1 6 1 0
Curve2ds 12
1 0.00000000000000000 0.00000000000000000 0.00000000000000000 -1.00000000000000000 
1 579.10980544585845564 0.00000000000000000 0.00000000000000000 -1.00000000000000000 
1 1053.23967163026190974 0.00000000000000000 0.00000000000000000 -1.00000000000000000 
1 0.00000000000000000 0.00000000000000000 1.00000000000000000 0.00000000000000000 
1 -0.00000000000000000 -50.00000000000000000 1.00000000000000000 0.00000000000000000 
1 0.00000000000000000 0.00000000000000000 0.00000000000000000 -1.00000000000000000 
1 0.00000000000000000 0.00000000000000000 0.00000000000000000 -1.00000000000000000 
1 1187.78591687753373662 0.00000000000000000 0.00000000000000000 -1.00000000000000000 
1 0.00000000000000000 0.00000000000000000 1.00000000000000000 0.00000000000000000 
1 0.00000000000000000 -50.00000000000000000 1.00000000000000000 0.00000000000000000 
1 0.00000000000000000 0.00000000000000000 1.00000000000000000 0.00000000000000000 
1 0.00000000000000000 -50.00000000000000000 1.00000000000000000 0.00000000000000000 
Curves 8
1 4776.00000000000000000 -1020.00000000000000000 0.00000000000000000 -0.00000000000000000 -0.00000000000000000 -1.00000000000000000 
1 3722.76032836973809026 -1020.00000000000648015 0.00000000000000000 -0.00000000000000000 -0.00000000000000000 -1.00000000000000000 
1 4776.00000000000000000 -1020.00000000000000000 0.00000000000000000 -1.00000000000000000 -0.00000000000000615 0.00000000000000000 
1 3722.76032836973809026 -1050.00000000000636646 0.00000000000000000 -0.00000000000000000 -0.00000000000000000 -1.00000000000000000 
1 3722.76032836973809026 -1020.00000000000648015 0.00000000000000000 0.00000000000000000 -1.00000000000000000 0.00000000000000000 
1 4776.00000000000000000 -1599.10980544585845564 0.00000000000000000 -0.00000000000000000 -0.00000000000000000 -1.00000000000000000 
1 3722.76032836973809026 -1050.00000000000636646 0.00000000000000000 0.88672517215815405 -0.46229694900690416 0.00000000000000000 
1 4776.00000000000000000 -1599.10980544585845564 0.00000000000000000 0.00000000000000000 1.00000000000000000 0.00000000000000000 
Polygon3D 0
PolygonOnTriangulations 0
Surfaces 5
1 4776.00000000000000000 -1020.00000000000000000 0.00000000000000000 -0.00000000000000615 1.00000000000000000 0.00000000000000000 -1.00000000000000000 -0.00000000000000615 0.00000000000000000 0.00000000000000000 0.00000000000000000 1.00000000000000000 
1 4776.00000000000000000 -1599.10980544585845564 0.00000000000000000 1.00000000000000000 0.00000000000000000 0.00000000000000000 -0.00000000000000000 1.00000000000000000 0.00000000000000000 0.00000000000000000 -0.00000000000000000 1.00000000000000000 
1 3722.76032836973809026 -1020.00000000000648015 0.00000000000000000 -1.00000000000000000 0.00000000000000000 0.00000000000000000 0.00000000000000000 -1.00000000000000000 0.00000000000000000 0.00000000000000000 0.00000000000000000 1.00000000000000000 
1 3722.76032836973809026 -1050.00000000000636646 0.00000000000000000 -0.46229694900690416 -0.88672517215815405 0.00000000000000000 0.88672517215815405 -0.46229694900690416 0.00000000000000000 0.00000000000000000 0.00000000000000000 1.00000000000000000 
1 4350.83924441026192653 -1205.91401267328592439 0.00000000000000000 0.00000000000000000 0.00000000000000000 1.00000000000000000 1.00000000000000000 0.00000000000000000 -0.00000000000000000 -0.00000000000000000 1.00000000000000000 0.00000000000000000 
Triangulations 0

TShapes 24
Ve
0.000000100000000
4776.000000000000000 -1020.000000000000000 0.000000000000000
0 0

0101101
*
Ed
 0.000000100000000 1 1 0
1  1 0 0.000000000000000 50.000000000000000
2  1 1 0 0.000000000000000 50.000000000000000
2  2 2 0 0.000000000000000 50.000000000000000
0

0101000
+24 5 -24 7 *
Ve
0.000000100000000
3722.760328369738090 -1020.000000000006480 0.000000000000000
0 0

0101101
*
Ed
 0.000000100000000 1 1 0
1  2 0 0.000000000000000 50.000000000000000
2  3 1 0 0.000000000000000 50.000000000000000
0

0101000
+22 5 -22 7 *
Ed
 0.000000100000000 1 1 0
1  3 0 0.000000000000000 1053.239671630261910
2  4 1 8 0.000000000000000 1053.239671630261910
2  5 1 9 0.000000000000000 1053.239671630261910
0

0101000
+24 0 -22 0 *
Wi

0101100
+23 0 -21 0 -20 5 +20 7 *
Fa
0  0.000000100000000 1 0

0111000
+19 0 *
Ve
0.000000100000000
3722.760328369738090 -1050.000000000006366 0.000000000000000
0 0

0101101
*
Ed
 0.000000100000000 1 1 0
1  4 0 0.000000000000000 50.000000000000000
2  6 4 0 0.000000000000000 50.000000000000000
0

0101000
+17 5 -17 7 *
Ed
 0.000000100000000 1 1 0
1  5 0 0.000000000000000 29.999999999999886
0

0101000
+22 0 -17 0 *
Wi

0101100
+21 0 -16 0 -15 5 +15 7 *
Fa
0  0.000000100000000 3 0

0111000
+14 0 *
Ve
0.000000100000000
4776.000000000000000 -1599.109805445858456 0.000000000000000
0 0

0101101
*
Ed
 0.000000100000000 1 1 0
1  6 0 0.000000000000000 50.000000000000000
2  7 2 0 0.000000000000000 50.000000000000000
2  8 4 0 0.000000000000000 50.000000000000000
0

0101000
+12 5 -12 7 *
Ed
 0.000000100000000 1 1 0
1  7 0 0.000000000000000 1187.785916877533737
2  9 4 8 0.000000000000000 1187.785916877533737
2  10 4 9 0.000000000000000 1187.785916877533737
0

0101000
+17 0 -12 0 *
Wi

0101100
+16 0 -11 0 -10 5 +10 7 *
Fa
0  0.000000100000000 4 0

0111000
+9 0 *
Ed
 0.000000100000000 1 1 0
1  8 0 0.000000000000000 579.109805445858456
2  11 2 8 0.000000000000000 579.109805445858456
2  12 2 9 0.000000000000000 579.109805445858456
0

0101000
+12 0 -24 0 *
Wi

0101100
+11 0 -23 0 -7 5 +7 7 *
Fa
0  0.000000100000000 2 0

0111000
+6 0 *
Wi

0101100
+20 0 +15 0 +10 0 +7 0 *
Fa
0  0.000000100000000 5 0

0111000
+4 11 *
Sh

0101100
+18 0 +13 0 +8 0 +5 0 +3 10 -3 12 *
So

1100000
+2 0 *

+1 1 