
CASCADE Topology V1, (c) Matra-Datavision
Locations 14
1
1.000000000000000 0.000000000000000 0.000000000000000 0.000000000000000 
0.000000000000000 1.000000000000000 0.000000000000000 0.000000000000000 
0.000000000000000 0.000000000000000 1.000000000000000 4952.667000000000371 
1
1.000000000000000 0.000000000000000 0.000000000000000 0.000000000000000 
0.000000000000000 1.000000000000000 0.000000000000000 0.000000000000000 
0.000000000000000 0.000000000000000 1.000000000000000 0.000000000000000 
2  2 -1 0
1
1.000000000000000 0.000000000000000 0.000000000000000 0.000000000000000 
0.000000000000000 1.000000000000000 0.000000000000000 0.000000000000000 
0.000000000000000 0.000000000000000 1.000000000000000 0.000000000000000 
1
1.000000000000000 0.000000000000000 0.000000000000000 0.000000000000000 
0.000000000000000 1.000000000000000 0.000000000000000 0.000000000000000 
0.000000000000000 0.000000000000000 1.000000000000000 0.000000000000000 
1
1.000000000000000 0.000000000000000 0.000000000000000 0.000000000000000 
0.000000000000000 1.000000000000000 0.000000000000000 0.000000000000000 
0.000000000000000 0.000000000000000 1.000000000000000 0.000000000000000 
2  4 1 5 1 6 -1 0
2  2 -1 6 1 5 -1 4 -1 0
1
1.000000000000000 0.000000000000000 0.000000000000000 -0.000000000000000 
0.000000000000000 1.000000000000000 0.000000000000000 -0.000000000000000 
0.000000000000000 0.000000000000000 1.000000000000000 -50.000000000000000 
2  4 1 5 1 6 -1 9 1 0
2  2 -1 9 -1 6 1 5 -1 4 -1 0
2  6 -1 0
2  4 1 5 1 0
2  6 -1 9 1 0
Curve2ds 0
Curves 24
1 1089.00000000000000000 213.00000000000000000 0.00000000000000000 -0.00000000000000000 -0.00000000000000000 -1.00000000000000000 
1 27.00000000000000000 213.00000000000000000 0.00000000000000000 -0.00000000000000000 -0.00000000000000000 -1.00000000000000000 
1 1089.00000000000000000 213.00000000000000000 0.00000000000000000 -1.00000000000000000 0.00000000000000000 0.00000000000000000 
1 1089.00000000000000000 213.00000000000000000 0.00000000000000000 -1.00000000000000000 0.00000000000000000 0.00000000000000000 
1 27.00000000000000000 -1843.00000000000000000 0.00000000000000000 -0.00000000000000000 -0.00000000000000000 -1.00000000000000000 
1 27.00000000000000000 213.00000000000000000 0.00000000000000000 0.00000000000000000 -1.00000000000000000 0.00000000000000000 
1 27.00000000000000000 213.00000000000000000 0.00000000000000000 0.00000000000000000 -1.00000000000000000 0.00000000000000000 
1 1114.32780929852970075 -1843.00000000000000000 0.00000000000000000 -0.00000000000000000 -0.00000000000000000 -1.00000000000000000 
1 27.00000000000000000 -1843.00000000000000000 0.00000000000000000 1.00000000000000000 0.00000000000000000 0.00000000000000000 
1 27.00000000000000000 -1843.00000000000000000 0.00000000000000000 1.00000000000000000 0.00000000000000000 0.00000000000000000 
1 1114.32780929852970075 -973.00000000000000000 0.00000000000000000 -0.00000000000000000 -0.00000000000000000 -1.00000000000000000 
1 1114.32780929852970075 -1843.00000000000000000 0.00000000000000000 0.00000000000000000 1.00000000000000000 0.00000000000000000 
1 1114.32780929852970075 -1843.00000000000000000 0.00000000000000000 0.00000000000000000 1.00000000000000000 0.00000000000000000 
1 1027.00000000000000000 -973.00000000000000000 0.00000000000000000 -0.00000000000000000 -0.00000000000000000 -1.00000000000000000 
1 1114.32780929852970075 -973.00000000000000000 0.00000000000000000 -1.00000000000000000 0.00000000000000000 0.00000000000000000 
1 1114.32780929852970075 -973.00000000000000000 0.00000000000000000 -1.00000000000000000 0.00000000000000000 0.00000000000000000 
1 1027.00000000000000000 -787.00000000000000000 0.00000000000000000 -0.00000000000000000 -0.00000000000000000 -1.00000000000000000 
1 1027.00000000000000000 -973.00000000000000000 0.00000000000000000 0.00000000000000000 1.00000000000000000 0.00000000000000000 
1 1027.00000000000000000 -973.00000000000000000 0.00000000000000000 0.00000000000000000 1.00000000000000000 0.00000000000000000 
1 1089.00000000000000000 -787.00000000000079581 0.00000000000000000 -0.00000000000000000 -0.00000000000000000 -1.00000000000000000 
1 1027.00000000000000000 -787.00000000000000000 0.00000000000000000 1.00000000000000000 -0.00000000000001284 0.00000000000000000 
1 1027.00000000000000000 -787.00000000000000000 0.00000000000000000 1.00000000000000000 -0.00000000000001284 0.00000000000000000 
1 1089.00000000000000000 213.00000000000000000 0.00000000000000000 0.00000000000000000 -1.00000000000000000 0.00000000000000000 
1 1089.00000000000000000 213.00000000000000000 0.00000000000000000 0.00000000000000000 -1.00000000000000000 0.00000000000000000 
Polygon3D 0
PolygonOnTriangulations 0
Surfaces 10
1 1089.00000000000000000 213.00000000000000000 0.00000000000000000 0.00000000000000000 1.00000000000000000 0.00000000000000000 -1.00000000000000000 0.00000000000000000 0.00000000000000000 0.00000000000000000 -0.00000000000000000 1.00000000000000000 
1 27.00000000000000000 213.00000000000000000 0.00000000000000000 -1.00000000000000000 0.00000000000000000 0.00000000000000000 0.00000000000000000 -1.00000000000000000 0.00000000000000000 0.00000000000000000 0.00000000000000000 1.00000000000000000 
1 27.00000000000000000 -1843.00000000000000000 0.00000000000000000 0.00000000000000000 -1.00000000000000000 0.00000000000000000 1.00000000000000000 0.00000000000000000 0.00000000000000000 -0.00000000000000000 0.00000000000000000 1.00000000000000000 
1 1114.32780929852970075 -1843.00000000000000000 0.00000000000000000 1.00000000000000000 0.00000000000000000 0.00000000000000000 -0.00000000000000000 1.00000000000000000 0.00000000000000000 0.00000000000000000 -0.00000000000000000 1.00000000000000000 
1 1114.32780929852970075 -973.00000000000000000 0.00000000000000000 0.00000000000000000 1.00000000000000000 0.00000000000000000 -1.00000000000000000 0.00000000000000000 0.00000000000000000 0.00000000000000000 -0.00000000000000000 1.00000000000000000 
1 1027.00000000000000000 -973.00000000000000000 0.00000000000000000 1.00000000000000000 0.00000000000000000 0.00000000000000000 -0.00000000000000000 1.00000000000000000 0.00000000000000000 0.00000000000000000 -0.00000000000000000 1.00000000000000000 
1 1027.00000000000000000 -787.00000000000000000 0.00000000000000000 -0.00000000000001284 -1.00000000000000000 0.00000000000000000 1.00000000000000000 -0.00000000000001284 0.00000000000000000 0.00000000000000000 0.00000000000000000 1.00000000000000000 
1 1089.00000000000000000 213.00000000000000000 0.00000000000000000 -1.00000000000000000 0.00000000000000000 0.00000000000000000 0.00000000000000000 -1.00000000000000000 0.00000000000000000 0.00000000000000000 0.00000000000000000 1.00000000000000000 
1 573.60570890727672122 -820.94303985344879493 0.00000000000000000 0.00000000000000000 0.00000000000000000 1.00000000000000000 1.00000000000000000 0.00000000000000000 -0.00000000000000000 -0.00000000000000000 1.00000000000000000 0.00000000000000000 
1 573.60570890727672122 -820.94303985344879493 0.00000000000000000 0.00000000000000000 0.00000000000000000 1.00000000000000000 1.00000000000000000 0.00000000000000000 -0.00000000000000000 -0.00000000000000000 1.00000000000000000 0.00000000000000000 
Triangulations 0

TShapes 62
Ve
0.000000100000000
1089.000000000000000 213.000000000000000 0.000000000000000
0 0

0101101
*
Ve
0.000000100000000
1089.000000000000000 213.000000000000000 -50.000000000000000
0 0

0101101
*
Ed
 0.000000100000000 1 1 0
1  1 0 0.000000000000000 50.000000000000000
0

0101000
+62 3 -61 3 *
Ve
0.000000100000000
27.000000000000000 213.000000000000000 0.000000000000000
0 0

0101101
*
Ve
0.000000100000000
27.000000000000000 213.000000000000000 -50.000000000000000
0 0

0101101
*
Ed
 0.000000100000000 1 1 0
1  2 0 0.000000000000000 50.000000000000000
0

0101000
+59 3 -58 3 *
Ed
 0.000000100000000 1 1 0
1  3 0 0.000000000000000 1062.000000000000000
0

0101000
+62 8 -59 8 *
Ed
 0.000000100000000 1 1 0
1  4 0 0.000000000000000 1062.000000000000000
0

0101000
+61 11 -58 11 *
Wi

0101100
+60 0 -57 0 -56 7 +55 10 *
Fa
0  0.000000100000000 1 0

0111000
+54 0 *
Ve
0.000000100000000
27.000000000000000 -1843.000000000000000 0.000000000000000
0 0

0101101
*
Ve
0.000000100000000
27.000000000000000 -1843.000000000000000 -50.000000000000000
0 0

0101101
*
Ed
 0.000000100000000 1 1 0
1  5 0 0.000000000000000 50.000000000000000
0

0101000
+52 3 -51 3 *
Ed
 0.000000100000000 1 1 0
1  6 0 0.000000000000000 2056.000000000000000
0

0101000
+59 8 -52 8 *
Ed
 0.000000100000000 1 1 0
1  7 0 0.000000000000000 2056.000000000000000
0

0101000
+58 11 -51 11 *
Wi

0101100
+57 0 -50 0 -49 7 +48 10 *
Fa
0  0.000000100000000 2 0

0111000
+47 0 *
Ve
0.000000100000000
1114.327809298529701 -1843.000000000000000 0.000000000000000
0 0

0101101
*
Ve
0.000000100000000
1114.327809298529701 -1843.000000000000000 -50.000000000000000
0 0

0101101
*
Ed
 0.000000100000000 1 1 0
1  8 0 0.000000000000000 50.000000000000000
0

0101000
+45 3 -44 3 *
Ed
 0.000000100000000 1 1 0
1  9 0 0.000000000000000 1087.327809298529701
0

0101000
+52 8 -45 8 *
Ed
 0.000000100000000 1 1 0
1  10 0 0.000000000000000 1087.327809298529701
0

0101000
+51 11 -44 11 *
Wi

0101100
+50 0 -43 0 -42 7 +41 10 *
Fa
0  0.000000100000000 3 0

0111000
+40 0 *
Ve
0.000000100000000
1114.327809298529701 -973.000000000000000 0.000000000000000
0 0

0101101
*
Ve
0.000000100000000
1114.327809298529701 -973.000000000000000 -50.000000000000000
0 0

0101101
*
Ed
 0.000000100000000 1 1 0
1  11 0 0.000000000000000 50.000000000000000
0

0101000
+38 3 -37 3 *
Ed
 0.000000100000000 1 1 0
1  12 0 0.000000000000000 870.000000000000000
0

0101000
+45 8 -38 8 *
Ed
 0.000000100000000 1 1 0
1  13 0 0.000000000000000 870.000000000000000
0

0101000
+44 11 -37 11 *
Wi

0101100
+43 0 -36 0 -35 7 +34 10 *
Fa
0  0.000000100000000 4 0

0111000
+33 0 *
Ve
0.000000100000000
1027.000000000000000 -973.000000000000000 0.000000000000000
0 0

0101101
*
Ve
0.000000100000000
1027.000000000000000 -973.000000000000000 -50.000000000000000
0 0

0101101
*
Ed
 0.000000100000000 1 1 0
1  14 0 0.000000000000000 50.000000000000000
0

0101000
+31 3 -30 3 *
Ed
 0.000000100000000 1 1 0
1  15 0 0.000000000000000 87.327809298529701
0

0101000
+38 8 -31 8 *
Ed
 0.000000100000000 1 1 0
1  16 0 0.000000000000000 87.327809298529701
0

0101000
+37 11 -30 11 *
Wi

0101100
+36 0 -29 0 -28 7 +27 10 *
Fa
0  0.000000100000000 5 0

0111000
+26 0 *
Ve
0.000000100000000
1027.000000000000000 -787.000000000000000 0.000000000000000
0 0

0101101
*
Ve
0.000000100000000
1027.000000000000000 -787.000000000000000 -50.000000000000000
0 0

0101101
*
Ed
 0.000000100000000 1 1 0
1  17 0 0.000000000000000 50.000000000000000
0

0101000
+24 3 -23 3 *
Ed
 0.000000100000000 1 1 0
1  18 0 0.000000000000000 186.000000000000000
0

0101000
+31 8 -24 8 *
Ed
 0.000000100000000 1 1 0
1  19 0 0.000000000000000 186.000000000000000
0

0101000
+30 11 -23 11 *
Wi

0101100
+29 0 -22 0 -21 7 +20 10 *
Fa
0  0.000000100000000 6 0

0111000
+19 0 *
Ve
0.000000100000000
1089.000000000000000 -787.000000000000796 0.000000000000000
0 0

0101101
*
Ve
0.000000100000000
1089.000000000000000 -787.000000000000796 -50.000000000000000
0 0

0101101
*
Ed
 0.000000100000000 1 1 0
1  20 0 0.000000000000000 50.000000000000000
0

0101000
+17 3 -16 3 *
Ed
 0.000000100000000 1 1 0
1  21 0 0.000000000000000 62.000000000000000
0

0101000
+24 8 -17 8 *
Ed
 0.000000100000000 1 1 0
1  22 0 0.000000000000000 62.000000000000000
0

0101000
+23 11 -16 11 *
Wi

0101100
+22 0 -15 0 -14 7 +13 10 *
Fa
0  0.000000100000000 7 0

0111000
+12 0 *
Ed
 0.000000100000000 1 1 0
1  23 0 0.000000000000000 1000.000000000000796
0

0101000
+62 8 -17 8 *
Ed
 0.000000100000000 1 1 0
1  24 0 0.000000000000000 1000.000000000000796
0

0101000
+61 11 -16 11 *
Wi

0101100
+60 0 -15 0 -10 7 +9 10 *
Fa
0  0.000000100000000 8 0

0111000
+8 0 *
Wi

0101100
+56 0 +49 0 +42 0 +35 0 +28 0 +21 0 +14 0 -10 0 *
Fa
0  0.000000100000000 9 0

0111000
+6 13 *
Wi

0101100
+55 0 +48 0 +41 0 +34 0 +27 0 +20 0 +13 0 -9 0 *
Fa
0  0.000000100000000 10 0

0111000
+4 13 *
Sh

0101100
+53 0 +46 0 +39 0 +32 0 +25 0 +18 0 +11 0 -7 0 +5 12 -3 14 
*
So

0100000
+2 0 *

+1 1 