
CASCADE Topology V1, (c) Matra-Datavision
Locations 14
1
1.000000000000000 0.000000000000000 0.000000000000000 0.000000000000000 
0.000000000000000 1.000000000000000 0.000000000000000 0.000000000000000 
0.000000000000000 0.000000000000000 1.000000000000000 0.000000000000000 
1
0.000000000000000 0.000000000000000 1.000000000000000 3681.000000000000455 
1.000000000000000 0.000000000000000 0.000000000000000 0.000000000000000 
0.000000000000000 1.000000000000000 0.000000000000000 0.000000000000000 
1
1.000000000000000 0.000000000000000 0.000000000000000 0.000000000000000 
0.000000000000000 1.000000000000000 0.000000000000000 0.000000000000000 
0.000000000000000 0.000000000000000 1.000000000000000 0.000000000000000 
2  1 1 2 1 3 -1 0
1
1.000000000000000 0.000000000000000 0.000000000000000 -5.000000000000000 
0.000000000000000 1.000000000000000 0.000000000000000 -0.000000000000000 
0.000000000000000 0.000000000000000 1.000000000000000 -0.000000000000000 
2  1 1 2 1 3 -1 5 1 0
2  3 1 2 -1 1 -1 0
2  5 -1 3 1 2 -1 1 -1 0
2  2 -1 1 -1 0
1
1.000000000000000 0.000000000000000 0.000000000000000 0.000000000000000 
0.000000000000000 1.000000000000000 0.000000000000000 0.000000000000000 
0.000000000000000 0.000000000000000 1.000000000000000 0.000000000000000 
2  10 1 2 -1 1 -1 0
2  3 -1 0
2  1 1 2 1 0
2  3 -1 5 1 0
Curve2ds 12
1 0.00000000000000000 0.00000000000000000 0.00000000000000000 -1.00000000000000000 
1 6.28318530717958623 0.00000000000000000 0.00000000000000000 -1.00000000000000000 
1 0.00000000000000000 0.00000000000000000 1.00000000000000000 0.00000000000000000 
1 0.00000000000000000 -5.00000000000000000 1.00000000000000000 0.00000000000000000 
2 -0.00000000000022737 -0.00000000000000355 1.00000000000000000 -0.00000000000000000 0.00000000000000000 1.00000000000000000 5.00000000000000000
2 80.00000000000000000 -25.00000000000000000 1.00000000000000000 0.00000000000000000 -0.00000000000000000 1.00000000000000000 5.00000000000000000
1 0.00000000000000000 0.00000000000000000 0.00000000000000000 -1.00000000000000000 
1 6.28318530717958623 0.00000000000000000 0.00000000000000000 -1.00000000000000000 
1 0.00000000000000000 0.00000000000000000 1.00000000000000000 0.00000000000000000 
1 0.00000000000000000 -5.00000000000000000 1.00000000000000000 0.00000000000000000 
2 -0.00000000000011369 -0.00000000000000355 1.00000000000000000 -0.00000000000000000 0.00000000000000000 1.00000000000000000 5.00000000000000000
2 423.26801004711433052 -25.00000000000000000 1.00000000000000000 0.00000000000000000 -0.00000000000000000 1.00000000000000000 5.00000000000000000
Curves 4
1 3681.00000000000045475 -1315.26801004711433052 -25.00000000000000000 -1.00000000000000000 -0.00000000000000000 -0.00000000000000000 
2 -1320.26801004711433052 -25.00000000000000000 0.00000000000000000 0.00000000000000000 0.00000000000000000 1.00000000000000000 1.00000000000000000 0.00000000000000000 -0.00000000000000000 -0.00000000000000000 1.00000000000000000 0.00000000000000000 5.00000000000000000
1 3681.00000000000045475 -972.00000000000000000 -25.00000000000000000 -1.00000000000000000 -0.00000000000000000 -0.00000000000000000 
2 -977.00000000000000000 -25.00000000000000000 0.00000000000000000 0.00000000000000000 0.00000000000000000 1.00000000000000000 1.00000000000000000 0.00000000000000000 -0.00000000000000000 -0.00000000000000000 1.00000000000000000 0.00000000000000000 5.00000000000000000
Polygon3D 0
PolygonOnTriangulations 0
Surfaces 5
2 3681.00000000000045475 -1320.26801004711433052 -25.00000000000000000 1.00000000000000000 0.00000000000000000 0.00000000000000000 -0.00000000000000000 1.00000000000000000 0.00000000000000000 0.00000000000000000 -0.00000000000000000 1.00000000000000000 5.00000000000000000
1 3681.00000000000000000 -1320.26801004711410314 -24.99999999999999645 1.00000000000000000 0.00000000000000000 0.00000000000000000 -0.00000000000000000 1.00000000000000000 0.00000000000000000 0.00000000000000000 -0.00000000000000000 1.00000000000000000 
1 3681.00000000000045475 -1400.26801004711433052 0.00000000000000000 1.00000000000000000 0.00000000000000000 0.00000000000000000 -0.00000000000000000 1.00000000000000000 0.00000000000000000 0.00000000000000000 -0.00000000000000000 1.00000000000000000 
2 3681.00000000000045475 -977.00000000000000000 -25.00000000000000000 1.00000000000000000 0.00000000000000000 0.00000000000000000 -0.00000000000000000 1.00000000000000000 0.00000000000000000 0.00000000000000000 -0.00000000000000000 1.00000000000000000 5.00000000000000000
1 3681.00000000000000000 -976.99999999999988631 -24.99999999999999645 1.00000000000000000 0.00000000000000000 0.00000000000000000 -0.00000000000000000 1.00000000000000000 0.00000000000000000 0.00000000000000000 -0.00000000000000000 1.00000000000000000 
Triangulations 0

TShapes 19
Ve
0.000000100000000
-1315.268010047114331 -25.000000000000000 0.000000000000000
0 0

0101101
*
Ed
 0.000000100000000 1 1 0
1  1 0 0.000000000000000 5.000000000000000
3  1 2CN 1 0 0.000000000000000 5.000000000000000
0

0101000
+19 4 -19 6 *
Ed
 0.000000100000000 1 1 0
1  2 0 0.000000000000000 6.283185307179586
2  3 1 7 0.000000000000000 6.283185307179586
2  4 1 8 0.000000000000000 6.283185307179586
2  5 2 9 0.000000000000000 6.283185307179586
2  6 3 11 0.000000000000000 6.283185307179586
0

0101000
+19 0 -19 0 *
Wi

0101100
+18 0 -18 0 -17 4 +17 6 *
Fa
0  0.000000100000000 1 0

0111000
+16 0 *
Wi

0101100
+17 0 *
Fa
0  0.000000100000000 2 0

0111000
+14 13 *
Sh

0101100
+15 0 +13 12 -13 14 *
So

0100000
+12 0 *
Ve
0.000000100000000
-972.000000000000000 -25.000000000000000 0.000000000000000
0 0

0101101
*
Ed
 0.000000100000000 1 1 0
1  3 0 0.000000000000000 5.000000000000000
3  7 8CN 4 0 0.000000000000000 5.000000000000000
0

0101000
+10 4 -10 6 *
Ed
 0.000000100000000 1 1 0
1  4 0 0.000000000000000 6.283185307179586
2  9 4 7 0.000000000000000 6.283185307179586
2  10 4 8 0.000000000000000 6.283185307179586
2  11 5 9 0.000000000000000 6.283185307179586
2  12 3 11 0.000000000000000 6.283185307179586
0

0101000
+10 0 -10 0 *
Wi

0101100
+9 0 -9 0 -8 4 +8 6 *
Fa
0  0.000000100000000 4 0

0111000
+7 0 *
Wi

0101100
+8 0 *
Fa
0  0.000000100000000 5 0

0111000
+5 13 *
Sh

0101100
+6 0 +4 12 -4 14 *
So

0100000
+3 0 *
Co

0100000
+11 0 +2 0 *

+1 0 