
CASCADE Topology V1, (c) Matra-Datavision
Locations 19
1
1.000000000000000 0.000000000000000 0.000000000000000 0.000000000000000 
0.000000000000000 1.000000000000000 0.000000000000000 0.000000000000000 
0.000000000000000 0.000000000000000 1.000000000000000 0.000000000000000 
1
0.000000000000001 0.000000000000001 -1.000000000000000 -0.000000000001330 
1.000000000000000 -0.000000000000000 0.000000000000001 0.000000000000000 
-0.000000000000000 -1.000000000000000 -0.000000000000001 -0.000000000000000 
1
-0.000000000000000 0.000000000000000 1.000000000000000 0.000000000000000 
1.000000000000000 -0.000000000000000 0.000000000000000 0.000000000000000 
0.000000000000000 1.000000000000000 -0.000000000000000 0.000000000000000 
2  1 1 2 1 3 -1 0
1
1.000000000000000 0.000000000000000 0.000000000000000 -0.000000000002475 
0.000000000000000 1.000000000000000 0.000000000000000 0.000000000001650 
0.000000000000000 0.000000000000000 1.000000000000000 2476.746098197758783 
2  1 1 2 1 3 -1 5 1 0
2  3 1 2 -1 1 -1 0
2  5 -1 3 1 2 -1 1 -1 0
2  2 -1 1 -1 0
1
-0.000000000000000 0.000000000000000 1.000000000000000 0.000000000000000 
1.000000000000000 -0.000000000000000 0.000000000000000 0.000000000000000 
0.000000000000000 1.000000000000000 -0.000000000000000 0.000000000000000 
1
0.000000000000000 -0.000000000000000 1.000000000000000 0.000000000000000 
1.000000000000000 0.000000000000000 0.000000000000000 0.000000000000000 
-0.000000000000000 1.000000000000000 0.000000000000000 0.000000000000000 
1
-0.000000000000000 0.000000000000000 1.000000000000000 0.000000000000000 
1.000000000000000 -0.000000000000000 0.000000000000000 0.000000000000000 
0.000000000000000 1.000000000000000 -0.000000000000000 0.000000000000000 
1
0.000000000000000 -0.000000000000000 1.000000000000000 0.000000000000000 
1.000000000000000 0.000000000000000 0.000000000000000 0.000000000000000 
-0.000000000000000 1.000000000000000 0.000000000000000 0.000000000000000 
1
-0.000000000000000 0.000000000000000 1.000000000000000 0.000000000000000 
1.000000000000000 -0.000000000000000 0.000000000000000 0.000000000000000 
0.000000000000000 1.000000000000000 -0.000000000000000 0.000000000000000 
1
0.000000000000000 -0.000000000000000 1.000000000000000 0.000000000000000 
1.000000000000000 0.000000000000000 0.000000000000000 0.000000000000000 
-0.000000000000000 1.000000000000000 0.000000000000000 0.000000000000000 
2  10 -1 11 1 12 -1 13 1 14 -1 15 1 2 -1 1 -1 0
2  3 -1 0
2  1 1 2 1 0
2  3 -1 5 1 0
Curve2ds 12
1 0.00000000000000000 0.00000000000000000 0.00000000000000000 -1.00000000000000000 
1 6.28318530717958623 0.00000000000000000 0.00000000000000000 -1.00000000000000000 
1 0.00000000000000000 0.00000000000000000 1.00000000000000000 0.00000000000000000 
1 0.00000000000000000 -2476.74609819775878350 1.00000000000000000 0.00000000000000000 
2 -0.00000000000022737 0.00000000000000000 -1.00000000000000000 -0.00000000000000017 0.00000000000000017 -1.00000000000000000 5.00000000000000000
2 29.31305360567648677 421.86785488954546963 0.00000000000000017 -1.00000000000000000 -1.00000000000000000 -0.00000000000000017 5.00000000000000000
1 0.00000000000000000 0.00000000000000000 0.00000000000000000 -1.00000000000000000 
1 6.28318530717958623 0.00000000000000000 0.00000000000000000 -1.00000000000000000 
1 0.00000000000000000 0.00000000000000000 1.00000000000000000 0.00000000000000000 
1 0.00000000000000000 -2476.74609819775878350 1.00000000000000000 0.00000000000000000 
2 0.00000000000000000 0.00000000000000000 -1.00000000000000000 -0.00000000000000017 0.00000000000000017 -1.00000000000000000 5.00000000000000000
2 29.31305360567648677 361.86785488954546963 0.00000000000000017 -1.00000000000000000 -1.00000000000000000 -0.00000000000000017 5.00000000000000000
Curves 4
1 -1798.00000000000227374 3406.56403258783757337 -0.00000000000536393 -0.00000000000000100 0.00000000000000067 1.00000000000000000 
2 -1803.00000000000227374 -3406.56403258783575438 0.00000000000000000 0.00000000000000000 0.00000000000000000 1.00000000000000000 1.00000000000000000 0.00000000000000000 -0.00000000000000000 -0.00000000000000000 1.00000000000000000 0.00000000000000000 5.00000000000000000
1 -1738.00000000000227374 3406.56403258783711863 -0.00000000000532396 -0.00000000000000100 0.00000000000000067 1.00000000000000000 
2 -1743.00000000000227374 -3406.56403258783575438 0.00000000000000000 0.00000000000000000 0.00000000000000000 1.00000000000000000 1.00000000000000000 0.00000000000000000 -0.00000000000000000 -0.00000000000000000 1.00000000000000000 0.00000000000000000 5.00000000000000000
Polygon3D 0
PolygonOnTriangulations 0
Surfaces 5
2 -1803.00000000000227374 3406.56403258783757337 -0.00000000000536726 0.00000000000000067 -0.00000000000000083 -1.00000000000000000 1.00000000000000000 -0.00000000000000039 0.00000000000000067 -0.00000000000000039 -1.00000000000000000 0.00000000000000083 5.00000000000000000
1 -0.00000000000461085 -1803.00000000000204636 3406.56403258783620913 -1.00000000000000000 0.00000000000000067 -0.00000000000000061 -0.00000000000000067 -1.00000000000000000 0.00000000000000000 -0.00000000000000061 0.00000000000000000 1.00000000000000000 
1 -0.00000000000105657 -1381.13214511046066946 3377.25097898216108661 1.00000000000000000 -0.00000000000000022 0.00000000000000022 -0.00000000000000022 0.00000000000000000 1.00000000000000000 -0.00000000000000022 -1.00000000000000000 -0.00000000000000000 
2 -1743.00000000000227374 3406.56403258783711863 -0.00000000000532729 0.00000000000000067 -0.00000000000000083 -1.00000000000000000 1.00000000000000000 -0.00000000000000039 0.00000000000000067 -0.00000000000000039 -1.00000000000000000 0.00000000000000083 5.00000000000000000
1 -0.00000000000457088 -1743.00000000000181899 3406.56403258783620913 -1.00000000000000000 0.00000000000000067 -0.00000000000000061 -0.00000000000000067 -1.00000000000000000 0.00000000000000000 -0.00000000000000061 0.00000000000000000 1.00000000000000000 
Triangulations 0

TShapes 19
Ve
0.000000100000301
-1798.000000000002274 -3406.564032587835754 0.000000000000000
0 0

0101101
*
Ed
 0.000000100000000 1 1 0
1  1 0 0.000000000000000 2476.746098197758783
3  1 2CN 1 0 0.000000000000000 2476.746098197758783
0

0101000
+19 4 -19 6 *
Ed
 0.000000100000301 1 1 0
1  2 0 0.000000000000000 6.283185307179586
2  3 1 7 0.000000000000000 6.283185307179586
2  4 1 8 0.000000000000000 6.283185307179586
2  5 2 9 0.000000000000000 6.283185307179586
2  6 3 16 0.000000000000000 6.283185307179586
0

0101000
+19 0 -19 0 *
Wi

0101100
+18 0 -18 0 -17 4 +17 6 *
Fa
0  0.000000100000000 1 0

0111000
+16 0 *
Wi

0101100
+17 0 *
Fa
0  0.000000100000000 2 0

0111000
+14 18 *
Sh

0101100
+15 0 +13 17 -13 19 *
So

0100000
+12 0 *
Ve
0.000000100000274
-1738.000000000002274 -3406.564032587835754 0.000000000000000
0 0

0101101
*
Ed
 0.000000100000000 1 1 0
1  3 0 0.000000000000000 2476.746098197758783
3  7 8CN 4 0 0.000000000000000 2476.746098197758783
0

0101000
+10 4 -10 6 *
Ed
 0.000000100000274 1 1 0
1  4 0 0.000000000000000 6.283185307179586
2  9 4 7 0.000000000000000 6.283185307179586
2  10 4 8 0.000000000000000 6.283185307179586
2  11 5 9 0.000000000000000 6.283185307179586
2  12 3 16 0.000000000000000 6.283185307179586
0

0101000
+10 0 -10 0 *
Wi

0101100
+9 0 -9 0 -8 4 +8 6 *
Fa
0  0.000000100000000 4 0

0111000
+7 0 *
Wi

0101100
+8 0 *
Fa
0  0.000000100000000 5 0

0111000
+5 18 *
Sh

0101100
+6 0 +4 17 -4 19 *
So

0100000
+3 0 *
Co

1100000
+11 0 +2 0 *

+1 0 