
CASCADE Topology V1, (c) Matra-Datavision
Locations 30
1
1.000000000000000 0.000000000000000 0.000000000000000 0.000000000000000 
0.000000000000000 0.000000000000000 -1.000000000000000 0.000000000000000 
0.000000000000000 1.000000000000000 0.000000000000000 0.000000000000000 
1
1.000000000000000 0.000000000000000 0.000000000000000 0.000000000000000 
0.000000000000000 -0.000000000000000 -1.000000000000000 0.000000000000000 
0.000000000000000 1.000000000000000 -0.000000000000000 0.000000000000000 
1
1.000000000000000 0.000000000000000 0.000000000000000 0.000000000000000 
0.000000000000000 -0.000000000000000 -1.000000000000000 0.000000000000000 
0.000000000000000 1.000000000000000 -0.000000000000000 0.000000000000000 
2  2 1 3 -1 0
1
1.000000000000000 0.000000000000000 0.000000000000000 0.000000000000000 
0.000000000000000 1.000000000000000 0.000000000000000 0.000000000000000 
0.000000000000000 0.000000000000000 1.000000000000000 0.000000000000000 
1
1.000000000000000 0.000000000000000 0.000000000000000 0.000000000000000 
0.000000000000000 -0.000000000000000 -1.000000000000000 0.000000000000000 
0.000000000000000 1.000000000000000 -0.000000000000000 0.000000000000000 
1
1.000000000000000 0.000000000000000 0.000000000000000 0.000000000000000 
0.000000000000000 -0.000000000000000 -1.000000000000000 0.000000000000000 
0.000000000000000 1.000000000000000 -0.000000000000000 0.000000000000000 
2  5 1 6 1 7 -1 0
1
1.000000000000000 0.000000000000000 0.000000000000000 -0.000000000000000 
0.000000000000000 1.000000000000000 0.000000000000000 -0.000000000000000 
0.000000000000000 0.000000000000000 1.000000000000000 -15.000000000000000 
2  5 1 6 1 7 -1 9 1 0
2  6 -1 5 -1 0
2  7 -1 2 1 3 -1 0
2  5 1 6 1 7 -1 2 1 3 -1 0
2  7 1 6 -1 5 -1 0
2  9 -1 7 1 6 -1 5 -1 0
1
1.000000000000000 0.000000000000000 0.000000000000000 0.000000000000000 
0.000000000000000 1.000000000000000 0.000000000000000 0.000000000000000 
0.000000000000000 0.000000000000000 1.000000000000000 0.000000000000000 
1
1.000000000000000 0.000000000000000 -0.000000000000000 -0.000000000000000 
-0.000000000000000 0.000000000000000 -1.000000000000000 -0.000000000000000 
-0.000000000000000 1.000000000000000 0.000000000000000 -0.000000000000000 
2  16 1 17 1 2 -1 7 1 6 -1 5 -1 0
2  16 1 17 1 3 -1 0
2  3 1 17 -1 16 -1 0
1
1.000000000000000 0.000000000000000 0.000000000000000 -0.000000000000000 
0.000000000000000 1.000000000000000 0.000000000000000 0.000000000000000 
0.000000000000000 0.000000000000000 1.000000000000000 80.000000000000000 
2  21 -1 3 1 17 -1 16 -1 0
2  17 -1 16 -1 0
2  7 -1 2 1 17 -1 16 -1 0
2  7 -1 9 1 2 1 3 -1 0
2  5 1 6 1 0
2  5 1 6 1 7 -1 9 1 2 1 3 -1 0
2  16 1 17 1 3 -1 21 1 0
2  3 -1 21 1 0
2  16 1 17 1 0
Curve2ds 80
1 -560.36748769641872059 571.32247601598737674 0.55582821424383277 -0.83129717685705629 
1 0.00000000000000000 0.00000000000000000 0.00000000000000000 -1.00000000000000000 
1 -560.36748769641872059 571.32247601598737674 0.00000000000000000 1.00000000000000000 
1 0.00000000000000000 0.00000000000000000 0.00000000000000000 -1.00000000000000000 
1 348.96601230358101020 -788.67752398389256996 0.00000000000000000 -1.00000000000000000 
1 -560.36748769641872059 1547.35763721911780522 1.00000000000000000 -0.00000000000000000 
1 0.00000000000000000 0.00000000000000000 1.00000000000000000 0.00000000000000000 
1 0.00000000000000000 -15.00000000000000000 1.00000000000000000 0.00000000000000000 
1 0.00000000000000000 0.00000000000000000 1.00000000000000000 0.00000000000000000 
1 -0.00000000000000000 -80.00000000000000000 1.00000000000000000 0.00000000000000000 
1 -69.99999999999909051 7.50000000000000000 0.00000000000000000 -1.00000000000000000 
1 -480.36748769641872059 1547.35763721911780522 -0.00000000000000000 -1.00000000000000000 
1 -69.99999999999909051 -7.50000000000000000 1.00000000000000000 0.00000000000000000 
1 0.00000000000000000 0.00000000000000000 1.00000000000000000 0.00000000000000000 
1 0.00000000000000000 -80.00000000000000000 1.00000000000000000 0.00000000000000000 
1 -480.36748769641872059 1532.35763721911780522 1.00000000000000000 -0.00000000000000000 
1 0.00000000000000000 0.00000000000000000 1.00000000000000000 0.00000000000000000 
1 0.00000000000000000 -80.00000000000000000 1.00000000000000000 0.00000000000000000 
1 70.00000000000090949 -7.50000000000000000 0.00000000000000000 1.00000000000000000 
1 -340.36748769641872059 1532.35763721911780522 0.00000000000000000 1.00000000000000000 
1 -310.36748769641872059 1547.35763721911780522 0.00000000000000000 -1.00000000000000000 
1 598.96601230358101020 -712.79849390786193908 -0.55582821424383255 0.83129717685705640 
1 598.96601230358101020 -1535.64236278088219478 0.00000000000000000 1.00000000000000000 
1 348.96601230358101020 -1535.64236278088219478 1.00000000000000000 -0.00000000000000000 
1 0.00000000000000000 0.00000000000000000 1.00000000000000000 0.00000000000000000 
1 0.00000000000000000 -15.00000000000000000 1.00000000000000000 0.00000000000000000 
1 0.00000000000000000 0.00000000000000000 1.00000000000000000 0.00000000000000000 
1 0.00000000000000000 -15.00000000000000000 1.00000000000000000 0.00000000000000000 
2 202.09931230358142784 -433.64236278088219478 0.00000000000000000 1.00000000000000000 -1.00000000000000000 0.00000000000000000 5.00000000000000000
1 0.00000000000000000 0.00000000000000000 1.00000000000000000 0.00000000000000000 
1 0.00000000000000000 -15.00000000000000000 1.00000000000000000 0.00000000000000000 
2 202.09931230358142784 -281.64236278088219478 0.00000000000000000 1.00000000000000000 -1.00000000000000000 0.00000000000000000 5.00000000000000000
1 0.00000000000000000 0.00000000000000000 1.00000000000000000 0.00000000000000000 
1 0.00000000000000000 -15.00000000000000000 1.00000000000000000 0.00000000000000000 
2 20.23261230358093599 -161.64236278088219478 0.00000000000000000 1.00000000000000000 -1.00000000000000000 0.00000000000000000 5.00000000000000000
1 0.00000000000000000 0.00000000000000000 1.00000000000000000 0.00000000000000000 
1 0.00000000000000000 -15.00000000000000000 1.00000000000000000 0.00000000000000000 
2 20.23261230358093599 -9.64236278088219478 0.00000000000000000 1.00000000000000000 -1.00000000000000000 0.00000000000000000 5.00000000000000000
1 0.00000000000000000 0.00000000000000000 1.00000000000000000 0.00000000000000000 
1 0.00000000000000000 -15.00000000000000000 1.00000000000000000 0.00000000000000000 
2 -161.63408769641864637 110.35763721911780522 0.00000000000000000 1.00000000000000000 -1.00000000000000000 0.00000000000000000 5.00000000000000000
1 0.00000000000000000 0.00000000000000000 1.00000000000000000 0.00000000000000000 
1 0.00000000000000000 -15.00000000000000000 1.00000000000000000 0.00000000000000000 
2 -161.63408769641864637 262.35763721911780522 0.00000000000000000 1.00000000000000000 -1.00000000000000000 0.00000000000000000 5.00000000000000000
1 0.00000000000000000 0.00000000000000000 1.00000000000000000 0.00000000000000000 
1 0.00000000000000000 -15.00000000000000000 1.00000000000000000 0.00000000000000000 
2 -343.50078769641822873 382.35763721911780522 0.00000000000000000 1.00000000000000000 -1.00000000000000000 0.00000000000000000 5.00000000000000000
1 0.00000000000000000 0.00000000000000000 1.00000000000000000 0.00000000000000000 
1 0.00000000000000000 -15.00000000000000000 1.00000000000000000 0.00000000000000000 
2 -343.50078769641822873 534.35763721911780522 0.00000000000000000 1.00000000000000000 -1.00000000000000000 0.00000000000000000 5.00000000000000000
1 250.00000000000000000 0.00000000000000000 0.00000000000000000 -1.00000000000000000 
1 0.00000000000000000 0.00000000000000000 1.00000000000000000 0.00000000000000000 
1 0.00000000000000000 -80.00000000000000000 1.00000000000000000 0.00000000000000000 
1 70.00000000000090949 7.50000000000000000 -1.00000000000000000 0.00000000000000000 
1 -340.36748769641872059 1547.35763721911780522 -1.00000000000000000 0.00000000000000000 
1 250.00000000000000000 0.00000000000000000 0.00000000000000000 -1.00000000000000000 
1 0.00000000000000000 0.00000000000000000 0.00000000000000000 -1.00000000000000000 
1 140.00000000000000000 0.00000000000000000 0.00000000000000000 -1.00000000000000000 
1 15.00000000000000000 0.00000000000000000 0.00000000000000000 -1.00000000000000000 
1 0.00000000000000000 0.00000000000000000 0.00000000000000000 -1.00000000000000000 
1 0.00000000000000000 0.00000000000000000 0.00000000000000000 -1.00000000000000000 
1 140.00000000000000000 0.00000000000000000 0.00000000000000000 -1.00000000000000000 
1 15.00000000000000000 0.00000000000000000 0.00000000000000000 -1.00000000000000000 
1 0.00000000000000000 0.00000000000000000 0.00000000000000000 -1.00000000000000000 
1 0.00000000000000000 0.00000000000000000 0.00000000000000000 -1.00000000000000000 
1 6.28318530717958623 0.00000000000000000 0.00000000000000000 -1.00000000000000000 
1 0.00000000000000000 0.00000000000000000 0.00000000000000000 -1.00000000000000000 
1 6.28318530717958623 0.00000000000000000 0.00000000000000000 -1.00000000000000000 
1 0.00000000000000000 0.00000000000000000 0.00000000000000000 -1.00000000000000000 
1 6.28318530717958623 0.00000000000000000 0.00000000000000000 -1.00000000000000000 
1 0.00000000000000000 0.00000000000000000 0.00000000000000000 -1.00000000000000000 
1 6.28318530717958623 0.00000000000000000 0.00000000000000000 -1.00000000000000000 
1 0.00000000000000000 0.00000000000000000 0.00000000000000000 -1.00000000000000000 
1 6.28318530717958623 0.00000000000000000 0.00000000000000000 -1.00000000000000000 
1 0.00000000000000000 0.00000000000000000 0.00000000000000000 -1.00000000000000000 
1 6.28318530717958623 0.00000000000000000 0.00000000000000000 -1.00000000000000000 
1 0.00000000000000000 0.00000000000000000 0.00000000000000000 -1.00000000000000000 
1 6.28318530717958623 0.00000000000000000 0.00000000000000000 -1.00000000000000000 
1 0.00000000000000000 0.00000000000000000 0.00000000000000000 -1.00000000000000000 
1 6.28318530717958623 0.00000000000000000 0.00000000000000000 -1.00000000000000000 
Curves 40
1 2133.96483879686957152 5872.00050000000010186 0.00000000000000000 -0.00000000000000000 -0.00000000000000000 -1.00000000000000000 
1 773.96483879698962483 4962.66700000000037107 0.00000000000000000 -0.00000000000000000 -0.00000000000000000 -1.00000000000000000 
1 2133.96483879686957152 5872.00050000000010186 0.00000000000000000 -0.83129717685705629 -0.55582821424383277 0.00000000000000000 
1 3110.00000000000000000 5872.00050000000010186 0.00000000000000000 -0.00000000000000000 -0.00000000000000000 -1.00000000000000000 
1 2133.96483879686957152 5872.00050000000010186 0.00000000000000000 1.00000000000000000 0.00000000000000000 0.00000000000000000 
1 27.00000000000000000 4962.66700000000037107 0.00000000000000000 -0.00000000000000000 -0.00000000000000000 -1.00000000000000000 
1 773.96483879698962483 4962.66700000000037107 0.00000000000000000 -1.00000000000000000 0.00000000000000000 0.00000000000000000 
1 3110.00000000000000000 5872.00050000000010186 0.00000000000000000 0.00000000000000000 -1.00000000000000000 0.00000000000000000 
1 3110.00000000000000000 5792.00050000000010186 0.00000000000000000 -1.00000000000000000 0.00000000000000000 0.00000000000000000 
1 3095.00000000000000000 5792.00050000000010186 0.00000000000000000 0.00000000000000000 -1.00000000000000000 0.00000000000000000 
1 3095.00000000000000000 5652.00050000000010186 0.00000000000000000 1.00000000000000000 0.00000000000000000 0.00000000000000000 
1 3110.00000000000000000 5622.00050000000010186 0.00000000000000000 -1.00000000000000000 0.00000000000000000 0.00000000000000000 
1 849.84386887302025571 4712.66700000000037107 0.00000000000000000 0.83129717685705640 0.55582821424383255 0.00000000000000000 
1 27.00000000000000000 4712.66700000000037107 0.00000000000000000 1.00000000000000000 0.00000000000000000 0.00000000000000000 
1 27.00000000000000000 4962.66700000000037107 0.00000000000000000 0.00000000000000000 -1.00000000000000000 0.00000000000000000 
2 1129.00000000000000000 5109.53369999999995343 0.00000000000000000 0.00000000000000000 0.00000000000000000 1.00000000000000000 1.00000000000000000 0.00000000000000000 -0.00000000000000000 -0.00000000000000000 1.00000000000000000 0.00000000000000000 5.00000000000000000
2 1281.00000000000000000 5109.53369999999995343 0.00000000000000000 0.00000000000000000 0.00000000000000000 1.00000000000000000 1.00000000000000000 0.00000000000000000 -0.00000000000000000 -0.00000000000000000 1.00000000000000000 0.00000000000000000 5.00000000000000000
2 1401.00000000000000000 5291.40040000000044529 0.00000000000000000 0.00000000000000000 0.00000000000000000 1.00000000000000000 1.00000000000000000 0.00000000000000000 -0.00000000000000000 -0.00000000000000000 1.00000000000000000 0.00000000000000000 5.00000000000000000
2 1553.00000000000000000 5291.40040000000044529 0.00000000000000000 0.00000000000000000 0.00000000000000000 1.00000000000000000 1.00000000000000000 0.00000000000000000 -0.00000000000000000 -0.00000000000000000 1.00000000000000000 0.00000000000000000 5.00000000000000000
2 1673.00000000000000000 5473.26710000000002765 0.00000000000000000 0.00000000000000000 0.00000000000000000 1.00000000000000000 1.00000000000000000 0.00000000000000000 -0.00000000000000000 -0.00000000000000000 1.00000000000000000 0.00000000000000000 5.00000000000000000
2 1825.00000000000000000 5473.26710000000002765 0.00000000000000000 0.00000000000000000 0.00000000000000000 1.00000000000000000 1.00000000000000000 0.00000000000000000 -0.00000000000000000 -0.00000000000000000 1.00000000000000000 0.00000000000000000 5.00000000000000000
2 1945.00000000000000000 5655.13379999999961001 0.00000000000000000 0.00000000000000000 0.00000000000000000 1.00000000000000000 1.00000000000000000 0.00000000000000000 -0.00000000000000000 -0.00000000000000000 1.00000000000000000 0.00000000000000000 5.00000000000000000
2 2097.00000000000000000 5655.13379999999961001 0.00000000000000000 0.00000000000000000 0.00000000000000000 1.00000000000000000 1.00000000000000000 0.00000000000000000 -0.00000000000000000 -0.00000000000000000 1.00000000000000000 0.00000000000000000 5.00000000000000000
1 3110.00000000000000000 5622.00050000000010186 0.00000000000000000 -0.00000000000000000 -0.00000000000000000 -1.00000000000000000 
1 3110.00000000000000000 5652.00050000000010186 0.00000000000000000 0.00000000000000000 1.00000000000000000 0.00000000000000000 
1 27.00000000000000000 4712.66700000000037107 0.00000000000000000 -0.00000000000000000 -0.00000000000000000 -1.00000000000000000 
1 3110.00000000000000000 5792.00050000000010186 0.00000000000000000 -0.00000000000000000 0.00000000000000000 1.00000000000000000 
1 3095.00000000000000000 5792.00050000000010186 0.00000000000000000 -0.00000000000000000 0.00000000000000000 1.00000000000000000 
1 3095.00000000000000000 5652.00050000000010186 0.00000000000000000 -0.00000000000000000 0.00000000000000000 1.00000000000000000 
1 3110.00000000000000000 5652.00050000000010186 0.00000000000000000 -0.00000000000000000 0.00000000000000000 1.00000000000000000 
1 2209.84386887290065715 5622.00050000000010186 0.00000000000000000 -0.00000000000000000 -0.00000000000000000 -1.00000000000000000 
1 849.84386887302025571 4712.66700000000037107 0.00000000000000000 -0.00000000000000000 -0.00000000000000000 -1.00000000000000000 
1 1134.00000000000000000 5109.53369999999995343 0.00000000000000000 -0.00000000000000000 -0.00000000000000000 -1.00000000000000000 
1 1286.00000000000000000 5109.53369999999995343 0.00000000000000000 -0.00000000000000000 -0.00000000000000000 -1.00000000000000000 
1 1406.00000000000000000 5291.40040000000044529 0.00000000000000000 -0.00000000000000000 -0.00000000000000000 -1.00000000000000000 
1 1558.00000000000000000 5291.40040000000044529 0.00000000000000000 -0.00000000000000000 -0.00000000000000000 -1.00000000000000000 
1 1678.00000000000000000 5473.26710000000002765 0.00000000000000000 -0.00000000000000000 -0.00000000000000000 -1.00000000000000000 
1 1830.00000000000000000 5473.26710000000002765 0.00000000000000000 -0.00000000000000000 -0.00000000000000000 -1.00000000000000000 
1 1950.00000000000000000 5655.13379999999961001 0.00000000000000000 -0.00000000000000000 -0.00000000000000000 -1.00000000000000000 
1 2102.00000000000000000 5655.13379999999961001 0.00000000000000000 -0.00000000000000000 -0.00000000000000000 -1.00000000000000000 
Polygon3D 0
PolygonOnTriangulations 0
Surfaces 22
1 2133.96483879686957152 5872.00050000000010186 0.00000000000000000 -0.55582821424383277 0.83129717685705629 0.00000000000000000 -0.83129717685705629 -0.55582821424383277 0.00000000000000000 0.00000000000000000 0.00000000000000000 1.00000000000000000 
1 1562.64236278088219478 -0.00000000000117942 5311.63301230358138127 -0.00000000000000000 -1.00000000000000000 -0.00000000000000022 0.00000000000000000 0.00000000000000022 -1.00000000000000000 1.00000000000000000 -0.00000000000000000 0.00000000000000000 
1 2133.96483879686957152 5872.00050000000010186 0.00000000000000000 0.00000000000000000 -1.00000000000000000 0.00000000000000000 1.00000000000000000 0.00000000000000000 0.00000000000000000 -0.00000000000000000 0.00000000000000000 1.00000000000000000 
1 3110.00000000000000000 5872.00050000000010186 0.00000000000000000 -1.00000000000000000 0.00000000000000000 0.00000000000000000 0.00000000000000000 -1.00000000000000000 0.00000000000000000 0.00000000000000000 0.00000000000000000 1.00000000000000000 
1 773.96483879698962483 4962.66700000000037107 0.00000000000000000 0.00000000000000000 1.00000000000000000 -0.00000000000000000 -1.00000000000000000 0.00000000000000000 0.00000000000000000 0.00000000000000000 0.00000000000000000 1.00000000000000000 
1 27.00000000000000000 4962.66700000000037107 0.00000000000000000 -1.00000000000000000 0.00000000000000000 0.00000000000000000 0.00000000000000000 -1.00000000000000000 0.00000000000000000 0.00000000000000000 0.00000000000000000 1.00000000000000000 
1 3110.00000000000000000 5792.00050000000010186 0.00000000000000000 -0.00000000000000000 -1.00000000000000000 0.00000000000000000 -1.00000000000000000 0.00000000000000000 0.00000000000000000 -0.00000000000000000 0.00000000000000000 -1.00000000000000000 
1 3102.50000000000000000 -0.00000000000127054 5722.00050000000101136 -0.00000000000000000 -1.00000000000000000 -0.00000000000000022 0.00000000000000000 0.00000000000000022 -1.00000000000000000 1.00000000000000000 -0.00000000000000000 0.00000000000000000 
1 3095.00000000000000000 5792.00050000000010186 0.00000000000000000 1.00000000000000000 0.00000000000000000 0.00000000000000000 0.00000000000000000 -1.00000000000000000 0.00000000000000000 0.00000000000000000 0.00000000000000000 -1.00000000000000000 
1 3095.00000000000000000 5652.00050000000010186 0.00000000000000000 0.00000000000000000 1.00000000000000000 -0.00000000000000000 1.00000000000000000 0.00000000000000000 0.00000000000000000 0.00000000000000000 -0.00000000000000000 -1.00000000000000000 
2 1129.00000000000000000 5109.53369999999995343 0.00000000000000000 0.00000000000000000 0.00000000000000000 1.00000000000000000 1.00000000000000000 0.00000000000000000 -0.00000000000000000 -0.00000000000000000 1.00000000000000000 0.00000000000000000 5.00000000000000000
2 1281.00000000000000000 5109.53369999999995343 0.00000000000000000 0.00000000000000000 0.00000000000000000 1.00000000000000000 1.00000000000000000 0.00000000000000000 -0.00000000000000000 -0.00000000000000000 1.00000000000000000 0.00000000000000000 5.00000000000000000
2 1401.00000000000000000 5291.40040000000044529 0.00000000000000000 0.00000000000000000 0.00000000000000000 1.00000000000000000 1.00000000000000000 0.00000000000000000 -0.00000000000000000 -0.00000000000000000 1.00000000000000000 0.00000000000000000 5.00000000000000000
2 1553.00000000000000000 5291.40040000000044529 0.00000000000000000 0.00000000000000000 0.00000000000000000 1.00000000000000000 1.00000000000000000 0.00000000000000000 -0.00000000000000000 -0.00000000000000000 1.00000000000000000 0.00000000000000000 5.00000000000000000
2 1673.00000000000000000 5473.26710000000002765 0.00000000000000000 0.00000000000000000 0.00000000000000000 1.00000000000000000 1.00000000000000000 0.00000000000000000 -0.00000000000000000 -0.00000000000000000 1.00000000000000000 0.00000000000000000 5.00000000000000000
2 1825.00000000000000000 5473.26710000000002765 0.00000000000000000 0.00000000000000000 0.00000000000000000 1.00000000000000000 1.00000000000000000 0.00000000000000000 -0.00000000000000000 -0.00000000000000000 1.00000000000000000 0.00000000000000000 5.00000000000000000
2 1945.00000000000000000 5655.13379999999961001 0.00000000000000000 0.00000000000000000 0.00000000000000000 1.00000000000000000 1.00000000000000000 0.00000000000000000 -0.00000000000000000 -0.00000000000000000 1.00000000000000000 0.00000000000000000 5.00000000000000000
2 2097.00000000000000000 5655.13379999999961001 0.00000000000000000 0.00000000000000000 0.00000000000000000 1.00000000000000000 1.00000000000000000 0.00000000000000000 -0.00000000000000000 -0.00000000000000000 1.00000000000000000 0.00000000000000000 5.00000000000000000
1 3110.00000000000000000 5652.00050000000010186 0.00000000000000000 -1.00000000000000000 0.00000000000000000 -0.00000000000000000 0.00000000000000000 1.00000000000000000 0.00000000000000000 0.00000000000000000 0.00000000000000000 -1.00000000000000000 
1 3110.00000000000000000 5622.00050000000010186 0.00000000000000000 0.00000000000000000 1.00000000000000000 -0.00000000000000000 -1.00000000000000000 0.00000000000000000 0.00000000000000000 0.00000000000000000 0.00000000000000000 1.00000000000000000 
1 849.84386887302025571 4712.66700000000037107 0.00000000000000000 0.55582821424383255 -0.83129717685705640 0.00000000000000000 0.83129717685705640 0.55582821424383255 0.00000000000000000 -0.00000000000000000 0.00000000000000000 1.00000000000000000 
1 27.00000000000000000 4712.66700000000037107 0.00000000000000000 0.00000000000000000 -1.00000000000000000 0.00000000000000000 1.00000000000000000 0.00000000000000000 0.00000000000000000 -0.00000000000000000 0.00000000000000000 1.00000000000000000 
Triangulations 0

TShapes 126
Ve
0.000000100000000
2133.964838796869572 5872.000500000000102 0.000000000000000
0 0

0101101
*
Ed
 0.000000100000000 1 1 0
1  1 0 0.000000000000000 15.000000000000000
0

0101000
+126 8 -126 10 *
Ve
0.000000100000000
773.964838796989625 4962.667000000000371 0.000000000000000
0 0

0101101
*
Ed
 0.000000100000000 1 1 0
1  2 0 0.000000000000000 15.000000000000000
0

0101000
+124 8 -124 10 *
Ed
 0.000000100000000 1 1 0
1  3 0 0.000000000000000 1635.997375982590938
2  1 2 11 0.000000000000000 1635.997375982590938
0

0101000
+126 0 -124 0 *
Wi

0101100
+125 0 -123 0 -122 8 +122 10 *
Fa
0  0.000000100000000 1 0

0111000
+121 0 *
Ve
0.000000100000000
3110.000000000000000 5872.000500000000102 0.000000000000000
0 0

0101101
*
Ed
 0.000000100000000 1 1 0
1  4 0 0.000000000000000 15.000000000000000
2  2 4 0 0.000000000000000 15.000000000000000
0

0101000
+119 8 -119 10 *
Ed
 0.000000100000000 1 1 0
1  5 0 0.000000000000000 976.035161203130428
2  3 2 11 0.000000000000000 976.035161203130428
0

0101000
+126 0 -119 0 *
Wi

0101100
+125 0 -118 0 -117 8 +117 10 *
Fa
0  0.000000100000000 3 0

0111000
+116 0 *
Ve
0.000000100000000
27.000000000000000 4962.667000000000371 0.000000000000000
0 0

0101101
*
Ed
 0.000000100000000 1 1 0
1  6 0 0.000000000000000 15.000000000000000
2  4 6 0 0.000000000000000 15.000000000000000
0

0101000
+114 8 -114 10 *
Ed
 0.000000100000000 1 1 0
1  7 0 0.000000000000000 746.964838796989625
2  5 2 11 0.000000000000000 746.964838796989625
0

0101000
+124 0 -114 0 *
Wi

0101100
+123 0 -113 0 -112 8 +112 10 *
Fa
0  0.000000100000000 5 0

0111000
+111 0 *
Ve
0.000000100000000
3110.000000000000000 5792.000500000000102 0.000000000000000
0 0

0101101
*
Ed
 0.000000100000000 1 1 0
1  8 0 0.000000000000000 80.000000000000000
2  6 2 11 0.000000000000000 80.000000000000000
2  7 4 14 0.000000000000000 80.000000000000000
2  8 4 15 0.000000000000000 80.000000000000000
0

0101000
+119 0 -109 18 *
Ve
0.000000100000000
3095.000000000000000 5792.000500000000102 0.000000000000000
0 0

0101101
*
Ed
 0.000000100000000 1 1 0
1  9 0 0.000000000000000 15.000000000000000
2  9 7 20 0.000000000000000 15.000000000000000
2  10 7 22 0.000000000000000 15.000000000000000
2  11 8 23 0.000000000000000 15.000000000000000
2  12 2 24 0.000000000000000 15.000000000000000
0

0101000
+109 0 -107 0 *
Ve
0.000000100000000
3095.000000000000000 5652.000500000000102 0.000000000000000
0 0

0101101
*
Ed
 0.000000100000000 1 1 0
1  10 0 0.000000000000000 140.000000000000000
2  13 8 23 0.000000000000000 140.000000000000000
2  14 9 20 0.000000000000000 140.000000000000000
2  15 9 22 0.000000000000000 140.000000000000000
2  16 2 24 0.000000000000000 140.000000000000000
0

0101000
+107 0 -105 0 *
Ve
0.000000100000000
3110.000000000000000 5652.000500000000102 0.000000000000000
0 0

0101101
*
Ed
 0.000000100000000 1 1 0
1  11 0 0.000000000000000 15.000000000000000
2  17 10 20 0.000000000000000 15.000000000000000
2  18 10 22 0.000000000000000 15.000000000000000
2  19 8 23 0.000000000000000 15.000000000000000
2  20 2 24 0.000000000000000 15.000000000000000
0

0101000
+105 0 -103 0 *
Ve
0.000000100000000
3110.000000000000000 5622.000500000000102 0.000000000000000
0 0

0101101
*
Ed
 0.000000100000000 1 1 0
1  8 0 220.000000000000000 250.000000000000000
2  6 2 11 220.000000000000000 250.000000000000000
2  7 4 14 220.000000000000000 250.000000000000000
2  8 4 15 220.000000000000000 250.000000000000000
0

0101000
+103 18 -101 0 *
Ve
0.000000100000000
2209.843868872900657 5622.000500000000102 0.000000000000000
0 0

0101101
*
Ed
 0.000000100000000 1 1 0
1  12 0 0.000000000000000 900.156131127099343
2  21 2 11 0.000000000000000 900.156131127099343
0

0101000
+101 0 -99 0 *
Ve
0.000000100000000
849.843868873020256 4712.667000000000371 0.000000000000000
0 0

0101101
*
Ed
 0.000000100000000 1 1 0
1  13 0 0.000000000000000 1635.997375982591393
2  22 2 11 0.000000000000000 1635.997375982591393
0

0101000
+97 0 -99 0 *
Ve
0.000000100000000
27.000000000000000 4712.667000000000371 0.000000000000000
0 0

0101101
*
Ed
 0.000000100000000 1 1 0
1  14 0 0.000000000000000 822.843868873020256
2  23 2 11 0.000000000000000 822.843868873020256
0

0101000
+95 0 -97 0 *
Ed
 0.000000100000000 1 1 0
1  15 0 0.000000000000000 250.000000000000000
2  24 2 11 0.000000000000000 250.000000000000000
2  25 6 14 0.000000000000000 250.000000000000000
2  26 6 15 0.000000000000000 250.000000000000000
0

0101000
+114 0 -95 0 *
Wi

0101100
-117 13 -108 13 -106 19 -104 19 -102 19 -100 13 -98 13 +96 13 +94 13 +93 13 
+112 13 +122 13 *
Ve
0.000000100000000
1134.000000000000000 5109.533699999999953 0.000000000000000
0 0

0101101
*
Ed
 0.000000100000000 1 1 0
1  16 0 0.000000000000000 6.283185307179586
2  27 11 14 0.000000000000000 6.283185307179586
2  28 11 15 0.000000000000000 6.283185307179586
2  29 2 11 0.000000000000000 6.283185307179586
0

0101000
+91 0 -91 0 *
Wi

0101100
-90 13 *
Ve
0.000000100000000
1286.000000000000000 5109.533699999999953 0.000000000000000
0 0

0101101
*
Ed
 0.000000100000000 1 1 0
1  17 0 0.000000000000000 6.283185307179586
2  30 12 14 0.000000000000000 6.283185307179586
2  31 12 15 0.000000000000000 6.283185307179586
2  32 2 11 0.000000000000000 6.283185307179586
0

0101000
+88 0 -88 0 *
Wi

0101100
-87 13 *
Ve
0.000000100000000
1406.000000000000000 5291.400400000000445 0.000000000000000
0 0

0101101
*
Ed
 0.000000100000000 1 1 0
1  18 0 0.000000000000000 6.283185307179586
2  33 13 14 0.000000000000000 6.283185307179586
2  34 13 15 0.000000000000000 6.283185307179586
2  35 2 11 0.000000000000000 6.283185307179586
0

0101000
+85 0 -85 0 *
Wi

0101100
-84 13 *
Ve
0.000000100000000
1558.000000000000000 5291.400400000000445 0.000000000000000
0 0

0101101
*
Ed
 0.000000100000000 1 1 0
1  19 0 0.000000000000000 6.283185307179586
2  36 14 14 0.000000000000000 6.283185307179586
2  37 14 15 0.000000000000000 6.283185307179586
2  38 2 11 0.000000000000000 6.283185307179586
0

0101000
+82 0 -82 0 *
Wi

0101100
-81 13 *
Ve
0.000000100000000
1678.000000000000000 5473.267100000000028 0.000000000000000
0 0

0101101
*
Ed
 0.000000100000000 1 1 0
1  20 0 0.000000000000000 6.283185307179586
2  39 15 14 0.000000000000000 6.283185307179586
2  40 15 15 0.000000000000000 6.283185307179586
2  41 2 11 0.000000000000000 6.283185307179586
0

0101000
+79 0 -79 0 *
Wi

0101100
-78 13 *
Ve
0.000000100000000
1830.000000000000000 5473.267100000000028 0.000000000000000
0 0

0101101
*
Ed
 0.000000100000000 1 1 0
1  21 0 0.000000000000000 6.283185307179586
2  42 16 14 0.000000000000000 6.283185307179586
2  43 16 15 0.000000000000000 6.283185307179586
2  44 2 11 0.000000000000000 6.283185307179586
0

0101000
+76 0 -76 0 *
Wi

0101100
-75 13 *
Ve
0.000000100000000
1950.000000000000000 5655.133799999999610 0.000000000000000
0 0

0101101
*
Ed
 0.000000100000000 1 1 0
1  22 0 0.000000000000000 6.283185307179586
2  45 17 14 0.000000000000000 6.283185307179586
2  46 17 15 0.000000000000000 6.283185307179586
2  47 2 11 0.000000000000000 6.283185307179586
0

0101000
+73 0 -73 0 *
Wi

0101100
-72 13 *
Ve
0.000000100000000
2102.000000000000000 5655.133799999999610 0.000000000000000
0 0

0101101
*
Ed
 0.000000100000000 1 1 0
1  23 0 0.000000000000000 6.283185307179586
2  48 18 14 0.000000000000000 6.283185307179586
2  49 18 15 0.000000000000000 6.283185307179586
2  50 2 11 0.000000000000000 6.283185307179586
0

0101000
+70 0 -70 0 *
Wi

0101100
-69 13 *
Fa
0  0.000000100000000 2 12

0111000
+92 0 +89 0 +86 0 +83 0 +80 0 +77 0 +74 0 +71 0 +68 0 *
Ed
 0.000000100000000 1 1 0
1  8 0 0.000000000000000 250.000000000000000
2  6 2 11 0.000000000000000 250.000000000000000
2  7 4 14 0.000000000000000 250.000000000000000
2  8 4 15 0.000000000000000 250.000000000000000
0

0101000
+119 0 -101 0 *
Wi

0101100
+122 26 +112 26 +93 26 +94 26 +96 26 -98 26 -66 26 -117 26 *
Wi

0101100
-90 26 *
Wi

0101100
-87 26 *
Wi

0101100
-84 26 *
Wi

0101100
-81 26 *
Wi

0101100
-78 26 *
Wi

0101100
-75 26 *
Wi

0101100
-72 26 *
Wi

0101100
-69 26 *
Fa
0  0.000000100000000 2 0

0111000
+65 0 +64 0 +63 0 +62 0 +61 0 +60 0 +59 0 +58 0 +57 0 *
Ed
 0.000000100000000 1 1 0
1  24 0 0.000000000000000 15.000000000000000
2  51 4 0 0.000000000000000 15.000000000000000
0

0101000
+101 8 -101 10 *
Ed
 0.000000100000000 1 1 0
1  25 0 0.000000000000000 140.000000000000000
2  52 19 20 0.000000000000000 140.000000000000000
2  53 19 22 0.000000000000000 140.000000000000000
2  54 8 23 0.000000000000000 140.000000000000000
2  55 2 24 0.000000000000000 140.000000000000000
0

0101000
+103 0 -109 0 *
Wi

0101100
+118 4 -55 4 -108 13 +54 19 -100 13 +66 27 *
Fa
0  0.000000100000000 4 4

0111000
+53 0 *
Ed
 0.000000100000000 1 1 0
1  26 0 0.000000000000000 15.000000000000000
2  56 6 0 0.000000000000000 15.000000000000000
0

0101000
+95 8 -95 10 *
Wi

0101100
+113 0 -51 0 -93 8 +93 10 *
Fa
0  0.000000100000000 6 0

0111000
+50 0 *
Ed
 0.000000100000000 1 1 0
1  27 0 0.000000000000000 80.000000000000000
2  57 7 0 0.000000000000000 80.000000000000000
2  58 19 0 0.000000000000000 80.000000000000000
0

0101000
+109 19 -109 28 *
Ed
 0.000000100000000 1 1 0
1  28 0 0.000000000000000 80.000000000000000
2  59 7 0 0.000000000000000 80.000000000000000
2  60 9 0 0.000000000000000 80.000000000000000
0

0101000
+107 19 -107 28 *
Wi

0101100
+48 0 -47 0 -106 19 +106 28 *
Fa
0  0.000000100000000 7 0

0111000
+46 0 *
Ed
 0.000000100000000 1 1 0
1  29 0 0.000000000000000 80.000000000000000
2  61 10 0 0.000000000000000 80.000000000000000
2  62 9 0 0.000000000000000 80.000000000000000
0

0101000
+105 19 -105 28 *
Wi

0101100
+47 0 -44 0 -104 19 +104 28 *
Fa
0  0.000000100000000 9 0

0111000
+43 0 *
Ed
 0.000000100000000 1 1 0
1  30 0 0.000000000000000 80.000000000000000
2  63 10 0 0.000000000000000 80.000000000000000
2  64 19 0 0.000000000000000 80.000000000000000
0

0101000
+103 19 -103 28 *
Wi

0101100
+44 0 -41 0 -102 19 +102 28 *
Fa
0  0.000000100000000 10 0

0111000
+40 0 *
Ed
 0.000000100000000 1 1 0
1  31 0 0.000000000000000 15.000000000000000
0

0101000
+99 8 -99 10 *
Wi

0101100
+55 0 -38 0 -98 8 +98 10 *
Fa
0  0.000000100000000 20 0

0111000
+37 0 *
Ed
 0.000000100000000 1 1 0
1  32 0 0.000000000000000 15.000000000000000
0

0101000
+97 8 -97 10 *
Wi

0101100
+35 0 -38 0 -96 8 +96 10 *
Fa
0  0.000000100000000 21 0

0111000
+34 0 *
Wi

0101100
+51 0 -35 0 -94 8 +94 10 *
Fa
0  0.000000100000000 22 0

0111000
+32 0 *
Ed
 0.000000100000000 1 1 0
1  33 0 0.000000000000000 15.000000000000000
3  65 66CN 11 0 0.000000000000000 15.000000000000000
0

0101000
+91 8 -91 10 *
Wi

0101100
+30 0 -30 0 -90 8 +90 10 *
Fa
0  0.000000100000000 11 0

0111000
+29 0 *
Ed
 0.000000100000000 1 1 0
1  34 0 0.000000000000000 15.000000000000000
3  67 68CN 12 0 0.000000000000000 15.000000000000000
0

0101000
+88 8 -88 10 *
Wi

0101100
+27 0 -27 0 -87 8 +87 10 *
Fa
0  0.000000100000000 12 0

0111000
+26 0 *
Ed
 0.000000100000000 1 1 0
1  35 0 0.000000000000000 15.000000000000000
3  69 70CN 13 0 0.000000000000000 15.000000000000000
0

0101000
+85 8 -85 10 *
Wi

0101100
+24 0 -24 0 -84 8 +84 10 *
Fa
0  0.000000100000000 13 0

0111000
+23 0 *
Ed
 0.000000100000000 1 1 0
1  36 0 0.000000000000000 15.000000000000000
3  71 72CN 14 0 0.000000000000000 15.000000000000000
0

0101000
+82 8 -82 10 *
Wi

0101100
+21 0 -21 0 -81 8 +81 10 *
Fa
0  0.000000100000000 14 0

0111000
+20 0 *
Ed
 0.000000100000000 1 1 0
1  37 0 0.000000000000000 15.000000000000000
3  73 74CN 15 0 0.000000000000000 15.000000000000000
0

0101000
+79 8 -79 10 *
Wi

0101100
+18 0 -18 0 -78 8 +78 10 *
Fa
0  0.000000100000000 15 0

0111000
+17 0 *
Ed
 0.000000100000000 1 1 0
1  38 0 0.000000000000000 15.000000000000000
3  75 76CN 16 0 0.000000000000000 15.000000000000000
0

0101000
+76 8 -76 10 *
Wi

0101100
+15 0 -15 0 -75 8 +75 10 *
Fa
0  0.000000100000000 16 0

0111000
+14 0 *
Ed
 0.000000100000000 1 1 0
1  39 0 0.000000000000000 15.000000000000000
3  77 78CN 17 0 0.000000000000000 15.000000000000000
0

0101000
+73 8 -73 10 *
Wi

0101100
+12 0 -12 0 -72 8 +72 10 *
Fa
0  0.000000100000000 17 0

0111000
+11 0 *
Ed
 0.000000100000000 1 1 0
1  40 0 0.000000000000000 15.000000000000000
3  79 80CN 18 0 0.000000000000000 15.000000000000000
0

0101000
+70 8 -70 10 *
Wi

0101100
+9 0 -9 0 -69 8 +69 10 *
Fa
0  0.000000100000000 18 0

0111000
+8 0 *
Wi

0101100
+41 0 -48 0 -54 19 +54 28 *
Fa
0  0.000000100000000 19 0

0111000
+6 0 *
Wi

0101100
+106 0 +104 0 +102 0 +54 0 *
Fa
0  0.000000100000000 8 0

0111000
+4 30 *
Sh

0101100
+120 4 -115 4 +110 4 +67 0 -56 25 -52 0 +49 4 -45 0 -42 0 -39 0 
-36 4 +33 4 +31 4 -28 4 -25 4 -22 4 -19 4 -16 4 -13 4 -10 4 
-7 4 -5 0 +3 29 *
So

0100000
+2 0 *

+1 1 