
CASCADE Topology V1, (c) Matra-Datavision
Locations 54
1
1.000000000000000 0.000000000000000 0.000000000000000 0.000000000000000 
0.000000000000000 1.000000000000000 0.000000000000000 63.000000000000000 
0.000000000000000 0.000000000000000 1.000000000000000 0.000000000000000 
1
1.000000000000000 0.000000000000000 0.000000000000000 0.000000000000000 
0.000000000000000 -0.000000000000000 -1.000000000000000 0.000000000000000 
0.000000000000000 1.000000000000000 -0.000000000000000 0.000000000000000 
1
1.000000000000000 0.000000000000000 0.000000000000000 0.000000000000000 
0.000000000000000 -0.000000000000000 -1.000000000000000 0.000000000000000 
0.000000000000000 1.000000000000000 -0.000000000000000 0.000000000000000 
1
1.000000000000000 0.000000000000000 0.000000000000000 0.000000000000000 
0.000000000000000 -0.000000000000000 -1.000000000000000 0.000000000000000 
0.000000000000000 1.000000000000000 -0.000000000000000 0.000000000000000 
1
1.000000000000000 0.000000000000000 0.000000000000000 0.000000000000000 
0.000000000000000 -0.000000000000000 -1.000000000000000 0.000000000000000 
0.000000000000000 1.000000000000000 -0.000000000000000 0.000000000000000 
2  2 1 3 -1 4 1 5 -1 0
1
1.000000000000000 0.000000000000000 0.000000000000000 0.000000000000000 
0.000000000000000 -0.000000000000000 -1.000000000000000 0.000000000000000 
0.000000000000000 1.000000000000000 -0.000000000000000 0.000000000000000 
2  7 -1 5 1 4 -1 3 1 2 -1 0
1
1.000000000000000 0.000000000000000 0.000000000000000 0.000000000000000 
0.000000000000000 1.000000000000000 0.000000000000000 0.000000000000000 
0.000000000000000 0.000000000000000 1.000000000000000 0.000000000000000 
1
1.000000000000000 0.000000000000000 0.000000000000000 0.000000000000000 
0.000000000000000 -0.000000000000000 -1.000000000000000 0.000000000000000 
0.000000000000000 1.000000000000000 -0.000000000000000 0.000000000000000 
1
1.000000000000000 0.000000000000000 0.000000000000000 0.000000000000000 
0.000000000000000 -0.000000000000000 -1.000000000000000 0.000000000000000 
0.000000000000000 1.000000000000000 -0.000000000000000 0.000000000000000 
2  9 1 10 1 11 -1 0
2  7 -1 5 1 4 -1 3 1 2 -1 11 1 10 -1 9 -1 0
1
1.000000000000000 0.000000000000000 0.000000000000000 -0.000000000000000 
0.000000000000000 1.000000000000000 0.000000000000000 -0.000000000000000 
0.000000000000000 0.000000000000000 1.000000000000000 -15.000000000000000 
2  9 1 10 1 11 -1 14 1 0
2  7 -1 5 1 4 -1 3 1 2 -1 14 -1 11 1 10 -1 9 -1 0
2  4 1 5 -1 0
2  2 1 3 -1 0
2  9 1 10 1 11 -1 2 1 3 -1 0
2  9 1 10 1 11 -1 14 1 2 1 3 -1 0
2  11 -1 2 1 3 -1 4 1 5 -1 0
2  7 -1 5 1 4 -1 0
1
1.000000000000000 0.000000000000000 0.000000000000000 0.000000000000000 
0.000000000000000 1.000000000000000 0.000000000000000 0.000000000000000 
0.000000000000000 0.000000000000000 1.000000000000000 0.000000000000000 
1
0.000000000000000 -0.000000000000000 1.000000000000000 1858.000000000000000 
-0.000000000000000 -1.000000000000000 0.000000000000000 0.000000000000000 
1.000000000000000 0.000000000000000 -0.000000000000000 0.000000000000000 
1
1.000000000000000 0.000000000000000 0.000000000000000 -12.000000000000000 
0.000000000000000 1.000000000000000 0.000000000000000 0.000000000000003 
0.000000000000000 0.000000000000000 1.000000000000000 -0.000000000000000 
2  23 1 24 1 3 -1 25 1 4 1 5 -1 0
2  7 -1 5 1 4 -1 25 -1 3 1 24 -1 23 -1 0
2  9 1 10 1 11 -1 2 1 3 -1 4 1 5 -1 0
2  7 -1 0
1
1.000000000000000 0.000000000000000 0.000000000000000 0.000000000000000 
0.000000000000000 1.000000000000000 0.000000000000000 0.000000000000000 
0.000000000000000 0.000000000000000 1.000000000000000 0.000000000000000 
1
0.000000000000000 0.000000000000000 -1.000000000000000 27.000000000000000 
0.000000000000000 -1.000000000000000 0.000000000000000 0.000000000000000 
-1.000000000000000 0.000000000000000 0.000000000000000 0.000000000000000 
1
1.000000000000000 0.000000000000000 0.000000000000000 15.000000000000000 
0.000000000000000 1.000000000000000 0.000000000000000 0.000000000000003 
0.000000000000000 0.000000000000000 1.000000000000000 -0.000000000000000 
2  30 1 31 1 5 -1 32 1 0
2  7 -1 32 -1 5 1 31 -1 30 -1 0
2  11 1 10 -1 9 -1 0
2  11 -1 14 1 2 1 3 -1 4 1 5 -1 0
2  9 1 10 1 0
2  14 -1 11 1 10 -1 9 -1 0
2  3 -1 0
2  23 1 24 1 3 -1 0
2  7 -1 5 1 4 -1 3 1 24 -1 23 -1 0
2  3 1 24 -1 23 -1 0
2  23 1 24 1 3 -1 25 1 0
2  3 -1 25 1 4 1 5 -1 0
2  23 1 24 1 0
2  25 -1 3 1 24 -1 23 -1 0
2  30 1 31 1 5 -1 0
2  7 -1 5 1 31 -1 30 -1 0
2  9 1 10 1 11 -1 14 1 2 1 3 -1 4 1 5 -1 0
2  5 -1 32 1 0
2  30 1 31 1 0
2  32 -1 5 1 31 -1 30 -1 0
2  5 -1 0
2  5 1 31 -1 30 -1 0
Curve2ds 32
1 0.00000000000000000 0.00000000000000000 1.00000000000000000 0.00000000000000000 
1 0.00000000000000000 0.00000000000000000 1.00000000000000000 0.00000000000000000 
1 0.00000000000000000 0.00000000000000000 1.00000000000000000 0.00000000000000000 
1 0.00000000000000000 0.00000000000000000 1.00000000000000000 0.00000000000000000 
1 0.00000000000000000 -15.00000000000000000 1.00000000000000000 0.00000000000000000 
1 0.00000000000000000 -15.00000000000000000 1.00000000000000000 0.00000000000000000 
1 0.00000000000000000 -15.00000000000000000 1.00000000000000000 0.00000000000000000 
1 0.00000000000000000 -15.00000000000000000 1.00000000000000000 0.00000000000000000 
1 0.00000000000000000 0.00000000000000000 1.00000000000000000 0.00000000000000000 
1 0.00000000000000000 0.00000000000000000 1.00000000000000000 0.00000000000000000 
1 0.00000000000000000 -12.00000000000000000 1.00000000000000000 0.00000000000000000 
1 0.00000000000000000 -12.00000000000000000 1.00000000000000000 0.00000000000000000 
1 0.00000000000000000 -15.00000000000000000 1.00000000000000000 0.00000000000000000 
1 0.00000000000000000 -15.00000000000000000 1.00000000000000000 0.00000000000000000 
1 0.00000000000000000 0.00000000000000000 0.00000000000000000 -1.00000000000000000 
1 6.28318530717958623 0.00000000000000000 0.00000000000000000 -1.00000000000000000 
1 0.00000000000000000 0.00000000000000000 0.00000000000000000 -1.00000000000000000 
1 6.28318530717958623 0.00000000000000000 0.00000000000000000 -1.00000000000000000 
1 0.00000000000000000 0.00000000000000000 0.00000000000000000 -1.00000000000000000 
1 6.28318530717958623 0.00000000000000000 0.00000000000000000 -1.00000000000000000 
1 0.00000000000000000 0.00000000000000000 0.00000000000000000 -1.00000000000000000 
1 6.28318530717958623 0.00000000000000000 0.00000000000000000 -1.00000000000000000 
1 0.00000000000000000 0.00000000000000000 0.00000000000000000 -1.00000000000000000 
1 6.28318530717958623 0.00000000000000000 0.00000000000000000 -1.00000000000000000 
1 0.00000000000000000 0.00000000000000000 0.00000000000000000 -1.00000000000000000 
1 6.28318530717958623 0.00000000000000000 0.00000000000000000 -1.00000000000000000 
1 0.00000000000000000 0.00000000000000000 1.00000000000000000 0.00000000000000000 
1 0.00000000000000000 0.00000000000000000 1.00000000000000000 0.00000000000000000 
1 0.00000000000000000 0.00000000000000000 0.00000000000000000 -1.00000000000000000 
1 6.28318530717958623 0.00000000000000000 0.00000000000000000 -1.00000000000000000 
1 0.00000000000000000 0.00000000000000000 0.00000000000000000 -1.00000000000000000 
1 6.28318530717958623 0.00000000000000000 0.00000000000000000 -1.00000000000000000 
Curves 73
1 1858.00000000000000000 -0.00000000000069589 3134.00000000000000000 -0.00000000000000000 1.00000000000000000 0.00000000000000022 
1 1603.73209921298803238 -0.00000000000069589 3134.00000000000000000 -0.00000000000000000 1.00000000000000000 0.00000000000000022 
1 1858.00000000000000000 -0.00000000000069589 3134.00000000000000000 -1.00000000000000000 -0.00000000000000000 0.00000000000000000 
1 1858.00000000000000000 14.99999999999930367 3149.00000000000000000 -1.00000000000000000 -0.00000000000000000 0.00000000000000000 
1 1858.00000000000000000 -0.00000000000064038 2884.00000000000000000 -0.00000000000000000 1.00000000000000000 0.00000000000000022 
1 1858.00000000000000000 -0.00000000000064038 2884.00000000000000000 0.00000000000000000 -0.00000000000000022 1.00000000000000000 
1 1858.00000000000000000 -0.00000000000064038 2884.00000000000000000 0.00000000000000000 -0.00000000000000022 1.00000000000000000 
1 1858.00000000000000000 14.99999999999936051 2899.00000000000000000 0.00000000000000000 -0.00000000000000022 1.00000000000000000 
1 1074.37543703264327632 -0.00000000000061562 2772.50000000000000000 -0.00000000000000000 1.00000000000000000 0.00000000000000022 
1 1603.73209921298803238 -0.00000000000069589 3134.00000000000000000 -0.82580960346182586 0.00000000000000013 -0.56394902148174875 
1 1603.73209921298803238 14.99999999999930367 3149.00000000000000000 -0.82580960346182586 0.00000000000000013 -0.56394902148174875 
1 1858.00000000000068212 -0.00000000000066924 3014.00000000000000000 -1.00000000000000000 -0.00000000000000000 0.00000000000000022 
1 -0.00000000000067191 3014.00000000000000000 0.00000000000066924 0.00000000000000022 -1.00000000000000000 -0.00000000000000022 
1 1680.95113404708786220 -0.00000000000064038 2884.00000000000000000 1.00000000000000000 0.00000000000000000 0.00000000000000000 
1 1151.59447186674310615 -0.00000000000056011 2522.50000000000000000 0.82580960346182586 -0.00000000000000013 0.56394902148174875 
1 27.00000000000000000 -0.00000000000056011 2522.50000000000000000 1.00000000000000000 0.00000000000000000 0.00000000000000000 
1 27.00000000000000000 -0.00000000000061562 2772.50000000000000000 0.00000000000000000 0.00000000000000022 -1.00000000000000000 
1 26.99999999999943157 -0.00000000000056677 2552.50000000000000000 1.00000000000000000 -0.00000000000000000 0.00000000000000022 
1 0.00000000000057010 2552.50000000000000000 0.00000000000056677 0.00000000000000022 1.00000000000000000 0.00000000000000022 
1 26.99999999999940314 -0.00000000000059786 2692.50000000000000000 1.00000000000000000 -0.00000000000000000 0.00000000000000022 
1 27.00000000000000000 -0.00000000000061562 2772.50000000000000000 0.00000000000000000 0.00000000000000022 -1.00000000000000000 
1 1074.37543703264327632 -0.00000000000061562 2772.50000000000000000 -1.00000000000000000 -0.00000000000000000 0.00000000000000000 
2 1394.00000000000000000 -0.00000000000064909 2923.25000000000000000 0.00000000000000000 -1.00000000000000000 -0.00000000000000022 1.00000000000000000 0.00000000000000000 0.00000000000000000 0.00000000000000000 -0.00000000000000022 1.00000000000000000 5.00000000000000000
2 1546.00000000000000000 -0.00000000000064909 2923.25000000000000000 0.00000000000000000 -1.00000000000000000 -0.00000000000000022 1.00000000000000000 0.00000000000000000 0.00000000000000000 0.00000000000000000 -0.00000000000000022 1.00000000000000000 5.00000000000000000
2 1666.00000000000000000 -0.00000000000069034 3109.00000000000000000 0.00000000000000000 -1.00000000000000000 -0.00000000000000022 1.00000000000000000 0.00000000000000000 0.00000000000000000 0.00000000000000000 -0.00000000000000022 1.00000000000000000 5.00000000000000000
2 1778.00000000000000000 -0.00000000000069034 3109.00000000000000000 0.00000000000000000 -1.00000000000000000 -0.00000000000000022 1.00000000000000000 0.00000000000000000 0.00000000000000000 0.00000000000000000 -0.00000000000000022 1.00000000000000000 5.00000000000000000
1 1074.37543703264327632 14.99999999999938360 2787.50000000000000000 -1.00000000000000000 -0.00000000000000000 0.00000000000000000 
1 27.00000000000000000 14.99999999999938360 2787.50000000000000000 0.00000000000000000 0.00000000000000022 -1.00000000000000000 
1 27.00000000000000000 14.99999999999944045 2537.50000000000000000 1.00000000000000000 0.00000000000000000 0.00000000000000000 
1 1151.59447186674310615 14.99999999999944045 2537.50000000000000000 0.82580960346182586 -0.00000000000000013 0.56394902148174875 
1 1680.95113404708786220 14.99999999999936051 2899.00000000000000000 1.00000000000000000 0.00000000000000000 0.00000000000000000 
2 1394.00000000000000000 14.99999999999935163 2938.25000000000000000 0.00000000000000000 -1.00000000000000000 -0.00000000000000022 1.00000000000000000 0.00000000000000000 0.00000000000000000 0.00000000000000000 -0.00000000000000022 1.00000000000000000 5.00000000000000000
2 1546.00000000000000000 14.99999999999935163 2938.25000000000000000 0.00000000000000000 -1.00000000000000000 -0.00000000000000022 1.00000000000000000 0.00000000000000000 0.00000000000000000 0.00000000000000000 -0.00000000000000022 1.00000000000000000 5.00000000000000000
2 1666.00000000000000000 14.99999999999930900 3124.00000000000000000 0.00000000000000000 -1.00000000000000000 -0.00000000000000022 1.00000000000000000 0.00000000000000000 0.00000000000000000 0.00000000000000000 -0.00000000000000022 1.00000000000000000 5.00000000000000000
2 1778.00000000000000000 14.99999999999930900 3124.00000000000000000 0.00000000000000000 -1.00000000000000000 -0.00000000000000022 1.00000000000000000 0.00000000000000000 0.00000000000000000 0.00000000000000000 -0.00000000000000022 1.00000000000000000 5.00000000000000000
1 1680.95113404708786220 -0.00000000000064038 2884.00000000000000000 -0.00000000000000000 1.00000000000000000 0.00000000000000022 
1 1680.95113404708786220 -0.00000000000064038 2884.00000000000000000 1.00000000000000000 0.00000000000000000 0.00000000000000000 
1 -0.00000000000064038 2884.00000000000000000 0.00000000000064038 -1.00000000000000000 -0.00000000000000022 0.00000000000000022 
1 -80.00000000000063949 2884.00000000000000000 0.00000000000065814 -0.00000000000000022 1.00000000000000000 0.00000000000000022 
1 -80.00000000000066791 3014.00000000000000000 0.00000000000068701 1.00000000000000000 0.00000000000000022 -0.00000000000000022 
2 -40.00000000000064659 2924.00000000000000000 0.00000000000065814 0.00000000000000022 -0.00000000000000022 1.00000000000000000 -0.00000000000000022 1.00000000000000000 0.00000000000000022 -1.00000000000000000 -0.00000000000000022 0.00000000000000022 5.00000000000000000
2 -40.00000000000066080 2974.00000000000000000 0.00000000000066924 0.00000000000000022 -0.00000000000000022 1.00000000000000000 -0.00000000000000022 1.00000000000000000 0.00000000000000022 -1.00000000000000000 -0.00000000000000022 0.00000000000000022 5.00000000000000000
1 27.00000000000000000 -0.00000000000061562 2772.50000000000000000 -0.00000000000000000 1.00000000000000000 0.00000000000000022 
1 1858.00000000000068212 -80.00000000000066791 3014.00000000000000000 -1.00000000000000000 -0.00000000000000000 0.00000000000000022 
1 -80.00000000000066791 3014.00000000000000000 0.00000000000068701 1.00000000000000000 0.00000000000000022 -0.00000000000000022 
1 -0.00000000000064304 2884.00000000000000000 0.00000000000064038 -1.00000000000000000 -0.00000000000000022 0.00000000000000022 
1 -80.00000000000063949 2884.00000000000000000 0.00000000000065814 -0.00000000000000022 1.00000000000000000 0.00000000000000022 
2 -40.00000000000064659 2924.00000000000000000 0.00000000000065814 0.00000000000000022 -0.00000000000000022 1.00000000000000000 -0.00000000000000022 1.00000000000000000 0.00000000000000022 -1.00000000000000000 -0.00000000000000022 0.00000000000000022 5.00000000000000000
2 -40.00000000000066080 2974.00000000000000000 0.00000000000066924 0.00000000000000022 -0.00000000000000022 1.00000000000000000 -0.00000000000000022 1.00000000000000000 0.00000000000000022 -1.00000000000000000 -0.00000000000000022 0.00000000000000022 5.00000000000000000
1 1151.59447186674310615 -0.00000000000056011 2522.50000000000000000 -0.00000000000000000 1.00000000000000000 0.00000000000000022 
1 27.00000000000000000 -0.00000000000056011 2522.50000000000000000 -0.00000000000000000 1.00000000000000000 0.00000000000000022 
1 0.00000000000056677 2552.50000000000000000 0.00000000000056677 0.00000000000000022 1.00000000000000000 0.00000000000000022 
1 26.99999999999943157 -80.00000000000056843 2552.50000000000000000 1.00000000000000000 -0.00000000000000000 0.00000000000000022 
1 80.00000000000056843 2552.50000000000000000 0.00000000000058453 -1.00000000000000000 0.00000000000000022 -0.00000000000000022 
1 80.00000000000056843 2552.50000000000000000 0.00000000000058453 -1.00000000000000000 0.00000000000000022 -0.00000000000000022 
1 0.00000000000060119 2692.50000000000000000 0.00000000000059786 1.00000000000000000 -0.00000000000000022 0.00000000000000022 
1 80.00000000000059686 2692.50000000000000000 0.00000000000061562 -0.00000000000000022 -1.00000000000000000 -0.00000000000000022 
2 40.00000000000058975 2652.50000000000000000 0.00000000000059786 -0.00000000000000022 -0.00000000000000022 1.00000000000000000 -0.00000000000000022 -1.00000000000000000 -0.00000000000000022 1.00000000000000000 -0.00000000000000022 0.00000000000000022 5.00000000000000000
2 40.00000000000057554 2592.50000000000000000 0.00000000000058453 -0.00000000000000022 -0.00000000000000022 1.00000000000000000 -0.00000000000000022 -1.00000000000000000 -0.00000000000000022 1.00000000000000000 -0.00000000000000022 0.00000000000000022 5.00000000000000000
1 26.99999999999940314 -80.00000000000059686 2692.50000000000000000 1.00000000000000000 -0.00000000000000000 0.00000000000000022 
1 0.00000000000059786 2692.50000000000000000 0.00000000000059786 1.00000000000000000 -0.00000000000000022 0.00000000000000022 
1 1399.00000000000000000 -0.00000000000064909 2923.25000000000000000 -0.00000000000000000 1.00000000000000000 0.00000000000000022 
1 1551.00000000000000000 -0.00000000000064909 2923.25000000000000000 -0.00000000000000000 1.00000000000000000 0.00000000000000022 
1 1671.00000000000000000 -0.00000000000069034 3109.00000000000000000 -0.00000000000000000 1.00000000000000000 0.00000000000000022 
1 1783.00000000000000000 -0.00000000000069034 3109.00000000000000000 -0.00000000000000000 1.00000000000000000 0.00000000000000022 
1 1858.00000000000068212 -80.00000000000063949 2884.00000000000000000 -1.00000000000000000 -0.00000000000000000 0.00000000000000022 
1 1858.00000000000068212 -40.00000000000065370 2929.00000000000000000 -1.00000000000000000 -0.00000000000000000 0.00000000000000022 
1 1858.00000000000068212 -40.00000000000066080 2979.00000000000000000 -1.00000000000000000 -0.00000000000000000 0.00000000000000022 
1 80.00000000000059686 2692.50000000000000000 0.00000000000061562 -0.00000000000000022 -1.00000000000000000 -0.00000000000000022 
2 40.00000000000058975 2652.50000000000000000 0.00000000000059786 -0.00000000000000022 -0.00000000000000022 1.00000000000000000 -0.00000000000000022 -1.00000000000000000 -0.00000000000000022 1.00000000000000000 -0.00000000000000022 0.00000000000000022 5.00000000000000000
2 40.00000000000057554 2592.50000000000000000 0.00000000000058453 -0.00000000000000022 -0.00000000000000022 1.00000000000000000 -0.00000000000000022 -1.00000000000000000 -0.00000000000000022 1.00000000000000000 -0.00000000000000022 0.00000000000000022 5.00000000000000000
1 26.99999999999941380 -40.00000000000058975 2647.50000000000000000 1.00000000000000000 -0.00000000000000000 0.00000000000000022 
1 26.99999999999942446 -40.00000000000057554 2587.50000000000000000 1.00000000000000000 -0.00000000000000000 0.00000000000000022 
Polygon3D 0
PolygonOnTriangulations 0
Surfaces 28
1 1858.00000000000000000 -0.00000000000069589 3134.00000000000000000 0.00000000000000000 -0.00000000000000022 1.00000000000000000 -1.00000000000000000 0.00000000000000000 0.00000000000000000 -0.00000000000000000 -1.00000000000000000 -0.00000000000000022 
1 1858.00000000000000000 -0.00000000000064038 2884.00000000000000000 1.00000000000000000 0.00000000000000000 0.00000000000000000 0.00000000000000000 -0.00000000000000022 1.00000000000000000 0.00000000000000000 -1.00000000000000000 -0.00000000000000022 
1 1603.73209921298803238 -0.00000000000069589 3134.00000000000000000 -0.56394902148174875 -0.00000000000000018 0.82580960346182586 -0.82580960346182586 0.00000000000000013 -0.56394902148174875 -0.00000000000000001 -1.00000000000000000 -0.00000000000000022 
1 964.66020980197822610 -2756.50535229253000580 -0.00000000000122413 0.00000000000000000 0.00000000000000044 -1.00000000000000000 0.00000000000000000 1.00000000000000000 0.00000000000000044 1.00000000000000000 -0.00000000000000000 0.00000000000000000 
2 1394.00000000000000000 -0.00000000000064909 2923.25000000000000000 0.00000000000000000 -1.00000000000000000 -0.00000000000000022 1.00000000000000000 0.00000000000000000 0.00000000000000000 0.00000000000000000 -0.00000000000000022 1.00000000000000000 5.00000000000000000
2 1546.00000000000000000 -0.00000000000064909 2923.25000000000000000 0.00000000000000000 -1.00000000000000000 -0.00000000000000022 1.00000000000000000 0.00000000000000000 0.00000000000000000 0.00000000000000000 -0.00000000000000022 1.00000000000000000 5.00000000000000000
2 1666.00000000000000000 -0.00000000000069034 3109.00000000000000000 0.00000000000000000 -1.00000000000000000 -0.00000000000000022 1.00000000000000000 0.00000000000000000 0.00000000000000000 0.00000000000000000 -0.00000000000000022 1.00000000000000000 5.00000000000000000
2 1778.00000000000000000 -0.00000000000069034 3109.00000000000000000 0.00000000000000000 -1.00000000000000000 -0.00000000000000022 1.00000000000000000 0.00000000000000000 0.00000000000000000 0.00000000000000000 -0.00000000000000022 1.00000000000000000 5.00000000000000000
1 964.66020980197822610 -2771.50535229253000580 14.99999999999877254 0.00000000000000000 0.00000000000000044 -1.00000000000000000 0.00000000000000000 1.00000000000000000 0.00000000000000044 1.00000000000000000 -0.00000000000000000 0.00000000000000000 
1 1680.95113404708786220 -0.00000000000064038 2884.00000000000000000 0.00000000000000000 0.00000000000000022 -1.00000000000000000 1.00000000000000000 0.00000000000000000 0.00000000000000000 0.00000000000000000 -1.00000000000000000 -0.00000000000000022 
1 1858.00000000000045475 -2949.00000000000000000 -40.00000000000130029 -1.00000000000000000 0.00000000000000000 -0.00000000000000000 0.00000000000000000 0.00000000000000022 -1.00000000000000000 0.00000000000000000 -1.00000000000000000 -0.00000000000000022 
2 1858.00000000000068212 -40.00000000000064659 2924.00000000000000000 1.00000000000000000 0.00000000000000000 -0.00000000000000022 0.00000000000000022 -0.00000000000000022 1.00000000000000000 -0.00000000000000000 -1.00000000000000000 -0.00000000000000022 5.00000000000000000
2 1858.00000000000068212 -40.00000000000066080 2974.00000000000000000 1.00000000000000000 0.00000000000000000 -0.00000000000000022 0.00000000000000022 -0.00000000000000022 1.00000000000000000 -0.00000000000000000 -1.00000000000000000 -0.00000000000000022 5.00000000000000000
1 1074.37543703264327632 -0.00000000000061562 2772.50000000000000000 0.00000000000000000 -0.00000000000000022 1.00000000000000000 -1.00000000000000000 0.00000000000000000 0.00000000000000000 -0.00000000000000000 -1.00000000000000000 -0.00000000000000022 
1 1858.00000000000068212 -80.00000000000066791 3014.00000000000000000 -0.00000000000000022 0.00000000000000022 -1.00000000000000000 0.00000000000000000 1.00000000000000000 0.00000000000000022 1.00000000000000000 0.00000000000000000 -0.00000000000000022 
1 1858.00000000000045475 -2949.00000000000000000 -40.00000000000130029 -1.00000000000000000 0.00000000000000000 -0.00000000000000000 0.00000000000000000 0.00000000000000022 -1.00000000000000000 0.00000000000000000 -1.00000000000000000 -0.00000000000000022 
1 1151.59447186674310615 -0.00000000000056011 2522.50000000000000000 0.56394902148174875 0.00000000000000018 -0.82580960346182586 0.82580960346182586 -0.00000000000000013 0.56394902148174875 -0.00000000000000001 -1.00000000000000000 -0.00000000000000022 
1 27.00000000000000000 -0.00000000000056011 2522.50000000000000000 0.00000000000000000 0.00000000000000022 -1.00000000000000000 1.00000000000000000 0.00000000000000000 0.00000000000000000 0.00000000000000000 -1.00000000000000000 -0.00000000000000022 
1 27.00000000000000000 -0.00000000000061562 2772.50000000000000000 -1.00000000000000000 -0.00000000000000000 0.00000000000000000 -0.00000000000000000 0.00000000000000022 -1.00000000000000000 0.00000000000000000 -1.00000000000000000 -0.00000000000000022 
1 26.99999999999943157 -80.00000000000056843 2552.50000000000000000 -0.00000000000000022 -0.00000000000000022 1.00000000000000000 0.00000000000000000 1.00000000000000000 0.00000000000000022 -1.00000000000000000 0.00000000000000000 -0.00000000000000022 
1 26.99999999999942091 -2622.50000000000000000 -40.00000000000115818 1.00000000000000000 -0.00000000000000020 -0.00000000000000000 -0.00000000000000020 -1.00000000000000000 -0.00000000000000022 0.00000000000000000 0.00000000000000022 -1.00000000000000000 
2 26.99999999999941025 -40.00000000000058975 2652.50000000000000000 -1.00000000000000000 0.00000000000000000 -0.00000000000000022 0.00000000000000022 0.00000000000000022 -1.00000000000000000 0.00000000000000000 -1.00000000000000000 -0.00000000000000022 5.00000000000000000
2 26.99999999999942446 -40.00000000000057554 2592.50000000000000000 -1.00000000000000000 0.00000000000000000 -0.00000000000000022 0.00000000000000022 0.00000000000000022 -1.00000000000000000 0.00000000000000000 -1.00000000000000000 -0.00000000000000022 5.00000000000000000
1 26.99999999999940314 -0.00000000000059786 2692.50000000000000000 0.00000000000000022 0.00000000000000022 -1.00000000000000000 0.00000000000000000 -1.00000000000000000 -0.00000000000000022 -1.00000000000000000 0.00000000000000000 -0.00000000000000022 
1 1858.00000000000068212 -0.00000000000064038 2884.00000000000000000 0.00000000000000022 -0.00000000000000022 1.00000000000000000 0.00000000000000000 -1.00000000000000000 -0.00000000000000022 1.00000000000000000 0.00000000000000000 -0.00000000000000022 
1 1858.00000000000068212 -80.00000000000063949 2884.00000000000000000 0.00000000000000000 1.00000000000000000 0.00000000000000022 0.00000000000000022 -0.00000000000000022 1.00000000000000000 1.00000000000000000 0.00000000000000000 -0.00000000000000022 
1 26.99999999999942091 -2622.50000000000000000 -40.00000000000115818 1.00000000000000000 -0.00000000000000020 -0.00000000000000000 -0.00000000000000020 -1.00000000000000000 -0.00000000000000022 0.00000000000000000 0.00000000000000022 -1.00000000000000000 
1 26.99999999999940314 -80.00000000000059686 2692.50000000000000000 -0.00000000000000000 1.00000000000000000 0.00000000000000022 0.00000000000000022 0.00000000000000022 -1.00000000000000000 -1.00000000000000000 0.00000000000000000 -0.00000000000000022 
Triangulations 0

TShapes 194
Ve
0.000000100000000
1858.000000000000000 -3134.000000000000000 -0.000000000001392
0 0

0101101
*
Ve
0.000000100000000
1858.000000000000000 -3134.000000000000000 14.999999999998607
0 0

0101101
*
Ed
 0.000000100000000 1 1 0
1  1 0 0.000000000000000 15.000000000000000
0

0101000
+194 8 -193 8 *
Ve
0.000000100000000
1603.732099212988032 -3134.000000000000000 -0.000000000001392
0 0

0101101
*
Ve
0.000000100000000
1603.732099212988032 -3134.000000000000000 14.999999999998607
0 0

0101101
*
Ed
 0.000000100000000 1 1 0
1  2 0 0.000000000000000 15.000000000000000
0

0101000
+191 8 -190 8 *
Ed
 0.000000100000000 1 1 0
1  3 0 0.000000000000000 254.267900787011968
0

0101000
+194 13 -191 13 *
Ed
 0.000000100000000 1 1 0
1  4 0 0.000000000000000 254.267900787011968
0

0101000
+193 16 -190 16 *
Wi

0101100
+192 0 -189 0 -188 12 +187 15 *
Fa
0  0.000000100000000 1 0

0111000
+186 0 *
Ve
0.000000100000909
1858.000000000000227 -2884.000000000000000 -0.000000000001281
0 0

0101101
*
Ve
0.000000100000000
1858.000000000000000 -2884.000000000000000 14.999999999998721
0 0

0101101
*
Ed
 0.000000100000000 1 1 0
1  5 0 0.000000000000000 15.000000000000000
0

0101000
+184 8 -183 8 *
Ve
0.000000100000682
1858.000000000000682 -3014.000000000000000 -0.000000000001338
0 0

0101101
*
Ed
 0.000000100000682 1 1 0
1  6 0 0.000000000000000 130.000000000000000
0

0101000
+184 13 -181 13 *
Ed
 0.000000100000000 1 1 0
1  7 0 130.000000000000000 250.000000000000000
0

0101000
+181 13 -194 13 *
Ed
 0.000000100000000 1 1 0
1  8 0 0.000000000000000 250.000000000000000
0

0101000
+183 16 -193 16 *
Wi

0101100
+182 18 -192 18 -180 19 -179 19 +178 20 *
Fa
0  0.000000100000000 2 18

0111000
+177 0 *
Ve
0.000000100000000
1074.375437032643276 -2772.500000000000000 -0.000000000001231
0 0

0101101
*
Ve
0.000000100000000
1074.375437032643276 -2772.500000000000000 14.999999999998767
0 0

0101101
*
Ed
 0.000000100000000 1 1 0
1  9 0 0.000000000000000 15.000000000000000
0

0101000
+175 8 -174 8 *
Ed
 0.000000100000000 1 1 0
1  10 0 0.000000000000000 641.015386550678386
0

0101000
+191 13 -175 13 *
Ed
 0.000000100000000 1 1 0
1  11 0 0.000000000000000 641.015386550678386
0

0101000
+190 16 -174 16 *
Wi

0101100
+189 0 -173 0 -172 12 +171 15 *
Fa
0  0.000000100000000 3 0

0111000
+170 0 *
Ve
0.000000100000682
1846.000000000000682 -3014.000000000000000 -0.000000000001338
0 0

0101101
*
Ed
 0.000000100000000 1 1 0
1  12 0 0.000000000000000 12.000000000000000
0

0101000
+181 22 -168 22 *
Ve
0.000000100000000
1846.000000000000682 -2884.000000000000000 -0.000000000001281
0 0

0101101
*
Ed
 0.000000100000000 1 1 0
1  13 0 0.000000000000000 130.000000000000000
0

0101000
+168 27 -166 27 *
Ve
0.000000100000000
1680.951134047087862 -2884.000000000000000 -0.000000000001281
0 0

0101101
*
Ed
 0.000000100000000 1 1 0
1  14 0 0.000000000000000 165.048865952912820
0

0101000
+164 13 -166 13 *
Ve
0.000000100000000
1151.594471866743106 -2522.500000000000000 -0.000000000001120
0 0

0101101
*
Ed
 0.000000100000000 1 1 0
1  15 0 0.000000000000000 641.015386550678386
0

0101000
+162 13 -164 13 *
Ve
0.000000100000000
27.000000000000000 -2522.500000000000000 -0.000000000001120
0 0

0101101
*
Ed
 0.000000100000000 1 1 0
1  16 0 0.000000000000000 1124.594471866743106
0

0101000
+160 13 -162 13 *
Ve
0.000000100000597
26.999999999999432 -2552.500000000000000 -0.000000000001134
0 0

0101101
*
Ed
 0.000000100000000 1 1 0
1  17 0 220.000000000000000 250.000000000000000
0

0101000
+158 13 -160 13 *
Ve
0.000000100000597
41.999999999999432 -2552.500000000000000 -0.000000000001134
0 0

0101101
*
Ed
 0.000000100000000 1 1 0
1  18 0 0.000000000000000 15.000000000000000
0

0101000
+158 29 -156 29 *
Ve
0.000000100000597
41.999999999999403 -2692.500000000000000 -0.000000000001196
0 0

0101101
*
Ed
 0.000000100000597 1 1 0
1  19 0 0.000000000000000 140.000000000000000
0

0101000
+156 34 -154 34 *
Ve
0.000000100000597
26.999999999999403 -2692.500000000000000 -0.000000000001196
0 0

0101101
*
Ed
 0.000000100000000 1 1 0
1  20 0 0.000000000000000 15.000000000000000
0

0101000
+152 29 -154 29 *
Ve
0.000000100000000
27.000000000000000 -2772.500000000000000 -0.000000000001231
0 0

0101101
*
Ed
 0.000000100000000 1 1 0
1  21 0 0.000000000000000 80.000000000000000
0

0101000
+150 13 -152 13 *
Ed
 0.000000100000000 1 1 0
1  22 0 0.000000000000000 1047.375437032643276
0

0101000
+175 13 -150 13 *
Wi

0101100
-167 17 -165 26 +163 28 +161 28 +159 28 +157 28 -155 0 -153 33 +151 0 +149 28 
+148 28 +172 28 +188 28 +179 28 *
Ve
0.000000100000000
1399.000000000000000 -2923.250000000000000 -0.000000000001298
0 0

0101101
*
Ed
 0.000000100000000 1 1 0
1  23 0 0.000000000000000 6.283185307179586
2  1 5 35 0.000000000000000 6.283185307179586
0

0101000
+146 13 -146 13 *
Wi

0101100
-145 28 *
Ve
0.000000100000000
1551.000000000000000 -2923.250000000000000 -0.000000000001298
0 0

0101101
*
Ed
 0.000000100000000 1 1 0
1  24 0 0.000000000000000 6.283185307179586
2  2 6 35 0.000000000000000 6.283185307179586
0

0101000
+143 13 -143 13 *
Wi

0101100
-142 28 *
Ve
0.000000100000000
1671.000000000000000 -3109.000000000000000 -0.000000000001381
0 0

0101101
*
Ed
 0.000000100000000 1 1 0
1  25 0 0.000000000000000 6.283185307179586
2  3 7 35 0.000000000000000 6.283185307179586
0

0101000
+140 13 -140 13 *
Wi

0101100
-139 28 *
Ve
0.000000100000000
1783.000000000000000 -3109.000000000000000 -0.000000000001381
0 0

0101101
*
Ed
 0.000000100000000 1 1 0
1  26 0 0.000000000000000 6.283185307179586
2  4 8 35 0.000000000000000 6.283185307179586
0

0101000
+137 13 -137 13 *
Wi

0101100
-136 28 *
Fa
0  0.000000100000000 4 21

0111000
+147 0 +144 0 +141 0 +138 0 +135 0 *
Ve
0.000000100000000
27.000000000000000 -2772.500000000000000 14.999999999998767
0 0

0101101
*
Ed
 0.000000100000000 1 1 0
1  27 0 0.000000000000000 1047.375437032643276
0

0101000
+174 16 -133 16 *
Ve
0.000000100000000
27.000000000000000 -2522.500000000000000 14.999999999998881
0 0

0101101
*
Ed
 0.000000100000000 1 1 0
1  28 0 0.000000000000000 250.000000000000000
0

0101000
+133 16 -131 16 *
Ve
0.000000100000000
1151.594471866743106 -2522.500000000000000 14.999999999998881
0 0

0101101
*
Ed
 0.000000100000000 1 1 0
1  29 0 0.000000000000000 1124.594471866743106
0

0101000
+131 16 -129 16 *
Ve
0.000000100000000
1680.951134047087862 -2884.000000000000000 14.999999999998721
0 0

0101101
*
Ed
 0.000000100000000 1 1 0
1  30 0 0.000000000000000 641.015386550678386
0

0101000
+129 16 -127 16 *
Ed
 0.000000100000000 1 1 0
1  31 0 0.000000000000000 177.048865952912138
0

0101000
+127 16 -183 16 *
Wi

0101100
+187 37 +171 37 +132 37 +130 37 +128 37 +126 37 +125 37 +178 37 *
Ve
0.000000100000000
1399.000000000000000 -2923.250000000000000 14.999999999998703
0 0

0101101
*
Ed
 0.000000100000000 1 1 0
1  32 0 0.000000000000000 6.283185307179586
2  5 5 38 0.000000000000000 6.283185307179586
0

0101000
+123 16 -123 16 *
Wi

0101100
-122 37 *
Ve
0.000000100000000
1551.000000000000000 -2923.250000000000000 14.999999999998703
0 0

0101101
*
Ed
 0.000000100000000 1 1 0
1  33 0 0.000000000000000 6.283185307179586
2  6 6 38 0.000000000000000 6.283185307179586
0

0101000
+120 16 -120 16 *
Wi

0101100
-119 37 *
Ve
0.000000100000000
1671.000000000000000 -3109.000000000000000 14.999999999998618
0 0

0101101
*
Ed
 0.000000100000000 1 1 0
1  34 0 0.000000000000000 6.283185307179586
2  7 7 38 0.000000000000000 6.283185307179586
0

0101000
+117 16 -117 16 *
Wi

0101100
-116 37 *
Ve
0.000000100000000
1783.000000000000000 -3109.000000000000000 14.999999999998618
0 0

0101101
*
Ed
 0.000000100000000 1 1 0
1  35 0 0.000000000000000 6.283185307179586
2  8 8 38 0.000000000000000 6.283185307179586
0

0101000
+114 16 -114 16 *
Wi

0101100
-113 37 *
Fa
0  0.000000100000000 9 0

0111000
+124 0 +121 0 +118 0 +115 0 +112 0 *
Ed
 0.000000100000000 1 1 0
1  36 0 0.000000000000000 15.000000000000000
0

0101000
+164 8 -127 8 *
Ed
 0.000000100000000 1 1 0
1  37 0 165.048865952912820 177.048865952912138
0

0101000
+166 13 -184 13 *
Wi

0101100
+110 18 -182 18 -163 19 -109 19 +125 20 *
Fa
0  0.000000100000000 10 18

0111000
+108 0 *
Ve
0.000000100000000
1858.000000000000682 -2884.000000000000000 -80.000000000001279
0 0

0101101
*
Ed
 0.000000100000000 1 1 0
1  38 0 0.000000000000000 80.000000000000000
0

0101000
+184 41 -106 41 *
Ve
0.000000100000000
1858.000000000000682 -3014.000000000000000 -80.000000000001336
0 0

0101101
*
Ed
 0.000000100000000 1 1 0
1  39 0 0.000000000000000 130.000000000000000
0

0101000
+106 41 -104 41 *
Ed
 0.000000100000000 1 1 0
1  40 0 0.000000000000000 80.000000000000000
0

0101000
+104 41 -181 41 *
Wi

0101100
-180 19 +105 40 +103 40 +102 40 *
Ve
0.000000100000000
1858.000000000000682 -2929.000000000000000 -40.000000000001307
0 0

0101101
*
Ed
 0.000000100000000 1 1 0
1  41 0 0.000000000000000 6.283185307179586
2  9 12 42 0.000000000000000 6.283185307179586
0

0101000
+100 41 -100 41 *
Wi

0101100
+99 40 *
Ve
0.000000100000000
1858.000000000000682 -2979.000000000000000 -40.000000000001322
0 0

0101101
*
Ed
 0.000000100000000 1 1 0
1  42 0 0.000000000000000 6.283185307179586
2  10 13 42 0.000000000000000 6.283185307179586
0

0101000
+97 41 -97 41 *
Wi

0101100
+96 40 *
Fa
0  0.000000100000000 11 39

0111000
+101 0 +98 0 +95 0 *
Ed
 0.000000100000000 1 1 0
1  43 0 0.000000000000000 15.000000000000000
0

0101000
+150 8 -133 8 *
Wi

0101100
+173 0 -93 0 -148 12 +132 15 *
Fa
0  0.000000100000000 14 0

0111000
+92 0 *
Ve
0.000000100000000
1846.000000000000682 -3014.000000000000000 -80.000000000001336
0 0

0101101
*
Ed
 0.000000100000000 1 1 0
1  44 0 0.000000000000000 12.000000000000000
0

0101000
+104 22 -90 22 *
Ed
 0.000000100000000 1 1 0
1  45 0 0.000000000000000 80.000000000000000
0

0101000
+90 27 -168 27 *
Wi

0101100
+89 0 -167 0 -102 40 +88 43 *
Fa
0  0.000000100000000 15 0

0111000
+87 0 *
Ve
0.000000100000000
1846.000000000000682 -2884.000000000000000 -80.000000000001279
0 0

0101101
*
Ed
 0.000000100000000 1 1 0
1  46 0 0.000000000000000 80.000000000000000
0

0101000
+166 27 -85 27 *
Ed
 0.000000100000000 1 1 0
1  47 0 0.000000000000000 130.000000000000000
0

0101000
+85 27 -90 27 *
Wi

0101100
+165 45 +84 45 +83 45 +88 45 *
Ve
0.000000100000000
1846.000000000000682 -2929.000000000000000 -40.000000000001307
0 0

0101101
*
Ed
 0.000000100000000 1 1 0
1  48 0 0.000000000000000 6.283185307179586
2  11 12 46 0.000000000000000 6.283185307179586
0

0101000
+81 27 -81 27 *
Wi

0101100
+80 45 *
Ve
0.000000100000000
1846.000000000000682 -2979.000000000000000 -40.000000000001322
0 0

0101101
*
Ed
 0.000000100000000 1 1 0
1  49 0 0.000000000000000 6.283185307179586
2  12 13 46 0.000000000000000 6.283185307179586
0

0101000
+78 27 -78 27 *
Wi

0101100
+77 45 *
Fa
0  0.000000100000000 16 0

0111000
+82 0 +79 0 +76 0 *
Ed
 0.000000100000000 1 1 0
1  50 0 0.000000000000000 15.000000000000000
0

0101000
+162 8 -129 8 *
Wi

0101100
+74 0 -110 0 -161 12 +126 15 *
Fa
0  0.000000100000000 17 0

0111000
+73 0 *
Ed
 0.000000100000000 1 1 0
1  51 0 0.000000000000000 15.000000000000000
0

0101000
+160 8 -131 8 *
Wi

0101100
+71 0 -74 0 -159 12 +128 15 *
Fa
0  0.000000100000000 18 0

0111000
+70 0 *
Ed
 0.000000100000597 1 1 0
1  52 0 0.000000000000000 140.000000000000000
0

0101000
+158 48 -152 48 *
Wi

0101100
+93 6 -71 6 -149 28 +68 47 -157 28 +130 49 *
Fa
0  0.000000100000000 19 6

0111000
+67 0 *
Ve
0.000000100000000
26.999999999999432 -2552.500000000000000 -80.000000000001137
0 0

0101101
*
Ve
0.000000100000000
41.999999999999432 -2552.500000000000000 -80.000000000001137
0 0

0101101
*
Ed
 0.000000100000000 1 1 0
1  53 0 0.000000000000000 15.000000000000000
0

0101000
+65 29 -64 29 *
Ed
 0.000000100000000 1 1 0
1  54 0 0.000000000000000 80.000000000000000
0

0101000
+65 48 -158 48 *
Ed
 0.000000100000000 1 1 0
1  55 0 0.000000000000000 80.000000000000000
0

0101000
+64 34 -156 34 *
Wi

0101100
+63 0 -155 0 -62 47 +61 33 *
Fa
0  0.000000100000000 20 0

0111000
+60 0 *
Ve
0.000000100000000
41.999999999999403 -2692.500000000000000 -80.000000000001194
0 0

0101101
*
Ed
 0.000000100000000 1 1 0
1  56 0 0.000000000000000 80.000000000000000
0

0101000
+154 34 -58 34 *
Ed
 0.000000100000000 1 1 0
1  57 0 0.000000000000000 140.000000000000000
0

0101000
+58 34 -64 34 *
Wi

0101100
+153 51 +57 51 +56 51 +61 51 *
Ve
0.000000100000000
41.999999999999410 -2647.500000000000000 -40.000000000001180
0 0

0101101
*
Ed
 0.000000100000000 1 1 0
1  58 0 0.000000000000000 6.283185307179586
2  13 22 52 0.000000000000000 6.283185307179586
0

0101000
+54 34 -54 34 *
Wi

0101100
+53 51 *
Ve
0.000000100000000
41.999999999999424 -2587.500000000000000 -40.000000000001151
0 0

0101101
*
Ed
 0.000000100000000 1 1 0
1  59 0 0.000000000000000 6.283185307179586
2  14 23 52 0.000000000000000 6.283185307179586
0

0101000
+51 34 -51 34 *
Wi

0101100
+50 51 *
Fa
0  0.000000100000000 21 0

0111000
+55 0 +52 0 +49 0 *
Ve
0.000000100000000
26.999999999999403 -2692.500000000000000 -80.000000000001194
0 0

0101101
*
Ed
 0.000000100000000 1 1 0
1  60 0 0.000000000000000 15.000000000000000
0

0101000
+47 29 -58 29 *
Ed
 0.000000100000000 1 1 0
1  61 0 0.000000000000000 80.000000000000000
0

0101000
+152 48 -47 48 *
Wi

0101100
+151 0 -46 0 -45 47 +57 33 *
Fa
0  0.000000100000000 24 0

0111000
+44 0 *
Ed
 0.000000100000000 1 1 0
1  62 0 0.000000000000000 15.000000000000000
3  15 16CN 5 0 0.000000000000000 15.000000000000000
0

0101000
+146 8 -123 8 *
Wi

0101100
+42 0 -42 0 -145 12 +122 15 *
Fa
0  0.000000100000000 5 0

0111000
+41 0 *
Ed
 0.000000100000000 1 1 0
1  63 0 0.000000000000000 15.000000000000000
3  17 18CN 6 0 0.000000000000000 15.000000000000000
0

0101000
+143 8 -120 8 *
Wi

0101100
+39 0 -39 0 -142 12 +119 15 *
Fa
0  0.000000100000000 6 0

0111000
+38 0 *
Ed
 0.000000100000000 1 1 0
1  64 0 0.000000000000000 15.000000000000000
3  19 20CN 7 0 0.000000000000000 15.000000000000000
0

0101000
+140 8 -117 8 *
Wi

0101100
+36 0 -36 0 -139 12 +116 15 *
Fa
0  0.000000100000000 7 0

0111000
+35 0 *
Ed
 0.000000100000000 1 1 0
1  65 0 0.000000000000000 15.000000000000000
3  21 22CN 8 0 0.000000000000000 15.000000000000000
0

0101000
+137 8 -114 8 *
Wi

0101100
+33 0 -33 0 -136 12 +113 15 *
Fa
0  0.000000100000000 8 0

0111000
+32 0 *
Ed
 0.000000100000000 1 1 0
1  66 0 0.000000000000000 12.000000000000000
0

0101000
+106 22 -85 22 *
Wi

0101100
-109 19 -30 0 -105 40 +84 43 *
Fa
0  0.000000100000000 25 0

0111000
+29 0 *
Wi

0101100
+30 0 -89 0 -103 40 +83 43 *
Fa
0  0.000000100000000 26 0

0111000
+27 0 *
Ed
 0.000000100000000 1 1 0
1  67 0 0.000000000000000 12.000000000000000
3  23 24CN 12 0 0.000000000000000 12.000000000000000
0

0101000
+100 22 -81 22 *
Wi

0101100
+25 0 -25 0 -99 40 +80 43 *
Fa
0  0.000000100000000 12 0

0111000
+24 0 *
Ed
 0.000000100000000 1 1 0
1  68 0 0.000000000000000 12.000000000000000
3  25 26CN 13 0 0.000000000000000 12.000000000000000
0

0101000
+97 22 -78 22 *
Wi

0101100
+22 0 -22 0 -96 40 +77 43 *
Fa
0  0.000000100000000 13 0

0111000
+21 0 *
Ed
 0.000000100000000 1 1 0
1  69 0 0.000000000000000 140.000000000000000
0

0101000
+47 48 -65 48 *
Wi

0101100
+68 51 +45 51 +19 51 +62 51 *
Ve
0.000000100000000
26.999999999999414 -2647.500000000000000 -40.000000000001180
0 0

0101101
*
Ed
 0.000000100000000 1 1 0
1  70 0 0.000000000000000 6.283185307179586
2  27 22 54 0.000000000000000 6.283185307179586
0

0101000
+17 48 -17 48 *
Wi

0101100
+16 51 *
Ve
0.000000100000000
26.999999999999424 -2587.500000000000000 -40.000000000001151
0 0

0101101
*
Ed
 0.000000100000000 1 1 0
1  71 0 0.000000000000000 6.283185307179586
2  28 23 54 0.000000000000000 6.283185307179586
0

0101000
+14 48 -14 48 *
Wi

0101100
+13 51 *
Fa
0  0.000000100000000 27 0

0111000
+18 0 +15 0 +12 0 *
Wi

0101100
+46 0 -63 0 -19 47 +56 33 *
Fa
0  0.000000100000000 28 0

0111000
+10 0 *
Ed
 0.000000100000000 1 1 0
1  72 0 0.000000000000000 15.000000000000000
3  29 30CN 22 0 0.000000000000000 15.000000000000000
0

0101000
+17 29 -54 29 *
Wi

0101100
+8 0 -8 0 -16 47 +53 33 *
Fa
0  0.000000100000000 22 0

0111000
+7 0 *
Ed
 0.000000100000000 1 1 0
1  73 0 0.000000000000000 15.000000000000000
3  31 32CN 23 0 0.000000000000000 15.000000000000000
0

0101000
+14 29 -51 29 *
Wi

0101100
+5 0 -5 0 -13 47 +50 33 *
Fa
0  0.000000100000000 23 0

0111000
+4 0 *
Sh

0101100
+185 6 +176 17 +169 6 +134 0 -111 36 +107 17 -94 17 +91 6 -86 17 +75 44 
+72 6 +69 6 +66 0 -59 0 +48 50 -43 0 -40 6 -37 6 -34 6 -31 6 
-28 17 -26 17 -23 17 -20 17 -11 53 -9 0 -6 0 -3 0 *
So

0100000
+2 0 *

+1 1 