
CASCADE Topology V1, (c) Matra-Datavision
Locations 17
1
1.000000000000000 0.000000000000000 0.000000000000000 0.000000000000000 
0.000000000000000 -0.000000000000000 -1.000000000000000 0.000000000000000 
0.000000000000000 1.000000000000000 -0.000000000000000 0.000000000000000 
1
1.000000000000000 0.000000000000000 0.000000000000000 -0.000000000000000 
0.000000000000000 1.000000000000000 0.000000000000000 -0.000000000000000 
0.000000000000000 0.000000000000000 1.000000000000000 -15.000000000000000 
1
1.000000000000000 0.000000000000000 0.000000000000000 0.000000000000000 
0.000000000000000 -0.000000000000000 -1.000000000000000 0.000000000000000 
0.000000000000000 1.000000000000000 -0.000000000000000 0.000000000000000 
1
1.000000000000000 0.000000000000000 0.000000000000000 0.000000000000000 
0.000000000000000 -0.000000000000000 -1.000000000000000 0.000000000000000 
0.000000000000000 1.000000000000000 -0.000000000000000 0.000000000000000 
2  1 -1 2 1 3 1 4 -1 0
1
1.000000000000000 0.000000000000000 0.000000000000000 0.000000000000000 
0.000000000000000 1.000000000000000 0.000000000000000 0.000000000000000 
0.000000000000000 0.000000000000000 1.000000000000000 0.000000000000000 
1
0.000000000000000 -0.000000000000000 1.000000000000000 2807.999999999997726 
-0.000000000000000 -1.000000000000000 0.000000000000000 0.000000000000000 
1.000000000000000 0.000000000000000 -0.000000000000000 0.000000000000000 
2  6 1 7 1 4 -1 0
1
1.000000000000000 0.000000000000000 0.000000000000000 -15.000000000000000 
0.000000000000000 1.000000000000000 0.000000000000000 0.000000000000003 
0.000000000000000 0.000000000000000 1.000000000000000 -0.000000000000000 
2  6 1 7 1 4 -1 9 1 0
2  4 1 7 -1 6 -1 0
2  9 -1 4 1 7 -1 6 -1 0
2  7 -1 6 -1 0
2  1 -1 2 1 3 1 4 -1 9 -1 4 1 7 -1 6 -1 0
2  4 -1 0
2  6 1 7 1 0
2  4 -1 9 1 0
Curve2ds 23
1 0.00000000000000000 0.00000000000000000 -0.00000000000000000 -1.00000000000000000 
1 70.99999999999779732 0.00000000000000000 0.00000000000000000 -1.00000000000000000 
1 -774.38226776803594475 808.52168968049272735 0.00000000000000022 -1.00000000000000000 
1 191.86670000000003711 0.00000000000004260 -0.00000000000000000 -1.00000000000000000 
1 0.00000000000000000 0.00000000000000000 -0.00000000000000000 -1.00000000000000000 
1 0.00000000000000000 0.00000000000000000 1.00000000000000000 0.00000000000000000 
1 0.00000000000000333 -15.00000000000000000 1.00000000000000000 0.00000000000000000 
1 95.93335000000070067 35.49999999999892708 -1.00000000000000000 -0.00000000000000022 
1 -774.38226776803594475 793.52168968049272735 -1.00000000000000000 -0.00000000000000022 
1 70.99999999999779732 -0.00000000000000000 -0.00000000000000000 -1.00000000000000000 
1 0.00000000000000000 0.00000000000000000 1.00000000000000000 0.00000000000000000 
1 -0.00000000000000000 -15.00000000000000000 1.00000000000000000 0.00000000000000000 
1 -95.93334999999933643 35.49999999999888445 0.00000000000000022 -1.00000000000000000 
1 0.00000000000000000 0.00000000000000000 0.00000000000000000 -1.00000000000000000 
1 -95.93334999999933643 -35.49999999999891287 1.00000000000000000 0.00000000000000022 
1 0.00000000000000000 0.00000000000000000 1.00000000000000000 0.00000000000000000 
1 0.00000000000000000 -15.00000000000000000 1.00000000000000000 0.00000000000000000 
1 95.93335000000070067 -35.49999999999887024 -0.00000000000000022 1.00000000000000000 
1 0.00000000000000000 0.00000000000000000 0.00000000000000000 -1.00000000000000000 
1 6.28318530717958623 0.00000000000000000 0.00000000000000000 -1.00000000000000000 
1 0.00000000000000000 0.00000000000000000 1.00000000000000000 0.00000000000000000 
1 0.00000000000000000 -15.00000000000000000 1.00000000000000000 0.00000000000000000 
2 60.93335000000070067 14.50000000000112266 1.00000000000000000 0.00000000000000022 -0.00000000000000022 1.00000000000000000 5.00000000000000000
Curves 10
1 2807.99999999999863576 3325.86670000000003711 -15.00000000000220268 -1.00000000000000000 0.00000000000000022 -0.00000000000000000 
1 2807.99999999999863576 3134.00000000000000000 -15.00000000000220268 -1.00000000000000000 0.00000000000000022 -0.00000000000000000 
1 3325.86670000000003711 -15.00000000000220268 0.00000000000000000 -1.00000000000000000 0.00000000000000000 0.00000000000000000 
1 2807.99999999999863576 3134.00000000000000000 -86.00000000000000000 -1.00000000000000000 0.00000000000000022 -0.00000000000000000 
1 3134.00000000000000000 -15.00000000000220268 0.00000000000000000 0.00000000000000000 -1.00000000000000000 0.00000000000000000 
1 2807.99999999999863576 3325.86670000000003711 -86.00000000000000000 -1.00000000000000000 0.00000000000000022 -0.00000000000000000 
1 3134.00000000000000000 -86.00000000000000000 0.00000000000000000 1.00000000000000000 0.00000000000000000 0.00000000000000000 
1 3325.86670000000003711 -86.00000000000000000 0.00000000000000000 0.00000000000000000 1.00000000000000000 0.00000000000000000 
1 2807.99999999999863576 3295.86670000000003711 -36.00000000000000000 -1.00000000000000000 0.00000000000000022 -0.00000000000000000 
2 3290.86670000000003711 -36.00000000000000000 0.00000000000000000 0.00000000000000000 0.00000000000000000 1.00000000000000000 1.00000000000000000 0.00000000000000000 -0.00000000000000000 -0.00000000000000000 1.00000000000000000 0.00000000000000000 5.00000000000000000
Polygon3D 0
PolygonOnTriangulations 0
Surfaces 7
1 2807.99999999999863576 3325.86670000000003711 -15.00000000000220268 -0.00000000000000000 0.00000000000000000 1.00000000000000000 -0.00000000000000022 -1.00000000000000000 0.00000000000000000 1.00000000000000000 -0.00000000000000022 0.00000000000000000 
1 2807.99999999999863576 3325.86670000000003711 -86.00000000000000000 0.00000000000000022 1.00000000000000000 -0.00000000000000000 0.00000000000000000 0.00000000000000000 1.00000000000000000 1.00000000000000000 -0.00000000000000022 0.00000000000000000 
1 1999.47831031950590841 -0.00000000000091044 4100.24896776803598186 0.00000000000000000 1.00000000000000000 0.00000000000000022 0.00000000000000000 -0.00000000000000022 1.00000000000000000 1.00000000000000000 0.00000000000000000 -0.00000000000000000 
1 2807.99999999999863576 3134.00000000000000000 -15.00000000000220268 -0.00000000000000022 -1.00000000000000000 0.00000000000000000 0.00000000000000000 -0.00000000000000000 -1.00000000000000000 1.00000000000000000 -0.00000000000000022 0.00000000000000000 
1 2807.99999999999909051 50.50000000000039080 3229.93334999999933643 1.00000000000000000 -0.00000000000000000 0.00000000000000000 -0.00000000000000000 0.00000000000000000 1.00000000000000000 -0.00000000000000000 -1.00000000000000000 0.00000000000000000 
1 2807.99999999999863576 3134.00000000000000000 -86.00000000000000000 0.00000000000000000 -0.00000000000000000 -1.00000000000000000 0.00000000000000022 1.00000000000000000 0.00000000000000000 1.00000000000000000 -0.00000000000000022 0.00000000000000000 
2 2807.99999999999863576 3290.86670000000003711 -36.00000000000000000 1.00000000000000000 -0.00000000000000022 0.00000000000000000 0.00000000000000022 1.00000000000000000 0.00000000000000000 -0.00000000000000000 0.00000000000000000 1.00000000000000000 5.00000000000000000
Triangulations 0

TShapes 30
Ve
0.000000100004586
3325.866700000000037 -15.000000000002203 0.000000000000000
0 0

0101101
*
Ed
 0.000000100002203 1 1 0
1  1 0 0.000000000000000 15.000000000000000
2  1 1 0 0.000000000000000 15.000000000000000
2  2 2 0 0.000000000000000 15.000000000000000
2  3 3 5 0.000000000000000 15.000000000000000
0

0101000
+30 8 -30 10 *
Ve
0.000000100002203
3134.000000000000000 -15.000000000002203 0.000000000000000
0 0

0101101
*
Ed
 0.000000100000000 1 1 0
1  2 0 0.000000000000000 15.000000000000000
2  4 1 0 0.000000000000000 15.000000000000000
2  5 4 0 0.000000000000000 15.000000000000000
0

0101000
+28 8 -28 10 *
Ed
 0.000000100002203 1 1 0
1  3 0 0.000000000000000 191.866700000000037
2  6 1 11 0.000000000000000 191.866700000000037
2  7 1 12 0.000000000000000 191.866700000000037
2  8 5 13 0.000000000000000 191.866700000000037
2  9 3 14 0.000000000000000 191.866700000000037
0

0101000
+30 0 -28 0 *
Wi

0101100
+29 0 -27 0 -26 8 +26 10 *
Fa
0  0.000000100000000 1 0

0111000
+25 0 *
Ve
0.000000100000000
3134.000000000000000 -86.000000000000000 0.000000000000000
0 0

0101101
*
Ed
 0.000000100000000 1 1 0
1  4 0 0.000000000000000 15.000000000000000
2  10 4 0 0.000000000000000 15.000000000000000
0

0101000
+23 8 -23 10 *
Ed
 0.000000100000000 1 1 0
1  5 0 0.000000000000000 70.999999999997797
2  11 4 11 0.000000000000000 70.999999999997797
2  12 4 12 0.000000000000000 70.999999999997797
2  13 5 13 0.000000000000000 70.999999999997797
0

0101000
+28 0 -23 0 *
Wi

0101100
+27 0 -22 0 -21 8 +21 10 *
Fa
0  0.000000100000000 4 0

0111000
+20 0 *
Ve
0.000000100000000
3325.866700000000037 -86.000000000000000 0.000000000000000
0 0

0101101
*
Ed
 0.000000100000000 1 1 0
1  6 0 0.000000000000000 15.000000000000000
2  14 2 0 0.000000000000000 15.000000000000000
0

0101000
+18 8 -18 10 *
Ed
 0.000000100000000 1 1 0
1  7 0 0.000000000000000 191.866700000000037
2  15 5 13 0.000000000000000 191.866700000000037
0

0101000
+23 0 -18 0 *
Wi

0101100
+22 0 -17 0 -16 8 +16 10 *
Fa
0  0.000000100000000 6 0

0111000
+15 0 *
Ed
 0.000000100000000 1 1 0
1  8 0 0.000000000000000 70.999999999997797
2  16 2 11 0.000000000000000 70.999999999997797
2  17 2 12 0.000000000000000 70.999999999997797
2  18 5 13 0.000000000000000 70.999999999997797
0

0101000
+18 0 -30 0 *
Wi

0101100
+17 0 -29 0 -13 8 +13 10 *
Fa
0  0.000000100000000 2 0

0111000
+12 0 *
Ve
0.000000100000000
3295.866700000000037 -36.000000000000000 0.000000000000000
0 0

0101101
*
Ed
 0.000000100000000 1 1 0
1  9 0 0.000000000000000 15.000000000000000
3  19 20CN 7 0 0.000000000000000 15.000000000000000
0

0101000
+10 8 -10 10 *
Ed
 0.000000100000000 1 1 0
1  10 0 0.000000000000000 6.283185307179586
2  21 7 11 0.000000000000000 6.283185307179586
2  22 7 12 0.000000000000000 6.283185307179586
2  23 5 13 0.000000000000000 6.283185307179586
0

0101000
+10 0 -10 0 *
Wi

0101100
+9 0 -9 0 -8 8 +8 10 *
Fa
0  0.000000100000000 7 0

0111000
+7 0 *
Wi

0101100
+26 16 +21 16 +16 16 +13 16 *
Wi

0101100
-8 16 *
Fa
0  0.000000100000000 5 0

0111000
+5 0 +4 0 *
Sh

0101100
+24 0 +19 0 +14 0 +11 0 -6 0 +3 15 -3 17 *
So

1100000
+2 0 *

+1 0 