
CASCADE Topology V1, (c) Matra-Datavision
Locations 16
1
1.000000000000000 0.000000000000000 0.000000000000000 0.000000000000000 
0.000000000000000 1.000000000000000 0.000000000000000 0.000000000000000 
0.000000000000000 0.000000000000000 1.000000000000000 0.000000000000000 
1
1.000000000000000 0.000000000000000 0.000000000000000 0.000000000000000 
0.000000000000000 -0.000000000000000 -1.000000000000000 -15.000000000000000 
0.000000000000000 1.000000000000000 -0.000000000000000 -0.000000000000003 
1
1.000000000000000 0.000000000000000 0.000000000000000 0.000000000000000 
0.000000000000000 -0.000000000000000 -1.000000000000000 0.000000000000000 
0.000000000000000 1.000000000000000 -0.000000000000000 0.000000000000000 
2  1 1 2 1 3 -1 0
1
1.000000000000000 0.000000000000000 0.000000000000000 0.000000000000000 
0.000000000000000 1.000000000000000 0.000000000000000 0.000000000000000 
0.000000000000000 0.000000000000000 1.000000000000000 122.000000000000000 
2  1 1 2 1 3 -1 5 1 0
2  3 1 2 -1 1 -1 0
2  5 -1 3 1 2 -1 1 -1 0
2  2 -1 1 -1 0
1
1.000000000000000 0.000000000000000 0.000000000000000 0.000000000000000 
0.000000000000000 -0.000000000000000 -1.000000000000000 0.000000000000000 
0.000000000000000 1.000000000000000 -0.000000000000000 0.000000000000000 
1
1.000000000000000 0.000000000000000 0.000000000000000 0.000000000000000 
0.000000000000000 1.000000000000000 0.000000000000000 0.000000000000000 
0.000000000000000 0.000000000000000 1.000000000000000 15.000000000000000 
1
1.000000000000000 0.000000000000000 0.000000000000000 0.000000000000000 
0.000000000000000 -0.000000000000000 -1.000000000000000 0.000000000000000 
0.000000000000000 1.000000000000000 -0.000000000000000 0.000000000000000 
2  10 -1 11 1 12 1 2 -1 1 -1 0
2  3 -1 0
2  1 1 2 1 0
2  3 -1 5 1 0
Curve2ds 21
1 0.00000000000000000 0.00000000000000000 0.00000000000000000 -1.00000000000000000 
1 250.00000000000000000 0.00000000000000000 0.00000000000000000 -1.00000000000000000 
1 15.00000000000000000 -0.00000000000000000 0.00000000000000000 -1.00000000000000000 
1 0.00000000000000000 -0.00000000000000000 0.00000000000000000 -1.00000000000000000 
1 0.00000000000000000 0.00000000000000000 1.00000000000000000 0.00000000000000000 
1 -0.00000000000000000 -122.00000000000000000 1.00000000000000000 0.00000000000000000 
1 125.00000000000000000 -7.50000000000000000 -0.00000000000000000 1.00000000000000000 
1 0.00000000000000000 -0.00000000000000000 0.00000000000000000 -1.00000000000000000 
1 250.00000000000000000 0.00000000000000000 0.00000000000000000 -1.00000000000000000 
1 125.00000000000000000 7.50000000000000000 -1.00000000000000000 0.00000000000000000 
1 0.00000000000000000 -0.00000000000000000 1.00000000000000000 0.00000000000000000 
1 0.00000000000000000 -122.00000000000000000 1.00000000000000000 0.00000000000000000 
1 81.47561047222916386 -406.05897275524978340 1.00000000000000000 -0.00000000000000000 
1 0.00000000000000000 0.00000000000000000 0.00000000000000000 -1.00000000000000000 
1 15.00000000000000000 0.00000000000000000 0.00000000000000000 -1.00000000000000000 
1 -125.00000000000000000 7.50000000000000000 0.00000000000000000 -1.00000000000000000 
1 0.00000000000000000 -0.00000000000000000 1.00000000000000000 0.00000000000000000 
1 0.00000000000000000 -122.00000000000000000 1.00000000000000000 0.00000000000000000 
1 0.00000000000000000 0.00000000000000000 1.00000000000000000 0.00000000000000000 
1 0.00000000000000000 -122.00000000000000000 1.00000000000000000 0.00000000000000000 
1 -125.00000000000000000 -7.50000000000000000 1.00000000000000000 0.00000000000000000 
Curves 8
1 999.98999999999966803 2772.50000000000000000 15.00000000000000000 0.00000000000000000 0.00000000000000000 1.00000000000000000 
1 1014.98999999999966803 2772.50000000000000000 15.00000000000000000 0.00000000000000000 0.00000000000000000 1.00000000000000000 
1 999.98999999999966803 2772.50000000000000000 0.00000000000000000 1.00000000000000000 0.00000000000000000 0.00000000000000000 
1 1014.98999999999966803 2522.50000000000000000 15.00000000000000000 0.00000000000000000 0.00000000000000000 1.00000000000000000 
1 1014.98999999999966803 2772.50000000000000000 0.00000000000000000 0.00000000000000000 -1.00000000000000000 0.00000000000000000 
1 999.98999999999966803 2522.50000000000000000 15.00000000000000000 0.00000000000000000 0.00000000000000000 1.00000000000000000 
1 1014.98999999999966803 2522.50000000000000000 0.00000000000000000 -1.00000000000000000 0.00000000000000000 0.00000000000000000 
1 999.98999999999966803 2522.50000000000000000 0.00000000000000000 0.00000000000000000 1.00000000000000000 0.00000000000000000 
Polygon3D 0
PolygonOnTriangulations 0
Surfaces 6
1 999.98999999999966803 2772.50000000000000000 15.00000000000000000 -0.00000000000000000 1.00000000000000000 0.00000000000000000 1.00000000000000000 0.00000000000000000 -0.00000000000000000 -0.00000000000000000 0.00000000000000000 -1.00000000000000000 
1 999.98999999999966803 2522.50000000000000000 15.00000000000000000 -1.00000000000000000 0.00000000000000000 0.00000000000000000 0.00000000000000000 1.00000000000000000 0.00000000000000000 0.00000000000000000 0.00000000000000000 -1.00000000000000000 
1 1014.98999999999966803 2772.50000000000000000 15.00000000000000000 1.00000000000000000 0.00000000000000000 -0.00000000000000000 0.00000000000000000 -1.00000000000000000 0.00000000000000000 0.00000000000000000 -0.00000000000000000 -1.00000000000000000 
1 1007.48999999999966803 -15.00000000000058797 2647.50000000000000000 0.00000000000000000 1.00000000000000000 0.00000000000000023 0.00000000000000000 -0.00000000000000023 1.00000000000000000 1.00000000000000000 0.00000000000000000 -0.00000000000000000 
1 1014.98999999999966803 2522.50000000000000000 15.00000000000000000 0.00000000000000000 -1.00000000000000000 0.00000000000000000 -1.00000000000000000 0.00000000000000000 0.00000000000000000 -0.00000000000000000 -0.00000000000000000 -1.00000000000000000 
1 1421.04897275524945144 -0.00000000000063371 2853.97561047222916386 0.00000000000000000 -1.00000000000000000 -0.00000000000000022 0.00000000000000000 0.00000000000000022 -1.00000000000000000 1.00000000000000000 0.00000000000000000 0.00000000000000000 
Triangulations 0

TShapes 24
Ve
0.000000100000000
999.989999999999668 2772.500000000000000 0.000000000000000
0 0

0101101
*
Ed
 0.000000100000000 1 1 0
1  1 0 0.000000000000000 122.000000000000000
2  1 1 0 0.000000000000000 122.000000000000000
2  2 2 0 0.000000000000000 122.000000000000000
0

0101000
+24 4 -24 6 *
Ve
0.000000100000000
1014.989999999999668 2772.500000000000000 0.000000000000000
0 0

0101101
*
Ed
 0.000000100000000 1 1 0
1  2 0 0.000000000000000 122.000000000000000
2  3 1 0 0.000000000000000 122.000000000000000
2  4 3 0 0.000000000000000 122.000000000000000
0

0101000
+22 4 -22 6 *
Ed
 0.000000100000000 1 1 0
1  3 0 0.000000000000000 15.000000000000000
2  5 1 7 0.000000000000000 15.000000000000000
2  6 1 8 0.000000000000000 15.000000000000000
2  7 4 9 0.000000000000000 15.000000000000000
0

0101000
+24 0 -22 0 *
Wi

0101100
+23 0 -21 0 -20 4 +20 6 *
Fa
0  0.000000100000000 1 0

0111000
+19 0 *
Ve
0.000000100000000
1014.989999999999668 2522.500000000000000 0.000000000000000
0 0

0101101
*
Ed
 0.000000100000000 1 1 0
1  4 0 0.000000000000000 122.000000000000000
2  8 5 0 0.000000000000000 122.000000000000000
2  9 3 0 0.000000000000000 122.000000000000000
0

0101000
+17 4 -17 6 *
Ed
 0.000000100000000 1 1 0
1  5 0 0.000000000000000 250.000000000000000
2  10 4 9 0.000000000000000 250.000000000000000
2  11 3 7 0.000000000000000 250.000000000000000
2  12 3 8 0.000000000000000 250.000000000000000
2  13 6 13 0.000000000000000 250.000000000000000
0

0101000
+22 0 -17 0 *
Wi

0101100
+21 0 -16 0 -15 4 +15 6 *
Fa
0  0.000000100000000 3 0

0111000
+14 0 *
Ve
0.000000100000000
999.989999999999668 2522.500000000000000 0.000000000000000
0 0

0101101
*
Ed
 0.000000100000000 1 1 0
1  6 0 0.000000000000000 122.000000000000000
2  14 2 0 0.000000000000000 122.000000000000000
2  15 5 0 0.000000000000000 122.000000000000000
0

0101000
+12 4 -12 6 *
Ed
 0.000000100000000 1 1 0
1  7 0 0.000000000000000 15.000000000000000
2  16 4 9 0.000000000000000 15.000000000000000
2  17 5 7 0.000000000000000 15.000000000000000
2  18 5 8 0.000000000000000 15.000000000000000
0

0101000
+17 0 -12 0 *
Wi

0101100
+16 0 -11 0 -10 4 +10 6 *
Fa
0  0.000000100000000 5 0

0111000
+9 0 *
Ed
 0.000000100000000 1 1 0
1  8 0 0.000000000000000 250.000000000000000
2  19 2 7 0.000000000000000 250.000000000000000
2  20 2 8 0.000000000000000 250.000000000000000
2  21 4 9 0.000000000000000 250.000000000000000
0

0101000
+12 0 -24 0 *
Wi

0101100
+11 0 -23 0 -7 4 +7 6 *
Fa
0  0.000000100000000 2 0

0111000
+6 0 *
Wi

0101100
+20 0 +15 0 +10 0 +7 0 *
Fa
0  0.000000100000000 4 0

0111000
+4 15 *
Sh

0101100
+18 0 +13 0 +8 0 +5 0 +3 14 -3 16 *
So

1100000
+2 0 *

+1 0 