
CASCADE Topology V1, (c) Matra-Datavision
Locations 34
1
1.000000000000000 0.000000000000000 0.000000000000000 0.000000000000000 
0.000000000000000 0.000000000000000 -1.000000000000000 0.000000000000000 
0.000000000000000 1.000000000000000 0.000000000000000 0.000000000000000 
1
1.000000000000000 0.000000000000000 0.000000000000000 0.000000000000000 
0.000000000000000 -0.000000000000000 -1.000000000000000 0.000000000000000 
0.000000000000000 1.000000000000000 -0.000000000000000 0.000000000000000 
1
1.000000000000000 0.000000000000000 0.000000000000000 0.000000000000000 
0.000000000000000 -0.000000000000000 -1.000000000000000 0.000000000000000 
0.000000000000000 1.000000000000000 -0.000000000000000 0.000000000000000 
2  2 1 3 -1 0
1
1.000000000000000 0.000000000000000 0.000000000000000 0.000000000000000 
0.000000000000000 1.000000000000000 0.000000000000000 0.000000000000000 
0.000000000000000 0.000000000000000 1.000000000000000 0.000000000000000 
1
1.000000000000000 0.000000000000000 0.000000000000000 0.000000000000000 
0.000000000000000 -0.000000000000000 -1.000000000000000 0.000000000000000 
0.000000000000000 1.000000000000000 -0.000000000000000 0.000000000000000 
1
1.000000000000000 0.000000000000000 0.000000000000000 0.000000000000000 
0.000000000000000 -0.000000000000000 -1.000000000000000 0.000000000000000 
0.000000000000000 1.000000000000000 -0.000000000000000 0.000000000000000 
2  5 1 6 1 7 -1 0
1
1.000000000000000 0.000000000000000 0.000000000000000 -0.000000000000000 
0.000000000000000 1.000000000000000 0.000000000000000 -0.000000000000000 
0.000000000000000 0.000000000000000 1.000000000000000 -15.000000000000000 
2  5 1 6 1 7 -1 9 1 0
2  6 -1 5 -1 0
2  3 1 2 -1 0
2  5 1 6 1 7 -1 2 1 3 -1 0
2  7 1 6 -1 5 -1 0
2  9 -1 7 1 6 -1 5 -1 0
2  3 1 2 -1 7 1 6 -1 5 -1 0
1
1.000000000000000 0.000000000000000 0.000000000000000 0.000000000000000 
0.000000000000000 1.000000000000000 0.000000000000000 0.000000000000000 
0.000000000000000 0.000000000000000 1.000000000000000 0.000000000000000 
1
0.000000000000000 -0.000000000000000 1.000000000000000 1858.000000000000000 
-0.000000000000000 -1.000000000000000 0.000000000000000 0.000000000000000 
1.000000000000000 0.000000000000000 -0.000000000000000 0.000000000000000 
2  17 1 18 1 2 -1 7 1 6 -1 5 -1 0
2  5 1 6 1 7 -1 9 1 2 1 3 -1 0
2  7 -1 2 1 3 -1 0
2  17 1 18 1 3 -1 0
1
1.000000000000000 0.000000000000000 0.000000000000000 -12.000000000000000 
0.000000000000000 1.000000000000000 0.000000000000000 0.000000000000003 
0.000000000000000 0.000000000000000 1.000000000000000 -0.000000000000000 
2  17 1 18 1 3 -1 23 1 0
2  3 1 18 -1 17 -1 0
2  23 -1 3 1 18 -1 17 -1 0
2  18 -1 17 -1 0
2  7 -1 2 1 3 -1 23 -1 3 1 18 -1 17 -1 0
2  17 1 18 1 3 -1 23 1 3 1 2 -1 7 1 6 -1 5 -1 0
2  7 -1 9 1 2 1 3 -1 0
2  5 1 6 1 0
2  3 -1 0
2  3 -1 23 1 0
2  17 1 18 1 0
Curve2ds 66
1 250.00000000000000000 0.00000000000000000 0.00000000000000000 -1.00000000000000000 
1 -377.49464770746999420 893.33979019802177390 0.00000000000000000 -1.00000000000000000 
1 177.04886595291213780 0.00000000000000000 0.00000000000000000 -1.00000000000000000 
1 0.00000000000000000 0.00000000000000000 0.00000000000000000 -1.00000000000000000 
1 0.00000000000000000 0.00000000000000000 1.00000000000000000 0.00000000000000000 
1 0.00000000000000000 -15.00000000000000000 1.00000000000000000 0.00000000000000000 
1 -127.49464770746999420 893.33979019802177390 -1.00000000000000000 0.00000000000000000 
1 -377.49464770746999420 639.07188941100980628 0.56394902148174875 -0.82580960346182586 
1 0.00000000000000000 0.00000000000000000 -0.00000000000000000 -1.00000000000000000 
1 80.00000000000000000 -0.00000000000000000 -0.00000000000000000 -1.00000000000000000 
1 -257.49464770746999420 893.33979019802245602 -0.00000000000000022 -1.00000000000000000 
1 0.00000000000000000 0.00000000000000000 1.00000000000000000 0.00000000000000000 
1 0.00000000000000266 -12.00000000000000000 1.00000000000000000 0.00000000000000000 
1 -39.99999999999997868 65.00000000000000000 -0.00000000000000022 -1.00000000000000000 
1 -257.49464770746999420 881.33979019802245602 1.00000000000000000 -0.00000000000000022 
1 0.00000000000000000 0.00000000000000000 1.00000000000000000 0.00000000000000000 
1 0.00000000000000000 -15.00000000000000000 1.00000000000000000 0.00000000000000000 
1 -127.49464770746999420 716.29092424510963610 0.00000000000000000 1.00000000000000000 
1 234.00535229253000580 186.93426206476488005 -0.56394902148174875 0.82580960346182586 
1 234.00535229253000580 -937.66020980197822610 0.00000000000000000 1.00000000000000000 
1 -15.99464770746999420 -937.66020980197822610 1.00000000000000000 0.00000000000000000 
1 0.00000000000000000 0.00000000000000000 1.00000000000000000 0.00000000000000000 
1 0.00000000000000000 -15.00000000000000000 1.00000000000000000 0.00000000000000000 
1 -15.99464770746999420 109.71522723066505023 0.00000000000000000 -1.00000000000000000 
1 0.00000000000000000 0.00000000000000000 1.00000000000000000 0.00000000000000000 
1 0.00000000000000000 -15.00000000000000000 1.00000000000000000 0.00000000000000000 
2 -166.74464770746999420 429.33979019802177390 0.00000000000000000 1.00000000000000000 -1.00000000000000000 0.00000000000000000 5.00000000000000000
1 0.00000000000000000 0.00000000000000000 1.00000000000000000 0.00000000000000000 
1 0.00000000000000000 -15.00000000000000000 1.00000000000000000 0.00000000000000000 
2 -166.74464770746999420 581.33979019802177390 0.00000000000000000 1.00000000000000000 -1.00000000000000000 0.00000000000000000 5.00000000000000000
1 0.00000000000000000 0.00000000000000000 1.00000000000000000 0.00000000000000000 
1 0.00000000000000000 -15.00000000000000000 1.00000000000000000 0.00000000000000000 
2 -352.49464770746999420 701.33979019802177390 0.00000000000000000 1.00000000000000000 -1.00000000000000000 0.00000000000000000 5.00000000000000000
1 0.00000000000000000 0.00000000000000000 1.00000000000000000 0.00000000000000000 
1 0.00000000000000000 -15.00000000000000000 1.00000000000000000 0.00000000000000000 
2 -352.49464770746999420 813.33979019802177390 0.00000000000000000 1.00000000000000000 -1.00000000000000000 0.00000000000000000 5.00000000000000000
1 0.00000000000000000 0.00000000000000000 0.00000000000000000 -1.00000000000000000 
1 0.00000000000000000 0.00000000000000000 1.00000000000000000 0.00000000000000000 
1 0.00000000000000000 -12.00000000000000000 1.00000000000000000 0.00000000000000000 
1 -40.00000000000000711 -65.00000000000000000 1.00000000000000000 -0.00000000000000022 
1 39.99999999999999289 -65.00000000000000000 0.00000000000000022 1.00000000000000000 
1 40.00000000000002132 65.00000000000000000 -1.00000000000000000 0.00000000000000022 
1 0.00000000000000000 0.00000000000000000 1.00000000000000000 0.00000000000000000 
1 -0.00000000000000000 -12.00000000000000000 1.00000000000000000 0.00000000000000000 
1 0.00000000000000000 0.00000000000000000 1.00000000000000000 0.00000000000000000 
1 0.00000000000000000 -12.00000000000000000 1.00000000000000000 0.00000000000000000 
2 0.00000000000000000 -25.00000000000000000 0.00000000000000022 1.00000000000000000 1.00000000000000000 -0.00000000000000022 5.00000000000000000
1 0.00000000000000000 0.00000000000000000 1.00000000000000000 0.00000000000000000 
1 0.00000000000000000 -12.00000000000000000 1.00000000000000000 0.00000000000000000 
2 0.00000000000001421 25.00000000000000000 0.00000000000000022 1.00000000000000000 1.00000000000000000 -0.00000000000000022 5.00000000000000000
1 0.00000000000000000 0.00000000000000000 0.00000000000000000 -1.00000000000000000 
1 0.00000000000000000 0.00000000000000000 -0.00000000000000000 -1.00000000000000000 
1 250.00000000000000000 0.00000000000000000 0.00000000000000000 -1.00000000000000000 
1 0.00000000000000000 0.00000000000000000 0.00000000000000000 -1.00000000000000000 
1 6.28318530717958623 0.00000000000000000 0.00000000000000000 -1.00000000000000000 
1 0.00000000000000000 0.00000000000000000 0.00000000000000000 -1.00000000000000000 
1 6.28318530717958623 0.00000000000000000 0.00000000000000000 -1.00000000000000000 
1 0.00000000000000000 0.00000000000000000 0.00000000000000000 -1.00000000000000000 
1 6.28318530717958623 0.00000000000000000 0.00000000000000000 -1.00000000000000000 
1 0.00000000000000000 0.00000000000000000 0.00000000000000000 -1.00000000000000000 
1 6.28318530717958623 0.00000000000000000 0.00000000000000000 -1.00000000000000000 
1 80.00000000000000000 0.00000000000000000 0.00000000000000000 -1.00000000000000000 
1 0.00000000000000000 0.00000000000000000 0.00000000000000000 -1.00000000000000000 
1 6.28318530717958623 0.00000000000000000 0.00000000000000000 -1.00000000000000000 
1 0.00000000000000000 0.00000000000000000 0.00000000000000000 -1.00000000000000000 
1 6.28318530717958623 0.00000000000000000 0.00000000000000000 -1.00000000000000000 
Curves 35
1 1858.00000000000000000 3134.00000000000000000 0.00000000000000000 -0.00000000000000000 -0.00000000000000000 -1.00000000000000000 
1 1603.73209921298803238 3134.00000000000000000 0.00000000000000000 -0.00000000000000000 -0.00000000000000000 -1.00000000000000000 
1 1858.00000000000000000 3134.00000000000000000 0.00000000000000000 -1.00000000000000000 0.00000000000000000 0.00000000000000000 
1 1858.00000000000000000 2884.00000000000000000 0.00000000000000000 -0.00000000000000000 -0.00000000000000000 -1.00000000000000000 
1 1858.00000000000000000 2884.00000000000000000 0.00000000000000000 0.00000000000000000 1.00000000000000000 0.00000000000000000 
1 1074.37543703264327632 2772.50000000000000000 0.00000000000000000 -0.00000000000000000 -0.00000000000000000 -1.00000000000000000 
1 1603.73209921298803238 3134.00000000000000000 0.00000000000000000 -0.82580960346182586 -0.56394902148174875 0.00000000000000000 
1 1858.00000000000068212 3014.00000000000000000 -0.00000000000000000 -1.00000000000000000 0.00000000000000022 -0.00000000000000000 
1 3014.00000000000000000 0.00000000000000000 0.00000000000000000 -1.00000000000000000 0.00000000000000000 0.00000000000000000 
1 1680.95113404708786220 2884.00000000000000000 0.00000000000000000 1.00000000000000000 0.00000000000000000 0.00000000000000000 
1 1151.59447186674310615 2522.50000000000000000 0.00000000000000000 0.82580960346182586 0.56394902148174875 0.00000000000000000 
1 27.00000000000000000 2522.50000000000000000 0.00000000000000000 1.00000000000000000 0.00000000000000000 0.00000000000000000 
1 27.00000000000000000 2772.50000000000000000 0.00000000000000000 0.00000000000000000 -1.00000000000000000 0.00000000000000000 
1 1074.37543703264327632 2772.50000000000000000 0.00000000000000000 -1.00000000000000000 0.00000000000000000 0.00000000000000000 
2 1394.00000000000000000 2923.25000000000000000 0.00000000000000000 0.00000000000000000 0.00000000000000000 1.00000000000000000 1.00000000000000000 0.00000000000000000 -0.00000000000000000 -0.00000000000000000 1.00000000000000000 0.00000000000000000 5.00000000000000000
2 1546.00000000000000000 2923.25000000000000000 0.00000000000000000 0.00000000000000000 0.00000000000000000 1.00000000000000000 1.00000000000000000 0.00000000000000000 -0.00000000000000000 -0.00000000000000000 1.00000000000000000 0.00000000000000000 5.00000000000000000
2 1666.00000000000000000 3109.00000000000000000 0.00000000000000000 0.00000000000000000 0.00000000000000000 1.00000000000000000 1.00000000000000000 0.00000000000000000 -0.00000000000000000 -0.00000000000000000 1.00000000000000000 0.00000000000000000 5.00000000000000000
2 1778.00000000000000000 3109.00000000000000000 0.00000000000000000 0.00000000000000000 0.00000000000000000 1.00000000000000000 1.00000000000000000 0.00000000000000000 -0.00000000000000000 -0.00000000000000000 1.00000000000000000 0.00000000000000000 5.00000000000000000
1 1680.95113404708786220 2884.00000000000000000 0.00000000000000000 -0.00000000000000000 -0.00000000000000000 -1.00000000000000000 
1 2884.00000000000000000 0.00000000000000000 0.00000000000000000 0.00000000000000000 1.00000000000000000 0.00000000000000000 
1 2884.00000000000000000 80.00000000000000000 0.00000000000000000 1.00000000000000000 0.00000000000000000 0.00000000000000000 
1 3014.00000000000000000 80.00000000000000000 0.00000000000000000 0.00000000000000000 -1.00000000000000000 0.00000000000000000 
2 2924.00000000000000000 40.00000000000000000 0.00000000000000000 0.00000000000000000 0.00000000000000000 1.00000000000000000 1.00000000000000000 0.00000000000000000 -0.00000000000000000 -0.00000000000000000 1.00000000000000000 0.00000000000000000 5.00000000000000000
2 2974.00000000000000000 40.00000000000000000 0.00000000000000000 0.00000000000000000 0.00000000000000000 1.00000000000000000 1.00000000000000000 0.00000000000000000 -0.00000000000000000 -0.00000000000000000 1.00000000000000000 0.00000000000000000 5.00000000000000000
1 27.00000000000000000 2772.50000000000000000 0.00000000000000000 -0.00000000000000000 -0.00000000000000000 -1.00000000000000000 
1 1858.00000000000068212 3014.00000000000000000 80.00000000000000000 -1.00000000000000000 0.00000000000000022 -0.00000000000000000 
1 1151.59447186674310615 2522.50000000000000000 0.00000000000000000 -0.00000000000000000 -0.00000000000000000 -1.00000000000000000 
1 27.00000000000000000 2522.50000000000000000 0.00000000000000000 -0.00000000000000000 -0.00000000000000000 -1.00000000000000000 
1 1399.00000000000000000 2923.25000000000000000 0.00000000000000000 -0.00000000000000000 -0.00000000000000000 -1.00000000000000000 
1 1551.00000000000000000 2923.25000000000000000 0.00000000000000000 -0.00000000000000000 -0.00000000000000000 -1.00000000000000000 
1 1671.00000000000000000 3109.00000000000000000 0.00000000000000000 -0.00000000000000000 -0.00000000000000000 -1.00000000000000000 
1 1783.00000000000000000 3109.00000000000000000 0.00000000000000000 -0.00000000000000000 -0.00000000000000000 -1.00000000000000000 
1 1858.00000000000068212 2884.00000000000000000 80.00000000000000000 -1.00000000000000000 0.00000000000000022 -0.00000000000000000 
1 1858.00000000000068212 2929.00000000000000000 40.00000000000000000 -1.00000000000000000 0.00000000000000022 -0.00000000000000000 
1 1858.00000000000068212 2979.00000000000000000 40.00000000000000000 -1.00000000000000000 0.00000000000000022 -0.00000000000000000 
Polygon3D 0
PolygonOnTriangulations 0
Surfaces 20
1 1858.00000000000000000 3134.00000000000000000 0.00000000000000000 0.00000000000000000 1.00000000000000000 -0.00000000000000000 -1.00000000000000000 0.00000000000000000 0.00000000000000000 0.00000000000000000 0.00000000000000000 1.00000000000000000 
1 1858.00000000000000000 2884.00000000000000000 0.00000000000000000 1.00000000000000000 0.00000000000000000 0.00000000000000000 -0.00000000000000000 1.00000000000000000 0.00000000000000000 0.00000000000000000 -0.00000000000000000 1.00000000000000000 
1 964.66020980197822610 -0.00000000000061207 2756.50535229253000580 0.00000000000000000 -1.00000000000000000 -0.00000000000000022 0.00000000000000000 0.00000000000000022 -1.00000000000000000 1.00000000000000000 0.00000000000000000 0.00000000000000000 
1 1680.95113404708786220 2884.00000000000000000 0.00000000000000000 0.00000000000000000 -1.00000000000000000 0.00000000000000000 1.00000000000000000 0.00000000000000000 0.00000000000000000 -0.00000000000000000 0.00000000000000000 1.00000000000000000 
1 1603.73209921298803238 3134.00000000000000000 0.00000000000000000 -0.56394902148174875 0.82580960346182586 0.00000000000000000 -0.82580960346182586 -0.56394902148174875 0.00000000000000000 0.00000000000000000 0.00000000000000000 1.00000000000000000 
1 1858.00000000000068212 3014.00000000000000000 -0.00000000000000000 -0.00000000000000000 0.00000000000000000 1.00000000000000000 -0.00000000000000022 -1.00000000000000000 0.00000000000000000 1.00000000000000000 -0.00000000000000022 0.00000000000000000 
1 1858.00000000000068212 3014.00000000000000000 80.00000000000000000 -0.00000000000000022 -1.00000000000000000 0.00000000000000000 0.00000000000000000 -0.00000000000000000 -1.00000000000000000 1.00000000000000000 -0.00000000000000022 0.00000000000000000 
1 1858.00000000000045475 -40.00000000000064659 2949.00000000000000000 -1.00000000000000000 -0.00000000000000000 -0.00000000000000000 0.00000000000000000 -1.00000000000000000 0.00000000000000000 -0.00000000000000000 0.00000000000000000 1.00000000000000000 
1 27.00000000000000000 2772.50000000000000000 0.00000000000000000 -1.00000000000000000 0.00000000000000000 0.00000000000000000 0.00000000000000000 -1.00000000000000000 0.00000000000000000 0.00000000000000000 0.00000000000000000 1.00000000000000000 
2 1394.00000000000000000 2923.25000000000000000 0.00000000000000000 0.00000000000000000 0.00000000000000000 1.00000000000000000 1.00000000000000000 0.00000000000000000 -0.00000000000000000 -0.00000000000000000 1.00000000000000000 0.00000000000000000 5.00000000000000000
2 1546.00000000000000000 2923.25000000000000000 0.00000000000000000 0.00000000000000000 0.00000000000000000 1.00000000000000000 1.00000000000000000 0.00000000000000000 -0.00000000000000000 -0.00000000000000000 1.00000000000000000 0.00000000000000000 5.00000000000000000
2 1666.00000000000000000 3109.00000000000000000 0.00000000000000000 0.00000000000000000 0.00000000000000000 1.00000000000000000 1.00000000000000000 0.00000000000000000 -0.00000000000000000 -0.00000000000000000 1.00000000000000000 0.00000000000000000 5.00000000000000000
2 1778.00000000000000000 3109.00000000000000000 0.00000000000000000 0.00000000000000000 0.00000000000000000 1.00000000000000000 1.00000000000000000 0.00000000000000000 -0.00000000000000000 -0.00000000000000000 1.00000000000000000 0.00000000000000000 5.00000000000000000
1 1858.00000000000068212 2884.00000000000000000 -0.00000000000000000 0.00000000000000022 1.00000000000000000 -0.00000000000000000 0.00000000000000000 0.00000000000000000 1.00000000000000000 1.00000000000000000 -0.00000000000000022 0.00000000000000000 
2 1858.00000000000068212 2924.00000000000000000 40.00000000000000000 1.00000000000000000 -0.00000000000000022 0.00000000000000000 0.00000000000000022 1.00000000000000000 0.00000000000000000 -0.00000000000000000 0.00000000000000000 1.00000000000000000 5.00000000000000000
2 1858.00000000000068212 2974.00000000000000000 40.00000000000000000 1.00000000000000000 -0.00000000000000022 0.00000000000000000 0.00000000000000022 1.00000000000000000 0.00000000000000000 -0.00000000000000000 0.00000000000000000 1.00000000000000000 5.00000000000000000
1 1074.37543703264327632 2772.50000000000000000 0.00000000000000000 0.00000000000000000 1.00000000000000000 -0.00000000000000000 -1.00000000000000000 0.00000000000000000 0.00000000000000000 0.00000000000000000 0.00000000000000000 1.00000000000000000 
1 1151.59447186674310615 2522.50000000000000000 0.00000000000000000 0.56394902148174875 -0.82580960346182586 0.00000000000000000 0.82580960346182586 0.56394902148174875 0.00000000000000000 -0.00000000000000000 0.00000000000000000 1.00000000000000000 
1 27.00000000000000000 2522.50000000000000000 0.00000000000000000 0.00000000000000000 -1.00000000000000000 0.00000000000000000 1.00000000000000000 0.00000000000000000 0.00000000000000000 -0.00000000000000000 0.00000000000000000 1.00000000000000000 
1 1858.00000000000068212 2884.00000000000000000 80.00000000000000000 0.00000000000000000 -0.00000000000000000 -1.00000000000000000 0.00000000000000022 1.00000000000000000 0.00000000000000000 1.00000000000000000 -0.00000000000000022 0.00000000000000000 
Triangulations 0

TShapes 115
Ve
0.000000100000000
1858.000000000000000 3134.000000000000000 0.000000000000000
0 0

0101101
*
Ed
 0.000000100000000 1 1 0
1  1 0 0.000000000000000 15.000000000000000
2  1 2 0 0.000000000000000 15.000000000000000
0

0101000
+115 8 -115 10 *
Ve
0.000000100000000
1603.732099212988032 3134.000000000000000 0.000000000000000
0 0

0101101
*
Ed
 0.000000100000000 1 1 0
1  2 0 0.000000000000000 15.000000000000000
0

0101000
+113 8 -113 10 *
Ed
 0.000000100000000 1 1 0
1  3 0 0.000000000000000 254.267900787011968
2  2 3 11 0.000000000000000 254.267900787011968
0

0101000
+115 0 -113 0 *
Wi

0101100
+114 0 -112 0 -111 8 +111 10 *
Fa
0  0.000000100000000 1 0

0111000
+110 0 *
Ve
0.000000100000909
1858.000000000000227 2884.000000000000000 -0.000000000000000
0 0

0101101
*
Ve
0.000000100000000
1858.000000000000000 2884.000000000000000 0.000000000000000
0 0

0101101
*
Ed
 0.000000100000000 1 1 0
1  4 0 0.000000000000000 15.000000000000000
2  3 4 0 0.000000000000000 15.000000000000000
2  4 2 0 0.000000000000000 15.000000000000000
0

0101000
+108 12 -107 10 *
Ve
0.000000100000682
3014.000000000000000 0.000000000000000 0.000000000000000
0 0

0101101
*
Ed
 0.000000100000682 1 1 0
1  5 0 0.000000000000000 130.000000000000000
2  5 2 14 0.000000000000000 130.000000000000000
2  6 2 15 0.000000000000000 130.000000000000000
2  7 3 11 0.000000000000000 130.000000000000000
0

0101000
+108 16 -105 19 *
Ed
 0.000000100000000 1 1 0
1  5 0 130.000000000000000 250.000000000000000
2  5 2 14 130.000000000000000 250.000000000000000
2  6 2 15 130.000000000000000 250.000000000000000
2  7 3 11 130.000000000000000 250.000000000000000
0

0101000
+105 19 -115 0 *
Ed
 0.000000100000000 1 1 0
1  5 0 0.000000000000000 250.000000000000000
2  5 2 14 0.000000000000000 250.000000000000000
2  6 2 15 0.000000000000000 250.000000000000000
2  7 3 11 0.000000000000000 250.000000000000000
0

0101000
+107 0 -115 0 *
Wi

0101100
+106 4 -114 4 -104 13 -103 13 +102 20 *
Fa
0  0.000000100000000 2 4

0111000
+101 0 *
Ve
0.000000100000000
1074.375437032643276 2772.500000000000000 0.000000000000000
0 0

0101101
*
Ed
 0.000000100000000 1 1 0
1  6 0 0.000000000000000 15.000000000000000
0

0101000
+99 8 -99 10 *
Ed
 0.000000100000000 1 1 0
1  7 0 0.000000000000000 641.015386550678386
2  8 3 11 0.000000000000000 641.015386550678386
0

0101000
+113 0 -99 0 *
Wi

0101100
+112 0 -98 0 -97 8 +97 10 *
Fa
0  0.000000100000000 5 0

0111000
+96 0 *
Ed
 0.000000100000000 1 1 0
1  8 0 0.000000000000000 12.000000000000000
2  9 6 0 0.000000000000000 12.000000000000000
2  10 7 0 0.000000000000000 12.000000000000000
2  11 3 21 0.000000000000000 12.000000000000000
0

0101000
+105 22 -105 24 *
Ve
0.000000100000000
2884.000000000000000 0.000000000000000 0.000000000000000
0 0

0101101
*
Ed
 0.000000100000000 1 1 0
1  9 0 0.000000000000000 130.000000000000000
2  12 6 25 0.000000000000000 130.000000000000000
2  13 6 26 0.000000000000000 130.000000000000000
2  14 8 27 0.000000000000000 130.000000000000000
2  15 3 28 0.000000000000000 130.000000000000000
0

0101000
+105 0 -93 0 *
Ve
0.000000100000000
1680.951134047087862 2884.000000000000000 0.000000000000000
0 0

0101101
*
Ed
 0.000000100000000 1 1 0
1  10 0 0.000000000000000 165.048865952912820
2  16 4 14 0.000000000000000 165.048865952912820
2  17 4 15 0.000000000000000 165.048865952912820
2  18 3 11 0.000000000000000 165.048865952912820
0

0101000
+91 0 -93 29 *
Ve
0.000000100000000
1151.594471866743106 2522.500000000000000 0.000000000000000
0 0

0101101
*
Ed
 0.000000100000000 1 1 0
1  11 0 0.000000000000000 641.015386550678386
2  19 3 11 0.000000000000000 641.015386550678386
0

0101000
+89 0 -91 0 *
Ve
0.000000100000000
27.000000000000000 2522.500000000000000 0.000000000000000
0 0

0101101
*
Ed
 0.000000100000000 1 1 0
1  12 0 0.000000000000000 1124.594471866743106
2  20 3 11 0.000000000000000 1124.594471866743106
0

0101000
+87 0 -89 0 *
Ve
0.000000100000000
27.000000000000000 2772.500000000000000 0.000000000000000
0 0

0101101
*
Ed
 0.000000100000000 1 1 0
1  13 0 0.000000000000000 250.000000000000000
2  21 3 11 0.000000000000000 250.000000000000000
2  22 9 14 0.000000000000000 250.000000000000000
2  23 9 15 0.000000000000000 250.000000000000000
0

0101000
+85 0 -87 0 *
Ed
 0.000000100000000 1 1 0
1  14 0 0.000000000000000 1047.375437032643276
2  24 3 11 0.000000000000000 1047.375437032643276
0

0101000
+99 0 -85 0 *
Wi

0101100
+103 13 -94 0 -92 24 +90 13 +88 13 +86 13 +84 13 +83 13 +97 13 +111 13 
*
Ve
0.000000100000000
1399.000000000000000 2923.250000000000000 0.000000000000000
0 0

0101101
*
Ed
 0.000000100000000 1 1 0
1  15 0 0.000000000000000 6.283185307179586
2  25 10 14 0.000000000000000 6.283185307179586
2  26 10 15 0.000000000000000 6.283185307179586
2  27 3 11 0.000000000000000 6.283185307179586
0

0101000
+81 0 -81 0 *
Wi

0101100
-80 13 *
Ve
0.000000100000000
1551.000000000000000 2923.250000000000000 0.000000000000000
0 0

0101101
*
Ed
 0.000000100000000 1 1 0
1  16 0 0.000000000000000 6.283185307179586
2  28 11 14 0.000000000000000 6.283185307179586
2  29 11 15 0.000000000000000 6.283185307179586
2  30 3 11 0.000000000000000 6.283185307179586
0

0101000
+78 0 -78 0 *
Wi

0101100
-77 13 *
Ve
0.000000100000000
1671.000000000000000 3109.000000000000000 0.000000000000000
0 0

0101101
*
Ed
 0.000000100000000 1 1 0
1  17 0 0.000000000000000 6.283185307179586
2  31 12 14 0.000000000000000 6.283185307179586
2  32 12 15 0.000000000000000 6.283185307179586
2  33 3 11 0.000000000000000 6.283185307179586
0

0101000
+75 0 -75 0 *
Wi

0101100
-74 13 *
Ve
0.000000100000000
1783.000000000000000 3109.000000000000000 0.000000000000000
0 0

0101101
*
Ed
 0.000000100000000 1 1 0
1  18 0 0.000000000000000 6.283185307179586
2  34 13 14 0.000000000000000 6.283185307179586
2  35 13 15 0.000000000000000 6.283185307179586
2  36 3 11 0.000000000000000 6.283185307179586
0

0101000
+72 0 -72 0 *
Wi

0101100
-71 13 *
Fa
0  0.000000100000000 3 21

0111000
+82 0 +79 0 +76 0 +73 0 +70 0 *
Ed
 0.000000100000000 1 1 0
1  10 0 0.000000000000000 177.048865952912138
2  16 4 14 0.000000000000000 177.048865952912138
2  17 4 15 0.000000000000000 177.048865952912138
2  18 3 11 0.000000000000000 177.048865952912138
0

0101000
+91 0 -107 0 *
Wi

0101100
+111 31 +97 31 +83 31 +84 31 +86 31 +88 31 +68 31 +102 31 *
Wi

0101100
-80 31 *
Wi

0101100
-77 31 *
Wi

0101100
-74 31 *
Wi

0101100
-71 31 *
Fa
0  0.000000100000000 3 0

0111000
+67 0 +66 0 +65 0 +64 0 +63 0 *
Ed
 0.000000100000000 1 1 0
1  19 0 0.000000000000000 15.000000000000000
2  37 4 0 0.000000000000000 15.000000000000000
0

0101000
+91 8 -91 10 *
Ed
 0.000000100000000 1 1 0
1  10 0 165.048865952912820 177.048865952912138
2  16 4 14 165.048865952912820 177.048865952912138
2  17 4 15 165.048865952912820 177.048865952912138
2  18 3 11 165.048865952912820 177.048865952912138
0

0101000
+93 29 -108 16 *
Wi

0101100
+61 4 -106 4 -90 13 -60 13 +68 20 *
Fa
0  0.000000100000000 4 4

0111000
+59 0 *
Ve
0.000000100000000
2884.000000000000000 80.000000000000000 0.000000000000000
0 0

0101101
*
Ed
 0.000000100000000 1 1 0
1  20 0 0.000000000000000 80.000000000000000
2  38 14 25 0.000000000000000 80.000000000000000
2  39 14 26 0.000000000000000 80.000000000000000
2  40 8 27 0.000000000000000 80.000000000000000
0

0101000
+108 25 -57 0 *
Ve
0.000000100000000
3014.000000000000000 80.000000000000000 0.000000000000000
0 0

0101101
*
Ed
 0.000000100000000 1 1 0
1  21 0 0.000000000000000 130.000000000000000
2  41 8 27 0.000000000000000 130.000000000000000
0

0101000
+57 0 -55 0 *
Ed
 0.000000100000000 1 1 0
1  22 0 0.000000000000000 80.000000000000000
2  42 8 27 0.000000000000000 80.000000000000000
2  43 7 25 0.000000000000000 80.000000000000000
2  44 7 26 0.000000000000000 80.000000000000000
0

0101000
+55 0 -105 0 *
Wi

0101100
-104 13 +56 22 +54 22 +53 22 *
Ve
0.000000100000000
2929.000000000000000 40.000000000000000 0.000000000000000
0 0

0101101
*
Ed
 0.000000100000000 1 1 0
1  23 0 0.000000000000000 6.283185307179586
2  45 15 25 0.000000000000000 6.283185307179586
2  46 15 26 0.000000000000000 6.283185307179586
2  47 8 27 0.000000000000000 6.283185307179586
0

0101000
+51 0 -51 0 *
Wi

0101100
+50 22 *
Ve
0.000000100000000
2979.000000000000000 40.000000000000000 0.000000000000000
0 0

0101101
*
Ed
 0.000000100000000 1 1 0
1  24 0 0.000000000000000 6.283185307179586
2  48 16 25 0.000000000000000 6.283185307179586
2  49 16 26 0.000000000000000 6.283185307179586
2  50 8 27 0.000000000000000 6.283185307179586
0

0101000
+48 0 -48 0 *
Wi

0101100
+47 22 *
Fa
0  0.000000100000000 8 32

0111000
+52 0 +49 0 +46 0 *
Ed
 0.000000100000000 1 1 0
1  25 0 0.000000000000000 15.000000000000000
2  51 9 0 0.000000000000000 15.000000000000000
0

0101000
+85 8 -85 10 *
Wi

0101100
+98 0 -44 0 -83 8 +83 10 *
Fa
0  0.000000100000000 17 0

0111000
+43 0 *
Ed
 0.000000100000000 1 1 0
1  26 0 0.000000000000000 12.000000000000000
2  52 7 0 0.000000000000000 12.000000000000000
0

0101000
+55 22 -55 24 *
Wi

0101100
+41 0 -94 0 -53 22 +53 24 *
Fa
0  0.000000100000000 7 0

0111000
+40 0 *
Ed
 0.000000100000000 1 1 0
1  20 0 0.000000000000000 80.000000000000000
2  38 14 25 0.000000000000000 80.000000000000000
2  39 14 26 0.000000000000000 80.000000000000000
2  40 8 27 0.000000000000000 80.000000000000000
0

0101000
+93 0 -57 0 *
Wi

0101100
+92 34 +38 34 +54 34 +53 34 *
Wi

0101100
+50 34 *
Wi

0101100
+47 34 *
Fa
0  0.000000100000000 8 0

0111000
+37 0 +36 0 +35 0 *
Ed
 0.000000100000000 1 1 0
1  27 0 0.000000000000000 15.000000000000000
0

0101000
+89 8 -89 10 *
Wi

0101100
+33 0 -61 0 -88 8 +88 10 *
Fa
0  0.000000100000000 18 0

0111000
+32 0 *
Ed
 0.000000100000000 1 1 0
1  28 0 0.000000000000000 15.000000000000000
2  53 9 0 0.000000000000000 15.000000000000000
0

0101000
+87 8 -87 10 *
Wi

0101100
+30 0 -33 0 -86 8 +86 10 *
Fa
0  0.000000100000000 19 0

0111000
+29 0 *
Wi

0101100
+44 0 -30 0 -84 8 +84 10 *
Fa
0  0.000000100000000 9 0

0111000
+27 0 *
Ed
 0.000000100000000 1 1 0
1  29 0 0.000000000000000 15.000000000000000
3  54 55CN 10 0 0.000000000000000 15.000000000000000
0

0101000
+81 8 -81 10 *
Wi

0101100
+25 0 -25 0 -80 8 +80 10 *
Fa
0  0.000000100000000 10 0

0111000
+24 0 *
Ed
 0.000000100000000 1 1 0
1  30 0 0.000000000000000 15.000000000000000
3  56 57CN 11 0 0.000000000000000 15.000000000000000
0

0101000
+78 8 -78 10 *
Wi

0101100
+22 0 -22 0 -77 8 +77 10 *
Fa
0  0.000000100000000 11 0

0111000
+21 0 *
Ed
 0.000000100000000 1 1 0
1  31 0 0.000000000000000 15.000000000000000
3  58 59CN 12 0 0.000000000000000 15.000000000000000
0

0101000
+75 8 -75 10 *
Wi

0101100
+19 0 -19 0 -74 8 +74 10 *
Fa
0  0.000000100000000 12 0

0111000
+18 0 *
Ed
 0.000000100000000 1 1 0
1  32 0 0.000000000000000 15.000000000000000
3  60 61CN 13 0 0.000000000000000 15.000000000000000
0

0101000
+72 8 -72 10 *
Wi

0101100
+16 0 -16 0 -71 8 +71 10 *
Fa
0  0.000000100000000 13 0

0111000
+15 0 *
Ed
 0.000000100000000 1 1 0
1  33 0 0.000000000000000 12.000000000000000
2  62 14 0 0.000000000000000 12.000000000000000
0

0101000
+57 22 -57 24 *
Wi

0101100
-60 13 -13 0 -56 22 +38 24 *
Fa
0  0.000000100000000 14 0

0111000
+12 0 *
Wi

0101100
+13 0 -41 0 -54 22 +54 24 *
Fa
0  0.000000100000000 20 0

0111000
+10 0 *
Ed
 0.000000100000000 1 1 0
1  34 0 0.000000000000000 12.000000000000000
3  63 64CN 15 0 0.000000000000000 12.000000000000000
0

0101000
+51 22 -51 24 *
Wi

0101100
+8 0 -8 0 -50 22 +50 24 *
Fa
0  0.000000100000000 15 0

0111000
+7 0 *
Ed
 0.000000100000000 1 1 0
1  35 0 0.000000000000000 12.000000000000000
3  65 66CN 16 0 0.000000000000000 12.000000000000000
0

0101000
+48 22 -48 24 *
Wi

0101100
+5 0 -5 0 -47 22 +47 24 *
Fa
0  0.000000100000000 16 0

0111000
+4 0 *
Sh

0101100
+109 4 +100 0 +95 4 +69 0 -62 30 +58 0 -45 0 +42 4 -39 0 +34 33 
+31 4 +28 4 +26 4 -23 4 -20 4 -17 4 -14 4 -11 0 -9 0 -6 0 
-3 0 *
So

0100000
+2 0 *

+1 1 