
CASCADE Topology V1, (c) Matra-Datavision
Locations 62
1
1.000000000000000 0.000000000000000 0.000000000000000 0.000000000000000 
0.000000000000000 1.000000000000000 0.000000000000000 0.000000000000000 
0.000000000000000 0.000000000000000 1.000000000000000 0.000000000000000 
1
1.000000000000000 0.000000000000000 0.000000000000000 0.000000000000000 
0.000000000000000 1.000000000000000 0.000000000000000 0.000000000000000 
0.000000000000000 0.000000000000000 1.000000000000000 0.000000000000000 
1
1.000000000000000 0.000000000000000 0.000000000000000 0.000000000000000 
0.000000000000000 1.000000000000000 0.000000000000000 0.000000000000000 
0.000000000000000 0.000000000000000 1.000000000000000 0.000000000000000 
2  2 1 3 -1 0
1
1.000000000000000 0.000000000000000 0.000000000000000 0.000000000000000 
0.000000000000000 1.000000000000000 0.000000000000000 0.000000000000000 
0.000000000000000 0.000000000000000 1.000000000000000 0.000000000000000 
1
1.000000000000000 0.000000000000000 0.000000000000000 0.000000000000000 
0.000000000000000 1.000000000000000 0.000000000000000 0.000000000000000 
0.000000000000000 0.000000000000000 1.000000000000000 0.000000000000000 
1
1.000000000000000 0.000000000000000 0.000000000000000 0.000000000000000 
0.000000000000000 1.000000000000000 0.000000000000000 0.000000000000000 
0.000000000000000 0.000000000000000 1.000000000000000 0.000000000000000 
1
1.000000000000000 0.000000000000000 0.000000000000000 0.000000000000000 
0.000000000000000 1.000000000000000 0.000000000000000 0.000000000000000 
0.000000000000000 0.000000000000000 1.000000000000000 0.000000000000000 
2  5 1 6 -1 7 1 8 -1 0
1
1.000000000000000 0.000000000000000 0.000000000000000 0.000000000000000 
0.000000000000000 1.000000000000000 0.000000000000000 0.000000000000000 
0.000000000000000 0.000000000000000 1.000000000000000 0.000000000000000 
1
1.000000000000000 0.000000000000000 0.000000000000000 0.000000000000000 
0.000000000000000 1.000000000000000 0.000000000000000 0.000000000000000 
0.000000000000000 0.000000000000000 1.000000000000000 0.000000000000000 
1
1.000000000000000 0.000000000000000 0.000000000000000 0.000000000000000 
0.000000000000000 1.000000000000000 0.000000000000000 0.000000000000000 
0.000000000000000 0.000000000000000 1.000000000000000 0.000000000000000 
2  10 1 11 1 12 -1 0
1
1.000000000000000 0.000000000000000 0.000000000000000 -0.000000000000000 
0.000000000000000 1.000000000000000 0.000000000000000 -0.000000000000000 
0.000000000000000 0.000000000000000 1.000000000000000 -50.000000000000000 
2  10 1 11 1 12 -1 14 1 0
2  10 1 11 1 12 -1 5 1 6 -1 7 1 8 -1 0
2  12 1 11 -1 10 -1 0
2  14 -1 12 1 11 -1 10 -1 0
2  10 1 11 1 12 -1 14 1 5 1 6 -1 7 1 8 -1 0
1
1.000000000000000 0.000000000000000 0.000000000000000 0.000000000000000 
0.000000000000000 1.000000000000000 0.000000000000000 0.000000000000000 
0.000000000000000 0.000000000000000 1.000000000000000 0.000000000000000 
1
-1.000000000000000 0.000000000000000 0.000000000000000 0.000000000000000 
0.000000000000000 0.000000000000000 1.000000000000000 -1020.000000000000000 
0.000000000000000 1.000000000000000 -0.000000000000000 0.000000000000000 
2  20 1 21 1 8 -1 0
2  8 1 21 -1 20 -1 0
1
1.000000000000000 0.000000000000000 0.000000000000000 0.000000000000000 
0.000000000000000 1.000000000000000 0.000000000000000 -5.000000000000000 
0.000000000000000 0.000000000000000 1.000000000000000 0.000000000000001 
2  24 -1 8 1 21 -1 20 -1 0
2  21 -1 20 -1 0
2  5 1 6 -1 7 1 21 -1 20 -1 0
2  5 1 6 -1 7 1 8 -1 2 1 3 -1 0
2  12 -1 5 1 6 -1 7 1 8 -1 2 1 3 -1 0
2  10 1 11 1 0
2  12 -1 14 1 5 1 6 -1 7 1 8 -1 2 1 3 -1 0
2  20 1 21 1 8 -1 24 1 0
2  10 1 11 1 12 -1 5 1 6 -1 7 1 8 -1 2 1 3 -1 0
2  10 1 11 1 12 -1 14 1 5 1 6 -1 7 1 8 -1 2 1 3 -1 0
1
1.000000000000000 0.000000000000000 0.000000000000000 0.000000000000000 
0.000000000000000 1.000000000000000 0.000000000000000 0.000000000000000 
0.000000000000000 0.000000000000000 1.000000000000000 0.000000000000000 
1
0.000000000000000 0.000000000000000 1.000000000000000 4776.000000000000000 
1.000000000000000 0.000000000000000 0.000000000000000 0.000000000000000 
0.000000000000000 1.000000000000000 0.000000000000000 0.000000000000000 
2  35 1 36 1 3 -1 0
2  3 1 36 -1 35 -1 0
1
1.000000000000000 0.000000000000000 0.000000000000000 -5.000000000000000 
0.000000000000000 1.000000000000000 0.000000000000000 -0.000000000000000 
0.000000000000000 0.000000000000000 1.000000000000000 -0.000000000000000 
2  39 -1 3 1 36 -1 35 -1 0
2  36 -1 35 -1 0
2  5 1 6 -1 7 1 8 -1 2 1 36 -1 35 -1 0
2  7 1 8 -1 2 1 3 -1 0
2  5 1 6 -1 0
2  10 1 11 1 12 -1 5 1 6 -1 0
2  10 1 11 1 12 -1 14 1 5 1 6 -1 0
1
1.000000000000000 0.000000000000000 0.000000000000000 0.000000000000000 
0.000000000000000 1.000000000000000 0.000000000000000 0.000000000000000 
0.000000000000000 0.000000000000000 1.000000000000000 0.000000000000000 
1
1.000000000000000 0.000000000000000 0.000000000000000 0.000000000000000 
0.000000000000000 0.000000000000000 -1.000000000000000 -1842.999999999998408 
0.000000000000000 1.000000000000000 0.000000000000000 0.000000000000000 
2  47 1 48 1 6 -1 0
2  6 1 48 -1 47 -1 0
1
1.000000000000000 0.000000000000000 0.000000000000000 0.000000000000000 
0.000000000000000 1.000000000000000 0.000000000000000 5.000000000000000 
0.000000000000000 0.000000000000000 1.000000000000000 -0.000000000000001 
2  51 -1 6 1 48 -1 47 -1 0
2  48 -1 47 -1 0
2  5 1 48 -1 47 -1 0
2  8 -1 24 1 2 1 3 -1 0
2  20 1 21 1 0
2  35 1 36 1 3 -1 39 1 0
2  47 1 48 1 6 -1 51 1 0
2  3 -1 39 1 0
2  35 1 36 1 0
2  6 -1 51 1 7 1 8 -1 2 1 3 -1 0
2  47 1 48 1 0
Curve2ds 52
1 0.00000000000000000 0.00000000000000000 0.00000000000000000 -1.00000000000000000 
1 0.00000000000000000 0.00000000000000000 1.00000000000000000 0.00000000000000000 
1 0.00000000000000000 -50.00000000000000000 1.00000000000000000 0.00000000000000000 
1 181.29490514817871372 0.00000000000000000 0.00000000000000000 -1.00000000000000000 
1 0.00000000000000000 0.00000000000000000 0.00000000000000000 -1.00000000000000000 
1 0.00000000000000000 0.00000000000000000 1.00000000000000000 0.00000000000000000 
1 0.00000000000000000 -5.00000000000000000 1.00000000000000000 0.00000000000000000 
2 -0.00000000000000355 0.00000000000000000 0.00000000000000000 -1.00000000000000000 1.00000000000000000 0.00000000000000000 5.00000000000000000
2 40.00000000000000000 -25.00000000000000000 1.00000000000000000 0.00000000000000000 -0.00000000000000000 1.00000000000000000 5.00000000000000000
1 0.00000000000000000 0.00000000000000000 1.00000000000000000 0.00000000000000000 
1 0.00000000000000000 -5.00000000000000000 1.00000000000000000 0.00000000000000000 
2 -0.00000000000000355 0.00000000000045475 0.00000000000000000 -1.00000000000000000 1.00000000000000000 0.00000000000000000 5.00000000000000000
2 141.29490514817871372 -25.00000000000000000 1.00000000000000000 0.00000000000000000 -0.00000000000000000 1.00000000000000000 5.00000000000000000
1 288.99999999999840838 0.00000000000000000 0.00000000000000000 -1.00000000000000000 
1 0.00000000000000000 0.00000000000000000 1.00000000000000000 0.00000000000000000 
1 0.00000000000000000 -50.00000000000000000 1.00000000000000000 0.00000000000000000 
1 0.00000000000000000 0.00000000000000000 1.00000000000000000 0.00000000000000000 
1 0.00000000000000000 -50.00000000000000000 1.00000000000000000 0.00000000000000000 
1 0.00000000000000000 0.00000000000000000 1.00000000000000000 0.00000000000000000 
1 0.00000000000000000 -50.00000000000000000 1.00000000000000000 0.00000000000000000 
1 0.00000000000000000 0.00000000000000000 0.00000000000000000 -1.00000000000000000 
1 1130.87039097563433643 0.00000000000000000 0.00000000000000000 -1.00000000000000000 
1 0.00000000000000000 0.00000000000000000 0.00000000000000000 -1.00000000000000000 
1 6.28318530717958623 0.00000000000000000 0.00000000000000000 -1.00000000000000000 
1 0.00000000000000000 0.00000000000000000 0.00000000000000000 -1.00000000000000000 
1 6.28318530717958623 0.00000000000000000 0.00000000000000000 -1.00000000000000000 
1 429.96332398423692212 0.00000000000000000 0.00000000000000000 -1.00000000000000000 
1 0.00000000000000000 0.00000000000000000 0.00000000000000000 -1.00000000000000000 
1 0.00000000000000000 0.00000000000000000 1.00000000000000000 0.00000000000000000 
1 0.00000000000000000 -5.00000000000000000 1.00000000000000000 0.00000000000000000 
2 -0.00000000000000355 0.00000000000022737 0.00000000000000000 -1.00000000000000000 1.00000000000000000 0.00000000000000000 5.00000000000000000
2 80.00000000000000000 -25.00000000000000000 1.00000000000000000 0.00000000000000000 -0.00000000000000000 1.00000000000000000 5.00000000000000000
1 0.00000000000000000 0.00000000000000000 1.00000000000000000 0.00000000000000000 
1 0.00000000000000000 -5.00000000000000000 1.00000000000000000 0.00000000000000000 
2 -0.00000000000000355 0.00000000000022737 0.00000000000000000 -1.00000000000000000 1.00000000000000000 0.00000000000000000 5.00000000000000000
2 208.99999999999840838 -25.00000000000000000 1.00000000000000000 0.00000000000000000 -0.00000000000000000 1.00000000000000000 5.00000000000000000
1 0.00000000000000000 0.00000000000000000 1.00000000000000000 0.00000000000000000 
1 0.00000000000000000 -5.00000000000000000 1.00000000000000000 0.00000000000000000 
2 0.00000000000000355 -0.00000000000000000 0.00000000000000000 1.00000000000000000 -1.00000000000000000 0.00000000000000000 5.00000000000000000
2 80.00000000000000000 -25.00000000000000000 1.00000000000000000 0.00000000000000000 -0.00000000000000000 1.00000000000000000 5.00000000000000000
1 0.00000000000000000 0.00000000000000000 1.00000000000000000 0.00000000000000000 
1 0.00000000000000000 -5.00000000000000000 1.00000000000000000 0.00000000000000000 
2 -0.00000000000090949 0.00000000000000355 -1.00000000000000000 -0.00000000000000000 0.00000000000000000 -1.00000000000000000 5.00000000000000000
2 349.96332398423692212 -25.00000000000000000 1.00000000000000000 0.00000000000000000 -0.00000000000000000 1.00000000000000000 5.00000000000000000
1 0.00000000000000000 0.00000000000000000 0.00000000000000000 -1.00000000000000000 
1 6.28318530717958623 0.00000000000000000 0.00000000000000000 -1.00000000000000000 
1 0.00000000000000000 0.00000000000000000 0.00000000000000000 -1.00000000000000000 
1 6.28318530717958623 0.00000000000000000 0.00000000000000000 -1.00000000000000000 
1 0.00000000000000000 0.00000000000000000 0.00000000000000000 -1.00000000000000000 
1 6.28318530717958623 0.00000000000000000 0.00000000000000000 -1.00000000000000000 
1 0.00000000000000000 0.00000000000000000 0.00000000000000000 -1.00000000000000000 
1 6.28318530717958623 0.00000000000000000 0.00000000000000000 -1.00000000000000000 
Curves 22
1 3751.74223029236964067 -1020.00000000000000000 0.00000000000000000 -0.00000000000000000 -0.00000000000000000 -1.00000000000000000 
1 3751.74223029236964067 -1020.00000000000000000 0.00000000000000000 -1.00000000000000000 0.00000000000000000 0.00000000000000000 
1 3570.44732514419092695 -1020.00000000000000000 0.00000000000000000 -0.00000000000000000 -0.00000000000000000 -1.00000000000000000 
2 -3711.74223029236964067 -25.00000000000000000 0.00000000000000000 0.00000000000000000 0.00000000000000000 1.00000000000000000 1.00000000000000000 0.00000000000000000 -0.00000000000000000 -0.00000000000000000 1.00000000000000000 0.00000000000000000 5.00000000000000000
2 -3610.44732514419092695 -25.00000000000000000 0.00000000000000000 0.00000000000000000 0.00000000000000000 1.00000000000000000 1.00000000000000000 0.00000000000000000 -0.00000000000000000 -0.00000000000000000 1.00000000000000000 0.00000000000000000 5.00000000000000000
1 4776.00000000000000000 -1554.00000000000000000 0.00000000000000000 -0.00000000000000000 -0.00000000000000000 -1.00000000000000000 
1 4776.00000000000000000 -1554.00000000000000000 0.00000000000000000 -0.88672517215815383 0.46229694900690449 0.00000000000000000 
1 3570.44732514419092695 -1020.00000000000000000 0.00000000000000000 0.68583398863458522 -0.72775802299498948 0.00000000000000000 
1 4346.03667601576307788 -1842.99999999999840838 0.00000000000000000 1.00000000000000000 0.00000000000000000 0.00000000000000000 
1 4776.00000000000000000 -1842.99999999999840838 0.00000000000000000 0.00000000000000000 1.00000000000000000 0.00000000000000000 
1 4346.03667601576307788 -1842.99999999999840838 0.00000000000000000 -0.00000000000000000 -0.00000000000000000 -1.00000000000000000 
1 3706.74223029236964067 -1020.00000000000000000 -25.00000000000000000 0.00000000000000000 -1.00000000000000000 0.00000000000000022 
1 3605.44732514419092695 -1020.00000000000000000 -25.00000000000000000 0.00000000000000000 -1.00000000000000000 0.00000000000000022 
1 4776.00000000000000000 -1842.99999999999840838 0.00000000000000000 -0.00000000000000000 -0.00000000000000000 -1.00000000000000000 
2 -1762.99999999999840838 -25.00000000000000000 0.00000000000000000 0.00000000000000000 0.00000000000000000 1.00000000000000000 1.00000000000000000 0.00000000000000000 -0.00000000000000000 -0.00000000000000000 1.00000000000000000 0.00000000000000000 5.00000000000000000
2 -1634.00000000000000000 -25.00000000000000000 0.00000000000000000 0.00000000000000000 0.00000000000000000 1.00000000000000000 1.00000000000000000 0.00000000000000000 -0.00000000000000000 -0.00000000000000000 1.00000000000000000 0.00000000000000000 5.00000000000000000
2 4426.03667601576307788 -25.00000000000000000 0.00000000000000000 0.00000000000000000 0.00000000000000000 1.00000000000000000 1.00000000000000000 0.00000000000000000 -0.00000000000000000 -0.00000000000000000 1.00000000000000000 0.00000000000000000 5.00000000000000000
2 4696.00000000000000000 -25.00000000000000000 0.00000000000000000 0.00000000000000000 0.00000000000000000 1.00000000000000000 1.00000000000000000 0.00000000000000000 -0.00000000000000000 -0.00000000000000000 1.00000000000000000 0.00000000000000000 5.00000000000000000
1 4776.00000000000000000 -1757.99999999999840838 -25.00000000000000000 -1.00000000000000000 -0.00000000000000000 -0.00000000000000000 
1 4776.00000000000000000 -1629.00000000000000000 -25.00000000000000000 -1.00000000000000000 -0.00000000000000000 -0.00000000000000000 
1 4431.03667601576307788 -1842.99999999999840838 -25.00000000000000000 0.00000000000000000 1.00000000000000000 -0.00000000000000022 
1 4701.00000000000000000 -1842.99999999999840838 -25.00000000000000000 0.00000000000000000 1.00000000000000000 -0.00000000000000022 
Polygon3D 0
PolygonOnTriangulations 0
Surfaces 18
1 3751.74223029236964067 -1020.00000000000000000 0.00000000000000000 0.00000000000000000 1.00000000000000000 -0.00000000000000000 -1.00000000000000000 0.00000000000000000 0.00000000000000000 0.00000000000000000 0.00000000000000000 1.00000000000000000 
1 3570.44732514419092695 -1020.00000000000000000 0.00000000000000000 -0.72775802299498948 -0.68583398863458522 0.00000000000000000 0.68583398863458522 -0.72775802299498948 0.00000000000000000 0.00000000000000000 0.00000000000000000 1.00000000000000000 
2 3711.74223029236964067 -1020.00000000000000000 -25.00000000000000000 0.00000000000000000 1.00000000000000000 -0.00000000000000022 -1.00000000000000000 0.00000000000000000 0.00000000000000000 0.00000000000000000 0.00000000000000022 1.00000000000000000 5.00000000000000000
1 3711.74223029236964067 -1020.00000000000000000 -24.99999999999999645 0.00000000000000000 1.00000000000000000 0.00000000000000000 0.00000000000000000 -0.00000000000000000 1.00000000000000000 1.00000000000000000 0.00000000000000000 -0.00000000000000000 
2 3610.44732514419092695 -1020.00000000000000000 -25.00000000000000000 0.00000000000000000 1.00000000000000000 -0.00000000000000022 -1.00000000000000000 0.00000000000000000 0.00000000000000000 0.00000000000000000 0.00000000000000022 1.00000000000000000 5.00000000000000000
1 3610.44732514419047220 -1020.00000000000000000 -24.99999999999999645 0.00000000000000000 1.00000000000000000 0.00000000000000000 0.00000000000000000 -0.00000000000000000 1.00000000000000000 1.00000000000000000 0.00000000000000000 -0.00000000000000000 
1 4776.00000000000000000 -1554.00000000000000000 0.00000000000000000 0.46229694900690449 0.88672517215815383 -0.00000000000000000 -0.88672517215815383 0.46229694900690449 0.00000000000000000 0.00000000000000000 0.00000000000000000 1.00000000000000000 
1 4776.00000000000000000 -1842.99999999999840838 0.00000000000000000 1.00000000000000000 0.00000000000000000 0.00000000000000000 -0.00000000000000000 1.00000000000000000 0.00000000000000000 0.00000000000000000 -0.00000000000000000 1.00000000000000000 
1 4207.64808014275058667 -1435.44756648862403381 0.00000000000000000 0.00000000000000000 0.00000000000000000 1.00000000000000000 1.00000000000000000 0.00000000000000000 -0.00000000000000000 -0.00000000000000000 1.00000000000000000 0.00000000000000000 
1 4346.03667601576307788 -1842.99999999999840838 0.00000000000000000 0.00000000000000000 -1.00000000000000000 0.00000000000000000 1.00000000000000000 0.00000000000000000 0.00000000000000000 -0.00000000000000000 0.00000000000000000 1.00000000000000000 
2 4776.00000000000000000 -1762.99999999999840838 -25.00000000000000000 1.00000000000000000 0.00000000000000000 0.00000000000000000 -0.00000000000000000 1.00000000000000000 0.00000000000000000 0.00000000000000000 -0.00000000000000000 1.00000000000000000 5.00000000000000000
1 4776.00000000000000000 -1762.99999999999818101 -24.99999999999999645 1.00000000000000000 0.00000000000000000 0.00000000000000000 -0.00000000000000000 0.00000000000000000 1.00000000000000000 0.00000000000000000 -1.00000000000000000 0.00000000000000000 
2 4776.00000000000000000 -1634.00000000000000000 -25.00000000000000000 1.00000000000000000 0.00000000000000000 0.00000000000000000 -0.00000000000000000 1.00000000000000000 0.00000000000000000 0.00000000000000000 -0.00000000000000000 1.00000000000000000 5.00000000000000000
1 4776.00000000000000000 -1633.99999999999977263 -24.99999999999999645 1.00000000000000000 0.00000000000000000 0.00000000000000000 -0.00000000000000000 0.00000000000000000 1.00000000000000000 0.00000000000000000 -1.00000000000000000 0.00000000000000000 
2 4426.03667601576307788 -1842.99999999999840838 -25.00000000000000000 0.00000000000000000 -1.00000000000000000 0.00000000000000022 1.00000000000000000 0.00000000000000000 0.00000000000000000 -0.00000000000000000 0.00000000000000022 1.00000000000000000 5.00000000000000000
1 4426.03667601576307788 -1842.99999999999818101 -24.99999999999999645 -0.00000000000000000 -1.00000000000000000 0.00000000000000000 0.00000000000000000 -0.00000000000000000 -1.00000000000000000 1.00000000000000000 0.00000000000000000 0.00000000000000000 
2 4696.00000000000000000 -1842.99999999999840838 -25.00000000000000000 0.00000000000000000 -1.00000000000000000 0.00000000000000022 1.00000000000000000 0.00000000000000000 0.00000000000000000 -0.00000000000000000 0.00000000000000022 1.00000000000000000 5.00000000000000000
1 4695.99999999999909051 -1842.99999999999818101 -24.99999999999999645 -0.00000000000000000 -1.00000000000000000 0.00000000000000000 -1.00000000000000000 0.00000000000000000 0.00000000000000000 -0.00000000000000000 0.00000000000000000 -1.00000000000000000 
Triangulations 0

TShapes 77
Ve
0.000000100000000
3751.742230292369641 -1020.000000000000000 0.000000000000000
0 0

0101101
*
Ed
 0.000000100000000 1 1 0
1  1 0 0.000000000000000 50.000000000000000
2  1 1 0 0.000000000000000 50.000000000000000
0

0101000
+77 13 -77 15 *
Ve
0.000000100000000
3570.447325144190927 -1020.000000000000000 0.000000000000000
0 0

0101101
*
Ed
 0.000000100000000 1 1 0
1  2 0 0.000000000000000 181.294905148178714
2  2 1 17 0.000000000000000 181.294905148178714
2  3 1 18 0.000000000000000 181.294905148178714
0

0101000
+77 0 -75 0 *
Ed
 0.000000100000000 1 1 0
1  3 0 0.000000000000000 50.000000000000000
2  4 1 0 0.000000000000000 50.000000000000000
2  5 2 0 0.000000000000000 50.000000000000000
0

0101000
+75 13 -75 15 *
Wi

0101100
+76 9 -74 16 +74 19 -73 9 *
Ve
0.000000100000000
-3706.742230292369641 -25.000000000000000 0.000000000000000
0 0

0101101
*
Ed
 0.000000100000000 1 1 0
1  4 0 0.000000000000000 6.283185307179586
2  6 3 23 0.000000000000000 6.283185307179586
2  7 3 25 0.000000000000000 6.283185307179586
2  8 4 26 0.000000000000000 6.283185307179586
2  9 1 27 0.000000000000000 6.283185307179586
0

0101000
+71 0 -71 0 *
Wi

0101100
-70 22 *
Ve
0.000000100000000
-3605.447325144190927 -25.000000000000000 0.000000000000000
0 0

0101101
*
Ed
 0.000000100000000 1 1 0
1  5 0 0.000000000000000 6.283185307179586
2  10 5 23 0.000000000000000 6.283185307179586
2  11 5 25 0.000000000000000 6.283185307179586
2  12 6 26 0.000000000000000 6.283185307179586
2  13 1 27 0.000000000000000 6.283185307179586
0

0101000
+68 0 -68 0 *
Wi

0101100
-67 22 *
Fa
0  0.000000100000000 1 9

0111000
+72 0 +69 0 +66 0 *
Ve
0.000000100000000
4776.000000000000000 -1554.000000000000000 0.000000000000000
0 0

0101101
*
Ed
 0.000000100000000 1 1 0
1  6 0 0.000000000000000 50.000000000000000
2  14 8 0 0.000000000000000 50.000000000000000
0

0101000
+64 13 -64 15 *
Ed
 0.000000100000000 1 1 0
1  7 0 0.000000000000000 1155.101717948012265
0

0101000
+64 0 -77 0 *
Wi

0101100
+63 0 -76 0 -62 13 +62 15 *
Fa
0  0.000000100000000 7 0

0111000
+61 0 *
Ve
0.000000100000000
4346.036676015763078 -1842.999999999998408 0.000000000000000
0 0

0101101
*
Ed
 0.000000100000000 1 1 0
1  8 0 0.000000000000000 1130.870390975634336
2  15 2 17 0.000000000000000 1130.870390975634336
2  16 2 18 0.000000000000000 1130.870390975634336
0

0101000
+75 0 -59 0 *
Ve
0.000000100000000
4776.000000000000000 -1842.999999999998408 0.000000000000000
0 0

0101101
*
Ed
 0.000000100000000 1 1 0
1  9 0 0.000000000000000 429.963323984236922
2  17 10 17 0.000000000000000 429.963323984236922
2  18 10 18 0.000000000000000 429.963323984236922
0

0101000
+59 0 -57 0 *
Ed
 0.000000100000000 1 1 0
1  10 0 0.000000000000000 288.999999999998408
2  19 8 17 0.000000000000000 288.999999999998408
2  20 8 18 0.000000000000000 288.999999999998408
0

0101000
+57 0 -64 0 *
Wi

0101100
+74 0 +58 0 +56 0 +55 0 +62 0 *
Fa
0  0.000000100000000 9 0

0111000
+54 30 *
Ed
 0.000000100000000 1 1 0
1  11 0 0.000000000000000 50.000000000000000
2  21 10 0 0.000000000000000 50.000000000000000
2  22 2 0 0.000000000000000 50.000000000000000
0

0101000
+59 13 -59 15 *
Wi

0101100
+73 0 -52 0 -58 13 +58 15 *
Fa
0  0.000000100000000 2 0

0111000
+51 0 *
Ed
 0.000000100000000 1 1 0
1  12 0 0.000000000000000 5.000000000000000
3  23 24CN 3 0 0.000000000000000 5.000000000000000
0

0101000
+71 22 -71 32 *
Wi

0101100
+49 0 -49 0 -70 22 +70 32 *
Fa
0  0.000000100000000 3 0

0111000
+48 0 *
Ed
 0.000000100000000 1 1 0
1  13 0 0.000000000000000 5.000000000000000
3  25 26CN 5 0 0.000000000000000 5.000000000000000
0

0101000
+68 22 -68 32 *
Wi

0101100
+46 0 -46 0 -67 22 +67 32 *
Fa
0  0.000000100000000 5 0

0111000
+45 0 *
Ed
 0.000000100000000 1 1 0
1  14 0 0.000000000000000 50.000000000000000
2  27 10 0 0.000000000000000 50.000000000000000
2  28 8 0 0.000000000000000 50.000000000000000
0

0101000
+57 13 -57 15 *
Wi

0101100
+43 28 -55 33 +55 34 -63 28 *
Ve
0.000000100000000
-1757.999999999998408 -25.000000000000000 0.000000000000000
0 0

0101101
*
Ed
 0.000000100000000 1 1 0
1  15 0 0.000000000000000 6.283185307179586
2  29 11 38 0.000000000000000 6.283185307179586
2  30 11 40 0.000000000000000 6.283185307179586
2  31 12 41 0.000000000000000 6.283185307179586
2  32 8 42 0.000000000000000 6.283185307179586
0

0101000
+41 0 -41 0 *
Wi

0101100
-40 37 *
Ve
0.000000100000000
-1629.000000000000000 -25.000000000000000 0.000000000000000
0 0

0101101
*
Ed
 0.000000100000000 1 1 0
1  16 0 0.000000000000000 6.283185307179586
2  33 13 38 0.000000000000000 6.283185307179586
2  34 13 40 0.000000000000000 6.283185307179586
2  35 14 41 0.000000000000000 6.283185307179586
2  36 8 42 0.000000000000000 6.283185307179586
0

0101000
+38 0 -38 0 *
Wi

0101100
-37 37 *
Fa
0  0.000000100000000 8 28

0111000
+42 0 +39 0 +36 0 *
Wi

0101100
+52 44 -56 45 +56 46 -43 44 *
Ve
0.000000100000000
4431.036676015763078 -25.000000000000000 0.000000000000000
0 0

0101101
*
Ed
 0.000000100000000 1 1 0
1  17 0 0.000000000000000 6.283185307179586
2  37 15 50 0.000000000000000 6.283185307179586
2  38 15 52 0.000000000000000 6.283185307179586
2  39 16 53 0.000000000000000 6.283185307179586
2  40 10 54 0.000000000000000 6.283185307179586
0

0101000
+33 0 -33 0 *
Wi

0101100
-32 49 *
Ve
0.000000100000000
4701.000000000000000 -25.000000000000000 0.000000000000000
0 0

0101101
*
Ed
 0.000000100000000 1 1 0
1  18 0 0.000000000000000 6.283185307179586
2  41 17 50 0.000000000000000 6.283185307179586
2  42 17 52 0.000000000000000 6.283185307179586
2  43 18 53 0.000000000000000 6.283185307179586
2  44 10 54 0.000000000000000 6.283185307179586
0

0101000
+30 0 -30 0 *
Wi

0101100
-29 49 *
Fa
0  0.000000100000000 10 44

0111000
+34 0 +31 0 +28 0 *
Wi

0101100
+70 0 *
Fa
0  0.000000100000000 4 0

0111000
+26 56 *
Wi

0101100
+67 0 *
Fa
0  0.000000100000000 6 0

0111000
+24 56 *
Ed
 0.000000100000000 1 1 0
1  19 0 0.000000000000000 5.000000000000000
3  45 46CN 11 0 0.000000000000000 5.000000000000000
0

0101000
+41 37 -41 57 *
Wi

0101100
+22 0 -22 0 -40 37 +40 57 *
Fa
0  0.000000100000000 11 0

0111000
+21 0 *
Ed
 0.000000100000000 1 1 0
1  20 0 0.000000000000000 5.000000000000000
3  47 48CN 13 0 0.000000000000000 5.000000000000000
0

0101000
+38 37 -38 57 *
Wi

0101100
+19 0 -19 0 -37 37 +37 57 *
Fa
0  0.000000100000000 13 0

0111000
+18 0 *
Ed
 0.000000100000000 1 1 0
1  21 0 0.000000000000000 5.000000000000000
3  49 50CN 15 0 0.000000000000000 5.000000000000000
0

0101000
+33 49 -33 58 *
Wi

0101100
+16 0 -16 0 -32 49 +32 58 *
Fa
0  0.000000100000000 15 0

0111000
+15 0 *
Ed
 0.000000100000000 1 1 0
1  22 0 0.000000000000000 5.000000000000000
3  51 52CN 17 0 0.000000000000000 5.000000000000000
0

0101000
+30 49 -30 58 *
Wi

0101100
+13 0 -13 0 -29 49 +29 58 *
Fa
0  0.000000100000000 17 0

0111000
+12 0 *
Wi

0101100
+40 0 *
Fa
0  0.000000100000000 12 0

0111000
+10 60 *
Wi

0101100
+37 0 *
Fa
0  0.000000100000000 14 0

0111000
+8 60 *
Wi

0101100
+32 0 *
Fa
0  0.000000100000000 16 0

0111000
+6 62 *
Wi

0101100
+29 0 *
Fa
0  0.000000100000000 18 0

0111000
+4 62 *
Sh

0101100
+65 4 +60 28 +53 29 -53 31 +50 28 -47 4 -44 4 +35 0 +27 43 +25 55 
+23 55 -20 0 -17 0 -14 43 -11 43 +9 59 +7 59 +5 61 +3 61 *
So

0100000
+2 0 *

+1 1 