
CASCADE Topology V1, (c) Matra-Datavision
Locations 10
1
1.000000000000000 0.000000000000000 0.000000000000000 0.000000000000000 
0.000000000000000 1.000000000000000 0.000000000000000 0.000000000000000 
0.000000000000000 0.000000000000000 1.000000000000000 0.000000000000000 
1
1.000000000000000 0.000000000000000 0.000000000000000 0.000000000000000 
0.000000000000000 1.000000000000000 0.000000000000000 0.000000000000000 
0.000000000000000 0.000000000000000 1.000000000000000 0.000000000000000 
1
1.000000000000000 0.000000000000000 0.000000000000000 0.000000000000000 
0.000000000000000 1.000000000000000 0.000000000000000 0.000000000000000 
0.000000000000000 0.000000000000000 1.000000000000000 0.000000000000000 
1
1.000000000000000 0.000000000000000 0.000000000000000 0.000000000000000 
0.000000000000000 1.000000000000000 0.000000000000000 0.000000000000000 
0.000000000000000 0.000000000000000 1.000000000000000 0.000000000000000 
2  2 1 3 1 4 -1 0
1
1.000000000000000 0.000000000000000 0.000000000000000 -0.000000000000000 
0.000000000000000 1.000000000000000 0.000000000000000 -0.000000000000000 
0.000000000000000 0.000000000000000 1.000000000000000 -50.000000000000000 
2  2 1 3 1 4 -1 6 1 0
2  4 -1 0
2  2 1 3 1 0
2  4 -1 6 1 0
Curve2ds 0
Curves 16
1 1089.00000000000000000 213.00000000000000000 0.00000000000000000 -0.00000000000000000 -0.00000000000000000 -1.00000000000000000 
1 27.00000000000000000 213.00000000000000000 0.00000000000000000 -0.00000000000000000 -0.00000000000000000 -1.00000000000000000 
1 1089.00000000000000000 213.00000000000000000 0.00000000000000000 -1.00000000000000000 0.00000000000000000 0.00000000000000000 
1 27.00000000000000000 -1843.00000000000000000 0.00000000000000000 -0.00000000000000000 -0.00000000000000000 -1.00000000000000000 
1 27.00000000000000000 213.00000000000000000 0.00000000000000000 0.00000000000000000 -1.00000000000000000 0.00000000000000000 
1 1114.32780929852970075 -1843.00000000000000000 0.00000000000000000 -0.00000000000000000 -0.00000000000000000 -1.00000000000000000 
1 27.00000000000000000 -1843.00000000000000000 0.00000000000000000 1.00000000000000000 0.00000000000000000 0.00000000000000000 
1 1114.32780929852970075 -973.00000000000000000 0.00000000000000000 -0.00000000000000000 -0.00000000000000000 -1.00000000000000000 
1 1114.32780929852970075 -1843.00000000000000000 0.00000000000000000 0.00000000000000000 1.00000000000000000 0.00000000000000000 
1 1027.00000000000000000 -973.00000000000000000 0.00000000000000000 -0.00000000000000000 -0.00000000000000000 -1.00000000000000000 
1 1114.32780929852970075 -973.00000000000000000 0.00000000000000000 -1.00000000000000000 0.00000000000000000 0.00000000000000000 
1 1027.00000000000000000 -787.00000000000000000 0.00000000000000000 -0.00000000000000000 -0.00000000000000000 -1.00000000000000000 
1 1027.00000000000000000 -973.00000000000000000 0.00000000000000000 0.00000000000000000 1.00000000000000000 0.00000000000000000 
1 1089.00000000000000000 -787.00000000000079581 0.00000000000000000 -0.00000000000000000 -0.00000000000000000 -1.00000000000000000 
1 1027.00000000000000000 -787.00000000000000000 0.00000000000000000 1.00000000000000000 -0.00000000000001284 0.00000000000000000 
1 1089.00000000000000000 213.00000000000000000 0.00000000000000000 0.00000000000000000 -1.00000000000000000 0.00000000000000000 
Polygon3D 0
PolygonOnTriangulations 0
Surfaces 9
1 1089.00000000000000000 213.00000000000000000 0.00000000000000000 0.00000000000000000 1.00000000000000000 -0.00000000000000000 -1.00000000000000000 0.00000000000000000 0.00000000000000000 0.00000000000000000 0.00000000000000000 1.00000000000000000 
1 27.00000000000000000 213.00000000000000000 0.00000000000000000 -1.00000000000000000 0.00000000000000000 0.00000000000000000 0.00000000000000000 -1.00000000000000000 0.00000000000000000 0.00000000000000000 0.00000000000000000 1.00000000000000000 
1 27.00000000000000000 -1843.00000000000000000 0.00000000000000000 0.00000000000000000 -1.00000000000000000 0.00000000000000000 1.00000000000000000 0.00000000000000000 0.00000000000000000 -0.00000000000000000 0.00000000000000000 1.00000000000000000 
1 1114.32780929852970075 -1843.00000000000000000 0.00000000000000000 1.00000000000000000 0.00000000000000000 0.00000000000000000 -0.00000000000000000 1.00000000000000000 0.00000000000000000 0.00000000000000000 -0.00000000000000000 1.00000000000000000 
1 1114.32780929852970075 -973.00000000000000000 0.00000000000000000 0.00000000000000000 1.00000000000000000 -0.00000000000000000 -1.00000000000000000 0.00000000000000000 0.00000000000000000 0.00000000000000000 0.00000000000000000 1.00000000000000000 
1 1027.00000000000000000 -973.00000000000000000 0.00000000000000000 1.00000000000000000 0.00000000000000000 0.00000000000000000 -0.00000000000000000 1.00000000000000000 0.00000000000000000 0.00000000000000000 -0.00000000000000000 1.00000000000000000 
1 1027.00000000000000000 -787.00000000000000000 0.00000000000000000 -0.00000000000001284 -1.00000000000000000 0.00000000000000000 1.00000000000000000 -0.00000000000001284 0.00000000000000000 0.00000000000000000 0.00000000000000000 1.00000000000000000 
1 1089.00000000000000000 213.00000000000000000 0.00000000000000000 -1.00000000000000000 0.00000000000000000 0.00000000000000000 0.00000000000000000 -1.00000000000000000 0.00000000000000000 0.00000000000000000 0.00000000000000000 1.00000000000000000 
1 573.60570890727672122 -820.94303985344879493 0.00000000000000000 0.00000000000000000 0.00000000000000000 1.00000000000000000 1.00000000000000000 0.00000000000000000 -0.00000000000000000 -0.00000000000000000 1.00000000000000000 0.00000000000000000 
Triangulations 0

TShapes 44
Ve
0.000000100000000
1089.000000000000000 213.000000000000000 0.000000000000000
0 0

0101101
*
Ed
 0.000000100000000 1 1 0
1  1 0 0.000000000000000 50.000000000000000
0

0101000
+44 5 -44 7 *
Ve
0.000000100000000
27.000000000000000 213.000000000000000 0.000000000000000
0 0

0101101
*
Ed
 0.000000100000000 1 1 0
1  2 0 0.000000000000000 50.000000000000000
0

0101000
+42 5 -42 7 *
Ed
 0.000000100000000 1 1 0
1  3 0 0.000000000000000 1062.000000000000000
0

0101000
+44 0 -42 0 *
Wi

0101100
+43 0 -41 0 -40 5 +40 7 *
Fa
0  0.000000100000000 1 0

0111000
+39 0 *
Ve
0.000000100000000
27.000000000000000 -1843.000000000000000 0.000000000000000
0 0

0101101
*
Ed
 0.000000100000000 1 1 0
1  4 0 0.000000000000000 50.000000000000000
0

0101000
+37 5 -37 7 *
Ed
 0.000000100000000 1 1 0
1  5 0 0.000000000000000 2056.000000000000000
0

0101000
+42 0 -37 0 *
Wi

0101100
+41 0 -36 0 -35 5 +35 7 *
Fa
0  0.000000100000000 2 0

0111000
+34 0 *
Ve
0.000000100000000
1114.327809298529701 -1843.000000000000000 0.000000000000000
0 0

0101101
*
Ed
 0.000000100000000 1 1 0
1  6 0 0.000000000000000 50.000000000000000
0

0101000
+32 5 -32 7 *
Ed
 0.000000100000000 1 1 0
1  7 0 0.000000000000000 1087.327809298529701
0

0101000
+37 0 -32 0 *
Wi

0101100
+36 0 -31 0 -30 5 +30 7 *
Fa
0  0.000000100000000 3 0

0111000
+29 0 *
Ve
0.000000100000000
1114.327809298529701 -973.000000000000000 0.000000000000000
0 0

0101101
*
Ed
 0.000000100000000 1 1 0
1  8 0 0.000000000000000 50.000000000000000
0

0101000
+27 5 -27 7 *
Ed
 0.000000100000000 1 1 0
1  9 0 0.000000000000000 870.000000000000000
0

0101000
+32 0 -27 0 *
Wi

0101100
+31 0 -26 0 -25 5 +25 7 *
Fa
0  0.000000100000000 4 0

0111000
+24 0 *
Ve
0.000000100000000
1027.000000000000000 -973.000000000000000 0.000000000000000
0 0

0101101
*
Ed
 0.000000100000000 1 1 0
1  10 0 0.000000000000000 50.000000000000000
0

0101000
+22 5 -22 7 *
Ed
 0.000000100000000 1 1 0
1  11 0 0.000000000000000 87.327809298529701
0

0101000
+27 0 -22 0 *
Wi

0101100
+26 0 -21 0 -20 5 +20 7 *
Fa
0  0.000000100000000 5 0

0111000
+19 0 *
Ve
0.000000100000000
1027.000000000000000 -787.000000000000000 0.000000000000000
0 0

0101101
*
Ed
 0.000000100000000 1 1 0
1  12 0 0.000000000000000 50.000000000000000
0

0101000
+17 5 -17 7 *
Ed
 0.000000100000000 1 1 0
1  13 0 0.000000000000000 186.000000000000000
0

0101000
+22 0 -17 0 *
Wi

0101100
+21 0 -16 0 -15 5 +15 7 *
Fa
0  0.000000100000000 6 0

0111000
+14 0 *
Ve
0.000000100000000
1089.000000000000000 -787.000000000000796 0.000000000000000
0 0

0101101
*
Ed
 0.000000100000000 1 1 0
1  14 0 0.000000000000000 50.000000000000000
0

0101000
+12 5 -12 7 *
Ed
 0.000000100000000 1 1 0
1  15 0 0.000000000000000 62.000000000000000
0

0101000
+17 0 -12 0 *
Wi

0101100
+16 0 -11 0 -10 5 +10 7 *
Fa
0  0.000000100000000 7 0

0111000
+9 0 *
Ed
 0.000000100000000 1 1 0
1  16 0 0.000000000000000 1000.000000000000796
0

0101000
+44 0 -12 0 *
Wi

0101100
+43 0 -11 0 -7 5 +7 7 *
Fa
0  0.000000100000000 8 0

0111000
+6 0 *
Wi

0101100
+40 0 +35 0 +30 0 +25 0 +20 0 +15 0 +10 0 -7 0 *
Fa
0  0.000000100000000 9 0

0111000
+4 9 *
Sh

0101100
+38 0 +33 0 +28 0 +23 0 +18 0 +13 0 +8 0 -5 0 +3 8 -3 10 
*
So

1100000
+2 0 *

+1 1 