
CASCADE Topology V1, (c) Matra-Datavision
Locations 72
1
0.000000000000000 0.000000000000000 1.000000000000000 0.000000000000000 
1.000000000000000 0.000000000000000 0.000000000000000 0.000000000000000 
0.000000000000000 1.000000000000000 0.000000000000000 0.000000000000000 
1
0.000000000000000 -0.000000000000000 1.000000000000000 0.000000000000000 
1.000000000000000 0.000000000000000 0.000000000000000 0.000000000000000 
-0.000000000000000 1.000000000000000 0.000000000000000 0.000000000000000 
1
-0.000000000000000 0.000000000000000 1.000000000000000 0.000000000000000 
1.000000000000000 -0.000000000000000 0.000000000000000 0.000000000000000 
0.000000000000000 1.000000000000000 -0.000000000000000 0.000000000000000 
1
0.000000000000000 -0.000000000000000 1.000000000000000 0.000000000000000 
1.000000000000000 0.000000000000000 0.000000000000000 0.000000000000000 
-0.000000000000000 1.000000000000000 0.000000000000000 0.000000000000000 
1
-0.000000000000000 0.000000000000000 1.000000000000000 0.000000000000000 
1.000000000000000 -0.000000000000000 0.000000000000000 0.000000000000000 
0.000000000000000 1.000000000000000 -0.000000000000000 0.000000000000000 
1
0.000000000000000 -0.000000000000000 1.000000000000000 0.000000000000000 
1.000000000000000 0.000000000000000 0.000000000000000 0.000000000000000 
-0.000000000000000 1.000000000000000 0.000000000000000 0.000000000000000 
1
-0.000000000000000 0.000000000000000 1.000000000000000 0.000000000000000 
1.000000000000000 -0.000000000000000 0.000000000000000 0.000000000000000 
0.000000000000000 1.000000000000000 -0.000000000000000 0.000000000000000 
2  2 1 3 -1 4 1 5 -1 6 1 7 -1 0
1
1.000000000000000 0.000000000000000 0.000000000000000 0.000000000000000 
0.000000000000000 1.000000000000000 0.000000000000000 0.000000000000000 
0.000000000000000 0.000000000000000 1.000000000000000 0.000000000000000 
1
0.000000000000000 -0.000000000000000 1.000000000000000 0.000000000000000 
1.000000000000000 0.000000000000000 -0.000000000000000 0.000000000000000 
-0.000000000000000 1.000000000000000 0.000000000000000 0.000000000000000 
1
-0.000000000000000 0.000000000000000 1.000000000000000 0.000000000000000 
1.000000000000000 -0.000000000000000 0.000000000000000 0.000000000000000 
0.000000000000000 1.000000000000000 -0.000000000000000 0.000000000000000 
2  9 1 10 1 11 -1 0
1
1.000000000000000 0.000000000000000 0.000000000000000 -0.000000000000007 
0.000000000000000 1.000000000000000 0.000000000000000 0.000000000000004 
0.000000000000000 0.000000000000000 1.000000000000000 15.000000000000000 
2  9 1 10 1 11 -1 13 1 0
2  10 -1 9 -1 0
2  6 1 7 -1 0
2  2 1 3 -1 4 1 5 -1 0
2  9 1 10 1 11 -1 2 1 3 -1 4 1 5 -1 0
2  11 1 10 -1 9 -1 0
2  13 -1 11 1 10 -1 9 -1 0
2  5 1 4 -1 3 1 2 -1 11 1 10 -1 9 -1 0
2  9 1 10 1 11 -1 13 1 2 1 3 -1 4 1 5 -1 0
1
1.000000000000000 0.000000000000000 0.000000000000000 0.000000000000000 
0.000000000000000 1.000000000000000 0.000000000000000 0.000000000000000 
0.000000000000000 0.000000000000000 1.000000000000000 0.000000000000000 
1
0.000000000000000 -0.000000000000000 1.000000000000000 14.999999999999556 
1.000000000000000 0.000000000000000 -0.000000000000000 -0.000000000000007 
0.000000000000000 1.000000000000000 0.000000000000000 0.000000000000005 
2  23 1 24 1 2 -1 13 -1 11 1 10 -1 9 -1 0
2  4 1 5 -1 0
2  2 1 3 -1 0
2  23 1 24 1 3 -1 0
2  5 1 4 -1 0
2  11 -1 2 1 3 -1 4 1 5 -1 6 1 7 -1 0
2  9 1 10 1 11 -1 2 1 3 -1 4 1 5 -1 6 1 7 -1 0
1
1.000000000000000 0.000000000000000 0.000000000000000 0.000000000000010 
0.000000000000000 1.000000000000000 0.000000000000000 -0.000000000000007 
0.000000000000000 0.000000000000000 1.000000000000000 -15.000000000000000 
2  3 -1 32 1 3 1 2 -1 11 1 10 -1 9 -1 0
1
1.000000000000000 0.000000000000000 0.000000000000000 0.000000000000000 
0.000000000000000 1.000000000000000 0.000000000000000 0.000000000000000 
0.000000000000000 0.000000000000000 1.000000000000000 0.000000000000000 
1
-0.000000000000000 1.000000000000000 0.000000000000001 -0.000000000000624 
0.000000000000000 -0.000000000000001 1.000000000000000 -937.000000000000227 
1.000000000000000 0.000000000000000 -0.000000000000000 0.000000000000104 
1
1.000000000000000 0.000000000000000 0.000000000000000 -15.000000000000000 
0.000000000000000 1.000000000000000 0.000000000000000 0.000000000000007 
0.000000000000000 0.000000000000000 1.000000000000000 -0.000000000000007 
2  34 1 35 1 5 -1 36 1 5 1 4 -1 3 1 2 -1 11 1 10 -1 9 -1 0
2  3 1 2 -1 11 1 10 -1 9 -1 0
1
1.000000000000000 0.000000000000000 0.000000000000000 0.000000000000000 
0.000000000000000 1.000000000000000 0.000000000000000 0.000000000000000 
0.000000000000000 0.000000000000000 1.000000000000000 0.000000000000000 
1
0.000000000000001 0.000000000000001 -1.000000000000000 -0.000000000001330 
1.000000000000000 -0.000000000000000 0.000000000000001 0.000000000000000 
-0.000000000000000 -1.000000000000000 -0.000000000000001 -0.000000000000000 
2  39 1 40 1 7 -1 0
2  7 1 40 -1 39 -1 0
1
1.000000000000000 0.000000000000000 0.000000000000000 -0.000000000002475 
0.000000000000000 1.000000000000000 0.000000000000000 0.000000000001650 
0.000000000000000 0.000000000000000 1.000000000000000 2476.746098197758783 
2  43 -1 7 1 40 -1 39 -1 0
2  40 -1 39 -1 0
2  11 -1 2 1 3 -1 4 1 5 -1 6 1 40 -1 39 -1 0
2  11 -1 13 1 2 1 3 -1 4 1 5 -1 6 1 7 -1 0
2  9 1 10 1 11 -1 13 1 2 1 3 -1 4 1 5 -1 6 1 7 -1 0
2  3 1 2 -1 13 -1 11 1 10 -1 9 -1 0
2  23 1 24 1 3 -1 4 1 5 -1 0
2  24 -1 23 -1 0
2  3 1 24 -1 23 -1 0
2  32 -1 3 1 24 -1 23 -1 0
2  23 1 24 1 3 -1 32 1 4 1 5 -1 0
2  5 1 4 -1 32 -1 3 1 24 -1 23 -1 0
2  34 1 35 1 5 -1 0
2  34 1 35 1 5 -1 36 1 0
2  5 1 35 -1 34 -1 0
2  36 -1 5 1 35 -1 34 -1 0
2  35 -1 34 -1 0
2  3 -1 32 1 4 1 5 -1 0
2  3 -1 32 1 4 1 5 -1 36 -1 5 1 35 -1 34 -1 0
2  34 1 35 1 5 -1 36 1 5 1 4 -1 32 -1 3 1 24 -1 23 -1 0
2  4 1 5 -1 6 1 7 -1 0
2  3 1 2 -1 0
2  9 1 10 1 11 -1 2 1 3 -1 0
2  9 1 10 1 11 -1 13 1 2 1 3 -1 0
2  3 -1 0
2  23 1 24 1 3 -1 32 1 0
2  5 -1 0
2  5 -1 36 1 6 1 7 -1 0
2  34 1 35 1 0
Curve2ds 96
1 250.00000000000000000 -0.00000000000000000 -0.00000000000000022 -1.00000000000000000 
1 -243.25097898216108661 -494.13214511046066946 1.00000000000000000 -0.00000000000000022 
1 0.00000000000000000 0.00000000000000000 1.00000000000000000 0.00000000000000000 
1 0.00000000000000333 -15.00000000000000000 1.00000000000000000 0.00000000000000000 
1 -243.25097898216063186 -244.13214511046066946 -0.00000000000000022 -1.00000000000000000 
1 0.00000000000000000 0.00000000000000000 -0.00000000000000022 -1.00000000000000000 
1 0.00000000000000000 0.00000000000000000 -0.00000000000000022 -1.00000000000000000 
1 199.99999999999874944 -14.99999999999921485 0.00000000000000044 1.00000000000000000 
1 -54.58384518607499558 -494.13214511046066946 0.36755970767774454 0.92999992542572341 
1 106.41974209391673867 123.17287688069040996 -0.00000000000000078 -1.00000000000000000 
1 249.36902101783925900 274.92968892062208397 0.00000000000000022 1.00000000000000000 
1 249.36902101783925900 476.86785488953796630 -1.00000000000000000 0.00000000000000022 
1 0.00000000000000000 0.00000000000000000 1.00000000000000000 0.00000000000000000 
1 0.00000000000000666 -15.00000000000000000 1.00000000000000000 0.00000000000000000 
1 0.00000000000000000 0.00000000000000000 1.00000000000000000 0.00000000000000000 
1 0.00000000000000666 -15.00000000000000000 1.00000000000000000 0.00000000000000000 
1 -224.59469008823180047 -244.13214511046066946 -1.00000000000000000 0.00000000000000022 
1 -0.63097898194928348 476.86785488953819367 -0.00000000000134684 -1.00000000000000000 
1 -0.63097898215710302 322.54105185845355663 -0.36755970767776108 -0.92999992542571686 
1 0.00000000000000000 0.00000000000000000 1.00000000000000000 0.00000000000000000 
1 0.00000000000000000 -15.00000000000000000 1.00000000000000000 0.00000000000000000 
2 -86.38427898216104950 -404.13214511046066946 -0.00000000000000022 -1.00000000000000000 1.00000000000000000 -0.00000000000000022 5.00000000000000000
1 0.00000000000000000 0.00000000000000000 1.00000000000000000 0.00000000000000000 
1 0.00000000000000000 -15.00000000000000000 1.00000000000000000 0.00000000000000000 
2 -86.38427898216104950 -60.86413506334633894 -0.00000000000000022 -1.00000000000000000 1.00000000000000000 -0.00000000000000022 5.00000000000000000
1 0.00000000000000000 0.00000000000000000 1.00000000000000000 0.00000000000000000 
1 0.00000000000000000 -15.00000000000000000 1.00000000000000000 0.00000000000000000 
2 95.48242101783898761 56.02715392163054275 -0.00000000000000022 -1.00000000000000000 1.00000000000000000 -0.00000000000000022 5.00000000000000000
1 0.00000000000000000 0.00000000000000000 1.00000000000000000 0.00000000000000000 
1 0.00000000000000000 -2476.74609819775878350 1.00000000000000000 0.00000000000000000 
2 0.00000000000000000 0.00000000000000000 -1.00000000000000000 -0.00000000000000017 0.00000000000000017 -1.00000000000000000 5.00000000000000000
2 29.31305360567648677 361.86785488954546963 0.00000000000000017 -1.00000000000000000 -1.00000000000000000 -0.00000000000000017 5.00000000000000000
1 0.00000000000000000 0.00000000000000000 1.00000000000000000 0.00000000000000000 
1 0.00000000000000000 -2476.74609819775878350 1.00000000000000000 0.00000000000000000 
2 -0.00000000000022737 0.00000000000000000 -1.00000000000000000 -0.00000000000000017 0.00000000000000017 -1.00000000000000000 5.00000000000000000
2 29.31305360567648677 421.86785488954546963 0.00000000000000017 -1.00000000000000000 -1.00000000000000000 -0.00000000000000017 5.00000000000000000
1 0.00000000000000000 0.00000000000000000 1.00000000000000000 0.00000000000000000 
1 0.00000000000000000 -15.00000000000000000 1.00000000000000000 0.00000000000000000 
2 95.48242101783898761 381.86785488953933054 -0.00000000000000022 -1.00000000000000000 1.00000000000000000 -0.00000000000000022 5.00000000000000000
2 29.31305360567090901 361.86785488954166112 -0.00000000000000006 -1.00000000000000000 -1.00000000000000000 0.00000000000000006 5.00000000000000000
1 0.00000000000000000 -14.99999999999973888 1.00000000000000000 0.00000000000000000 
2 29.31305360567134244 421.86785488954166112 -0.00000000000000006 -1.00000000000000000 -1.00000000000000000 0.00000000000000006 5.00000000000000000
1 0.00000000000000000 -14.99999999999971223 1.00000000000000000 0.00000000000000000 
1 250.00000000000045475 0.00000000000000044 -0.00000000000000022 -1.00000000000000000 
1 80.00000000000000000 0.00000000000000000 0.00000000000000022 -1.00000000000000000 
1 106.41974209391491968 -76.82712311931049953 -1.00000000000000000 0.00000000000000000 
1 0.00000000000000000 0.00000000000000000 1.00000000000000000 0.00000000000000000 
1 -0.00000000000000999 -15.00000000000000000 1.00000000000000000 0.00000000000000000 
1 0.00000000000000000 0.00000000000000000 0.00000000000000017 -1.00000000000000000 
1 0.00000000000000000 0.00000000000000000 0.00000000000000039 -1.00000000000000000 
1 0.00000000000000000 0.00000000000000000 1.00000000000000000 0.00000000000000000 
1 0.00000000000001332 -15.00000000000000000 1.00000000000000000 0.00000000000000000 
1 -40.00000000000004263 -125.00000000000000000 1.00000000000000000 -0.00000000000000022 
1 0.00000000000000000 0.00000000000000000 1.00000000000000000 0.00000000000000000 
1 0.00000000000000416 -15.00000000000000000 1.00000000000000000 0.00000000000000000 
1 39.99999999999997158 -125.00000000000000000 0.00000000000000022 1.00000000000000000 
1 106.41974209391810291 -61.82712311930879423 -1.00000000000000000 -0.00000000000000028 
1 -143.58025790608508032 3.17287688068950047 -0.00000000000000000 -1.00000000000000000 
1 0.00000000000000000 0.00000000000000000 1.00000000000000000 0.00000000000000000 
1 -0.00000000000000666 -15.00000000000000000 1.00000000000000000 0.00000000000000000 
1 0.00000000000000000 0.00000000000000000 1.00000000000000000 -0.00000000000000000 
1 -0.00000000000001189 -15.00000000000000000 1.00000000000000000 -0.00000000000000000 
1 106.41974209391491968 123.17287688069040996 -0.90152305746827233 -0.43273106758477403 
1 249.99999999978854248 0.00000000000000000 0.00000000000000017 -1.00000000000000000 
1 0.00000000000000000 0.00000000000000000 0.00000000000000017 -1.00000000000000000 
1 18.65628889392883138 0.00000000000000000 0.00000000000000017 -1.00000000000000000 
1 0.00000000000000000 0.00000000000000000 -0.00000000000000022 -1.00000000000000000 
1 0.00000000000000000 0.00000000000000000 0.00000000000000000 -1.00000000000000000 
1 6.28318530717958623 0.00000000000000000 0.00000000000000000 -1.00000000000000000 
1 0.00000000000000000 0.00000000000000000 0.00000000000000000 -1.00000000000000000 
1 6.28318530717958623 0.00000000000000000 0.00000000000000000 -1.00000000000000000 
1 0.00000000000000000 0.00000000000000000 0.00000000000000000 -1.00000000000000000 
1 6.28318530717958623 0.00000000000000000 0.00000000000000000 -1.00000000000000000 
1 0.00000000000000000 0.00000000000000000 0.00000000000000000 -1.00000000000000000 
1 6.28318530717958623 0.00000000000000000 0.00000000000000000 -1.00000000000000000 
1 0.00000000000000000 0.00000000000000000 0.00000000000000000 -1.00000000000000000 
1 6.28318530717958623 0.00000000000000000 0.00000000000000000 -1.00000000000000000 
1 0.00000000000000000 0.00000000000000000 0.00000000000000000 -1.00000000000000000 
1 6.28318530717958623 0.00000000000000000 0.00000000000000000 -1.00000000000000000 
1 277.30849247724233919 0.00000000000000044 -0.00000000000000010 -1.00000000000000000 
1 0.00000000000000000 0.00000000000000000 0.00000000000000022 -1.00000000000000000 
1 0.00000000000000000 0.00000000000000000 1.00000000000000000 0.00000000000000000 
1 -0.00000000000000583 -15.00000000000000000 1.00000000000000000 0.00000000000000000 
1 40.00000000000002842 125.00000000000045475 -1.00000000000000000 0.00000000000000022 
1 -39.99999999999998579 125.00000000000045475 -0.00000000000000022 -1.00000000000000000 
1 0.00000000000000000 0.00000000000000000 1.00000000000000000 0.00000000000000000 
1 0.00000000000000000 -15.00000000000000000 1.00000000000000000 0.00000000000000000 
2 0.00000000000000000 25.00000000000045475 -0.00000000000000022 -1.00000000000000000 1.00000000000000000 -0.00000000000000022 5.00000000000000000
1 0.00000000000000000 0.00000000000000000 1.00000000000000000 0.00000000000000000 
1 0.00000000000000000 -15.00000000000000000 1.00000000000000000 0.00000000000000000 
2 0.00000000000001421 85.00000000000045475 -0.00000000000000022 -1.00000000000000000 1.00000000000000000 -0.00000000000000022 5.00000000000000000
1 80.00000000000002842 0.00000000000004263 -0.00000000000000039 -1.00000000000000000 
1 0.00000000000000000 0.00000000000000000 0.00000000000000000 -1.00000000000000000 
1 6.28318530717958623 0.00000000000000000 0.00000000000000000 -1.00000000000000000 
1 0.00000000000000000 0.00000000000000000 0.00000000000000000 -1.00000000000000000 
1 6.28318530717958623 0.00000000000000000 0.00000000000000000 -1.00000000000000000 
Curves 46
1 -887.00000000000022737 3134.00000000000136424 -0.00000000000158873 -0.00000000000000044 0.00000000000000028 1.00000000000000000 
1 -887.00000000000022737 3322.66713379608745527 -0.00000000000167251 -0.00000000000000044 0.00000000000000028 1.00000000000000000 
1 -887.00000000000068212 3134.00000000000000000 0.00000000000000000 0.00000000000000000 1.00000000000000000 0.00000000000000000 
1 -1137.00000000000068212 3134.00000000000000000 0.00000000000000000 1.00000000000000000 0.00000000000000000 0.00000000000000000 
1 -937.00000000000022737 3134.00000000000227374 14.99999999999705480 0.00000000000000067 -0.00000000000000044 -1.00000000000000000 
1 -1656.06183403108320817 3626.62000000000170985 -0.00000000000197826 -0.00000000000000044 0.00000000000000028 1.00000000000000000 
1 -887.00000000000068212 3322.66713379608609102 0.00000000000000000 -0.92999992542572341 0.36755970767774426 0.00000000000000000 
1 -1656.06183403108366292 3626.61999999999989086 0.00000000000000000 -1.00000000000000000 0.00000000000000000 0.00000000000000000 
1 -1857.99999999999954525 3626.61999999999989086 0.00000000000000000 0.00000000000000000 -1.00000000000000000 0.00000000000000000 
1 -1137.00000000000068212 3152.65628889392883138 0.00000000000000000 0.00000000000000000 -1.00000000000000000 0.00000000000000000 
1 -1857.99999999999954525 3376.62000000021134838 0.00000000000000000 1.00000000000000000 -0.00000000000134662 0.00000000000000000 
1 -1703.67319696891490821 3376.62000000000352884 0.00000000000000000 0.92999992542571697 -0.36755970767776086 0.00000000000000000 
2 -977.00000000000068212 3290.86670000000003711 0.00000000000000000 0.00000000000000000 0.00000000000000000 1.00000000000000000 1.00000000000000000 0.00000000000000000 -0.00000000000000000 -0.00000000000000000 1.00000000000000000 0.00000000000000000 5.00000000000000000
2 -1320.26801004711501264 3290.86669999999958236 0.00000000000000000 0.00000000000000000 0.00000000000000000 1.00000000000000000 1.00000000000000000 0.00000000000000000 -0.00000000000000000 -0.00000000000000000 1.00000000000000000 0.00000000000000000 5.00000000000000000
2 -1437.15929903209189433 3472.73339999999961947 0.00000000000000000 0.00000000000000000 0.00000000000000000 1.00000000000000000 1.00000000000000000 0.00000000000000000 -0.00000000000000000 -0.00000000000000000 1.00000000000000000 0.00000000000000000 5.00000000000000000
2 -1743.00000000000227374 -3406.56403258783575438 0.00000000000000000 0.00000000000000000 0.00000000000000000 1.00000000000000000 1.00000000000000000 0.00000000000000000 -0.00000000000000000 -0.00000000000000000 1.00000000000000000 0.00000000000000000 5.00000000000000000
2 -1803.00000000000227374 -3406.56403258783575438 0.00000000000000000 0.00000000000000000 0.00000000000000000 1.00000000000000000 1.00000000000000000 0.00000000000000000 -0.00000000000000000 -0.00000000000000000 1.00000000000000000 0.00000000000000000 5.00000000000000000
2 -1763.00000000000068212 3472.73339999999961947 0.00000000000000000 0.00000000000000000 0.00000000000000000 1.00000000000000000 1.00000000000000000 0.00000000000000000 -0.00000000000000000 -0.00000000000000000 1.00000000000000000 0.00000000000000000 5.00000000000000000
2 -1743.00000000000227374 3406.56403258783711863 14.99999999999441158 0.00000000000000067 -0.00000000000000083 -1.00000000000000000 1.00000000000000000 -0.00000000000000039 0.00000000000000067 -0.00000000000000039 -1.00000000000000000 0.00000000000000083 5.00000000000000000
2 -1803.00000000000227374 3406.56403258783757337 14.99999999999434586 0.00000000000000067 -0.00000000000000083 -1.00000000000000000 1.00000000000000000 -0.00000000000000039 0.00000000000000067 -0.00000000000000039 -1.00000000000000000 0.00000000000000083 5.00000000000000000
1 -937.00000000000022737 2884.00000000000181899 14.99999999999722178 0.00000000000000067 -0.00000000000000044 -1.00000000000000000 
1 -937.00000000000000000 3134.00000000000136424 0.00000000000000000 0.00000000000000000 -1.00000000000000000 0.00000000000000000 
1 -1857.99999999999909051 3626.62000000000170985 -0.00000000000202310 -0.00000000000000044 0.00000000000000028 1.00000000000000000 
1 -936.99999999999954525 3134.00000000000363798 -80.00000000000245848 -1.00000000000000000 0.00000000000000050 -0.00000000000000050 
1 3134.00000000000136424 -80.00000000000041211 0.00000000000000000 0.00000000000000000 1.00000000000000000 0.00000000000000000 
1 3134.00000000000136424 -0.00000000000041210 0.00000000000000000 -1.00000000000000000 0.00000000000000000 0.00000000000000000 
1 -1017.00000000000000000 2884.00000000000136424 0.00000000000000000 1.00000000000000000 0.00000000000000000 0.00000000000000000 
1 -1137.00000000000090949 3134.00000000000136424 0.00000000000000000 0.43273106758477403 -0.90152305746827233 0.00000000000000000 
1 -1857.99999999999931788 3376.62000000021316737 -0.00000000000191208 -0.00000000000000044 0.00000000000000028 1.00000000000000000 
1 -1137.00000000000022737 3152.65628889393019563 -0.00000000000165253 -0.00000000000000044 0.00000000000000028 1.00000000000000000 
1 -1137.00000000000022737 3134.00000000000136424 -0.00000000000164424 -0.00000000000000044 0.00000000000000028 1.00000000000000000 
1 -1703.67319696891468084 3376.62000000000534783 -0.00000000000187781 -0.00000000000000044 0.00000000000000028 1.00000000000000000 
1 -972.00000000000022737 3290.86670000000140135 -0.00000000000167727 -0.00000000000000044 0.00000000000000028 1.00000000000000000 
1 -1315.26801004711455789 3290.86670000000094660 -0.00000000000175349 -0.00000000000000044 0.00000000000000028 1.00000000000000000 
1 -1432.15929903209143959 3472.73340000000098371 -0.00000000000186021 -0.00000000000000044 0.00000000000000028 1.00000000000000000 
1 -1738.00000000000227374 3406.56403258783711863 -0.00000000000532396 -0.00000000000000100 0.00000000000000067 1.00000000000000000 
1 -1798.00000000000227374 3406.56403258783757337 -0.00000000000536393 -0.00000000000000100 0.00000000000000067 1.00000000000000000 
1 -1758.00000000000045475 3472.73340000000143846 -0.00000000000193256 -0.00000000000000044 0.00000000000000028 1.00000000000000000 
1 -1017.00000000000022737 2884.00000000000181899 14.99999999999718625 0.00000000000000067 -0.00000000000000044 -1.00000000000000000 
1 2884.00000000000136424 -0.00000000000041210 0.00000000000000000 0.00000000000000000 -1.00000000000000000 0.00000000000000000 
1 2884.00000000000136424 -80.00000000000041211 0.00000000000000000 1.00000000000000000 0.00000000000000000 0.00000000000000000 
2 2984.00000000000136424 -40.00000000000041211 0.00000000000000000 0.00000000000000000 0.00000000000000000 1.00000000000000000 1.00000000000000000 0.00000000000000000 -0.00000000000000000 -0.00000000000000000 1.00000000000000000 0.00000000000000000 5.00000000000000000
2 2924.00000000000136424 -40.00000000000041211 0.00000000000000000 0.00000000000000000 0.00000000000000000 1.00000000000000000 1.00000000000000000 0.00000000000000000 -0.00000000000000000 -0.00000000000000000 1.00000000000000000 0.00000000000000000 5.00000000000000000
1 -936.99999999999954525 2884.00000000000272848 -80.00000000000234479 -1.00000000000000000 0.00000000000000050 -0.00000000000000050 
1 -936.99999999999954525 2989.00000000000272848 -40.00000000000238032 -1.00000000000000000 0.00000000000000050 -0.00000000000000050 
1 -936.99999999999965894 2929.00000000000272848 -40.00000000000235190 -1.00000000000000000 0.00000000000000050 -0.00000000000000050 
Polygon3D 0
PolygonOnTriangulations 0
Surfaces 29
1 -887.00000000000022737 3134.00000000000136424 -0.00000000000158873 -1.00000000000000000 0.00000000000000022 -0.00000000000000044 0.00000000000000022 1.00000000000000000 -0.00000000000000044 0.00000000000000044 -0.00000000000000044 -1.00000000000000000 
1 -1137.00000000000022737 3134.00000000000136424 -0.00000000000164424 0.00000000000000044 1.00000000000000000 -0.00000000000000028 1.00000000000000000 -0.00000000000000044 0.00000000000000022 0.00000000000000022 -0.00000000000000028 -1.00000000000000000 
1 -0.00000000000105657 -1381.13214511046066946 3377.25097898216108661 1.00000000000000000 -0.00000000000000022 0.00000000000000022 -0.00000000000000022 0.00000000000000000 1.00000000000000000 -0.00000000000000022 -1.00000000000000000 -0.00000000000000000 
1 -937.00000000000022737 3134.00000000000227374 14.99999999999705480 0.00000000000000022 1.00000000000000000 -0.00000000000000044 -1.00000000000000000 0.00000000000000022 -0.00000000000000044 -0.00000000000000044 0.00000000000000044 1.00000000000000000 
1 -937.00000000000022737 3134.00000000000227374 14.99999999999705480 -1.00000000000000000 -0.00000000000000000 -0.00000000000000067 -0.00000000000000000 -1.00000000000000000 0.00000000000000067 -0.00000000000000067 0.00000000000000067 1.00000000000000000 
1 -887.00000000000022737 3322.66713379608745527 -0.00000000000167251 -0.36755970767774465 -0.92999992542572330 0.00000000000000009 -0.92999992542572330 0.36755970767774465 -0.00000000000000037 0.00000000000000031 -0.00000000000000022 -1.00000000000000000 
1 14.99999999999776001 -1013.82712311931049953 3027.58025790608644456 1.00000000000000000 -0.00000000000000044 0.00000000000000045 -0.00000000000000045 0.00000000000000000 1.00000000000000000 -0.00000000000000044 -1.00000000000000000 -0.00000000000000000 
1 -1857.99999999999909051 3626.62000000000170985 -0.00000000000202310 1.00000000000000000 -0.00000000000000022 0.00000000000000044 -0.00000000000000022 -1.00000000000000000 0.00000000000000044 0.00000000000000044 -0.00000000000000044 -1.00000000000000000 
1 -1137.00000000000022737 3152.65628889393019563 -0.00000000000165253 1.00000000000000000 -0.00000000000000022 0.00000000000000044 -0.00000000000000022 -1.00000000000000000 0.00000000000000044 0.00000000000000044 -0.00000000000000044 -1.00000000000000000 
2 -977.00000000000022737 3290.86670000000140135 -0.00000000000167838 0.00000000000000022 -0.00000000000000044 -1.00000000000000000 1.00000000000000000 -0.00000000000000044 0.00000000000000022 0.00000000000000044 1.00000000000000000 -0.00000000000000044 5.00000000000000000
2 -1320.26801004711455789 3290.86670000000094660 -0.00000000000175460 0.00000000000000022 -0.00000000000000044 -1.00000000000000000 1.00000000000000000 -0.00000000000000044 0.00000000000000022 0.00000000000000044 1.00000000000000000 -0.00000000000000044 5.00000000000000000
2 -1437.15929903209143959 3472.73340000000098371 -0.00000000000186132 0.00000000000000022 -0.00000000000000044 -1.00000000000000000 1.00000000000000000 -0.00000000000000044 0.00000000000000022 0.00000000000000044 1.00000000000000000 -0.00000000000000044 5.00000000000000000
2 -1743.00000000000227374 3406.56403258783711863 -0.00000000000532729 0.00000000000000067 -0.00000000000000083 -1.00000000000000000 1.00000000000000000 -0.00000000000000039 0.00000000000000067 -0.00000000000000039 -1.00000000000000000 0.00000000000000083 5.00000000000000000
1 -0.00000000000457088 -1743.00000000000181899 3406.56403258783620913 -1.00000000000000000 0.00000000000000067 -0.00000000000000061 -0.00000000000000067 -1.00000000000000000 0.00000000000000000 -0.00000000000000061 0.00000000000000000 1.00000000000000000 
2 -1803.00000000000227374 3406.56403258783757337 -0.00000000000536726 0.00000000000000067 -0.00000000000000083 -1.00000000000000000 1.00000000000000000 -0.00000000000000039 0.00000000000000067 -0.00000000000000039 -1.00000000000000000 0.00000000000000083 5.00000000000000000
1 -0.00000000000461085 -1803.00000000000204636 3406.56403258783620913 -1.00000000000000000 0.00000000000000067 -0.00000000000000061 -0.00000000000000067 -1.00000000000000000 0.00000000000000000 -0.00000000000000061 0.00000000000000000 1.00000000000000000 
2 -1763.00000000000045475 3472.73340000000143846 -0.00000000000193367 0.00000000000000022 -0.00000000000000044 -1.00000000000000000 1.00000000000000000 -0.00000000000000044 0.00000000000000022 0.00000000000000044 1.00000000000000000 -0.00000000000000044 5.00000000000000000
1 -1017.00000000000022737 2884.00000000000181899 14.99999999999718625 -0.00000000000000022 -1.00000000000000000 0.00000000000000044 1.00000000000000000 -0.00000000000000022 0.00000000000000044 -0.00000000000000044 0.00000000000000044 1.00000000000000000 
1 -1656.06183403108320817 3626.62000000000170985 -0.00000000000197826 -0.00000000000000044 -1.00000000000000000 0.00000000000000028 -1.00000000000000000 0.00000000000000044 -0.00000000000000022 0.00000000000000022 -0.00000000000000028 -1.00000000000000000 
1 -936.99999999999954525 3134.00000000000363798 -80.00000000000245848 0.00000000000000050 1.00000000000000000 -0.00000000000000022 -0.00000000000000089 0.00000000000000022 1.00000000000000000 1.00000000000000000 -0.00000000000000050 0.00000000000000089 
1 -40.00000000000170530 -936.99999999999954525 3009.00000000000227374 0.00000000000000071 1.00000000000000000 -0.00000000000000023 1.00000000000000000 -0.00000000000000071 0.00000000000000000 -0.00000000000000000 -0.00000000000000023 -1.00000000000000000 
1 -936.99999999999954525 3134.00000000000363798 -0.00000000000242804 -0.00000000000000050 0.00000000000000044 1.00000000000000000 -0.00000000000000028 -1.00000000000000000 0.00000000000000044 1.00000000000000000 -0.00000000000000028 0.00000000000000050 
1 -1137.00000000000113687 3134.00000000000272848 14.99999999999696598 -0.90152305746827233 -0.43273106758477403 -0.00000000000000041 0.43273106758477403 -0.90152305746827233 0.00000000000000079 -0.00000000000000071 0.00000000000000053 1.00000000000000000 
1 -1857.99999999999931788 3376.62000000021316737 -0.00000000000191208 0.00000000000134706 1.00000000000000000 -0.00000000000000028 1.00000000000000000 -0.00000000000134706 0.00000000000000022 0.00000000000000022 -0.00000000000000028 -1.00000000000000000 
1 -1703.67319696891468084 3376.62000000000534783 -0.00000000000187781 0.36755970767776119 0.92999992542571674 -0.00000000000000009 0.92999992542571674 -0.36755970767776119 0.00000000000000037 0.00000000000000031 -0.00000000000000022 -1.00000000000000000 
1 -936.99999999999965894 2884.00000000000272848 -0.00000000000231702 -0.00000000000000050 -1.00000000000000000 0.00000000000000022 0.00000000000000089 -0.00000000000000022 -1.00000000000000000 1.00000000000000000 -0.00000000000000050 0.00000000000000089 
2 -936.99999999999954525 2984.00000000000272848 -40.00000000000238032 1.00000000000000000 -0.00000000000000028 0.00000000000000089 0.00000000000000028 1.00000000000000000 -0.00000000000000044 -0.00000000000000089 0.00000000000000044 1.00000000000000000 5.00000000000000089
2 -936.99999999999965894 2924.00000000000272848 -40.00000000000235190 1.00000000000000000 -0.00000000000000028 0.00000000000000089 0.00000000000000028 1.00000000000000000 -0.00000000000000044 -0.00000000000000089 0.00000000000000044 1.00000000000000000 5.00000000000000089
1 -936.99999999999954525 2884.00000000000272848 -80.00000000000234479 0.00000000000000050 -0.00000000000000044 -1.00000000000000000 0.00000000000000028 1.00000000000000000 -0.00000000000000044 1.00000000000000000 -0.00000000000000028 0.00000000000000050 
Triangulations 0

TShapes 159
Ve
0.000000100000000
-887.000000000000682 3134.000000000000000 0.000000000000000
0 0

0101101
*
Ed
 0.000000100000000 1 1 0
1  1 0 0.000000000000000 15.000000000000000
2  1 2 0 0.000000000000000 15.000000000000000
0

0101000
+159 12 -159 14 *
Ve
0.000000100000000
-887.000000000000682 3322.667133796086091 0.000000000000000
0 0

0101101
*
Ed
 0.000000100000000 1 1 0
1  2 0 0.000000000000000 15.000000000000000
0

0101000
+157 12 -157 14 *
Ed
 0.000000100000000 1 1 0
1  3 0 0.000000000000000 188.667133796086091
2  2 3 15 0.000000000000000 188.667133796086091
0

0101000
+159 0 -157 0 *
Wi

0101100
+158 0 -156 0 -155 12 +155 14 *
Fa
0  0.000000100000000 1 0

0111000
+154 0 *
Ve
0.000000100003133
-936.999999999999886 3134.000000000003638 -0.000000000003277
0 0

0101101
*
Ed
 0.000000100000000 1 1 0
1  4 0 199.999999999999773 250.000000000000000
2  3 2 19 199.999999999999773 250.000000000000000
2  4 2 20 199.999999999999773 250.000000000000000
2  5 3 15 199.999999999999773 250.000000000000000
0

0101000
+152 21 -159 0 *
Ve
0.000000100000455
-937.000000000000000 3134.000000000001364 0.000000000000000
0 0

0101101
*
Ed
 0.000000100000000 1 1 0
1  4 0 199.999999999999773 250.000000000000000
2  3 2 19 199.999999999999773 250.000000000000000
2  4 2 20 199.999999999999773 250.000000000000000
2  5 3 15 199.999999999999773 250.000000000000000
0

0101000
+150 25 -159 0 *
Ed
 0.000000100000455 1 1 0
1  5 0 0.000000000000000 15.000000000000000
2  6 4 0 0.000000000000000 15.000000000000000
2  7 5 0 0.000000000000000 15.000000000000000
2  8 2 27 0.000000000000000 15.000000000000000
0

0101000
+150 28 -152 29 *
Wi

0101100
-151 18 -158 17 +149 22 -148 26 *
Fa
0  0.000000100000000 2 17

0111000
+147 0 *
Ve
0.000000100000000
-1656.061834031083663 3626.619999999999891 0.000000000000000
0 0

0101101
*
Ed
 0.000000100000000 1 1 0
1  6 0 0.000000000000000 15.000000000000000
0

0101000
+145 12 -145 14 *
Ed
 0.000000100000000 1 1 0
1  7 0 0.000000000000000 826.948274946400375
2  9 3 15 0.000000000000000 826.948274946400375
0

0101000
+157 0 -145 0 *
Wi

0101100
+156 0 -144 0 -143 12 +143 14 *
Fa
0  0.000000100000000 6 0

0111000
+142 0 *
Ve
0.000000100001597
3134.000000000001364 -0.000000000000412 0.000000000000000
0 0

0101101
*
Ed
 0.000000100001259 1 1 0
1  4 0 185.000000000000455 199.999999999999773
2  3 2 19 185.000000000000455 199.999999999999773
2  4 2 20 185.000000000000455 199.999999999999773
2  5 3 15 185.000000000000455 199.999999999999773
2  10 7 33 185.000000000000455 199.999999999999773
0

0101000
+140 37 -152 21 *
Ve
0.000000100000000
-1857.999999999999545 3626.619999999999891 0.000000000000000
0 0

0101101
*
Ed
 0.000000100000000 1 1 0
1  8 0 0.000000000000000 201.938165968915882
2  11 3 15 0.000000000000000 201.938165968915882
0

0101000
+145 0 -138 0 *
Ve
0.000000100001645
-1137.000000000000682 3134.000000000002274 -0.000000000002861
0 0

0101101
*
Ed
 0.000000100000341 1 1 0
1  4 0 0.000000000000000 185.000000000000455
2  3 2 19 0.000000000000000 185.000000000000455
2  4 2 20 0.000000000000000 185.000000000000455
2  5 3 15 0.000000000000000 185.000000000000455
2  10 7 33 0.000000000000000 185.000000000000455
0

0101000
+136 38 -140 37 *
Ve
0.000000100000000
-1857.999999999999545 3376.620000000211348 0.000000000000000
0 0

0101101
*
Ed
 0.000000100000000 1 1 0
1  9 0 0.000000000000000 249.999999999788542
2  12 3 15 0.000000000000000 249.999999999788542
2  13 8 19 0.000000000000000 249.999999999788542
2  14 8 20 0.000000000000000 249.999999999788542
0

0101000
+138 0 -134 0 *
Ve
0.000000100000000
-1137.000000000000682 3152.656288893928831 0.000000000000000
0 0

0101101
*
Ed
 0.000000100000000 1 1 0
1  10 0 0.000000000000000 18.656288893928831
2  15 9 19 0.000000000000000 18.656288893928831
2  16 9 20 0.000000000000000 18.656288893928831
2  17 3 15 0.000000000000000 18.656288893928831
0

0101000
+132 0 -136 38 *
Ve
0.000000100000000
-1703.673196968914908 3376.620000000003529 0.000000000000000
0 0

0101101
*
Ed
 0.000000100000000 1 1 0
1  11 0 0.000000000000000 154.326803031084637
2  18 3 15 0.000000000000000 154.326803031084637
0

0101000
+134 0 -130 0 *
Ed
 0.000000100000000 1 1 0
1  12 0 0.000000000000000 609.326067106418122
2  19 3 15 0.000000000000000 609.326067106418122
0

0101000
+130 0 -132 0 *
Wi

0101100
+155 31 +151 31 +143 31 +139 31 +137 31 +135 31 +133 31 +131 31 +129 31 +128 31 
*
Ve
0.000000100000000
-972.000000000000682 3290.866700000000037 0.000000000000000
0 0

0101101
*
Ed
 0.000000100000000 1 1 0
1  13 0 0.000000000000000 6.283185307179586
2  20 10 19 0.000000000000000 6.283185307179586
2  21 10 20 0.000000000000000 6.283185307179586
2  22 3 15 0.000000000000000 6.283185307179586
0

0101000
+126 0 -126 0 *
Wi

0101100
-125 31 *
Ve
0.000000100000000
-1315.268010047115013 3290.866699999999582 0.000000000000000
0 0

0101101
*
Ed
 0.000000100000000 1 1 0
1  14 0 0.000000000000000 6.283185307179586
2  23 11 19 0.000000000000000 6.283185307179586
2  24 11 20 0.000000000000000 6.283185307179586
2  25 3 15 0.000000000000000 6.283185307179586
0

0101000
+123 0 -123 0 *
Wi

0101100
-122 31 *
Ve
0.000000100000000
-1432.159299032091894 3472.733399999999619 0.000000000000000
0 0

0101101
*
Ed
 0.000000100000000 1 1 0
1  15 0 0.000000000000000 6.283185307179586
2  26 12 19 0.000000000000000 6.283185307179586
2  27 12 20 0.000000000000000 6.283185307179586
2  28 3 15 0.000000000000000 6.283185307179586
0

0101000
+120 0 -120 0 *
Wi

0101100
-119 31 *
Ve
0.000000100000274
-1738.000000000002274 -3406.564032587835754 0.000000000000000
0 0

0101101
*
Ed
 0.000000100000274 1 1 0
1  16 0 0.000000000000000 6.283185307179586
2  29 13 42 0.000000000000000 6.283185307179586
2  30 13 44 0.000000000000000 6.283185307179586
2  31 14 45 0.000000000000000 6.283185307179586
2  32 3 46 0.000000000000000 6.283185307179586
0

0101000
+117 0 -117 0 *
Wi

0101100
+116 41 *
Ve
0.000000100000301
-1798.000000000002274 -3406.564032587835754 0.000000000000000
0 0

0101101
*
Ed
 0.000000100000301 1 1 0
1  17 0 0.000000000000000 6.283185307179586
2  33 15 42 0.000000000000000 6.283185307179586
2  34 15 44 0.000000000000000 6.283185307179586
2  35 16 45 0.000000000000000 6.283185307179586
2  36 3 46 0.000000000000000 6.283185307179586
0

0101000
+114 0 -114 0 *
Wi

0101100
+113 41 *
Ve
0.000000100000000
-1758.000000000000682 3472.733399999999619 0.000000000000000
0 0

0101101
*
Ed
 0.000000100000000 1 1 0
1  18 0 0.000000000000000 6.283185307179586
2  37 17 19 0.000000000000000 6.283185307179586
2  38 17 20 0.000000000000000 6.283185307179586
2  39 3 15 0.000000000000000 6.283185307179586
0

0101000
+111 0 -111 0 *
Wi

0101100
-110 31 *
Fa
0  0.000000100000000 3 30

0111000
+127 0 +124 0 +121 0 +118 0 +115 0 +112 0 +109 0 *
Ve
0.000000100001645
-1137.000000000000682 3134.000000000002274 14.999999999997142
0 0

0101101
*
Ed
 0.000000100000346 1 1 0
1  4 0 0.000000000000000 199.999999999999773
2  3 2 19 0.000000000000000 199.999999999999773
2  4 2 20 0.000000000000000 199.999999999999773
2  5 3 15 0.000000000000000 199.999999999999773
0

0101000
+107 49 -150 25 *
Ed
 0.000000100000000 1 1 0
1  10 0 0.000000000000000 18.656288893928831
2  15 9 19 0.000000000000000 18.656288893928831
2  16 9 20 0.000000000000000 18.656288893928831
2  17 3 15 0.000000000000000 18.656288893928831
0

0101000
+132 0 -107 49 *
Wi

0101100
+155 48 +149 48 +143 48 +106 48 +137 48 +105 48 +133 48 +128 48 +129 48 *
Wi

0101100
-125 48 *
Wi

0101100
-122 48 *
Wi

0101100
-119 48 *
Ve
0.000000100000293
-1738.000000000002274 3406.564032587837119 14.999999999994708
0 0

0101101
*
Ed
 0.000000100000000 1 1 0
1  19 0 0.000000000000000 6.283185307179586
2  40 3 47 0.000000000000000 6.283185307179586
2  41 13 0 0.000000000000000 6.283185307179586
0

0101000
+100 0 -100 0 *
Wi

0101100
+99 0 *
Ve
0.000000100000345
-1798.000000000002274 3406.564032587837573 14.999999999994694
0 0

0101101
*
Ed
 0.000000100000000 1 1 0
1  20 0 0.000000000000000 6.283185307179586
2  42 3 47 0.000000000000000 6.283185307179586
2  43 15 0 0.000000000000000 6.283185307179586
0

0101000
+97 0 -97 0 *
Wi

0101100
+96 0 *
Wi

0101100
-110 48 *
Fa
0  0.000000100000000 3 47

0111000
+104 0 +103 0 +102 0 +101 0 +98 0 +95 0 +94 0 *
Ve
0.000000100000000
-937.000000000000000 2884.000000000001364 0.000000000000000
0 0

0101101
*
Ve
0.000000100003133
-936.999999999999886 2884.000000000002274 -0.000000000003028
0 0

0101101
*
Ed
 0.000000100000000 1 1 0
1  21 0 0.000000000000000 15.000000000000000
2  44 5 0 0.000000000000000 15.000000000000000
2  45 18 0 0.000000000000000 15.000000000000000
0

0101000
+92 28 -91 29 *
Ed
 0.000000100000000 1 1 0
1  22 0 0.000000000000000 250.000000000000000
2  46 7 51 0.000000000000000 250.000000000000000
2  47 5 52 0.000000000000000 250.000000000000000
2  48 5 53 0.000000000000000 250.000000000000000
0

0101000
+150 0 -92 0 *
Ed
 0.000000100003133 1 1 0
1  22 0 0.000000000000000 250.000000000000000
2  46 7 51 0.000000000000000 250.000000000000000
2  47 5 52 0.000000000000000 250.000000000000000
2  48 5 53 0.000000000000000 250.000000000000000
0

0101000
+152 55 -91 55 *
Wi

0101100
+148 26 -90 26 -89 50 +88 54 *
Fa
0  0.000000100000000 5 26

0111000
+87 0 *
Ed
 0.000000100000000 1 1 0
1  23 0 0.000000000000000 15.000000000000000
2  49 8 0 0.000000000000000 15.000000000000000
0

0101000
+138 12 -138 14 *
Wi

0101100
+144 0 -85 0 -137 12 +137 14 *
Fa
0  0.000000100000000 19 0

0111000
+84 0 *
Ve
0.000000100000000
3134.000000000001364 -80.000000000000412 0.000000000000000
0 0

0101101
*
Ed
 0.000000100000000 1 1 0
1  24 0 0.000000000000000 15.000000000000000
2  50 20 0 0.000000000000000 15.000000000000000
0

0101000
+82 56 -82 57 *
Ed
 0.000000100000000 1 1 0
1  25 0 0.000000000000000 80.000000000000000
2  51 20 58 0.000000000000000 80.000000000000000
2  52 20 59 0.000000000000000 80.000000000000000
2  53 21 60 0.000000000000000 80.000000000000000
0

0101000
+82 0 -152 58 *
Ed
 0.000000100000000 1 1 0
1  25 0 0.000000000000000 80.000000000000000
2  51 20 58 0.000000000000000 80.000000000000000
2  52 20 59 0.000000000000000 80.000000000000000
2  53 21 60 0.000000000000000 80.000000000000000
0

0101000
+82 0 -140 0 *
Wi

0101100
+81 0 +139 18 -80 56 +79 57 *
Fa
0  0.000000100000000 20 0

0111000
+78 0 *
Ve
0.000000100001492
2884.000000000001364 -0.000000000000412 0.000000000000000
0 0

0101101
*
Ed
 0.000000100001483 1 1 0
1  26 0 0.000000000000000 250.000000000000000
2  54 22 58 0.000000000000000 250.000000000000000
2  55 22 59 0.000000000000000 250.000000000000000
2  56 21 60 0.000000000000000 250.000000000000000
2  57 7 62 0.000000000000000 250.000000000000000
0

0101000
+140 0 -76 0 *
Ve
0.000000100000000
-1017.000000000000000 2884.000000000001364 0.000000000000000
0 0

0101101
*
Ed
 0.000000100000000 1 1 0
1  27 0 0.000000000000000 65.000000000000455
2  58 7 51 0.000000000000000 65.000000000000455
2  59 18 52 0.000000000000000 65.000000000000455
2  60 18 53 0.000000000000000 65.000000000000455
0

0101000
+74 0 -76 63 *
Ed
 0.000000100000000 1 1 0
1  28 0 0.000000000000000 277.308492477241316
2  61 23 52 0.000000000000000 277.308492477241316
2  62 23 53 0.000000000000000 277.308492477241316
2  63 7 51 0.000000000000000 277.308492477241316
0

0101000
+136 53 -74 0 *
Wi

0101100
-135 18 -75 57 +73 54 +72 54 *
Fa
0  0.000000100000000 7 61

0111000
+71 0 *
Ed
 0.000000100000000 1 1 0
1  29 0 0.000000000000000 15.000000000000000
2  64 8 0 0.000000000000000 15.000000000000000
0

0101000
+134 12 -134 14 *
Wi

0101100
+85 0 -69 0 -133 12 +133 14 *
Fa
0  0.000000100000000 8 0

0111000
+68 0 *
Ed
 0.000000100000000 1 1 0
1  30 0 0.000000000000000 15.000000000000000
2  65 9 0 0.000000000000000 15.000000000000000
0

0101000
+132 12 -132 14 *
Ed
 0.000000100001137 1 1 0
1  31 0 0.000000000000000 15.000000000000000
2  66 9 0 0.000000000000000 15.000000000000000
2  67 2 0 0.000000000000000 15.000000000000000
0

0101000
+136 65 -107 65 *
Wi

0101100
+66 27 -65 27 -131 66 +105 67 *
Fa
0  0.000000100000000 9 27

0111000
+64 0 *
Ed
 0.000000100000000 1 1 0
1  32 0 0.000000000000000 15.000000000000000
0

0101000
+130 12 -130 14 *
Wi

0101100
+69 0 -62 0 -129 12 +129 14 *
Fa
0  0.000000100000000 24 0

0111000
+61 0 *
Wi

0101100
+62 0 -66 0 -128 12 +128 14 *
Fa
0  0.000000100000000 25 0

0111000
+59 0 *
Ed
 0.000000100000000 1 1 0
1  33 0 0.000000000000000 15.000000000000000
3  68 69CN 10 0 0.000000000000000 15.000000000000000
0

0101000
+126 12 -126 14 *
Wi

0101100
+57 0 -57 0 -125 12 +125 14 *
Fa
0  0.000000100000000 10 0

0111000
+56 0 *
Ed
 0.000000100000000 1 1 0
1  34 0 0.000000000000000 15.000000000000000
3  70 71CN 11 0 0.000000000000000 15.000000000000000
0

0101000
+123 12 -123 14 *
Wi

0101100
+54 0 -54 0 -122 12 +122 14 *
Fa
0  0.000000100000000 11 0

0111000
+53 0 *
Ed
 0.000000100000000 1 1 0
1  35 0 0.000000000000000 15.000000000000000
3  72 73CN 12 0 0.000000000000000 15.000000000000000
0

0101000
+120 12 -120 14 *
Wi

0101100
+51 0 -51 0 -119 12 +119 14 *
Fa
0  0.000000100000000 12 0

0111000
+50 0 *
Ed
 0.000000100000000 1 1 0
1  36 0 0.000000000000000 15.000000000000032
3  74 75CN 13 0 0.000000000000000 15.000000000000032
0

0101000
+117 41 -100 0 *
Wi

0101100
-116 41 -48 0 +99 0 +48 0 *
Fa
0  0.000000100000000 13 0

0111000
+47 0 *
Ed
 0.000000100000000 1 1 0
1  37 0 0.000000000000000 15.000000000000059
3  76 77CN 15 0 0.000000000000000 15.000000000000059
0

0101000
+114 41 -97 0 *
Wi

0101100
-113 41 -45 0 +96 0 +45 0 *
Fa
0  0.000000100000000 15 0

0111000
+44 0 *
Ed
 0.000000100000000 1 1 0
1  38 0 0.000000000000000 15.000000000000000
3  78 79CN 17 0 0.000000000000000 15.000000000000000
0

0101000
+111 12 -111 14 *
Wi

0101100
+42 0 -42 0 -110 12 +110 14 *
Fa
0  0.000000100000000 17 0

0111000
+41 0 *
Ed
 0.000000100000000 1 1 0
1  28 0 0.000000000000000 277.308492477241316
2  61 23 52 0.000000000000000 277.308492477241316
2  62 23 53 0.000000000000000 277.308492477241316
2  63 7 51 0.000000000000000 277.308492477241316
0

0101000
+107 52 -74 0 *
Ed
 0.000000100000000 1 1 0
1  27 0 0.000000000000000 80.000000000000000
2  58 7 51 0.000000000000000 80.000000000000000
2  59 18 52 0.000000000000000 80.000000000000000
2  60 18 53 0.000000000000000 80.000000000000000
0

0101000
+74 0 -92 0 *
Wi

0101100
-106 67 +39 28 +38 28 -89 28 *
Fa
0  0.000000100000000 7 68

0111000
+37 0 *
Ed
 0.000000100000000 1 1 0
1  39 0 0.000000000000000 15.000000000000000
2  80 23 0 0.000000000000000 15.000000000000000
2  81 18 0 0.000000000000000 15.000000000000000
0

0101000
+74 28 -74 69 *
Ed
 0.000000100001492 1 1 0
1  27 0 65.000000000000455 80.000000000000000
2  58 7 51 65.000000000000455 80.000000000000000
2  59 18 52 65.000000000000455 80.000000000000000
2  60 18 53 65.000000000000455 80.000000000000000
0

0101000
+76 63 -91 55 *
Wi

0101100
+35 26 -90 26 -38 50 +73 54 +34 54 *
Fa
0  0.000000100000000 18 26

0111000
+33 0 *
Ve
0.000000100000000
2884.000000000001364 -80.000000000000412 0.000000000000000
0 0

0101101
*
Ed
 0.000000100000000 1 1 0
1  40 0 0.000000000000000 80.000000000000000
2  82 26 58 0.000000000000000 80.000000000000000
2  83 26 59 0.000000000000000 80.000000000000000
2  84 21 60 0.000000000000000 80.000000000000000
0

0101000
+91 58 -31 0 *
Ed
 0.000000100000000 1 1 0
1  41 0 0.000000000000000 250.000000000000000
2  85 21 60 0.000000000000000 250.000000000000000
0

0101000
+31 0 -82 0 *
Wi

0101100
+88 54 +30 56 +29 56 +80 56 *
Ve
0.000000100000000
2989.000000000001364 -40.000000000000412 0.000000000000000
0 0

0101101
*
Ed
 0.000000100000000 1 1 0
1  42 0 0.000000000000000 6.283185307179586
2  86 27 58 0.000000000000000 6.283185307179586
2  87 27 59 0.000000000000000 6.283185307179586
2  88 21 60 0.000000000000000 6.283185307179586
0

0101000
+27 0 -27 0 *
Wi

0101100
-26 56 *
Ve
0.000000100000000
2929.000000000001364 -40.000000000000412 0.000000000000000
0 0

0101101
*
Ed
 0.000000100000000 1 1 0
1  43 0 0.000000000000000 6.283185307179586
2  89 28 58 0.000000000000000 6.283185307179586
2  90 28 59 0.000000000000000 6.283185307179586
2  91 21 60 0.000000000000000 6.283185307179586
0

0101000
+24 0 -24 0 *
Wi

0101100
-23 56 *
Fa
0  0.000000100000000 21 70

0111000
+28 0 +25 0 +22 0 *
Ed
 0.000000100000000 1 1 0
1  44 0 0.000000000000000 15.000000000000000
2  92 26 0 0.000000000000000 15.000000000000000
0

0101000
+31 56 -31 57 *
Wi

0101100
+20 0 -81 0 -29 56 +29 57 *
Fa
0  0.000000100000000 29 0

0111000
+19 0 *
Ed
 0.000000100000000 1 1 0
1  40 0 0.000000000000000 80.000000000000000
2  82 26 58 0.000000000000000 80.000000000000000
2  83 26 59 0.000000000000000 80.000000000000000
2  84 21 60 0.000000000000000 80.000000000000000
0

0101000
+76 0 -31 0 *
Wi

0101100
+75 72 +17 72 +29 72 +79 72 *
Wi

0101100
-26 72 *
Wi

0101100
-23 72 *
Fa
0  0.000000100000000 21 0

0111000
+16 0 +15 0 +14 0 *
Wi

0101100
-65 27 -35 0 -39 28 +72 69 *
Fa
0  0.000000100000000 23 0

0111000
+12 0 *
Wi

0101100
-34 54 -20 0 -30 56 +17 57 *
Fa
0  0.000000100000000 26 0

0111000
+10 0 *
Ed
 0.000000100000000 1 1 0
1  45 0 0.000000000000000 15.000000000000000
3  93 94CN 27 0 0.000000000000000 15.000000000000000
0

0101000
+27 56 -27 57 *
Wi

0101100
+8 0 -8 0 -26 56 +26 57 *
Fa
0  0.000000100000000 27 0

0111000
+7 0 *
Ed
 0.000000100000000 1 1 0
1  46 0 0.000000000000000 15.000000000000000
3  95 96CN 28 0 0.000000000000000 15.000000000000000
0

0101000
+24 56 -24 57 *
Wi

0101100
+5 0 -5 0 -23 56 +23 57 *
Fa
0  0.000000100000000 28 0

0111000
+4 0 *
Sh

0101100
-153 8 -146 16 -141 8 -108 0 +93 0 -86 16 -83 8 +77 16 -70 16 -67 8 
-63 64 -60 8 -58 8 +55 8 +52 8 +49 8 -46 0 -43 0 +40 8 +36 64 
+32 16 +21 16 +18 16 -13 71 +11 64 +9 16 -6 16 -3 16 *
So

0100000
+2 0 *

+1 1 