999
dxfrw 0.6.3
  0
SECTION
  2
HEADER
  9
$ACADVER
  1
AC1021
  9
$DWGCODEPAGE
  3
ANSI_1252
  9
$INSBASE
 10
0
 20
0
 30
0
  9
$EXTMIN
 10
11.047
 20
20.9136
 30
0
  9
$EXTMAX
 10
281.461
 20
203.764
 30
0
  9
$LIMMIN
 10
0
 20
0
  9
$LIMMAX
 10
420
 20
297
  9
$ORTHOMODE
 70
    0
  9
$REGENMODE
 70
    1
  9
$FILLMODE
 70
    1
  9
$QTEXTMODE
 70
    0
  9
$MIRRTEXT
 70
    0
  9
$LTSCALE
 40
1
  9
$ATTMODE
 70
    0
  9
$TEXTSIZE
 40
2.5
  9
$TRACEWID
 40
15.68
  9
$TEXTSTYLE
  7
STANDARD
  9
$CLAYER
  8
Dimension372
  9
$CELTYPE
  6
BYLAYER
  9
$CECOLOR
 62
  256
  9
$CELTSCALE
 40
1
  9
$DISPSILH
 70
    0
  9
$DIMSCALE
 40
1
  9
$DIMASZ
 40
2.5
  9
$DIMEXO
 40
0.625
  9
$DIMDLI
 40
3.75
  9
$DIMRND
 40
0
  9
$DIMDLE
 40
0
  9
$DIMEXE
 40
1.25
  9
$DIMTP
 40
0
  9
$DIMTM
 40
0
  9
$DIMTXT
 40
2.5
  9
$DIMCEN
 40
2.5
  9
$DIMTSZ
 40
0
  9
$DIMTOL
 70
    0
  9
$DIMLIM
 70
    0
  9
$DIMTIH
 70
    0
  9
$DIMTOH
 70
    0
  9
$DIMSE1
 70
    0
  9
$DIMSE2
 70
    0
  9
$DIMTAD
 70
    1
  9
$DIMZIN
 70
    8
  9
$DIMBLK
  1

  9
$DIMASO
 70
    1
  9
$DIMSHO
 70
    1
  9
$DIMPOST
  1

  9
$DIMAPOST
  1

  9
$DIMALT
 70
    0
  9
$DIMALTD
 70
    3
  9
$DIMALTF
 40
0.03937
  9
$DIMLFAC
 40
1
  9
$DIMTOFL
 70
    1
  9
$DIMTVP
 40
0
  9
$DIMTIX
 70
    0
  9
$DIMSOXD
 70
    0
  9
$DIMSAH
 70
    0
  9
$DIMBLK1
  1

  9
$DIMBLK2
  1

  9
$DIMSTYLE
  2
STANDARD
  9
$DIMCLRD
 70
    0
  9
$DIMCLRE
 70
    0
  9
$DIMCLRT
 70
    0
  9
$DIMTFAC
 40
1
  9
$DIMGAP
 40
0.625
  9
$DIMJUST
 70
    0
  9
$DIMSD1
 70
    0
  9
$DIMSD2
 70
    0
  9
$DIMTOLJ
 70
    0
  9
$DIMTZIN
 70
    8
  9
$DIMALTZ
 70
    0
  9
$DIMALTTZ
 70
    0
  9
$DIMUPT
 70
    0
  9
$DIMDEC
 70
    2
  9
$DIMTDEC
 70
    2
  9
$DIMALTU
 70
    2
  9
$DIMALTTD
 70
    3
  9
$DIMTXSTY
  7
STANDARD
  9
$DIMAUNIT
 70
    0
  9
$DIMADEC
 70
    0
  9
$DIMALTRND
 40
0
  9
$DIMAZIN
 70
    0
  9
$DIMDSEP
 70
   44
  9
$DIMATFIT
 70
    3
  9
$DIMFRAC
 70
    0
  9
$DIMLDRBLK
  1
STANDARD
  9
$DIMLUNIT
 70
    2
  9
$DIMLWD
 70
   -2
  9
$DIMLWE
 70
   -2
  9
$DIMTMOVE
 70
    0
  9
$DIMFXL
 40
1
  9
$DIMFXLON
 70
    0
  9
$DIMJOGANG
 40
0.7854
  9
$DIMTFILL
 70
    0
  9
$DIMTFILLCLR
 70
    0
  9
$DIMARCSYM
 70
    0
  9
$DIMLTYPE
  6

  9
$DIMLTEX1
  6

  9
$DIMLTEX2
  6

  9
$LUNITS
 70
    2
  9
$LUPREC
 70
    4
  9
$SKETCHINC
 40
1
  9
$FILLETRAD
 40
0
  9
$AUNITS
 70
    0
  9
$AUPREC
 70
    2
  9
$MENU
  1
.
  9
$ELEVATION
 40
0
  9
$PELEVATION
 40
0
  9
$THICKNESS
 40
0
  9
$LIMCHECK
 70
    0
  9
$CHAMFERA
 40
0
  9
$CHAMFERB
 40
0
  9
$CHAMFERC
 40
0
  9
$CHAMFERD
 40
0
  9
$SKPOLY
 70
    0
  9
$USRTIMER
 70
    1
  9
$ANGBASE
 50
0
  9
$ANGDIR
 70
    0
  9
$PDMODE
 70
   34
  9
$PDSIZE
 40
0
  9
$PLINEWID
 40
0
  9
$SPLFRAME
 70
    0
  9
$SPLINETYPE
 70
    2
  9
$SPLINESEGS
 70
    8
  9
$HANDSEED
  5
20000
  9
$SURFTAB1
 70
    6
  9
$SURFTAB2
 70
    6
  9
$SURFTYPE
 70
    6
  9
$SURFU
 70
    6
  9
$SURFV
 70
    6
  9
$UCSBASE
  2

  9
$UCSNAME
  2

  9
$UCSORG
 10
0
 20
0
 30
0
  9
$UCSXDIR
 10
1
 20
0
 30
0
  9
$UCSYDIR
 10
0
 20
1
 30
0
  9
$UCSORTHOREF
  2

  9
$UCSORTHOVIEW
 70
    0
  9
$UCSORGTOP
 10
0
 20
0
 30
0
  9
$UCSORGBOTTOM
 10
0
 20
0
 30
0
  9
$UCSORGLEFT
 10
0
 20
0
 30
0
  9
$UCSORGRIGHT
 10
0
 20
0
 30
0
  9
$UCSORGFRONT
 10
0
 20
0
 30
0
  9
$UCSORGBACK
 10
0
 20
0
 30
0
  9
$PUCSBASE
  2

  9
$PUCSNAME
  2

  9
$PUCSORG
 10
0
 20
0
 30
0
  9
$PUCSXDIR
 10
1
 20
0
 30
0
  9
$PUCSYDIR
 10
0
 20
1
 30
0
  9
$PUCSORTHOREF
  2

  9
$PUCSORTHOVIEW
 70
    0
  9
$PUCSORGTOP
 10
0
 20
0
 30
0
  9
$PUCSORGBOTTOM
 10
0
 20
0
 30
0
  9
$PUCSORGLEFT
 10
0
 20
0
 30
0
  9
$PUCSORGRIGHT
 10
0
 20
0
 30
0
  9
$PUCSORGFRONT
 10
0
 20
0
 30
0
  9
$PUCSORGBACK
 10
0
 20
0
 30
0
  9
$USERI1
 70
    0
  9
$USERI2
 70
    0
  9
$USERI3
 70
    0
  9
$USERI4
 70
    0
  9
$USERI5
 70
    0
  9
$USERR1
 40
0
  9
$USERR2
 40
0
  9
$USERR3
 40
0
  9
$USERR4
 40
0
  9
$USERR5
 40
0
  9
$WORLDVIEW
 70
    1
  9
$SHADEDGE
 70
    3
  9
$SHADEDIF
 70
   70
  9
$TILEMODE
 70
    1
  9
$MAXACTVP
 70
   64
  9
$PINSBASE
 10
0
 20
0
 30
0
  9
$PLIMCHECK
 70
    0
  9
$PEXTMIN
 10
0
 20
0
 30
0
  9
$PEXTMAX
 10
50
 20
50
 30
50
  9
$GRIDMODE
 70
    0
  9
$SNAPSTYLE
 70
    0
  9
$PLIMMIN
 10
0
 20
0
  9
$PLIMMAX
 10
210
 20
297
  9
$UNITMODE
 70
    0
  9
$VISRETAIN
 70
    1
  9
$PLINEGEN
 70
    0
  9
$PSLTSCALE
 70
    1
  9
$TREEDEPTH
 70
 3020
  9
$CMLSTYLE
  2
STANDARD
  9
$CMLJUST
 70
    0
  9
$CMLSCALE
 40
20
  9
$PROXYGRAPHICS
 70
    1
  9
$MEASUREMENT
 70
    1
  9
$CELWEIGHT
370
   -1
  9
$ENDCAPS
280
    0
  9
$JOINSTYLE
280
    0
  9
$LWDISPLAY
290
    0
  9
$INSUNITS
 70
    4
  9
$HYPERLINKBASE
  1

  9
$STYLESHEET
  1

  9
$XEDIT
290
    1
  9
$CEPSNTYPE
380
    0
  9
$PSTYLEMODE
290
    1
  9
$EXTNAMES
290
    1
  9
$PSVPSCALE
 40
1
  9
$OLESTARTUP
290
    0
  9
$SORTENTS
280
  127
  9
$INDEXCTL
280
    0
  9
$HIDETEXT
280
    1
  9
$XCLIPFRAME
290
    0
  9
$HALOGAP
280
    0
  9
$OBSCOLOR
 70
  257
  9
$OBSLTYPE
280
    0
  9
$INTERSECTIONDISPLAY
280
    0
  9
$INTERSECTIONCOLOR
 70
  257
  9
$DIMASSOC
280
    1
  9
$PROJECTNAME
  1

  9
$CAMERADISPLAY
290
    0
  9
$LENSLENGTH
 40
50
  9
$CAMERAHEIGHT
 40
0
  9
$STEPSPERSEC
 40
2
  9
$STEPSIZE
 40
50
  9
$3DDWFPREC
 40
2
  9
$PSOLWIDTH
 40
5
  9
$PSOLHEIGHT
 40
80
  9
$LOFTANG1
 40
1.570796326794897
  9
$LOFTANG2
 40
1.570796326794897
  9
$LOFTMAG1
 40
0
  9
$LOFTMAG2
 40
0
  9
$LOFTPARAM
 70
    7
  9
$LOFTNORMALS
280
    1
  9
$LATITUDE
 40
1
  9
$LONGITUDE
 40
1
  9
$NORTHDIRECTION
 40
0
  9
$TIMEZONE
 70
-8000
  9
$LIGHTGLYPHDISPLAY
280
    1
  9
$TILEMODELIGHTSYNCH
280
    1
  9
$SOLIDHIST
280
    1
  9
$SHOWHIST
280
    1
  9
$DWFFRAME
280
    2
  9
$DGNFRAME
280
    0
  9
$REALWORLDSCALE
290
    1
  9
$INTERFERECOLOR
 62
    1
  9
$CSHADOW
280
    0
  9
$SHADOWPLANELOCATION
 40
0
  0
ENDSEC
  0
SECTION
  2
CLASSES
  0
ENDSEC
  0
SECTION
  2
TABLES
  0
TABLE
  2
VPORT
  5
8
330
0
100
AcDbSymbolTable
 70
    1
  0
VPORT
  5
31
330
2
100
AcDbSymbolTableRecord
100
AcDbViewportTableRecord
  2
*ACTIVE
 70
    0
 10
0
 20
0
 11
1
 21
1
 12
141.8737811418685
 22
103.6275103806228
 13
0
 23
0
 14
10
 24
10
 15
10
 25
10
 16
0
 26
0
 36
1
 17
0
 27
0
 37
0
 40
189.9447820069204
 41
1.448275862068966
 42
50
 43
0
 44
0
 50
0
 51
0
 71
    0
 72
  100
 73
    1
 74
    3
 75
    0
 76
    0
 77
    0
 78
    0
281
    0
 65
    1
110
0
120
0
130
0
111
1
121
0
131
0
112
0
122
1
132
0
 79
    0
146
0
348
10020
 60
    7
 61
    5
292
1
282
    1
141
0
142
0
 63
  250
421
3358443
  0
ENDTAB
  0
TABLE
  2
LTYPE
  5
5
330
0
100
AcDbSymbolTable
 70
    4
  0
LTYPE
  5
14
330
5
100
AcDbSymbolTableRecord
100
AcDbLinetypeTableRecord
  2
ByBlock
 70
    0
  3

 72
   65
 73
    0
 40
0
  0
LTYPE
  5
15
330
5
100
AcDbSymbolTableRecord
100
AcDbLinetypeTableRecord
  2
ByLayer
 70
    0
  3

 72
   65
 73
    0
 40
0
  0
LTYPE
  5
16
330
5
100
AcDbSymbolTableRecord
100
AcDbLinetypeTableRecord
  2
Continuous
 70
    0
  3
Solid line
 72
   65
 73
    0
 40
0
  0
LTYPE
  5
32
330
5
100
AcDbSymbolTableRecord
100
AcDbLinetypeTableRecord
  2
DOT
 70
    0
  3
Dot . . . . . . . . . . . . . . . . . . . . . .
 72
   65
 73
    2
 40
6.35
 49
0
 74
    0
 49
-6.35
 74
    0
  0
LTYPE
  5
33
330
5
100
AcDbSymbolTableRecord
100
AcDbLinetypeTableRecord
  2
DOTTINY
 70
    0
  3
Dot (.15x) .....................................
 72
   65
 73
    2
 40
0.9525
 49
0
 74
    0
 49
-0.9525
 74
    0
  0
LTYPE
  5
34
330
5
100
AcDbSymbolTableRecord
100
AcDbLinetypeTableRecord
  2
DOT2
 70
    0
  3
Dot (.5x) .....................................
 72
   65
 73
    2
 40
3.175
 49
0
 74
    0
 49
-3.175
 74
    0
  0
LTYPE
  5
35
330
5
100
AcDbSymbolTableRecord
100
AcDbLinetypeTableRecord
  2
DOTX2
 70
    0
  3
Dot (2x) .  .  .  .  .  .  .  .  .  .  .  .  .
 72
   65
 73
    2
 40
12.7
 49
0
 74
    0
 49
-12.7
 74
    0
  0
LTYPE
  5
36
330
5
100
AcDbSymbolTableRecord
100
AcDbLinetypeTableRecord
  2
DASHED
 70
    0
  3
Dashed _ _ _ _ _ _ _ _ _ _ _ _ _ _ _ _ _
 72
   65
 73
    2
 40
19.05
 49
12.7
 74
    0
 49
-6.35
 74
    0
  0
LTYPE
  5
37
330
5
100
AcDbSymbolTableRecord
100
AcDbLinetypeTableRecord
  2
DASHEDTINY
 70
    0
  3
Dashed (.15x) _ _ _ _ _ _ _ _ _ _ _ _ _ _ _ _ _
 72
   65
 73
    2
 40
2.8575
 49
1.905
 74
    0
 49
-0.9525
 74
    0
  0
LTYPE
  5
38
330
5
100
AcDbSymbolTableRecord
100
AcDbLinetypeTableRecord
  2
DASHED2
 70
    0
  3
Dashed (.5x) _ _ _ _ _ _ _ _ _ _ _ _ _ _ _ _ _
 72
   65
 73
    2
 40
9.524999999999999
 49
6.35
 74
    0
 49
-3.175
 74
    0
  0
LTYPE
  5
39
330
5
100
AcDbSymbolTableRecord
100
AcDbLinetypeTableRecord
  2
DASHEDX2
 70
    0
  3
Dashed (2x) ____  ____  ____  ____  ____  ___
 72
   65
 73
    2
 40
38.09999999999999
 49
25.4
 74
    0
 49
-12.7
 74
    0
  0
LTYPE
  5
3A
330
5
100
AcDbSymbolTableRecord
100
AcDbLinetypeTableRecord
  2
DASHDOT
 70
    0
  3
Dash dot __ . __ . __ . __ . __ . __ . __ . __
 72
   65
 73
    4
 40
25.4
 49
12.7
 74
    0
 49
-6.35
 74
    0
 49
0
 74
    0
 49
-6.35
 74
    0
  0
LTYPE
  5
3B
330
5
100
AcDbSymbolTableRecord
100
AcDbLinetypeTableRecord
  2
DASHDOTTINY
 70
    0
  3
Dash dot (.15x) _._._._._._._._._._._._._._._.
 72
   65
 73
    4
 40
3.81
 49
1.905
 74
    0
 49
-0.9525
 74
    0
 49
0
 74
    0
 49
-0.9525
 74
    0
  0
LTYPE
  5
3C
330
5
100
AcDbSymbolTableRecord
100
AcDbLinetypeTableRecord
  2
DASHDOT2
 70
    0
  3
Dash dot (.5x) _._._._._._._._._._._._._._._.
 72
   65
 73
    4
 40
12.7
 49
6.35
 74
    0
 49
-3.175
 74
    0
 49
0
 74
    0
 49
-3.175
 74
    0
  0
LTYPE
  5
3D
330
5
100
AcDbSymbolTableRecord
100
AcDbLinetypeTableRecord
  2
DASHDOTX2
 70
    0
  3
Dash dot (2x) ____  .  ____  .  ____  .  ___
 72
   65
 73
    4
 40
50.8
 49
25.4
 74
    0
 49
-12.7
 74
    0
 49
0
 74
    0
 49
-12.7
 74
    0
  0
LTYPE
  5
3E
330
5
100
AcDbSymbolTableRecord
100
AcDbLinetypeTableRecord
  2
DIVIDE
 70
    0
  3
Divide ____ . . ____ . . ____ . . ____ . . ____
 72
   65
 73
    6
 40
31.75
 49
12.7
 74
    0
 49
-6.35
 74
    0
 49
0
 74
    0
 49
-6.35
 74
    0
 49
0
 74
    0
 49
-6.35
 74
    0
  0
LTYPE
  5
3F
330
5
100
AcDbSymbolTableRecord
100
AcDbLinetypeTableRecord
  2
DIVIDETINY
 70
    0
  3
Divide (.15x) __..__..__..__..__..__..__..__.._
 72
   65
 73
    6
 40
4.7625
 49
1.905
 74
    0
 49
-0.9525
 74
    0
 49
0
 74
    0
 49
-0.9525
 74
    0
 49
0
 74
    0
 49
-0.9525
 74
    0
  0
LTYPE
  5
40
330
5
100
AcDbSymbolTableRecord
100
AcDbLinetypeTableRecord
  2
DIVIDE2
 70
    0
  3
Divide (.5x) __..__..__..__..__..__..__..__.._
 72
   65
 73
    6
 40
15.875
 49
6.35
 74
    0
 49
-3.175
 74
    0
 49
0
 74
    0
 49
-3.175
 74
    0
 49
0
 74
    0
 49
-3.175
 74
    0
  0
LTYPE
  5
41
330
5
100
AcDbSymbolTableRecord
100
AcDbLinetypeTableRecord
  2
DIVIDEX2
 70
    0
  3
Divide (2x) ________  .  .  ________  .  .  _
 72
   65
 73
    6
 40
63.5
 49
25.4
 74
    0
 49
-12.7
 74
    0
 49
0
 74
    0
 49
-12.7
 74
    0
 49
0
 74
    0
 49
-12.7
 74
    0
  0
LTYPE
  5
42
330
5
100
AcDbSymbolTableRecord
100
AcDbLinetypeTableRecord
  2
BORDER
 70
    0
  3
Border __ __ . __ __ . __ __ . __ __ . __ __ .
 72
   65
 73
    6
 40
44.45
 49
12.7
 74
    0
 49
-6.35
 74
    0
 49
12.7
 74
    0
 49
-6.35
 74
    0
 49
0
 74
    0
 49
-6.35
 74
    0
  0
LTYPE
  5
43
330
5
100
AcDbSymbolTableRecord
100
AcDbLinetypeTableRecord
  2
BORDERTINY
 70
    0
  3
Border (.15x) __.__.__.__.__.__.__.__.__.__.__.
 72
   65
 73
    6
 40
6.6675
 49
1.905
 74
    0
 49
-0.9525
 74
    0
 49
1.905
 74
    0
 49
-0.9525
 74
    0
 49
0
 74
    0
 49
-0.9525
 74
    0
  0
LTYPE
  5
44
330
5
100
AcDbSymbolTableRecord
100
AcDbLinetypeTableRecord
  2
BORDER2
 70
    0
  3
Border (.5x) __.__.__.__.__.__.__.__.__.__.__.
 72
   65
 73
    6
 40
22.225
 49
6.35
 74
    0
 49
-3.175
 74
    0
 49
6.35
 74
    0
 49
-3.175
 74
    0
 49
0
 74
    0
 49
-3.175
 74
    0
  0
LTYPE
  5
45
330
5
100
AcDbSymbolTableRecord
100
AcDbLinetypeTableRecord
  2
BORDERX2
 70
    0
  3
Border (2x) ____  ____  .  ____  ____  .  ___
 72
   65
 73
    6
 40
88.89999999999999
 49
25.4
 74
    0
 49
-12.7
 74
    0
 49
25.4
 74
    0
 49
-12.7
 74
    0
 49
0
 74
    0
 49
-12.7
 74
    0
  0
LTYPE
  5
46
330
5
100
AcDbSymbolTableRecord
100
AcDbLinetypeTableRecord
  2
CENTER
 70
    0
  3
Center ____ _ ____ _ ____ _ ____ _ ____ _ ____
 72
   65
 73
    4
 40
50.8
 49
31.75
 74
    0
 49
-6.35
 74
    0
 49
6.35
 74
    0
 49
-6.35
 74
    0
  0
LTYPE
  5
47
330
5
100
AcDbSymbolTableRecord
100
AcDbLinetypeTableRecord
  2
CENTERTINY
 70
    0
  3
Center (.15x) ___ _ ___ _ ___ _ ___ _ ___ _ ___
 72
   65
 73
    4
 40
7.619999999999999
 49
4.7625
 74
    0
 49
-0.9525
 74
    0
 49
0.9525
 74
    0
 49
-0.9525
 74
    0
  0
LTYPE
  5
48
330
5
100
AcDbSymbolTableRecord
100
AcDbLinetypeTableRecord
  2
CENTER2
 70
    0
  3
Center (.5x) ___ _ ___ _ ___ _ ___ _ ___ _ ___
 72
   65
 73
    4
 40
28.575
 49
19.05
 74
    0
 49
-3.175
 74
    0
 49
3.175
 74
    0
 49
-3.175
 74
    0
  0
LTYPE
  5
49
330
5
100
AcDbSymbolTableRecord
100
AcDbLinetypeTableRecord
  2
CENTERX2
 70
    0
  3
Center (2x) ________  __  ________  __  _____
 72
   65
 73
    4
 40
101.6
 49
63.5
 74
    0
 49
-12.7
 74
    0
 49
12.7
 74
    0
 49
-12.7
 74
    0
  0
ENDTAB
  0
TABLE
  2
LAYER
  5
2
330
0
100
AcDbSymbolTable
 70
    1
  0
LAYER
  5
10
330
2
100
AcDbSymbolTableRecord
100
AcDbLayerTableRecord
  2
0
 70
    0
 62
    7
  6
CONTINUOUS
370
   -3
390
F
  0
LAYER
  5
4A
330
2
100
AcDbSymbolTableRecord
100
AcDbLayerTableRecord
  2
Detail
 70
    0
 62
    7
  6
CONTINUOUS
370
   -3
390
F
  0
LAYER
  5
4B
330
2
100
AcDbSymbolTableRecord
100
AcDbLayerTableRecord
  2
Dimension103
 70
    0
 62
    7
  6
CONTINUOUS
370
   -3
390
F
  0
LAYER
  5
4C
330
2
100
AcDbSymbolTableRecord
100
AcDbLayerTableRecord
  2
Dimension104
 70
    0
 62
    7
  6
CONTINUOUS
370
   -3
390
F
  0
LAYER
  5
4D
330
2
100
AcDbSymbolTableRecord
100
AcDbLayerTableRecord
  2
Dimension105
 70
    0
 62
    7
  6
CONTINUOUS
370
   -3
390
F
  0
LAYER
  5
4E
330
2
100
AcDbSymbolTableRecord
100
AcDbLayerTableRecord
  2
Dimension106
 70
    0
 62
    7
  6
CONTINUOUS
370
   -3
390
F
  0
LAYER
  5
4F
330
2
100
AcDbSymbolTableRecord
100
AcDbLayerTableRecord
  2
Dimension107
 70
    0
 62
    7
  6
CONTINUOUS
370
   -3
390
F
  0
LAYER
  5
50
330
2
100
AcDbSymbolTableRecord
100
AcDbLayerTableRecord
  2
Dimension108
 70
    0
 62
    7
  6
CONTINUOUS
370
   -3
390
F
  0
LAYER
  5
51
330
2
100
AcDbSymbolTableRecord
100
AcDbLayerTableRecord
  2
Dimension109
 70
    0
 62
    7
  6
CONTINUOUS
370
   -3
390
F
  0
LAYER
  5
52
330
2
100
AcDbSymbolTableRecord
100
AcDbLayerTableRecord
  2
Dimension110
 70
    0
 62
    7
  6
CONTINUOUS
370
   -3
390
F
  0
LAYER
  5
53
330
2
100
AcDbSymbolTableRecord
100
AcDbLayerTableRecord
  2
Dimension111
 70
    0
 62
    7
  6
CONTINUOUS
370
   -3
390
F
  0
LAYER
  5
54
330
2
100
AcDbSymbolTableRecord
100
AcDbLayerTableRecord
  2
Dimension112
 70
    0
 62
    7
  6
CONTINUOUS
370
   -3
390
F
  0
LAYER
  5
55
330
2
100
AcDbSymbolTableRecord
100
AcDbLayerTableRecord
  2
Dimension113
 70
    0
 62
    7
  6
CONTINUOUS
370
   -3
390
F
  0
LAYER
  5
56
330
2
100
AcDbSymbolTableRecord
100
AcDbLayerTableRecord
  2
Dimension114
 70
    0
 62
    7
  6
CONTINUOUS
370
   -3
390
F
  0
LAYER
  5
57
330
2
100
AcDbSymbolTableRecord
100
AcDbLayerTableRecord
  2
Dimension115
 70
    0
 62
    7
  6
CONTINUOUS
370
   -3
390
F
  0
LAYER
  5
58
330
2
100
AcDbSymbolTableRecord
100
AcDbLayerTableRecord
  2
Dimension116
 70
    0
 62
    7
  6
CONTINUOUS
370
   -3
390
F
  0
LAYER
  5
59
330
2
100
AcDbSymbolTableRecord
100
AcDbLayerTableRecord
  2
Dimension117
 70
    0
 62
    7
  6
CONTINUOUS
370
   -3
390
F
  0
LAYER
  5
5A
330
2
100
AcDbSymbolTableRecord
100
AcDbLayerTableRecord
  2
Dimension118
 70
    0
 62
    7
  6
CONTINUOUS
370
   -3
390
F
  0
LAYER
  5
5B
330
2
100
AcDbSymbolTableRecord
100
AcDbLayerTableRecord
  2
Dimension119
 70
    0
 62
    7
  6
CONTINUOUS
370
   -3
390
F
  0
LAYER
  5
5C
330
2
100
AcDbSymbolTableRecord
100
AcDbLayerTableRecord
  2
Dimension120
 70
    0
 62
    7
  6
CONTINUOUS
370
   -3
390
F
  0
LAYER
  5
5D
330
2
100
AcDbSymbolTableRecord
100
AcDbLayerTableRecord
  2
Dimension122
 70
    0
 62
    7
  6
CONTINUOUS
370
   -3
390
F
  0
LAYER
  5
5E
330
2
100
AcDbSymbolTableRecord
100
AcDbLayerTableRecord
  2
Dimension123
 70
    0
 62
    7
  6
CONTINUOUS
370
   -3
390
F
  0
LAYER
  5
5F
330
2
100
AcDbSymbolTableRecord
100
AcDbLayerTableRecord
  2
Dimension124
 70
    0
 62
    7
  6
CONTINUOUS
370
   -3
390
F
  0
LAYER
  5
60
330
2
100
AcDbSymbolTableRecord
100
AcDbLayerTableRecord
  2
Dimension125
 70
    0
 62
    7
  6
CONTINUOUS
370
   -3
390
F
  0
LAYER
  5
61
330
2
100
AcDbSymbolTableRecord
100
AcDbLayerTableRecord
  2
Dimension126
 70
    0
 62
    7
  6
CONTINUOUS
370
   -3
390
F
  0
LAYER
  5
62
330
2
100
AcDbSymbolTableRecord
100
AcDbLayerTableRecord
  2
Dimension127
 70
    0
 62
    7
  6
CONTINUOUS
370
   -3
390
F
  0
LAYER
  5
63
330
2
100
AcDbSymbolTableRecord
100
AcDbLayerTableRecord
  2
Dimension128
 70
    0
 62
    7
  6
CONTINUOUS
370
   -3
390
F
  0
LAYER
  5
64
330
2
100
AcDbSymbolTableRecord
100
AcDbLayerTableRecord
  2
Dimension129
 70
    0
 62
    7
  6
CONTINUOUS
370
   -3
390
F
  0
LAYER
  5
65
330
2
100
AcDbSymbolTableRecord
100
AcDbLayerTableRecord
  2
Dimension130
 70
    0
 62
    7
  6
CONTINUOUS
370
   -3
390
F
  0
LAYER
  5
66
330
2
100
AcDbSymbolTableRecord
100
AcDbLayerTableRecord
  2
Dimension131
 70
    0
 62
    7
  6
CONTINUOUS
370
   -3
390
F
  0
LAYER
  5
67
330
2
100
AcDbSymbolTableRecord
100
AcDbLayerTableRecord
  2
Dimension132
 70
    0
 62
    7
  6
CONTINUOUS
370
   -3
390
F
  0
LAYER
  5
68
330
2
100
AcDbSymbolTableRecord
100
AcDbLayerTableRecord
  2
Dimension133
 70
    0
 62
    7
  6
CONTINUOUS
370
   -3
390
F
  0
LAYER
  5
69
330
2
100
AcDbSymbolTableRecord
100
AcDbLayerTableRecord
  2
Dimension134
 70
    0
 62
    7
  6
CONTINUOUS
370
   -3
390
F
  0
LAYER
  5
6A
330
2
100
AcDbSymbolTableRecord
100
AcDbLayerTableRecord
  2
Dimension136
 70
    0
 62
    7
  6
CONTINUOUS
370
   -3
390
F
  0
LAYER
  5
6B
330
2
100
AcDbSymbolTableRecord
100
AcDbLayerTableRecord
  2
Dimension137
 70
    0
 62
    7
  6
CONTINUOUS
370
   -3
390
F
  0
LAYER
  5
6C
330
2
100
AcDbSymbolTableRecord
100
AcDbLayerTableRecord
  2
Dimension138
 70
    0
 62
    7
  6
CONTINUOUS
370
   -3
390
F
  0
LAYER
  5
6D
330
2
100
AcDbSymbolTableRecord
100
AcDbLayerTableRecord
  2
Dimension139
 70
    0
 62
    7
  6
CONTINUOUS
370
   -3
390
F
  0
LAYER
  5
6E
330
2
100
AcDbSymbolTableRecord
100
AcDbLayerTableRecord
  2
Dimension140
 70
    0
 62
    7
  6
CONTINUOUS
370
   -3
390
F
  0
LAYER
  5
6F
330
2
100
AcDbSymbolTableRecord
100
AcDbLayerTableRecord
  2
Dimension141
 70
    0
 62
    7
  6
CONTINUOUS
370
   -3
390
F
  0
LAYER
  5
70
330
2
100
AcDbSymbolTableRecord
100
AcDbLayerTableRecord
  2
Dimension142
 70
    0
 62
    7
  6
CONTINUOUS
370
   -3
390
F
  0
LAYER
  5
71
330
2
100
AcDbSymbolTableRecord
100
AcDbLayerTableRecord
  2
Dimension143
 70
    0
 62
    7
  6
CONTINUOUS
370
   -3
390
F
  0
LAYER
  5
72
330
2
100
AcDbSymbolTableRecord
100
AcDbLayerTableRecord
  2
Dimension144
 70
    0
 62
    7
  6
CONTINUOUS
370
   -3
390
F
  0
LAYER
  5
73
330
2
100
AcDbSymbolTableRecord
100
AcDbLayerTableRecord
  2
Dimension145
 70
    0
 62
    7
  6
CONTINUOUS
370
   -3
390
F
  0
LAYER
  5
74
330
2
100
AcDbSymbolTableRecord
100
AcDbLayerTableRecord
  2
Dimension146
 70
    0
 62
    7
  6
CONTINUOUS
370
   -3
390
F
  0
LAYER
  5
75
330
2
100
AcDbSymbolTableRecord
100
AcDbLayerTableRecord
  2
Dimension372
 70
    0
 62
    7
  6
CONTINUOUS
370
   -3
390
F
  0
LAYER
  5
76
330
2
100
AcDbSymbolTableRecord
100
AcDbLayerTableRecord
  2
ProjItem079
 70
    0
 62
    7
  6
CONTINUOUS
370
   -3
390
F
  0
LAYER
  5
77
330
2
100
AcDbSymbolTableRecord
100
AcDbLayerTableRecord
  2
ProjItem080
 70
    0
 62
    7
  6
CONTINUOUS
370
   -3
390
F
  0
LAYER
  5
78
330
2
100
AcDbSymbolTableRecord
100
AcDbLayerTableRecord
  2
ProjItem081
 70
    0
 62
    7
  6
CONTINUOUS
370
   -3
390
F
  0
LAYER
  5
79
330
2
100
AcDbSymbolTableRecord
100
AcDbLayerTableRecord
  2
ProjItem082
 70
    0
 62
    7
  6
CONTINUOUS
370
   -3
390
F
  0
ENDTAB
  0
TABLE
  2
STYLE
  5
3
330
0
100
AcDbSymbolTable
 70
    3
  0
STYLE
  5
7A
330
2
100
AcDbSymbolTableRecord
100
AcDbTextStyleTableRecord
  2
Standard
 70
    0
 40
0
 41
1
 50
0
 71
    0
 42
1
  3
txt
  4

  0
ENDTAB
  0
TABLE
  2
VIEW
  5
6
330
0
100
AcDbSymbolTable
 70
    0
  0
ENDTAB
  0
TABLE
  2
UCS
  5
7
330
0
100
AcDbSymbolTable
 70
    0
  0
ENDTAB
  0
TABLE
  2
APPID
  5
9
330
0
100
AcDbSymbolTable
 70
    1
  0
APPID
  5
12
330
9
100
AcDbSymbolTableRecord
100
AcDbRegAppTableRecord
  2
ACAD
 70
    0
  0
APPID
  5
7B
330
9
100
AcDbSymbolTableRecord
100
AcDbRegAppTableRecord
  2
LibreCad
 70
    0
  0
ENDTAB
  0
TABLE
  2
DIMSTYLE
  5
A
330
0
100
AcDbSymbolTable
 70
    1
100
AcDbDimStyleTable
 71
    1
  0
DIMSTYLE
105
7C
330
A
100
AcDbSymbolTableRecord
100
AcDbDimStyleTableRecord
  2
Standard
 70
    0
 40
1
 41
2.5
 42
0.625
 43
0.38
 44
1.25
 45
0
 46
0
 47
0
 48
0
 49
1
140
2.5
141
0.09
142
0
143
25.4
144
1
145
0
146
1
147
0.625
148
0
 71
    0
 72
    0
 73
    0
 74
    1
 75
    0
 76
    0
 77
    0
 78
    1
 79
    0
170
    0
171
    2
172
    0
173
    0
174
    0
175
    0
176
    0
177
    0
178
    0
179
    0
271
    2
272
    4
273
    2
274
    2
275
    0
276
    0
277
    2
278
    0
279
    0
280
    0
281
    0
282
    0
283
    1
284
    0
285
    0
286
    0
288
    0
289
    3
340
STANDARD
341

371
   -2
372
   -2
  0
ENDTAB
  0
TABLE
  2
BLOCK_RECORD
  5
1
330
0
100
AcDbSymbolTable
 70
    2
  0
BLOCK_RECORD
  5
1F
330
1
100
AcDbSymbolTableRecord
100
AcDbBlockTableRecord
  2
*Model_Space
 70
    0
280
    1
281
    0
  0
BLOCK_RECORD
  5
1E
330
1
100
AcDbSymbolTableRecord
100
AcDbBlockTableRecord
  2
*Paper_Space
 70
    0
280
    1
281
    0
  0
BLOCK_RECORD
  5
7D
330
1
100
AcDbSymbolTableRecord
100
AcDbBlockTableRecord
  2
*D40
 70
    0
280
    1
281
    0
  0
BLOCK_RECORD
  5
80
330
1
100
AcDbSymbolTableRecord
100
AcDbBlockTableRecord
  2
*D29
 70
    0
280
    1
281
    0
  0
BLOCK_RECORD
  5
83
330
1
100
AcDbSymbolTableRecord
100
AcDbBlockTableRecord
  2
*D30
 70
    0
280
    1
281
    0
  0
BLOCK_RECORD
  5
86
330
1
100
AcDbSymbolTableRecord
100
AcDbBlockTableRecord
  2
*D12
 70
    0
280
    1
281
    0
  0
BLOCK_RECORD
  5
89
330
1
100
AcDbSymbolTableRecord
100
AcDbBlockTableRecord
  2
*D27
 70
    0
280
    1
281
    0
  0
BLOCK_RECORD
  5
8C
330
1
100
AcDbSymbolTableRecord
100
AcDbBlockTableRecord
  2
*D9
 70
    0
280
    1
281
    0
  0
BLOCK_RECORD
  5
8F
330
1
100
AcDbSymbolTableRecord
100
AcDbBlockTableRecord
  2
*D21
 70
    0
280
    1
281
    0
  0
BLOCK_RECORD
  5
92
330
1
100
AcDbSymbolTableRecord
100
AcDbBlockTableRecord
  2
*D15
 70
    0
280
    1
281
    0
  0
BLOCK_RECORD
  5
95
330
1
100
AcDbSymbolTableRecord
100
AcDbBlockTableRecord
  2
*D2
 70
    0
280
    1
281
    0
  0
BLOCK_RECORD
  5
98
330
1
100
AcDbSymbolTableRecord
100
AcDbBlockTableRecord
  2
*D19
 70
    0
280
    1
281
    0
  0
BLOCK_RECORD
  5
9B
330
1
100
AcDbSymbolTableRecord
100
AcDbBlockTableRecord
  2
*D26
 70
    0
280
    1
281
    0
  0
BLOCK_RECORD
  5
9E
330
1
100
AcDbSymbolTableRecord
100
AcDbBlockTableRecord
  2
*D38
 70
    0
280
    1
281
    0
  0
BLOCK_RECORD
  5
A1
330
1
100
AcDbSymbolTableRecord
100
AcDbBlockTableRecord
  2
*D6
 70
    0
280
    1
281
    0
  0
BLOCK_RECORD
  5
A4
330
1
100
AcDbSymbolTableRecord
100
AcDbBlockTableRecord
  2
*D5
 70
    0
280
    1
281
    0
  0
BLOCK_RECORD
  5
A7
330
1
100
AcDbSymbolTableRecord
100
AcDbBlockTableRecord
  2
*D17
 70
    0
280
    1
281
    0
  0
BLOCK_RECORD
  5
AA
330
1
100
AcDbSymbolTableRecord
100
AcDbBlockTableRecord
  2
*D22
 70
    0
280
    1
281
    0
  0
BLOCK_RECORD
  5
AD
330
1
100
AcDbSymbolTableRecord
100
AcDbBlockTableRecord
  2
*D37
 70
    0
280
    1
281
    0
  0
BLOCK_RECORD
  5
B0
330
1
100
AcDbSymbolTableRecord
100
AcDbBlockTableRecord
  2
*D8
 70
    0
280
    1
281
    0
  0
BLOCK_RECORD
  5
B3
330
1
100
AcDbSymbolTableRecord
100
AcDbBlockTableRecord
  2
*D41
 70
    0
280
    1
281
    0
  0
BLOCK_RECORD
  5
B6
330
1
100
AcDbSymbolTableRecord
100
AcDbBlockTableRecord
  2
*D24
 70
    0
280
    1
281
    0
  0
BLOCK_RECORD
  5
B9
330
1
100
AcDbSymbolTableRecord
100
AcDbBlockTableRecord
  2
*D34
 70
    0
280
    1
281
    0
  0
BLOCK_RECORD
  5
BC
330
1
100
AcDbSymbolTableRecord
100
AcDbBlockTableRecord
  2
*D16
 70
    0
280
    1
281
    0
  0
BLOCK_RECORD
  5
BF
330
1
100
AcDbSymbolTableRecord
100
AcDbBlockTableRecord
  2
*D25
 70
    0
280
    1
281
    0
  0
BLOCK_RECORD
  5
C2
330
1
100
AcDbSymbolTableRecord
100
AcDbBlockTableRecord
  2
*D18
 70
    0
280
    1
281
    0
  0
BLOCK_RECORD
  5
C5
330
1
100
AcDbSymbolTableRecord
100
AcDbBlockTableRecord
  2
*D42
 70
    0
280
    1
281
    0
  0
BLOCK_RECORD
  5
C8
330
1
100
AcDbSymbolTableRecord
100
AcDbBlockTableRecord
  2
*D20
 70
    0
280
    1
281
    0
  0
BLOCK_RECORD
  5
CB
330
1
100
AcDbSymbolTableRecord
100
AcDbBlockTableRecord
  2
*D43
 70
    0
280
    1
281
    0
  0
BLOCK_RECORD
  5
CE
330
1
100
AcDbSymbolTableRecord
100
AcDbBlockTableRecord
  2
*D7
 70
    0
280
    1
281
    0
  0
BLOCK_RECORD
  5
D1
330
1
100
AcDbSymbolTableRecord
100
AcDbBlockTableRecord
  2
*D4
 70
    0
280
    1
281
    0
  0
BLOCK_RECORD
  5
D4
330
1
100
AcDbSymbolTableRecord
100
AcDbBlockTableRecord
  2
*D13
 70
    0
280
    1
281
    0
  0
BLOCK_RECORD
  5
D7
330
1
100
AcDbSymbolTableRecord
100
AcDbBlockTableRecord
  2
*D35
 70
    0
280
    1
281
    0
  0
BLOCK_RECORD
  5
DA
330
1
100
AcDbSymbolTableRecord
100
AcDbBlockTableRecord
  2
*D14
 70
    0
280
    1
281
    0
  0
BLOCK_RECORD
  5
DD
330
1
100
AcDbSymbolTableRecord
100
AcDbBlockTableRecord
  2
*D31
 70
    0
280
    1
281
    0
  0
BLOCK_RECORD
  5
E0
330
1
100
AcDbSymbolTableRecord
100
AcDbBlockTableRecord
  2
*D28
 70
    0
280
    1
281
    0
  0
BLOCK_RECORD
  5
E3
330
1
100
AcDbSymbolTableRecord
100
AcDbBlockTableRecord
  2
*D3
 70
    0
280
    1
281
    0
  0
BLOCK_RECORD
  5
E6
330
1
100
AcDbSymbolTableRecord
100
AcDbBlockTableRecord
  2
*D1
 70
    0
280
    1
281
    0
  0
BLOCK_RECORD
  5
E9
330
1
100
AcDbSymbolTableRecord
100
AcDbBlockTableRecord
  2
*D23
 70
    0
280
    1
281
    0
  0
BLOCK_RECORD
  5
EC
330
1
100
AcDbSymbolTableRecord
100
AcDbBlockTableRecord
  2
*D32
 70
    0
280
    1
281
    0
  0
BLOCK_RECORD
  5
EF
330
1
100
AcDbSymbolTableRecord
100
AcDbBlockTableRecord
  2
*D39
 70
    0
280
    1
281
    0
  0
BLOCK_RECORD
  5
F2
330
1
100
AcDbSymbolTableRecord
100
AcDbBlockTableRecord
  2
*D11
 70
    0
280
    1
281
    0
  0
BLOCK_RECORD
  5
F5
330
1
100
AcDbSymbolTableRecord
100
AcDbBlockTableRecord
  2
*D36
 70
    0
280
    1
281
    0
  0
BLOCK_RECORD
  5
F8
330
1
100
AcDbSymbolTableRecord
100
AcDbBlockTableRecord
  2
*D10
 70
    0
280
    1
281
    0
  0
BLOCK_RECORD
  5
FB
330
1
100
AcDbSymbolTableRecord
100
AcDbBlockTableRecord
  2
*D33
 70
    0
280
    1
281
    0
  0
ENDTAB
  0
ENDSEC
  0
SECTION
  2
BLOCKS
  0
BLOCK
  5
20
330
1F
100
AcDbEntity
  8
0
100
AcDbBlockBegin
  2
*Model_Space
 70
    0
 10
0
 20
0
 30
0
  3
*Model_Space
  1

  0
ENDBLK
  5
21
330
1F
100
AcDbEntity
  8
0
100
AcDbBlockEnd
  0
BLOCK
  5
1C
330
1B
100
AcDbEntity
  8
0
100
AcDbBlockBegin
  2
*Paper_Space
 70
    0
 10
0
 20
0
 30
0
  3
*Paper_Space
  1

  0
ENDBLK
  5
1D
330
1F
100
AcDbEntity
  8
0
100
AcDbBlockEnd
  0
BLOCK
  5
7E
330
7D
100
AcDbEntity
  8
0
100
AcDbBlockBegin
  2
*D40
 70
    1
 10
0
 20
0
  3
*D40
  1

  0
LINE
  5
FE
100
AcDbEntity
  8
Dimension144
  6
ByBlock
 62
    0
370
   -2
100
AcDbLine
 10
127.873
 20
91.24930000000001
 11
139.873
 21
91.24930000000001
  0
SOLID
  5
FF
100
AcDbEntity
  8
Dimension144
  6
ByBlock
 62
    0
370
   -2
100
AcDbTrace
 10
132.873
 20
91.24930000000001
 30
0
 11
130.373
 21
90.83301534222717
 31
0
 12
130.373
 22
91.66558465777284
 32
0
 13
130.373
 23
91.66558465777284
 33
0
  0
SOLID
  5
100
100
AcDbEntity
  8
Dimension144
  6
ByBlock
 62
    0
370
   -2
100
AcDbTrace
 10
134.873
 20
91.24930000000001
 30
0
 11
137.373
 21
91.66558465777284
 31
0
 12
137.373
 22
90.83301534222717
 32
0
 13
137.373
 23
90.83301534222717
 33
0
  0
MTEXT
  5
101
100
AcDbEntity
  8
Dimension144
  6
CONTINUOUS
 62
    0
370
   -2
100
AcDbMText
 10
136.8687777777778
 20
93.1063
 30
0
 40
2.5
 41
3.055555555555556
 71
    5
 72
    1
  1
20
  7
STANDARD
210
0
220
0
230
1
 50
0
 73
    2
 44
1
  0
LINE
  5
102
100
AcDbEntity
  8
Dimension144
  6
ByBlock
 62
    0
370
   -2
100
AcDbLine
 10
132.873
 20
81.3241
 11
132.873
 21
92.49930000000001
  0
LINE
  5
103
100
AcDbEntity
  8
Dimension144
  6
ByBlock
 62
    0
370
   -2
100
AcDbLine
 10
134.873
 20
76.3241
 11
134.873
 21
92.49930000000001
  0
ENDBLK
  5
7F
330
7D
100
AcDbEntity
  8
0
100
AcDbBlockEnd
  0
BLOCK
  5
81
330
80
100
AcDbEntity
  8
0
100
AcDbBlockBegin
  2
*D29
 70
    1
 10
0
 20
0
  3
*D29
  1

  0
LINE
  5
104
100
AcDbEntity
  8
Dimension132
  6
ByBlock
 62
    0
370
   -2
100
AcDbLine
 10
91.7123
 20
117.569
 11
91.7123
 21
97.5688
  0
SOLID
  5
105
100
AcDbEntity
  8
Dimension132
  6
ByBlock
 62
    0
370
   -2
100
AcDbTrace
 10
91.7123
 20
117.569
 30
0
 11
92.12858465777283
 21
115.069
 31
0
 12
91.29601534222716
 22
115.069
 32
0
 13
91.29601534222716
 23
115.069
 33
0
  0
SOLID
  5
106
100
AcDbEntity
  8
Dimension132
  6
ByBlock
 62
    0
370
   -2
100
AcDbTrace
 10
91.7123
 20
97.5688
 30
0
 11
91.29601534222716
 21
100.0688
 31
0
 12
92.12858465777283
 22
100.0688
 32
0
 13
92.12858465777283
 23
100.0688
 33
0
  0
MTEXT
  5
107
100
AcDbEntity
  8
Dimension132
  6
CONTINUOUS
 62
    0
370
   -2
100
AcDbMText
 10
89.6816
 20
85.4468
 30
0
 40
2.5
 41
4.444444444444445
 71
    5
 72
    1
  1
100
  7
STANDARD
210
0
220
0
230
1
 50
90
 73
    2
 44
1
  0
LINE
  5
108
100
AcDbEntity
  8
Dimension132
  6
ByBlock
 62
    0
370
   -2
100
AcDbLine
 10
76.3066
 20
117.569
 11
92.9623
 21
117.569
  0
LINE
  5
109
100
AcDbEntity
  8
Dimension132
  6
ByBlock
 62
    0
370
   -2
100
AcDbLine
 10
31.3066
 20
97.5688
 11
92.9623
 21
97.5688
  0
ENDBLK
  5
82
330
80
100
AcDbEntity
  8
0
100
AcDbBlockEnd
  0
BLOCK
  5
84
330
83
100
AcDbEntity
  8
0
100
AcDbBlockBegin
  2
*D30
 70
    1
 10
0
 20
0
  3
*D30
  1

  0
LINE
  5
10A
100
AcDbEntity
  8
Dimension133
  6
ByBlock
 62
    0
370
   -2
100
AcDbLine
 10
99.8051
 20
117.569
 11
99.8051
 21
97.5688
  0
SOLID
  5
10B
100
AcDbEntity
  8
Dimension133
  6
ByBlock
 62
    0
370
   -2
100
AcDbTrace
 10
99.8051
 20
117.569
 30
0
 11
100.2213846577728
 21
115.069
 31
0
 12
99.38881534222716
 22
115.069
 32
0
 13
99.38881534222716
 23
115.069
 33
0
  0
SOLID
  5
10C
100
AcDbEntity
  8
Dimension133
  6
ByBlock
 62
    0
370
   -2
100
AcDbTrace
 10
99.8051
 20
97.5688
 30
0
 11
99.38881534222716
 21
100.0688
 31
0
 12
100.2213846577728
 22
100.0688
 32
0
 13
100.2213846577728
 23
100.0688
 33
0
  0
MTEXT
  5
10D
100
AcDbEntity
  8
Dimension133
  6
CONTINUOUS
 62
    0
370
   -2
100
AcDbMText
 10
96.6816
 20
89.4468
 30
0
 40
2.5
 41
4.444444444444445
 71
    5
 72
    1
  1
100
  7
STANDARD
210
0
220
0
230
1
 50
90
 73
    2
 44
1
  0
LINE
  5
10E
100
AcDbEntity
  8
Dimension133
  6
ByBlock
 62
    0
370
   -2
100
AcDbLine
 10
76.3066
 20
117.569
 11
101.0551
 21
117.569
  0
LINE
  5
10F
100
AcDbEntity
  8
Dimension133
  6
ByBlock
 62
    0
370
   -2
100
AcDbLine
 10
51.3066
 20
97.5688
 11
101.0551
 21
97.5688
  0
ENDBLK
  5
85
330
83
100
AcDbEntity
  8
0
100
AcDbBlockEnd
  0
BLOCK
  5
87
330
86
100
AcDbEntity
  8
0
100
AcDbBlockBegin
  2
*D12
 70
    1
 10
0
 20
0
  3
*D12
  1

  0
LINE
  5
110
100
AcDbEntity
  8
Dimension114
  6
ByBlock
 62
    0
370
   -2
100
AcDbLine
 10
189.103
 20
192.514
 11
221.373
 21
192.514
  0
SOLID
  5
111
100
AcDbEntity
  8
Dimension114
  6
ByBlock
 62
    0
370
   -2
100
AcDbTrace
 10
189.103
 20
192.514
 30
0
 11
191.603
 21
192.9302846577729
 31
0
 12
191.603
 22
192.0977153422272
 32
0
 13
191.603
 23
192.0977153422272
 33
0
  0
SOLID
  5
112
100
AcDbEntity
  8
Dimension114
  6
ByBlock
 62
    0
370
   -2
100
AcDbTrace
 10
221.373
 20
192.514
 30
0
 11
218.873
 21
192.0977153422272
 31
0
 12
218.873
 22
192.9302846577729
 32
0
 13
218.873
 23
192.9302846577729
 33
0
  0
MTEXT
  5
113
100
AcDbEntity
  8
Dimension114
  6
CONTINUOUS
 62
    0
370
   -2
100
AcDbMText
 10
204.84
 20
197.514
 30
0
 40
2.5
 41
5.000000000000311
 71
    5
 72
    1
  1
323
  7
STANDARD
210
0
220
0
230
1
 50
0
 73
    2
 44
1
  0
LINE
  5
114
100
AcDbEntity
  8
Dimension114
  6
ByBlock
 62
    0
370
   -2
100
AcDbLine
 10
189.103
 20
182.307
 11
189.103
 21
193.764
  0
LINE
  5
115
100
AcDbEntity
  8
Dimension114
  6
ByBlock
 62
    0
370
   -2
100
AcDbLine
 10
221.373
 20
182.307
 11
221.373
 21
193.764
  0
ENDBLK
  5
88
330
86
100
AcDbEntity
  8
0
100
AcDbBlockEnd
  0
BLOCK
  5
8A
330
89
100
AcDbEntity
  8
0
100
AcDbBlockBegin
  2
*D27
 70
    1
 10
0
 20
0
  3
*D27
  1

  0
LINE
  5
116
100
AcDbEntity
  8
Dimension130
  6
ByBlock
 62
    0
370
   -2
100
AcDbLine
 10
221.315
 20
170.989
 11
221.315
 21
186.682
  0
SOLID
  5
117
100
AcDbEntity
  8
Dimension130
  6
ByBlock
 62
    0
370
   -2
100
AcDbTrace
 10
221.315
 20
175.989
 30
0
 11
221.7312846577728
 21
173.489
 31
0
 12
220.8987153422271
 22
173.489
 32
0
 13
220.8987153422271
 23
173.489
 33
0
  0
SOLID
  5
118
100
AcDbEntity
  8
Dimension130
  6
ByBlock
 62
    0
370
   -2
100
AcDbTrace
 10
221.315
 20
181.682
 30
0
 11
220.8987153422271
 21
184.182
 31
0
 12
221.7312846577728
 22
184.182
 32
0
 13
221.7312846577728
 23
184.182
 33
0
  0
MTEXT
  5
119
100
AcDbEntity
  8
Dimension130
  6
CONTINUOUS
 62
    0
370
   -2
100
AcDbMText
 10
225.893
 20
192.479
 30
0
 40
2.5
 41
3.055555555555711
 71
    5
 72
    1
  1
57
  7
STANDARD
210
0
220
0
230
1
 50
90
 73
    2
 44
1
  0
LINE
  5
11A
100
AcDbEntity
  8
Dimension130
  6
ByBlock
 62
    0
370
   -2
100
AcDbLine
 10
219.498
 20
175.989
 11
222.565
 21
175.989
  0
LINE
  5
11B
100
AcDbEntity
  8
Dimension130
  6
ByBlock
 62
    0
370
   -2
100
AcDbLine
 10
220.748
 20
181.682
 11
220.065
 21
181.682
  0
ENDBLK
  5
8B
330
89
100
AcDbEntity
  8
0
100
AcDbBlockEnd
  0
BLOCK
  5
8D
330
8C
100
AcDbEntity
  8
0
100
AcDbBlockBegin
  2
*D9
 70
    1
 10
0
 20
0
  3
*D9
  1

  0
LINE
  5
11C
100
AcDbEntity
  8
Dimension111
  6
ByBlock
 62
    0
370
   -2
100
AcDbLine
 10
158.3822102278037
 20
144.0316052650767
 11
172.2687575328757
 21
134.148827279003
  0
LINE
  5
11D
100
AcDbEntity
  8
Dimension111
  6
ByBlock
 62
    0
370
   -2
100
AcDbLine
 10
132.873
 20
143.769
 11
132.873
 21
113.8320056895384
  0
ARC
  5
11E
100
AcDbEntity
  8
Dimension111
  6
ByBlock
 62
    0
370
   -2
100
AcDbCircle
 10
132.873
 20
162.186
 40
47.10399431046164
100
AcDbArc
 50
270
 51
324.5613025439372
  0
SOLID
  5
11F
100
AcDbEntity
  8
Dimension111
  6
ByBlock
 62
    0
370
   -2
100
AcDbTrace
 10
171.2503370772684
 20
134.8736167488496
 30
0
 11
170.0798613658636
 21
132.625666677049
 31
0
 12
169.4145849432612
 22
133.1262452889748
 32
0
 13
169.4145849432612
 23
133.1262452889748
 33
0
  0
SOLID
  5
120
100
AcDbEntity
  8
Dimension111
  6
ByBlock
 62
    0
370
   -2
100
AcDbTrace
 10
132.873
 20
115.0820056895384
 30
0
 11
135.3610741234063
 21
115.5644785620743
 31
0
 12
135.3831654453145
 22
114.7322023827416
 32
0
 13
135.3831654453145
 23
114.7322023827416
 33
0
  0
MTEXT
  5
121
100
AcDbEntity
  8
Dimension111
  6
CONTINUOUS
 62
    0
370
   -2
100
AcDbMText
 10
154.1766211616617
 20
120.8767681321436
 30
0
 40
2.5
 41
4.722222222222532
 71
    8
 72
    1
  1
55%%D
  7
STANDARD
210
0
220
0
230
1
 50
27.28065127196855
 73
    2
 44
1
  0
ENDBLK
  5
8E
330
8C
100
AcDbEntity
  8
0
100
AcDbBlockEnd
  0
BLOCK
  5
90
330
8F
100
AcDbEntity
  8
0
100
AcDbBlockBegin
  2
*D21
 70
    1
 10
0
 20
0
  3
*D21
  1

  0
LINE
  5
122
100
AcDbEntity
  8
Dimension124
  6
ByBlock
 62
    0
370
   -2
100
AcDbLine
 10
221.373
 20
174.927
 11
193.314
 21
174.927
  0
SOLID
  5
123
100
AcDbEntity
  8
Dimension124
  6
ByBlock
 62
    0
370
   -2
100
AcDbTrace
 10
221.373
 20
174.927
 30
0
 11
218.873
 21
174.5107153422271
 31
0
 12
218.873
 22
175.3432846577728
 32
0
 13
218.873
 23
175.3432846577728
 33
0
  0
SOLID
  5
124
100
AcDbEntity
  8
Dimension124
  6
ByBlock
 62
    0
370
   -2
100
AcDbTrace
 10
193.314
 20
174.927
 30
0
 11
195.814
 21
175.3432846577728
 31
0
 12
195.814
 22
174.5107153422271
 32
0
 13
195.814
 23
174.5107153422271
 33
0
  0
MTEXT
  5
125
100
AcDbEntity
  8
Dimension124
  6
CONTINUOUS
 62
    0
370
   -2
100
AcDbMText
 10
207.144
 20
169.927
 30
0
 40
2.5
 41
4.444444444444445
 71
    5
 72
    1
  1
281
  7
STANDARD
210
0
220
0
230
1
 50
360
 73
    2
 44
1
  0
LINE
  5
126
100
AcDbEntity
  8
Dimension124
  6
ByBlock
 62
    0
370
   -2
100
AcDbLine
 10
221.373
 20
157.307
 11
221.373
 21
176.177
  0
LINE
  5
127
100
AcDbEntity
  8
Dimension124
  6
ByBlock
 62
    0
370
   -2
100
AcDbLine
 10
193.314
 20
157.307
 11
193.314
 21
176.177
  0
ENDBLK
  5
91
330
8F
100
AcDbEntity
  8
0
100
AcDbBlockEnd
  0
BLOCK
  5
93
330
92
100
AcDbEntity
  8
0
100
AcDbBlockBegin
  2
*D15
 70
    1
 10
0
 20
0
  3
*D15
  1

  0
LINE
  5
128
100
AcDbEntity
  8
Dimension117
  6
ByBlock
 62
    0
370
   -2
100
AcDbLine
 10
134.873
 20
65.63760000000001
 11
187.78
 21
65.63760000000001
  0
SOLID
  5
129
100
AcDbEntity
  8
Dimension117
  6
ByBlock
 62
    0
370
   -2
100
AcDbTrace
 10
134.873
 20
65.63760000000001
 30
0
 11
137.373
 21
66.05388465777284
 31
0
 12
137.373
 22
65.22131534222717
 32
0
 13
137.373
 23
65.22131534222717
 33
0
  0
SOLID
  5
12A
100
AcDbEntity
  8
Dimension117
  6
ByBlock
 62
    0
370
   -2
100
AcDbTrace
 10
187.78
 20
65.63760000000001
 30
0
 11
185.28
 21
65.22131534222717
 31
0
 12
185.28
 22
66.05388465777284
 32
0
 13
185.28
 23
66.05388465777284
 33
0
  0
MTEXT
  5
12B
100
AcDbEntity
  8
Dimension117
  6
CONTINUOUS
 62
    0
370
   -2
100
AcDbMText
 10
159.337
 20
70.63760000000001
 30
0
 40
2.5
 41
5.000000000000155
 71
    5
 72
    1
  1
529
  7
STANDARD
210
0
220
0
230
1
 50
0
 73
    2
 44
1
  0
LINE
  5
12C
100
AcDbEntity
  8
Dimension117
  6
ByBlock
 62
    0
370
   -2
100
AcDbLine
 10
134.873
 20
75.0741
 11
134.873
 21
64.38760000000001
  0
LINE
  5
12D
100
AcDbEntity
  8
Dimension117
  6
ByBlock
 62
    0
370
   -2
100
AcDbLine
 10
187.78
 20
75.0741
 11
187.78
 21
64.38760000000001
  0
ENDBLK
  5
94
330
92
100
AcDbEntity
  8
0
100
AcDbBlockEnd
  0
BLOCK
  5
96
330
95
100
AcDbEntity
  8
0
100
AcDbBlockBegin
  2
*D2
 70
    1
 10
0
 20
0
  3
*D2
  1

  0
LINE
  5
12E
100
AcDbEntity
  8
Dimension104
  6
ByBlock
 62
    0
370
   -2
100
AcDbLine
 10
274.403
 20
135.882
 11
274.403
 21
124.382
  0
SOLID
  5
12F
100
AcDbEntity
  8
Dimension104
  6
ByBlock
 62
    0
370
   -2
100
AcDbTrace
 10
274.403
 20
130.882
 30
0
 11
273.9867153422272
 21
133.382
 31
0
 12
274.8192846577729
 22
133.382
 32
0
 13
274.8192846577729
 23
133.382
 33
0
  0
SOLID
  5
130
100
AcDbEntity
  8
Dimension104
  6
ByBlock
 62
    0
370
   -2
100
AcDbTrace
 10
274.403
 20
129.382
 30
0
 11
274.8192846577729
 21
126.882
 31
0
 12
273.9867153422272
 22
126.882
 32
0
 13
273.9867153422272
 23
126.882
 33
0
  0
MTEXT
  5
131
100
AcDbEntity
  8
Dimension104
  6
CONTINUOUS
 62
    0
370
   -2
100
AcDbMText
 10
269.403
 20
127.5700000000001
 30
0
 40
2.5
 41
2.500000000000155
 71
    5
 72
    1
  1
15
  7
STANDARD
210
0
220
0
230
1
 50
90
 73
    2
 44
1
  0
LINE
  5
132
100
AcDbEntity
  8
Dimension104
  6
ByBlock
 62
    0
370
   -2
100
AcDbLine
 10
264.928
 20
130.882
 11
275.653
 21
130.882
  0
LINE
  5
133
100
AcDbEntity
  8
Dimension104
  6
ByBlock
 62
    0
370
   -2
100
AcDbLine
 10
264.928
 20
129.382
 11
275.653
 21
129.382
  0
ENDBLK
  5
97
330
95
100
AcDbEntity
  8
0
100
AcDbBlockEnd
  0
BLOCK
  5
99
330
98
100
AcDbEntity
  8
0
100
AcDbBlockBegin
  2
*D19
 70
    1
 10
0
 20
0
  3
*D19
  1

  0
LINE
  5
134
100
AcDbEntity
  8
Dimension122
  6
ByBlock
 62
    0
370
   -2
100
AcDbLine
 10
221.373
 20
113.003
 11
132.873
 21
113.003
  0
SOLID
  5
135
100
AcDbEntity
  8
Dimension122
  6
ByBlock
 62
    0
370
   -2
100
AcDbTrace
 10
221.373
 20
113.003
 30
0
 11
218.873
 21
112.5867153422272
 31
0
 12
218.873
 22
113.4192846577728
 32
0
 13
218.873
 23
113.4192846577728
 33
0
  0
SOLID
  5
136
100
AcDbEntity
  8
Dimension122
  6
ByBlock
 62
    0
370
   -2
100
AcDbTrace
 10
132.873
 20
113.003
 30
0
 11
135.373
 21
113.4192846577728
 31
0
 12
135.373
 22
112.5867153422272
 32
0
 13
135.373
 23
112.5867153422272
 33
0
  0
MTEXT
  5
137
100
AcDbEntity
  8
Dimension122
  6
CONTINUOUS
 62
    0
370
   -2
100
AcDbMText
 10
213.14
 20
108.003
 30
0
 40
2.5
 41
5.000000000000156
 71
    5
 72
    1
  1
885
  7
STANDARD
210
0
220
0
230
1
 50
360
 73
    2
 44
1
  0
LINE
  5
138
100
AcDbEntity
  8
Dimension122
  6
ByBlock
 62
    0
370
   -2
100
AcDbLine
 10
221.373
 20
156.057
 11
221.373
 21
111.753
  0
LINE
  5
139
100
AcDbEntity
  8
Dimension122
  6
ByBlock
 62
    0
370
   -2
100
AcDbLine
 10
132.873
 20
156.057
 11
132.873
 21
111.753
  0
ENDBLK
  5
9A
330
98
100
AcDbEntity
  8
0
100
AcDbBlockEnd
  0
BLOCK
  5
9C
330
9B
100
AcDbEntity
  8
0
100
AcDbBlockBegin
  2
*D26
 70
    1
 10
0
 20
0
  3
*D26
  1

  0
LINE
  5
13A
100
AcDbEntity
  8
Dimension129
  6
ByBlock
 62
    0
370
   -2
100
AcDbLine
 10
176.686
 20
157.185
 11
176.686
 21
129.382
  0
SOLID
  5
13B
100
AcDbEntity
  8
Dimension129
  6
ByBlock
 62
    0
370
   -2
100
AcDbTrace
 10
176.686
 20
157.185
 30
0
 11
177.1022846577729
 21
154.685
 31
0
 12
176.2697153422272
 22
154.685
 32
0
 13
176.2697153422272
 23
154.685
 33
0
  0
SOLID
  5
13C
100
AcDbEntity
  8
Dimension129
  6
ByBlock
 62
    0
370
   -2
100
AcDbTrace
 10
176.686
 20
129.382
 30
0
 11
176.2697153422272
 21
131.882
 31
0
 12
177.1022846577729
 22
131.882
 32
0
 13
177.1022846577729
 23
131.882
 33
0
  0
MTEXT
  5
13D
100
AcDbEntity
  8
Dimension129
  6
CONTINUOUS
 62
    0
370
   -2
100
AcDbMText
 10
171.686
 20
146.182
 30
0
 40
2.5
 41
5
 71
    5
 72
    1
  1
278
  7
STANDARD
210
0
220
0
230
1
 50
90
 73
    2
 44
1
  0
LINE
  5
13E
100
AcDbEntity
  8
Dimension129
  6
ByBlock
 62
    0
370
   -2
100
AcDbLine
 10
135.498
 20
157.185
 11
177.936
 21
157.185
  0
LINE
  5
13F
100
AcDbEntity
  8
Dimension129
  6
ByBlock
 62
    0
370
   -2
100
AcDbLine
 10
135.498
 20
129.382
 11
177.936
 21
129.382
  0
ENDBLK
  5
9D
330
9B
100
AcDbEntity
  8
0
100
AcDbBlockEnd
  0
BLOCK
  5
9F
330
9E
100
AcDbEntity
  8
0
100
AcDbBlockBegin
  2
*D38
 70
    1
 10
0
 20
0
  3
*D38
  1

  0
LINE
  5
140
100
AcDbEntity
  8
Dimension142
  6
ByBlock
 62
    0
370
   -2
100
AcDbLine
 10
59.67440620817599
 20
85.58288539478556
 11
69.688793791824
 21
93.55471460521444
  0
SOLID
  5
141
100
AcDbEntity
  8
Dimension142
  6
ByBlock
 62
    0
370
   -2
100
AcDbTrace
 10
63.5863
 20
88.6969
 30
0
 11
61.88961640493426
 21
86.81420042371815
 31
0
 12
61.37108980324174
 22
87.46558497106741
 32
0
 13
61.37108980324174
 23
87.46558497106741
 33
0
  0
SOLID
  5
142
100
AcDbEntity
  8
Dimension142
  6
ByBlock
 62
    0
370
   -2
100
AcDbTrace
 10
65.7769
 20
90.44070000000001
 30
0
 11
67.47358359506573
 21
92.32339957628186
 31
0
 12
67.99211019675826
 22
91.67201502893259
 32
0
 13
67.99211019675826
 23
91.67201502893259
 33
0
  0
MTEXT
  5
143
100
AcDbEntity
  8
Dimension142
  6
CONTINUOUS
 62
    0
370
   -2
100
AcDbMText
 10
53.39099733632955
 20
88.66585953395943
 30
0
 40
2.5
 41
5.277777777777778
 71
    5
 72
    1
  1
%%C14
  7
STANDARD
210
0
220
0
230
1
 50
38.52110877653205
 73
    2
 44
1
  0
ENDBLK
  5
A0
330
9E
100
AcDbEntity
  8
0
100
AcDbBlockEnd
  0
BLOCK
  5
A2
330
A1
100
AcDbEntity
  8
0
100
AcDbBlockBegin
  2
*D6
 70
    1
 10
0
 20
0
  3
*D6
  1

  0
LINE
  5
144
100
AcDbEntity
  8
Dimension108
  6
ByBlock
 62
    0
370
   -2
100
AcDbLine
 10
264.303
 20
113.417
 11
254.803
 21
113.417
  0
SOLID
  5
145
100
AcDbEntity
  8
Dimension108
  6
ByBlock
 62
    0
370
   -2
100
AcDbTrace
 10
264.303
 20
113.417
 30
0
 11
261.803
 21
113.0007153422272
 31
0
 12
261.803
 22
113.8332846577728
 32
0
 13
261.803
 23
113.8332846577728
 33
0
  0
SOLID
  5
146
100
AcDbEntity
  8
Dimension108
  6
ByBlock
 62
    0
370
   -2
100
AcDbTrace
 10
254.803
 20
113.417
 30
0
 11
257.303
 21
113.8332846577728
 31
0
 12
257.303
 22
113.0007153422272
 32
0
 13
257.303
 23
113.0007153422272
 33
0
  0
MTEXT
  5
147
100
AcDbEntity
  8
Dimension108
  6
CONTINUOUS
 62
    0
370
   -2
100
AcDbMText
 10
259.034
 20
108.417
 30
0
 40
2.5
 41
3.055555555555866
 71
    5
 72
    1
  1
95
  7
STANDARD
210
0
220
0
230
1
 50
360
 73
    2
 44
1
  0
LINE
  5
148
100
AcDbEntity
  8
Dimension108
  6
ByBlock
 62
    0
370
   -2
100
AcDbLine
 10
264.303
 20
128.757
 11
264.303
 21
112.167
  0
LINE
  5
149
100
AcDbEntity
  8
Dimension108
  6
ByBlock
 62
    0
370
   -2
100
AcDbLine
 10
254.803
 20
128.757
 11
254.803
 21
112.167
  0
ENDBLK
  5
A3
330
A1
100
AcDbEntity
  8
0
100
AcDbBlockEnd
  0
BLOCK
  5
A5
330
A4
100
AcDbEntity
  8
0
100
AcDbBlockBegin
  2
*D5
 70
    1
 10
0
 20
0
  3
*D5
  1

  0
LINE
  5
14A
100
AcDbEntity
  8
Dimension107
  6
ByBlock
 62
    0
370
   -2
100
AcDbLine
 10
266.303
 20
202.514
 11
251.303
 21
202.514
  0
SOLID
  5
14B
100
AcDbEntity
  8
Dimension107
  6
ByBlock
 62
    0
370
   -2
100
AcDbTrace
 10
261.303
 20
202.514
 30
0
 11
263.803
 21
202.9302846577729
 31
0
 12
263.803
 22
202.0977153422272
 32
0
 13
263.803
 23
202.0977153422272
 33
0
  0
SOLID
  5
14C
100
AcDbEntity
  8
Dimension107
  6
ByBlock
 62
    0
370
   -2
100
AcDbTrace
 10
256.303
 20
202.514
 30
0
 11
253.803
 21
202.0977153422272
 31
0
 12
253.803
 22
202.9302846577729
 32
0
 13
253.803
 23
202.9302846577729
 33
0
  0
MTEXT
  5
14D
100
AcDbEntity
  8
Dimension107
  6
CONTINUOUS
 62
    0
370
   -2
100
AcDbMText
 10
259.109
 20
197.514
 30
0
 40
2.5
 41
3.055555555555711
 71
    5
 72
    1
  1
50
  7
STANDARD
210
0
220
0
230
1
 50
360
 73
    2
 44
1
  0
LINE
  5
14E
100
AcDbEntity
  8
Dimension107
  6
ByBlock
 62
    0
370
   -2
100
AcDbLine
 10
261.303
 20
176.614
 11
261.303
 21
203.764
  0
LINE
  5
14F
100
AcDbEntity
  8
Dimension107
  6
ByBlock
 62
    0
370
   -2
100
AcDbLine
 10
256.303
 20
176.614
 11
256.303
 21
203.764
  0
ENDBLK
  5
A6
330
A4
100
AcDbEntity
  8
0
100
AcDbBlockEnd
  0
BLOCK
  5
A8
330
A7
100
AcDbEntity
  8
0
100
AcDbBlockBegin
  2
*D17
 70
    1
 10
0
 20
0
  3
*D17
  1

  0
LINE
  5
150
100
AcDbEntity
  8
Dimension119
  6
ByBlock
 62
    0
370
   -2
100
AcDbLine
 10
157.873
 20
113.003
 11
132.873
 21
113.003
  0
SOLID
  5
151
100
AcDbEntity
  8
Dimension119
  6
ByBlock
 62
    0
370
   -2
100
AcDbTrace
 10
157.873
 20
113.003
 30
0
 11
155.373
 21
112.5867153422272
 31
0
 12
155.373
 22
113.4192846577728
 32
0
 13
155.373
 23
113.4192846577728
 33
0
  0
SOLID
  5
152
100
AcDbEntity
  8
Dimension119
  6
ByBlock
 62
    0
370
   -2
100
AcDbTrace
 10
132.873
 20
113.003
 30
0
 11
135.373
 21
113.4192846577728
 31
0
 12
135.373
 22
112.5867153422272
 32
0
 13
135.373
 23
112.5867153422272
 33
0
  0
MTEXT
  5
153
100
AcDbEntity
  8
Dimension119
  6
CONTINUOUS
 62
    0
370
   -2
100
AcDbMText
 10
150.546
 20
108.003
 30
0
 40
2.5
 41
5.000000000000155
 71
    5
 72
    1
  1
250
  7
STANDARD
210
0
220
0
230
1
 50
360
 73
    2
 44
1
  0
LINE
  5
154
100
AcDbEntity
  8
Dimension119
  6
ByBlock
 62
    0
370
   -2
100
AcDbLine
 10
157.873
 20
128.757
 11
157.873
 21
111.753
  0
LINE
  5
155
100
AcDbEntity
  8
Dimension119
  6
ByBlock
 62
    0
370
   -2
100
AcDbLine
 10
132.873
 20
128.757
 11
132.873
 21
111.753
  0
ENDBLK
  5
A9
330
A7
100
AcDbEntity
  8
0
100
AcDbBlockEnd
  0
BLOCK
  5
AB
330
AA
100
AcDbEntity
  8
0
100
AcDbBlockBegin
  2
*D22
 70
    1
 10
0
 20
0
  3
*D22
  1

  0
LINE
  5
156
100
AcDbEntity
  8
Dimension125
  6
ByBlock
 62
    0
370
   -2
100
AcDbLine
 10
111.627
 20
130.882
 11
111.627
 21
181.682
  0
SOLID
  5
157
100
AcDbEntity
  8
Dimension125
  6
ByBlock
 62
    0
370
   -2
100
AcDbTrace
 10
111.627
 20
130.882
 30
0
 11
111.2107153422272
 21
133.382
 31
0
 12
112.0432846577728
 22
133.382
 32
0
 13
112.0432846577728
 23
133.382
 33
0
  0
SOLID
  5
158
100
AcDbEntity
  8
Dimension125
  6
ByBlock
 62
    0
370
   -2
100
AcDbTrace
 10
111.627
 20
181.682
 30
0
 11
112.0432846577728
 21
179.182
 31
0
 12
111.2107153422272
 22
179.182
 32
0
 13
111.2107153422272
 23
179.182
 33
0
  0
MTEXT
  5
159
100
AcDbEntity
  8
Dimension125
  6
CONTINUOUS
 62
    0
370
   -2
100
AcDbMText
 10
115.886
 20
178.681
 30
0
 40
2.5
 41
5.000000000000155
 71
    5
 72
    1
  1
508
  7
STANDARD
210
0
220
0
230
1
 50
90
 73
    2
 44
1
  0
LINE
  5
15A
100
AcDbEntity
  8
Dimension125
  6
ByBlock
 62
    0
370
   -2
100
AcDbLine
 10
157.248
 20
130.882
 11
110.377
 21
130.882
  0
LINE
  5
15B
100
AcDbEntity
  8
Dimension125
  6
ByBlock
 62
    0
370
   -2
100
AcDbLine
 10
188.478
 20
181.682
 11
110.377
 21
181.682
  0
ENDBLK
  5
AC
330
AA
100
AcDbEntity
  8
0
100
AcDbBlockEnd
  0
BLOCK
  5
AE
330
AD
100
AcDbEntity
  8
0
100
AcDbBlockBegin
  2
*D37
 70
    1
 10
0
 20
0
  3
*D37
  1

  0
LINE
  5
15C
100
AcDbEntity
  8
Dimension141
  6
ByBlock
 62
    0
370
   -2
100
AcDbLine
 10
47.70217213555007
 20
92.90182932482575
 11
56.46102786444993
 21
102.2357706751742
  0
SOLID
  5
15D
100
AcDbEntity
  8
Dimension141
  6
ByBlock
 62
    0
370
   -2
100
AcDbTrace
 10
51.1236
 20
96.5479
 30
0
 11
49.71644672442114
 21
94.44000707688348
 31
0
 12
49.10932541112894
 22
95.00972224794228
 32
0
 13
49.10932541112894
 23
95.00972224794228
 33
0
  0
SOLID
  5
15E
100
AcDbEntity
  8
Dimension141
  6
ByBlock
 62
    0
370
   -2
100
AcDbTrace
 10
53.0396
 20
98.58969999999999
 30
0
 11
54.44675327557886
 21
100.6975929231165
 31
0
 12
55.05387458887107
 22
100.1278777520577
 32
0
 13
55.05387458887107
 23
100.1278777520577
 33
0
  0
MTEXT
  5
15F
100
AcDbEntity
  8
Dimension141
  6
CONTINUOUS
 62
    0
370
   -2
100
AcDbMText
 10
42.68533207818259
 20
96.37917391296097
 30
0
 40
2.5
 41
5.277777777777778
 71
    5
 72
    1
  1
%%C14
  7
STANDARD
210
0
220
0
230
1
 50
46.82055262144912
 73
    2
 44
1
  0
ENDBLK
  5
AF
330
AD
100
AcDbEntity
  8
0
100
AcDbBlockEnd
  0
BLOCK
  5
B1
330
B0
100
AcDbEntity
  8
0
100
AcDbBlockBegin
  2
*D8
 70
    1
 10
0
 20
0
  3
*D8
  1

  0
LINE
  5
160
100
AcDbEntity
  8
Dimension110
  6
ByBlock
 62
    0
370
   -2
100
AcDbLine
 10
193.4178126127091
 20
156.0656819478203
 11
196.1023099138988
 21
140.1282721806058
  0
LINE
  5
161
100
AcDbEntity
  8
Dimension110
  6
ByBlock
 62
    0
370
   -2
100
AcDbLine
 10
193.939
 20
181.682
 11
231.2420867836395
 21
181.682
  0
ARC
  5
162
100
AcDbEntity
  8
Dimension110
  6
ByBlock
 62
    0
370
   -2
100
AcDbCircle
 10
189.103
 20
181.682
 40
40.88908678363945
100
AcDbArc
 50
279.5611521373772
 51
0
  0
SOLID
  5
163
100
AcDbEntity
  8
Dimension110
  6
ByBlock
 62
    0
370
   -2
100
AcDbTrace
 10
195.8946846884805
 20
141.3609082849651
 30
0
 11
198.2644526334423
 21
142.2595143184016
 31
0
 12
198.4277725291593
 22
141.4431208612676
 32
0
 13
198.4277725291593
 23
141.4431208612676
 33
0
  0
SOLID
  5
164
100
AcDbEntity
  8
Dimension110
  6
ByBlock
 62
    0
370
   -2
100
AcDbTrace
 10
229.9920867836395
 20
181.682
 30
0
 11
230.3317625789533
 21
179.170444053903
 31
0
 12
229.4995822743217
 22
179.1958921534658
 32
0
 13
229.4995822743217
 23
179.1958921534658
 33
0
  0
MTEXT
  5
165
100
AcDbEntity
  8
Dimension110
  6
CONTINUOUS
 62
    0
370
   -2
100
AcDbMText
 10
219.8477373234606
 20
155.682811331277
 30
0
 40
2.5
 41
4.722222222222222
 71
    8
 72
    1
  1
80%%D
  7
STANDARD
210
0
220
0
230
1
 50
49.78057606868862
 73
    2
 44
1
  0
ENDBLK
  5
B2
330
B0
100
AcDbEntity
  8
0
100
AcDbBlockEnd
  0
BLOCK
  5
B4
330
B3
100
AcDbEntity
  8
0
100
AcDbBlockBegin
  2
*D41
 70
    1
 10
0
 20
0
  3
*D41
  1

  0
LINE
  5
166
100
AcDbEntity
  8
Dimension145
  6
ByBlock
 62
    0
370
   -2
100
AcDbLine
 10
213.873
 20
90.8702
 11
226.373
 21
90.8702
  0
SOLID
  5
167
100
AcDbEntity
  8
Dimension145
  6
ByBlock
 62
    0
370
   -2
100
AcDbTrace
 10
218.873
 20
90.8702
 30
0
 11
216.373
 21
90.45391534222716
 31
0
 12
216.373
 22
91.28648465777283
 32
0
 13
216.373
 23
91.28648465777283
 33
0
  0
SOLID
  5
168
100
AcDbEntity
  8
Dimension145
  6
ByBlock
 62
    0
370
   -2
100
AcDbTrace
 10
221.373
 20
90.8702
 30
0
 11
223.873
 21
91.28648465777283
 31
0
 12
223.873
 22
90.45391534222716
 32
0
 13
223.873
 23
90.45391534222716
 33
0
  0
MTEXT
  5
169
100
AcDbEntity
  8
Dimension145
  6
CONTINUOUS
 62
    0
370
   -2
100
AcDbMText
 10
222.7407777777779
 20
93.1063
 30
0
 40
2.5
 41
3.055555555555711
 71
    5
 72
    1
  1
25
  7
STANDARD
210
0
220
0
230
1
 50
0
 73
    2
 44
1
  0
LINE
  5
16A
100
AcDbEntity
  8
Dimension145
  6
ByBlock
 62
    0
370
   -2
100
AcDbLine
 10
218.873
 20
76.3241
 11
218.873
 21
92.1202
  0
LINE
  5
16B
100
AcDbEntity
  8
Dimension145
  6
ByBlock
 62
    0
370
   -2
100
AcDbLine
 10
221.373
 20
81.3241
 11
221.373
 21
92.1202
  0
ENDBLK
  5
B5
330
B3
100
AcDbEntity
  8
0
100
AcDbBlockEnd
  0
BLOCK
  5
B7
330
B6
100
AcDbEntity
  8
0
100
AcDbBlockBegin
  2
*D24
 70
    1
 10
0
 20
0
  3
*D24
  1

  0
LINE
  5
16C
100
AcDbEntity
  8
Dimension127
  6
ByBlock
 62
    0
370
   -2
100
AcDbLine
 10
240.7
 20
181.682
 11
240.7
 21
156.682
  0
SOLID
  5
16D
100
AcDbEntity
  8
Dimension127
  6
ByBlock
 62
    0
370
   -2
100
AcDbTrace
 10
240.7
 20
181.682
 30
0
 11
241.1162846577728
 21
179.182
 31
0
 12
240.2837153422271
 22
179.182
 32
0
 13
240.2837153422271
 23
179.182
 33
0
  0
SOLID
  5
16E
100
AcDbEntity
  8
Dimension127
  6
ByBlock
 62
    0
370
   -2
100
AcDbTrace
 10
240.7
 20
156.682
 30
0
 11
240.2837153422271
 21
159.182
 31
0
 12
241.1162846577728
 22
159.182
 32
0
 13
241.1162846577728
 23
159.182
 33
0
  0
MTEXT
  5
16F
100
AcDbEntity
  8
Dimension127
  6
CONTINUOUS
 62
    0
370
   -2
100
AcDbMText
 10
235.7
 20
172.08
 30
0
 40
2.5
 41
5.000000000000155
 71
    5
 72
    1
  1
250
  7
STANDARD
210
0
220
0
230
1
 50
90
 73
    2
 44
1
  0
LINE
  5
170
100
AcDbEntity
  8
Dimension127
  6
ByBlock
 62
    0
370
   -2
100
AcDbLine
 10
221.998
 20
181.682
 11
241.95
 21
181.682
  0
LINE
  5
171
100
AcDbEntity
  8
Dimension127
  6
ByBlock
 62
    0
370
   -2
100
AcDbLine
 10
221.998
 20
156.682
 11
241.95
 21
156.682
  0
ENDBLK
  5
B8
330
B6
100
AcDbEntity
  8
0
100
AcDbBlockEnd
  0
BLOCK
  5
BA
330
B9
100
AcDbEntity
  8
0
100
AcDbBlockBegin
  2
*D34
 70
    1
 10
0
 20
0
  3
*D34
  1

  0
LINE
  5
172
100
AcDbEntity
  8
Dimension138
  6
ByBlock
 62
    0
370
   -2
100
AcDbLine
 10
80.6816
 20
134.671
 11
65.6816
 21
134.671
  0
SOLID
  5
173
100
AcDbEntity
  8
Dimension138
  6
ByBlock
 62
    0
370
   -2
100
AcDbTrace
 10
75.6816
 20
134.671
 30
0
 11
78.1816
 21
135.0872846577728
 31
0
 12
78.1816
 22
134.2547153422271
 32
0
 13
78.1816
 23
134.2547153422271
 33
0
  0
SOLID
  5
174
100
AcDbEntity
  8
Dimension138
  6
ByBlock
 62
    0
370
   -2
100
AcDbTrace
 10
70.6816
 20
134.671
 30
0
 11
68.1816
 21
134.2547153422271
 31
0
 12
68.1816
 22
135.0872846577728
 32
0
 13
68.1816
 23
135.0872846577728
 33
0
  0
MTEXT
  5
175
100
AcDbEntity
  8
Dimension138
  6
CONTINUOUS
 62
    0
370
   -2
100
AcDbMText
 10
72.446
 20
132.66
 30
0
 40
2.5
 41
3.055555555555711
 71
    5
 72
    1
  1
25
  7
STANDARD
210
0
220
0
230
1
 50
360
 73
    2
 44
1
  0
LINE
  5
176
100
AcDbEntity
  8
Dimension138
  6
ByBlock
 62
    0
370
   -2
100
AcDbLine
 10
75.6816
 20
118.194
 11
75.6816
 21
135.921
  0
LINE
  5
177
100
AcDbEntity
  8
Dimension138
  6
ByBlock
 62
    0
370
   -2
100
AcDbLine
 10
70.6816
 20
106.808
 11
70.6816
 21
135.921
  0
ENDBLK
  5
BB
330
B9
100
AcDbEntity
  8
0
100
AcDbBlockEnd
  0
BLOCK
  5
BD
330
BC
100
AcDbEntity
  8
0
100
AcDbBlockBegin
  2
*D16
 70
    1
 10
0
 20
0
  3
*D16
  1

  0
LINE
  5
178
100
AcDbEntity
  8
Dimension118
  6
ByBlock
 62
    0
370
   -2
100
AcDbLine
 10
188.273
 20
65.63760000000001
 11
218.873
 21
65.63760000000001
  0
SOLID
  5
179
100
AcDbEntity
  8
Dimension118
  6
ByBlock
 62
    0
370
   -2
100
AcDbTrace
 10
188.273
 20
65.63760000000001
 30
0
 11
190.773
 21
66.05388465777284
 31
0
 12
190.773
 22
65.22131534222717
 32
0
 13
190.773
 23
65.22131534222717
 33
0
  0
SOLID
  5
17A
100
AcDbEntity
  8
Dimension118
  6
ByBlock
 62
    0
370
   -2
100
AcDbTrace
 10
218.873
 20
65.63760000000001
 30
0
 11
216.373
 21
65.22131534222717
 31
0
 12
216.373
 22
66.05388465777284
 32
0
 13
216.373
 23
66.05388465777284
 33
0
  0
MTEXT
  5
17B
100
AcDbEntity
  8
Dimension118
  6
CONTINUOUS
 62
    0
370
   -2
100
AcDbMText
 10
201.384
 20
70.63760000000001
 30
0
 40
2.5
 41
5.000000000000311
 71
    5
 72
    1
  1
306
  7
STANDARD
210
0
220
0
230
1
 50
0
 73
    2
 44
1
  0
LINE
  5
17C
100
AcDbEntity
  8
Dimension118
  6
ByBlock
 62
    0
370
   -2
100
AcDbLine
 10
188.273
 20
75.0741
 11
188.273
 21
64.38760000000001
  0
LINE
  5
17D
100
AcDbEntity
  8
Dimension118
  6
ByBlock
 62
    0
370
   -2
100
AcDbLine
 10
218.873
 20
75.0741
 11
218.873
 21
64.38760000000001
  0
ENDBLK
  5
BE
330
BC
100
AcDbEntity
  8
0
100
AcDbBlockEnd
  0
BLOCK
  5
C0
330
BF
100
AcDbEntity
  8
0
100
AcDbBlockBegin
  2
*D25
 70
    1
 10
0
 20
0
  3
*D25
  1

  0
LINE
  5
17E
100
AcDbEntity
  8
Dimension128
  6
ByBlock
 62
    0
370
   -2
100
AcDbLine
 10
181.857
 20
175.989
 11
181.857
 21
129.382
  0
SOLID
  5
17F
100
AcDbEntity
  8
Dimension128
  6
ByBlock
 62
    0
370
   -2
100
AcDbTrace
 10
181.857
 20
175.989
 30
0
 11
182.2732846577728
 21
173.489
 31
0
 12
181.4407153422272
 22
173.489
 32
0
 13
181.4407153422272
 23
173.489
 33
0
  0
SOLID
  5
180
100
AcDbEntity
  8
Dimension128
  6
ByBlock
 62
    0
370
   -2
100
AcDbTrace
 10
181.857
 20
129.382
 30
0
 11
181.4407153422272
 21
131.882
 31
0
 12
182.2732846577728
 22
131.882
 32
0
 13
182.2732846577728
 23
131.882
 33
0
  0
MTEXT
  5
181
100
AcDbEntity
  8
Dimension128
  6
CONTINUOUS
 62
    0
370
   -2
100
AcDbMText
 10
178.821
 20
146.629
 30
0
 40
2.5
 41
5.277777777778089
 71
    5
 72
    1
  1
466
  7
STANDARD
210
0
220
0
230
1
 50
90
 73
    2
 44
1
  0
LINE
  5
182
100
AcDbEntity
  8
Dimension128
  6
ByBlock
 62
    0
370
   -2
100
AcDbLine
 10
218.248
 20
175.989
 11
180.607
 21
175.989
  0
LINE
  5
183
100
AcDbEntity
  8
Dimension128
  6
ByBlock
 62
    0
370
   -2
100
AcDbLine
 10
158.498
 20
129.382
 11
183.107
 21
129.382
  0
ENDBLK
  5
C1
330
BF
100
AcDbEntity
  8
0
100
AcDbBlockEnd
  0
BLOCK
  5
C3
330
C2
100
AcDbEntity
  8
0
100
AcDbBlockBegin
  2
*D18
 70
    1
 10
0
 20
0
  3
*D18
  1

  0
LINE
  5
184
100
AcDbEntity
  8
Dimension120
  6
ByBlock
 62
    0
370
   -2
100
AcDbLine
 10
120.886
 20
144.394
 11
120.886
 21
130.882
  0
SOLID
  5
185
100
AcDbEntity
  8
Dimension120
  6
ByBlock
 62
    0
370
   -2
100
AcDbTrace
 10
120.886
 20
144.394
 30
0
 11
121.3022846577728
 21
141.894
 31
0
 12
120.4697153422272
 22
141.894
 32
0
 13
120.4697153422272
 23
141.894
 33
0
  0
SOLID
  5
186
100
AcDbEntity
  8
Dimension120
  6
ByBlock
 62
    0
370
   -2
100
AcDbTrace
 10
120.886
 20
130.882
 30
0
 11
120.4697153422272
 21
133.382
 31
0
 12
121.3022846577728
 22
133.382
 32
0
 13
121.3022846577728
 23
133.382
 33
0
  0
MTEXT
  5
187
100
AcDbEntity
  8
Dimension120
  6
CONTINUOUS
 62
    0
370
   -2
100
AcDbMText
 10
115.886
 20
140.735
 30
0
 40
2.5
 41
4.444444444444756
 71
    5
 72
    1
  1
135
  7
STANDARD
210
0
220
0
230
1
 50
90
 73
    2
 44
1
  0
LINE
  5
188
100
AcDbEntity
  8
Dimension120
  6
ByBlock
 62
    0
370
   -2
100
AcDbLine
 10
157.248
 20
144.394
 11
119.636
 21
144.394
  0
LINE
  5
189
100
AcDbEntity
  8
Dimension120
  6
ByBlock
 62
    0
370
   -2
100
AcDbLine
 10
157.248
 20
130.882
 11
119.636
 21
130.882
  0
ENDBLK
  5
C4
330
C2
100
AcDbEntity
  8
0
100
AcDbBlockEnd
  0
BLOCK
  5
C6
330
C5
100
AcDbEntity
  8
0
100
AcDbBlockBegin
  2
*D42
 70
    1
 10
0
 20
0
  3
*D42
  1

  0
LINE
  5
18A
100
AcDbEntity
  8
Dimension146
  6
ByBlock
 62
    0
370
   -2
100
AcDbLine
 10
75.6816
 20
159.436
 11
32.08160000000001
 21
159.436
  0
SOLID
  5
18B
100
AcDbEntity
  8
Dimension146
  6
ByBlock
 62
    0
370
   -2
100
AcDbTrace
 10
75.6816
 20
159.436
 30
0
 11
73.1816
 21
159.0197153422272
 31
0
 12
73.1816
 22
159.8522846577729
 32
0
 13
73.1816
 23
159.8522846577729
 33
0
  0
SOLID
  5
18C
100
AcDbEntity
  8
Dimension146
  6
ByBlock
 62
    0
370
   -2
100
AcDbTrace
 10
32.08160000000001
 20
159.436
 30
0
 11
34.58160000000001
 21
159.8522846577729
 31
0
 12
34.58160000000001
 22
159.0197153422272
 32
0
 13
34.58160000000001
 23
159.0197153422272
 33
0
  0
MTEXT
  5
18D
100
AcDbEntity
  8
Dimension146
  6
CONTINUOUS
 62
    0
370
   -2
100
AcDbMText
 10
57.21
 20
154.891
 30
0
 40
2.5
 41
4.444444444444445
 71
    5
 72
    1
  1
218
  7
STANDARD
210
0
220
0
230
1
 50
360
 73
    2
 44
1
  0
LINE
  5
18E
100
AcDbEntity
  8
Dimension146
  6
ByBlock
 62
    0
370
   -2
100
AcDbLine
 10
75.6816
 20
118.194
 11
75.6816
 21
160.686
  0
LINE
  5
18F
100
AcDbEntity
  8
Dimension146
  6
ByBlock
 62
    0
370
   -2
100
AcDbLine
 10
32.0816
 20
98.1938
 11
32.08160000000001
 21
160.686
  0
ENDBLK
  5
C7
330
C5
100
AcDbEntity
  8
0
100
AcDbBlockEnd
  0
BLOCK
  5
C9
330
C8
100
AcDbEntity
  8
0
100
AcDbBlockBegin
  2
*D20
 70
    1
 10
0
 20
0
  3
*D20
  1

  0
LINE
  5
190
100
AcDbEntity
  8
Dimension123
  6
ByBlock
 62
    0
370
   -2
100
AcDbLine
 10
193.1092589150977
 20
157.2725134106462
 11
186.4871981892031
 21
176.3718342265994
  0
LINE
  5
191
100
AcDbEntity
  8
Dimension123
  6
ByBlock
 62
    0
370
   -2
100
AcDbLine
 10
157.6682589150977
 20
144.9845134106462
 11
151.0461981892031
 21
164.0838342265995
  0
LINE
  5
192
100
AcDbEntity
  8
Dimension123
  6
ByBlock
 62
    0
370
   -2
100
AcDbLine
 10
186.8966803590076
 20
175.190807405307
 11
151.4556803590076
 21
162.902807405307
  0
SOLID
  5
193
100
AcDbEntity
  8
Dimension123
  6
ByBlock
 62
    0
370
   -2
100
AcDbTrace
 10
186.8966803590076
 20
175.190807405307
 30
0
 11
184.6709956323596
 21
173.9785283888001
 31
0
 12
184.3982578004857
 22
174.7651577425958
 32
0
 13
184.3982578004857
 23
174.7651577425958
 33
0
  0
SOLID
  5
194
100
AcDbEntity
  8
Dimension123
  6
ByBlock
 62
    0
370
   -2
100
AcDbTrace
 10
151.4556803590076
 20
162.902807405307
 30
0
 11
153.6813650856556
 21
164.1150864218138
 31
0
 12
153.9541029175294
 22
163.3284570680182
 32
0
 13
153.9541029175294
 23
163.3284570680182
 33
0
  0
MTEXT
  5
195
100
AcDbEntity
  8
Dimension123
  6
CONTINUOUS
 62
    0
370
   -2
100
AcDbMText
 10
169.425
 20
164.977
 30
0
 40
2.5
 41
5.000000000000311
 71
    5
 72
    1
  1
375
  7
STANDARD
210
0
220
0
230
1
 50
19.12230482598632
 73
    2
 44
1
  0
ENDBLK
  5
CA
330
C8
100
AcDbEntity
  8
0
100
AcDbBlockEnd
  0
BLOCK
  5
CC
330
CB
100
AcDbEntity
  8
0
100
AcDbBlockBegin
  2
*D43
 70
    1
 10
0
 20
0
  3
*D43
  1

  0
LINE
  5
196
100
AcDbEntity
  8
Dimension372
  6
ByBlock
 62
    0
370
   -2
100
AcDbLine
 10
280.211
 20
157.185
 11
280.211
 21
130.882
  0
SOLID
  5
197
100
AcDbEntity
  8
Dimension372
  6
ByBlock
 62
    0
370
   -2
100
AcDbTrace
 10
280.211
 20
157.185
 30
0
 11
280.6272846577729
 21
154.685
 31
0
 12
279.7947153422272
 22
154.685
 32
0
 13
279.7947153422272
 23
154.685
 33
0
  0
SOLID
  5
198
100
AcDbEntity
  8
Dimension372
  6
ByBlock
 62
    0
370
   -2
100
AcDbTrace
 10
280.211
 20
130.882
 30
0
 11
279.7947153422272
 21
133.382
 31
0
 12
280.6272846577729
 22
133.382
 32
0
 13
280.6272846577729
 23
133.382
 33
0
  0
MTEXT
  5
199
100
AcDbEntity
  8
Dimension372
  6
CONTINUOUS
 62
    0
370
   -2
100
AcDbMText
 10
275.243
 20
147.059
 30
0
 40
2.5
 41
5.000000000000311
 71
    5
 72
    1
  1
263
  7
STANDARD
210
0
220
0
230
1
 50
90
 73
    2
 44
1
  0
LINE
  5
19A
100
AcDbEntity
  8
Dimension372
  6
ByBlock
 62
    0
370
   -2
100
AcDbLine
 10
261.928
 20
157.185
 11
281.461
 21
157.185
  0
LINE
  5
19B
100
AcDbEntity
  8
Dimension372
  6
ByBlock
 62
    0
370
   -2
100
AcDbLine
 10
264.928
 20
130.882
 11
281.461
 21
130.882
  0
ENDBLK
  5
CD
330
CB
100
AcDbEntity
  8
0
100
AcDbBlockEnd
  0
BLOCK
  5
CF
330
CE
100
AcDbEntity
  8
0
100
AcDbBlockBegin
  2
*D7
 70
    1
 10
0
 20
0
  3
*D7
  1

  0
LINE
  5
19C
100
AcDbEntity
  8
Dimension109
  6
ByBlock
 62
    0
370
   -2
100
AcDbLine
 10
249.006
 20
162.185
 11
249.006
 21
130.882
  0
SOLID
  5
19D
100
AcDbEntity
  8
Dimension109
  6
ByBlock
 62
    0
370
   -2
100
AcDbTrace
 10
249.006
 20
162.185
 30
0
 11
249.4222846577728
 21
159.685
 31
0
 12
248.5897153422272
 22
159.685
 32
0
 13
248.5897153422272
 23
159.685
 33
0
  0
SOLID
  5
19E
100
AcDbEntity
  8
Dimension109
  6
ByBlock
 62
    0
370
   -2
100
AcDbTrace
 10
249.006
 20
130.882
 30
0
 11
248.5897153422272
 21
133.382
 31
0
 12
249.4222846577728
 22
133.382
 32
0
 13
249.4222846577728
 23
133.382
 33
0
  0
MTEXT
  5
19F
100
AcDbEntity
  8
Dimension109
  6
CONTINUOUS
 62
    0
370
   -2
100
AcDbMText
 10
244.012
 20
149.034
 30
0
 40
2.5
 41
4.444444444444756
 71
    5
 72
    1
  1
313
  7
STANDARD
210
0
220
0
230
1
 50
90
 73
    2
 44
1
  0
LINE
  5
1A0
100
AcDbEntity
  8
Dimension109
  6
ByBlock
 62
    0
370
   -2
100
AcDbLine
 10
254.178
 20
162.185
 11
247.756
 21
162.185
  0
LINE
  5
1A1
100
AcDbEntity
  8
Dimension109
  6
ByBlock
 62
    0
370
   -2
100
AcDbLine
 10
255.678
 20
130.882
 11
247.756
 21
130.882
  0
ENDBLK
  5
D0
330
CE
100
AcDbEntity
  8
0
100
AcDbBlockEnd
  0
BLOCK
  5
D2
330
D1
100
AcDbEntity
  8
0
100
AcDbBlockBegin
  2
*D4
 70
    1
 10
0
 20
0
  3
*D4
  1

  0
LINE
  5
1A2
100
AcDbEntity
  8
Dimension106
  6
ByBlock
 62
    0
370
   -2
100
AcDbLine
 10
274.403
 20
180.989
 11
274.403
 21
169.989
  0
SOLID
  5
1A3
100
AcDbEntity
  8
Dimension106
  6
ByBlock
 62
    0
370
   -2
100
AcDbTrace
 10
274.403
 20
175.989
 30
0
 11
273.9867153422272
 21
178.489
 31
0
 12
274.8192846577729
 22
178.489
 32
0
 13
274.8192846577729
 23
178.489
 33
0
  0
SOLID
  5
1A4
100
AcDbEntity
  8
Dimension106
  6
ByBlock
 62
    0
370
   -2
100
AcDbTrace
 10
274.403
 20
174.989
 30
0
 11
274.8192846577729
 21
172.489
 31
0
 12
273.9867153422272
 22
172.489
 32
0
 13
273.9867153422272
 23
172.489
 33
0
  0
MTEXT
  5
1A5
100
AcDbEntity
  8
Dimension106
  6
CONTINUOUS
 62
    0
370
   -2
100
AcDbMText
 10
269.403
 20
175.779
 30
0
 40
2.5
 41
2.5
 71
    5
 72
    1
  1
10
  7
STANDARD
210
0
220
0
230
1
 50
90
 73
    2
 44
1
  0
LINE
  5
1A6
100
AcDbEntity
  8
Dimension106
  6
ByBlock
 62
    0
370
   -2
100
AcDbLine
 10
261.928
 20
175.989
 11
275.653
 21
175.989
  0
LINE
  5
1A7
100
AcDbEntity
  8
Dimension106
  6
ByBlock
 62
    0
370
   -2
100
AcDbLine
 10
261.928
 20
174.989
 11
275.653
 21
174.989
  0
ENDBLK
  5
D3
330
D1
100
AcDbEntity
  8
0
100
AcDbBlockEnd
  0
BLOCK
  5
D5
330
D4
100
AcDbEntity
  8
0
100
AcDbBlockBegin
  2
*D13
 70
    1
 10
0
 20
0
  3
*D13
  1

  0
LINE
  5
1A8
100
AcDbEntity
  8
Dimension115
  6
ByBlock
 62
    0
370
   -2
100
AcDbLine
 10
132.6682486156543
 20
162.7755098395527
 11
128.8747349486105
 21
173.7161301143576
  0
LINE
  5
1A9
100
AcDbEntity
  8
Dimension115
  6
ByBlock
 62
    0
370
   -2
100
AcDbLine
 10
188.8982486156543
 20
182.2725098395527
 11
185.1047349486105
 21
193.2131301143576
  0
LINE
  5
1AA
100
AcDbEntity
  8
Dimension115
  6
ByBlock
 62
    0
370
   -2
100
AcDbLine
 10
129.2842377173019
 20
172.5351104352523
 11
185.5142377173019
 21
192.0321104352523
  0
SOLID
  5
1AB
100
AcDbEntity
  8
Dimension115
  6
ByBlock
 62
    0
370
   -2
100
AcDbTrace
 10
129.2842377173019
 20
172.5351104352523
 30
0
 11
131.5099012995752
 21
173.7474282709865
 31
0
 12
131.78265285145
 22
172.9608036742836
 32
0
 13
131.78265285145
 23
172.9608036742836
 33
0
  0
SOLID
  5
1AC
100
AcDbEntity
  8
Dimension115
  6
ByBlock
 62
    0
370
   -2
100
AcDbTrace
 10
185.5142377173019
 20
192.0321104352523
 30
0
 11
183.2885741350286
 21
190.819792599518
 31
0
 12
183.0158225831538
 22
191.606417196221
 32
0
 13
183.0158225831538
 23
191.606417196221
 33
0
  0
MTEXT
  5
1AD
100
AcDbEntity
  8
Dimension115
  6
CONTINUOUS
 62
    0
370
   -2
100
AcDbMText
 10
157.207
 20
186.373
 30
0
 40
2.5
 41
5.000000000000311
 71
    5
 72
    1
  1
595
  7
STANDARD
210
0
220
0
230
1
 50
19.12330415371368
 73
    2
 44
1
  0
ENDBLK
  5
D6
330
D4
100
AcDbEntity
  8
0
100
AcDbBlockEnd
  0
BLOCK
  5
D8
330
D7
100
AcDbEntity
  8
0
100
AcDbBlockBegin
  2
*D35
 70
    1
 10
0
 20
0
  3
*D35
  1

  0
LINE
  5
1AE
100
AcDbEntity
  8
Dimension139
  6
ByBlock
 62
    0
370
   -2
100
AcDbLine
 10
75.6816
 20
140.986
 11
64.6816
 21
140.986
  0
SOLID
  5
1AF
100
AcDbEntity
  8
Dimension139
  6
ByBlock
 62
    0
370
   -2
100
AcDbTrace
 10
75.6816
 20
140.986
 30
0
 11
73.1816
 21
140.5697153422271
 31
0
 12
73.1816
 22
141.4022846577728
 32
0
 13
73.1816
 23
141.4022846577728
 33
0
  0
SOLID
  5
1B0
100
AcDbEntity
  8
Dimension139
  6
ByBlock
 62
    0
370
   -2
100
AcDbTrace
 10
64.6816
 20
140.986
 30
0
 11
67.1816
 21
141.4022846577728
 31
0
 12
67.1816
 22
140.5697153422271
 32
0
 13
67.1816
 23
140.5697153422271
 33
0
  0
MTEXT
  5
1B1
100
AcDbEntity
  8
Dimension139
  6
CONTINUOUS
 62
    0
370
   -2
100
AcDbMText
 10
69.446
 20
139.66
 30
0
 40
2.5
 41
3.055555555555866
 71
    5
 72
    1
  1
55
  7
STANDARD
210
0
220
0
230
1
 50
360
 73
    2
 44
1
  0
LINE
  5
1B2
100
AcDbEntity
  8
Dimension139
  6
ByBlock
 62
    0
370
   -2
100
AcDbLine
 10
75.6816
 20
118.194
 11
75.6816
 21
142.236
  0
LINE
  5
1B3
100
AcDbEntity
  8
Dimension139
  6
ByBlock
 62
    0
370
   -2
100
AcDbLine
 10
64.6816
 20
78.1938
 11
64.6816
 21
142.236
  0
ENDBLK
  5
D9
330
D7
100
AcDbEntity
  8
0
100
AcDbBlockEnd
  0
BLOCK
  5
DB
330
DA
100
AcDbEntity
  8
0
100
AcDbBlockBegin
  2
*D14
 70
    1
 10
0
 20
0
  3
*D14
  1

  0
LINE
  5
1B4
100
AcDbEntity
  8
Dimension116
  6
ByBlock
 62
    0
370
   -2
100
AcDbLine
 10
110.886
 20
130.882
 11
110.886
 21
162.185
  0
SOLID
  5
1B5
100
AcDbEntity
  8
Dimension116
  6
ByBlock
 62
    0
370
   -2
100
AcDbTrace
 10
110.886
 20
130.882
 30
0
 11
110.4697153422272
 21
133.382
 31
0
 12
111.3022846577728
 22
133.382
 32
0
 13
111.3022846577728
 23
133.382
 33
0
  0
SOLID
  5
1B6
100
AcDbEntity
  8
Dimension116
  6
ByBlock
 62
    0
370
   -2
100
AcDbTrace
 10
110.886
 20
162.185
 30
0
 11
111.3022846577728
 21
159.685
 31
0
 12
110.4697153422272
 22
159.685
 32
0
 13
110.4697153422272
 23
159.685
 33
0
  0
MTEXT
  5
1B7
100
AcDbEntity
  8
Dimension116
  6
CONTINUOUS
 62
    0
370
   -2
100
AcDbMText
 10
115.886
 20
159.381
 30
0
 40
2.5
 41
4.444444444444756
 71
    5
 72
    1
  1
313
  7
STANDARD
210
0
220
0
230
1
 50
90
 73
    2
 44
1
  0
LINE
  5
1B8
100
AcDbEntity
  8
Dimension116
  6
ByBlock
 62
    0
370
   -2
100
AcDbLine
 10
132.248
 20
130.882
 11
109.636
 21
130.882
  0
LINE
  5
1B9
100
AcDbEntity
  8
Dimension116
  6
ByBlock
 62
    0
370
   -2
100
AcDbLine
 10
132.248
 20
162.185
 11
109.636
 21
162.185
  0
ENDBLK
  5
DC
330
DA
100
AcDbEntity
  8
0
100
AcDbBlockEnd
  0
BLOCK
  5
DE
330
DD
100
AcDbEntity
  8
0
100
AcDbBlockBegin
  2
*D31
 70
    1
 10
0
 20
0
  3
*D31
  1

  0
LINE
  5
1BA
100
AcDbEntity
  8
Dimension134
  6
ByBlock
 62
    0
370
   -2
100
AcDbLine
 10
108.26
 20
117.569
 11
108.26
 21
106.183
  0
SOLID
  5
1BB
100
AcDbEntity
  8
Dimension134
  6
ByBlock
 62
    0
370
   -2
100
AcDbTrace
 10
108.26
 20
117.569
 30
0
 11
108.6762846577728
 21
115.069
 31
0
 12
107.8437153422272
 22
115.069
 32
0
 13
107.8437153422272
 23
115.069
 33
0
  0
SOLID
  5
1BC
100
AcDbEntity
  8
Dimension134
  6
ByBlock
 62
    0
370
   -2
100
AcDbTrace
 10
108.26
 20
106.183
 30
0
 11
107.8437153422272
 21
108.683
 31
0
 12
108.6762846577728
 22
108.683
 32
0
 13
108.6762846577728
 23
108.683
 33
0
  0
MTEXT
  5
1BD
100
AcDbEntity
  8
Dimension134
  6
CONTINUOUS
 62
    0
370
   -2
100
AcDbMText
 10
103.682
 20
89.4468
 30
0
 40
2.5
 41
3.055555555555711
 71
    5
 72
    1
  1
57
  7
STANDARD
210
0
220
0
230
1
 50
90
 73
    2
 44
1
  0
LINE
  5
1BE
100
AcDbEntity
  8
Dimension134
  6
ByBlock
 62
    0
370
   -2
100
AcDbLine
 10
76.3066
 20
117.569
 11
109.51
 21
117.569
  0
LINE
  5
1BF
100
AcDbEntity
  8
Dimension134
  6
ByBlock
 62
    0
370
   -2
100
AcDbLine
 10
71.3066
 20
106.183
 11
109.51
 21
106.183
  0
ENDBLK
  5
DF
330
DD
100
AcDbEntity
  8
0
100
AcDbBlockEnd
  0
BLOCK
  5
E1
330
E0
100
AcDbEntity
  8
0
100
AcDbBlockBegin
  2
*D28
 70
    1
 10
0
 20
0
  3
*D28
  1

  0
LINE
  5
1C0
100
AcDbEntity
  8
Dimension131
  6
ByBlock
 62
    0
370
   -2
100
AcDbLine
 10
86.4166
 20
117.569
 11
86.4166
 21
89.5688
  0
SOLID
  5
1C1
100
AcDbEntity
  8
Dimension131
  6
ByBlock
 62
    0
370
   -2
100
AcDbTrace
 10
86.4166
 20
117.569
 30
0
 11
86.83288465777284
 21
115.069
 31
0
 12
86.00031534222717
 22
115.069
 32
0
 13
86.00031534222717
 23
115.069
 33
0
  0
SOLID
  5
1C2
100
AcDbEntity
  8
Dimension131
  6
ByBlock
 62
    0
370
   -2
100
AcDbTrace
 10
86.4166
 20
89.5688
 30
0
 11
86.00031534222717
 21
92.0688
 31
0
 12
86.83288465777284
 22
92.0688
 32
0
 13
86.83288465777284
 23
92.0688
 33
0
  0
MTEXT
  5
1C3
100
AcDbEntity
  8
Dimension131
  6
CONTINUOUS
 62
    0
370
   -2
100
AcDbMText
 10
81.8449
 20
72.1953
 30
0
 40
2.5
 41
4.722222222222222
 71
    5
 72
    1
  1
140
  7
STANDARD
210
0
220
0
230
1
 50
90
 73
    2
 44
1
  0
LINE
  5
1C4
100
AcDbEntity
  8
Dimension131
  6
ByBlock
 62
    0
370
   -2
100
AcDbLine
 10
76.3066
 20
117.569
 11
87.6666
 21
117.569
  0
LINE
  5
1C5
100
AcDbEntity
  8
Dimension131
  6
ByBlock
 62
    0
370
   -2
100
AcDbLine
 10
63.9066
 20
89.5688
 11
87.6666
 21
89.5688
  0
ENDBLK
  5
E2
330
E0
100
AcDbEntity
  8
0
100
AcDbBlockEnd
  0
BLOCK
  5
E4
330
E3
100
AcDbEntity
  8
0
100
AcDbBlockBegin
  2
*D3
 70
    1
 10
0
 20
0
  3
*D3
  1

  0
LINE
  5
1C6
100
AcDbEntity
  8
Dimension105
  6
ByBlock
 62
    0
370
   -2
100
AcDbLine
 10
274.403
 20
162.185
 11
274.403
 21
151.185
  0
SOLID
  5
1C7
100
AcDbEntity
  8
Dimension105
  6
ByBlock
 62
    0
370
   -2
100
AcDbTrace
 10
274.403
 20
157.185
 30
0
 11
273.9867153422272
 21
159.685
 31
0
 12
274.8192846577729
 22
159.685
 32
0
 13
274.8192846577729
 23
159.685
 33
0
  0
SOLID
  5
1C8
100
AcDbEntity
  8
Dimension105
  6
ByBlock
 62
    0
370
   -2
100
AcDbTrace
 10
274.403
 20
156.185
 30
0
 11
274.8192846577729
 21
153.685
 31
0
 12
273.9867153422272
 22
153.685
 32
0
 13
273.9867153422272
 23
153.685
 33
0
  0
MTEXT
  5
1C9
100
AcDbEntity
  8
Dimension105
  6
CONTINUOUS
 62
    0
370
   -2
100
AcDbMText
 10
269.403
 20
157.281
 30
0
 40
2.5
 41
2.5
 71
    5
 72
    1
  1
10
  7
STANDARD
210
0
220
0
230
1
 50
90
 73
    2
 44
1
  0
LINE
  5
1CA
100
AcDbEntity
  8
Dimension105
  6
ByBlock
 62
    0
370
   -2
100
AcDbLine
 10
261.928
 20
157.185
 11
275.653
 21
157.185
  0
LINE
  5
1CB
100
AcDbEntity
  8
Dimension105
  6
ByBlock
 62
    0
370
   -2
100
AcDbLine
 10
261.928
 20
156.185
 11
275.653
 21
156.185
  0
ENDBLK
  5
E5
330
E3
100
AcDbEntity
  8
0
100
AcDbBlockEnd
  0
BLOCK
  5
E7
330
E6
100
AcDbEntity
  8
0
100
AcDbBlockBegin
  2
*D1
 70
    1
 10
0
 20
0
  3
*D1
  1

  0
LINE
  5
1CC
100
AcDbEntity
  8
Dimension103
  6
ByBlock
 62
    0
370
   -2
100
AcDbLine
 10
261.303
 20
123.08
 11
249.803
 21
123.08
  0
SOLID
  5
1CD
100
AcDbEntity
  8
Dimension103
  6
ByBlock
 62
    0
370
   -2
100
AcDbTrace
 10
256.303
 20
123.08
 30
0
 11
258.803
 21
123.4962846577728
 31
0
 12
258.803
 22
122.6637153422272
 32
0
 13
258.803
 23
122.6637153422272
 33
0
  0
SOLID
  5
1CE
100
AcDbEntity
  8
Dimension103
  6
ByBlock
 62
    0
370
   -2
100
AcDbTrace
 10
254.803
 20
123.08
 30
0
 11
252.303
 21
122.6637153422272
 31
0
 12
252.303
 22
123.4962846577728
 32
0
 13
252.303
 23
123.4962846577728
 33
0
  0
MTEXT
  5
1CF
100
AcDbEntity
  8
Dimension103
  6
CONTINUOUS
 62
    0
370
   -2
100
AcDbMText
 10
248.1520000000001
 20
119.545
 30
0
 40
2.5
 41
2.500000000000155
 71
    5
 72
    1
  1
15
  7
STANDARD
210
0
220
0
230
1
 50
360
 73
    2
 44
1
  0
LINE
  5
1D0
100
AcDbEntity
  8
Dimension103
  6
ByBlock
 62
    0
370
   -2
100
AcDbLine
 10
256.303
 20
130.257
 11
256.303
 21
121.83
  0
LINE
  5
1D1
100
AcDbEntity
  8
Dimension103
  6
ByBlock
 62
    0
370
   -2
100
AcDbLine
 10
254.803
 20
128.757
 11
254.803
 21
121.83
  0
ENDBLK
  5
E8
330
E6
100
AcDbEntity
  8
0
100
AcDbBlockEnd
  0
BLOCK
  5
EA
330
E9
100
AcDbEntity
  8
0
100
AcDbBlockBegin
  2
*D23
 70
    1
 10
0
 20
0
  3
*D23
  1

  0
LINE
  5
1D2
100
AcDbEntity
  8
Dimension126
  6
ByBlock
 62
    0
370
   -2
100
AcDbLine
 10
132.873
 20
103.003
 11
193.314
 21
103.003
  0
SOLID
  5
1D3
100
AcDbEntity
  8
Dimension126
  6
ByBlock
 62
    0
370
   -2
100
AcDbTrace
 10
132.873
 20
103.003
 30
0
 11
135.373
 21
103.4192846577728
 31
0
 12
135.373
 22
102.5867153422272
 32
0
 13
135.373
 23
102.5867153422272
 33
0
  0
SOLID
  5
1D4
100
AcDbEntity
  8
Dimension126
  6
ByBlock
 62
    0
370
   -2
100
AcDbTrace
 10
193.314
 20
103.003
 30
0
 11
190.814
 21
102.5867153422272
 31
0
 12
190.814
 22
103.4192846577728
 32
0
 13
190.814
 23
103.4192846577728
 33
0
  0
MTEXT
  5
1D5
100
AcDbEntity
  8
Dimension126
  6
CONTINUOUS
 62
    0
370
   -2
100
AcDbMText
 10
182.992
 20
108.003
 30
0
 40
2.5
 41
5.277777777777933
 71
    5
 72
    1
  1
604
  7
STANDARD
210
0
220
0
230
1
 50
0
 73
    2
 44
1
  0
LINE
  5
1D6
100
AcDbEntity
  8
Dimension126
  6
ByBlock
 62
    0
370
   -2
100
AcDbLine
 10
132.873
 20
156.057
 11
132.873
 21
101.753
  0
LINE
  5
1D7
100
AcDbEntity
  8
Dimension126
  6
ByBlock
 62
    0
370
   -2
100
AcDbLine
 10
193.314
 20
156.057
 11
193.314
 21
101.753
  0
ENDBLK
  5
EB
330
E9
100
AcDbEntity
  8
0
100
AcDbBlockEnd
  0
BLOCK
  5
ED
330
EC
100
AcDbEntity
  8
0
100
AcDbBlockBegin
  2
*D32
 70
    1
 10
0
 20
0
  3
*D32
  1

  0
LINE
  5
1D8
100
AcDbEntity
  8
Dimension136
  6
ByBlock
 62
    0
370
   -2
100
AcDbLine
 10
122.366
 20
117.569
 11
122.366
 21
104.183
  0
SOLID
  5
1D9
100
AcDbEntity
  8
Dimension136
  6
ByBlock
 62
    0
370
   -2
100
AcDbTrace
 10
122.366
 20
117.569
 30
0
 11
122.7822846577728
 21
115.069
 31
0
 12
121.9497153422272
 22
115.069
 32
0
 13
121.9497153422272
 23
115.069
 33
0
  0
SOLID
  5
1DA
100
AcDbEntity
  8
Dimension136
  6
ByBlock
 62
    0
370
   -2
100
AcDbTrace
 10
122.366
 20
104.183
 30
0
 11
121.9497153422272
 21
106.683
 31
0
 12
122.7822846577728
 22
106.683
 32
0
 13
122.7822846577728
 23
106.683
 33
0
  0
MTEXT
  5
1DB
100
AcDbEntity
  8
Dimension136
  6
CONTINUOUS
 62
    0
370
   -2
100
AcDbMText
 10
117.682
 20
93.754
 30
0
 40
2.5
 41
3.055555555555711
 71
    5
 72
    1
  1
67
  7
STANDARD
210
0
220
0
230
1
 50
90
 73
    2
 44
1
  0
LINE
  5
1DC
100
AcDbEntity
  8
Dimension136
  6
ByBlock
 62
    0
370
   -2
100
AcDbLine
 10
76.3066
 20
117.569
 11
123.616
 21
117.569
  0
LINE
  5
1DD
100
AcDbEntity
  8
Dimension136
  6
ByBlock
 62
    0
370
   -2
100
AcDbLine
 10
71.3066
 20
104.183
 11
123.616
 21
104.183
  0
ENDBLK
  5
EE
330
EC
100
AcDbEntity
  8
0
100
AcDbBlockEnd
  0
BLOCK
  5
F0
330
EF
100
AcDbEntity
  8
0
100
AcDbBlockBegin
  2
*D39
 70
    1
 10
0
 20
0
  3
*D39
  1

  0
LINE
  5
1DE
100
AcDbEntity
  8
Dimension143
  6
ByBlock
 62
    0
370
   -2
100
AcDbLine
 10
266.303
 20
175.989
 11
266.303
 21
157.185
  0
SOLID
  5
1DF
100
AcDbEntity
  8
Dimension143
  6
ByBlock
 62
    0
370
   -2
100
AcDbTrace
 10
266.303
 20
175.989
 30
0
 11
266.7192846577728
 21
173.489
 31
0
 12
265.8867153422271
 22
173.489
 32
0
 13
265.8867153422271
 23
173.489
 33
0
  0
SOLID
  5
1E0
100
AcDbEntity
  8
Dimension143
  6
ByBlock
 62
    0
370
   -2
100
AcDbTrace
 10
266.303
 20
157.185
 30
0
 11
265.8867153422271
 21
159.685
 31
0
 12
266.7192846577728
 22
159.685
 32
0
 13
266.7192846577728
 23
159.685
 33
0
  0
MTEXT
  5
1E1
100
AcDbEntity
  8
Dimension143
  6
CONTINUOUS
 62
    0
370
   -2
100
AcDbMText
 10
261.303
 20
169.087
 30
0
 40
2.5
 41
4.444444444444445
 71
    5
 72
    1
  1
188
  7
STANDARD
210
0
220
0
230
1
 50
90
 73
    2
 44
1
  0
LINE
  5
1E2
100
AcDbEntity
  8
Dimension143
  6
ByBlock
 62
    0
370
   -2
100
AcDbLine
 10
261.928
 20
175.989
 11
267.553
 21
175.989
  0
LINE
  5
1E3
100
AcDbEntity
  8
Dimension143
  6
ByBlock
 62
    0
370
   -2
100
AcDbLine
 10
261.928
 20
157.185
 11
267.553
 21
157.185
  0
ENDBLK
  5
F1
330
EF
100
AcDbEntity
  8
0
100
AcDbBlockEnd
  0
BLOCK
  5
F3
330
F2
100
AcDbEntity
  8
0
100
AcDbBlockBegin
  2
*D11
 70
    1
 10
0
 20
0
  3
*D11
  1

  0
LINE
  5
1E4
100
AcDbEntity
  8
Dimension113
  6
ByBlock
 62
    0
370
   -2
100
AcDbLine
 10
189.6935098395527
 20
181.8867513843457
 11
203.6329469686908
 21
186.7200646638549
  0
LINE
  5
1E5
100
AcDbEntity
  8
Dimension113
  6
ByBlock
 62
    0
370
   -2
100
AcDbLine
 10
188.478
 20
181.682
 11
173.7243962119394
 21
181.682
  0
ARC
  5
1E6
100
AcDbEntity
  8
Dimension113
  6
ByBlock
 62
    0
370
   -2
100
AcDbCircle
 10
189.103
 20
181.682
 40
14.12860378806058
100
AcDbArc
 50
19.12330415371368
 51
180
  0
SOLID
  5
1E7
100
AcDbEntity
  8
Dimension113
  6
ByBlock
 62
    0
370
   -2
100
AcDbTrace
 10
202.4519272895855
 20
186.3105618951636
 30
0
 11
201.0476966974275
 21
188.4204029698288
 31
0
 12
201.8071449805925
 22
188.7615920235599
 32
0
 13
201.8071449805925
 23
188.7615920235599
 33
0
  0
SOLID
  5
1E8
100
AcDbEntity
  8
Dimension113
  6
ByBlock
 62
    0
370
   -2
100
AcDbTrace
 10
174.9743962119394
 20
181.682
 30
0
 11
174.7806337894878
 21
184.2090039651616
 31
0
 12
175.6099467733523
 22
184.1354401154674
 32
0
 13
175.6099467733523
 23
184.1354401154674
 33
0
  0
MTEXT
  5
1E9
100
AcDbEntity
  8
Dimension113
  6
CONTINUOUS
 62
    0
370
   -2
100
AcDbMText
 10
186.6522968046711
 20
196.2306383755828
 30
0
 40
2.5
 41
5.55555555555571
 71
    8
 72
    1
  1
161%%D
  7
STANDARD
210
0
220
0
230
1
 50
369.5616520768569
 73
    2
 44
1
  0
ENDBLK
  5
F4
330
F2
100
AcDbEntity
  8
0
100
AcDbBlockEnd
  0
BLOCK
  5
F6
330
F5
100
AcDbEntity
  8
0
100
AcDbBlockBegin
  2
*D36
 70
    1
 10
0
 20
0
  3
*D36
  1

  0
LINE
  5
1EA
100
AcDbEntity
  8
Dimension140
  6
ByBlock
 62
    0
370
   -2
100
AcDbLine
 10
75.6816
 20
150.475
 11
52.0816
 21
150.475
  0
SOLID
  5
1EB
100
AcDbEntity
  8
Dimension140
  6
ByBlock
 62
    0
370
   -2
100
AcDbTrace
 10
75.6816
 20
150.475
 30
0
 11
73.1816
 21
150.0587153422271
 31
0
 12
73.1816
 22
150.8912846577728
 32
0
 13
73.1816
 23
150.8912846577728
 33
0
  0
SOLID
  5
1EC
100
AcDbEntity
  8
Dimension140
  6
ByBlock
 62
    0
370
   -2
100
AcDbTrace
 10
52.0816
 20
150.475
 30
0
 11
54.5816
 21
150.8912846577728
 31
0
 12
54.5816
 22
150.0587153422271
 32
0
 13
54.5816
 23
150.0587153422271
 33
0
  0
MTEXT
  5
1ED
100
AcDbEntity
  8
Dimension140
  6
CONTINUOUS
 62
    0
370
   -2
100
AcDbMText
 10
63.146
 20
146.66
 30
0
 40
2.5
 41
3.888888888888889
 71
    5
 72
    1
  1
118
  7
STANDARD
210
0
220
0
230
1
 50
360
 73
    2
 44
1
  0
LINE
  5
1EE
100
AcDbEntity
  8
Dimension140
  6
ByBlock
 62
    0
370
   -2
100
AcDbLine
 10
75.6816
 20
118.194
 11
75.6816
 21
151.725
  0
LINE
  5
1EF
100
AcDbEntity
  8
Dimension140
  6
ByBlock
 62
    0
370
   -2
100
AcDbLine
 10
52.0816
 20
98.1938
 11
52.0816
 21
151.725
  0
ENDBLK
  5
F7
330
F5
100
AcDbEntity
  8
0
100
AcDbBlockEnd
  0
BLOCK
  5
F9
330
F8
100
AcDbEntity
  8
0
100
AcDbBlockBegin
  2
*D10
 70
    1
 10
0
 20
0
  3
*D10
  1

  0
LINE
  5
1F0
100
AcDbEntity
  8
Dimension112
  6
ByBlock
 62
    0
370
   -2
100
AcDbLine
 10
132.2824901604473
 20
161.9802486156543
 11
119.7446928579666
 21
157.632935188543
  0
LINE
  5
1F1
100
AcDbEntity
  8
Dimension112
  6
ByBlock
 62
    0
370
   -2
100
AcDbLine
 10
132.873
 20
162.81
 11
132.873
 21
176.080097785308
  0
ARC
  5
1F2
100
AcDbEntity
  8
Dimension112
  6
ByBlock
 62
    0
370
   -2
100
AcDbCircle
 10
132.873
 20
162.185
 40
12.64509778530796
100
AcDbArc
 50
90
 51
199.1233041537137
  0
SOLID
  5
1F3
100
AcDbEntity
  8
Dimension112
  6
ByBlock
 62
    0
370
   -2
100
AcDbTrace
 10
120.9257125370719
 20
158.0424379572344
 30
0
 11
119.9389675044755
 21
160.3768816076452
 31
0
 12
120.7486701440657
 22
160.5706683477202
 32
0
 13
120.7486701440657
 23
160.5706683477202
 33
0
  0
SOLID
  5
1F4
100
AcDbEntity
  8
Dimension112
  6
ByBlock
 62
    0
370
   -2
100
AcDbTrace
 10
132.873
 20
174.830097785308
 30
0
 11
130.4262886443299
 21
174.1691163496141
 31
0
 12
130.3441210290093
 22
174.9976211161548
 32
0
 13
130.3441210290093
 23
174.9976211161548
 33
0
  0
MTEXT
  5
1F5
100
AcDbEntity
  8
Dimension112
  6
CONTINUOUS
 62
    0
370
   -2
100
AcDbMText
 10
122.0613218344055
 20
169.8793557543984
 30
0
 40
2.5
 41
6.111111111111111
 71
    8
 72
    1
  1
109%%D
  7
STANDARD
210
0
220
0
230
1
 50
414.5616520768568
 73
    2
 44
1
  0
ENDBLK
  5
FA
330
F8
100
AcDbEntity
  8
0
100
AcDbBlockEnd
  0
BLOCK
  5
FC
330
FB
100
AcDbEntity
  8
0
100
AcDbBlockBegin
  2
*D33
 70
    1
 10
0
 20
0
  3
*D33
  1

  0
LINE
  5
1F6
100
AcDbEntity
  8
Dimension137
  6
ByBlock
 62
    0
370
   -2
100
AcDbLine
 10
129.457
 20
117.569
 11
129.457
 21
77.5688
  0
SOLID
  5
1F7
100
AcDbEntity
  8
Dimension137
  6
ByBlock
 62
    0
370
   -2
100
AcDbTrace
 10
129.457
 20
117.569
 30
0
 11
129.8732846577728
 21
115.069
 31
0
 12
129.0407153422271
 22
115.069
 32
0
 13
129.0407153422271
 23
115.069
 33
0
  0
SOLID
  5
1F8
100
AcDbEntity
  8
Dimension137
  6
ByBlock
 62
    0
370
   -2
100
AcDbTrace
 10
129.457
 20
77.5688
 30
0
 11
129.0407153422271
 21
80.0688
 31
0
 12
129.8732846577728
 22
80.0688
 32
0
 13
129.8732846577728
 23
80.0688
 33
0
  0
MTEXT
  5
1F9
100
AcDbEntity
  8
Dimension137
  6
CONTINUOUS
 62
    0
370
   -2
100
AcDbMText
 10
124.682
 20
99.4468
 30
0
 40
2.5
 41
5
 71
    5
 72
    1
  1
200
  7
STANDARD
210
0
220
0
230
1
 50
90
 73
    2
 44
1
  0
LINE
  5
1FA
100
AcDbEntity
  8
Dimension137
  6
ByBlock
 62
    0
370
   -2
100
AcDbLine
 10
76.3066
 20
117.569
 11
130.707
 21
117.569
  0
LINE
  5
1FB
100
AcDbEntity
  8
Dimension137
  6
ByBlock
 62
    0
370
   -2
100
AcDbLine
 10
63.9066
 20
77.5688
 11
130.707
 21
77.5688
  0
ENDBLK
  5
FD
330
FB
100
AcDbEntity
  8
0
100
AcDbBlockEnd
  0
ENDSEC
  0
SECTION
  2
ENTITIES
  0
LINE
  5
1FC
100
AcDbEntity
  8
ProjItem079
  6
ByLayer
 62
  256
370
   -1
100
AcDbLine
 10
157.873
 20
129.382
 11
157.873
 21
130.882
  0
LINE
  5
1FD
100
AcDbEntity
  8
ProjItem079
  6
ByLayer
 62
  256
370
   -1
100
AcDbLine
 10
132.873
 20
129.382
 11
132.873
 21
130.882
  0
LINE
  5
1FE
100
AcDbEntity
  8
ProjItem079
  6
ByLayer
 62
  256
370
   -1
100
AcDbLine
 10
157.873
 20
129.382
 11
132.873
 21
129.382
  0
LINE
  5
1FF
100
AcDbEntity
  8
ProjItem079
  6
ByLayer
 62
  256
370
   -1
100
AcDbLine
 10
157.873
 20
130.882
 11
132.873
 21
130.882
  0
LINE
  5
200
100
AcDbEntity
  8
ProjItem079
  6
ByLayer
 62
  256
370
   -1
100
AcDbLine
 10
157.873
 20
144.394
 11
157.873
 21
130.882
  0
LINE
  5
201
100
AcDbEntity
  8
ProjItem079
  6
ByLayer
 62
  256
370
   -1
100
AcDbLine
 10
132.873
 20
130.882
 11
132.873
 21
162.185
  0
LINE
  5
202
100
AcDbEntity
  8
ProjItem079
  6
ByLayer
 62
  256
370
   -1
100
AcDbLine
 10
193.314
 20
156.682
 11
157.873
 21
144.394
  0
LINE
  5
203
100
AcDbEntity
  8
ProjItem079
  6
ByLayer
 62
  256
370
   -1
100
AcDbLine
 10
132.873
 20
162.185
 11
189.103
 21
181.682
  0
LINE
  5
204
100
AcDbEntity
  8
ProjItem079
  6
ByLayer
 62
  256
370
   -1
100
AcDbLine
 10
189.103
 20
181.682
 11
221.373
 21
181.682
  0
LINE
  5
205
100
AcDbEntity
  8
ProjItem079
  6
ByLayer
 62
  256
370
   -1
100
AcDbLine
 10
221.373
 20
156.682
 11
193.314
 21
156.682
  0
LINE
  5
206
100
AcDbEntity
  8
ProjItem079
  6
ByLayer
 62
  256
370
   -1
100
AcDbLine
 10
221.373
 20
181.682
 11
221.373
 21
156.682
  0
CIRCLE
  5
207
100
AcDbEntity
  8
ProjItem079
  6
ByLayer
 62
  256
370
   -1
100
AcDbCircle
 10
215.873
 20
161.682
 40
0.7
  0
CIRCLE
  5
208
100
AcDbEntity
  8
ProjItem079
  6
ByLayer
 62
  256
370
   -1
100
AcDbCircle
 10
215.873
 20
167.682
 40
0.7
  0
CIRCLE
  5
209
100
AcDbEntity
  8
ProjItem079
  6
ByLayer
 62
  256
370
   -1
100
AcDbCircle
 10
199.573
 20
171.682
 40
0.7
  0
CIRCLE
  5
20A
100
AcDbEntity
  8
ProjItem079
  6
ByLayer
 62
  256
370
   -1
100
AcDbCircle
 10
209.573
 20
171.682
 40
0.7
  0
LINE
  5
20B
100
AcDbEntity
  8
ProjItem079
  6
ByLayer
 62
  256
370
   -1
100
AcDbLine
 10
134.873
 20
156.185
 11
134.873
 21
157.185
  0
LINE
  5
20C
100
AcDbEntity
  8
ProjItem079
  6
ByLayer
 62
  256
370
   -1
100
AcDbLine
 10
187.78
 20
156.185
 11
134.873
 21
156.185
  0
LINE
  5
20D
100
AcDbEntity
  8
ProjItem079
  6
ByLayer
 62
  256
370
   -1
100
AcDbLine
 10
134.873
 20
157.185
 11
187.78
 21
157.185
  0
LINE
  5
20E
100
AcDbEntity
  8
ProjItem079
  6
ByLayer
 62
  256
370
   -1
100
AcDbLine
 10
187.78
 20
157.185
 11
187.78
 21
156.185
  0
LINE
  5
20F
100
AcDbEntity
  8
ProjItem079
  6
ByLayer
 62
  256
370
   -1
100
AcDbLine
 10
188.273
 20
174.989
 11
188.273
 21
175.989
  0
LINE
  5
210
100
AcDbEntity
  8
ProjItem079
  6
ByLayer
 62
  256
370
   -1
100
AcDbLine
 10
218.873
 20
174.989
 11
188.273
 21
174.989
  0
LINE
  5
211
100
AcDbEntity
  8
ProjItem079
  6
ByLayer
 62
  256
370
   -1
100
AcDbLine
 10
188.273
 20
175.989
 11
218.873
 21
175.989
  0
LINE
  5
212
100
AcDbEntity
  8
ProjItem079
  6
ByLayer
 62
  256
370
   -1
100
AcDbLine
 10
218.873
 20
175.989
 11
218.873
 21
174.989
  0
LINE
  5
213
100
AcDbEntity
  8
ProjItem079
  6
ByLayer
 62
  256
370
   -1
100
AcDbLine
 10
189.103
 20
129.382
 11
193.314
 21
154.382
  0
LINE
  5
214
100
AcDbEntity
  8
ProjItem079
  6
ByLayer
 62
  256
370
   -1
100
AcDbLine
 10
132.873
 20
148.878
 11
157.873
 21
166.67
  0
LINE
  5
215
100
AcDbEntity
  8
ProjItem081
  6
ByLayer
 62
  256
370
   -1
100
AcDbLine
 10
264.303
 20
129.382
 11
264.303
 21
130.882
  0
LINE
  5
216
100
AcDbEntity
  8
ProjItem081
  6
ByLayer
 62
  256
370
   -1
100
AcDbLine
 10
264.303
 20
129.382
 11
254.803
 21
129.382
  0
LINE
  5
217
100
AcDbEntity
  8
ProjItem081
  6
ByLayer
 62
  256
370
   -1
100
AcDbLine
 10
264.303
 20
130.882
 11
256.303
 21
130.882
  0
LINE
  5
218
100
AcDbEntity
  8
ProjItem081
  6
ByLayer
 62
  256
370
   -1
100
AcDbLine
 10
256.303
 20
130.882
 11
256.303
 21
162.185
  0
LINE
  5
219
100
AcDbEntity
  8
ProjItem081
  6
ByLayer
 62
  256
370
   -1
100
AcDbLine
 10
256.303
 20
162.185
 11
254.803
 21
162.185
  0
LINE
  5
21A
100
AcDbEntity
  8
ProjItem081
  6
ByLayer
 62
  256
370
   -1
100
AcDbLine
 10
254.803
 20
129.382
 11
254.803
 21
162.185
  0
LINE
  5
21B
100
AcDbEntity
  8
ProjItem081
  6
ByLayer
 62
  256
370
   -1
100
AcDbLine
 10
256.303
 20
162.185
 11
256.303
 21
181.682
  0
LINE
  5
21C
100
AcDbEntity
  8
ProjItem081
  6
ByLayer
 62
  256
370
   -1
100
AcDbLine
 10
254.803
 20
162.185
 11
254.803
 21
181.682
  0
LINE
  5
21D
100
AcDbEntity
  8
ProjItem081
  6
ByLayer
 62
  256
370
   -1
100
AcDbLine
 10
256.303
 20
181.682
 11
254.803
 21
181.682
  0
LINE
  5
21E
100
AcDbEntity
  8
ProjItem081
  6
ByLayer
 62
  256
370
   -1
100
AcDbLine
 10
256.303
 20
156.185
 11
261.303
 21
156.185
  0
LINE
  5
21F
100
AcDbEntity
  8
ProjItem081
  6
ByLayer
 62
  256
370
   -1
100
AcDbLine
 10
256.303
 20
157.185
 11
261.303
 21
157.185
  0
LINE
  5
220
100
AcDbEntity
  8
ProjItem081
  6
ByLayer
 62
  256
370
   -1
100
AcDbLine
 10
261.303
 20
156.185
 11
261.303
 21
157.185
  0
LINE
  5
221
100
AcDbEntity
  8
ProjItem081
  6
ByLayer
 62
  256
370
   -1
100
AcDbLine
 10
256.303
 20
174.989
 11
261.303
 21
174.989
  0
LINE
  5
222
100
AcDbEntity
  8
ProjItem081
  6
ByLayer
 62
  256
370
   -1
100
AcDbLine
 10
256.303
 20
175.989
 11
261.303
 21
175.989
  0
LINE
  5
223
100
AcDbEntity
  8
ProjItem081
  6
ByLayer
 62
  256
370
   -1
100
AcDbLine
 10
261.303
 20
174.989
 11
261.303
 21
175.989
  0
LINE
  5
224
100
AcDbEntity
  8
ProjItem082
  6
ByLayer
 62
  256
370
   -1
100
AcDbLine
 10
157.873
 20
72.6991
 11
132.873
 21
72.6991
  0
LINE
  5
225
100
AcDbEntity
  8
ProjItem082
  6
ByLayer
 62
  256
370
   -1
100
AcDbLine
 10
157.873
 20
75.6991
 11
157.873
 21
72.6991
  0
LINE
  5
226
100
AcDbEntity
  8
ProjItem082
  6
ByLayer
 62
  256
370
   -1
100
AcDbLine
 10
132.873
 20
72.6991
 11
132.873
 21
80.6991
  0
LINE
  5
227
100
AcDbEntity
  8
ProjItem082
  6
ByLayer
 62
  256
370
   -1
100
AcDbLine
 10
132.873
 20
80.6991
 11
132.873
 21
82.1991
  0
LINE
  5
228
100
AcDbEntity
  8
ProjItem082
  6
ByLayer
 62
  256
370
   -1
100
AcDbLine
 10
132.873
 20
80.6991
 11
189.103
 21
80.6991
  0
LINE
  5
229
100
AcDbEntity
  8
ProjItem082
  6
ByLayer
 62
  256
370
   -1
100
AcDbLine
 10
189.103
 20
80.6991
 11
221.373
 21
80.6991
  0
LINE
  5
22A
100
AcDbEntity
  8
ProjItem082
  6
ByLayer
 62
  256
370
   -1
100
AcDbLine
 10
132.873
 20
82.1991
 11
189.103
 21
82.1991
  0
LINE
  5
22B
100
AcDbEntity
  8
ProjItem082
  6
ByLayer
 62
  256
370
   -1
100
AcDbLine
 10
189.103
 20
82.1991
 11
221.373
 21
82.1991
  0
LINE
  5
22C
100
AcDbEntity
  8
ProjItem082
  6
ByLayer
 62
  256
370
   -1
100
AcDbLine
 10
189.103
 20
80.6991
 11
189.103
 21
82.1991
  0
LINE
  5
22D
100
AcDbEntity
  8
ProjItem082
  6
ByLayer
 62
  256
370
   -1
100
AcDbLine
 10
221.373
 20
80.6991
 11
221.373
 21
82.1991
  0
LINE
  5
22E
100
AcDbEntity
  8
ProjItem082
  6
ByLayer
 62
  256
370
   -1
100
AcDbLine
 10
134.873
 20
80.6991
 11
134.873
 21
75.6991
  0
LINE
  5
22F
100
AcDbEntity
  8
ProjItem082
  6
ByLayer
 62
  256
370
   -1
100
AcDbLine
 10
187.78
 20
80.6991
 11
187.78
 21
75.6991
  0
LINE
  5
230
100
AcDbEntity
  8
ProjItem082
  6
ByLayer
 62
  256
370
   -1
100
AcDbLine
 10
134.873
 20
75.6991
 11
187.78
 21
75.6991
  0
LINE
  5
231
100
AcDbEntity
  8
ProjItem082
  6
ByLayer
 62
  256
370
   -1
100
AcDbLine
 10
188.273
 20
80.6991
 11
188.273
 21
75.6991
  0
LINE
  5
232
100
AcDbEntity
  8
ProjItem082
  6
ByLayer
 62
  256
370
   -1
100
AcDbLine
 10
218.873
 20
80.6991
 11
218.873
 21
75.6991
  0
LINE
  5
233
100
AcDbEntity
  8
ProjItem082
  6
ByLayer
 62
  256
370
   -1
100
AcDbLine
 10
188.273
 20
75.6991
 11
218.873
 21
75.6991
  0
LINE
  5
234
100
AcDbEntity
  8
ProjItem080
  6
ByLayer
 62
  256
370
   -1
100
AcDbLine
 10
28.7247
 20
21.281
 11
28.7247
 21
22.5057
  0
LINE
  5
235
100
AcDbEntity
  8
ProjItem080
  6
ByLayer
 62
  256
370
   -1
100
AcDbLine
 10
11.047
 20
31.4872
 11
11.047
 21
32.7119
  0
LINE
  5
236
100
AcDbEntity
  8
ProjItem080
  6
ByLayer
 62
  256
370
   -1
100
AcDbLine
 10
28.7247
 20
21.281
 11
11.047
 21
31.4872
  0
LINE
  5
237
100
AcDbEntity
  8
ProjItem080
  6
ByLayer
 62
  256
370
   -1
100
AcDbLine
 10
28.7247
 20
22.5057
 11
11.047
 21
32.7119
  0
LINE
  5
238
100
AcDbEntity
  8
ProjItem080
  6
ByLayer
 62
  256
370
   -1
100
AcDbLine
 10
34.3815
 20
36.8039
 11
34.3815
 21
25.7717
  0
LINE
  5
239
100
AcDbEntity
  8
ProjItem080
  6
ByLayer
 62
  256
370
   -1
100
AcDbLine
 10
34.3815
 20
25.7717
 11
28.7247
 21
22.5057
  0
LINE
  5
23A
100
AcDbEntity
  8
ProjItem080
  6
ByLayer
 62
  256
370
   -1
100
AcDbLine
 10
28.7247
 20
21.281
 11
35.4422
 21
25.1593
  0
LINE
  5
23B
100
AcDbEntity
  8
ProjItem080
  6
ByLayer
 62
  256
370
   -1
100
AcDbLine
 10
35.4422
 20
36.6162
 11
35.4422
 21
25.1593
  0
LINE
  5
23C
100
AcDbEntity
  8
ProjItem080
  6
ByLayer
 62
  256
370
   -1
100
AcDbLine
 10
11.047
 20
32.7119
 11
16.7038
 21
35.9779
  0
LINE
  5
23D
100
AcDbEntity
  8
ProjItem080
  6
ByLayer
 62
  256
370
   -1
100
AcDbLine
 10
16.7038
 20
35.9779
 11
16.7038
 21
52.5557
  0
LINE
  5
23E
100
AcDbEntity
  8
ProjItem080
  6
ByLayer
 62
  256
370
   -1
100
AcDbLine
 10
16.7038
 20
55.8217
 11
16.7038
 21
61.5372
  0
LINE
  5
23F
100
AcDbEntity
  8
ProjItem080
  6
ByLayer
 62
  256
370
   -1
100
AcDbLine
 10
16.7038
 20
61.5372
 11
17.7645
 21
62.1496
  0
LINE
  5
240
100
AcDbEntity
  8
ProjItem080
  6
ByLayer
 62
  256
370
   -1
100
AcDbLine
 10
16.7038
 20
35.9779
 11
34.3815
 21
25.7717
  0
ELLIPSE
  5
241
100
AcDbEntity
  8
ProjItem080
  6
ByLayer
 62
  256
370
   -1
100
AcDbEllipse
 10
16.7038
 20
32.7119
 30
0
 11
-0.7
 21
-5.78862e-16
 31
0
 40
0.57735
 41
-3.14159
 42
-0.785398
  0
ELLIPSE
  5
242
100
AcDbEntity
  8
ProjItem080
  6
ByLayer
 62
  256
370
   -1
100
AcDbEllipse
 10
16.7038
 20
32.7119
 30
0
 11
-0.7
 21
-5.78862e-16
 31
0
 40
0.57735
 41
-8.88178e-16
 42
-3.14159
  0
ELLIPSE
  5
243
100
AcDbEntity
  8
ProjItem080
  6
ByLayer
 62
  256
370
   -1
100
AcDbEllipse
 10
16.7038
 20
32.7119
 30
0
 11
-0.7
 21
-5.78862e-16
 31
0
 40
0.57735
 41
-0.785398
 42
-8.88178e-16
  0
ELLIPSE
  5
244
100
AcDbEntity
  8
ProjItem080
  6
ByLayer
 62
  256
370
   -1
100
AcDbEllipse
 10
28.7247
 20
25.7717
 30
0
 11
-0.7
 21
-5.78862e-16
 31
0
 40
0.57735
 41
-3.14159
 42
-0.785398
  0
ELLIPSE
  5
245
100
AcDbEntity
  8
ProjItem080
  6
ByLayer
 62
  256
370
   -1
100
AcDbEllipse
 10
28.7247
 20
25.7717
 30
0
 11
-0.7
 21
-5.78862e-16
 31
0
 40
0.57735
 41
-8.88178e-16
 42
-3.14159
  0
ELLIPSE
  5
246
100
AcDbEntity
  8
ProjItem080
  6
ByLayer
 62
  256
370
   -1
100
AcDbEllipse
 10
28.7247
 20
25.7717
 30
0
 11
-0.7
 21
-5.78862e-16
 31
0
 40
0.57735
 41
-0.785398
 42
-8.88178e-16
  0
LINE
  5
247
100
AcDbEntity
  8
ProjItem080
  6
ByLayer
 62
  256
370
   -1
100
AcDbLine
 10
59.442
 20
32.3686
 11
53.9899
 21
33.3336
  0
LINE
  5
248
100
AcDbEntity
  8
ProjItem080
  6
ByLayer
 62
  256
370
   -1
100
AcDbLine
 10
48.2328
 20
34.3525
 11
34.3815
 21
36.8039
  0
LINE
  5
249
100
AcDbEntity
  8
ProjItem080
  6
ByLayer
 62
  256
370
   -1
100
AcDbLine
 10
16.7038
 20
61.5372
 11
56.4643
 21
54.5002
  0
LINE
  5
24A
100
AcDbEntity
  8
ProjItem080
  6
ByLayer
 62
  256
370
   -1
100
AcDbLine
 10
56.4643
 20
54.5002
 11
79.28279999999999
 21
41.326
  0
LINE
  5
24B
100
AcDbEntity
  8
ProjItem080
  6
ByLayer
 62
  256
370
   -1
100
AcDbLine
 10
79.28279999999999
 20
20.9136
 11
59.442
 21
32.3686
  0
LINE
  5
24C
100
AcDbEntity
  8
ProjItem080
  6
ByLayer
 62
  256
370
   -1
100
AcDbLine
 10
79.28279999999999
 20
41.326
 11
79.28279999999999
 21
20.9136
  0
LINE
  5
24D
100
AcDbEntity
  8
ProjItem080
  6
ByLayer
 62
  256
370
   -1
100
AcDbLine
 10
18.1181
 20
56.6382
 11
55.5293
 21
35.0388
  0
LINE
  5
24E
100
AcDbEntity
  8
ProjItem080
  6
ByLayer
 62
  256
370
   -1
100
AcDbLine
 10
55.5293
 20
35.0388
 11
55.5293
 21
34.2223
  0
ELLIPSE
  5
24F
100
AcDbEntity
  8
ProjItem080
  6
ByLayer
 62
  256
370
   -1
100
AcDbEllipse
 10
75.3937
 20
27.2414
 30
0
 11
-0.35
 21
0.606218
 31
0
 40
0.57735
 41
0.785398
 42
3.14159
  0
ELLIPSE
  5
250
100
AcDbEntity
  8
ProjItem080
  6
ByLayer
 62
  256
370
   -1
100
AcDbEllipse
 10
75.3937
 20
27.2414
 30
0
 11
-0.35
 21
0.606218
 31
0
 40
0.57735
 41
3.14159
 42
6.28319
  0
ELLIPSE
  5
251
100
AcDbEntity
  8
ProjItem080
  6
ByLayer
 62
  256
370
   -1
100
AcDbEllipse
 10
75.3937
 20
27.2414
 30
0
 11
-0.35
 21
0.606218
 31
0
 40
0.57735
 41
-1.77636e-15
 42
0.785398
  0
ELLIPSE
  5
252
100
AcDbEntity
  8
ProjItem080
  6
ByLayer
 62
  256
370
   -1
100
AcDbEllipse
 10
75.3937
 20
32.1404
 30
0
 11
-0.35
 21
0.606218
 31
0
 40
0.57735
 41
0.785398
 42
3.14159
  0
ELLIPSE
  5
253
100
AcDbEntity
  8
ProjItem080
  6
ByLayer
 62
  256
370
   -1
100
AcDbEllipse
 10
75.3937
 20
32.1404
 30
0
 11
-0.35
 21
0.606218
 31
0
 40
0.57735
 41
3.14159
 42
6.28319
  0
ELLIPSE
  5
254
100
AcDbEntity
  8
ProjItem080
  6
ByLayer
 62
  256
370
   -1
100
AcDbEllipse
 10
75.3937
 20
32.1404
 30
0
 11
-0.35
 21
0.606218
 31
0
 40
0.57735
 41
-1.77636e-15
 42
0.785398
  0
LINE
  5
255
100
AcDbEntity
  8
ProjItem080
  6
ByLayer
 62
  256
370
   -1
100
AcDbLine
 10
55.8776
 20
50.1908
 11
77.515
 21
37.6984
  0
LINE
  5
256
100
AcDbEntity
  8
ProjItem080
  6
ByLayer
 62
  256
370
   -1
100
AcDbLine
 10
77.515
 20
37.6984
 11
77.515
 21
36.8819
  0
LINE
  5
257
100
AcDbEntity
  8
ProjItem080
  6
ByLayer
 62
  256
370
   -1
100
AcDbLine
 10
17.7645
 20
62.1496
 11
57.525
 21
55.1126
  0
LINE
  5
258
100
AcDbEntity
  8
ProjItem080
  6
ByLayer
 62
  256
370
   -1
100
AcDbLine
 10
57.525
 20
55.1126
 11
80.3434
 21
41.9383
  0
LINE
  5
259
100
AcDbEntity
  8
ProjItem080
  6
ByLayer
 62
  256
370
   -1
100
AcDbLine
 10
80.3434
 20
41.9383
 11
80.3434
 21
21.5259
  0
LINE
  5
25A
100
AcDbEntity
  8
ProjItem080
  6
ByLayer
 62
  256
370
   -1
100
AcDbLine
 10
56.4643
 20
54.5002
 11
57.525
 21
55.1126
  0
LINE
  5
25B
100
AcDbEntity
  8
ProjItem080
  6
ByLayer
 62
  256
370
   -1
100
AcDbLine
 10
79.28279999999999
 20
20.9136
 11
80.3434
 21
21.5259
  0
LINE
  5
25C
100
AcDbEntity
  8
ProjItem080
  6
ByLayer
 62
  256
370
   -1
100
AcDbLine
 10
79.28279999999999
 20
41.326
 11
80.3434
 21
41.9383
  0
LINE
  5
25D
100
AcDbEntity
  8
ProjItem080
  6
ByLayer
 62
  256
370
   -1
100
AcDbLine
 10
18.1181
 20
56.6382
 11
14.5825
 21
54.597
  0
LINE
  5
25E
100
AcDbEntity
  8
ProjItem080
  6
ByLayer
 62
  256
370
   -1
100
AcDbLine
 10
14.5825
 20
53.7805
 11
14.5825
 21
54.597
  0
LINE
  5
25F
100
AcDbEntity
  8
ProjItem080
  6
ByLayer
 62
  256
370
   -1
100
AcDbLine
 10
55.5293
 20
34.2223
 11
51.9937
 21
32.1811
  0
LINE
  5
260
100
AcDbEntity
  8
ProjItem080
  6
ByLayer
 62
  256
370
   -1
100
AcDbLine
 10
51.9937
 20
32.1811
 11
14.5825
 21
53.7805
  0
LINE
  5
261
100
AcDbEntity
  8
ProjItem080
  6
ByLayer
 62
  256
370
   -1
100
AcDbLine
 10
55.5293
 20
35.0388
 11
51.9937
 21
32.9976
  0
LINE
  5
262
100
AcDbEntity
  8
ProjItem080
  6
ByLayer
 62
  256
370
   -1
100
AcDbLine
 10
14.5825
 20
54.597
 11
51.9937
 21
32.9976
  0
LINE
  5
263
100
AcDbEntity
  8
ProjItem080
  6
ByLayer
 62
  256
370
   -1
100
AcDbLine
 10
51.9937
 20
32.9976
 11
51.9937
 21
32.1811
  0
LINE
  5
264
100
AcDbEntity
  8
ProjItem080
  6
ByLayer
 62
  256
370
   -1
100
AcDbLine
 10
55.8776
 20
50.1908
 11
52.342
 21
48.1496
  0
LINE
  5
265
100
AcDbEntity
  8
ProjItem080
  6
ByLayer
 62
  256
370
   -1
100
AcDbLine
 10
52.342
 20
47.3331
 11
52.342
 21
48.1496
  0
LINE
  5
266
100
AcDbEntity
  8
ProjItem080
  6
ByLayer
 62
  256
370
   -1
100
AcDbLine
 10
77.515
 20
36.8819
 11
73.9795
 21
34.8407
  0
LINE
  5
267
100
AcDbEntity
  8
ProjItem080
  6
ByLayer
 62
  256
370
   -1
100
AcDbLine
 10
73.9795
 20
34.8407
 11
52.342
 21
47.3331
  0
LINE
  5
268
100
AcDbEntity
  8
ProjItem080
  6
ByLayer
 62
  256
370
   -1
100
AcDbLine
 10
77.515
 20
37.6984
 11
73.9795
 21
35.6572
  0
LINE
  5
269
100
AcDbEntity
  8
ProjItem080
  6
ByLayer
 62
  256
370
   -1
100
AcDbLine
 10
52.342
 20
48.1496
 11
73.9795
 21
35.6572
  0
LINE
  5
26A
100
AcDbEntity
  8
ProjItem080
  6
ByLayer
 62
  256
370
   -1
100
AcDbLine
 10
73.9795
 20
35.6572
 11
73.9795
 21
34.8407
  0
DIMENSION
  5
26B
100
AcDbEntity
  8
Dimension103
  6
ByLayer
 62
  256
370
   -1
100
AcDbDimension
  2
*D1
 10
249.063
 20
123.08
 30
0
 11
245.527
 21
119.545
 31
0
 70
   32
  1
15
 71
    5
 72
    0
  3
STANDARD
 53
0
210
0
220
0
230
1
100
AcDbAlignedDimension
 13
256.303
 23
130.882
 33
0
 14
254.803
 24
129.382
 34
0
100
AcDbRotatedDimension
  0
DIMENSION
  5
26C
100
AcDbEntity
  8
Dimension104
  6
ByLayer
 62
  256
370
   -1
100
AcDbDimension
  2
*D2
 10
274.403
 20
124.945
 30
0
 11
269.403
 21
124.945
 31
0
 70
   32
  1
15
 71
    5
 72
    0
  3
STANDARD
 53
0
210
0
220
0
230
1
100
AcDbAlignedDimension
 13
264.303
 23
130.882
 33
0
 14
264.303
 24
129.382
 34
0
 50
90
100
AcDbRotatedDimension
  0
DIMENSION
  5
26D
100
AcDbEntity
  8
Dimension105
  6
ByLayer
 62
  256
370
   -1
100
AcDbDimension
  2
*D3
 10
274.403
 20
154.906
 30
0
 11
269.403
 21
154.906
 31
0
 70
   32
  1
10
 71
    5
 72
    0
  3
STANDARD
 53
0
210
0
220
0
230
1
100
AcDbAlignedDimension
 13
261.303
 23
157.185
 33
0
 14
261.303
 24
156.185
 34
0
 50
90
100
AcDbRotatedDimension
  0
DIMENSION
  5
26E
100
AcDbEntity
  8
Dimension106
  6
ByLayer
 62
  256
370
   -1
100
AcDbDimension
  2
*D4
 10
274.403
 20
173.404
 30
0
 11
269.403
 21
173.404
 31
0
 70
   32
  1
10
 71
    5
 72
    0
  3
STANDARD
 53
0
210
0
220
0
230
1
100
AcDbAlignedDimension
 13
261.303
 23
175.989
 33
0
 14
261.303
 24
174.989
 34
0
 50
90
100
AcDbRotatedDimension
  0
DIMENSION
  5
26F
100
AcDbEntity
  8
Dimension107
  6
ByLayer
 62
  256
370
   -1
100
AcDbDimension
  2
*D5
 10
259.109
 20
202.514
 30
0
 11
259.109
 21
197.514
 31
0
 70
   32
  1
50
 71
    5
 72
    0
  3
STANDARD
 53
0
210
0
220
0
230
1
100
AcDbAlignedDimension
 13
261.303
 23
175.989
 33
0
 14
256.303
 24
175.989
 34
0
100
AcDbRotatedDimension
  0
DIMENSION
  5
270
100
AcDbEntity
  8
Dimension108
  6
ByLayer
 62
  256
370
   -1
100
AcDbDimension
  2
*D6
 10
259.034
 20
113.417
 30
0
 11
259.034
 21
108.417
 31
0
 70
   32
  1
95
 71
    5
 72
    0
  3
STANDARD
 53
0
210
0
220
0
230
1
100
AcDbAlignedDimension
 13
264.303
 23
129.382
 33
0
 14
254.803
 24
129.382
 34
0
100
AcDbRotatedDimension
  0
DIMENSION
  5
271
100
AcDbEntity
  8
Dimension109
  6
ByLayer
 62
  256
370
   -1
100
AcDbDimension
  2
*D7
 10
249.006
 20
148.794
 30
0
 11
244.012
 21
149.034
 31
0
 70
   32
  1
313
 71
    5
 72
    0
  3
STANDARD
 53
0
210
0
220
0
230
1
100
AcDbAlignedDimension
 13
254.803
 23
162.185
 33
0
 14
256.303
 24
130.882
 34
0
 50
90
100
AcDbRotatedDimension
  0
DIMENSION
  5
272
100
AcDbEntity
  8
Dimension110
  6
ByLayer
 62
  256
370
   -1
100
AcDbDimension
  2
*D8
 10
193.314
 20
181.682
 30
0
 11
223.686
 21
153.455
 31
0
 70
   34
  1
80%%D
 71
    5
 72
    0
  3
STANDARD
 53
0
210
0
220
0
230
1
100
AcDb2LineAngularDimension
 13
189.103
 23
181.682
 33
0
 14
193.314
 24
156.682
 34
0
 15
189.103
 25
181.682
 35
0
 16
218.686
 26
153.455
 36
0
  0
DIMENSION
  5
273
100
AcDbEntity
  8
Dimension111
  6
ByLayer
 62
  256
370
   -1
100
AcDbDimension
  2
*D9
 10
132.873
 20
144.394
 30
0
 11
150.259
 21
123.408
 31
0
 70
   34
  1
55%%D
 71
    5
 72
    0
  3
STANDARD
 53
0
210
0
220
0
230
1
100
AcDb2LineAngularDimension
 13
132.873
 23
162.186
 33
0
 14
157.873
 24
144.394
 34
0
 15
132.873
 25
162.186
 35
0
 16
150.259
 26
118.408
 36
0
  0
DIMENSION
  5
274
100
AcDbEntity
  8
Dimension112
  6
ByLayer
 62
  256
370
   -1
100
AcDbDimension
  2
*D10
 10
132.873
 20
130.882
 30
0
 11
128.968
 21
178.528
 31
0
 70
   34
  1
109%%D
 71
    5
 72
    0
  3
STANDARD
 53
0
210
0
220
0
230
1
100
AcDb2LineAngularDimension
 13
132.873
 23
162.185
 33
0
 14
189.103
 24
181.682
 34
0
 15
132.873
 25
162.185
 35
0
 16
132.32
 26
174.818
 36
0
  0
DIMENSION
  5
275
100
AcDbEntity
  8
Dimension113
  6
ByLayer
 62
  256
370
   -1
100
AcDbDimension
  2
*D11
 10
221.373
 20
181.682
 30
0
 11
196.425
 21
189.472
 31
0
 70
   34
  1
161%%D
 71
    5
 72
    0
  3
STANDARD
 53
0
210
0
220
0
230
1
100
AcDb2LineAngularDimension
 13
189.103
 23
181.682
 33
0
 14
132.873
 24
162.185
 34
0
 15
189.103
 25
181.682
 35
0
 16
195.349
 26
194.355
 36
0
  0
DIMENSION
  5
276
100
AcDbEntity
  8
Dimension114
  6
ByLayer
 62
  256
370
   -1
100
AcDbDimension
  2
*D12
 10
204.84
 20
192.514
 30
0
 11
204.84
 21
197.514
 31
0
 70
   32
  1
323
 71
    5
 72
    0
  3
STANDARD
 53
0
210
0
220
0
230
1
100
AcDbAlignedDimension
 13
189.103
 23
181.682
 33
0
 14
221.373
 24
181.682
 34
0
100
AcDbRotatedDimension
  0
DIMENSION
  5
277
100
AcDbEntity
  8
Dimension115
  6
ByLayer
 62
  256
370
   -1
100
AcDbDimension
  2
*D13
 10
185.5142377173019
 20
192.0321104352523
 30
0
 11
157.207
 21
186.373
 31
0
 70
   33
  1
595
 71
    5
 72
    0
  3
STANDARD
 53
0
210
0
220
0
230
1
100
AcDbAlignedDimension
 13
132.873
 23
162.185
 33
0
 14
189.103
 24
181.682
 34
0
  0
DIMENSION
  5
278
100
AcDbEntity
  8
Dimension116
  6
ByLayer
 62
  256
370
   -1
100
AcDbDimension
  2
*D14
 10
110.886
 20
159.381
 30
0
 11
115.886
 21
159.381
 31
0
 70
   32
  1
313
 71
    5
 72
    0
  3
STANDARD
 53
0
210
0
220
0
230
1
100
AcDbAlignedDimension
 13
132.873
 23
130.882
 33
0
 14
132.873
 24
162.185
 34
0
 50
90
100
AcDbRotatedDimension
  0
DIMENSION
  5
279
100
AcDbEntity
  8
Dimension117
  6
ByLayer
 62
  256
370
   -1
100
AcDbDimension
  2
*D15
 10
159.337
 20
65.63760000000001
 30
0
 11
159.337
 21
70.63760000000001
 31
0
 70
   32
  1
529
 71
    5
 72
    0
  3
STANDARD
 53
0
210
0
220
0
230
1
100
AcDbAlignedDimension
 13
134.873
 23
75.6991
 33
0
 14
187.78
 24
75.6991
 34
0
100
AcDbRotatedDimension
  0
DIMENSION
  5
27A
100
AcDbEntity
  8
Dimension118
  6
ByLayer
 62
  256
370
   -1
100
AcDbDimension
  2
*D16
 10
201.384
 20
65.63760000000001
 30
0
 11
201.384
 21
70.63760000000001
 31
0
 70
   32
  1
306
 71
    5
 72
    0
  3
STANDARD
 53
0
210
0
220
0
230
1
100
AcDbAlignedDimension
 13
188.273
 23
75.6991
 33
0
 14
218.873
 24
75.6991
 34
0
100
AcDbRotatedDimension
  0
DIMENSION
  5
27B
100
AcDbEntity
  8
Dimension119
  6
ByLayer
 62
  256
370
   -1
100
AcDbDimension
  2
*D17
 10
150.546
 20
113.003
 30
0
 11
150.546
 21
108.003
 31
0
 70
   32
  1
250
 71
    5
 72
    0
  3
STANDARD
 53
0
210
0
220
0
230
1
100
AcDbAlignedDimension
 13
157.873
 23
129.382
 33
0
 14
132.873
 24
129.382
 34
0
100
AcDbRotatedDimension
  0
DIMENSION
  5
27C
100
AcDbEntity
  8
Dimension120
  6
ByLayer
 62
  256
370
   -1
100
AcDbDimension
  2
*D18
 10
120.886
 20
140.735
 30
0
 11
115.886
 21
140.735
 31
0
 70
   32
  1
135
 71
    5
 72
    0
  3
STANDARD
 53
0
210
0
220
0
230
1
100
AcDbAlignedDimension
 13
157.873
 23
144.394
 33
0
 14
157.873
 24
130.882
 34
0
 50
90
100
AcDbRotatedDimension
  0
DIMENSION
  5
27D
100
AcDbEntity
  8
Dimension122
  6
ByLayer
 62
  256
370
   -1
100
AcDbDimension
  2
*D19
 10
213.14
 20
113.003
 30
0
 11
213.14
 21
108.003
 31
0
 70
   32
  1
885
 71
    5
 72
    0
  3
STANDARD
 53
0
210
0
220
0
230
1
100
AcDbAlignedDimension
 13
221.373
 23
156.682
 33
0
 14
132.873
 24
156.682
 34
0
100
AcDbRotatedDimension
  0
DIMENSION
  5
27E
100
AcDbEntity
  8
Dimension123
  6
ByLayer
 62
  256
370
   -1
100
AcDbDimension
  2
*D20
 10
151.4556803590076
 20
162.902807405307
 30
0
 11
169.425
 21
164.977
 31
0
 70
   33
  1
375
 71
    5
 72
    0
  3
STANDARD
 53
0
210
0
220
0
230
1
100
AcDbAlignedDimension
 13
193.314
 23
156.682
 33
0
 14
157.873
 24
144.394
 34
0
  0
DIMENSION
  5
27F
100
AcDbEntity
  8
Dimension124
  6
ByLayer
 62
  256
370
   -1
100
AcDbDimension
  2
*D21
 10
207.144
 20
174.927
 30
0
 11
207.144
 21
169.927
 31
0
 70
   32
  1
281
 71
    5
 72
    0
  3
STANDARD
 53
0
210
0
220
0
230
1
100
AcDbAlignedDimension
 13
221.373
 23
156.682
 33
0
 14
193.314
 24
156.682
 34
0
100
AcDbRotatedDimension
  0
DIMENSION
  5
280
100
AcDbEntity
  8
Dimension125
  6
ByLayer
 62
  256
370
   -1
100
AcDbDimension
  2
*D22
 10
111.627
 20
176.062
 30
0
 11
115.886
 21
178.681
 31
0
 70
   32
  1
508
 71
    5
 72
    0
  3
STANDARD
 53
0
210
0
220
0
230
1
100
AcDbAlignedDimension
 13
157.873
 23
130.882
 33
0
 14
189.103
 24
181.682
 34
0
 50
90
100
AcDbRotatedDimension
  0
DIMENSION
  5
281
100
AcDbEntity
  8
Dimension126
  6
ByLayer
 62
  256
370
   -1
100
AcDbDimension
  2
*D23
 10
182.992
 20
103.003
 30
0
 11
182.992
 21
108.003
 31
0
 70
   32
  1
604
 71
    5
 72
    0
  3
STANDARD
 53
0
210
0
220
0
230
1
100
AcDbAlignedDimension
 13
132.873
 23
156.682
 33
0
 14
193.314
 24
156.682
 34
0
100
AcDbRotatedDimension
  0
DIMENSION
  5
282
100
AcDbEntity
  8
Dimension127
  6
ByLayer
 62
  256
370
   -1
100
AcDbDimension
  2
*D24
 10
240.7
 20
172.08
 30
0
 11
235.7
 21
172.08
 31
0
 70
   32
  1
250
 71
    5
 72
    0
  3
STANDARD
 53
0
210
0
220
0
230
1
100
AcDbAlignedDimension
 13
221.373
 23
181.682
 33
0
 14
221.373
 24
156.682
 34
0
 50
90
100
AcDbRotatedDimension
  0
DIMENSION
  5
283
100
AcDbEntity
  8
Dimension128
  6
ByLayer
 62
  256
370
   -1
100
AcDbDimension
  2
*D25
 10
181.857
 20
150.602
 30
0
 11
178.821
 21
146.629
 31
0
 70
   32
  1
466
 71
    5
 72
    0
  3
STANDARD
 53
0
210
0
220
0
230
1
100
AcDbAlignedDimension
 13
218.873
 23
175.989
 33
0
 14
157.873
 24
129.382
 34
0
 50
90
100
AcDbRotatedDimension
  0
DIMENSION
  5
284
100
AcDbEntity
  8
Dimension129
  6
ByLayer
 62
  256
370
   -1
100
AcDbDimension
  2
*D26
 10
176.686
 20
146.182
 30
0
 11
171.686
 21
146.182
 31
0
 70
   32
  1
278
 71
    5
 72
    0
  3
STANDARD
 53
0
210
0
220
0
230
1
100
AcDbAlignedDimension
 13
134.873
 23
157.185
 33
0
 14
134.873
 24
129.382
 34
0
 50
90
100
AcDbRotatedDimension
  0
DIMENSION
  5
285
100
AcDbEntity
  8
Dimension130
  6
ByLayer
 62
  256
370
   -1
100
AcDbDimension
  2
*D27
 10
221.315
 20
190.468
 30
0
 11
225.893
 21
192.479
 31
0
 70
   32
  1
57
 71
    5
 72
    0
  3
STANDARD
 53
0
210
0
220
0
230
1
100
AcDbAlignedDimension
 13
218.873
 23
175.989
 33
0
 14
221.373
 24
181.682
 34
0
 50
90
100
AcDbRotatedDimension
  0
LINE
  5
286
100
AcDbEntity
  8
Detail
  6
ByLayer
 62
  256
370
   -1
100
AcDbLine
 10
19.5635
 20
67.5688
 11
19.5352
 21
67.559
  0
LINE
  5
287
100
AcDbEntity
  8
Detail
  6
ByLayer
 62
  256
370
   -1
100
AcDbLine
 10
75.6816
 20
67.5688
 11
19.5635
 21
67.5688
  0
LINE
  5
288
100
AcDbEntity
  8
Detail
  6
ByLayer
 62
  256
370
   -1
100
AcDbLine
 10
75.6816
 20
117.569
 11
75.6816
 21
67.5688
  0
LINE
  5
289
100
AcDbEntity
  8
Detail
  6
ByLayer
 62
  256
370
   -1
100
AcDbLine
 10
21.1584
 20
117.569
 11
75.6816
 21
117.569
  0
ARC
  5
28A
100
AcDbEntity
  8
Detail
  6
ByLayer
 62
  256
370
   -1
100
AcDbCircle
 10
52.0516
 20
91.5348
 40
40.4
100
AcDbArc
 50
139.879
 51
158.741
  0
ARC
  5
28B
100
AcDbEntity
  8
Detail
  6
ByLayer
 62
  256
370
   -1
100
AcDbCircle
 10
52.0516
 20
91.5348
 40
40.4
100
AcDbArc
 50
161.755
 51
-143.597
  0
CIRCLE
  5
28C
100
AcDbEntity
  8
Detail
  6
ByLayer
 62
  256
370
   -1
100
AcDbCircle
 10
64.6816
 20
77.5688
 40
1.4
  0
CIRCLE
  5
28D
100
AcDbEntity
  8
Detail
  6
ByLayer
 62
  256
370
   -1
100
AcDbCircle
 10
64.6816
 20
89.5688
 40
1.4
  0
CIRCLE
  5
28E
100
AcDbEntity
  8
Detail
  6
ByLayer
 62
  256
370
   -1
100
AcDbCircle
 10
32.0816
 20
97.5688
 40
1.4
  0
CIRCLE
  5
28F
100
AcDbEntity
  8
Detail
  6
ByLayer
 62
  256
370
   -1
100
AcDbCircle
 10
52.0816
 20
97.5688
 40
1.4
  0
ARC
  5
290
100
AcDbEntity
  8
Detail
  6
ByLayer
 62
  256
370
   -1
100
AcDbCircle
 10
52.0516
 20
91.5348
 40
40.4
100
AcDbArc
 50
158.741
 51
161.755
  0
LINE
  5
291
100
AcDbEntity
  8
Detail
  6
ByLayer
 62
  256
370
   -1
100
AcDbLine
 10
14.4007
 20
106.183
 11
70.6816
 21
106.183
  0
LINE
  5
292
100
AcDbEntity
  8
Detail
  6
ByLayer
 62
  256
370
   -1
100
AcDbLine
 10
70.6816
 20
106.183
 11
70.6816
 21
104.183
  0
LINE
  5
293
100
AcDbEntity
  8
Detail
  6
ByLayer
 62
  256
370
   -1
100
AcDbLine
 10
70.6816
 20
104.183
 11
13.6826
 21
104.183
  0
LINE
  5
294
100
AcDbEntity
  8
Detail
  6
ByLayer
 62
  256
370
   -1
100
AcDbLine
 10
19.5635
 20
67.5688
 11
19.5352
 21
67.559
  0
LINE
  5
295
100
AcDbEntity
  8
Detail
  6
ByLayer
 62
  256
370
   -1
100
AcDbLine
 10
21.1584
 20
117.569
 11
75.6816
 21
117.569
  0
ARC
  5
296
100
AcDbEntity
  8
Detail
  6
ByLayer
 62
  256
370
   -1
100
AcDbCircle
 10
52.0516
 20
91.5348
 40
40.4
100
AcDbArc
 50
139.879
 51
158.741
  0
ARC
  5
297
100
AcDbEntity
  8
Detail
  6
ByLayer
 62
  256
370
   -1
100
AcDbCircle
 10
52.0516
 20
91.5348
 40
40.4
100
AcDbArc
 50
161.755
 51
-143.597
  0
LINE
  5
298
100
AcDbEntity
  8
Detail
  6
ByLayer
 62
  256
370
   -1
100
AcDbLine
 10
14.4007
 20
106.183
 11
70.6816
 21
106.183
  0
LINE
  5
299
100
AcDbEntity
  8
Detail
  6
ByLayer
 62
  256
370
   -1
100
AcDbLine
 10
70.6816
 20
104.183
 11
13.6826
 21
104.183
  0
ARC
  5
29A
100
AcDbEntity
  8
Detail
  6
ByLayer
 62
  256
370
   -1
100
AcDbCircle
 10
52.0516
 20
91.5348
 40
40.4
100
AcDbArc
 50
158.741
 51
161.755
  0
DIMENSION
  5
29B
100
AcDbEntity
  8
Dimension131
  6
ByLayer
 62
  256
370
   -1
100
AcDbDimension
  2
*D28
 10
86.4166
 20
74.2199
 30
0
 11
81.8449
 21
72.1953
 31
0
 70
   32
  1
140
 71
    5
 72
    0
  3
STANDARD
 53
0
210
0
220
0
230
1
100
AcDbAlignedDimension
 13
75.6816
 23
117.569
 33
0
 14
63.2816
 24
89.5688
 34
0
 50
90
100
AcDbRotatedDimension
  0
DIMENSION
  5
29C
100
AcDbEntity
  8
Dimension132
  6
ByLayer
 62
  256
370
   -1
100
AcDbDimension
  2
*D29
 10
91.7123
 20
90.0159
 30
0
 11
89.6816
 21
85.4468
 31
0
 70
   32
  1
100
 71
    5
 72
    0
  3
STANDARD
 53
0
210
0
220
0
230
1
100
AcDbAlignedDimension
 13
75.6816
 23
117.569
 33
0
 14
30.6816
 24
97.5688
 34
0
 50
90
100
AcDbRotatedDimension
  0
DIMENSION
  5
29D
100
AcDbEntity
  8
Dimension133
  6
ByLayer
 62
  256
370
   -1
100
AcDbDimension
  2
*D30
 10
99.8051
 20
93.35120000000001
 30
0
 11
96.6816
 21
89.4468
 31
0
 70
   32
  1
100
 71
    5
 72
    0
  3
STANDARD
 53
0
210
0
220
0
230
1
100
AcDbAlignedDimension
 13
75.6816
 23
117.569
 33
0
 14
50.6816
 24
97.5688
 34
0
 50
90
100
AcDbRotatedDimension
  0
DIMENSION
  5
29E
100
AcDbEntity
  8
Dimension134
  6
ByLayer
 62
  256
370
   -1
100
AcDbDimension
  2
*D31
 10
108.26
 20
91.4572
 30
0
 11
103.682
 21
89.4468
 31
0
 70
   32
  1
57
 71
    5
 72
    0
  3
STANDARD
 53
0
210
0
220
0
230
1
100
AcDbAlignedDimension
 13
75.6816
 23
117.569
 33
0
 14
70.6816
 24
106.183
 34
0
 50
90
100
AcDbRotatedDimension
  0
DIMENSION
  5
29F
100
AcDbEntity
  8
Dimension136
  6
ByLayer
 62
  256
370
   -1
100
AcDbDimension
  2
*D32
 10
122.366
 20
95.50360000000001
 30
0
 11
117.682
 21
93.754
 31
0
 70
   32
  1
67
 71
    5
 72
    0
  3
STANDARD
 53
0
210
0
220
0
230
1
100
AcDbAlignedDimension
 13
75.6816
 23
117.569
 33
0
 14
70.6816
 24
104.183
 34
0
 50
90
100
AcDbRotatedDimension
  0
DIMENSION
  5
2A0
100
AcDbEntity
  8
Dimension137
  6
ByLayer
 62
  256
370
   -1
100
AcDbDimension
  2
*D33
 10
129.457
 20
100.927
 30
0
 11
124.682
 21
99.4468
 31
0
 70
   32
  1
200
 71
    5
 72
    0
  3
STANDARD
 53
0
210
0
220
0
230
1
100
AcDbAlignedDimension
 13
75.6816
 23
117.569
 33
0
 14
63.2816
 24
77.5688
 34
0
 50
90
100
AcDbRotatedDimension
  0
DIMENSION
  5
2A1
100
AcDbEntity
  8
Dimension138
  6
ByLayer
 62
  256
370
   -1
100
AcDbDimension
  2
*D34
 10
77.024
 20
134.671
 30
0
 11
72.446
 21
132.66
 31
0
 70
   32
  1
25
 71
    5
 72
    0
  3
STANDARD
 53
0
210
0
220
0
230
1
100
AcDbAlignedDimension
 13
75.6816
 23
117.569
 33
0
 14
70.6816
 24
106.183
 34
0
100
AcDbRotatedDimension
  0
DIMENSION
  5
2A2
100
AcDbEntity
  8
Dimension139
  6
ByLayer
 62
  256
370
   -1
100
AcDbDimension
  2
*D35
 10
74.2671
 20
140.986
 30
0
 11
69.446
 21
139.66
 31
0
 70
   32
  1
55
 71
    5
 72
    0
  3
STANDARD
 53
0
210
0
220
0
230
1
100
AcDbAlignedDimension
 13
75.6816
 23
117.569
 33
0
 14
64.6816
 24
77.5688
 34
0
100
AcDbRotatedDimension
  0
DIMENSION
  5
2A3
100
AcDbEntity
  8
Dimension140
  6
ByLayer
 62
  256
370
   -1
100
AcDbDimension
  2
*D36
 10
66.37860000000001
 20
150.475
 30
0
 11
63.146
 21
146.66
 31
0
 70
   32
  1
118
 71
    5
 72
    0
  3
STANDARD
 53
0
210
0
220
0
230
1
100
AcDbAlignedDimension
 13
75.6816
 23
117.569
 33
0
 14
52.0816
 24
97.5688
 34
0
100
AcDbRotatedDimension
  0
DIMENSION
  5
2A4
100
AcDbEntity
  8
Dimension141
  6
ByLayer
 62
  256
370
   -1
100
AcDbDimension
  2
*D37
 10
51.1236
 20
96.5479
 30
0
 11
39.4939
 21
92.9782
 31
0
 70
   35
  1
%%C14
 71
    5
 72
    0
  3
STANDARD
 53
0
210
0
220
0
230
1
100
AcDbDiametricDimension
 15
53.0396
 25
98.58969999999999
 35
0
 40
0
  0
DIMENSION
  5
2A5
100
AcDbEntity
  8
Dimension142
  6
ByLayer
 62
  256
370
   -1
100
AcDbDimension
  2
*D38
 10
63.5863
 20
88.6969
 30
0
 11
49.7421
 21
85.7612
 31
0
 70
   35
  1
%%C14
 71
    5
 72
    0
  3
STANDARD
 53
0
210
0
220
0
230
1
100
AcDbDiametricDimension
 15
65.7769
 25
90.44070000000001
 35
0
 40
0
  0
DIMENSION
  5
2A6
100
AcDbEntity
  8
Dimension143
  6
ByLayer
 62
  256
370
   -1
100
AcDbDimension
  2
*D39
 10
266.303
 20
169.087
 30
0
 11
261.303
 21
169.087
 31
0
 70
   32
  1
188
 71
    5
 72
    0
  3
STANDARD
 53
0
210
0
220
0
230
1
100
AcDbAlignedDimension
 13
261.303
 23
175.989
 33
0
 14
261.303
 24
157.185
 34
0
 50
90
100
AcDbRotatedDimension
  0
DIMENSION
  5
2A7
100
AcDbEntity
  8
Dimension144
  6
ByLayer
 62
  256
370
   -1
100
AcDbDimension
  2
*D40
 10
138.358
 20
91.24930000000001
 30
0
 11
133.716
 21
93.1063
 31
0
 70
   32
  1
20
 71
    5
 72
    0
  3
STANDARD
 53
0
210
0
220
0
230
1
100
AcDbAlignedDimension
 13
132.873
 23
80.6991
 33
0
 14
134.873
 24
75.6991
 34
0
100
AcDbRotatedDimension
  0
DIMENSION
  5
2A8
100
AcDbEntity
  8
Dimension145
  6
ByLayer
 62
  256
370
   -1
100
AcDbDimension
  2
*D41
 10
214.865
 20
90.8702
 30
0
 11
219.338
 21
93.1063
 31
0
 70
   32
  1
25
 71
    5
 72
    0
  3
STANDARD
 53
0
210
0
220
0
230
1
100
AcDbAlignedDimension
 13
218.873
 23
75.6991
 33
0
 14
221.373
 24
80.6991
 34
0
100
AcDbRotatedDimension
  0
DIMENSION
  5
2A9
100
AcDbEntity
  8
Dimension146
  6
ByLayer
 62
  256
370
   -1
100
AcDbDimension
  2
*D42
 10
59.2947
 20
159.436
 30
0
 11
57.21
 21
154.891
 31
0
 70
   32
  1
218
 71
    5
 72
    0
  3
STANDARD
 53
0
210
0
220
0
230
1
100
AcDbAlignedDimension
 13
75.6816
 23
117.569
 33
0
 14
32.0816
 24
97.5688
 34
0
100
AcDbRotatedDimension
  0
DIMENSION
  5
2AA
100
AcDbEntity
  8
Dimension372
  6
ByLayer
 62
  256
370
   -1
100
AcDbDimension
  2
*D43
 10
280.211
 20
146.493
 30
0
 11
275.243
 21
147.059
 31
0
 70
   32
  1
263
 71
    5
 72
    0
  3
STANDARD
 53
0
210
0
220
0
230
1
100
AcDbAlignedDimension
 13
261.303
 23
157.185
 33
0
 14
264.303
 24
130.882
 34
0
 50
90
100
AcDbRotatedDimension
  0
ENDSEC
  0
SECTION
  2
OBJECTS
  0
DICTIONARY
  5
C
330
0
100
AcDbDictionary
281
    1
  3
ACAD_GROUP
350
D
  0
DICTIONARY
  5
D
330
C
100
AcDbDictionary
281
    1
  0
ENDSEC
  0
EOF
