999
FreeCAD v0.21 33771 (Git)
  0
SECTION
  2
HEADER
  9
$ACADVER
  1
AC1014
  9
$ACADMAINTVER
 70
     9
  9
$DWGCODEPAGE
  3
ANSI_1252
  9
$TEXTSTYLE
  7
STANDARD
  9
$DIMSTYLE
  2
STANDARD
  9
$DIMTXSTY
  7
STANDARD
  9
$CMLSTYLE
  2
STANDARD
  9
$LUNITS
 70
2
  9
$INSUNITS
 70
4
  9
$PEXTMAX
 10
50
 20
50
 30
50
  9
$PEXTMIN
 10
0
 20
0
 30
0
  9
$HANDSEED
  5
FFFF
  0
ENDSEC
  0
SECTION
  2
CLASSES
  0
CLASS
  1
ACDBDICTIONARYWDFLT
  2
AcDbDictionaryWithDefault
  3
ObjectDBX Classes
 90
        0
280
     0
281
     0
  0
CLASS
  1
XRECORD
  2
AcDbXrecord
  3
ObjectDBX Classes
 90
        0
280
     0
281
     0
  0
CLASS
  1
LWPOLYLINE
  2
AcDbPolyline
  3
ObjectDBX Classes
 90
        0
280
     0
281
     1
  0
ENDSEC
  0
SECTION
  2
TABLES
  0
TABLE
  2
VPORT
  5
20
330
0
100
AcDbSymbolTable
 70
     1
  0
VPORT
  5
21
330
20
100
AcDbSymbolTableRecord
100
AcDbViewportTableRecord
  2
*ACTIVE
 70
     0
  0
ENDTAB
  0
TABLE
  2
LTYPE
  5
22
330
0
100
AcDbSymbolTable
 70
     1
  0
LTYPE
  5
23
330
21
100
AcDbSymbolTableRecord
100
AcDbLinetypeTableRecord
  2
BYBLOCK
 70
     0
  3

 72
    65
 73
     0
 40
0.0
  0
LTYPE
  5
24
330
21
100
AcDbSymbolTableRecord
100
AcDbLinetypeTableRecord
  2
BYLAYER
 70
     0
  3

 72
    65
 73
     0
 40
0.0
  0
LTYPE
  5
25
330
21
100
AcDbSymbolTableRecord
100
AcDbLinetypeTableRecord
  2
CONTINUOUS
 70
     0
  3
Solid line
 72
    65
 73
     0
 40
0.0
  0
ENDTAB
  0
TABLE
  2
LAYER
  5
B5A
330
0
100
AcDbSymbolTable
 70
5
  0
LAYER
  5
B5B
330
B5A
100
AcDbSymbolTableRecord
100
AcDbLayerTableRecord
  2
0
 70
   0
 62
   7
  6
CONTINUOUS
  0
LAYER
  5
B5C
330
B5A
100
AcDbSymbolTableRecord
100
AcDbLayerTableRecord
  2
ProjItem209
 70
    0
 62
    7
  6
CONTINUOUS
  0
LAYER
  5
B5D
330
B5A
100
AcDbSymbolTableRecord
100
AcDbLayerTableRecord
  2
ProjItem211
 70
    0
 62
    7
  6
CONTINUOUS
  0
LAYER
  5
B5E
330
B5A
100
AcDbSymbolTableRecord
100
AcDbLayerTableRecord
  2
ProjItem212
 70
    0
 62
    7
  6
CONTINUOUS
  0
LAYER
  5
B5F
330
B5A
100
AcDbSymbolTableRecord
100
AcDbLayerTableRecord
  2
ProjItem210
 70
    0
 62
    7
  6
CONTINUOUS
  0
ENDTAB
  0
TABLE
  2
STYLE
  5
70
330
0
100
AcDbSymbolTable
 70
     2
  0
STYLE
  5
71
330
70
100
AcDbSymbolTableRecord
100
AcDbTextStyleTableRecord
  2
STANDARD
 70
     0
 40
0.0
 41
1.0
 50
0.0
 71
     0
 42
2.5
  3
arial.ttf
  4

  0
STYLE
  5
72
330
70
100
AcDbSymbolTableRecord
100
AcDbTextStyleTableRecord
  2
ANNOTATIVE
 70
     0
 40
0.0
 41
1.0
 50
0.0
 71
     0
 42
2.5
  3
arial.ttf
  4

  0
ENDTAB
  0
TABLE
  2
VIEW
  5
73
330
0
100
AcDbSymbolTable
 70
     0
  0
ENDTAB
  0
TABLE
  2
UCS
  5
74
330
0
100
AcDbSymbolTable
 70
     0
  0
ENDTAB
  0
TABLE
  2
APPID
  5
75
330
0
100
AcDbSymbolTable
 70
     2
  0
APPID
  5
76
330
75
100
AcDbSymbolTableRecord
100
AcDbRegAppTableRecord
  2
ACAD
 70
     0
  0
APPID
  5
77
330
75
100
AcDbSymbolTableRecord
100
AcDbRegAppTableRecord
  2
ACADANNOTATIVE
 70
     0
  0
ENDTAB
  0
TABLE
  2
DIMSTYLE
  5
78
330
0
100
AcDbSymbolTable
 70
     2
  0
DIMSTYLE
105
79
330
78
100
AcDbSymbolTableRecord
100
AcDbDimStyleTableRecord
  2
STANDARD
 70
     0
  3

  4

  5

  6

  7

 40
0.0
 41
2.5
 42
0.625
 43
3.75
 44
1.25
 45
0.0
 46
0.0
 47
0.0
 48
0.0
140
2.5
141
2.5
142
0.0
143
0.03937007874016
144
1.0
145
0.0
146
1.0
147
0.625
 71
     0
 72
     0
 73
     0
 74
     0
 75
     0
 76
     0
 77
     1
 78
     8
170
     0
171
     3
172
     1
173
     0
174
     0
175
     0
176
     0
177
     0
178
     0
270
     2
271
     2
272
     2
273
     2
274
     3
340
71
275
     0
280
     0
281
     0
282
     0
283
     0
284
     8
285
     0
286
     0
287
     3
288
     0
  0
ENDTAB
  0
TABLE
  2
BLOCK_RECORD
  5
A01
330
0
100
AcDbSymbolTable
  70
5
  0
BLOCK_RECORD
  5
A02
330
A01
100
AcDbSymbolTableRecord
100
AcDbBlockTableRecord
  2
*MODEL_SPACE
  0
BLOCK_RECORD
  5
A03
330
A01
100
AcDbSymbolTableRecord
100
AcDbBlockTableRecord
  2
*PAPER_SPACE
  0
ENDTAB
  0
ENDSEC
  0
SECTION
  2
BLOCKS
  0
BLOCK
  5
A04
330
A02
100
AcDbEntity
  8
0
100
AcDbBlockBegin
  2
*MODEL_SPACE
 70
   0
 10
0
 20
0
 30
0
  3
*MODEL_SPACE
  1
 
  0
ENDBLK
  5
A05
330
A02
100
AcDbEntity
  8
0
100
AcDbBlockEnd
  0
BLOCK
  5
A06
330
A03
100
AcDbEntity
 67
1
  8
0
100
AcDbBlockBegin
  2
*PAPER_SPACE
 70
   0
 10
0
 20
0
 30
0
  3
*PAPER_SPACE
  1
 
  0
ENDBLK
  5
A07
330
A03
100
AcDbEntity
 67
    1
  8
0
100
AcDbBlockEnd
  0
ENDSEC
  0
SECTION
  2
ENTITIES
  0
LINE
  5
A08
330
A02
100
AcDbEntity
  8
ProjItem209
100
AcDbLine
 10
467.562
 20
301.536
 30
0
 11
922.962
 21
-401.541
 31
0
  0
LINE
  5
A09
330
A02
100
AcDbEntity
  8
ProjItem209
100
AcDbLine
 10
467.562
 20
301.536
 30
0
 11
-792.927
 21
1144.33
 31
0
  0
LINE
  5
A0A
330
A02
100
AcDbEntity
  8
ProjItem209
100
AcDbLine
 10
922.962
 20
-401.541
 30
0
 11
922.962
 21
-542.467
 31
0
  0
LINE
  5
A0B
330
A02
100
AcDbEntity
  8
ProjItem209
100
AcDbLine
 10
922.962
 20
-552.467
 30
0
 11
922.962
 21
-669.333
 31
0
  0
LINE
  5
A0C
330
A02
100
AcDbEntity
  8
ProjItem209
100
AcDbLine
 10
922.962
 20
-669.333
 30
0
 11
922.962
 21
-934.333
 31
0
  0
LINE
  5
A0D
330
A02
100
AcDbEntity
  8
ProjItem209
100
AcDbLine
 10
-792.927
 20
1144.33
 30
0
 11
-796.038
 21
1144.33
 31
0
  0
LINE
  5
A0E
330
A02
100
AcDbEntity
  8
ProjItem209
100
AcDbLine
 10
-796.038
 20
1144.33
 30
0
 11
-796.038
 21
1074.33
 31
0
  0
LINE
  5
A0F
330
A02
100
AcDbEntity
  8
ProjItem209
100
AcDbLine
 10
-796.038
 20
1074.33
 30
0
 11
-811.038
 21
1074.33
 31
0
  0
LINE
  5
A10
330
A02
100
AcDbEntity
  8
ProjItem209
100
AcDbLine
 10
-811.038
 20
1074.33
 30
0
 11
-811.038
 21
912.467
 31
0
  0
LINE
  5
A11
330
A02
100
AcDbEntity
  8
ProjItem209
100
AcDbLine
 10
672.962
 20
-669.334
 30
0
 11
672.962
 21
-475.434
 31
0
  0
LINE
  5
A12
330
A02
100
AcDbEntity
  8
ProjItem209
100
AcDbLine
 10
-811.038
 20
902.467
 30
0
 11
-811.038
 21
894.333
 31
0
  0
LINE
  5
A13
330
A02
100
AcDbEntity
  8
ProjItem209
100
AcDbLine
 10
672.962
 20
-475.434
 30
0
 11
285.756
 21
122.362
 31
0
  0
LINE
  5
A14
330
A02
100
AcDbEntity
  8
ProjItem209
100
AcDbLine
 10
-796.038
 20
894.333
 30
0
 11
-811.038
 21
894.333
 31
0
  0
LINE
  5
A15
330
A02
100
AcDbEntity
  8
ProjItem209
100
AcDbLine
 10
-796.038
 20
845.679
 30
0
 11
285.756
 21
122.362
 31
0
  0
LINE
  5
A16
330
A02
100
AcDbEntity
  8
ProjItem209
100
AcDbLine
 10
-796.038
 20
894.333
 30
0
 11
-796.038
 21
845.679
 31
0
  0
CIRCLE
  5
A17
330
A02
100
AcDbEntity
  8
ProjItem209
100
AcDbCircle
 10
857.962
 20
-634.334
 40
5.5
  0
CIRCLE
  5
A18
330
A02
100
AcDbEntity
  8
ProjItem209
100
AcDbCircle
 10
857.962
 20
-594.334
 40
5.5
  0
CIRCLE
  5
A19
330
A02
100
AcDbEntity
  8
ProjItem209
100
AcDbCircle
 10
857.962
 20
-472.541
 40
5.5
  0
CIRCLE
  5
A1A
330
A02
100
AcDbEntity
  8
ProjItem209
100
AcDbCircle
 10
857.962
 20
-422.541
 40
5.5
  0
CIRCLE
  5
A1B
330
A02
100
AcDbEntity
  8
ProjItem209
100
AcDbCircle
 10
40.9622
 20
433.88
 40
5.5
  0
CIRCLE
  5
A1C
330
A02
100
AcDbEntity
  8
ProjItem209
100
AcDbCircle
 10
40.9622
 20
483.88
 40
5.5
  0
CIRCLE
  5
A1D
330
A02
100
AcDbEntity
  8
ProjItem209
100
AcDbCircle
 10
-741.038
 20
984.163
 40
5.5
  0
CIRCLE
  5
A1E
330
A02
100
AcDbEntity
  8
ProjItem209
100
AcDbCircle
 10
-741.038
 20
1034.16
 40
5.5
  0
CIRCLE
  5
A1F
330
A02
100
AcDbEntity
  8
ProjItem209
100
AcDbCircle
 10
90.9622
 20
433.88
 40
5.5
  0
CIRCLE
  5
A20
330
A02
100
AcDbEntity
  8
ProjItem209
100
AcDbCircle
 10
90.9622
 20
483.88
 40
5.5
  0
LINE
  5
A21
330
A02
100
AcDbEntity
  8
ProjItem209
100
AcDbLine
 10
672.962
 20
-669.334
 30
0
 11
922.962
 21
-669.333
 31
0
  0
LINE
  5
A22
330
A02
100
AcDbEntity
  8
ProjItem209
100
AcDbLine
 10
672.962
 20
-684.334
 30
0
 11
672.962
 21
-669.334
 31
0
  0
LINE
  5
A23
330
A02
100
AcDbEntity
  8
ProjItem209
100
AcDbLine
 10
672.962
 20
-684.334
 30
0
 11
842.962
 21
-934.333
 31
0
  0
LINE
  5
A24
330
A02
100
AcDbEntity
  8
ProjItem209
100
AcDbLine
 10
842.962
 20
-934.333
 30
0
 11
922.962
 21
-934.333
 31
0
  0
CIRCLE
  5
A25
330
A02
100
AcDbEntity
  8
ProjItem209
100
AcDbCircle
 10
882.962
 20
-894.333
 40
7
  0
CIRCLE
  5
A26
330
A02
100
AcDbEntity
  8
ProjItem209
100
AcDbCircle
 10
882.962
 20
-834.333
 40
7
  0
LINE
  5
A27
330
A02
100
AcDbEntity
  8
ProjItem209
100
AcDbLine
 10
1122.96
 20
-542.467
 30
0
 11
837.042
 21
-542.467
 31
0
  0
LINE
  5
A28
330
A02
100
AcDbEntity
  8
ProjItem209
100
AcDbLine
 10
837.042
 20
-542.467
 30
0
 11
837.042
 21
-552.467
 31
0
  0
LINE
  5
A29
330
A02
100
AcDbEntity
  8
ProjItem209
100
AcDbLine
 10
837.042
 20
-552.467
 30
0
 11
1122.96
 21
-552.467
 31
0
  0
LINE
  5
A2A
330
A02
100
AcDbEntity
  8
ProjItem209
100
AcDbLine
 10
-533.962
 20
912.467
 30
0
 11
-825.962
 21
912.467
 31
0
  0
LINE
  5
A2B
330
A02
100
AcDbEntity
  8
ProjItem209
100
AcDbLine
 10
-533.962
 20
902.467
 30
0
 11
-533.962
 21
912.467
 31
0
  0
LINE
  5
A2C
330
A02
100
AcDbEntity
  8
ProjItem209
100
AcDbLine
 10
-825.962
 20
902.467
 30
0
 11
-533.962
 21
902.467
 31
0
  0
LINE
  5
A2D
330
A02
100
AcDbEntity
  8
ProjItem209
100
AcDbLine
 10
810.962
 20
-370.6
 30
0
 11
810.962
 21
-360.6
 31
0
  0
LINE
  5
A2E
330
A02
100
AcDbEntity
  8
ProjItem209
100
AcDbLine
 10
697.276
 20
-370.6
 30
0
 11
810.962
 21
-370.6
 31
0
  0
LINE
  5
A2F
330
A02
100
AcDbEntity
  8
ProjItem209
100
AcDbLine
 10
810.962
 20
-360.6
 30
0
 11
697.276
 21
-360.6
 31
0
  0
LINE
  5
A30
330
A02
100
AcDbEntity
  8
ProjItem209
100
AcDbLine
 10
697.276
 20
-360.6
 30
0
 11
697.276
 21
-370.6
 31
0
  0
LINE
  5
A31
330
A02
100
AcDbEntity
  8
ProjItem209
100
AcDbLine
 10
475.872
 20
175
 30
0
 11
475.872
 21
185
 31
0
  0
LINE
  5
A32
330
A02
100
AcDbEntity
  8
ProjItem209
100
AcDbLine
 10
262.038
 20
175
 30
0
 11
475.872
 21
175
 31
0
  0
LINE
  5
A33
330
A02
100
AcDbEntity
  8
ProjItem209
100
AcDbLine
 10
475.872
 20
185
 30
0
 11
262.038
 21
185
 31
0
  0
LINE
  5
A34
330
A02
100
AcDbEntity
  8
ProjItem209
100
AcDbLine
 10
262.038
 20
185
 30
0
 11
262.038
 21
175
 31
0
  0
LINE
  5
A35
330
A02
100
AcDbEntity
  8
ProjItem209
100
AcDbLine
 10
701.652
 20
-188.733
 30
0
 11
701.652
 21
-178.733
 31
0
  0
LINE
  5
A36
330
A02
100
AcDbEntity
  8
ProjItem209
100
AcDbLine
 10
584.197
 20
-188.733
 30
0
 11
701.652
 21
-188.733
 31
0
  0
LINE
  5
A37
330
A02
100
AcDbEntity
  8
ProjItem209
100
AcDbLine
 10
701.652
 20
-178.733
 30
0
 11
584.197
 21
-178.733
 31
0
  0
LINE
  5
A38
330
A02
100
AcDbEntity
  8
ProjItem209
100
AcDbLine
 10
584.197
 20
-178.733
 30
0
 11
584.197
 21
-188.733
 31
0
  0
LINE
  5
A39
330
A02
100
AcDbEntity
  8
ProjItem209
100
AcDbLine
 10
589.192
 20
-6.8667
 30
0
 11
589.192
 21
3.1333
 31
0
  0
LINE
  5
A3A
330
A02
100
AcDbEntity
  8
ProjItem209
100
AcDbLine
 10
465.329
 20
-6.8667
 30
0
 11
589.192
 21
-6.8667
 31
0
  0
LINE
  5
A3B
330
A02
100
AcDbEntity
  8
ProjItem209
100
AcDbLine
 10
589.192
 20
3.1333
 30
0
 11
465.329
 21
3.1333
 31
0
  0
LINE
  5
A3C
330
A02
100
AcDbEntity
  8
ProjItem209
100
AcDbLine
 10
465.329
 20
3.1333
 30
0
 11
465.329
 21
-6.8667
 31
0
  0
LINE
  5
A3D
330
A02
100
AcDbEntity
  8
ProjItem209
100
AcDbLine
 10
10.0378
 20
538.733
 30
0
 11
10.0378
 21
548.733
 31
0
  0
LINE
  5
A3E
330
A02
100
AcDbEntity
  8
ProjItem209
100
AcDbLine
 10
-281.962
 20
538.733
 30
0
 11
10.0378
 21
538.733
 31
0
  0
LINE
  5
A3F
330
A02
100
AcDbEntity
  8
ProjItem209
100
AcDbLine
 10
10.0378
 20
548.733
 30
0
 11
-281.962
 21
548.733
 31
0
  0
LINE
  5
A40
330
A02
100
AcDbEntity
  8
ProjItem209
100
AcDbLine
 10
-281.962
 20
548.733
 30
0
 11
-281.962
 21
538.733
 31
0
  0
LINE
  5
A41
330
A02
100
AcDbEntity
  8
ProjItem209
100
AcDbLine
 10
-261.962
 20
720.6
 30
0
 11
-261.962
 21
730.6
 31
0
  0
LINE
  5
A42
330
A02
100
AcDbEntity
  8
ProjItem209
100
AcDbLine
 10
-553.962
 20
720.6
 30
0
 11
-261.962
 21
720.6
 31
0
  0
LINE
  5
A43
330
A02
100
AcDbEntity
  8
ProjItem209
100
AcDbLine
 10
-261.962
 20
730.6
 30
0
 11
-553.962
 21
730.6
 31
0
  0
LINE
  5
A44
330
A02
100
AcDbEntity
  8
ProjItem209
100
AcDbLine
 10
-553.962
 20
730.6
 30
0
 11
-553.962
 21
720.6
 31
0
  0
LINE
  5
A45
330
A02
100
AcDbEntity
  8
ProjItem209
100
AcDbLine
 10
282.038
 20
356.867
 30
0
 11
282.038
 21
366.867
 31
0
  0
LINE
  5
A46
330
A02
100
AcDbEntity
  8
ProjItem209
100
AcDbLine
 10
-9.96223
 20
356.867
 30
0
 11
282.038
 21
356.867
 31
0
  0
LINE
  5
A47
330
A02
100
AcDbEntity
  8
ProjItem209
100
AcDbLine
 10
282.038
 20
366.867
 30
0
 11
-9.96223
 21
366.867
 31
0
  0
LINE
  5
A48
330
A02
100
AcDbEntity
  8
ProjItem209
100
AcDbLine
 10
-9.96223
 20
366.867
 30
0
 11
-9.96223
 21
356.867
 31
0
  0
LINE
  5
A49
330
A02
100
AcDbEntity
  8
ProjItem209
100
AcDbLine
 10
1122.96
 20
-552.467
 30
0
 11
1122.96
 21
-542.467
 31
0
  0
LINE
  5
A4A
330
A02
100
AcDbEntity
  8
ProjItem209
100
AcDbLine
 10
-825.962
 20
912.467
 30
0
 11
-825.962
 21
902.467
 31
0
  0
LINE
  5
A4B
330
A02
100
AcDbEntity
  8
ProjItem211
100
AcDbLine
 10
1571.83
 20
1144.33
 30
0
 11
1571.83
 21
1074.33
 31
0
  0
LINE
  5
A4C
330
A02
100
AcDbEntity
  8
ProjItem211
100
AcDbLine
 10
1571.83
 20
1074.33
 30
0
 11
1571.83
 21
912.467
 31
0
  0
LINE
  5
A4D
330
A02
100
AcDbEntity
  8
ProjItem211
100
AcDbLine
 10
1571.83
 20
-669.334
 30
0
 11
1571.83
 21
-475.434
 31
0
  0
LINE
  5
A4E
330
A02
100
AcDbEntity
  8
ProjItem211
100
AcDbLine
 10
1571.83
 20
902.467
 30
0
 11
1571.83
 21
894.333
 31
0
  0
LINE
  5
A4F
330
A02
100
AcDbEntity
  8
ProjItem211
100
AcDbLine
 10
1571.83
 20
-475.434
 30
0
 11
1571.83
 21
122.362
 31
0
  0
LINE
  5
A50
330
A02
100
AcDbEntity
  8
ProjItem211
100
AcDbLine
 10
1571.83
 20
845.679
 30
0
 11
1571.83
 21
122.362
 31
0
  0
LINE
  5
A51
330
A02
100
AcDbEntity
  8
ProjItem211
100
AcDbLine
 10
1571.83
 20
894.333
 30
0
 11
1571.83
 21
845.679
 31
0
  0
LINE
  5
A52
330
A02
100
AcDbEntity
  8
ProjItem211
100
AcDbLine
 10
1556.83
 20
1144.33
 30
0
 11
1556.83
 21
1074.33
 31
0
  0
LINE
  5
A53
330
A02
100
AcDbEntity
  8
ProjItem211
100
AcDbLine
 10
1556.83
 20
-684.334
 30
0
 11
1556.83
 21
-475.434
 31
0
  0
LINE
  5
A54
330
A02
100
AcDbEntity
  8
ProjItem211
100
AcDbLine
 10
1556.83
 20
894.333
 30
0
 11
1556.83
 21
845.679
 31
0
  0
LINE
  5
A55
330
A02
100
AcDbEntity
  8
ProjItem211
100
AcDbLine
 10
1556.83
 20
-475.434
 30
0
 11
1556.83
 21
122.362
 31
0
  0
LINE
  5
A56
330
A02
100
AcDbEntity
  8
ProjItem211
100
AcDbLine
 10
1556.83
 20
845.679
 30
0
 11
1556.83
 21
122.362
 31
0
  0
LINE
  5
A57
330
A02
100
AcDbEntity
  8
ProjItem211
100
AcDbLine
 10
1571.83
 20
1144.33
 30
0
 11
1556.83
 21
1144.33
 31
0
  0
LINE
  5
A58
330
A02
100
AcDbEntity
  8
ProjItem211
100
AcDbLine
 10
1571.83
 20
-669.334
 30
0
 11
1625.83
 21
-669.334
 31
0
  0
LINE
  5
A59
330
A02
100
AcDbEntity
  8
ProjItem211
100
AcDbLine
 10
1625.83
 20
-684.334
 30
0
 11
1625.83
 21
-669.334
 31
0
  0
LINE
  5
A5A
330
A02
100
AcDbEntity
  8
ProjItem211
100
AcDbLine
 10
1625.83
 20
-684.334
 30
0
 11
1625.83
 21
-934.333
 31
0
  0
LINE
  5
A5B
330
A02
100
AcDbEntity
  8
ProjItem211
100
AcDbLine
 10
1625.83
 20
-934.333
 30
0
 11
1610.83
 21
-934.333
 31
0
  0
LINE
  5
A5C
330
A02
100
AcDbEntity
  8
ProjItem211
100
AcDbLine
 10
1610.83
 20
-684.334
 30
0
 11
1610.83
 21
-934.333
 31
0
  0
LINE
  5
A5D
330
A02
100
AcDbEntity
  8
ProjItem211
100
AcDbLine
 10
1556.83
 20
-684.334
 30
0
 11
1610.83
 21
-684.334
 31
0
  0
LINE
  5
A5E
330
A02
100
AcDbEntity
  8
ProjItem211
100
AcDbLine
 10
1571.83
 20
-542.467
 30
0
 11
1621.83
 21
-542.467
 31
0
  0
LINE
  5
A5F
330
A02
100
AcDbEntity
  8
ProjItem211
100
AcDbLine
 10
1571.83
 20
1074.33
 30
0
 11
1385.83
 21
1074.33
 31
0
  0
LINE
  5
A60
330
A02
100
AcDbEntity
  8
ProjItem211
100
AcDbLine
 10
1571.83
 20
-552.467
 30
0
 11
1621.83
 21
-552.467
 31
0
  0
LINE
  5
A61
330
A02
100
AcDbEntity
  8
ProjItem211
100
AcDbLine
 10
1621.83
 20
-542.467
 30
0
 11
1621.83
 21
-552.467
 31
0
  0
LINE
  5
A62
330
A02
100
AcDbEntity
  8
ProjItem211
100
AcDbLine
 10
1385.83
 20
1074.33
 30
0
 11
1385.83
 21
894.333
 31
0
  0
LINE
  5
A63
330
A02
100
AcDbEntity
  8
ProjItem211
100
AcDbLine
 10
1385.83
 20
894.333
 30
0
 11
1571.83
 21
894.333
 31
0
  0
CIRCLE
  5
A64
330
A02
100
AcDbEntity
  8
ProjItem211
100
AcDbCircle
 10
1430.83
 20
1034.33
 40
7
  0
CIRCLE
  5
A65
330
A02
100
AcDbEntity
  8
ProjItem211
100
AcDbCircle
 10
1430.83
 20
934.333
 40
7
  0
CIRCLE
  5
A66
330
A02
100
AcDbEntity
  8
ProjItem211
100
AcDbCircle
 10
1526.83
 20
934.333
 40
7
  0
CIRCLE
  5
A67
330
A02
100
AcDbEntity
  8
ProjItem211
100
AcDbCircle
 10
1526.83
 20
1034.33
 40
7
  0
LINE
  5
A68
330
A02
100
AcDbEntity
  8
ProjItem211
100
AcDbLine
 10
1571.83
 20
912.467
 30
0
 11
1621.83
 21
912.467
 31
0
  0
LINE
  5
A69
330
A02
100
AcDbEntity
  8
ProjItem211
100
AcDbLine
 10
1571.83
 20
902.467
 30
0
 11
1621.83
 21
902.467
 31
0
  0
LINE
  5
A6A
330
A02
100
AcDbEntity
  8
ProjItem211
100
AcDbLine
 10
1610.83
 20
-684.334
 30
0
 11
1625.83
 21
-684.334
 31
0
  0
LINE
  5
A6B
330
A02
100
AcDbEntity
  8
ProjItem211
100
AcDbLine
 10
1571.83
 20
-475.434
 30
0
 11
1556.83
 21
-475.434
 31
0
  0
LINE
  5
A6C
330
A02
100
AcDbEntity
  8
ProjItem211
100
AcDbLine
 10
1571.83
 20
122.362
 30
0
 11
1556.83
 21
122.362
 31
0
  0
LINE
  5
A6D
330
A02
100
AcDbEntity
  8
ProjItem211
100
AcDbLine
 10
1571.83
 20
845.679
 30
0
 11
1556.83
 21
845.679
 31
0
  0
LINE
  5
A6E
330
A02
100
AcDbEntity
  8
ProjItem211
100
AcDbLine
 10
1571.83
 20
-370.6
 30
0
 11
1621.83
 21
-370.6
 31
0
  0
LINE
  5
A6F
330
A02
100
AcDbEntity
  8
ProjItem211
100
AcDbLine
 10
1571.83
 20
-360.6
 30
0
 11
1621.83
 21
-360.6
 31
0
  0
LINE
  5
A70
330
A02
100
AcDbEntity
  8
ProjItem211
100
AcDbLine
 10
1621.83
 20
-360.6
 30
0
 11
1621.83
 21
-370.6
 31
0
  0
LINE
  5
A71
330
A02
100
AcDbEntity
  8
ProjItem211
100
AcDbLine
 10
1571.83
 20
175
 30
0
 11
1621.83
 21
175
 31
0
  0
LINE
  5
A72
330
A02
100
AcDbEntity
  8
ProjItem211
100
AcDbLine
 10
1571.83
 20
185
 30
0
 11
1621.83
 21
185
 31
0
  0
LINE
  5
A73
330
A02
100
AcDbEntity
  8
ProjItem211
100
AcDbLine
 10
1621.83
 20
185
 30
0
 11
1621.83
 21
175
 31
0
  0
LINE
  5
A74
330
A02
100
AcDbEntity
  8
ProjItem211
100
AcDbLine
 10
1571.83
 20
-188.733
 30
0
 11
1621.83
 21
-188.733
 31
0
  0
LINE
  5
A75
330
A02
100
AcDbEntity
  8
ProjItem211
100
AcDbLine
 10
1571.83
 20
-178.733
 30
0
 11
1621.83
 21
-178.733
 31
0
  0
LINE
  5
A76
330
A02
100
AcDbEntity
  8
ProjItem211
100
AcDbLine
 10
1621.83
 20
-178.733
 30
0
 11
1621.83
 21
-188.733
 31
0
  0
LINE
  5
A77
330
A02
100
AcDbEntity
  8
ProjItem211
100
AcDbLine
 10
1571.83
 20
-6.8667
 30
0
 11
1621.83
 21
-6.8667
 31
0
  0
LINE
  5
A78
330
A02
100
AcDbEntity
  8
ProjItem211
100
AcDbLine
 10
1571.83
 20
3.1333
 30
0
 11
1621.83
 21
3.1333
 31
0
  0
LINE
  5
A79
330
A02
100
AcDbEntity
  8
ProjItem211
100
AcDbLine
 10
1621.83
 20
3.1333
 30
0
 11
1621.83
 21
-6.8667
 31
0
  0
LINE
  5
A7A
330
A02
100
AcDbEntity
  8
ProjItem211
100
AcDbLine
 10
1571.83
 20
538.733
 30
0
 11
1621.83
 21
538.733
 31
0
  0
LINE
  5
A7B
330
A02
100
AcDbEntity
  8
ProjItem211
100
AcDbLine
 10
1571.83
 20
548.733
 30
0
 11
1621.83
 21
548.733
 31
0
  0
LINE
  5
A7C
330
A02
100
AcDbEntity
  8
ProjItem211
100
AcDbLine
 10
1621.83
 20
548.733
 30
0
 11
1621.83
 21
538.733
 31
0
  0
LINE
  5
A7D
330
A02
100
AcDbEntity
  8
ProjItem211
100
AcDbLine
 10
1571.83
 20
720.6
 30
0
 11
1621.83
 21
720.6
 31
0
  0
LINE
  5
A7E
330
A02
100
AcDbEntity
  8
ProjItem211
100
AcDbLine
 10
1571.83
 20
730.6
 30
0
 11
1621.83
 21
730.6
 31
0
  0
LINE
  5
A7F
330
A02
100
AcDbEntity
  8
ProjItem211
100
AcDbLine
 10
1621.83
 20
730.6
 30
0
 11
1621.83
 21
720.6
 31
0
  0
LINE
  5
A80
330
A02
100
AcDbEntity
  8
ProjItem211
100
AcDbLine
 10
1571.83
 20
356.867
 30
0
 11
1621.83
 21
356.867
 31
0
  0
LINE
  5
A81
330
A02
100
AcDbEntity
  8
ProjItem211
100
AcDbLine
 10
1571.83
 20
366.867
 30
0
 11
1621.83
 21
366.867
 31
0
  0
LINE
  5
A82
330
A02
100
AcDbEntity
  8
ProjItem211
100
AcDbLine
 10
1621.83
 20
366.867
 30
0
 11
1621.83
 21
356.867
 31
0
  0
LINE
  5
A83
330
A02
100
AcDbEntity
  8
ProjItem211
100
AcDbLine
 10
1571.83
 20
912.467
 30
0
 11
1571.83
 21
902.467
 31
0
  0
LINE
  5
A84
330
A02
100
AcDbEntity
  8
ProjItem211
100
AcDbLine
 10
1621.83
 20
912.467
 30
0
 11
1621.83
 21
902.467
 31
0
  0
LINE
  5
A85
330
A02
100
AcDbEntity
  8
ProjItem212
100
AcDbLine
 10
467.562
 20
-1300.58
 30
0
 11
467.562
 21
-1285.58
 31
0
  0
LINE
  5
A86
330
A02
100
AcDbEntity
  8
ProjItem212
100
AcDbLine
 10
922.962
 20
-1300.58
 30
0
 11
922.962
 21
-1285.58
 31
0
  0
LINE
  5
A87
330
A02
100
AcDbEntity
  8
ProjItem212
100
AcDbLine
 10
467.562
 20
-1300.58
 30
0
 11
922.962
 21
-1300.58
 31
0
  0
LINE
  5
A88
330
A02
100
AcDbEntity
  8
ProjItem212
100
AcDbLine
 10
467.562
 20
-1285.58
 30
0
 11
922.962
 21
-1285.58
 31
0
  0
LINE
  5
A89
330
A02
100
AcDbEntity
  8
ProjItem212
100
AcDbLine
 10
-792.927
 20
-1300.58
 30
0
 11
-792.927
 21
-1285.58
 31
0
  0
LINE
  5
A8A
330
A02
100
AcDbEntity
  8
ProjItem212
100
AcDbLine
 10
467.562
 20
-1300.58
 30
0
 11
-792.927
 21
-1300.58
 31
0
  0
LINE
  5
A8B
330
A02
100
AcDbEntity
  8
ProjItem212
100
AcDbLine
 10
467.562
 20
-1285.58
 30
0
 11
-792.927
 21
-1285.58
 31
0
  0
LINE
  5
A8C
330
A02
100
AcDbEntity
  8
ProjItem212
100
AcDbLine
 10
922.962
 20
-1350.58
 30
0
 11
922.962
 21
-1354.58
 31
0
  0
LINE
  5
A8D
330
A02
100
AcDbEntity
  8
ProjItem212
100
AcDbLine
 10
-792.927
 20
-1300.58
 30
0
 11
-796.038
 21
-1300.58
 31
0
  0
LINE
  5
A8E
330
A02
100
AcDbEntity
  8
ProjItem212
100
AcDbLine
 10
-796.038
 20
-1300.58
 30
0
 11
-811.038
 21
-1300.58
 31
0
  0
LINE
  5
A8F
330
A02
100
AcDbEntity
  8
ProjItem212
100
AcDbLine
 10
-792.927
 20
-1285.58
 30
0
 11
-796.038
 21
-1285.58
 31
0
  0
LINE
  5
A90
330
A02
100
AcDbEntity
  8
ProjItem212
100
AcDbLine
 10
-796.038
 20
-1300.58
 30
0
 11
-796.038
 21
-1285.58
 31
0
  0
LINE
  5
A91
330
A02
100
AcDbEntity
  8
ProjItem212
100
AcDbLine
 10
1122.96
 20
-1300.58
 30
0
 11
922.962
 21
-1300.58
 31
0
  0
LINE
  5
A92
330
A02
100
AcDbEntity
  8
ProjItem212
100
AcDbLine
 10
672.962
 20
-1350.58
 30
0
 11
672.962
 21
-1354.58
 31
0
  0
LINE
  5
A93
330
A02
100
AcDbEntity
  8
ProjItem212
100
AcDbLine
 10
672.962
 20
-1354.58
 30
0
 11
922.962
 21
-1354.58
 31
0
  0
LINE
  5
A94
330
A02
100
AcDbEntity
  8
ProjItem212
100
AcDbLine
 10
1122.96
 20
-1300.58
 30
0
 11
1122.96
 21
-1350.58
 31
0
  0
LINE
  5
A95
330
A02
100
AcDbEntity
  8
ProjItem212
100
AcDbLine
 10
837.042
 20
-1300.58
 30
0
 11
837.042
 21
-1350.58
 31
0
  0
LINE
  5
A96
330
A02
100
AcDbEntity
  8
ProjItem212
100
AcDbLine
 10
1122.96
 20
-1350.58
 30
0
 11
837.042
 21
-1350.58
 31
0
  0
LINE
  5
A97
330
A02
100
AcDbEntity
  8
ProjItem212
100
AcDbLine
 10
-796.038
 20
-1285.58
 30
0
 11
-796.038
 21
-1114.58
 31
0
  0
LINE
  5
A98
330
A02
100
AcDbEntity
  8
ProjItem212
100
AcDbLine
 10
-796.038
 20
-1114.58
 30
0
 11
-811.038
 21
-1114.58
 31
0
  0
LINE
  5
A99
330
A02
100
AcDbEntity
  8
ProjItem212
100
AcDbLine
 10
-811.038
 20
-1300.58
 30
0
 11
-811.038
 21
-1114.58
 31
0
  0
LINE
  5
A9A
330
A02
100
AcDbEntity
  8
ProjItem212
100
AcDbLine
 10
-533.962
 20
-1300.58
 30
0
 11
-533.962
 21
-1350.58
 31
0
  0
LINE
  5
A9B
330
A02
100
AcDbEntity
  8
ProjItem212
100
AcDbLine
 10
-825.962
 20
-1300.58
 30
0
 11
-825.962
 21
-1350.58
 31
0
  0
LINE
  5
A9C
330
A02
100
AcDbEntity
  8
ProjItem212
100
AcDbLine
 10
-811.038
 20
-1300.58
 30
0
 11
-825.962
 21
-1300.58
 31
0
  0
LINE
  5
A9D
330
A02
100
AcDbEntity
  8
ProjItem212
100
AcDbLine
 10
-533.962
 20
-1350.58
 30
0
 11
-825.962
 21
-1350.58
 31
0
  0
LINE
  5
A9E
330
A02
100
AcDbEntity
  8
ProjItem212
100
AcDbLine
 10
810.962
 20
-1300.58
 30
0
 11
810.962
 21
-1350.58
 31
0
  0
LINE
  5
A9F
330
A02
100
AcDbEntity
  8
ProjItem212
100
AcDbLine
 10
810.962
 20
-1350.58
 30
0
 11
701.652
 21
-1350.58
 31
0
  0
LINE
  5
AA0
330
A02
100
AcDbEntity
  8
ProjItem212
100
AcDbLine
 10
475.872
 20
-1300.58
 30
0
 11
475.872
 21
-1350.58
 31
0
  0
LINE
  5
AA1
330
A02
100
AcDbEntity
  8
ProjItem212
100
AcDbLine
 10
475.872
 20
-1350.58
 30
0
 11
282.038
 21
-1350.58
 31
0
  0
LINE
  5
AA2
330
A02
100
AcDbEntity
  8
ProjItem212
100
AcDbLine
 10
701.652
 20
-1300.58
 30
0
 11
701.652
 21
-1350.58
 31
0
  0
LINE
  5
AA3
330
A02
100
AcDbEntity
  8
ProjItem212
100
AcDbLine
 10
701.652
 20
-1350.58
 30
0
 11
589.192
 21
-1350.58
 31
0
  0
LINE
  5
AA4
330
A02
100
AcDbEntity
  8
ProjItem212
100
AcDbLine
 10
589.192
 20
-1300.58
 30
0
 11
589.192
 21
-1350.58
 31
0
  0
LINE
  5
AA5
330
A02
100
AcDbEntity
  8
ProjItem212
100
AcDbLine
 10
589.192
 20
-1350.58
 30
0
 11
475.872
 21
-1350.58
 31
0
  0
LINE
  5
AA6
330
A02
100
AcDbEntity
  8
ProjItem212
100
AcDbLine
 10
10.0378
 20
-1300.58
 30
0
 11
10.0378
 21
-1350.58
 31
0
  0
LINE
  5
AA7
330
A02
100
AcDbEntity
  8
ProjItem212
100
AcDbLine
 10
10.0378
 20
-1350.58
 30
0
 11
-261.962
 21
-1350.58
 31
0
  0
LINE
  5
AA8
330
A02
100
AcDbEntity
  8
ProjItem212
100
AcDbLine
 10
-261.962
 20
-1300.58
 30
0
 11
-261.962
 21
-1350.58
 31
0
  0
LINE
  5
AA9
330
A02
100
AcDbEntity
  8
ProjItem212
100
AcDbLine
 10
-261.962
 20
-1350.58
 30
0
 11
-533.962
 21
-1350.58
 31
0
  0
LINE
  5
AAA
330
A02
100
AcDbEntity
  8
ProjItem212
100
AcDbLine
 10
282.038
 20
-1300.58
 30
0
 11
282.038
 21
-1350.58
 31
0
  0
LINE
  5
AAB
330
A02
100
AcDbEntity
  8
ProjItem212
100
AcDbLine
 10
282.038
 20
-1350.58
 30
0
 11
10.0378
 21
-1350.58
 31
0
  0
LINE
  5
AAC
330
A02
100
AcDbEntity
  8
ProjItem210
100
AcDbLine
 10
-1428.17
 20
166.121
 30
0
 11
-1438.78
 21
172.245
 31
0
  0
LINE
  5
AAD
330
A02
100
AcDbEntity
  8
ProjItem210
100
AcDbLine
 10
-1428.17
 20
166.121
 30
0
 11
-1106.15
 21
-222.022
 31
0
  0
LINE
  5
AAE
330
A02
100
AcDbEntity
  8
ProjItem210
100
AcDbLine
 10
-2319.47
 20
339.67
 30
0
 11
-2330.08
 21
345.794
 31
0
  0
LINE
  5
AAF
330
A02
100
AcDbEntity
  8
ProjItem210
100
AcDbLine
 10
-1428.17
 20
166.121
 30
0
 11
-2319.47
 21
339.67
 31
0
  0
LINE
  5
AB0
330
A02
100
AcDbEntity
  8
ProjItem210
100
AcDbLine
 10
-1438.78
 20
172.245
 30
0
 11
-2330.08
 21
345.794
 31
0
  0
LINE
  5
AB1
330
A02
100
AcDbEntity
  8
ProjItem210
100
AcDbLine
 10
-1106.15
 20
-222.022
 30
0
 11
-1106.15
 21
-337.087
 31
0
  0
LINE
  5
AB2
330
A02
100
AcDbEntity
  8
ProjItem210
100
AcDbLine
 10
-1106.15
 20
-386.077
 30
0
 11
-1106.15
 21
-440.674
 31
0
  0
LINE
  5
AB3
330
A02
100
AcDbEntity
  8
ProjItem210
100
AcDbLine
 10
-1106.15
 20
-440.674
 30
0
 11
-1067.97
 21
-462.719
 31
0
  0
LINE
  5
AB4
330
A02
100
AcDbEntity
  8
ProjItem210
100
AcDbLine
 10
-1067.97
 20
-462.719
 30
0
 11
-1067.97
 21
-679.091
 31
0
  0
LINE
  5
AB5
330
A02
100
AcDbEntity
  8
ProjItem210
100
AcDbLine
 10
-2319.47
 20
339.67
 30
0
 11
-2321.67
 21
338.401
 31
0
  0
LINE
  5
AB6
330
A02
100
AcDbEntity
  8
ProjItem210
100
AcDbLine
 10
-2321.67
 20
338.401
 30
0
 11
-2321.67
 21
281.246
 31
0
  0
LINE
  5
AB7
330
A02
100
AcDbEntity
  8
ProjItem210
100
AcDbLine
 10
-1106.15
 20
-337.087
 30
0
 11
-1166.91
 21
-372.164
 31
0
  0
LINE
  5
AB8
330
A02
100
AcDbEntity
  8
ProjItem210
100
AcDbLine
 10
-2321.67
 20
281.246
 30
0
 11
-2332.28
 21
275.122
 31
0
  0
LINE
  5
AB9
330
A02
100
AcDbEntity
  8
ProjItem210
100
AcDbLine
 10
-1166.91
 20
-372.164
 30
0
 11
-1166.91
 21
-380.329
 31
0
  0
LINE
  5
ABA
330
A02
100
AcDbEntity
  8
ProjItem210
100
AcDbLine
 10
-2332.28
 20
275.122
 30
0
 11
-2332.28
 21
142.958
 31
0
  0
LINE
  5
ABB
330
A02
100
AcDbEntity
  8
ProjItem210
100
AcDbLine
 10
-2136.36
 20
256.074
 30
0
 11
-2332.28
 21
142.958
 31
0
  0
LINE
  5
ABC
330
A02
100
AcDbEntity
  8
ProjItem210
100
AcDbLine
 10
-1282.93
 20
-542.736
 30
0
 11
-1106.15
 21
-440.674
 31
0
  0
LINE
  5
ABD
330
A02
100
AcDbEntity
  8
ProjItem210
100
AcDbLine
 10
-1282.93
 20
-542.736
 30
0
 11
-1282.93
 21
-384.417
 31
0
  0
LINE
  5
ABE
330
A02
100
AcDbEntity
  8
ProjItem210
100
AcDbLine
 10
-1282.93
 20
-384.417
 30
0
 11
-1556.73
 21
-54.3956
 31
0
  0
LINE
  5
ABF
330
A02
100
AcDbEntity
  8
ProjItem210
100
AcDbLine
 10
-2321.67
 20
94.5498
 30
0
 11
-1556.73
 21
-54.3956
 31
0
  0
LINE
  5
AC0
330
A02
100
AcDbEntity
  8
ProjItem210
100
AcDbLine
 10
-2321.67
 20
116.484
 30
0
 11
-2321.67
 21
94.5498
 31
0
  0
ELLIPSE
  5
AC1
330
A02
100
AcDbEntity
  8
ProjItem210
100
AcDbEllipse
 10
-1152.12
 20
-438.632
 30
0
 11
2.75
 21
4.76314
 31
0
 40
0.57735
 41
-3.14159
 42
-0.785398
  0
ELLIPSE
  5
AC2
330
A02
100
AcDbEntity
  8
ProjItem210
100
AcDbEllipse
 10
-1152.12
 20
-438.632
 30
0
 11
2.75
 21
4.76314
 31
0
 40
0.57735
 41
-0
 42
-3.14159
  0
ELLIPSE
  5
AC3
330
A02
100
AcDbEntity
  8
ProjItem210
100
AcDbEllipse
 10
-1152.12
 20
-438.632
 30
0
 11
2.75
 21
4.76314
 31
0
 40
0.57735
 41
-0.785398
 42
-0
  0
ELLIPSE
  5
AC4
330
A02
100
AcDbEntity
  8
ProjItem210
100
AcDbEllipse
 10
-1152.12
 20
-405.972
 30
0
 11
2.75
 21
4.76314
 31
0
 40
0.57735
 41
-3.14159
 42
-0.785398
  0
ELLIPSE
  5
AC5
330
A02
100
AcDbEntity
  8
ProjItem210
100
AcDbEllipse
 10
-1152.12
 20
-405.972
 30
0
 11
2.75
 21
4.76314
 31
0
 40
0.57735
 41
-0
 42
-3.14159
  0
ELLIPSE
  5
AC6
330
A02
100
AcDbEntity
  8
ProjItem210
100
AcDbEllipse
 10
-1152.12
 20
-405.972
 30
0
 11
2.75
 21
4.76314
 31
0
 40
0.57735
 41
-0.785398
 42
-0
  0
ELLIPSE
  5
AC7
330
A02
100
AcDbEntity
  8
ProjItem210
100
AcDbEllipse
 10
-1152.12
 20
-306.53
 30
0
 11
-2.75
 21
-4.76314
 31
0
 40
0.57735
 41
2.35619
 42
3.14159
  0
ELLIPSE
  5
AC8
330
A02
100
AcDbEntity
  8
ProjItem210
100
AcDbEllipse
 10
-1152.12
 20
-306.53
 30
0
 11
-2.75
 21
-4.76314
 31
0
 40
0.57735
 41
3.14159
 42
0
  0
ELLIPSE
  5
AC9
330
A02
100
AcDbEntity
  8
ProjItem210
100
AcDbEllipse
 10
-1152.12
 20
-306.53
 30
0
 11
-2.75
 21
-4.76314
 31
0
 40
0.57735
 41
0
 42
2.35619
  0
LINE
  5
ACA
330
A02
100
AcDbEntity
  8
ProjItem210
100
AcDbLine
 10
-1185.35
 20
-234.318
 30
0
 11
-1265.74
 21
-280.73
 31
0
  0
LINE
  5
ACB
330
A02
100
AcDbEntity
  8
ProjItem210
100
AcDbLine
 10
-1265.74
 20
-280.73
 30
0
 11
-1265.74
 21
-288.895
 31
0
  0
ELLIPSE
  5
ACC
330
A02
100
AcDbEntity
  8
ProjItem210
100
AcDbEllipse
 10
-1152.12
 20
-265.705
 30
0
 11
-2.75
 21
-4.76314
 31
0
 40
0.57735
 41
2.35619
 42
3.14159
  0
ELLIPSE
  5
ACD
330
A02
100
AcDbEntity
  8
ProjItem210
100
AcDbEllipse
 10
-1152.12
 20
-265.705
 30
0
 11
-2.75
 21
-4.76314
 31
0
 40
0.57735
 41
3.14159
 42
3.35006
  0
ELLIPSE
  5
ACE
330
A02
100
AcDbEntity
  8
ProjItem210
100
AcDbEllipse
 10
-1152.12
 20
-265.705
 30
0
 11
-2.75
 21
-4.76314
 31
0
 40
0.57735
 41
5.13705
 42
0
  0
ELLIPSE
  5
ACF
330
A02
100
AcDbEntity
  8
ProjItem210
100
AcDbEllipse
 10
-1152.12
 20
-265.705
 30
0
 11
-2.75
 21
-4.76314
 31
0
 40
0.57735
 41
0
 42
2.35619
  0
LINE
  5
AD0
330
A02
100
AcDbEntity
  8
ProjItem210
100
AcDbLine
 10
-1422.3
 20
74.3631
 30
0
 11
-1573.5
 21
-12.9344
 31
0
  0
LINE
  5
AD1
330
A02
100
AcDbEntity
  8
ProjItem210
100
AcDbLine
 10
-1573.5
 20
-12.9344
 30
0
 11
-1573.5
 21
-21.0994
 31
0
  0
LINE
  5
AD2
330
A02
100
AcDbEntity
  8
ProjItem210
100
AcDbLine
 10
-1262.64
 20
-130.45
 30
0
 11
-1345.7
 21
-178.401
 31
0
  0
LINE
  5
AD3
330
A02
100
AcDbEntity
  8
ProjItem210
100
AcDbLine
 10
-1345.7
 20
-178.401
 30
0
 11
-1345.7
 21
-186.566
 31
0
  0
LINE
  5
AD4
330
A02
100
AcDbEntity
  8
ProjItem210
100
AcDbLine
 10
-1342.17
 20
-27.8677
 30
0
 11
-1429.75
 21
-78.4348
 31
0
  0
LINE
  5
AD5
330
A02
100
AcDbEntity
  8
ProjItem210
100
AcDbLine
 10
-1429.75
 20
-78.4348
 30
0
 11
-1429.75
 21
-86.5998
 31
0
  0
ELLIPSE
  5
AD6
330
A02
100
AcDbEntity
  8
ProjItem210
100
AcDbEllipse
 10
-1729.82
 20
100.022
 30
0
 11
-2.75
 21
-4.76314
 31
0
 40
0.57735
 41
2.35619
 42
3.14159
  0
ELLIPSE
  5
AD7
330
A02
100
AcDbEntity
  8
ProjItem210
100
AcDbEllipse
 10
-1729.82
 20
100.022
 30
0
 11
-2.75
 21
-4.76314
 31
0
 40
0.57735
 41
3.14159
 42
0
  0
ELLIPSE
  5
AD8
330
A02
100
AcDbEntity
  8
ProjItem210
100
AcDbEllipse
 10
-1729.82
 20
100.022
 30
0
 11
-2.75
 21
-4.76314
 31
0
 40
0.57735
 41
0
 42
2.35619
  0
ELLIPSE
  5
AD9
330
A02
100
AcDbEntity
  8
ProjItem210
100
AcDbEllipse
 10
-1729.82
 20
140.846
 30
0
 11
-2.75
 21
-4.76314
 31
0
 40
0.57735
 41
2.35619
 42
3.14159
  0
ELLIPSE
  5
ADA
330
A02
100
AcDbEntity
  8
ProjItem210
100
AcDbEllipse
 10
-1729.82
 20
140.846
 30
0
 11
-2.75
 21
-4.76314
 31
0
 40
0.57735
 41
3.14159
 42
3.43721
  0
ELLIPSE
  5
ADB
330
A02
100
AcDbEntity
  8
ProjItem210
100
AcDbEllipse
 10
-1729.82
 20
140.846
 30
0
 11
-2.75
 21
-4.76314
 31
0
 40
0.57735
 41
4.41677
 42
0
  0
ELLIPSE
  5
ADC
330
A02
100
AcDbEntity
  8
ProjItem210
100
AcDbEllipse
 10
-1729.82
 20
140.846
 30
0
 11
-2.75
 21
-4.76314
 31
0
 40
0.57735
 41
0
 42
2.35619
  0
LINE
  5
ADD
330
A02
100
AcDbEntity
  8
ProjItem210
100
AcDbLine
 10
-1751.69
 20
181.174
 30
0
 11
-1958.17
 21
61.9656
 31
0
  0
LINE
  5
ADE
330
A02
100
AcDbEntity
  8
ProjItem210
100
AcDbLine
 10
-1958.17
 20
61.9656
 30
0
 11
-1958.17
 21
53.8006
 31
0
  0
LINE
  5
ADF
330
A02
100
AcDbEntity
  8
ProjItem210
100
AcDbLine
 10
-1944.02
 20
218.624
 30
0
 11
-2150.5
 21
99.4156
 31
0
  0
LINE
  5
AE0
330
A02
100
AcDbEntity
  8
ProjItem210
100
AcDbLine
 10
-2150.5
 20
99.4156
 30
0
 11
-2150.5
 21
91.2506
 31
0
  0
ELLIPSE
  5
AE1
330
A02
100
AcDbEntity
  8
ProjItem210
100
AcDbEllipse
 10
-2282.78
 20
230.076
 30
0
 11
-2.75
 21
-4.76314
 31
0
 40
0.57735
 41
2.35619
 42
3.14159
  0
ELLIPSE
  5
AE2
330
A02
100
AcDbEntity
  8
ProjItem210
100
AcDbEllipse
 10
-2282.78
 20
230.076
 30
0
 11
-2.75
 21
-4.76314
 31
0
 40
0.57735
 41
3.14159
 42
0
  0
ELLIPSE
  5
AE3
330
A02
100
AcDbEntity
  8
ProjItem210
100
AcDbEllipse
 10
-2282.78
 20
230.076
 30
0
 11
-2.75
 21
-4.76314
 31
0
 40
0.57735
 41
0
 42
2.35619
  0
ELLIPSE
  5
AE4
330
A02
100
AcDbEntity
  8
ProjItem210
100
AcDbEllipse
 10
-2282.78
 20
270.901
 30
0
 11
-2.75
 21
-4.76314
 31
0
 40
0.57735
 41
2.35619
 42
3.14159
  0
ELLIPSE
  5
AE5
330
A02
100
AcDbEntity
  8
ProjItem210
100
AcDbEllipse
 10
-2282.78
 20
270.901
 30
0
 11
-2.75
 21
-4.76314
 31
0
 40
0.57735
 41
3.14159
 42
0
  0
ELLIPSE
  5
AE6
330
A02
100
AcDbEntity
  8
ProjItem210
100
AcDbEllipse
 10
-2282.78
 20
270.901
 30
0
 11
-2.75
 21
-4.76314
 31
0
 40
0.57735
 41
0
 42
2.35619
  0
LINE
  5
AE7
330
A02
100
AcDbEntity
  8
ProjItem210
100
AcDbLine
 10
-1559.36
 20
143.724
 30
0
 11
-1765.83
 21
24.5156
 31
0
  0
LINE
  5
AE8
330
A02
100
AcDbEntity
  8
ProjItem210
100
AcDbLine
 10
-1765.83
 20
24.5156
 30
0
 11
-1765.83
 21
16.3506
 31
0
  0
ELLIPSE
  5
AE9
330
A02
100
AcDbEntity
  8
ProjItem210
100
AcDbEllipse
 10
-1694.47
 20
120.434
 30
0
 11
-2.75
 21
-4.76314
 31
0
 40
0.57735
 41
2.35619
 42
3.14159
  0
ELLIPSE
  5
AEA
330
A02
100
AcDbEntity
  8
ProjItem210
100
AcDbEllipse
 10
-1694.47
 20
120.434
 30
0
 11
-2.75
 21
-4.76314
 31
0
 40
0.57735
 41
3.14159
 42
0
  0
ELLIPSE
  5
AEB
330
A02
100
AcDbEntity
  8
ProjItem210
100
AcDbEllipse
 10
-1694.47
 20
120.434
 30
0
 11
-2.75
 21
-4.76314
 31
0
 40
0.57735
 41
0
 42
2.35619
  0
ELLIPSE
  5
AEC
330
A02
100
AcDbEntity
  8
ProjItem210
100
AcDbEllipse
 10
-1694.47
 20
161.259
 30
0
 11
-2.75
 21
-4.76314
 31
0
 40
0.57735
 41
2.35619
 42
3.14159
  0
ELLIPSE
  5
AED
330
A02
100
AcDbEntity
  8
ProjItem210
100
AcDbEllipse
 10
-1694.47
 20
161.259
 30
0
 11
-2.75
 21
-4.76314
 31
0
 40
0.57735
 41
3.14159
 42
0
  0
ELLIPSE
  5
AEE
330
A02
100
AcDbEntity
  8
ProjItem210
100
AcDbEllipse
 10
-1694.47
 20
161.259
 30
0
 11
-2.75
 21
-4.76314
 31
0
 40
0.57735
 41
0
 42
2.35619
  0
LINE
  5
AEF
330
A02
100
AcDbEntity
  8
ProjItem210
100
AcDbLine
 10
-2330.08
 20
345.794
 30
0
 11
-2332.28
 21
344.524
 31
0
  0
LINE
  5
AF0
330
A02
100
AcDbEntity
  8
ProjItem210
100
AcDbLine
 10
-2332.28
 20
344.524
 30
0
 11
-2332.28
 21
287.37
 31
0
  0
LINE
  5
AF1
330
A02
100
AcDbEntity
  8
ProjItem210
100
AcDbLine
 10
-1293.54
 20
-548.859
 30
0
 11
-1293.54
 21
-378.293
 31
0
  0
LINE
  5
AF2
330
A02
100
AcDbEntity
  8
ProjItem210
100
AcDbLine
 10
-2332.28
 20
122.608
 30
0
 11
-2332.28
 21
100.674
 31
0
  0
LINE
  5
AF3
330
A02
100
AcDbEntity
  8
ProjItem210
100
AcDbLine
 10
-1293.54
 20
-378.293
 30
0
 11
-1563.32
 21
-53.1123
 31
0
  0
LINE
  5
AF4
330
A02
100
AcDbEntity
  8
ProjItem210
100
AcDbLine
 10
-2321.67
 20
338.401
 30
0
 11
-2332.28
 21
344.524
 31
0
  0
LINE
  5
AF5
330
A02
100
AcDbEntity
  8
ProjItem210
100
AcDbLine
 10
-964.733
 20
-255.438
 30
0
 11
-1106.15
 21
-337.087
 31
0
  0
LINE
  5
AF6
330
A02
100
AcDbEntity
  8
ProjItem210
100
AcDbLine
 10
-1282.93
 20
-542.736
 30
0
 11
-1244.75
 21
-564.781
 31
0
  0
LINE
  5
AF7
330
A02
100
AcDbEntity
  8
ProjItem210
100
AcDbLine
 10
-1244.75
 20
-564.781
 30
0
 11
-1067.97
 21
-462.719
 31
0
  0
LINE
  5
AF8
330
A02
100
AcDbEntity
  8
ProjItem210
100
AcDbLine
 10
-1244.75
 20
-577.028
 30
0
 11
-1244.75
 21
-564.781
 31
0
  0
LINE
  5
AF9
330
A02
100
AcDbEntity
  8
ProjItem210
100
AcDbLine
 10
-1244.75
 20
-577.028
 30
0
 11
-1124.54
 21
-711.75
 31
0
  0
LINE
  5
AFA
330
A02
100
AcDbEntity
  8
ProjItem210
100
AcDbLine
 10
-1124.54
 20
-711.75
 30
0
 11
-1067.97
 21
-679.091
 31
0
  0
ELLIPSE
  5
AFB
330
A02
100
AcDbEntity
  8
ProjItem210
100
AcDbEllipse
 10
-1096.26
 20
-662.761
 30
0
 11
-3.5
 21
-6.06218
 31
0
 40
0.57735
 41
2.35619
 42
3.14159
  0
ELLIPSE
  5
AFC
330
A02
100
AcDbEntity
  8
ProjItem210
100
AcDbEllipse
 10
-1096.26
 20
-662.761
 30
0
 11
-3.5
 21
-6.06218
 31
0
 40
0.57735
 41
3.14159
 42
0
  0
ELLIPSE
  5
AFD
330
A02
100
AcDbEntity
  8
ProjItem210
100
AcDbEllipse
 10
-1096.26
 20
-662.761
 30
0
 11
-3.5
 21
-6.06218
 31
0
 40
0.57735
 41
0
 42
2.35619
  0
ELLIPSE
  5
AFE
330
A02
100
AcDbEntity
  8
ProjItem210
100
AcDbEllipse
 10
-1096.26
 20
-613.771
 30
0
 11
-3.5
 21
-6.06218
 31
0
 40
0.57735
 41
2.35619
 42
3.14159
  0
ELLIPSE
  5
AFF
330
A02
100
AcDbEntity
  8
ProjItem210
100
AcDbEllipse
 10
-1096.26
 20
-613.771
 30
0
 11
-3.5
 21
-6.06218
 31
0
 40
0.57735
 41
3.14159
 42
0
  0
ELLIPSE
  5
B00
330
A02
100
AcDbEntity
  8
ProjItem210
100
AcDbEllipse
 10
-1096.26
 20
-613.771
 30
0
 11
-3.5
 21
-6.06218
 31
0
 40
0.57735
 41
0
 42
2.35619
  0
LINE
  5
B01
330
A02
100
AcDbEntity
  8
ProjItem210
100
AcDbLine
 10
-1124.54
 20
-711.75
 30
0
 11
-1135.15
 21
-705.627
 31
0
  0
LINE
  5
B02
330
A02
100
AcDbEntity
  8
ProjItem210
100
AcDbLine
 10
-1255.35
 20
-570.905
 30
0
 11
-1135.15
 21
-705.627
 31
0
  0
LINE
  5
B03
330
A02
100
AcDbEntity
  8
ProjItem210
100
AcDbLine
 10
-1293.54
 20
-548.859
 30
0
 11
-1255.35
 21
-570.905
 31
0
  0
LINE
  5
B04
330
A02
100
AcDbEntity
  8
ProjItem210
100
AcDbLine
 10
-2321.67
 20
281.246
 30
0
 11
-2332.28
 21
287.37
 31
0
  0
LINE
  5
B05
330
A02
100
AcDbEntity
  8
ProjItem210
100
AcDbLine
 10
-964.733
 20
-255.438
 30
0
 11
-929.378
 21
-275.85
 31
0
  0
LINE
  5
B06
330
A02
100
AcDbEntity
  8
ProjItem210
100
AcDbLine
 10
-1166.91
 20
-372.164
 30
0
 11
-1131.55
 21
-392.577
 31
0
  0
LINE
  5
B07
330
A02
100
AcDbEntity
  8
ProjItem210
100
AcDbLine
 10
-929.378
 20
-275.85
 30
0
 11
-1131.55
 21
-392.577
 31
0
  0
LINE
  5
B08
330
A02
100
AcDbEntity
  8
ProjItem210
100
AcDbLine
 10
-2332.28
 20
287.37
 30
0
 11
-2453.19
 21
357.18
 31
0
  0
LINE
  5
B09
330
A02
100
AcDbEntity
  8
ProjItem210
100
AcDbLine
 10
-2453.19
 20
357.18
 30
0
 11
-2463.8
 21
351.056
 31
0
  0
LINE
  5
B0A
330
A02
100
AcDbEntity
  8
ProjItem210
100
AcDbLine
 10
-2332.28
 20
275.122
 30
0
 11
-2463.8
 21
351.056
 31
0
  0
LINE
  5
B0B
330
A02
100
AcDbEntity
  8
ProjItem210
100
AcDbLine
 10
-1166.91
 20
-380.329
 30
0
 11
-1131.55
 21
-400.742
 31
0
  0
LINE
  5
B0C
330
A02
100
AcDbEntity
  8
ProjItem210
100
AcDbLine
 10
-1131.55
 20
-392.577
 30
0
 11
-1131.55
 21
-400.742
 31
0
  0
LINE
  5
B0D
330
A02
100
AcDbEntity
  8
ProjItem210
100
AcDbLine
 10
-2463.8
 20
351.056
 30
0
 11
-2463.8
 21
204.087
 31
0
  0
LINE
  5
B0E
330
A02
100
AcDbEntity
  8
ProjItem210
100
AcDbLine
 10
-2463.8
 20
204.087
 30
0
 11
-2342.83
 21
134.246
 31
0
  0
ELLIPSE
  5
B0F
330
A02
100
AcDbEntity
  8
ProjItem210
100
AcDbEllipse
 10
-2431.98
 20
300.025
 30
0
 11
-3.5
 21
6.06218
 31
0
 40
0.57735
 41
2.35619
 42
3.14159
  0
ELLIPSE
  5
B10
330
A02
100
AcDbEntity
  8
ProjItem210
100
AcDbEllipse
 10
-2431.98
 20
300.025
 30
0
 11
-3.5
 21
6.06218
 31
0
 40
0.57735
 41
3.14159
 42
0
  0
ELLIPSE
  5
B11
330
A02
100
AcDbEntity
  8
ProjItem210
100
AcDbEllipse
 10
-2431.98
 20
300.025
 30
0
 11
-3.5
 21
6.06218
 31
0
 40
0.57735
 41
0
 42
2.35619
  0
ELLIPSE
  5
B12
330
A02
100
AcDbEntity
  8
ProjItem210
100
AcDbEllipse
 10
-2431.98
 20
218.376
 30
0
 11
-3.5
 21
6.06218
 31
0
 40
0.57735
 41
2.35619
 42
3.14159
  0
ELLIPSE
  5
B13
330
A02
100
AcDbEntity
  8
ProjItem210
100
AcDbEllipse
 10
-2431.98
 20
218.376
 30
0
 11
-3.5
 21
6.06218
 31
0
 40
0.57735
 41
3.14159
 42
0
  0
ELLIPSE
  5
B14
330
A02
100
AcDbEntity
  8
ProjItem210
100
AcDbEllipse
 10
-2431.98
 20
218.376
 30
0
 11
-3.5
 21
6.06218
 31
0
 40
0.57735
 41
0
 42
2.35619
  0
ELLIPSE
  5
B15
330
A02
100
AcDbEntity
  8
ProjItem210
100
AcDbEllipse
 10
-2364.1
 20
179.184
 30
0
 11
-3.5
 21
6.06218
 31
0
 40
0.57735
 41
2.35619
 42
3.14159
  0
ELLIPSE
  5
B16
330
A02
100
AcDbEntity
  8
ProjItem210
100
AcDbEllipse
 10
-2364.1
 20
179.184
 30
0
 11
-3.5
 21
6.06218
 31
0
 40
0.57735
 41
3.14159
 42
0
  0
ELLIPSE
  5
B17
330
A02
100
AcDbEntity
  8
ProjItem210
100
AcDbEllipse
 10
-2364.1
 20
179.184
 30
0
 11
-3.5
 21
6.06218
 31
0
 40
0.57735
 41
0
 42
2.35619
  0
ELLIPSE
  5
B18
330
A02
100
AcDbEntity
  8
ProjItem210
100
AcDbEllipse
 10
-2364.1
 20
260.833
 30
0
 11
-3.5
 21
6.06218
 31
0
 40
0.57735
 41
2.35619
 42
3.14159
  0
ELLIPSE
  5
B19
330
A02
100
AcDbEntity
  8
ProjItem210
100
AcDbEllipse
 10
-2364.1
 20
260.833
 30
0
 11
-3.5
 21
6.06218
 31
0
 40
0.57735
 41
3.14159
 42
0
  0
ELLIPSE
  5
B1A
330
A02
100
AcDbEntity
  8
ProjItem210
100
AcDbEllipse
 10
-2364.1
 20
260.833
 30
0
 11
-3.5
 21
6.06218
 31
0
 40
0.57735
 41
0
 42
2.35619
  0
LINE
  5
B1B
330
A02
100
AcDbEntity
  8
ProjItem210
100
AcDbLine
 10
-1131.55
 20
-400.742
 30
0
 11
-929.378
 21
-284.015
 31
0
  0
LINE
  5
B1C
330
A02
100
AcDbEntity
  8
ProjItem210
100
AcDbLine
 10
-2136.36
 20
256.074
 30
0
 11
-2101
 21
235.662
 31
0
  0
LINE
  5
B1D
330
A02
100
AcDbEntity
  8
ProjItem210
100
AcDbLine
 10
-2342.83
 20
136.866
 30
0
 11
-2307.48
 21
116.453
 31
0
  0
LINE
  5
B1E
330
A02
100
AcDbEntity
  8
ProjItem210
100
AcDbLine
 10
-2332.28
 20
142.958
 30
0
 11
-2342.83
 21
136.866
 31
0
  0
LINE
  5
B1F
330
A02
100
AcDbEntity
  8
ProjItem210
100
AcDbLine
 10
-2101
 20
235.662
 30
0
 11
-2307.48
 21
116.453
 31
0
  0
LINE
  5
B20
330
A02
100
AcDbEntity
  8
ProjItem210
100
AcDbLine
 10
-2101
 20
227.497
 30
0
 11
-2101
 21
235.662
 31
0
  0
LINE
  5
B21
330
A02
100
AcDbEntity
  8
ProjItem210
100
AcDbLine
 10
-2342.83
 20
128.701
 30
0
 11
-2307.48
 21
108.288
 31
0
  0
LINE
  5
B22
330
A02
100
AcDbEntity
  8
ProjItem210
100
AcDbLine
 10
-2307.48
 20
108.288
 30
0
 11
-2101
 21
227.497
 31
0
  0
LINE
  5
B23
330
A02
100
AcDbEntity
  8
ProjItem210
100
AcDbLine
 10
-1255.35
 20
-570.905
 30
0
 11
-1244.75
 21
-577.028
 31
0
  0
LINE
  5
B24
330
A02
100
AcDbEntity
  8
ProjItem210
100
AcDbLine
 10
-1282.93
 20
-384.417
 30
0
 11
-1293.54
 21
-378.293
 31
0
  0
LINE
  5
B25
330
A02
100
AcDbEntity
  8
ProjItem210
100
AcDbLine
 10
-2321.67
 20
94.5498
 30
0
 11
-2332.28
 21
100.674
 31
0
  0
LINE
  5
B26
330
A02
100
AcDbEntity
  8
ProjItem210
100
AcDbLine
 10
-1185.35
 20
-234.318
 30
0
 11
-1150
 21
-254.73
 31
0
  0
LINE
  5
B27
330
A02
100
AcDbEntity
  8
ProjItem210
100
AcDbLine
 10
-1150
 20
-262.895
 30
0
 11
-1150
 21
-254.73
 31
0
  0
LINE
  5
B28
330
A02
100
AcDbEntity
  8
ProjItem210
100
AcDbLine
 10
-1265.74
 20
-288.895
 30
0
 11
-1230.38
 21
-309.307
 31
0
  0
LINE
  5
B29
330
A02
100
AcDbEntity
  8
ProjItem210
100
AcDbLine
 10
-1230.38
 20
-309.307
 30
0
 11
-1150
 21
-262.895
 31
0
  0
LINE
  5
B2A
330
A02
100
AcDbEntity
  8
ProjItem210
100
AcDbLine
 10
-1265.74
 20
-280.73
 30
0
 11
-1230.38
 21
-301.142
 31
0
  0
LINE
  5
B2B
330
A02
100
AcDbEntity
  8
ProjItem210
100
AcDbLine
 10
-1150
 20
-254.73
 30
0
 11
-1230.38
 21
-301.142
 31
0
  0
LINE
  5
B2C
330
A02
100
AcDbEntity
  8
ProjItem210
100
AcDbLine
 10
-1230.38
 20
-301.142
 30
0
 11
-1230.38
 21
-309.307
 31
0
  0
LINE
  5
B2D
330
A02
100
AcDbEntity
  8
ProjItem210
100
AcDbLine
 10
-1422.3
 20
74.3631
 30
0
 11
-1386.94
 21
53.9507
 31
0
  0
LINE
  5
B2E
330
A02
100
AcDbEntity
  8
ProjItem210
100
AcDbLine
 10
-1386.94
 20
45.7857
 30
0
 11
-1386.94
 21
53.9507
 31
0
  0
LINE
  5
B2F
330
A02
100
AcDbEntity
  8
ProjItem210
100
AcDbLine
 10
-1573.5
 20
-21.0994
 30
0
 11
-1538.14
 21
-41.5118
 31
0
  0
LINE
  5
B30
330
A02
100
AcDbEntity
  8
ProjItem210
100
AcDbLine
 10
-1538.14
 20
-41.5118
 30
0
 11
-1386.94
 21
45.7857
 31
0
  0
LINE
  5
B31
330
A02
100
AcDbEntity
  8
ProjItem210
100
AcDbLine
 10
-1573.5
 20
-12.9344
 30
0
 11
-1538.14
 21
-33.3468
 31
0
  0
LINE
  5
B32
330
A02
100
AcDbEntity
  8
ProjItem210
100
AcDbLine
 10
-1386.94
 20
53.9507
 30
0
 11
-1538.14
 21
-33.3468
 31
0
  0
LINE
  5
B33
330
A02
100
AcDbEntity
  8
ProjItem210
100
AcDbLine
 10
-1538.14
 20
-33.3468
 30
0
 11
-1538.14
 21
-41.5118
 31
0
  0
LINE
  5
B34
330
A02
100
AcDbEntity
  8
ProjItem210
100
AcDbLine
 10
-1262.64
 20
-130.45
 30
0
 11
-1227.29
 21
-150.862
 31
0
  0
LINE
  5
B35
330
A02
100
AcDbEntity
  8
ProjItem210
100
AcDbLine
 10
-1227.29
 20
-159.027
 30
0
 11
-1227.29
 21
-150.862
 31
0
  0
LINE
  5
B36
330
A02
100
AcDbEntity
  8
ProjItem210
100
AcDbLine
 10
-1345.7
 20
-186.566
 30
0
 11
-1310.34
 21
-206.978
 31
0
  0
LINE
  5
B37
330
A02
100
AcDbEntity
  8
ProjItem210
100
AcDbLine
 10
-1310.34
 20
-206.978
 30
0
 11
-1227.29
 21
-159.027
 31
0
  0
LINE
  5
B38
330
A02
100
AcDbEntity
  8
ProjItem210
100
AcDbLine
 10
-1345.7
 20
-178.401
 30
0
 11
-1310.34
 21
-198.813
 31
0
  0
LINE
  5
B39
330
A02
100
AcDbEntity
  8
ProjItem210
100
AcDbLine
 10
-1227.29
 20
-150.862
 30
0
 11
-1310.34
 21
-198.813
 31
0
  0
LINE
  5
B3A
330
A02
100
AcDbEntity
  8
ProjItem210
100
AcDbLine
 10
-1310.34
 20
-198.813
 30
0
 11
-1310.34
 21
-206.978
 31
0
  0
LINE
  5
B3B
330
A02
100
AcDbEntity
  8
ProjItem210
100
AcDbLine
 10
-1342.17
 20
-27.8677
 30
0
 11
-1306.81
 21
-48.2801
 31
0
  0
LINE
  5
B3C
330
A02
100
AcDbEntity
  8
ProjItem210
100
AcDbLine
 10
-1306.81
 20
-56.4451
 30
0
 11
-1306.81
 21
-48.2801
 31
0
  0
LINE
  5
B3D
330
A02
100
AcDbEntity
  8
ProjItem210
100
AcDbLine
 10
-1429.75
 20
-86.5998
 30
0
 11
-1394.4
 21
-107.012
 31
0
  0
LINE
  5
B3E
330
A02
100
AcDbEntity
  8
ProjItem210
100
AcDbLine
 10
-1394.4
 20
-107.012
 30
0
 11
-1306.81
 21
-56.4451
 31
0
  0
LINE
  5
B3F
330
A02
100
AcDbEntity
  8
ProjItem210
100
AcDbLine
 10
-1429.75
 20
-78.4348
 30
0
 11
-1394.4
 21
-98.8473
 31
0
  0
LINE
  5
B40
330
A02
100
AcDbEntity
  8
ProjItem210
100
AcDbLine
 10
-1306.81
 20
-48.2801
 30
0
 11
-1394.4
 21
-98.8473
 31
0
  0
LINE
  5
B41
330
A02
100
AcDbEntity
  8
ProjItem210
100
AcDbLine
 10
-1394.4
 20
-98.8473
 30
0
 11
-1394.4
 21
-107.012
 31
0
  0
LINE
  5
B42
330
A02
100
AcDbEntity
  8
ProjItem210
100
AcDbLine
 10
-1751.69
 20
181.174
 30
0
 11
-1716.33
 21
160.762
 31
0
  0
LINE
  5
B43
330
A02
100
AcDbEntity
  8
ProjItem210
100
AcDbLine
 10
-1716.33
 20
152.597
 30
0
 11
-1716.33
 21
160.762
 31
0
  0
LINE
  5
B44
330
A02
100
AcDbEntity
  8
ProjItem210
100
AcDbLine
 10
-1958.17
 20
53.8006
 30
0
 11
-1922.81
 21
33.3882
 31
0
  0
LINE
  5
B45
330
A02
100
AcDbEntity
  8
ProjItem210
100
AcDbLine
 10
-1922.81
 20
33.3882
 30
0
 11
-1716.33
 21
152.597
 31
0
  0
LINE
  5
B46
330
A02
100
AcDbEntity
  8
ProjItem210
100
AcDbLine
 10
-1958.17
 20
61.9656
 30
0
 11
-1922.81
 21
41.5532
 31
0
  0
LINE
  5
B47
330
A02
100
AcDbEntity
  8
ProjItem210
100
AcDbLine
 10
-1716.33
 20
160.762
 30
0
 11
-1922.81
 21
41.5532
 31
0
  0
LINE
  5
B48
330
A02
100
AcDbEntity
  8
ProjItem210
100
AcDbLine
 10
-1922.81
 20
41.5532
 30
0
 11
-1922.81
 21
33.3882
 31
0
  0
LINE
  5
B49
330
A02
100
AcDbEntity
  8
ProjItem210
100
AcDbLine
 10
-1944.02
 20
218.624
 30
0
 11
-1908.67
 21
198.212
 31
0
  0
LINE
  5
B4A
330
A02
100
AcDbEntity
  8
ProjItem210
100
AcDbLine
 10
-1908.67
 20
190.047
 30
0
 11
-1908.67
 21
198.212
 31
0
  0
LINE
  5
B4B
330
A02
100
AcDbEntity
  8
ProjItem210
100
AcDbLine
 10
-2150.5
 20
91.2506
 30
0
 11
-2115.14
 21
70.8382
 31
0
  0
LINE
  5
B4C
330
A02
100
AcDbEntity
  8
ProjItem210
100
AcDbLine
 10
-2115.14
 20
70.8382
 30
0
 11
-1908.67
 21
190.047
 31
0
  0
LINE
  5
B4D
330
A02
100
AcDbEntity
  8
ProjItem210
100
AcDbLine
 10
-2150.5
 20
99.4156
 30
0
 11
-2115.14
 21
79.0032
 31
0
  0
LINE
  5
B4E
330
A02
100
AcDbEntity
  8
ProjItem210
100
AcDbLine
 10
-1908.67
 20
198.212
 30
0
 11
-2115.14
 21
79.0032
 31
0
  0
LINE
  5
B4F
330
A02
100
AcDbEntity
  8
ProjItem210
100
AcDbLine
 10
-2115.14
 20
79.0032
 30
0
 11
-2115.14
 21
70.8382
 31
0
  0
LINE
  5
B50
330
A02
100
AcDbEntity
  8
ProjItem210
100
AcDbLine
 10
-1559.36
 20
143.724
 30
0
 11
-1524
 21
123.312
 31
0
  0
LINE
  5
B51
330
A02
100
AcDbEntity
  8
ProjItem210
100
AcDbLine
 10
-1524
 20
115.147
 30
0
 11
-1524
 21
123.312
 31
0
  0
LINE
  5
B52
330
A02
100
AcDbEntity
  8
ProjItem210
100
AcDbLine
 10
-1765.83
 20
16.3506
 30
0
 11
-1730.48
 21
-4.06181
 31
0
  0
LINE
  5
B53
330
A02
100
AcDbEntity
  8
ProjItem210
100
AcDbLine
 10
-1730.48
 20
-4.06181
 30
0
 11
-1524
 21
115.147
 31
0
  0
LINE
  5
B54
330
A02
100
AcDbEntity
  8
ProjItem210
100
AcDbLine
 10
-1765.83
 20
24.5156
 30
0
 11
-1730.48
 21
4.10316
 31
0
  0
LINE
  5
B55
330
A02
100
AcDbEntity
  8
ProjItem210
100
AcDbLine
 10
-1524
 20
123.312
 30
0
 11
-1730.48
 21
4.10316
 31
0
  0
LINE
  5
B56
330
A02
100
AcDbEntity
  8
ProjItem210
100
AcDbLine
 10
-1730.48
 20
4.10316
 30
0
 11
-1730.48
 21
-4.06181
 31
0
  0
LINE
  5
B57
330
A02
100
AcDbEntity
  8
ProjItem210
100
AcDbLine
 10
-929.378
 20
-284.015
 30
0
 11
-929.378
 21
-275.85
 31
0
  0
LINE
  5
B58
330
A02
100
AcDbEntity
  8
ProjItem210
100
AcDbLine
 10
-2342.83
 20
136.866
 30
0
 11
-2342.83
 21
128.701
 31
0
  0
LINE
  5
B59
330
A02
100
AcDbEntity
  8
ProjItem210
100
AcDbLine
 10
-2307.48
 20
116.453
 30
0
 11
-2307.48
 21
108.288
 31
0
  0
ENDSEC
  0
SECTION
  2
OBJECTS
  0
DICTIONARY
  5
F000
330
0
100
AcDbDictionary
  3
ACAD_GROUP
350
F001
  0
DICTIONARY
  5
F001
330
F000
100
AcDbDictionary
  0
ENDSEC
  0
EOF