999
FreeCAD v0.21 33771 (Git)
  0
SECTION
  2
HEADER
  9
$ACADVER
  1
AC1014
  9
$ACADMAINTVER
 70
     9
  9
$DWGCODEPAGE
  3
ANSI_1252
  9
$TEXTSTYLE
  7
STANDARD
  9
$DIMSTYLE
  2
STANDARD
  9
$DIMTXSTY
  7
STANDARD
  9
$CMLSTYLE
  2
STANDARD
  9
$LUNITS
 70
2
  9
$INSUNITS
 70
4
  9
$PEXTMAX
 10
50
 20
50
 30
50
  9
$PEXTMIN
 10
0
 20
0
 30
0
  9
$HANDSEED
  5
FFFF
  0
ENDSEC
  0
SECTION
  2
CLASSES
  0
CLASS
  1
ACDBDICTIONARYWDFLT
  2
AcDbDictionaryWithDefault
  3
ObjectDBX Classes
 90
        0
280
     0
281
     0
  0
CLASS
  1
XRECORD
  2
AcDbXrecord
  3
ObjectDBX Classes
 90
        0
280
     0
281
     0
  0
CLASS
  1
LWPOLYLINE
  2
AcDbPolyline
  3
ObjectDBX Classes
 90
        0
280
     0
281
     1
  0
ENDSEC
  0
SECTION
  2
TABLES
  0
TABLE
  2
VPORT
  5
20
330
0
100
AcDbSymbolTable
 70
     1
  0
VPORT
  5
21
330
20
100
AcDbSymbolTableRecord
100
AcDbViewportTableRecord
  2
*ACTIVE
 70
     0
  0
ENDTAB
  0
TABLE
  2
LTYPE
  5
22
330
0
100
AcDbSymbolTable
 70
     1
  0
LTYPE
  5
23
330
21
100
AcDbSymbolTableRecord
100
AcDbLinetypeTableRecord
  2
BYBLOCK
 70
     0
  3

 72
    65
 73
     0
 40
0.0
  0
LTYPE
  5
24
330
21
100
AcDbSymbolTableRecord
100
AcDbLinetypeTableRecord
  2
BYLAYER
 70
     0
  3

 72
    65
 73
     0
 40
0.0
  0
LTYPE
  5
25
330
21
100
AcDbSymbolTableRecord
100
AcDbLinetypeTableRecord
  2
CONTINUOUS
 70
     0
  3
Solid line
 72
    65
 73
     0
 40
0.0
  0
ENDTAB
  0
TABLE
  2
LAYER
  5
A6B
330
0
100
AcDbSymbolTable
 70
5
  0
LAYER
  5
A6C
330
A6B
100
AcDbSymbolTableRecord
100
AcDbLayerTableRecord
  2
0
 70
   0
 62
   7
  6
CONTINUOUS
  0
LAYER
  5
A6D
330
A6B
100
AcDbSymbolTableRecord
100
AcDbLayerTableRecord
  2
ProjItem205
 70
    0
 62
    7
  6
CONTINUOUS
  0
LAYER
  5
A6E
330
A6B
100
AcDbSymbolTableRecord
100
AcDbLayerTableRecord
  2
ProjItem207
 70
    0
 62
    7
  6
CONTINUOUS
  0
LAYER
  5
A6F
330
A6B
100
AcDbSymbolTableRecord
100
AcDbLayerTableRecord
  2
ProjItem208
 70
    0
 62
    7
  6
CONTINUOUS
  0
LAYER
  5
A70
330
A6B
100
AcDbSymbolTableRecord
100
AcDbLayerTableRecord
  2
ProjItem206
 70
    0
 62
    7
  6
CONTINUOUS
  0
ENDTAB
  0
TABLE
  2
STYLE
  5
70
330
0
100
AcDbSymbolTable
 70
     2
  0
STYLE
  5
71
330
70
100
AcDbSymbolTableRecord
100
AcDbTextStyleTableRecord
  2
STANDARD
 70
     0
 40
0.0
 41
1.0
 50
0.0
 71
     0
 42
2.5
  3
arial.ttf
  4

  0
STYLE
  5
72
330
70
100
AcDbSymbolTableRecord
100
AcDbTextStyleTableRecord
  2
ANNOTATIVE
 70
     0
 40
0.0
 41
1.0
 50
0.0
 71
     0
 42
2.5
  3
arial.ttf
  4

  0
ENDTAB
  0
TABLE
  2
VIEW
  5
73
330
0
100
AcDbSymbolTable
 70
     0
  0
ENDTAB
  0
TABLE
  2
UCS
  5
74
330
0
100
AcDbSymbolTable
 70
     0
  0
ENDTAB
  0
TABLE
  2
APPID
  5
75
330
0
100
AcDbSymbolTable
 70
     2
  0
APPID
  5
76
330
75
100
AcDbSymbolTableRecord
100
AcDbRegAppTableRecord
  2
ACAD
 70
     0
  0
APPID
  5
77
330
75
100
AcDbSymbolTableRecord
100
AcDbRegAppTableRecord
  2
ACADANNOTATIVE
 70
     0
  0
ENDTAB
  0
TABLE
  2
DIMSTYLE
  5
78
330
0
100
AcDbSymbolTable
 70
     2
  0
DIMSTYLE
105
79
330
78
100
AcDbSymbolTableRecord
100
AcDbDimStyleTableRecord
  2
STANDARD
 70
     0
  3

  4

  5

  6

  7

 40
0.0
 41
2.5
 42
0.625
 43
3.75
 44
1.25
 45
0.0
 46
0.0
 47
0.0
 48
0.0
140
2.5
141
2.5
142
0.0
143
0.03937007874016
144
1.0
145
0.0
146
1.0
147
0.625
 71
     0
 72
     0
 73
     0
 74
     0
 75
     0
 76
     0
 77
     1
 78
     8
170
     0
171
     3
172
     1
173
     0
174
     0
175
     0
176
     0
177
     0
178
     0
270
     2
271
     2
272
     2
273
     2
274
     3
340
71
275
     0
280
     0
281
     0
282
     0
283
     0
284
     8
285
     0
286
     0
287
     3
288
     0
  0
ENDTAB
  0
TABLE
  2
BLOCK_RECORD
  5
A01
330
0
100
AcDbSymbolTable
  70
5
  0
BLOCK_RECORD
  5
A02
330
A01
100
AcDbSymbolTableRecord
100
AcDbBlockTableRecord
  2
*MODEL_SPACE
  0
BLOCK_RECORD
  5
A03
330
A01
100
AcDbSymbolTableRecord
100
AcDbBlockTableRecord
  2
*PAPER_SPACE
  0
ENDTAB
  0
ENDSEC
  0
SECTION
  2
BLOCKS
  0
BLOCK
  5
A04
330
A02
100
AcDbEntity
  8
0
100
AcDbBlockBegin
  2
*MODEL_SPACE
 70
   0
 10
0
 20
0
 30
0
  3
*MODEL_SPACE
  1
 
  0
ENDBLK
  5
A05
330
A02
100
AcDbEntity
  8
0
100
AcDbBlockEnd
  0
BLOCK
  5
A06
330
A03
100
AcDbEntity
 67
1
  8
0
100
AcDbBlockBegin
  2
*PAPER_SPACE
 70
   0
 10
0
 20
0
 30
0
  3
*PAPER_SPACE
  1
 
  0
ENDBLK
  5
A07
330
A03
100
AcDbEntity
 67
    1
  8
0
100
AcDbBlockEnd
  0
ENDSEC
  0
SECTION
  2
ENTITIES
  0
LINE
  5
A08
330
A02
100
AcDbEntity
  8
ProjItem205
100
AcDbLine
 10
626
 20
25
 30
0
 11
626
 21
265
 31
0
  0
LINE
  5
A09
330
A02
100
AcDbEntity
  8
ProjItem205
100
AcDbLine
 10
626
 20
265
 30
0
 11
-329
 21
265
 31
0
  0
LINE
  5
A0A
330
A02
100
AcDbEntity
  8
ProjItem205
100
AcDbLine
 10
-329
 20
265
 30
0
 11
-329
 21
25
 31
0
  0
LINE
  5
A0B
330
A02
100
AcDbEntity
  8
ProjItem205
100
AcDbLine
 10
566
 20
25
 30
0
 11
626
 21
25
 31
0
  0
LINE
  5
A0C
330
A02
100
AcDbEntity
  8
ProjItem205
100
AcDbLine
 10
-329
 20
25
 30
0
 11
-269
 21
25
 31
0
  0
LINE
  5
A0D
330
A02
100
AcDbEntity
  8
ProjItem205
100
AcDbLine
 10
346
 20
25
 30
0
 11
566
 21
25
 31
0
  0
LINE
  5
A0E
330
A02
100
AcDbEntity
  8
ProjItem205
100
AcDbLine
 10
-49
 20
25
 30
0
 11
-269
 21
25
 31
0
  0
LINE
  5
A0F
330
A02
100
AcDbEntity
  8
ProjItem205
100
AcDbLine
 10
-49
 20
25
 30
0
 11
346
 21
25
 31
0
  0
CIRCLE
  5
A10
330
A02
100
AcDbEntity
  8
ProjItem205
100
AcDbCircle
 10
-274
 20
95
 40
7
  0
CIRCLE
  5
A11
330
A02
100
AcDbEntity
  8
ProjItem205
100
AcDbCircle
 10
-274
 20
155
 40
7
  0
CIRCLE
  5
A12
330
A02
100
AcDbEntity
  8
ProjItem205
100
AcDbCircle
 10
571
 20
95
 40
7
  0
CIRCLE
  5
A13
330
A02
100
AcDbEntity
  8
ProjItem205
100
AcDbCircle
 10
571
 20
155
 40
7
  0
LINE
  5
A14
330
A02
100
AcDbEntity
  8
ProjItem205
100
AcDbLine
 10
566
 20
-55
 30
0
 11
346
 21
-55
 31
0
  0
LINE
  5
A15
330
A02
100
AcDbEntity
  8
ProjItem205
100
AcDbLine
 10
346
 20
-55
 30
0
 11
346
 21
25
 31
0
  0
LINE
  5
A16
330
A02
100
AcDbEntity
  8
ProjItem205
100
AcDbLine
 10
566
 20
25
 30
0
 11
566
 21
-55
 31
0
  0
CIRCLE
  5
A17
330
A02
100
AcDbEntity
  8
ProjItem205
100
AcDbCircle
 10
386
 20
-15
 40
7
  0
CIRCLE
  5
A18
330
A02
100
AcDbEntity
  8
ProjItem205
100
AcDbCircle
 10
526
 20
-15
 40
7
  0
LINE
  5
A19
330
A02
100
AcDbEntity
  8
ProjItem205
100
AcDbLine
 10
-269
 20
25
 30
0
 11
-269
 21
-55
 31
0
  0
LINE
  5
A1A
330
A02
100
AcDbEntity
  8
ProjItem205
100
AcDbLine
 10
-269
 20
-55
 30
0
 11
-49
 21
-55
 31
0
  0
LINE
  5
A1B
330
A02
100
AcDbEntity
  8
ProjItem205
100
AcDbLine
 10
-49
 20
-55
 30
0
 11
-49
 21
25
 31
0
  0
CIRCLE
  5
A1C
330
A02
100
AcDbEntity
  8
ProjItem205
100
AcDbCircle
 10
-229
 20
-15
 40
7
  0
CIRCLE
  5
A1D
330
A02
100
AcDbEntity
  8
ProjItem205
100
AcDbCircle
 10
-89
 20
-15
 40
7
  0
LINE
  5
A1E
330
A02
100
AcDbEntity
  8
ProjItem205
100
AcDbLine
 10
551
 20
215
 30
0
 11
551
 21
225
 31
0
  0
LINE
  5
A1F
330
A02
100
AcDbEntity
  8
ProjItem205
100
AcDbLine
 10
-254
 20
215
 30
0
 11
551
 21
215
 31
0
  0
LINE
  5
A20
330
A02
100
AcDbEntity
  8
ProjItem205
100
AcDbLine
 10
-254
 20
225
 30
0
 11
-254
 21
215
 31
0
  0
LINE
  5
A21
330
A02
100
AcDbEntity
  8
ProjItem205
100
AcDbLine
 10
551
 20
225
 30
0
 11
-254
 21
225
 31
0
  0
LINE
  5
A22
330
A02
100
AcDbEntity
  8
ProjItem207
100
AcDbLine
 10
730.651
 20
265
 30
0
 11
730.651
 21
25
 31
0
  0
LINE
  5
A23
330
A02
100
AcDbEntity
  8
ProjItem207
100
AcDbLine
 10
730.651
 20
265
 30
0
 11
715.651
 21
265
 31
0
  0
LINE
  5
A24
330
A02
100
AcDbEntity
  8
ProjItem207
100
AcDbLine
 10
715.651
 20
265
 30
0
 11
715.651
 21
25
 31
0
  0
LINE
  5
A25
330
A02
100
AcDbEntity
  8
ProjItem207
100
AcDbLine
 10
730.651
 20
25
 30
0
 11
715.651
 21
25
 31
0
  0
LINE
  5
A26
330
A02
100
AcDbEntity
  8
ProjItem207
100
AcDbLine
 10
730.651
 20
25
 30
0
 11
730.651
 21
-55
 31
0
  0
LINE
  5
A27
330
A02
100
AcDbEntity
  8
ProjItem207
100
AcDbLine
 10
730.651
 20
215
 30
0
 11
780.651
 21
215
 31
0
  0
LINE
  5
A28
330
A02
100
AcDbEntity
  8
ProjItem207
100
AcDbLine
 10
730.651
 20
225
 30
0
 11
780.651
 21
225
 31
0
  0
LINE
  5
A29
330
A02
100
AcDbEntity
  8
ProjItem207
100
AcDbLine
 10
780.651
 20
225
 30
0
 11
780.651
 21
215
 31
0
  0
LINE
  5
A2A
330
A02
100
AcDbEntity
  8
ProjItem207
100
AcDbLine
 10
715.651
 20
25
 30
0
 11
715.651
 21
-55
 31
0
  0
LINE
  5
A2B
330
A02
100
AcDbEntity
  8
ProjItem207
100
AcDbLine
 10
730.651
 20
-55
 30
0
 11
715.651
 21
-55
 31
0
  0
LINE
  5
A2C
330
A02
100
AcDbEntity
  8
ProjItem208
100
AcDbLine
 10
626
 20
-162.14
 30
0
 11
626
 21
-147.14
 31
0
  0
LINE
  5
A2D
330
A02
100
AcDbEntity
  8
ProjItem208
100
AcDbLine
 10
626
 20
-162.14
 30
0
 11
-329
 21
-162.14
 31
0
  0
LINE
  5
A2E
330
A02
100
AcDbEntity
  8
ProjItem208
100
AcDbLine
 10
-329
 20
-162.14
 30
0
 11
-329
 21
-147.14
 31
0
  0
LINE
  5
A2F
330
A02
100
AcDbEntity
  8
ProjItem208
100
AcDbLine
 10
-329
 20
-147.14
 30
0
 11
626
 21
-147.14
 31
0
  0
LINE
  5
A30
330
A02
100
AcDbEntity
  8
ProjItem208
100
AcDbLine
 10
551
 20
-162.14
 30
0
 11
551
 21
-212.14
 31
0
  0
LINE
  5
A31
330
A02
100
AcDbEntity
  8
ProjItem208
100
AcDbLine
 10
-254
 20
-162.14
 30
0
 11
-254
 21
-212.14
 31
0
  0
LINE
  5
A32
330
A02
100
AcDbEntity
  8
ProjItem208
100
AcDbLine
 10
551
 20
-212.14
 30
0
 11
-254
 21
-212.14
 31
0
  0
LINE
  5
A33
330
A02
100
AcDbEntity
  8
ProjItem206
100
AcDbLine
 10
-401.016
 20
-393.502
 30
0
 11
-401.016
 21
-197.542
 31
0
  0
LINE
  5
A34
330
A02
100
AcDbEntity
  8
ProjItem206
100
AcDbLine
 10
-401.016
 20
-197.542
 30
0
 11
-390.409
 21
-191.419
 31
0
  0
LINE
  5
A35
330
A02
100
AcDbEntity
  8
ProjItem206
100
AcDbLine
 10
-390.409
 20
-387.378
 30
0
 11
-390.409
 21
-191.419
 31
0
  0
LINE
  5
A36
330
A02
100
AcDbEntity
  8
ProjItem206
100
AcDbLine
 10
-401.016
 20
-393.502
 30
0
 11
-390.409
 21
-387.378
 31
0
  0
LINE
  5
A37
330
A02
100
AcDbEntity
  8
ProjItem206
100
AcDbLine
 10
-401.016
 20
-197.542
 30
0
 11
-1076.3
 21
192.335
 31
0
  0
LINE
  5
A38
330
A02
100
AcDbEntity
  8
ProjItem206
100
AcDbLine
 10
-1076.3
 20
192.335
 30
0
 11
-1076.3
 21
-3.62448
 31
0
  0
LINE
  5
A39
330
A02
100
AcDbEntity
  8
ProjItem206
100
AcDbLine
 10
-443.442
 20
-369.007
 30
0
 11
-401.016
 21
-393.502
 31
0
  0
LINE
  5
A3A
330
A02
100
AcDbEntity
  8
ProjItem206
100
AcDbLine
 10
-1076.3
 20
-3.62448
 30
0
 11
-1033.88
 21
-28.1194
 31
0
  0
LINE
  5
A3B
330
A02
100
AcDbEntity
  8
ProjItem206
100
AcDbLine
 10
-599.006
 20
-279.192
 30
0
 11
-443.442
 21
-369.007
 31
0
  0
LINE
  5
A3C
330
A02
100
AcDbEntity
  8
ProjItem206
100
AcDbLine
 10
-878.313
 20
-117.934
 30
0
 11
-1033.88
 21
-28.1194
 31
0
  0
LINE
  5
A3D
330
A02
100
AcDbEntity
  8
ProjItem206
100
AcDbLine
 10
-878.313
 20
-117.934
 30
0
 11
-599.006
 21
-279.192
 31
0
  0
ELLIPSE
  5
A3E
330
A02
100
AcDbEntity
  8
ProjItem206
100
AcDbEllipse
 10
-1037.41
 20
31.0766
 30
0
 11
3.5
 21
-6.06218
 31
0
 40
0.57735
 41
-3.14159
 42
-2.35619
  0
ELLIPSE
  5
A3F
330
A02
100
AcDbEntity
  8
ProjItem206
100
AcDbEllipse
 10
-1037.41
 20
31.0766
 30
0
 11
3.5
 21
-6.06218
 31
0
 40
0.57735
 41
-0
 42
-3.14159
  0
ELLIPSE
  5
A40
330
A02
100
AcDbEntity
  8
ProjItem206
100
AcDbEllipse
 10
-1037.41
 20
31.0766
 30
0
 11
3.5
 21
-6.06218
 31
0
 40
0.57735
 41
-2.35619
 42
-0
  0
ELLIPSE
  5
A41
330
A02
100
AcDbEntity
  8
ProjItem206
100
AcDbEllipse
 10
-1037.41
 20
80.0664
 30
0
 11
3.5
 21
-6.06218
 31
0
 40
0.57735
 41
-3.14159
 42
-2.35619
  0
ELLIPSE
  5
A42
330
A02
100
AcDbEntity
  8
ProjItem206
100
AcDbEllipse
 10
-1037.41
 20
80.0664
 30
0
 11
3.5
 21
-6.06218
 31
0
 40
0.57735
 41
-0
 42
-3.14159
  0
ELLIPSE
  5
A43
330
A02
100
AcDbEntity
  8
ProjItem206
100
AcDbEllipse
 10
-1037.41
 20
80.0664
 30
0
 11
3.5
 21
-6.06218
 31
0
 40
0.57735
 41
-2.35619
 42
-0
  0
LINE
  5
A44
330
A02
100
AcDbEntity
  8
ProjItem206
100
AcDbLine
 10
-454.049
 20
-207.749
 30
0
 11
-454.049
 21
-199.584
 31
0
  0
LINE
  5
A45
330
A02
100
AcDbEntity
  8
ProjItem206
100
AcDbLine
 10
-454.049
 20
-199.584
 30
0
 11
-1023.27
 21
129.056
 31
0
  0
ELLIPSE
  5
A46
330
A02
100
AcDbEntity
  8
ProjItem206
100
AcDbEllipse
 10
-439.907
 20
-313.893
 30
0
 11
3.5
 21
-6.06218
 31
0
 40
0.57735
 41
-3.14159
 42
-2.35619
  0
ELLIPSE
  5
A47
330
A02
100
AcDbEntity
  8
ProjItem206
100
AcDbEllipse
 10
-439.907
 20
-313.893
 30
0
 11
3.5
 21
-6.06218
 31
0
 40
0.57735
 41
-0
 42
-3.14159
  0
ELLIPSE
  5
A48
330
A02
100
AcDbEntity
  8
ProjItem206
100
AcDbEllipse
 10
-439.907
 20
-313.893
 30
0
 11
3.5
 21
-6.06218
 31
0
 40
0.57735
 41
-2.35619
 42
-0
  0
ELLIPSE
  5
A49
330
A02
100
AcDbEntity
  8
ProjItem206
100
AcDbEllipse
 10
-439.907
 20
-264.903
 30
0
 11
3.5
 21
-6.06218
 31
0
 40
0.57735
 41
-3.14159
 42
-2.35619
  0
ELLIPSE
  5
A4A
330
A02
100
AcDbEntity
  8
ProjItem206
100
AcDbEllipse
 10
-439.907
 20
-264.903
 30
0
 11
3.5
 21
-6.06218
 31
0
 40
0.57735
 41
-0
 42
-3.14159
  0
ELLIPSE
  5
A4B
330
A02
100
AcDbEntity
  8
ProjItem206
100
AcDbEllipse
 10
-439.907
 20
-264.903
 30
0
 11
3.5
 21
-6.06218
 31
0
 40
0.57735
 41
-2.35619
 42
-0
  0
LINE
  5
A4C
330
A02
100
AcDbEntity
  8
ProjItem206
100
AcDbLine
 10
-1076.3
 20
192.335
 30
0
 11
-1065.7
 21
198.458
 31
0
  0
LINE
  5
A4D
330
A02
100
AcDbEntity
  8
ProjItem206
100
AcDbLine
 10
-1065.7
 20
198.458
 30
0
 11
-390.409
 21
-191.419
 31
0
  0
LINE
  5
A4E
330
A02
100
AcDbEntity
  8
ProjItem206
100
AcDbLine
 10
-443.442
 20
-434.326
 30
0
 11
-599.006
 21
-344.512
 31
0
  0
LINE
  5
A4F
330
A02
100
AcDbEntity
  8
ProjItem206
100
AcDbLine
 10
-599.006
 20
-344.512
 30
0
 11
-599.006
 21
-279.192
 31
0
  0
LINE
  5
A50
330
A02
100
AcDbEntity
  8
ProjItem206
100
AcDbLine
 10
-443.442
 20
-369.007
 30
0
 11
-443.442
 21
-434.326
 31
0
  0
ELLIPSE
  5
A51
330
A02
100
AcDbEntity
  8
ProjItem206
100
AcDbEllipse
 10
-570.721
 20
-328.182
 30
0
 11
3.5
 21
-6.06218
 31
0
 40
0.57735
 41
-3.14159
 42
-2.35619
  0
ELLIPSE
  5
A52
330
A02
100
AcDbEntity
  8
ProjItem206
100
AcDbEllipse
 10
-570.721
 20
-328.182
 30
0
 11
3.5
 21
-6.06218
 31
0
 40
0.57735
 41
-0
 42
-3.14159
  0
ELLIPSE
  5
A53
330
A02
100
AcDbEntity
  8
ProjItem206
100
AcDbEllipse
 10
-570.721
 20
-328.182
 30
0
 11
3.5
 21
-6.06218
 31
0
 40
0.57735
 41
-2.35619
 42
-0
  0
ELLIPSE
  5
A54
330
A02
100
AcDbEntity
  8
ProjItem206
100
AcDbEllipse
 10
-471.726
 20
-385.337
 30
0
 11
3.5
 21
-6.06218
 31
0
 40
0.57735
 41
-3.14159
 42
-2.35619
  0
ELLIPSE
  5
A55
330
A02
100
AcDbEntity
  8
ProjItem206
100
AcDbEllipse
 10
-471.726
 20
-385.337
 30
0
 11
3.5
 21
-6.06218
 31
0
 40
0.57735
 41
-0
 42
-3.14159
  0
ELLIPSE
  5
A56
330
A02
100
AcDbEntity
  8
ProjItem206
100
AcDbEllipse
 10
-471.726
 20
-385.337
 30
0
 11
3.5
 21
-6.06218
 31
0
 40
0.57735
 41
-2.35619
 42
-0
  0
LINE
  5
A57
330
A02
100
AcDbEntity
  8
ProjItem206
100
AcDbLine
 10
-1033.88
 20
-28.1194
 30
0
 11
-1033.88
 21
-93.4391
 31
0
  0
LINE
  5
A58
330
A02
100
AcDbEntity
  8
ProjItem206
100
AcDbLine
 10
-1033.88
 20
-93.4391
 30
0
 11
-878.313
 21
-183.254
 31
0
  0
LINE
  5
A59
330
A02
100
AcDbEntity
  8
ProjItem206
100
AcDbLine
 10
-878.313
 20
-183.254
 30
0
 11
-878.313
 21
-117.934
 31
0
  0
ELLIPSE
  5
A5A
330
A02
100
AcDbEntity
  8
ProjItem206
100
AcDbEllipse
 10
-1005.59
 20
-77.1092
 30
0
 11
3.5
 21
-6.06218
 31
0
 40
0.57735
 41
-3.14159
 42
-2.35619
  0
ELLIPSE
  5
A5B
330
A02
100
AcDbEntity
  8
ProjItem206
100
AcDbEllipse
 10
-1005.59
 20
-77.1092
 30
0
 11
3.5
 21
-6.06218
 31
0
 40
0.57735
 41
-0
 42
-3.14159
  0
ELLIPSE
  5
A5C
330
A02
100
AcDbEntity
  8
ProjItem206
100
AcDbEllipse
 10
-1005.59
 20
-77.1092
 30
0
 11
3.5
 21
-6.06218
 31
0
 40
0.57735
 41
-2.35619
 42
-0
  0
ELLIPSE
  5
A5D
330
A02
100
AcDbEntity
  8
ProjItem206
100
AcDbEllipse
 10
-906.597
 20
-134.264
 30
0
 11
3.5
 21
-6.06218
 31
0
 40
0.57735
 41
-3.14159
 42
-2.35619
  0
ELLIPSE
  5
A5E
330
A02
100
AcDbEntity
  8
ProjItem206
100
AcDbEllipse
 10
-906.597
 20
-134.264
 30
0
 11
3.5
 21
-6.06218
 31
0
 40
0.57735
 41
-0
 42
-3.14159
  0
ELLIPSE
  5
A5F
330
A02
100
AcDbEntity
  8
ProjItem206
100
AcDbEllipse
 10
-906.597
 20
-134.264
 30
0
 11
3.5
 21
-6.06218
 31
0
 40
0.57735
 41
-2.35619
 42
-0
  0
LINE
  5
A60
330
A02
100
AcDbEntity
  8
ProjItem206
100
AcDbLine
 10
-454.049
 20
-207.749
 30
0
 11
-489.404
 21
-228.161
 31
0
  0
LINE
  5
A61
330
A02
100
AcDbEntity
  8
ProjItem206
100
AcDbLine
 10
-454.049
 20
-199.584
 30
0
 11
-489.404
 21
-219.996
 31
0
  0
LINE
  5
A62
330
A02
100
AcDbEntity
  8
ProjItem206
100
AcDbLine
 10
-489.404
 20
-228.161
 30
0
 11
-489.404
 21
-219.996
 31
0
  0
LINE
  5
A63
330
A02
100
AcDbEntity
  8
ProjItem206
100
AcDbLine
 10
-1058.63
 20
100.479
 30
0
 11
-489.404
 21
-228.161
 31
0
  0
LINE
  5
A64
330
A02
100
AcDbEntity
  8
ProjItem206
100
AcDbLine
 10
-1023.27
 20
129.056
 30
0
 11
-1058.63
 21
108.644
 31
0
  0
LINE
  5
A65
330
A02
100
AcDbEntity
  8
ProjItem206
100
AcDbLine
 10
-1058.63
 20
108.644
 30
0
 11
-1058.63
 21
100.479
 31
0
  0
LINE
  5
A66
330
A02
100
AcDbEntity
  8
ProjItem206
100
AcDbLine
 10
-489.404
 20
-219.996
 30
0
 11
-1058.63
 21
108.644
 31
0
  0
LINE
  5
A67
330
A02
100
AcDbEntity
  8
ProjItem206
100
AcDbLine
 10
-867.706
 20
-177.13
 30
0
 11
-867.706
 21
-124.058
 31
0
  0
LINE
  5
A68
330
A02
100
AcDbEntity
  8
ProjItem206
100
AcDbLine
 10
-432.836
 20
-375.13
 30
0
 11
-432.836
 21
-428.203
 31
0
  0
LINE
  5
A69
330
A02
100
AcDbEntity
  8
ProjItem206
100
AcDbLine
 10
-443.442
 20
-434.326
 30
0
 11
-432.836
 21
-428.203
 31
0
  0
LINE
  5
A6A
330
A02
100
AcDbEntity
  8
ProjItem206
100
AcDbLine
 10
-878.313
 20
-183.254
 30
0
 11
-867.706
 21
-177.13
 31
0
  0
ENDSEC
  0
SECTION
  2
OBJECTS
  0
DICTIONARY
  5
F000
330
0
100
AcDbDictionary
  3
ACAD_GROUP
350
F001
  0
DICTIONARY
  5
F001
330
F000
100
AcDbDictionary
  0
ENDSEC
  0
EOF