999
FreeCAD v0.21 33771 (Git)
  0
SECTION
  2
HEADER
  9
$ACADVER
  1
AC1014
  9
$ACADMAINTVER
 70
     9
  9
$DWGCODEPAGE
  3
ANSI_1252
  9
$TEXTSTYLE
  7
STANDARD
  9
$DIMSTYLE
  2
STANDARD
  9
$DIMTXSTY
  7
STANDARD
  9
$CMLSTYLE
  2
STANDARD
  9
$LUNITS
 70
2
  9
$INSUNITS
 70
4
  9
$PEXTMAX
 10
50
 20
50
 30
50
  9
$PEXTMIN
 10
0
 20
0
 30
0
  9
$HANDSEED
  5
FFFF
  0
ENDSEC
  0
SECTION
  2
CLASSES
  0
CLASS
  1
ACDBDICTIONARYWDFLT
  2
AcDbDictionaryWithDefault
  3
ObjectDBX Classes
 90
        0
280
     0
281
     0
  0
CLASS
  1
XRECORD
  2
AcDbXrecord
  3
ObjectDBX Classes
 90
        0
280
     0
281
     0
  0
CLASS
  1
LWPOLYLINE
  2
AcDbPolyline
  3
ObjectDBX Classes
 90
        0
280
     0
281
     1
  0
ENDSEC
  0
SECTION
  2
TABLES
  0
TABLE
  2
VPORT
  5
20
330
0
100
AcDbSymbolTable
 70
     1
  0
VPORT
  5
21
330
20
100
AcDbSymbolTableRecord
100
AcDbViewportTableRecord
  2
*ACTIVE
 70
     0
  0
ENDTAB
  0
TABLE
  2
LTYPE
  5
22
330
0
100
AcDbSymbolTable
 70
     1
  0
LTYPE
  5
23
330
21
100
AcDbSymbolTableRecord
100
AcDbLinetypeTableRecord
  2
BYBLOCK
 70
     0
  3

 72
    65
 73
     0
 40
0.0
  0
LTYPE
  5
24
330
21
100
AcDbSymbolTableRecord
100
AcDbLinetypeTableRecord
  2
BYLAYER
 70
     0
  3

 72
    65
 73
     0
 40
0.0
  0
LTYPE
  5
25
330
21
100
AcDbSymbolTableRecord
100
AcDbLinetypeTableRecord
  2
CONTINUOUS
 70
     0
  3
Solid line
 72
    65
 73
     0
 40
0.0
  0
ENDTAB
  0
TABLE
  2
LAYER
  5
B1F
330
0
100
AcDbSymbolTable
 70
5
  0
LAYER
  5
B20
330
B1F
100
AcDbSymbolTableRecord
100
AcDbLayerTableRecord
  2
0
 70
   0
 62
   7
  6
CONTINUOUS
  0
LAYER
  5
B21
330
B1F
100
AcDbSymbolTableRecord
100
AcDbLayerTableRecord
  2
ProjItem193
 70
    0
 62
    7
  6
CONTINUOUS
  0
LAYER
  5
B22
330
B1F
100
AcDbSymbolTableRecord
100
AcDbLayerTableRecord
  2
ProjItem195
 70
    0
 62
    7
  6
CONTINUOUS
  0
LAYER
  5
B23
330
B1F
100
AcDbSymbolTableRecord
100
AcDbLayerTableRecord
  2
ProjItem196
 70
    0
 62
    7
  6
CONTINUOUS
  0
LAYER
  5
B24
330
B1F
100
AcDbSymbolTableRecord
100
AcDbLayerTableRecord
  2
ProjItem194
 70
    0
 62
    7
  6
CONTINUOUS
  0
ENDTAB
  0
TABLE
  2
STYLE
  5
70
330
0
100
AcDbSymbolTable
 70
     2
  0
STYLE
  5
71
330
70
100
AcDbSymbolTableRecord
100
AcDbTextStyleTableRecord
  2
STANDARD
 70
     0
 40
0.0
 41
1.0
 50
0.0
 71
     0
 42
2.5
  3
arial.ttf
  4

  0
STYLE
  5
72
330
70
100
AcDbSymbolTableRecord
100
AcDbTextStyleTableRecord
  2
ANNOTATIVE
 70
     0
 40
0.0
 41
1.0
 50
0.0
 71
     0
 42
2.5
  3
arial.ttf
  4

  0
ENDTAB
  0
TABLE
  2
VIEW
  5
73
330
0
100
AcDbSymbolTable
 70
     0
  0
ENDTAB
  0
TABLE
  2
UCS
  5
74
330
0
100
AcDbSymbolTable
 70
     0
  0
ENDTAB
  0
TABLE
  2
APPID
  5
75
330
0
100
AcDbSymbolTable
 70
     2
  0
APPID
  5
76
330
75
100
AcDbSymbolTableRecord
100
AcDbRegAppTableRecord
  2
ACAD
 70
     0
  0
APPID
  5
77
330
75
100
AcDbSymbolTableRecord
100
AcDbRegAppTableRecord
  2
ACADANNOTATIVE
 70
     0
  0
ENDTAB
  0
TABLE
  2
DIMSTYLE
  5
78
330
0
100
AcDbSymbolTable
 70
     2
  0
DIMSTYLE
105
79
330
78
100
AcDbSymbolTableRecord
100
AcDbDimStyleTableRecord
  2
STANDARD
 70
     0
  3

  4

  5

  6

  7

 40
0.0
 41
2.5
 42
0.625
 43
3.75
 44
1.25
 45
0.0
 46
0.0
 47
0.0
 48
0.0
140
2.5
141
2.5
142
0.0
143
0.03937007874016
144
1.0
145
0.0
146
1.0
147
0.625
 71
     0
 72
     0
 73
     0
 74
     0
 75
     0
 76
     0
 77
     1
 78
     8
170
     0
171
     3
172
     1
173
     0
174
     0
175
     0
176
     0
177
     0
178
     0
270
     2
271
     2
272
     2
273
     2
274
     3
340
71
275
     0
280
     0
281
     0
282
     0
283
     0
284
     8
285
     0
286
     0
287
     3
288
     0
  0
ENDTAB
  0
TABLE
  2
BLOCK_RECORD
  5
A01
330
0
100
AcDbSymbolTable
  70
5
  0
BLOCK_RECORD
  5
A02
330
A01
100
AcDbSymbolTableRecord
100
AcDbBlockTableRecord
  2
*MODEL_SPACE
  0
BLOCK_RECORD
  5
A03
330
A01
100
AcDbSymbolTableRecord
100
AcDbBlockTableRecord
  2
*PAPER_SPACE
  0
ENDTAB
  0
ENDSEC
  0
SECTION
  2
BLOCKS
  0
BLOCK
  5
A04
330
A02
100
AcDbEntity
  8
0
100
AcDbBlockBegin
  2
*MODEL_SPACE
 70
   0
 10
0
 20
0
 30
0
  3
*MODEL_SPACE
  1
 
  0
ENDBLK
  5
A05
330
A02
100
AcDbEntity
  8
0
100
AcDbBlockEnd
  0
BLOCK
  5
A06
330
A03
100
AcDbEntity
 67
1
  8
0
100
AcDbBlockBegin
  2
*PAPER_SPACE
 70
   0
 10
0
 20
0
 30
0
  3
*PAPER_SPACE
  1
 
  0
ENDBLK
  5
A07
330
A03
100
AcDbEntity
 67
    1
  8
0
100
AcDbBlockEnd
  0
ENDSEC
  0
SECTION
  2
ENTITIES
  0
LINE
  5
A08
330
A02
100
AcDbEntity
  8
ProjItem193
100
AcDbLine
 10
-310.685
 20
303.916
 30
0
 11
-1710.21
 21
-243.659
 31
0
  0
LINE
  5
A09
330
A02
100
AcDbEntity
  8
ProjItem193
100
AcDbLine
 10
940.675
 20
1140.61
 30
0
 11
-310.685
 21
303.916
 31
0
  0
LINE
  5
A0A
330
A02
100
AcDbEntity
  8
ProjItem193
100
AcDbLine
 10
1943.79
 20
1140.61
 30
0
 11
940.675
 21
1140.61
 31
0
  0
LINE
  5
A0B
330
A02
100
AcDbEntity
  8
ProjItem193
100
AcDbLine
 10
-1710.21
 20
-493.659
 30
0
 11
-1710.21
 21
-433.659
 31
0
  0
LINE
  5
A0C
330
A02
100
AcDbEntity
  8
ProjItem193
100
AcDbLine
 10
-1710.21
 20
-243.659
 30
0
 11
-1710.21
 21
-433.659
 31
0
  0
LINE
  5
A0D
330
A02
100
AcDbEntity
  8
ProjItem193
100
AcDbLine
 10
-1710.21
 20
-433.659
 30
0
 11
-1695.21
 21
-433.659
 31
0
  0
LINE
  5
A0E
330
A02
100
AcDbEntity
  8
ProjItem193
100
AcDbLine
 10
-1695.21
 20
-493.659
 30
0
 11
-1695.21
 21
-433.659
 31
0
  0
LINE
  5
A0F
330
A02
100
AcDbEntity
  8
ProjItem193
100
AcDbLine
 10
-1710.21
 20
-493.659
 30
0
 11
-1695.21
 21
-493.659
 31
0
  0
LINE
  5
A10
330
A02
100
AcDbEntity
  8
ProjItem193
100
AcDbLine
 10
-1695.21
 20
-493.659
 30
0
 11
-1663.05
 21
-493.659
 31
0
  0
LINE
  5
A11
330
A02
100
AcDbEntity
  8
ProjItem193
100
AcDbLine
 10
-1663.05
 20
-493.659
 30
0
 11
-194.304
 21
80.9966
 31
0
  0
LINE
  5
A12
330
A02
100
AcDbEntity
  8
ProjItem193
100
AcDbLine
 10
-194.304
 20
80.9966
 30
0
 11
1016.55
 21
890.61
 31
0
  0
LINE
  5
A13
330
A02
100
AcDbEntity
  8
ProjItem193
100
AcDbLine
 10
1016.55
 20
890.61
 30
0
 11
1943.79
 21
890.61
 31
0
  0
LINE
  5
A14
330
A02
100
AcDbEntity
  8
ProjItem193
100
AcDbLine
 10
1943.79
 20
890.61
 30
0
 11
1943.79
 21
920.61
 31
0
  0
LINE
  5
A15
330
A02
100
AcDbEntity
  8
ProjItem193
100
AcDbLine
 10
1943.79
 20
1060.61
 30
0
 11
1943.79
 21
1140.61
 31
0
  0
CIRCLE
  5
A16
330
A02
100
AcDbEntity
  8
ProjItem193
100
AcDbCircle
 10
-1590.21
 20
-303.659
 40
7
  0
CIRCLE
  5
A17
330
A02
100
AcDbEntity
  8
ProjItem193
100
AcDbCircle
 10
-1670.21
 20
-303.659
 40
7
  0
LINE
  5
A18
330
A02
100
AcDbEntity
  8
ProjItem193
100
AcDbLine
 10
1943.79
 20
1060.61
 30
0
 11
1928.79
 21
1060.61
 31
0
  0
LINE
  5
A19
330
A02
100
AcDbEntity
  8
ProjItem193
100
AcDbLine
 10
1928.79
 20
920.61
 30
0
 11
1928.79
 21
1060.61
 31
0
  0
LINE
  5
A1A
330
A02
100
AcDbEntity
  8
ProjItem193
100
AcDbLine
 10
1943.79
 20
920.61
 30
0
 11
1928.79
 21
920.61
 31
0
  0
LINE
  5
A1B
330
A02
100
AcDbEntity
  8
ProjItem193
100
AcDbLine
 10
1943.79
 20
920.61
 30
0
 11
1943.79
 21
1060.61
 31
0
  0
LINE
  5
A1C
330
A02
100
AcDbEntity
  8
ProjItem193
100
AcDbLine
 10
953.71
 20
1080.61
 30
0
 11
953.71
 21
1090.61
 31
0
  0
LINE
  5
A1D
330
A02
100
AcDbEntity
  8
ProjItem193
100
AcDbLine
 10
1923.79
 20
1080.61
 30
0
 11
953.71
 21
1080.61
 31
0
  0
LINE
  5
A1E
330
A02
100
AcDbEntity
  8
ProjItem193
100
AcDbLine
 10
1923.79
 20
1090.61
 30
0
 11
1923.79
 21
1080.61
 31
0
  0
LINE
  5
A1F
330
A02
100
AcDbEntity
  8
ProjItem193
100
AcDbLine
 10
953.71
 20
1090.61
 30
0
 11
1923.79
 21
1090.61
 31
0
  0
LINE
  5
A20
330
A02
100
AcDbEntity
  8
ProjItem193
100
AcDbLine
 10
-1364.11
 20
-192.457
 30
0
 11
-1364.11
 21
-182.457
 31
0
  0
LINE
  5
A21
330
A02
100
AcDbEntity
  8
ProjItem193
100
AcDbLine
 10
-903.243
 20
-192.457
 30
0
 11
-1364.11
 21
-192.457
 31
0
  0
LINE
  5
A22
330
A02
100
AcDbEntity
  8
ProjItem193
100
AcDbLine
 10
-903.243
 20
-182.457
 30
0
 11
-903.243
 21
-192.457
 31
0
  0
LINE
  5
A23
330
A02
100
AcDbEntity
  8
ProjItem193
100
AcDbLine
 10
-1364.11
 20
-182.457
 30
0
 11
-903.243
 21
-182.457
 31
0
  0
LINE
  5
A24
330
A02
100
AcDbEntity
  8
ProjItem193
100
AcDbLine
 10
-898.238
 20
-10.5903
 30
0
 11
-898.238
 21
-0.590261
 31
0
  0
LINE
  5
A25
330
A02
100
AcDbEntity
  8
ProjItem193
100
AcDbLine
 10
-463.912
 20
-10.5903
 30
0
 11
-898.238
 21
-10.5903
 31
0
  0
LINE
  5
A26
330
A02
100
AcDbEntity
  8
ProjItem193
100
AcDbLine
 10
-463.912
 20
-0.590261
 30
0
 11
-463.912
 21
-10.5903
 31
0
  0
LINE
  5
A27
330
A02
100
AcDbEntity
  8
ProjItem193
100
AcDbLine
 10
-898.238
 20
-0.590261
 30
0
 11
-463.912
 21
-0.590261
 31
0
  0
LINE
  5
A28
330
A02
100
AcDbEntity
  8
ProjItem193
100
AcDbLine
 10
-474.455
 20
171.276
 30
0
 11
-474.455
 21
181.276
 31
0
  0
LINE
  5
A29
330
A02
100
AcDbEntity
  8
ProjItem193
100
AcDbLine
 10
-114.29
 20
171.276
 30
0
 11
-474.455
 21
171.276
 31
0
  0
LINE
  5
A2A
330
A02
100
AcDbEntity
  8
ProjItem193
100
AcDbLine
 10
-114.29
 20
181.276
 30
0
 11
-114.29
 21
171.276
 31
0
  0
LINE
  5
A2B
330
A02
100
AcDbEntity
  8
ProjItem193
100
AcDbLine
 10
-474.455
 20
181.276
 30
0
 11
-114.29
 21
181.276
 31
0
  0
LINE
  5
A2C
330
A02
100
AcDbEntity
  8
ProjItem193
100
AcDbLine
 10
409.71
 20
716.877
 30
0
 11
409.71
 21
726.877
 31
0
  0
LINE
  5
A2D
330
A02
100
AcDbEntity
  8
ProjItem193
100
AcDbLine
 10
701.71
 20
716.877
 30
0
 11
409.71
 21
716.877
 31
0
  0
LINE
  5
A2E
330
A02
100
AcDbEntity
  8
ProjItem193
100
AcDbLine
 10
701.71
 20
726.877
 30
0
 11
701.71
 21
716.877
 31
0
  0
LINE
  5
A2F
330
A02
100
AcDbEntity
  8
ProjItem193
100
AcDbLine
 10
409.71
 20
726.877
 30
0
 11
701.71
 21
726.877
 31
0
  0
LINE
  5
A30
330
A02
100
AcDbEntity
  8
ProjItem193
100
AcDbLine
 10
137.71
 20
535.01
 30
0
 11
137.71
 21
545.01
 31
0
  0
LINE
  5
A31
330
A02
100
AcDbEntity
  8
ProjItem193
100
AcDbLine
 10
429.71
 20
535.01
 30
0
 11
137.71
 21
535.01
 31
0
  0
LINE
  5
A32
330
A02
100
AcDbEntity
  8
ProjItem193
100
AcDbLine
 10
429.71
 20
545.01
 30
0
 11
429.71
 21
535.01
 31
0
  0
LINE
  5
A33
330
A02
100
AcDbEntity
  8
ProjItem193
100
AcDbLine
 10
137.71
 20
545.01
 30
0
 11
429.71
 21
545.01
 31
0
  0
LINE
  5
A34
330
A02
100
AcDbEntity
  8
ProjItem193
100
AcDbLine
 10
-134.29
 20
353.143
 30
0
 11
-134.29
 21
363.143
 31
0
  0
LINE
  5
A35
330
A02
100
AcDbEntity
  8
ProjItem193
100
AcDbLine
 10
157.71
 20
353.143
 30
0
 11
-134.29
 21
353.143
 31
0
  0
LINE
  5
A36
330
A02
100
AcDbEntity
  8
ProjItem193
100
AcDbLine
 10
157.71
 20
363.143
 30
0
 11
157.71
 21
353.143
 31
0
  0
LINE
  5
A37
330
A02
100
AcDbEntity
  8
ProjItem193
100
AcDbLine
 10
-134.29
 20
363.143
 30
0
 11
157.71
 21
363.143
 31
0
  0
LINE
  5
A38
330
A02
100
AcDbEntity
  8
ProjItem193
100
AcDbLine
 10
681.71
 20
898.743
 30
0
 11
681.71
 21
908.743
 31
0
  0
LINE
  5
A39
330
A02
100
AcDbEntity
  8
ProjItem193
100
AcDbLine
 10
973.71
 20
898.743
 30
0
 11
681.71
 21
898.743
 31
0
  0
LINE
  5
A3A
330
A02
100
AcDbEntity
  8
ProjItem193
100
AcDbLine
 10
973.71
 20
908.743
 30
0
 11
973.71
 21
898.743
 31
0
  0
LINE
  5
A3B
330
A02
100
AcDbEntity
  8
ProjItem193
100
AcDbLine
 10
681.71
 20
908.743
 30
0
 11
973.71
 21
908.743
 31
0
  0
LINE
  5
A3C
330
A02
100
AcDbEntity
  8
ProjItem193
100
AcDbLine
 10
-1379.73
 20
-364.324
 30
0
 11
-1650.21
 21
-364.324
 31
0
  0
LINE
  5
A3D
330
A02
100
AcDbEntity
  8
ProjItem193
100
AcDbLine
 10
-1650.21
 20
-364.324
 30
0
 11
-1650.21
 21
-374.324
 31
0
  0
LINE
  5
A3E
330
A02
100
AcDbEntity
  8
ProjItem193
100
AcDbLine
 10
-1650.21
 20
-374.324
 30
0
 11
-1379.73
 21
-374.324
 31
0
  0
LINE
  5
A3F
330
A02
100
AcDbEntity
  8
ProjItem193
100
AcDbLine
 10
-1379.73
 20
-374.324
 30
0
 11
-1379.73
 21
-364.324
 31
0
  0
LINE
  5
A40
330
A02
100
AcDbEntity
  8
ProjItem195
100
AcDbLine
 10
2104.17
 20
303.916
 30
0
 11
2089.17
 21
303.916
 31
0
  0
LINE
  5
A41
330
A02
100
AcDbEntity
  8
ProjItem195
100
AcDbLine
 10
2104.17
 20
-243.659
 30
0
 11
2089.17
 21
-243.659
 31
0
  0
LINE
  5
A42
330
A02
100
AcDbEntity
  8
ProjItem195
100
AcDbLine
 10
2104.17
 20
303.916
 30
0
 11
2104.17
 21
-243.659
 31
0
  0
LINE
  5
A43
330
A02
100
AcDbEntity
  8
ProjItem195
100
AcDbLine
 10
2089.17
 20
303.916
 30
0
 11
2089.17
 21
-243.659
 31
0
  0
LINE
  5
A44
330
A02
100
AcDbEntity
  8
ProjItem195
100
AcDbLine
 10
2104.17
 20
1140.61
 30
0
 11
2089.17
 21
1140.61
 31
0
  0
LINE
  5
A45
330
A02
100
AcDbEntity
  8
ProjItem195
100
AcDbLine
 10
2104.17
 20
1140.61
 30
0
 11
2104.17
 21
303.916
 31
0
  0
LINE
  5
A46
330
A02
100
AcDbEntity
  8
ProjItem195
100
AcDbLine
 10
2089.17
 20
1140.61
 30
0
 11
2089.17
 21
303.916
 31
0
  0
LINE
  5
A47
330
A02
100
AcDbEntity
  8
ProjItem195
100
AcDbLine
 10
2089.17
 20
-243.659
 30
0
 11
2089.17
 21
-493.659
 31
0
  0
LINE
  5
A48
330
A02
100
AcDbEntity
  8
ProjItem195
100
AcDbLine
 10
2244.17
 20
-493.659
 30
0
 11
2089.17
 21
-493.659
 31
0
  0
LINE
  5
A49
330
A02
100
AcDbEntity
  8
ProjItem195
100
AcDbLine
 10
2244.17
 20
-493.659
 30
0
 11
2244.17
 21
-433.659
 31
0
  0
LINE
  5
A4A
330
A02
100
AcDbEntity
  8
ProjItem195
100
AcDbLine
 10
2244.17
 20
-433.659
 30
0
 11
2104.17
 21
-433.659
 31
0
  0
LINE
  5
A4B
330
A02
100
AcDbEntity
  8
ProjItem195
100
AcDbLine
 10
2104.17
 20
-243.659
 30
0
 11
2104.17
 21
-433.659
 31
0
  0
CIRCLE
  5
A4C
330
A02
100
AcDbEntity
  8
ProjItem195
100
AcDbCircle
 10
2204.17
 20
-463.659
 40
7
  0
CIRCLE
  5
A4D
330
A02
100
AcDbEntity
  8
ProjItem195
100
AcDbCircle
 10
2144.17
 20
-463.659
 40
7
  0
LINE
  5
A4E
330
A02
100
AcDbEntity
  8
ProjItem195
100
AcDbLine
 10
2184.17
 20
1060.61
 30
0
 11
2104.17
 21
1060.61
 31
0
  0
LINE
  5
A4F
330
A02
100
AcDbEntity
  8
ProjItem195
100
AcDbLine
 10
2104.17
 20
920.61
 30
0
 11
2184.17
 21
920.61
 31
0
  0
LINE
  5
A50
330
A02
100
AcDbEntity
  8
ProjItem195
100
AcDbLine
 10
2184.17
 20
920.61
 30
0
 11
2184.17
 21
1060.61
 31
0
  0
CIRCLE
  5
A51
330
A02
100
AcDbEntity
  8
ProjItem195
100
AcDbCircle
 10
2144.17
 20
1020.61
 40
7
  0
CIRCLE
  5
A52
330
A02
100
AcDbEntity
  8
ProjItem195
100
AcDbCircle
 10
2144.17
 20
960.61
 40
7
  0
LINE
  5
A53
330
A02
100
AcDbEntity
  8
ProjItem195
100
AcDbLine
 10
2104.17
 20
1080.61
 30
0
 11
2154.17
 21
1080.61
 31
0
  0
LINE
  5
A54
330
A02
100
AcDbEntity
  8
ProjItem195
100
AcDbLine
 10
2104.17
 20
1090.61
 30
0
 11
2154.17
 21
1090.61
 31
0
  0
LINE
  5
A55
330
A02
100
AcDbEntity
  8
ProjItem195
100
AcDbLine
 10
2154.17
 20
1080.61
 30
0
 11
2154.17
 21
1090.61
 31
0
  0
LINE
  5
A56
330
A02
100
AcDbEntity
  8
ProjItem195
100
AcDbLine
 10
2104.17
 20
-192.457
 30
0
 11
2154.17
 21
-192.457
 31
0
  0
LINE
  5
A57
330
A02
100
AcDbEntity
  8
ProjItem195
100
AcDbLine
 10
2104.17
 20
-182.457
 30
0
 11
2154.17
 21
-182.457
 31
0
  0
LINE
  5
A58
330
A02
100
AcDbEntity
  8
ProjItem195
100
AcDbLine
 10
2154.17
 20
-192.457
 30
0
 11
2154.17
 21
-182.457
 31
0
  0
LINE
  5
A59
330
A02
100
AcDbEntity
  8
ProjItem195
100
AcDbLine
 10
2104.17
 20
-10.5903
 30
0
 11
2154.17
 21
-10.5903
 31
0
  0
LINE
  5
A5A
330
A02
100
AcDbEntity
  8
ProjItem195
100
AcDbLine
 10
2104.17
 20
-0.590261
 30
0
 11
2154.17
 21
-0.590261
 31
0
  0
LINE
  5
A5B
330
A02
100
AcDbEntity
  8
ProjItem195
100
AcDbLine
 10
2154.17
 20
-10.5903
 30
0
 11
2154.17
 21
-0.590261
 31
0
  0
LINE
  5
A5C
330
A02
100
AcDbEntity
  8
ProjItem195
100
AcDbLine
 10
2104.17
 20
171.276
 30
0
 11
2154.17
 21
171.276
 31
0
  0
LINE
  5
A5D
330
A02
100
AcDbEntity
  8
ProjItem195
100
AcDbLine
 10
2104.17
 20
181.276
 30
0
 11
2154.17
 21
181.276
 31
0
  0
LINE
  5
A5E
330
A02
100
AcDbEntity
  8
ProjItem195
100
AcDbLine
 10
2154.17
 20
171.276
 30
0
 11
2154.17
 21
181.276
 31
0
  0
LINE
  5
A5F
330
A02
100
AcDbEntity
  8
ProjItem195
100
AcDbLine
 10
2104.17
 20
716.877
 30
0
 11
2154.17
 21
716.877
 31
0
  0
LINE
  5
A60
330
A02
100
AcDbEntity
  8
ProjItem195
100
AcDbLine
 10
2104.17
 20
726.877
 30
0
 11
2154.17
 21
726.877
 31
0
  0
LINE
  5
A61
330
A02
100
AcDbEntity
  8
ProjItem195
100
AcDbLine
 10
2154.17
 20
716.877
 30
0
 11
2154.17
 21
726.877
 31
0
  0
LINE
  5
A62
330
A02
100
AcDbEntity
  8
ProjItem195
100
AcDbLine
 10
2104.17
 20
535.01
 30
0
 11
2154.17
 21
535.01
 31
0
  0
LINE
  5
A63
330
A02
100
AcDbEntity
  8
ProjItem195
100
AcDbLine
 10
2104.17
 20
545.01
 30
0
 11
2154.17
 21
545.01
 31
0
  0
LINE
  5
A64
330
A02
100
AcDbEntity
  8
ProjItem195
100
AcDbLine
 10
2154.17
 20
535.01
 30
0
 11
2154.17
 21
545.01
 31
0
  0
LINE
  5
A65
330
A02
100
AcDbEntity
  8
ProjItem195
100
AcDbLine
 10
2104.17
 20
353.143
 30
0
 11
2154.17
 21
353.143
 31
0
  0
LINE
  5
A66
330
A02
100
AcDbEntity
  8
ProjItem195
100
AcDbLine
 10
2104.17
 20
363.143
 30
0
 11
2154.17
 21
363.143
 31
0
  0
LINE
  5
A67
330
A02
100
AcDbEntity
  8
ProjItem195
100
AcDbLine
 10
2154.17
 20
353.143
 30
0
 11
2154.17
 21
363.143
 31
0
  0
LINE
  5
A68
330
A02
100
AcDbEntity
  8
ProjItem195
100
AcDbLine
 10
2104.17
 20
898.743
 30
0
 11
2154.17
 21
898.743
 31
0
  0
LINE
  5
A69
330
A02
100
AcDbEntity
  8
ProjItem195
100
AcDbLine
 10
2104.17
 20
908.743
 30
0
 11
2154.17
 21
908.743
 31
0
  0
LINE
  5
A6A
330
A02
100
AcDbEntity
  8
ProjItem195
100
AcDbLine
 10
2154.17
 20
898.743
 30
0
 11
2154.17
 21
908.743
 31
0
  0
LINE
  5
A6B
330
A02
100
AcDbEntity
  8
ProjItem195
100
AcDbLine
 10
2104.17
 20
-364.324
 30
0
 11
2154.17
 21
-364.324
 31
0
  0
LINE
  5
A6C
330
A02
100
AcDbEntity
  8
ProjItem195
100
AcDbLine
 10
2104.17
 20
-374.324
 30
0
 11
2154.17
 21
-374.324
 31
0
  0
LINE
  5
A6D
330
A02
100
AcDbEntity
  8
ProjItem195
100
AcDbLine
 10
2154.17
 20
-364.324
 30
0
 11
2154.17
 21
-374.324
 31
0
  0
LINE
  5
A6E
330
A02
100
AcDbEntity
  8
ProjItem196
100
AcDbLine
 10
-310.685
 20
-639.945
 30
0
 11
-310.685
 21
-624.945
 31
0
  0
LINE
  5
A6F
330
A02
100
AcDbEntity
  8
ProjItem196
100
AcDbLine
 10
-1710.21
 20
-639.945
 30
0
 11
-1710.21
 21
-624.945
 31
0
  0
LINE
  5
A70
330
A02
100
AcDbEntity
  8
ProjItem196
100
AcDbLine
 10
-310.685
 20
-639.945
 30
0
 11
-1710.21
 21
-639.945
 31
0
  0
LINE
  5
A71
330
A02
100
AcDbEntity
  8
ProjItem196
100
AcDbLine
 10
-310.685
 20
-624.945
 30
0
 11
-1710.21
 21
-624.945
 31
0
  0
LINE
  5
A72
330
A02
100
AcDbEntity
  8
ProjItem196
100
AcDbLine
 10
940.675
 20
-639.945
 30
0
 11
940.675
 21
-624.945
 31
0
  0
LINE
  5
A73
330
A02
100
AcDbEntity
  8
ProjItem196
100
AcDbLine
 10
940.675
 20
-639.945
 30
0
 11
-310.685
 21
-639.945
 31
0
  0
LINE
  5
A74
330
A02
100
AcDbEntity
  8
ProjItem196
100
AcDbLine
 10
940.675
 20
-624.945
 30
0
 11
-310.685
 21
-624.945
 31
0
  0
LINE
  5
A75
330
A02
100
AcDbEntity
  8
ProjItem196
100
AcDbLine
 10
1943.79
 20
-639.945
 30
0
 11
1943.79
 21
-624.945
 31
0
  0
LINE
  5
A76
330
A02
100
AcDbEntity
  8
ProjItem196
100
AcDbLine
 10
1943.79
 20
-639.945
 30
0
 11
940.675
 21
-639.945
 31
0
  0
LINE
  5
A77
330
A02
100
AcDbEntity
  8
ProjItem196
100
AcDbLine
 10
1943.79
 20
-624.945
 30
0
 11
940.675
 21
-624.945
 31
0
  0
LINE
  5
A78
330
A02
100
AcDbEntity
  8
ProjItem196
100
AcDbLine
 10
-1710.21
 20
-779.945
 30
0
 11
-1710.21
 21
-639.945
 31
0
  0
LINE
  5
A79
330
A02
100
AcDbEntity
  8
ProjItem196
100
AcDbLine
 10
-1710.21
 20
-779.945
 30
0
 11
-1695.21
 21
-779.945
 31
0
  0
LINE
  5
A7A
330
A02
100
AcDbEntity
  8
ProjItem196
100
AcDbLine
 10
-1695.21
 20
-779.945
 30
0
 11
-1695.21
 21
-639.945
 31
0
  0
LINE
  5
A7B
330
A02
100
AcDbEntity
  8
ProjItem196
100
AcDbLine
 10
1943.79
 20
-719.945
 30
0
 11
1928.79
 21
-719.945
 31
0
  0
LINE
  5
A7C
330
A02
100
AcDbEntity
  8
ProjItem196
100
AcDbLine
 10
1943.79
 20
-719.945
 30
0
 11
1943.79
 21
-639.945
 31
0
  0
LINE
  5
A7D
330
A02
100
AcDbEntity
  8
ProjItem196
100
AcDbLine
 10
1928.79
 20
-719.945
 30
0
 11
1928.79
 21
-639.945
 31
0
  0
LINE
  5
A7E
330
A02
100
AcDbEntity
  8
ProjItem196
100
AcDbLine
 10
953.71
 20
-639.945
 30
0
 11
953.71
 21
-689.945
 31
0
  0
LINE
  5
A7F
330
A02
100
AcDbEntity
  8
ProjItem196
100
AcDbLine
 10
1923.79
 20
-639.945
 30
0
 11
1923.79
 21
-689.945
 31
0
  0
LINE
  5
A80
330
A02
100
AcDbEntity
  8
ProjItem196
100
AcDbLine
 10
953.71
 20
-689.945
 30
0
 11
1923.79
 21
-689.945
 31
0
  0
LINE
  5
A81
330
A02
100
AcDbEntity
  8
ProjItem196
100
AcDbLine
 10
-1364.11
 20
-639.945
 30
0
 11
-1364.11
 21
-689.945
 31
0
  0
LINE
  5
A82
330
A02
100
AcDbEntity
  8
ProjItem196
100
AcDbLine
 10
-903.243
 20
-639.945
 30
0
 11
-903.243
 21
-689.945
 31
0
  0
LINE
  5
A83
330
A02
100
AcDbEntity
  8
ProjItem196
100
AcDbLine
 10
-1364.11
 20
-689.945
 30
0
 11
-903.243
 21
-689.945
 31
0
  0
LINE
  5
A84
330
A02
100
AcDbEntity
  8
ProjItem196
100
AcDbLine
 10
-898.238
 20
-639.945
 30
0
 11
-898.238
 21
-689.945
 31
0
  0
LINE
  5
A85
330
A02
100
AcDbEntity
  8
ProjItem196
100
AcDbLine
 10
-898.238
 20
-689.945
 30
0
 11
-474.455
 21
-689.945
 31
0
  0
LINE
  5
A86
330
A02
100
AcDbEntity
  8
ProjItem196
100
AcDbLine
 10
-474.455
 20
-639.945
 30
0
 11
-474.455
 21
-689.945
 31
0
  0
LINE
  5
A87
330
A02
100
AcDbEntity
  8
ProjItem196
100
AcDbLine
 10
-474.455
 20
-689.945
 30
0
 11
-134.29
 21
-689.945
 31
0
  0
LINE
  5
A88
330
A02
100
AcDbEntity
  8
ProjItem196
100
AcDbLine
 10
409.71
 20
-639.945
 30
0
 11
409.71
 21
-689.945
 31
0
  0
LINE
  5
A89
330
A02
100
AcDbEntity
  8
ProjItem196
100
AcDbLine
 10
409.71
 20
-689.945
 30
0
 11
681.71
 21
-689.945
 31
0
  0
LINE
  5
A8A
330
A02
100
AcDbEntity
  8
ProjItem196
100
AcDbLine
 10
137.71
 20
-639.945
 30
0
 11
137.71
 21
-689.945
 31
0
  0
LINE
  5
A8B
330
A02
100
AcDbEntity
  8
ProjItem196
100
AcDbLine
 10
137.71
 20
-689.945
 30
0
 11
409.71
 21
-689.945
 31
0
  0
LINE
  5
A8C
330
A02
100
AcDbEntity
  8
ProjItem196
100
AcDbLine
 10
-134.29
 20
-639.945
 30
0
 11
-134.29
 21
-689.945
 31
0
  0
LINE
  5
A8D
330
A02
100
AcDbEntity
  8
ProjItem196
100
AcDbLine
 10
-134.29
 20
-689.945
 30
0
 11
137.71
 21
-689.945
 31
0
  0
LINE
  5
A8E
330
A02
100
AcDbEntity
  8
ProjItem196
100
AcDbLine
 10
681.71
 20
-639.945
 30
0
 11
681.71
 21
-689.945
 31
0
  0
LINE
  5
A8F
330
A02
100
AcDbEntity
  8
ProjItem196
100
AcDbLine
 10
681.71
 20
-689.945
 30
0
 11
953.71
 21
-689.945
 31
0
  0
LINE
  5
A90
330
A02
100
AcDbEntity
  8
ProjItem196
100
AcDbLine
 10
-1379.73
 20
-639.945
 30
0
 11
-1379.73
 21
-689.945
 31
0
  0
LINE
  5
A91
330
A02
100
AcDbEntity
  8
ProjItem196
100
AcDbLine
 10
-1650.21
 20
-639.945
 30
0
 11
-1650.21
 21
-689.945
 31
0
  0
LINE
  5
A92
330
A02
100
AcDbEntity
  8
ProjItem196
100
AcDbLine
 10
-1379.73
 20
-689.945
 30
0
 11
-1650.21
 21
-689.945
 31
0
  0
LINE
  5
A93
330
A02
100
AcDbEntity
  8
ProjItem194
100
AcDbLine
 10
-2972.54
 20
180.006
 30
0
 11
-2983.15
 21
186.129
 31
0
  0
LINE
  5
A94
330
A02
100
AcDbEntity
  8
ProjItem194
100
AcDbLine
 10
-3962.16
 20
-838.443
 30
0
 11
-3972.77
 21
-832.319
 31
0
  0
LINE
  5
A95
330
A02
100
AcDbEntity
  8
ProjItem194
100
AcDbLine
 10
-2972.54
 20
180.006
 30
0
 11
-3962.16
 21
-838.443
 31
0
  0
LINE
  5
A96
330
A02
100
AcDbEntity
  8
ProjItem194
100
AcDbLine
 10
-2983.15
 20
186.129
 30
0
 11
-3972.77
 21
-832.319
 31
0
  0
LINE
  5
A97
330
A02
100
AcDbEntity
  8
ProjItem194
100
AcDbLine
 10
-2087.7
 20
1374.03
 30
0
 11
-2098.3
 21
1380.15
 31
0
  0
LINE
  5
A98
330
A02
100
AcDbEntity
  8
ProjItem194
100
AcDbLine
 10
-2087.7
 20
1374.03
 30
0
 11
-2972.54
 21
180.006
 31
0
  0
LINE
  5
A99
330
A02
100
AcDbEntity
  8
ProjItem194
100
AcDbLine
 10
-2098.3
 20
1380.15
 30
0
 11
-2983.15
 21
186.129
 31
0
  0
LINE
  5
A9A
330
A02
100
AcDbEntity
  8
ProjItem194
100
AcDbLine
 10
-1378.39
 20
1783.55
 30
0
 11
-1389
 21
1789.67
 31
0
  0
LINE
  5
A9B
330
A02
100
AcDbEntity
  8
ProjItem194
100
AcDbLine
 10
-1378.39
 20
1783.55
 30
0
 11
-2087.7
 21
1374.03
 31
0
  0
LINE
  5
A9C
330
A02
100
AcDbEntity
  8
ProjItem194
100
AcDbLine
 10
-1389
 20
1789.67
 30
0
 11
-2098.3
 21
1380.15
 31
0
  0
LINE
  5
A9D
330
A02
100
AcDbEntity
  8
ProjItem194
100
AcDbLine
 10
-3972.77
 20
-832.319
 30
0
 11
-3972.77
 21
-1036.44
 31
0
  0
LINE
  5
A9E
330
A02
100
AcDbEntity
  8
ProjItem194
100
AcDbLine
 10
-3863.16
 20
-1099.72
 30
0
 11
-3972.77
 21
-1036.44
 31
0
  0
LINE
  5
A9F
330
A02
100
AcDbEntity
  8
ProjItem194
100
AcDbLine
 10
-3863.16
 20
-1099.72
 30
0
 11
-3863.16
 21
-1050.73
 31
0
  0
LINE
  5
AA0
330
A02
100
AcDbEntity
  8
ProjItem194
100
AcDbLine
 10
-3863.16
 20
-1050.73
 30
0
 11
-3962.16
 21
-993.577
 31
0
  0
LINE
  5
AA1
330
A02
100
AcDbEntity
  8
ProjItem194
100
AcDbLine
 10
-3962.16
 20
-838.443
 30
0
 11
-3962.16
 21
-993.577
 31
0
  0
ELLIPSE
  5
AA2
330
A02
100
AcDbEntity
  8
ProjItem194
100
AcDbEllipse
 10
-3891.45
 20
-1058.9
 30
0
 11
-3.5
 21
6.06218
 31
0
 40
0.57735
 41
5.49779
 42
0
  0
ELLIPSE
  5
AA3
330
A02
100
AcDbEntity
  8
ProjItem194
100
AcDbEllipse
 10
-3891.45
 20
-1058.9
 30
0
 11
-3.5
 21
6.06218
 31
0
 40
0.57735
 41
0
 42
3.14159
  0
ELLIPSE
  5
AA4
330
A02
100
AcDbEntity
  8
ProjItem194
100
AcDbEllipse
 10
-3891.45
 20
-1058.9
 30
0
 11
-3.5
 21
6.06218
 31
0
 40
0.57735
 41
3.14159
 42
5.49779
  0
ELLIPSE
  5
AA5
330
A02
100
AcDbEntity
  8
ProjItem194
100
AcDbEllipse
 10
-3933.87
 20
-1034.4
 30
0
 11
-3.5
 21
6.06218
 31
0
 40
0.57735
 41
5.49779
 42
0
  0
ELLIPSE
  5
AA6
330
A02
100
AcDbEntity
  8
ProjItem194
100
AcDbEllipse
 10
-3933.87
 20
-1034.4
 30
0
 11
-3.5
 21
6.06218
 31
0
 40
0.57735
 41
0
 42
3.14159
  0
ELLIPSE
  5
AA7
330
A02
100
AcDbEntity
  8
ProjItem194
100
AcDbEllipse
 10
-3933.87
 20
-1034.4
 30
0
 11
-3.5
 21
6.06218
 31
0
 40
0.57735
 41
3.14159
 42
5.49779
  0
LINE
  5
AA8
330
A02
100
AcDbEntity
  8
ProjItem194
100
AcDbLine
 10
-3863.16
 20
-1050.73
 30
0
 11
-3852.56
 21
-1044.61
 31
0
  0
LINE
  5
AA9
330
A02
100
AcDbEntity
  8
ProjItem194
100
AcDbLine
 10
-3962.16
 20
-993.577
 30
0
 11
-3951.55
 21
-987.453
 31
0
  0
LINE
  5
AAA
330
A02
100
AcDbEntity
  8
ProjItem194
100
AcDbLine
 10
-3852.56
 20
-1044.61
 30
0
 11
-3951.55
 21
-987.453
 31
0
  0
LINE
  5
AAB
330
A02
100
AcDbEntity
  8
ProjItem194
100
AcDbLine
 10
-3852.56
 20
-1093.6
 30
0
 11
-3852.56
 21
-1044.61
 31
0
  0
LINE
  5
AAC
330
A02
100
AcDbEntity
  8
ProjItem194
100
AcDbLine
 10
-3863.16
 20
-1099.72
 30
0
 11
-3852.56
 21
-1093.6
 31
0
  0
LINE
  5
AAD
330
A02
100
AcDbEntity
  8
ProjItem194
100
AcDbLine
 10
-3914.66
 20
-1008.75
 30
0
 11
-3803.5
 21
-894.352
 31
0
  0
LINE
  5
AAE
330
A02
100
AcDbEntity
  8
ProjItem194
100
AcDbLine
 10
-3719.08
 20
-807.471
 30
0
 11
-3474.82
 21
-556.094
 31
0
  0
LINE
  5
AAF
330
A02
100
AcDbEntity
  8
ProjItem194
100
AcDbLine
 10
-3384.47
 20
-463.112
 30
0
 11
-3146.13
 21
-217.836
 31
0
  0
LINE
  5
AB0
330
A02
100
AcDbEntity
  8
ProjItem194
100
AcDbLine
 10
-3068.74
 20
-138.19
 30
0
 11
-2890.25
 21
45.5053
 31
0
  0
LINE
  5
AB1
330
A02
100
AcDbEntity
  8
ProjItem194
100
AcDbLine
 10
-2890.25
 20
45.5053
 30
0
 11
-2847.65
 21
102.988
 31
0
  0
LINE
  5
AB2
330
A02
100
AcDbEntity
  8
ProjItem194
100
AcDbLine
 10
-2813.85
 20
148.604
 30
0
 11
-2655.32
 21
362.525
 31
0
  0
LINE
  5
AB3
330
A02
100
AcDbEntity
  8
ProjItem194
100
AcDbLine
 10
-2621.51
 20
408.141
 30
0
 11
-2462.98
 21
622.062
 31
0
  0
LINE
  5
AB4
330
A02
100
AcDbEntity
  8
ProjItem194
100
AcDbLine
 10
-2429.18
 20
667.678
 30
0
 11
-2270.65
 21
881.599
 31
0
  0
LINE
  5
AB5
330
A02
100
AcDbEntity
  8
ProjItem194
100
AcDbLine
 10
-2236.85
 20
927.215
 30
0
 11
-2078.32
 21
1141.14
 31
0
  0
LINE
  5
AB6
330
A02
100
AcDbEntity
  8
ProjItem194
100
AcDbLine
 10
-2044.51
 20
1186.75
 30
0
 11
-2034.04
 21
1200.88
 31
0
  0
LINE
  5
AB7
330
A02
100
AcDbEntity
  8
ProjItem194
100
AcDbLine
 10
-2034.04
 20
1200.88
 30
0
 11
-1378.39
 21
1579.42
 31
0
  0
LINE
  5
AB8
330
A02
100
AcDbEntity
  8
ProjItem194
100
AcDbLine
 10
-1378.39
 20
1579.42
 30
0
 11
-1378.39
 21
1591.67
 31
0
  0
LINE
  5
AB9
330
A02
100
AcDbEntity
  8
ProjItem194
100
AcDbLine
 10
-1389
 20
1687.61
 30
0
 11
-1389
 21
1597.79
 31
0
  0
LINE
  5
ABA
330
A02
100
AcDbEntity
  8
ProjItem194
100
AcDbLine
 10
-1378.39
 20
1726.39
 30
0
 11
-1378.39
 21
1783.55
 31
0
  0
LINE
  5
ABB
330
A02
100
AcDbEntity
  8
ProjItem194
100
AcDbLine
 10
-2078.48
 20
1330.36
 30
0
 11
-2078.48
 21
1338.53
 31
0
  0
LINE
  5
ABC
330
A02
100
AcDbEntity
  8
ProjItem194
100
AcDbLine
 10
-2078.48
 20
1338.53
 30
0
 11
-1392.53
 21
1734.56
 31
0
  0
LINE
  5
ABD
330
A02
100
AcDbEntity
  8
ProjItem194
100
AcDbLine
 10
-3717.43
 20
-655.339
 30
0
 11
-3717.43
 21
-647.174
 31
0
  0
LINE
  5
ABE
330
A02
100
AcDbEntity
  8
ProjItem194
100
AcDbLine
 10
-3717.43
 20
-647.174
 30
0
 11
-3391.54
 21
-459.027
 31
0
  0
LINE
  5
ABF
330
A02
100
AcDbEntity
  8
ProjItem194
100
AcDbLine
 10
-3388.01
 20
-316.655
 30
0
 11
-3388.01
 21
-308.49
 31
0
  0
LINE
  5
AC0
330
A02
100
AcDbEntity
  8
ProjItem194
100
AcDbLine
 10
-3388.01
 20
-308.49
 30
0
 11
-3080.89
 21
-131.177
 31
0
  0
LINE
  5
AC1
330
A02
100
AcDbEntity
  8
ProjItem194
100
AcDbLine
 10
-3088.35
 20
4.84733
 30
0
 11
-3088.35
 21
13.0123
 31
0
  0
LINE
  5
AC2
330
A02
100
AcDbEntity
  8
ProjItem194
100
AcDbLine
 10
-3088.35
 20
13.0123
 30
0
 11
-2833.67
 21
160.049
 31
0
  0
LINE
  5
AC3
330
A02
100
AcDbEntity
  8
ProjItem194
100
AcDbLine
 10
-2463.15
 20
811.287
 30
0
 11
-2463.15
 21
819.452
 31
0
  0
LINE
  5
AC4
330
A02
100
AcDbEntity
  8
ProjItem194
100
AcDbLine
 10
-2463.15
 20
819.452
 30
0
 11
-2256.67
 21
938.66
 31
0
  0
LINE
  5
AC5
330
A02
100
AcDbEntity
  8
ProjItem194
100
AcDbLine
 10
-2655.48
 20
551.75
 30
0
 11
-2655.48
 21
559.915
 31
0
  0
LINE
  5
AC6
330
A02
100
AcDbEntity
  8
ProjItem194
100
AcDbLine
 10
-2655.48
 20
559.915
 30
0
 11
-2449
 21
679.123
 31
0
  0
LINE
  5
AC7
330
A02
100
AcDbEntity
  8
ProjItem194
100
AcDbLine
 10
-2847.81
 20
292.213
 30
0
 11
-2847.81
 21
300.378
 31
0
  0
LINE
  5
AC8
330
A02
100
AcDbEntity
  8
ProjItem194
100
AcDbLine
 10
-2847.81
 20
300.378
 30
0
 11
-2641.34
 21
419.586
 31
0
  0
LINE
  5
AC9
330
A02
100
AcDbEntity
  8
ProjItem194
100
AcDbLine
 10
-2270.81
 20
1070.82
 30
0
 11
-2270.81
 21
1078.99
 31
0
  0
LINE
  5
ACA
330
A02
100
AcDbEntity
  8
ProjItem194
100
AcDbLine
 10
-2270.81
 20
1078.99
 30
0
 11
-2064.34
 21
1198.2
 31
0
  0
LINE
  5
ACB
330
A02
100
AcDbEntity
  8
ProjItem194
100
AcDbLine
 10
-3728.47
 20
-802.046
 30
0
 11
-3919.73
 21
-912.47
 31
0
  0
LINE
  5
ACC
330
A02
100
AcDbEntity
  8
ProjItem194
100
AcDbLine
 10
-3919.73
 20
-912.47
 30
0
 11
-3919.73
 21
-920.635
 31
0
  0
ELLIPSE
  5
ACD
330
A02
100
AcDbEntity
  8
ProjItem194
100
AcDbEllipse
 10
-3877.31
 20
-838.443
 30
0
 11
3.5
 21
6.06218
 31
0
 40
0.57735
 41
-0
 42
-3.92699
  0
ELLIPSE
  5
ACE
330
A02
100
AcDbEntity
  8
ProjItem194
100
AcDbEllipse
 10
-3877.31
 20
-838.443
 30
0
 11
3.5
 21
6.06218
 31
0
 40
0.57735
 41
-3.14159
 42
-0
  0
ELLIPSE
  5
ACF
330
A02
100
AcDbEntity
  8
ProjItem194
100
AcDbEllipse
 10
-3877.31
 20
-838.443
 30
0
 11
3.5
 21
6.06218
 31
0
 40
0.57735
 41
-3.92699
 42
-3.14159
  0
ELLIPSE
  5
AD0
330
A02
100
AcDbEntity
  8
ProjItem194
100
AcDbEllipse
 10
-3933.87
 20
-871.103
 30
0
 11
3.5
 21
6.06218
 31
0
 40
0.57735
 41
-0
 42
-3.92699
  0
ELLIPSE
  5
AD1
330
A02
100
AcDbEntity
  8
ProjItem194
100
AcDbEllipse
 10
-3933.87
 20
-871.103
 30
0
 11
3.5
 21
6.06218
 31
0
 40
0.57735
 41
-3.14159
 42
-0
  0
ELLIPSE
  5
AD2
330
A02
100
AcDbEntity
  8
ProjItem194
100
AcDbEllipse
 10
-3933.87
 20
-871.103
 30
0
 11
3.5
 21
6.06218
 31
0
 40
0.57735
 41
-3.92699
 42
-3.14159
  0
LINE
  5
AD3
330
A02
100
AcDbEntity
  8
ProjItem194
100
AcDbLine
 10
-1321.82
 20
1685.57
 30
0
 11
-1332.43
 21
1679.44
 31
0
  0
LINE
  5
AD4
330
A02
100
AcDbEntity
  8
ProjItem194
100
AcDbLine
 10
-1321.82
 20
1685.57
 30
0
 11
-1357.18
 21
1705.98
 31
0
  0
LINE
  5
AD5
330
A02
100
AcDbEntity
  8
ProjItem194
100
AcDbLine
 10
-1332.43
 20
1679.44
 30
0
 11
-1367.78
 21
1699.86
 31
0
  0
LINE
  5
AD6
330
A02
100
AcDbEntity
  8
ProjItem194
100
AcDbLine
 10
-1389
 20
1597.79
 30
0
 11
-1332.43
 21
1565.13
 31
0
  0
LINE
  5
AD7
330
A02
100
AcDbEntity
  8
ProjItem194
100
AcDbLine
 10
-1332.43
 20
1565.13
 30
0
 11
-1332.43
 21
1679.44
 31
0
  0
ELLIPSE
  5
AD8
330
A02
100
AcDbEntity
  8
ProjItem194
100
AcDbEllipse
 10
-1360.71
 20
1663.11
 30
0
 11
3.5
 21
-6.06218
 31
0
 40
0.57735
 41
-3.14159
 42
-0.785398
  0
ELLIPSE
  5
AD9
330
A02
100
AcDbEntity
  8
ProjItem194
100
AcDbEllipse
 10
-1360.71
 20
1663.11
 30
0
 11
3.5
 21
-6.06218
 31
0
 40
0.57735
 41
-0
 42
-3.14159
  0
ELLIPSE
  5
ADA
330
A02
100
AcDbEntity
  8
ProjItem194
100
AcDbEllipse
 10
-1360.71
 20
1663.11
 30
0
 11
3.5
 21
-6.06218
 31
0
 40
0.57735
 41
-0.785398
 42
-0
  0
ELLIPSE
  5
ADB
330
A02
100
AcDbEntity
  8
ProjItem194
100
AcDbEllipse
 10
-1360.71
 20
1614.12
 30
0
 11
3.5
 21
-6.06218
 31
0
 40
0.57735
 41
-3.14159
 42
-0.785398
  0
ELLIPSE
  5
ADC
330
A02
100
AcDbEntity
  8
ProjItem194
100
AcDbEllipse
 10
-1360.71
 20
1614.12
 30
0
 11
3.5
 21
-6.06218
 31
0
 40
0.57735
 41
-0
 42
-3.14159
  0
ELLIPSE
  5
ADD
330
A02
100
AcDbEntity
  8
ProjItem194
100
AcDbEllipse
 10
-1360.71
 20
1614.12
 30
0
 11
3.5
 21
-6.06218
 31
0
 40
0.57735
 41
-0.785398
 42
-0
  0
LINE
  5
ADE
330
A02
100
AcDbEntity
  8
ProjItem194
100
AcDbLine
 10
-1321.82
 20
1571.26
 30
0
 11
-1332.43
 21
1565.13
 31
0
  0
LINE
  5
ADF
330
A02
100
AcDbEntity
  8
ProjItem194
100
AcDbLine
 10
-1321.82
 20
1571.26
 30
0
 11
-1321.82
 21
1685.57
 31
0
  0
LINE
  5
AE0
330
A02
100
AcDbEntity
  8
ProjItem194
100
AcDbLine
 10
-2078.48
 20
1330.36
 30
0
 11
-2043.12
 21
1309.95
 31
0
  0
LINE
  5
AE1
330
A02
100
AcDbEntity
  8
ProjItem194
100
AcDbLine
 10
-2078.48
 20
1338.53
 30
0
 11
-2043.12
 21
1318.11
 31
0
  0
LINE
  5
AE2
330
A02
100
AcDbEntity
  8
ProjItem194
100
AcDbLine
 10
-2043.12
 20
1309.95
 30
0
 11
-2043.12
 21
1318.11
 31
0
  0
LINE
  5
AE3
330
A02
100
AcDbEntity
  8
ProjItem194
100
AcDbLine
 10
-1357.18
 20
1705.98
 30
0
 11
-2043.12
 21
1309.95
 31
0
  0
LINE
  5
AE4
330
A02
100
AcDbEntity
  8
ProjItem194
100
AcDbLine
 10
-1392.53
 20
1734.56
 30
0
 11
-1357.18
 21
1714.15
 31
0
  0
LINE
  5
AE5
330
A02
100
AcDbEntity
  8
ProjItem194
100
AcDbLine
 10
-1357.18
 20
1714.15
 30
0
 11
-1357.18
 21
1705.98
 31
0
  0
LINE
  5
AE6
330
A02
100
AcDbEntity
  8
ProjItem194
100
AcDbLine
 10
-2043.12
 20
1318.11
 30
0
 11
-1357.18
 21
1714.15
 31
0
  0
LINE
  5
AE7
330
A02
100
AcDbEntity
  8
ProjItem194
100
AcDbLine
 10
-3717.43
 20
-655.339
 30
0
 11
-3682.07
 21
-675.752
 31
0
  0
LINE
  5
AE8
330
A02
100
AcDbEntity
  8
ProjItem194
100
AcDbLine
 10
-3717.43
 20
-647.174
 30
0
 11
-3682.07
 21
-667.587
 31
0
  0
LINE
  5
AE9
330
A02
100
AcDbEntity
  8
ProjItem194
100
AcDbLine
 10
-3682.07
 20
-675.752
 30
0
 11
-3682.07
 21
-667.587
 31
0
  0
LINE
  5
AEA
330
A02
100
AcDbEntity
  8
ProjItem194
100
AcDbLine
 10
-3356.19
 20
-487.604
 30
0
 11
-3682.07
 21
-675.752
 31
0
  0
LINE
  5
AEB
330
A02
100
AcDbEntity
  8
ProjItem194
100
AcDbLine
 10
-3391.54
 20
-459.027
 30
0
 11
-3356.19
 21
-479.439
 31
0
  0
LINE
  5
AEC
330
A02
100
AcDbEntity
  8
ProjItem194
100
AcDbLine
 10
-3356.19
 20
-479.439
 30
0
 11
-3356.19
 21
-487.604
 31
0
  0
LINE
  5
AED
330
A02
100
AcDbEntity
  8
ProjItem194
100
AcDbLine
 10
-3682.07
 20
-667.587
 30
0
 11
-3356.19
 21
-479.439
 31
0
  0
LINE
  5
AEE
330
A02
100
AcDbEntity
  8
ProjItem194
100
AcDbLine
 10
-3388.01
 20
-316.655
 30
0
 11
-3352.65
 21
-337.067
 31
0
  0
LINE
  5
AEF
330
A02
100
AcDbEntity
  8
ProjItem194
100
AcDbLine
 10
-3388.01
 20
-308.49
 30
0
 11
-3352.65
 21
-328.902
 31
0
  0
LINE
  5
AF0
330
A02
100
AcDbEntity
  8
ProjItem194
100
AcDbLine
 10
-3352.65
 20
-337.067
 30
0
 11
-3352.65
 21
-328.902
 31
0
  0
LINE
  5
AF1
330
A02
100
AcDbEntity
  8
ProjItem194
100
AcDbLine
 10
-3045.53
 20
-159.754
 30
0
 11
-3352.65
 21
-337.067
 31
0
  0
LINE
  5
AF2
330
A02
100
AcDbEntity
  8
ProjItem194
100
AcDbLine
 10
-3080.89
 20
-131.177
 30
0
 11
-3045.53
 21
-151.589
 31
0
  0
LINE
  5
AF3
330
A02
100
AcDbEntity
  8
ProjItem194
100
AcDbLine
 10
-3045.53
 20
-151.589
 30
0
 11
-3045.53
 21
-159.754
 31
0
  0
LINE
  5
AF4
330
A02
100
AcDbEntity
  8
ProjItem194
100
AcDbLine
 10
-3352.65
 20
-328.902
 30
0
 11
-3045.53
 21
-151.589
 31
0
  0
LINE
  5
AF5
330
A02
100
AcDbEntity
  8
ProjItem194
100
AcDbLine
 10
-3088.35
 20
4.84733
 30
0
 11
-3052.99
 21
-15.5651
 31
0
  0
LINE
  5
AF6
330
A02
100
AcDbEntity
  8
ProjItem194
100
AcDbLine
 10
-3088.35
 20
13.0123
 30
0
 11
-3052.99
 21
-7.40012
 31
0
  0
LINE
  5
AF7
330
A02
100
AcDbEntity
  8
ProjItem194
100
AcDbLine
 10
-3052.99
 20
-15.5651
 30
0
 11
-3052.99
 21
-7.40012
 31
0
  0
LINE
  5
AF8
330
A02
100
AcDbEntity
  8
ProjItem194
100
AcDbLine
 10
-2798.31
 20
131.472
 30
0
 11
-3052.99
 21
-15.5651
 31
0
  0
LINE
  5
AF9
330
A02
100
AcDbEntity
  8
ProjItem194
100
AcDbLine
 10
-2833.67
 20
160.049
 30
0
 11
-2798.31
 21
139.637
 31
0
  0
LINE
  5
AFA
330
A02
100
AcDbEntity
  8
ProjItem194
100
AcDbLine
 10
-2798.31
 20
139.637
 30
0
 11
-2798.31
 21
131.472
 31
0
  0
LINE
  5
AFB
330
A02
100
AcDbEntity
  8
ProjItem194
100
AcDbLine
 10
-3052.99
 20
-7.40012
 30
0
 11
-2798.31
 21
139.637
 31
0
  0
LINE
  5
AFC
330
A02
100
AcDbEntity
  8
ProjItem194
100
AcDbLine
 10
-2463.15
 20
811.287
 30
0
 11
-2427.79
 21
790.875
 31
0
  0
LINE
  5
AFD
330
A02
100
AcDbEntity
  8
ProjItem194
100
AcDbLine
 10
-2463.15
 20
819.452
 30
0
 11
-2427.79
 21
799.04
 31
0
  0
LINE
  5
AFE
330
A02
100
AcDbEntity
  8
ProjItem194
100
AcDbLine
 10
-2427.79
 20
790.875
 30
0
 11
-2427.79
 21
799.04
 31
0
  0
LINE
  5
AFF
330
A02
100
AcDbEntity
  8
ProjItem194
100
AcDbLine
 10
-2221.32
 20
910.083
 30
0
 11
-2427.79
 21
790.875
 31
0
  0
LINE
  5
B00
330
A02
100
AcDbEntity
  8
ProjItem194
100
AcDbLine
 10
-2256.67
 20
938.66
 30
0
 11
-2221.32
 21
918.248
 31
0
  0
LINE
  5
B01
330
A02
100
AcDbEntity
  8
ProjItem194
100
AcDbLine
 10
-2221.32
 20
918.248
 30
0
 11
-2221.32
 21
910.083
 31
0
  0
LINE
  5
B02
330
A02
100
AcDbEntity
  8
ProjItem194
100
AcDbLine
 10
-2427.79
 20
799.04
 30
0
 11
-2221.32
 21
918.248
 31
0
  0
LINE
  5
B03
330
A02
100
AcDbEntity
  8
ProjItem194
100
AcDbLine
 10
-2655.48
 20
551.75
 30
0
 11
-2620.12
 21
531.338
 31
0
  0
LINE
  5
B04
330
A02
100
AcDbEntity
  8
ProjItem194
100
AcDbLine
 10
-2655.48
 20
559.915
 30
0
 11
-2620.12
 21
539.502
 31
0
  0
LINE
  5
B05
330
A02
100
AcDbEntity
  8
ProjItem194
100
AcDbLine
 10
-2620.12
 20
531.338
 30
0
 11
-2620.12
 21
539.502
 31
0
  0
LINE
  5
B06
330
A02
100
AcDbEntity
  8
ProjItem194
100
AcDbLine
 10
-2413.65
 20
650.546
 30
0
 11
-2620.12
 21
531.338
 31
0
  0
LINE
  5
B07
330
A02
100
AcDbEntity
  8
ProjItem194
100
AcDbLine
 10
-2449
 20
679.123
 30
0
 11
-2413.65
 21
658.711
 31
0
  0
LINE
  5
B08
330
A02
100
AcDbEntity
  8
ProjItem194
100
AcDbLine
 10
-2413.65
 20
658.711
 30
0
 11
-2413.65
 21
650.546
 31
0
  0
LINE
  5
B09
330
A02
100
AcDbEntity
  8
ProjItem194
100
AcDbLine
 10
-2620.12
 20
539.502
 30
0
 11
-2413.65
 21
658.711
 31
0
  0
LINE
  5
B0A
330
A02
100
AcDbEntity
  8
ProjItem194
100
AcDbLine
 10
-2847.81
 20
292.213
 30
0
 11
-2812.46
 21
271.8
 31
0
  0
LINE
  5
B0B
330
A02
100
AcDbEntity
  8
ProjItem194
100
AcDbLine
 10
-2847.81
 20
300.378
 30
0
 11
-2812.46
 21
279.965
 31
0
  0
LINE
  5
B0C
330
A02
100
AcDbEntity
  8
ProjItem194
100
AcDbLine
 10
-2812.46
 20
271.8
 30
0
 11
-2812.46
 21
279.965
 31
0
  0
LINE
  5
B0D
330
A02
100
AcDbEntity
  8
ProjItem194
100
AcDbLine
 10
-2605.98
 20
391.009
 30
0
 11
-2812.46
 21
271.8
 31
0
  0
LINE
  5
B0E
330
A02
100
AcDbEntity
  8
ProjItem194
100
AcDbLine
 10
-2641.34
 20
419.586
 30
0
 11
-2605.98
 21
399.174
 31
0
  0
LINE
  5
B0F
330
A02
100
AcDbEntity
  8
ProjItem194
100
AcDbLine
 10
-2605.98
 20
399.174
 30
0
 11
-2605.98
 21
391.009
 31
0
  0
LINE
  5
B10
330
A02
100
AcDbEntity
  8
ProjItem194
100
AcDbLine
 10
-2812.46
 20
279.965
 30
0
 11
-2605.98
 21
399.174
 31
0
  0
LINE
  5
B11
330
A02
100
AcDbEntity
  8
ProjItem194
100
AcDbLine
 10
-2270.81
 20
1070.82
 30
0
 11
-2235.46
 21
1050.41
 31
0
  0
LINE
  5
B12
330
A02
100
AcDbEntity
  8
ProjItem194
100
AcDbLine
 10
-2270.81
 20
1078.99
 30
0
 11
-2235.46
 21
1058.58
 31
0
  0
LINE
  5
B13
330
A02
100
AcDbEntity
  8
ProjItem194
100
AcDbLine
 10
-2235.46
 20
1050.41
 30
0
 11
-2235.46
 21
1058.58
 31
0
  0
LINE
  5
B14
330
A02
100
AcDbEntity
  8
ProjItem194
100
AcDbLine
 10
-2028.98
 20
1169.62
 30
0
 11
-2235.46
 21
1050.41
 31
0
  0
LINE
  5
B15
330
A02
100
AcDbEntity
  8
ProjItem194
100
AcDbLine
 10
-2064.34
 20
1198.2
 30
0
 11
-2028.98
 21
1177.79
 31
0
  0
LINE
  5
B16
330
A02
100
AcDbEntity
  8
ProjItem194
100
AcDbLine
 10
-2028.98
 20
1177.79
 30
0
 11
-2028.98
 21
1169.62
 31
0
  0
LINE
  5
B17
330
A02
100
AcDbEntity
  8
ProjItem194
100
AcDbLine
 10
-2235.46
 20
1058.58
 30
0
 11
-2028.98
 21
1177.79
 31
0
  0
LINE
  5
B18
330
A02
100
AcDbEntity
  8
ProjItem194
100
AcDbLine
 10
-3728.47
 20
-802.046
 30
0
 11
-3693.12
 21
-822.459
 31
0
  0
LINE
  5
B19
330
A02
100
AcDbEntity
  8
ProjItem194
100
AcDbLine
 10
-3919.73
 20
-912.47
 30
0
 11
-3884.38
 21
-932.882
 31
0
  0
LINE
  5
B1A
330
A02
100
AcDbEntity
  8
ProjItem194
100
AcDbLine
 10
-3693.12
 20
-822.459
 30
0
 11
-3884.38
 21
-932.882
 31
0
  0
LINE
  5
B1B
330
A02
100
AcDbEntity
  8
ProjItem194
100
AcDbLine
 10
-3919.73
 20
-920.635
 30
0
 11
-3884.38
 21
-941.047
 31
0
  0
LINE
  5
B1C
330
A02
100
AcDbEntity
  8
ProjItem194
100
AcDbLine
 10
-3884.38
 20
-932.882
 30
0
 11
-3884.38
 21
-941.047
 31
0
  0
LINE
  5
B1D
330
A02
100
AcDbEntity
  8
ProjItem194
100
AcDbLine
 10
-3884.38
 20
-941.047
 30
0
 11
-3693.12
 21
-830.624
 31
0
  0
LINE
  5
B1E
330
A02
100
AcDbEntity
  8
ProjItem194
100
AcDbLine
 10
-3693.12
 20
-830.624
 30
0
 11
-3693.12
 21
-822.459
 31
0
  0
ENDSEC
  0
SECTION
  2
OBJECTS
  0
DICTIONARY
  5
F000
330
0
100
AcDbDictionary
  3
ACAD_GROUP
350
F001
  0
DICTIONARY
  5
F001
330
F000
100
AcDbDictionary
  0
ENDSEC
  0
EOF