999
FreeCAD v0.21 33771 (Git)
  0
SECTION
  2
HEADER
  9
$ACADVER
  1
AC1014
  9
$ACADMAINTVER
 70
     9
  9
$DWGCODEPAGE
  3
ANSI_1252
  9
$TEXTSTYLE
  7
STANDARD
  9
$DIMSTYLE
  2
STANDARD
  9
$DIMTXSTY
  7
STANDARD
  9
$CMLSTYLE
  2
STANDARD
  9
$LUNITS
 70
2
  9
$INSUNITS
 70
4
  9
$PEXTMAX
 10
50
 20
50
 30
50
  9
$PEXTMIN
 10
0
 20
0
 30
0
  9
$HANDSEED
  5
FFFF
  0
ENDSEC
  0
SECTION
  2
CLASSES
  0
CLASS
  1
ACDBDICTIONARYWDFLT
  2
AcDbDictionaryWithDefault
  3
ObjectDBX Classes
 90
        0
280
     0
281
     0
  0
CLASS
  1
XRECORD
  2
AcDbXrecord
  3
ObjectDBX Classes
 90
        0
280
     0
281
     0
  0
CLASS
  1
LWPOLYLINE
  2
AcDbPolyline
  3
ObjectDBX Classes
 90
        0
280
     0
281
     1
  0
ENDSEC
  0
SECTION
  2
TABLES
  0
TABLE
  2
VPORT
  5
20
330
0
100
AcDbSymbolTable
 70
     1
  0
VPORT
  5
21
330
20
100
AcDbSymbolTableRecord
100
AcDbViewportTableRecord
  2
*ACTIVE
 70
     0
  0
ENDTAB
  0
TABLE
  2
LTYPE
  5
22
330
0
100
AcDbSymbolTable
 70
     1
  0
LTYPE
  5
23
330
21
100
AcDbSymbolTableRecord
100
AcDbLinetypeTableRecord
  2
BYBLOCK
 70
     0
  3

 72
    65
 73
     0
 40
0.0
  0
LTYPE
  5
24
330
21
100
AcDbSymbolTableRecord
100
AcDbLinetypeTableRecord
  2
BYLAYER
 70
     0
  3

 72
    65
 73
     0
 40
0.0
  0
LTYPE
  5
25
330
21
100
AcDbSymbolTableRecord
100
AcDbLinetypeTableRecord
  2
CONTINUOUS
 70
     0
  3
Solid line
 72
    65
 73
     0
 40
0.0
  0
ENDTAB
  0
TABLE
  2
LAYER
  5
A9F
330
0
100
AcDbSymbolTable
 70
5
  0
LAYER
  5
AA0
330
A9F
100
AcDbSymbolTableRecord
100
AcDbLayerTableRecord
  2
0
 70
   0
 62
   7
  6
CONTINUOUS
  0
LAYER
  5
AA1
330
A9F
100
AcDbSymbolTableRecord
100
AcDbLayerTableRecord
  2
ProjItem189
 70
    0
 62
    7
  6
CONTINUOUS
  0
LAYER
  5
AA2
330
A9F
100
AcDbSymbolTableRecord
100
AcDbLayerTableRecord
  2
ProjItem191
 70
    0
 62
    7
  6
CONTINUOUS
  0
LAYER
  5
AA3
330
A9F
100
AcDbSymbolTableRecord
100
AcDbLayerTableRecord
  2
ProjItem192
 70
    0
 62
    7
  6
CONTINUOUS
  0
LAYER
  5
AA4
330
A9F
100
AcDbSymbolTableRecord
100
AcDbLayerTableRecord
  2
ProjItem190
 70
    0
 62
    7
  6
CONTINUOUS
  0
ENDTAB
  0
TABLE
  2
STYLE
  5
70
330
0
100
AcDbSymbolTable
 70
     2
  0
STYLE
  5
71
330
70
100
AcDbSymbolTableRecord
100
AcDbTextStyleTableRecord
  2
STANDARD
 70
     0
 40
0.0
 41
1.0
 50
0.0
 71
     0
 42
2.5
  3
arial.ttf
  4

  0
STYLE
  5
72
330
70
100
AcDbSymbolTableRecord
100
AcDbTextStyleTableRecord
  2
ANNOTATIVE
 70
     0
 40
0.0
 41
1.0
 50
0.0
 71
     0
 42
2.5
  3
arial.ttf
  4

  0
ENDTAB
  0
TABLE
  2
VIEW
  5
73
330
0
100
AcDbSymbolTable
 70
     0
  0
ENDTAB
  0
TABLE
  2
UCS
  5
74
330
0
100
AcDbSymbolTable
 70
     0
  0
ENDTAB
  0
TABLE
  2
APPID
  5
75
330
0
100
AcDbSymbolTable
 70
     2
  0
APPID
  5
76
330
75
100
AcDbSymbolTableRecord
100
AcDbRegAppTableRecord
  2
ACAD
 70
     0
  0
APPID
  5
77
330
75
100
AcDbSymbolTableRecord
100
AcDbRegAppTableRecord
  2
ACADANNOTATIVE
 70
     0
  0
ENDTAB
  0
TABLE
  2
DIMSTYLE
  5
78
330
0
100
AcDbSymbolTable
 70
     2
  0
DIMSTYLE
105
79
330
78
100
AcDbSymbolTableRecord
100
AcDbDimStyleTableRecord
  2
STANDARD
 70
     0
  3

  4

  5

  6

  7

 40
0.0
 41
2.5
 42
0.625
 43
3.75
 44
1.25
 45
0.0
 46
0.0
 47
0.0
 48
0.0
140
2.5
141
2.5
142
0.0
143
0.03937007874016
144
1.0
145
0.0
146
1.0
147
0.625
 71
     0
 72
     0
 73
     0
 74
     0
 75
     0
 76
     0
 77
     1
 78
     8
170
     0
171
     3
172
     1
173
     0
174
     0
175
     0
176
     0
177
     0
178
     0
270
     2
271
     2
272
     2
273
     2
274
     3
340
71
275
     0
280
     0
281
     0
282
     0
283
     0
284
     8
285
     0
286
     0
287
     3
288
     0
  0
ENDTAB
  0
TABLE
  2
BLOCK_RECORD
  5
A01
330
0
100
AcDbSymbolTable
  70
5
  0
BLOCK_RECORD
  5
A02
330
A01
100
AcDbSymbolTableRecord
100
AcDbBlockTableRecord
  2
*MODEL_SPACE
  0
BLOCK_RECORD
  5
A03
330
A01
100
AcDbSymbolTableRecord
100
AcDbBlockTableRecord
  2
*PAPER_SPACE
  0
ENDTAB
  0
ENDSEC
  0
SECTION
  2
BLOCKS
  0
BLOCK
  5
A04
330
A02
100
AcDbEntity
  8
0
100
AcDbBlockBegin
  2
*MODEL_SPACE
 70
   0
 10
0
 20
0
 30
0
  3
*MODEL_SPACE
  1
 
  0
ENDBLK
  5
A05
330
A02
100
AcDbEntity
  8
0
100
AcDbBlockEnd
  0
BLOCK
  5
A06
330
A03
100
AcDbEntity
 67
1
  8
0
100
AcDbBlockBegin
  2
*PAPER_SPACE
 70
   0
 10
0
 20
0
 30
0
  3
*PAPER_SPACE
  1
 
  0
ENDBLK
  5
A07
330
A03
100
AcDbEntity
 67
    1
  8
0
100
AcDbBlockEnd
  0
ENDSEC
  0
SECTION
  2
ENTITIES
  0
LINE
  5
A08
330
A02
100
AcDbEntity
  8
ProjItem189
100
AcDbLine
 10
-362.577
 20
66.5799
 30
0
 11
-362.577
 21
255.673
 31
0
  0
LINE
  5
A09
330
A02
100
AcDbEntity
  8
ProjItem189
100
AcDbLine
 10
-312.577
 20
66.5799
 30
0
 11
-362.577
 21
66.5799
 31
0
  0
LINE
  5
A0A
330
A02
100
AcDbEntity
  8
ProjItem189
100
AcDbLine
 10
-362.577
 20
255.673
 30
0
 11
409.341
 21
510.88
 31
0
  0
LINE
  5
A0B
330
A02
100
AcDbEntity
  8
ProjItem189
100
AcDbLine
 10
409.341
 20
510.88
 30
0
 11
608.423
 21
510.88
 31
0
  0
LINE
  5
A0C
330
A02
100
AcDbEntity
  8
ProjItem189
100
AcDbLine
 10
608.423
 20
510.88
 30
0
 11
608.423
 21
490.88
 31
0
  0
LINE
  5
A0D
330
A02
100
AcDbEntity
  8
ProjItem189
100
AcDbLine
 10
-232.577
 20
-183.42
 30
0
 11
-297.577
 21
-183.42
 31
0
  0
LINE
  5
A0E
330
A02
100
AcDbEntity
  8
ProjItem189
100
AcDbLine
 10
-112.577
 20
66.5799
 30
0
 11
-232.577
 21
-183.42
 31
0
  0
LINE
  5
A0F
330
A02
100
AcDbEntity
  8
ProjItem189
100
AcDbLine
 10
608.423
 20
410.88
 30
0
 11
608.423
 21
260.88
 31
0
  0
LINE
  5
A10
330
A02
100
AcDbEntity
  8
ProjItem189
100
AcDbLine
 10
-112.577
 20
75.0174
 30
0
 11
-112.577
 21
66.5799
 31
0
  0
LINE
  5
A11
330
A02
100
AcDbEntity
  8
ProjItem189
100
AcDbLine
 10
608.423
 20
260.88
 30
0
 11
449.597
 21
260.88
 31
0
  0
LINE
  5
A12
330
A02
100
AcDbEntity
  8
ProjItem189
100
AcDbLine
 10
449.597
 20
260.88
 30
0
 11
-112.577
 21
75.0174
 31
0
  0
CIRCLE
  5
A13
330
A02
100
AcDbEntity
  8
ProjItem189
100
AcDbCircle
 10
468.423
 20
355.88
 40
7
  0
CIRCLE
  5
A14
330
A02
100
AcDbEntity
  8
ProjItem189
100
AcDbCircle
 10
568.423
 20
355.88
 40
7
  0
CIRCLE
  5
A15
330
A02
100
AcDbEntity
  8
ProjItem189
100
AcDbCircle
 10
493.423
 20
290.978
 40
7
  0
CIRCLE
  5
A16
330
A02
100
AcDbEntity
  8
ProjItem189
100
AcDbCircle
 10
553.423
 20
290.978
 40
7
  0
LINE
  5
A17
330
A02
100
AcDbEntity
  8
ProjItem189
100
AcDbLine
 10
-312.577
 20
-183.42
 30
0
 11
-312.577
 21
66.5799
 31
0
  0
LINE
  5
A18
330
A02
100
AcDbEntity
  8
ProjItem189
100
AcDbLine
 10
-312.577
 20
66.5799
 30
0
 11
-297.577
 21
66.5799
 31
0
  0
LINE
  5
A19
330
A02
100
AcDbEntity
  8
ProjItem189
100
AcDbLine
 10
-297.577
 20
-183.42
 30
0
 11
-297.577
 21
66.5799
 31
0
  0
LINE
  5
A1A
330
A02
100
AcDbEntity
  8
ProjItem189
100
AcDbLine
 10
-312.577
 20
-183.42
 30
0
 11
-297.577
 21
-183.42
 31
0
  0
LINE
  5
A1B
330
A02
100
AcDbEntity
  8
ProjItem189
100
AcDbLine
 10
608.423
 20
410.88
 30
0
 11
608.423
 21
490.88
 31
0
  0
LINE
  5
A1C
330
A02
100
AcDbEntity
  8
ProjItem189
100
AcDbLine
 10
-342.577
 20
208.447
 30
0
 11
202.678
 21
208.447
 31
0
  0
LINE
  5
A1D
330
A02
100
AcDbEntity
  8
ProjItem189
100
AcDbLine
 10
-342.577
 20
198.447
 30
0
 11
-342.577
 21
208.447
 31
0
  0
LINE
  5
A1E
330
A02
100
AcDbEntity
  8
ProjItem189
100
AcDbLine
 10
202.678
 20
208.447
 30
0
 11
202.678
 21
198.447
 31
0
  0
LINE
  5
A1F
330
A02
100
AcDbEntity
  8
ProjItem189
100
AcDbLine
 10
202.678
 20
198.447
 30
0
 11
-342.577
 21
198.447
 31
0
  0
LINE
  5
A20
330
A02
100
AcDbEntity
  8
ProjItem189
100
AcDbLine
 10
573.423
 20
380.313
 30
0
 11
573.423
 21
390.313
 31
0
  0
LINE
  5
A21
330
A02
100
AcDbEntity
  8
ProjItem189
100
AcDbLine
 10
207.511
 20
380.313
 30
0
 11
573.423
 21
380.313
 31
0
  0
LINE
  5
A22
330
A02
100
AcDbEntity
  8
ProjItem189
100
AcDbLine
 10
573.423
 20
390.313
 30
0
 11
207.511
 21
390.313
 31
0
  0
LINE
  5
A23
330
A02
100
AcDbEntity
  8
ProjItem189
100
AcDbLine
 10
207.511
 20
390.313
 30
0
 11
207.511
 21
380.313
 31
0
  0
LINE
  5
A24
330
A02
100
AcDbEntity
  8
ProjItem189
100
AcDbLine
 10
608.423
 20
490.88
 30
0
 11
620.423
 21
490.88
 31
0
  0
LINE
  5
A25
330
A02
100
AcDbEntity
  8
ProjItem189
100
AcDbLine
 10
620.423
 20
410.88
 30
0
 11
620.423
 21
490.88
 31
0
  0
LINE
  5
A26
330
A02
100
AcDbEntity
  8
ProjItem189
100
AcDbLine
 10
608.423
 20
410.88
 30
0
 11
620.423
 21
410.88
 31
0
  0
LINE
  5
A27
330
A02
100
AcDbEntity
  8
ProjItem191
100
AcDbLine
 10
757.961
 20
66.5799
 30
0
 11
742.961
 21
66.5799
 31
0
  0
LINE
  5
A28
330
A02
100
AcDbEntity
  8
ProjItem191
100
AcDbLine
 10
757.961
 20
255.673
 30
0
 11
742.961
 21
255.673
 31
0
  0
LINE
  5
A29
330
A02
100
AcDbEntity
  8
ProjItem191
100
AcDbLine
 10
757.961
 20
66.5799
 30
0
 11
757.961
 21
255.673
 31
0
  0
LINE
  5
A2A
330
A02
100
AcDbEntity
  8
ProjItem191
100
AcDbLine
 10
742.961
 20
66.5799
 30
0
 11
742.961
 21
255.673
 31
0
  0
LINE
  5
A2B
330
A02
100
AcDbEntity
  8
ProjItem191
100
AcDbLine
 10
757.961
 20
510.88
 30
0
 11
742.961
 21
510.88
 31
0
  0
LINE
  5
A2C
330
A02
100
AcDbEntity
  8
ProjItem191
100
AcDbLine
 10
757.961
 20
255.673
 30
0
 11
757.961
 21
510.88
 31
0
  0
LINE
  5
A2D
330
A02
100
AcDbEntity
  8
ProjItem191
100
AcDbLine
 10
742.961
 20
255.673
 30
0
 11
742.961
 21
510.88
 31
0
  0
LINE
  5
A2E
330
A02
100
AcDbEntity
  8
ProjItem191
100
AcDbLine
 10
742.961
 20
66.5799
 30
0
 11
742.961
 21
-183.42
 31
0
  0
LINE
  5
A2F
330
A02
100
AcDbEntity
  8
ProjItem191
100
AcDbLine
 10
742.961
 20
-183.42
 30
0
 11
837.961
 21
-183.42
 31
0
  0
LINE
  5
A30
330
A02
100
AcDbEntity
  8
ProjItem191
100
AcDbLine
 10
837.961
 20
-183.42
 30
0
 11
837.961
 21
66.5799
 31
0
  0
LINE
  5
A31
330
A02
100
AcDbEntity
  8
ProjItem191
100
AcDbLine
 10
837.961
 20
66.5799
 30
0
 11
757.961
 21
66.5799
 31
0
  0
CIRCLE
  5
A32
330
A02
100
AcDbEntity
  8
ProjItem191
100
AcDbCircle
 10
797.961
 20
-83.4201
 40
7
  0
CIRCLE
  5
A33
330
A02
100
AcDbEntity
  8
ProjItem191
100
AcDbCircle
 10
797.961
 20
-143.42
 40
7
  0
LINE
  5
A34
330
A02
100
AcDbEntity
  8
ProjItem191
100
AcDbLine
 10
917.961
 20
490.88
 30
0
 11
757.961
 21
490.88
 31
0
  0
LINE
  5
A35
330
A02
100
AcDbEntity
  8
ProjItem191
100
AcDbLine
 10
917.961
 20
410.88
 30
0
 11
917.961
 21
490.88
 31
0
  0
LINE
  5
A36
330
A02
100
AcDbEntity
  8
ProjItem191
100
AcDbLine
 10
757.961
 20
410.88
 30
0
 11
917.961
 21
410.88
 31
0
  0
CIRCLE
  5
A37
330
A02
100
AcDbEntity
  8
ProjItem191
100
AcDbCircle
 10
877.961
 20
450.88
 40
7
  0
CIRCLE
  5
A38
330
A02
100
AcDbEntity
  8
ProjItem191
100
AcDbCircle
 10
797.961
 20
450.88
 40
7
  0
LINE
  5
A39
330
A02
100
AcDbEntity
  8
ProjItem191
100
AcDbLine
 10
757.961
 20
208.447
 30
0
 11
807.961
 21
208.447
 31
0
  0
LINE
  5
A3A
330
A02
100
AcDbEntity
  8
ProjItem191
100
AcDbLine
 10
757.961
 20
198.447
 30
0
 11
807.961
 21
198.447
 31
0
  0
LINE
  5
A3B
330
A02
100
AcDbEntity
  8
ProjItem191
100
AcDbLine
 10
807.961
 20
198.447
 30
0
 11
807.961
 21
208.447
 31
0
  0
LINE
  5
A3C
330
A02
100
AcDbEntity
  8
ProjItem191
100
AcDbLine
 10
757.961
 20
380.313
 30
0
 11
807.961
 21
380.313
 31
0
  0
LINE
  5
A3D
330
A02
100
AcDbEntity
  8
ProjItem191
100
AcDbLine
 10
757.961
 20
390.313
 30
0
 11
807.961
 21
390.313
 31
0
  0
LINE
  5
A3E
330
A02
100
AcDbEntity
  8
ProjItem191
100
AcDbLine
 10
807.961
 20
390.313
 30
0
 11
807.961
 21
380.313
 31
0
  0
LINE
  5
A3F
330
A02
100
AcDbEntity
  8
ProjItem192
100
AcDbLine
 10
-362.577
 20
-320.958
 30
0
 11
-362.577
 21
-305.958
 31
0
  0
LINE
  5
A40
330
A02
100
AcDbEntity
  8
ProjItem192
100
AcDbLine
 10
409.341
 20
-320.958
 30
0
 11
409.341
 21
-305.958
 31
0
  0
LINE
  5
A41
330
A02
100
AcDbEntity
  8
ProjItem192
100
AcDbLine
 10
-362.577
 20
-320.958
 30
0
 11
409.341
 21
-320.958
 31
0
  0
LINE
  5
A42
330
A02
100
AcDbEntity
  8
ProjItem192
100
AcDbLine
 10
-362.577
 20
-305.958
 30
0
 11
409.341
 21
-305.958
 31
0
  0
LINE
  5
A43
330
A02
100
AcDbEntity
  8
ProjItem192
100
AcDbLine
 10
409.341
 20
-320.958
 30
0
 11
608.423
 21
-320.958
 31
0
  0
LINE
  5
A44
330
A02
100
AcDbEntity
  8
ProjItem192
100
AcDbLine
 10
409.341
 20
-305.958
 30
0
 11
608.423
 21
-305.958
 31
0
  0
LINE
  5
A45
330
A02
100
AcDbEntity
  8
ProjItem192
100
AcDbLine
 10
608.423
 20
-305.958
 30
0
 11
620.423
 21
-305.958
 31
0
  0
LINE
  5
A46
330
A02
100
AcDbEntity
  8
ProjItem192
100
AcDbLine
 10
-312.577
 20
-400.958
 30
0
 11
-312.577
 21
-370.958
 31
0
  0
LINE
  5
A47
330
A02
100
AcDbEntity
  8
ProjItem192
100
AcDbLine
 10
608.423
 20
-320.958
 30
0
 11
608.423
 21
-305.958
 31
0
  0
LINE
  5
A48
330
A02
100
AcDbEntity
  8
ProjItem192
100
AcDbLine
 10
-312.577
 20
-400.958
 30
0
 11
-297.577
 21
-400.958
 31
0
  0
LINE
  5
A49
330
A02
100
AcDbEntity
  8
ProjItem192
100
AcDbLine
 10
-297.577
 20
-400.958
 30
0
 11
-297.577
 21
-370.958
 31
0
  0
LINE
  5
A4A
330
A02
100
AcDbEntity
  8
ProjItem192
100
AcDbLine
 10
608.423
 20
-480.958
 30
0
 11
608.423
 21
-320.958
 31
0
  0
LINE
  5
A4B
330
A02
100
AcDbEntity
  8
ProjItem192
100
AcDbLine
 10
-342.577
 20
-320.958
 30
0
 11
-342.577
 21
-370.958
 31
0
  0
LINE
  5
A4C
330
A02
100
AcDbEntity
  8
ProjItem192
100
AcDbLine
 10
202.678
 20
-320.958
 30
0
 11
202.678
 21
-370.958
 31
0
  0
LINE
  5
A4D
330
A02
100
AcDbEntity
  8
ProjItem192
100
AcDbLine
 10
-342.577
 20
-370.958
 30
0
 11
202.678
 21
-370.958
 31
0
  0
LINE
  5
A4E
330
A02
100
AcDbEntity
  8
ProjItem192
100
AcDbLine
 10
573.423
 20
-320.958
 30
0
 11
573.423
 21
-370.958
 31
0
  0
LINE
  5
A4F
330
A02
100
AcDbEntity
  8
ProjItem192
100
AcDbLine
 10
207.511
 20
-320.958
 30
0
 11
207.511
 21
-370.958
 31
0
  0
LINE
  5
A50
330
A02
100
AcDbEntity
  8
ProjItem192
100
AcDbLine
 10
573.423
 20
-370.958
 30
0
 11
207.511
 21
-370.958
 31
0
  0
LINE
  5
A51
330
A02
100
AcDbEntity
  8
ProjItem192
100
AcDbLine
 10
608.423
 20
-480.958
 30
0
 11
620.423
 21
-480.958
 31
0
  0
LINE
  5
A52
330
A02
100
AcDbEntity
  8
ProjItem192
100
AcDbLine
 10
620.423
 20
-480.958
 30
0
 11
620.423
 21
-305.958
 31
0
  0
LINE
  5
A53
330
A02
100
AcDbEntity
  8
ProjItem190
100
AcDbLine
 10
-1132.02
 20
-268.965
 30
0
 11
-1121.42
 21
-262.841
 31
0
  0
LINE
  5
A54
330
A02
100
AcDbEntity
  8
ProjItem190
100
AcDbLine
 10
-1132.02
 20
-423.359
 30
0
 11
-1132.02
 21
-356.515
 31
0
  0
LINE
  5
A55
330
A02
100
AcDbEntity
  8
ProjItem190
100
AcDbLine
 10
-1132.02
 20
-323.855
 30
0
 11
-1132.02
 21
-268.965
 31
0
  0
LINE
  5
A56
330
A02
100
AcDbEntity
  8
ProjItem190
100
AcDbLine
 10
-1096.67
 20
-443.771
 30
0
 11
-1132.02
 21
-423.359
 31
0
  0
LINE
  5
A57
330
A02
100
AcDbEntity
  8
ProjItem190
100
AcDbLine
 10
-586.193
 20
-375.724
 30
0
 11
-575.587
 21
-369.6
 31
0
  0
LINE
  5
A58
330
A02
100
AcDbEntity
  8
ProjItem190
100
AcDbLine
 10
-1132.02
 20
-268.965
 30
0
 11
-586.193
 21
-375.724
 31
0
  0
LINE
  5
A59
330
A02
100
AcDbEntity
  8
ProjItem190
100
AcDbLine
 10
-1121.42
 20
-262.841
 30
0
 11
-575.587
 21
-369.6
 31
0
  0
LINE
  5
A5A
330
A02
100
AcDbEntity
  8
ProjItem190
100
AcDbLine
 10
-1086.06
 20
-449.895
 30
0
 11
-1096.67
 21
-443.771
 31
0
  0
LINE
  5
A5B
330
A02
100
AcDbEntity
  8
ProjItem190
100
AcDbLine
 10
-586.193
 20
-375.724
 30
0
 11
-445.421
 21
-456.999
 31
0
  0
LINE
  5
A5C
330
A02
100
AcDbEntity
  8
ProjItem190
100
AcDbLine
 10
-1086.06
 20
-449.895
 30
0
 11
-1086.06
 21
-654.019
 31
0
  0
LINE
  5
A5D
330
A02
100
AcDbEntity
  8
ProjItem190
100
AcDbLine
 10
-445.421
 20
-456.999
 30
0
 11
-445.421
 21
-473.329
 31
0
  0
LINE
  5
A5E
330
A02
100
AcDbEntity
  8
ProjItem190
100
AcDbLine
 10
-1040.1
 20
-680.555
 30
0
 11
-1086.06
 21
-654.019
 31
0
  0
LINE
  5
A5F
330
A02
100
AcDbEntity
  8
ProjItem190
100
AcDbLine
 10
-955.245
 20
-525.421
 30
0
 11
-1040.1
 21
-680.555
 31
0
  0
LINE
  5
A60
330
A02
100
AcDbEntity
  8
ProjItem190
100
AcDbLine
 10
-445.421
 20
-548.446
 30
0
 11
-445.421
 21
-661.123
 31
0
  0
LINE
  5
A61
330
A02
100
AcDbEntity
  8
ProjItem190
100
AcDbLine
 10
-955.245
 20
-518.532
 30
0
 11
-955.245
 21
-525.421
 31
0
  0
LINE
  5
A62
330
A02
100
AcDbEntity
  8
ProjItem190
100
AcDbLine
 10
-445.421
 20
-661.123
 30
0
 11
-543.002
 21
-604.784
 31
0
  0
LINE
  5
A63
330
A02
100
AcDbEntity
  8
ProjItem190
100
AcDbLine
 10
-558.558
 20
-596.12
 30
0
 11
-752.61
 21
-558.165
 31
0
  0
LINE
  5
A64
330
A02
100
AcDbEntity
  8
ProjItem190
100
AcDbLine
 10
-798.197
 20
-549.249
 30
0
 11
-955.245
 21
-518.532
 31
0
  0
LINE
  5
A65
330
A02
100
AcDbEntity
  8
ProjItem190
100
AcDbLine
 10
-1117.88
 20
-315.69
 30
0
 11
-732.327
 21
-538.289
 31
0
  0
LINE
  5
A66
330
A02
100
AcDbEntity
  8
ProjItem190
100
AcDbLine
 10
-732.327
 20
-538.289
 30
0
 11
-732.327
 21
-546.454
 31
0
  0
LINE
  5
A67
330
A02
100
AcDbEntity
  8
ProjItem190
100
AcDbLine
 10
-516.532
 20
-514.385
 30
0
 11
-728.909
 21
-391.769
 31
0
  0
ELLIPSE
  5
A68
330
A02
100
AcDbEntity
  8
ProjItem190
100
AcDbEllipse
 10
-473.705
 20
-567.226
 30
0
 11
3.5
 21
-6.06218
 31
0
 40
0.57735
 41
-0
 42
-4.4045
  0
ELLIPSE
  5
A69
330
A02
100
AcDbEntity
  8
ProjItem190
100
AcDbEllipse
 10
-473.705
 20
-567.226
 30
0
 11
3.5
 21
-6.06218
 31
0
 40
0.57735
 41
-1.87868
 42
-0
  0
ELLIPSE
  5
A6A
330
A02
100
AcDbEntity
  8
ProjItem190
100
AcDbEllipse
 10
-526.738
 20
-589.6
 30
0
 11
-3.5
 21
6.06218
 31
0
 40
0.57735
 41
2.37024
 42
3.14159
  0
ELLIPSE
  5
A6B
330
A02
100
AcDbEntity
  8
ProjItem190
100
AcDbEllipse
 10
-526.738
 20
-589.6
 30
0
 11
-3.5
 21
6.06218
 31
0
 40
0.57735
 41
3.14159
 42
3.91294
  0
ELLIPSE
  5
A6C
330
A02
100
AcDbEntity
  8
ProjItem190
100
AcDbEllipse
 10
-484.312
 20
-614.094
 30
0
 11
-3.5
 21
6.06218
 31
0
 40
0.57735
 41
0.785398
 42
3.14159
  0
ELLIPSE
  5
A6D
330
A02
100
AcDbEntity
  8
ProjItem190
100
AcDbEllipse
 10
-484.312
 20
-614.094
 30
0
 11
-3.5
 21
6.06218
 31
0
 40
0.57735
 41
3.14159
 42
8.88178e-16
  0
ELLIPSE
  5
A6E
330
A02
100
AcDbEntity
  8
ProjItem190
100
AcDbEllipse
 10
-484.312
 20
-614.094
 30
0
 11
-3.5
 21
6.06218
 31
0
 40
0.57735
 41
8.88178e-16
 42
0.785398
  0
LINE
  5
A6F
330
A02
100
AcDbEntity
  8
ProjItem190
100
AcDbLine
 10
-575.587
 20
-369.6
 30
0
 11
-434.814
 21
-450.875
 31
0
  0
LINE
  5
A70
330
A02
100
AcDbEntity
  8
ProjItem190
100
AcDbLine
 10
-434.814
 20
-450.875
 30
0
 11
-434.814
 21
-467.205
 31
0
  0
LINE
  5
A71
330
A02
100
AcDbEntity
  8
ProjItem190
100
AcDbLine
 10
-945.285
 20
-520.48
 30
0
 11
-1029.49
 21
-674.432
 31
0
  0
LINE
  5
A72
330
A02
100
AcDbEntity
  8
ProjItem190
100
AcDbLine
 10
-434.814
 20
-467.205
 30
0
 11
-426.329
 21
-472.104
 31
0
  0
LINE
  5
A73
330
A02
100
AcDbEntity
  8
ProjItem190
100
AcDbLine
 10
-426.329
 20
-472.104
 30
0
 11
-426.329
 21
-537.424
 31
0
  0
LINE
  5
A74
330
A02
100
AcDbEntity
  8
ProjItem190
100
AcDbLine
 10
-434.814
 20
-542.322
 30
0
 11
-434.814
 21
-654.999
 31
0
  0
LINE
  5
A75
330
A02
100
AcDbEntity
  8
ProjItem190
100
AcDbLine
 10
-1153.23
 20
-680.555
 30
0
 11
-1153.23
 21
-476.431
 31
0
  0
LINE
  5
A76
330
A02
100
AcDbEntity
  8
ProjItem190
100
AcDbLine
 10
-1153.23
 20
-476.431
 30
0
 11
-1096.67
 21
-443.771
 31
0
  0
LINE
  5
A77
330
A02
100
AcDbEntity
  8
ProjItem190
100
AcDbLine
 10
-445.421
 20
-456.999
 30
0
 11
-434.814
 21
-450.875
 31
0
  0
LINE
  5
A78
330
A02
100
AcDbEntity
  8
ProjItem190
100
AcDbLine
 10
-1153.23
 20
-476.431
 30
0
 11
-1142.63
 21
-482.555
 31
0
  0
LINE
  5
A79
330
A02
100
AcDbEntity
  8
ProjItem190
100
AcDbLine
 10
-1142.63
 20
-482.555
 30
0
 11
-1086.06
 21
-449.895
 31
0
  0
LINE
  5
A7A
330
A02
100
AcDbEntity
  8
ProjItem190
100
AcDbLine
 10
-1086.06
 20
-654.019
 30
0
 11
-1142.63
 21
-686.679
 31
0
  0
LINE
  5
A7B
330
A02
100
AcDbEntity
  8
ProjItem190
100
AcDbLine
 10
-1142.63
 20
-686.679
 30
0
 11
-1142.63
 21
-482.555
 31
0
  0
ELLIPSE
  5
A7C
330
A02
100
AcDbEntity
  8
ProjItem190
100
AcDbEllipse
 10
-1114.34
 20
-588.699
 30
0
 11
3.5
 21
6.06218
 31
0
 40
0.57735
 41
-8.88178e-16
 42
-5.49779
  0
ELLIPSE
  5
A7D
330
A02
100
AcDbEntity
  8
ProjItem190
100
AcDbEllipse
 10
-1114.34
 20
-588.699
 30
0
 11
3.5
 21
6.06218
 31
0
 40
0.57735
 41
-3.14159
 42
-1.11022e-15
  0
ELLIPSE
  5
A7E
330
A02
100
AcDbEntity
  8
ProjItem190
100
AcDbEllipse
 10
-1114.34
 20
-588.699
 30
0
 11
3.5
 21
6.06218
 31
0
 40
0.57735
 41
-5.49779
 42
-3.14159
  0
ELLIPSE
  5
A7F
330
A02
100
AcDbEntity
  8
ProjItem190
100
AcDbEllipse
 10
-1114.34
 20
-637.689
 30
0
 11
3.5
 21
6.06218
 31
0
 40
0.57735
 41
-8.88178e-16
 42
-5.49779
  0
ELLIPSE
  5
A80
330
A02
100
AcDbEntity
  8
ProjItem190
100
AcDbEllipse
 10
-1114.34
 20
-637.689
 30
0
 11
3.5
 21
6.06218
 31
0
 40
0.57735
 41
-3.14159
 42
-1.11022e-15
  0
ELLIPSE
  5
A81
330
A02
100
AcDbEntity
  8
ProjItem190
100
AcDbEllipse
 10
-1114.34
 20
-637.689
 30
0
 11
3.5
 21
6.06218
 31
0
 40
0.57735
 41
-5.49779
 42
-3.14159
  0
LINE
  5
A82
330
A02
100
AcDbEntity
  8
ProjItem190
100
AcDbLine
 10
-445.421
 20
-473.329
 30
0
 11
-434.814
 21
-467.205
 31
0
  0
LINE
  5
A83
330
A02
100
AcDbEntity
  8
ProjItem190
100
AcDbLine
 10
-1029.49
 20
-674.432
 30
0
 11
-1040.1
 21
-680.555
 31
0
  0
LINE
  5
A84
330
A02
100
AcDbEntity
  8
ProjItem190
100
AcDbLine
 10
-1153.23
 20
-680.555
 30
0
 11
-1142.63
 21
-686.679
 31
0
  0
LINE
  5
A85
330
A02
100
AcDbEntity
  8
ProjItem190
100
AcDbLine
 10
-558.558
 20
-538.648
 30
0
 11
-445.421
 21
-473.329
 31
0
  0
LINE
  5
A86
330
A02
100
AcDbEntity
  8
ProjItem190
100
AcDbLine
 10
-558.558
 20
-603.968
 30
0
 11
-558.558
 21
-538.648
 31
0
  0
LINE
  5
A87
330
A02
100
AcDbEntity
  8
ProjItem190
100
AcDbLine
 10
-955.245
 20
-525.421
 30
0
 11
-946.332
 21
-520.275
 31
0
  0
LINE
  5
A88
330
A02
100
AcDbEntity
  8
ProjItem190
100
AcDbLine
 10
-445.421
 20
-661.123
 30
0
 11
-434.814
 21
-654.999
 31
0
  0
LINE
  5
A89
330
A02
100
AcDbEntity
  8
ProjItem190
100
AcDbLine
 10
-1117.88
 20
-315.69
 30
0
 11
-1153.23
 21
-336.103
 31
0
  0
LINE
  5
A8A
330
A02
100
AcDbEntity
  8
ProjItem190
100
AcDbLine
 10
-732.327
 20
-538.289
 30
0
 11
-767.682
 21
-558.702
 31
0
  0
LINE
  5
A8B
330
A02
100
AcDbEntity
  8
ProjItem190
100
AcDbLine
 10
-1153.23
 20
-336.103
 30
0
 11
-767.682
 21
-558.702
 31
0
  0
LINE
  5
A8C
330
A02
100
AcDbEntity
  8
ProjItem190
100
AcDbLine
 10
-1153.23
 20
-344.268
 30
0
 11
-1153.23
 21
-336.103
 31
0
  0
LINE
  5
A8D
330
A02
100
AcDbEntity
  8
ProjItem190
100
AcDbLine
 10
-732.327
 20
-546.454
 30
0
 11
-767.682
 21
-566.867
 31
0
  0
LINE
  5
A8E
330
A02
100
AcDbEntity
  8
ProjItem190
100
AcDbLine
 10
-767.682
 20
-558.702
 30
0
 11
-767.682
 21
-566.867
 31
0
  0
LINE
  5
A8F
330
A02
100
AcDbEntity
  8
ProjItem190
100
AcDbLine
 10
-767.682
 20
-566.867
 30
0
 11
-1153.23
 21
-344.268
 31
0
  0
LINE
  5
A90
330
A02
100
AcDbEntity
  8
ProjItem190
100
AcDbLine
 10
-764.264
 20
-420.346
 30
0
 11
-558.558
 21
-539.111
 31
0
  0
LINE
  5
A91
330
A02
100
AcDbEntity
  8
ProjItem190
100
AcDbLine
 10
-728.909
 20
-391.769
 30
0
 11
-764.264
 21
-412.181
 31
0
  0
LINE
  5
A92
330
A02
100
AcDbEntity
  8
ProjItem190
100
AcDbLine
 10
-551.888
 20
-534.797
 30
0
 11
-764.264
 21
-412.181
 31
0
  0
LINE
  5
A93
330
A02
100
AcDbEntity
  8
ProjItem190
100
AcDbLine
 10
-764.264
 20
-412.181
 30
0
 11
-764.264
 21
-420.346
 31
0
  0
LINE
  5
A94
330
A02
100
AcDbEntity
  8
ProjItem190
100
AcDbLine
 10
-558.558
 20
-538.648
 30
0
 11
-550.073
 21
-543.547
 31
0
  0
LINE
  5
A95
330
A02
100
AcDbEntity
  8
ProjItem190
100
AcDbLine
 10
-550.073
 20
-543.547
 30
0
 11
-426.329
 21
-472.104
 31
0
  0
LINE
  5
A96
330
A02
100
AcDbEntity
  8
ProjItem190
100
AcDbLine
 10
-426.329
 20
-537.424
 30
0
 11
-550.073
 21
-608.867
 31
0
  0
LINE
  5
A97
330
A02
100
AcDbEntity
  8
ProjItem190
100
AcDbLine
 10
-550.073
 20
-608.867
 30
0
 11
-550.073
 21
-543.547
 31
0
  0
ELLIPSE
  5
A98
330
A02
100
AcDbEntity
  8
ProjItem190
100
AcDbEllipse
 10
-521.789
 20
-559.877
 30
0
 11
-3.5
 21
-6.06218
 31
0
 40
0.57735
 41
0.785398
 42
3.14159
  0
ELLIPSE
  5
A99
330
A02
100
AcDbEntity
  8
ProjItem190
100
AcDbEllipse
 10
-521.789
 20
-559.877
 30
0
 11
-3.5
 21
-6.06218
 31
0
 40
0.57735
 41
3.14159
 42
6.28319
  0
ELLIPSE
  5
A9A
330
A02
100
AcDbEntity
  8
ProjItem190
100
AcDbEllipse
 10
-521.789
 20
-559.877
 30
0
 11
-3.5
 21
-6.06218
 31
0
 40
0.57735
 41
-8.88178e-16
 42
0.785398
  0
ELLIPSE
  5
A9B
330
A02
100
AcDbEntity
  8
ProjItem190
100
AcDbEllipse
 10
-465.22
 20
-527.217
 30
0
 11
-3.5
 21
-6.06218
 31
0
 40
0.57735
 41
0.785398
 42
3.14159
  0
ELLIPSE
  5
A9C
330
A02
100
AcDbEntity
  8
ProjItem190
100
AcDbEllipse
 10
-465.22
 20
-527.217
 30
0
 11
-3.5
 21
-6.06218
 31
0
 40
0.57735
 41
3.14159
 42
6.28319
  0
ELLIPSE
  5
A9D
330
A02
100
AcDbEntity
  8
ProjItem190
100
AcDbEllipse
 10
-465.22
 20
-527.217
 30
0
 11
-3.5
 21
-6.06218
 31
0
 40
0.57735
 41
-8.88178e-16
 42
0.785398
  0
LINE
  5
A9E
330
A02
100
AcDbEntity
  8
ProjItem190
100
AcDbLine
 10
-558.558
 20
-603.968
 30
0
 11
-550.073
 21
-608.867
 31
0
  0
ENDSEC
  0
SECTION
  2
OBJECTS
  0
DICTIONARY
  5
F000
330
0
100
AcDbDictionary
  3
ACAD_GROUP
350
F001
  0
DICTIONARY
  5
F001
330
F000
100
AcDbDictionary
  0
ENDSEC
  0
EOF