999
FreeCAD v0.21 33771 (Git)
  0
SECTION
  2
HEADER
  9
$ACADVER
  1
AC1014
  9
$ACADMAINTVER
 70
     9
  9
$DWGCODEPAGE
  3
ANSI_1252
  9
$TEXTSTYLE
  7
STANDARD
  9
$DIMSTYLE
  2
STANDARD
  9
$DIMTXSTY
  7
STANDARD
  9
$CMLSTYLE
  2
STANDARD
  9
$LUNITS
 70
2
  9
$INSUNITS
 70
4
  9
$PEXTMAX
 10
50
 20
50
 30
50
  9
$PEXTMIN
 10
0
 20
0
 30
0
  9
$HANDSEED
  5
FFFF
  0
ENDSEC
  0
SECTION
  2
CLASSES
  0
CLASS
  1
ACDBDICTIONARYWDFLT
  2
AcDbDictionaryWithDefault
  3
ObjectDBX Classes
 90
        0
280
     0
281
     0
  0
CLASS
  1
XRECORD
  2
AcDbXrecord
  3
ObjectDBX Classes
 90
        0
280
     0
281
     0
  0
CLASS
  1
LWPOLYLINE
  2
AcDbPolyline
  3
ObjectDBX Classes
 90
        0
280
     0
281
     1
  0
ENDSEC
  0
SECTION
  2
TABLES
  0
TABLE
  2
VPORT
  5
20
330
0
100
AcDbSymbolTable
 70
     1
  0
VPORT
  5
21
330
20
100
AcDbSymbolTableRecord
100
AcDbViewportTableRecord
  2
*ACTIVE
 70
     0
  0
ENDTAB
  0
TABLE
  2
LTYPE
  5
22
330
0
100
AcDbSymbolTable
 70
     1
  0
LTYPE
  5
23
330
21
100
AcDbSymbolTableRecord
100
AcDbLinetypeTableRecord
  2
BYBLOCK
 70
     0
  3

 72
    65
 73
     0
 40
0.0
  0
LTYPE
  5
24
330
21
100
AcDbSymbolTableRecord
100
AcDbLinetypeTableRecord
  2
BYLAYER
 70
     0
  3

 72
    65
 73
     0
 40
0.0
  0
LTYPE
  5
25
330
21
100
AcDbSymbolTableRecord
100
AcDbLinetypeTableRecord
  2
CONTINUOUS
 70
     0
  3
Solid line
 72
    65
 73
     0
 40
0.0
  0
ENDTAB
  0
TABLE
  2
LAYER
  5
AA7
330
0
100
AcDbSymbolTable
 70
5
  0
LAYER
  5
AA8
330
AA7
100
AcDbSymbolTableRecord
100
AcDbLayerTableRecord
  2
0
 70
   0
 62
   7
  6
CONTINUOUS
  0
LAYER
  5
AA9
330
AA7
100
AcDbSymbolTableRecord
100
AcDbLayerTableRecord
  2
ProjItem185
 70
    0
 62
    7
  6
CONTINUOUS
  0
LAYER
  5
AAA
330
AA7
100
AcDbSymbolTableRecord
100
AcDbLayerTableRecord
  2
ProjItem187
 70
    0
 62
    7
  6
CONTINUOUS
  0
LAYER
  5
AAB
330
AA7
100
AcDbSymbolTableRecord
100
AcDbLayerTableRecord
  2
ProjItem188
 70
    0
 62
    7
  6
CONTINUOUS
  0
LAYER
  5
AAC
330
AA7
100
AcDbSymbolTableRecord
100
AcDbLayerTableRecord
  2
ProjItem186
 70
    0
 62
    7
  6
CONTINUOUS
  0
ENDTAB
  0
TABLE
  2
STYLE
  5
70
330
0
100
AcDbSymbolTable
 70
     2
  0
STYLE
  5
71
330
70
100
AcDbSymbolTableRecord
100
AcDbTextStyleTableRecord
  2
STANDARD
 70
     0
 40
0.0
 41
1.0
 50
0.0
 71
     0
 42
2.5
  3
arial.ttf
  4

  0
STYLE
  5
72
330
70
100
AcDbSymbolTableRecord
100
AcDbTextStyleTableRecord
  2
ANNOTATIVE
 70
     0
 40
0.0
 41
1.0
 50
0.0
 71
     0
 42
2.5
  3
arial.ttf
  4

  0
ENDTAB
  0
TABLE
  2
VIEW
  5
73
330
0
100
AcDbSymbolTable
 70
     0
  0
ENDTAB
  0
TABLE
  2
UCS
  5
74
330
0
100
AcDbSymbolTable
 70
     0
  0
ENDTAB
  0
TABLE
  2
APPID
  5
75
330
0
100
AcDbSymbolTable
 70
     2
  0
APPID
  5
76
330
75
100
AcDbSymbolTableRecord
100
AcDbRegAppTableRecord
  2
ACAD
 70
     0
  0
APPID
  5
77
330
75
100
AcDbSymbolTableRecord
100
AcDbRegAppTableRecord
  2
ACADANNOTATIVE
 70
     0
  0
ENDTAB
  0
TABLE
  2
DIMSTYLE
  5
78
330
0
100
AcDbSymbolTable
 70
     2
  0
DIMSTYLE
105
79
330
78
100
AcDbSymbolTableRecord
100
AcDbDimStyleTableRecord
  2
STANDARD
 70
     0
  3

  4

  5

  6

  7

 40
0.0
 41
2.5
 42
0.625
 43
3.75
 44
1.25
 45
0.0
 46
0.0
 47
0.0
 48
0.0
140
2.5
141
2.5
142
0.0
143
0.03937007874016
144
1.0
145
0.0
146
1.0
147
0.625
 71
     0
 72
     0
 73
     0
 74
     0
 75
     0
 76
     0
 77
     1
 78
     8
170
     0
171
     3
172
     1
173
     0
174
     0
175
     0
176
     0
177
     0
178
     0
270
     2
271
     2
272
     2
273
     2
274
     3
340
71
275
     0
280
     0
281
     0
282
     0
283
     0
284
     8
285
     0
286
     0
287
     3
288
     0
  0
ENDTAB
  0
TABLE
  2
BLOCK_RECORD
  5
A01
330
0
100
AcDbSymbolTable
  70
5
  0
BLOCK_RECORD
  5
A02
330
A01
100
AcDbSymbolTableRecord
100
AcDbBlockTableRecord
  2
*MODEL_SPACE
  0
BLOCK_RECORD
  5
A03
330
A01
100
AcDbSymbolTableRecord
100
AcDbBlockTableRecord
  2
*PAPER_SPACE
  0
ENDTAB
  0
ENDSEC
  0
SECTION
  2
BLOCKS
  0
BLOCK
  5
A04
330
A02
100
AcDbEntity
  8
0
100
AcDbBlockBegin
  2
*MODEL_SPACE
 70
   0
 10
0
 20
0
 30
0
  3
*MODEL_SPACE
  1
 
  0
ENDBLK
  5
A05
330
A02
100
AcDbEntity
  8
0
100
AcDbBlockEnd
  0
BLOCK
  5
A06
330
A03
100
AcDbEntity
 67
1
  8
0
100
AcDbBlockBegin
  2
*PAPER_SPACE
 70
   0
 10
0
 20
0
 30
0
  3
*PAPER_SPACE
  1
 
  0
ENDBLK
  5
A07
330
A03
100
AcDbEntity
 67
    1
  8
0
100
AcDbBlockEnd
  0
ENDSEC
  0
SECTION
  2
ENTITIES
  0
LINE
  5
A08
330
A02
100
AcDbEntity
  8
ProjItem185
100
AcDbLine
 10
549.667
 20
413.695
 30
0
 11
588.589
 21
413.695
 31
0
  0
LINE
  5
A09
330
A02
100
AcDbEntity
  8
ProjItem185
100
AcDbLine
 10
588.589
 20
163.695
 30
0
 11
472.448
 21
163.695
 31
0
  0
LINE
  5
A0A
330
A02
100
AcDbEntity
  8
ProjItem185
100
AcDbLine
 10
20.3108
 20
775.195
 30
0
 11
549.667
 21
413.695
 31
0
  0
LINE
  5
A0B
330
A02
100
AcDbEntity
  8
ProjItem185
100
AcDbLine
 10
-269.421
 20
775.195
 30
0
 11
20.3108
 21
775.195
 31
0
  0
LINE
  5
A0C
330
A02
100
AcDbEntity
  8
ProjItem185
100
AcDbLine
 10
-269.421
 20
655.195
 30
0
 11
-269.421
 21
775.195
 31
0
  0
LINE
  5
A0D
330
A02
100
AcDbEntity
  8
ProjItem185
100
AcDbLine
 10
588.589
 20
413.695
 30
0
 11
588.589
 21
363.695
 31
0
  0
LINE
  5
A0E
330
A02
100
AcDbEntity
  8
ProjItem185
100
AcDbLine
 10
-56.9083
 20
525.195
 30
0
 11
-257.421
 21
525.195
 31
0
  0
LINE
  5
A0F
330
A02
100
AcDbEntity
  8
ProjItem185
100
AcDbLine
 10
472.448
 20
163.695
 30
0
 11
-56.9083
 21
525.195
 31
0
  0
LINE
  5
A10
330
A02
100
AcDbEntity
  8
ProjItem185
100
AcDbLine
 10
588.589
 20
353.695
 30
0
 11
588.589
 21
163.695
 31
0
  0
CIRCLE
  5
A11
330
A02
100
AcDbEntity
  8
ProjItem185
100
AcDbCircle
 10
533.589
 20
263.695
 40
5.5
  0
CIRCLE
  5
A12
330
A02
100
AcDbEntity
  8
ProjItem185
100
AcDbCircle
 10
533.589
 20
313.695
 40
5.5
  0
LINE
  5
A13
330
A02
100
AcDbEntity
  8
ProjItem185
100
AcDbLine
 10
-269.421
 20
525.195
 30
0
 11
-269.421
 21
655.195
 31
0
  0
LINE
  5
A14
330
A02
100
AcDbEntity
  8
ProjItem185
100
AcDbLine
 10
-269.421
 20
525.195
 30
0
 11
-257.421
 21
525.195
 31
0
  0
LINE
  5
A15
330
A02
100
AcDbEntity
  8
ProjItem185
100
AcDbLine
 10
244.579
 20
363.695
 30
0
 11
638.589
 21
363.695
 31
0
  0
LINE
  5
A16
330
A02
100
AcDbEntity
  8
ProjItem185
100
AcDbLine
 10
638.589
 20
363.695
 30
0
 11
638.589
 21
353.695
 31
0
  0
LINE
  5
A17
330
A02
100
AcDbEntity
  8
ProjItem185
100
AcDbLine
 10
638.589
 20
353.695
 30
0
 11
244.579
 21
353.695
 31
0
  0
LINE
  5
A18
330
A02
100
AcDbEntity
  8
ProjItem185
100
AcDbLine
 10
-269.421
 20
655.195
 30
0
 11
-257.421
 21
655.195
 31
0
  0
LINE
  5
A19
330
A02
100
AcDbEntity
  8
ProjItem185
100
AcDbLine
 10
-257.421
 20
525.195
 30
0
 11
-257.421
 21
655.195
 31
0
  0
LINE
  5
A1A
330
A02
100
AcDbEntity
  8
ProjItem185
100
AcDbLine
 10
244.579
 20
353.695
 30
0
 11
244.579
 21
363.695
 31
0
  0
LINE
  5
A1B
330
A02
100
AcDbEntity
  8
ProjItem185
100
AcDbLine
 10
-27.4213
 20
539.445
 30
0
 11
-27.4213
 21
549.445
 31
0
  0
LINE
  5
A1C
330
A02
100
AcDbEntity
  8
ProjItem185
100
AcDbLine
 10
264.579
 20
539.445
 30
0
 11
-27.4213
 21
539.445
 31
0
  0
LINE
  5
A1D
330
A02
100
AcDbEntity
  8
ProjItem185
100
AcDbLine
 10
-27.4213
 20
549.445
 30
0
 11
264.579
 21
549.445
 31
0
  0
LINE
  5
A1E
330
A02
100
AcDbEntity
  8
ProjItem185
100
AcDbLine
 10
264.579
 20
549.445
 30
0
 11
264.579
 21
539.445
 31
0
  0
LINE
  5
A1F
330
A02
100
AcDbEntity
  8
ProjItem185
100
AcDbLine
 10
-259.421
 20
725.195
 30
0
 11
-259.421
 21
735.195
 31
0
  0
LINE
  5
A20
330
A02
100
AcDbEntity
  8
ProjItem185
100
AcDbLine
 10
-7.42134
 20
725.195
 30
0
 11
-259.421
 21
725.195
 31
0
  0
LINE
  5
A21
330
A02
100
AcDbEntity
  8
ProjItem185
100
AcDbLine
 10
-259.421
 20
735.195
 30
0
 11
-7.42134
 21
735.195
 31
0
  0
LINE
  5
A22
330
A02
100
AcDbEntity
  8
ProjItem185
100
AcDbLine
 10
-7.42134
 20
735.195
 30
0
 11
-7.42134
 21
725.195
 31
0
  0
CIRCLE
  5
A23
330
A02
100
AcDbEntity
  8
ProjItem187
100
AcDbCircle
 10
716.568
 20
303.695
 40
12.5
  0
LINE
  5
A24
330
A02
100
AcDbEntity
  8
ProjItem187
100
AcDbLine
 10
842.568
 20
413.695
 30
0
 11
686.568
 21
413.695
 31
0
  0
LINE
  5
A25
330
A02
100
AcDbEntity
  8
ProjItem187
100
AcDbLine
 10
686.568
 20
413.695
 30
0
 11
686.568
 21
163.695
 31
0
  0
LINE
  5
A26
330
A02
100
AcDbEntity
  8
ProjItem187
100
AcDbLine
 10
842.568
 20
163.695
 30
0
 11
686.568
 21
163.695
 31
0
  0
CIRCLE
  5
A27
330
A02
100
AcDbEntity
  8
ProjItem187
100
AcDbCircle
 10
716.568
 20
203.695
 40
7
  0
CIRCLE
  5
A28
330
A02
100
AcDbEntity
  8
ProjItem187
100
AcDbCircle
 10
812.568
 20
203.695
 40
7
  0
CIRCLE
  5
A29
330
A02
100
AcDbEntity
  8
ProjItem187
100
AcDbCircle
 10
812.568
 20
303.695
 40
12.5
  0
CIRCLE
  5
A2A
330
A02
100
AcDbEntity
  8
ProjItem187
100
AcDbCircle
 10
716.568
 20
303.695
 40
7
  0
LINE
  5
A2B
330
A02
100
AcDbEntity
  8
ProjItem187
100
AcDbLine
 10
842.568
 20
525.195
 30
0
 11
842.568
 21
775.195
 31
0
  0
LINE
  5
A2C
330
A02
100
AcDbEntity
  8
ProjItem187
100
AcDbLine
 10
842.568
 20
163.695
 30
0
 11
842.568
 21
525.195
 31
0
  0
LINE
  5
A2D
330
A02
100
AcDbEntity
  8
ProjItem187
100
AcDbLine
 10
857.568
 20
163.695
 30
0
 11
842.568
 21
163.695
 31
0
  0
CIRCLE
  5
A2E
330
A02
100
AcDbEntity
  8
ProjItem187
100
AcDbCircle
 10
812.568
 20
303.695
 40
7
  0
LINE
  5
A2F
330
A02
100
AcDbEntity
  8
ProjItem187
100
AcDbLine
 10
857.568
 20
655.195
 30
0
 11
857.568
 21
775.195
 31
0
  0
LINE
  5
A30
330
A02
100
AcDbEntity
  8
ProjItem187
100
AcDbLine
 10
857.568
 20
163.695
 30
0
 11
857.568
 21
525.195
 31
0
  0
LINE
  5
A31
330
A02
100
AcDbEntity
  8
ProjItem187
100
AcDbLine
 10
857.568
 20
775.195
 30
0
 11
842.568
 21
775.195
 31
0
  0
LINE
  5
A32
330
A02
100
AcDbEntity
  8
ProjItem187
100
AcDbLine
 10
842.568
 20
525.195
 30
0
 11
937.568
 21
525.195
 31
0
  0
LINE
  5
A33
330
A02
100
AcDbEntity
  8
ProjItem187
100
AcDbLine
 10
937.568
 20
525.195
 30
0
 11
937.568
 21
655.195
 31
0
  0
LINE
  5
A34
330
A02
100
AcDbEntity
  8
ProjItem187
100
AcDbLine
 10
937.568
 20
655.195
 30
0
 11
857.568
 21
655.195
 31
0
  0
CIRCLE
  5
A35
330
A02
100
AcDbEntity
  8
ProjItem187
100
AcDbCircle
 10
897.568
 20
565.195
 40
7
  0
CIRCLE
  5
A36
330
A02
100
AcDbEntity
  8
ProjItem187
100
AcDbCircle
 10
897.568
 20
615.195
 40
7
  0
LINE
  5
A37
330
A02
100
AcDbEntity
  8
ProjItem187
100
AcDbLine
 10
857.568
 20
363.695
 30
0
 11
907.568
 21
363.695
 31
0
  0
LINE
  5
A38
330
A02
100
AcDbEntity
  8
ProjItem187
100
AcDbLine
 10
857.568
 20
353.695
 30
0
 11
907.568
 21
353.695
 31
0
  0
LINE
  5
A39
330
A02
100
AcDbEntity
  8
ProjItem187
100
AcDbLine
 10
907.568
 20
353.695
 30
0
 11
907.568
 21
363.695
 31
0
  0
LINE
  5
A3A
330
A02
100
AcDbEntity
  8
ProjItem187
100
AcDbLine
 10
857.568
 20
725.195
 30
0
 11
907.568
 21
725.195
 31
0
  0
LINE
  5
A3B
330
A02
100
AcDbEntity
  8
ProjItem187
100
AcDbLine
 10
857.568
 20
735.195
 30
0
 11
907.568
 21
735.195
 31
0
  0
LINE
  5
A3C
330
A02
100
AcDbEntity
  8
ProjItem187
100
AcDbLine
 10
907.568
 20
725.195
 30
0
 11
907.568
 21
735.195
 31
0
  0
LINE
  5
A3D
330
A02
100
AcDbEntity
  8
ProjItem188
100
AcDbLine
 10
573.589
 20
-47.3516
 30
0
 11
573.589
 21
108.648
 31
0
  0
LINE
  5
A3E
330
A02
100
AcDbEntity
  8
ProjItem188
100
AcDbLine
 10
588.589
 20
108.648
 30
0
 11
573.589
 21
108.648
 31
0
  0
LINE
  5
A3F
330
A02
100
AcDbEntity
  8
ProjItem188
100
AcDbLine
 10
549.667
 20
-47.3516
 30
0
 11
573.589
 21
-47.3516
 31
0
  0
LINE
  5
A40
330
A02
100
AcDbEntity
  8
ProjItem188
100
AcDbLine
 10
549.667
 20
-62.3516
 30
0
 11
549.667
 21
-47.3516
 31
0
  0
LINE
  5
A41
330
A02
100
AcDbEntity
  8
ProjItem188
100
AcDbLine
 10
549.667
 20
-62.3516
 30
0
 11
588.589
 21
-62.3516
 31
0
  0
LINE
  5
A42
330
A02
100
AcDbEntity
  8
ProjItem188
100
AcDbLine
 10
588.589
 20
-62.3516
 30
0
 11
588.589
 21
108.648
 31
0
  0
LINE
  5
A43
330
A02
100
AcDbEntity
  8
ProjItem188
100
AcDbLine
 10
-269.421
 20
-47.3516
 30
0
 11
20.3108
 21
-47.3516
 31
0
  0
LINE
  5
A44
330
A02
100
AcDbEntity
  8
ProjItem188
100
AcDbLine
 10
20.3108
 20
-47.3516
 30
0
 11
549.667
 21
-47.3516
 31
0
  0
LINE
  5
A45
330
A02
100
AcDbEntity
  8
ProjItem188
100
AcDbLine
 10
588.589
 20
108.648
 30
0
 11
638.589
 21
108.648
 31
0
  0
LINE
  5
A46
330
A02
100
AcDbEntity
  8
ProjItem188
100
AcDbLine
 10
20.3108
 20
-62.3516
 30
0
 11
20.3108
 21
-47.3516
 31
0
  0
LINE
  5
A47
330
A02
100
AcDbEntity
  8
ProjItem188
100
AcDbLine
 10
20.3108
 20
-62.3516
 30
0
 11
549.667
 21
-62.3516
 31
0
  0
LINE
  5
A48
330
A02
100
AcDbEntity
  8
ProjItem188
100
AcDbLine
 10
-269.421
 20
-62.3516
 30
0
 11
20.3108
 21
-62.3516
 31
0
  0
LINE
  5
A49
330
A02
100
AcDbEntity
  8
ProjItem188
100
AcDbLine
 10
-269.421
 20
-62.3516
 30
0
 11
-269.421
 21
-47.3516
 31
0
  0
LINE
  5
A4A
330
A02
100
AcDbEntity
  8
ProjItem188
100
AcDbLine
 10
-269.421
 20
-142.352
 30
0
 11
-269.421
 21
-62.3516
 31
0
  0
LINE
  5
A4B
330
A02
100
AcDbEntity
  8
ProjItem188
100
AcDbLine
 10
264.579
 20
-112.352
 30
0
 11
638.589
 21
-112.352
 31
0
  0
LINE
  5
A4C
330
A02
100
AcDbEntity
  8
ProjItem188
100
AcDbLine
 10
638.589
 20
108.648
 30
0
 11
638.589
 21
-112.352
 31
0
  0
LINE
  5
A4D
330
A02
100
AcDbEntity
  8
ProjItem188
100
AcDbLine
 10
-269.421
 20
-142.352
 30
0
 11
-257.421
 21
-142.352
 31
0
  0
LINE
  5
A4E
330
A02
100
AcDbEntity
  8
ProjItem188
100
AcDbLine
 10
-257.421
 20
-142.352
 30
0
 11
-257.421
 21
-112.352
 31
0
  0
LINE
  5
A4F
330
A02
100
AcDbEntity
  8
ProjItem188
100
AcDbLine
 10
264.579
 20
-62.3516
 30
0
 11
264.579
 21
-112.352
 31
0
  0
LINE
  5
A50
330
A02
100
AcDbEntity
  8
ProjItem188
100
AcDbLine
 10
-7.42134
 20
-112.352
 30
0
 11
264.579
 21
-112.352
 31
0
  0
LINE
  5
A51
330
A02
100
AcDbEntity
  8
ProjItem188
100
AcDbLine
 10
-259.421
 20
-62.3516
 30
0
 11
-259.421
 21
-112.352
 31
0
  0
LINE
  5
A52
330
A02
100
AcDbEntity
  8
ProjItem188
100
AcDbLine
 10
-7.42134
 20
-62.3516
 30
0
 11
-7.42134
 21
-112.352
 31
0
  0
LINE
  5
A53
330
A02
100
AcDbEntity
  8
ProjItem188
100
AcDbLine
 10
-259.421
 20
-112.352
 30
0
 11
-7.42134
 21
-112.352
 31
0
  0
LINE
  5
A54
330
A02
100
AcDbEntity
  8
ProjItem186
100
AcDbLine
 10
-319.348
 20
-269.354
 30
0
 11
-209.039
 21
-205.667
 31
0
  0
LINE
  5
A55
330
A02
100
AcDbEntity
  8
ProjItem186
100
AcDbLine
 10
-198.433
 20
-211.791
 30
0
 11
-209.039
 21
-205.667
 31
0
  0
LINE
  5
A56
330
A02
100
AcDbEntity
  8
ProjItem186
100
AcDbLine
 10
-336.263
 20
-259.588
 30
0
 11
-319.348
 21
-269.354
 31
0
  0
LINE
  5
A57
330
A02
100
AcDbEntity
  8
ProjItem186
100
AcDbLine
 10
-346.869
 20
-265.712
 30
0
 11
-336.263
 21
-259.588
 31
0
  0
LINE
  5
A58
330
A02
100
AcDbEntity
  8
ProjItem186
100
AcDbLine
 10
-346.869
 20
-265.712
 30
0
 11
-319.348
 21
-281.601
 31
0
  0
LINE
  5
A59
330
A02
100
AcDbEntity
  8
ProjItem186
100
AcDbLine
 10
-319.348
 20
-281.601
 30
0
 11
-198.433
 21
-211.791
 31
0
  0
LINE
  5
A5A
330
A02
100
AcDbEntity
  8
ProjItem186
100
AcDbLine
 10
-915.446
 20
369.967
 30
0
 11
-710.574
 21
251.685
 31
0
  0
LINE
  5
A5B
330
A02
100
AcDbEntity
  8
ProjItem186
100
AcDbLine
 10
-710.574
 20
251.685
 30
0
 11
-336.263
 21
-259.588
 31
0
  0
LINE
  5
A5C
330
A02
100
AcDbEntity
  8
ProjItem186
100
AcDbLine
 10
-198.433
 20
-252.615
 30
0
 11
-198.433
 21
-211.791
 31
0
  0
LINE
  5
A5D
330
A02
100
AcDbEntity
  8
ProjItem186
100
AcDbLine
 10
-198.433
 20
-252.615
 30
0
 11
-163.077
 21
-273.028
 31
0
  0
LINE
  5
A5E
330
A02
100
AcDbEntity
  8
ProjItem186
100
AcDbLine
 10
-163.077
 20
-273.028
 30
0
 11
-163.077
 21
-281.193
 31
0
  0
LINE
  5
A5F
330
A02
100
AcDbEntity
  8
ProjItem186
100
AcDbLine
 10
-198.433
 20
-415.915
 30
0
 11
-198.433
 21
-301.605
 31
0
  0
LINE
  5
A60
330
A02
100
AcDbEntity
  8
ProjItem186
100
AcDbLine
 10
-319.348
 20
-485.725
 30
0
 11
-198.433
 21
-415.915
 31
0
  0
LINE
  5
A61
330
A02
100
AcDbEntity
  8
ProjItem186
100
AcDbLine
 10
-319.348
 20
-485.725
 30
0
 11
-401.471
 21
-438.311
 31
0
  0
ELLIPSE
  5
A62
330
A02
100
AcDbEntity
  8
ProjItem186
100
AcDbEllipse
 10
-219.646
 20
-395.502
 30
0
 11
-3.5
 21
-6.06218
 31
0
 40
0.57735
 41
0.785398
 42
3.14159
  0
ELLIPSE
  5
A63
330
A02
100
AcDbEntity
  8
ProjItem186
100
AcDbEllipse
 10
-219.646
 20
-395.502
 30
0
 11
-3.5
 21
-6.06218
 31
0
 40
0.57735
 41
3.14159
 42
0
  0
ELLIPSE
  5
A64
330
A02
100
AcDbEntity
  8
ProjItem186
100
AcDbEllipse
 10
-219.646
 20
-395.502
 30
0
 11
-3.5
 21
-6.06218
 31
0
 40
0.57735
 41
0
 42
0.785398
  0
ELLIPSE
  5
A65
330
A02
100
AcDbEntity
  8
ProjItem186
100
AcDbEllipse
 10
-287.528
 20
-434.694
 30
0
 11
-3.5
 21
-6.06218
 31
0
 40
0.57735
 41
0.785398
 42
3.14159
  0
ELLIPSE
  5
A66
330
A02
100
AcDbEntity
  8
ProjItem186
100
AcDbEllipse
 10
-287.528
 20
-434.694
 30
0
 11
-3.5
 21
-6.06218
 31
0
 40
0.57735
 41
3.14159
 42
0
  0
ELLIPSE
  5
A67
330
A02
100
AcDbEntity
  8
ProjItem186
100
AcDbEllipse
 10
-287.528
 20
-434.694
 30
0
 11
-3.5
 21
-6.06218
 31
0
 40
0.57735
 41
0
 42
0.785398
  0
ELLIPSE
  5
A68
330
A02
100
AcDbEntity
  8
ProjItem186
100
AcDbEllipse
 10
-219.646
 20
-313.853
 30
0
 11
-3.5
 21
-6.06218
 31
0
 40
0.57735
 41
0.785398
 42
2.35619
  0
ELLIPSE
  5
A69
330
A02
100
AcDbEntity
  8
ProjItem186
100
AcDbEllipse
 10
-219.646
 20
-313.853
 30
0
 11
-3.5
 21
-6.06218
 31
0
 40
0.57735
 41
5.49779
 42
0
  0
ELLIPSE
  5
A6A
330
A02
100
AcDbEntity
  8
ProjItem186
100
AcDbEllipse
 10
-219.646
 20
-313.853
 30
0
 11
-3.5
 21
-6.06218
 31
0
 40
0.57735
 41
0
 42
0.785398
  0
LINE
  5
A6B
330
A02
100
AcDbEntity
  8
ProjItem186
100
AcDbLine
 10
-721.181
 20
245.561
 30
0
 11
-710.574
 21
251.685
 31
0
  0
LINE
  5
A6C
330
A02
100
AcDbEntity
  8
ProjItem186
100
AcDbLine
 10
-721.181
 20
245.561
 30
0
 11
-346.869
 21
-265.712
 31
0
  0
LINE
  5
A6D
330
A02
100
AcDbEntity
  8
ProjItem186
100
AcDbLine
 10
-926.053
 20
363.844
 30
0
 11
-721.181
 21
245.561
 31
0
  0
LINE
  5
A6E
330
A02
100
AcDbEntity
  8
ProjItem186
100
AcDbLine
 10
-926.053
 20
265.864
 30
0
 11
-926.053
 21
282.194
 31
0
  0
LINE
  5
A6F
330
A02
100
AcDbEntity
  8
ProjItem186
100
AcDbLine
 10
-926.053
 20
323.019
 30
0
 11
-926.053
 21
363.844
 31
0
  0
LINE
  5
A70
330
A02
100
AcDbEntity
  8
ProjItem186
100
AcDbLine
 10
-926.053
 20
265.864
 30
0
 11
-917.567
 21
260.965
 31
0
  0
LINE
  5
A71
330
A02
100
AcDbEntity
  8
ProjItem186
100
AcDbLine
 10
-917.567
 20
260.965
 30
0
 11
-917.567
 21
154.82
 31
0
  0
LINE
  5
A72
330
A02
100
AcDbEntity
  8
ProjItem186
100
AcDbLine
 10
-319.348
 20
-281.601
 30
0
 11
-319.348
 21
-322.426
 31
0
  0
LINE
  5
A73
330
A02
100
AcDbEntity
  8
ProjItem186
100
AcDbLine
 10
-775.783
 20
72.9614
 30
0
 11
-917.567
 21
154.82
 31
0
  0
LINE
  5
A74
330
A02
100
AcDbEntity
  8
ProjItem186
100
AcDbLine
 10
-562.6
 20
-181.984
 30
0
 11
-319.348
 21
-322.426
 31
0
  0
LINE
  5
A75
330
A02
100
AcDbEntity
  8
ProjItem186
100
AcDbLine
 10
-401.471
 20
-438.311
 30
0
 11
-546.433
 21
-240.308
 31
0
  0
LINE
  5
A76
330
A02
100
AcDbEntity
  8
ProjItem186
100
AcDbLine
 10
-581.25
 20
-192.752
 30
0
 11
-738.766
 21
22.3998
 31
0
  0
LINE
  5
A77
330
A02
100
AcDbEntity
  8
ProjItem186
100
AcDbLine
 10
-773.583
 20
69.9558
 30
0
 11
-775.783
 21
72.9614
 31
0
  0
LINE
  5
A78
330
A02
100
AcDbEntity
  8
ProjItem186
100
AcDbLine
 10
-319.348
 20
-371.416
 30
0
 11
-319.348
 21
-485.725
 31
0
  0
ELLIPSE
  5
A79
330
A02
100
AcDbEntity
  8
ProjItem186
100
AcDbEllipse
 10
-358.239
 20
-381.622
 30
0
 11
2.75
 21
-4.76314
 31
0
 40
0.57735
 41
-3.14159
 42
-2.35619
  0
ELLIPSE
  5
A7A
330
A02
100
AcDbEntity
  8
ProjItem186
100
AcDbEllipse
 10
-358.239
 20
-381.622
 30
0
 11
2.75
 21
-4.76314
 31
0
 40
0.57735
 41
-0
 42
-3.14159
  0
ELLIPSE
  5
A7B
330
A02
100
AcDbEntity
  8
ProjItem186
100
AcDbEllipse
 10
-358.239
 20
-381.622
 30
0
 11
2.75
 21
-4.76314
 31
0
 40
0.57735
 41
-2.35619
 42
-0
  0
LINE
  5
A7C
330
A02
100
AcDbEntity
  8
ProjItem186
100
AcDbLine
 10
-754.933
 20
80.7234
 30
0
 11
-548.458
 21
-38.4851
 31
0
  0
LINE
  5
A7D
330
A02
100
AcDbEntity
  8
ProjItem186
100
AcDbLine
 10
-548.458
 20
-38.4851
 30
0
 11
-548.458
 21
-46.6501
 31
0
  0
LINE
  5
A7E
330
A02
100
AcDbEntity
  8
ProjItem186
100
AcDbLine
 10
-918.982
 20
327.101
 30
0
 11
-740.791
 21
224.223
 31
0
  0
LINE
  5
A7F
330
A02
100
AcDbEntity
  8
ProjItem186
100
AcDbLine
 10
-740.791
 20
224.223
 30
0
 11
-740.791
 21
216.058
 31
0
  0
LINE
  5
A80
330
A02
100
AcDbEntity
  8
ProjItem186
100
AcDbLine
 10
-319.348
 20
-322.426
 30
0
 11
-198.433
 21
-252.615
 31
0
  0
LINE
  5
A81
330
A02
100
AcDbEntity
  8
ProjItem186
100
AcDbLine
 10
-926.053
 20
363.844
 30
0
 11
-915.446
 21
369.967
 31
0
  0
LINE
  5
A82
330
A02
100
AcDbEntity
  8
ProjItem186
100
AcDbLine
 10
-982.621
 20
127.06
 30
0
 11
-982.621
 21
233.204
 31
0
  0
LINE
  5
A83
330
A02
100
AcDbEntity
  8
ProjItem186
100
AcDbLine
 10
-982.621
 20
233.204
 30
0
 11
-926.053
 21
265.864
 31
0
  0
LINE
  5
A84
330
A02
100
AcDbEntity
  8
ProjItem186
100
AcDbLine
 10
-917.567
 20
154.82
 30
0
 11
-974.136
 21
122.161
 31
0
  0
LINE
  5
A85
330
A02
100
AcDbEntity
  8
ProjItem186
100
AcDbLine
 10
-982.621
 20
127.06
 30
0
 11
-974.136
 21
122.161
 31
0
  0
LINE
  5
A86
330
A02
100
AcDbEntity
  8
ProjItem186
100
AcDbLine
 10
-562.6
 20
-181.984
 30
0
 11
-597.955
 21
-202.397
 31
0
  0
LINE
  5
A87
330
A02
100
AcDbEntity
  8
ProjItem186
100
AcDbLine
 10
-597.955
 20
-202.397
 30
0
 11
-319.348
 21
-363.251
 31
0
  0
LINE
  5
A88
330
A02
100
AcDbEntity
  8
ProjItem186
100
AcDbLine
 10
-163.077
 20
-273.028
 30
0
 11
-319.348
 21
-363.251
 31
0
  0
LINE
  5
A89
330
A02
100
AcDbEntity
  8
ProjItem186
100
AcDbLine
 10
-319.348
 20
-363.251
 30
0
 11
-319.348
 21
-371.416
 31
0
  0
LINE
  5
A8A
330
A02
100
AcDbEntity
  8
ProjItem186
100
AcDbLine
 10
-163.077
 20
-281.193
 30
0
 11
-319.348
 21
-371.416
 31
0
  0
LINE
  5
A8B
330
A02
100
AcDbEntity
  8
ProjItem186
100
AcDbLine
 10
-319.348
 20
-371.416
 30
0
 11
-597.955
 21
-210.562
 31
0
  0
ELLIPSE
  5
A8C
330
A02
100
AcDbEntity
  8
ProjItem186
100
AcDbEllipse
 10
-287.528
 20
-353.044
 30
0
 11
-3.5
 21
-6.06218
 31
0
 40
0.57735
 41
0.785398
 42
2.35619
  0
ELLIPSE
  5
A8D
330
A02
100
AcDbEntity
  8
ProjItem186
100
AcDbEllipse
 10
-287.528
 20
-353.044
 30
0
 11
-3.5
 21
-6.06218
 31
0
 40
0.57735
 41
5.49779
 42
0
  0
ELLIPSE
  5
A8E
330
A02
100
AcDbEntity
  8
ProjItem186
100
AcDbEllipse
 10
-287.528
 20
-353.044
 30
0
 11
-3.5
 21
-6.06218
 31
0
 40
0.57735
 41
0
 42
0.785398
  0
LINE
  5
A8F
330
A02
100
AcDbEntity
  8
ProjItem186
100
AcDbLine
 10
-982.621
 20
233.204
 30
0
 11
-974.136
 21
228.305
 31
0
  0
LINE
  5
A90
330
A02
100
AcDbEntity
  8
ProjItem186
100
AcDbLine
 10
-974.136
 20
228.305
 30
0
 11
-917.567
 21
260.965
 31
0
  0
LINE
  5
A91
330
A02
100
AcDbEntity
  8
ProjItem186
100
AcDbLine
 10
-974.136
 20
122.161
 30
0
 11
-974.136
 21
228.305
 31
0
  0
ELLIPSE
  5
A92
330
A02
100
AcDbEntity
  8
ProjItem186
100
AcDbEllipse
 10
-945.852
 20
171.15
 30
0
 11
3.5
 21
6.06218
 31
0
 40
0.57735
 41
-0
 42
-5.49779
  0
ELLIPSE
  5
A93
330
A02
100
AcDbEntity
  8
ProjItem186
100
AcDbEllipse
 10
-945.852
 20
171.15
 30
0
 11
3.5
 21
6.06218
 31
0
 40
0.57735
 41
-3.14159
 42
-3.33067e-16
  0
ELLIPSE
  5
A94
330
A02
100
AcDbEntity
  8
ProjItem186
100
AcDbEllipse
 10
-945.852
 20
171.15
 30
0
 11
3.5
 21
6.06218
 31
0
 40
0.57735
 41
-5.49779
 42
-3.14159
  0
ELLIPSE
  5
A95
330
A02
100
AcDbEntity
  8
ProjItem186
100
AcDbEllipse
 10
-945.852
 20
211.975
 30
0
 11
3.5
 21
6.06218
 31
0
 40
0.57735
 41
-0
 42
-5.49779
  0
ELLIPSE
  5
A96
330
A02
100
AcDbEntity
  8
ProjItem186
100
AcDbEllipse
 10
-945.852
 20
211.975
 30
0
 11
3.5
 21
6.06218
 31
0
 40
0.57735
 41
-3.14159
 42
-3.33067e-16
  0
ELLIPSE
  5
A97
330
A02
100
AcDbEntity
  8
ProjItem186
100
AcDbEllipse
 10
-945.852
 20
211.975
 30
0
 11
3.5
 21
6.06218
 31
0
 40
0.57735
 41
-5.49779
 42
-3.14159
  0
LINE
  5
A98
330
A02
100
AcDbEntity
  8
ProjItem186
100
AcDbLine
 10
-597.955
 20
-210.562
 30
0
 11
-597.955
 21
-202.397
 31
0
  0
LINE
  5
A99
330
A02
100
AcDbEntity
  8
ProjItem186
100
AcDbLine
 10
-754.933
 20
80.7234
 30
0
 11
-790.288
 21
60.311
 31
0
  0
LINE
  5
A9A
330
A02
100
AcDbEntity
  8
ProjItem186
100
AcDbLine
 10
-790.288
 20
52.146
 30
0
 11
-790.288
 21
60.311
 31
0
  0
LINE
  5
A9B
330
A02
100
AcDbEntity
  8
ProjItem186
100
AcDbLine
 10
-548.458
 20
-46.6501
 30
0
 11
-583.813
 21
-67.0625
 31
0
  0
LINE
  5
A9C
330
A02
100
AcDbEntity
  8
ProjItem186
100
AcDbLine
 10
-583.813
 20
-67.0625
 30
0
 11
-790.288
 21
52.146
 31
0
  0
LINE
  5
A9D
330
A02
100
AcDbEntity
  8
ProjItem186
100
AcDbLine
 10
-548.458
 20
-38.4851
 30
0
 11
-583.813
 21
-58.8975
 31
0
  0
LINE
  5
A9E
330
A02
100
AcDbEntity
  8
ProjItem186
100
AcDbLine
 10
-790.288
 20
60.311
 30
0
 11
-583.813
 21
-58.8975
 31
0
  0
LINE
  5
A9F
330
A02
100
AcDbEntity
  8
ProjItem186
100
AcDbLine
 10
-583.813
 20
-58.8975
 30
0
 11
-583.813
 21
-67.0625
 31
0
  0
LINE
  5
AA0
330
A02
100
AcDbEntity
  8
ProjItem186
100
AcDbLine
 10
-918.982
 20
327.101
 30
0
 11
-954.337
 21
306.689
 31
0
  0
LINE
  5
AA1
330
A02
100
AcDbEntity
  8
ProjItem186
100
AcDbLine
 10
-954.337
 20
298.524
 30
0
 11
-954.337
 21
306.689
 31
0
  0
LINE
  5
AA2
330
A02
100
AcDbEntity
  8
ProjItem186
100
AcDbLine
 10
-740.791
 20
216.058
 30
0
 11
-776.146
 21
195.645
 31
0
  0
LINE
  5
AA3
330
A02
100
AcDbEntity
  8
ProjItem186
100
AcDbLine
 10
-776.146
 20
195.645
 30
0
 11
-954.337
 21
298.524
 31
0
  0
LINE
  5
AA4
330
A02
100
AcDbEntity
  8
ProjItem186
100
AcDbLine
 10
-740.791
 20
224.223
 30
0
 11
-776.146
 21
203.81
 31
0
  0
LINE
  5
AA5
330
A02
100
AcDbEntity
  8
ProjItem186
100
AcDbLine
 10
-954.337
 20
306.689
 30
0
 11
-776.146
 21
203.81
 31
0
  0
LINE
  5
AA6
330
A02
100
AcDbEntity
  8
ProjItem186
100
AcDbLine
 10
-776.146
 20
203.81
 30
0
 11
-776.146
 21
195.645
 31
0
  0
ENDSEC
  0
SECTION
  2
OBJECTS
  0
DICTIONARY
  5
F000
330
0
100
AcDbDictionary
  3
ACAD_GROUP
350
F001
  0
DICTIONARY
  5
F001
330
F000
100
AcDbDictionary
  0
ENDSEC
  0
EOF