999
FreeCAD v0.21 33771 (Git)
  0
SECTION
  2
HEADER
  9
$ACADVER
  1
AC1014
  9
$ACADMAINTVER
 70
     9
  9
$DWGCODEPAGE
  3
ANSI_1252
  9
$TEXTSTYLE
  7
STANDARD
  9
$DIMSTYLE
  2
STANDARD
  9
$DIMTXSTY
  7
STANDARD
  9
$CMLSTYLE
  2
STANDARD
  9
$LUNITS
 70
2
  9
$INSUNITS
 70
4
  9
$PEXTMAX
 10
50
 20
50
 30
50
  9
$PEXTMIN
 10
0
 20
0
 30
0
  9
$HANDSEED
  5
FFFF
  0
ENDSEC
  0
SECTION
  2
CLASSES
  0
CLASS
  1
ACDBDICTIONARYWDFLT
  2
AcDbDictionaryWithDefault
  3
ObjectDBX Classes
 90
        0
280
     0
281
     0
  0
CLASS
  1
XRECORD
  2
AcDbXrecord
  3
ObjectDBX Classes
 90
        0
280
     0
281
     0
  0
CLASS
  1
LWPOLYLINE
  2
AcDbPolyline
  3
ObjectDBX Classes
 90
        0
280
     0
281
     1
  0
ENDSEC
  0
SECTION
  2
TABLES
  0
TABLE
  2
VPORT
  5
20
330
0
100
AcDbSymbolTable
 70
     1
  0
VPORT
  5
21
330
20
100
AcDbSymbolTableRecord
100
AcDbViewportTableRecord
  2
*ACTIVE
 70
     0
  0
ENDTAB
  0
TABLE
  2
LTYPE
  5
22
330
0
100
AcDbSymbolTable
 70
     1
  0
LTYPE
  5
23
330
21
100
AcDbSymbolTableRecord
100
AcDbLinetypeTableRecord
  2
BYBLOCK
 70
     0
  3

 72
    65
 73
     0
 40
0.0
  0
LTYPE
  5
24
330
21
100
AcDbSymbolTableRecord
100
AcDbLinetypeTableRecord
  2
BYLAYER
 70
     0
  3

 72
    65
 73
     0
 40
0.0
  0
LTYPE
  5
25
330
21
100
AcDbSymbolTableRecord
100
AcDbLinetypeTableRecord
  2
CONTINUOUS
 70
     0
  3
Solid line
 72
    65
 73
     0
 40
0.0
  0
ENDTAB
  0
TABLE
  2
LAYER
  5
A52
330
0
100
AcDbSymbolTable
 70
10
  0
LAYER
  5
A53
330
A52
100
AcDbSymbolTableRecord
100
AcDbLayerTableRecord
  2
0
 70
   0
 62
   7
  6
CONTINUOUS
  0
LAYER
  5
A54
330
A52
100
AcDbSymbolTableRecord
100
AcDbLayerTableRecord
  2
ProjItem003
 70
    0
 62
    7
  6
CONTINUOUS
  0
LAYER
  5
A55
330
A52
100
AcDbSymbolTableRecord
100
AcDbLayerTableRecord
  2
ProjItem005
 70
    0
 62
    7
  6
CONTINUOUS
  0
LAYER
  5
A56
330
A52
100
AcDbSymbolTableRecord
100
AcDbLayerTableRecord
  2
ProjItem006
 70
    0
 62
    7
  6
CONTINUOUS
  0
LAYER
  5
A57
330
A52
100
AcDbSymbolTableRecord
100
AcDbLayerTableRecord
  2
ProjItem004
 70
    0
 62
    7
  6
CONTINUOUS
  0
LAYER
  5
A58
330
A52
100
AcDbSymbolTableRecord
100
AcDbLayerTableRecord
  2
Dimension021
 70
    0
 62
    7
  6
CONTINUOUS
  0
LAYER
  5
A59
330
A52
100
AcDbSymbolTableRecord
100
AcDbLayerTableRecord
  2
Dimension022
 70
    0
 62
    7
  6
CONTINUOUS
  0
LAYER
  5
A5A
330
A52
100
AcDbSymbolTableRecord
100
AcDbLayerTableRecord
  2
Dimension023
 70
    0
 62
    7
  6
CONTINUOUS
  0
LAYER
  5
A5B
330
A52
100
AcDbSymbolTableRecord
100
AcDbLayerTableRecord
  2
Dimension024
 70
    0
 62
    7
  6
CONTINUOUS
  0
LAYER
  5
A5C
330
A52
100
AcDbSymbolTableRecord
100
AcDbLayerTableRecord
  2
Dimension027
 70
    0
 62
    7
  6
CONTINUOUS
  0
ENDTAB
  0
TABLE
  2
STYLE
  5
70
330
0
100
AcDbSymbolTable
 70
     2
  0
STYLE
  5
71
330
70
100
AcDbSymbolTableRecord
100
AcDbTextStyleTableRecord
  2
STANDARD
 70
     0
 40
0.0
 41
1.0
 50
0.0
 71
     0
 42
2.5
  3
arial.ttf
  4

  0
STYLE
  5
72
330
70
100
AcDbSymbolTableRecord
100
AcDbTextStyleTableRecord
  2
ANNOTATIVE
 70
     0
 40
0.0
 41
1.0
 50
0.0
 71
     0
 42
2.5
  3
arial.ttf
  4

  0
ENDTAB
  0
TABLE
  2
VIEW
  5
73
330
0
100
AcDbSymbolTable
 70
     0
  0
ENDTAB
  0
TABLE
  2
UCS
  5
74
330
0
100
AcDbSymbolTable
 70
     0
  0
ENDTAB
  0
TABLE
  2
APPID
  5
75
330
0
100
AcDbSymbolTable
 70
     2
  0
APPID
  5
76
330
75
100
AcDbSymbolTableRecord
100
AcDbRegAppTableRecord
  2
ACAD
 70
     0
  0
APPID
  5
77
330
75
100
AcDbSymbolTableRecord
100
AcDbRegAppTableRecord
  2
ACADANNOTATIVE
 70
     0
  0
ENDTAB
  0
TABLE
  2
DIMSTYLE
  5
78
330
0
100
AcDbSymbolTable
 70
     2
  0
DIMSTYLE
105
79
330
78
100
AcDbSymbolTableRecord
100
AcDbDimStyleTableRecord
  2
STANDARD
 70
     0
  3

  4

  5

  6

  7

 40
0.0
 41
2.5
 42
0.625
 43
3.75
 44
1.25
 45
0.0
 46
0.0
 47
0.0
 48
0.0
140
2.5
141
2.5
142
0.0
143
0.03937007874016
144
1.0
145
0.0
146
1.0
147
0.625
 71
     0
 72
     0
 73
     0
 74
     0
 75
     0
 76
     0
 77
     1
 78
     8
170
     0
171
     3
172
     1
173
     0
174
     0
175
     0
176
     0
177
     0
178
     0
270
     2
271
     2
272
     2
273
     2
274
     3
340
71
275
     0
280
     0
281
     0
282
     0
283
     0
284
     8
285
     0
286
     0
287
     3
288
     0
  0
ENDTAB
  0
TABLE
  2
BLOCK_RECORD
  5
A01
330
0
100
AcDbSymbolTable
  70
5
  0
BLOCK_RECORD
  5
A02
330
A01
100
AcDbSymbolTableRecord
100
AcDbBlockTableRecord
  2
*MODEL_SPACE
  0
BLOCK_RECORD
  5
A03
330
A01
100
AcDbSymbolTableRecord
100
AcDbBlockTableRecord
  2
*PAPER_SPACE
  0
BLOCK_RECORD
  5
A21
330
A01
100
AcDbSymbolTableRecord
100
AcDbBlockTableRecord
  2
*Dimension021
  0
BLOCK_RECORD
  5
A2B
330
A01
100
AcDbSymbolTableRecord
100
AcDbBlockTableRecord
  2
*Dimension022
  0
BLOCK_RECORD
  5
A35
330
A01
100
AcDbSymbolTableRecord
100
AcDbBlockTableRecord
  2
*Dimension023
  0
BLOCK_RECORD
  5
A3F
330
A01
100
AcDbSymbolTableRecord
100
AcDbBlockTableRecord
  2
*Dimension024
  0
BLOCK_RECORD
  5
A49
330
A01
100
AcDbSymbolTableRecord
100
AcDbBlockTableRecord
  2
*Dimension027
  0
ENDTAB
  0
ENDSEC
  0
SECTION
  2
BLOCKS
  0
BLOCK
  5
A04
330
A02
100
AcDbEntity
  8
0
100
AcDbBlockBegin
  2
*MODEL_SPACE
 70
   0
 10
0
 20
0
 30
0
  3
*MODEL_SPACE
  1
 
  0
ENDBLK
  5
A05
330
A02
100
AcDbEntity
  8
0
100
AcDbBlockEnd
  0
BLOCK
  5
A06
330
A03
100
AcDbEntity
 67
1
  8
0
100
AcDbBlockBegin
  2
*PAPER_SPACE
 70
   0
 10
0
 20
0
 30
0
  3
*PAPER_SPACE
  1
 
  0
ENDBLK
  5
A07
330
A03
100
AcDbEntity
 67
    1
  8
0
100
AcDbBlockEnd
  0
BLOCK
  5
A22
330
A21
100
AcDbEntity
  8
Dimension021
100
AcDbBlockBegin
  2
*Dimension021
 70
   1
 10
0
 20
0
 30
0
  3
*Dimension021
  1
 
  0
LINE
  5
A23
330
A21
100
AcDbEntity
  8
Dimension021
100
AcDbLine
 10
72.4052
 20
181.731
 30
0
 11
72.4052
 21
201.681
 31
0
  0
LINE
  5
A24
330
A21
100
AcDbEntity
  8
Dimension021
100
AcDbLine
 10
178.109
 20
181.731
 30
0
 11
178.109
 21
201.681
 31
0
  0
LINE
  5
A25
330
A21
100
AcDbEntity
  8
Dimension021
100
AcDbLine
 10
178.109
 20
201.681
 30
0
 11
72.4052
 21
201.681
 31
0
  0
TEXT
  5
A26
330
A21
100
AcDbEntity
  8
Dimension021
100
AcDbText
 10
126.007
 20
196.681
 30
0
 40
3.5
  1
1057
  7
STANDARD
 72
1
 11
126.007
 21
201.681
 31
0
100
AcDbText
  0
SOLID
  5
A27
330
A21
100
AcDbEntity
  8
0
 62
     0
100
AcDbTrace
 10
183.109
 20
202.097
 30
0
 11
183.109
 21
201.264
 31
0
 12
178.109
 22
201.681
 32
0
 13
178.109
 23
201.681
 33
0
  0
SOLID
  5
A28
330
A21
100
AcDbEntity
  8
0
 62
     0
100
AcDbTrace
 10
67.4052
 20
202.097
 30
0
 11
67.4052
 21
201.264
 31
0
 12
72.4052
 22
201.681
 32
0
 13
72.4052
 23
201.681
 33
0
  0
ENDBLK
  5
A29
330
A21
100
AcDbEntity
  8
Dimension021
100
AcDbBlockEnd
  0
BLOCK
  5
A2C
330
A2B
100
AcDbEntity
  8
Dimension022
100
AcDbBlockBegin
  2
*Dimension022
 70
   1
 10
0
 20
0
 30
0
  3
*Dimension022
  1
 
  0
LINE
  5
A2D
330
A2B
100
AcDbEntity
  8
Dimension022
100
AcDbLine
 10
178.109
 20
181.731
 30
0
 11
183.98
 21
181.731
 31
0
  0
LINE
  5
A2E
330
A2B
100
AcDbEntity
  8
Dimension022
100
AcDbLine
 10
178.109
 20
123.824
 30
0
 11
183.98
 21
123.824
 31
0
  0
LINE
  5
A2F
330
A2B
100
AcDbEntity
  8
Dimension022
100
AcDbLine
 10
183.98
 20
123.824
 30
0
 11
183.98
 21
181.731
 31
0
  0
TEXT
  5
A30
330
A2B
100
AcDbEntity
  8
Dimension022
100
AcDbText
 10
188.98
 20
156.364
 30
0
 40
3.5
  1
579
  7
STANDARD
 72
1
 11
183.98
 21
156.364
 31
0
100
AcDbText
  0
SOLID
  5
A31
330
A2B
100
AcDbEntity
  8
0
 62
     0
100
AcDbTrace
 10
184.396
 20
118.824
 30
0
 11
183.563
 21
118.824
 31
0
 12
183.98
 22
123.824
 32
0
 13
183.98
 23
123.824
 33
0
  0
SOLID
  5
A32
330
A2B
100
AcDbEntity
  8
0
 62
     0
100
AcDbTrace
 10
184.396
 20
186.731
 30
0
 11
183.563
 21
186.731
 31
0
 12
183.98
 22
181.731
 32
0
 13
183.98
 23
181.731
 33
0
  0
ENDBLK
  5
A33
330
A2B
100
AcDbEntity
  8
Dimension022
100
AcDbBlockEnd
  0
BLOCK
  5
A36
330
A35
100
AcDbEntity
  8
Dimension023
100
AcDbBlockBegin
  2
*Dimension023
 70
   1
 10
0
 20
0
 30
0
  3
*Dimension023
  1
 
  0
LINE
  5
A37
330
A35
100
AcDbEntity
  8
Dimension023
100
AcDbLine
 10
178.109
 20
123.824
 30
0
 11
174.494
 21
116.864
 31
0
  0
LINE
  5
A38
330
A35
100
AcDbEntity
  8
Dimension023
100
AcDbLine
 10
72.4052
 20
178.731
 30
0
 11
68.7901
 21
171.772
 31
0
  0
LINE
  5
A39
330
A35
100
AcDbEntity
  8
Dimension023
100
AcDbLine
 10
68.7901
 20
171.772
 30
0
 11
174.494
 21
116.864
 31
0
  0
TEXT
  5
A3A
330
A35
100
AcDbEntity
  8
Dimension023
100
AcDbText
 10
122.824
 20
146.944
 30
0
 40
3.5
  1
1191
  7
STANDARD
 72
1
 11
125.128
 21
142.507
 31
0
100
AcDbText
  0
SOLID
  5
A3B
330
A35
100
AcDbEntity
  8
0
 62
     0
100
AcDbTrace
 10
73.4193
 20
169.837
 30
0
 11
73.0351
 21
169.097
 31
0
 12
68.7901
 22
171.772
 32
0
 13
68.7901
 23
171.772
 33
0
  0
SOLID
  5
A3C
330
A35
100
AcDbEntity
  8
0
 62
     0
100
AcDbTrace
 10
170.249
 20
119.539
 30
0
 11
169.865
 21
118.799
 31
0
 12
174.494
 22
116.864
 32
0
 13
174.494
 23
116.864
 33
0
  0
ENDBLK
  5
A3D
330
A35
100
AcDbEntity
  8
Dimension023
100
AcDbBlockEnd
  0
BLOCK
  5
A40
330
A3F
100
AcDbEntity
  8
Dimension024
100
AcDbBlockBegin
  2
*Dimension024
 70
   1
 10
0
 20
0
 30
0
  3
*Dimension024
  1
 
  0
LINE
  5
A41
330
A3F
100
AcDbEntity
  8
Dimension024
100
AcDbLine
 10
72.4052
 20
178.731
 30
0
 11
62.5483
 21
178.731
 31
0
  0
LINE
  5
A42
330
A3F
100
AcDbEntity
  8
Dimension024
100
AcDbLine
 10
72.4052
 20
181.731
 30
0
 11
62.5483
 21
181.731
 31
0
  0
LINE
  5
A43
330
A3F
100
AcDbEntity
  8
Dimension024
100
AcDbLine
 10
62.5483
 20
181.731
 30
0
 11
62.5483
 21
178.731
 31
0
  0
TEXT
  5
A44
330
A3F
100
AcDbEntity
  8
Dimension024
100
AcDbText
 10
57.5483
 20
183.818
 30
0
 40
3.5
  1
30
  7
STANDARD
 72
1
 11
62.5483
 21
183.818
 31
0
100
AcDbText
  0
SOLID
  5
A45
330
A3F
100
AcDbEntity
  8
0
 62
     0
100
AcDbTrace
 10
62.1316
 20
186.731
 30
0
 11
62.9649
 21
186.731
 31
0
 12
62.5483
 22
181.731
 32
0
 13
62.5483
 23
181.731
 33
0
  0
SOLID
  5
A46
330
A3F
100
AcDbEntity
  8
0
 62
     0
100
AcDbTrace
 10
62.1316
 20
173.731
 30
0
 11
62.9649
 21
173.731
 31
0
 12
62.5483
 22
178.731
 32
0
 13
62.5483
 23
178.731
 33
0
  0
ENDBLK
  5
A47
330
A3F
100
AcDbEntity
  8
Dimension024
100
AcDbBlockEnd
  0
BLOCK
  5
A4A
330
A49
100
AcDbEntity
  8
Dimension027
100
AcDbBlockBegin
  2
*Dimension027
 70
   1
 10
0
 20
0
 30
0
  3
*Dimension027
  1
 
  0
LINE
  5
A4B
330
A49
100
AcDbEntity
  8
Dimension027
100
AcDbLine
 10
223.239
 20
181.731
 30
0
 11
223.239
 21
198.225
 31
0
  0
LINE
  5
A4C
330
A49
100
AcDbEntity
  8
Dimension027
100
AcDbLine
 10
227.239
 20
181.731
 30
0
 11
227.239
 21
198.225
 31
0
  0
LINE
  5
A4D
330
A49
100
AcDbEntity
  8
Dimension027
100
AcDbLine
 10
227.239
 20
198.225
 30
0
 11
223.239
 21
198.225
 31
0
  0
TEXT
  5
A4E
330
A49
100
AcDbEntity
  8
Dimension027
100
AcDbText
 10
225.239
 20
193.225
 30
0
 40
3.5
  1
40
  7
STANDARD
 72
1
 11
225.239
 21
198.225
 31
0
100
AcDbText
  0
SOLID
  5
A4F
330
A49
100
AcDbEntity
  8
0
 62
     0
100
AcDbTrace
 10
232.239
 20
198.642
 30
0
 11
232.239
 21
197.808
 31
0
 12
227.239
 22
198.225
 32
0
 13
227.239
 23
198.225
 33
0
  0
SOLID
  5
A50
330
A49
100
AcDbEntity
  8
0
 62
     0
100
AcDbTrace
 10
218.239
 20
198.642
 30
0
 11
218.239
 21
197.808
 31
0
 12
223.239
 22
198.225
 32
0
 13
223.239
 23
198.225
 33
0
  0
ENDBLK
  5
A51
330
A49
100
AcDbEntity
  8
Dimension027
100
AcDbBlockEnd
  0
ENDSEC
  0
SECTION
  2
ENTITIES
  0
LINE
  5
A08
330
A02
100
AcDbEntity
  8
ProjItem003
100
AcDbLine
 10
178.109
 20
123.824
 30
0
 11
178.109
 21
181.731
 31
0
  0
LINE
  5
A09
330
A02
100
AcDbEntity
  8
ProjItem003
100
AcDbLine
 10
178.109
 20
181.731
 30
0
 11
72.4052
 21
181.731
 31
0
  0
LINE
  5
A0A
330
A02
100
AcDbEntity
  8
ProjItem003
100
AcDbLine
 10
72.4052
 20
181.731
 30
0
 11
72.4052
 21
178.731
 31
0
  0
LINE
  5
A0B
330
A02
100
AcDbEntity
  8
ProjItem003
100
AcDbLine
 10
72.4052
 20
178.731
 30
0
 11
178.109
 21
123.824
 31
0
  0
LINE
  5
A0C
330
A02
100
AcDbEntity
  8
ProjItem005
100
AcDbLine
 10
227.239
 20
123.824
 30
0
 11
223.239
 21
123.824
 31
0
  0
LINE
  5
A0D
330
A02
100
AcDbEntity
  8
ProjItem005
100
AcDbLine
 10
227.239
 20
181.731
 30
0
 11
227.239
 21
178.731
 31
0
  0
LINE
  5
A0E
330
A02
100
AcDbEntity
  8
ProjItem005
100
AcDbLine
 10
227.239
 20
178.731
 30
0
 11
227.239
 21
123.824
 31
0
  0
LINE
  5
A0F
330
A02
100
AcDbEntity
  8
ProjItem005
100
AcDbLine
 10
223.239
 20
181.731
 30
0
 11
223.239
 21
178.731
 31
0
  0
LINE
  5
A10
330
A02
100
AcDbEntity
  8
ProjItem005
100
AcDbLine
 10
223.239
 20
178.731
 30
0
 11
223.239
 21
123.824
 31
0
  0
LINE
  5
A11
330
A02
100
AcDbEntity
  8
ProjItem005
100
AcDbLine
 10
227.239
 20
181.731
 30
0
 11
223.239
 21
181.731
 31
0
  0
LINE
  5
A12
330
A02
100
AcDbEntity
  8
ProjItem005
100
AcDbLine
 10
227.239
 20
178.731
 30
0
 11
223.239
 21
178.731
 31
0
  0
LINE
  5
A13
330
A02
100
AcDbEntity
  8
ProjItem006
100
AcDbLine
 10
178.109
 20
91.4804
 30
0
 11
178.109
 21
95.4804
 31
0
  0
LINE
  5
A14
330
A02
100
AcDbEntity
  8
ProjItem006
100
AcDbLine
 10
178.109
 20
91.4804
 30
0
 11
72.4052
 21
91.4804
 31
0
  0
LINE
  5
A15
330
A02
100
AcDbEntity
  8
ProjItem006
100
AcDbLine
 10
178.109
 20
95.4804
 30
0
 11
72.4052
 21
95.4804
 31
0
  0
LINE
  5
A16
330
A02
100
AcDbEntity
  8
ProjItem006
100
AcDbLine
 10
72.4052
 20
91.4804
 30
0
 11
72.4052
 21
95.4804
 31
0
  0
LINE
  5
A17
330
A02
100
AcDbEntity
  8
ProjItem004
100
AcDbLine
 10
128.005
 20
45.8235
 30
0
 11
128.005
 21
42.5575
 31
0
  0
LINE
  5
A18
330
A02
100
AcDbEntity
  8
ProjItem004
100
AcDbLine
 10
128.005
 20
45.8235
 30
0
 11
87.058
 21
69.4641
 31
0
  0
LINE
  5
A19
330
A02
100
AcDbEntity
  8
ProjItem004
100
AcDbLine
 10
87.058
 20
69.4641
 30
0
 11
12.3142
 21
26.3108
 31
0
  0
LINE
  5
A1A
330
A02
100
AcDbEntity
  8
ProjItem004
100
AcDbLine
 10
12.3142
 20
26.3108
 30
0
 11
14.4356
 21
25.086
 31
0
  0
LINE
  5
A1B
330
A02
100
AcDbEntity
  8
ProjItem004
100
AcDbLine
 10
14.4356
 20
25.086
 30
0
 11
128.005
 21
45.8235
 31
0
  0
LINE
  5
A1C
330
A02
100
AcDbEntity
  8
ProjItem004
100
AcDbLine
 10
12.3142
 20
23.0448
 30
0
 11
14.4356
 21
21.82
 31
0
  0
LINE
  5
A1D
330
A02
100
AcDbEntity
  8
ProjItem004
100
AcDbLine
 10
14.4356
 20
21.82
 30
0
 11
128.005
 21
42.5575
 31
0
  0
LINE
  5
A1E
330
A02
100
AcDbEntity
  8
ProjItem004
100
AcDbLine
 10
12.3142
 20
26.3108
 30
0
 11
12.3142
 21
23.0448
 31
0
  0
LINE
  5
A1F
330
A02
100
AcDbEntity
  8
ProjItem004
100
AcDbLine
 10
14.4356
 20
25.086
 30
0
 11
14.4356
 21
21.82
 31
0
  0
DIMENSION
  5
A20
330
A02
100
AcDbEntity
  8
Dimension021
100
AcDbDimension
  2
*Dimension021
 10
126.007
 20
201.681
 30
0
 11
126.007
 21
196.681
 31
0
 70
32
  1
1057
  3
STANDARD
100
AcDbAlignedDimension
 13
178.109
 23
181.731
 33
0
 14
72.4052
 24
181.731
 34
0
100
AcDbRotatedDimension
  0
DIMENSION
  5
A2A
330
A02
100
AcDbEntity
  8
Dimension022
100
AcDbDimension
  2
*Dimension022
 10
183.98
 20
156.364
 30
0
 11
188.98
 21
156.364
 31
0
 70
32
  1
579
  3
STANDARD
100
AcDbAlignedDimension
 13
178.109
 23
123.824
 33
0
 14
178.109
 24
181.731
 34
0
 50
90
100
AcDbRotatedDimension
  0
DIMENSION
  5
A34
330
A02
100
AcDbEntity
  8
Dimension023
100
AcDbDimension
  2
*Dimension023
 10
125.128
 20
142.507
 30
0
 11
122.824
 21
146.944
 31
0
 70
1
  1
1191
  3
STANDARD
100
AcDbAlignedDimension
 13
72.4052
 23
178.731
 33
0
 14
178.109
 24
123.824
 34
0
  0
DIMENSION
  5
A3E
330
A02
100
AcDbEntity
  8
Dimension024
100
AcDbDimension
  2
*Dimension024
 10
62.5483
 20
183.818
 30
0
 11
57.5483
 21
183.818
 31
0
 70
32
  1
30
  3
STANDARD
100
AcDbAlignedDimension
 13
72.4052
 23
181.731
 33
0
 14
72.4052
 24
178.731
 34
0
 50
90
100
AcDbRotatedDimension
  0
DIMENSION
  5
A48
330
A02
100
AcDbEntity
  8
Dimension027
100
AcDbDimension
  2
*Dimension027
 10
225.239
 20
198.225
 30
0
 11
225.239
 21
193.225
 31
0
 70
32
  1
40
  3
STANDARD
100
AcDbAlignedDimension
 13
227.239
 23
181.731
 33
0
 14
223.239
 24
181.731
 34
0
100
AcDbRotatedDimension
  0
ENDSEC
  0
SECTION
  2
OBJECTS
  0
DICTIONARY
  5
F000
330
0
100
AcDbDictionary
  3
ACAD_GROUP
350
F001
  0
DICTIONARY
  5
F001
330
F000
100
AcDbDictionary
  0
ENDSEC
  0
EOF