999
dxfrw 0.6.3
  0
SECTION
  2
HEADER
  9
$ACADVER
  1
AC1021
  9
$DWGCODEPAGE
  3
ANSI_1252
  9
$INSBASE
 10
0
 20
0
 30
0
  9
$EXTMIN
 10
-2144.652862930573
 20
-1267.67
 30
0
  9
$EXTMAX
 10
2040.84
 20
821.911680526447
 30
0
  9
$LIMMIN
 10
0
 20
0
  9
$LIMMAX
 10
420
 20
297
  9
$ORTHOMODE
 70
    0
  9
$REGENMODE
 70
    1
  9
$FILLMODE
 70
    1
  9
$QTEXTMODE
 70
    0
  9
$MIRRTEXT
 70
    0
  9
$LTSCALE
 40
1
  9
$ATTMODE
 70
    0
  9
$TEXTSIZE
 40
2.5
  9
$TRACEWID
 40
15.68
  9
$TEXTSTYLE
  7
STANDARD
  9
$CLAYER
  8
0
  9
$CELTYPE
  6
BYLAYER
  9
$CECOLOR
 62
  256
  9
$CELTSCALE
 40
1
  9
$DISPSILH
 70
    0
  9
$DIMSCALE
 40
2.5
  9
$DIMASZ
 40
2.5
  9
$DIMEXO
 40
0.625
  9
$DIMDLI
 40
3.75
  9
$DIMRND
 40
0
  9
$DIMDLE
 40
0
  9
$DIMEXE
 40
1.25
  9
$DIMTP
 40
0
  9
$DIMTM
 40
0
  9
$DIMTXT
 40
2.5
  9
$DIMCEN
 40
2.5
  9
$DIMTSZ
 40
0
  9
$DIMTOL
 70
    0
  9
$DIMLIM
 70
    0
  9
$DIMTIH
 70
    0
  9
$DIMTOH
 70
    0
  9
$DIMSE1
 70
    0
  9
$DIMSE2
 70
    0
  9
$DIMTAD
 70
    1
  9
$DIMZIN
 70
    8
  9
$DIMBLK
  1

  9
$DIMASO
 70
    1
  9
$DIMSHO
 70
    1
  9
$DIMPOST
  1

  9
$DIMAPOST
  1

  9
$DIMALT
 70
    0
  9
$DIMALTD
 70
    3
  9
$DIMALTF
 40
0.03937
  9
$DIMLFAC
 40
1
  9
$DIMTOFL
 70
    1
  9
$DIMTVP
 40
0
  9
$DIMTIX
 70
    0
  9
$DIMSOXD
 70
    0
  9
$DIMSAH
 70
    0
  9
$DIMBLK1
  1

  9
$DIMBLK2
  1

  9
$DIMSTYLE
  2
STANDARD
  9
$DIMCLRD
 70
    0
  9
$DIMCLRE
 70
    0
  9
$DIMCLRT
 70
    0
  9
$DIMTFAC
 40
1
  9
$DIMGAP
 40
0.625
  9
$DIMJUST
 70
    0
  9
$DIMSD1
 70
    0
  9
$DIMSD2
 70
    0
  9
$DIMTOLJ
 70
    0
  9
$DIMTZIN
 70
    8
  9
$DIMALTZ
 70
    0
  9
$DIMALTTZ
 70
    0
  9
$DIMUPT
 70
    0
  9
$DIMDEC
 70
    2
  9
$DIMTDEC
 70
    2
  9
$DIMALTU
 70
    2
  9
$DIMALTTD
 70
    3
  9
$DIMTXSTY
  7
STANDARD
  9
$DIMAUNIT
 70
    0
  9
$DIMADEC
 70
    0
  9
$DIMALTRND
 40
0
  9
$DIMAZIN
 70
    0
  9
$DIMDSEP
 70
   44
  9
$DIMATFIT
 70
    3
  9
$DIMFRAC
 70
    0
  9
$DIMLDRBLK
  1
STANDARD
  9
$DIMLUNIT
 70
    2
  9
$DIMLWD
 70
   -2
  9
$DIMLWE
 70
   -2
  9
$DIMTMOVE
 70
    0
  9
$DIMFXL
 40
1
  9
$DIMFXLON
 70
    0
  9
$DIMJOGANG
 40
0.7854
  9
$DIMTFILL
 70
    0
  9
$DIMTFILLCLR
 70
    0
  9
$DIMARCSYM
 70
    0
  9
$DIMLTYPE
  6

  9
$DIMLTEX1
  6

  9
$DIMLTEX2
  6

  9
$LUNITS
 70
    2
  9
$LUPREC
 70
    4
  9
$SKETCHINC
 40
1
  9
$FILLETRAD
 40
0
  9
$AUNITS
 70
    0
  9
$AUPREC
 70
    2
  9
$MENU
  1
.
  9
$ELEVATION
 40
0
  9
$PELEVATION
 40
0
  9
$THICKNESS
 40
0
  9
$LIMCHECK
 70
    0
  9
$CHAMFERA
 40
0
  9
$CHAMFERB
 40
0
  9
$CHAMFERC
 40
0
  9
$CHAMFERD
 40
0
  9
$SKPOLY
 70
    0
  9
$USRTIMER
 70
    1
  9
$ANGBASE
 50
0
  9
$ANGDIR
 70
    0
  9
$PDMODE
 70
   34
  9
$PDSIZE
 40
0
  9
$PLINEWID
 40
0
  9
$SPLFRAME
 70
    0
  9
$SPLINETYPE
 70
    2
  9
$SPLINESEGS
 70
    8
  9
$HANDSEED
  5
20000
  9
$SURFTAB1
 70
    6
  9
$SURFTAB2
 70
    6
  9
$SURFTYPE
 70
    6
  9
$SURFU
 70
    6
  9
$SURFV
 70
    6
  9
$UCSBASE
  2

  9
$UCSNAME
  2

  9
$UCSORG
 10
0
 20
0
 30
0
  9
$UCSXDIR
 10
1
 20
0
 30
0
  9
$UCSYDIR
 10
0
 20
1
 30
0
  9
$UCSORTHOREF
  2

  9
$UCSORTHOVIEW
 70
    0
  9
$UCSORGTOP
 10
0
 20
0
 30
0
  9
$UCSORGBOTTOM
 10
0
 20
0
 30
0
  9
$UCSORGLEFT
 10
0
 20
0
 30
0
  9
$UCSORGRIGHT
 10
0
 20
0
 30
0
  9
$UCSORGFRONT
 10
0
 20
0
 30
0
  9
$UCSORGBACK
 10
0
 20
0
 30
0
  9
$PUCSBASE
  2

  9
$PUCSNAME
  2

  9
$PUCSORG
 10
0
 20
0
 30
0
  9
$PUCSXDIR
 10
1
 20
0
 30
0
  9
$PUCSYDIR
 10
0
 20
1
 30
0
  9
$PUCSORTHOREF
  2

  9
$PUCSORTHOVIEW
 70
    0
  9
$PUCSORGTOP
 10
0
 20
0
 30
0
  9
$PUCSORGBOTTOM
 10
0
 20
0
 30
0
  9
$PUCSORGLEFT
 10
0
 20
0
 30
0
  9
$PUCSORGRIGHT
 10
0
 20
0
 30
0
  9
$PUCSORGFRONT
 10
0
 20
0
 30
0
  9
$PUCSORGBACK
 10
0
 20
0
 30
0
  9
$USERI1
 70
    0
  9
$USERI2
 70
    0
  9
$USERI3
 70
    0
  9
$USERI4
 70
    0
  9
$USERI5
 70
    0
  9
$USERR1
 40
0
  9
$USERR2
 40
0
  9
$USERR3
 40
0
  9
$USERR4
 40
0
  9
$USERR5
 40
0
  9
$WORLDVIEW
 70
    1
  9
$SHADEDGE
 70
    3
  9
$SHADEDIF
 70
   70
  9
$TILEMODE
 70
    1
  9
$MAXACTVP
 70
   64
  9
$PINSBASE
 10
0
 20
0
 30
0
  9
$PLIMCHECK
 70
    0
  9
$PEXTMIN
 10
0
 20
0
 30
0
  9
$PEXTMAX
 10
50
 20
50
 30
50
  9
$GRIDMODE
 70
    0
  9
$SNAPSTYLE
 70
    0
  9
$PLIMMIN
 10
0
 20
0
  9
$PLIMMAX
 10
2.1e-07
 20
2.97e-07
  9
$UNITMODE
 70
    0
  9
$VISRETAIN
 70
    1
  9
$PLINEGEN
 70
    0
  9
$PSLTSCALE
 70
    1
  9
$TREEDEPTH
 70
 3020
  9
$CMLSTYLE
  2
STANDARD
  9
$CMLJUST
 70
    0
  9
$CMLSCALE
 40
20
  9
$PROXYGRAPHICS
 70
    1
  9
$MEASUREMENT
 70
    1
  9
$CELWEIGHT
370
   -1
  9
$ENDCAPS
280
    0
  9
$JOINSTYLE
280
    0
  9
$LWDISPLAY
290
    0
  9
$INSUNITS
 70
    4
  9
$HYPERLINKBASE
  1

  9
$STYLESHEET
  1

  9
$XEDIT
290
    1
  9
$CEPSNTYPE
380
    0
  9
$PSTYLEMODE
290
    1
  9
$EXTNAMES
290
    1
  9
$PSVPSCALE
 40
1
  9
$OLESTARTUP
290
    0
  9
$SORTENTS
280
  127
  9
$INDEXCTL
280
    0
  9
$HIDETEXT
280
    1
  9
$XCLIPFRAME
290
    0
  9
$HALOGAP
280
    0
  9
$OBSCOLOR
 70
  257
  9
$OBSLTYPE
280
    0
  9
$INTERSECTIONDISPLAY
280
    0
  9
$INTERSECTIONCOLOR
 70
  257
  9
$DIMASSOC
280
    1
  9
$PROJECTNAME
  1

  9
$CAMERADISPLAY
290
    0
  9
$LENSLENGTH
 40
50
  9
$CAMERAHEIGHT
 40
0
  9
$STEPSPERSEC
 40
2
  9
$STEPSIZE
 40
50
  9
$3DDWFPREC
 40
2
  9
$PSOLWIDTH
 40
5
  9
$PSOLHEIGHT
 40
80
  9
$LOFTANG1
 40
1.570796326794897
  9
$LOFTANG2
 40
1.570796326794897
  9
$LOFTMAG1
 40
0
  9
$LOFTMAG2
 40
0
  9
$LOFTPARAM
 70
    7
  9
$LOFTNORMALS
280
    1
  9
$LATITUDE
 40
1
  9
$LONGITUDE
 40
1
  9
$NORTHDIRECTION
 40
0
  9
$TIMEZONE
 70
-8000
  9
$LIGHTGLYPHDISPLAY
280
    1
  9
$TILEMODELIGHTSYNCH
280
    1
  9
$SOLIDHIST
280
    1
  9
$SHOWHIST
280
    1
  9
$DWFFRAME
280
    2
  9
$DGNFRAME
280
    0
  9
$REALWORLDSCALE
290
    1
  9
$INTERFERECOLOR
 62
    1
  9
$CSHADOW
280
    0
  9
$SHADOWPLANELOCATION
 40
0
  0
ENDSEC
  0
SECTION
  2
CLASSES
  0
ENDSEC
  0
SECTION
  2
TABLES
  0
TABLE
  2
VPORT
  5
8
330
0
100
AcDbSymbolTable
 70
    1
  0
VPORT
  5
31
330
2
100
AcDbSymbolTableRecord
100
AcDbViewportTableRecord
  2
*ACTIVE
 70
    0
 10
0
 20
0
 11
1
 21
1
 12
1039.131878599545
 22
624.5653277296917
 13
0
 23
0
 14
10
 24
10
 15
10
 25
10
 16
0
 26
0
 36
1
 17
0
 27
0
 37
0
 40
2939.982876037737
 41
1.448275862068966
 42
50
 43
0
 44
0
 50
0
 51
0
 71
    0
 72
  100
 73
    1
 74
    3
 75
    0
 76
    0
 77
    0
 78
    0
281
    0
 65
    1
110
0
120
0
130
0
111
1
121
0
131
0
112
0
122
1
132
0
 79
    0
146
0
348
10020
 60
    7
 61
    5
292
1
282
    1
141
0
142
0
 63
  250
421
3358443
  0
ENDTAB
  0
TABLE
  2
LTYPE
  5
5
330
0
100
AcDbSymbolTable
 70
    4
  0
LTYPE
  5
14
330
5
100
AcDbSymbolTableRecord
100
AcDbLinetypeTableRecord
  2
ByBlock
 70
    0
  3

 72
   65
 73
    0
 40
0
  0
LTYPE
  5
15
330
5
100
AcDbSymbolTableRecord
100
AcDbLinetypeTableRecord
  2
ByLayer
 70
    0
  3

 72
   65
 73
    0
 40
0
  0
LTYPE
  5
16
330
5
100
AcDbSymbolTableRecord
100
AcDbLinetypeTableRecord
  2
Continuous
 70
    0
  3
Solid line
 72
   65
 73
    0
 40
0
  0
LTYPE
  5
32
330
5
100
AcDbSymbolTableRecord
100
AcDbLinetypeTableRecord
  2
DOT
 70
    0
  3
Dot . . . . . . . . . . . . . . . . . . . . . .
 72
   65
 73
    2
 40
6.35
 49
0
 74
    0
 49
-6.35
 74
    0
  0
LTYPE
  5
33
330
5
100
AcDbSymbolTableRecord
100
AcDbLinetypeTableRecord
  2
DOTTINY
 70
    0
  3
Dot (.15x) .....................................
 72
   65
 73
    2
 40
0.9525
 49
0
 74
    0
 49
-0.9525
 74
    0
  0
LTYPE
  5
34
330
5
100
AcDbSymbolTableRecord
100
AcDbLinetypeTableRecord
  2
DOT2
 70
    0
  3
Dot (.5x) .....................................
 72
   65
 73
    2
 40
3.175
 49
0
 74
    0
 49
-3.175
 74
    0
  0
LTYPE
  5
35
330
5
100
AcDbSymbolTableRecord
100
AcDbLinetypeTableRecord
  2
DOTX2
 70
    0
  3
Dot (2x) .  .  .  .  .  .  .  .  .  .  .  .  .
 72
   65
 73
    2
 40
12.7
 49
0
 74
    0
 49
-12.7
 74
    0
  0
LTYPE
  5
36
330
5
100
AcDbSymbolTableRecord
100
AcDbLinetypeTableRecord
  2
DASHED
 70
    0
  3
Dashed _ _ _ _ _ _ _ _ _ _ _ _ _ _ _ _ _
 72
   65
 73
    2
 40
19.05
 49
12.7
 74
    0
 49
-6.35
 74
    0
  0
LTYPE
  5
37
330
5
100
AcDbSymbolTableRecord
100
AcDbLinetypeTableRecord
  2
DASHEDTINY
 70
    0
  3
Dashed (.15x) _ _ _ _ _ _ _ _ _ _ _ _ _ _ _ _ _
 72
   65
 73
    2
 40
2.8575
 49
1.905
 74
    0
 49
-0.9525
 74
    0
  0
LTYPE
  5
38
330
5
100
AcDbSymbolTableRecord
100
AcDbLinetypeTableRecord
  2
DASHED2
 70
    0
  3
Dashed (.5x) _ _ _ _ _ _ _ _ _ _ _ _ _ _ _ _ _
 72
   65
 73
    2
 40
9.524999999999999
 49
6.35
 74
    0
 49
-3.175
 74
    0
  0
LTYPE
  5
39
330
5
100
AcDbSymbolTableRecord
100
AcDbLinetypeTableRecord
  2
DASHEDX2
 70
    0
  3
Dashed (2x) ____  ____  ____  ____  ____  ___
 72
   65
 73
    2
 40
38.09999999999999
 49
25.4
 74
    0
 49
-12.7
 74
    0
  0
LTYPE
  5
3A
330
5
100
AcDbSymbolTableRecord
100
AcDbLinetypeTableRecord
  2
DASHDOT
 70
    0
  3
Dash dot __ . __ . __ . __ . __ . __ . __ . __
 72
   65
 73
    4
 40
25.4
 49
12.7
 74
    0
 49
-6.35
 74
    0
 49
0
 74
    0
 49
-6.35
 74
    0
  0
LTYPE
  5
3B
330
5
100
AcDbSymbolTableRecord
100
AcDbLinetypeTableRecord
  2
DASHDOTTINY
 70
    0
  3
Dash dot (.15x) _._._._._._._._._._._._._._._.
 72
   65
 73
    4
 40
3.81
 49
1.905
 74
    0
 49
-0.9525
 74
    0
 49
0
 74
    0
 49
-0.9525
 74
    0
  0
LTYPE
  5
3C
330
5
100
AcDbSymbolTableRecord
100
AcDbLinetypeTableRecord
  2
DASHDOT2
 70
    0
  3
Dash dot (.5x) _._._._._._._._._._._._._._._.
 72
   65
 73
    4
 40
12.7
 49
6.35
 74
    0
 49
-3.175
 74
    0
 49
0
 74
    0
 49
-3.175
 74
    0
  0
LTYPE
  5
3D
330
5
100
AcDbSymbolTableRecord
100
AcDbLinetypeTableRecord
  2
DASHDOTX2
 70
    0
  3
Dash dot (2x) ____  .  ____  .  ____  .  ___
 72
   65
 73
    4
 40
50.8
 49
25.4
 74
    0
 49
-12.7
 74
    0
 49
0
 74
    0
 49
-12.7
 74
    0
  0
LTYPE
  5
3E
330
5
100
AcDbSymbolTableRecord
100
AcDbLinetypeTableRecord
  2
DIVIDE
 70
    0
  3
Divide ____ . . ____ . . ____ . . ____ . . ____
 72
   65
 73
    6
 40
31.75
 49
12.7
 74
    0
 49
-6.35
 74
    0
 49
0
 74
    0
 49
-6.35
 74
    0
 49
0
 74
    0
 49
-6.35
 74
    0
  0
LTYPE
  5
3F
330
5
100
AcDbSymbolTableRecord
100
AcDbLinetypeTableRecord
  2
DIVIDETINY
 70
    0
  3
Divide (.15x) __..__..__..__..__..__..__..__.._
 72
   65
 73
    6
 40
4.7625
 49
1.905
 74
    0
 49
-0.9525
 74
    0
 49
0
 74
    0
 49
-0.9525
 74
    0
 49
0
 74
    0
 49
-0.9525
 74
    0
  0
LTYPE
  5
40
330
5
100
AcDbSymbolTableRecord
100
AcDbLinetypeTableRecord
  2
DIVIDE2
 70
    0
  3
Divide (.5x) __..__..__..__..__..__..__..__.._
 72
   65
 73
    6
 40
15.875
 49
6.35
 74
    0
 49
-3.175
 74
    0
 49
0
 74
    0
 49
-3.175
 74
    0
 49
0
 74
    0
 49
-3.175
 74
    0
  0
LTYPE
  5
41
330
5
100
AcDbSymbolTableRecord
100
AcDbLinetypeTableRecord
  2
DIVIDEX2
 70
    0
  3
Divide (2x) ________  .  .  ________  .  .  _
 72
   65
 73
    6
 40
63.5
 49
25.4
 74
    0
 49
-12.7
 74
    0
 49
0
 74
    0
 49
-12.7
 74
    0
 49
0
 74
    0
 49
-12.7
 74
    0
  0
LTYPE
  5
42
330
5
100
AcDbSymbolTableRecord
100
AcDbLinetypeTableRecord
  2
BORDER
 70
    0
  3
Border __ __ . __ __ . __ __ . __ __ . __ __ .
 72
   65
 73
    6
 40
44.45
 49
12.7
 74
    0
 49
-6.35
 74
    0
 49
12.7
 74
    0
 49
-6.35
 74
    0
 49
0
 74
    0
 49
-6.35
 74
    0
  0
LTYPE
  5
43
330
5
100
AcDbSymbolTableRecord
100
AcDbLinetypeTableRecord
  2
BORDERTINY
 70
    0
  3
Border (.15x) __.__.__.__.__.__.__.__.__.__.__.
 72
   65
 73
    6
 40
6.6675
 49
1.905
 74
    0
 49
-0.9525
 74
    0
 49
1.905
 74
    0
 49
-0.9525
 74
    0
 49
0
 74
    0
 49
-0.9525
 74
    0
  0
LTYPE
  5
44
330
5
100
AcDbSymbolTableRecord
100
AcDbLinetypeTableRecord
  2
BORDER2
 70
    0
  3
Border (.5x) __.__.__.__.__.__.__.__.__.__.__.
 72
   65
 73
    6
 40
22.225
 49
6.35
 74
    0
 49
-3.175
 74
    0
 49
6.35
 74
    0
 49
-3.175
 74
    0
 49
0
 74
    0
 49
-3.175
 74
    0
  0
LTYPE
  5
45
330
5
100
AcDbSymbolTableRecord
100
AcDbLinetypeTableRecord
  2
BORDERX2
 70
    0
  3
Border (2x) ____  ____  .  ____  ____  .  ___
 72
   65
 73
    6
 40
88.89999999999999
 49
25.4
 74
    0
 49
-12.7
 74
    0
 49
25.4
 74
    0
 49
-12.7
 74
    0
 49
0
 74
    0
 49
-12.7
 74
    0
  0
LTYPE
  5
46
330
5
100
AcDbSymbolTableRecord
100
AcDbLinetypeTableRecord
  2
CENTER
 70
    0
  3
Center ____ _ ____ _ ____ _ ____ _ ____ _ ____
 72
   65
 73
    4
 40
50.8
 49
31.75
 74
    0
 49
-6.35
 74
    0
 49
6.35
 74
    0
 49
-6.35
 74
    0
  0
LTYPE
  5
47
330
5
100
AcDbSymbolTableRecord
100
AcDbLinetypeTableRecord
  2
CENTERTINY
 70
    0
  3
Center (.15x) ___ _ ___ _ ___ _ ___ _ ___ _ ___
 72
   65
 73
    4
 40
7.619999999999999
 49
4.7625
 74
    0
 49
-0.9525
 74
    0
 49
0.9525
 74
    0
 49
-0.9525
 74
    0
  0
LTYPE
  5
48
330
5
100
AcDbSymbolTableRecord
100
AcDbLinetypeTableRecord
  2
CENTER2
 70
    0
  3
Center (.5x) ___ _ ___ _ ___ _ ___ _ ___ _ ___
 72
   65
 73
    4
 40
28.575
 49
19.05
 74
    0
 49
-3.175
 74
    0
 49
3.175
 74
    0
 49
-3.175
 74
    0
  0
LTYPE
  5
49
330
5
100
AcDbSymbolTableRecord
100
AcDbLinetypeTableRecord
  2
CENTERX2
 70
    0
  3
Center (2x) ________  __  ________  __  _____
 72
   65
 73
    4
 40
101.6
 49
63.5
 74
    0
 49
-12.7
 74
    0
 49
12.7
 74
    0
 49
-12.7
 74
    0
  0
ENDTAB
  0
TABLE
  2
LAYER
  5
2
330
0
100
AcDbSymbolTable
 70
    1
  0
LAYER
  5
10
330
2
100
AcDbSymbolTableRecord
100
AcDbLayerTableRecord
  2
0
 70
    0
 62
    7
  6
CONTINUOUS
370
   -3
390
F
  0
LAYER
  5
4A
330
2
100
AcDbSymbolTableRecord
100
AcDbLayerTableRecord
  2
ProjItem221
 70
    0
 62
    7
  6
CONTINUOUS
370
   -3
390
F
  0
LAYER
  5
4B
330
2
100
AcDbSymbolTableRecord
100
AcDbLayerTableRecord
  2
ProjItem222
 70
    0
 62
    7
  6
CONTINUOUS
370
   -3
390
F
  0
LAYER
  5
4C
330
2
100
AcDbSymbolTableRecord
100
AcDbLayerTableRecord
  2
ProjItem223
 70
    0
 62
    7
  6
CONTINUOUS
370
   -3
390
F
  0
LAYER
  5
4D
330
2
100
AcDbSymbolTableRecord
100
AcDbLayerTableRecord
  2
ProjItem224
 70
    0
 62
    7
  6
CONTINUOUS
370
   -3
390
F
  0
LAYER
  5
4E
330
2
100
AcDbSymbolTableRecord
100
AcDbLayerTableRecord
  2
ProjItem238
 70
    0
 62
    7
  6
CONTINUOUS
370
   -3
390
F
  0
ENDTAB
  0
TABLE
  2
STYLE
  5
3
330
0
100
AcDbSymbolTable
 70
    3
  0
STYLE
  5
4F
330
2
100
AcDbSymbolTableRecord
100
AcDbTextStyleTableRecord
  2
Standard
 70
    0
 40
0
 41
1
 50
0
 71
    0
 42
1
  3
txt
  4

  0
ENDTAB
  0
TABLE
  2
VIEW
  5
6
330
0
100
AcDbSymbolTable
 70
    0
  0
ENDTAB
  0
TABLE
  2
UCS
  5
7
330
0
100
AcDbSymbolTable
 70
    0
  0
ENDTAB
  0
TABLE
  2
APPID
  5
9
330
0
100
AcDbSymbolTable
 70
    1
  0
APPID
  5
12
330
9
100
AcDbSymbolTableRecord
100
AcDbRegAppTableRecord
  2
ACAD
 70
    0
  0
APPID
  5
50
330
9
100
AcDbSymbolTableRecord
100
AcDbRegAppTableRecord
  2
LibreCad
 70
    0
  0
ENDTAB
  0
TABLE
  2
DIMSTYLE
  5
A
330
0
100
AcDbSymbolTable
 70
    1
100
AcDbDimStyleTable
 71
    1
  0
DIMSTYLE
105
51
330
A
100
AcDbSymbolTableRecord
100
AcDbDimStyleTableRecord
  2
Standard
 70
    0
 40
1
 41
2.5
 42
0.625
 43
0.38
 44
1.25
 45
0
 46
0
 47
0
 48
0
 49
1
140
2.5
141
0.09
142
2.5
143
25.4
144
1
145
0
146
1
147
0.625
148
0
 71
    0
 72
    0
 73
    0
 74
    1
 75
    0
 76
    0
 77
    0
 78
    1
 79
    0
170
    0
171
    2
172
    0
173
    0
174
    0
175
    0
176
    0
177
    0
178
    0
179
    0
271
    2
272
    4
273
    2
274
    2
275
    0
276
    0
277
    2
278
    0
279
    0
280
    0
281
    0
282
    0
283
    1
284
    0
285
    0
286
    0
288
    0
289
    3
340
STANDARD
341

371
   -2
372
   -2
  0
ENDTAB
  0
TABLE
  2
BLOCK_RECORD
  5
1
330
0
100
AcDbSymbolTable
 70
    2
  0
BLOCK_RECORD
  5
1F
330
1
100
AcDbSymbolTableRecord
100
AcDbBlockTableRecord
  2
*Model_Space
 70
    0
280
    1
281
    0
  0
BLOCK_RECORD
  5
1E
330
1
100
AcDbSymbolTableRecord
100
AcDbBlockTableRecord
  2
*Paper_Space
 70
    0
280
    1
281
    0
  0
ENDTAB
  0
ENDSEC
  0
SECTION
  2
BLOCKS
  0
BLOCK
  5
20
330
1F
100
AcDbEntity
  8
0
100
AcDbBlockBegin
  2
*Model_Space
 70
    0
 10
0
 20
0
 30
0
  3
*Model_Space
  1

  0
ENDBLK
  5
21
330
1F
100
AcDbEntity
  8
0
100
AcDbBlockEnd
  0
BLOCK
  5
1C
330
1B
100
AcDbEntity
  8
0
100
AcDbBlockBegin
  2
*Paper_Space
 70
    0
 10
0
 20
0
 30
0
  3
*Paper_Space
  1

  0
ENDBLK
  5
1D
330
1F
100
AcDbEntity
  8
0
100
AcDbBlockEnd
  0
ENDSEC
  0
SECTION
  2
ENTITIES
  0
LINE
  5
52
100
AcDbEntity
  8
ProjItem221
  6
ByLayer
 62
  256
370
   -1
100
AcDbLine
 10
1029.41
 20
474.563
 11
1209.41
 21
474.563
  0
LINE
  5
53
100
AcDbEntity
  8
ProjItem221
  6
ByLayer
 62
  256
370
   -1
100
AcDbLine
 10
1209.41
 20
474.563
 11
1209.41
 21
475.523
  0
LINE
  5
54
100
AcDbEntity
  8
ProjItem221
  6
ByLayer
 62
  256
370
   -1
100
AcDbLine
 10
1029.41
 20
475.523
 11
1209.41
 21
475.523
  0
LINE
  5
55
100
AcDbEntity
  8
ProjItem221
  6
ByLayer
 62
  256
370
   -1
100
AcDbLine
 10
1029.41
 20
474.563
 11
1029.41
 21
475.523
  0
SPLINE
  5
56
100
AcDbEntity
  8
ProjItem221
  6
ByLayer
 62
  256
370
   -1
100
AcDbSpline
210
0
220
0
230
0
 70
    8
 71
    1
 72
   17
 73
   15
 74
    0
 42
1e-07
 43
1e-07
 40
0
 40
0
 40
0.1122
 40
0.224399
 40
0.336599
 40
0.448799
 40
0.560999
 40
0.673198
 40
0.785398
 40
0.897598
 40
1.0098
 40
1.122
 40
1.2342
 40
1.3464
 40
1.4586
 40
1.5708
 40
1.5708
 10
677.829
 20
526.563
 30
0
 10
677.88
 20
526.4
 30
0
 10
678.032
 20
525.9109999999999
 30
0
 10
678.283
 20
525.104
 30
0
 10
678.631
 20
523.9880000000001
 30
0
 10
679.0700000000001
 20
522.578
 30
0
 10
679.596
 20
520.891
 30
0
 10
680.201
 20
518.948
 30
0
 10
680.878
 20
516.774
 30
0
 10
681.619
 20
514.396
 30
0
 10
682.414
 20
511.844
 30
0
 10
683.253
 20
509.15
 30
0
 10
684.126
 20
506.349
 30
0
 10
685.022
 20
503.474
 30
0
 10
685.928
 20
500.563
 30
0
  0
LINE
  5
57
100
AcDbEntity
  8
ProjItem221
  6
ByLayer
 62
  256
370
   -1
100
AcDbLine
 10
693.729
 20
475.523
 11
1029.41
 21
475.523
  0
LINE
  5
58
100
AcDbEntity
  8
ProjItem221
  6
ByLayer
 62
  256
370
   -1
100
AcDbLine
 10
1209.41
 20
475.523
 11
1214.41
 21
475.523
  0
LINE
  5
59
100
AcDbEntity
  8
ProjItem221
  6
ByLayer
 62
  256
370
   -1
100
AcDbLine
 10
1114.41
 20
474.563
 11
1114.41
 21
389.563
  0
LINE
  5
5A
100
AcDbEntity
  8
ProjItem221
  6
ByLayer
 62
  256
370
   -1
100
AcDbLine
 10
1114.41
 20
389.563
 11
1124.41
 21
389.563
  0
LINE
  5
5B
100
AcDbEntity
  8
ProjItem221
  6
ByLayer
 62
  256
370
   -1
100
AcDbLine
 10
1124.41
 20
389.563
 11
1124.41
 21
474.563
  0
LINE
  5
5C
100
AcDbEntity
  8
ProjItem221
  6
ByLayer
 62
  256
370
   -1
100
AcDbLine
 10
-35.6009
 20
-27.716
 11
-21.5581
 21
-18.0264
  0
LINE
  5
5D
100
AcDbEntity
  8
ProjItem221
  6
ByLayer
 62
  256
370
   -1
100
AcDbLine
 10
-21.5581
 20
-18.0264
 11
126.598
 21
84.2015
  0
LINE
  5
5E
100
AcDbEntity
  8
ProjItem221
  6
ByLayer
 62
  256
370
   -1
100
AcDbLine
 10
126.598
 20
84.2015
 11
693.729
 21
475.523
  0
LINE
  5
5F
100
AcDbEntity
  8
ProjItem221
  6
ByLayer
 62
  256
370
   -1
100
AcDbLine
 10
700.841
 20
389.563
 11
1114.41
 21
389.563
  0
LINE
  5
60
100
AcDbEntity
  8
ProjItem221
  6
ByLayer
 62
  256
370
   -1
100
AcDbLine
 10
5.41217
 20
-85.3486
 11
335.736
 21
140.231
  0
LINE
  5
61
100
AcDbEntity
  8
ProjItem221
  6
ByLayer
 62
  256
370
   -1
100
AcDbLine
 10
-4.58783
 20
-92.1776
 11
5.41217
 21
-85.3486
  0
LINE
  5
62
100
AcDbEntity
  8
ProjItem221
  6
ByLayer
 62
  256
370
   -1
100
AcDbLine
 10
-4.58783
 20
-989.937
 11
-4.58783
 21
-92.1776
  0
LINE
  5
63
100
AcDbEntity
  8
ProjItem221
  6
ByLayer
 62
  256
370
   -1
100
AcDbLine
 10
5.41217
 20
-989.937
 11
-4.58783
 21
-989.937
  0
LINE
  5
64
100
AcDbEntity
  8
ProjItem221
  6
ByLayer
 62
  256
370
   -1
100
AcDbLine
 10
5.41217
 20
-823.396
 11
5.41217
 21
-989.937
  0
LINE
  5
65
100
AcDbEntity
  8
ProjItem221
  6
ByLayer
 62
  256
370
   -1
100
AcDbLine
 10
5.41217
 20
-823.396
 11
532.513
 21
-463.437
  0
LINE
  5
66
100
AcDbEntity
  8
ProjItem221
  6
ByLayer
 62
  256
370
   -1
100
AcDbLine
 10
1114.41
 20
-463.437
 11
532.513
 21
-463.437
  0
LINE
  5
67
100
AcDbEntity
  8
ProjItem221
  6
ByLayer
 62
  256
370
   -1
100
AcDbLine
 10
1124.41
 20
-463.437
 11
1114.41
 21
-463.437
  0
LINE
  5
68
100
AcDbEntity
  8
ProjItem221
  6
ByLayer
 62
  256
370
   -1
100
AcDbLine
 10
1124.41
 20
-463.437
 11
1631.42
 21
-463.437
  0
LINE
  5
69
100
AcDbEntity
  8
ProjItem221
  6
ByLayer
 62
  256
370
   -1
100
AcDbLine
 10
1124.41
 20
-453.437
 11
1631.42
 21
-453.437
  0
LINE
  5
6A
100
AcDbEntity
  8
ProjItem221
  6
ByLayer
 62
  256
370
   -1
100
AcDbLine
 10
1124.41
 20
379.563
 11
1124.41
 21
-453.437
  0
LINE
  5
6B
100
AcDbEntity
  8
ProjItem221
  6
ByLayer
 62
  256
370
   -1
100
AcDbLine
 10
1345.99
 20
379.563
 11
1124.41
 21
379.563
  0
LINE
  5
6C
100
AcDbEntity
  8
ProjItem221
  6
ByLayer
 62
  256
370
   -1
100
AcDbLine
 10
1671.42
 20
-122.395
 11
1345.99
 21
379.563
  0
LINE
  5
6D
100
AcDbEntity
  8
ProjItem221
  6
ByLayer
 62
  256
370
   -1
100
AcDbLine
 10
1671.42
 20
-373.437
 11
1671.42
 21
-122.395
  0
LINE
  5
6E
100
AcDbEntity
  8
ProjItem221
  6
ByLayer
 62
  256
370
   -1
100
AcDbLine
 10
1681.42
 20
-119.437
 11
1681.42
 21
-373.437
  0
LINE
  5
6F
100
AcDbEntity
  8
ProjItem221
  6
ByLayer
 62
  256
370
   -1
100
AcDbLine
 10
1351.42
 20
389.563
 11
1681.42
 21
-119.437
  0
LINE
  5
70
100
AcDbEntity
  8
ProjItem221
  6
ByLayer
 62
  256
370
   -1
100
AcDbLine
 10
1124.41
 20
389.563
 11
1351.42
 21
389.563
  0
LINE
  5
71
100
AcDbEntity
  8
ProjItem221
  6
ByLayer
 62
  256
370
   -1
100
AcDbLine
 10
335.736
 20
140.231
 11
700.841
 21
389.563
  0
LINE
  5
72
100
AcDbEntity
  8
ProjItem221
  6
ByLayer
 62
  256
370
   -1
100
AcDbLine
 10
5.41217
 20
-97.4579
 11
5.41217
 21
-811.287
  0
LINE
  5
73
100
AcDbEntity
  8
ProjItem221
  6
ByLayer
 62
  256
370
   -1
100
AcDbLine
 10
703.9299999999999
 20
379.563
 11
5.41217
 21
-97.4579
  0
LINE
  5
74
100
AcDbEntity
  8
ProjItem221
  6
ByLayer
 62
  256
370
   -1
100
AcDbLine
 10
5.41217
 20
-811.287
 11
529.424
 21
-453.437
  0
LINE
  5
75
100
AcDbEntity
  8
ProjItem221
  6
ByLayer
 62
  256
370
   -1
100
AcDbLine
 10
1114.41
 20
379.563
 11
703.9299999999999
 21
379.563
  0
LINE
  5
76
100
AcDbEntity
  8
ProjItem221
  6
ByLayer
 62
  256
370
   -1
100
AcDbLine
 10
529.424
 20
-453.437
 11
1114.41
 21
-453.437
  0
LINE
  5
77
100
AcDbEntity
  8
ProjItem221
  6
ByLayer
 62
  256
370
   -1
100
AcDbLine
 10
1114.41
 20
-453.437
 11
1114.41
 21
379.563
  0
LINE
  5
78
100
AcDbEntity
  8
ProjItem221
  6
ByLayer
 62
  256
370
   -1
100
AcDbLine
 10
-21.104
 20
-18.6913
 11
127.542
 21
82.81950000000001
  0
LINE
  5
79
100
AcDbEntity
  8
ProjItem221
  6
ByLayer
 62
  256
370
   -1
100
AcDbLine
 10
127.542
 20
82.81950000000001
 11
126.598
 21
84.2015
  0
LINE
  5
7A
100
AcDbEntity
  8
ProjItem221
  6
ByLayer
 62
  256
370
   -1
100
AcDbLine
 10
-21.104
 20
-18.6913
 11
-21.5581
 21
-18.0264
  0
LINE
  5
7B
100
AcDbEntity
  8
ProjItem221
  6
ByLayer
 62
  256
370
   -1
100
AcDbLine
 10
-4.58783
 20
-92.1776
 11
-4.58783
 21
-7.41233
  0
LINE
  5
7C
100
AcDbEntity
  8
ProjItem221
  6
ByLayer
 62
  256
370
   -1
100
AcDbLine
 10
5.41217
 20
-0.583282
 11
5.41217
 21
-85.3486
  0
LINE
  5
7D
100
AcDbEntity
  8
ProjItem221
  6
ByLayer
 62
  256
370
   -1
100
AcDbLine
 10
1631.42
 20
-373.437
 11
1631.42
 21
-463.437
  0
LINE
  5
7E
100
AcDbEntity
  8
ProjItem221
  6
ByLayer
 62
  256
370
   -1
100
AcDbLine
 10
1681.42
 20
-373.437
 11
1631.42
 21
-373.437
  0
LINE
  5
7F
100
AcDbEntity
  8
ProjItem221
  6
ByLayer
 62
  256
370
   -1
100
AcDbLine
 10
45.4122
 20
-924.937
 11
5.41217
 21
-924.937
  0
LINE
  5
80
100
AcDbEntity
  8
ProjItem221
  6
ByLayer
 62
  256
370
   -1
100
AcDbLine
 10
-4.58783
 20
-989.937
 11
-4.58783
 21
-1014.94
  0
LINE
  5
81
100
AcDbEntity
  8
ProjItem221
  6
ByLayer
 62
  256
370
   -1
100
AcDbLine
 10
-4.58783
 20
-1014.94
 11
45.4122
 21
-1014.94
  0
LINE
  5
82
100
AcDbEntity
  8
ProjItem221
  6
ByLayer
 62
  256
370
   -1
100
AcDbLine
 10
45.4122
 20
-1014.94
 11
45.4122
 21
-924.937
  0
CIRCLE
  5
83
100
AcDbEntity
  8
ProjItem221
  6
ByLayer
 62
  256
370
   -1
100
AcDbCircle
 10
25.4122
 20
-994.937
 40
5.5
  0
CIRCLE
  5
84
100
AcDbEntity
  8
ProjItem221
  6
ByLayer
 62
  256
370
   -1
100
AcDbCircle
 10
25.4122
 20
-944.937
 40
5.5
  0
LINE
  5
85
100
AcDbEntity
  8
ProjItem221
  6
ByLayer
 62
  256
370
   -1
100
AcDbLine
 10
1631.42
 20
-463.437
 11
1681.42
 21
-463.437
  0
LINE
  5
86
100
AcDbEntity
  8
ProjItem221
  6
ByLayer
 62
  256
370
   -1
100
AcDbLine
 10
1681.42
 20
-463.437
 11
1681.42
 21
-373.437
  0
CIRCLE
  5
87
100
AcDbEntity
  8
ProjItem221
  6
ByLayer
 62
  256
370
   -1
100
AcDbCircle
 10
1651.42
 20
-433.437
 40
5.5
  0
CIRCLE
  5
88
100
AcDbEntity
  8
ProjItem221
  6
ByLayer
 62
  256
370
   -1
100
AcDbCircle
 10
1651.42
 20
-393.437
 40
5.5
  0
LINE
  5
89
100
AcDbEntity
  8
ProjItem221
  6
ByLayer
 62
  256
370
   -1
100
AcDbLine
 10
1452.62
 20
215.094
 11
1452.62
 21
-453.437
  0
LINE
  5
8A
100
AcDbEntity
  8
ProjItem221
  6
ByLayer
 62
  256
370
   -1
100
AcDbLine
 10
1444.62
 20
-453.437
 11
1444.62
 21
227.433
  0
LINE
  5
8B
100
AcDbEntity
  8
ProjItem221
  6
ByLayer
 62
  256
370
   -1
100
AcDbLine
 10
1554.02
 20
58.6887
 11
1554.02
 21
-453.437
  0
LINE
  5
8C
100
AcDbEntity
  8
ProjItem221
  6
ByLayer
 62
  256
370
   -1
100
AcDbLine
 10
1562.02
 20
-453.437
 11
1562.02
 21
46.3493
  0
LINE
  5
8D
100
AcDbEntity
  8
ProjItem221
  6
ByLayer
 62
  256
370
   -1
100
AcDbLine
 10
1225.81
 20
379.563
 11
1225.81
 21
-453.437
  0
LINE
  5
8E
100
AcDbEntity
  8
ProjItem221
  6
ByLayer
 62
  256
370
   -1
100
AcDbLine
 10
1233.81
 20
-453.437
 11
1233.81
 21
379.563
  0
LINE
  5
8F
100
AcDbEntity
  8
ProjItem221
  6
ByLayer
 62
  256
370
   -1
100
AcDbLine
 10
1335.22
 20
379.563
 11
1335.22
 21
-453.437
  0
LINE
  5
90
100
AcDbEntity
  8
ProjItem221
  6
ByLayer
 62
  256
370
   -1
100
AcDbLine
 10
1343.22
 20
-453.437
 11
1343.22
 21
379.563
  0
LINE
  5
91
100
AcDbEntity
  8
ProjItem221
  6
ByLayer
 62
  256
370
   -1
100
AcDbLine
 10
670.812
 20
-453.437
 11
670.812
 21
356.947
  0
LINE
  5
92
100
AcDbEntity
  8
ProjItem221
  6
ByLayer
 62
  256
370
   -1
100
AcDbLine
 10
662.812
 20
351.483
 11
662.812
 21
-453.437
  0
LINE
  5
93
100
AcDbEntity
  8
ProjItem221
  6
ByLayer
 62
  256
370
   -1
100
AcDbLine
 10
551.912
 20
-453.437
 11
551.912
 21
275.749
  0
LINE
  5
94
100
AcDbEntity
  8
ProjItem221
  6
ByLayer
 62
  256
370
   -1
100
AcDbLine
 10
559.912
 20
281.213
 11
559.912
 21
-453.437
  0
LINE
  5
95
100
AcDbEntity
  8
ProjItem221
  6
ByLayer
 62
  256
370
   -1
100
AcDbLine
 10
449.012
 20
-508.35
 11
449.012
 21
205.478
  0
LINE
  5
96
100
AcDbEntity
  8
ProjItem221
  6
ByLayer
 62
  256
370
   -1
100
AcDbLine
 10
441.012
 20
200.015
 11
441.012
 21
-513.814
  0
LINE
  5
97
100
AcDbEntity
  8
ProjItem221
  6
ByLayer
 62
  256
370
   -1
100
AcDbLine
 10
330.112
 20
-589.548
 11
330.112
 21
124.281
  0
LINE
  5
98
100
AcDbEntity
  8
ProjItem221
  6
ByLayer
 62
  256
370
   -1
100
AcDbLine
 10
338.112
 20
129.744
 11
338.112
 21
-584.0839999999999
  0
LINE
  5
99
100
AcDbEntity
  8
ProjItem221
  6
ByLayer
 62
  256
370
   -1
100
AcDbLine
 10
219.212
 20
48.5471
 11
219.212
 21
-665.282
  0
LINE
  5
9A
100
AcDbEntity
  8
ProjItem221
  6
ByLayer
 62
  256
370
   -1
100
AcDbLine
 10
227.212
 20
-659.819
 11
227.212
 21
54.0103
  0
LINE
  5
9B
100
AcDbEntity
  8
ProjItem221
  6
ByLayer
 62
  256
370
   -1
100
AcDbLine
 10
108.312
 20
-27.187
 11
108.312
 21
-741.016
  0
LINE
  5
9C
100
AcDbEntity
  8
ProjItem221
  6
ByLayer
 62
  256
370
   -1
100
AcDbLine
 10
116.312
 20
-735.553
 11
116.312
 21
-21.7238
  0
LINE
  5
9D
100
AcDbEntity
  8
ProjItem221
  6
ByLayer
 62
  256
370
   -1
100
AcDbLine
 10
995.5119999999999
 20
-453.437
 11
995.5119999999999
 21
379.563
  0
LINE
  5
9E
100
AcDbEntity
  8
ProjItem221
  6
ByLayer
 62
  256
370
   -1
100
AcDbLine
 10
1003.51
 20
379.563
 11
1003.51
 21
-453.437
  0
LINE
  5
9F
100
AcDbEntity
  8
ProjItem221
  6
ByLayer
 62
  256
370
   -1
100
AcDbLine
 10
884.612
 20
-453.437
 11
884.612
 21
379.563
  0
LINE
  5
A0
100
AcDbEntity
  8
ProjItem221
  6
ByLayer
 62
  256
370
   -1
100
AcDbLine
 10
892.612
 20
379.563
 11
892.612
 21
-453.437
  0
LINE
  5
A1
100
AcDbEntity
  8
ProjItem221
  6
ByLayer
 62
  256
370
   -1
100
AcDbLine
 10
781.712
 20
-453.437
 11
781.712
 21
379.563
  0
LINE
  5
A2
100
AcDbEntity
  8
ProjItem221
  6
ByLayer
 62
  256
370
   -1
100
AcDbLine
 10
773.712
 20
379.563
 11
773.712
 21
-453.437
  0
LINE
  5
A3
100
AcDbEntity
  8
ProjItem221
  6
ByLayer
 62
  256
370
   -1
100
AcDbLine
 10
677.829
 20
526.563
 11
1214.41
 21
526.563
  0
LINE
  5
A4
100
AcDbEntity
  8
ProjItem221
  6
ByLayer
 62
  256
370
   -1
100
AcDbLine
 10
-64.5878
 20
14.294
 11
677.829
 21
526.563
  0
SPLINE
  5
A5
100
AcDbEntity
  8
ProjItem223
  6
ByLayer
 62
  256
370
   -1
100
AcDbSpline
210
0
220
0
230
0
 70
    8
 71
    1
 72
   17
 73
   15
 74
    0
 42
1e-07
 43
1e-07
 40
0
 40
0
 40
0.1122
 40
0.224399
 40
0.336599
 40
0.448799
 40
0.560999
 40
0.673198
 40
0.785398
 40
0.897598
 40
1.0098
 40
1.122
 40
1.2342
 40
1.3464
 40
1.4586
 40
1.5708
 40
1.5708
 10
2012.84
 20
526.563
 30
0
 10
2015.75
 20
526.4
 30
0
 10
2018.62
 20
525.9109999999999
 30
0
 10
2021.42
 20
525.104
 30
0
 10
2024.12
 20
523.9880000000001
 30
0
 10
2026.67
 20
522.578
 30
0
 10
2029.05
 20
520.891
 30
0
 10
2031.22
 20
518.948
 30
0
 10
2033.16
 20
516.774
 30
0
 10
2034.85
 20
514.396
 30
0
 10
2036.26
 20
511.844
 30
0
 10
2037.38
 20
509.15
 30
0
 10
2038.18
 20
506.349
 30
0
 10
2038.67
 20
503.474
 30
0
 10
2038.84
 20
500.563
 30
0
  0
LINE
  5
A6
100
AcDbEntity
  8
ProjItem223
  6
ByLayer
 62
  256
370
   -1
100
AcDbLine
 10
2005.84
 20
-27.716
 11
2005.84
 21
-24.3908
  0
ELLIPSE
  5
A7
100
AcDbEntity
  8
ProjItem223
  6
ByLayer
 62
  256
370
   -1
100
AcDbEllipse
 10
2012.84
 20
-7.1061
 30
0
 11
-26
 21
3.04578e-14
 31
0
 40
0.823079
 41
1.84339
 42
3.14159
  0
ELLIPSE
  5
A8
100
AcDbEntity
  8
ProjItem223
  6
ByLayer
 62
  256
370
   -1
100
AcDbEllipse
 10
2012.84
 20
-7.1061
 30
0
 11
-26
 21
3.04578e-14
 31
0
 40
0.823079
 41
3.14159
 42
0
  0
ELLIPSE
  5
A9
100
AcDbEntity
  8
ProjItem223
  6
ByLayer
 62
  256
370
   -1
100
AcDbEllipse
 10
2012.84
 20
-7.1061
 30
0
 11
-26
 21
3.04578e-14
 31
0
 40
0.823079
 41
0
 42
1.2982
  0
LINE
  5
AA
100
AcDbEntity
  8
ProjItem223
  6
ByLayer
 62
  256
370
   -1
100
AcDbLine
 10
2019.84
 20
-27.716
 11
2019.84
 21
-24.3908
  0
LINE
  5
AB
100
AcDbEntity
  8
ProjItem223
  6
ByLayer
 62
  256
370
   -1
100
AcDbLine
 10
2032.84
 20
-85.3486
 11
2032.84
 21
-20.7801
  0
LINE
  5
AC
100
AcDbEntity
  8
ProjItem223
  6
ByLayer
 62
  256
370
   -1
100
AcDbLine
 10
2032.84
 20
-92.1776
 11
2032.84
 21
-85.3486
  0
LINE
  5
AD
100
AcDbEntity
  8
ProjItem223
  6
ByLayer
 62
  256
370
   -1
100
AcDbLine
 10
2032.84
 20
-989.937
 11
2032.84
 21
-92.1776
  0
LINE
  5
AE
100
AcDbEntity
  8
ProjItem223
  6
ByLayer
 62
  256
370
   -1
100
AcDbLine
 10
1992.84
 20
-85.3486
 11
1992.84
 21
-20.7801
  0
LINE
  5
AF
100
AcDbEntity
  8
ProjItem223
  6
ByLayer
 62
  256
370
   -1
100
AcDbLine
 10
1992.84
 20
-92.1776
 11
1992.84
 21
-85.3486
  0
LINE
  5
B0
100
AcDbEntity
  8
ProjItem223
  6
ByLayer
 62
  256
370
   -1
100
AcDbLine
 10
1992.84
 20
-924.937
 11
1992.84
 21
-92.1776
  0
LINE
  5
B1
100
AcDbEntity
  8
ProjItem223
  6
ByLayer
 62
  256
370
   -1
100
AcDbLine
 10
2005.84
 20
-24.3908
 11
2005.84
 21
-27.716
  0
LINE
  5
B2
100
AcDbEntity
  8
ProjItem223
  6
ByLayer
 62
  256
370
   -1
100
AcDbLine
 10
2012.84
 20
-24.3908
 11
2005.84
 21
-24.3908
  0
LINE
  5
B3
100
AcDbEntity
  8
ProjItem223
  6
ByLayer
 62
  256
370
   -1
100
AcDbLine
 10
2019.84
 20
-24.3908
 11
2019.84
 21
-27.716
  0
LINE
  5
B4
100
AcDbEntity
  8
ProjItem223
  6
ByLayer
 62
  256
370
   -1
100
AcDbLine
 10
2012.84
 20
-24.3908
 11
2019.84
 21
-24.3908
  0
LINE
  5
B5
100
AcDbEntity
  8
ProjItem223
  6
ByLayer
 62
  256
370
   -1
100
AcDbLine
 10
2032.84
 20
-92.1776
 11
2022.45
 21
-26.9882
  0
LINE
  5
B6
100
AcDbEntity
  8
ProjItem223
  6
ByLayer
 62
  256
370
   -1
100
AcDbLine
 10
2023.48
 20
-26.6292
 11
2032.84
 21
-85.3486
  0
LINE
  5
B7
100
AcDbEntity
  8
ProjItem223
  6
ByLayer
 62
  256
370
   -1
100
AcDbLine
 10
1992.84
 20
-989.937
 11
1992.84
 21
-924.937
  0
LINE
  5
B8
100
AcDbEntity
  8
ProjItem223
  6
ByLayer
 62
  256
370
   -1
100
AcDbLine
 10
1992.84
 20
-989.937
 11
2032.84
 21
-989.937
  0
LINE
  5
B9
100
AcDbEntity
  8
ProjItem223
  6
ByLayer
 62
  256
370
   -1
100
AcDbLine
 10
1992.84
 20
-92.1776
 11
2003.22
 21
-26.9882
  0
LINE
  5
BA
100
AcDbEntity
  8
ProjItem223
  6
ByLayer
 62
  256
370
   -1
100
AcDbLine
 10
2032.84
 20
-373.437
 11
2040.84
 21
-373.437
  0
LINE
  5
BB
100
AcDbEntity
  8
ProjItem223
  6
ByLayer
 62
  256
370
   -1
100
AcDbLine
 10
2032.84
 20
-463.437
 11
2040.84
 21
-463.437
  0
LINE
  5
BC
100
AcDbEntity
  8
ProjItem223
  6
ByLayer
 62
  256
370
   -1
100
AcDbLine
 10
2040.84
 20
-373.437
 11
2040.84
 21
-463.437
  0
LINE
  5
BD
100
AcDbEntity
  8
ProjItem223
  6
ByLayer
 62
  256
370
   -1
100
AcDbLine
 10
2002.19
 20
-26.6292
 11
1992.84
 21
-85.3486
  0
LINE
  5
BE
100
AcDbEntity
  8
ProjItem223
  6
ByLayer
 62
  256
370
   -1
100
AcDbLine
 10
1992.84
 20
-924.937
 11
1984.84
 21
-924.937
  0
LINE
  5
BF
100
AcDbEntity
  8
ProjItem223
  6
ByLayer
 62
  256
370
   -1
100
AcDbLine
 10
1992.84
 20
-1014.94
 11
1984.84
 21
-1014.94
  0
LINE
  5
C0
100
AcDbEntity
  8
ProjItem223
  6
ByLayer
 62
  256
370
   -1
100
AcDbLine
 10
1992.84
 20
-989.937
 11
1992.84
 21
-1014.94
  0
LINE
  5
C1
100
AcDbEntity
  8
ProjItem223
  6
ByLayer
 62
  256
370
   -1
100
AcDbLine
 10
1984.84
 20
-924.937
 11
1984.84
 21
-1014.94
  0
LINE
  5
C2
100
AcDbEntity
  8
ProjItem223
  6
ByLayer
 62
  256
370
   -1
100
AcDbLine
 10
2038.84
 20
-7.1061
 11
2038.84
 21
500.563
  0
LINE
  5
C3
100
AcDbEntity
  8
ProjItem223
  6
ByLayer
 62
  256
370
   -1
100
AcDbLine
 10
1986.84
 20
-7.1061
 11
1986.84
 21
500.563
  0
SPLINE
  5
C4
100
AcDbEntity
  8
ProjItem224
  6
ByLayer
 62
  256
370
   -1
100
AcDbSpline
210
0
220
0
230
0
 70
    8
 71
    1
 72
   17
 73
   15
 74
    0
 42
1e-07
 43
1e-07
 40
0
 40
0
 40
0.1122
 40
0.224399
 40
0.336599
 40
0.448799
 40
0.560999
 40
0.673198
 40
0.785398
 40
0.897598
 40
1.0098
 40
1.122
 40
1.2342
 40
1.3464
 40
1.4586
 40
1.5708
 40
1.5708
 10
677.829
 20
-1239.67
 30
0
 10
677.88
 20
-1242.58
 30
0
 10
678.032
 20
-1245.46
 30
0
 10
678.283
 20
-1248.26
 30
0
 10
678.631
 20
-1250.95
 30
0
 10
679.0700000000001
 20
-1253.5
 30
0
 10
679.596
 20
-1255.88
 30
0
 10
680.201
 20
-1258.06
 30
0
 10
680.878
 20
-1260
 30
0
 10
681.619
 20
-1261.69
 30
0
 10
682.414
 20
-1263.1
 30
0
 10
683.253
 20
-1264.21
 30
0
 10
684.126
 20
-1265.02
 30
0
 10
685.022
 20
-1265.51
 30
0
 10
685.928
 20
-1265.67
 30
0
  0
ELLIPSE
  5
C5
100
AcDbEntity
  8
ProjItem224
  6
ByLayer
 62
  256
370
   -1
100
AcDbEllipse
 10
-49.8217
 20
-1239.67
 30
0
 11
1.41906e-14
 21
26
 31
0
 40
0.567926
 41
-0
 42
-3.14159
  0
LINE
  5
C6
100
AcDbEntity
  8
ProjItem224
  6
ByLayer
 62
  256
370
   -1
100
AcDbLine
 10
1351.42
 20
-1259.67
 11
1681.42
 21
-1259.67
  0
LINE
  5
C7
100
AcDbEntity
  8
ProjItem224
  6
ByLayer
 62
  256
370
   -1
100
AcDbLine
 10
1214.41
 20
-1259.67
 11
1351.42
 21
-1259.67
  0
LINE
  5
C8
100
AcDbEntity
  8
ProjItem224
  6
ByLayer
 62
  256
370
   -1
100
AcDbLine
 10
1351.42
 20
-1219.67
 11
1351.42
 21
-1259.67
  0
LINE
  5
C9
100
AcDbEntity
  8
ProjItem224
  6
ByLayer
 62
  256
370
   -1
100
AcDbLine
 10
1214.41
 20
-1219.67
 11
1351.42
 21
-1219.67
  0
LINE
  5
CA
100
AcDbEntity
  8
ProjItem224
  6
ByLayer
 62
  256
370
   -1
100
AcDbLine
 10
1351.42
 20
-1219.67
 11
1681.42
 21
-1219.67
  0
LINE
  5
CB
100
AcDbEntity
  8
ProjItem224
  6
ByLayer
 62
  256
370
   -1
100
AcDbLine
 10
1631.42
 20
-1259.67
 11
1631.42
 21
-1267.67
  0
LINE
  5
CC
100
AcDbEntity
  8
ProjItem224
  6
ByLayer
 62
  256
370
   -1
100
AcDbLine
 10
1681.42
 20
-1259.67
 11
1681.42
 21
-1267.67
  0
LINE
  5
CD
100
AcDbEntity
  8
ProjItem224
  6
ByLayer
 62
  256
370
   -1
100
AcDbLine
 10
1681.42
 20
-1267.67
 11
1631.42
 21
-1267.67
  0
LINE
  5
CE
100
AcDbEntity
  8
ProjItem224
  6
ByLayer
 62
  256
370
   -1
100
AcDbLine
 10
1681.42
 20
-1219.67
 11
1681.42
 21
-1259.67
  0
LINE
  5
CF
100
AcDbEntity
  8
ProjItem224
  6
ByLayer
 62
  256
370
   -1
100
AcDbLine
 10
45.4122
 20
-1213.67
 11
45.4122
 21
-1211.67
  0
LINE
  5
D0
100
AcDbEntity
  8
ProjItem224
  6
ByLayer
 62
  256
370
   -1
100
AcDbLine
 10
-4.58783
 20
-1213.67
 11
-4.58783
 21
-1211.67
  0
LINE
  5
D1
100
AcDbEntity
  8
ProjItem224
  6
ByLayer
 62
  256
370
   -1
100
AcDbLine
 10
45.4122
 20
-1211.67
 11
-4.58783
 21
-1211.67
  0
LINE
  5
D2
100
AcDbEntity
  8
ProjItem224
  6
ByLayer
 62
  256
370
   -1
100
AcDbLine
 10
685.928
 20
-1265.67
 11
1214.41
 21
-1265.67
  0
LINE
  5
D3
100
AcDbEntity
  8
ProjItem224
  6
ByLayer
 62
  256
370
   -1
100
AcDbLine
 10
685.928
 20
-1213.67
 11
1214.41
 21
-1213.67
  0
LINE
  5
D4
100
AcDbEntity
  8
ProjItem224
  6
ByLayer
 62
  256
370
   -1
100
AcDbLine
 10
-49.8217
 20
-1265.67
 11
685.928
 21
-1265.67
  0
LINE
  5
D5
100
AcDbEntity
  8
ProjItem224
  6
ByLayer
 62
  256
370
   -1
100
AcDbLine
 10
-49.8217
 20
-1213.67
 11
685.928
 21
-1213.67
  0
LINE
  5
D6
100
AcDbEntity
  8
ProjItem238
  6
ByLayer
 62
  256
370
   -1
100
AcDbLine
 10
-377.925
 20
474.563
 11
-377.925
 21
475.523
  0
LINE
  5
D7
100
AcDbEntity
  8
ProjItem238
  6
ByLayer
 62
  256
370
   -1
100
AcDbLine
 10
-377.925
 20
474.563
 11
-363.925
 21
474.563
  0
LINE
  5
D8
100
AcDbEntity
  8
ProjItem238
  6
ByLayer
 62
  256
370
   -1
100
AcDbLine
 10
-363.925
 20
474.563
 11
-363.925
 21
475.523
  0
ARC
  5
D9
100
AcDbEntity
  8
ProjItem238
  6
ByLayer
 62
  256
370
   -1
100
AcDbCircle
 10
-370.925
 20
500.563
 40
26
100
AcDbArc
 50
-74.3815
 51
-105.618
  0
LINE
  5
DA
100
AcDbEntity
  8
ProjItem238
  6
ByLayer
 62
  256
370
   -1
100
AcDbLine
 10
-390.925
 20
389.563
 11
-377.425
 21
474.563
  0
LINE
  5
DB
100
AcDbEntity
  8
ProjItem238
  6
ByLayer
 62
  256
370
   -1
100
AcDbLine
 10
-364.425
 20
474.563
 11
-350.925
 21
389.563
  0
LINE
  5
DC
100
AcDbEntity
  8
ProjItem238
  6
ByLayer
 62
  256
370
   -1
100
AcDbLine
 10
-377.925
 20
479.563
 11
-377.925
 21
475.523
  0
LINE
  5
DD
100
AcDbEntity
  8
ProjItem238
  6
ByLayer
 62
  256
370
   -1
100
AcDbLine
 10
-363.925
 20
479.563
 11
-363.925
 21
475.523
  0
LINE
  5
DE
100
AcDbEntity
  8
ProjItem238
  6
ByLayer
 62
  256
370
   -1
100
AcDbLine
 10
-370.925
 20
479.563
 11
-377.925
 21
479.563
  0
LINE
  5
DF
100
AcDbEntity
  8
ProjItem238
  6
ByLayer
 62
  256
370
   -1
100
AcDbLine
 10
-370.925
 20
479.563
 11
-363.925
 21
479.563
  0
LINE
  5
E0
100
AcDbEntity
  8
ProjItem238
  6
ByLayer
 62
  256
370
   -1
100
AcDbLine
 10
-363.925
 20
471.415
 11
-363.925
 21
474.563
  0
ELLIPSE
  5
E1
100
AcDbEntity
  8
ProjItem238
  6
ByLayer
 62
  256
370
   -1
100
AcDbEllipse
 10
-370.925
 20
-7.1061
 30
0
 11
-26
 21
-1.57274e-14
 31
0
 40
0.823079
 41
-0
 42
-5.59003
  0
ELLIPSE
  5
E2
100
AcDbEntity
  8
ProjItem238
  6
ByLayer
 62
  256
370
   -1
100
AcDbEllipse
 10
-370.925
 20
-7.1061
 30
0
 11
-26
 21
-1.57274e-14
 31
0
 40
0.823079
 41
-3.83475
 42
-3.14159
  0
LINE
  5
E3
100
AcDbEntity
  8
ProjItem238
  6
ByLayer
 62
  256
370
   -1
100
AcDbLine
 10
-377.925
 20
471.415
 11
-377.925
 21
474.563
  0
LINE
  5
E4
100
AcDbEntity
  8
ProjItem238
  6
ByLayer
 62
  256
370
   -1
100
AcDbLine
 10
-390.925
 20
-823.396
 11
-390.925
 21
-989.937
  0
LINE
  5
E5
100
AcDbEntity
  8
ProjItem238
  6
ByLayer
 62
  256
370
   -1
100
AcDbLine
 10
-390.925
 20
-823.396
 11
-390.925
 21
-463.437
  0
LINE
  5
E6
100
AcDbEntity
  8
ProjItem238
  6
ByLayer
 62
  256
370
   -1
100
AcDbLine
 10
-390.925
 20
-119.437
 11
-390.925
 21
-373.437
  0
LINE
  5
E7
100
AcDbEntity
  8
ProjItem238
  6
ByLayer
 62
  256
370
   -1
100
AcDbLine
 10
-390.925
 20
389.563
 11
-390.925
 21
-119.437
  0
LINE
  5
E8
100
AcDbEntity
  8
ProjItem238
  6
ByLayer
 62
  256
370
   -1
100
AcDbLine
 10
-350.925
 20
389.563
 11
-390.925
 21
389.563
  0
LINE
  5
E9
100
AcDbEntity
  8
ProjItem238
  6
ByLayer
 62
  256
370
   -1
100
AcDbLine
 10
-350.925
 20
-823.396
 11
-350.925
 21
-924.937
  0
LINE
  5
EA
100
AcDbEntity
  8
ProjItem238
  6
ByLayer
 62
  256
370
   -1
100
AcDbLine
 10
-350.925
 20
-823.396
 11
-350.925
 21
-463.437
  0
LINE
  5
EB
100
AcDbEntity
  8
ProjItem238
  6
ByLayer
 62
  256
370
   -1
100
AcDbLine
 10
-350.925
 20
-119.437
 11
-350.925
 21
-463.437
  0
LINE
  5
EC
100
AcDbEntity
  8
ProjItem238
  6
ByLayer
 62
  256
370
   -1
100
AcDbLine
 10
-350.925
 20
389.563
 11
-350.925
 21
-119.437
  0
LINE
  5
ED
100
AcDbEntity
  8
ProjItem238
  6
ByLayer
 62
  256
370
   -1
100
AcDbLine
 10
-350.925
 20
-989.937
 11
-390.925
 21
-989.937
  0
LINE
  5
EE
100
AcDbEntity
  8
ProjItem238
  6
ByLayer
 62
  256
370
   -1
100
AcDbLine
 10
-350.925
 20
-823.396
 11
-390.925
 21
-823.396
  0
LINE
  5
EF
100
AcDbEntity
  8
ProjItem238
  6
ByLayer
 62
  256
370
   -1
100
AcDbLine
 10
-390.925
 20
-373.437
 11
-398.925
 21
-373.437
  0
LINE
  5
F0
100
AcDbEntity
  8
ProjItem238
  6
ByLayer
 62
  256
370
   -1
100
AcDbLine
 10
-350.925
 20
-119.437
 11
-390.925
 21
-119.437
  0
LINE
  5
F1
100
AcDbEntity
  8
ProjItem238
  6
ByLayer
 62
  256
370
   -1
100
AcDbLine
 10
-350.925
 20
-463.437
 11
-390.925
 21
-463.437
  0
LINE
  5
F2
100
AcDbEntity
  8
ProjItem238
  6
ByLayer
 62
  256
370
   -1
100
AcDbLine
 10
-390.925
 20
-373.437
 11
-390.925
 21
-463.437
  0
LINE
  5
F3
100
AcDbEntity
  8
ProjItem238
  6
ByLayer
 62
  256
370
   -1
100
AcDbLine
 10
-350.925
 20
-924.937
 11
-342.925
 21
-924.937
  0
LINE
  5
F4
100
AcDbEntity
  8
ProjItem238
  6
ByLayer
 62
  256
370
   -1
100
AcDbLine
 10
-350.925
 20
-1014.94
 11
-350.925
 21
-924.937
  0
LINE
  5
F5
100
AcDbEntity
  8
ProjItem238
  6
ByLayer
 62
  256
370
   -1
100
AcDbLine
 10
-390.925
 20
-463.437
 11
-398.925
 21
-463.437
  0
LINE
  5
F6
100
AcDbEntity
  8
ProjItem238
  6
ByLayer
 62
  256
370
   -1
100
AcDbLine
 10
-398.925
 20
-463.437
 11
-398.925
 21
-373.437
  0
LINE
  5
F7
100
AcDbEntity
  8
ProjItem238
  6
ByLayer
 62
  256
370
   -1
100
AcDbLine
 10
-350.925
 20
-1014.94
 11
-342.925
 21
-1014.94
  0
LINE
  5
F8
100
AcDbEntity
  8
ProjItem238
  6
ByLayer
 62
  256
370
   -1
100
AcDbLine
 10
-342.925
 20
-1014.94
 11
-342.925
 21
-924.937
  0
LINE
  5
F9
100
AcDbEntity
  8
ProjItem238
  6
ByLayer
 62
  256
370
   -1
100
AcDbLine
 10
-344.925
 20
-7.1061
 11
-344.925
 21
500.563
  0
LINE
  5
FA
100
AcDbEntity
  8
ProjItem238
  6
ByLayer
 62
  256
370
   -1
100
AcDbLine
 10
-396.925
 20
-7.1061
 11
-396.925
 21
500.563
  0
SPLINE
  5
FB
100
AcDbEntity
  8
ProjItem222
  6
ByLayer
 62
  256
370
   -1
100
AcDbSpline
210
0
220
0
230
0
 70
    8
 71
    2
 72
    6
 73
    3
 74
    0
 42
1e-07
 43
1e-07
 40
0
 40
0
 40
0
 40
1
 40
1
 40
1
 10
-1621.53
 20
601.505
 30
0
 10
-1621.03
 20
602.183
 30
0
 10
-1620.31
 20
602.603
 30
0
  0
SPLINE
  5
FC
100
AcDbEntity
  8
ProjItem222
  6
ByLayer
 62
  256
370
   -1
100
AcDbSpline
210
0
220
0
230
0
 70
    8
 71
    1
 72
   17
 73
   15
 74
    0
 42
1e-07
 43
1e-07
 40
0
 40
0
 40
0.1122
 40
0.224399
 40
0.336599
 40
0.448799
 40
0.560999
 40
0.673198
 40
0.785398
 40
0.897598
 40
1.0098
 40
1.122
 40
1.2342
 40
1.3464
 40
1.4586
 40
1.5708
 40
1.5708
 10
-1608.98
 20
600.347
 30
0
 10
-1606.89
 20
599.046
 30
0
 10
-1604.75
 20
597.5359999999999
 30
0
 10
-1602.59
 20
595.836
 30
0
 10
-1600.44
 20
593.967
 30
0
 10
-1598.32
 20
591.953
 30
0
 10
-1596.27
 20
589.819
 30
0
 10
-1594.31
 20
587.592
 30
0
 10
-1592.45
 20
585.301
 30
0
 10
-1590.74
 20
582.973
 30
0
 10
-1589.18
 20
580.638
 30
0
 10
-1587.79
 20
578.325
 30
0
 10
-1586.61
 20
576.0650000000001
 30
0
 10
-1585.63
 20
573.884
 30
0
 10
-1584.87
 20
571.8099999999999
 30
0
  0
ELLIPSE
  5
FD
100
AcDbEntity
  8
ProjItem222
  6
ByLayer
 62
  256
370
   -1
100
AcDbEllipse
 10
-1229.56
 20
798.177
 30
0
 11
-13
 21
22.5167
 31
0
 40
0.57735
 41
3.14159
 42
6.28319
  0
LINE
  5
FE
100
AcDbEntity
  8
ProjItem222
  6
ByLayer
 62
  256
370
   -1
100
AcDbLine
 10
-1314.41
 20
674.886
 11
-1307.17
 21
723.346
  0
LINE
  5
FF
100
AcDbEntity
  8
ProjItem222
  6
ByLayer
 62
  256
370
   -1
100
AcDbLine
 10
-1295.26
 20
730.223
 11
-1286.13
 21
658.557
  0
LINE
  5
100
100
AcDbEntity
  8
ProjItem222
  6
ByLayer
 62
  256
370
   -1
100
AcDbLine
 10
-1314.41
 20
674.886
 11
-1286.13
 21
658.557
  0
LINE
  5
101
100
AcDbEntity
  8
ProjItem222
  6
ByLayer
 62
  256
370
   -1
100
AcDbLine
 10
-1286.13
 20
658.557
 11
-1279.06
 21
662.639
  0
LINE
  5
102
100
AcDbEntity
  8
ProjItem222
  6
ByLayer
 62
  256
370
   -1
100
AcDbLine
 10
-1279.06
 20
662.639
 11
-1288.19
 21
734.3049999999999
  0
LINE
  5
103
100
AcDbEntity
  8
ProjItem222
  6
ByLayer
 62
  256
370
   -1
100
AcDbLine
 10
-2118.4
 20
-140.619
 11
-2117.97
 21
-140.026
  0
ELLIPSE
  5
104
100
AcDbEntity
  8
ProjItem222
  6
ByLayer
 62
  256
370
   -1
100
AcDbEllipse
 10
-2123.51
 20
-132.454
 30
0
 11
-21.0224
 21
15.299
 31
0
 40
0.147313
 41
2.46669
 42
3.14159
  0
ELLIPSE
  5
105
100
AcDbEntity
  8
ProjItem222
  6
ByLayer
 62
  256
370
   -1
100
AcDbEllipse
 10
-2123.51
 20
-132.454
 30
0
 11
-21.0224
 21
15.299
 31
0
 40
0.147313
 41
3.14159
 42
1.77636e-14
  0
ELLIPSE
  5
106
100
AcDbEntity
  8
ProjItem222
  6
ByLayer
 62
  256
370
   -1
100
AcDbEllipse
 10
-2123.51
 20
-132.454
 30
0
 11
-21.0224
 21
15.299
 31
0
 40
0.147313
 41
1.77636e-14
 42
1.9215
  0
LINE
  5
107
100
AcDbEntity
  8
ProjItem222
  6
ByLayer
 62
  256
370
   -1
100
AcDbLine
 10
-1606.85
 20
506.047
 11
-1578.57
 21
489.717
  0
LINE
  5
108
100
AcDbEntity
  8
ProjItem222
  6
ByLayer
 62
  256
370
   -1
100
AcDbLine
 10
-1606.85
 20
506.047
 11
-1314.41
 21
674.886
  0
LINE
  5
109
100
AcDbEntity
  8
ProjItem222
  6
ByLayer
 62
  256
370
   -1
100
AcDbLine
 10
-1578.57
 20
489.717
 11
-1286.13
 21
658.557
  0
LINE
  5
10A
100
AcDbEntity
  8
ProjItem222
  6
ByLayer
 62
  256
370
   -1
100
AcDbLine
 10
-2070.31
 20
-181.955
 11
-1836.74
 21
137.085
  0
LINE
  5
10B
100
AcDbEntity
  8
ProjItem222
  6
ByLayer
 62
  256
370
   -1
100
AcDbLine
 10
-2077.38
 20
-191.613
 11
-2070.31
 21
-181.955
  0
LINE
  5
10C
100
AcDbEntity
  8
ProjItem222
  6
ByLayer
 62
  256
370
   -1
100
AcDbLine
 10
-2077.38
 20
-924.63
 11
-2077.38
 21
-191.613
  0
LINE
  5
10D
100
AcDbEntity
  8
ProjItem222
  6
ByLayer
 62
  256
370
   -1
100
AcDbLine
 10
-2070.31
 20
-920.548
 11
-2077.38
 21
-924.63
  0
LINE
  5
10E
100
AcDbEntity
  8
ProjItem222
  6
ByLayer
 62
  256
370
   -1
100
AcDbLine
 10
-2070.31
 20
-784.568
 11
-2070.31
 21
-920.548
  0
LINE
  5
10F
100
AcDbEntity
  8
ProjItem222
  6
ByLayer
 62
  256
370
   -1
100
AcDbLine
 10
-2070.31
 20
-784.568
 11
-1697.6
 21
-275.475
  0
LINE
  5
110
100
AcDbEntity
  8
ProjItem222
  6
ByLayer
 62
  256
370
   -1
100
AcDbLine
 10
-1286.13
 20
-37.915
 11
-1697.6
 21
-275.475
  0
LINE
  5
111
100
AcDbEntity
  8
ProjItem222
  6
ByLayer
 62
  256
370
   -1
100
AcDbLine
 10
-1279.06
 20
-33.8325
 11
-1286.13
 21
-37.915
  0
LINE
  5
112
100
AcDbEntity
  8
ProjItem222
  6
ByLayer
 62
  256
370
   -1
100
AcDbLine
 10
-1279.06
 20
-33.8325
 11
-920.549
 21
173.153
  0
LINE
  5
113
100
AcDbEntity
  8
ProjItem222
  6
ByLayer
 62
  256
370
   -1
100
AcDbLine
 10
-920.549
 20
181.318
 11
-920.549
 21
173.153
  0
LINE
  5
114
100
AcDbEntity
  8
ProjItem222
  6
ByLayer
 62
  256
370
   -1
100
AcDbLine
 10
-1279.06
 20
-25.6676
 11
-920.549
 21
181.318
  0
LINE
  5
115
100
AcDbEntity
  8
ProjItem222
  6
ByLayer
 62
  256
370
   -1
100
AcDbLine
 10
-1279.06
 20
654.474
 11
-1279.06
 21
-25.6676
  0
LINE
  5
116
100
AcDbEntity
  8
ProjItem222
  6
ByLayer
 62
  256
370
   -1
100
AcDbLine
 10
-1122.38
 20
744.932
 11
-1279.06
 21
654.474
  0
LINE
  5
117
100
AcDbEntity
  8
ProjItem222
  6
ByLayer
 62
  256
370
   -1
100
AcDbLine
 10
-892.264
 20
467.943
 11
-1122.38
 21
744.932
  0
LINE
  5
118
100
AcDbEntity
  8
ProjItem222
  6
ByLayer
 62
  256
370
   -1
100
AcDbLine
 10
-892.264
 20
262.968
 11
-892.264
 21
467.943
  0
LINE
  5
119
100
AcDbEntity
  8
ProjItem222
  6
ByLayer
 62
  256
370
   -1
100
AcDbLine
 10
-885.193
 20
267.051
 11
-892.264
 21
262.968
  0
LINE
  5
11A
100
AcDbEntity
  8
ProjItem222
  6
ByLayer
 62
  256
370
   -1
100
AcDbLine
 10
-885.193
 20
474.441
 11
-885.193
 21
267.051
  0
LINE
  5
11B
100
AcDbEntity
  8
ProjItem222
  6
ByLayer
 62
  256
370
   -1
100
AcDbLine
 10
-1118.54
 20
755.3150000000001
 11
-885.193
 21
474.441
  0
LINE
  5
11C
100
AcDbEntity
  8
ProjItem222
  6
ByLayer
 62
  256
370
   -1
100
AcDbLine
 10
-1279.06
 20
662.639
 11
-1118.54
 21
755.3150000000001
  0
LINE
  5
11D
100
AcDbEntity
  8
ProjItem222
  6
ByLayer
 62
  256
370
   -1
100
AcDbLine
 10
-1836.74
 20
137.085
 11
-1578.57
 21
489.717
  0
LINE
  5
11E
100
AcDbEntity
  8
ProjItem222
  6
ByLayer
 62
  256
370
   -1
100
AcDbLine
 10
-2070.31
 20
-191.842
 11
-2070.31
 21
-774.681
  0
LINE
  5
11F
100
AcDbEntity
  8
ProjItem222
  6
ByLayer
 62
  256
370
   -1
100
AcDbLine
 10
-1576.38
 20
482.813
 11
-2070.31
 21
-191.842
  0
LINE
  5
120
100
AcDbEntity
  8
ProjItem222
  6
ByLayer
 62
  256
370
   -1
100
AcDbLine
 10
-2070.31
 20
-774.681
 11
-1699.78
 21
-268.571
  0
LINE
  5
121
100
AcDbEntity
  8
ProjItem222
  6
ByLayer
 62
  256
370
   -1
100
AcDbLine
 10
-1286.13
 20
650.3920000000001
 11
-1576.38
 21
482.813
  0
LINE
  5
122
100
AcDbEntity
  8
ProjItem222
  6
ByLayer
 62
  256
370
   -1
100
AcDbLine
 10
-1699.78
 20
-268.571
 11
-1286.13
 21
-29.7501
  0
LINE
  5
123
100
AcDbEntity
  8
ProjItem222
  6
ByLayer
 62
  256
370
   -1
100
AcDbLine
 10
-1286.13
 20
-29.7501
 11
-1286.13
 21
650.3920000000001
  0
LINE
  5
124
100
AcDbEntity
  8
ProjItem222
  6
ByLayer
 62
  256
370
   -1
100
AcDbLine
 10
-1146.82
 20
771.645
 11
-1118.54
 21
755.3150000000001
  0
LINE
  5
125
100
AcDbEntity
  8
ProjItem222
  6
ByLayer
 62
  256
370
   -1
100
AcDbLine
 10
-1282.94
 20
693.061
 11
-1146.82
 21
771.645
  0
LINE
  5
126
100
AcDbEntity
  8
ProjItem222
  6
ByLayer
 62
  256
370
   -1
100
AcDbLine
 10
-2076.29
 20
-135.157
 11
-1865.02
 21
153.415
  0
LINE
  5
127
100
AcDbEntity
  8
ProjItem222
  6
ByLayer
 62
  256
370
   -1
100
AcDbLine
 10
-2105.67
 20
-855.228
 11
-2105.67
 21
-175.283
  0
LINE
  5
128
100
AcDbEntity
  8
ProjItem222
  6
ByLayer
 62
  256
370
   -1
100
AcDbLine
 10
-1865.02
 20
153.415
 11
-1606.85
 21
506.047
  0
LINE
  5
129
100
AcDbEntity
  8
ProjItem222
  6
ByLayer
 62
  256
370
   -1
100
AcDbLine
 10
-2070.31
 20
-719.717
 11
-2014.52
 21
-643.513
  0
LINE
  5
12A
100
AcDbEntity
  8
ProjItem222
  6
ByLayer
 62
  256
370
   -1
100
AcDbLine
 10
-2003.21
 20
-628.059
 11
-1936.1
 21
-536.401
  0
LINE
  5
12B
100
AcDbEntity
  8
ProjItem222
  6
ByLayer
 62
  256
370
   -1
100
AcDbLine
 10
-1924.79
 20
-520.948
 11
-1857.68
 21
-429.29
  0
LINE
  5
12C
100
AcDbEntity
  8
ProjItem222
  6
ByLayer
 62
  256
370
   -1
100
AcDbLine
 10
-1846.37
 20
-413.836
 11
-1779.27
 21
-322.178
  0
LINE
  5
12D
100
AcDbEntity
  8
ProjItem222
  6
ByLayer
 62
  256
370
   -1
100
AcDbLine
 10
-1767.95
 20
-306.725
 11
-1728.06
 21
-252.241
  0
LINE
  5
12E
100
AcDbEntity
  8
ProjItem222
  6
ByLayer
 62
  256
370
   -1
100
AcDbLine
 10
-1728.06
 20
-252.241
 11
-1700.85
 21
-236.528
  0
LINE
  5
12F
100
AcDbEntity
  8
ProjItem222
  6
ByLayer
 62
  256
370
   -1
100
AcDbLine
 10
-1689.53
 20
-229.996
 11
-1622.43
 21
-191.253
  0
LINE
  5
130
100
AcDbEntity
  8
ProjItem222
  6
ByLayer
 62
  256
370
   -1
100
AcDbLine
 10
-1611.12
 20
-184.721
 11
-1544.01
 21
-145.978
  0
LINE
  5
131
100
AcDbEntity
  8
ProjItem222
  6
ByLayer
 62
  256
370
   -1
100
AcDbLine
 10
-1532.7
 20
-139.446
 11
-1465.59
 21
-100.704
  0
LINE
  5
132
100
AcDbEntity
  8
ProjItem222
  6
ByLayer
 62
  256
370
   -1
100
AcDbLine
 10
-1454.28
 20
-94.1716
 11
-1387.18
 21
-55.4289
  0
LINE
  5
133
100
AcDbEntity
  8
ProjItem222
  6
ByLayer
 62
  256
370
   -1
100
AcDbLine
 10
-1375.86
 20
-48.8969
 11
-1314.41
 21
-13.4201
  0
LINE
  5
134
100
AcDbEntity
  8
ProjItem222
  6
ByLayer
 62
  256
370
   -1
100
AcDbLine
 10
-1314.41
 20
-13.4201
 11
-1314.41
 21
634.062
  0
LINE
  5
135
100
AcDbEntity
  8
ProjItem222
  6
ByLayer
 62
  256
370
   -1
100
AcDbLine
 10
-1279.06
 20
6.99229
 11
-1224.33
 21
38.5915
  0
LINE
  5
136
100
AcDbEntity
  8
ProjItem222
  6
ByLayer
 62
  256
370
   -1
100
AcDbLine
 10
-1213.01
 20
45.1235
 11
-1146.97
 21
83.2547
  0
LINE
  5
137
100
AcDbEntity
  8
ProjItem222
  6
ByLayer
 62
  256
370
   -1
100
AcDbLine
 10
-1135.65
 20
89.7867
 11
-1069.61
 21
127.918
  0
LINE
  5
138
100
AcDbEntity
  8
ProjItem222
  6
ByLayer
 62
  256
370
   -1
100
AcDbLine
 10
-1058.3
 20
134.45
 11
-992.251
 21
172.581
  0
LINE
  5
139
100
AcDbEntity
  8
ProjItem222
  6
ByLayer
 62
  256
370
   -1
100
AcDbLine
 10
-980.937
 20
179.113
 11
-920.549
 21
213.978
  0
LINE
  5
13A
100
AcDbEntity
  8
ProjItem222
  6
ByLayer
 62
  256
370
   -1
100
AcDbLine
 10
-920.549
 20
484.273
 11
-980.937
 21
556.962
  0
LINE
  5
13B
100
AcDbEntity
  8
ProjItem222
  6
ByLayer
 62
  256
370
   -1
100
AcDbLine
 10
-992.251
 20
570.58
 11
-1058.3
 21
650.078
  0
LINE
  5
13C
100
AcDbEntity
  8
ProjItem222
  6
ByLayer
 62
  256
370
   -1
100
AcDbLine
 10
-1069.61
 20
663.696
 11
-1132.33
 21
739.189
  0
LINE
  5
13D
100
AcDbEntity
  8
ProjItem222
  6
ByLayer
 62
  256
370
   -1
100
AcDbLine
 10
-920.549
 20
246.638
 11
-920.549
 21
484.273
  0
LINE
  5
13E
100
AcDbEntity
  8
ProjItem222
  6
ByLayer
 62
  256
370
   -1
100
AcDbLine
 10
-2120.03
 20
-138.84
 11
-2118.4
 21
-140.619
  0
LINE
  5
13F
100
AcDbEntity
  8
ProjItem222
  6
ByLayer
 62
  256
370
   -1
100
AcDbLine
 10
-2115.08
 20
-141.698
 11
-2120.03
 21
-138.84
  0
LINE
  5
140
100
AcDbEntity
  8
ProjItem222
  6
ByLayer
 62
  256
370
   -1
100
AcDbLine
 10
-2110.13
 20
-144.556
 11
-2108.5
 21
-146.334
  0
LINE
  5
141
100
AcDbEntity
  8
ProjItem222
  6
ByLayer
 62
  256
370
   -1
100
AcDbLine
 10
-2115.08
 20
-141.698
 11
-2110.13
 21
-144.556
  0
LINE
  5
142
100
AcDbEntity
  8
ProjItem222
  6
ByLayer
 62
  256
370
   -1
100
AcDbLine
 10
-2077.38
 20
-191.613
 11
-2085.9
 21
-124.957
  0
LINE
  5
143
100
AcDbEntity
  8
ProjItem222
  6
ByLayer
 62
  256
370
   -1
100
AcDbLine
 10
-2078.83
 20
-115.25
 11
-2070.31
 21
-181.955
  0
LINE
  5
144
100
AcDbEntity
  8
ProjItem222
  6
ByLayer
 62
  256
370
   -1
100
AcDbLine
 10
-2105.67
 20
-908.3
 11
-2105.67
 21
-855.228
  0
LINE
  5
145
100
AcDbEntity
  8
ProjItem222
  6
ByLayer
 62
  256
370
   -1
100
AcDbLine
 10
-2105.67
 20
-908.3
 11
-2077.38
 21
-924.63
  0
LINE
  5
146
100
AcDbEntity
  8
ProjItem222
  6
ByLayer
 62
  256
370
   -1
100
AcDbLine
 10
-2105.67
 20
-175.283
 11
-2101.3
 21
-146.115
  0
LINE
  5
147
100
AcDbEntity
  8
ProjItem222
  6
ByLayer
 62
  256
370
   -1
100
AcDbLine
 10
-920.549
 20
246.638
 11
-914.8920000000001
 21
243.372
  0
LINE
  5
148
100
AcDbEntity
  8
ProjItem222
  6
ByLayer
 62
  256
370
   -1
100
AcDbLine
 10
-920.549
 20
173.153
 11
-914.8920000000001
 21
169.887
  0
LINE
  5
149
100
AcDbEntity
  8
ProjItem222
  6
ByLayer
 62
  256
370
   -1
100
AcDbLine
 10
-920.549
 20
246.638
 11
-920.549
 21
181.318
  0
LINE
  5
14A
100
AcDbEntity
  8
ProjItem222
  6
ByLayer
 62
  256
370
   -1
100
AcDbLine
 10
-914.8920000000001
 20
243.372
 11
-914.8920000000001
 21
169.887
  0
LINE
  5
14B
100
AcDbEntity
  8
ProjItem222
  6
ByLayer
 62
  256
370
   -1
100
AcDbLine
 10
-1063.95
 20
111.588
 11
-1069.61
 21
114.854
  0
LINE
  5
14C
100
AcDbEntity
  8
ProjItem222
  6
ByLayer
 62
  256
370
   -1
100
AcDbLine
 10
-1058.3
 20
114.854
 11
-1063.95
 21
111.588
  0
LINE
  5
14D
100
AcDbEntity
  8
ProjItem222
  6
ByLayer
 62
  256
370
   -1
100
AcDbLine
 10
-986.5940000000001
 20
156.251
 11
-980.937
 21
159.517
  0
LINE
  5
14E
100
AcDbEntity
  8
ProjItem222
  6
ByLayer
 62
  256
370
   -1
100
AcDbLine
 10
-986.5940000000001
 20
156.251
 11
-992.251
 21
159.517
  0
LINE
  5
14F
100
AcDbEntity
  8
ProjItem222
  6
ByLayer
 62
  256
370
   -1
100
AcDbLine
 10
-1218.67
 20
22.2616
 11
-1213.01
 21
25.5276
  0
LINE
  5
150
100
AcDbEntity
  8
ProjItem222
  6
ByLayer
 62
  256
370
   -1
100
AcDbLine
 10
-1218.67
 20
22.2616
 11
-1224.33
 21
25.5276
  0
LINE
  5
151
100
AcDbEntity
  8
ProjItem222
  6
ByLayer
 62
  256
370
   -1
100
AcDbLine
 10
-1141.31
 20
66.9248
 11
-1135.65
 21
70.1908
  0
LINE
  5
152
100
AcDbEntity
  8
ProjItem222
  6
ByLayer
 62
  256
370
   -1
100
AcDbLine
 10
-1141.31
 20
66.9248
 11
-1146.97
 21
70.1908
  0
LINE
  5
153
100
AcDbEntity
  8
ProjItem222
  6
ByLayer
 62
  256
370
   -1
100
AcDbLine
 10
-920.549
 20
484.273
 11
-892.264
 21
467.943
  0
LINE
  5
154
100
AcDbEntity
  8
ProjItem222
  6
ByLayer
 62
  256
370
   -1
100
AcDbLine
 10
-986.5940000000001
 20
574.4
 11
-992.251
 21
577.6660000000001
  0
LINE
  5
155
100
AcDbEntity
  8
ProjItem222
  6
ByLayer
 62
  256
370
   -1
100
AcDbLine
 10
-980.937
 20
567.591
 11
-986.5940000000001
 21
574.4
  0
LINE
  5
156
100
AcDbEntity
  8
ProjItem222
  6
ByLayer
 62
  256
370
   -1
100
AcDbLine
 10
-1063.95
 20
667.516
 11
-1069.61
 21
670.782
  0
LINE
  5
157
100
AcDbEntity
  8
ProjItem222
  6
ByLayer
 62
  256
370
   -1
100
AcDbLine
 10
-1063.95
 20
667.516
 11
-1058.3
 21
660.707
  0
LINE
  5
158
100
AcDbEntity
  8
ProjItem222
  6
ByLayer
 62
  256
370
   -1
100
AcDbLine
 10
-885.193
 20
267.051
 11
-879.5359999999999
 21
263.785
  0
LINE
  5
159
100
AcDbEntity
  8
ProjItem222
  6
ByLayer
 62
  256
370
   -1
100
AcDbLine
 10
-892.264
 20
262.968
 11
-920.549
 21
246.638
  0
LINE
  5
15A
100
AcDbEntity
  8
ProjItem222
  6
ByLayer
 62
  256
370
   -1
100
AcDbLine
 10
-879.5359999999999
 20
263.785
 11
-914.8920000000001
 21
243.372
  0
LINE
  5
15B
100
AcDbEntity
  8
ProjItem222
  6
ByLayer
 62
  256
370
   -1
100
AcDbLine
 10
-1728.06
 20
-252.241
 11
-1699.78
 21
-268.571
  0
LINE
  5
15C
100
AcDbEntity
  8
ProjItem222
  6
ByLayer
 62
  256
370
   -1
100
AcDbLine
 10
-1852.03
 20
-454.541
 11
-1846.37
 21
-446.815
  0
LINE
  5
15D
100
AcDbEntity
  8
ProjItem222
  6
ByLayer
 62
  256
370
   -1
100
AcDbLine
 10
-1852.03
 20
-454.541
 11
-1857.68
 21
-451.275
  0
LINE
  5
15E
100
AcDbEntity
  8
ProjItem222
  6
ByLayer
 62
  256
370
   -1
100
AcDbLine
 10
-1773.61
 20
-347.43
 11
-1779.27
 21
-344.164
  0
LINE
  5
15F
100
AcDbEntity
  8
ProjItem222
  6
ByLayer
 62
  256
370
   -1
100
AcDbLine
 10
-1773.61
 20
-347.43
 11
-1767.95
 21
-339.703
  0
LINE
  5
160
100
AcDbEntity
  8
ProjItem222
  6
ByLayer
 62
  256
370
   -1
100
AcDbLine
 10
-2008.86
 20
-668.764
 11
-2003.21
 21
-661.037
  0
LINE
  5
161
100
AcDbEntity
  8
ProjItem222
  6
ByLayer
 62
  256
370
   -1
100
AcDbLine
 10
-2008.86
 20
-668.764
 11
-2014.52
 21
-665.498
  0
LINE
  5
162
100
AcDbEntity
  8
ProjItem222
  6
ByLayer
 62
  256
370
   -1
100
AcDbLine
 10
-1930.45
 20
-561.653
 11
-1924.79
 21
-553.926
  0
LINE
  5
163
100
AcDbEntity
  8
ProjItem222
  6
ByLayer
 62
  256
370
   -1
100
AcDbLine
 10
-1930.45
 20
-561.653
 11
-1936.1
 21
-558.3869999999999
  0
LINE
  5
164
100
AcDbEntity
  8
ProjItem222
  6
ByLayer
 62
  256
370
   -1
100
AcDbLine
 10
-1314.41
 20
-13.4201
 11
-1286.13
 21
-29.7501
  0
LINE
  5
165
100
AcDbEntity
  8
ProjItem222
  6
ByLayer
 62
  256
370
   -1
100
AcDbLine
 10
-1459.94
 20
-117.034
 11
-1465.59
 21
-113.768
  0
LINE
  5
166
100
AcDbEntity
  8
ProjItem222
  6
ByLayer
 62
  256
370
   -1
100
AcDbLine
 10
-1454.28
 20
-113.768
 11
-1459.94
 21
-117.034
  0
LINE
  5
167
100
AcDbEntity
  8
ProjItem222
  6
ByLayer
 62
  256
370
   -1
100
AcDbLine
 10
-1381.52
 20
-71.75879999999999
 11
-1387.18
 21
-68.4928
  0
LINE
  5
168
100
AcDbEntity
  8
ProjItem222
  6
ByLayer
 62
  256
370
   -1
100
AcDbLine
 10
-1375.86
 20
-68.4928
 11
-1381.52
 21
-71.75879999999999
  0
LINE
  5
169
100
AcDbEntity
  8
ProjItem222
  6
ByLayer
 62
  256
370
   -1
100
AcDbLine
 10
-1689.53
 20
-249.592
 11
-1695.19
 21
-252.858
  0
LINE
  5
16A
100
AcDbEntity
  8
ProjItem222
  6
ByLayer
 62
  256
370
   -1
100
AcDbLine
 10
-1695.19
 20
-252.858
 11
-1700.85
 21
-249.592
  0
LINE
  5
16B
100
AcDbEntity
  8
ProjItem222
  6
ByLayer
 62
  256
370
   -1
100
AcDbLine
 10
-1616.77
 20
-207.583
 11
-1622.43
 21
-204.317
  0
LINE
  5
16C
100
AcDbEntity
  8
ProjItem222
  6
ByLayer
 62
  256
370
   -1
100
AcDbLine
 10
-1616.77
 20
-207.583
 11
-1611.12
 21
-204.317
  0
LINE
  5
16D
100
AcDbEntity
  8
ProjItem222
  6
ByLayer
 62
  256
370
   -1
100
AcDbLine
 10
-1538.35
 20
-162.308
 11
-1544.01
 21
-159.042
  0
LINE
  5
16E
100
AcDbEntity
  8
ProjItem222
  6
ByLayer
 62
  256
370
   -1
100
AcDbLine
 10
-1538.35
 20
-162.308
 11
-1532.7
 21
-159.042
  0
LINE
  5
16F
100
AcDbEntity
  8
ProjItem222
  6
ByLayer
 62
  256
370
   -1
100
AcDbLine
 10
-2105.67
 20
-855.228
 11
-2111.32
 21
-851.962
  0
LINE
  5
170
100
AcDbEntity
  8
ProjItem222
  6
ByLayer
 62
  256
370
   -1
100
AcDbLine
 10
-2105.67
 20
-848.696
 11
-2111.32
 21
-851.962
  0
LINE
  5
171
100
AcDbEntity
  8
ProjItem222
  6
ByLayer
 62
  256
370
   -1
100
AcDbLine
 10
-2105.67
 20
-928.713
 11
-2111.32
 21
-925.447
  0
LINE
  5
172
100
AcDbEntity
  8
ProjItem222
  6
ByLayer
 62
  256
370
   -1
100
AcDbLine
 10
-2105.67
 20
-908.3
 11
-2105.67
 21
-928.713
  0
LINE
  5
173
100
AcDbEntity
  8
ProjItem222
  6
ByLayer
 62
  256
370
   -1
100
AcDbLine
 10
-2111.32
 20
-851.962
 11
-2111.32
 21
-925.447
  0
LINE
  5
174
100
AcDbEntity
  8
ProjItem222
  6
ByLayer
 62
  256
370
   -1
100
AcDbLine
 10
-2105.67
 20
-928.713
 11
-2087.99
 21
-918.5069999999999
  0
LINE
  5
175
100
AcDbEntity
  8
ProjItem222
  6
ByLayer
 62
  256
370
   -1
100
AcDbLine
 10
-914.8920000000001
 20
169.887
 11
-879.5359999999999
 21
190.3
  0
LINE
  5
176
100
AcDbEntity
  8
ProjItem222
  6
ByLayer
 62
  256
370
   -1
100
AcDbLine
 10
-879.5359999999999
 20
190.3
 11
-879.5359999999999
 21
263.785
  0
ELLIPSE
  5
177
100
AcDbEntity
  8
ProjItem222
  6
ByLayer
 62
  256
370
   -1
100
AcDbEllipse
 10
-900.75
 20
202.547
 30
0
 11
-2.75
 21
-4.76314
 31
0
 40
0.57735
 41
2.35619
 42
3.14159
  0
ELLIPSE
  5
178
100
AcDbEntity
  8
ProjItem222
  6
ByLayer
 62
  256
370
   -1
100
AcDbEllipse
 10
-900.75
 20
202.547
 30
0
 11
-2.75
 21
-4.76314
 31
0
 40
0.57735
 41
3.14159
 42
0
  0
ELLIPSE
  5
179
100
AcDbEntity
  8
ProjItem222
  6
ByLayer
 62
  256
370
   -1
100
AcDbEllipse
 10
-900.75
 20
202.547
 30
0
 11
-2.75
 21
-4.76314
 31
0
 40
0.57735
 41
0
 42
2.35619
  0
ELLIPSE
  5
17A
100
AcDbEntity
  8
ProjItem222
  6
ByLayer
 62
  256
370
   -1
100
AcDbEllipse
 10
-900.75
 20
235.207
 30
0
 11
-2.75
 21
-4.76314
 31
0
 40
0.57735
 41
2.35619
 42
3.14159
  0
ELLIPSE
  5
17B
100
AcDbEntity
  8
ProjItem222
  6
ByLayer
 62
  256
370
   -1
100
AcDbEllipse
 10
-900.75
 20
235.207
 30
0
 11
-2.75
 21
-4.76314
 31
0
 40
0.57735
 41
3.14159
 42
0
  0
ELLIPSE
  5
17C
100
AcDbEntity
  8
ProjItem222
  6
ByLayer
 62
  256
370
   -1
100
AcDbEllipse
 10
-900.75
 20
235.207
 30
0
 11
-2.75
 21
-4.76314
 31
0
 40
0.57735
 41
0
 42
2.35619
  0
LINE
  5
17D
100
AcDbEntity
  8
ProjItem222
  6
ByLayer
 62
  256
370
   -1
100
AcDbLine
 10
-1058.3
 20
660.707
 11
-1058.3
 21
114.854
  0
LINE
  5
17E
100
AcDbEntity
  8
ProjItem222
  6
ByLayer
 62
  256
370
   -1
100
AcDbLine
 10
-1069.61
 20
114.854
 11
-1069.61
 21
670.782
  0
LINE
  5
17F
100
AcDbEntity
  8
ProjItem222
  6
ByLayer
 62
  256
370
   -1
100
AcDbLine
 10
-1063.95
 20
111.588
 11
-1063.95
 21
667.516
  0
LINE
  5
180
100
AcDbEntity
  8
ProjItem222
  6
ByLayer
 62
  256
370
   -1
100
AcDbLine
 10
-986.5940000000001
 20
574.4
 11
-986.5940000000001
 21
156.251
  0
LINE
  5
181
100
AcDbEntity
  8
ProjItem222
  6
ByLayer
 62
  256
370
   -1
100
AcDbLine
 10
-980.937
 20
159.517
 11
-980.937
 21
567.591
  0
LINE
  5
182
100
AcDbEntity
  8
ProjItem222
  6
ByLayer
 62
  256
370
   -1
100
AcDbLine
 10
-992.251
 20
577.6660000000001
 11
-992.251
 21
159.517
  0
LINE
  5
183
100
AcDbEntity
  8
ProjItem222
  6
ByLayer
 62
  256
370
   -1
100
AcDbLine
 10
-1218.67
 20
689.3390000000001
 11
-1218.67
 21
22.2616
  0
LINE
  5
184
100
AcDbEntity
  8
ProjItem222
  6
ByLayer
 62
  256
370
   -1
100
AcDbLine
 10
-1213.01
 20
25.5276
 11
-1213.01
 21
692.605
  0
LINE
  5
185
100
AcDbEntity
  8
ProjItem222
  6
ByLayer
 62
  256
370
   -1
100
AcDbLine
 10
-1224.33
 20
686.073
 11
-1224.33
 21
25.5276
  0
LINE
  5
186
100
AcDbEntity
  8
ProjItem222
  6
ByLayer
 62
  256
370
   -1
100
AcDbLine
 10
-1141.31
 20
734.002
 11
-1141.31
 21
66.9248
  0
LINE
  5
187
100
AcDbEntity
  8
ProjItem222
  6
ByLayer
 62
  256
370
   -1
100
AcDbLine
 10
-1135.65
 20
70.1908
 11
-1135.65
 21
737.268
  0
LINE
  5
188
100
AcDbEntity
  8
ProjItem222
  6
ByLayer
 62
  256
370
   -1
100
AcDbLine
 10
-1146.97
 20
730.736
 11
-1146.97
 21
70.1908
  0
LINE
  5
189
100
AcDbEntity
  8
ProjItem222
  6
ByLayer
 62
  256
370
   -1
100
AcDbLine
 10
-1611.12
 20
-204.317
 11
-1611.12
 21
435.373
  0
LINE
  5
18A
100
AcDbEntity
  8
ProjItem222
  6
ByLayer
 62
  256
370
   -1
100
AcDbLine
 10
-1616.77
 20
427.646
 11
-1616.77
 21
-207.583
  0
LINE
  5
18B
100
AcDbEntity
  8
ProjItem222
  6
ByLayer
 62
  256
370
   -1
100
AcDbLine
 10
-1622.43
 20
419.92
 11
-1622.43
 21
-204.317
  0
LINE
  5
18C
100
AcDbEntity
  8
ProjItem222
  6
ByLayer
 62
  256
370
   -1
100
AcDbLine
 10
-1695.19
 20
-252.858
 11
-1695.19
 21
320.535
  0
LINE
  5
18D
100
AcDbEntity
  8
ProjItem222
  6
ByLayer
 62
  256
370
   -1
100
AcDbLine
 10
-1700.85
 20
-249.592
 11
-1700.85
 21
312.808
  0
LINE
  5
18E
100
AcDbEntity
  8
ProjItem222
  6
ByLayer
 62
  256
370
   -1
100
AcDbLine
 10
-1689.53
 20
328.262
 11
-1689.53
 21
-249.592
  0
LINE
  5
18F
100
AcDbEntity
  8
ProjItem222
  6
ByLayer
 62
  256
370
   -1
100
AcDbLine
 10
-1767.95
 20
-339.703
 11
-1767.95
 21
221.15
  0
LINE
  5
190
100
AcDbEntity
  8
ProjItem222
  6
ByLayer
 62
  256
370
   -1
100
AcDbLine
 10
-1773.61
 20
213.424
 11
-1773.61
 21
-347.43
  0
LINE
  5
191
100
AcDbEntity
  8
ProjItem222
  6
ByLayer
 62
  256
370
   -1
100
AcDbLine
 10
-1779.27
 20
205.697
 11
-1779.27
 21
-344.164
  0
LINE
  5
192
100
AcDbEntity
  8
ProjItem222
  6
ByLayer
 62
  256
370
   -1
100
AcDbLine
 10
-1852.03
 20
-454.541
 11
-1852.03
 21
106.312
  0
LINE
  5
193
100
AcDbEntity
  8
ProjItem222
  6
ByLayer
 62
  256
370
   -1
100
AcDbLine
 10
-1857.68
 20
-451.275
 11
-1857.68
 21
98.5856
  0
LINE
  5
194
100
AcDbEntity
  8
ProjItem222
  6
ByLayer
 62
  256
370
   -1
100
AcDbLine
 10
-1846.37
 20
114.039
 11
-1846.37
 21
-446.815
  0
LINE
  5
195
100
AcDbEntity
  8
ProjItem222
  6
ByLayer
 62
  256
370
   -1
100
AcDbLine
 10
-1930.45
 20
-0.799111
 11
-1930.45
 21
-561.653
  0
LINE
  5
196
100
AcDbEntity
  8
ProjItem222
  6
ByLayer
 62
  256
370
   -1
100
AcDbLine
 10
-1936.1
 20
-8.52581
 11
-1936.1
 21
-558.3869999999999
  0
LINE
  5
197
100
AcDbEntity
  8
ProjItem222
  6
ByLayer
 62
  256
370
   -1
100
AcDbLine
 10
-1924.79
 20
-553.926
 11
-1924.79
 21
6.92759
  0
LINE
  5
198
100
AcDbEntity
  8
ProjItem222
  6
ByLayer
 62
  256
370
   -1
100
AcDbLine
 10
-2008.86
 20
-107.91
 11
-2008.86
 21
-668.764
  0
LINE
  5
199
100
AcDbEntity
  8
ProjItem222
  6
ByLayer
 62
  256
370
   -1
100
AcDbLine
 10
-2014.52
 20
-115.637
 11
-2014.52
 21
-665.498
  0
LINE
  5
19A
100
AcDbEntity
  8
ProjItem222
  6
ByLayer
 62
  256
370
   -1
100
AcDbLine
 10
-2003.21
 20
-661.037
 11
-2003.21
 21
-100.184
  0
LINE
  5
19B
100
AcDbEntity
  8
ProjItem222
  6
ByLayer
 62
  256
370
   -1
100
AcDbLine
 10
-1381.52
 20
-71.75879999999999
 11
-1381.52
 21
595.319
  0
LINE
  5
19C
100
AcDbEntity
  8
ProjItem222
  6
ByLayer
 62
  256
370
   -1
100
AcDbLine
 10
-1387.18
 20
-68.4928
 11
-1387.18
 21
592.053
  0
LINE
  5
19D
100
AcDbEntity
  8
ProjItem222
  6
ByLayer
 62
  256
370
   -1
100
AcDbLine
 10
-1375.86
 20
598.585
 11
-1375.86
 21
-68.4928
  0
LINE
  5
19E
100
AcDbEntity
  8
ProjItem222
  6
ByLayer
 62
  256
370
   -1
100
AcDbLine
 10
-1459.94
 20
-117.034
 11
-1459.94
 21
550.044
  0
LINE
  5
19F
100
AcDbEntity
  8
ProjItem222
  6
ByLayer
 62
  256
370
   -1
100
AcDbLine
 10
-1465.59
 20
-113.768
 11
-1465.59
 21
546.778
  0
LINE
  5
1A0
100
AcDbEntity
  8
ProjItem222
  6
ByLayer
 62
  256
370
   -1
100
AcDbLine
 10
-1454.28
 20
553.3099999999999
 11
-1454.28
 21
-113.768
  0
LINE
  5
1A1
100
AcDbEntity
  8
ProjItem222
  6
ByLayer
 62
  256
370
   -1
100
AcDbLine
 10
-1532.7
 20
-159.042
 11
-1532.7
 21
508.035
  0
LINE
  5
1A2
100
AcDbEntity
  8
ProjItem222
  6
ByLayer
 62
  256
370
   -1
100
AcDbLine
 10
-1538.35
 20
504.769
 11
-1538.35
 21
-162.308
  0
LINE
  5
1A3
100
AcDbEntity
  8
ProjItem222
  6
ByLayer
 62
  256
370
   -1
100
AcDbLine
 10
-1544.01
 20
501.503
 11
-1544.01
 21
-159.042
  0
LINE
  5
1A4
100
AcDbEntity
  8
ProjItem222
  6
ByLayer
 62
  256
370
   -1
100
AcDbLine
 10
-1585.48
 20
562.6660000000001
 11
-1216.56
 21
775.6609999999999
  0
LINE
  5
1A5
100
AcDbEntity
  8
ProjItem222
  6
ByLayer
 62
  256
370
   -1
100
AcDbLine
 10
-1620.31
 20
602.603
 11
-1242.56
 21
820.694
  0
LINE
  5
1A6
100
AcDbEntity
  8
ProjItem222
  6
ByLayer
 62
  256
370
   -1
100
AcDbLine
 10
-2102.49
 20
-147.753
 11
-1584.99
 21
563.345
  0
LINE
  5
1A7
100
AcDbEntity
  8
ProjItem222
  6
ByLayer
 62
  256
370
   -1
100
AcDbLine
 10
-2144.53
 20
-117.155
 11
-1621.53
 21
601.505
  0
LINE
  5
1A8
100
AcDbEntity
  8
ProjItem221
  6
ByLayer
 62
  256
370
   -1
100
AcDbLine
 10
685.608215615872
 20
501.5904749913869
 11
685.1818633532558
 21
502.9603551640977
  0
LINE
  5
1A9
100
AcDbEntity
  8
ProjItem221
  6
ByLayer
 62
  256
370
   -1
100
AcDbLine
 10
685.1818633532558
 20
502.9603551640977
 11
684.75845246933
 21
504.3196463735227
  0
LINE
  5
1AA
100
AcDbEntity
  8
ProjItem221
  6
ByLayer
 62
  256
370
   -1
100
AcDbLine
 10
684.75845246933
 20
504.3196463735227
 11
684.3368060815769
 21
505.6725853967255
  0
LINE
  5
1AB
100
AcDbEntity
  8
ProjItem221
  6
ByLayer
 62
  256
370
   -1
100
AcDbLine
 10
684.3368060815769
 20
505.6725853967255
 11
683.9205718891835
 21
507.0081112696416
  0
LINE
  5
1AC
100
AcDbEntity
  8
ProjItem221
  6
ByLayer
 62
  256
370
   -1
100
AcDbLine
 10
683.9205718891835
 20
507.0081112696416
 11
683.5097490136162
 21
508.3262268188558
  0
LINE
  5
1AD
100
AcDbEntity
  8
ProjItem221
  6
ByLayer
 62
  256
370
   -1
100
AcDbLine
 10
683.5097490136162
 20
508.3262268188558
 11
683.1049267237377
 21
509.6254581719319
  0
LINE
  5
1AE
100
AcDbEntity
  8
ProjItem221
  6
ByLayer
 62
  256
370
   -1
100
AcDbLine
 10
683.1049267237377
 20
509.6254581719319
 11
682.7101038227056
 21
510.8932208601087
  0
LINE
  5
1AF
100
AcDbEntity
  8
ProjItem221
  6
ByLayer
 62
  256
370
   -1
100
AcDbLine
 10
682.7101038227056
 20
510.8932208601087
 11
682.3204580843033
 21
512.1442754325259
  0
LINE
  5
1B0
100
AcDbEntity
  8
ProjItem221
  6
ByLayer
 62
  256
370
   -1
100
AcDbLine
 10
682.3204580843033
 20
512.1442754325259
 11
681.9463410326698
 21
513.3452146976438
  0
LINE
  5
1B1
100
AcDbEntity
  8
ProjItem221
  6
ByLayer
 62
  256
370
   -1
100
AcDbLine
 10
681.9463410326698
 20
513.3452146976438
 11
681.5754012200601
 21
514.5359161925733
  0
LINE
  5
1B2
100
AcDbEntity
  8
ProjItem221
  6
ByLayer
 62
  256
370
   -1
100
AcDbLine
 10
681.5754012200601
 20
514.5359161925733
 11
681.2266958926887
 21
515.6549732350695
  0
LINE
  5
1B3
100
AcDbEntity
  8
ProjItem221
  6
ByLayer
 62
  256
370
   -1
100
AcDbLine
 10
681.2266958926887
 20
515.6549732350695
 11
680.8779913801885
 21
516.774027680163
  0
LINE
  5
1B4
100
AcDbEntity
  8
ProjItem221
  6
ByLayer
 62
  256
370
   -1
100
AcDbLine
 10
680.8779913801885
 20
516.774027680163
 11
680.5594036519421
 21
517.7970848754475
  0
LINE
  5
1B5
100
AcDbEntity
  8
ProjItem221
  6
ByLayer
 62
  256
370
   -1
100
AcDbLine
 10
680.5594036519421
 20
517.7970848754475
 11
680.2408159236957
 21
518.820142070732
  0
LINE
  5
1B6
100
AcDbEntity
  8
ProjItem221
  6
ByLayer
 62
  256
370
   -1
100
AcDbLine
 10
680.2408159236957
 20
518.820142070732
 11
679.9518760092271
 21
519.7480791968123
  0
LINE
  5
1B7
100
AcDbEntity
  8
ProjItem221
  6
ByLayer
 62
  256
370
   -1
100
AcDbLine
 10
679.9518760092271
 20
519.7480791968123
 11
679.6671705799967
 21
520.6624306827543
  0
LINE
  5
1B8
100
AcDbEntity
  8
ProjItem221
  6
ByLayer
 62
  256
370
   -1
100
AcDbLine
 10
679.6671705799967
 20
520.6624306827543
 11
679.410348213724
 21
521.4864269267065
  0
LINE
  5
1B9
100
AcDbEntity
  8
ProjItem221
  6
ByLayer
 62
  256
370
   -1
100
AcDbLine
 10
679.410348213724
 20
521.4864269267065
 11
679.1628191959137
 21
522.2803080161476
  0
LINE
  5
1BA
100
AcDbEntity
  8
ProjItem221
  6
ByLayer
 62
  256
370
   -1
100
AcDbLine
 10
679.1628191959137
 20
522.2803080161476
 11
678.9408790649951
 21
522.9927164427269
  0
LINE
  5
1BB
100
AcDbEntity
  8
ProjItem221
  6
ByLayer
 62
  256
370
   -1
100
AcDbLine
 10
678.9408790649951
 20
522.9927164427269
 11
678.7342911584954
 21
523.6562447984542
  0
LINE
  5
1BC
100
AcDbEntity
  8
ProjItem221
  6
ByLayer
 62
  256
370
   -1
100
AcDbLine
 10
678.7342911584954
 20
523.6562447984542
 11
678.5491155619468
 21
524.250594922033
  0
LINE
  5
1BD
100
AcDbEntity
  8
ProjItem221
  6
ByLayer
 62
  256
370
   -1
100
AcDbLine
 10
678.5491155619468
 20
524.250594922033
 11
678.3853511167033
 21
524.775770556779
  0
LINE
  5
1BE
100
AcDbEntity
  8
ProjItem221
  6
ByLayer
 62
  256
370
   -1
100
AcDbLine
 10
678.3853511167033
 20
524.775770556779
 11
678.2387047544152
 21
525.2464153911833
  0
LINE
  5
1BF
100
AcDbEntity
  8
ProjItem221
  6
ByLayer
 62
  256
370
   -1
100
AcDbLine
 10
678.2387047544152
 20
525.2464153911833
 11
678.1205872953459
 21
525.6261794926527
  0
LINE
  5
1C0
100
AcDbEntity
  8
ProjItem221
  6
ByLayer
 62
  256
370
   -1
100
AcDbLine
 10
678.1205872953459
 20
525.6261794926527
 11
678.0141171916896
 21
525.9685308767357
  0
LINE
  5
1C1
100
AcDbEntity
  8
ProjItem221
  6
ByLayer
 62
  256
370
   -1
100
AcDbLine
 10
678.0141171916896
 20
525.9685308767357
 11
677.9425878937672
 21
526.1986481575518
  0
LINE
  5
1C2
100
AcDbEntity
  8
ProjItem221
  6
ByLayer
 62
  256
370
   -1
100
AcDbLine
 10
677.9425878937672
 20
526.1986481575518
 11
677.8769999236059
 21
526.4095884794559
  0
LINE
  5
1C3
100
AcDbEntity
  8
ProjItem221
  6
ByLayer
 62
  256
370
   -1
100
AcDbLine
 10
677.8769999236059
 20
526.4095884794559
 11
677.8529999618029
 21
526.4862942397281
  0
LINE
  5
1C4
100
AcDbEntity
  8
ProjItem221
  6
ByLayer
 62
  256
370
   -1
100
AcDbLine
 10
677.8529999618029
 20
526.4862942397281
 11
677.829
 21
526.563
  0
LINE
  5
1C5
100
AcDbEntity
  8
ProjItem221
  6
ByLayer
 62
  256
370
   -1
100
AcDbLine
 10
686.0930767068393
 20
500.0332138221837
 11
686.288072207466
 21
499.4074082621725
  0
LINE
  5
1C6
100
AcDbEntity
  8
ProjItem221
  6
ByLayer
 62
  256
370
   -1
100
AcDbLine
 10
686.288072207466
 20
499.4074082621725
 11
686.4830677080926
 21
498.7816027021613
  0
LINE
  5
1C7
100
AcDbEntity
  8
ProjItem221
  6
ByLayer
 62
  256
370
   -1
100
AcDbLine
 10
686.4830677080926
 20
498.7816027021613
 11
686.6780627098121
 21
498.1557988060194
  0
LINE
  5
1C8
100
AcDbEntity
  8
ProjItem221
  6
ByLayer
 62
  256
370
   -1
100
AcDbLine
 10
686.6780627098121
 20
498.1557988060194
 11
686.8715191087651
 21
497.5351261927118
  0
LINE
  5
1C9
100
AcDbEntity
  8
ProjItem221
  6
ByLayer
 62
  256
370
   -1
100
AcDbLine
 10
686.8715191087651
 20
497.5351261927118
 11
687.0649755077181
 21
496.914453579404
  0
LINE
  5
1CA
100
AcDbEntity
  8
ProjItem221
  6
ByLayer
 62
  256
370
   -1
100
AcDbLine
 10
687.0649755077181
 20
496.914453579404
 11
687.2584319066711
 21
496.2937809660965
  0
LINE
  5
1CB
100
AcDbEntity
  8
ProjItem221
  6
ByLayer
 62
  256
370
   -1
100
AcDbLine
 10
687.2584319066711
 20
496.2937809660965
 11
687.4513628968896
 21
495.6747655867264
  0
LINE
  5
1CC
100
AcDbEntity
  8
ProjItem221
  6
ByLayer
 62
  256
370
   -1
100
AcDbLine
 10
687.4513628968896
 20
495.6747655867264
 11
687.6414185115004
 21
495.0648196607663
  0
LINE
  5
1CD
100
AcDbEntity
  8
ProjItem221
  6
ByLayer
 62
  256
370
   -1
100
AcDbLine
 10
687.6414185115004
 20
495.0648196607663
 11
687.8314741261112
 21
494.4548737348061
  0
LINE
  5
1CE
100
AcDbEntity
  8
ProjItem221
  6
ByLayer
 62
  256
370
   -1
100
AcDbLine
 10
687.8314741261112
 20
494.4548737348061
 11
688.0215297407219
 21
493.844927808846
  0
LINE
  5
1CF
100
AcDbEntity
  8
ProjItem221
  6
ByLayer
 62
  256
370
   -1
100
AcDbLine
 10
688.0215297407219
 20
493.844927808846
 11
688.2099824728339
 21
493.2399508186322
  0
LINE
  5
1D0
100
AcDbEntity
  8
ProjItem221
  6
ByLayer
 62
  256
370
   -1
100
AcDbLine
 10
688.2099824728339
 20
493.2399508186322
 11
688.3948382074279
 21
492.6461245207238
  0
LINE
  5
1D1
100
AcDbEntity
  8
ProjItem221
  6
ByLayer
 62
  256
370
   -1
100
AcDbLine
 10
688.3948382074279
 20
492.6461245207238
 11
688.579693942022
 21
492.0522982228155
  0
LINE
  5
1D2
100
AcDbEntity
  8
ProjItem221
  6
ByLayer
 62
  256
370
   -1
100
AcDbLine
 10
688.579693942022
 20
492.0522982228155
 11
688.7645496766162
 21
491.4584719249071
  0
LINE
  5
1D3
100
AcDbEntity
  8
ProjItem221
  6
ByLayer
 62
  256
370
   -1
100
AcDbLine
 10
688.7645496766162
 20
491.4584719249071
 11
688.9465225281313
 21
490.8743753573898
  0
LINE
  5
1D4
100
AcDbEntity
  8
ProjItem221
  6
ByLayer
 62
  256
370
   -1
100
AcDbLine
 10
688.9465225281313
 20
490.8743753573898
 11
689.1251384067054
 21
490.3016085735491
  0
LINE
  5
1D5
100
AcDbEntity
  8
ProjItem221
  6
ByLayer
 62
  256
370
   -1
100
AcDbLine
 10
689.1251384067054
 20
490.3016085735491
 11
689.3037542852794
 21
489.7288417897084
  0
LINE
  5
1D6
100
AcDbEntity
  8
ProjItem221
  6
ByLayer
 62
  256
370
   -1
100
AcDbLine
 10
689.3037542852794
 20
489.7288417897084
 11
689.4823701638534
 21
489.1560750058677
  0
LINE
  5
1D7
100
AcDbEntity
  8
ProjItem221
  6
ByLayer
 62
  256
370
   -1
100
AcDbLine
 10
689.4823701638534
 20
489.1560750058677
 11
689.6558629662154
 21
488.5991577390581
  0
LINE
  5
1D8
100
AcDbEntity
  8
ProjItem221
  6
ByLayer
 62
  256
370
   -1
100
AcDbLine
 10
689.6558629662154
 20
488.5991577390581
 11
689.8261590367625
 21
488.0521303613001
  0
LINE
  5
1D9
100
AcDbEntity
  8
ProjItem221
  6
ByLayer
 62
  256
370
   -1
100
AcDbLine
 10
689.8261590367625
 20
488.0521303613001
 11
689.9964551073099
 21
487.5051029835422
  0
LINE
  5
1DA
100
AcDbEntity
  8
ProjItem221
  6
ByLayer
 62
  256
370
   -1
100
AcDbLine
 10
689.9964551073099
 20
487.5051029835422
 11
690.1667511778571
 21
486.9580756057842
  0
LINE
  5
1DB
100
AcDbEntity
  8
ProjItem221
  6
ByLayer
 62
  256
370
   -1
100
AcDbLine
 10
690.1667511778571
 20
486.9580756057842
 11
690.3296445794106
 21
486.4348568120875
  0
LINE
  5
1DC
100
AcDbEntity
  8
ProjItem221
  6
ByLayer
 62
  256
370
   -1
100
AcDbLine
 10
690.3296445794106
 20
486.4348568120875
 11
690.4903208719269
 21
485.9187687204289
  0
LINE
  5
1DD
100
AcDbEntity
  8
ProjItem221
  6
ByLayer
 62
  256
370
   -1
100
AcDbLine
 10
690.4903208719269
 20
485.9187687204289
 11
690.6509971644432
 21
485.4026806287703
  0
LINE
  5
1DE
100
AcDbEntity
  8
ProjItem221
  6
ByLayer
 62
  256
370
   -1
100
AcDbLine
 10
690.6509971644432
 20
485.4026806287703
 11
690.8116734569596
 21
484.8865925371119
  0
LINE
  5
1DF
100
AcDbEntity
  8
ProjItem221
  6
ByLayer
 62
  256
370
   -1
100
AcDbLine
 10
690.8116734569596
 20
484.8865925371119
 11
690.9625077758052
 21
484.4026708959869
  0
LINE
  5
1E0
100
AcDbEntity
  8
ProjItem221
  6
ByLayer
 62
  256
370
   -1
100
AcDbLine
 10
690.9625077758052
 20
484.4026708959869
 11
691.1125243142874
 21
483.9214220004404
  0
LINE
  5
1E1
100
AcDbEntity
  8
ProjItem221
  6
ByLayer
 62
  256
370
   -1
100
AcDbLine
 10
691.1125243142874
 20
483.9214220004404
 11
691.2625408527695
 21
483.4401731048939
  0
LINE
  5
1E2
100
AcDbEntity
  8
ProjItem221
  6
ByLayer
 62
  256
370
   -1
100
AcDbLine
 10
691.2625408527695
 20
483.4401731048939
 11
691.4115970872817
 21
482.9619651204313
  0
LINE
  5
1E3
100
AcDbEntity
  8
ProjItem221
  6
ByLayer
 62
  256
370
   -1
100
AcDbLine
 10
691.4115970872817
 20
482.9619651204313
 11
691.5491487472901
 21
482.520187671747
  0
LINE
  5
1E4
100
AcDbEntity
  8
ProjItem221
  6
ByLayer
 62
  256
370
   -1
100
AcDbLine
 10
691.5491487472901
 20
482.520187671747
 11
691.6867004072983
 21
482.0784102230625
  0
LINE
  5
1E5
100
AcDbEntity
  8
ProjItem221
  6
ByLayer
 62
  256
370
   -1
100
AcDbLine
 10
691.6867004072983
 20
482.0784102230625
 11
691.8242520673066
 21
481.6366327743781
  0
LINE
  5
1E6
100
AcDbEntity
  8
ProjItem221
  6
ByLayer
 62
  256
370
   -1
100
AcDbLine
 10
691.8242520673066
 20
481.6366327743781
 11
691.9587344844116
 21
481.2047851483525
  0
LINE
  5
1E7
100
AcDbEntity
  8
ProjItem221
  6
ByLayer
 62
  256
370
   -1
100
AcDbLine
 10
691.9587344844116
 20
481.2047851483525
 11
692.0830116168111
 21
480.8059543510707
  0
LINE
  5
1E8
100
AcDbEntity
  8
ProjItem221
  6
ByLayer
 62
  256
370
   -1
100
AcDbLine
 10
692.0830116168111
 20
480.8059543510707
 11
692.2072887492104
 21
480.407123553789
  0
LINE
  5
1E9
100
AcDbEntity
  8
ProjItem221
  6
ByLayer
 62
  256
370
   -1
100
AcDbLine
 10
692.2072887492104
 20
480.407123553789
 11
692.3315658816099
 21
480.0082927565073
  0
LINE
  5
1EA
100
AcDbEntity
  8
ProjItem221
  6
ByLayer
 62
  256
370
   -1
100
AcDbLine
 10
692.3315658816099
 20
480.0082927565073
 11
692.4502379747112
 21
479.6273780669823
  0
LINE
  5
1EB
100
AcDbEntity
  8
ProjItem221
  6
ByLayer
 62
  256
370
   -1
100
AcDbLine
 10
692.4502379747112
 20
479.6273780669823
 11
692.5599554430637
 21
479.2750861958501
  0
LINE
  5
1EC
100
AcDbEntity
  8
ProjItem221
  6
ByLayer
 62
  256
370
   -1
100
AcDbLine
 10
692.5599554430637
 20
479.2750861958501
 11
692.6696729114163
 21
478.922794324718
  0
LINE
  5
1ED
100
AcDbEntity
  8
ProjItem221
  6
ByLayer
 62
  256
370
   -1
100
AcDbLine
 10
692.6696729114163
 20
478.922794324718
 11
692.7793903797689
 21
478.5705024535858
  0
LINE
  5
1EE
100
AcDbEntity
  8
ProjItem221
  6
ByLayer
 62
  256
370
   -1
100
AcDbLine
 10
692.7793903797689
 20
478.5705024535858
 11
692.8808439546638
 21
478.2448231207075
  0
LINE
  5
1EF
100
AcDbEntity
  8
ProjItem221
  6
ByLayer
 62
  256
370
   -1
100
AcDbLine
 10
692.8808439546638
 20
478.2448231207075
 11
692.975221776967
 21
477.941930109734
  0
LINE
  5
1F0
100
AcDbEntity
  8
ProjItem221
  6
ByLayer
 62
  256
370
   -1
100
AcDbLine
 10
692.975221776967
 20
477.941930109734
 11
693.0695995992703
 21
477.6390370987606
  0
LINE
  5
1F1
100
AcDbEntity
  8
ProjItem221
  6
ByLayer
 62
  256
370
   -1
100
AcDbLine
 10
693.0695995992703
 20
477.6390370987606
 11
693.1639774215736
 21
477.3361440877872
  0
LINE
  5
1F2
100
AcDbEntity
  8
ProjItem221
  6
ByLayer
 62
  256
370
   -1
100
AcDbLine
 10
693.1639774215736
 20
477.3361440877872
 11
693.2470125982454
 21
477.0694395176382
  0
LINE
  5
1F3
100
AcDbEntity
  8
ProjItem221
  6
ByLayer
 62
  256
370
   -1
100
AcDbLine
 10
693.2470125982454
 20
477.0694395176382
 11
693.325010798496
 21
476.8188053008327
  0
LINE
  5
1F4
100
AcDbEntity
  8
ProjItem221
  6
ByLayer
 62
  256
370
   -1
100
AcDbLine
 10
693.325010798496
 20
476.8188053008327
 11
693.4030089987467
 21
476.5681710840273
  0
LINE
  5
1F5
100
AcDbEntity
  8
ProjItem221
  6
ByLayer
 62
  256
370
   -1
100
AcDbLine
 10
693.4030089987467
 20
476.5681710840273
 11
693.4810071989974
 21
476.3175368672219
  0
LINE
  5
1F6
100
AcDbEntity
  8
ProjItem221
  6
ByLayer
 62
  256
370
   -1
100
AcDbLine
 10
693.4810071989974
 20
476.3175368672219
 11
693.5449242474084
 21
476.112666393895
  0
LINE
  5
1F7
100
AcDbEntity
  8
ProjItem221
  6
ByLayer
 62
  256
370
   -1
100
AcDbLine
 10
693.5449242474084
 20
476.112666393895
 11
693.6062828316057
 21
475.9161109292634
  0
LINE
  5
1F8
100
AcDbEntity
  8
ProjItem221
  6
ByLayer
 62
  256
370
   -1
100
AcDbLine
 10
693.6062828316057
 20
475.9161109292634
 11
693.6676414158028
 21
475.7195554646317
  0
LINE
  5
1F9
100
AcDbEntity
  8
ProjItem221
  6
ByLayer
 62
  256
370
   -1
100
AcDbLine
 10
693.6676414158028
 20
475.7195554646317
 11
693.729
 21
475.523
  0
LINE
  5
1FA
100
AcDbEntity
  8
ProjItem221
  6
ByLayer
 62
  256
370
   -1
100
AcDbLine
 10
1214.41
 20
475.8178962338852
 11
1214.41
 21
476.4455918979507
  0
LINE
  5
1FB
100
AcDbEntity
  8
ProjItem221
  6
ByLayer
 62
  256
370
   -1
100
AcDbLine
 10
1214.41
 20
476.4455918979507
 11
1214.41
 21
477.0732875620164
  0
LINE
  5
1FC
100
AcDbEntity
  8
ProjItem221
  6
ByLayer
 62
  256
370
   -1
100
AcDbLine
 10
1214.41
 20
477.0732875620164
 11
1214.41
 21
477.8143587074413
  0
LINE
  5
1FD
100
AcDbEntity
  8
ProjItem221
  6
ByLayer
 62
  256
370
   -1
100
AcDbLine
 10
1214.41
 20
477.8143587074413
 11
1214.41
 21
478.7528426300105
  0
LINE
  5
1FE
100
AcDbEntity
  8
ProjItem221
  6
ByLayer
 62
  256
370
   -1
100
AcDbLine
 10
1214.41
 20
478.7528426300105
 11
1214.41
 21
479.6913265525797
  0
LINE
  5
1FF
100
AcDbEntity
  8
ProjItem221
  6
ByLayer
 62
  256
370
   -1
100
AcDbLine
 10
1214.41
 20
479.6913265525797
 11
1214.41
 21
480.7005104928224
  0
LINE
  5
200
100
AcDbEntity
  8
ProjItem221
  6
ByLayer
 62
  256
370
   -1
100
AcDbLine
 10
1214.41
 20
480.7005104928224
 11
1214.41
 21
481.9111354293144
  0
LINE
  5
201
100
AcDbEntity
  8
ProjItem221
  6
ByLayer
 62
  256
370
   -1
100
AcDbLine
 10
1214.41
 20
481.9111354293144
 11
1214.41
 21
483.1217603658063
  0
LINE
  5
202
100
AcDbEntity
  8
ProjItem221
  6
ByLayer
 62
  256
370
   -1
100
AcDbLine
 10
1214.41
 20
483.1217603658063
 11
1214.41
 21
484.3666819471456
  0
LINE
  5
203
100
AcDbEntity
  8
ProjItem221
  6
ByLayer
 62
  256
370
   -1
100
AcDbLine
 10
1214.41
 20
484.3666819471456
 11
1214.41
 21
485.7988844192338
  0
LINE
  5
204
100
AcDbEntity
  8
ProjItem221
  6
ByLayer
 62
  256
370
   -1
100
AcDbLine
 10
1214.41
 20
485.7988844192338
 11
1214.41
 21
487.231086891322
  0
LINE
  5
205
100
AcDbEntity
  8
ProjItem221
  6
ByLayer
 62
  256
370
   -1
100
AcDbLine
 10
1214.41
 20
487.231086891322
 11
1214.41
 21
488.6713048079134
  0
LINE
  5
206
100
AcDbEntity
  8
ProjItem221
  6
ByLayer
 62
  256
370
   -1
100
AcDbLine
 10
1214.41
 20
488.6713048079134
 11
1214.41
 21
490.2645374657548
  0
LINE
  5
207
100
AcDbEntity
  8
ProjItem221
  6
ByLayer
 62
  256
370
   -1
100
AcDbLine
 10
1214.41
 20
490.2645374657548
 11
1214.41
 21
491.857770123596
  0
LINE
  5
208
100
AcDbEntity
  8
ProjItem221
  6
ByLayer
 62
  256
370
   -1
100
AcDbLine
 10
1214.41
 20
491.857770123596
 11
1214.41
 21
493.4510027814374
  0
LINE
  5
209
100
AcDbEntity
  8
ProjItem221
  6
ByLayer
 62
  256
370
   -1
100
AcDbLine
 10
1214.41
 20
493.4510027814374
 11
1214.41
 21
495.1337693377369
  0
LINE
  5
20A
100
AcDbEntity
  8
ProjItem221
  6
ByLayer
 62
  256
370
   -1
100
AcDbLine
 10
1214.41
 20
495.1337693377369
 11
1214.41
 21
496.8217701144285
  0
LINE
  5
20B
100
AcDbEntity
  8
ProjItem221
  6
ByLayer
 62
  256
370
   -1
100
AcDbLine
 10
1214.41
 20
496.8217701144285
 11
1214.41
 21
498.5097708911203
  0
LINE
  5
20C
100
AcDbEntity
  8
ProjItem221
  6
ByLayer
 62
  256
370
   -1
100
AcDbLine
 10
1214.41
 20
498.5097708911203
 11
1214.41
 21
500.2179901560974
  0
LINE
  5
20D
100
AcDbEntity
  8
ProjItem221
  6
ByLayer
 62
  256
370
   -1
100
AcDbLine
 10
1214.41
 20
500.2179901560974
 11
1214.41
 21
501.9300630910246
  0
LINE
  5
20E
100
AcDbEntity
  8
ProjItem221
  6
ByLayer
 62
  256
370
   -1
100
AcDbLine
 10
1214.41
 20
501.9300630910246
 11
1214.41
 21
503.6421360259517
  0
LINE
  5
20F
100
AcDbEntity
  8
ProjItem221
  6
ByLayer
 62
  256
370
   -1
100
AcDbLine
 10
1214.41
 20
503.6421360259517
 11
1214.41
 21
505.3191798174985
  0
LINE
  5
210
100
AcDbEntity
  8
ProjItem221
  6
ByLayer
 62
  256
370
   -1
100
AcDbLine
 10
1214.41
 20
505.3191798174985
 11
1214.41
 21
506.9835878174428
  0
LINE
  5
211
100
AcDbEntity
  8
ProjItem221
  6
ByLayer
 62
  256
370
   -1
100
AcDbLine
 10
1214.41
 20
506.9835878174428
 11
1214.41
 21
508.647995817387
  0
LINE
  5
212
100
AcDbEntity
  8
ProjItem221
  6
ByLayer
 62
  256
370
   -1
100
AcDbLine
 10
1214.41
 20
508.647995817387
 11
1214.41
 21
510.2385611336028
  0
LINE
  5
213
100
AcDbEntity
  8
ProjItem221
  6
ByLayer
 62
  256
370
   -1
100
AcDbLine
 10
1214.41
 20
510.2385611336028
 11
1214.41
 21
511.7857391583187
  0
LINE
  5
214
100
AcDbEntity
  8
ProjItem221
  6
ByLayer
 62
  256
370
   -1
100
AcDbLine
 10
1214.41
 20
511.7857391583187
 11
1214.41
 21
513.3329171830347
  0
LINE
  5
215
100
AcDbEntity
  8
ProjItem221
  6
ByLayer
 62
  256
370
   -1
100
AcDbLine
 10
1214.41
 20
513.3329171830347
 11
1214.41
 21
514.7844153810256
  0
LINE
  5
216
100
AcDbEntity
  8
ProjItem221
  6
ByLayer
 62
  256
370
   -1
100
AcDbLine
 10
1214.41
 20
514.7844153810256
 11
1214.41
 21
516.1493072354691
  0
LINE
  5
217
100
AcDbEntity
  8
ProjItem221
  6
ByLayer
 62
  256
370
   -1
100
AcDbLine
 10
1214.41
 20
516.1493072354691
 11
1214.41
 21
517.5141990899126
  0
LINE
  5
218
100
AcDbEntity
  8
ProjItem221
  6
ByLayer
 62
  256
370
   -1
100
AcDbLine
 10
1214.41
 20
517.5141990899126
 11
1214.41
 21
518.778752699733
  0
LINE
  5
219
100
AcDbEntity
  8
ProjItem221
  6
ByLayer
 62
  256
370
   -1
100
AcDbLine
 10
1214.41
 20
518.778752699733
 11
1214.41
 21
519.9046757585188
  0
LINE
  5
21A
100
AcDbEntity
  8
ProjItem221
  6
ByLayer
 62
  256
370
   -1
100
AcDbLine
 10
1214.41
 20
519.9046757585188
 11
1214.41
 21
521.0305988173046
  0
LINE
  5
21B
100
AcDbEntity
  8
ProjItem221
  6
ByLayer
 62
  256
370
   -1
100
AcDbLine
 10
1214.41
 20
521.0305988173046
 11
1214.41
 21
522.0664846031326
  0
LINE
  5
21C
100
AcDbEntity
  8
ProjItem221
  6
ByLayer
 62
  256
370
   -1
100
AcDbLine
 10
1214.41
 20
522.0664846031326
 11
1214.41
 21
522.9064590403797
  0
LINE
  5
21D
100
AcDbEntity
  8
ProjItem221
  6
ByLayer
 62
  256
370
   -1
100
AcDbLine
 10
1214.41
 20
522.9064590403797
 11
1214.41
 21
523.7464334776267
  0
LINE
  5
21E
100
AcDbEntity
  8
ProjItem221
  6
ByLayer
 62
  256
370
   -1
100
AcDbLine
 10
1214.41
 20
523.7464334776267
 11
1214.41
 21
524.5188291734787
  0
LINE
  5
21F
100
AcDbEntity
  8
ProjItem221
  6
ByLayer
 62
  256
370
   -1
100
AcDbLine
 10
1214.41
 20
524.5188291734787
 11
1214.41
 21
525.0370243112322
  0
LINE
  5
220
100
AcDbEntity
  8
ProjItem221
  6
ByLayer
 62
  256
370
   -1
100
AcDbLine
 10
1214.41
 20
525.0370243112322
 11
1214.41
 21
525.5552194489858
  0
LINE
  5
221
100
AcDbEntity
  8
ProjItem221
  6
ByLayer
 62
  256
370
   -1
100
AcDbLine
 10
1214.41
 20
525.5552194489858
 11
1214.41
 21
526.0373974737018
  0
LINE
  5
222
100
AcDbEntity
  8
ProjItem221
  6
ByLayer
 62
  256
370
   -1
100
AcDbLine
 10
1214.41
 20
526.0373974737018
 11
1214.41
 21
526.2125983158012
  0
LINE
  5
223
100
AcDbEntity
  8
ProjItem221
  6
ByLayer
 62
  256
370
   -1
100
AcDbLine
 10
1214.41
 20
526.2125983158012
 11
1214.41
 21
526.3877991579006
  0
LINE
  5
224
100
AcDbEntity
  8
ProjItem221
  6
ByLayer
 62
  256
370
   -1
100
AcDbLine
 10
1214.41
 20
526.3877991579006
 11
1214.41
 21
526.563
  0
LINE
  5
225
100
AcDbEntity
  8
ProjItem221
  6
ByLayer
 62
  256
370
   -1
100
AcDbLine
 10
-35.76832056582549
 20
-27.47334987671547
 11
-36.12468036689714
 21
-26.95686165893092
  0
LINE
  5
226
100
AcDbEntity
  8
ProjItem221
  6
ByLayer
 62
  256
370
   -1
100
AcDbLine
 10
-36.12468036689714
 20
-26.95686165893092
 11
-36.48104016796879
 21
-26.44037344114636
  0
LINE
  5
227
100
AcDbEntity
  8
ProjItem221
  6
ByLayer
 62
  256
370
   -1
100
AcDbLine
 10
-36.48104016796879
 20
-26.44037344114636
 11
-36.90188888273795
 21
-25.83043562971087
  0
LINE
  5
228
100
AcDbEntity
  8
ProjItem221
  6
ByLayer
 62
  256
370
   -1
100
AcDbLine
 10
-36.90188888273795
 20
-25.83043562971087
 11
-37.43502762172938
 21
-25.05778059243026
  0
LINE
  5
229
100
AcDbEntity
  8
ProjItem221
  6
ByLayer
 62
  256
370
   -1
100
AcDbLine
 10
-37.43502762172938
 20
-25.05778059243026
 11
-37.9681663607208
 21
-24.28512555514965
  0
LINE
  5
22A
100
AcDbEntity
  8
ProjItem221
  6
ByLayer
 62
  256
370
   -1
100
AcDbLine
 10
-37.9681663607208
 20
-24.28512555514965
 11
-38.54143258903322
 21
-23.45432079919077
  0
LINE
  5
22B
100
AcDbEntity
  8
ProjItem221
  6
ByLayer
 62
  256
370
   -1
100
AcDbLine
 10
-38.54143258903322
 20
-23.45432079919077
 11
-39.22903148219903
 21
-22.45783380371333
  0
LINE
  5
22C
100
AcDbEntity
  8
ProjItem221
  6
ByLayer
 62
  256
370
   -1
100
AcDbLine
 10
-39.22903148219903
 20
-22.45783380371333
 11
-39.91663037536485
 21
-21.46134680823588
  0
LINE
  5
22D
100
AcDbEntity
  8
ProjItem221
  6
ByLayer
 62
  256
370
   -1
100
AcDbLine
 10
-39.91663037536485
 20
-21.46134680823588
 11
-40.62367566555822
 21
-20.4366697652858
  0
LINE
  5
22E
100
AcDbEntity
  8
ProjItem221
  6
ByLayer
 62
  256
370
   -1
100
AcDbLine
 10
-40.62367566555822
 20
-20.4366697652858
 11
-41.43691030964861
 21
-19.25805762972157
  0
LINE
  5
22F
100
AcDbEntity
  8
ProjItem221
  6
ByLayer
 62
  256
370
   -1
100
AcDbLine
 10
-41.43691030964861
 20
-19.25805762972157
 11
-42.250144953739
 21
-18.07944549415735
  0
LINE
  5
230
100
AcDbEntity
  8
ProjItem221
  6
ByLayer
 62
  256
370
   -1
100
AcDbLine
 10
-42.250144953739
 20
-18.07944549415735
 11
-43.06794038575165
 21
-16.8942238230559
  0
LINE
  5
231
100
AcDbEntity
  8
ProjItem221
  6
ByLayer
 62
  256
370
   -1
100
AcDbLine
 10
-43.06794038575165
 20
-16.8942238230559
 11
-43.97280120553557
 21
-15.58282619631965
  0
LINE
  5
232
100
AcDbEntity
  8
ProjItem221
  6
ByLayer
 62
  256
370
   -1
100
AcDbLine
 10
-43.97280120553557
 20
-15.58282619631965
 11
-44.8776620253195
 21
-14.2714285695834
  0
LINE
  5
233
100
AcDbEntity
  8
ProjItem221
  6
ByLayer
 62
  256
370
   -1
100
AcDbLine
 10
-44.8776620253195
 20
-14.2714285695834
 11
-45.78252284510344
 21
-12.96003094284715
  0
LINE
  5
234
100
AcDbEntity
  8
ProjItem221
  6
ByLayer
 62
  256
370
   -1
100
AcDbLine
 10
-45.78252284510344
 20
-12.96003094284715
 11
-46.73824134911424
 21
-11.57492621844239
  0
LINE
  5
235
100
AcDbEntity
  8
ProjItem221
  6
ByLayer
 62
  256
370
   -1
100
AcDbLine
 10
-46.73824134911424
 20
-11.57492621844239
 11
-47.69693303236181
 21
-10.18551252056152
  0
LINE
  5
236
100
AcDbEntity
  8
ProjItem221
  6
ByLayer
 62
  256
370
   -1
100
AcDbLine
 10
-47.69693303236181
 20
-10.18551252056152
 11
-48.65562471560938
 21
-8.796098822680657
  0
LINE
  5
237
100
AcDbEntity
  8
ProjItem221
  6
ByLayer
 62
  256
370
   -1
100
AcDbLine
 10
-48.65562471560938
 20
-8.796098822680657
 11
-49.62574640354743
 21
-7.390138639978431
  0
LINE
  5
238
100
AcDbEntity
  8
ProjItem221
  6
ByLayer
 62
  256
370
   -1
100
AcDbLine
 10
-49.62574640354743
 20
-7.390138639978431
 11
-50.59804666512476
 21
-5.98102467592348
  0
LINE
  5
239
100
AcDbEntity
  8
ProjItem221
  6
ByLayer
 62
  256
370
   -1
100
AcDbLine
 10
-50.59804666512476
 20
-5.98102467592348
 11
-51.57034692670209
 21
-4.571910711868528
  0
LINE
  5
23A
100
AcDbEntity
  8
ProjItem221
  6
ByLayer
 62
  256
370
   -1
100
AcDbLine
 10
-51.57034692670209
 20
-4.571910711868528
 11
-52.52276578257704
 21
-3.191598490556147
  0
LINE
  5
23B
100
AcDbEntity
  8
ProjItem221
  6
ByLayer
 62
  256
370
   -1
100
AcDbLine
 10
-52.52276578257704
 20
-3.191598490556147
 11
-53.46801297294785
 21
-1.821675698843381
  0
LINE
  5
23C
100
AcDbEntity
  8
ProjItem221
  6
ByLayer
 62
  256
370
   -1
100
AcDbLine
 10
-53.46801297294785
 20
-1.821675698843381
 11
-54.41326016331865
 21
-0.4517529071306152
  0
LINE
  5
23D
100
AcDbEntity
  8
ProjItem221
  6
ByLayer
 62
  256
370
   -1
100
AcDbLine
 10
-54.41326016331865
 20
-0.4517529071306152
 11
-55.31655497183495
 21
0.8573729715588559
  0
LINE
  5
23E
100
AcDbEntity
  8
ProjItem221
  6
ByLayer
 62
  256
370
   -1
100
AcDbLine
 10
-55.31655497183495
 20
0.8573729715588559
 11
-56.19520007737826
 21
2.1307767820021
  0
LINE
  5
23F
100
AcDbEntity
  8
ProjItem221
  6
ByLayer
 62
  256
370
   -1
100
AcDbLine
 10
-56.19520007737826
 20
2.1307767820021
 11
-57.07384518292157
 21
3.404180592445345
  0
LINE
  5
240
100
AcDbEntity
  8
ProjItem221
  6
ByLayer
 62
  256
370
   -1
100
AcDbLine
 10
-57.07384518292157
 20
3.404180592445345
 11
-57.89824354571569
 21
4.59894963301252
  0
LINE
  5
241
100
AcDbEntity
  8
ProjItem221
  6
ByLayer
 62
  256
370
   -1
100
AcDbLine
 10
-57.89824354571569
 20
4.59894963301252
 11
-58.67353947804264
 21
5.722540974708616
  0
LINE
  5
242
100
AcDbEntity
  8
ProjItem221
  6
ByLayer
 62
  256
370
   -1
100
AcDbLine
 10
-58.67353947804264
 20
5.722540974708616
 11
-59.44883541036961
 21
6.846132316404714
  0
LINE
  5
243
100
AcDbEntity
  8
ProjItem221
  6
ByLayer
 62
  256
370
   -1
100
AcDbLine
 10
-59.44883541036961
 20
6.846132316404714
 11
-60.16709270175053
 21
7.887071719426957
  0
LINE
  5
244
100
AcDbEntity
  8
ProjItem221
  6
ByLayer
 62
  256
370
   -1
100
AcDbLine
 10
-60.16709270175053
 20
7.887071719426957
 11
-60.80654356937616
 21
8.813816541454727
  0
LINE
  5
245
100
AcDbEntity
  8
ProjItem221
  6
ByLayer
 62
  256
370
   -1
100
AcDbLine
 10
-60.80654356937616
 20
8.813816541454727
 11
-61.44599443700179
 21
9.740561363482497
  0
LINE
  5
246
100
AcDbEntity
  8
ProjItem221
  6
ByLayer
 62
  256
370
   -1
100
AcDbLine
 10
-61.44599443700179
 20
9.740561363482497
 11
-62.03427208601179
 21
10.59314202714067
  0
LINE
  5
247
100
AcDbEntity
  8
ProjItem221
  6
ByLayer
 62
  256
370
   -1
100
AcDbLine
 10
-62.03427208601179
 20
10.59314202714067
 11
-62.51120235697631
 21
11.28434951938606
  0
LINE
  5
248
100
AcDbEntity
  8
ProjItem221
  6
ByLayer
 62
  256
370
   -1
100
AcDbLine
 10
-62.51120235697631
 20
11.28434951938606
 11
-62.98813262794084
 21
11.97555701163144
  0
LINE
  5
249
100
AcDbEntity
  8
ProjItem221
  6
ByLayer
 62
  256
370
   -1
100
AcDbLine
 10
-62.98813262794084
 20
11.97555701163144
 11
-63.42672092265977
 21
12.61119299141699
  0
LINE
  5
24A
100
AcDbEntity
  8
ProjItem221
  6
ByLayer
 62
  256
370
   -1
100
AcDbLine
 10
-63.42672092265977
 20
12.61119299141699
 11
-63.72108410221647
 21
13.03779415951415
  0
LINE
  5
24B
100
AcDbEntity
  8
ProjItem221
  6
ByLayer
 62
  256
370
   -1
100
AcDbLine
 10
-63.72108410221647
 20
13.03779415951415
 11
-64.01544728177316
 21
13.46439532761131
  0
LINE
  5
24C
100
AcDbEntity
  8
ProjItem221
  6
ByLayer
 62
  256
370
   -1
100
AcDbLine
 10
-64.01544728177316
 20
13.46439532761131
 11
-64.28934665372515
 21
13.86134409691851
  0
LINE
  5
24D
100
AcDbEntity
  8
ProjItem221
  6
ByLayer
 62
  256
370
   -1
100
AcDbLine
 10
-64.28934665372515
 20
13.86134409691851
 11
-64.38883110248344
 21
14.005562731279
  0
LINE
  5
24E
100
AcDbEntity
  8
ProjItem221
  6
ByLayer
 62
  256
370
   -1
100
AcDbLine
 10
-64.38883110248344
 20
14.005562731279
 11
-64.48831555124171
 21
14.14978136563949
  0
LINE
  5
24F
100
AcDbEntity
  8
ProjItem221
  6
ByLayer
 62
  256
370
   -1
100
AcDbLine
 10
-64.48831555124171
 20
14.14978136563949
 11
-64.5878
 21
14.294
  0
LINE
  5
250
100
AcDbEntity
  8
ProjItem223
  6
ByLayer
 62
  256
370
   -1
100
AcDbLine
 10
1986.896474063422
 20
501.5904749913869
 11
1986.971768061235
 21
502.9603551640977
  0
LINE
  5
251
100
AcDbEntity
  8
ProjItem223
  6
ByLayer
 62
  256
370
   -1
100
AcDbLine
 10
1986.971768061235
 20
502.9603551640977
 11
1987.144127555835
 21
504.3196463735227
  0
LINE
  5
252
100
AcDbEntity
  8
ProjItem223
  6
ByLayer
 62
  256
370
   -1
100
AcDbLine
 10
1987.144127555835
 20
504.3196463735227
 11
1987.374715424138
 21
505.6725853967255
  0
LINE
  5
253
100
AcDbEntity
  8
ProjItem223
  6
ByLayer
 62
  256
370
   -1
100
AcDbLine
 10
1987.374715424138
 20
505.6725853967255
 11
1987.680603401789
 21
507.0081112696416
  0
LINE
  5
254
100
AcDbEntity
  8
ProjItem223
  6
ByLayer
 62
  256
370
   -1
100
AcDbLine
 10
1987.680603401789
 20
507.0081112696416
 11
1988.061779265717
 21
508.3262268188558
  0
LINE
  5
255
100
AcDbEntity
  8
ProjItem223
  6
ByLayer
 62
  256
370
   -1
100
AcDbLine
 10
1988.061779265717
 20
508.3262268188558
 11
1988.495901473959
 21
509.6254581719319
  0
LINE
  5
256
100
AcDbEntity
  8
ProjItem223
  6
ByLayer
 62
  256
370
   -1
100
AcDbLine
 10
1988.495901473959
 20
509.6254581719319
 11
1989.018253583787
 21
510.8932208601087
  0
LINE
  5
257
100
AcDbEntity
  8
ProjItem223
  6
ByLayer
 62
  256
370
   -1
100
AcDbLine
 10
1989.018253583787
 20
510.8932208601087
 11
1989.575904529726
 21
512.1442754325259
  0
LINE
  5
258
100
AcDbEntity
  8
ProjItem223
  6
ByLayer
 62
  256
370
   -1
100
AcDbLine
 10
1989.575904529726
 20
512.1442754325259
 11
1990.239432885454
 21
513.3452146976438
  0
LINE
  5
259
100
AcDbEntity
  8
ProjItem223
  6
ByLayer
 62
  256
370
   -1
100
AcDbLine
 10
1990.239432885454
 20
513.3452146976438
 11
1990.919435813898
 21
514.5359161925733
  0
LINE
  5
25A
100
AcDbEntity
  8
ProjItem223
  6
ByLayer
 62
  256
370
   -1
100
AcDbLine
 10
1990.919435813898
 20
514.5359161925733
 11
1991.714728665798
 21
515.6549732350695
  0
LINE
  5
25B
100
AcDbEntity
  8
ProjItem223
  6
ByLayer
 62
  256
370
   -1
100
AcDbLine
 10
1991.714728665798
 20
515.6549732350695
 11
1992.510024700789
 21
516.774027680163
  0
LINE
  5
25C
100
AcDbEntity
  8
ProjItem223
  6
ByLayer
 62
  256
370
   -1
100
AcDbLine
 10
1992.510024700789
 20
516.774027680163
 11
1993.422964424272
 21
517.7970848754475
  0
LINE
  5
25D
100
AcDbEntity
  8
ProjItem223
  6
ByLayer
 62
  256
370
   -1
100
AcDbLine
 10
1993.422964424272
 20
517.7970848754475
 11
1994.335904147755
 21
518.820142070732
  0
LINE
  5
25E
100
AcDbEntity
  8
ProjItem223
  6
ByLayer
 62
  256
370
   -1
100
AcDbLine
 10
1994.335904147755
 20
518.820142070732
 11
1995.347669917165
 21
519.7480791968123
  0
LINE
  5
25F
100
AcDbEntity
  8
ProjItem223
  6
ByLayer
 62
  256
370
   -1
100
AcDbLine
 10
1995.347669917165
 20
519.7480791968123
 11
1996.373550637367
 21
520.6624306827543
  0
LINE
  5
260
100
AcDbEntity
  8
ProjItem223
  6
ByLayer
 62
  256
370
   -1
100
AcDbLine
 10
1996.373550637367
 20
520.6624306827543
 11
1997.466491888734
 21
521.4864269267065
  0
LINE
  5
261
100
AcDbEntity
  8
ProjItem223
  6
ByLayer
 62
  256
370
   -1
100
AcDbLine
 10
1997.466491888734
 20
521.4864269267065
 11
1998.58178423134
 21
522.2803080161476
  0
LINE
  5
262
100
AcDbEntity
  8
ProjItem223
  6
ByLayer
 62
  256
370
   -1
100
AcDbLine
 10
1998.58178423134
 20
522.2803080161476
 11
1999.752960349916
 21
522.9927164427269
  0
LINE
  5
263
100
AcDbEntity
  8
ProjItem223
  6
ByLayer
 62
  256
370
   -1
100
AcDbLine
 10
1999.752960349916
 20
522.9927164427269
 11
2000.957664314924
 21
523.6562447984542
  0
LINE
  5
264
100
AcDbEntity
  8
ProjItem223
  6
ByLayer
 62
  256
370
   -1
100
AcDbLine
 10
2000.957664314924
 20
523.6562447984542
 11
2002.192957294148
 21
524.250594922033
  0
LINE
  5
265
100
AcDbEntity
  8
ProjItem223
  6
ByLayer
 62
  256
370
   -1
100
AcDbLine
 10
2002.192957294148
 20
524.250594922033
 11
2003.458837632379
 21
524.775770556779
  0
LINE
  5
266
100
AcDbEntity
  8
ProjItem223
  6
ByLayer
 62
  256
370
   -1
100
AcDbLine
 10
2003.458837632379
 20
524.775770556779
 11
2004.744130229632
 21
525.2464153911833
  0
LINE
  5
267
100
AcDbEntity
  8
ProjItem223
  6
ByLayer
 62
  256
370
   -1
100
AcDbLine
 10
2004.744130229632
 20
525.2464153911833
 11
2006.06177519136
 21
525.6261794926527
  0
LINE
  5
268
100
AcDbEntity
  8
ProjItem223
  6
ByLayer
 62
  256
370
   -1
100
AcDbLine
 10
2006.06177519136
 20
525.6261794926527
 11
2007.388832157462
 21
525.9685308767357
  0
LINE
  5
269
100
AcDbEntity
  8
ProjItem223
  6
ByLayer
 62
  256
370
   -1
100
AcDbLine
 10
2007.388832157462
 20
525.9685308767357
 11
2008.744124118096
 21
526.1986481575518
  0
LINE
  5
26A
100
AcDbEntity
  8
ProjItem223
  6
ByLayer
 62
  256
370
   -1
100
AcDbLine
 10
2008.744124118096
 20
526.1986481575518
 11
2010.101180829551
 21
526.4095884794559
  0
LINE
  5
26B
100
AcDbEntity
  8
ProjItem223
  6
ByLayer
 62
  256
370
   -1
100
AcDbLine
 10
2010.101180829551
 20
526.4095884794559
 11
2011.470590414776
 21
526.4862942397281
  0
LINE
  5
26C
100
AcDbEntity
  8
ProjItem223
  6
ByLayer
 62
  256
370
   -1
100
AcDbLine
 10
2011.470590414776
 20
526.4862942397281
 11
2012.84
 21
526.563
  0
LINE
  5
26D
100
AcDbEntity
  8
ProjItem224
  6
ByLayer
 62
  256
370
   -1
100
AcDbLine
 10
685.608215615872
 20
-1213.726474063422
 11
685.1818633532558
 21
-1213.801768061235
  0
LINE
  5
26E
100
AcDbEntity
  8
ProjItem224
  6
ByLayer
 62
  256
370
   -1
100
AcDbLine
 10
685.1818633532558
 20
-1213.801768061235
 11
684.75845246933
 21
-1213.974127555835
  0
LINE
  5
26F
100
AcDbEntity
  8
ProjItem224
  6
ByLayer
 62
  256
370
   -1
100
AcDbLine
 10
684.75845246933
 20
-1213.974127555835
 11
684.3368060815769
 21
-1214.204715424137
  0
LINE
  5
270
100
AcDbEntity
  8
ProjItem224
  6
ByLayer
 62
  256
370
   -1
100
AcDbLine
 10
684.3368060815769
 20
-1214.204715424137
 11
683.9205718891835
 21
-1214.510603401789
  0
LINE
  5
271
100
AcDbEntity
  8
ProjItem224
  6
ByLayer
 62
  256
370
   -1
100
AcDbLine
 10
683.9205718891835
 20
-1214.510603401789
 11
683.5097490136162
 21
-1214.891779265717
  0
LINE
  5
272
100
AcDbEntity
  8
ProjItem224
  6
ByLayer
 62
  256
370
   -1
100
AcDbLine
 10
683.5097490136162
 20
-1214.891779265717
 11
683.1049267237377
 21
-1215.327666352102
  0
LINE
  5
273
100
AcDbEntity
  8
ProjItem224
  6
ByLayer
 62
  256
370
   -1
100
AcDbLine
 10
683.1049267237377
 20
-1215.327666352102
 11
682.7101038227056
 21
-1215.854724336794
  0
LINE
  5
274
100
AcDbEntity
  8
ProjItem224
  6
ByLayer
 62
  256
370
   -1
100
AcDbLine
 10
682.7101038227056
 20
-1215.854724336794
 11
682.3204580843033
 21
-1216.415904529726
  0
LINE
  5
275
100
AcDbEntity
  8
ProjItem224
  6
ByLayer
 62
  256
370
   -1
100
AcDbLine
 10
682.3204580843033
 20
-1216.415904529726
 11
681.9463410326698
 21
-1217.079432885454
  0
LINE
  5
276
100
AcDbEntity
  8
ProjItem224
  6
ByLayer
 62
  256
370
   -1
100
AcDbLine
 10
681.9463410326698
 20
-1217.079432885454
 11
681.5754012200601
 21
-1217.758847436301
  0
LINE
  5
277
100
AcDbEntity
  8
ProjItem224
  6
ByLayer
 62
  256
370
   -1
100
AcDbLine
 10
681.5754012200601
 20
-1217.758847436301
 11
681.2266958926887
 21
-1218.549434413338
  0
LINE
  5
278
100
AcDbEntity
  8
ProjItem224
  6
ByLayer
 62
  256
370
   -1
100
AcDbLine
 10
681.2266958926887
 20
-1218.549434413338
 11
680.8779913801885
 21
-1219.340024828113
  0
LINE
  5
279
100
AcDbEntity
  8
ProjItem224
  6
ByLayer
 62
  256
370
   -1
100
AcDbLine
 10
680.8779913801885
 20
-1219.340024828113
 11
680.5594036519421
 21
-1220.257670426459
  0
LINE
  5
27A
100
AcDbEntity
  8
ProjItem224
  6
ByLayer
 62
  256
370
   -1
100
AcDbLine
 10
680.5594036519421
 20
-1220.257670426459
 11
680.2408159236957
 21
-1221.175316024806
  0
LINE
  5
27B
100
AcDbEntity
  8
ProjItem224
  6
ByLayer
 62
  256
370
   -1
100
AcDbLine
 10
680.2408159236957
 20
-1221.175316024806
 11
679.9518760092271
 21
-1222.183552165251
  0
LINE
  5
27C
100
AcDbEntity
  8
ProjItem224
  6
ByLayer
 62
  256
370
   -1
100
AcDbLine
 10
679.9518760092271
 20
-1222.183552165251
 11
679.6671705799967
 21
-1223.20472701059
  0
LINE
  5
27D
100
AcDbEntity
  8
ProjItem224
  6
ByLayer
 62
  256
370
   -1
100
AcDbLine
 10
679.6671705799967
 20
-1223.20472701059
 11
679.410348213724
 21
-1224.300021390374
  0
LINE
  5
27E
100
AcDbEntity
  8
ProjItem224
  6
ByLayer
 62
  256
370
   -1
100
AcDbLine
 10
679.410348213724
 20
-1224.300021390374
 11
679.1628191959137
 21
-1225.420019607843
  0
LINE
  5
27F
100
AcDbEntity
  8
ProjItem224
  6
ByLayer
 62
  256
370
   -1
100
AcDbLine
 10
679.1628191959137
 20
-1225.420019607843
 11
678.9408790649951
 21
-1226.590019098549
  0
LINE
  5
280
100
AcDbEntity
  8
ProjItem224
  6
ByLayer
 62
  256
370
   -1
100
AcDbLine
 10
678.9408790649951
 20
-1226.590019098549
 11
678.7342911584954
 21
-1227.790017188694
  0
LINE
  5
281
100
AcDbEntity
  8
ProjItem224
  6
ByLayer
 62
  256
370
   -1
100
AcDbLine
 10
678.7342911584954
 20
-1227.790017188694
 11
678.5491155619468
 21
-1229.022957294148
  0
LINE
  5
282
100
AcDbEntity
  8
ProjItem224
  6
ByLayer
 62
  256
370
   -1
100
AcDbLine
 10
678.5491155619468
 20
-1229.022957294148
 11
678.3853511167033
 21
-1230.288837632379
  0
LINE
  5
283
100
AcDbEntity
  8
ProjItem224
  6
ByLayer
 62
  256
370
   -1
100
AcDbLine
 10
678.3853511167033
 20
-1230.288837632379
 11
678.2387047544152
 21
-1231.575894980452
  0
LINE
  5
284
100
AcDbEntity
  8
ProjItem224
  6
ByLayer
 62
  256
370
   -1
100
AcDbLine
 10
678.2387047544152
 20
-1231.575894980452
 11
678.1205872953459
 21
-1232.898245817044
  0
LINE
  5
285
100
AcDbEntity
  8
ProjItem224
  6
ByLayer
 62
  256
370
   -1
100
AcDbLine
 10
678.1205872953459
 20
-1232.898245817044
 11
678.0141171916896
 21
-1234.227655656915
  0
LINE
  5
286
100
AcDbEntity
  8
ProjItem224
  6
ByLayer
 62
  256
370
   -1
100
AcDbLine
 10
678.0141171916896
 20
-1234.227655656915
 11
677.9425878937672
 21
-1235.578241742686
  0
LINE
  5
287
100
AcDbEntity
  8
ProjItem224
  6
ByLayer
 62
  256
370
   -1
100
AcDbLine
 10
677.9425878937672
 20
-1235.578241742686
 11
677.8769999236059
 21
-1236.931180829551
  0
LINE
  5
288
100
AcDbEntity
  8
ProjItem224
  6
ByLayer
 62
  256
370
   -1
100
AcDbLine
 10
677.8769999236059
 20
-1236.931180829551
 11
677.8529999618029
 21
-1238.300590414776
  0
LINE
  5
289
100
AcDbEntity
  8
ProjItem224
  6
ByLayer
 62
  256
370
   -1
100
AcDbLine
 10
677.8529999618029
 20
-1238.300590414776
 11
677.829
 21
-1239.67
  0
LINE
  5
28A
100
AcDbEntity
  8
ProjItem224
  6
ByLayer
 62
  256
370
   -1
100
AcDbLine
 10
1214.41
 20
-1265.517061988038
 11
1214.41
 21
-1265.287640486383
  0
LINE
  5
28B
100
AcDbEntity
  8
ProjItem224
  6
ByLayer
 62
  256
370
   -1
100
AcDbLine
 10
1214.41
 20
-1265.287640486383
 11
1214.41
 21
-1265.058218984728
  0
LINE
  5
28C
100
AcDbEntity
  8
ProjItem224
  6
ByLayer
 62
  256
370
   -1
100
AcDbLine
 10
1214.41
 20
-1265.058218984728
 11
1214.41
 21
-1264.455242349346
  0
LINE
  5
28D
100
AcDbEntity
  8
ProjItem224
  6
ByLayer
 62
  256
370
   -1
100
AcDbLine
 10
1214.41
 20
-1264.455242349346
 11
1214.41
 21
-1263.777596728531
  0
LINE
  5
28E
100
AcDbEntity
  8
ProjItem224
  6
ByLayer
 62
  256
370
   -1
100
AcDbLine
 10
1214.41
 20
-1263.777596728531
 11
1214.41
 21
-1263.099921059333
  0
LINE
  5
28F
100
AcDbEntity
  8
ProjItem224
  6
ByLayer
 62
  256
370
   -1
100
AcDbLine
 10
1214.41
 20
-1263.099921059333
 11
1214.41
 21
-1262.005805734058
  0
LINE
  5
290
100
AcDbEntity
  8
ProjItem224
  6
ByLayer
 62
  256
370
   -1
100
AcDbLine
 10
1214.41
 20
-1262.005805734058
 11
1214.41
 21
-1260.911690408784
  0
LINE
  5
291
100
AcDbEntity
  8
ProjItem224
  6
ByLayer
 62
  256
370
   -1
100
AcDbLine
 10
1214.41
 20
-1260.911690408784
 11
1214.41
 21
-1259.757551401309
  0
LINE
  5
292
100
AcDbEntity
  8
ProjItem224
  6
ByLayer
 62
  256
370
   -1
100
AcDbLine
 10
1214.41
 20
-1259.757551401309
 11
1214.41
 21
-1258.303436839977
  0
LINE
  5
293
100
AcDbEntity
  8
ProjItem224
  6
ByLayer
 62
  256
370
   -1
100
AcDbLine
 10
1214.41
 20
-1258.303436839977
 11
1214.41
 21
-1256.849322278644
  0
LINE
  5
294
100
AcDbEntity
  8
ProjItem224
  6
ByLayer
 62
  256
370
   -1
100
AcDbLine
 10
1214.41
 20
-1256.849322278644
 11
1214.41
 21
-1255.299896613191
  0
LINE
  5
295
100
AcDbEntity
  8
ProjItem224
  6
ByLayer
 62
  256
370
   -1
100
AcDbLine
 10
1214.41
 20
-1255.299896613191
 11
1214.41
 21
-1253.559900305577
  0
LINE
  5
296
100
AcDbEntity
  8
ProjItem224
  6
ByLayer
 62
  256
370
   -1
100
AcDbLine
 10
1214.41
 20
-1253.559900305577
 11
1214.41
 21
-1251.819903997963
  0
LINE
  5
297
100
AcDbEntity
  8
ProjItem224
  6
ByLayer
 62
  256
370
   -1
100
AcDbLine
 10
1214.41
 20
-1251.819903997963
 11
1214.41
 21
-1249.981073675459
  0
LINE
  5
298
100
AcDbEntity
  8
ProjItem224
  6
ByLayer
 62
  256
370
   -1
100
AcDbLine
 10
1214.41
 20
-1249.981073675459
 11
1214.41
 21
-1248.043430728441
  0
LINE
  5
299
100
AcDbEntity
  8
ProjItem224
  6
ByLayer
 62
  256
370
   -1
100
AcDbLine
 10
1214.41
 20
-1248.043430728441
 11
1214.41
 21
-1246.105787781423
  0
LINE
  5
29A
100
AcDbEntity
  8
ProjItem224
  6
ByLayer
 62
  256
370
   -1
100
AcDbLine
 10
1214.41
 20
-1246.105787781423
 11
1214.41
 21
-1244.097551655956
  0
LINE
  5
29B
100
AcDbEntity
  8
ProjItem224
  6
ByLayer
 62
  256
370
   -1
100
AcDbLine
 10
1214.41
 20
-1244.097551655956
 11
1214.41
 21
-1242.054026580686
  0
LINE
  5
29C
100
AcDbEntity
  8
ProjItem224
  6
ByLayer
 62
  256
370
   -1
100
AcDbLine
 10
1214.41
 20
-1242.054026580686
 11
1214.41
 21
-1240.010501505415
  0
LINE
  5
29D
100
AcDbEntity
  8
ProjItem224
  6
ByLayer
 62
  256
370
   -1
100
AcDbLine
 10
1214.41
 20
-1240.010501505415
 11
1214.41
 21
-1237.969917748918
  0
LINE
  5
29E
100
AcDbEntity
  8
ProjItem224
  6
ByLayer
 62
  256
370
   -1
100
AcDbLine
 10
1214.41
 20
-1237.969917748918
 11
1214.41
 21
-1235.929922077922
  0
LINE
  5
29F
100
AcDbEntity
  8
ProjItem224
  6
ByLayer
 62
  256
370
   -1
100
AcDbLine
 10
1214.41
 20
-1235.929922077922
 11
1214.41
 21
-1233.889929971989
  0
LINE
  5
2A0
100
AcDbEntity
  8
ProjItem224
  6
ByLayer
 62
  256
370
   -1
100
AcDbLine
 10
1214.41
 20
-1233.889929971989
 11
1214.41
 21
-1231.948757620695
  0
LINE
  5
2A1
100
AcDbEntity
  8
ProjItem224
  6
ByLayer
 62
  256
370
   -1
100
AcDbLine
 10
1214.41
 20
-1231.948757620695
 11
1214.41
 21
-1230.007585269402
  0
LINE
  5
2A2
100
AcDbEntity
  8
ProjItem224
  6
ByLayer
 62
  256
370
   -1
100
AcDbLine
 10
1214.41
 20
-1230.007585269402
 11
1214.41
 21
-1228.099948306595
  0
LINE
  5
2A3
100
AcDbEntity
  8
ProjItem224
  6
ByLayer
 62
  256
370
   -1
100
AcDbLine
 10
1214.41
 20
-1228.099948306595
 11
1214.41
 21
-1226.359951998981
  0
LINE
  5
2A4
100
AcDbEntity
  8
ProjItem224
  6
ByLayer
 62
  256
370
   -1
100
AcDbLine
 10
1214.41
 20
-1226.359951998981
 11
1214.41
 21
-1224.619955691368
  0
LINE
  5
2A5
100
AcDbEntity
  8
ProjItem224
  6
ByLayer
 62
  256
370
   -1
100
AcDbLine
 10
1214.41
 20
-1224.619955691368
 11
1214.41
 21
-1222.975260174658
  0
LINE
  5
2A6
100
AcDbEntity
  8
ProjItem224
  6
ByLayer
 62
  256
370
   -1
100
AcDbLine
 10
1214.41
 20
-1222.975260174658
 11
1214.41
 21
-1221.521145613325
  0
LINE
  5
2A7
100
AcDbEntity
  8
ProjItem224
  6
ByLayer
 62
  256
370
   -1
100
AcDbLine
 10
1214.41
 20
-1221.521145613325
 11
1214.41
 21
-1220.067031051993
  0
LINE
  5
2A8
100
AcDbEntity
  8
ProjItem224
  6
ByLayer
 62
  256
370
   -1
100
AcDbLine
 10
1214.41
 20
-1220.067031051993
 11
1214.41
 21
-1218.794687367995
  0
LINE
  5
2A9
100
AcDbEntity
  8
ProjItem224
  6
ByLayer
 62
  256
370
   -1
100
AcDbLine
 10
1214.41
 20
-1218.794687367995
 11
1214.41
 21
-1217.704101446996
  0
LINE
  5
2AA
100
AcDbEntity
  8
ProjItem224
  6
ByLayer
 62
  256
370
   -1
100
AcDbLine
 10
1214.41
 20
-1217.704101446996
 11
1214.41
 21
-1216.613515525996
  0
LINE
  5
2AB
100
AcDbEntity
  8
ProjItem224
  6
ByLayer
 62
  256
370
   -1
100
AcDbLine
 10
1214.41
 20
-1216.613515525996
 11
1214.41
 21
-1215.795875125451
  0
LINE
  5
2AC
100
AcDbEntity
  8
ProjItem224
  6
ByLayer
 62
  256
370
   -1
100
AcDbLine
 10
1214.41
 20
-1215.795875125451
 11
1214.41
 21
-1215.114700100361
  0
LINE
  5
2AD
100
AcDbEntity
  8
ProjItem224
  6
ByLayer
 62
  256
370
   -1
100
AcDbLine
 10
1214.41
 20
-1215.114700100361
 11
1214.41
 21
-1214.433525075271
  0
LINE
  5
2AE
100
AcDbEntity
  8
ProjItem224
  6
ByLayer
 62
  256
370
   -1
100
AcDbLine
 10
1214.41
 20
-1214.433525075271
 11
1214.41
 21
-1214.12882255576
  0
LINE
  5
2AF
100
AcDbEntity
  8
ProjItem224
  6
ByLayer
 62
  256
370
   -1
100
AcDbLine
 10
1214.41
 20
-1214.12882255576
 11
1214.41
 21
-1213.89941127788
  0
LINE
  5
2B0
100
AcDbEntity
  8
ProjItem224
  6
ByLayer
 62
  256
370
   -1
100
AcDbLine
 10
1214.41
 20
-1213.89941127788
 11
1214.41
 21
-1213.67
  0
LINE
  5
2B1
100
AcDbEntity
  8
ProjItem222
  6
ByLayer
 62
  256
370
   -1
100
AcDbLine
 10
-1619.873518297159
 20
602.8154759987417
 11
-1619.336459293878
 21
603.0093567189442
  0
LINE
  5
2B2
100
AcDbEntity
  8
ProjItem222
  6
ByLayer
 62
  256
370
   -1
100
AcDbLine
 10
-1619.336459293878
 20
603.0093567189442
 11
-1618.755282793331
 21
603.1460611423178
  0
LINE
  5
2B3
100
AcDbEntity
  8
ProjItem222
  6
ByLayer
 62
  256
370
   -1
100
AcDbLine
 10
-1618.755282793331
 20
603.1460611423178
 11
-1618.129988795518
 21
603.2247657439445
  0
LINE
  5
2B4
100
AcDbEntity
  8
ProjItem222
  6
ByLayer
 62
  256
370
   -1
100
AcDbLine
 10
-1618.129988795518
 20
603.2247657439445
 11
-1617.460577300439
 21
603.2458234994533
  0
LINE
  5
2B5
100
AcDbEntity
  8
ProjItem222
  6
ByLayer
 62
  256
370
   -1
100
AcDbLine
 10
-1617.460577300439
 20
603.2458234994533
 11
-1616.752342560554
 21
603.2095285085157
  0
LINE
  5
2B6
100
AcDbEntity
  8
ProjItem222
  6
ByLayer
 62
  256
370
   -1
100
AcDbLine
 10
-1616.752342560554
 20
603.2095285085157
 11
-1616.008813822855
 21
603.1154101709133
  0
LINE
  5
2B7
100
AcDbEntity
  8
ProjItem222
  6
ByLayer
 62
  256
370
   -1
100
AcDbLine
 10
-1616.008813822855
 20
603.1154101709133
 11
-1615.229991087344
 21
602.9634685121107
  0
LINE
  5
2B8
100
AcDbEntity
  8
ProjItem222
  6
ByLayer
 62
  256
370
   -1
100
AcDbLine
 10
-1615.229991087344
 20
602.9634685121107
 11
-1614.41940385566
 21
602.7545270570261
  0
LINE
  5
2B9
100
AcDbEntity
  8
ProjItem222
  6
ByLayer
 62
  256
370
   -1
100
AcDbLine
 10
-1614.41940385566
 20
602.7545270570261
 11
-1613.579404874249
 21
602.4894093305772
  0
LINE
  5
2BA
100
AcDbEntity
  8
ProjItem222
  6
ByLayer
 62
  256
370
   -1
100
AcDbLine
 10
-1613.579404874249
 20
602.4894093305772
 11
-1612.706464896119
 21
602.1687035575727
  0
LINE
  5
2BB
100
AcDbEntity
  8
ProjItem222
  6
ByLayer
 62
  256
370
   -1
100
AcDbLine
 10
-1612.706464896119
 20
602.1687035575727
 11
-1611.808819170449
 21
601.7927626881768
  0
LINE
  5
2BC
100
AcDbEntity
  8
ProjItem222
  6
ByLayer
 62
  256
370
   -1
100
AcDbLine
 10
-1611.808819170449
 20
601.7927626881768
 11
-1610.891173444779
 21
601.3631161221708
  0
LINE
  5
2BD
100
AcDbEntity
  8
ProjItem222
  6
ByLayer
 62
  256
370
   -1
100
AcDbLine
 10
-1610.891173444779
 20
601.3631161221708
 11
-1609.939998472116
 21
600.8806462094998
  0
LINE
  5
2BE
100
AcDbEntity
  8
ProjItem222
  6
ByLayer
 62
  256
370
   -1
100
AcDbLine
 10
-1609.939998472116
 20
600.8806462094998
 11
-1608.98
 21
600.347
  0
LINE
  5
2BF
100
AcDbEntity
  8
ProjItem222
  6
ByLayer
 62
  256
370
   -1
100
AcDbLine
 10
-1584.789934766359
 20
571.5474527546867
 11
-1584.690539536569
 21
571.2215192303336
  0
LINE
  5
2C0
100
AcDbEntity
  8
ProjItem222
  6
ByLayer
 62
  256
370
   -1
100
AcDbLine
 10
-1584.690539536569
 20
571.2215192303336
 11
-1584.597620255649
 21
570.8993093765807
  0
LINE
  5
2C1
100
AcDbEntity
  8
ProjItem222
  6
ByLayer
 62
  256
370
   -1
100
AcDbLine
 10
-1584.597620255649
 20
570.8993093765807
 11
-1584.514790897491
 21
570.5829012284158
  0
LINE
  5
2C2
100
AcDbEntity
  8
ProjItem222
  6
ByLayer
 62
  256
370
   -1
100
AcDbLine
 10
-1584.514790897491
 20
570.5829012284158
 11
-1584.431961539333
 21
570.2664930802509
  0
LINE
  5
2C3
100
AcDbEntity
  8
ProjItem222
  6
ByLayer
 62
  256
370
   -1
100
AcDbLine
 10
-1584.431961539333
 20
570.2664930802509
 11
-1584.36530574494
 21
569.959384731251
  0
LINE
  5
2C4
100
AcDbEntity
  8
ProjItem222
  6
ByLayer
 62
  256
370
   -1
100
AcDbLine
 10
-1584.36530574494
 20
569.959384731251
 11
-1584.299042258413
 21
569.6525019592742
  0
LINE
  5
2C5
100
AcDbEntity
  8
ProjItem222
  6
ByLayer
 62
  256
370
   -1
100
AcDbLine
 10
-1584.299042258413
 20
569.6525019592742
 11
-1584.242084078915
 21
569.3516676368661
  0
LINE
  5
2C6
100
AcDbEntity
  8
ProjItem222
  6
ByLayer
 62
  256
370
   -1
100
AcDbLine
 10
-1584.242084078915
 20
569.3516676368661
 11
-1584.19238646402
 21
569.0555526814499
  0
LINE
  5
2C7
100
AcDbEntity
  8
ProjItem222
  6
ByLayer
 62
  256
370
   -1
100
AcDbLine
 10
-1584.19238646402
 20
569.0555526814499
 11
-1584.144516636843
 21
568.7611436612381
  0
LINE
  5
2C8
100
AcDbEntity
  8
ProjItem222
  6
ByLayer
 62
  256
370
   -1
100
AcDbLine
 10
-1584.144516636843
 20
568.7611436612381
 11
-1584.107243425672
 21
568.476624815964
  0
LINE
  5
2C9
100
AcDbEntity
  8
ProjItem222
  6
ByLayer
 62
  256
370
   -1
100
AcDbLine
 10
-1584.107243425672
 20
568.476624815964
 11
-1584.069970214501
 21
568.1921059706901
  0
LINE
  5
2CA
100
AcDbEntity
  8
ProjItem222
  6
ByLayer
 62
  256
370
   -1
100
AcDbLine
 10
-1584.069970214501
 20
568.1921059706901
 11
-1584.044835074834
 21
567.9158229878072
  0
LINE
  5
2CB
100
AcDbEntity
  8
ProjItem222
  6
ByLayer
 62
  256
370
   -1
100
AcDbLine
 10
-1584.044835074834
 20
567.9158229878072
 11
-1584.024132385494
 21
567.6425474885216
  0
LINE
  5
2CC
100
AcDbEntity
  8
ProjItem222
  6
ByLayer
 62
  256
370
   -1
100
AcDbLine
 10
-1584.024132385494
 20
567.6425474885216
 11
-1584.008685644069
 21
567.3731955763437
  0
LINE
  5
2CD
100
AcDbEntity
  8
ProjItem222
  6
ByLayer
 62
  256
370
   -1
100
AcDbLine
 10
-1584.008685644069
 20
567.3731955763437
 11
-1584.004544176161
 21
567.1122830981449
  0
LINE
  5
2CE
100
AcDbEntity
  8
ProjItem222
  6
ByLayer
 62
  256
370
   -1
100
AcDbLine
 10
-1584.004544176161
 20
567.1122830981449
 11
-1584.000402708253
 21
566.851370619946
  0
LINE
  5
2CF
100
AcDbEntity
  8
ProjItem222
  6
ByLayer
 62
  256
370
   -1
100
AcDbLine
 10
-1584.000402708253
 20
566.851370619946
 11
-1584.011216278964
 21
566.6020482966771
  0
LINE
  5
2D0
100
AcDbEntity
  8
ProjItem222
  6
ByLayer
 62
  256
370
   -1
100
AcDbLine
 10
-1584.011216278964
 20
566.6020482966771
 11
-1584.023640682688
 21
566.3539743689928
  0
LINE
  5
2D1
100
AcDbEntity
  8
ProjItem222
  6
ByLayer
 62
  256
370
   -1
100
AcDbLine
 10
-1584.023640682688
 20
566.3539743689928
 11
-1584.042130172824
 21
566.1123698668146
  0
LINE
  5
2D2
100
AcDbEntity
  8
ProjItem222
  6
ByLayer
 62
  256
370
   -1
100
AcDbLine
 10
-1584.042130172824
 20
566.1123698668146
 11
-1584.066978980271
 21
565.8775486364356
  0
LINE
  5
2D3
100
AcDbEntity
  8
ProjItem222
  6
ByLayer
 62
  256
370
   -1
100
AcDbLine
 10
-1584.066978980271
 20
565.8775486364356
 11
-1584.093350944151
 21
565.6437631524307
  0
LINE
  5
2D4
100
AcDbEntity
  8
ProjItem222
  6
ByLayer
 62
  256
370
   -1
100
AcDbLine
 10
-1584.093350944151
 20
565.6437631524307
 11
-1584.138907091138
 21
565.4230229129387
  0
LINE
  5
2D5
100
AcDbEntity
  8
ProjItem222
  6
ByLayer
 62
  256
370
   -1
100
AcDbLine
 10
-1584.138907091138
 20
565.4230229129387
 11
-1584.184463238126
 21
565.2022826734467
  0
LINE
  5
2D6
100
AcDbEntity
  8
ProjItem222
  6
ByLayer
 62
  256
370
   -1
100
AcDbLine
 10
-1584.184463238126
 20
565.2022826734467
 11
-1584.238206490143
 21
564.9908211529895
  0
LINE
  5
2D7
100
AcDbEntity
  8
ProjItem222
  6
ByLayer
 62
  256
370
   -1
100
AcDbLine
 10
-1584.238206490143
 20
564.9908211529895
 11
-1584.296187040854
 21
564.7841619043843
  0
LINE
  5
2D8
100
AcDbEntity
  8
ProjItem222
  6
ByLayer
 62
  256
370
   -1
100
AcDbLine
 10
-1584.296187040854
 20
564.7841619043843
 11
-1584.358215474869
 21
564.5810445536706
  0
LINE
  5
2D9
100
AcDbEntity
  8
ProjItem222
  6
ByLayer
 62
  256
370
   -1
100
AcDbLine
 10
-1584.358215474869
 20
564.5810445536706
 11
-1584.432761897212
 21
564.3888804427431
  0
LINE
  5
2DA
100
AcDbEntity
  8
ProjItem222
  6
ByLayer
 62
  256
370
   -1
100
AcDbLine
 10
-1584.432761897212
 20
564.3888804427431
 11
-1584.507308319554
 21
564.1967163318158
  0
LINE
  5
2DB
100
AcDbEntity
  8
ProjItem222
  6
ByLayer
 62
  256
370
   -1
100
AcDbLine
 10
-1584.507308319554
 20
564.1967163318158
 11
-1584.592147659873
 21
564.0169561979743
  0
LINE
  5
2DC
100
AcDbEntity
  8
ProjItem222
  6
ByLayer
 62
  256
370
   -1
100
AcDbLine
 10
-1584.592147659873
 20
564.0169561979743
 11
-1584.6790989551
 21
563.8397411772254
  0
LINE
  5
2DD
100
AcDbEntity
  8
ProjItem222
  6
ByLayer
 62
  256
370
   -1
100
AcDbLine
 10
-1584.6790989551
 20
563.8397411772254
 11
-1584.774643668788
 21
563.6688627903992
  0
LINE
  5
2DE
100
AcDbEntity
  8
ProjItem222
  6
ByLayer
 62
  256
370
   -1
100
AcDbLine
 10
-1584.774643668788
 20
563.6688627903992
 11
-1584.882321834394
 21
563.5069313951996
  0
LINE
  5
2DF
100
AcDbEntity
  8
ProjItem222
  6
ByLayer
 62
  256
370
   -1
100
AcDbLine
 10
-1584.882321834394
 20
563.5069313951996
 11
-1584.99
 21
563.345
  0
ENDSEC
  0
SECTION
  2
OBJECTS
  0
DICTIONARY
  5
C
330
0
100
AcDbDictionary
281
    1
  3
ACAD_GROUP
350
D
  0
DICTIONARY
  5
D
330
C
100
AcDbDictionary
281
    1
  0
ENDSEC
  0
EOF
