999
FreeCAD v0.21 33771 (Git)
  0
SECTION
  2
HEADER
  9
$ACADVER
  1
AC1014
  9
$ACADMAINTVER
 70
     9
  9
$DWGCODEPAGE
  3
ANSI_1252
  9
$TEXTSTYLE
  7
STANDARD
  9
$DIMSTYLE
  2
STANDARD
  9
$DIMTXSTY
  7
STANDARD
  9
$CMLSTYLE
  2
STANDARD
  9
$LUNITS
 70
2
  9
$INSUNITS
 70
4
  9
$PEXTMAX
 10
50
 20
50
 30
50
  9
$PEXTMIN
 10
0
 20
0
 30
0
  9
$HANDSEED
  5
FFFF
  0
ENDSEC
  0
SECTION
  2
CLASSES
  0
CLASS
  1
ACDBDICTIONARYWDFLT
  2
AcDbDictionaryWithDefault
  3
ObjectDBX Classes
 90
        0
280
     0
281
     0
  0
CLASS
  1
XRECORD
  2
AcDbXrecord
  3
ObjectDBX Classes
 90
        0
280
     0
281
     0
  0
CLASS
  1
LWPOLYLINE
  2
AcDbPolyline
  3
ObjectDBX Classes
 90
        0
280
     0
281
     1
  0
ENDSEC
  0
SECTION
  2
TABLES
  0
TABLE
  2
VPORT
  5
20
330
0
100
AcDbSymbolTable
 70
     1
  0
VPORT
  5
21
330
20
100
AcDbSymbolTableRecord
100
AcDbViewportTableRecord
  2
*ACTIVE
 70
     0
  0
ENDTAB
  0
TABLE
  2
LTYPE
  5
22
330
0
100
AcDbSymbolTable
 70
     1
  0
LTYPE
  5
23
330
21
100
AcDbSymbolTableRecord
100
AcDbLinetypeTableRecord
  2
BYBLOCK
 70
     0
  3

 72
    65
 73
     0
 40
0.0
  0
LTYPE
  5
24
330
21
100
AcDbSymbolTableRecord
100
AcDbLinetypeTableRecord
  2
BYLAYER
 70
     0
  3

 72
    65
 73
     0
 40
0.0
  0
LTYPE
  5
25
330
21
100
AcDbSymbolTableRecord
100
AcDbLinetypeTableRecord
  2
CONTINUOUS
 70
     0
  3
Solid line
 72
    65
 73
     0
 40
0.0
  0
ENDTAB
  0
TABLE
  2
LAYER
  5
B6B
330
0
100
AcDbSymbolTable
 70
5
  0
LAYER
  5
B6C
330
B6B
100
AcDbSymbolTableRecord
100
AcDbLayerTableRecord
  2
0
 70
   0
 62
   7
  6
CONTINUOUS
  0
LAYER
  5
B6D
330
B6B
100
AcDbSymbolTableRecord
100
AcDbLayerTableRecord
  2
ProjItem168
 70
    0
 62
    7
  6
CONTINUOUS
  0
LAYER
  5
B6E
330
B6B
100
AcDbSymbolTableRecord
100
AcDbLayerTableRecord
  2
ProjItem170
 70
    0
 62
    7
  6
CONTINUOUS
  0
LAYER
  5
B6F
330
B6B
100
AcDbSymbolTableRecord
100
AcDbLayerTableRecord
  2
ProjItem171
 70
    0
 62
    7
  6
CONTINUOUS
  0
LAYER
  5
B70
330
B6B
100
AcDbSymbolTableRecord
100
AcDbLayerTableRecord
  2
ProjItem169
 70
    0
 62
    7
  6
CONTINUOUS
  0
ENDTAB
  0
TABLE
  2
STYLE
  5
70
330
0
100
AcDbSymbolTable
 70
     2
  0
STYLE
  5
71
330
70
100
AcDbSymbolTableRecord
100
AcDbTextStyleTableRecord
  2
STANDARD
 70
     0
 40
0.0
 41
1.0
 50
0.0
 71
     0
 42
2.5
  3
arial.ttf
  4

  0
STYLE
  5
72
330
70
100
AcDbSymbolTableRecord
100
AcDbTextStyleTableRecord
  2
ANNOTATIVE
 70
     0
 40
0.0
 41
1.0
 50
0.0
 71
     0
 42
2.5
  3
arial.ttf
  4

  0
ENDTAB
  0
TABLE
  2
VIEW
  5
73
330
0
100
AcDbSymbolTable
 70
     0
  0
ENDTAB
  0
TABLE
  2
UCS
  5
74
330
0
100
AcDbSymbolTable
 70
     0
  0
ENDTAB
  0
TABLE
  2
APPID
  5
75
330
0
100
AcDbSymbolTable
 70
     2
  0
APPID
  5
76
330
75
100
AcDbSymbolTableRecord
100
AcDbRegAppTableRecord
  2
ACAD
 70
     0
  0
APPID
  5
77
330
75
100
AcDbSymbolTableRecord
100
AcDbRegAppTableRecord
  2
ACADANNOTATIVE
 70
     0
  0
ENDTAB
  0
TABLE
  2
DIMSTYLE
  5
78
330
0
100
AcDbSymbolTable
 70
     2
  0
DIMSTYLE
105
79
330
78
100
AcDbSymbolTableRecord
100
AcDbDimStyleTableRecord
  2
STANDARD
 70
     0
  3

  4

  5

  6

  7

 40
0.0
 41
2.5
 42
0.625
 43
3.75
 44
1.25
 45
0.0
 46
0.0
 47
0.0
 48
0.0
140
2.5
141
2.5
142
0.0
143
0.03937007874016
144
1.0
145
0.0
146
1.0
147
0.625
 71
     0
 72
     0
 73
     0
 74
     0
 75
     0
 76
     0
 77
     1
 78
     8
170
     0
171
     3
172
     1
173
     0
174
     0
175
     0
176
     0
177
     0
178
     0
270
     2
271
     2
272
     2
273
     2
274
     3
340
71
275
     0
280
     0
281
     0
282
     0
283
     0
284
     8
285
     0
286
     0
287
     3
288
     0
  0
ENDTAB
  0
TABLE
  2
BLOCK_RECORD
  5
A01
330
0
100
AcDbSymbolTable
  70
5
  0
BLOCK_RECORD
  5
A02
330
A01
100
AcDbSymbolTableRecord
100
AcDbBlockTableRecord
  2
*MODEL_SPACE
  0
BLOCK_RECORD
  5
A03
330
A01
100
AcDbSymbolTableRecord
100
AcDbBlockTableRecord
  2
*PAPER_SPACE
  0
ENDTAB
  0
ENDSEC
  0
SECTION
  2
BLOCKS
  0
BLOCK
  5
A04
330
A02
100
AcDbEntity
  8
0
100
AcDbBlockBegin
  2
*MODEL_SPACE
 70
   0
 10
0
 20
0
 30
0
  3
*MODEL_SPACE
  1
 
  0
ENDBLK
  5
A05
330
A02
100
AcDbEntity
  8
0
100
AcDbBlockEnd
  0
BLOCK
  5
A06
330
A03
100
AcDbEntity
 67
1
  8
0
100
AcDbBlockBegin
  2
*PAPER_SPACE
 70
   0
 10
0
 20
0
 30
0
  3
*PAPER_SPACE
  1
 
  0
ENDBLK
  5
A07
330
A03
100
AcDbEntity
 67
    1
  8
0
100
AcDbBlockEnd
  0
ENDSEC
  0
SECTION
  2
ENTITIES
  0
LINE
  5
A08
330
A02
100
AcDbEntity
  8
ProjItem168
100
AcDbLine
 10
-2457.13
 20
-638.941
 30
0
 11
-2404.35
 21
-638.941
 31
0
  0
LINE
  5
A09
330
A02
100
AcDbEntity
  8
ProjItem168
100
AcDbLine
 10
-1079.84
 20
219.784
 30
0
 11
-2457.13
 21
-388.941
 31
0
  0
LINE
  5
A0A
330
A02
100
AcDbEntity
  8
ProjItem168
100
AcDbLine
 10
1315.78
 20
1860.66
 30
0
 11
-1079.84
 21
219.784
 31
0
  0
LINE
  5
A0B
330
A02
100
AcDbEntity
  8
ProjItem168
100
AcDbLine
 10
2291.87
 20
1860.66
 30
0
 11
1315.78
 21
1860.66
 31
0
  0
LINE
  5
A0C
330
A02
100
AcDbEntity
  8
ProjItem168
100
AcDbLine
 10
1393.19
 20
1610.66
 30
0
 11
2291.87
 21
1610.66
 31
0
  0
LINE
  5
A0D
330
A02
100
AcDbEntity
  8
ProjItem168
100
AcDbLine
 10
-957.633
 20
0.466399
 30
0
 11
1393.19
 21
1610.66
 31
0
  0
LINE
  5
A0E
330
A02
100
AcDbEntity
  8
ProjItem168
100
AcDbLine
 10
-2404.35
 20
-638.941
 30
0
 11
-957.633
 21
0.466399
 31
0
  0
LINE
  5
A0F
330
A02
100
AcDbEntity
  8
ProjItem168
100
AcDbLine
 10
-2457.13
 20
-388.941
 30
0
 11
-2457.13
 21
-488.941
 31
0
  0
LINE
  5
A10
330
A02
100
AcDbEntity
  8
ProjItem168
100
AcDbLine
 10
-2457.13
 20
-628.941
 30
0
 11
-2457.13
 21
-638.941
 31
0
  0
LINE
  5
A11
330
A02
100
AcDbEntity
  8
ProjItem168
100
AcDbLine
 10
-2457.13
 20
-628.941
 30
0
 11
-2457.13
 21
-488.941
 31
0
  0
LINE
  5
A12
330
A02
100
AcDbEntity
  8
ProjItem168
100
AcDbLine
 10
-2457.13
 20
-488.941
 30
0
 11
-2442.13
 21
-488.941
 31
0
  0
LINE
  5
A13
330
A02
100
AcDbEntity
  8
ProjItem168
100
AcDbLine
 10
-2442.13
 20
-628.941
 30
0
 11
-2442.13
 21
-488.941
 31
0
  0
LINE
  5
A14
330
A02
100
AcDbEntity
  8
ProjItem168
100
AcDbLine
 10
-2457.13
 20
-628.941
 30
0
 11
-2442.13
 21
-628.941
 31
0
  0
LINE
  5
A15
330
A02
100
AcDbEntity
  8
ProjItem168
100
AcDbLine
 10
2291.87
 20
1610.66
 30
0
 11
2291.87
 21
1640.66
 31
0
  0
LINE
  5
A16
330
A02
100
AcDbEntity
  8
ProjItem168
100
AcDbLine
 10
2291.87
 20
1780.66
 30
0
 11
2291.87
 21
1860.66
 31
0
  0
LINE
  5
A17
330
A02
100
AcDbEntity
  8
ProjItem168
100
AcDbLine
 10
2291.87
 20
1780.66
 30
0
 11
2279.87
 21
1780.66
 31
0
  0
LINE
  5
A18
330
A02
100
AcDbEntity
  8
ProjItem168
100
AcDbLine
 10
2279.87
 20
1640.66
 30
0
 11
2279.87
 21
1780.66
 31
0
  0
LINE
  5
A19
330
A02
100
AcDbEntity
  8
ProjItem168
100
AcDbLine
 10
2291.87
 20
1640.66
 30
0
 11
2279.87
 21
1640.66
 31
0
  0
LINE
  5
A1A
330
A02
100
AcDbEntity
  8
ProjItem168
100
AcDbLine
 10
2291.87
 20
1640.66
 30
0
 11
2291.87
 21
1780.66
 31
0
  0
LINE
  5
A1B
330
A02
100
AcDbEntity
  8
ProjItem168
100
AcDbLine
 10
1328.88
 20
1800.66
 30
0
 11
1328.88
 21
1810.66
 31
0
  0
LINE
  5
A1C
330
A02
100
AcDbEntity
  8
ProjItem168
100
AcDbLine
 10
2231.87
 20
1800.66
 30
0
 11
1328.88
 21
1800.66
 31
0
  0
LINE
  5
A1D
330
A02
100
AcDbEntity
  8
ProjItem168
100
AcDbLine
 10
2231.87
 20
1810.66
 30
0
 11
2231.87
 21
1800.66
 31
0
  0
LINE
  5
A1E
330
A02
100
AcDbEntity
  8
ProjItem168
100
AcDbLine
 10
1328.88
 20
1810.66
 30
0
 11
2231.87
 21
1810.66
 31
0
  0
LINE
  5
A1F
330
A02
100
AcDbEntity
  8
ProjItem168
100
AcDbLine
 10
-2012.13
 20
-267.735
 30
0
 11
-2012.13
 21
-257.735
 31
0
  0
LINE
  5
A20
330
A02
100
AcDbEntity
  8
ProjItem168
100
AcDbLine
 10
-1584.61
 20
-267.735
 30
0
 11
-2012.13
 21
-267.735
 31
0
  0
LINE
  5
A21
330
A02
100
AcDbEntity
  8
ProjItem168
100
AcDbLine
 10
-1584.61
 20
-257.735
 30
0
 11
-1584.61
 21
-267.735
 31
0
  0
LINE
  5
A22
330
A02
100
AcDbEntity
  8
ProjItem168
100
AcDbLine
 10
-2012.13
 20
-257.735
 30
0
 11
-1584.61
 21
-257.735
 31
0
  0
LINE
  5
A23
330
A02
100
AcDbEntity
  8
ProjItem168
100
AcDbLine
 10
-1558.13
 20
-79.6992
 30
0
 11
-1558.13
 21
-69.6992
 31
0
  0
LINE
  5
A24
330
A02
100
AcDbEntity
  8
ProjItem168
100
AcDbLine
 10
-1163.93
 20
-79.6992
 30
0
 11
-1558.13
 21
-79.6992
 31
0
  0
LINE
  5
A25
330
A02
100
AcDbEntity
  8
ProjItem168
100
AcDbLine
 10
-1163.93
 20
-69.6992
 30
0
 11
-1163.93
 21
-79.6992
 31
0
  0
LINE
  5
A26
330
A02
100
AcDbEntity
  8
ProjItem168
100
AcDbLine
 10
-1558.13
 20
-69.6992
 30
0
 11
-1163.93
 21
-69.6992
 31
0
  0
LINE
  5
A27
330
A02
100
AcDbEntity
  8
ProjItem168
100
AcDbLine
 10
-2397.13
 20
-455.771
 30
0
 11
-2397.13
 21
-445.771
 31
0
  0
LINE
  5
A28
330
A02
100
AcDbEntity
  8
ProjItem168
100
AcDbLine
 10
-2039.33
 20
-455.771
 30
0
 11
-2397.13
 21
-455.771
 31
0
  0
LINE
  5
A29
330
A02
100
AcDbEntity
  8
ProjItem168
100
AcDbLine
 10
-2039.33
 20
-445.771
 30
0
 11
-2039.33
 21
-455.771
 31
0
  0
LINE
  5
A2A
330
A02
100
AcDbEntity
  8
ProjItem168
100
AcDbLine
 10
-2397.13
 20
-445.771
 30
0
 11
-2039.33
 21
-445.771
 31
0
  0
LINE
  5
A2B
330
A02
100
AcDbEntity
  8
ProjItem168
100
AcDbLine
 10
-1174.13
 20
108.337
 30
0
 11
-1174.13
 21
118.337
 31
0
  0
LINE
  5
A2C
330
A02
100
AcDbEntity
  8
ProjItem168
100
AcDbLine
 10
-847.328
 20
108.337
 30
0
 11
-1174.13
 21
108.337
 31
0
  0
LINE
  5
A2D
330
A02
100
AcDbEntity
  8
ProjItem168
100
AcDbLine
 10
-847.328
 20
118.337
 30
0
 11
-847.328
 21
108.337
 31
0
  0
LINE
  5
A2E
330
A02
100
AcDbEntity
  8
ProjItem168
100
AcDbLine
 10
-1174.13
 20
118.337
 30
0
 11
-847.328
 21
118.337
 31
0
  0
LINE
  5
A2F
330
A02
100
AcDbEntity
  8
ProjItem168
100
AcDbLine
 10
-43.7504
 20
860.479
 30
0
 11
-43.7504
 21
870.479
 31
0
  0
LINE
  5
A30
330
A02
100
AcDbEntity
  8
ProjItem168
100
AcDbLine
 10
250.775
 20
860.479
 30
0
 11
-43.7504
 21
860.479
 31
0
  0
LINE
  5
A31
330
A02
100
AcDbEntity
  8
ProjItem168
100
AcDbLine
 10
250.775
 20
870.479
 30
0
 11
250.775
 21
860.479
 31
0
  0
LINE
  5
A32
330
A02
100
AcDbEntity
  8
ProjItem168
100
AcDbLine
 10
-43.7504
 20
870.479
 30
0
 11
250.775
 21
870.479
 31
0
  0
LINE
  5
A33
330
A02
100
AcDbEntity
  8
ProjItem168
100
AcDbLine
 10
230.775
 20
1048.52
 30
0
 11
230.775
 21
1058.52
 31
0
  0
LINE
  5
A34
330
A02
100
AcDbEntity
  8
ProjItem168
100
AcDbLine
 10
525.301
 20
1048.52
 30
0
 11
230.775
 21
1048.52
 31
0
  0
LINE
  5
A35
330
A02
100
AcDbEntity
  8
ProjItem168
100
AcDbLine
 10
525.301
 20
1058.52
 30
0
 11
525.301
 21
1048.52
 31
0
  0
LINE
  5
A36
330
A02
100
AcDbEntity
  8
ProjItem168
100
AcDbLine
 10
230.775
 20
1058.52
 30
0
 11
525.301
 21
1058.52
 31
0
  0
LINE
  5
A37
330
A02
100
AcDbEntity
  8
ProjItem168
100
AcDbLine
 10
-867.328
 20
296.372
 30
0
 11
-867.328
 21
306.372
 31
0
  0
LINE
  5
A38
330
A02
100
AcDbEntity
  8
ProjItem168
100
AcDbLine
 10
-572.802
 20
296.372
 30
0
 11
-867.328
 21
296.372
 31
0
  0
LINE
  5
A39
330
A02
100
AcDbEntity
  8
ProjItem168
100
AcDbLine
 10
-572.802
 20
306.372
 30
0
 11
-572.802
 21
296.372
 31
0
  0
LINE
  5
A3A
330
A02
100
AcDbEntity
  8
ProjItem168
100
AcDbLine
 10
-867.328
 20
306.372
 30
0
 11
-572.802
 21
306.372
 31
0
  0
LINE
  5
A3B
330
A02
100
AcDbEntity
  8
ProjItem168
100
AcDbLine
 10
505.301
 20
1236.55
 30
0
 11
505.301
 21
1246.55
 31
0
  0
LINE
  5
A3C
330
A02
100
AcDbEntity
  8
ProjItem168
100
AcDbLine
 10
799.827
 20
1236.55
 30
0
 11
505.301
 21
1236.55
 31
0
  0
LINE
  5
A3D
330
A02
100
AcDbEntity
  8
ProjItem168
100
AcDbLine
 10
799.827
 20
1246.55
 30
0
 11
799.827
 21
1236.55
 31
0
  0
LINE
  5
A3E
330
A02
100
AcDbEntity
  8
ProjItem168
100
AcDbLine
 10
505.301
 20
1246.55
 30
0
 11
799.827
 21
1246.55
 31
0
  0
LINE
  5
A3F
330
A02
100
AcDbEntity
  8
ProjItem168
100
AcDbLine
 10
779.827
 20
1424.59
 30
0
 11
779.827
 21
1434.59
 31
0
  0
LINE
  5
A40
330
A02
100
AcDbEntity
  8
ProjItem168
100
AcDbLine
 10
1074.35
 20
1424.59
 30
0
 11
779.827
 21
1424.59
 31
0
  0
LINE
  5
A41
330
A02
100
AcDbEntity
  8
ProjItem168
100
AcDbLine
 10
1074.35
 20
1434.59
 30
0
 11
1074.35
 21
1424.59
 31
0
  0
LINE
  5
A42
330
A02
100
AcDbEntity
  8
ProjItem168
100
AcDbLine
 10
779.827
 20
1434.59
 30
0
 11
1074.35
 21
1434.59
 31
0
  0
LINE
  5
A43
330
A02
100
AcDbEntity
  8
ProjItem168
100
AcDbLine
 10
-318.276
 20
672.444
 30
0
 11
-318.276
 21
682.444
 31
0
  0
LINE
  5
A44
330
A02
100
AcDbEntity
  8
ProjItem168
100
AcDbLine
 10
-23.7504
 20
672.444
 30
0
 11
-318.276
 21
672.444
 31
0
  0
LINE
  5
A45
330
A02
100
AcDbEntity
  8
ProjItem168
100
AcDbLine
 10
-23.7504
 20
682.444
 30
0
 11
-23.7504
 21
672.444
 31
0
  0
LINE
  5
A46
330
A02
100
AcDbEntity
  8
ProjItem168
100
AcDbLine
 10
-318.276
 20
682.444
 30
0
 11
-23.7504
 21
682.444
 31
0
  0
LINE
  5
A47
330
A02
100
AcDbEntity
  8
ProjItem168
100
AcDbLine
 10
-592.802
 20
484.408
 30
0
 11
-592.802
 21
494.408
 31
0
  0
LINE
  5
A48
330
A02
100
AcDbEntity
  8
ProjItem168
100
AcDbLine
 10
-298.276
 20
484.408
 30
0
 11
-592.802
 21
484.408
 31
0
  0
LINE
  5
A49
330
A02
100
AcDbEntity
  8
ProjItem168
100
AcDbLine
 10
-298.276
 20
494.408
 30
0
 11
-298.276
 21
484.408
 31
0
  0
LINE
  5
A4A
330
A02
100
AcDbEntity
  8
ProjItem168
100
AcDbLine
 10
-592.802
 20
494.408
 30
0
 11
-298.276
 21
494.408
 31
0
  0
LINE
  5
A4B
330
A02
100
AcDbEntity
  8
ProjItem168
100
AcDbLine
 10
1054.35
 20
1612.62
 30
0
 11
1054.35
 21
1622.62
 31
0
  0
LINE
  5
A4C
330
A02
100
AcDbEntity
  8
ProjItem168
100
AcDbLine
 10
1348.88
 20
1612.62
 30
0
 11
1054.35
 21
1612.62
 31
0
  0
LINE
  5
A4D
330
A02
100
AcDbEntity
  8
ProjItem168
100
AcDbLine
 10
1348.88
 20
1622.62
 30
0
 11
1348.88
 21
1612.62
 31
0
  0
LINE
  5
A4E
330
A02
100
AcDbEntity
  8
ProjItem168
100
AcDbLine
 10
1054.35
 20
1622.62
 30
0
 11
1348.88
 21
1622.62
 31
0
  0
LINE
  5
A4F
330
A02
100
AcDbEntity
  8
ProjItem170
100
AcDbLine
 10
2587.9
 20
-638.941
 30
0
 11
2575.9
 21
-638.941
 31
0
  0
LINE
  5
A50
330
A02
100
AcDbEntity
  8
ProjItem170
100
AcDbLine
 10
2575.9
 20
-638.941
 30
0
 11
2575.9
 21
-388.941
 31
0
  0
LINE
  5
A51
330
A02
100
AcDbEntity
  8
ProjItem170
100
AcDbLine
 10
2575.9
 20
-388.941
 30
0
 11
2575.9
 21
219.784
 31
0
  0
LINE
  5
A52
330
A02
100
AcDbEntity
  8
ProjItem170
100
AcDbLine
 10
2575.9
 20
219.784
 30
0
 11
2575.9
 21
1860.66
 31
0
  0
LINE
  5
A53
330
A02
100
AcDbEntity
  8
ProjItem170
100
AcDbLine
 10
2587.9
 20
219.784
 30
0
 11
2587.9
 21
-388.941
 31
0
  0
LINE
  5
A54
330
A02
100
AcDbEntity
  8
ProjItem170
100
AcDbLine
 10
2587.9
 20
-388.941
 30
0
 11
2575.9
 21
-388.941
 31
0
  0
LINE
  5
A55
330
A02
100
AcDbEntity
  8
ProjItem170
100
AcDbLine
 10
2587.9
 20
219.784
 30
0
 11
2575.9
 21
219.784
 31
0
  0
LINE
  5
A56
330
A02
100
AcDbEntity
  8
ProjItem170
100
AcDbLine
 10
2587.9
 20
1860.66
 30
0
 11
2587.9
 21
219.784
 31
0
  0
LINE
  5
A57
330
A02
100
AcDbEntity
  8
ProjItem170
100
AcDbLine
 10
2587.9
 20
1860.66
 30
0
 11
2575.9
 21
1860.66
 31
0
  0
LINE
  5
A58
330
A02
100
AcDbEntity
  8
ProjItem170
100
AcDbLine
 10
2587.9
 20
-388.941
 30
0
 11
2587.9
 21
-488.941
 31
0
  0
LINE
  5
A59
330
A02
100
AcDbEntity
  8
ProjItem170
100
AcDbLine
 10
2587.9
 20
-628.941
 30
0
 11
2587.9
 21
-638.941
 31
0
  0
LINE
  5
A5A
330
A02
100
AcDbEntity
  8
ProjItem170
100
AcDbLine
 10
2587.9
 20
-628.941
 30
0
 11
2667.9
 21
-628.941
 31
0
  0
LINE
  5
A5B
330
A02
100
AcDbEntity
  8
ProjItem170
100
AcDbLine
 10
2667.9
 20
-628.941
 30
0
 11
2667.9
 21
-488.941
 31
0
  0
LINE
  5
A5C
330
A02
100
AcDbEntity
  8
ProjItem170
100
AcDbLine
 10
2667.9
 20
-488.941
 30
0
 11
2587.9
 21
-488.941
 31
0
  0
CIRCLE
  5
A5D
330
A02
100
AcDbEntity
  8
ProjItem170
100
AcDbCircle
 10
2627.9
 20
-528.941
 40
7
  0
CIRCLE
  5
A5E
330
A02
100
AcDbEntity
  8
ProjItem170
100
AcDbCircle
 10
2627.9
 20
-588.941
 40
7
  0
LINE
  5
A5F
330
A02
100
AcDbEntity
  8
ProjItem170
100
AcDbLine
 10
2667.9
 20
1780.66
 30
0
 11
2587.9
 21
1780.66
 31
0
  0
LINE
  5
A60
330
A02
100
AcDbEntity
  8
ProjItem170
100
AcDbLine
 10
2587.9
 20
1640.66
 30
0
 11
2667.9
 21
1640.66
 31
0
  0
LINE
  5
A61
330
A02
100
AcDbEntity
  8
ProjItem170
100
AcDbLine
 10
2667.9
 20
1640.66
 30
0
 11
2667.9
 21
1780.66
 31
0
  0
CIRCLE
  5
A62
330
A02
100
AcDbEntity
  8
ProjItem170
100
AcDbCircle
 10
2627.9
 20
1740.66
 40
7
  0
CIRCLE
  5
A63
330
A02
100
AcDbEntity
  8
ProjItem170
100
AcDbCircle
 10
2627.9
 20
1680.66
 40
7
  0
LINE
  5
A64
330
A02
100
AcDbEntity
  8
ProjItem170
100
AcDbLine
 10
2587.9
 20
1800.66
 30
0
 11
2637.9
 21
1800.66
 31
0
  0
LINE
  5
A65
330
A02
100
AcDbEntity
  8
ProjItem170
100
AcDbLine
 10
2587.9
 20
1810.66
 30
0
 11
2637.9
 21
1810.66
 31
0
  0
LINE
  5
A66
330
A02
100
AcDbEntity
  8
ProjItem170
100
AcDbLine
 10
2637.9
 20
1800.66
 30
0
 11
2637.9
 21
1810.66
 31
0
  0
LINE
  5
A67
330
A02
100
AcDbEntity
  8
ProjItem170
100
AcDbLine
 10
2587.9
 20
-267.735
 30
0
 11
2637.9
 21
-267.735
 31
0
  0
LINE
  5
A68
330
A02
100
AcDbEntity
  8
ProjItem170
100
AcDbLine
 10
2587.9
 20
-257.735
 30
0
 11
2637.9
 21
-257.735
 31
0
  0
LINE
  5
A69
330
A02
100
AcDbEntity
  8
ProjItem170
100
AcDbLine
 10
2637.9
 20
-267.735
 30
0
 11
2637.9
 21
-257.735
 31
0
  0
LINE
  5
A6A
330
A02
100
AcDbEntity
  8
ProjItem170
100
AcDbLine
 10
2587.9
 20
-79.6992
 30
0
 11
2637.9
 21
-79.6992
 31
0
  0
LINE
  5
A6B
330
A02
100
AcDbEntity
  8
ProjItem170
100
AcDbLine
 10
2587.9
 20
-69.6992
 30
0
 11
2637.9
 21
-69.6992
 31
0
  0
LINE
  5
A6C
330
A02
100
AcDbEntity
  8
ProjItem170
100
AcDbLine
 10
2637.9
 20
-79.6992
 30
0
 11
2637.9
 21
-69.6992
 31
0
  0
LINE
  5
A6D
330
A02
100
AcDbEntity
  8
ProjItem170
100
AcDbLine
 10
2587.9
 20
-455.771
 30
0
 11
2637.9
 21
-455.771
 31
0
  0
LINE
  5
A6E
330
A02
100
AcDbEntity
  8
ProjItem170
100
AcDbLine
 10
2587.9
 20
-445.771
 30
0
 11
2637.9
 21
-445.771
 31
0
  0
LINE
  5
A6F
330
A02
100
AcDbEntity
  8
ProjItem170
100
AcDbLine
 10
2637.9
 20
-455.771
 30
0
 11
2637.9
 21
-445.771
 31
0
  0
LINE
  5
A70
330
A02
100
AcDbEntity
  8
ProjItem170
100
AcDbLine
 10
2587.9
 20
108.337
 30
0
 11
2637.9
 21
108.337
 31
0
  0
LINE
  5
A71
330
A02
100
AcDbEntity
  8
ProjItem170
100
AcDbLine
 10
2587.9
 20
118.337
 30
0
 11
2637.9
 21
118.337
 31
0
  0
LINE
  5
A72
330
A02
100
AcDbEntity
  8
ProjItem170
100
AcDbLine
 10
2637.9
 20
108.337
 30
0
 11
2637.9
 21
118.337
 31
0
  0
LINE
  5
A73
330
A02
100
AcDbEntity
  8
ProjItem170
100
AcDbLine
 10
2587.9
 20
860.479
 30
0
 11
2637.9
 21
860.479
 31
0
  0
LINE
  5
A74
330
A02
100
AcDbEntity
  8
ProjItem170
100
AcDbLine
 10
2587.9
 20
870.479
 30
0
 11
2637.9
 21
870.479
 31
0
  0
LINE
  5
A75
330
A02
100
AcDbEntity
  8
ProjItem170
100
AcDbLine
 10
2637.9
 20
860.479
 30
0
 11
2637.9
 21
870.479
 31
0
  0
LINE
  5
A76
330
A02
100
AcDbEntity
  8
ProjItem170
100
AcDbLine
 10
2587.9
 20
1048.52
 30
0
 11
2637.9
 21
1048.52
 31
0
  0
LINE
  5
A77
330
A02
100
AcDbEntity
  8
ProjItem170
100
AcDbLine
 10
2587.9
 20
1058.52
 30
0
 11
2637.9
 21
1058.52
 31
0
  0
LINE
  5
A78
330
A02
100
AcDbEntity
  8
ProjItem170
100
AcDbLine
 10
2637.9
 20
1048.52
 30
0
 11
2637.9
 21
1058.52
 31
0
  0
LINE
  5
A79
330
A02
100
AcDbEntity
  8
ProjItem170
100
AcDbLine
 10
2587.9
 20
296.372
 30
0
 11
2637.9
 21
296.372
 31
0
  0
LINE
  5
A7A
330
A02
100
AcDbEntity
  8
ProjItem170
100
AcDbLine
 10
2587.9
 20
306.372
 30
0
 11
2637.9
 21
306.372
 31
0
  0
LINE
  5
A7B
330
A02
100
AcDbEntity
  8
ProjItem170
100
AcDbLine
 10
2637.9
 20
296.372
 30
0
 11
2637.9
 21
306.372
 31
0
  0
LINE
  5
A7C
330
A02
100
AcDbEntity
  8
ProjItem170
100
AcDbLine
 10
2587.9
 20
1236.55
 30
0
 11
2637.9
 21
1236.55
 31
0
  0
LINE
  5
A7D
330
A02
100
AcDbEntity
  8
ProjItem170
100
AcDbLine
 10
2587.9
 20
1246.55
 30
0
 11
2637.9
 21
1246.55
 31
0
  0
LINE
  5
A7E
330
A02
100
AcDbEntity
  8
ProjItem170
100
AcDbLine
 10
2637.9
 20
1236.55
 30
0
 11
2637.9
 21
1246.55
 31
0
  0
LINE
  5
A7F
330
A02
100
AcDbEntity
  8
ProjItem170
100
AcDbLine
 10
2587.9
 20
1424.59
 30
0
 11
2637.9
 21
1424.59
 31
0
  0
LINE
  5
A80
330
A02
100
AcDbEntity
  8
ProjItem170
100
AcDbLine
 10
2587.9
 20
1434.59
 30
0
 11
2637.9
 21
1434.59
 31
0
  0
LINE
  5
A81
330
A02
100
AcDbEntity
  8
ProjItem170
100
AcDbLine
 10
2637.9
 20
1424.59
 30
0
 11
2637.9
 21
1434.59
 31
0
  0
LINE
  5
A82
330
A02
100
AcDbEntity
  8
ProjItem170
100
AcDbLine
 10
2587.9
 20
672.444
 30
0
 11
2637.9
 21
672.444
 31
0
  0
LINE
  5
A83
330
A02
100
AcDbEntity
  8
ProjItem170
100
AcDbLine
 10
2587.9
 20
682.444
 30
0
 11
2637.9
 21
682.444
 31
0
  0
LINE
  5
A84
330
A02
100
AcDbEntity
  8
ProjItem170
100
AcDbLine
 10
2637.9
 20
672.444
 30
0
 11
2637.9
 21
682.444
 31
0
  0
LINE
  5
A85
330
A02
100
AcDbEntity
  8
ProjItem170
100
AcDbLine
 10
2587.9
 20
484.408
 30
0
 11
2637.9
 21
484.408
 31
0
  0
LINE
  5
A86
330
A02
100
AcDbEntity
  8
ProjItem170
100
AcDbLine
 10
2587.9
 20
494.408
 30
0
 11
2637.9
 21
494.408
 31
0
  0
LINE
  5
A87
330
A02
100
AcDbEntity
  8
ProjItem170
100
AcDbLine
 10
2637.9
 20
484.408
 30
0
 11
2637.9
 21
494.408
 31
0
  0
LINE
  5
A88
330
A02
100
AcDbEntity
  8
ProjItem170
100
AcDbLine
 10
2587.9
 20
1612.62
 30
0
 11
2637.9
 21
1612.62
 31
0
  0
LINE
  5
A89
330
A02
100
AcDbEntity
  8
ProjItem170
100
AcDbLine
 10
2587.9
 20
1622.62
 30
0
 11
2637.9
 21
1622.62
 31
0
  0
LINE
  5
A8A
330
A02
100
AcDbEntity
  8
ProjItem170
100
AcDbLine
 10
2637.9
 20
1612.62
 30
0
 11
2637.9
 21
1622.62
 31
0
  0
LINE
  5
A8B
330
A02
100
AcDbEntity
  8
ProjItem171
100
AcDbLine
 10
-2457.13
 20
-850.007
 30
0
 11
-1079.84
 21
-850.007
 31
0
  0
LINE
  5
A8C
330
A02
100
AcDbEntity
  8
ProjItem171
100
AcDbLine
 10
-1079.84
 20
-850.007
 30
0
 11
1315.78
 21
-850.007
 31
0
  0
LINE
  5
A8D
330
A02
100
AcDbEntity
  8
ProjItem171
100
AcDbLine
 10
1315.78
 20
-850.007
 30
0
 11
2291.87
 21
-850.007
 31
0
  0
LINE
  5
A8E
330
A02
100
AcDbEntity
  8
ProjItem171
100
AcDbLine
 10
-1079.84
 20
-862.007
 30
0
 11
-2457.13
 21
-862.007
 31
0
  0
LINE
  5
A8F
330
A02
100
AcDbEntity
  8
ProjItem171
100
AcDbLine
 10
-2457.13
 20
-862.007
 30
0
 11
-2457.13
 21
-850.007
 31
0
  0
LINE
  5
A90
330
A02
100
AcDbEntity
  8
ProjItem171
100
AcDbLine
 10
-1079.84
 20
-862.007
 30
0
 11
-1079.84
 21
-850.007
 31
0
  0
LINE
  5
A91
330
A02
100
AcDbEntity
  8
ProjItem171
100
AcDbLine
 10
1315.78
 20
-862.007
 30
0
 11
-1079.84
 21
-862.007
 31
0
  0
LINE
  5
A92
330
A02
100
AcDbEntity
  8
ProjItem171
100
AcDbLine
 10
1315.78
 20
-862.007
 30
0
 11
1315.78
 21
-850.007
 31
0
  0
LINE
  5
A93
330
A02
100
AcDbEntity
  8
ProjItem171
100
AcDbLine
 10
2291.87
 20
-862.007
 30
0
 11
1315.78
 21
-862.007
 31
0
  0
LINE
  5
A94
330
A02
100
AcDbEntity
  8
ProjItem171
100
AcDbLine
 10
2291.87
 20
-862.007
 30
0
 11
2291.87
 21
-850.007
 31
0
  0
LINE
  5
A95
330
A02
100
AcDbEntity
  8
ProjItem171
100
AcDbLine
 10
-2457.13
 20
-942.007
 30
0
 11
-2457.13
 21
-862.007
 31
0
  0
LINE
  5
A96
330
A02
100
AcDbEntity
  8
ProjItem171
100
AcDbLine
 10
-2457.13
 20
-942.007
 30
0
 11
-2442.13
 21
-942.007
 31
0
  0
LINE
  5
A97
330
A02
100
AcDbEntity
  8
ProjItem171
100
AcDbLine
 10
-2442.13
 20
-942.007
 30
0
 11
-2442.13
 21
-862.007
 31
0
  0
LINE
  5
A98
330
A02
100
AcDbEntity
  8
ProjItem171
100
AcDbLine
 10
2291.87
 20
-942.007
 30
0
 11
2291.87
 21
-862.007
 31
0
  0
LINE
  5
A99
330
A02
100
AcDbEntity
  8
ProjItem171
100
AcDbLine
 10
2279.87
 20
-942.007
 30
0
 11
2279.87
 21
-862.007
 31
0
  0
LINE
  5
A9A
330
A02
100
AcDbEntity
  8
ProjItem171
100
AcDbLine
 10
2291.87
 20
-942.007
 30
0
 11
2279.87
 21
-942.007
 31
0
  0
LINE
  5
A9B
330
A02
100
AcDbEntity
  8
ProjItem171
100
AcDbLine
 10
1328.88
 20
-862.007
 30
0
 11
1328.88
 21
-912.007
 31
0
  0
LINE
  5
A9C
330
A02
100
AcDbEntity
  8
ProjItem171
100
AcDbLine
 10
2231.87
 20
-862.007
 30
0
 11
2231.87
 21
-912.007
 31
0
  0
LINE
  5
A9D
330
A02
100
AcDbEntity
  8
ProjItem171
100
AcDbLine
 10
1328.88
 20
-912.007
 30
0
 11
2231.87
 21
-912.007
 31
0
  0
LINE
  5
A9E
330
A02
100
AcDbEntity
  8
ProjItem171
100
AcDbLine
 10
-2012.13
 20
-862.007
 30
0
 11
-2012.13
 21
-912.007
 31
0
  0
LINE
  5
A9F
330
A02
100
AcDbEntity
  8
ProjItem171
100
AcDbLine
 10
-1584.61
 20
-862.007
 30
0
 11
-1584.61
 21
-912.007
 31
0
  0
LINE
  5
AA0
330
A02
100
AcDbEntity
  8
ProjItem171
100
AcDbLine
 10
-2012.13
 20
-912.007
 30
0
 11
-1584.61
 21
-912.007
 31
0
  0
LINE
  5
AA1
330
A02
100
AcDbEntity
  8
ProjItem171
100
AcDbLine
 10
-1558.13
 20
-862.007
 30
0
 11
-1558.13
 21
-912.007
 31
0
  0
LINE
  5
AA2
330
A02
100
AcDbEntity
  8
ProjItem171
100
AcDbLine
 10
-1558.13
 20
-912.007
 30
0
 11
-1174.13
 21
-912.007
 31
0
  0
LINE
  5
AA3
330
A02
100
AcDbEntity
  8
ProjItem171
100
AcDbLine
 10
-2397.13
 20
-862.007
 30
0
 11
-2397.13
 21
-912.007
 31
0
  0
LINE
  5
AA4
330
A02
100
AcDbEntity
  8
ProjItem171
100
AcDbLine
 10
-2039.33
 20
-862.007
 30
0
 11
-2039.33
 21
-912.007
 31
0
  0
LINE
  5
AA5
330
A02
100
AcDbEntity
  8
ProjItem171
100
AcDbLine
 10
-2397.13
 20
-912.007
 30
0
 11
-2039.33
 21
-912.007
 31
0
  0
LINE
  5
AA6
330
A02
100
AcDbEntity
  8
ProjItem171
100
AcDbLine
 10
-1174.13
 20
-862.007
 30
0
 11
-1174.13
 21
-912.007
 31
0
  0
LINE
  5
AA7
330
A02
100
AcDbEntity
  8
ProjItem171
100
AcDbLine
 10
-1174.13
 20
-912.007
 30
0
 11
-867.328
 21
-912.007
 31
0
  0
LINE
  5
AA8
330
A02
100
AcDbEntity
  8
ProjItem171
100
AcDbLine
 10
-43.7504
 20
-862.007
 30
0
 11
-43.7504
 21
-912.007
 31
0
  0
LINE
  5
AA9
330
A02
100
AcDbEntity
  8
ProjItem171
100
AcDbLine
 10
-43.7504
 20
-912.007
 30
0
 11
230.775
 21
-912.007
 31
0
  0
LINE
  5
AAA
330
A02
100
AcDbEntity
  8
ProjItem171
100
AcDbLine
 10
230.775
 20
-862.007
 30
0
 11
230.775
 21
-912.007
 31
0
  0
LINE
  5
AAB
330
A02
100
AcDbEntity
  8
ProjItem171
100
AcDbLine
 10
230.775
 20
-912.007
 30
0
 11
505.301
 21
-912.007
 31
0
  0
LINE
  5
AAC
330
A02
100
AcDbEntity
  8
ProjItem171
100
AcDbLine
 10
-867.328
 20
-862.007
 30
0
 11
-867.328
 21
-912.007
 31
0
  0
LINE
  5
AAD
330
A02
100
AcDbEntity
  8
ProjItem171
100
AcDbLine
 10
-867.328
 20
-912.007
 30
0
 11
-592.802
 21
-912.007
 31
0
  0
LINE
  5
AAE
330
A02
100
AcDbEntity
  8
ProjItem171
100
AcDbLine
 10
505.301
 20
-862.007
 30
0
 11
505.301
 21
-912.007
 31
0
  0
LINE
  5
AAF
330
A02
100
AcDbEntity
  8
ProjItem171
100
AcDbLine
 10
505.301
 20
-912.007
 30
0
 11
779.827
 21
-912.007
 31
0
  0
LINE
  5
AB0
330
A02
100
AcDbEntity
  8
ProjItem171
100
AcDbLine
 10
779.827
 20
-862.007
 30
0
 11
779.827
 21
-912.007
 31
0
  0
LINE
  5
AB1
330
A02
100
AcDbEntity
  8
ProjItem171
100
AcDbLine
 10
779.827
 20
-912.007
 30
0
 11
1054.35
 21
-912.007
 31
0
  0
LINE
  5
AB2
330
A02
100
AcDbEntity
  8
ProjItem171
100
AcDbLine
 10
-318.276
 20
-862.007
 30
0
 11
-318.276
 21
-912.007
 31
0
  0
LINE
  5
AB3
330
A02
100
AcDbEntity
  8
ProjItem171
100
AcDbLine
 10
-318.276
 20
-912.007
 30
0
 11
-43.7504
 21
-912.007
 31
0
  0
LINE
  5
AB4
330
A02
100
AcDbEntity
  8
ProjItem171
100
AcDbLine
 10
-592.802
 20
-862.007
 30
0
 11
-592.802
 21
-912.007
 31
0
  0
LINE
  5
AB5
330
A02
100
AcDbEntity
  8
ProjItem171
100
AcDbLine
 10
-592.802
 20
-912.007
 30
0
 11
-318.276
 21
-912.007
 31
0
  0
LINE
  5
AB6
330
A02
100
AcDbEntity
  8
ProjItem171
100
AcDbLine
 10
1054.35
 20
-862.007
 30
0
 11
1054.35
 21
-912.007
 31
0
  0
LINE
  5
AB7
330
A02
100
AcDbEntity
  8
ProjItem171
100
AcDbLine
 10
1054.35
 20
-912.007
 30
0
 11
1328.88
 21
-912.007
 31
0
  0
LINE
  5
AB8
330
A02
100
AcDbEntity
  8
ProjItem169
100
AcDbLine
 10
-4683.88
 20
-1561.41
 30
0
 11
-4676.81
 21
-1557.33
 31
0
  0
LINE
  5
AB9
330
A02
100
AcDbEntity
  8
ProjItem169
100
AcDbLine
 10
-4683.88
 20
-1561.41
 30
0
 11
-4692.36
 21
-1556.51
 31
0
  0
LINE
  5
ABA
330
A02
100
AcDbEntity
  8
ProjItem169
100
AcDbLine
 10
-4692.36
 20
-1556.51
 30
0
 11
-4692.36
 21
-1352.39
 31
0
  0
LINE
  5
ABB
330
A02
100
AcDbEntity
  8
ProjItem169
100
AcDbLine
 10
-4692.36
 20
-1352.39
 30
0
 11
-3718.47
 21
-293.087
 31
0
  0
LINE
  5
ABC
330
A02
100
AcDbEntity
  8
ProjItem169
100
AcDbLine
 10
-3718.47
 20
-293.087
 30
0
 11
-2024.51
 21
2024.69
 31
0
  0
LINE
  5
ABD
330
A02
100
AcDbEntity
  8
ProjItem169
100
AcDbLine
 10
-2024.51
 20
2024.69
 30
0
 11
-1334.31
 21
2423.17
 31
0
  0
LINE
  5
ABE
330
A02
100
AcDbEntity
  8
ProjItem169
100
AcDbLine
 10
-3709.98
 20
-297.986
 30
0
 11
-4683.88
 21
-1357.29
 31
0
  0
LINE
  5
ABF
330
A02
100
AcDbEntity
  8
ProjItem169
100
AcDbLine
 10
-4683.88
 20
-1357.29
 30
0
 11
-4692.36
 21
-1352.39
 31
0
  0
LINE
  5
AC0
330
A02
100
AcDbEntity
  8
ProjItem169
100
AcDbLine
 10
-3709.98
 20
-297.986
 30
0
 11
-3718.47
 21
-293.087
 31
0
  0
LINE
  5
AC1
330
A02
100
AcDbEntity
  8
ProjItem169
100
AcDbLine
 10
-2016.02
 20
2019.79
 30
0
 11
-3709.98
 21
-297.986
 31
0
  0
LINE
  5
AC2
330
A02
100
AcDbEntity
  8
ProjItem169
100
AcDbLine
 10
-2016.02
 20
2019.79
 30
0
 11
-2024.51
 21
2024.69
 31
0
  0
LINE
  5
AC3
330
A02
100
AcDbEntity
  8
ProjItem169
100
AcDbLine
 10
-1325.83
 20
2418.27
 30
0
 11
-2016.02
 21
2019.79
 31
0
  0
LINE
  5
AC4
330
A02
100
AcDbEntity
  8
ProjItem169
100
AcDbLine
 10
-1325.83
 20
2418.27
 30
0
 11
-1334.31
 21
2423.17
 31
0
  0
LINE
  5
AC5
330
A02
100
AcDbEntity
  8
ProjItem169
100
AcDbLine
 10
-1961.29
 20
1847.27
 30
0
 11
-1325.83
 21
2214.15
 31
0
  0
LINE
  5
AC6
330
A02
100
AcDbEntity
  8
ProjItem169
100
AcDbLine
 10
-3623.57
 20
-427.169
 30
0
 11
-3563.83
 21
-345.426
 31
0
  0
LINE
  5
AC7
330
A02
100
AcDbEntity
  8
ProjItem169
100
AcDbLine
 10
-3527.82
 20
-296.15
 30
0
 11
-3369.71
 21
-79.821
 31
0
  0
LINE
  5
AC8
330
A02
100
AcDbEntity
  8
ProjItem169
100
AcDbLine
 10
-3333.7
 20
-30.5443
 30
0
 11
-3175.59
 21
185.784
 31
0
  0
LINE
  5
AC9
330
A02
100
AcDbEntity
  8
ProjItem169
100
AcDbLine
 10
-3139.58
 20
235.061
 30
0
 11
-2981.47
 21
451.389
 31
0
  0
LINE
  5
ACA
330
A02
100
AcDbEntity
  8
ProjItem169
100
AcDbLine
 10
-2945.46
 20
500.666
 30
0
 11
-2787.35
 21
716.995
 31
0
  0
LINE
  5
ACB
330
A02
100
AcDbEntity
  8
ProjItem169
100
AcDbLine
 10
-2751.34
 20
766.271
 30
0
 11
-2593.23
 21
982.6
 31
0
  0
LINE
  5
ACC
330
A02
100
AcDbEntity
  8
ProjItem169
100
AcDbLine
 10
-2557.22
 20
1031.88
 30
0
 11
-2399.12
 21
1248.2
 31
0
  0
LINE
  5
ACD
330
A02
100
AcDbEntity
  8
ProjItem169
100
AcDbLine
 10
-2363.1
 20
1297.48
 30
0
 11
-2205
 21
1513.81
 31
0
  0
LINE
  5
ACE
330
A02
100
AcDbEntity
  8
ProjItem169
100
AcDbLine
 10
-2168.98
 20
1563.09
 30
0
 11
-2010.88
 21
1779.42
 31
0
  0
LINE
  5
ACF
330
A02
100
AcDbEntity
  8
ProjItem169
100
AcDbLine
 10
-1974.86
 20
1828.69
 30
0
 11
-1961.29
 21
1847.27
 31
0
  0
LINE
  5
AD0
330
A02
100
AcDbEntity
  8
ProjItem169
100
AcDbLine
 10
-4616.7
 20
-1507.39
 30
0
 11
-4433.5
 21
-1308.12
 31
0
  0
LINE
  5
AD1
330
A02
100
AcDbEntity
  8
ProjItem169
100
AcDbLine
 10
-4372.83
 20
-1242.14
 30
0
 11
-4132.66
 21
-980.901
 31
0
  0
LINE
  5
AD2
330
A02
100
AcDbEntity
  8
ProjItem169
100
AcDbLine
 10
-4057.64
 20
-899.305
 30
0
 11
-3831.82
 21
-653.683
 31
0
  0
LINE
  5
AD3
330
A02
100
AcDbEntity
  8
ProjItem169
100
AcDbLine
 10
-3759.14
 20
-574.63
 30
0
 11
-3623.57
 21
-427.169
 31
0
  0
LINE
  5
AD4
330
A02
100
AcDbEntity
  8
ProjItem169
100
AcDbLine
 10
-4683.88
 20
-1357.29
 30
0
 11
-4683.88
 21
-1438.94
 31
0
  0
LINE
  5
AD5
330
A02
100
AcDbEntity
  8
ProjItem169
100
AcDbLine
 10
-4683.88
 20
-1553.25
 30
0
 11
-4683.88
 21
-1561.41
 31
0
  0
LINE
  5
AD6
330
A02
100
AcDbEntity
  8
ProjItem169
100
AcDbLine
 10
-4683.88
 20
-1553.25
 30
0
 11
-4627.31
 21
-1585.91
 31
0
  0
LINE
  5
AD7
330
A02
100
AcDbEntity
  8
ProjItem169
100
AcDbLine
 10
-4627.31
 20
-1585.91
 30
0
 11
-4627.31
 21
-1471.6
 31
0
  0
LINE
  5
AD8
330
A02
100
AcDbEntity
  8
ProjItem169
100
AcDbLine
 10
-4627.31
 20
-1471.6
 30
0
 11
-4683.88
 21
-1438.94
 31
0
  0
ELLIPSE
  5
AD9
330
A02
100
AcDbEntity
  8
ProjItem169
100
AcDbEllipse
 10
-4655.59
 20
-1487.93
 30
0
 11
-3.5
 21
6.06218
 31
0
 40
0.57735
 41
5.49779
 42
0
  0
ELLIPSE
  5
ADA
330
A02
100
AcDbEntity
  8
ProjItem169
100
AcDbEllipse
 10
-4655.59
 20
-1487.93
 30
0
 11
-3.5
 21
6.06218
 31
0
 40
0.57735
 41
3.33067e-16
 42
3.14159
  0
ELLIPSE
  5
ADB
330
A02
100
AcDbEntity
  8
ProjItem169
100
AcDbEllipse
 10
-4655.59
 20
-1487.93
 30
0
 11
-3.5
 21
6.06218
 31
0
 40
0.57735
 41
3.14159
 42
5.49779
  0
ELLIPSE
  5
ADC
330
A02
100
AcDbEntity
  8
ProjItem169
100
AcDbEllipse
 10
-4655.59
 20
-1536.92
 30
0
 11
-3.5
 21
6.06218
 31
0
 40
0.57735
 41
5.49779
 42
0
  0
ELLIPSE
  5
ADD
330
A02
100
AcDbEntity
  8
ProjItem169
100
AcDbEllipse
 10
-4655.59
 20
-1536.92
 30
0
 11
-3.5
 21
6.06218
 31
0
 40
0.57735
 41
3.33067e-16
 42
3.14159
  0
ELLIPSE
  5
ADE
330
A02
100
AcDbEntity
  8
ProjItem169
100
AcDbEllipse
 10
-4655.59
 20
-1536.92
 30
0
 11
-3.5
 21
6.06218
 31
0
 40
0.57735
 41
3.14159
 42
5.49779
  0
LINE
  5
ADF
330
A02
100
AcDbEntity
  8
ProjItem169
100
AcDbLine
 10
-4627.31
 20
-1471.6
 30
0
 11
-4616.7
 21
-1465.47
 31
0
  0
LINE
  5
AE0
330
A02
100
AcDbEntity
  8
ProjItem169
100
AcDbLine
 10
-4683.88
 20
-1438.94
 30
0
 11
-4673.27
 21
-1432.81
 31
0
  0
LINE
  5
AE1
330
A02
100
AcDbEntity
  8
ProjItem169
100
AcDbLine
 10
-4616.7
 20
-1465.47
 30
0
 11
-4673.27
 21
-1432.81
 31
0
  0
LINE
  5
AE2
330
A02
100
AcDbEntity
  8
ProjItem169
100
AcDbLine
 10
-4616.7
 20
-1579.78
 30
0
 11
-4616.7
 21
-1465.47
 31
0
  0
LINE
  5
AE3
330
A02
100
AcDbEntity
  8
ProjItem169
100
AcDbLine
 10
-4627.31
 20
-1585.91
 30
0
 11
-4616.7
 21
-1579.78
 31
0
  0
LINE
  5
AE4
330
A02
100
AcDbEntity
  8
ProjItem169
100
AcDbLine
 10
-1325.83
 20
2214.15
 30
0
 11
-1325.83
 21
2228.85
 31
0
  0
LINE
  5
AE5
330
A02
100
AcDbEntity
  8
ProjItem169
100
AcDbLine
 10
-1334.31
 20
2348.06
 30
0
 11
-1334.31
 21
2333.36
 31
0
  0
LINE
  5
AE6
330
A02
100
AcDbEntity
  8
ProjItem169
100
AcDbLine
 10
-1334.31
 20
2323.56
 30
0
 11
-1334.31
 21
2233.75
 31
0
  0
LINE
  5
AE7
330
A02
100
AcDbEntity
  8
ProjItem169
100
AcDbLine
 10
-1325.83
 20
2352.95
 30
0
 11
-1334.31
 21
2348.06
 31
0
  0
LINE
  5
AE8
330
A02
100
AcDbEntity
  8
ProjItem169
100
AcDbLine
 10
-1325.83
 20
2352.95
 30
0
 11
-1325.83
 21
2418.27
 31
0
  0
LINE
  5
AE9
330
A02
100
AcDbEntity
  8
ProjItem169
100
AcDbLine
 10
-2006.76
 20
1976.15
 30
0
 11
-2006.76
 21
1984.31
 31
0
  0
LINE
  5
AEA
330
A02
100
AcDbEntity
  8
ProjItem169
100
AcDbLine
 10
-2006.76
 20
1984.31
 30
0
 11
-1368.25
 21
2352.95
 31
0
  0
LINE
  5
AEB
330
A02
100
AcDbEntity
  8
ProjItem169
100
AcDbLine
 10
-4369.21
 20
-1076.65
 30
0
 11
-4369.21
 21
-1068.49
 31
0
  0
LINE
  5
AEC
330
A02
100
AcDbEntity
  8
ProjItem169
100
AcDbLine
 10
-4369.21
 20
-1068.49
 30
0
 11
-4066.91
 21
-893.952
 31
0
  0
LINE
  5
AED
330
A02
100
AcDbEntity
  8
ProjItem169
100
AcDbLine
 10
-4048.19
 20
-737.777
 30
0
 11
-4048.19
 21
-729.612
 31
0
  0
LINE
  5
AEE
330
A02
100
AcDbEntity
  8
ProjItem169
100
AcDbLine
 10
-4048.19
 20
-729.612
 30
0
 11
-3769.45
 21
-568.681
 31
0
  0
LINE
  5
AEF
330
A02
100
AcDbEntity
  8
ProjItem169
100
AcDbLine
 10
-4641.45
 20
-1387.36
 30
0
 11
-4641.45
 21
-1379.19
 31
0
  0
LINE
  5
AF0
330
A02
100
AcDbEntity
  8
ProjItem169
100
AcDbLine
 10
-4641.45
 20
-1379.19
 30
0
 11
-4388.45
 21
-1233.12
 31
0
  0
LINE
  5
AF1
330
A02
100
AcDbEntity
  8
ProjItem169
100
AcDbLine
 10
-3776.66
 20
-427.479
 30
0
 11
-3776.66
 21
-419.314
 31
0
  0
LINE
  5
AF2
330
A02
100
AcDbEntity
  8
ProjItem169
100
AcDbLine
 10
-3776.66
 20
-419.314
 30
0
 11
-3545.57
 21
-285.897
 31
0
  0
LINE
  5
AF3
330
A02
100
AcDbEntity
  8
ProjItem169
100
AcDbLine
 10
-2977.36
 20
648.12
 30
0
 11
-2977.36
 21
656.285
 31
0
  0
LINE
  5
AF4
330
A02
100
AcDbEntity
  8
ProjItem169
100
AcDbLine
 10
-2977.36
 20
656.285
 30
0
 11
-2769.1
 21
776.524
 31
0
  0
LINE
  5
AF5
330
A02
100
AcDbEntity
  8
ProjItem169
100
AcDbLine
 10
-2783.24
 20
913.725
 30
0
 11
-2783.24
 21
921.89
 31
0
  0
LINE
  5
AF6
330
A02
100
AcDbEntity
  8
ProjItem169
100
AcDbLine
 10
-2783.24
 20
921.89
 30
0
 11
-2574.98
 21
1042.13
 31
0
  0
LINE
  5
AF7
330
A02
100
AcDbEntity
  8
ProjItem169
100
AcDbLine
 10
-3559.72
 20
-148.696
 30
0
 11
-3559.72
 21
-140.531
 31
0
  0
LINE
  5
AF8
330
A02
100
AcDbEntity
  8
ProjItem169
100
AcDbLine
 10
-3559.72
 20
-140.531
 30
0
 11
-3351.45
 21
-20.2914
 31
0
  0
LINE
  5
AF9
330
A02
100
AcDbEntity
  8
ProjItem169
100
AcDbLine
 10
-2589.12
 20
1179.33
 30
0
 11
-2589.12
 21
1187.49
 31
0
  0
LINE
  5
AFA
330
A02
100
AcDbEntity
  8
ProjItem169
100
AcDbLine
 10
-2589.12
 20
1187.49
 30
0
 11
-2380.86
 21
1307.73
 31
0
  0
LINE
  5
AFB
330
A02
100
AcDbEntity
  8
ProjItem169
100
AcDbLine
 10
-2395
 20
1444.94
 30
0
 11
-2395
 21
1453.1
 31
0
  0
LINE
  5
AFC
330
A02
100
AcDbEntity
  8
ProjItem169
100
AcDbLine
 10
-2395
 20
1453.1
 30
0
 11
-2186.74
 21
1573.34
 31
0
  0
LINE
  5
AFD
330
A02
100
AcDbEntity
  8
ProjItem169
100
AcDbLine
 10
-3171.48
 20
382.514
 30
0
 11
-3171.48
 21
390.679
 31
0
  0
LINE
  5
AFE
330
A02
100
AcDbEntity
  8
ProjItem169
100
AcDbLine
 10
-3171.48
 20
390.679
 30
0
 11
-2963.22
 21
510.919
 31
0
  0
LINE
  5
AFF
330
A02
100
AcDbEntity
  8
ProjItem169
100
AcDbLine
 10
-3365.6
 20
116.909
 30
0
 11
-3365.6
 21
125.074
 31
0
  0
LINE
  5
B00
330
A02
100
AcDbEntity
  8
ProjItem169
100
AcDbLine
 10
-3365.6
 20
125.074
 30
0
 11
-3157.34
 21
245.314
 31
0
  0
LINE
  5
B01
330
A02
100
AcDbEntity
  8
ProjItem169
100
AcDbLine
 10
-2200.88
 20
1710.54
 30
0
 11
-2200.88
 21
1718.71
 31
0
  0
LINE
  5
B02
330
A02
100
AcDbEntity
  8
ProjItem169
100
AcDbLine
 10
-2200.88
 20
1718.71
 30
0
 11
-1992.62
 21
1838.94
 31
0
  0
LINE
  5
B03
330
A02
100
AcDbEntity
  8
ProjItem169
100
AcDbLine
 10
-1269.26
 20
2320.29
 30
0
 11
-1325.83
 21
2352.95
 31
0
  0
LINE
  5
B04
330
A02
100
AcDbEntity
  8
ProjItem169
100
AcDbLine
 10
-1277.74
 20
2315.4
 30
0
 11
-1334.31
 21
2348.06
 31
0
  0
LINE
  5
B05
330
A02
100
AcDbEntity
  8
ProjItem169
100
AcDbLine
 10
-1269.26
 20
2320.29
 30
0
 11
-1277.74
 21
2315.4
 31
0
  0
LINE
  5
B06
330
A02
100
AcDbEntity
  8
ProjItem169
100
AcDbLine
 10
-1334.31
 20
2233.75
 30
0
 11
-1277.74
 21
2201.09
 31
0
  0
LINE
  5
B07
330
A02
100
AcDbEntity
  8
ProjItem169
100
AcDbLine
 10
-1277.74
 20
2201.09
 30
0
 11
-1277.74
 21
2315.4
 31
0
  0
ELLIPSE
  5
B08
330
A02
100
AcDbEntity
  8
ProjItem169
100
AcDbEllipse
 10
-1306.03
 20
2299.07
 30
0
 11
3.5
 21
-6.06218
 31
0
 40
0.57735
 41
-3.14159
 42
-0.785398
  0
ELLIPSE
  5
B09
330
A02
100
AcDbEntity
  8
ProjItem169
100
AcDbEllipse
 10
-1306.03
 20
2299.07
 30
0
 11
3.5
 21
-6.06218
 31
0
 40
0.57735
 41
-0
 42
-3.14159
  0
ELLIPSE
  5
B0A
330
A02
100
AcDbEntity
  8
ProjItem169
100
AcDbEllipse
 10
-1306.03
 20
2299.07
 30
0
 11
3.5
 21
-6.06218
 31
0
 40
0.57735
 41
-0.785398
 42
-0
  0
ELLIPSE
  5
B0B
330
A02
100
AcDbEntity
  8
ProjItem169
100
AcDbEllipse
 10
-1306.03
 20
2250.08
 30
0
 11
3.5
 21
-6.06218
 31
0
 40
0.57735
 41
-3.14159
 42
-0.785398
  0
ELLIPSE
  5
B0C
330
A02
100
AcDbEntity
  8
ProjItem169
100
AcDbEllipse
 10
-1306.03
 20
2250.08
 30
0
 11
3.5
 21
-6.06218
 31
0
 40
0.57735
 41
-0
 42
-3.14159
  0
ELLIPSE
  5
B0D
330
A02
100
AcDbEntity
  8
ProjItem169
100
AcDbEllipse
 10
-1306.03
 20
2250.08
 30
0
 11
3.5
 21
-6.06218
 31
0
 40
0.57735
 41
-0.785398
 42
-0
  0
LINE
  5
B0E
330
A02
100
AcDbEntity
  8
ProjItem169
100
AcDbLine
 10
-1269.26
 20
2205.99
 30
0
 11
-1277.74
 21
2201.09
 31
0
  0
LINE
  5
B0F
330
A02
100
AcDbEntity
  8
ProjItem169
100
AcDbLine
 10
-1269.26
 20
2205.99
 30
0
 11
-1269.26
 21
2320.29
 31
0
  0
LINE
  5
B10
330
A02
100
AcDbEntity
  8
ProjItem169
100
AcDbLine
 10
-2006.76
 20
1976.15
 30
0
 11
-1971.41
 21
1955.73
 31
0
  0
LINE
  5
B11
330
A02
100
AcDbEntity
  8
ProjItem169
100
AcDbLine
 10
-2006.76
 20
1984.31
 30
0
 11
-1971.41
 21
1963.9
 31
0
  0
LINE
  5
B12
330
A02
100
AcDbEntity
  8
ProjItem169
100
AcDbLine
 10
-1971.41
 20
1955.73
 30
0
 11
-1971.41
 21
1963.9
 31
0
  0
LINE
  5
B13
330
A02
100
AcDbEntity
  8
ProjItem169
100
AcDbLine
 10
-1332.9
 20
2324.38
 30
0
 11
-1971.41
 21
1955.73
 31
0
  0
LINE
  5
B14
330
A02
100
AcDbEntity
  8
ProjItem169
100
AcDbLine
 10
-1368.25
 20
2352.95
 30
0
 11
-1332.9
 21
2332.54
 31
0
  0
LINE
  5
B15
330
A02
100
AcDbEntity
  8
ProjItem169
100
AcDbLine
 10
-1332.9
 20
2332.54
 30
0
 11
-1332.9
 21
2324.38
 31
0
  0
LINE
  5
B16
330
A02
100
AcDbEntity
  8
ProjItem169
100
AcDbLine
 10
-1971.41
 20
1963.9
 30
0
 11
-1332.9
 21
2332.54
 31
0
  0
LINE
  5
B17
330
A02
100
AcDbEntity
  8
ProjItem169
100
AcDbLine
 10
-4369.21
 20
-1076.65
 30
0
 11
-4333.86
 21
-1097.06
 31
0
  0
LINE
  5
B18
330
A02
100
AcDbEntity
  8
ProjItem169
100
AcDbLine
 10
-4369.21
 20
-1068.49
 30
0
 11
-4333.86
 21
-1088.9
 31
0
  0
LINE
  5
B19
330
A02
100
AcDbEntity
  8
ProjItem169
100
AcDbLine
 10
-4333.86
 20
-1097.06
 30
0
 11
-4333.86
 21
-1088.9
 31
0
  0
LINE
  5
B1A
330
A02
100
AcDbEntity
  8
ProjItem169
100
AcDbLine
 10
-4031.56
 20
-922.53
 30
0
 11
-4333.86
 21
-1097.06
 31
0
  0
LINE
  5
B1B
330
A02
100
AcDbEntity
  8
ProjItem169
100
AcDbLine
 10
-4066.91
 20
-893.952
 30
0
 11
-4031.56
 21
-914.365
 31
0
  0
LINE
  5
B1C
330
A02
100
AcDbEntity
  8
ProjItem169
100
AcDbLine
 10
-4031.56
 20
-914.365
 30
0
 11
-4031.56
 21
-922.53
 31
0
  0
LINE
  5
B1D
330
A02
100
AcDbEntity
  8
ProjItem169
100
AcDbLine
 10
-4333.86
 20
-1088.9
 30
0
 11
-4031.56
 21
-914.365
 31
0
  0
LINE
  5
B1E
330
A02
100
AcDbEntity
  8
ProjItem169
100
AcDbLine
 10
-4048.19
 20
-737.777
 30
0
 11
-4012.83
 21
-758.189
 31
0
  0
LINE
  5
B1F
330
A02
100
AcDbEntity
  8
ProjItem169
100
AcDbLine
 10
-4048.19
 20
-729.612
 30
0
 11
-4012.83
 21
-750.024
 31
0
  0
LINE
  5
B20
330
A02
100
AcDbEntity
  8
ProjItem169
100
AcDbLine
 10
-4012.83
 20
-758.189
 30
0
 11
-4012.83
 21
-750.024
 31
0
  0
LINE
  5
B21
330
A02
100
AcDbEntity
  8
ProjItem169
100
AcDbLine
 10
-3734.09
 20
-597.258
 30
0
 11
-4012.83
 21
-758.189
 31
0
  0
LINE
  5
B22
330
A02
100
AcDbEntity
  8
ProjItem169
100
AcDbLine
 10
-3769.45
 20
-568.681
 30
0
 11
-3734.09
 21
-589.093
 31
0
  0
LINE
  5
B23
330
A02
100
AcDbEntity
  8
ProjItem169
100
AcDbLine
 10
-3734.09
 20
-589.093
 30
0
 11
-3734.09
 21
-597.258
 31
0
  0
LINE
  5
B24
330
A02
100
AcDbEntity
  8
ProjItem169
100
AcDbLine
 10
-4012.83
 20
-750.024
 30
0
 11
-3734.09
 21
-589.093
 31
0
  0
LINE
  5
B25
330
A02
100
AcDbEntity
  8
ProjItem169
100
AcDbLine
 10
-4641.45
 20
-1387.36
 30
0
 11
-4606.1
 21
-1407.77
 31
0
  0
LINE
  5
B26
330
A02
100
AcDbEntity
  8
ProjItem169
100
AcDbLine
 10
-4641.45
 20
-1379.19
 30
0
 11
-4606.1
 21
-1399.61
 31
0
  0
LINE
  5
B27
330
A02
100
AcDbEntity
  8
ProjItem169
100
AcDbLine
 10
-4606.1
 20
-1407.77
 30
0
 11
-4606.1
 21
-1399.61
 31
0
  0
LINE
  5
B28
330
A02
100
AcDbEntity
  8
ProjItem169
100
AcDbLine
 10
-4353.09
 20
-1261.7
 30
0
 11
-4606.1
 21
-1407.77
 31
0
  0
LINE
  5
B29
330
A02
100
AcDbEntity
  8
ProjItem169
100
AcDbLine
 10
-4388.45
 20
-1233.12
 30
0
 11
-4353.09
 21
-1253.53
 31
0
  0
LINE
  5
B2A
330
A02
100
AcDbEntity
  8
ProjItem169
100
AcDbLine
 10
-4353.09
 20
-1253.53
 30
0
 11
-4353.09
 21
-1261.7
 31
0
  0
LINE
  5
B2B
330
A02
100
AcDbEntity
  8
ProjItem169
100
AcDbLine
 10
-4606.1
 20
-1399.61
 30
0
 11
-4353.09
 21
-1253.53
 31
0
  0
LINE
  5
B2C
330
A02
100
AcDbEntity
  8
ProjItem169
100
AcDbLine
 10
-3776.66
 20
-427.479
 30
0
 11
-3741.3
 21
-447.891
 31
0
  0
LINE
  5
B2D
330
A02
100
AcDbEntity
  8
ProjItem169
100
AcDbLine
 10
-3776.66
 20
-419.314
 30
0
 11
-3741.3
 21
-439.726
 31
0
  0
LINE
  5
B2E
330
A02
100
AcDbEntity
  8
ProjItem169
100
AcDbLine
 10
-3741.3
 20
-447.891
 30
0
 11
-3741.3
 21
-439.726
 31
0
  0
LINE
  5
B2F
330
A02
100
AcDbEntity
  8
ProjItem169
100
AcDbLine
 10
-3510.22
 20
-314.474
 30
0
 11
-3741.3
 21
-447.891
 31
0
  0
LINE
  5
B30
330
A02
100
AcDbEntity
  8
ProjItem169
100
AcDbLine
 10
-3545.57
 20
-285.897
 30
0
 11
-3510.22
 21
-306.309
 31
0
  0
LINE
  5
B31
330
A02
100
AcDbEntity
  8
ProjItem169
100
AcDbLine
 10
-3510.22
 20
-306.309
 30
0
 11
-3510.22
 21
-314.474
 31
0
  0
LINE
  5
B32
330
A02
100
AcDbEntity
  8
ProjItem169
100
AcDbLine
 10
-3741.3
 20
-439.726
 30
0
 11
-3510.22
 21
-306.309
 31
0
  0
LINE
  5
B33
330
A02
100
AcDbEntity
  8
ProjItem169
100
AcDbLine
 10
-2977.36
 20
648.12
 30
0
 11
-2942
 21
627.707
 31
0
  0
LINE
  5
B34
330
A02
100
AcDbEntity
  8
ProjItem169
100
AcDbLine
 10
-2977.36
 20
656.285
 30
0
 11
-2942
 21
635.872
 31
0
  0
LINE
  5
B35
330
A02
100
AcDbEntity
  8
ProjItem169
100
AcDbLine
 10
-2942
 20
627.707
 30
0
 11
-2942
 21
635.872
 31
0
  0
LINE
  5
B36
330
A02
100
AcDbEntity
  8
ProjItem169
100
AcDbLine
 10
-2733.74
 20
747.947
 30
0
 11
-2942
 21
627.707
 31
0
  0
LINE
  5
B37
330
A02
100
AcDbEntity
  8
ProjItem169
100
AcDbLine
 10
-2769.1
 20
776.524
 30
0
 11
-2733.74
 21
756.112
 31
0
  0
LINE
  5
B38
330
A02
100
AcDbEntity
  8
ProjItem169
100
AcDbLine
 10
-2733.74
 20
756.112
 30
0
 11
-2733.74
 21
747.947
 31
0
  0
LINE
  5
B39
330
A02
100
AcDbEntity
  8
ProjItem169
100
AcDbLine
 10
-2942
 20
635.872
 30
0
 11
-2733.74
 21
756.112
 31
0
  0
LINE
  5
B3A
330
A02
100
AcDbEntity
  8
ProjItem169
100
AcDbLine
 10
-2783.24
 20
913.725
 30
0
 11
-2747.88
 21
893.312
 31
0
  0
LINE
  5
B3B
330
A02
100
AcDbEntity
  8
ProjItem169
100
AcDbLine
 10
-2783.24
 20
921.89
 30
0
 11
-2747.88
 21
901.477
 31
0
  0
LINE
  5
B3C
330
A02
100
AcDbEntity
  8
ProjItem169
100
AcDbLine
 10
-2747.88
 20
893.312
 30
0
 11
-2747.88
 21
901.477
 31
0
  0
LINE
  5
B3D
330
A02
100
AcDbEntity
  8
ProjItem169
100
AcDbLine
 10
-2539.62
 20
1013.55
 30
0
 11
-2747.88
 21
893.312
 31
0
  0
LINE
  5
B3E
330
A02
100
AcDbEntity
  8
ProjItem169
100
AcDbLine
 10
-2574.98
 20
1042.13
 30
0
 11
-2539.62
 21
1021.72
 31
0
  0
LINE
  5
B3F
330
A02
100
AcDbEntity
  8
ProjItem169
100
AcDbLine
 10
-2539.62
 20
1021.72
 30
0
 11
-2539.62
 21
1013.55
 31
0
  0
LINE
  5
B40
330
A02
100
AcDbEntity
  8
ProjItem169
100
AcDbLine
 10
-2747.88
 20
901.477
 30
0
 11
-2539.62
 21
1021.72
 31
0
  0
LINE
  5
B41
330
A02
100
AcDbEntity
  8
ProjItem169
100
AcDbLine
 10
-3559.72
 20
-148.696
 30
0
 11
-3524.36
 21
-169.108
 31
0
  0
LINE
  5
B42
330
A02
100
AcDbEntity
  8
ProjItem169
100
AcDbLine
 10
-3559.72
 20
-140.531
 30
0
 11
-3524.36
 21
-160.943
 31
0
  0
LINE
  5
B43
330
A02
100
AcDbEntity
  8
ProjItem169
100
AcDbLine
 10
-3524.36
 20
-169.108
 30
0
 11
-3524.36
 21
-160.943
 31
0
  0
LINE
  5
B44
330
A02
100
AcDbEntity
  8
ProjItem169
100
AcDbLine
 10
-3316.1
 20
-48.8688
 30
0
 11
-3524.36
 21
-169.108
 31
0
  0
LINE
  5
B45
330
A02
100
AcDbEntity
  8
ProjItem169
100
AcDbLine
 10
-3351.45
 20
-20.2914
 30
0
 11
-3316.1
 21
-40.7038
 31
0
  0
LINE
  5
B46
330
A02
100
AcDbEntity
  8
ProjItem169
100
AcDbLine
 10
-3316.1
 20
-40.7038
 30
0
 11
-3316.1
 21
-48.8688
 31
0
  0
LINE
  5
B47
330
A02
100
AcDbEntity
  8
ProjItem169
100
AcDbLine
 10
-3524.36
 20
-160.943
 30
0
 11
-3316.1
 21
-40.7038
 31
0
  0
LINE
  5
B48
330
A02
100
AcDbEntity
  8
ProjItem169
100
AcDbLine
 10
-2589.12
 20
1179.33
 30
0
 11
-2553.77
 21
1158.92
 31
0
  0
LINE
  5
B49
330
A02
100
AcDbEntity
  8
ProjItem169
100
AcDbLine
 10
-2589.12
 20
1187.49
 30
0
 11
-2553.77
 21
1167.08
 31
0
  0
LINE
  5
B4A
330
A02
100
AcDbEntity
  8
ProjItem169
100
AcDbLine
 10
-2553.77
 20
1158.92
 30
0
 11
-2553.77
 21
1167.08
 31
0
  0
LINE
  5
B4B
330
A02
100
AcDbEntity
  8
ProjItem169
100
AcDbLine
 10
-2345.5
 20
1279.16
 30
0
 11
-2553.77
 21
1158.92
 31
0
  0
LINE
  5
B4C
330
A02
100
AcDbEntity
  8
ProjItem169
100
AcDbLine
 10
-2380.86
 20
1307.73
 30
0
 11
-2345.5
 21
1287.32
 31
0
  0
LINE
  5
B4D
330
A02
100
AcDbEntity
  8
ProjItem169
100
AcDbLine
 10
-2345.5
 20
1287.32
 30
0
 11
-2345.5
 21
1279.16
 31
0
  0
LINE
  5
B4E
330
A02
100
AcDbEntity
  8
ProjItem169
100
AcDbLine
 10
-2553.77
 20
1167.08
 30
0
 11
-2345.5
 21
1287.32
 31
0
  0
LINE
  5
B4F
330
A02
100
AcDbEntity
  8
ProjItem169
100
AcDbLine
 10
-2395
 20
1444.94
 30
0
 11
-2359.65
 21
1424.52
 31
0
  0
LINE
  5
B50
330
A02
100
AcDbEntity
  8
ProjItem169
100
AcDbLine
 10
-2395
 20
1453.1
 30
0
 11
-2359.65
 21
1432.69
 31
0
  0
LINE
  5
B51
330
A02
100
AcDbEntity
  8
ProjItem169
100
AcDbLine
 10
-2359.65
 20
1424.52
 30
0
 11
-2359.65
 21
1432.69
 31
0
  0
LINE
  5
B52
330
A02
100
AcDbEntity
  8
ProjItem169
100
AcDbLine
 10
-2151.39
 20
1544.76
 30
0
 11
-2359.65
 21
1424.52
 31
0
  0
LINE
  5
B53
330
A02
100
AcDbEntity
  8
ProjItem169
100
AcDbLine
 10
-2186.74
 20
1573.34
 30
0
 11
-2151.39
 21
1552.93
 31
0
  0
LINE
  5
B54
330
A02
100
AcDbEntity
  8
ProjItem169
100
AcDbLine
 10
-2151.39
 20
1552.93
 30
0
 11
-2151.39
 21
1544.76
 31
0
  0
LINE
  5
B55
330
A02
100
AcDbEntity
  8
ProjItem169
100
AcDbLine
 10
-2359.65
 20
1432.69
 30
0
 11
-2151.39
 21
1552.93
 31
0
  0
LINE
  5
B56
330
A02
100
AcDbEntity
  8
ProjItem169
100
AcDbLine
 10
-3171.48
 20
382.514
 30
0
 11
-3136.12
 21
362.102
 31
0
  0
LINE
  5
B57
330
A02
100
AcDbEntity
  8
ProjItem169
100
AcDbLine
 10
-3171.48
 20
390.679
 30
0
 11
-3136.12
 21
370.267
 31
0
  0
LINE
  5
B58
330
A02
100
AcDbEntity
  8
ProjItem169
100
AcDbLine
 10
-3136.12
 20
362.102
 30
0
 11
-3136.12
 21
370.267
 31
0
  0
LINE
  5
B59
330
A02
100
AcDbEntity
  8
ProjItem169
100
AcDbLine
 10
-2927.86
 20
482.342
 30
0
 11
-3136.12
 21
362.102
 31
0
  0
LINE
  5
B5A
330
A02
100
AcDbEntity
  8
ProjItem169
100
AcDbLine
 10
-2963.22
 20
510.919
 30
0
 11
-2927.86
 21
490.507
 31
0
  0
LINE
  5
B5B
330
A02
100
AcDbEntity
  8
ProjItem169
100
AcDbLine
 10
-2927.86
 20
490.507
 30
0
 11
-2927.86
 21
482.342
 31
0
  0
LINE
  5
B5C
330
A02
100
AcDbEntity
  8
ProjItem169
100
AcDbLine
 10
-3136.12
 20
370.267
 30
0
 11
-2927.86
 21
490.507
 31
0
  0
LINE
  5
B5D
330
A02
100
AcDbEntity
  8
ProjItem169
100
AcDbLine
 10
-3365.6
 20
116.909
 30
0
 11
-3330.24
 21
96.4968
 31
0
  0
LINE
  5
B5E
330
A02
100
AcDbEntity
  8
ProjItem169
100
AcDbLine
 10
-3365.6
 20
125.074
 30
0
 11
-3330.24
 21
104.662
 31
0
  0
LINE
  5
B5F
330
A02
100
AcDbEntity
  8
ProjItem169
100
AcDbLine
 10
-3330.24
 20
96.4968
 30
0
 11
-3330.24
 21
104.662
 31
0
  0
LINE
  5
B60
330
A02
100
AcDbEntity
  8
ProjItem169
100
AcDbLine
 10
-3121.98
 20
216.736
 30
0
 11
-3330.24
 21
96.4968
 31
0
  0
LINE
  5
B61
330
A02
100
AcDbEntity
  8
ProjItem169
100
AcDbLine
 10
-3157.34
 20
245.314
 30
0
 11
-3121.98
 21
224.901
 31
0
  0
LINE
  5
B62
330
A02
100
AcDbEntity
  8
ProjItem169
100
AcDbLine
 10
-3121.98
 20
224.901
 30
0
 11
-3121.98
 21
216.736
 31
0
  0
LINE
  5
B63
330
A02
100
AcDbEntity
  8
ProjItem169
100
AcDbLine
 10
-3330.24
 20
104.662
 30
0
 11
-3121.98
 21
224.901
 31
0
  0
LINE
  5
B64
330
A02
100
AcDbEntity
  8
ProjItem169
100
AcDbLine
 10
-2200.88
 20
1710.54
 30
0
 11
-2165.53
 21
1690.13
 31
0
  0
LINE
  5
B65
330
A02
100
AcDbEntity
  8
ProjItem169
100
AcDbLine
 10
-2200.88
 20
1718.71
 30
0
 11
-2165.53
 21
1698.29
 31
0
  0
LINE
  5
B66
330
A02
100
AcDbEntity
  8
ProjItem169
100
AcDbLine
 10
-2165.53
 20
1690.13
 30
0
 11
-2165.53
 21
1698.29
 31
0
  0
LINE
  5
B67
330
A02
100
AcDbEntity
  8
ProjItem169
100
AcDbLine
 10
-1957.27
 20
1810.37
 30
0
 11
-2165.53
 21
1690.13
 31
0
  0
LINE
  5
B68
330
A02
100
AcDbEntity
  8
ProjItem169
100
AcDbLine
 10
-1992.62
 20
1838.94
 30
0
 11
-1957.27
 21
1818.53
 31
0
  0
LINE
  5
B69
330
A02
100
AcDbEntity
  8
ProjItem169
100
AcDbLine
 10
-1957.27
 20
1818.53
 30
0
 11
-1957.27
 21
1810.37
 31
0
  0
LINE
  5
B6A
330
A02
100
AcDbEntity
  8
ProjItem169
100
AcDbLine
 10
-2165.53
 20
1698.29
 30
0
 11
-1957.27
 21
1818.53
 31
0
  0
ENDSEC
  0
SECTION
  2
OBJECTS
  0
DICTIONARY
  5
F000
330
0
100
AcDbDictionary
  3
ACAD_GROUP
350
F001
  0
DICTIONARY
  5
F001
330
F000
100
AcDbDictionary
  0
ENDSEC
  0
EOF