999
FreeCAD v0.21 33771 (Git)
  0
SECTION
  2
HEADER
  9
$ACADVER
  1
AC1014
  9
$ACADMAINTVER
 70
     9
  9
$DWGCODEPAGE
  3
ANSI_1252
  9
$TEXTSTYLE
  7
STANDARD
  9
$DIMSTYLE
  2
STANDARD
  9
$DIMTXSTY
  7
STANDARD
  9
$CMLSTYLE
  2
STANDARD
  9
$LUNITS
 70
2
  9
$INSUNITS
 70
4
  9
$PEXTMAX
 10
50
 20
50
 30
50
  9
$PEXTMIN
 10
0
 20
0
 30
0
  9
$HANDSEED
  5
FFFF
  0
ENDSEC
  0
SECTION
  2
CLASSES
  0
CLASS
  1
ACDBDICTIONARYWDFLT
  2
AcDbDictionaryWithDefault
  3
ObjectDBX Classes
 90
        0
280
     0
281
     0
  0
CLASS
  1
XRECORD
  2
AcDbXrecord
  3
ObjectDBX Classes
 90
        0
280
     0
281
     0
  0
CLASS
  1
LWPOLYLINE
  2
AcDbPolyline
  3
ObjectDBX Classes
 90
        0
280
     0
281
     1
  0
ENDSEC
  0
SECTION
  2
TABLES
  0
TABLE
  2
VPORT
  5
20
330
0
100
AcDbSymbolTable
 70
     1
  0
VPORT
  5
21
330
20
100
AcDbSymbolTableRecord
100
AcDbViewportTableRecord
  2
*ACTIVE
 70
     0
  0
ENDTAB
  0
TABLE
  2
LTYPE
  5
22
330
0
100
AcDbSymbolTable
 70
     1
  0
LTYPE
  5
23
330
21
100
AcDbSymbolTableRecord
100
AcDbLinetypeTableRecord
  2
BYBLOCK
 70
     0
  3

 72
    65
 73
     0
 40
0.0
  0
LTYPE
  5
24
330
21
100
AcDbSymbolTableRecord
100
AcDbLinetypeTableRecord
  2
BYLAYER
 70
     0
  3

 72
    65
 73
     0
 40
0.0
  0
LTYPE
  5
25
330
21
100
AcDbSymbolTableRecord
100
AcDbLinetypeTableRecord
  2
CONTINUOUS
 70
     0
  3
Solid line
 72
    65
 73
     0
 40
0.0
  0
ENDTAB
  0
TABLE
  2
LAYER
  5
A6B
330
0
100
AcDbSymbolTable
 70
5
  0
LAYER
  5
A6C
330
A6B
100
AcDbSymbolTableRecord
100
AcDbLayerTableRecord
  2
0
 70
   0
 62
   7
  6
CONTINUOUS
  0
LAYER
  5
A6D
330
A6B
100
AcDbSymbolTableRecord
100
AcDbLayerTableRecord
  2
ProjItem205
 70
    0
 62
    7
  6
CONTINUOUS
  0
LAYER
  5
A6E
330
A6B
100
AcDbSymbolTableRecord
100
AcDbLayerTableRecord
  2
ProjItem207
 70
    0
 62
    7
  6
CONTINUOUS
  0
LAYER
  5
A6F
330
A6B
100
AcDbSymbolTableRecord
100
AcDbLayerTableRecord
  2
ProjItem208
 70
    0
 62
    7
  6
CONTINUOUS
  0
LAYER
  5
A70
330
A6B
100
AcDbSymbolTableRecord
100
AcDbLayerTableRecord
  2
ProjItem206
 70
    0
 62
    7
  6
CONTINUOUS
  0
ENDTAB
  0
TABLE
  2
STYLE
  5
70
330
0
100
AcDbSymbolTable
 70
     2
  0
STYLE
  5
71
330
70
100
AcDbSymbolTableRecord
100
AcDbTextStyleTableRecord
  2
STANDARD
 70
     0
 40
0.0
 41
1.0
 50
0.0
 71
     0
 42
2.5
  3
arial.ttf
  4

  0
STYLE
  5
72
330
70
100
AcDbSymbolTableRecord
100
AcDbTextStyleTableRecord
  2
ANNOTATIVE
 70
     0
 40
0.0
 41
1.0
 50
0.0
 71
     0
 42
2.5
  3
arial.ttf
  4

  0
ENDTAB
  0
TABLE
  2
VIEW
  5
73
330
0
100
AcDbSymbolTable
 70
     0
  0
ENDTAB
  0
TABLE
  2
UCS
  5
74
330
0
100
AcDbSymbolTable
 70
     0
  0
ENDTAB
  0
TABLE
  2
APPID
  5
75
330
0
100
AcDbSymbolTable
 70
     2
  0
APPID
  5
76
330
75
100
AcDbSymbolTableRecord
100
AcDbRegAppTableRecord
  2
ACAD
 70
     0
  0
APPID
  5
77
330
75
100
AcDbSymbolTableRecord
100
AcDbRegAppTableRecord
  2
ACADANNOTATIVE
 70
     0
  0
ENDTAB
  0
TABLE
  2
DIMSTYLE
  5
78
330
0
100
AcDbSymbolTable
 70
     2
  0
DIMSTYLE
105
79
330
78
100
AcDbSymbolTableRecord
100
AcDbDimStyleTableRecord
  2
STANDARD
 70
     0
  3

  4

  5

  6

  7

 40
0.0
 41
2.5
 42
0.625
 43
3.75
 44
1.25
 45
0.0
 46
0.0
 47
0.0
 48
0.0
140
2.5
141
2.5
142
0.0
143
0.03937007874016
144
1.0
145
0.0
146
1.0
147
0.625
 71
     0
 72
     0
 73
     0
 74
     0
 75
     0
 76
     0
 77
     1
 78
     8
170
     0
171
     3
172
     1
173
     0
174
     0
175
     0
176
     0
177
     0
178
     0
270
     2
271
     2
272
     2
273
     2
274
     3
340
71
275
     0
280
     0
281
     0
282
     0
283
     0
284
     8
285
     0
286
     0
287
     3
288
     0
  0
ENDTAB
  0
TABLE
  2
BLOCK_RECORD
  5
A01
330
0
100
AcDbSymbolTable
  70
5
  0
BLOCK_RECORD
  5
A02
330
A01
100
AcDbSymbolTableRecord
100
AcDbBlockTableRecord
  2
*MODEL_SPACE
  0
BLOCK_RECORD
  5
A03
330
A01
100
AcDbSymbolTableRecord
100
AcDbBlockTableRecord
  2
*PAPER_SPACE
  0
ENDTAB
  0
ENDSEC
  0
SECTION
  2
BLOCKS
  0
BLOCK
  5
A04
330
A02
100
AcDbEntity
  8
0
100
AcDbBlockBegin
  2
*MODEL_SPACE
 70
   0
 10
0
 20
0
 30
0
  3
*MODEL_SPACE
  1
 
  0
ENDBLK
  5
A05
330
A02
100
AcDbEntity
  8
0
100
AcDbBlockEnd
  0
BLOCK
  5
A06
330
A03
100
AcDbEntity
 67
1
  8
0
100
AcDbBlockBegin
  2
*PAPER_SPACE
 70
   0
 10
0
 20
0
 30
0
  3
*PAPER_SPACE
  1
 
  0
ENDBLK
  5
A07
330
A03
100
AcDbEntity
 67
    1
  8
0
100
AcDbBlockEnd
  0
ENDSEC
  0
SECTION
  2
ENTITIES
  0
LINE
  5
A08
330
A02
100
AcDbEntity
  8
ProjItem205
100
AcDbLine
 10
623
 20
265
 30
0
 11
-326
 21
265
 31
0
  0
LINE
  5
A09
330
A02
100
AcDbEntity
  8
ProjItem205
100
AcDbLine
 10
-326
 20
265
 30
0
 11
-326
 21
25
 31
0
  0
LINE
  5
A0A
330
A02
100
AcDbEntity
  8
ProjItem205
100
AcDbLine
 10
-326
 20
25
 30
0
 11
-269
 21
25
 31
0
  0
LINE
  5
A0B
330
A02
100
AcDbEntity
  8
ProjItem205
100
AcDbLine
 10
-49
 20
25
 30
0
 11
-269
 21
25
 31
0
  0
LINE
  5
A0C
330
A02
100
AcDbEntity
  8
ProjItem205
100
AcDbLine
 10
-49
 20
25
 30
0
 11
346
 21
25
 31
0
  0
LINE
  5
A0D
330
A02
100
AcDbEntity
  8
ProjItem205
100
AcDbLine
 10
346
 20
25
 30
0
 11
566
 21
25
 31
0
  0
LINE
  5
A0E
330
A02
100
AcDbEntity
  8
ProjItem205
100
AcDbLine
 10
566
 20
25
 30
0
 11
623
 21
25
 31
0
  0
LINE
  5
A0F
330
A02
100
AcDbEntity
  8
ProjItem205
100
AcDbLine
 10
623
 20
25
 30
0
 11
623
 21
265
 31
0
  0
CIRCLE
  5
A10
330
A02
100
AcDbEntity
  8
ProjItem205
100
AcDbCircle
 10
-274
 20
95
 40
7
  0
CIRCLE
  5
A11
330
A02
100
AcDbEntity
  8
ProjItem205
100
AcDbCircle
 10
-274
 20
155
 40
7
  0
CIRCLE
  5
A12
330
A02
100
AcDbEntity
  8
ProjItem205
100
AcDbCircle
 10
571
 20
95
 40
7
  0
CIRCLE
  5
A13
330
A02
100
AcDbEntity
  8
ProjItem205
100
AcDbCircle
 10
571
 20
155
 40
7
  0
LINE
  5
A14
330
A02
100
AcDbEntity
  8
ProjItem205
100
AcDbLine
 10
-269
 20
25
 30
0
 11
-269
 21
-55
 31
0
  0
LINE
  5
A15
330
A02
100
AcDbEntity
  8
ProjItem205
100
AcDbLine
 10
-269
 20
-55
 30
0
 11
-49
 21
-55
 31
0
  0
LINE
  5
A16
330
A02
100
AcDbEntity
  8
ProjItem205
100
AcDbLine
 10
-49
 20
-55
 30
0
 11
-49
 21
25
 31
0
  0
CIRCLE
  5
A17
330
A02
100
AcDbEntity
  8
ProjItem205
100
AcDbCircle
 10
-229
 20
-15
 40
7
  0
CIRCLE
  5
A18
330
A02
100
AcDbEntity
  8
ProjItem205
100
AcDbCircle
 10
-89
 20
-15
 40
7
  0
LINE
  5
A19
330
A02
100
AcDbEntity
  8
ProjItem205
100
AcDbLine
 10
566
 20
-55
 30
0
 11
346
 21
-55
 31
0
  0
LINE
  5
A1A
330
A02
100
AcDbEntity
  8
ProjItem205
100
AcDbLine
 10
346
 20
-55
 30
0
 11
346
 21
25
 31
0
  0
LINE
  5
A1B
330
A02
100
AcDbEntity
  8
ProjItem205
100
AcDbLine
 10
566
 20
25
 30
0
 11
566
 21
-55
 31
0
  0
CIRCLE
  5
A1C
330
A02
100
AcDbEntity
  8
ProjItem205
100
AcDbCircle
 10
386
 20
-15
 40
7
  0
CIRCLE
  5
A1D
330
A02
100
AcDbEntity
  8
ProjItem205
100
AcDbCircle
 10
526
 20
-15
 40
7
  0
LINE
  5
A1E
330
A02
100
AcDbEntity
  8
ProjItem205
100
AcDbLine
 10
551
 20
215
 30
0
 11
551
 21
225
 31
0
  0
LINE
  5
A1F
330
A02
100
AcDbEntity
  8
ProjItem205
100
AcDbLine
 10
-254
 20
215
 30
0
 11
551
 21
215
 31
0
  0
LINE
  5
A20
330
A02
100
AcDbEntity
  8
ProjItem205
100
AcDbLine
 10
551
 20
225
 30
0
 11
-254
 21
225
 31
0
  0
LINE
  5
A21
330
A02
100
AcDbEntity
  8
ProjItem205
100
AcDbLine
 10
-254
 20
225
 30
0
 11
-254
 21
215
 31
0
  0
LINE
  5
A22
330
A02
100
AcDbEntity
  8
ProjItem207
100
AcDbLine
 10
729.151
 20
265
 30
0
 11
729.151
 21
25
 31
0
  0
LINE
  5
A23
330
A02
100
AcDbEntity
  8
ProjItem207
100
AcDbLine
 10
717.151
 20
265
 30
0
 11
729.151
 21
265
 31
0
  0
LINE
  5
A24
330
A02
100
AcDbEntity
  8
ProjItem207
100
AcDbLine
 10
729.151
 20
25
 30
0
 11
717.151
 21
25
 31
0
  0
LINE
  5
A25
330
A02
100
AcDbEntity
  8
ProjItem207
100
AcDbLine
 10
717.151
 20
25
 30
0
 11
717.151
 21
265
 31
0
  0
LINE
  5
A26
330
A02
100
AcDbEntity
  8
ProjItem207
100
AcDbLine
 10
729.151
 20
25
 30
0
 11
729.151
 21
-55
 31
0
  0
LINE
  5
A27
330
A02
100
AcDbEntity
  8
ProjItem207
100
AcDbLine
 10
729.151
 20
215
 30
0
 11
779.151
 21
215
 31
0
  0
LINE
  5
A28
330
A02
100
AcDbEntity
  8
ProjItem207
100
AcDbLine
 10
729.151
 20
225
 30
0
 11
779.151
 21
225
 31
0
  0
LINE
  5
A29
330
A02
100
AcDbEntity
  8
ProjItem207
100
AcDbLine
 10
779.151
 20
225
 30
0
 11
779.151
 21
215
 31
0
  0
LINE
  5
A2A
330
A02
100
AcDbEntity
  8
ProjItem207
100
AcDbLine
 10
717.151
 20
25
 30
0
 11
717.151
 21
-55
 31
0
  0
LINE
  5
A2B
330
A02
100
AcDbEntity
  8
ProjItem207
100
AcDbLine
 10
729.151
 20
-55
 30
0
 11
717.151
 21
-55
 31
0
  0
LINE
  5
A2C
330
A02
100
AcDbEntity
  8
ProjItem208
100
AcDbLine
 10
623
 20
-160.64
 30
0
 11
-326
 21
-160.64
 31
0
  0
LINE
  5
A2D
330
A02
100
AcDbEntity
  8
ProjItem208
100
AcDbLine
 10
-326
 20
-148.64
 30
0
 11
-326
 21
-160.64
 31
0
  0
LINE
  5
A2E
330
A02
100
AcDbEntity
  8
ProjItem208
100
AcDbLine
 10
623
 20
-148.64
 30
0
 11
-326
 21
-148.64
 31
0
  0
LINE
  5
A2F
330
A02
100
AcDbEntity
  8
ProjItem208
100
AcDbLine
 10
623
 20
-160.64
 30
0
 11
623
 21
-148.64
 31
0
  0
LINE
  5
A30
330
A02
100
AcDbEntity
  8
ProjItem208
100
AcDbLine
 10
551
 20
-160.64
 30
0
 11
551
 21
-210.64
 31
0
  0
LINE
  5
A31
330
A02
100
AcDbEntity
  8
ProjItem208
100
AcDbLine
 10
-254
 20
-160.64
 30
0
 11
-254
 21
-210.64
 31
0
  0
LINE
  5
A32
330
A02
100
AcDbEntity
  8
ProjItem208
100
AcDbLine
 10
551
 20
-210.64
 30
0
 11
-254
 21
-210.64
 31
0
  0
LINE
  5
A33
330
A02
100
AcDbEntity
  8
ProjItem206
100
AcDbLine
 10
-402.076
 20
-194.481
 30
0
 11
-1073.12
 21
192.947
 31
0
  0
LINE
  5
A34
330
A02
100
AcDbEntity
  8
ProjItem206
100
AcDbLine
 10
-1073.12
 20
192.947
 30
0
 11
-1073.12
 21
-3.01211
 31
0
  0
LINE
  5
A35
330
A02
100
AcDbEntity
  8
ProjItem206
100
AcDbLine
 10
-1073.12
 20
-3.01211
 30
0
 11
-1032.82
 21
-26.2823
 31
0
  0
LINE
  5
A36
330
A02
100
AcDbEntity
  8
ProjItem206
100
AcDbLine
 10
-877.252
 20
-116.097
 30
0
 11
-1032.82
 21
-26.2823
 31
0
  0
LINE
  5
A37
330
A02
100
AcDbEntity
  8
ProjItem206
100
AcDbLine
 10
-877.252
 20
-116.097
 30
0
 11
-597.945
 21
-277.355
 31
0
  0
LINE
  5
A38
330
A02
100
AcDbEntity
  8
ProjItem206
100
AcDbLine
 10
-597.945
 20
-277.355
 30
0
 11
-442.382
 21
-367.17
 31
0
  0
LINE
  5
A39
330
A02
100
AcDbEntity
  8
ProjItem206
100
AcDbLine
 10
-442.382
 20
-367.17
 30
0
 11
-402.076
 21
-390.44
 31
0
  0
LINE
  5
A3A
330
A02
100
AcDbEntity
  8
ProjItem206
100
AcDbLine
 10
-402.076
 20
-390.44
 30
0
 11
-402.076
 21
-194.481
 31
0
  0
ELLIPSE
  5
A3B
330
A02
100
AcDbEntity
  8
ProjItem206
100
AcDbEllipse
 10
-1036.35
 20
32.9137
 30
0
 11
3.5
 21
-6.06218
 31
0
 40
0.57735
 41
-3.14159
 42
-2.35619
  0
ELLIPSE
  5
A3C
330
A02
100
AcDbEntity
  8
ProjItem206
100
AcDbEllipse
 10
-1036.35
 20
32.9137
 30
0
 11
3.5
 21
-6.06218
 31
0
 40
0.57735
 41
-6.28319
 42
-3.14159
  0
ELLIPSE
  5
A3D
330
A02
100
AcDbEntity
  8
ProjItem206
100
AcDbEllipse
 10
-1036.35
 20
32.9137
 30
0
 11
3.5
 21
-6.06218
 31
0
 40
0.57735
 41
-2.35619
 42
8.88178e-16
  0
ELLIPSE
  5
A3E
330
A02
100
AcDbEntity
  8
ProjItem206
100
AcDbEllipse
 10
-1036.35
 20
81.9035
 30
0
 11
3.5
 21
-6.06218
 31
0
 40
0.57735
 41
-3.14159
 42
-2.35619
  0
ELLIPSE
  5
A3F
330
A02
100
AcDbEntity
  8
ProjItem206
100
AcDbEllipse
 10
-1036.35
 20
81.9035
 30
0
 11
3.5
 21
-6.06218
 31
0
 40
0.57735
 41
-6.28319
 42
-3.14159
  0
ELLIPSE
  5
A40
330
A02
100
AcDbEntity
  8
ProjItem206
100
AcDbEllipse
 10
-1036.35
 20
81.9035
 30
0
 11
3.5
 21
-6.06218
 31
0
 40
0.57735
 41
-2.35619
 42
8.88178e-16
  0
LINE
  5
A41
330
A02
100
AcDbEntity
  8
ProjItem206
100
AcDbLine
 10
-452.988
 20
-205.912
 30
0
 11
-452.988
 21
-197.747
 31
0
  0
LINE
  5
A42
330
A02
100
AcDbEntity
  8
ProjItem206
100
AcDbLine
 10
-452.988
 20
-197.747
 30
0
 11
-1022.21
 21
130.893
 31
0
  0
ELLIPSE
  5
A43
330
A02
100
AcDbEntity
  8
ProjItem206
100
AcDbEllipse
 10
-438.846
 20
-312.056
 30
0
 11
3.5
 21
-6.06218
 31
0
 40
0.57735
 41
-3.14159
 42
-2.35619
  0
ELLIPSE
  5
A44
330
A02
100
AcDbEntity
  8
ProjItem206
100
AcDbEllipse
 10
-438.846
 20
-312.056
 30
0
 11
3.5
 21
-6.06218
 31
0
 40
0.57735
 41
-6.28319
 42
-3.14159
  0
ELLIPSE
  5
A45
330
A02
100
AcDbEntity
  8
ProjItem206
100
AcDbEllipse
 10
-438.846
 20
-312.056
 30
0
 11
3.5
 21
-6.06218
 31
0
 40
0.57735
 41
-2.35619
 42
8.88178e-16
  0
ELLIPSE
  5
A46
330
A02
100
AcDbEntity
  8
ProjItem206
100
AcDbEllipse
 10
-438.846
 20
-263.066
 30
0
 11
3.5
 21
-6.06218
 31
0
 40
0.57735
 41
-3.14159
 42
-2.35619
  0
ELLIPSE
  5
A47
330
A02
100
AcDbEntity
  8
ProjItem206
100
AcDbEllipse
 10
-438.846
 20
-263.066
 30
0
 11
3.5
 21
-6.06218
 31
0
 40
0.57735
 41
-6.28319
 42
-3.14159
  0
ELLIPSE
  5
A48
330
A02
100
AcDbEntity
  8
ProjItem206
100
AcDbEllipse
 10
-438.846
 20
-263.066
 30
0
 11
3.5
 21
-6.06218
 31
0
 40
0.57735
 41
-2.35619
 42
8.88178e-16
  0
LINE
  5
A49
330
A02
100
AcDbEntity
  8
ProjItem206
100
AcDbLine
 10
-1064.64
 20
197.846
 30
0
 11
-1073.12
 21
192.947
 31
0
  0
LINE
  5
A4A
330
A02
100
AcDbEntity
  8
ProjItem206
100
AcDbLine
 10
-393.591
 20
-189.582
 30
0
 11
-1064.64
 21
197.846
 31
0
  0
LINE
  5
A4B
330
A02
100
AcDbEntity
  8
ProjItem206
100
AcDbLine
 10
-402.076
 20
-194.481
 30
0
 11
-393.591
 21
-189.582
 31
0
  0
LINE
  5
A4C
330
A02
100
AcDbEntity
  8
ProjItem206
100
AcDbLine
 10
-1032.82
 20
-26.2823
 30
0
 11
-1032.82
 21
-91.602
 31
0
  0
LINE
  5
A4D
330
A02
100
AcDbEntity
  8
ProjItem206
100
AcDbLine
 10
-1032.82
 20
-91.602
 30
0
 11
-877.252
 21
-181.417
 31
0
  0
LINE
  5
A4E
330
A02
100
AcDbEntity
  8
ProjItem206
100
AcDbLine
 10
-877.252
 20
-181.417
 30
0
 11
-877.252
 21
-116.097
 31
0
  0
ELLIPSE
  5
A4F
330
A02
100
AcDbEntity
  8
ProjItem206
100
AcDbEllipse
 10
-1004.53
 20
-75.2721
 30
0
 11
3.5
 21
-6.06218
 31
0
 40
0.57735
 41
-3.14159
 42
-2.35619
  0
ELLIPSE
  5
A50
330
A02
100
AcDbEntity
  8
ProjItem206
100
AcDbEllipse
 10
-1004.53
 20
-75.2721
 30
0
 11
3.5
 21
-6.06218
 31
0
 40
0.57735
 41
-0
 42
-3.14159
  0
ELLIPSE
  5
A51
330
A02
100
AcDbEntity
  8
ProjItem206
100
AcDbEllipse
 10
-1004.53
 20
-75.2721
 30
0
 11
3.5
 21
-6.06218
 31
0
 40
0.57735
 41
-2.35619
 42
-0
  0
ELLIPSE
  5
A52
330
A02
100
AcDbEntity
  8
ProjItem206
100
AcDbEllipse
 10
-905.537
 20
-132.427
 30
0
 11
3.5
 21
-6.06218
 31
0
 40
0.57735
 41
-3.14159
 42
-2.35619
  0
ELLIPSE
  5
A53
330
A02
100
AcDbEntity
  8
ProjItem206
100
AcDbEllipse
 10
-905.537
 20
-132.427
 30
0
 11
3.5
 21
-6.06218
 31
0
 40
0.57735
 41
-0
 42
-3.14159
  0
ELLIPSE
  5
A54
330
A02
100
AcDbEntity
  8
ProjItem206
100
AcDbEllipse
 10
-905.537
 20
-132.427
 30
0
 11
3.5
 21
-6.06218
 31
0
 40
0.57735
 41
-2.35619
 42
-0
  0
LINE
  5
A55
330
A02
100
AcDbEntity
  8
ProjItem206
100
AcDbLine
 10
-442.382
 20
-432.489
 30
0
 11
-597.945
 21
-342.675
 31
0
  0
LINE
  5
A56
330
A02
100
AcDbEntity
  8
ProjItem206
100
AcDbLine
 10
-597.945
 20
-342.675
 30
0
 11
-597.945
 21
-277.355
 31
0
  0
LINE
  5
A57
330
A02
100
AcDbEntity
  8
ProjItem206
100
AcDbLine
 10
-442.382
 20
-367.17
 30
0
 11
-442.382
 21
-432.489
 31
0
  0
ELLIPSE
  5
A58
330
A02
100
AcDbEntity
  8
ProjItem206
100
AcDbEllipse
 10
-569.661
 20
-326.345
 30
0
 11
3.5
 21
-6.06218
 31
0
 40
0.57735
 41
-3.14159
 42
-2.35619
  0
ELLIPSE
  5
A59
330
A02
100
AcDbEntity
  8
ProjItem206
100
AcDbEllipse
 10
-569.661
 20
-326.345
 30
0
 11
3.5
 21
-6.06218
 31
0
 40
0.57735
 41
-0
 42
-3.14159
  0
ELLIPSE
  5
A5A
330
A02
100
AcDbEntity
  8
ProjItem206
100
AcDbEllipse
 10
-569.661
 20
-326.345
 30
0
 11
3.5
 21
-6.06218
 31
0
 40
0.57735
 41
-2.35619
 42
-0
  0
ELLIPSE
  5
A5B
330
A02
100
AcDbEntity
  8
ProjItem206
100
AcDbEllipse
 10
-470.666
 20
-383.5
 30
0
 11
3.5
 21
-6.06218
 31
0
 40
0.57735
 41
-3.14159
 42
-2.35619
  0
ELLIPSE
  5
A5C
330
A02
100
AcDbEntity
  8
ProjItem206
100
AcDbEllipse
 10
-470.666
 20
-383.5
 30
0
 11
3.5
 21
-6.06218
 31
0
 40
0.57735
 41
-0
 42
-3.14159
  0
ELLIPSE
  5
A5D
330
A02
100
AcDbEntity
  8
ProjItem206
100
AcDbEllipse
 10
-470.666
 20
-383.5
 30
0
 11
3.5
 21
-6.06218
 31
0
 40
0.57735
 41
-2.35619
 42
-0
  0
LINE
  5
A5E
330
A02
100
AcDbEntity
  8
ProjItem206
100
AcDbLine
 10
-402.076
 20
-390.44
 30
0
 11
-393.591
 21
-385.541
 31
0
  0
LINE
  5
A5F
330
A02
100
AcDbEntity
  8
ProjItem206
100
AcDbLine
 10
-393.591
 20
-189.582
 30
0
 11
-393.591
 21
-385.541
 31
0
  0
LINE
  5
A60
330
A02
100
AcDbEntity
  8
ProjItem206
100
AcDbLine
 10
-452.988
 20
-205.912
 30
0
 11
-488.344
 21
-226.324
 31
0
  0
LINE
  5
A61
330
A02
100
AcDbEntity
  8
ProjItem206
100
AcDbLine
 10
-452.988
 20
-197.747
 30
0
 11
-488.344
 21
-218.159
 31
0
  0
LINE
  5
A62
330
A02
100
AcDbEntity
  8
ProjItem206
100
AcDbLine
 10
-488.344
 20
-226.324
 30
0
 11
-488.344
 21
-218.159
 31
0
  0
LINE
  5
A63
330
A02
100
AcDbEntity
  8
ProjItem206
100
AcDbLine
 10
-1057.56
 20
102.316
 30
0
 11
-488.344
 21
-226.324
 31
0
  0
LINE
  5
A64
330
A02
100
AcDbEntity
  8
ProjItem206
100
AcDbLine
 10
-1022.21
 20
130.893
 30
0
 11
-1057.56
 21
110.481
 31
0
  0
LINE
  5
A65
330
A02
100
AcDbEntity
  8
ProjItem206
100
AcDbLine
 10
-488.344
 20
-218.159
 30
0
 11
-1057.56
 21
110.481
 31
0
  0
LINE
  5
A66
330
A02
100
AcDbEntity
  8
ProjItem206
100
AcDbLine
 10
-1057.56
 20
110.481
 30
0
 11
-1057.56
 21
102.316
 31
0
  0
LINE
  5
A67
330
A02
100
AcDbEntity
  8
ProjItem206
100
AcDbLine
 10
-868.767
 20
-176.518
 30
0
 11
-868.767
 21
-120.996
 31
0
  0
LINE
  5
A68
330
A02
100
AcDbEntity
  8
ProjItem206
100
AcDbLine
 10
-433.896
 20
-372.069
 30
0
 11
-433.896
 21
-427.59
 31
0
  0
LINE
  5
A69
330
A02
100
AcDbEntity
  8
ProjItem206
100
AcDbLine
 10
-877.252
 20
-181.417
 30
0
 11
-868.767
 21
-176.518
 31
0
  0
LINE
  5
A6A
330
A02
100
AcDbEntity
  8
ProjItem206
100
AcDbLine
 10
-442.382
 20
-432.489
 30
0
 11
-433.896
 21
-427.59
 31
0
  0
ENDSEC
  0
SECTION
  2
OBJECTS
  0
DICTIONARY
  5
F000
330
0
100
AcDbDictionary
  3
ACAD_GROUP
350
F001
  0
DICTIONARY
  5
F001
330
F000
100
AcDbDictionary
  0
ENDSEC
  0
EOF