999
FreeCAD v0.21 33771 (Git)
  0
SECTION
  2
HEADER
  9
$ACADVER
  1
AC1014
  9
$ACADMAINTVER
 70
     9
  9
$DWGCODEPAGE
  3
ANSI_1252
  9
$TEXTSTYLE
  7
STANDARD
  9
$DIMSTYLE
  2
STANDARD
  9
$DIMTXSTY
  7
STANDARD
  9
$CMLSTYLE
  2
STANDARD
  9
$LUNITS
 70
2
  9
$INSUNITS
 70
4
  9
$PEXTMAX
 10
50
 20
50
 30
50
  9
$PEXTMIN
 10
0
 20
0
 30
0
  9
$HANDSEED
  5
FFFF
  0
ENDSEC
  0
SECTION
  2
CLASSES
  0
CLASS
  1
ACDBDICTIONARYWDFLT
  2
AcDbDictionaryWithDefault
  3
ObjectDBX Classes
 90
        0
280
     0
281
     0
  0
CLASS
  1
XRECORD
  2
AcDbXrecord
  3
ObjectDBX Classes
 90
        0
280
     0
281
     0
  0
CLASS
  1
LWPOLYLINE
  2
AcDbPolyline
  3
ObjectDBX Classes
 90
        0
280
     0
281
     1
  0
ENDSEC
  0
SECTION
  2
TABLES
  0
TABLE
  2
VPORT
  5
20
330
0
100
AcDbSymbolTable
 70
     1
  0
VPORT
  5
21
330
20
100
AcDbSymbolTableRecord
100
AcDbViewportTableRecord
  2
*ACTIVE
 70
     0
  0
ENDTAB
  0
TABLE
  2
LTYPE
  5
22
330
0
100
AcDbSymbolTable
 70
     1
  0
LTYPE
  5
23
330
21
100
AcDbSymbolTableRecord
100
AcDbLinetypeTableRecord
  2
BYBLOCK
 70
     0
  3

 72
    65
 73
     0
 40
0.0
  0
LTYPE
  5
24
330
21
100
AcDbSymbolTableRecord
100
AcDbLinetypeTableRecord
  2
BYLAYER
 70
     0
  3

 72
    65
 73
     0
 40
0.0
  0
LTYPE
  5
25
330
21
100
AcDbSymbolTableRecord
100
AcDbLinetypeTableRecord
  2
CONTINUOUS
 70
     0
  3
Solid line
 72
    65
 73
     0
 40
0.0
  0
ENDTAB
  0
TABLE
  2
LAYER
  5
A50
330
0
100
AcDbSymbolTable
 70
5
  0
LAYER
  5
A51
330
A50
100
AcDbSymbolTableRecord
100
AcDbLayerTableRecord
  2
0
 70
   0
 62
   7
  6
CONTINUOUS
  0
LAYER
  5
A52
330
A50
100
AcDbSymbolTableRecord
100
AcDbLayerTableRecord
  2
ProjItem197
 70
    0
 62
    7
  6
CONTINUOUS
  0
LAYER
  5
A53
330
A50
100
AcDbSymbolTableRecord
100
AcDbLayerTableRecord
  2
ProjItem199
 70
    0
 62
    7
  6
CONTINUOUS
  0
LAYER
  5
A54
330
A50
100
AcDbSymbolTableRecord
100
AcDbLayerTableRecord
  2
ProjItem200
 70
    0
 62
    7
  6
CONTINUOUS
  0
LAYER
  5
A55
330
A50
100
AcDbSymbolTableRecord
100
AcDbLayerTableRecord
  2
ProjItem198
 70
    0
 62
    7
  6
CONTINUOUS
  0
ENDTAB
  0
TABLE
  2
STYLE
  5
70
330
0
100
AcDbSymbolTable
 70
     2
  0
STYLE
  5
71
330
70
100
AcDbSymbolTableRecord
100
AcDbTextStyleTableRecord
  2
STANDARD
 70
     0
 40
0.0
 41
1.0
 50
0.0
 71
     0
 42
2.5
  3
arial.ttf
  4

  0
STYLE
  5
72
330
70
100
AcDbSymbolTableRecord
100
AcDbTextStyleTableRecord
  2
ANNOTATIVE
 70
     0
 40
0.0
 41
1.0
 50
0.0
 71
     0
 42
2.5
  3
arial.ttf
  4

  0
ENDTAB
  0
TABLE
  2
VIEW
  5
73
330
0
100
AcDbSymbolTable
 70
     0
  0
ENDTAB
  0
TABLE
  2
UCS
  5
74
330
0
100
AcDbSymbolTable
 70
     0
  0
ENDTAB
  0
TABLE
  2
APPID
  5
75
330
0
100
AcDbSymbolTable
 70
     2
  0
APPID
  5
76
330
75
100
AcDbSymbolTableRecord
100
AcDbRegAppTableRecord
  2
ACAD
 70
     0
  0
APPID
  5
77
330
75
100
AcDbSymbolTableRecord
100
AcDbRegAppTableRecord
  2
ACADANNOTATIVE
 70
     0
  0
ENDTAB
  0
TABLE
  2
DIMSTYLE
  5
78
330
0
100
AcDbSymbolTable
 70
     2
  0
DIMSTYLE
105
79
330
78
100
AcDbSymbolTableRecord
100
AcDbDimStyleTableRecord
  2
STANDARD
 70
     0
  3

  4

  5

  6

  7

 40
0.0
 41
2.5
 42
0.625
 43
3.75
 44
1.25
 45
0.0
 46
0.0
 47
0.0
 48
0.0
140
2.5
141
2.5
142
0.0
143
0.03937007874016
144
1.0
145
0.0
146
1.0
147
0.625
 71
     0
 72
     0
 73
     0
 74
     0
 75
     0
 76
     0
 77
     1
 78
     8
170
     0
171
     3
172
     1
173
     0
174
     0
175
     0
176
     0
177
     0
178
     0
270
     2
271
     2
272
     2
273
     2
274
     3
340
71
275
     0
280
     0
281
     0
282
     0
283
     0
284
     8
285
     0
286
     0
287
     3
288
     0
  0
ENDTAB
  0
TABLE
  2
BLOCK_RECORD
  5
A01
330
0
100
AcDbSymbolTable
  70
5
  0
BLOCK_RECORD
  5
A02
330
A01
100
AcDbSymbolTableRecord
100
AcDbBlockTableRecord
  2
*MODEL_SPACE
  0
BLOCK_RECORD
  5
A03
330
A01
100
AcDbSymbolTableRecord
100
AcDbBlockTableRecord
  2
*PAPER_SPACE
  0
ENDTAB
  0
ENDSEC
  0
SECTION
  2
BLOCKS
  0
BLOCK
  5
A04
330
A02
100
AcDbEntity
  8
0
100
AcDbBlockBegin
  2
*MODEL_SPACE
 70
   0
 10
0
 20
0
 30
0
  3
*MODEL_SPACE
  1
 
  0
ENDBLK
  5
A05
330
A02
100
AcDbEntity
  8
0
100
AcDbBlockEnd
  0
BLOCK
  5
A06
330
A03
100
AcDbEntity
 67
1
  8
0
100
AcDbBlockBegin
  2
*PAPER_SPACE
 70
   0
 10
0
 20
0
 30
0
  3
*PAPER_SPACE
  1
 
  0
ENDBLK
  5
A07
330
A03
100
AcDbEntity
 67
    1
  8
0
100
AcDbBlockEnd
  0
ENDSEC
  0
SECTION
  2
ENTITIES
  0
LINE
  5
A08
330
A02
100
AcDbEntity
  8
ProjItem197
100
AcDbLine
 10
-891.5
 20
230
 30
0
 11
1188.5
 21
230
 31
0
  0
LINE
  5
A09
330
A02
100
AcDbEntity
  8
ProjItem197
100
AcDbLine
 10
1188.5
 20
230
 30
0
 11
1188.5
 21
-20
 31
0
  0
LINE
  5
A0A
330
A02
100
AcDbEntity
  8
ProjItem197
100
AcDbLine
 10
1188.5
 20
-20
 30
0
 11
-891.5
 21
-20
 31
0
  0
LINE
  5
A0B
330
A02
100
AcDbEntity
  8
ProjItem197
100
AcDbLine
 10
-891.5
 20
230
 30
0
 11
-891.5
 21
-20
 31
0
  0
CIRCLE
  5
A0C
330
A02
100
AcDbEntity
  8
ProjItem197
100
AcDbCircle
 10
1136.5
 20
50
 40
7
  0
CIRCLE
  5
A0D
330
A02
100
AcDbEntity
  8
ProjItem197
100
AcDbCircle
 10
941.5
 20
40
 40
7
  0
CIRCLE
  5
A0E
330
A02
100
AcDbEntity
  8
ProjItem197
100
AcDbCircle
 10
791.5
 20
40
 40
7
  0
CIRCLE
  5
A0F
330
A02
100
AcDbEntity
  8
ProjItem197
100
AcDbCircle
 10
1136.5
 20
110
 40
7
  0
CIRCLE
  5
A10
330
A02
100
AcDbEntity
  8
ProjItem197
100
AcDbCircle
 10
-494.5
 20
40
 40
7
  0
CIRCLE
  5
A11
330
A02
100
AcDbEntity
  8
ProjItem197
100
AcDbCircle
 10
-644.5
 20
40
 40
7
  0
CIRCLE
  5
A12
330
A02
100
AcDbEntity
  8
ProjItem197
100
AcDbCircle
 10
-839.5
 20
50
 40
7
  0
CIRCLE
  5
A13
330
A02
100
AcDbEntity
  8
ProjItem197
100
AcDbCircle
 10
-839.5
 20
110
 40
7
  0
LINE
  5
A14
330
A02
100
AcDbEntity
  8
ProjItem197
100
AcDbLine
 10
1106.5
 20
180
 30
0
 11
-809.5
 21
180
 31
0
  0
LINE
  5
A15
330
A02
100
AcDbEntity
  8
ProjItem197
100
AcDbLine
 10
1106.5
 20
170
 30
0
 11
1106.5
 21
180
 31
0
  0
LINE
  5
A16
330
A02
100
AcDbEntity
  8
ProjItem197
100
AcDbLine
 10
-809.5
 20
180
 30
0
 11
-809.5
 21
170
 31
0
  0
LINE
  5
A17
330
A02
100
AcDbEntity
  8
ProjItem197
100
AcDbLine
 10
-809.5
 20
170
 30
0
 11
1106.5
 21
170
 31
0
  0
LINE
  5
A18
330
A02
100
AcDbEntity
  8
ProjItem199
100
AcDbLine
 10
1305.91
 20
230
 30
0
 11
1293.91
 21
230
 31
0
  0
LINE
  5
A19
330
A02
100
AcDbEntity
  8
ProjItem199
100
AcDbLine
 10
1305.91
 20
230
 30
0
 11
1305.91
 21
-20
 31
0
  0
LINE
  5
A1A
330
A02
100
AcDbEntity
  8
ProjItem199
100
AcDbLine
 10
1293.91
 20
230
 30
0
 11
1293.91
 21
-20
 31
0
  0
LINE
  5
A1B
330
A02
100
AcDbEntity
  8
ProjItem199
100
AcDbLine
 10
1305.91
 20
-20
 30
0
 11
1293.91
 21
-20
 31
0
  0
LINE
  5
A1C
330
A02
100
AcDbEntity
  8
ProjItem199
100
AcDbLine
 10
1305.91
 20
180
 30
0
 11
1355.91
 21
180
 31
0
  0
LINE
  5
A1D
330
A02
100
AcDbEntity
  8
ProjItem199
100
AcDbLine
 10
1305.91
 20
170
 30
0
 11
1355.91
 21
170
 31
0
  0
LINE
  5
A1E
330
A02
100
AcDbEntity
  8
ProjItem199
100
AcDbLine
 10
1355.91
 20
180
 30
0
 11
1355.91
 21
170
 31
0
  0
LINE
  5
A1F
330
A02
100
AcDbEntity
  8
ProjItem200
100
AcDbLine
 10
-891.5
 20
-141.019
 30
0
 11
1188.5
 21
-141.019
 31
0
  0
LINE
  5
A20
330
A02
100
AcDbEntity
  8
ProjItem200
100
AcDbLine
 10
1188.5
 20
-141.019
 30
0
 11
1188.5
 21
-129.019
 31
0
  0
LINE
  5
A21
330
A02
100
AcDbEntity
  8
ProjItem200
100
AcDbLine
 10
-891.5
 20
-129.019
 30
0
 11
1188.5
 21
-129.019
 31
0
  0
LINE
  5
A22
330
A02
100
AcDbEntity
  8
ProjItem200
100
AcDbLine
 10
-891.5
 20
-141.019
 30
0
 11
-891.5
 21
-129.019
 31
0
  0
LINE
  5
A23
330
A02
100
AcDbEntity
  8
ProjItem200
100
AcDbLine
 10
1106.5
 20
-141.019
 30
0
 11
1106.5
 21
-191.019
 31
0
  0
LINE
  5
A24
330
A02
100
AcDbEntity
  8
ProjItem200
100
AcDbLine
 10
-809.5
 20
-141.019
 30
0
 11
-809.5
 21
-191.019
 31
0
  0
LINE
  5
A25
330
A02
100
AcDbEntity
  8
ProjItem200
100
AcDbLine
 10
1106.5
 20
-191.019
 30
0
 11
-809.5
 21
-191.019
 31
0
  0
LINE
  5
A26
330
A02
100
AcDbEntity
  8
ProjItem198
100
AcDbLine
 10
-2130.93
 20
164.892
 30
0
 11
-660.15
 21
-684.264
 31
0
  0
LINE
  5
A27
330
A02
100
AcDbEntity
  8
ProjItem198
100
AcDbLine
 10
-660.15
 20
-684.264
 30
0
 11
-651.665
 21
-679.365
 31
0
  0
LINE
  5
A28
330
A02
100
AcDbEntity
  8
ProjItem198
100
AcDbLine
 10
-2122.45
 20
169.791
 30
0
 11
-651.665
 21
-679.365
 31
0
  0
LINE
  5
A29
330
A02
100
AcDbEntity
  8
ProjItem198
100
AcDbLine
 10
-2130.93
 20
164.892
 30
0
 11
-2122.45
 21
169.791
 31
0
  0
LINE
  5
A2A
330
A02
100
AcDbEntity
  8
ProjItem198
100
AcDbLine
 10
-660.15
 20
-684.264
 30
0
 11
-660.15
 21
-888.389
 31
0
  0
LINE
  5
A2B
330
A02
100
AcDbEntity
  8
ProjItem198
100
AcDbLine
 10
-660.15
 20
-888.389
 30
0
 11
-2130.93
 21
-39.2321
 31
0
  0
LINE
  5
A2C
330
A02
100
AcDbEntity
  8
ProjItem198
100
AcDbLine
 10
-2130.93
 20
164.892
 30
0
 11
-2130.93
 21
-39.2321
 31
0
  0
ELLIPSE
  5
A2D
330
A02
100
AcDbEntity
  8
ProjItem198
100
AcDbEllipse
 10
-696.92
 20
-810.005
 30
0
 11
-3.5
 21
6.06218
 31
0
 40
0.57735
 41
3.92699
 42
0
  0
ELLIPSE
  5
A2E
330
A02
100
AcDbEntity
  8
ProjItem198
100
AcDbEllipse
 10
-696.92
 20
-810.005
 30
0
 11
-3.5
 21
6.06218
 31
0
 40
0.57735
 41
0
 42
3.14159
  0
ELLIPSE
  5
A2F
330
A02
100
AcDbEntity
  8
ProjItem198
100
AcDbEllipse
 10
-696.92
 20
-810.005
 30
0
 11
-3.5
 21
6.06218
 31
0
 40
0.57735
 41
3.14159
 42
3.92699
  0
ELLIPSE
  5
A30
330
A02
100
AcDbEntity
  8
ProjItem198
100
AcDbEllipse
 10
-834.806
 20
-738.561
 30
0
 11
-3.5
 21
6.06218
 31
0
 40
0.57735
 41
3.92699
 42
0
  0
ELLIPSE
  5
A31
330
A02
100
AcDbEntity
  8
ProjItem198
100
AcDbEllipse
 10
-834.806
 20
-738.561
 30
0
 11
-3.5
 21
6.06218
 31
0
 40
0.57735
 41
0
 42
3.14159
  0
ELLIPSE
  5
A32
330
A02
100
AcDbEntity
  8
ProjItem198
100
AcDbEllipse
 10
-834.806
 20
-738.561
 30
0
 11
-3.5
 21
6.06218
 31
0
 40
0.57735
 41
3.14159
 42
3.92699
  0
ELLIPSE
  5
A33
330
A02
100
AcDbEntity
  8
ProjItem198
100
AcDbEllipse
 10
-940.872
 20
-677.324
 30
0
 11
-3.5
 21
6.06218
 31
0
 40
0.57735
 41
3.92699
 42
0
  0
ELLIPSE
  5
A34
330
A02
100
AcDbEntity
  8
ProjItem198
100
AcDbEllipse
 10
-940.872
 20
-677.324
 30
0
 11
-3.5
 21
6.06218
 31
0
 40
0.57735
 41
0
 42
3.14159
  0
ELLIPSE
  5
A35
330
A02
100
AcDbEntity
  8
ProjItem198
100
AcDbEllipse
 10
-940.872
 20
-677.324
 30
0
 11
-3.5
 21
6.06218
 31
0
 40
0.57735
 41
3.14159
 42
3.92699
  0
ELLIPSE
  5
A36
330
A02
100
AcDbEntity
  8
ProjItem198
100
AcDbEllipse
 10
-696.92
 20
-761.015
 30
0
 11
-3.5
 21
6.06218
 31
0
 40
0.57735
 41
3.92699
 42
0
  0
ELLIPSE
  5
A37
330
A02
100
AcDbEntity
  8
ProjItem198
100
AcDbEllipse
 10
-696.92
 20
-761.015
 30
0
 11
-3.5
 21
6.06218
 31
0
 40
0.57735
 41
0
 42
3.14159
  0
ELLIPSE
  5
A38
330
A02
100
AcDbEntity
  8
ProjItem198
100
AcDbEllipse
 10
-696.92
 20
-761.015
 30
0
 11
-3.5
 21
6.06218
 31
0
 40
0.57735
 41
3.14159
 42
3.92699
  0
LINE
  5
A39
330
A02
100
AcDbEntity
  8
ProjItem198
100
AcDbLine
 10
-718.133
 20
-691.613
 30
0
 11
-2072.95
 21
90.5909
 31
0
  0
LINE
  5
A3A
330
A02
100
AcDbEntity
  8
ProjItem198
100
AcDbLine
 10
-718.133
 20
-699.778
 30
0
 11
-718.133
 21
-691.613
 31
0
  0
ELLIPSE
  5
A3B
330
A02
100
AcDbEntity
  8
ProjItem198
100
AcDbEllipse
 10
-1850.21
 20
-152.317
 30
0
 11
-3.5
 21
6.06218
 31
0
 40
0.57735
 41
3.92699
 42
0
  0
ELLIPSE
  5
A3C
330
A02
100
AcDbEntity
  8
ProjItem198
100
AcDbEllipse
 10
-1850.21
 20
-152.317
 30
0
 11
-3.5
 21
6.06218
 31
0
 40
0.57735
 41
0
 42
3.14159
  0
ELLIPSE
  5
A3D
330
A02
100
AcDbEntity
  8
ProjItem198
100
AcDbEllipse
 10
-1850.21
 20
-152.317
 30
0
 11
-3.5
 21
6.06218
 31
0
 40
0.57735
 41
3.14159
 42
3.92699
  0
ELLIPSE
  5
A3E
330
A02
100
AcDbEntity
  8
ProjItem198
100
AcDbEllipse
 10
-1956.28
 20
-91.0796
 30
0
 11
-3.5
 21
6.06218
 31
0
 40
0.57735
 41
3.92699
 42
0
  0
ELLIPSE
  5
A3F
330
A02
100
AcDbEntity
  8
ProjItem198
100
AcDbEllipse
 10
-1956.28
 20
-91.0796
 30
0
 11
-3.5
 21
6.06218
 31
0
 40
0.57735
 41
0
 42
3.14159
  0
ELLIPSE
  5
A40
330
A02
100
AcDbEntity
  8
ProjItem198
100
AcDbEllipse
 10
-1956.28
 20
-91.0796
 30
0
 11
-3.5
 21
6.06218
 31
0
 40
0.57735
 41
3.14159
 42
3.92699
  0
ELLIPSE
  5
A41
330
A02
100
AcDbEntity
  8
ProjItem198
100
AcDbEllipse
 10
-2094.16
 20
-3.30623
 30
0
 11
-3.5
 21
6.06218
 31
0
 40
0.57735
 41
3.92699
 42
0
  0
ELLIPSE
  5
A42
330
A02
100
AcDbEntity
  8
ProjItem198
100
AcDbEllipse
 10
-2094.16
 20
-3.30623
 30
0
 11
-3.5
 21
6.06218
 31
0
 40
0.57735
 41
0
 42
3.14159
  0
ELLIPSE
  5
A43
330
A02
100
AcDbEntity
  8
ProjItem198
100
AcDbEllipse
 10
-2094.16
 20
-3.30623
 30
0
 11
-3.5
 21
6.06218
 31
0
 40
0.57735
 41
3.14159
 42
3.92699
  0
ELLIPSE
  5
A44
330
A02
100
AcDbEntity
  8
ProjItem198
100
AcDbEllipse
 10
-2094.16
 20
45.6836
 30
0
 11
-3.5
 21
6.06218
 31
0
 40
0.57735
 41
3.92699
 42
0
  0
ELLIPSE
  5
A45
330
A02
100
AcDbEntity
  8
ProjItem198
100
AcDbEllipse
 10
-2094.16
 20
45.6836
 30
0
 11
-3.5
 21
6.06218
 31
0
 40
0.57735
 41
0
 42
3.14159
  0
ELLIPSE
  5
A46
330
A02
100
AcDbEntity
  8
ProjItem198
100
AcDbEllipse
 10
-2094.16
 20
45.6836
 30
0
 11
-3.5
 21
6.06218
 31
0
 40
0.57735
 41
3.14159
 42
3.92699
  0
LINE
  5
A47
330
A02
100
AcDbEntity
  8
ProjItem198
100
AcDbLine
 10
-660.15
 20
-888.389
 30
0
 11
-651.665
 21
-883.49
 31
0
  0
LINE
  5
A48
330
A02
100
AcDbEntity
  8
ProjItem198
100
AcDbLine
 10
-651.665
 20
-679.365
 30
0
 11
-651.665
 21
-883.49
 31
0
  0
LINE
  5
A49
330
A02
100
AcDbEntity
  8
ProjItem198
100
AcDbLine
 10
-718.133
 20
-691.613
 30
0
 11
-753.488
 21
-712.025
 31
0
  0
LINE
  5
A4A
330
A02
100
AcDbEntity
  8
ProjItem198
100
AcDbLine
 10
-2072.95
 20
90.5909
 30
0
 11
-2108.31
 21
70.1785
 31
0
  0
LINE
  5
A4B
330
A02
100
AcDbEntity
  8
ProjItem198
100
AcDbLine
 10
-753.488
 20
-712.025
 30
0
 11
-2108.31
 21
70.1785
 31
0
  0
LINE
  5
A4C
330
A02
100
AcDbEntity
  8
ProjItem198
100
AcDbLine
 10
-718.133
 20
-699.778
 30
0
 11
-753.488
 21
-720.19
 31
0
  0
LINE
  5
A4D
330
A02
100
AcDbEntity
  8
ProjItem198
100
AcDbLine
 10
-753.488
 20
-720.19
 30
0
 11
-753.488
 21
-712.025
 31
0
  0
LINE
  5
A4E
330
A02
100
AcDbEntity
  8
ProjItem198
100
AcDbLine
 10
-2108.31
 20
70.1785
 30
0
 11
-2108.31
 21
62.0135
 31
0
  0
LINE
  5
A4F
330
A02
100
AcDbEntity
  8
ProjItem198
100
AcDbLine
 10
-2108.31
 20
62.0135
 30
0
 11
-753.488
 21
-720.19
 31
0
  0
ENDSEC
  0
SECTION
  2
OBJECTS
  0
DICTIONARY
  5
F000
330
0
100
AcDbDictionary
  3
ACAD_GROUP
350
F001
  0
DICTIONARY
  5
F001
330
F000
100
AcDbDictionary
  0
ENDSEC
  0
EOF