999
FreeCAD v0.21 33771 (Git)
  0
SECTION
  2
HEADER
  9
$ACADVER
  1
AC1014
  9
$ACADMAINTVER
 70
     9
  9
$DWGCODEPAGE
  3
ANSI_1252
  9
$TEXTSTYLE
  7
STANDARD
  9
$DIMSTYLE
  2
STANDARD
  9
$DIMTXSTY
  7
STANDARD
  9
$CMLSTYLE
  2
STANDARD
  9
$LUNITS
 70
2
  9
$INSUNITS
 70
4
  9
$PEXTMAX
 10
50
 20
50
 30
50
  9
$PEXTMIN
 10
0
 20
0
 30
0
  9
$HANDSEED
  5
FFFF
  0
ENDSEC
  0
SECTION
  2
CLASSES
  0
CLASS
  1
ACDBDICTIONARYWDFLT
  2
AcDbDictionaryWithDefault
  3
ObjectDBX Classes
 90
        0
280
     0
281
     0
  0
CLASS
  1
XRECORD
  2
AcDbXrecord
  3
ObjectDBX Classes
 90
        0
280
     0
281
     0
  0
CLASS
  1
LWPOLYLINE
  2
AcDbPolyline
  3
ObjectDBX Classes
 90
        0
280
     0
281
     1
  0
ENDSEC
  0
SECTION
  2
TABLES
  0
TABLE
  2
VPORT
  5
20
330
0
100
AcDbSymbolTable
 70
     1
  0
VPORT
  5
21
330
20
100
AcDbSymbolTableRecord
100
AcDbViewportTableRecord
  2
*ACTIVE
 70
     0
  0
ENDTAB
  0
TABLE
  2
LTYPE
  5
22
330
0
100
AcDbSymbolTable
 70
     1
  0
LTYPE
  5
23
330
21
100
AcDbSymbolTableRecord
100
AcDbLinetypeTableRecord
  2
BYBLOCK
 70
     0
  3

 72
    65
 73
     0
 40
0.0
  0
LTYPE
  5
24
330
21
100
AcDbSymbolTableRecord
100
AcDbLinetypeTableRecord
  2
BYLAYER
 70
     0
  3

 72
    65
 73
     0
 40
0.0
  0
LTYPE
  5
25
330
21
100
AcDbSymbolTableRecord
100
AcDbLinetypeTableRecord
  2
CONTINUOUS
 70
     0
  3
Solid line
 72
    65
 73
     0
 40
0.0
  0
ENDTAB
  0
TABLE
  2
LAYER
  5
AA9
330
0
100
AcDbSymbolTable
 70
5
  0
LAYER
  5
AAA
330
AA9
100
AcDbSymbolTableRecord
100
AcDbLayerTableRecord
  2
0
 70
   0
 62
   7
  6
CONTINUOUS
  0
LAYER
  5
AAB
330
AA9
100
AcDbSymbolTableRecord
100
AcDbLayerTableRecord
  2
ProjItem189
 70
    0
 62
    7
  6
CONTINUOUS
  0
LAYER
  5
AAC
330
AA9
100
AcDbSymbolTableRecord
100
AcDbLayerTableRecord
  2
ProjItem191
 70
    0
 62
    7
  6
CONTINUOUS
  0
LAYER
  5
AAD
330
AA9
100
AcDbSymbolTableRecord
100
AcDbLayerTableRecord
  2
ProjItem192
 70
    0
 62
    7
  6
CONTINUOUS
  0
LAYER
  5
AAE
330
AA9
100
AcDbSymbolTableRecord
100
AcDbLayerTableRecord
  2
ProjItem190
 70
    0
 62
    7
  6
CONTINUOUS
  0
ENDTAB
  0
TABLE
  2
STYLE
  5
70
330
0
100
AcDbSymbolTable
 70
     2
  0
STYLE
  5
71
330
70
100
AcDbSymbolTableRecord
100
AcDbTextStyleTableRecord
  2
STANDARD
 70
     0
 40
0.0
 41
1.0
 50
0.0
 71
     0
 42
2.5
  3
arial.ttf
  4

  0
STYLE
  5
72
330
70
100
AcDbSymbolTableRecord
100
AcDbTextStyleTableRecord
  2
ANNOTATIVE
 70
     0
 40
0.0
 41
1.0
 50
0.0
 71
     0
 42
2.5
  3
arial.ttf
  4

  0
ENDTAB
  0
TABLE
  2
VIEW
  5
73
330
0
100
AcDbSymbolTable
 70
     0
  0
ENDTAB
  0
TABLE
  2
UCS
  5
74
330
0
100
AcDbSymbolTable
 70
     0
  0
ENDTAB
  0
TABLE
  2
APPID
  5
75
330
0
100
AcDbSymbolTable
 70
     2
  0
APPID
  5
76
330
75
100
AcDbSymbolTableRecord
100
AcDbRegAppTableRecord
  2
ACAD
 70
     0
  0
APPID
  5
77
330
75
100
AcDbSymbolTableRecord
100
AcDbRegAppTableRecord
  2
ACADANNOTATIVE
 70
     0
  0
ENDTAB
  0
TABLE
  2
DIMSTYLE
  5
78
330
0
100
AcDbSymbolTable
 70
     2
  0
DIMSTYLE
105
79
330
78
100
AcDbSymbolTableRecord
100
AcDbDimStyleTableRecord
  2
STANDARD
 70
     0
  3

  4

  5

  6

  7

 40
0.0
 41
2.5
 42
0.625
 43
3.75
 44
1.25
 45
0.0
 46
0.0
 47
0.0
 48
0.0
140
2.5
141
2.5
142
0.0
143
0.03937007874016
144
1.0
145
0.0
146
1.0
147
0.625
 71
     0
 72
     0
 73
     0
 74
     0
 75
     0
 76
     0
 77
     1
 78
     8
170
     0
171
     3
172
     1
173
     0
174
     0
175
     0
176
     0
177
     0
178
     0
270
     2
271
     2
272
     2
273
     2
274
     3
340
71
275
     0
280
     0
281
     0
282
     0
283
     0
284
     8
285
     0
286
     0
287
     3
288
     0
  0
ENDTAB
  0
TABLE
  2
BLOCK_RECORD
  5
A01
330
0
100
AcDbSymbolTable
  70
5
  0
BLOCK_RECORD
  5
A02
330
A01
100
AcDbSymbolTableRecord
100
AcDbBlockTableRecord
  2
*MODEL_SPACE
  0
BLOCK_RECORD
  5
A03
330
A01
100
AcDbSymbolTableRecord
100
AcDbBlockTableRecord
  2
*PAPER_SPACE
  0
ENDTAB
  0
ENDSEC
  0
SECTION
  2
BLOCKS
  0
BLOCK
  5
A04
330
A02
100
AcDbEntity
  8
0
100
AcDbBlockBegin
  2
*MODEL_SPACE
 70
   0
 10
0
 20
0
 30
0
  3
*MODEL_SPACE
  1
 
  0
ENDBLK
  5
A05
330
A02
100
AcDbEntity
  8
0
100
AcDbBlockEnd
  0
BLOCK
  5
A06
330
A03
100
AcDbEntity
 67
1
  8
0
100
AcDbBlockBegin
  2
*PAPER_SPACE
 70
   0
 10
0
 20
0
 30
0
  3
*PAPER_SPACE
  1
 
  0
ENDBLK
  5
A07
330
A03
100
AcDbEntity
 67
    1
  8
0
100
AcDbBlockEnd
  0
ENDSEC
  0
SECTION
  2
ENTITIES
  0
LINE
  5
A08
330
A02
100
AcDbEntity
  8
ProjItem189
100
AcDbLine
 10
-359.577
 20
66.5799
 30
0
 11
-359.577
 21
255.673
 31
0
  0
LINE
  5
A09
330
A02
100
AcDbEntity
  8
ProjItem189
100
AcDbLine
 10
-309.577
 20
66.5799
 30
0
 11
-359.577
 21
66.5799
 31
0
  0
LINE
  5
A0A
330
A02
100
AcDbEntity
  8
ProjItem189
100
AcDbLine
 10
-359.577
 20
255.673
 30
0
 11
412.341
 21
510.88
 31
0
  0
LINE
  5
A0B
330
A02
100
AcDbEntity
  8
ProjItem189
100
AcDbLine
 10
-294.577
 20
66.5799
 30
0
 11
-297.577
 21
66.5799
 31
0
  0
LINE
  5
A0C
330
A02
100
AcDbEntity
  8
ProjItem189
100
AcDbLine
 10
412.341
 20
510.88
 30
0
 11
608.423
 21
510.88
 31
0
  0
LINE
  5
A0D
330
A02
100
AcDbEntity
  8
ProjItem189
100
AcDbLine
 10
-294.577
 20
66.5799
 30
0
 11
-294.577
 21
-183.42
 31
0
  0
LINE
  5
A0E
330
A02
100
AcDbEntity
  8
ProjItem189
100
AcDbLine
 10
608.423
 20
510.88
 30
0
 11
608.423
 21
490.88
 31
0
  0
LINE
  5
A0F
330
A02
100
AcDbEntity
  8
ProjItem189
100
AcDbLine
 10
-229.577
 20
-183.42
 30
0
 11
-294.577
 21
-183.42
 31
0
  0
LINE
  5
A10
330
A02
100
AcDbEntity
  8
ProjItem189
100
AcDbLine
 10
-109.577
 20
66.5799
 30
0
 11
-229.577
 21
-183.42
 31
0
  0
LINE
  5
A11
330
A02
100
AcDbEntity
  8
ProjItem189
100
AcDbLine
 10
608.423
 20
410.88
 30
0
 11
608.423
 21
260.88
 31
0
  0
LINE
  5
A12
330
A02
100
AcDbEntity
  8
ProjItem189
100
AcDbLine
 10
-109.577
 20
75.0174
 30
0
 11
-109.577
 21
66.5799
 31
0
  0
LINE
  5
A13
330
A02
100
AcDbEntity
  8
ProjItem189
100
AcDbLine
 10
608.423
 20
260.88
 30
0
 11
452.597
 21
260.88
 31
0
  0
LINE
  5
A14
330
A02
100
AcDbEntity
  8
ProjItem189
100
AcDbLine
 10
452.597
 20
260.88
 30
0
 11
-109.577
 21
75.0174
 31
0
  0
CIRCLE
  5
A15
330
A02
100
AcDbEntity
  8
ProjItem189
100
AcDbCircle
 10
468.423
 20
355.88
 40
7
  0
CIRCLE
  5
A16
330
A02
100
AcDbEntity
  8
ProjItem189
100
AcDbCircle
 10
568.423
 20
355.88
 40
7
  0
CIRCLE
  5
A17
330
A02
100
AcDbEntity
  8
ProjItem189
100
AcDbCircle
 10
496.423
 20
290.978
 40
7
  0
CIRCLE
  5
A18
330
A02
100
AcDbEntity
  8
ProjItem189
100
AcDbCircle
 10
556.423
 20
290.978
 40
7
  0
LINE
  5
A19
330
A02
100
AcDbEntity
  8
ProjItem189
100
AcDbLine
 10
-294.577
 20
-183.42
 30
0
 11
-297.577
 21
-183.42
 31
0
  0
LINE
  5
A1A
330
A02
100
AcDbEntity
  8
ProjItem189
100
AcDbLine
 10
-309.577
 20
66.5799
 30
0
 11
-297.577
 21
66.5799
 31
0
  0
LINE
  5
A1B
330
A02
100
AcDbEntity
  8
ProjItem189
100
AcDbLine
 10
-309.577
 20
-183.42
 30
0
 11
-297.577
 21
-183.42
 31
0
  0
LINE
  5
A1C
330
A02
100
AcDbEntity
  8
ProjItem189
100
AcDbLine
 10
608.423
 20
410.88
 30
0
 11
608.423
 21
490.88
 31
0
  0
LINE
  5
A1D
330
A02
100
AcDbEntity
  8
ProjItem189
100
AcDbLine
 10
-339.577
 20
208.447
 30
0
 11
205.678
 21
208.447
 31
0
  0
LINE
  5
A1E
330
A02
100
AcDbEntity
  8
ProjItem189
100
AcDbLine
 10
-339.577
 20
198.447
 30
0
 11
-339.577
 21
208.447
 31
0
  0
LINE
  5
A1F
330
A02
100
AcDbEntity
  8
ProjItem189
100
AcDbLine
 10
205.678
 20
208.447
 30
0
 11
205.678
 21
198.447
 31
0
  0
LINE
  5
A20
330
A02
100
AcDbEntity
  8
ProjItem189
100
AcDbLine
 10
205.678
 20
198.447
 30
0
 11
-339.577
 21
198.447
 31
0
  0
LINE
  5
A21
330
A02
100
AcDbEntity
  8
ProjItem189
100
AcDbLine
 10
576.423
 20
380.313
 30
0
 11
576.423
 21
390.313
 31
0
  0
LINE
  5
A22
330
A02
100
AcDbEntity
  8
ProjItem189
100
AcDbLine
 10
210.511
 20
380.313
 30
0
 11
576.423
 21
380.313
 31
0
  0
LINE
  5
A23
330
A02
100
AcDbEntity
  8
ProjItem189
100
AcDbLine
 10
576.423
 20
390.313
 30
0
 11
210.511
 21
390.313
 31
0
  0
LINE
  5
A24
330
A02
100
AcDbEntity
  8
ProjItem189
100
AcDbLine
 10
210.511
 20
390.313
 30
0
 11
210.511
 21
380.313
 31
0
  0
LINE
  5
A25
330
A02
100
AcDbEntity
  8
ProjItem189
100
AcDbLine
 10
617.423
 20
490.88
 30
0
 11
617.423
 21
410.88
 31
0
  0
LINE
  5
A26
330
A02
100
AcDbEntity
  8
ProjItem189
100
AcDbLine
 10
608.423
 20
490.88
 30
0
 11
617.423
 21
490.88
 31
0
  0
LINE
  5
A27
330
A02
100
AcDbEntity
  8
ProjItem189
100
AcDbLine
 10
-309.577
 20
-183.42
 30
0
 11
-309.577
 21
66.5799
 31
0
  0
LINE
  5
A28
330
A02
100
AcDbEntity
  8
ProjItem189
100
AcDbLine
 10
608.423
 20
410.88
 30
0
 11
617.423
 21
410.88
 31
0
  0
LINE
  5
A29
330
A02
100
AcDbEntity
  8
ProjItem189
100
AcDbLine
 10
-297.577
 20
66.5799
 30
0
 11
-297.577
 21
-183.42
 31
0
  0
LINE
  5
A2A
330
A02
100
AcDbEntity
  8
ProjItem191
100
AcDbLine
 10
756.461
 20
66.5799
 30
0
 11
756.461
 21
255.673
 31
0
  0
LINE
  5
A2B
330
A02
100
AcDbEntity
  8
ProjItem191
100
AcDbLine
 10
756.461
 20
255.673
 30
0
 11
744.461
 21
255.673
 31
0
  0
LINE
  5
A2C
330
A02
100
AcDbEntity
  8
ProjItem191
100
AcDbLine
 10
744.461
 20
66.5799
 30
0
 11
744.461
 21
255.673
 31
0
  0
LINE
  5
A2D
330
A02
100
AcDbEntity
  8
ProjItem191
100
AcDbLine
 10
756.461
 20
66.5799
 30
0
 11
744.461
 21
66.5799
 31
0
  0
LINE
  5
A2E
330
A02
100
AcDbEntity
  8
ProjItem191
100
AcDbLine
 10
756.461
 20
255.673
 30
0
 11
756.461
 21
510.88
 31
0
  0
LINE
  5
A2F
330
A02
100
AcDbEntity
  8
ProjItem191
100
AcDbLine
 10
756.461
 20
510.88
 30
0
 11
744.461
 21
510.88
 31
0
  0
LINE
  5
A30
330
A02
100
AcDbEntity
  8
ProjItem191
100
AcDbLine
 10
744.461
 20
255.673
 30
0
 11
744.461
 21
510.88
 31
0
  0
LINE
  5
A31
330
A02
100
AcDbEntity
  8
ProjItem191
100
AcDbLine
 10
744.461
 20
-183.42
 30
0
 11
744.461
 21
66.5799
 31
0
  0
LINE
  5
A32
330
A02
100
AcDbEntity
  8
ProjItem191
100
AcDbLine
 10
836.461
 20
66.5799
 30
0
 11
756.461
 21
66.5799
 31
0
  0
LINE
  5
A33
330
A02
100
AcDbEntity
  8
ProjItem191
100
AcDbLine
 10
744.461
 20
-183.42
 30
0
 11
836.461
 21
-183.42
 31
0
  0
LINE
  5
A34
330
A02
100
AcDbEntity
  8
ProjItem191
100
AcDbLine
 10
916.461
 20
490.88
 30
0
 11
756.461
 21
490.88
 31
0
  0
LINE
  5
A35
330
A02
100
AcDbEntity
  8
ProjItem191
100
AcDbLine
 10
916.461
 20
410.88
 30
0
 11
916.461
 21
490.88
 31
0
  0
LINE
  5
A36
330
A02
100
AcDbEntity
  8
ProjItem191
100
AcDbLine
 10
756.461
 20
410.88
 30
0
 11
916.461
 21
410.88
 31
0
  0
CIRCLE
  5
A37
330
A02
100
AcDbEntity
  8
ProjItem191
100
AcDbCircle
 10
876.461
 20
450.88
 40
7
  0
CIRCLE
  5
A38
330
A02
100
AcDbEntity
  8
ProjItem191
100
AcDbCircle
 10
796.461
 20
450.88
 40
7
  0
LINE
  5
A39
330
A02
100
AcDbEntity
  8
ProjItem191
100
AcDbLine
 10
756.461
 20
208.447
 30
0
 11
806.461
 21
208.447
 31
0
  0
LINE
  5
A3A
330
A02
100
AcDbEntity
  8
ProjItem191
100
AcDbLine
 10
756.461
 20
198.447
 30
0
 11
806.461
 21
198.447
 31
0
  0
LINE
  5
A3B
330
A02
100
AcDbEntity
  8
ProjItem191
100
AcDbLine
 10
806.461
 20
198.447
 30
0
 11
806.461
 21
208.447
 31
0
  0
LINE
  5
A3C
330
A02
100
AcDbEntity
  8
ProjItem191
100
AcDbLine
 10
756.461
 20
380.313
 30
0
 11
806.461
 21
380.313
 31
0
  0
LINE
  5
A3D
330
A02
100
AcDbEntity
  8
ProjItem191
100
AcDbLine
 10
756.461
 20
390.313
 30
0
 11
806.461
 21
390.313
 31
0
  0
LINE
  5
A3E
330
A02
100
AcDbEntity
  8
ProjItem191
100
AcDbLine
 10
806.461
 20
390.313
 30
0
 11
806.461
 21
380.313
 31
0
  0
LINE
  5
A3F
330
A02
100
AcDbEntity
  8
ProjItem191
100
AcDbLine
 10
836.461
 20
-183.42
 30
0
 11
836.461
 21
66.5799
 31
0
  0
CIRCLE
  5
A40
330
A02
100
AcDbEntity
  8
ProjItem191
100
AcDbCircle
 10
796.461
 20
-83.4201
 40
7
  0
CIRCLE
  5
A41
330
A02
100
AcDbEntity
  8
ProjItem191
100
AcDbCircle
 10
796.461
 20
-143.42
 40
7
  0
LINE
  5
A42
330
A02
100
AcDbEntity
  8
ProjItem192
100
AcDbLine
 10
-359.577
 20
-319.458
 30
0
 11
-359.577
 21
-307.458
 31
0
  0
LINE
  5
A43
330
A02
100
AcDbEntity
  8
ProjItem192
100
AcDbLine
 10
-359.577
 20
-319.458
 30
0
 11
412.341
 21
-319.458
 31
0
  0
LINE
  5
A44
330
A02
100
AcDbEntity
  8
ProjItem192
100
AcDbLine
 10
412.341
 20
-319.458
 30
0
 11
608.423
 21
-319.458
 31
0
  0
LINE
  5
A45
330
A02
100
AcDbEntity
  8
ProjItem192
100
AcDbLine
 10
412.341
 20
-319.458
 30
0
 11
412.341
 21
-307.458
 31
0
  0
LINE
  5
A46
330
A02
100
AcDbEntity
  8
ProjItem192
100
AcDbLine
 10
-359.577
 20
-307.458
 30
0
 11
412.341
 21
-307.458
 31
0
  0
LINE
  5
A47
330
A02
100
AcDbEntity
  8
ProjItem192
100
AcDbLine
 10
608.423
 20
-307.458
 30
0
 11
617.423
 21
-307.458
 31
0
  0
LINE
  5
A48
330
A02
100
AcDbEntity
  8
ProjItem192
100
AcDbLine
 10
412.341
 20
-307.458
 30
0
 11
608.423
 21
-307.458
 31
0
  0
LINE
  5
A49
330
A02
100
AcDbEntity
  8
ProjItem192
100
AcDbLine
 10
-309.577
 20
-399.458
 30
0
 11
-309.577
 21
-369.458
 31
0
  0
LINE
  5
A4A
330
A02
100
AcDbEntity
  8
ProjItem192
100
AcDbLine
 10
-297.577
 20
-369.458
 30
0
 11
-297.577
 21
-399.458
 31
0
  0
LINE
  5
A4B
330
A02
100
AcDbEntity
  8
ProjItem192
100
AcDbLine
 10
-309.577
 20
-399.458
 30
0
 11
-297.577
 21
-399.458
 31
0
  0
LINE
  5
A4C
330
A02
100
AcDbEntity
  8
ProjItem192
100
AcDbLine
 10
608.423
 20
-319.458
 30
0
 11
608.423
 21
-307.458
 31
0
  0
LINE
  5
A4D
330
A02
100
AcDbEntity
  8
ProjItem192
100
AcDbLine
 10
608.423
 20
-479.458
 30
0
 11
608.423
 21
-319.458
 31
0
  0
LINE
  5
A4E
330
A02
100
AcDbEntity
  8
ProjItem192
100
AcDbLine
 10
-339.577
 20
-319.458
 30
0
 11
-339.577
 21
-369.458
 31
0
  0
LINE
  5
A4F
330
A02
100
AcDbEntity
  8
ProjItem192
100
AcDbLine
 10
205.678
 20
-319.458
 30
0
 11
205.678
 21
-369.458
 31
0
  0
LINE
  5
A50
330
A02
100
AcDbEntity
  8
ProjItem192
100
AcDbLine
 10
-339.577
 20
-369.458
 30
0
 11
205.678
 21
-369.458
 31
0
  0
LINE
  5
A51
330
A02
100
AcDbEntity
  8
ProjItem192
100
AcDbLine
 10
576.423
 20
-319.458
 30
0
 11
576.423
 21
-369.458
 31
0
  0
LINE
  5
A52
330
A02
100
AcDbEntity
  8
ProjItem192
100
AcDbLine
 10
210.511
 20
-319.458
 30
0
 11
210.511
 21
-369.458
 31
0
  0
LINE
  5
A53
330
A02
100
AcDbEntity
  8
ProjItem192
100
AcDbLine
 10
576.423
 20
-369.458
 30
0
 11
210.511
 21
-369.458
 31
0
  0
LINE
  5
A54
330
A02
100
AcDbEntity
  8
ProjItem192
100
AcDbLine
 10
617.423
 20
-307.458
 30
0
 11
617.423
 21
-479.458
 31
0
  0
LINE
  5
A55
330
A02
100
AcDbEntity
  8
ProjItem192
100
AcDbLine
 10
608.423
 20
-479.458
 30
0
 11
617.423
 21
-479.458
 31
0
  0
LINE
  5
A56
330
A02
100
AcDbEntity
  8
ProjItem190
100
AcDbLine
 10
-1129.9
 20
-423.359
 30
0
 11
-1129.9
 21
-356.515
 31
0
  0
LINE
  5
A57
330
A02
100
AcDbEntity
  8
ProjItem190
100
AcDbLine
 10
-1129.9
 20
-323.855
 30
0
 11
-1129.9
 21
-268.965
 31
0
  0
LINE
  5
A58
330
A02
100
AcDbEntity
  8
ProjItem190
100
AcDbLine
 10
-1129.9
 20
-268.965
 30
0
 11
-1121.42
 21
-264.066
 31
0
  0
LINE
  5
A59
330
A02
100
AcDbEntity
  8
ProjItem190
100
AcDbLine
 10
-1094.55
 20
-443.771
 30
0
 11
-1129.9
 21
-423.359
 31
0
  0
LINE
  5
A5A
330
A02
100
AcDbEntity
  8
ProjItem190
100
AcDbLine
 10
-1129.9
 20
-268.965
 30
0
 11
-584.072
 21
-375.724
 31
0
  0
LINE
  5
A5B
330
A02
100
AcDbEntity
  8
ProjItem190
100
AcDbLine
 10
-1083.94
 20
-449.895
 30
0
 11
-1086.06
 21
-448.67
 31
0
  0
LINE
  5
A5C
330
A02
100
AcDbEntity
  8
ProjItem190
100
AcDbLine
 10
-1086.06
 20
-448.67
 30
0
 11
-1094.55
 21
-443.771
 31
0
  0
LINE
  5
A5D
330
A02
100
AcDbEntity
  8
ProjItem190
100
AcDbLine
 10
-584.072
 20
-375.724
 30
0
 11
-445.421
 21
-455.774
 31
0
  0
LINE
  5
A5E
330
A02
100
AcDbEntity
  8
ProjItem190
100
AcDbLine
 10
-1083.94
 20
-449.895
 30
0
 11
-1083.94
 21
-654.019
 31
0
  0
LINE
  5
A5F
330
A02
100
AcDbEntity
  8
ProjItem190
100
AcDbLine
 10
-445.421
 20
-455.774
 30
0
 11
-445.421
 21
-472.104
 31
0
  0
LINE
  5
A60
330
A02
100
AcDbEntity
  8
ProjItem190
100
AcDbLine
 10
-1037.98
 20
-680.555
 30
0
 11
-1083.94
 21
-654.019
 31
0
  0
LINE
  5
A61
330
A02
100
AcDbEntity
  8
ProjItem190
100
AcDbLine
 10
-953.124
 20
-525.421
 30
0
 11
-1037.98
 21
-680.555
 31
0
  0
LINE
  5
A62
330
A02
100
AcDbEntity
  8
ProjItem190
100
AcDbLine
 10
-445.421
 20
-544.772
 30
0
 11
-445.421
 21
-659.898
 31
0
  0
LINE
  5
A63
330
A02
100
AcDbEntity
  8
ProjItem190
100
AcDbLine
 10
-953.124
 20
-518.532
 30
0
 11
-953.124
 21
-525.421
 31
0
  0
LINE
  5
A64
330
A02
100
AcDbEntity
  8
ProjItem190
100
AcDbLine
 10
-445.421
 20
-659.898
 30
0
 11
-545.123
 21
-602.335
 31
0
  0
LINE
  5
A65
330
A02
100
AcDbEntity
  8
ProjItem190
100
AcDbLine
 10
-558.558
 20
-595.705
 30
0
 11
-750.489
 21
-558.165
 31
0
  0
LINE
  5
A66
330
A02
100
AcDbEntity
  8
ProjItem190
100
AcDbLine
 10
-796.076
 20
-549.249
 30
0
 11
-953.124
 21
-518.532
 31
0
  0
LINE
  5
A67
330
A02
100
AcDbEntity
  8
ProjItem190
100
AcDbLine
 10
-1115.76
 20
-315.69
 30
0
 11
-730.205
 21
-538.289
 31
0
  0
LINE
  5
A68
330
A02
100
AcDbEntity
  8
ProjItem190
100
AcDbLine
 10
-730.205
 20
-538.289
 30
0
 11
-730.205
 21
-546.454
 31
0
  0
LINE
  5
A69
330
A02
100
AcDbEntity
  8
ProjItem190
100
AcDbLine
 10
-516.532
 20
-513.16
 30
0
 11
-726.788
 21
-391.769
 31
0
  0
ELLIPSE
  5
A6A
330
A02
100
AcDbEntity
  8
ProjItem190
100
AcDbEllipse
 10
-473.705
 20
-566.001
 30
0
 11
3.5
 21
-6.06218
 31
0
 40
0.57735
 41
-1.77636e-15
 42
-4.06125
  0
ELLIPSE
  5
A6B
330
A02
100
AcDbEntity
  8
ProjItem190
100
AcDbEllipse
 10
-473.705
 20
-566.001
 30
0
 11
3.5
 21
-6.06218
 31
0
 40
0.57735
 41
-2.22193
 42
-1.77636e-15
  0
ELLIPSE
  5
A6C
330
A02
100
AcDbEntity
  8
ProjItem190
100
AcDbEllipse
 10
-524.617
 20
-589.6
 30
0
 11
-3.5
 21
6.06218
 31
0
 40
0.57735
 41
1.6819
 42
3.14159
  0
ELLIPSE
  5
A6D
330
A02
100
AcDbEntity
  8
ProjItem190
100
AcDbEllipse
 10
-524.617
 20
-589.6
 30
0
 11
-3.5
 21
6.06218
 31
0
 40
0.57735
 41
3.14159
 42
4.60128
  0
ELLIPSE
  5
A6E
330
A02
100
AcDbEntity
  8
ProjItem190
100
AcDbEllipse
 10
-482.191
 20
-614.094
 30
0
 11
-3.5
 21
6.06218
 31
0
 40
0.57735
 41
0.785398
 42
3.14159
  0
ELLIPSE
  5
A6F
330
A02
100
AcDbEntity
  8
ProjItem190
100
AcDbEllipse
 10
-482.191
 20
-614.094
 30
0
 11
-3.5
 21
6.06218
 31
0
 40
0.57735
 41
3.14159
 42
6.28319
  0
ELLIPSE
  5
A70
330
A02
100
AcDbEntity
  8
ProjItem190
100
AcDbEllipse
 10
-482.191
 20
-614.094
 30
0
 11
-3.5
 21
6.06218
 31
0
 40
0.57735
 41
-2.66454e-15
 42
0.785398
  0
LINE
  5
A71
330
A02
100
AcDbEntity
  8
ProjItem190
100
AcDbLine
 10
-584.072
 20
-375.724
 30
0
 11
-575.587
 21
-370.825
 31
0
  0
LINE
  5
A72
330
A02
100
AcDbEntity
  8
ProjItem190
100
AcDbLine
 10
-1121.42
 20
-264.066
 30
0
 11
-575.587
 21
-370.825
 31
0
  0
LINE
  5
A73
330
A02
100
AcDbEntity
  8
ProjItem190
100
AcDbLine
 10
-430.572
 20
-536.199
 30
0
 11
-430.572
 21
-470.879
 31
0
  0
LINE
  5
A74
330
A02
100
AcDbEntity
  8
ProjItem190
100
AcDbLine
 10
-436.936
 20
-467.205
 30
0
 11
-430.572
 21
-470.879
 31
0
  0
LINE
  5
A75
330
A02
100
AcDbEntity
  8
ProjItem190
100
AcDbLine
 10
-436.936
 20
-450.875
 30
0
 11
-436.936
 21
-467.205
 31
0
  0
LINE
  5
A76
330
A02
100
AcDbEntity
  8
ProjItem190
100
AcDbLine
 10
-575.587
 20
-370.825
 30
0
 11
-436.936
 21
-450.875
 31
0
  0
LINE
  5
A77
330
A02
100
AcDbEntity
  8
ProjItem190
100
AcDbLine
 10
-944.638
 20
-520.522
 30
0
 11
-1029.49
 21
-675.656
 31
0
  0
LINE
  5
A78
330
A02
100
AcDbEntity
  8
ProjItem190
100
AcDbLine
 10
-944.638
 20
-520.191
 30
0
 11
-944.638
 21
-520.522
 31
0
  0
LINE
  5
A79
330
A02
100
AcDbEntity
  8
ProjItem190
100
AcDbLine
 10
-436.936
 20
-539.873
 30
0
 11
-436.936
 21
-654.999
 31
0
  0
LINE
  5
A7A
330
A02
100
AcDbEntity
  8
ProjItem190
100
AcDbLine
 10
-1083.94
 20
-654.019
 30
0
 11
-1086.06
 21
-652.794
 31
0
  0
LINE
  5
A7B
330
A02
100
AcDbEntity
  8
ProjItem190
100
AcDbLine
 10
-1086.06
 20
-652.794
 30
0
 11
-1086.06
 21
-448.67
 31
0
  0
LINE
  5
A7C
330
A02
100
AcDbEntity
  8
ProjItem190
100
AcDbLine
 10
-1151.11
 20
-476.431
 30
0
 11
-1094.55
 21
-443.771
 31
0
  0
LINE
  5
A7D
330
A02
100
AcDbEntity
  8
ProjItem190
100
AcDbLine
 10
-1086.06
 20
-448.67
 30
0
 11
-1142.63
 21
-481.33
 31
0
  0
LINE
  5
A7E
330
A02
100
AcDbEntity
  8
ProjItem190
100
AcDbLine
 10
-1151.11
 20
-476.431
 30
0
 11
-1142.63
 21
-481.33
 31
0
  0
LINE
  5
A7F
330
A02
100
AcDbEntity
  8
ProjItem190
100
AcDbLine
 10
-445.421
 20
-455.774
 30
0
 11
-436.936
 21
-450.875
 31
0
  0
LINE
  5
A80
330
A02
100
AcDbEntity
  8
ProjItem190
100
AcDbLine
 10
-445.421
 20
-472.104
 30
0
 11
-436.936
 21
-467.205
 31
0
  0
LINE
  5
A81
330
A02
100
AcDbEntity
  8
ProjItem190
100
AcDbLine
 10
-1151.11
 20
-680.555
 30
0
 11
-1142.63
 21
-685.454
 31
0
  0
LINE
  5
A82
330
A02
100
AcDbEntity
  8
ProjItem190
100
AcDbLine
 10
-1142.63
 20
-685.454
 30
0
 11
-1086.06
 21
-652.794
 31
0
  0
LINE
  5
A83
330
A02
100
AcDbEntity
  8
ProjItem190
100
AcDbLine
 10
-1029.49
 20
-675.656
 30
0
 11
-1037.98
 21
-680.555
 31
0
  0
LINE
  5
A84
330
A02
100
AcDbEntity
  8
ProjItem190
100
AcDbLine
 10
-558.558
 20
-537.424
 30
0
 11
-445.421
 21
-472.104
 31
0
  0
LINE
  5
A85
330
A02
100
AcDbEntity
  8
ProjItem190
100
AcDbLine
 10
-558.558
 20
-602.743
 30
0
 11
-558.558
 21
-537.424
 31
0
  0
ELLIPSE
  5
A86
330
A02
100
AcDbEntity
  8
ProjItem190
100
AcDbEllipse
 10
-530.274
 20
-553.753
 30
0
 11
-3.5
 21
-6.06218
 31
0
 40
0.57735
 41
1.14121
 42
2.00038
  0
ELLIPSE
  5
A87
330
A02
100
AcDbEntity
  8
ProjItem190
100
AcDbEllipse
 10
-473.705
 20
-521.094
 30
0
 11
-3.5
 21
-6.06218
 31
0
 40
0.57735
 41
1.14121
 42
2.00038
  0
LINE
  5
A88
330
A02
100
AcDbEntity
  8
ProjItem190
100
AcDbLine
 10
-953.124
 20
-525.421
 30
0
 11
-944.638
 21
-520.522
 31
0
  0
LINE
  5
A89
330
A02
100
AcDbEntity
  8
ProjItem190
100
AcDbLine
 10
-445.421
 20
-659.898
 30
0
 11
-436.936
 21
-654.999
 31
0
  0
LINE
  5
A8A
330
A02
100
AcDbEntity
  8
ProjItem190
100
AcDbLine
 10
-1115.76
 20
-315.69
 30
0
 11
-1151.11
 21
-336.103
 31
0
  0
LINE
  5
A8B
330
A02
100
AcDbEntity
  8
ProjItem190
100
AcDbLine
 10
-730.205
 20
-538.289
 30
0
 11
-765.561
 21
-558.702
 31
0
  0
LINE
  5
A8C
330
A02
100
AcDbEntity
  8
ProjItem190
100
AcDbLine
 10
-1151.11
 20
-336.103
 30
0
 11
-765.561
 21
-558.702
 31
0
  0
LINE
  5
A8D
330
A02
100
AcDbEntity
  8
ProjItem190
100
AcDbLine
 10
-1151.11
 20
-344.268
 30
0
 11
-1151.11
 21
-336.103
 31
0
  0
LINE
  5
A8E
330
A02
100
AcDbEntity
  8
ProjItem190
100
AcDbLine
 10
-730.205
 20
-546.454
 30
0
 11
-765.561
 21
-566.867
 31
0
  0
LINE
  5
A8F
330
A02
100
AcDbEntity
  8
ProjItem190
100
AcDbLine
 10
-765.561
 20
-558.702
 30
0
 11
-765.561
 21
-566.867
 31
0
  0
LINE
  5
A90
330
A02
100
AcDbEntity
  8
ProjItem190
100
AcDbLine
 10
-765.561
 20
-566.867
 30
0
 11
-1151.11
 21
-344.268
 31
0
  0
LINE
  5
A91
330
A02
100
AcDbEntity
  8
ProjItem190
100
AcDbLine
 10
-762.143
 20
-420.346
 30
0
 11
-558.558
 21
-537.886
 31
0
  0
LINE
  5
A92
330
A02
100
AcDbEntity
  8
ProjItem190
100
AcDbLine
 10
-527.604
 20
-555.757
 30
0
 11
-526.98
 21
-556.118
 31
0
  0
LINE
  5
A93
330
A02
100
AcDbEntity
  8
ProjItem190
100
AcDbLine
 10
-726.788
 20
-391.769
 30
0
 11
-762.143
 21
-412.181
 31
0
  0
LINE
  5
A94
330
A02
100
AcDbEntity
  8
ProjItem190
100
AcDbLine
 10
-551.888
 20
-533.572
 30
0
 11
-762.143
 21
-412.181
 31
0
  0
LINE
  5
A95
330
A02
100
AcDbEntity
  8
ProjItem190
100
AcDbLine
 10
-762.143
 20
-412.181
 30
0
 11
-762.143
 21
-420.346
 31
0
  0
LINE
  5
A96
330
A02
100
AcDbEntity
  8
ProjItem190
100
AcDbLine
 10
-552.194
 20
-606.417
 30
0
 11
-430.572
 21
-536.199
 31
0
  0
LINE
  5
A97
330
A02
100
AcDbEntity
  8
ProjItem190
100
AcDbLine
 10
-430.572
 20
-470.879
 30
0
 11
-552.194
 21
-541.098
 31
0
  0
LINE
  5
A98
330
A02
100
AcDbEntity
  8
ProjItem190
100
AcDbLine
 10
-552.194
 20
-541.098
 30
0
 11
-552.194
 21
-606.417
 31
0
  0
ELLIPSE
  5
A99
330
A02
100
AcDbEntity
  8
ProjItem190
100
AcDbEllipse
 10
-523.91
 20
-557.428
 30
0
 11
3.5
 21
6.06218
 31
0
 40
0.57735
 41
-3.14159
 42
-2.35619
  0
ELLIPSE
  5
A9A
330
A02
100
AcDbEntity
  8
ProjItem190
100
AcDbEllipse
 10
-523.91
 20
-557.428
 30
0
 11
3.5
 21
6.06218
 31
0
 40
0.57735
 41
-0
 42
-3.14159
  0
ELLIPSE
  5
A9B
330
A02
100
AcDbEntity
  8
ProjItem190
100
AcDbEllipse
 10
-523.91
 20
-557.428
 30
0
 11
3.5
 21
6.06218
 31
0
 40
0.57735
 41
-2.35619
 42
-0
  0
ELLIPSE
  5
A9C
330
A02
100
AcDbEntity
  8
ProjItem190
100
AcDbEllipse
 10
-467.341
 20
-524.768
 30
0
 11
3.5
 21
6.06218
 31
0
 40
0.57735
 41
-3.14159
 42
-2.35619
  0
ELLIPSE
  5
A9D
330
A02
100
AcDbEntity
  8
ProjItem190
100
AcDbEllipse
 10
-467.341
 20
-524.768
 30
0
 11
3.5
 21
6.06218
 31
0
 40
0.57735
 41
-0
 42
-3.14159
  0
ELLIPSE
  5
A9E
330
A02
100
AcDbEntity
  8
ProjItem190
100
AcDbEllipse
 10
-467.341
 20
-524.768
 30
0
 11
3.5
 21
6.06218
 31
0
 40
0.57735
 41
-2.35619
 42
-0
  0
LINE
  5
A9F
330
A02
100
AcDbEntity
  8
ProjItem190
100
AcDbLine
 10
-558.558
 20
-537.424
 30
0
 11
-552.194
 21
-541.098
 31
0
  0
LINE
  5
AA0
330
A02
100
AcDbEntity
  8
ProjItem190
100
AcDbLine
 10
-1151.11
 20
-680.555
 30
0
 11
-1151.11
 21
-476.431
 31
0
  0
LINE
  5
AA1
330
A02
100
AcDbEntity
  8
ProjItem190
100
AcDbLine
 10
-558.558
 20
-602.743
 30
0
 11
-552.194
 21
-606.417
 31
0
  0
LINE
  5
AA2
330
A02
100
AcDbEntity
  8
ProjItem190
100
AcDbLine
 10
-1142.63
 20
-481.33
 30
0
 11
-1142.63
 21
-685.454
 31
0
  0
ELLIPSE
  5
AA3
330
A02
100
AcDbEntity
  8
ProjItem190
100
AcDbEllipse
 10
-1114.34
 20
-587.475
 30
0
 11
3.5
 21
6.06218
 31
0
 40
0.57735
 41
-8.88178e-16
 42
-5.49779
  0
ELLIPSE
  5
AA4
330
A02
100
AcDbEntity
  8
ProjItem190
100
AcDbEllipse
 10
-1114.34
 20
-587.475
 30
0
 11
3.5
 21
6.06218
 31
0
 40
0.57735
 41
-3.14159
 42
-1.11022e-15
  0
ELLIPSE
  5
AA5
330
A02
100
AcDbEntity
  8
ProjItem190
100
AcDbEllipse
 10
-1114.34
 20
-587.475
 30
0
 11
3.5
 21
6.06218
 31
0
 40
0.57735
 41
-5.49779
 42
-3.14159
  0
ELLIPSE
  5
AA6
330
A02
100
AcDbEntity
  8
ProjItem190
100
AcDbEllipse
 10
-1114.34
 20
-636.465
 30
0
 11
3.5
 21
6.06218
 31
0
 40
0.57735
 41
-8.88178e-16
 42
-5.49779
  0
ELLIPSE
  5
AA7
330
A02
100
AcDbEntity
  8
ProjItem190
100
AcDbEllipse
 10
-1114.34
 20
-636.465
 30
0
 11
3.5
 21
6.06218
 31
0
 40
0.57735
 41
-3.14159
 42
-1.11022e-15
  0
ELLIPSE
  5
AA8
330
A02
100
AcDbEntity
  8
ProjItem190
100
AcDbEllipse
 10
-1114.34
 20
-636.465
 30
0
 11
3.5
 21
6.06218
 31
0
 40
0.57735
 41
-5.49779
 42
-3.14159
  0
ENDSEC
  0
SECTION
  2
OBJECTS
  0
DICTIONARY
  5
F000
330
0
100
AcDbDictionary
  3
ACAD_GROUP
350
F001
  0
DICTIONARY
  5
F001
330
F000
100
AcDbDictionary
  0
ENDSEC
  0
EOF