999
FreeCAD v0.21 33771 (Git)
  0
SECTION
  2
HEADER
  9
$ACADVER
  1
AC1014
  9
$ACADMAINTVER
 70
     9
  9
$DWGCODEPAGE
  3
ANSI_1252
  9
$TEXTSTYLE
  7
STANDARD
  9
$DIMSTYLE
  2
STANDARD
  9
$DIMTXSTY
  7
STANDARD
  9
$CMLSTYLE
  2
STANDARD
  9
$LUNITS
 70
2
  9
$INSUNITS
 70
4
  9
$PEXTMAX
 10
50
 20
50
 30
50
  9
$PEXTMIN
 10
0
 20
0
 30
0
  9
$HANDSEED
  5
FFFF
  0
ENDSEC
  0
SECTION
  2
CLASSES
  0
CLASS
  1
ACDBDICTIONARYWDFLT
  2
AcDbDictionaryWithDefault
  3
ObjectDBX Classes
 90
        0
280
     0
281
     0
  0
CLASS
  1
XRECORD
  2
AcDbXrecord
  3
ObjectDBX Classes
 90
        0
280
     0
281
     0
  0
CLASS
  1
LWPOLYLINE
  2
AcDbPolyline
  3
ObjectDBX Classes
 90
        0
280
     0
281
     1
  0
ENDSEC
  0
SECTION
  2
TABLES
  0
TABLE
  2
VPORT
  5
20
330
0
100
AcDbSymbolTable
 70
     1
  0
VPORT
  5
21
330
20
100
AcDbSymbolTableRecord
100
AcDbViewportTableRecord
  2
*ACTIVE
 70
     0
  0
ENDTAB
  0
TABLE
  2
LTYPE
  5
22
330
0
100
AcDbSymbolTable
 70
     1
  0
LTYPE
  5
23
330
21
100
AcDbSymbolTableRecord
100
AcDbLinetypeTableRecord
  2
BYBLOCK
 70
     0
  3

 72
    65
 73
     0
 40
0.0
  0
LTYPE
  5
24
330
21
100
AcDbSymbolTableRecord
100
AcDbLinetypeTableRecord
  2
BYLAYER
 70
     0
  3

 72
    65
 73
     0
 40
0.0
  0
LTYPE
  5
25
330
21
100
AcDbSymbolTableRecord
100
AcDbLinetypeTableRecord
  2
CONTINUOUS
 70
     0
  3
Solid line
 72
    65
 73
     0
 40
0.0
  0
ENDTAB
  0
TABLE
  2
LAYER
  5
B02
330
0
100
AcDbSymbolTable
 70
5
  0
LAYER
  5
B03
330
B02
100
AcDbSymbolTableRecord
100
AcDbLayerTableRecord
  2
0
 70
   0
 62
   7
  6
CONTINUOUS
  0
LAYER
  5
B04
330
B02
100
AcDbSymbolTableRecord
100
AcDbLayerTableRecord
  2
ProjItem201
 70
    0
 62
    7
  6
CONTINUOUS
  0
LAYER
  5
B05
330
B02
100
AcDbSymbolTableRecord
100
AcDbLayerTableRecord
  2
ProjItem203
 70
    0
 62
    7
  6
CONTINUOUS
  0
LAYER
  5
B06
330
B02
100
AcDbSymbolTableRecord
100
AcDbLayerTableRecord
  2
ProjItem204
 70
    0
 62
    7
  6
CONTINUOUS
  0
LAYER
  5
B07
330
B02
100
AcDbSymbolTableRecord
100
AcDbLayerTableRecord
  2
ProjItem202
 70
    0
 62
    7
  6
CONTINUOUS
  0
ENDTAB
  0
TABLE
  2
STYLE
  5
70
330
0
100
AcDbSymbolTable
 70
     2
  0
STYLE
  5
71
330
70
100
AcDbSymbolTableRecord
100
AcDbTextStyleTableRecord
  2
STANDARD
 70
     0
 40
0.0
 41
1.0
 50
0.0
 71
     0
 42
2.5
  3
arial.ttf
  4

  0
STYLE
  5
72
330
70
100
AcDbSymbolTableRecord
100
AcDbTextStyleTableRecord
  2
ANNOTATIVE
 70
     0
 40
0.0
 41
1.0
 50
0.0
 71
     0
 42
2.5
  3
arial.ttf
  4

  0
ENDTAB
  0
TABLE
  2
VIEW
  5
73
330
0
100
AcDbSymbolTable
 70
     0
  0
ENDTAB
  0
TABLE
  2
UCS
  5
74
330
0
100
AcDbSymbolTable
 70
     0
  0
ENDTAB
  0
TABLE
  2
APPID
  5
75
330
0
100
AcDbSymbolTable
 70
     2
  0
APPID
  5
76
330
75
100
AcDbSymbolTableRecord
100
AcDbRegAppTableRecord
  2
ACAD
 70
     0
  0
APPID
  5
77
330
75
100
AcDbSymbolTableRecord
100
AcDbRegAppTableRecord
  2
ACADANNOTATIVE
 70
     0
  0
ENDTAB
  0
TABLE
  2
DIMSTYLE
  5
78
330
0
100
AcDbSymbolTable
 70
     2
  0
DIMSTYLE
105
79
330
78
100
AcDbSymbolTableRecord
100
AcDbDimStyleTableRecord
  2
STANDARD
 70
     0
  3

  4

  5

  6

  7

 40
0.0
 41
2.5
 42
0.625
 43
3.75
 44
1.25
 45
0.0
 46
0.0
 47
0.0
 48
0.0
140
2.5
141
2.5
142
0.0
143
0.03937007874016
144
1.0
145
0.0
146
1.0
147
0.625
 71
     0
 72
     0
 73
     0
 74
     0
 75
     0
 76
     0
 77
     1
 78
     8
170
     0
171
     3
172
     1
173
     0
174
     0
175
     0
176
     0
177
     0
178
     0
270
     2
271
     2
272
     2
273
     2
274
     3
340
71
275
     0
280
     0
281
     0
282
     0
283
     0
284
     8
285
     0
286
     0
287
     3
288
     0
  0
ENDTAB
  0
TABLE
  2
BLOCK_RECORD
  5
A01
330
0
100
AcDbSymbolTable
  70
5
  0
BLOCK_RECORD
  5
A02
330
A01
100
AcDbSymbolTableRecord
100
AcDbBlockTableRecord
  2
*MODEL_SPACE
  0
BLOCK_RECORD
  5
A03
330
A01
100
AcDbSymbolTableRecord
100
AcDbBlockTableRecord
  2
*PAPER_SPACE
  0
ENDTAB
  0
ENDSEC
  0
SECTION
  2
BLOCKS
  0
BLOCK
  5
A04
330
A02
100
AcDbEntity
  8
0
100
AcDbBlockBegin
  2
*MODEL_SPACE
 70
   0
 10
0
 20
0
 30
0
  3
*MODEL_SPACE
  1
 
  0
ENDBLK
  5
A05
330
A02
100
AcDbEntity
  8
0
100
AcDbBlockEnd
  0
BLOCK
  5
A06
330
A03
100
AcDbEntity
 67
1
  8
0
100
AcDbBlockBegin
  2
*PAPER_SPACE
 70
   0
 10
0
 20
0
 30
0
  3
*PAPER_SPACE
  1
 
  0
ENDBLK
  5
A07
330
A03
100
AcDbEntity
 67
    1
  8
0
100
AcDbBlockEnd
  0
ENDSEC
  0
SECTION
  2
ENTITIES
  0
LINE
  5
A08
330
A02
100
AcDbEntity
  8
ProjItem201
100
AcDbLine
 10
692.934
 20
892.297
 30
0
 11
-652.11
 21
-7.03646
 31
0
  0
LINE
  5
A09
330
A02
100
AcDbEntity
  8
ProjItem201
100
AcDbLine
 10
-652.11
 20
-7.03646
 30
0
 11
-1399.08
 21
-7.03646
 31
0
  0
LINE
  5
A0A
330
A02
100
AcDbEntity
  8
ProjItem201
100
AcDbLine
 10
692.934
 20
892.297
 30
0
 11
1683.92
 21
892.297
 31
0
  0
LINE
  5
A0B
330
A02
100
AcDbEntity
  8
ProjItem201
100
AcDbLine
 10
-1399.08
 20
-7.03646
 30
0
 11
-1399.08
 21
-87.0365
 31
0
  0
LINE
  5
A0C
330
A02
100
AcDbEntity
  8
ProjItem201
100
AcDbLine
 10
-1399.08
 20
-87.0365
 30
0
 11
-1399.08
 21
-227.036
 31
0
  0
LINE
  5
A0D
330
A02
100
AcDbEntity
  8
ProjItem201
100
AcDbLine
 10
-1399.08
 20
-227.036
 30
0
 11
-1399.08
 21
-257.036
 31
0
  0
LINE
  5
A0E
330
A02
100
AcDbEntity
  8
ProjItem201
100
AcDbLine
 10
-1399.08
 20
-87.0365
 30
0
 11
-1387.08
 21
-87.0365
 31
0
  0
LINE
  5
A0F
330
A02
100
AcDbEntity
  8
ProjItem201
100
AcDbLine
 10
-1387.08
 20
-227.036
 30
0
 11
-1387.08
 21
-87.0365
 31
0
  0
LINE
  5
A10
330
A02
100
AcDbEntity
  8
ProjItem201
100
AcDbLine
 10
-1399.08
 20
-227.036
 30
0
 11
-1387.08
 21
-227.036
 31
0
  0
LINE
  5
A11
330
A02
100
AcDbEntity
  8
ProjItem201
100
AcDbLine
 10
-1399.08
 20
-257.036
 30
0
 11
-576.231
 21
-257.036
 31
0
  0
LINE
  5
A12
330
A02
100
AcDbEntity
  8
ProjItem201
100
AcDbLine
 10
-576.231
 20
-257.036
 30
0
 11
783.769
 21
652.297
 31
0
  0
LINE
  5
A13
330
A02
100
AcDbEntity
  8
ProjItem201
100
AcDbLine
 10
873.769
 20
652.297
 30
0
 11
783.769
 21
652.297
 31
0
  0
LINE
  5
A14
330
A02
100
AcDbEntity
  8
ProjItem201
100
AcDbLine
 10
873.769
 20
572.297
 30
0
 11
873.769
 21
652.297
 31
0
  0
LINE
  5
A15
330
A02
100
AcDbEntity
  8
ProjItem201
100
AcDbLine
 10
1093.77
 20
572.297
 30
0
 11
873.769
 21
572.297
 31
0
  0
LINE
  5
A16
330
A02
100
AcDbEntity
  8
ProjItem201
100
AcDbLine
 10
1093.77
 20
652.297
 30
0
 11
1093.77
 21
572.297
 31
0
  0
LINE
  5
A17
330
A02
100
AcDbEntity
  8
ProjItem201
100
AcDbLine
 10
1373.92
 20
652.297
 30
0
 11
1093.77
 21
652.297
 31
0
  0
LINE
  5
A18
330
A02
100
AcDbEntity
  8
ProjItem201
100
AcDbLine
 10
1373.92
 20
572.297
 30
0
 11
1373.92
 21
652.297
 31
0
  0
LINE
  5
A19
330
A02
100
AcDbEntity
  8
ProjItem201
100
AcDbLine
 10
1593.92
 20
572.297
 30
0
 11
1373.92
 21
572.297
 31
0
  0
LINE
  5
A1A
330
A02
100
AcDbEntity
  8
ProjItem201
100
AcDbLine
 10
1593.92
 20
652.297
 30
0
 11
1593.92
 21
572.297
 31
0
  0
LINE
  5
A1B
330
A02
100
AcDbEntity
  8
ProjItem201
100
AcDbLine
 10
1683.92
 20
652.297
 30
0
 11
1593.92
 21
652.297
 31
0
  0
LINE
  5
A1C
330
A02
100
AcDbEntity
  8
ProjItem201
100
AcDbLine
 10
1683.92
 20
682.297
 30
0
 11
1683.92
 21
652.297
 31
0
  0
LINE
  5
A1D
330
A02
100
AcDbEntity
  8
ProjItem201
100
AcDbLine
 10
1683.92
 20
682.297
 30
0
 11
1683.92
 21
822.297
 31
0
  0
LINE
  5
A1E
330
A02
100
AcDbEntity
  8
ProjItem201
100
AcDbLine
 10
1683.92
 20
892.297
 30
0
 11
1683.92
 21
822.297
 31
0
  0
LINE
  5
A1F
330
A02
100
AcDbEntity
  8
ProjItem201
100
AcDbLine
 10
1671.92
 20
682.297
 30
0
 11
1683.92
 21
682.297
 31
0
  0
LINE
  5
A20
330
A02
100
AcDbEntity
  8
ProjItem201
100
AcDbLine
 10
1683.92
 20
822.297
 30
0
 11
1671.92
 21
822.297
 31
0
  0
CIRCLE
  5
A21
330
A02
100
AcDbEntity
  8
ProjItem201
100
AcDbCircle
 10
1413.92
 20
612.297
 40
7
  0
CIRCLE
  5
A22
330
A02
100
AcDbEntity
  8
ProjItem201
100
AcDbCircle
 10
1553.92
 20
612.297
 40
7
  0
CIRCLE
  5
A23
330
A02
100
AcDbEntity
  8
ProjItem201
100
AcDbCircle
 10
1053.77
 20
612.297
 40
7
  0
CIRCLE
  5
A24
330
A02
100
AcDbEntity
  8
ProjItem201
100
AcDbCircle
 10
913.769
 20
612.297
 40
7
  0
LINE
  5
A25
330
A02
100
AcDbEntity
  8
ProjItem201
100
AcDbLine
 10
1671.92
 20
822.297
 30
0
 11
1671.92
 21
682.297
 31
0
  0
LINE
  5
A26
330
A02
100
AcDbEntity
  8
ProjItem201
100
AcDbLine
 10
-1379.08
 20
-57.0365
 30
0
 11
-347.075
 21
-57.0365
 31
0
  0
LINE
  5
A27
330
A02
100
AcDbEntity
  8
ProjItem201
100
AcDbLine
 10
-347.075
 20
-57.0365
 30
0
 11
-347.075
 21
-67.0365
 31
0
  0
LINE
  5
A28
330
A02
100
AcDbEntity
  8
ProjItem201
100
AcDbLine
 10
-347.075
 20
-67.0365
 30
0
 11
-1379.08
 21
-67.0365
 31
0
  0
LINE
  5
A29
330
A02
100
AcDbEntity
  8
ProjItem201
100
AcDbLine
 10
-1379.08
 20
-67.0365
 30
0
 11
-1379.08
 21
-57.0365
 31
0
  0
LINE
  5
A2A
330
A02
100
AcDbEntity
  8
ProjItem201
100
AcDbLine
 10
1663.92
 20
842.297
 30
0
 11
1663.92
 21
852.297
 31
0
  0
LINE
  5
A2B
330
A02
100
AcDbEntity
  8
ProjItem201
100
AcDbLine
 10
720.925
 20
842.297
 30
0
 11
1663.92
 21
842.297
 31
0
  0
LINE
  5
A2C
330
A02
100
AcDbEntity
  8
ProjItem201
100
AcDbLine
 10
720.925
 20
852.297
 30
0
 11
720.925
 21
842.297
 31
0
  0
LINE
  5
A2D
330
A02
100
AcDbEntity
  8
ProjItem201
100
AcDbLine
 10
1663.92
 20
852.297
 30
0
 11
720.925
 21
852.297
 31
0
  0
LINE
  5
A2E
330
A02
100
AcDbEntity
  8
ProjItem201
100
AcDbLine
 10
468.925
 20
478.564
 30
0
 11
468.925
 21
488.564
 31
0
  0
LINE
  5
A2F
330
A02
100
AcDbEntity
  8
ProjItem201
100
AcDbLine
 10
176.925
 20
478.564
 30
0
 11
468.925
 21
478.564
 31
0
  0
LINE
  5
A30
330
A02
100
AcDbEntity
  8
ProjItem201
100
AcDbLine
 10
176.925
 20
488.564
 30
0
 11
176.925
 21
478.564
 31
0
  0
LINE
  5
A31
330
A02
100
AcDbEntity
  8
ProjItem201
100
AcDbLine
 10
468.925
 20
488.564
 30
0
 11
176.925
 21
488.564
 31
0
  0
LINE
  5
A32
330
A02
100
AcDbEntity
  8
ProjItem201
100
AcDbLine
 10
-75.0752
 20
114.83
 30
0
 11
-75.0752
 21
124.83
 31
0
  0
LINE
  5
A33
330
A02
100
AcDbEntity
  8
ProjItem201
100
AcDbLine
 10
-367.075
 20
114.83
 30
0
 11
-75.0752
 21
114.83
 31
0
  0
LINE
  5
A34
330
A02
100
AcDbEntity
  8
ProjItem201
100
AcDbLine
 10
-367.075
 20
124.83
 30
0
 11
-367.075
 21
114.83
 31
0
  0
LINE
  5
A35
330
A02
100
AcDbEntity
  8
ProjItem201
100
AcDbLine
 10
-75.0752
 20
124.83
 30
0
 11
-367.075
 21
124.83
 31
0
  0
LINE
  5
A36
330
A02
100
AcDbEntity
  8
ProjItem201
100
AcDbLine
 10
196.925
 20
296.697
 30
0
 11
196.925
 21
306.697
 31
0
  0
LINE
  5
A37
330
A02
100
AcDbEntity
  8
ProjItem201
100
AcDbLine
 10
-95.0752
 20
296.697
 30
0
 11
196.925
 21
296.697
 31
0
  0
LINE
  5
A38
330
A02
100
AcDbEntity
  8
ProjItem201
100
AcDbLine
 10
-95.0752
 20
306.697
 30
0
 11
-95.0752
 21
296.697
 31
0
  0
LINE
  5
A39
330
A02
100
AcDbEntity
  8
ProjItem201
100
AcDbLine
 10
196.925
 20
306.697
 30
0
 11
-95.0752
 21
306.697
 31
0
  0
LINE
  5
A3A
330
A02
100
AcDbEntity
  8
ProjItem201
100
AcDbLine
 10
740.925
 20
660.43
 30
0
 11
740.925
 21
670.43
 31
0
  0
LINE
  5
A3B
330
A02
100
AcDbEntity
  8
ProjItem201
100
AcDbLine
 10
448.925
 20
660.43
 30
0
 11
740.925
 21
660.43
 31
0
  0
LINE
  5
A3C
330
A02
100
AcDbEntity
  8
ProjItem201
100
AcDbLine
 10
448.925
 20
670.43
 30
0
 11
448.925
 21
660.43
 31
0
  0
LINE
  5
A3D
330
A02
100
AcDbEntity
  8
ProjItem201
100
AcDbLine
 10
740.925
 20
670.43
 30
0
 11
448.925
 21
670.43
 31
0
  0
LINE
  5
A3E
330
A02
100
AcDbEntity
  8
ProjItem203
100
AcDbLine
 10
1894.68
 20
892.297
 30
0
 11
1894.68
 21
-7.03646
 31
0
  0
LINE
  5
A3F
330
A02
100
AcDbEntity
  8
ProjItem203
100
AcDbLine
 10
1882.68
 20
-7.03646
 30
0
 11
1882.68
 21
892.297
 31
0
  0
LINE
  5
A40
330
A02
100
AcDbEntity
  8
ProjItem203
100
AcDbLine
 10
1882.68
 20
892.297
 30
0
 11
1894.68
 21
892.297
 31
0
  0
LINE
  5
A41
330
A02
100
AcDbEntity
  8
ProjItem203
100
AcDbLine
 10
1894.68
 20
-7.03646
 30
0
 11
1882.68
 21
-7.03646
 31
0
  0
LINE
  5
A42
330
A02
100
AcDbEntity
  8
ProjItem203
100
AcDbLine
 10
1882.68
 20
-257.036
 30
0
 11
1882.68
 21
-7.03646
 31
0
  0
LINE
  5
A43
330
A02
100
AcDbEntity
  8
ProjItem203
100
AcDbLine
 10
1894.68
 20
-7.03646
 30
0
 11
1894.68
 21
-87.0365
 31
0
  0
LINE
  5
A44
330
A02
100
AcDbEntity
  8
ProjItem203
100
AcDbLine
 10
1894.68
 20
-87.0365
 30
0
 11
1974.68
 21
-87.0365
 31
0
  0
LINE
  5
A45
330
A02
100
AcDbEntity
  8
ProjItem203
100
AcDbLine
 10
1974.68
 20
-87.0365
 30
0
 11
1974.68
 21
-227.036
 31
0
  0
LINE
  5
A46
330
A02
100
AcDbEntity
  8
ProjItem203
100
AcDbLine
 10
1974.68
 20
-227.036
 30
0
 11
1894.68
 21
-227.036
 31
0
  0
LINE
  5
A47
330
A02
100
AcDbEntity
  8
ProjItem203
100
AcDbLine
 10
1894.68
 20
-227.036
 30
0
 11
1894.68
 21
-257.036
 31
0
  0
LINE
  5
A48
330
A02
100
AcDbEntity
  8
ProjItem203
100
AcDbLine
 10
1894.68
 20
-257.036
 30
0
 11
1882.68
 21
-257.036
 31
0
  0
CIRCLE
  5
A49
330
A02
100
AcDbEntity
  8
ProjItem203
100
AcDbCircle
 10
1934.68
 20
-127.036
 40
7
  0
CIRCLE
  5
A4A
330
A02
100
AcDbEntity
  8
ProjItem203
100
AcDbCircle
 10
1934.68
 20
-187.036
 40
7
  0
LINE
  5
A4B
330
A02
100
AcDbEntity
  8
ProjItem203
100
AcDbLine
 10
1974.68
 20
682.297
 30
0
 11
1894.68
 21
682.297
 31
0
  0
LINE
  5
A4C
330
A02
100
AcDbEntity
  8
ProjItem203
100
AcDbLine
 10
1894.68
 20
822.297
 30
0
 11
1974.68
 21
822.297
 31
0
  0
LINE
  5
A4D
330
A02
100
AcDbEntity
  8
ProjItem203
100
AcDbLine
 10
1974.68
 20
822.297
 30
0
 11
1974.68
 21
682.297
 31
0
  0
CIRCLE
  5
A4E
330
A02
100
AcDbEntity
  8
ProjItem203
100
AcDbCircle
 10
1934.68
 20
782.297
 40
7
  0
CIRCLE
  5
A4F
330
A02
100
AcDbEntity
  8
ProjItem203
100
AcDbCircle
 10
1934.68
 20
722.297
 40
7
  0
LINE
  5
A50
330
A02
100
AcDbEntity
  8
ProjItem203
100
AcDbLine
 10
1894.68
 20
-57.0365
 30
0
 11
1944.68
 21
-57.0365
 31
0
  0
LINE
  5
A51
330
A02
100
AcDbEntity
  8
ProjItem203
100
AcDbLine
 10
1894.68
 20
-67.0365
 30
0
 11
1944.68
 21
-67.0365
 31
0
  0
LINE
  5
A52
330
A02
100
AcDbEntity
  8
ProjItem203
100
AcDbLine
 10
1944.68
 20
-67.0365
 30
0
 11
1944.68
 21
-57.0365
 31
0
  0
LINE
  5
A53
330
A02
100
AcDbEntity
  8
ProjItem203
100
AcDbLine
 10
1894.68
 20
842.297
 30
0
 11
1944.68
 21
842.297
 31
0
  0
LINE
  5
A54
330
A02
100
AcDbEntity
  8
ProjItem203
100
AcDbLine
 10
1894.68
 20
852.297
 30
0
 11
1944.68
 21
852.297
 31
0
  0
LINE
  5
A55
330
A02
100
AcDbEntity
  8
ProjItem203
100
AcDbLine
 10
1944.68
 20
852.297
 30
0
 11
1944.68
 21
842.297
 31
0
  0
LINE
  5
A56
330
A02
100
AcDbEntity
  8
ProjItem203
100
AcDbLine
 10
1894.68
 20
478.564
 30
0
 11
1944.68
 21
478.564
 31
0
  0
LINE
  5
A57
330
A02
100
AcDbEntity
  8
ProjItem203
100
AcDbLine
 10
1894.68
 20
488.564
 30
0
 11
1944.68
 21
488.564
 31
0
  0
LINE
  5
A58
330
A02
100
AcDbEntity
  8
ProjItem203
100
AcDbLine
 10
1944.68
 20
488.564
 30
0
 11
1944.68
 21
478.564
 31
0
  0
LINE
  5
A59
330
A02
100
AcDbEntity
  8
ProjItem203
100
AcDbLine
 10
1894.68
 20
114.83
 30
0
 11
1944.68
 21
114.83
 31
0
  0
LINE
  5
A5A
330
A02
100
AcDbEntity
  8
ProjItem203
100
AcDbLine
 10
1894.68
 20
124.83
 30
0
 11
1944.68
 21
124.83
 31
0
  0
LINE
  5
A5B
330
A02
100
AcDbEntity
  8
ProjItem203
100
AcDbLine
 10
1944.68
 20
124.83
 30
0
 11
1944.68
 21
114.83
 31
0
  0
LINE
  5
A5C
330
A02
100
AcDbEntity
  8
ProjItem203
100
AcDbLine
 10
1894.68
 20
296.697
 30
0
 11
1944.68
 21
296.697
 31
0
  0
LINE
  5
A5D
330
A02
100
AcDbEntity
  8
ProjItem203
100
AcDbLine
 10
1894.68
 20
306.697
 30
0
 11
1944.68
 21
306.697
 31
0
  0
LINE
  5
A5E
330
A02
100
AcDbEntity
  8
ProjItem203
100
AcDbLine
 10
1944.68
 20
306.697
 30
0
 11
1944.68
 21
296.697
 31
0
  0
LINE
  5
A5F
330
A02
100
AcDbEntity
  8
ProjItem203
100
AcDbLine
 10
1894.68
 20
660.43
 30
0
 11
1944.68
 21
660.43
 31
0
  0
LINE
  5
A60
330
A02
100
AcDbEntity
  8
ProjItem203
100
AcDbLine
 10
1894.68
 20
670.43
 30
0
 11
1944.68
 21
670.43
 31
0
  0
LINE
  5
A61
330
A02
100
AcDbEntity
  8
ProjItem203
100
AcDbLine
 10
1944.68
 20
670.43
 30
0
 11
1944.68
 21
660.43
 31
0
  0
LINE
  5
A62
330
A02
100
AcDbEntity
  8
ProjItem204
100
AcDbLine
 10
692.934
 20
-461.716
 30
0
 11
-652.11
 21
-461.716
 31
0
  0
LINE
  5
A63
330
A02
100
AcDbEntity
  8
ProjItem204
100
AcDbLine
 10
-652.11
 20
-461.716
 30
0
 11
-652.11
 21
-449.716
 31
0
  0
LINE
  5
A64
330
A02
100
AcDbEntity
  8
ProjItem204
100
AcDbLine
 10
-652.11
 20
-449.716
 30
0
 11
692.934
 21
-449.716
 31
0
  0
LINE
  5
A65
330
A02
100
AcDbEntity
  8
ProjItem204
100
AcDbLine
 10
692.934
 20
-449.716
 30
0
 11
692.934
 21
-461.716
 31
0
  0
LINE
  5
A66
330
A02
100
AcDbEntity
  8
ProjItem204
100
AcDbLine
 10
-652.11
 20
-461.716
 30
0
 11
-1399.08
 21
-461.716
 31
0
  0
LINE
  5
A67
330
A02
100
AcDbEntity
  8
ProjItem204
100
AcDbLine
 10
-1399.08
 20
-461.716
 30
0
 11
-1399.08
 21
-449.716
 31
0
  0
LINE
  5
A68
330
A02
100
AcDbEntity
  8
ProjItem204
100
AcDbLine
 10
-1399.08
 20
-449.716
 30
0
 11
-652.11
 21
-449.716
 31
0
  0
LINE
  5
A69
330
A02
100
AcDbEntity
  8
ProjItem204
100
AcDbLine
 10
692.934
 20
-449.716
 30
0
 11
1683.92
 21
-449.716
 31
0
  0
LINE
  5
A6A
330
A02
100
AcDbEntity
  8
ProjItem204
100
AcDbLine
 10
692.934
 20
-461.716
 30
0
 11
1683.92
 21
-461.716
 31
0
  0
LINE
  5
A6B
330
A02
100
AcDbEntity
  8
ProjItem204
100
AcDbLine
 10
1683.92
 20
-461.716
 30
0
 11
1683.92
 21
-449.716
 31
0
  0
LINE
  5
A6C
330
A02
100
AcDbEntity
  8
ProjItem204
100
AcDbLine
 10
-1399.08
 20
-461.716
 30
0
 11
-1399.08
 21
-541.716
 31
0
  0
LINE
  5
A6D
330
A02
100
AcDbEntity
  8
ProjItem204
100
AcDbLine
 10
-1399.08
 20
-541.716
 30
0
 11
-1387.08
 21
-541.716
 31
0
  0
LINE
  5
A6E
330
A02
100
AcDbEntity
  8
ProjItem204
100
AcDbLine
 10
-1387.08
 20
-541.716
 30
0
 11
-1387.08
 21
-461.716
 31
0
  0
LINE
  5
A6F
330
A02
100
AcDbEntity
  8
ProjItem204
100
AcDbLine
 10
1683.92
 20
-461.716
 30
0
 11
1683.92
 21
-541.716
 31
0
  0
LINE
  5
A70
330
A02
100
AcDbEntity
  8
ProjItem204
100
AcDbLine
 10
1671.92
 20
-461.716
 30
0
 11
1671.92
 21
-541.716
 31
0
  0
LINE
  5
A71
330
A02
100
AcDbEntity
  8
ProjItem204
100
AcDbLine
 10
1683.92
 20
-541.716
 30
0
 11
1671.92
 21
-541.716
 31
0
  0
LINE
  5
A72
330
A02
100
AcDbEntity
  8
ProjItem204
100
AcDbLine
 10
-1379.08
 20
-461.716
 30
0
 11
-1379.08
 21
-511.716
 31
0
  0
LINE
  5
A73
330
A02
100
AcDbEntity
  8
ProjItem204
100
AcDbLine
 10
-1379.08
 20
-511.716
 30
0
 11
-367.075
 21
-511.716
 31
0
  0
LINE
  5
A74
330
A02
100
AcDbEntity
  8
ProjItem204
100
AcDbLine
 10
1663.92
 20
-461.716
 30
0
 11
1663.92
 21
-511.716
 31
0
  0
LINE
  5
A75
330
A02
100
AcDbEntity
  8
ProjItem204
100
AcDbLine
 10
720.925
 20
-461.716
 30
0
 11
720.925
 21
-511.716
 31
0
  0
LINE
  5
A76
330
A02
100
AcDbEntity
  8
ProjItem204
100
AcDbLine
 10
1663.92
 20
-511.716
 30
0
 11
720.925
 21
-511.716
 31
0
  0
LINE
  5
A77
330
A02
100
AcDbEntity
  8
ProjItem204
100
AcDbLine
 10
176.925
 20
-461.716
 30
0
 11
176.925
 21
-511.716
 31
0
  0
LINE
  5
A78
330
A02
100
AcDbEntity
  8
ProjItem204
100
AcDbLine
 10
448.925
 20
-511.716
 30
0
 11
176.925
 21
-511.716
 31
0
  0
LINE
  5
A79
330
A02
100
AcDbEntity
  8
ProjItem204
100
AcDbLine
 10
-367.075
 20
-461.716
 30
0
 11
-367.075
 21
-511.716
 31
0
  0
LINE
  5
A7A
330
A02
100
AcDbEntity
  8
ProjItem204
100
AcDbLine
 10
-95.0752
 20
-511.716
 30
0
 11
-367.075
 21
-511.716
 31
0
  0
LINE
  5
A7B
330
A02
100
AcDbEntity
  8
ProjItem204
100
AcDbLine
 10
-95.0752
 20
-461.716
 30
0
 11
-95.0752
 21
-511.716
 31
0
  0
LINE
  5
A7C
330
A02
100
AcDbEntity
  8
ProjItem204
100
AcDbLine
 10
176.925
 20
-511.716
 30
0
 11
-95.0752
 21
-511.716
 31
0
  0
LINE
  5
A7D
330
A02
100
AcDbEntity
  8
ProjItem204
100
AcDbLine
 10
448.925
 20
-461.716
 30
0
 11
448.925
 21
-511.716
 31
0
  0
LINE
  5
A7E
330
A02
100
AcDbEntity
  8
ProjItem204
100
AcDbLine
 10
720.925
 20
-511.716
 30
0
 11
448.925
 21
-511.716
 31
0
  0
LINE
  5
A7F
330
A02
100
AcDbEntity
  8
ProjItem202
100
AcDbLine
 10
-2301.83
 20
630.951
 30
0
 11
-3252.92
 21
-652.464
 31
0
  0
LINE
  5
A80
330
A02
100
AcDbEntity
  8
ProjItem202
100
AcDbLine
 10
-3252.92
 20
-652.464
 30
0
 11
-3261.4
 21
-647.565
 31
0
  0
LINE
  5
A81
330
A02
100
AcDbEntity
  8
ProjItem202
100
AcDbLine
 10
-3261.4
 20
-647.565
 30
0
 11
-2310.31
 21
635.85
 31
0
  0
LINE
  5
A82
330
A02
100
AcDbEntity
  8
ProjItem202
100
AcDbLine
 10
-2310.31
 20
635.85
 30
0
 11
-2301.83
 21
630.951
 31
0
  0
LINE
  5
A83
330
A02
100
AcDbEntity
  8
ProjItem202
100
AcDbLine
 10
-3252.92
 20
-652.464
 30
0
 11
-3781.1
 21
-957.411
 31
0
  0
LINE
  5
A84
330
A02
100
AcDbEntity
  8
ProjItem202
100
AcDbLine
 10
-3781.1
 20
-957.411
 30
0
 11
-3789.59
 21
-952.512
 31
0
  0
LINE
  5
A85
330
A02
100
AcDbEntity
  8
ProjItem202
100
AcDbLine
 10
-3789.59
 20
-952.512
 30
0
 11
-3261.4
 21
-647.565
 31
0
  0
LINE
  5
A86
330
A02
100
AcDbEntity
  8
ProjItem202
100
AcDbLine
 10
-2182.44
 20
448.397
 30
0
 11
-2182.44
 21
503.919
 31
0
  0
LINE
  5
A87
330
A02
100
AcDbEntity
  8
ProjItem202
100
AcDbLine
 10
-1828.78
 20
652.585
 30
0
 11
-1828.78
 21
708.106
 31
0
  0
LINE
  5
A88
330
A02
100
AcDbEntity
  8
ProjItem202
100
AcDbLine
 10
-2310.31
 20
635.85
 30
0
 11
-1609.57
 21
1040.42
 31
0
  0
LINE
  5
A89
330
A02
100
AcDbEntity
  8
ProjItem202
100
AcDbLine
 10
-3789.59
 20
-1156.64
 30
0
 11
-3789.59
 21
-952.512
 31
0
  0
LINE
  5
A8A
330
A02
100
AcDbEntity
  8
ProjItem202
100
AcDbLine
 10
-2301.83
 20
630.951
 30
0
 11
-1601.09
 21
1035.52
 31
0
  0
LINE
  5
A8B
330
A02
100
AcDbEntity
  8
ProjItem202
100
AcDbLine
 10
-1601.09
 20
1035.52
 30
0
 11
-1609.57
 21
1040.42
 31
0
  0
LINE
  5
A8C
330
A02
100
AcDbEntity
  8
ProjItem202
100
AcDbLine
 10
-3781.1
 20
-957.411
 30
0
 11
-3781.1
 21
-1022.73
 31
0
  0
LINE
  5
A8D
330
A02
100
AcDbEntity
  8
ProjItem202
100
AcDbLine
 10
-3781.1
 20
-1022.73
 30
0
 11
-3724.53
 21
-1055.39
 31
0
  0
LINE
  5
A8E
330
A02
100
AcDbEntity
  8
ProjItem202
100
AcDbLine
 10
-3724.53
 20
-1055.39
 30
0
 11
-3724.53
 21
-1169.7
 31
0
  0
LINE
  5
A8F
330
A02
100
AcDbEntity
  8
ProjItem202
100
AcDbLine
 10
-3724.53
 20
-1169.7
 30
0
 11
-3781.1
 21
-1137.04
 31
0
  0
LINE
  5
A90
330
A02
100
AcDbEntity
  8
ProjItem202
100
AcDbLine
 10
-3781.1
 20
-1137.04
 30
0
 11
-3781.1
 21
-1161.53
 31
0
  0
LINE
  5
A91
330
A02
100
AcDbEntity
  8
ProjItem202
100
AcDbLine
 10
-3781.1
 20
-1161.53
 30
0
 11
-3789.59
 21
-1156.64
 31
0
  0
ELLIPSE
  5
A92
330
A02
100
AcDbEntity
  8
ProjItem202
100
AcDbEllipse
 10
-3752.82
 20
-1071.72
 30
0
 11
-3.5
 21
6.06218
 31
0
 40
0.57735
 41
2.35619
 42
3.14159
  0
ELLIPSE
  5
A93
330
A02
100
AcDbEntity
  8
ProjItem202
100
AcDbEllipse
 10
-3752.82
 20
-1071.72
 30
0
 11
-3.5
 21
6.06218
 31
0
 40
0.57735
 41
3.14159
 42
0
  0
ELLIPSE
  5
A94
330
A02
100
AcDbEntity
  8
ProjItem202
100
AcDbEllipse
 10
-3752.82
 20
-1071.72
 30
0
 11
-3.5
 21
6.06218
 31
0
 40
0.57735
 41
0
 42
2.35619
  0
ELLIPSE
  5
A95
330
A02
100
AcDbEntity
  8
ProjItem202
100
AcDbEllipse
 10
-3752.82
 20
-1120.71
 30
0
 11
-3.5
 21
6.06218
 31
0
 40
0.57735
 41
2.35619
 42
3.14159
  0
ELLIPSE
  5
A96
330
A02
100
AcDbEntity
  8
ProjItem202
100
AcDbEllipse
 10
-3752.82
 20
-1120.71
 30
0
 11
-3.5
 21
6.06218
 31
0
 40
0.57735
 41
3.14159
 42
0
  0
ELLIPSE
  5
A97
330
A02
100
AcDbEntity
  8
ProjItem202
100
AcDbEllipse
 10
-3752.82
 20
-1120.71
 30
0
 11
-3.5
 21
6.06218
 31
0
 40
0.57735
 41
0
 42
2.35619
  0
LINE
  5
A98
330
A02
100
AcDbEntity
  8
ProjItem202
100
AcDbLine
 10
-3724.53
 20
-1055.39
 30
0
 11
-3716.05
 21
-1050.49
 31
0
  0
LINE
  5
A99
330
A02
100
AcDbEntity
  8
ProjItem202
100
AcDbLine
 10
-3716.05
 20
-1050.49
 30
0
 11
-3772.61
 21
-1017.83
 31
0
  0
LINE
  5
A9A
330
A02
100
AcDbEntity
  8
ProjItem202
100
AcDbLine
 10
-3781.1
 20
-1022.73
 30
0
 11
-3772.61
 21
-1017.83
 31
0
  0
LINE
  5
A9B
330
A02
100
AcDbEntity
  8
ProjItem202
100
AcDbLine
 10
-3716.05
 20
-1164.8
 30
0
 11
-3716.05
 21
-1050.49
 31
0
  0
LINE
  5
A9C
330
A02
100
AcDbEntity
  8
ProjItem202
100
AcDbLine
 10
-3724.53
 20
-1169.7
 30
0
 11
-3716.05
 21
-1164.8
 31
0
  0
LINE
  5
A9D
330
A02
100
AcDbEntity
  8
ProjItem202
100
AcDbLine
 10
-3781.1
 20
-1161.53
 30
0
 11
-3759.89
 21
-1149.29
 31
0
  0
LINE
  5
A9E
330
A02
100
AcDbEntity
  8
ProjItem202
100
AcDbLine
 10
-3716.05
 20
-1123.98
 30
0
 11
-3199.26
 21
-825.61
 31
0
  0
LINE
  5
A9F
330
A02
100
AcDbEntity
  8
ProjItem202
100
AcDbLine
 10
-3199.26
 20
-825.61
 30
0
 11
-3051.2
 21
-625.82
 31
0
  0
LINE
  5
AA0
330
A02
100
AcDbEntity
  8
ProjItem202
100
AcDbLine
 10
-3017.4
 20
-580.204
 30
0
 11
-2858.87
 21
-366.283
 31
0
  0
LINE
  5
AA1
330
A02
100
AcDbEntity
  8
ProjItem202
100
AcDbLine
 10
-2825.07
 20
-320.666
 30
0
 11
-2666.54
 21
-106.746
 31
0
  0
LINE
  5
AA2
330
A02
100
AcDbEntity
  8
ProjItem202
100
AcDbLine
 10
-2632.73
 20
-61.1294
 30
0
 11
-2474.21
 21
152.791
 31
0
  0
LINE
  5
AA3
330
A02
100
AcDbEntity
  8
ProjItem202
100
AcDbLine
 10
-2440.4
 20
198.408
 30
0
 11
-2281.87
 21
412.328
 31
0
  0
LINE
  5
AA4
330
A02
100
AcDbEntity
  8
ProjItem202
100
AcDbLine
 10
-2248.07
 20
457.945
 30
0
 11
-2237.6
 21
472.075
 31
0
  0
LINE
  5
AA5
330
A02
100
AcDbEntity
  8
ProjItem202
100
AcDbLine
 10
-2173.96
 20
508.817
 30
0
 11
-2237.6
 21
472.075
 31
0
  0
LINE
  5
AA6
330
A02
100
AcDbEntity
  8
ProjItem202
100
AcDbLine
 10
-2173.96
 20
443.498
 30
0
 11
-2173.96
 21
508.817
 31
0
  0
LINE
  5
AA7
330
A02
100
AcDbEntity
  8
ProjItem202
100
AcDbLine
 10
-2173.96
 20
443.498
 30
0
 11
-2182.44
 21
448.397
 31
0
  0
LINE
  5
AA8
330
A02
100
AcDbEntity
  8
ProjItem202
100
AcDbLine
 10
-2018.39
 20
533.312
 30
0
 11
-2173.96
 21
443.498
 31
0
  0
LINE
  5
AA9
330
A02
100
AcDbEntity
  8
ProjItem202
100
AcDbLine
 10
-2018.39
 20
598.632
 30
0
 11
-2018.39
 21
533.312
 31
0
  0
LINE
  5
AAA
330
A02
100
AcDbEntity
  8
ProjItem202
100
AcDbLine
 10
-1820.29
 20
713.005
 30
0
 11
-2018.39
 21
598.632
 31
0
  0
LINE
  5
AAB
330
A02
100
AcDbEntity
  8
ProjItem202
100
AcDbLine
 10
-1820.29
 20
647.686
 30
0
 11
-1820.29
 21
713.005
 31
0
  0
LINE
  5
AAC
330
A02
100
AcDbEntity
  8
ProjItem202
100
AcDbLine
 10
-1820.29
 20
647.686
 30
0
 11
-1828.78
 21
652.585
 31
0
  0
LINE
  5
AAD
330
A02
100
AcDbEntity
  8
ProjItem202
100
AcDbLine
 10
-1664.73
 20
737.5
 30
0
 11
-1820.29
 21
647.686
 31
0
  0
LINE
  5
AAE
330
A02
100
AcDbEntity
  8
ProjItem202
100
AcDbLine
 10
-1664.73
 20
802.82
 30
0
 11
-1664.73
 21
737.5
 31
0
  0
LINE
  5
AAF
330
A02
100
AcDbEntity
  8
ProjItem202
100
AcDbLine
 10
-1601.09
 20
839.562
 30
0
 11
-1664.73
 21
802.82
 31
0
  0
LINE
  5
AB0
330
A02
100
AcDbEntity
  8
ProjItem202
100
AcDbLine
 10
-1601.09
 20
854.259
 30
0
 11
-1601.09
 21
839.562
 31
0
  0
LINE
  5
AB1
330
A02
100
AcDbEntity
  8
ProjItem202
100
AcDbLine
 10
-1544.52
 20
831.397
 30
0
 11
-1544.52
 21
945.707
 31
0
  0
LINE
  5
AB2
330
A02
100
AcDbEntity
  8
ProjItem202
100
AcDbLine
 10
-1579.88
 20
966.119
 30
0
 11
-1544.52
 21
945.707
 31
0
  0
LINE
  5
AB3
330
A02
100
AcDbEntity
  8
ProjItem202
100
AcDbLine
 10
-1601.09
 20
1035.52
 30
0
 11
-1601.09
 21
986.532
 31
0
  0
LINE
  5
AB4
330
A02
100
AcDbEntity
  8
ProjItem202
100
AcDbLine
 10
-1553.01
 20
826.498
 30
0
 11
-1544.52
 21
831.397
 31
0
  0
LINE
  5
AB5
330
A02
100
AcDbEntity
  8
ProjItem202
100
AcDbLine
 10
-1553.01
 20
826.498
 30
0
 11
-1609.57
 21
859.158
 31
0
  0
LINE
  5
AB6
330
A02
100
AcDbEntity
  8
ProjItem202
100
AcDbLine
 10
-1588.36
 20
961.22
 30
0
 11
-1553.01
 21
940.808
 31
0
  0
LINE
  5
AB7
330
A02
100
AcDbEntity
  8
ProjItem202
100
AcDbLine
 10
-1544.52
 20
945.707
 30
0
 11
-1553.01
 21
940.808
 31
0
  0
ELLIPSE
  5
AB8
330
A02
100
AcDbEntity
  8
ProjItem202
100
AcDbEllipse
 10
-1792.01
 20
696.675
 30
0
 11
-3.5
 21
-6.06218
 31
0
 40
0.57735
 41
2.35619
 42
3.14159
  0
ELLIPSE
  5
AB9
330
A02
100
AcDbEntity
  8
ProjItem202
100
AcDbEllipse
 10
-1792.01
 20
696.675
 30
0
 11
-3.5
 21
-6.06218
 31
0
 40
0.57735
 41
3.14159
 42
0
  0
ELLIPSE
  5
ABA
330
A02
100
AcDbEntity
  8
ProjItem202
100
AcDbEllipse
 10
-1792.01
 20
696.675
 30
0
 11
-3.5
 21
-6.06218
 31
0
 40
0.57735
 41
0
 42
2.35619
  0
ELLIPSE
  5
ABB
330
A02
100
AcDbEntity
  8
ProjItem202
100
AcDbEllipse
 10
-1693.01
 20
753.83
 30
0
 11
-3.5
 21
-6.06218
 31
0
 40
0.57735
 41
2.35619
 42
3.14159
  0
ELLIPSE
  5
ABC
330
A02
100
AcDbEntity
  8
ProjItem202
100
AcDbEllipse
 10
-1693.01
 20
753.83
 30
0
 11
-3.5
 21
-6.06218
 31
0
 40
0.57735
 41
3.14159
 42
0
  0
ELLIPSE
  5
ABD
330
A02
100
AcDbEntity
  8
ProjItem202
100
AcDbEllipse
 10
-1693.01
 20
753.83
 30
0
 11
-3.5
 21
-6.06218
 31
0
 40
0.57735
 41
0
 42
2.35619
  0
ELLIPSE
  5
ABE
330
A02
100
AcDbEntity
  8
ProjItem202
100
AcDbEllipse
 10
-2046.68
 20
549.642
 30
0
 11
-3.5
 21
-6.06218
 31
0
 40
0.57735
 41
2.35619
 42
3.14159
  0
ELLIPSE
  5
ABF
330
A02
100
AcDbEntity
  8
ProjItem202
100
AcDbEllipse
 10
-2046.68
 20
549.642
 30
0
 11
-3.5
 21
-6.06218
 31
0
 40
0.57735
 41
3.14159
 42
0
  0
ELLIPSE
  5
AC0
330
A02
100
AcDbEntity
  8
ProjItem202
100
AcDbEllipse
 10
-2046.68
 20
549.642
 30
0
 11
-3.5
 21
-6.06218
 31
0
 40
0.57735
 41
0
 42
2.35619
  0
ELLIPSE
  5
AC1
330
A02
100
AcDbEntity
  8
ProjItem202
100
AcDbEllipse
 10
-2145.67
 20
492.488
 30
0
 11
-3.5
 21
-6.06218
 31
0
 40
0.57735
 41
2.35619
 42
3.14159
  0
ELLIPSE
  5
AC2
330
A02
100
AcDbEntity
  8
ProjItem202
100
AcDbEllipse
 10
-2145.67
 20
492.488
 30
0
 11
-3.5
 21
-6.06218
 31
0
 40
0.57735
 41
3.14159
 42
0
  0
ELLIPSE
  5
AC3
330
A02
100
AcDbEntity
  8
ProjItem202
100
AcDbEllipse
 10
-2145.67
 20
492.488
 30
0
 11
-3.5
 21
-6.06218
 31
0
 40
0.57735
 41
0
 42
2.35619
  0
LINE
  5
AC4
330
A02
100
AcDbEntity
  8
ProjItem202
100
AcDbLine
 10
-1553.01
 20
940.808
 30
0
 11
-1553.01
 21
826.498
 31
0
  0
ELLIPSE
  5
AC5
330
A02
100
AcDbEntity
  8
ProjItem202
100
AcDbEllipse
 10
-1581.29
 20
924.478
 30
0
 11
-3.5
 21
6.06218
 31
0
 40
0.57735
 41
2.35619
 42
3.14159
  0
ELLIPSE
  5
AC6
330
A02
100
AcDbEntity
  8
ProjItem202
100
AcDbEllipse
 10
-1581.29
 20
924.478
 30
0
 11
-3.5
 21
6.06218
 31
0
 40
0.57735
 41
3.14159
 42
0
  0
ELLIPSE
  5
AC7
330
A02
100
AcDbEntity
  8
ProjItem202
100
AcDbEllipse
 10
-1581.29
 20
924.478
 30
0
 11
-3.5
 21
6.06218
 31
0
 40
0.57735
 41
0
 42
2.35619
  0
ELLIPSE
  5
AC8
330
A02
100
AcDbEntity
  8
ProjItem202
100
AcDbEllipse
 10
-1581.29
 20
875.488
 30
0
 11
-3.5
 21
6.06218
 31
0
 40
0.57735
 41
2.35619
 42
3.14159
  0
ELLIPSE
  5
AC9
330
A02
100
AcDbEntity
  8
ProjItem202
100
AcDbEllipse
 10
-1581.29
 20
875.488
 30
0
 11
-3.5
 21
6.06218
 31
0
 40
0.57735
 41
3.14159
 42
0
  0
ELLIPSE
  5
ACA
330
A02
100
AcDbEntity
  8
ProjItem202
100
AcDbEllipse
 10
-1581.29
 20
875.488
 30
0
 11
-3.5
 21
6.06218
 31
0
 40
0.57735
 41
0
 42
2.35619
  0
LINE
  5
ACB
330
A02
100
AcDbEntity
  8
ProjItem202
100
AcDbLine
 10
-1609.57
 20
859.158
 30
0
 11
-1609.57
 21
948.973
 31
0
  0
LINE
  5
ACC
330
A02
100
AcDbEntity
  8
ProjItem202
100
AcDbLine
 10
-3766.96
 20
-990.071
 30
0
 11
-3037.22
 21
-568.758
 31
0
  0
LINE
  5
ACD
330
A02
100
AcDbEntity
  8
ProjItem202
100
AcDbLine
 10
-3766.96
 20
-998.236
 30
0
 11
-3766.96
 21
-990.071
 31
0
  0
LINE
  5
ACE
330
A02
100
AcDbEntity
  8
ProjItem202
100
AcDbLine
 10
-2282.03
 20
609.719
 30
0
 11
-2282.03
 21
601.554
 31
0
  0
LINE
  5
ACF
330
A02
100
AcDbEntity
  8
ProjItem202
100
AcDbLine
 10
-1615.23
 20
994.697
 30
0
 11
-2282.03
 21
609.719
 31
0
  0
LINE
  5
AD0
330
A02
100
AcDbEntity
  8
ProjItem202
100
AcDbLine
 10
-2666.7
 20
90.6444
 30
0
 11
-2666.7
 21
82.4794
 31
0
  0
LINE
  5
AD1
330
A02
100
AcDbEntity
  8
ProjItem202
100
AcDbLine
 10
-2460.22
 20
209.853
 30
0
 11
-2666.7
 21
90.6444
 31
0
  0
LINE
  5
AD2
330
A02
100
AcDbEntity
  8
ProjItem202
100
AcDbLine
 10
-3051.37
 20
-428.43
 30
0
 11
-3051.37
 21
-436.595
 31
0
  0
LINE
  5
AD3
330
A02
100
AcDbEntity
  8
ProjItem202
100
AcDbLine
 10
-2844.89
 20
-309.221
 30
0
 11
-3051.37
 21
-428.43
 31
0
  0
LINE
  5
AD4
330
A02
100
AcDbEntity
  8
ProjItem202
100
AcDbLine
 10
-2859.03
 20
-168.893
 30
0
 11
-2859.03
 21
-177.058
 31
0
  0
LINE
  5
AD5
330
A02
100
AcDbEntity
  8
ProjItem202
100
AcDbLine
 10
-2652.56
 20
-49.6842
 30
0
 11
-2859.03
 21
-168.893
 31
0
  0
LINE
  5
AD6
330
A02
100
AcDbEntity
  8
ProjItem202
100
AcDbLine
 10
-2474.37
 20
350.181
 30
0
 11
-2474.37
 21
342.017
 31
0
  0
LINE
  5
AD7
330
A02
100
AcDbEntity
  8
ProjItem202
100
AcDbLine
 10
-2267.89
 20
469.39
 30
0
 11
-2474.37
 21
350.181
 31
0
  0
LINE
  5
AD8
330
A02
100
AcDbEntity
  8
ProjItem202
100
AcDbLine
 10
-3766.96
 20
-990.071
 30
0
 11
-3731.6
 21
-1010.48
 31
0
  0
LINE
  5
AD9
330
A02
100
AcDbEntity
  8
ProjItem202
100
AcDbLine
 10
-3037.22
 20
-568.758
 30
0
 11
-3001.87
 21
-589.171
 31
0
  0
LINE
  5
ADA
330
A02
100
AcDbEntity
  8
ProjItem202
100
AcDbLine
 10
-3731.6
 20
-1010.48
 30
0
 11
-3001.87
 21
-589.171
 31
0
  0
LINE
  5
ADB
330
A02
100
AcDbEntity
  8
ProjItem202
100
AcDbLine
 10
-3001.87
 20
-589.171
 30
0
 11
-3001.87
 21
-597.336
 31
0
  0
LINE
  5
ADC
330
A02
100
AcDbEntity
  8
ProjItem202
100
AcDbLine
 10
-3766.96
 20
-998.236
 30
0
 11
-3731.6
 21
-1018.65
 31
0
  0
LINE
  5
ADD
330
A02
100
AcDbEntity
  8
ProjItem202
100
AcDbLine
 10
-3001.87
 20
-597.336
 30
0
 11
-3731.6
 21
-1018.65
 31
0
  0
LINE
  5
ADE
330
A02
100
AcDbEntity
  8
ProjItem202
100
AcDbLine
 10
-3731.6
 20
-1018.65
 30
0
 11
-3731.6
 21
-1010.48
 31
0
  0
LINE
  5
ADF
330
A02
100
AcDbEntity
  8
ProjItem202
100
AcDbLine
 10
-1615.23
 20
994.697
 30
0
 11
-1579.88
 21
974.284
 31
0
  0
LINE
  5
AE0
330
A02
100
AcDbEntity
  8
ProjItem202
100
AcDbLine
 10
-1579.88
 20
966.119
 30
0
 11
-1579.88
 21
974.284
 31
0
  0
LINE
  5
AE1
330
A02
100
AcDbEntity
  8
ProjItem202
100
AcDbLine
 10
-2282.03
 20
601.554
 30
0
 11
-2246.68
 21
581.141
 31
0
  0
LINE
  5
AE2
330
A02
100
AcDbEntity
  8
ProjItem202
100
AcDbLine
 10
-2246.68
 20
581.141
 30
0
 11
-1579.88
 21
966.119
 31
0
  0
LINE
  5
AE3
330
A02
100
AcDbEntity
  8
ProjItem202
100
AcDbLine
 10
-2282.03
 20
609.719
 30
0
 11
-2246.68
 21
589.306
 31
0
  0
LINE
  5
AE4
330
A02
100
AcDbEntity
  8
ProjItem202
100
AcDbLine
 10
-2246.68
 20
589.306
 30
0
 11
-2246.68
 21
581.141
 31
0
  0
LINE
  5
AE5
330
A02
100
AcDbEntity
  8
ProjItem202
100
AcDbLine
 10
-1579.88
 20
974.284
 30
0
 11
-2246.68
 21
589.306
 31
0
  0
LINE
  5
AE6
330
A02
100
AcDbEntity
  8
ProjItem202
100
AcDbLine
 10
-2460.22
 20
209.853
 30
0
 11
-2424.87
 21
189.44
 31
0
  0
LINE
  5
AE7
330
A02
100
AcDbEntity
  8
ProjItem202
100
AcDbLine
 10
-2424.87
 20
181.276
 30
0
 11
-2424.87
 21
189.44
 31
0
  0
LINE
  5
AE8
330
A02
100
AcDbEntity
  8
ProjItem202
100
AcDbLine
 10
-2666.7
 20
82.4794
 30
0
 11
-2631.34
 21
62.067
 31
0
  0
LINE
  5
AE9
330
A02
100
AcDbEntity
  8
ProjItem202
100
AcDbLine
 10
-2631.34
 20
62.067
 30
0
 11
-2424.87
 21
181.276
 31
0
  0
LINE
  5
AEA
330
A02
100
AcDbEntity
  8
ProjItem202
100
AcDbLine
 10
-2666.7
 20
90.6444
 30
0
 11
-2631.34
 21
70.232
 31
0
  0
LINE
  5
AEB
330
A02
100
AcDbEntity
  8
ProjItem202
100
AcDbLine
 10
-2631.34
 20
70.232
 30
0
 11
-2631.34
 21
62.067
 31
0
  0
LINE
  5
AEC
330
A02
100
AcDbEntity
  8
ProjItem202
100
AcDbLine
 10
-2424.87
 20
189.44
 30
0
 11
-2631.34
 21
70.232
 31
0
  0
LINE
  5
AED
330
A02
100
AcDbEntity
  8
ProjItem202
100
AcDbLine
 10
-2844.89
 20
-309.221
 30
0
 11
-2809.54
 21
-329.634
 31
0
  0
LINE
  5
AEE
330
A02
100
AcDbEntity
  8
ProjItem202
100
AcDbLine
 10
-2809.54
 20
-337.799
 30
0
 11
-2809.54
 21
-329.634
 31
0
  0
LINE
  5
AEF
330
A02
100
AcDbEntity
  8
ProjItem202
100
AcDbLine
 10
-3051.37
 20
-436.595
 30
0
 11
-3016.01
 21
-457.007
 31
0
  0
LINE
  5
AF0
330
A02
100
AcDbEntity
  8
ProjItem202
100
AcDbLine
 10
-3016.01
 20
-457.007
 30
0
 11
-2809.54
 21
-337.799
 31
0
  0
LINE
  5
AF1
330
A02
100
AcDbEntity
  8
ProjItem202
100
AcDbLine
 10
-3051.37
 20
-428.43
 30
0
 11
-3016.01
 21
-448.842
 31
0
  0
LINE
  5
AF2
330
A02
100
AcDbEntity
  8
ProjItem202
100
AcDbLine
 10
-3016.01
 20
-448.842
 30
0
 11
-3016.01
 21
-457.007
 31
0
  0
LINE
  5
AF3
330
A02
100
AcDbEntity
  8
ProjItem202
100
AcDbLine
 10
-2809.54
 20
-329.634
 30
0
 11
-3016.01
 21
-448.842
 31
0
  0
LINE
  5
AF4
330
A02
100
AcDbEntity
  8
ProjItem202
100
AcDbLine
 10
-2652.56
 20
-49.6842
 30
0
 11
-2617.2
 21
-70.0966
 31
0
  0
LINE
  5
AF5
330
A02
100
AcDbEntity
  8
ProjItem202
100
AcDbLine
 10
-2617.2
 20
-78.2616
 30
0
 11
-2617.2
 21
-70.0966
 31
0
  0
LINE
  5
AF6
330
A02
100
AcDbEntity
  8
ProjItem202
100
AcDbLine
 10
-2859.03
 20
-177.058
 30
0
 11
-2823.68
 21
-197.47
 31
0
  0
LINE
  5
AF7
330
A02
100
AcDbEntity
  8
ProjItem202
100
AcDbLine
 10
-2823.68
 20
-197.47
 30
0
 11
-2617.2
 21
-78.2616
 31
0
  0
LINE
  5
AF8
330
A02
100
AcDbEntity
  8
ProjItem202
100
AcDbLine
 10
-2859.03
 20
-168.893
 30
0
 11
-2823.68
 21
-189.305
 31
0
  0
LINE
  5
AF9
330
A02
100
AcDbEntity
  8
ProjItem202
100
AcDbLine
 10
-2823.68
 20
-189.305
 30
0
 11
-2823.68
 21
-197.47
 31
0
  0
LINE
  5
AFA
330
A02
100
AcDbEntity
  8
ProjItem202
100
AcDbLine
 10
-2617.2
 20
-70.0966
 30
0
 11
-2823.68
 21
-189.305
 31
0
  0
LINE
  5
AFB
330
A02
100
AcDbEntity
  8
ProjItem202
100
AcDbLine
 10
-2267.89
 20
469.39
 30
0
 11
-2232.54
 21
448.978
 31
0
  0
LINE
  5
AFC
330
A02
100
AcDbEntity
  8
ProjItem202
100
AcDbLine
 10
-2232.54
 20
440.813
 30
0
 11
-2232.54
 21
448.978
 31
0
  0
LINE
  5
AFD
330
A02
100
AcDbEntity
  8
ProjItem202
100
AcDbLine
 10
-2474.37
 20
342.017
 30
0
 11
-2439.01
 21
321.604
 31
0
  0
LINE
  5
AFE
330
A02
100
AcDbEntity
  8
ProjItem202
100
AcDbLine
 10
-2439.01
 20
321.604
 30
0
 11
-2232.54
 21
440.813
 31
0
  0
LINE
  5
AFF
330
A02
100
AcDbEntity
  8
ProjItem202
100
AcDbLine
 10
-2474.37
 20
350.181
 30
0
 11
-2439.01
 21
329.769
 31
0
  0
LINE
  5
B00
330
A02
100
AcDbEntity
  8
ProjItem202
100
AcDbLine
 10
-2439.01
 20
329.769
 30
0
 11
-2439.01
 21
321.604
 31
0
  0
LINE
  5
B01
330
A02
100
AcDbEntity
  8
ProjItem202
100
AcDbLine
 10
-2232.54
 20
448.978
 30
0
 11
-2439.01
 21
329.769
 31
0
  0
ENDSEC
  0
SECTION
  2
OBJECTS
  0
DICTIONARY
  5
F000
330
0
100
AcDbDictionary
  3
ACAD_GROUP
350
F001
  0
DICTIONARY
  5
F001
330
F000
100
AcDbDictionary
  0
ENDSEC
  0
EOF