999
FreeCAD v0.21 33771 (Git)
  0
SECTION
  2
HEADER
  9
$ACADVER
  1
AC1014
  9
$ACADMAINTVER
 70
     9
  9
$DWGCODEPAGE
  3
ANSI_1252
  9
$TEXTSTYLE
  7
STANDARD
  9
$DIMSTYLE
  2
STANDARD
  9
$DIMTXSTY
  7
STANDARD
  9
$CMLSTYLE
  2
STANDARD
  9
$LUNITS
 70
2
  9
$INSUNITS
 70
4
  9
$PEXTMAX
 10
50
 20
50
 30
50
  9
$PEXTMIN
 10
0
 20
0
 30
0
  9
$HANDSEED
  5
FFFF
  0
ENDSEC
  0
SECTION
  2
CLASSES
  0
CLASS
  1
ACDBDICTIONARYWDFLT
  2
AcDbDictionaryWithDefault
  3
ObjectDBX Classes
 90
        0
280
     0
281
     0
  0
CLASS
  1
XRECORD
  2
AcDbXrecord
  3
ObjectDBX Classes
 90
        0
280
     0
281
     0
  0
CLASS
  1
LWPOLYLINE
  2
AcDbPolyline
  3
ObjectDBX Classes
 90
        0
280
     0
281
     1
  0
ENDSEC
  0
SECTION
  2
TABLES
  0
TABLE
  2
VPORT
  5
20
330
0
100
AcDbSymbolTable
 70
     1
  0
VPORT
  5
21
330
20
100
AcDbSymbolTableRecord
100
AcDbViewportTableRecord
  2
*ACTIVE
 70
     0
  0
ENDTAB
  0
TABLE
  2
LTYPE
  5
22
330
0
100
AcDbSymbolTable
 70
     1
  0
LTYPE
  5
23
330
21
100
AcDbSymbolTableRecord
100
AcDbLinetypeTableRecord
  2
BYBLOCK
 70
     0
  3

 72
    65
 73
     0
 40
0.0
  0
LTYPE
  5
24
330
21
100
AcDbSymbolTableRecord
100
AcDbLinetypeTableRecord
  2
BYLAYER
 70
     0
  3

 72
    65
 73
     0
 40
0.0
  0
LTYPE
  5
25
330
21
100
AcDbSymbolTableRecord
100
AcDbLinetypeTableRecord
  2
CONTINUOUS
 70
     0
  3
Solid line
 72
    65
 73
     0
 40
0.0
  0
ENDTAB
  0
TABLE
  2
LAYER
  5
B8F
330
0
100
AcDbSymbolTable
 70
5
  0
LAYER
  5
B90
330
B8F
100
AcDbSymbolTableRecord
100
AcDbLayerTableRecord
  2
0
 70
   0
 62
   7
  6
CONTINUOUS
  0
LAYER
  5
B91
330
B8F
100
AcDbSymbolTableRecord
100
AcDbLayerTableRecord
  2
ProjItem180
 70
    0
 62
    7
  6
CONTINUOUS
  0
LAYER
  5
B92
330
B8F
100
AcDbSymbolTableRecord
100
AcDbLayerTableRecord
  2
ProjItem182
 70
    0
 62
    7
  6
CONTINUOUS
  0
LAYER
  5
B93
330
B8F
100
AcDbSymbolTableRecord
100
AcDbLayerTableRecord
  2
ProjItem184
 70
    0
 62
    7
  6
CONTINUOUS
  0
LAYER
  5
B94
330
B8F
100
AcDbSymbolTableRecord
100
AcDbLayerTableRecord
  2
ProjItem181
 70
    0
 62
    7
  6
CONTINUOUS
  0
ENDTAB
  0
TABLE
  2
STYLE
  5
70
330
0
100
AcDbSymbolTable
 70
     2
  0
STYLE
  5
71
330
70
100
AcDbSymbolTableRecord
100
AcDbTextStyleTableRecord
  2
STANDARD
 70
     0
 40
0.0
 41
1.0
 50
0.0
 71
     0
 42
2.5
  3
arial.ttf
  4

  0
STYLE
  5
72
330
70
100
AcDbSymbolTableRecord
100
AcDbTextStyleTableRecord
  2
ANNOTATIVE
 70
     0
 40
0.0
 41
1.0
 50
0.0
 71
     0
 42
2.5
  3
arial.ttf
  4

  0
ENDTAB
  0
TABLE
  2
VIEW
  5
73
330
0
100
AcDbSymbolTable
 70
     0
  0
ENDTAB
  0
TABLE
  2
UCS
  5
74
330
0
100
AcDbSymbolTable
 70
     0
  0
ENDTAB
  0
TABLE
  2
APPID
  5
75
330
0
100
AcDbSymbolTable
 70
     2
  0
APPID
  5
76
330
75
100
AcDbSymbolTableRecord
100
AcDbRegAppTableRecord
  2
ACAD
 70
     0
  0
APPID
  5
77
330
75
100
AcDbSymbolTableRecord
100
AcDbRegAppTableRecord
  2
ACADANNOTATIVE
 70
     0
  0
ENDTAB
  0
TABLE
  2
DIMSTYLE
  5
78
330
0
100
AcDbSymbolTable
 70
     2
  0
DIMSTYLE
105
79
330
78
100
AcDbSymbolTableRecord
100
AcDbDimStyleTableRecord
  2
STANDARD
 70
     0
  3

  4

  5

  6

  7

 40
0.0
 41
2.5
 42
0.625
 43
3.75
 44
1.25
 45
0.0
 46
0.0
 47
0.0
 48
0.0
140
2.5
141
2.5
142
0.0
143
0.03937007874016
144
1.0
145
0.0
146
1.0
147
0.625
 71
     0
 72
     0
 73
     0
 74
     0
 75
     0
 76
     0
 77
     1
 78
     8
170
     0
171
     3
172
     1
173
     0
174
     0
175
     0
176
     0
177
     0
178
     0
270
     2
271
     2
272
     2
273
     2
274
     3
340
71
275
     0
280
     0
281
     0
282
     0
283
     0
284
     8
285
     0
286
     0
287
     3
288
     0
  0
ENDTAB
  0
TABLE
  2
BLOCK_RECORD
  5
A01
330
0
100
AcDbSymbolTable
  70
5
  0
BLOCK_RECORD
  5
A02
330
A01
100
AcDbSymbolTableRecord
100
AcDbBlockTableRecord
  2
*MODEL_SPACE
  0
BLOCK_RECORD
  5
A03
330
A01
100
AcDbSymbolTableRecord
100
AcDbBlockTableRecord
  2
*PAPER_SPACE
  0
ENDTAB
  0
ENDSEC
  0
SECTION
  2
BLOCKS
  0
BLOCK
  5
A04
330
A02
100
AcDbEntity
  8
0
100
AcDbBlockBegin
  2
*MODEL_SPACE
 70
   0
 10
0
 20
0
 30
0
  3
*MODEL_SPACE
  1
 
  0
ENDBLK
  5
A05
330
A02
100
AcDbEntity
  8
0
100
AcDbBlockEnd
  0
BLOCK
  5
A06
330
A03
100
AcDbEntity
 67
1
  8
0
100
AcDbBlockBegin
  2
*PAPER_SPACE
 70
   0
 10
0
 20
0
 30
0
  3
*PAPER_SPACE
  1
 
  0
ENDBLK
  5
A07
330
A03
100
AcDbEntity
 67
    1
  8
0
100
AcDbBlockEnd
  0
ENDSEC
  0
SECTION
  2
ENTITIES
  0
LINE
  5
A08
330
A02
100
AcDbEntity
  8
ProjItem180
100
AcDbLine
 10
1709.53
 20
-578.853
 30
0
 11
2009.53
 21
-578.853
 31
0
  0
LINE
  5
A09
330
A02
100
AcDbEntity
  8
ProjItem180
100
AcDbLine
 10
1709.53
 20
-568.853
 30
0
 11
1709.53
 21
-578.853
 31
0
  0
LINE
  5
A0A
330
A02
100
AcDbEntity
  8
ProjItem180
100
AcDbLine
 10
2009.53
 20
-578.853
 30
0
 11
2009.53
 21
-568.853
 31
0
  0
LINE
  5
A0B
330
A02
100
AcDbEntity
  8
ProjItem180
100
AcDbLine
 10
-1069.45
 20
1855.61
 30
0
 11
-1081.45
 21
1855.61
 31
0
  0
LINE
  5
A0C
330
A02
100
AcDbEntity
  8
ProjItem180
100
AcDbLine
 10
-1069.45
 20
1855.61
 30
0
 11
-1069.45
 21
1925.61
 31
0
  0
LINE
  5
A0D
330
A02
100
AcDbEntity
  8
ProjItem180
100
AcDbLine
 10
-1081.45
 20
1687.58
 30
0
 11
-1081.45
 21
1855.61
 31
0
  0
LINE
  5
A0E
330
A02
100
AcDbEntity
  8
ProjItem180
100
AcDbLine
 10
-1069.45
 20
1925.61
 30
0
 11
-1066.35
 21
1925.61
 31
0
  0
LINE
  5
A0F
330
A02
100
AcDbEntity
  8
ProjItem180
100
AcDbLine
 10
1442.69
 20
207.053
 30
0
 11
-1066.35
 21
1925.61
 31
0
  0
LINE
  5
A10
330
A02
100
AcDbEntity
  8
ProjItem180
100
AcDbLine
 10
1829.53
 20
-518.853
 30
0
 11
1442.69
 21
207.053
 31
0
  0
LINE
  5
A11
330
A02
100
AcDbEntity
  8
ProjItem180
100
AcDbLine
 10
1829.53
 20
-568.853
 30
0
 11
1829.53
 21
-518.853
 31
0
  0
LINE
  5
A12
330
A02
100
AcDbEntity
  8
ProjItem180
100
AcDbLine
 10
-1081.45
 20
1632.93
 30
0
 11
-1081.45
 21
1677.58
 31
0
  0
LINE
  5
A13
330
A02
100
AcDbEntity
  8
ProjItem180
100
AcDbLine
 10
-1081.45
 20
1632.93
 30
0
 11
1250.87
 21
35.4154
 31
0
  0
LINE
  5
A14
330
A02
100
AcDbEntity
  8
ProjItem180
100
AcDbLine
 10
1250.87
 20
35.4154
 30
0
 11
1579.53
 21
-581.308
 31
0
  0
LINE
  5
A15
330
A02
100
AcDbEntity
  8
ProjItem180
100
AcDbLine
 10
1579.53
 20
-581.308
 30
0
 11
1579.53
 21
-834.888
 31
0
  0
LINE
  5
A16
330
A02
100
AcDbEntity
  8
ProjItem180
100
AcDbLine
 10
1829.53
 20
-834.888
 30
0
 11
1829.53
 21
-578.853
 31
0
  0
CIRCLE
  5
A17
330
A02
100
AcDbEntity
  8
ProjItem180
100
AcDbCircle
 10
1749.59
 20
-667.848
 40
5.5
  0
CIRCLE
  5
A18
330
A02
100
AcDbEntity
  8
ProjItem180
100
AcDbCircle
 10
1749.59
 20
-617.848
 40
5.5
  0
CIRCLE
  5
A19
330
A02
100
AcDbEntity
  8
ProjItem180
100
AcDbCircle
 10
811.58
 20
436.536
 40
5.5
  0
CIRCLE
  5
A1A
330
A02
100
AcDbEntity
  8
ProjItem180
100
AcDbCircle
 10
861.58
 20
436.536
 40
5.5
  0
CIRCLE
  5
A1B
330
A02
100
AcDbEntity
  8
ProjItem180
100
AcDbCircle
 10
811.58
 20
486.536
 40
5.5
  0
CIRCLE
  5
A1C
330
A02
100
AcDbEntity
  8
ProjItem180
100
AcDbCircle
 10
861.58
 20
486.536
 40
5.5
  0
CIRCLE
  5
A1D
330
A02
100
AcDbEntity
  8
ProjItem180
100
AcDbCircle
 10
-126.433
 20
1036.6
 40
5.5
  0
CIRCLE
  5
A1E
330
A02
100
AcDbEntity
  8
ProjItem180
100
AcDbCircle
 10
-76.4334
 20
1036.6
 40
5.5
  0
CIRCLE
  5
A1F
330
A02
100
AcDbEntity
  8
ProjItem180
100
AcDbCircle
 10
-126.433
 20
1086.6
 40
5.5
  0
CIRCLE
  5
A20
330
A02
100
AcDbEntity
  8
ProjItem180
100
AcDbCircle
 10
-76.4334
 20
1086.6
 40
5.5
  0
CIRCLE
  5
A21
330
A02
100
AcDbEntity
  8
ProjItem180
100
AcDbCircle
 10
-1014.45
 20
1776.06
 40
5.5
  0
CIRCLE
  5
A22
330
A02
100
AcDbEntity
  8
ProjItem180
100
AcDbCircle
 10
-1014.45
 20
1826.06
 40
5.5
  0
LINE
  5
A23
330
A02
100
AcDbEntity
  8
ProjItem180
100
AcDbLine
 10
2009.53
 20
-568.853
 30
0
 11
1709.53
 21
-568.853
 31
0
  0
LINE
  5
A24
330
A02
100
AcDbEntity
  8
ProjItem180
100
AcDbLine
 10
-804.921
 20
1687.58
 30
0
 11
-1099.45
 21
1687.58
 31
0
  0
LINE
  5
A25
330
A02
100
AcDbEntity
  8
ProjItem180
100
AcDbLine
 10
-804.921
 20
1677.58
 30
0
 11
-804.921
 21
1687.58
 31
0
  0
LINE
  5
A26
330
A02
100
AcDbEntity
  8
ProjItem180
100
AcDbLine
 10
-1099.45
 20
1677.58
 30
0
 11
-804.921
 21
1677.58
 31
0
  0
LINE
  5
A27
330
A02
100
AcDbEntity
  8
ProjItem180
100
AcDbLine
 10
1829.53
 20
-846.888
 30
0
 11
1829.53
 21
-834.888
 31
0
  0
LINE
  5
A28
330
A02
100
AcDbEntity
  8
ProjItem180
100
AcDbLine
 10
1579.53
 20
-846.888
 30
0
 11
1579.53
 21
-834.888
 31
0
  0
LINE
  5
A29
330
A02
100
AcDbEntity
  8
ProjItem180
100
AcDbLine
 10
1829.53
 20
-834.888
 30
0
 11
1579.53
 21
-834.888
 31
0
  0
LINE
  5
A2A
330
A02
100
AcDbEntity
  8
ProjItem180
100
AcDbLine
 10
1668.55
 20
-380.817
 30
0
 11
1597.74
 21
-380.817
 31
0
  0
LINE
  5
A2B
330
A02
100
AcDbEntity
  8
ProjItem180
100
AcDbLine
 10
1668.55
 20
-390.817
 30
0
 11
1668.55
 21
-380.817
 31
0
  0
LINE
  5
A2C
330
A02
100
AcDbEntity
  8
ProjItem180
100
AcDbLine
 10
1597.74
 20
-380.817
 30
0
 11
1597.74
 21
-390.817
 31
0
  0
LINE
  5
A2D
330
A02
100
AcDbEntity
  8
ProjItem180
100
AcDbLine
 10
1597.74
 20
-390.817
 30
0
 11
1668.55
 21
-390.817
 31
0
  0
LINE
  5
A2E
330
A02
100
AcDbEntity
  8
ProjItem180
100
AcDbLine
 10
1580.54
 20
-192.781
 30
0
 11
1475.39
 21
-192.781
 31
0
  0
LINE
  5
A2F
330
A02
100
AcDbEntity
  8
ProjItem180
100
AcDbLine
 10
1580.54
 20
-202.781
 30
0
 11
1580.54
 21
-192.781
 31
0
  0
LINE
  5
A30
330
A02
100
AcDbEntity
  8
ProjItem180
100
AcDbLine
 10
1475.39
 20
-192.781
 30
0
 11
1475.39
 21
-202.781
 31
0
  0
LINE
  5
A31
330
A02
100
AcDbEntity
  8
ProjItem180
100
AcDbLine
 10
1475.39
 20
-202.781
 30
0
 11
1580.54
 21
-202.781
 31
0
  0
LINE
  5
A32
330
A02
100
AcDbEntity
  8
ProjItem180
100
AcDbLine
 10
842.234
 20
559.362
 30
0
 11
547.708
 21
559.362
 31
0
  0
LINE
  5
A33
330
A02
100
AcDbEntity
  8
ProjItem180
100
AcDbLine
 10
842.234
 20
549.362
 30
0
 11
842.234
 21
559.362
 31
0
  0
LINE
  5
A34
330
A02
100
AcDbEntity
  8
ProjItem180
100
AcDbLine
 10
547.708
 20
559.362
 30
0
 11
547.708
 21
549.362
 31
0
  0
LINE
  5
A35
330
A02
100
AcDbEntity
  8
ProjItem180
100
AcDbLine
 10
547.708
 20
549.362
 30
0
 11
842.234
 21
549.362
 31
0
  0
LINE
  5
A36
330
A02
100
AcDbEntity
  8
ProjItem180
100
AcDbLine
 10
1116.76
 20
371.326
 30
0
 11
822.234
 21
371.326
 31
0
  0
LINE
  5
A37
330
A02
100
AcDbEntity
  8
ProjItem180
100
AcDbLine
 10
1116.76
 20
361.326
 30
0
 11
1116.76
 21
371.326
 31
0
  0
LINE
  5
A38
330
A02
100
AcDbEntity
  8
ProjItem180
100
AcDbLine
 10
822.234
 20
371.326
 30
0
 11
822.234
 21
361.326
 31
0
  0
LINE
  5
A39
330
A02
100
AcDbEntity
  8
ProjItem180
100
AcDbLine
 10
822.234
 20
361.326
 30
0
 11
1116.76
 21
361.326
 31
0
  0
LINE
  5
A3A
330
A02
100
AcDbEntity
  8
ProjItem180
100
AcDbLine
 10
1347.81
 20
183.29
 30
0
 11
1096.76
 21
183.29
 31
0
  0
LINE
  5
A3B
330
A02
100
AcDbEntity
  8
ProjItem180
100
AcDbLine
 10
1347.81
 20
173.29
 30
0
 11
1347.81
 21
183.29
 31
0
  0
LINE
  5
A3C
330
A02
100
AcDbEntity
  8
ProjItem180
100
AcDbLine
 10
1096.76
 20
183.29
 30
0
 11
1096.76
 21
173.29
 31
0
  0
LINE
  5
A3D
330
A02
100
AcDbEntity
  8
ProjItem180
100
AcDbLine
 10
1096.76
 20
173.29
 30
0
 11
1347.81
 21
173.29
 31
0
  0
LINE
  5
A3E
330
A02
100
AcDbEntity
  8
ProjItem180
100
AcDbLine
 10
1478.91
 20
-4.74542
 30
0
 11
1337.61
 21
-4.74542
 31
0
  0
LINE
  5
A3F
330
A02
100
AcDbEntity
  8
ProjItem180
100
AcDbLine
 10
1478.91
 20
-14.7454
 30
0
 11
1478.91
 21
-4.74542
 31
0
  0
LINE
  5
A40
330
A02
100
AcDbEntity
  8
ProjItem180
100
AcDbLine
 10
1337.61
 20
-4.74542
 30
0
 11
1337.61
 21
-14.7454
 31
0
  0
LINE
  5
A41
330
A02
100
AcDbEntity
  8
ProjItem180
100
AcDbLine
 10
1337.61
 20
-14.7454
 30
0
 11
1478.91
 21
-14.7454
 31
0
  0
LINE
  5
A42
330
A02
100
AcDbEntity
  8
ProjItem180
100
AcDbLine
 10
18.6563
 20
1123.47
 30
0
 11
-275.869
 21
1123.47
 31
0
  0
LINE
  5
A43
330
A02
100
AcDbEntity
  8
ProjItem180
100
AcDbLine
 10
18.6563
 20
1113.47
 30
0
 11
18.6563
 21
1123.47
 31
0
  0
LINE
  5
A44
330
A02
100
AcDbEntity
  8
ProjItem180
100
AcDbLine
 10
-275.869
 20
1123.47
 30
0
 11
-275.869
 21
1113.47
 31
0
  0
LINE
  5
A45
330
A02
100
AcDbEntity
  8
ProjItem180
100
AcDbLine
 10
-275.869
 20
1113.47
 30
0
 11
18.6563
 21
1113.47
 31
0
  0
LINE
  5
A46
330
A02
100
AcDbEntity
  8
ProjItem180
100
AcDbLine
 10
293.182
 20
935.433
 30
0
 11
-1.34369
 21
935.433
 31
0
  0
LINE
  5
A47
330
A02
100
AcDbEntity
  8
ProjItem180
100
AcDbLine
 10
293.182
 20
925.433
 30
0
 11
293.182
 21
935.433
 31
0
  0
LINE
  5
A48
330
A02
100
AcDbEntity
  8
ProjItem180
100
AcDbLine
 10
-1.34369
 20
935.433
 30
0
 11
-1.34369
 21
925.433
 31
0
  0
LINE
  5
A49
330
A02
100
AcDbEntity
  8
ProjItem180
100
AcDbLine
 10
-1.34369
 20
925.433
 30
0
 11
293.182
 21
925.433
 31
0
  0
LINE
  5
A4A
330
A02
100
AcDbEntity
  8
ProjItem180
100
AcDbLine
 10
-530.395
 20
1499.54
 30
0
 11
-824.921
 21
1499.54
 31
0
  0
LINE
  5
A4B
330
A02
100
AcDbEntity
  8
ProjItem180
100
AcDbLine
 10
-530.395
 20
1489.54
 30
0
 11
-530.395
 21
1499.54
 31
0
  0
LINE
  5
A4C
330
A02
100
AcDbEntity
  8
ProjItem180
100
AcDbLine
 10
-824.921
 20
1499.54
 30
0
 11
-824.921
 21
1489.54
 31
0
  0
LINE
  5
A4D
330
A02
100
AcDbEntity
  8
ProjItem180
100
AcDbLine
 10
-824.921
 20
1489.54
 30
0
 11
-530.395
 21
1489.54
 31
0
  0
LINE
  5
A4E
330
A02
100
AcDbEntity
  8
ProjItem180
100
AcDbLine
 10
-255.869
 20
1311.5
 30
0
 11
-550.395
 21
1311.5
 31
0
  0
LINE
  5
A4F
330
A02
100
AcDbEntity
  8
ProjItem180
100
AcDbLine
 10
-255.869
 20
1301.5
 30
0
 11
-255.869
 21
1311.5
 31
0
  0
LINE
  5
A50
330
A02
100
AcDbEntity
  8
ProjItem180
100
AcDbLine
 10
-550.395
 20
1311.5
 30
0
 11
-550.395
 21
1301.5
 31
0
  0
LINE
  5
A51
330
A02
100
AcDbEntity
  8
ProjItem180
100
AcDbLine
 10
-550.395
 20
1301.5
 30
0
 11
-255.869
 21
1301.5
 31
0
  0
LINE
  5
A52
330
A02
100
AcDbEntity
  8
ProjItem180
100
AcDbLine
 10
567.708
 20
747.397
 30
0
 11
273.182
 21
747.397
 31
0
  0
LINE
  5
A53
330
A02
100
AcDbEntity
  8
ProjItem180
100
AcDbLine
 10
567.708
 20
737.397
 30
0
 11
567.708
 21
747.397
 31
0
  0
LINE
  5
A54
330
A02
100
AcDbEntity
  8
ProjItem180
100
AcDbLine
 10
273.182
 20
747.397
 30
0
 11
273.182
 21
737.397
 31
0
  0
LINE
  5
A55
330
A02
100
AcDbEntity
  8
ProjItem180
100
AcDbLine
 10
273.182
 20
737.397
 30
0
 11
567.708
 21
737.397
 31
0
  0
LINE
  5
A56
330
A02
100
AcDbEntity
  8
ProjItem180
100
AcDbLine
 10
-1099.45
 20
1687.58
 30
0
 11
-1099.45
 21
1677.58
 31
0
  0
LINE
  5
A57
330
A02
100
AcDbEntity
  8
ProjItem180
100
AcDbLine
 10
1579.53
 20
-846.888
 30
0
 11
1829.53
 21
-846.888
 31
0
  0
LINE
  5
A58
330
A02
100
AcDbEntity
  8
ProjItem182
100
AcDbLine
 10
2391.5
 20
-578.853
 30
0
 11
2441.5
 21
-578.853
 31
0
  0
LINE
  5
A59
330
A02
100
AcDbEntity
  8
ProjItem182
100
AcDbLine
 10
2391.5
 20
-568.853
 30
0
 11
2441.5
 21
-568.853
 31
0
  0
LINE
  5
A5A
330
A02
100
AcDbEntity
  8
ProjItem182
100
AcDbLine
 10
2441.5
 20
-568.853
 30
0
 11
2441.5
 21
-578.853
 31
0
  0
LINE
  5
A5B
330
A02
100
AcDbEntity
  8
ProjItem182
100
AcDbLine
 10
2391.5
 20
1855.61
 30
0
 11
2391.5
 21
1925.61
 31
0
  0
LINE
  5
A5C
330
A02
100
AcDbEntity
  8
ProjItem182
100
AcDbLine
 10
2391.5
 20
1687.58
 30
0
 11
2391.5
 21
1855.61
 31
0
  0
LINE
  5
A5D
330
A02
100
AcDbEntity
  8
ProjItem182
100
AcDbLine
 10
2391.5
 20
1632.93
 30
0
 11
2391.5
 21
1677.58
 31
0
  0
LINE
  5
A5E
330
A02
100
AcDbEntity
  8
ProjItem182
100
AcDbLine
 10
2391.5
 20
1632.93
 30
0
 11
2391.5
 21
35.4154
 31
0
  0
LINE
  5
A5F
330
A02
100
AcDbEntity
  8
ProjItem182
100
AcDbLine
 10
2391.5
 20
35.4154
 30
0
 11
2391.5
 21
-581.308
 31
0
  0
LINE
  5
A60
330
A02
100
AcDbEntity
  8
ProjItem182
100
AcDbLine
 10
2391.5
 20
-581.308
 30
0
 11
2391.5
 21
-834.888
 31
0
  0
LINE
  5
A61
330
A02
100
AcDbEntity
  8
ProjItem182
100
AcDbLine
 10
2391.5
 20
1855.61
 30
0
 11
2205.5
 21
1855.61
 31
0
  0
LINE
  5
A62
330
A02
100
AcDbEntity
  8
ProjItem182
100
AcDbLine
 10
2391.5
 20
1925.61
 30
0
 11
2379.5
 21
1925.61
 31
0
  0
LINE
  5
A63
330
A02
100
AcDbEntity
  8
ProjItem182
100
AcDbLine
 10
2379.5
 20
1925.61
 30
0
 11
2379.5
 21
1855.61
 31
0
  0
LINE
  5
A64
330
A02
100
AcDbEntity
  8
ProjItem182
100
AcDbLine
 10
2205.5
 20
1855.61
 30
0
 11
2205.5
 21
1675.61
 31
0
  0
LINE
  5
A65
330
A02
100
AcDbEntity
  8
ProjItem182
100
AcDbLine
 10
2379.5
 20
1675.61
 30
0
 11
2205.5
 21
1675.61
 31
0
  0
LINE
  5
A66
330
A02
100
AcDbEntity
  8
ProjItem182
100
AcDbLine
 10
2379.5
 20
1675.61
 30
0
 11
2379.5
 21
1632.93
 31
0
  0
LINE
  5
A67
330
A02
100
AcDbEntity
  8
ProjItem182
100
AcDbLine
 10
2379.5
 20
1632.93
 30
0
 11
2391.5
 21
1632.93
 31
0
  0
CIRCLE
  5
A68
330
A02
100
AcDbEntity
  8
ProjItem182
100
AcDbCircle
 10
2346.5
 20
1715.61
 40
7
  0
CIRCLE
  5
A69
330
A02
100
AcDbEntity
  8
ProjItem182
100
AcDbCircle
 10
2250.5
 20
1715.61
 40
7
  0
CIRCLE
  5
A6A
330
A02
100
AcDbEntity
  8
ProjItem182
100
AcDbCircle
 10
2346.5
 20
1815.61
 40
7
  0
CIRCLE
  5
A6B
330
A02
100
AcDbEntity
  8
ProjItem182
100
AcDbCircle
 10
2250.5
 20
1815.61
 40
7
  0
LINE
  5
A6C
330
A02
100
AcDbEntity
  8
ProjItem182
100
AcDbLine
 10
2391.5
 20
1687.58
 30
0
 11
2441.5
 21
1687.58
 31
0
  0
LINE
  5
A6D
330
A02
100
AcDbEntity
  8
ProjItem182
100
AcDbLine
 10
2391.5
 20
1677.58
 30
0
 11
2441.5
 21
1677.58
 31
0
  0
LINE
  5
A6E
330
A02
100
AcDbEntity
  8
ProjItem182
100
AcDbLine
 10
2391.5
 20
35.4154
 30
0
 11
2379.5
 21
35.4154
 31
0
  0
LINE
  5
A6F
330
A02
100
AcDbEntity
  8
ProjItem182
100
AcDbLine
 10
2379.5
 20
1632.93
 30
0
 11
2379.5
 21
35.4154
 31
0
  0
LINE
  5
A70
330
A02
100
AcDbEntity
  8
ProjItem182
100
AcDbLine
 10
2391.5
 20
-581.308
 30
0
 11
2379.5
 21
-581.308
 31
0
  0
LINE
  5
A71
330
A02
100
AcDbEntity
  8
ProjItem182
100
AcDbLine
 10
2379.5
 20
35.4154
 30
0
 11
2379.5
 21
-581.308
 31
0
  0
LINE
  5
A72
330
A02
100
AcDbEntity
  8
ProjItem182
100
AcDbLine
 10
2471.5
 20
-834.888
 30
0
 11
2391.5
 21
-834.888
 31
0
  0
LINE
  5
A73
330
A02
100
AcDbEntity
  8
ProjItem182
100
AcDbLine
 10
2471.5
 20
-846.888
 30
0
 11
2471.5
 21
-834.888
 31
0
  0
LINE
  5
A74
330
A02
100
AcDbEntity
  8
ProjItem182
100
AcDbLine
 10
2471.5
 20
-846.888
 30
0
 11
2379.5
 21
-846.888
 31
0
  0
LINE
  5
A75
330
A02
100
AcDbEntity
  8
ProjItem182
100
AcDbLine
 10
2379.5
 20
-581.308
 30
0
 11
2379.5
 21
-846.888
 31
0
  0
LINE
  5
A76
330
A02
100
AcDbEntity
  8
ProjItem182
100
AcDbLine
 10
2391.5
 20
-380.817
 30
0
 11
2441.5
 21
-380.817
 31
0
  0
LINE
  5
A77
330
A02
100
AcDbEntity
  8
ProjItem182
100
AcDbLine
 10
2391.5
 20
-390.817
 30
0
 11
2441.5
 21
-390.817
 31
0
  0
LINE
  5
A78
330
A02
100
AcDbEntity
  8
ProjItem182
100
AcDbLine
 10
2441.5
 20
-380.817
 30
0
 11
2441.5
 21
-390.817
 31
0
  0
LINE
  5
A79
330
A02
100
AcDbEntity
  8
ProjItem182
100
AcDbLine
 10
2391.5
 20
-192.781
 30
0
 11
2441.5
 21
-192.781
 31
0
  0
LINE
  5
A7A
330
A02
100
AcDbEntity
  8
ProjItem182
100
AcDbLine
 10
2391.5
 20
-202.781
 30
0
 11
2441.5
 21
-202.781
 31
0
  0
LINE
  5
A7B
330
A02
100
AcDbEntity
  8
ProjItem182
100
AcDbLine
 10
2441.5
 20
-192.781
 30
0
 11
2441.5
 21
-202.781
 31
0
  0
LINE
  5
A7C
330
A02
100
AcDbEntity
  8
ProjItem182
100
AcDbLine
 10
2391.5
 20
559.362
 30
0
 11
2441.5
 21
559.362
 31
0
  0
LINE
  5
A7D
330
A02
100
AcDbEntity
  8
ProjItem182
100
AcDbLine
 10
2391.5
 20
549.362
 30
0
 11
2441.5
 21
549.362
 31
0
  0
LINE
  5
A7E
330
A02
100
AcDbEntity
  8
ProjItem182
100
AcDbLine
 10
2441.5
 20
559.362
 30
0
 11
2441.5
 21
549.362
 31
0
  0
LINE
  5
A7F
330
A02
100
AcDbEntity
  8
ProjItem182
100
AcDbLine
 10
2391.5
 20
371.326
 30
0
 11
2441.5
 21
371.326
 31
0
  0
LINE
  5
A80
330
A02
100
AcDbEntity
  8
ProjItem182
100
AcDbLine
 10
2391.5
 20
361.326
 30
0
 11
2441.5
 21
361.326
 31
0
  0
LINE
  5
A81
330
A02
100
AcDbEntity
  8
ProjItem182
100
AcDbLine
 10
2441.5
 20
371.326
 30
0
 11
2441.5
 21
361.326
 31
0
  0
LINE
  5
A82
330
A02
100
AcDbEntity
  8
ProjItem182
100
AcDbLine
 10
2391.5
 20
183.29
 30
0
 11
2441.5
 21
183.29
 31
0
  0
LINE
  5
A83
330
A02
100
AcDbEntity
  8
ProjItem182
100
AcDbLine
 10
2391.5
 20
173.29
 30
0
 11
2441.5
 21
173.29
 31
0
  0
LINE
  5
A84
330
A02
100
AcDbEntity
  8
ProjItem182
100
AcDbLine
 10
2441.5
 20
183.29
 30
0
 11
2441.5
 21
173.29
 31
0
  0
LINE
  5
A85
330
A02
100
AcDbEntity
  8
ProjItem182
100
AcDbLine
 10
2391.5
 20
-4.74542
 30
0
 11
2441.5
 21
-4.74542
 31
0
  0
LINE
  5
A86
330
A02
100
AcDbEntity
  8
ProjItem182
100
AcDbLine
 10
2391.5
 20
-14.7454
 30
0
 11
2441.5
 21
-14.7454
 31
0
  0
LINE
  5
A87
330
A02
100
AcDbEntity
  8
ProjItem182
100
AcDbLine
 10
2441.5
 20
-4.74542
 30
0
 11
2441.5
 21
-14.7454
 31
0
  0
LINE
  5
A88
330
A02
100
AcDbEntity
  8
ProjItem182
100
AcDbLine
 10
2391.5
 20
1123.47
 30
0
 11
2441.5
 21
1123.47
 31
0
  0
LINE
  5
A89
330
A02
100
AcDbEntity
  8
ProjItem182
100
AcDbLine
 10
2391.5
 20
1113.47
 30
0
 11
2441.5
 21
1113.47
 31
0
  0
LINE
  5
A8A
330
A02
100
AcDbEntity
  8
ProjItem182
100
AcDbLine
 10
2441.5
 20
1123.47
 30
0
 11
2441.5
 21
1113.47
 31
0
  0
LINE
  5
A8B
330
A02
100
AcDbEntity
  8
ProjItem182
100
AcDbLine
 10
2391.5
 20
935.433
 30
0
 11
2441.5
 21
935.433
 31
0
  0
LINE
  5
A8C
330
A02
100
AcDbEntity
  8
ProjItem182
100
AcDbLine
 10
2391.5
 20
925.433
 30
0
 11
2441.5
 21
925.433
 31
0
  0
LINE
  5
A8D
330
A02
100
AcDbEntity
  8
ProjItem182
100
AcDbLine
 10
2441.5
 20
935.433
 30
0
 11
2441.5
 21
925.433
 31
0
  0
LINE
  5
A8E
330
A02
100
AcDbEntity
  8
ProjItem182
100
AcDbLine
 10
2391.5
 20
1499.54
 30
0
 11
2441.5
 21
1499.54
 31
0
  0
LINE
  5
A8F
330
A02
100
AcDbEntity
  8
ProjItem182
100
AcDbLine
 10
2391.5
 20
1489.54
 30
0
 11
2441.5
 21
1489.54
 31
0
  0
LINE
  5
A90
330
A02
100
AcDbEntity
  8
ProjItem182
100
AcDbLine
 10
2441.5
 20
1499.54
 30
0
 11
2441.5
 21
1489.54
 31
0
  0
LINE
  5
A91
330
A02
100
AcDbEntity
  8
ProjItem182
100
AcDbLine
 10
2391.5
 20
1311.5
 30
0
 11
2441.5
 21
1311.5
 31
0
  0
LINE
  5
A92
330
A02
100
AcDbEntity
  8
ProjItem182
100
AcDbLine
 10
2391.5
 20
1301.5
 30
0
 11
2441.5
 21
1301.5
 31
0
  0
LINE
  5
A93
330
A02
100
AcDbEntity
  8
ProjItem182
100
AcDbLine
 10
2441.5
 20
1311.5
 30
0
 11
2441.5
 21
1301.5
 31
0
  0
LINE
  5
A94
330
A02
100
AcDbEntity
  8
ProjItem182
100
AcDbLine
 10
2391.5
 20
747.397
 30
0
 11
2441.5
 21
747.397
 31
0
  0
LINE
  5
A95
330
A02
100
AcDbEntity
  8
ProjItem182
100
AcDbLine
 10
2391.5
 20
737.397
 30
0
 11
2441.5
 21
737.397
 31
0
  0
LINE
  5
A96
330
A02
100
AcDbEntity
  8
ProjItem182
100
AcDbLine
 10
2441.5
 20
747.397
 30
0
 11
2441.5
 21
737.397
 31
0
  0
LINE
  5
A97
330
A02
100
AcDbEntity
  8
ProjItem182
100
AcDbLine
 10
2391.5
 20
1687.58
 30
0
 11
2391.5
 21
1677.58
 31
0
  0
LINE
  5
A98
330
A02
100
AcDbEntity
  8
ProjItem182
100
AcDbLine
 10
2441.5
 20
1687.58
 30
0
 11
2441.5
 21
1677.58
 31
0
  0
LINE
  5
A99
330
A02
100
AcDbEntity
  8
ProjItem184
100
AcDbLine
 10
2009.53
 20
2282.62
 30
0
 11
2009.53
 21
2332.62
 31
0
  0
LINE
  5
A9A
330
A02
100
AcDbEntity
  8
ProjItem184
100
AcDbLine
 10
1829.53
 20
2282.62
 30
0
 11
2009.53
 21
2282.62
 31
0
  0
LINE
  5
A9B
330
A02
100
AcDbEntity
  8
ProjItem184
100
AcDbLine
 10
1829.53
 20
2332.62
 30
0
 11
2009.53
 21
2332.62
 31
0
  0
LINE
  5
A9C
330
A02
100
AcDbEntity
  8
ProjItem184
100
AcDbLine
 10
-1081.45
 20
2282.62
 30
0
 11
1250.87
 21
2282.62
 31
0
  0
LINE
  5
A9D
330
A02
100
AcDbEntity
  8
ProjItem184
100
AcDbLine
 10
1250.87
 20
2282.62
 30
0
 11
1579.53
 21
2282.62
 31
0
  0
LINE
  5
A9E
330
A02
100
AcDbEntity
  8
ProjItem184
100
AcDbLine
 10
-1081.45
 20
2270.62
 30
0
 11
-1081.45
 21
2096.62
 31
0
  0
LINE
  5
A9F
330
A02
100
AcDbEntity
  8
ProjItem184
100
AcDbLine
 10
-1081.45
 20
2270.62
 30
0
 11
-1081.45
 21
2282.62
 31
0
  0
LINE
  5
AA0
330
A02
100
AcDbEntity
  8
ProjItem184
100
AcDbLine
 10
-1099.45
 20
2282.62
 30
0
 11
-1099.45
 21
2332.62
 31
0
  0
LINE
  5
AA1
330
A02
100
AcDbEntity
  8
ProjItem184
100
AcDbLine
 10
-1099.45
 20
2282.62
 30
0
 11
-1081.45
 21
2282.62
 31
0
  0
LINE
  5
AA2
330
A02
100
AcDbEntity
  8
ProjItem184
100
AcDbLine
 10
-1099.45
 20
2332.62
 30
0
 11
-824.921
 21
2332.62
 31
0
  0
LINE
  5
AA3
330
A02
100
AcDbEntity
  8
ProjItem184
100
AcDbLine
 10
1829.53
 20
2362.62
 30
0
 11
1829.53
 21
2270.62
 31
0
  0
LINE
  5
AA4
330
A02
100
AcDbEntity
  8
ProjItem184
100
AcDbLine
 10
1250.87
 20
2282.62
 30
0
 11
1250.87
 21
2270.62
 31
0
  0
LINE
  5
AA5
330
A02
100
AcDbEntity
  8
ProjItem184
100
AcDbLine
 10
-1081.45
 20
2270.62
 30
0
 11
1250.87
 21
2270.62
 31
0
  0
LINE
  5
AA6
330
A02
100
AcDbEntity
  8
ProjItem184
100
AcDbLine
 10
1250.87
 20
2270.62
 30
0
 11
1579.53
 21
2270.62
 31
0
  0
LINE
  5
AA7
330
A02
100
AcDbEntity
  8
ProjItem184
100
AcDbLine
 10
1579.53
 20
2362.62
 30
0
 11
1579.53
 21
2270.62
 31
0
  0
LINE
  5
AA8
330
A02
100
AcDbEntity
  8
ProjItem184
100
AcDbLine
 10
1475.39
 20
2282.62
 30
0
 11
1475.39
 21
2332.62
 31
0
  0
LINE
  5
AA9
330
A02
100
AcDbEntity
  8
ProjItem184
100
AcDbLine
 10
1475.39
 20
2332.62
 30
0
 11
1579.53
 21
2332.62
 31
0
  0
LINE
  5
AAA
330
A02
100
AcDbEntity
  8
ProjItem184
100
AcDbLine
 10
547.708
 20
2282.62
 30
0
 11
547.708
 21
2332.62
 31
0
  0
LINE
  5
AAB
330
A02
100
AcDbEntity
  8
ProjItem184
100
AcDbLine
 10
547.708
 20
2332.62
 30
0
 11
822.234
 21
2332.62
 31
0
  0
LINE
  5
AAC
330
A02
100
AcDbEntity
  8
ProjItem184
100
AcDbLine
 10
822.234
 20
2282.62
 30
0
 11
822.234
 21
2332.62
 31
0
  0
LINE
  5
AAD
330
A02
100
AcDbEntity
  8
ProjItem184
100
AcDbLine
 10
822.234
 20
2332.62
 30
0
 11
1096.76
 21
2332.62
 31
0
  0
LINE
  5
AAE
330
A02
100
AcDbEntity
  8
ProjItem184
100
AcDbLine
 10
1096.76
 20
2282.62
 30
0
 11
1096.76
 21
2332.62
 31
0
  0
LINE
  5
AAF
330
A02
100
AcDbEntity
  8
ProjItem184
100
AcDbLine
 10
1096.76
 20
2332.62
 30
0
 11
1337.61
 21
2332.62
 31
0
  0
LINE
  5
AB0
330
A02
100
AcDbEntity
  8
ProjItem184
100
AcDbLine
 10
1337.61
 20
2282.62
 30
0
 11
1337.61
 21
2332.62
 31
0
  0
LINE
  5
AB1
330
A02
100
AcDbEntity
  8
ProjItem184
100
AcDbLine
 10
1337.61
 20
2332.62
 30
0
 11
1475.39
 21
2332.62
 31
0
  0
LINE
  5
AB2
330
A02
100
AcDbEntity
  8
ProjItem184
100
AcDbLine
 10
-275.869
 20
2282.62
 30
0
 11
-275.869
 21
2332.62
 31
0
  0
LINE
  5
AB3
330
A02
100
AcDbEntity
  8
ProjItem184
100
AcDbLine
 10
-275.869
 20
2332.62
 30
0
 11
-1.34369
 21
2332.62
 31
0
  0
LINE
  5
AB4
330
A02
100
AcDbEntity
  8
ProjItem184
100
AcDbLine
 10
-1.34369
 20
2282.62
 30
0
 11
-1.34369
 21
2332.62
 31
0
  0
LINE
  5
AB5
330
A02
100
AcDbEntity
  8
ProjItem184
100
AcDbLine
 10
-1.34369
 20
2332.62
 30
0
 11
273.182
 21
2332.62
 31
0
  0
LINE
  5
AB6
330
A02
100
AcDbEntity
  8
ProjItem184
100
AcDbLine
 10
-824.921
 20
2282.62
 30
0
 11
-824.921
 21
2332.62
 31
0
  0
LINE
  5
AB7
330
A02
100
AcDbEntity
  8
ProjItem184
100
AcDbLine
 10
-824.921
 20
2332.62
 30
0
 11
-550.395
 21
2332.62
 31
0
  0
LINE
  5
AB8
330
A02
100
AcDbEntity
  8
ProjItem184
100
AcDbLine
 10
-550.395
 20
2282.62
 30
0
 11
-550.395
 21
2332.62
 31
0
  0
LINE
  5
AB9
330
A02
100
AcDbEntity
  8
ProjItem184
100
AcDbLine
 10
-550.395
 20
2332.62
 30
0
 11
-275.869
 21
2332.62
 31
0
  0
LINE
  5
ABA
330
A02
100
AcDbEntity
  8
ProjItem184
100
AcDbLine
 10
273.182
 20
2282.62
 30
0
 11
273.182
 21
2332.62
 31
0
  0
LINE
  5
ABB
330
A02
100
AcDbEntity
  8
ProjItem184
100
AcDbLine
 10
273.182
 20
2332.62
 30
0
 11
547.708
 21
2332.62
 31
0
  0
LINE
  5
ABC
330
A02
100
AcDbEntity
  8
ProjItem184
100
AcDbLine
 10
-1081.45
 20
2096.62
 30
0
 11
-1069.45
 21
2096.62
 31
0
  0
LINE
  5
ABD
330
A02
100
AcDbEntity
  8
ProjItem184
100
AcDbLine
 10
-1069.45
 20
2270.62
 30
0
 11
-1069.45
 21
2096.62
 31
0
  0
LINE
  5
ABE
330
A02
100
AcDbEntity
  8
ProjItem184
100
AcDbLine
 10
1579.53
 20
2270.62
 30
0
 11
1829.53
 21
2270.62
 31
0
  0
LINE
  5
ABF
330
A02
100
AcDbEntity
  8
ProjItem184
100
AcDbLine
 10
1579.53
 20
2362.62
 30
0
 11
1829.53
 21
2362.62
 31
0
  0
CIRCLE
  5
AC0
330
A02
100
AcDbEntity
  8
ProjItem184
100
AcDbCircle
 10
1619.53
 20
2322.62
 40
7
  0
CIRCLE
  5
AC1
330
A02
100
AcDbEntity
  8
ProjItem184
100
AcDbCircle
 10
1789.53
 20
2322.62
 40
7
  0
LINE
  5
AC2
330
A02
100
AcDbEntity
  8
ProjItem181
100
AcDbLine
 10
-1410.46
 20
-655.753
 30
0
 11
-1375.1
 21
-676.165
 31
0
  0
LINE
  5
AC3
330
A02
100
AcDbEntity
  8
ProjItem181
100
AcDbLine
 10
-1375.1
 20
-676.165
 30
0
 11
-1162.97
 21
-553.691
 31
0
  0
LINE
  5
AC4
330
A02
100
AcDbEntity
  8
ProjItem181
100
AcDbLine
 10
-1410.46
 20
-647.588
 30
0
 11
-1375.1
 21
-668.001
 31
0
  0
LINE
  5
AC5
330
A02
100
AcDbEntity
  8
ProjItem181
100
AcDbLine
 10
-1410.46
 20
-647.588
 30
0
 11
-1410.46
 21
-655.753
 31
0
  0
LINE
  5
AC6
330
A02
100
AcDbEntity
  8
ProjItem181
100
AcDbLine
 10
-1375.1
 20
-668.001
 30
0
 11
-1375.1
 21
-676.165
 31
0
  0
LINE
  5
AC7
330
A02
100
AcDbEntity
  8
ProjItem181
100
AcDbLine
 10
-1198.33
 20
-525.114
 30
0
 11
-1162.97
 21
-545.526
 31
0
  0
LINE
  5
AC8
330
A02
100
AcDbEntity
  8
ProjItem181
100
AcDbLine
 10
-1162.97
 20
-553.691
 30
0
 11
-1162.97
 21
-545.526
 31
0
  0
LINE
  5
AC9
330
A02
100
AcDbEntity
  8
ProjItem181
100
AcDbLine
 10
-3375.49
 20
197.467
 30
0
 11
-3383.97
 21
192.568
 31
0
  0
LINE
  5
ACA
330
A02
100
AcDbEntity
  8
ProjItem181
100
AcDbLine
 10
-3375.49
 20
197.467
 30
0
 11
-3375.49
 21
254.622
 31
0
  0
LINE
  5
ACB
330
A02
100
AcDbEntity
  8
ProjItem181
100
AcDbLine
 10
-3383.97
 20
55.3678
 30
0
 11
-3383.97
 21
192.568
 31
0
  0
LINE
  5
ACC
330
A02
100
AcDbEntity
  8
ProjItem181
100
AcDbLine
 10
-3375.49
 20
254.622
 30
0
 11
-3373.3
 21
255.886
 31
0
  0
LINE
  5
ACD
330
A02
100
AcDbEntity
  8
ProjItem181
100
AcDbLine
 10
-3188.44
 20
168.259
 30
0
 11
-3383.97
 21
55.3678
 31
0
  0
LINE
  5
ACE
330
A02
100
AcDbEntity
  8
ProjItem181
100
AcDbLine
 10
-1599.14
 20
-123.001
 30
0
 11
-3373.3
 21
255.886
 31
0
  0
LINE
  5
ACF
330
A02
100
AcDbEntity
  8
ProjItem181
100
AcDbLine
 10
-1325.61
 20
-557.773
 30
0
 11
-1599.14
 21
-123.001
 31
0
  0
LINE
  5
AD0
330
A02
100
AcDbEntity
  8
ProjItem181
100
AcDbLine
 10
-1325.61
 20
-598.598
 30
0
 11
-1325.61
 21
-557.773
 31
0
  0
LINE
  5
AD1
330
A02
100
AcDbEntity
  8
ProjItem181
100
AcDbLine
 10
-3383.97
 20
10.7499
 30
0
 11
-3383.97
 21
32.5059
 31
0
  0
LINE
  5
AD2
330
A02
100
AcDbEntity
  8
ProjItem181
100
AcDbLine
 10
-1325.61
 20
-598.598
 30
0
 11
-1410.46
 21
-647.588
 31
0
  0
LINE
  5
AD3
330
A02
100
AcDbEntity
  8
ProjItem181
100
AcDbLine
 10
-3383.97
 20
10.7499
 30
0
 11
-1734.78
 21
-341.451
 31
0
  0
LINE
  5
AD4
330
A02
100
AcDbEntity
  8
ProjItem181
100
AcDbLine
 10
-1734.78
 20
-341.451
 30
0
 11
-1502.38
 21
-710.831
 31
0
  0
LINE
  5
AD5
330
A02
100
AcDbEntity
  8
ProjItem181
100
AcDbLine
 10
-1502.38
 20
-710.831
 30
0
 11
-1502.38
 21
-917.878
 31
0
  0
LINE
  5
AD6
330
A02
100
AcDbEntity
  8
ProjItem181
100
AcDbLine
 10
-1325.61
 20
-815.816
 30
0
 11
-1325.61
 21
-647.588
 31
0
  0
LINE
  5
AD7
330
A02
100
AcDbEntity
  8
ProjItem181
100
AcDbLine
 10
-1502.38
 20
-917.878
 30
0
 11
-1325.61
 21
-815.816
 31
0
  0
ELLIPSE
  5
AD8
330
A02
100
AcDbEntity
  8
ProjItem181
100
AcDbEllipse
 10
-1382.13
 20
-712.061
 30
0
 11
2.75
 21
4.76314
 31
0
 40
0.57735
 41
-0
 42
-3.92699
  0
ELLIPSE
  5
AD9
330
A02
100
AcDbEntity
  8
ProjItem181
100
AcDbEllipse
 10
-1382.13
 20
-712.061
 30
0
 11
2.75
 21
4.76314
 31
0
 40
0.57735
 41
-3.14159
 42
-0
  0
ELLIPSE
  5
ADA
330
A02
100
AcDbEntity
  8
ProjItem181
100
AcDbEllipse
 10
-1382.13
 20
-712.061
 30
0
 11
2.75
 21
4.76314
 31
0
 40
0.57735
 41
-3.92699
 42
-3.14159
  0
ELLIPSE
  5
ADB
330
A02
100
AcDbEntity
  8
ProjItem181
100
AcDbEllipse
 10
-1382.13
 20
-671.236
 30
0
 11
2.75
 21
4.76314
 31
0
 40
0.57735
 41
-4.57432
 42
-3.92699
  0
ELLIPSE
  5
ADC
330
A02
100
AcDbEntity
  8
ProjItem181
100
AcDbEllipse
 10
-1382.13
 20
-671.236
 30
0
 11
2.75
 21
4.76314
 31
0
 40
0.57735
 41
-3.14159
 42
-1.70887
  0
ELLIPSE
  5
ADD
330
A02
100
AcDbEntity
  8
ProjItem181
100
AcDbEllipse
 10
-1382.13
 20
-671.236
 30
0
 11
2.75
 21
4.76314
 31
0
 40
0.57735
 41
-3.92699
 42
-3.14159
  0
LINE
  5
ADE
330
A02
100
AcDbEntity
  8
ProjItem181
100
AcDbLine
 10
-1439.44
 20
-510.787
 30
0
 11
-1489.5
 21
-539.694
 31
0
  0
LINE
  5
ADF
330
A02
100
AcDbEntity
  8
ProjItem181
100
AcDbLine
 10
-1489.5
 20
-539.694
 30
0
 11
-1489.5
 21
-547.859
 31
0
  0
LINE
  5
AE0
330
A02
100
AcDbEntity
  8
ProjItem181
100
AcDbLine
 10
-1501.66
 20
-393.185
 30
0
 11
-1576.02
 21
-436.111
 31
0
  0
LINE
  5
AE1
330
A02
100
AcDbEntity
  8
ProjItem181
100
AcDbLine
 10
-1576.02
 20
-436.111
 30
0
 11
-1576.02
 21
-444.276
 31
0
  0
LINE
  5
AE2
330
A02
100
AcDbEntity
  8
ProjItem181
100
AcDbLine
 10
-2023.73
 20
-80.4761
 30
0
 11
-2231.99
 21
-200.716
 31
0
  0
LINE
  5
AE3
330
A02
100
AcDbEntity
  8
ProjItem181
100
AcDbLine
 10
-2231.99
 20
-200.716
 30
0
 11
-2231.99
 21
-208.881
 31
0
  0
LINE
  5
AE4
330
A02
100
AcDbEntity
  8
ProjItem181
100
AcDbLine
 10
-1829.61
 20
-121.932
 30
0
 11
-2037.87
 21
-242.172
 31
0
  0
LINE
  5
AE5
330
A02
100
AcDbEntity
  8
ProjItem181
100
AcDbLine
 10
-2037.87
 20
-242.172
 30
0
 11
-2037.87
 21
-250.337
 31
0
  0
ELLIPSE
  5
AE6
330
A02
100
AcDbEntity
  8
ProjItem181
100
AcDbEllipse
 10
-2045.4
 20
-193.277
 30
0
 11
2.75
 21
4.76314
 31
0
 40
0.57735
 41
-0
 42
-3.92699
  0
ELLIPSE
  5
AE7
330
A02
100
AcDbEntity
  8
ProjItem181
100
AcDbEllipse
 10
-2045.4
 20
-193.277
 30
0
 11
2.75
 21
4.76314
 31
0
 40
0.57735
 41
-3.14159
 42
-0
  0
ELLIPSE
  5
AE8
330
A02
100
AcDbEntity
  8
ProjItem181
100
AcDbEllipse
 10
-2045.4
 20
-193.277
 30
0
 11
2.75
 21
4.76314
 31
0
 40
0.57735
 41
-3.92699
 42
-3.14159
  0
ELLIPSE
  5
AE9
330
A02
100
AcDbEntity
  8
ProjItem181
100
AcDbEllipse
 10
-2010.05
 20
-172.865
 30
0
 11
2.75
 21
4.76314
 31
0
 40
0.57735
 41
-0
 42
-3.92699
  0
ELLIPSE
  5
AEA
330
A02
100
AcDbEntity
  8
ProjItem181
100
AcDbEllipse
 10
-2010.05
 20
-172.865
 30
0
 11
2.75
 21
4.76314
 31
0
 40
0.57735
 41
-3.14159
 42
-0
  0
ELLIPSE
  5
AEB
330
A02
100
AcDbEntity
  8
ProjItem181
100
AcDbEllipse
 10
-2010.05
 20
-172.865
 30
0
 11
2.75
 21
4.76314
 31
0
 40
0.57735
 41
-3.92699
 42
-3.14159
  0
ELLIPSE
  5
AEC
330
A02
100
AcDbEntity
  8
ProjItem181
100
AcDbEllipse
 10
-2045.4
 20
-152.452
 30
0
 11
2.75
 21
4.76314
 31
0
 40
0.57735
 41
-0
 42
-3.92699
  0
ELLIPSE
  5
AED
330
A02
100
AcDbEntity
  8
ProjItem181
100
AcDbEllipse
 10
-2045.4
 20
-152.452
 30
0
 11
2.75
 21
4.76314
 31
0
 40
0.57735
 41
-3.14159
 42
-0
  0
ELLIPSE
  5
AEE
330
A02
100
AcDbEntity
  8
ProjItem181
100
AcDbEllipse
 10
-2045.4
 20
-152.452
 30
0
 11
2.75
 21
4.76314
 31
0
 40
0.57735
 41
-3.92699
 42
-3.14159
  0
ELLIPSE
  5
AEF
330
A02
100
AcDbEntity
  8
ProjItem181
100
AcDbEllipse
 10
-2010.05
 20
-132.04
 30
0
 11
2.75
 21
4.76314
 31
0
 40
0.57735
 41
-0
 42
-3.92699
  0
ELLIPSE
  5
AF0
330
A02
100
AcDbEntity
  8
ProjItem181
100
AcDbEllipse
 10
-2010.05
 20
-132.04
 30
0
 11
2.75
 21
4.76314
 31
0
 40
0.57735
 41
-3.14159
 42
-0
  0
ELLIPSE
  5
AF1
330
A02
100
AcDbEntity
  8
ProjItem181
100
AcDbEllipse
 10
-2010.05
 20
-132.04
 30
0
 11
2.75
 21
4.76314
 31
0
 40
0.57735
 41
-3.92699
 42
-3.14159
  0
LINE
  5
AF2
330
A02
100
AcDbEntity
  8
ProjItem181
100
AcDbLine
 10
-1666.23
 20
-181.136
 30
0
 11
-1843.75
 21
-283.627
 31
0
  0
LINE
  5
AF3
330
A02
100
AcDbEntity
  8
ProjItem181
100
AcDbLine
 10
-1843.75
 20
-283.627
 30
0
 11
-1843.75
 21
-291.792
 31
0
  0
LINE
  5
AF4
330
A02
100
AcDbEntity
  8
ProjItem181
100
AcDbLine
 10
-1573.53
 20
-281.144
 30
0
 11
-1673.44
 21
-338.83
 31
0
  0
LINE
  5
AF5
330
A02
100
AcDbEntity
  8
ProjItem181
100
AcDbLine
 10
-1673.44
 20
-338.83
 30
0
 11
-1673.44
 21
-346.995
 31
0
  0
ELLIPSE
  5
AF6
330
A02
100
AcDbEntity
  8
ProjItem181
100
AcDbEllipse
 10
-2708.68
 20
-86.2671
 30
0
 11
2.75
 21
4.76314
 31
0
 40
0.57735
 41
-0
 42
-3.92699
  0
ELLIPSE
  5
AF7
330
A02
100
AcDbEntity
  8
ProjItem181
100
AcDbEllipse
 10
-2708.68
 20
-86.2671
 30
0
 11
2.75
 21
4.76314
 31
0
 40
0.57735
 41
-3.14159
 42
-0
  0
ELLIPSE
  5
AF8
330
A02
100
AcDbEntity
  8
ProjItem181
100
AcDbEllipse
 10
-2708.68
 20
-86.2671
 30
0
 11
2.75
 21
4.76314
 31
0
 40
0.57735
 41
-3.92699
 42
-3.14159
  0
ELLIPSE
  5
AF9
330
A02
100
AcDbEntity
  8
ProjItem181
100
AcDbEllipse
 10
-2673.32
 20
-65.8547
 30
0
 11
2.75
 21
4.76314
 31
0
 40
0.57735
 41
-0
 42
-3.92699
  0
ELLIPSE
  5
AFA
330
A02
100
AcDbEntity
  8
ProjItem181
100
AcDbEllipse
 10
-2673.32
 20
-65.8547
 30
0
 11
2.75
 21
4.76314
 31
0
 40
0.57735
 41
-3.14159
 42
-0
  0
ELLIPSE
  5
AFB
330
A02
100
AcDbEntity
  8
ProjItem181
100
AcDbEllipse
 10
-2673.32
 20
-65.8547
 30
0
 11
2.75
 21
4.76314
 31
0
 40
0.57735
 41
-3.92699
 42
-3.14159
  0
LINE
  5
AFC
330
A02
100
AcDbEntity
  8
ProjItem181
100
AcDbLine
 10
-2606.08
 20
43.8915
 30
0
 11
-2814.35
 21
-76.3482
 31
0
  0
LINE
  5
AFD
330
A02
100
AcDbEntity
  8
ProjItem181
100
AcDbLine
 10
-2814.35
 20
-76.3482
 30
0
 11
-2814.35
 21
-84.5131
 31
0
  0
LINE
  5
AFE
330
A02
100
AcDbEntity
  8
ProjItem181
100
AcDbLine
 10
-2411.97
 20
2.43561
 30
0
 11
-2620.23
 21
-117.804
 31
0
  0
LINE
  5
AFF
330
A02
100
AcDbEntity
  8
ProjItem181
100
AcDbLine
 10
-2620.23
 20
-117.804
 30
0
 11
-2620.23
 21
-125.969
 31
0
  0
LINE
  5
B00
330
A02
100
AcDbEntity
  8
ProjItem181
100
AcDbLine
 10
-2994.32
 20
126.803
 30
0
 11
-3202.58
 21
6.56352
 31
0
  0
LINE
  5
B01
330
A02
100
AcDbEntity
  8
ProjItem181
100
AcDbLine
 10
-3202.58
 20
6.56352
 30
0
 11
-3202.58
 21
-1.60144
 31
0
  0
LINE
  5
B02
330
A02
100
AcDbEntity
  8
ProjItem181
100
AcDbLine
 10
-2800.2
 20
85.3473
 30
0
 11
-3008.46
 21
-34.8923
 31
0
  0
LINE
  5
B03
330
A02
100
AcDbEntity
  8
ProjItem181
100
AcDbLine
 10
-3008.46
 20
-34.8923
 30
0
 11
-3008.46
 21
-43.0573
 31
0
  0
ELLIPSE
  5
B04
330
A02
100
AcDbEntity
  8
ProjItem181
100
AcDbEllipse
 10
-3336.6
 20
154.967
 30
0
 11
2.75
 21
4.76314
 31
0
 40
0.57735
 41
-0
 42
-3.92699
  0
ELLIPSE
  5
B05
330
A02
100
AcDbEntity
  8
ProjItem181
100
AcDbEllipse
 10
-3336.6
 20
154.967
 30
0
 11
2.75
 21
4.76314
 31
0
 40
0.57735
 41
-3.14159
 42
-0
  0
ELLIPSE
  5
B06
330
A02
100
AcDbEntity
  8
ProjItem181
100
AcDbEllipse
 10
-3336.6
 20
154.967
 30
0
 11
2.75
 21
4.76314
 31
0
 40
0.57735
 41
-3.92699
 42
-3.14159
  0
ELLIPSE
  5
B07
330
A02
100
AcDbEntity
  8
ProjItem181
100
AcDbEllipse
 10
-3336.6
 20
195.792
 30
0
 11
2.75
 21
4.76314
 31
0
 40
0.57735
 41
-0
 42
-3.92699
  0
ELLIPSE
  5
B08
330
A02
100
AcDbEntity
  8
ProjItem181
100
AcDbEllipse
 10
-3336.6
 20
195.792
 30
0
 11
2.75
 21
4.76314
 31
0
 40
0.57735
 41
-3.14159
 42
-0
  0
ELLIPSE
  5
B09
330
A02
100
AcDbEntity
  8
ProjItem181
100
AcDbEllipse
 10
-3336.6
 20
195.792
 30
0
 11
2.75
 21
4.76314
 31
0
 40
0.57735
 41
-3.92699
 42
-3.14159
  0
LINE
  5
B0A
330
A02
100
AcDbEntity
  8
ProjItem181
100
AcDbLine
 10
-2217.85
 20
-39.0202
 30
0
 11
-2426.11
 21
-159.26
 31
0
  0
LINE
  5
B0B
330
A02
100
AcDbEntity
  8
ProjItem181
100
AcDbLine
 10
-2426.11
 20
-159.26
 30
0
 11
-2426.11
 21
-167.425
 31
0
  0
LINE
  5
B0C
330
A02
100
AcDbEntity
  8
ProjItem181
100
AcDbLine
 10
-1198.33
 20
-525.114
 30
0
 11
-1325.61
 21
-598.598
 31
0
  0
LINE
  5
B0D
330
A02
100
AcDbEntity
  8
ProjItem181
100
AcDbLine
 10
-1162.97
 20
-545.526
 30
0
 11
-1375.1
 21
-668.001
 31
0
  0
LINE
  5
B0E
330
A02
100
AcDbEntity
  8
ProjItem181
100
AcDbLine
 10
-3383.97
 20
192.568
 30
0
 11
-3515.5
 21
268.503
 31
0
  0
LINE
  5
B0F
330
A02
100
AcDbEntity
  8
ProjItem181
100
AcDbLine
 10
-3515.5
 20
268.503
 30
0
 11
-3507.01
 21
273.402
 31
0
  0
LINE
  5
B10
330
A02
100
AcDbEntity
  8
ProjItem181
100
AcDbLine
 10
-3383.97
 20
202.366
 30
0
 11
-3507.01
 21
273.402
 31
0
  0
LINE
  5
B11
330
A02
100
AcDbEntity
  8
ProjItem181
100
AcDbLine
 10
-3375.49
 20
197.467
 30
0
 11
-3383.97
 21
202.366
 31
0
  0
LINE
  5
B12
330
A02
100
AcDbEntity
  8
ProjItem181
100
AcDbLine
 10
-3375.49
 20
254.622
 30
0
 11
-3383.97
 21
259.521
 31
0
  0
LINE
  5
B13
330
A02
100
AcDbEntity
  8
ProjItem181
100
AcDbLine
 10
-3383.97
 20
259.521
 30
0
 11
-3383.97
 21
202.366
 31
0
  0
LINE
  5
B14
330
A02
100
AcDbEntity
  8
ProjItem181
100
AcDbLine
 10
-3515.5
 20
268.503
 30
0
 11
-3515.5
 21
121.533
 31
0
  0
LINE
  5
B15
330
A02
100
AcDbEntity
  8
ProjItem181
100
AcDbLine
 10
-3392.46
 20
50.498
 30
0
 11
-3515.5
 21
121.533
 31
0
  0
LINE
  5
B16
330
A02
100
AcDbEntity
  8
ProjItem181
100
AcDbLine
 10
-3392.46
 20
50.498
 30
0
 11
-3392.46
 21
50.4689
 31
0
  0
LINE
  5
B17
330
A02
100
AcDbEntity
  8
ProjItem181
100
AcDbLine
 10
-3392.46
 20
37.4049
 30
0
 11
-3392.46
 21
15.6489
 31
0
  0
LINE
  5
B18
330
A02
100
AcDbEntity
  8
ProjItem181
100
AcDbLine
 10
-3392.46
 20
15.6489
 30
0
 11
-3383.97
 21
10.7499
 31
0
  0
ELLIPSE
  5
B19
330
A02
100
AcDbEntity
  8
ProjItem181
100
AcDbEllipse
 10
-3415.79
 20
96.6301
 30
0
 11
-3.5
 21
6.06218
 31
0
 40
0.57735
 41
2.35619
 42
3.14159
  0
ELLIPSE
  5
B1A
330
A02
100
AcDbEntity
  8
ProjItem181
100
AcDbEllipse
 10
-3415.79
 20
96.6301
 30
0
 11
-3.5
 21
6.06218
 31
0
 40
0.57735
 41
3.14159
 42
0
  0
ELLIPSE
  5
B1B
330
A02
100
AcDbEntity
  8
ProjItem181
100
AcDbEllipse
 10
-3415.79
 20
96.6301
 30
0
 11
-3.5
 21
6.06218
 31
0
 40
0.57735
 41
0
 42
2.35619
  0
ELLIPSE
  5
B1C
330
A02
100
AcDbEntity
  8
ProjItem181
100
AcDbEllipse
 10
-3483.68
 20
135.822
 30
0
 11
-3.5
 21
6.06218
 31
0
 40
0.57735
 41
2.35619
 42
3.14159
  0
ELLIPSE
  5
B1D
330
A02
100
AcDbEntity
  8
ProjItem181
100
AcDbEllipse
 10
-3483.68
 20
135.822
 30
0
 11
-3.5
 21
6.06218
 31
0
 40
0.57735
 41
3.14159
 42
0
  0
ELLIPSE
  5
B1E
330
A02
100
AcDbEntity
  8
ProjItem181
100
AcDbEllipse
 10
-3483.68
 20
135.822
 30
0
 11
-3.5
 21
6.06218
 31
0
 40
0.57735
 41
0
 42
2.35619
  0
ELLIPSE
  5
B1F
330
A02
100
AcDbEntity
  8
ProjItem181
100
AcDbEllipse
 10
-3415.79
 20
178.28
 30
0
 11
-3.5
 21
6.06218
 31
0
 40
0.57735
 41
2.35619
 42
3.14159
  0
ELLIPSE
  5
B20
330
A02
100
AcDbEntity
  8
ProjItem181
100
AcDbEllipse
 10
-3415.79
 20
178.28
 30
0
 11
-3.5
 21
6.06218
 31
0
 40
0.57735
 41
3.14159
 42
0
  0
ELLIPSE
  5
B21
330
A02
100
AcDbEntity
  8
ProjItem181
100
AcDbEllipse
 10
-3415.79
 20
178.28
 30
0
 11
-3.5
 21
6.06218
 31
0
 40
0.57735
 41
0
 42
2.35619
  0
ELLIPSE
  5
B22
330
A02
100
AcDbEntity
  8
ProjItem181
100
AcDbEllipse
 10
-3483.68
 20
217.472
 30
0
 11
-3.5
 21
6.06218
 31
0
 40
0.57735
 41
2.35619
 42
3.14159
  0
ELLIPSE
  5
B23
330
A02
100
AcDbEntity
  8
ProjItem181
100
AcDbEllipse
 10
-3483.68
 20
217.472
 30
0
 11
-3.5
 21
6.06218
 31
0
 40
0.57735
 41
3.14159
 42
0
  0
ELLIPSE
  5
B24
330
A02
100
AcDbEntity
  8
ProjItem181
100
AcDbEllipse
 10
-3483.68
 20
217.472
 30
0
 11
-3.5
 21
6.06218
 31
0
 40
0.57735
 41
0
 42
2.35619
  0
LINE
  5
B25
330
A02
100
AcDbEntity
  8
ProjItem181
100
AcDbLine
 10
-3373.3
 20
255.886
 30
0
 11
-3381.79
 21
260.785
 31
0
  0
LINE
  5
B26
330
A02
100
AcDbEntity
  8
ProjItem181
100
AcDbLine
 10
-3381.79
 20
260.785
 30
0
 11
-3383.97
 21
259.521
 31
0
  0
LINE
  5
B27
330
A02
100
AcDbEntity
  8
ProjItem181
100
AcDbLine
 10
-3188.44
 20
168.259
 30
0
 11
-3153.09
 21
147.847
 31
0
  0
LINE
  5
B28
330
A02
100
AcDbEntity
  8
ProjItem181
100
AcDbLine
 10
-3396.7
 20
48.0194
 30
0
 11
-3361.35
 21
27.607
 31
0
  0
LINE
  5
B29
330
A02
100
AcDbEntity
  8
ProjItem181
100
AcDbLine
 10
-3383.97
 20
55.3678
 30
0
 11
-3396.7
 21
48.0194
 31
0
  0
LINE
  5
B2A
330
A02
100
AcDbEntity
  8
ProjItem181
100
AcDbLine
 10
-3153.09
 20
147.847
 30
0
 11
-3361.35
 21
27.607
 31
0
  0
LINE
  5
B2B
330
A02
100
AcDbEntity
  8
ProjItem181
100
AcDbLine
 10
-1607.63
 20
-118.102
 30
0
 11
-3381.79
 21
260.785
 31
0
  0
LINE
  5
B2C
330
A02
100
AcDbEntity
  8
ProjItem181
100
AcDbLine
 10
-1599.14
 20
-123.001
 30
0
 11
-1607.63
 21
-118.102
 31
0
  0
LINE
  5
B2D
330
A02
100
AcDbEntity
  8
ProjItem181
100
AcDbLine
 10
-3153.09
 20
139.682
 30
0
 11
-3153.09
 21
147.847
 31
0
  0
LINE
  5
B2E
330
A02
100
AcDbEntity
  8
ProjItem181
100
AcDbLine
 10
-3396.7
 20
39.8544
 30
0
 11
-3361.35
 21
19.442
 31
0
  0
LINE
  5
B2F
330
A02
100
AcDbEntity
  8
ProjItem181
100
AcDbLine
 10
-3361.35
 20
19.442
 30
0
 11
-3153.09
 21
139.682
 31
0
  0
LINE
  5
B30
330
A02
100
AcDbEntity
  8
ProjItem181
100
AcDbLine
 10
-1269.04
 20
-858.273
 30
0
 11
-1269.04
 21
-848.475
 31
0
  0
LINE
  5
B31
330
A02
100
AcDbEntity
  8
ProjItem181
100
AcDbLine
 10
-1325.61
 20
-815.816
 30
0
 11
-1269.04
 21
-848.475
 31
0
  0
LINE
  5
B32
330
A02
100
AcDbEntity
  8
ProjItem181
100
AcDbLine
 10
-1502.38
 20
-710.831
 30
0
 11
-1510.87
 21
-705.932
 31
0
  0
LINE
  5
B33
330
A02
100
AcDbEntity
  8
ProjItem181
100
AcDbLine
 10
-1741.02
 20
-340.118
 30
0
 11
-1510.87
 21
-705.932
 31
0
  0
LINE
  5
B34
330
A02
100
AcDbEntity
  8
ProjItem181
100
AcDbLine
 10
-1445.81
 20
-950.538
 30
0
 11
-1502.38
 21
-917.878
 31
0
  0
LINE
  5
B35
330
A02
100
AcDbEntity
  8
ProjItem181
100
AcDbLine
 10
-1445.81
 20
-960.335
 30
0
 11
-1445.81
 21
-950.538
 31
0
  0
LINE
  5
B36
330
A02
100
AcDbEntity
  8
ProjItem181
100
AcDbLine
 10
-1445.81
 20
-960.335
 30
0
 11
-1510.87
 21
-922.777
 31
0
  0
LINE
  5
B37
330
A02
100
AcDbEntity
  8
ProjItem181
100
AcDbLine
 10
-1510.87
 20
-705.932
 30
0
 11
-1510.87
 21
-922.777
 31
0
  0
LINE
  5
B38
330
A02
100
AcDbEntity
  8
ProjItem181
100
AcDbLine
 10
-1269.04
 20
-848.475
 30
0
 11
-1445.81
 21
-950.538
 31
0
  0
ELLIPSE
  5
B39
330
A02
100
AcDbEntity
  8
ProjItem181
100
AcDbEllipse
 10
-1445.81
 20
-917.878
 30
0
 11
-7
 21
-2.68e-15
 31
0
 40
0.57735
 41
-3.14159
 42
-2.35619
  0
ELLIPSE
  5
B3A
330
A02
100
AcDbEntity
  8
ProjItem181
100
AcDbEllipse
 10
-1445.81
 20
-917.878
 30
0
 11
-7
 21
-2.68e-15
 31
0
 40
0.57735
 41
-0
 42
-3.14159
  0
ELLIPSE
  5
B3B
330
A02
100
AcDbEntity
  8
ProjItem181
100
AcDbEllipse
 10
-1445.81
 20
-917.878
 30
0
 11
-7
 21
-2.68e-15
 31
0
 40
0.57735
 41
-2.35619
 42
-0
  0
ELLIPSE
  5
B3C
330
A02
100
AcDbEntity
  8
ProjItem181
100
AcDbEllipse
 10
-1325.61
 20
-848.475
 30
0
 11
-7
 21
-2.68e-15
 31
0
 40
0.57735
 41
-3.14159
 42
-2.35619
  0
ELLIPSE
  5
B3D
330
A02
100
AcDbEntity
  8
ProjItem181
100
AcDbEllipse
 10
-1325.61
 20
-848.475
 30
0
 11
-7
 21
-2.68e-15
 31
0
 40
0.57735
 41
-0
 42
-3.14159
  0
ELLIPSE
  5
B3E
330
A02
100
AcDbEntity
  8
ProjItem181
100
AcDbEllipse
 10
-1325.61
 20
-848.475
 30
0
 11
-7
 21
-2.68e-15
 31
0
 40
0.57735
 41
-2.35619
 42
-0
  0
LINE
  5
B3F
330
A02
100
AcDbEntity
  8
ProjItem181
100
AcDbLine
 10
-1439.44
 20
-510.787
 30
0
 11
-1404.08
 21
-531.2
 31
0
  0
LINE
  5
B40
330
A02
100
AcDbEntity
  8
ProjItem181
100
AcDbLine
 10
-1489.5
 20
-539.694
 30
0
 11
-1454.15
 21
-560.106
 31
0
  0
LINE
  5
B41
330
A02
100
AcDbEntity
  8
ProjItem181
100
AcDbLine
 10
-1404.08
 20
-531.2
 30
0
 11
-1454.15
 21
-560.106
 31
0
  0
LINE
  5
B42
330
A02
100
AcDbEntity
  8
ProjItem181
100
AcDbLine
 10
-1404.08
 20
-539.365
 30
0
 11
-1404.08
 21
-531.2
 31
0
  0
LINE
  5
B43
330
A02
100
AcDbEntity
  8
ProjItem181
100
AcDbLine
 10
-1489.5
 20
-547.859
 30
0
 11
-1454.15
 21
-568.271
 31
0
  0
LINE
  5
B44
330
A02
100
AcDbEntity
  8
ProjItem181
100
AcDbLine
 10
-1454.15
 20
-560.106
 30
0
 11
-1454.15
 21
-568.271
 31
0
  0
LINE
  5
B45
330
A02
100
AcDbEntity
  8
ProjItem181
100
AcDbLine
 10
-1454.15
 20
-568.271
 30
0
 11
-1404.08
 21
-539.365
 31
0
  0
LINE
  5
B46
330
A02
100
AcDbEntity
  8
ProjItem181
100
AcDbLine
 10
-1501.66
 20
-393.185
 30
0
 11
-1466.31
 21
-413.597
 31
0
  0
LINE
  5
B47
330
A02
100
AcDbEntity
  8
ProjItem181
100
AcDbLine
 10
-1576.02
 20
-436.111
 30
0
 11
-1540.66
 21
-456.524
 31
0
  0
LINE
  5
B48
330
A02
100
AcDbEntity
  8
ProjItem181
100
AcDbLine
 10
-1466.31
 20
-413.597
 30
0
 11
-1540.66
 21
-456.524
 31
0
  0
LINE
  5
B49
330
A02
100
AcDbEntity
  8
ProjItem181
100
AcDbLine
 10
-1466.31
 20
-421.762
 30
0
 11
-1466.31
 21
-413.597
 31
0
  0
LINE
  5
B4A
330
A02
100
AcDbEntity
  8
ProjItem181
100
AcDbLine
 10
-1576.02
 20
-444.276
 30
0
 11
-1540.66
 21
-464.689
 31
0
  0
LINE
  5
B4B
330
A02
100
AcDbEntity
  8
ProjItem181
100
AcDbLine
 10
-1540.66
 20
-456.524
 30
0
 11
-1540.66
 21
-464.689
 31
0
  0
LINE
  5
B4C
330
A02
100
AcDbEntity
  8
ProjItem181
100
AcDbLine
 10
-1540.66
 20
-464.689
 30
0
 11
-1466.31
 21
-421.762
 31
0
  0
LINE
  5
B4D
330
A02
100
AcDbEntity
  8
ProjItem181
100
AcDbLine
 10
-2023.73
 20
-80.4761
 30
0
 11
-1988.37
 21
-100.888
 31
0
  0
LINE
  5
B4E
330
A02
100
AcDbEntity
  8
ProjItem181
100
AcDbLine
 10
-2231.99
 20
-200.716
 30
0
 11
-2196.63
 21
-221.128
 31
0
  0
LINE
  5
B4F
330
A02
100
AcDbEntity
  8
ProjItem181
100
AcDbLine
 10
-1988.37
 20
-100.888
 30
0
 11
-2196.63
 21
-221.128
 31
0
  0
LINE
  5
B50
330
A02
100
AcDbEntity
  8
ProjItem181
100
AcDbLine
 10
-1988.37
 20
-109.053
 30
0
 11
-1988.37
 21
-100.888
 31
0
  0
LINE
  5
B51
330
A02
100
AcDbEntity
  8
ProjItem181
100
AcDbLine
 10
-2231.99
 20
-208.881
 30
0
 11
-2196.63
 21
-229.293
 31
0
  0
LINE
  5
B52
330
A02
100
AcDbEntity
  8
ProjItem181
100
AcDbLine
 10
-2196.63
 20
-221.128
 30
0
 11
-2196.63
 21
-229.293
 31
0
  0
LINE
  5
B53
330
A02
100
AcDbEntity
  8
ProjItem181
100
AcDbLine
 10
-2196.63
 20
-229.293
 30
0
 11
-1988.37
 21
-109.053
 31
0
  0
LINE
  5
B54
330
A02
100
AcDbEntity
  8
ProjItem181
100
AcDbLine
 10
-1829.61
 20
-121.932
 30
0
 11
-1794.25
 21
-142.344
 31
0
  0
LINE
  5
B55
330
A02
100
AcDbEntity
  8
ProjItem181
100
AcDbLine
 10
-2037.87
 20
-242.172
 30
0
 11
-2002.51
 21
-262.584
 31
0
  0
LINE
  5
B56
330
A02
100
AcDbEntity
  8
ProjItem181
100
AcDbLine
 10
-1794.25
 20
-142.344
 30
0
 11
-2002.51
 21
-262.584
 31
0
  0
LINE
  5
B57
330
A02
100
AcDbEntity
  8
ProjItem181
100
AcDbLine
 10
-1794.25
 20
-150.509
 30
0
 11
-1794.25
 21
-142.344
 31
0
  0
LINE
  5
B58
330
A02
100
AcDbEntity
  8
ProjItem181
100
AcDbLine
 10
-2037.87
 20
-250.337
 30
0
 11
-2002.51
 21
-270.749
 31
0
  0
LINE
  5
B59
330
A02
100
AcDbEntity
  8
ProjItem181
100
AcDbLine
 10
-2002.51
 20
-262.584
 30
0
 11
-2002.51
 21
-270.749
 31
0
  0
LINE
  5
B5A
330
A02
100
AcDbEntity
  8
ProjItem181
100
AcDbLine
 10
-2002.51
 20
-270.749
 30
0
 11
-1794.25
 21
-150.509
 31
0
  0
LINE
  5
B5B
330
A02
100
AcDbEntity
  8
ProjItem181
100
AcDbLine
 10
-1666.23
 20
-181.136
 30
0
 11
-1630.88
 21
-201.549
 31
0
  0
LINE
  5
B5C
330
A02
100
AcDbEntity
  8
ProjItem181
100
AcDbLine
 10
-1843.75
 20
-283.627
 30
0
 11
-1808.4
 21
-304.04
 31
0
  0
LINE
  5
B5D
330
A02
100
AcDbEntity
  8
ProjItem181
100
AcDbLine
 10
-1630.88
 20
-201.549
 30
0
 11
-1808.4
 21
-304.04
 31
0
  0
LINE
  5
B5E
330
A02
100
AcDbEntity
  8
ProjItem181
100
AcDbLine
 10
-1630.88
 20
-209.714
 30
0
 11
-1630.88
 21
-201.549
 31
0
  0
LINE
  5
B5F
330
A02
100
AcDbEntity
  8
ProjItem181
100
AcDbLine
 10
-1843.75
 20
-291.792
 30
0
 11
-1808.4
 21
-312.205
 31
0
  0
LINE
  5
B60
330
A02
100
AcDbEntity
  8
ProjItem181
100
AcDbLine
 10
-1808.4
 20
-304.04
 30
0
 11
-1808.4
 21
-312.205
 31
0
  0
LINE
  5
B61
330
A02
100
AcDbEntity
  8
ProjItem181
100
AcDbLine
 10
-1808.4
 20
-312.205
 30
0
 11
-1630.88
 21
-209.714
 31
0
  0
LINE
  5
B62
330
A02
100
AcDbEntity
  8
ProjItem181
100
AcDbLine
 10
-1573.53
 20
-281.144
 30
0
 11
-1538.17
 21
-301.556
 31
0
  0
LINE
  5
B63
330
A02
100
AcDbEntity
  8
ProjItem181
100
AcDbLine
 10
-1673.44
 20
-338.83
 30
0
 11
-1638.09
 21
-359.243
 31
0
  0
LINE
  5
B64
330
A02
100
AcDbEntity
  8
ProjItem181
100
AcDbLine
 10
-1538.17
 20
-301.556
 30
0
 11
-1638.09
 21
-359.243
 31
0
  0
LINE
  5
B65
330
A02
100
AcDbEntity
  8
ProjItem181
100
AcDbLine
 10
-1538.17
 20
-309.721
 30
0
 11
-1538.17
 21
-301.556
 31
0
  0
LINE
  5
B66
330
A02
100
AcDbEntity
  8
ProjItem181
100
AcDbLine
 10
-1673.44
 20
-346.995
 30
0
 11
-1638.09
 21
-367.408
 31
0
  0
LINE
  5
B67
330
A02
100
AcDbEntity
  8
ProjItem181
100
AcDbLine
 10
-1638.09
 20
-359.243
 30
0
 11
-1638.09
 21
-367.408
 31
0
  0
LINE
  5
B68
330
A02
100
AcDbEntity
  8
ProjItem181
100
AcDbLine
 10
-1638.09
 20
-367.408
 30
0
 11
-1538.17
 21
-309.721
 31
0
  0
LINE
  5
B69
330
A02
100
AcDbEntity
  8
ProjItem181
100
AcDbLine
 10
-2606.08
 20
43.8915
 30
0
 11
-2570.73
 21
23.479
 31
0
  0
LINE
  5
B6A
330
A02
100
AcDbEntity
  8
ProjItem181
100
AcDbLine
 10
-2814.35
 20
-76.3482
 30
0
 11
-2778.99
 21
-96.7606
 31
0
  0
LINE
  5
B6B
330
A02
100
AcDbEntity
  8
ProjItem181
100
AcDbLine
 10
-2570.73
 20
23.479
 30
0
 11
-2778.99
 21
-96.7606
 31
0
  0
LINE
  5
B6C
330
A02
100
AcDbEntity
  8
ProjItem181
100
AcDbLine
 10
-2570.73
 20
15.3141
 30
0
 11
-2570.73
 21
23.479
 31
0
  0
LINE
  5
B6D
330
A02
100
AcDbEntity
  8
ProjItem181
100
AcDbLine
 10
-2814.35
 20
-84.5131
 30
0
 11
-2778.99
 21
-104.926
 31
0
  0
LINE
  5
B6E
330
A02
100
AcDbEntity
  8
ProjItem181
100
AcDbLine
 10
-2778.99
 20
-96.7606
 30
0
 11
-2778.99
 21
-104.926
 31
0
  0
LINE
  5
B6F
330
A02
100
AcDbEntity
  8
ProjItem181
100
AcDbLine
 10
-2778.99
 20
-104.926
 30
0
 11
-2570.73
 21
15.3141
 31
0
  0
LINE
  5
B70
330
A02
100
AcDbEntity
  8
ProjItem181
100
AcDbLine
 10
-2411.97
 20
2.43561
 30
0
 11
-2376.61
 21
-17.9768
 31
0
  0
LINE
  5
B71
330
A02
100
AcDbEntity
  8
ProjItem181
100
AcDbLine
 10
-2620.23
 20
-117.804
 30
0
 11
-2584.87
 21
-138.216
 31
0
  0
LINE
  5
B72
330
A02
100
AcDbEntity
  8
ProjItem181
100
AcDbLine
 10
-2376.61
 20
-17.9768
 30
0
 11
-2584.87
 21
-138.216
 31
0
  0
LINE
  5
B73
330
A02
100
AcDbEntity
  8
ProjItem181
100
AcDbLine
 10
-2376.61
 20
-26.1418
 30
0
 11
-2376.61
 21
-17.9768
 31
0
  0
LINE
  5
B74
330
A02
100
AcDbEntity
  8
ProjItem181
100
AcDbLine
 10
-2620.23
 20
-125.969
 30
0
 11
-2584.87
 21
-146.381
 31
0
  0
LINE
  5
B75
330
A02
100
AcDbEntity
  8
ProjItem181
100
AcDbLine
 10
-2584.87
 20
-138.216
 30
0
 11
-2584.87
 21
-146.381
 31
0
  0
LINE
  5
B76
330
A02
100
AcDbEntity
  8
ProjItem181
100
AcDbLine
 10
-2584.87
 20
-146.381
 30
0
 11
-2376.61
 21
-26.1418
 31
0
  0
LINE
  5
B77
330
A02
100
AcDbEntity
  8
ProjItem181
100
AcDbLine
 10
-2994.32
 20
126.803
 30
0
 11
-2958.97
 21
106.391
 31
0
  0
LINE
  5
B78
330
A02
100
AcDbEntity
  8
ProjItem181
100
AcDbLine
 10
-3202.58
 20
6.56352
 30
0
 11
-3167.23
 21
-13.8489
 31
0
  0
LINE
  5
B79
330
A02
100
AcDbEntity
  8
ProjItem181
100
AcDbLine
 10
-2958.97
 20
106.391
 30
0
 11
-3167.23
 21
-13.8489
 31
0
  0
LINE
  5
B7A
330
A02
100
AcDbEntity
  8
ProjItem181
100
AcDbLine
 10
-2958.97
 20
98.2258
 30
0
 11
-2958.97
 21
106.391
 31
0
  0
LINE
  5
B7B
330
A02
100
AcDbEntity
  8
ProjItem181
100
AcDbLine
 10
-3202.58
 20
-1.60144
 30
0
 11
-3167.23
 21
-22.0139
 31
0
  0
LINE
  5
B7C
330
A02
100
AcDbEntity
  8
ProjItem181
100
AcDbLine
 10
-3167.23
 20
-13.8489
 30
0
 11
-3167.23
 21
-22.0139
 31
0
  0
LINE
  5
B7D
330
A02
100
AcDbEntity
  8
ProjItem181
100
AcDbLine
 10
-3167.23
 20
-22.0139
 30
0
 11
-2958.97
 21
98.2258
 31
0
  0
LINE
  5
B7E
330
A02
100
AcDbEntity
  8
ProjItem181
100
AcDbLine
 10
-2800.2
 20
85.3473
 30
0
 11
-2764.85
 21
64.9349
 31
0
  0
LINE
  5
B7F
330
A02
100
AcDbEntity
  8
ProjItem181
100
AcDbLine
 10
-3008.46
 20
-34.8923
 30
0
 11
-2973.11
 21
-55.3047
 31
0
  0
LINE
  5
B80
330
A02
100
AcDbEntity
  8
ProjItem181
100
AcDbLine
 10
-2764.85
 20
64.9349
 30
0
 11
-2973.11
 21
-55.3047
 31
0
  0
LINE
  5
B81
330
A02
100
AcDbEntity
  8
ProjItem181
100
AcDbLine
 10
-2764.85
 20
56.7699
 30
0
 11
-2764.85
 21
64.9349
 31
0
  0
LINE
  5
B82
330
A02
100
AcDbEntity
  8
ProjItem181
100
AcDbLine
 10
-3008.46
 20
-43.0573
 30
0
 11
-2973.11
 21
-63.4697
 31
0
  0
LINE
  5
B83
330
A02
100
AcDbEntity
  8
ProjItem181
100
AcDbLine
 10
-2973.11
 20
-55.3047
 30
0
 11
-2973.11
 21
-63.4697
 31
0
  0
LINE
  5
B84
330
A02
100
AcDbEntity
  8
ProjItem181
100
AcDbLine
 10
-2973.11
 20
-63.4697
 30
0
 11
-2764.85
 21
56.7699
 31
0
  0
LINE
  5
B85
330
A02
100
AcDbEntity
  8
ProjItem181
100
AcDbLine
 10
-2217.85
 20
-39.0202
 30
0
 11
-2182.49
 21
-59.4327
 31
0
  0
LINE
  5
B86
330
A02
100
AcDbEntity
  8
ProjItem181
100
AcDbLine
 10
-2426.11
 20
-159.26
 30
0
 11
-2390.75
 21
-179.672
 31
0
  0
LINE
  5
B87
330
A02
100
AcDbEntity
  8
ProjItem181
100
AcDbLine
 10
-2182.49
 20
-59.4327
 30
0
 11
-2390.75
 21
-179.672
 31
0
  0
LINE
  5
B88
330
A02
100
AcDbEntity
  8
ProjItem181
100
AcDbLine
 10
-2182.49
 20
-67.5976
 30
0
 11
-2182.49
 21
-59.4327
 31
0
  0
LINE
  5
B89
330
A02
100
AcDbEntity
  8
ProjItem181
100
AcDbLine
 10
-2426.11
 20
-167.425
 30
0
 11
-2390.75
 21
-187.837
 31
0
  0
LINE
  5
B8A
330
A02
100
AcDbEntity
  8
ProjItem181
100
AcDbLine
 10
-2390.75
 20
-179.672
 30
0
 11
-2390.75
 21
-187.837
 31
0
  0
LINE
  5
B8B
330
A02
100
AcDbEntity
  8
ProjItem181
100
AcDbLine
 10
-2390.75
 20
-187.837
 30
0
 11
-2182.49
 21
-67.5976
 31
0
  0
LINE
  5
B8C
330
A02
100
AcDbEntity
  8
ProjItem181
100
AcDbLine
 10
-3396.7
 20
48.0194
 30
0
 11
-3396.7
 21
39.8544
 31
0
  0
LINE
  5
B8D
330
A02
100
AcDbEntity
  8
ProjItem181
100
AcDbLine
 10
-3361.35
 20
27.607
 30
0
 11
-3361.35
 21
19.442
 31
0
  0
LINE
  5
B8E
330
A02
100
AcDbEntity
  8
ProjItem181
100
AcDbLine
 10
-1445.81
 20
-960.335
 30
0
 11
-1269.04
 21
-858.273
 31
0
  0
ENDSEC
  0
SECTION
  2
OBJECTS
  0
DICTIONARY
  5
F000
330
0
100
AcDbDictionary
  3
ACAD_GROUP
350
F001
  0
DICTIONARY
  5
F001
330
F000
100
AcDbDictionary
  0
ENDSEC
  0
EOF