999
FreeCAD v0.21 33771 (Git)
  0
SECTION
  2
HEADER
  9
$ACADVER
  1
AC1014
  9
$ACADMAINTVER
 70
     9
  9
$DWGCODEPAGE
  3
ANSI_1252
  9
$TEXTSTYLE
  7
STANDARD
  9
$DIMSTYLE
  2
STANDARD
  9
$DIMTXSTY
  7
STANDARD
  9
$CMLSTYLE
  2
STANDARD
  9
$LUNITS
 70
2
  9
$INSUNITS
 70
4
  9
$PEXTMAX
 10
50
 20
50
 30
50
  9
$PEXTMIN
 10
0
 20
0
 30
0
  9
$HANDSEED
  5
FFFF
  0
ENDSEC
  0
SECTION
  2
CLASSES
  0
CLASS
  1
ACDBDICTIONARYWDFLT
  2
AcDbDictionaryWithDefault
  3
ObjectDBX Classes
 90
        0
280
     0
281
     0
  0
CLASS
  1
XRECORD
  2
AcDbXrecord
  3
ObjectDBX Classes
 90
        0
280
     0
281
     0
  0
CLASS
  1
LWPOLYLINE
  2
AcDbPolyline
  3
ObjectDBX Classes
 90
        0
280
     0
281
     1
  0
ENDSEC
  0
SECTION
  2
TABLES
  0
TABLE
  2
VPORT
  5
20
330
0
100
AcDbSymbolTable
 70
     1
  0
VPORT
  5
21
330
20
100
AcDbSymbolTableRecord
100
AcDbViewportTableRecord
  2
*ACTIVE
 70
     0
  0
ENDTAB
  0
TABLE
  2
LTYPE
  5
22
330
0
100
AcDbSymbolTable
 70
     1
  0
LTYPE
  5
23
330
21
100
AcDbSymbolTableRecord
100
AcDbLinetypeTableRecord
  2
BYBLOCK
 70
     0
  3

 72
    65
 73
     0
 40
0.0
  0
LTYPE
  5
24
330
21
100
AcDbSymbolTableRecord
100
AcDbLinetypeTableRecord
  2
BYLAYER
 70
     0
  3

 72
    65
 73
     0
 40
0.0
  0
LTYPE
  5
25
330
21
100
AcDbSymbolTableRecord
100
AcDbLinetypeTableRecord
  2
CONTINUOUS
 70
     0
  3
Solid line
 72
    65
 73
     0
 40
0.0
  0
ENDTAB
  0
TABLE
  2
LAYER
  5
AA5
330
0
100
AcDbSymbolTable
 70
5
  0
LAYER
  5
AA6
330
AA5
100
AcDbSymbolTableRecord
100
AcDbLayerTableRecord
  2
0
 70
   0
 62
   7
  6
CONTINUOUS
  0
LAYER
  5
AA7
330
AA5
100
AcDbSymbolTableRecord
100
AcDbLayerTableRecord
  2
ProjItem176
 70
    0
 62
    7
  6
CONTINUOUS
  0
LAYER
  5
AA8
330
AA5
100
AcDbSymbolTableRecord
100
AcDbLayerTableRecord
  2
ProjItem178
 70
    0
 62
    7
  6
CONTINUOUS
  0
LAYER
  5
AA9
330
AA5
100
AcDbSymbolTableRecord
100
AcDbLayerTableRecord
  2
ProjItem179
 70
    0
 62
    7
  6
CONTINUOUS
  0
LAYER
  5
AAA
330
AA5
100
AcDbSymbolTableRecord
100
AcDbLayerTableRecord
  2
ProjItem177
 70
    0
 62
    7
  6
CONTINUOUS
  0
ENDTAB
  0
TABLE
  2
STYLE
  5
70
330
0
100
AcDbSymbolTable
 70
     2
  0
STYLE
  5
71
330
70
100
AcDbSymbolTableRecord
100
AcDbTextStyleTableRecord
  2
STANDARD
 70
     0
 40
0.0
 41
1.0
 50
0.0
 71
     0
 42
2.5
  3
arial.ttf
  4

  0
STYLE
  5
72
330
70
100
AcDbSymbolTableRecord
100
AcDbTextStyleTableRecord
  2
ANNOTATIVE
 70
     0
 40
0.0
 41
1.0
 50
0.0
 71
     0
 42
2.5
  3
arial.ttf
  4

  0
ENDTAB
  0
TABLE
  2
VIEW
  5
73
330
0
100
AcDbSymbolTable
 70
     0
  0
ENDTAB
  0
TABLE
  2
UCS
  5
74
330
0
100
AcDbSymbolTable
 70
     0
  0
ENDTAB
  0
TABLE
  2
APPID
  5
75
330
0
100
AcDbSymbolTable
 70
     2
  0
APPID
  5
76
330
75
100
AcDbSymbolTableRecord
100
AcDbRegAppTableRecord
  2
ACAD
 70
     0
  0
APPID
  5
77
330
75
100
AcDbSymbolTableRecord
100
AcDbRegAppTableRecord
  2
ACADANNOTATIVE
 70
     0
  0
ENDTAB
  0
TABLE
  2
DIMSTYLE
  5
78
330
0
100
AcDbSymbolTable
 70
     2
  0
DIMSTYLE
105
79
330
78
100
AcDbSymbolTableRecord
100
AcDbDimStyleTableRecord
  2
STANDARD
 70
     0
  3

  4

  5

  6

  7

 40
0.0
 41
2.5
 42
0.625
 43
3.75
 44
1.25
 45
0.0
 46
0.0
 47
0.0
 48
0.0
140
2.5
141
2.5
142
0.0
143
0.03937007874016
144
1.0
145
0.0
146
1.0
147
0.625
 71
     0
 72
     0
 73
     0
 74
     0
 75
     0
 76
     0
 77
     1
 78
     8
170
     0
171
     3
172
     1
173
     0
174
     0
175
     0
176
     0
177
     0
178
     0
270
     2
271
     2
272
     2
273
     2
274
     3
340
71
275
     0
280
     0
281
     0
282
     0
283
     0
284
     8
285
     0
286
     0
287
     3
288
     0
  0
ENDTAB
  0
TABLE
  2
BLOCK_RECORD
  5
A01
330
0
100
AcDbSymbolTable
  70
5
  0
BLOCK_RECORD
  5
A02
330
A01
100
AcDbSymbolTableRecord
100
AcDbBlockTableRecord
  2
*MODEL_SPACE
  0
BLOCK_RECORD
  5
A03
330
A01
100
AcDbSymbolTableRecord
100
AcDbBlockTableRecord
  2
*PAPER_SPACE
  0
ENDTAB
  0
ENDSEC
  0
SECTION
  2
BLOCKS
  0
BLOCK
  5
A04
330
A02
100
AcDbEntity
  8
0
100
AcDbBlockBegin
  2
*MODEL_SPACE
 70
   0
 10
0
 20
0
 30
0
  3
*MODEL_SPACE
  1
 
  0
ENDBLK
  5
A05
330
A02
100
AcDbEntity
  8
0
100
AcDbBlockEnd
  0
BLOCK
  5
A06
330
A03
100
AcDbEntity
 67
1
  8
0
100
AcDbBlockBegin
  2
*PAPER_SPACE
 70
   0
 10
0
 20
0
 30
0
  3
*PAPER_SPACE
  1
 
  0
ENDBLK
  5
A07
330
A03
100
AcDbEntity
 67
    1
  8
0
100
AcDbBlockEnd
  0
ENDSEC
  0
SECTION
  2
ENTITIES
  0
LINE
  5
A08
330
A02
100
AcDbEntity
  8
ProjItem176
100
AcDbLine
 10
1097.83
 20
604.7
 30
0
 11
808.096
 21
604.7
 31
0
  0
LINE
  5
A09
330
A02
100
AcDbEntity
  8
ProjItem176
100
AcDbLine
 10
808.096
 20
604.7
 30
0
 11
278.74
 21
243.2
 31
0
  0
LINE
  5
A0A
330
A02
100
AcDbEntity
  8
ProjItem176
100
AcDbLine
 10
1097.83
 20
354.7
 30
0
 11
1097.83
 21
484.7
 31
0
  0
LINE
  5
A0B
330
A02
100
AcDbEntity
  8
ProjItem176
100
AcDbLine
 10
1097.83
 20
484.7
 30
0
 11
1097.83
 21
604.7
 31
0
  0
LINE
  5
A0C
330
A02
100
AcDbEntity
  8
ProjItem176
100
AcDbLine
 10
278.74
 20
243.2
 30
0
 11
-733.172
 21
243.2
 31
0
  0
LINE
  5
A0D
330
A02
100
AcDbEntity
  8
ProjItem176
100
AcDbLine
 10
-733.172
 20
243.2
 30
0
 11
-733.172
 21
163.2
 31
0
  0
LINE
  5
A0E
330
A02
100
AcDbEntity
  8
ProjItem176
100
AcDbLine
 10
-733.172
 20
163.2
 30
0
 11
-733.172
 21
23.1997
 31
0
  0
LINE
  5
A0F
330
A02
100
AcDbEntity
  8
ProjItem176
100
AcDbLine
 10
-733.172
 20
23.1997
 30
0
 11
-733.172
 21
-6.80034
 31
0
  0
LINE
  5
A10
330
A02
100
AcDbEntity
  8
ProjItem176
100
AcDbLine
 10
-733.172
 20
163.2
 30
0
 11
-721.172
 21
163.2
 31
0
  0
LINE
  5
A11
330
A02
100
AcDbEntity
  8
ProjItem176
100
AcDbLine
 10
-733.172
 20
23.1997
 30
0
 11
-721.172
 21
23.1997
 31
0
  0
LINE
  5
A12
330
A02
100
AcDbEntity
  8
ProjItem176
100
AcDbLine
 10
-733.172
 20
-6.80034
 30
0
 11
355.959
 21
-6.80034
 31
0
  0
LINE
  5
A13
330
A02
100
AcDbEntity
  8
ProjItem176
100
AcDbLine
 10
355.959
 20
-6.80034
 30
0
 11
885.315
 21
354.7
 31
0
  0
LINE
  5
A14
330
A02
100
AcDbEntity
  8
ProjItem176
100
AcDbLine
 10
885.315
 20
354.7
 30
0
 11
1085.83
 21
354.7
 31
0
  0
LINE
  5
A15
330
A02
100
AcDbEntity
  8
ProjItem176
100
AcDbLine
 10
1097.83
 20
354.7
 30
0
 11
1085.83
 21
354.7
 31
0
  0
LINE
  5
A16
330
A02
100
AcDbEntity
  8
ProjItem176
100
AcDbLine
 10
1085.83
 20
354.7
 30
0
 11
1085.83
 21
484.7
 31
0
  0
LINE
  5
A17
330
A02
100
AcDbEntity
  8
ProjItem176
100
AcDbLine
 10
1097.83
 20
484.7
 30
0
 11
1085.83
 21
484.7
 31
0
  0
LINE
  5
A18
330
A02
100
AcDbEntity
  8
ProjItem176
100
AcDbLine
 10
-721.172
 20
23.1997
 30
0
 11
-721.172
 21
163.2
 31
0
  0
LINE
  5
A19
330
A02
100
AcDbEntity
  8
ProjItem176
100
AcDbLine
 10
-673.172
 20
183.2
 30
0
 11
-673.172
 21
193.2
 31
0
  0
LINE
  5
A1A
330
A02
100
AcDbEntity
  8
ProjItem176
100
AcDbLine
 10
583.828
 20
183.2
 30
0
 11
-673.172
 21
183.2
 31
0
  0
LINE
  5
A1B
330
A02
100
AcDbEntity
  8
ProjItem176
100
AcDbLine
 10
583.828
 20
193.2
 30
0
 11
583.828
 21
183.2
 31
0
  0
LINE
  5
A1C
330
A02
100
AcDbEntity
  8
ProjItem176
100
AcDbLine
 10
-673.172
 20
193.2
 30
0
 11
583.828
 21
193.2
 31
0
  0
LINE
  5
A1D
330
A02
100
AcDbEntity
  8
ProjItem176
100
AcDbLine
 10
855.828
 20
378.95
 30
0
 11
563.828
 21
378.95
 31
0
  0
LINE
  5
A1E
330
A02
100
AcDbEntity
  8
ProjItem176
100
AcDbLine
 10
563.828
 20
378.95
 30
0
 11
563.828
 21
368.95
 31
0
  0
LINE
  5
A1F
330
A02
100
AcDbEntity
  8
ProjItem176
100
AcDbLine
 10
563.828
 20
368.95
 30
0
 11
855.828
 21
368.95
 31
0
  0
LINE
  5
A20
330
A02
100
AcDbEntity
  8
ProjItem176
100
AcDbLine
 10
855.828
 20
368.95
 30
0
 11
855.828
 21
378.95
 31
0
  0
LINE
  5
A21
330
A02
100
AcDbEntity
  8
ProjItem176
100
AcDbLine
 10
835.828
 20
554.7
 30
0
 11
835.828
 21
564.7
 31
0
  0
LINE
  5
A22
330
A02
100
AcDbEntity
  8
ProjItem176
100
AcDbLine
 10
1087.83
 20
554.7
 30
0
 11
835.828
 21
554.7
 31
0
  0
LINE
  5
A23
330
A02
100
AcDbEntity
  8
ProjItem176
100
AcDbLine
 10
1087.83
 20
564.7
 30
0
 11
1087.83
 21
554.7
 31
0
  0
LINE
  5
A24
330
A02
100
AcDbEntity
  8
ProjItem176
100
AcDbLine
 10
835.828
 20
564.7
 30
0
 11
1087.83
 21
564.7
 31
0
  0
LINE
  5
A25
330
A02
100
AcDbEntity
  8
ProjItem178
100
AcDbLine
 10
1203.01
 20
604.7
 30
0
 11
1191.01
 21
604.7
 31
0
  0
LINE
  5
A26
330
A02
100
AcDbEntity
  8
ProjItem178
100
AcDbLine
 10
1203.01
 20
604.7
 30
0
 11
1203.01
 21
243.2
 31
0
  0
LINE
  5
A27
330
A02
100
AcDbEntity
  8
ProjItem178
100
AcDbLine
 10
1191.01
 20
604.7
 30
0
 11
1191.01
 21
243.2
 31
0
  0
LINE
  5
A28
330
A02
100
AcDbEntity
  8
ProjItem178
100
AcDbLine
 10
1191.01
 20
243.2
 30
0
 11
1191.01
 21
-6.80034
 31
0
  0
LINE
  5
A29
330
A02
100
AcDbEntity
  8
ProjItem178
100
AcDbLine
 10
1203.01
 20
243.2
 30
0
 11
1191.01
 21
243.2
 31
0
  0
LINE
  5
A2A
330
A02
100
AcDbEntity
  8
ProjItem178
100
AcDbLine
 10
1203.01
 20
243.2
 30
0
 11
1203.01
 21
163.2
 31
0
  0
LINE
  5
A2B
330
A02
100
AcDbEntity
  8
ProjItem178
100
AcDbLine
 10
1203.01
 20
163.2
 30
0
 11
1283.01
 21
163.2
 31
0
  0
LINE
  5
A2C
330
A02
100
AcDbEntity
  8
ProjItem178
100
AcDbLine
 10
1283.01
 20
163.2
 30
0
 11
1283.01
 21
23.1997
 31
0
  0
LINE
  5
A2D
330
A02
100
AcDbEntity
  8
ProjItem178
100
AcDbLine
 10
1283.01
 20
23.1997
 30
0
 11
1203.01
 21
23.1997
 31
0
  0
LINE
  5
A2E
330
A02
100
AcDbEntity
  8
ProjItem178
100
AcDbLine
 10
1203.01
 20
23.1997
 30
0
 11
1203.01
 21
-6.80034
 31
0
  0
LINE
  5
A2F
330
A02
100
AcDbEntity
  8
ProjItem178
100
AcDbLine
 10
1203.01
 20
-6.80034
 30
0
 11
1191.01
 21
-6.80034
 31
0
  0
CIRCLE
  5
A30
330
A02
100
AcDbEntity
  8
ProjItem178
100
AcDbCircle
 10
1243.01
 20
123.2
 40
7
  0
CIRCLE
  5
A31
330
A02
100
AcDbEntity
  8
ProjItem178
100
AcDbCircle
 10
1243.01
 20
63.1997
 40
7
  0
LINE
  5
A32
330
A02
100
AcDbEntity
  8
ProjItem178
100
AcDbLine
 10
1203.01
 20
354.7
 30
0
 11
1283.01
 21
354.7
 31
0
  0
LINE
  5
A33
330
A02
100
AcDbEntity
  8
ProjItem178
100
AcDbLine
 10
1283.01
 20
354.7
 30
0
 11
1283.01
 21
484.7
 31
0
  0
LINE
  5
A34
330
A02
100
AcDbEntity
  8
ProjItem178
100
AcDbLine
 10
1283.01
 20
484.7
 30
0
 11
1203.01
 21
484.7
 31
0
  0
CIRCLE
  5
A35
330
A02
100
AcDbEntity
  8
ProjItem178
100
AcDbCircle
 10
1243.01
 20
394.7
 40
7
  0
CIRCLE
  5
A36
330
A02
100
AcDbEntity
  8
ProjItem178
100
AcDbCircle
 10
1243.01
 20
444.7
 40
7
  0
LINE
  5
A37
330
A02
100
AcDbEntity
  8
ProjItem178
100
AcDbLine
 10
1203.01
 20
183.2
 30
0
 11
1253.01
 21
183.2
 31
0
  0
LINE
  5
A38
330
A02
100
AcDbEntity
  8
ProjItem178
100
AcDbLine
 10
1203.01
 20
193.2
 30
0
 11
1253.01
 21
193.2
 31
0
  0
LINE
  5
A39
330
A02
100
AcDbEntity
  8
ProjItem178
100
AcDbLine
 10
1253.01
 20
183.2
 30
0
 11
1253.01
 21
193.2
 31
0
  0
LINE
  5
A3A
330
A02
100
AcDbEntity
  8
ProjItem178
100
AcDbLine
 10
1203.01
 20
378.95
 30
0
 11
1253.01
 21
378.95
 31
0
  0
LINE
  5
A3B
330
A02
100
AcDbEntity
  8
ProjItem178
100
AcDbLine
 10
1203.01
 20
368.95
 30
0
 11
1253.01
 21
368.95
 31
0
  0
LINE
  5
A3C
330
A02
100
AcDbEntity
  8
ProjItem178
100
AcDbLine
 10
1253.01
 20
378.95
 30
0
 11
1253.01
 21
368.95
 31
0
  0
LINE
  5
A3D
330
A02
100
AcDbEntity
  8
ProjItem178
100
AcDbLine
 10
1203.01
 20
554.7
 30
0
 11
1253.01
 21
554.7
 31
0
  0
LINE
  5
A3E
330
A02
100
AcDbEntity
  8
ProjItem178
100
AcDbLine
 10
1203.01
 20
564.7
 30
0
 11
1253.01
 21
564.7
 31
0
  0
LINE
  5
A3F
330
A02
100
AcDbEntity
  8
ProjItem178
100
AcDbLine
 10
1253.01
 20
554.7
 30
0
 11
1253.01
 21
564.7
 31
0
  0
LINE
  5
A40
330
A02
100
AcDbEntity
  8
ProjItem179
100
AcDbLine
 10
1097.83
 20
-105.212
 30
0
 11
808.096
 21
-105.212
 31
0
  0
LINE
  5
A41
330
A02
100
AcDbEntity
  8
ProjItem179
100
AcDbLine
 10
808.096
 20
-105.212
 30
0
 11
808.096
 21
-93.2124
 31
0
  0
LINE
  5
A42
330
A02
100
AcDbEntity
  8
ProjItem179
100
AcDbLine
 10
1097.83
 20
-93.2124
 30
0
 11
808.096
 21
-93.2124
 31
0
  0
LINE
  5
A43
330
A02
100
AcDbEntity
  8
ProjItem179
100
AcDbLine
 10
1097.83
 20
-105.212
 30
0
 11
1097.83
 21
-93.2124
 31
0
  0
LINE
  5
A44
330
A02
100
AcDbEntity
  8
ProjItem179
100
AcDbLine
 10
808.096
 20
-105.212
 30
0
 11
278.74
 21
-105.212
 31
0
  0
LINE
  5
A45
330
A02
100
AcDbEntity
  8
ProjItem179
100
AcDbLine
 10
278.74
 20
-105.212
 30
0
 11
278.74
 21
-93.2124
 31
0
  0
LINE
  5
A46
330
A02
100
AcDbEntity
  8
ProjItem179
100
AcDbLine
 10
808.096
 20
-93.2124
 30
0
 11
278.74
 21
-93.2124
 31
0
  0
LINE
  5
A47
330
A02
100
AcDbEntity
  8
ProjItem179
100
AcDbLine
 10
278.74
 20
-93.2124
 30
0
 11
-733.172
 21
-93.2124
 31
0
  0
LINE
  5
A48
330
A02
100
AcDbEntity
  8
ProjItem179
100
AcDbLine
 10
1097.83
 20
-185.212
 30
0
 11
1097.83
 21
-105.212
 31
0
  0
LINE
  5
A49
330
A02
100
AcDbEntity
  8
ProjItem179
100
AcDbLine
 10
278.74
 20
-105.212
 30
0
 11
-733.172
 21
-105.212
 31
0
  0
LINE
  5
A4A
330
A02
100
AcDbEntity
  8
ProjItem179
100
AcDbLine
 10
-733.172
 20
-105.212
 30
0
 11
-733.172
 21
-93.2124
 31
0
  0
LINE
  5
A4B
330
A02
100
AcDbEntity
  8
ProjItem179
100
AcDbLine
 10
-733.172
 20
-105.212
 30
0
 11
-733.172
 21
-185.212
 31
0
  0
LINE
  5
A4C
330
A02
100
AcDbEntity
  8
ProjItem179
100
AcDbLine
 10
-733.172
 20
-185.212
 30
0
 11
-721.172
 21
-185.212
 31
0
  0
LINE
  5
A4D
330
A02
100
AcDbEntity
  8
ProjItem179
100
AcDbLine
 10
-721.172
 20
-185.212
 30
0
 11
-721.172
 21
-105.212
 31
0
  0
LINE
  5
A4E
330
A02
100
AcDbEntity
  8
ProjItem179
100
AcDbLine
 10
1085.83
 20
-185.212
 30
0
 11
1085.83
 21
-155.212
 31
0
  0
LINE
  5
A4F
330
A02
100
AcDbEntity
  8
ProjItem179
100
AcDbLine
 10
1097.83
 20
-185.212
 30
0
 11
1085.83
 21
-185.212
 31
0
  0
LINE
  5
A50
330
A02
100
AcDbEntity
  8
ProjItem179
100
AcDbLine
 10
-673.172
 20
-105.212
 30
0
 11
-673.172
 21
-155.212
 31
0
  0
LINE
  5
A51
330
A02
100
AcDbEntity
  8
ProjItem179
100
AcDbLine
 10
-673.172
 20
-155.212
 30
0
 11
563.828
 21
-155.212
 31
0
  0
LINE
  5
A52
330
A02
100
AcDbEntity
  8
ProjItem179
100
AcDbLine
 10
563.828
 20
-105.212
 30
0
 11
563.828
 21
-155.212
 31
0
  0
LINE
  5
A53
330
A02
100
AcDbEntity
  8
ProjItem179
100
AcDbLine
 10
835.828
 20
-155.212
 30
0
 11
563.828
 21
-155.212
 31
0
  0
LINE
  5
A54
330
A02
100
AcDbEntity
  8
ProjItem179
100
AcDbLine
 10
835.828
 20
-105.212
 30
0
 11
835.828
 21
-155.212
 31
0
  0
LINE
  5
A55
330
A02
100
AcDbEntity
  8
ProjItem179
100
AcDbLine
 10
1087.83
 20
-105.212
 30
0
 11
1087.83
 21
-155.212
 31
0
  0
LINE
  5
A56
330
A02
100
AcDbEntity
  8
ProjItem179
100
AcDbLine
 10
835.828
 20
-155.212
 30
0
 11
1087.83
 21
-155.212
 31
0
  0
LINE
  5
A57
330
A02
100
AcDbEntity
  8
ProjItem177
100
AcDbLine
 10
-884.03
 20
13.8119
 30
0
 11
-1088.9
 21
-104.471
 31
0
  0
LINE
  5
A58
330
A02
100
AcDbEntity
  8
ProjItem177
100
AcDbLine
 10
-1088.9
 20
-104.471
 30
0
 11
-1097.39
 21
-99.5718
 31
0
  0
LINE
  5
A59
330
A02
100
AcDbEntity
  8
ProjItem177
100
AcDbLine
 10
-892.515
 20
18.7109
 30
0
 11
-1097.39
 21
-99.5718
 31
0
  0
LINE
  5
A5A
330
A02
100
AcDbEntity
  8
ProjItem177
100
AcDbLine
 10
-884.03
 20
13.8119
 30
0
 11
-892.515
 21
18.7109
 31
0
  0
LINE
  5
A5B
330
A02
100
AcDbEntity
  8
ProjItem177
100
AcDbLine
 10
-1088.9
 20
-104.471
 30
0
 11
-1463.21
 21
-615.743
 31
0
  0
LINE
  5
A5C
330
A02
100
AcDbEntity
  8
ProjItem177
100
AcDbLine
 10
-1463.21
 20
-615.743
 30
0
 11
-1471.7
 21
-610.844
 31
0
  0
LINE
  5
A5D
330
A02
100
AcDbEntity
  8
ProjItem177
100
AcDbLine
 10
-1097.39
 20
-99.5718
 30
0
 11
-1471.7
 21
-610.844
 31
0
  0
LINE
  5
A5E
330
A02
100
AcDbEntity
  8
ProjItem177
100
AcDbLine
 10
-1471.7
 20
-610.844
 30
0
 11
-2187.23
 21
-1023.96
 31
0
  0
LINE
  5
A5F
330
A02
100
AcDbEntity
  8
ProjItem177
100
AcDbLine
 10
-2187.23
 20
-1023.96
 30
0
 11
-2187.23
 21
-1228.08
 31
0
  0
LINE
  5
A60
330
A02
100
AcDbEntity
  8
ProjItem177
100
AcDbLine
 10
-827.461
 20
-222.972
 30
0
 11
-827.461
 21
-116.828
 31
0
  0
LINE
  5
A61
330
A02
100
AcDbEntity
  8
ProjItem177
100
AcDbLine
 10
-827.461
 20
-116.828
 30
0
 11
-884.03
 21
-84.1677
 31
0
  0
LINE
  5
A62
330
A02
100
AcDbEntity
  8
ProjItem177
100
AcDbLine
 10
-884.03
 20
-84.1677
 30
0
 11
-884.03
 21
-67.8378
 31
0
  0
LINE
  5
A63
330
A02
100
AcDbEntity
  8
ProjItem177
100
AcDbLine
 10
-884.03
 20
-27.0129
 30
0
 11
-884.03
 21
13.8119
 31
0
  0
LINE
  5
A64
330
A02
100
AcDbEntity
  8
ProjItem177
100
AcDbLine
 10
-1463.21
 20
-615.743
 30
0
 11
-2178.74
 21
-1028.85
 31
0
  0
LINE
  5
A65
330
A02
100
AcDbEntity
  8
ProjItem177
100
AcDbLine
 10
-2178.74
 20
-1028.85
 30
0
 11
-2187.23
 21
-1023.96
 31
0
  0
LINE
  5
A66
330
A02
100
AcDbEntity
  8
ProjItem177
100
AcDbLine
 10
-2178.74
 20
-1028.85
 30
0
 11
-2178.74
 21
-1094.17
 31
0
  0
LINE
  5
A67
330
A02
100
AcDbEntity
  8
ProjItem177
100
AcDbLine
 10
-2178.74
 20
-1094.17
 30
0
 11
-2122.17
 21
-1126.83
 31
0
  0
LINE
  5
A68
330
A02
100
AcDbEntity
  8
ProjItem177
100
AcDbLine
 10
-2122.17
 20
-1126.83
 30
0
 11
-2122.17
 21
-1241.14
 31
0
  0
LINE
  5
A69
330
A02
100
AcDbEntity
  8
ProjItem177
100
AcDbLine
 10
-2122.17
 20
-1241.14
 30
0
 11
-2178.74
 21
-1208.48
 31
0
  0
LINE
  5
A6A
330
A02
100
AcDbEntity
  8
ProjItem177
100
AcDbLine
 10
-2178.74
 20
-1208.48
 30
0
 11
-2178.74
 21
-1232.98
 31
0
  0
LINE
  5
A6B
330
A02
100
AcDbEntity
  8
ProjItem177
100
AcDbLine
 10
-2178.74
 20
-1232.98
 30
0
 11
-2187.23
 21
-1228.08
 31
0
  0
ELLIPSE
  5
A6C
330
A02
100
AcDbEntity
  8
ProjItem177
100
AcDbEllipse
 10
-2150.46
 20
-1143.16
 30
0
 11
-3.5
 21
6.06218
 31
0
 40
0.57735
 41
2.35619
 42
3.14159
  0
ELLIPSE
  5
A6D
330
A02
100
AcDbEntity
  8
ProjItem177
100
AcDbEllipse
 10
-2150.46
 20
-1143.16
 30
0
 11
-3.5
 21
6.06218
 31
0
 40
0.57735
 41
3.14159
 42
0
  0
ELLIPSE
  5
A6E
330
A02
100
AcDbEntity
  8
ProjItem177
100
AcDbEllipse
 10
-2150.46
 20
-1143.16
 30
0
 11
-3.5
 21
6.06218
 31
0
 40
0.57735
 41
0
 42
2.35619
  0
ELLIPSE
  5
A6F
330
A02
100
AcDbEntity
  8
ProjItem177
100
AcDbEllipse
 10
-2150.46
 20
-1192.15
 30
0
 11
-3.5
 21
6.06218
 31
0
 40
0.57735
 41
2.35619
 42
3.14159
  0
ELLIPSE
  5
A70
330
A02
100
AcDbEntity
  8
ProjItem177
100
AcDbEllipse
 10
-2150.46
 20
-1192.15
 30
0
 11
-3.5
 21
6.06218
 31
0
 40
0.57735
 41
3.14159
 42
0
  0
ELLIPSE
  5
A71
330
A02
100
AcDbEntity
  8
ProjItem177
100
AcDbEllipse
 10
-2150.46
 20
-1192.15
 30
0
 11
-3.5
 21
6.06218
 31
0
 40
0.57735
 41
0
 42
2.35619
  0
LINE
  5
A72
330
A02
100
AcDbEntity
  8
ProjItem177
100
AcDbLine
 10
-2122.17
 20
-1126.83
 30
0
 11
-2113.69
 21
-1121.93
 31
0
  0
LINE
  5
A73
330
A02
100
AcDbEntity
  8
ProjItem177
100
AcDbLine
 10
-2113.69
 20
-1121.93
 30
0
 11
-2170.26
 21
-1089.28
 31
0
  0
LINE
  5
A74
330
A02
100
AcDbEntity
  8
ProjItem177
100
AcDbLine
 10
-2178.74
 20
-1094.17
 30
0
 11
-2170.26
 21
-1089.28
 31
0
  0
LINE
  5
A75
330
A02
100
AcDbEntity
  8
ProjItem177
100
AcDbLine
 10
-2122.17
 20
-1241.14
 30
0
 11
-2113.69
 21
-1236.24
 31
0
  0
LINE
  5
A76
330
A02
100
AcDbEntity
  8
ProjItem177
100
AcDbLine
 10
-2178.74
 20
-1232.98
 30
0
 11
-2157.53
 21
-1220.73
 31
0
  0
LINE
  5
A77
330
A02
100
AcDbEntity
  8
ProjItem177
100
AcDbLine
 10
-2113.69
 20
-1195.42
 30
0
 11
-1408.61
 21
-788.343
 31
0
  0
LINE
  5
A78
330
A02
100
AcDbEntity
  8
ProjItem177
100
AcDbLine
 10
-1408.61
 20
-788.343
 30
0
 11
-1263.65
 21
-590.34
 31
0
  0
LINE
  5
A79
330
A02
100
AcDbEntity
  8
ProjItem177
100
AcDbLine
 10
-1228.83
 20
-542.784
 30
0
 11
-1071.32
 21
-327.632
 31
0
  0
LINE
  5
A7A
330
A02
100
AcDbEntity
  8
ProjItem177
100
AcDbLine
 10
-1036.5
 20
-280.076
 30
0
 11
-1034.3
 21
-277.07
 31
0
  0
LINE
  5
A7B
330
A02
100
AcDbEntity
  8
ProjItem177
100
AcDbLine
 10
-1034.3
 20
-277.07
 30
0
 11
-892.515
 21
-195.211
 31
0
  0
LINE
  5
A7C
330
A02
100
AcDbEntity
  8
ProjItem177
100
AcDbLine
 10
-892.515
 20
-195.211
 30
0
 11
-835.946
 21
-227.871
 31
0
  0
LINE
  5
A7D
330
A02
100
AcDbEntity
  8
ProjItem177
100
AcDbLine
 10
-827.461
 20
-222.972
 30
0
 11
-835.946
 21
-227.871
 31
0
  0
LINE
  5
A7E
330
A02
100
AcDbEntity
  8
ProjItem177
100
AcDbLine
 10
-892.515
 20
-89.0667
 30
0
 11
-892.515
 21
-195.211
 31
0
  0
LINE
  5
A7F
330
A02
100
AcDbEntity
  8
ProjItem177
100
AcDbLine
 10
-835.946
 20
-227.871
 30
0
 11
-835.946
 21
-121.727
 31
0
  0
LINE
  5
A80
330
A02
100
AcDbEntity
  8
ProjItem177
100
AcDbLine
 10
-835.946
 20
-121.727
 30
0
 11
-892.515
 21
-89.0667
 31
0
  0
ELLIPSE
  5
A81
330
A02
100
AcDbEntity
  8
ProjItem177
100
AcDbEllipse
 10
-864.231
 20
-178.881
 30
0
 11
3.5
 21
-6.06218
 31
0
 40
0.57735
 41
-0
 42
-3.92699
  0
ELLIPSE
  5
A82
330
A02
100
AcDbEntity
  8
ProjItem177
100
AcDbEllipse
 10
-864.231
 20
-178.881
 30
0
 11
3.5
 21
-6.06218
 31
0
 40
0.57735
 41
-3.14159
 42
-0
  0
ELLIPSE
  5
A83
330
A02
100
AcDbEntity
  8
ProjItem177
100
AcDbEllipse
 10
-864.231
 20
-178.881
 30
0
 11
3.5
 21
-6.06218
 31
0
 40
0.57735
 41
-3.92699
 42
-3.14159
  0
ELLIPSE
  5
A84
330
A02
100
AcDbEntity
  8
ProjItem177
100
AcDbEllipse
 10
-864.231
 20
-138.056
 30
0
 11
3.5
 21
-6.06218
 31
0
 40
0.57735
 41
-0
 42
-3.92699
  0
ELLIPSE
  5
A85
330
A02
100
AcDbEntity
  8
ProjItem177
100
AcDbEllipse
 10
-864.231
 20
-138.056
 30
0
 11
3.5
 21
-6.06218
 31
0
 40
0.57735
 41
-3.14159
 42
-0
  0
ELLIPSE
  5
A86
330
A02
100
AcDbEntity
  8
ProjItem177
100
AcDbEllipse
 10
-864.231
 20
-138.056
 30
0
 11
3.5
 21
-6.06218
 31
0
 40
0.57735
 41
-3.92699
 42
-3.14159
  0
LINE
  5
A87
330
A02
100
AcDbEntity
  8
ProjItem177
100
AcDbLine
 10
-827.461
 20
-116.828
 30
0
 11
-835.946
 21
-121.727
 31
0
  0
LINE
  5
A88
330
A02
100
AcDbEntity
  8
ProjItem177
100
AcDbLine
 10
-884.03
 20
-84.1677
 30
0
 11
-892.515
 21
-89.0667
 31
0
  0
LINE
  5
A89
330
A02
100
AcDbEntity
  8
ProjItem177
100
AcDbLine
 10
-2113.69
 20
-1236.24
 30
0
 11
-2113.69
 21
-1121.93
 31
0
  0
LINE
  5
A8A
330
A02
100
AcDbEntity
  8
ProjItem177
100
AcDbLine
 10
-2136.32
 20
-1053.35
 30
0
 11
-2136.32
 21
-1045.18
 31
0
  0
LINE
  5
A8B
330
A02
100
AcDbEntity
  8
ProjItem177
100
AcDbLine
 10
-2136.32
 20
-1045.18
 30
0
 11
-1247.48
 21
-532.016
 31
0
  0
LINE
  5
A8C
330
A02
100
AcDbEntity
  8
ProjItem177
100
AcDbLine
 10
-1055.15
 20
-269.308
 30
0
 11
-1261.62
 21
-388.517
 31
0
  0
LINE
  5
A8D
330
A02
100
AcDbEntity
  8
ProjItem177
100
AcDbLine
 10
-1261.62
 20
-388.517
 30
0
 11
-1261.62
 21
-396.682
 31
0
  0
LINE
  5
A8E
330
A02
100
AcDbEntity
  8
ProjItem177
100
AcDbLine
 10
-1069.29
 20
-133.974
 30
0
 11
-1069.29
 21
-125.809
 31
0
  0
LINE
  5
A8F
330
A02
100
AcDbEntity
  8
ProjItem177
100
AcDbLine
 10
-1069.29
 20
-125.809
 30
0
 11
-891.101
 21
-22.9305
 31
0
  0
LINE
  5
A90
330
A02
100
AcDbEntity
  8
ProjItem177
100
AcDbLine
 10
-2136.32
 20
-1053.35
 30
0
 11
-2100.96
 21
-1073.76
 31
0
  0
LINE
  5
A91
330
A02
100
AcDbEntity
  8
ProjItem177
100
AcDbLine
 10
-2136.32
 20
-1045.18
 30
0
 11
-2100.96
 21
-1065.6
 31
0
  0
LINE
  5
A92
330
A02
100
AcDbEntity
  8
ProjItem177
100
AcDbLine
 10
-2100.96
 20
-1073.76
 30
0
 11
-2100.96
 21
-1065.6
 31
0
  0
LINE
  5
A93
330
A02
100
AcDbEntity
  8
ProjItem177
100
AcDbLine
 10
-1212.13
 20
-560.593
 30
0
 11
-2100.96
 21
-1073.76
 31
0
  0
LINE
  5
A94
330
A02
100
AcDbEntity
  8
ProjItem177
100
AcDbLine
 10
-1247.48
 20
-532.016
 30
0
 11
-1212.13
 21
-552.428
 31
0
  0
LINE
  5
A95
330
A02
100
AcDbEntity
  8
ProjItem177
100
AcDbLine
 10
-1212.13
 20
-552.428
 30
0
 11
-1212.13
 21
-560.593
 31
0
  0
LINE
  5
A96
330
A02
100
AcDbEntity
  8
ProjItem177
100
AcDbLine
 10
-2100.96
 20
-1065.6
 30
0
 11
-1212.13
 21
-552.428
 31
0
  0
LINE
  5
A97
330
A02
100
AcDbEntity
  8
ProjItem177
100
AcDbLine
 10
-1055.15
 20
-269.308
 30
0
 11
-1019.79
 21
-289.721
 31
0
  0
LINE
  5
A98
330
A02
100
AcDbEntity
  8
ProjItem177
100
AcDbLine
 10
-1261.62
 20
-388.517
 30
0
 11
-1226.27
 21
-408.929
 31
0
  0
LINE
  5
A99
330
A02
100
AcDbEntity
  8
ProjItem177
100
AcDbLine
 10
-1019.79
 20
-289.721
 30
0
 11
-1226.27
 21
-408.929
 31
0
  0
LINE
  5
A9A
330
A02
100
AcDbEntity
  8
ProjItem177
100
AcDbLine
 10
-1261.62
 20
-396.682
 30
0
 11
-1226.27
 21
-417.094
 31
0
  0
LINE
  5
A9B
330
A02
100
AcDbEntity
  8
ProjItem177
100
AcDbLine
 10
-1226.27
 20
-408.929
 30
0
 11
-1226.27
 21
-417.094
 31
0
  0
LINE
  5
A9C
330
A02
100
AcDbEntity
  8
ProjItem177
100
AcDbLine
 10
-1226.27
 20
-417.094
 30
0
 11
-1019.79
 21
-297.886
 31
0
  0
LINE
  5
A9D
330
A02
100
AcDbEntity
  8
ProjItem177
100
AcDbLine
 10
-1019.79
 20
-297.886
 30
0
 11
-1019.79
 21
-289.721
 31
0
  0
LINE
  5
A9E
330
A02
100
AcDbEntity
  8
ProjItem177
100
AcDbLine
 10
-1069.29
 20
-133.974
 30
0
 11
-1033.94
 21
-154.386
 31
0
  0
LINE
  5
A9F
330
A02
100
AcDbEntity
  8
ProjItem177
100
AcDbLine
 10
-1069.29
 20
-125.809
 30
0
 11
-1033.94
 21
-146.221
 31
0
  0
LINE
  5
AA0
330
A02
100
AcDbEntity
  8
ProjItem177
100
AcDbLine
 10
-1033.94
 20
-154.386
 30
0
 11
-1033.94
 21
-146.221
 31
0
  0
LINE
  5
AA1
330
A02
100
AcDbEntity
  8
ProjItem177
100
AcDbLine
 10
-855.745
 20
-51.5078
 30
0
 11
-1033.94
 21
-154.386
 31
0
  0
LINE
  5
AA2
330
A02
100
AcDbEntity
  8
ProjItem177
100
AcDbLine
 10
-891.101
 20
-22.9305
 30
0
 11
-855.745
 21
-43.3429
 31
0
  0
LINE
  5
AA3
330
A02
100
AcDbEntity
  8
ProjItem177
100
AcDbLine
 10
-855.745
 20
-43.3429
 30
0
 11
-855.745
 21
-51.5078
 31
0
  0
LINE
  5
AA4
330
A02
100
AcDbEntity
  8
ProjItem177
100
AcDbLine
 10
-1033.94
 20
-146.221
 30
0
 11
-855.745
 21
-43.3429
 31
0
  0
ENDSEC
  0
SECTION
  2
OBJECTS
  0
DICTIONARY
  5
F000
330
0
100
AcDbDictionary
  3
ACAD_GROUP
350
F001
  0
DICTIONARY
  5
F001
330
F000
100
AcDbDictionary
  0
ENDSEC
  0
EOF